<?xml version="1.0" encoding="utf-8"?>
<!-- Generator: Adobe Illustrator 25.4.1, SVG Export Plug-In . SVG Version: 6.00 Build 0)  -->
<svg version="1.2" baseProfile="tiny" id="Layer_1" xmlns="http://www.w3.org/2000/svg" xmlns:xlink="http://www.w3.org/1999/xlink"
	 x="0px" y="0px" viewBox="0 0 1000 780" overflow="visible" xml:space="preserve">
<g id="Layer_4">
</g>
<g id="outline">
</g>
<g id="wires" display="none">
	<path display="inline" fill="none" stroke="#000000" stroke-width="0.5" stroke-linecap="round" stroke-linejoin="round" d="
		M259.6967,133.3343v-59.919c0,0,1.554-6.213,5.992-6.658c0,0,8.877-2.108,16.312-0.443c0,0,30.292,7.546,29.404,36.062
		c0,0-1.22,29.626-29.515,33.843c0,0-2.996,0.999-4.661,0.776c-1.664-0.222-12.761,0-12.761,0S260.2517,136.3293,259.6967,133.3343z
		"/>
	<path display="inline" fill="none" stroke="#000000" stroke-width="0.5" stroke-linecap="round" stroke-linejoin="round" d="
		M261.4727,132.0633v-57.123c0,0,1.423-5.925,5.49-6.347c0,0,8.134-2.01,14.947-0.423c0,0,27.758,7.194,26.944,34.38
		c0,0-1.119,28.244-27.045,32.264c0,0-2.745,0.952-4.271,0.741c-1.525-0.212-11.693,0-11.693,0S261.9797,134.9203,261.4727,132.0633
		z"/>
	<path display="inline" fill="none" stroke="#000000" stroke-width="0.5" stroke-linecap="round" stroke-linejoin="round" d="
		M262.5817,131.2143v-54.702c0,0,1.34-5.672,5.169-6.077c0,0,7.658-1.925,14.071-0.406c0,0,26.134,6.888,25.368,32.923
		c0,0-1.053,27.045-25.464,30.896c0,0-2.583,0.912-4.02,0.708c-1.437-0.203-11.009,0-11.009,0S263.0607,133.9493,262.5817,131.2143z
		"/>
	<path display="inline" fill="none" stroke="#000000" stroke-width="0.5" stroke-linecap="round" stroke-linejoin="round" d="
		M263.2477,130.2593v-52.185c0,0,1.268-5.413,4.887-5.798c0,0,7.239-1.837,13.302-0.387c0,0,24.705,6.571,23.98,31.408
		c0,0-0.995,25.802-24.071,29.475c0,0-2.443,0.87-3.8,0.675c-1.357-0.194-10.406,0-10.406,0S263.6997,132.8693,263.2477,130.2593z"
		/>
</g>
<g id="details">
	<path fill="none" stroke="#000000" stroke-width="3.0377" stroke-linecap="round" stroke-linejoin="round" d="M986.1479,16.7099
		L594.5551,72.0451c0,0-26.6043,3.1835-1.051,5.8507c25.5291,2.661,395.8212,20.7537,395.8212,20.7537"/>
	<path fill="none" stroke="#000000" stroke-width="3.0377" stroke-linecap="round" stroke-linejoin="round" d="M583.3824,73.9102
		c0,0-8.7668,1.3184-7.4545,7.9771c0,0-1.8591,6.9017,4.0037,7.1812c5.8506,0.2673,410.7183,23.6699,410.7183,23.6699"/>
	<polyline fill="none" stroke="#000000" stroke-width="3.0377" stroke-linecap="round" stroke-linejoin="round" points="
		637.9217,92.5254 637.9217,105.8245 990.6559,124.9743 	"/>
	
		<line fill="none" stroke="#000000" stroke-width="3.0377" stroke-linecap="round" stroke-linejoin="round" x1="577.2766" y1="88.2665" x2="577.0093" y2="113.5464"/>
	
		<line fill="none" stroke="#000000" stroke-width="3.0377" stroke-linecap="round" stroke-linejoin="round" x1="623.0186" y1="92.2581" x2="623.0186" y2="106.3652"/>
	<path fill="none" stroke="#000000" stroke-width="3.0377" stroke-linecap="round" stroke-linejoin="round" d="M637.6483,105.0226
		l-86.4474,11.434c0,0-6.6587-2.1203-6.6587,12.5154c0,14.6175,0,224.5181,0,224.5181s-0.802,7.1872,9.3197,8.5117h21.5374
		l84.3271-12.7706c0,0,5.5894-1.0632,5.5894-9.8544c0-8.7669,0-14.6236,0-14.6236s1.8652-12.236-15.4255-10.8994l-66.514,9.5749
		c0,0-7.9771,6.3914-7.9771,16.4948c0,10.1096,0,22.0842,0,22.0842"/>
	<path fill="none" stroke="#000000" stroke-width="3.0377" stroke-linecap="round" stroke-linejoin="round" d="M583.3764,322.6389
		h-6.6405c0,0-7.4606,5.8446-7.4606,15.1643c0,9.3015,0,24.2046,0,24.2046"/>
	<polyline fill="none" stroke="#000000" stroke-width="3.0377" stroke-linecap="round" stroke-linejoin="round" points="
		569.5547,352.7002 576.2073,352.7002 664.52,339.9235 989.8722,358.2835 	"/>
	<path fill="none" stroke="#000000" stroke-width="3.0377" stroke-linecap="round" stroke-linejoin="round" d="M663.9915,106.8877
		v25.2799c0,7.7158-7.1873,12.7706-7.1873,12.7706l-74.485,10.1156h-6.6526c-7.9771-0.5407-8.7851-8.7851-8.7851-8.7851v-31.9204
		c0,0,7.4545,7.4424,7.4545,12.4972c0,5.0548,0,17.8132,0,17.8132"/>
	<polyline fill="none" stroke="#000000" stroke-width="3.0377" stroke-linecap="round" stroke-linejoin="round" points="
		566.8876,130.0352 574.3422,130.0352 663.4629,117.2707 	"/>
	<path fill="none" stroke="#000000" stroke-width="3.0377" stroke-linecap="round" stroke-linejoin="round" d="M580.1989,154.7744
		c0,0-5.0609-3.4569-5.8567-11.434"/>
	<path fill="none" stroke="#000000" stroke-width="3.0377" stroke-linecap="round" stroke-linejoin="round" d="M566.8937,126.8395
		h-13.2991c0,0-2.6611-1.0571-2.6611,5.3221c0,6.3792,0,218.6734,0,218.6734s0.8019,3.7121,7.4606,4.2407h10.6381"/>
	<path fill="none" stroke="#000000" stroke-width="3.0377" stroke-linecap="round" stroke-linejoin="round" d="M543.7402,226.5861
		h-3.9794l-10.6381,12.5215v24.7453c0,0,1.8591,31.1184,14.6175,33.2448"/>
	<path fill="none" stroke="#000000" stroke-width="3.0377" stroke-linecap="round" stroke-linejoin="round" d="M544.2869,233.7673
		h-4.5262l-3.9915,8.0014v24.7331c0,0,0.5225,18.6151,8.5178,21.2762"/>
	
		<line fill="none" stroke="#000000" stroke-width="3.0377" stroke-linecap="round" stroke-linejoin="round" x1="529.1227" y1="261.1736" x2="535.7692" y2="261.1736"/>
	
		<line fill="none" stroke="#000000" stroke-width="3.0377" stroke-linecap="round" stroke-linejoin="round" x1="529.1227" y1="243.889" x2="536.2917" y2="243.889"/>
	
		<line fill="none" stroke="#000000" stroke-width="3.0377" stroke-linecap="round" stroke-linejoin="round" x1="641.6459" y1="147.0586" x2="641.6459" y2="314.3885"/>
	
		<line fill="none" stroke="#000000" stroke-width="3.0377" stroke-linecap="round" stroke-linejoin="round" x1="608.6624" y1="91.1949" x2="608.6624" y2="108.4917"/>
	
		<rect x="659.4713" y="215.6929" fill="none" stroke="#000000" stroke-width="3.0377" stroke-linecap="round" stroke-linejoin="round" width="12.5033" height="24.478"/>
	<polyline fill="none" stroke="#000000" stroke-width="3.0377" stroke-linecap="round" stroke-linejoin="round" points="
		987.4724,75.502 829.1949,70.1738 776.782,76.8264 990.1395,85.6115 	"/>
	
		<line fill="none" stroke="#000000" stroke-width="3.0377" stroke-linecap="round" stroke-linejoin="round" x1="646.7007" y1="352.4329" x2="990.9414" y2="371.042"/>
	<path fill="none" stroke="#000000" stroke-width="3.0377" stroke-linecap="round" stroke-linejoin="round" d="M990.3886,371.85
		l-11.1666,5.0487c0,0-7.965,2.6611-7.965,11.7135c0,9.0342,0,39.8914,0,39.8914s2.1204,8.2505,10.6199,6.118l7.9952-2.1325"/>
	<path fill="none" stroke="#000000" stroke-width="3.0377" stroke-linecap="round" stroke-linejoin="round" d="M990.3886,378.7639
		l-5.3038,1.8712c0,0-1.8834,2.1203-1.8834,9.3076c0,7.1812,0,43.8951,0,43.8951"/>
	
		<line fill="none" stroke="#000000" stroke-width="3.0377" stroke-linecap="round" stroke-linejoin="round" x1="971.7734" y1="384.6024" x2="983.2074" y2="384.6024"/>
	<path fill="none" stroke="#000000" stroke-width="3.0377" stroke-linecap="round" stroke-linejoin="round" d="M618.5107,356.6735
		v25.0065c0,0-0.5468,9.581,22.3455,10.6502c22.8741,1.0632,252.7142,13.2992,252.7142,13.2992"/>
	<polyline fill="none" stroke="#000000" stroke-width="3.0377" stroke-linecap="round" stroke-linejoin="round" points="
		877.6102,389.6632 876.5469,399.2442 797.797,397.6463 797.797,393.9221 792.4688,393.3996 765.8766,390.7446 760.5606,392.3364 
		708.9437,390.7446 708.9437,385.939 625.4124,383.29 625.4124,371.042 678.0986,376.3762 687.6675,372.6398 716.9207,376.3762 
		710.5355,379.0312 760.5606,382.7493 767.4684,381.6861 794.0728,381.6861 878.1326,387.0143 878.1326,391.2671 912.1854,391.2671 
		894.0988,397.6463 894.0988,409.3598 970.7102,413.6248 	"/>
	
		<line fill="none" stroke="#000000" stroke-width="3.0377" stroke-linecap="round" stroke-linejoin="round" x1="792.4688" y1="393.3996" x2="792.4688" y2="383.29"/>
	
		<line fill="none" stroke="#000000" stroke-width="3.0377" stroke-linecap="round" stroke-linejoin="round" x1="708.9437" y1="376.3762" x2="708.9437" y2="385.939"/>
	
		<line fill="none" stroke="#000000" stroke-width="3.0377" stroke-linecap="round" stroke-linejoin="round" x1="678.0986" y1="376.3762" x2="678.0986" y2="384.3593"/>
	
		<line fill="none" stroke="#000000" stroke-width="3.0377" stroke-linecap="round" stroke-linejoin="round" x1="625.4124" y1="369.4502" x2="969.647" y2="385.4104"/>
	<polyline fill="none" stroke="#000000" stroke-width="3.0377" stroke-linecap="round" stroke-linejoin="round" points="
		990.9414,435.9459 711.6108,421.055 712.6679,407.7619 971.257,422.665 	"/>
	<polyline fill="none" stroke="#000000" stroke-width="3.0377" stroke-linecap="round" stroke-linejoin="round" points="
		712.6679,407.7619 700.7661,420.6662 629.6834,418.3879 	"/>
	<polyline fill="none" stroke="#000000" stroke-width="3.0377" stroke-linecap="round" stroke-linejoin="round" points="
		711.6108,421.055 700.9666,427.4403 622.2228,425.3139 	"/>
	<polyline fill="none" stroke="#000000" stroke-width="3.0377" stroke-linecap="round" stroke-linejoin="round" points="
		703.6337,425.3139 703.6337,435.4234 699.9095,437.0213 628.0734,432.7746 	"/>
	
		<line fill="none" stroke="#000000" stroke-width="3.0377" stroke-linecap="round" stroke-linejoin="round" x1="700.9666" y1="421.857" x2="700.9666" y2="426.6444"/>
	<path fill="none" stroke="#000000" stroke-width="3.0377" stroke-linecap="round" stroke-linejoin="round" d="M683.9371,395.5199
		v13.8398l-56.9269,9.0281l-5.3221,5.3343H609.446c0,0-20.7476,2.1264-34.0346,25.0004l-61.7144,118.6413
		c0,0-11.7074,19.1559-11.7074,49.4844c0,30.3347,0,39.375,0,39.375"/>
	<path fill="none" stroke="#000000" stroke-width="3.0377" stroke-linecap="round" stroke-linejoin="round" d="M675.954,393.3996
		c0,0,1.0815,8.5056-12.2299,10.632c-13.2991,2.1264-66.5018,10.6381-66.5018,10.6381s-20.2131-3.1896-37.2364,26.0697
		l-61.198,120.2391c0,0-13.2931,18.6334-13.2931,55.8637v39.9096"/>
	<path fill="none" stroke="#000000" stroke-width="3.0377" stroke-linecap="round" stroke-linejoin="round" d="M625.4124,408.2784
		h-56.9208l-13.3052,3.7364c0,0-14.3563,3.1957-29.7939,28.1961c-15.4256,25.0126-60.6512,117.0495-60.6512,117.0495
		s-14.9031,27.6736-14.9031,56.939c0,29.2654,0,41.5014,0,41.5014h51.6048"/>
	<path fill="none" stroke="#000000" stroke-width="3.0377" stroke-linecap="round" stroke-linejoin="round" d="M525.3984,440.2048
		l34.5875,0.5346c0,0,13.2991,2.661,13.2991,9.0584"/>
	<path fill="none" stroke="#000000" stroke-width="3.0377" stroke-linecap="round" stroke-linejoin="round" d="M463.1555,558.8522
		h35.6325c0,0,13.3052,3.7364,13.3052,9.0524"/>
	
		<line fill="none" stroke="#000000" stroke-width="3.0377" stroke-linecap="round" stroke-linejoin="round" x1="575.3993" y1="362.0078" x2="575.3993" y2="406.6988"/>
	
		<line fill="none" stroke="#000000" stroke-width="3.0377" stroke-linecap="round" stroke-linejoin="round" x1="610.5154" y1="357.7489" x2="610.5154" y2="408.2784"/>
	
		<line fill="none" stroke="#000000" stroke-width="3.0377" stroke-linecap="round" stroke-linejoin="round" x1="580.1989" y1="363.0649" x2="580.1989" y2="405.6355"/>
	<path fill="none" stroke="#000000" stroke-width="3.0377" stroke-linecap="round" stroke-linejoin="round" d="M640.3154,352.4329
		c0,0-9.0463,9.5749,0,15.9602"/>
	
		<line fill="none" stroke="#000000" stroke-width="3.0377" stroke-linecap="round" stroke-linejoin="round" x1="760.5606" y1="382.7493" x2="760.5606" y2="389.6632"/>
	
		<line fill="none" stroke="#000000" stroke-width="3.0377" stroke-linecap="round" stroke-linejoin="round" x1="855.7932" y1="387.0143" x2="855.7932" y2="397.6463"/>
	
		<line fill="none" stroke="#000000" stroke-width="3.0377" stroke-linecap="round" stroke-linejoin="round" x1="627.0163" y1="418.3879" x2="627.0163" y2="678.0281"/>
	<path fill="none" stroke="#000000" stroke-width="3.0377" stroke-linecap="round" stroke-linejoin="round" d="M990.9414,762.0879
		c0,0-17.0355,4.7996-18.6455-4.7814v-5.3282L623.292,735.4957h-12.7766l-14.8909-1.0571h-9.0342c0,0-2.6793-2.1385-5.3342-11.7074
		h-9.581v5.3282c0,0,2.6611,5.316-7.9771,6.3792c-10.632,1.0571-64.91,7.9771-64.91,7.9771s-32.449,14.897-45.7542-32.9775v-41.4953
		h12.242H475.92v18.6212c0,0,3.7242,38.2936,21.2701,29.2473l13.3113,7.9832c0,0,13.8338,10.1035,33.5121-14.3624h6.3914v-5.3281
		h43.6277v3.7181h33.506l255.7883,15.705"/>
	<polyline fill="none" stroke="#000000" stroke-width="3.0377" stroke-linecap="round" stroke-linejoin="round" points="
		570.6179,721.1273 570.6179,694.529 625.9531,694.529 625.9531,722.2026 884.5179,739.7485 	"/>
	<polyline fill="none" stroke="#000000" stroke-width="3.0377" stroke-linecap="round" stroke-linejoin="round" points="
		594.5552,697.19 594.5552,707.822 594.5552,723.7944 581.256,723.7944 	"/>
	
		<line fill="none" stroke="#000000" stroke-width="3.0377" stroke-linecap="round" stroke-linejoin="round" x1="594.5552" y1="723.7944" x2="625.9531" y2="722.2026"/>
	
		<line fill="none" stroke="#000000" stroke-width="3.0377" stroke-linecap="round" stroke-linejoin="round" x1="596.6876" y1="724.8576" x2="596.6876" y2="734.4386"/>
	
		<line fill="none" stroke="#000000" stroke-width="3.0377" stroke-linecap="round" stroke-linejoin="round" x1="636.5912" y1="723.7944" x2="636.5912" y2="736.0303"/>
	<path fill="none" stroke="#000000" stroke-width="3.0377" stroke-linecap="round" stroke-linejoin="round" d="M990.9414,701.4429
		l-13.8459,3.7303c0,0-3.7182,2.1082-3.7182,9.0342c0,6.9139,0,37.765,0,37.765"/>
	<path fill="none" stroke="#000000" stroke-width="3.0377" stroke-linecap="round" stroke-linejoin="round" d="M990.9414,707.822
		l-4.2711,1.0875c0,0-2.6549,0.5225-2.6549,4.2467c0,3.7121,0,48.9377,0,48.9377"/>
	<polyline fill="none" stroke="#000000" stroke-width="3.0377" stroke-linecap="round" stroke-linejoin="round" points="
		607.8544,694.529 607.8544,683.8787 613.1825,678.5688 625.9531,679.632 990.9414,698.7818 	"/>
	<polyline fill="none" stroke="#000000" stroke-width="3.0377" stroke-linecap="round" stroke-linejoin="round" points="
		607.8544,683.8787 901.5534,704.0978 888.2422,706.7589 884.5179,715.8052 885.3137,739.3597 894.3723,748.4 	"/>
	
		<line fill="none" stroke="#000000" stroke-width="3.0377" stroke-linecap="round" stroke-linejoin="round" x1="888.2422" y1="706.7589" x2="973.3774" y2="711.5584"/>
	<polyline fill="none" stroke="#000000" stroke-width="3.0377" stroke-linecap="round" stroke-linejoin="round" points="
		596.8274,725.9147 613.5895,726.7227 636.7249,726.7227 	"/>
	
		<line fill="none" stroke="#000000" stroke-width="3.0377" stroke-linecap="round" stroke-linejoin="round" x1="613.5895" y1="726.7227" x2="613.5895" y2="735.8967"/>
	<path fill="none" stroke="#000000" stroke-width="3.0377" stroke-linecap="round" stroke-linejoin="round" d="M571.675,725.1249
		l-79.801,9.5567c0,0-14.3684-0.3828-21.1486-27.5278v-39.1016"/>
	<polyline fill="none" stroke="#000000" stroke-width="3.0377" stroke-linecap="round" stroke-linejoin="round" points="
		570.6179,694.529 584.0568,690.0149 584.0568,675.2455 625.9531,675.2455 	"/>
	<path fill="none" stroke="#000000" stroke-width="3.0377" stroke-linecap="round" stroke-linejoin="round" d="M626.749,657.2804
		l-26.738,1.5857c0,0-8.7729-3.1835-14.7633-13.5543c0,0,3.1957-19.1437-29.9277-23.1474c0,0-16.75,1.2029-22.3333,15.1643
		l-6.0026,10.7839c0,0,0.8202,6.7802-23.9373,7.9832"/>
	<path fill="none" stroke="#000000" stroke-width="3.0377" stroke-linecap="round" stroke-linejoin="round" d="M523.3996,652.092"/>
	<path fill="none" stroke="#000000" stroke-width="3.0377" stroke-linecap="round" stroke-linejoin="round" d="M502.2509,657.2804
		c0,0-15.9602,14.3624,2.0049,39.5208c0,0,17.5519,9.5627,25.1402-15.5714c0,0,2.7947-4.0037-3.1957-31.1367"/>
	<path fill="none" stroke="#000000" stroke-width="3.0377" stroke-linecap="round" stroke-linejoin="round" d="M519.4202,654.103
		c0,0,10.7657,44.29-15.1643,42.6982"/>
	<polyline fill="none" stroke="#000000" stroke-width="3.0377" stroke-linecap="round" stroke-linejoin="round" points="
		540.1678,628.1608 575.2656,672.0438 625.9531,672.0438 	"/>
	<path fill="none" stroke="#000000" stroke-width="3.0377" stroke-linecap="round" stroke-linejoin="round" d="M555.3199,622.1644
		c0,0,23.9494,10.3768,21.9567,22.7465c0,0,0.7898,17.1631,22.7343,17.1631h25.1462"/>
	<polyline fill="none" stroke="#000000" stroke-width="3.0377" stroke-linecap="round" stroke-linejoin="round" points="
		463.1555,656.1018 463.1555,660.8771 458.368,666.0655 	"/>
	<polyline fill="none" stroke="#000000" stroke-width="3.0377" stroke-linecap="round" stroke-linejoin="round" points="
		470.3245,656.1018 470.3245,660.8771 465.5431,666.0655 	"/>
	<path fill="none" stroke="#000000" stroke-width="3.0377" stroke-linecap="round" stroke-linejoin="round" d="M599.616,425.8485
		c0,0,1.1908-7.1812-5.9843-11.1788"/>
	
		<line fill="none" stroke="#000000" stroke-width="3.0377" stroke-linecap="round" stroke-linejoin="round" x1="595.2296" y1="414.6697" x2="552.5253" y2="414.6697"/>
	<path fill="none" stroke="#000000" stroke-width="3.0377" stroke-linecap="round" stroke-linejoin="round" d="M622.7574,562.5096
		c0,32.5036-15.0125,58.8589-33.5243,58.8589c-18.5058,0-33.5243-26.3552-33.5243-58.8589
		c0-32.4915,15.0185-58.8467,33.5243-58.8467C607.7449,503.6628,622.7574,530.0242,622.7574,562.5096z"/>
	<path fill="none" stroke="#000000" stroke-width="3.0377" stroke-linecap="round" stroke-linejoin="round" d="M608.389,563.111
		c0,25.3467-11.2396,45.8939-25.1402,45.8939c-13.8702,0-25.1341-20.5472-25.1341-45.8939
		c0-25.3346,11.2639-45.8939,25.1341-45.8939C597.1494,517.2171,608.389,537.7764,608.389,563.111z"/>
	<path fill="none" stroke="#000000" stroke-width="3.0377" stroke-linecap="round" stroke-linejoin="round" d="M573.279,521.634
		c0,0,22.3455-5.9965,25.1341,37.8864c0,0,1.9867,44.29-29.9216,41.0944"/>
	
		<ellipse fill="none" stroke="#000000" stroke-width="3.0377" stroke-linecap="round" stroke-linejoin="round" cx="572.6776" cy="561.3249" rx="11.3732" ry="19.7513"/>
	<path fill="none" stroke="#000000" stroke-width="3.0377" stroke-linecap="round" stroke-linejoin="round" d="M869.7667,535.5893"
		/>
	
		<ellipse fill="none" stroke="#000000" stroke-width="3.0377" stroke-linecap="round" stroke-linejoin="round" cx="574.4698" cy="561.5132" rx="7.9771" ry="15.9663"/>
	
		<ellipse fill="none" stroke="#000000" stroke-width="3.0377" stroke-linecap="round" stroke-linejoin="round" cx="574.6763" cy="561.7198" rx="3.3901" ry="6.9807"/>
	<polygon fill="none" stroke="#000000" stroke-width="3.0377" stroke-linecap="round" stroke-linejoin="round" points="
		829.1949,485.1753 809.8325,497.0163 791.9525,483.5714 791.9525,457.2403 809.7656,443.9412 829.9908,459.9014 	"/>
	<polyline fill="none" stroke="#000000" stroke-width="3.0377" stroke-linecap="round" stroke-linejoin="round" points="
		793.8054,456.4323 793.8054,481.7244 811.3696,495.0175 	"/>
	<g>
		<polygon fill="none" stroke="#000000" stroke-width="3.0377" stroke-linecap="round" stroke-linejoin="round" points="
			806.3087,531.7192 786.9767,543.5724 769.0845,530.1214 769.0845,503.7965 786.8977,490.4973 807.1107,506.4515 		"/>
		<polyline fill="none" stroke="#000000" stroke-width="3.0377" stroke-linecap="round" stroke-linejoin="round" points="
			770.9435,502.9885 770.9435,528.2805 788.4955,541.5675 		"/>
	</g>
	<g>
		<polygon fill="none" stroke="#000000" stroke-width="3.0377" stroke-linecap="round" stroke-linejoin="round" points="
			850.2038,533.3231 830.8535,545.1703 812.9674,531.7192 812.9674,505.3943 830.7867,492.083 851.0179,508.0554 		"/>
		<polyline fill="none" stroke="#000000" stroke-width="3.0377" stroke-linecap="round" stroke-linejoin="round" points="
			814.8325,504.5984 814.8325,529.8541 832.3724,543.1714 		"/>
	</g>
	<g>
		<polygon fill="none" stroke="#000000" stroke-width="3.0377" stroke-linecap="round" stroke-linejoin="round" points="
			875.751,583.6035 856.4068,595.4324 838.5025,582.0057 838.5025,555.6686 856.3218,542.3755 876.5469,558.3297 		"/>
		<polyline fill="none" stroke="#000000" stroke-width="3.0377" stroke-linecap="round" stroke-linejoin="round" points="
			840.3616,554.8788 840.3616,580.1405 857.9135,593.4457 		"/>
	</g>
	<g>
		<polygon fill="none" stroke="#000000" stroke-width="3.0377" stroke-linecap="round" stroke-linejoin="round" points="
			919.6401,585.9911 900.2837,597.8322 882.3976,584.3994 882.3976,558.0623 900.2351,544.7632 920.442,560.7234 		"/>
		<polyline fill="none" stroke="#000000" stroke-width="3.0377" stroke-linecap="round" stroke-linejoin="round" points="
			884.2628,557.2543 884.2628,582.5342 901.8208,595.8334 		"/>
	</g>
	<g>
		<polygon fill="none" stroke="#000000" stroke-width="3.0377" stroke-linecap="round" stroke-linejoin="round" points="
			899.6883,631.4902 880.338,643.3312 862.4518,629.8923 862.4518,603.5552 880.2651,590.244 900.4902,606.2163 		"/>
		<polyline fill="none" stroke="#000000" stroke-width="3.0377" stroke-linecap="round" stroke-linejoin="round" points="
			864.3109,602.7533 864.3109,628.0333 881.8568,641.3263 		"/>
	</g>
	<g>
		<polygon fill="none" stroke="#000000" stroke-width="3.0377" stroke-linecap="round" stroke-linejoin="round" points="
			943.5834,633.8718 924.2209,645.7249 906.3348,632.2861 906.3348,605.949 924.1602,592.6377 944.3792,608.61 		"/>
		<polyline fill="none" stroke="#000000" stroke-width="3.0377" stroke-linecap="round" stroke-linejoin="round" points="
			908.1939,605.1409 908.1939,630.4209 925.7581,643.7261 		"/>
	</g>
	<g>
		<polygon fill="none" stroke="#000000" stroke-width="3.0377" stroke-linecap="round" stroke-linejoin="round" points="
			918.0544,489.4281 898.692,501.2751 880.7997,487.8363 880.7997,461.4992 898.6311,448.1879 918.8381,464.1542 		"/>
		<polyline fill="none" stroke="#000000" stroke-width="3.0377" stroke-linecap="round" stroke-linejoin="round" points="
			882.6588,460.6973 882.6588,485.9833 900.2351,499.2703 		"/>
	</g>
	<g>
		<polygon fill="none" stroke="#000000" stroke-width="3.0377" stroke-linecap="round" stroke-linejoin="round" points="
			961.9312,491.8218 942.587,503.6628 924.6827,490.23 924.6827,463.8929 942.502,450.5878 962.7271,466.5601 		"/>
		<polyline fill="none" stroke="#000000" stroke-width="3.0377" stroke-linecap="round" stroke-linejoin="round" points="
			926.5417,463.091 926.5417,488.3709 944.0998,501.6701 		"/>
	</g>
	<g>
		<polygon fill="none" stroke="#000000" stroke-width="3.0377" stroke-linecap="round" stroke-linejoin="round" points="
			716.1248,527.1991 696.7806,539.0341 678.8945,525.6013 678.8945,499.2703 696.7077,485.9833 716.9207,501.9313 		"/>
		<polyline fill="none" stroke="#000000" stroke-width="3.0377" stroke-linecap="round" stroke-linejoin="round" points="
			680.7414,498.4744 680.7414,523.7543 698.3055,537.0474 		"/>
	</g>
	<g>
		<polygon fill="none" stroke="#000000" stroke-width="3.0377" stroke-linecap="round" stroke-linejoin="round" points="
			739.5396,576.6775 720.1893,588.5246 702.3032,575.0736 702.3032,548.7426 720.1224,535.4556 740.3294,551.4036 		"/>
		<polyline fill="none" stroke="#000000" stroke-width="3.0377" stroke-linecap="round" stroke-linejoin="round" points="
			704.1623,547.9528 704.1623,573.2145 721.7142,586.5198 		"/>
	</g>
	<g>
		<polygon fill="none" stroke="#000000" stroke-width="3.0377" stroke-linecap="round" stroke-linejoin="round" points="
			762.9543,626.168 743.598,638.0031 725.7057,624.5702 725.7057,598.2393 743.5312,584.928 763.7502,600.8942 		"/>
		<polyline fill="none" stroke="#000000" stroke-width="3.0377" stroke-linecap="round" stroke-linejoin="round" points="
			727.5709,597.4434 727.5709,622.7051 745.129,636.0103 		"/>
	</g>
	<g>
		<polygon fill="none" stroke="#000000" stroke-width="3.0377" stroke-linecap="round" stroke-linejoin="round" points="
			786.3569,675.6465 767.0067,687.4997 749.1084,674.0486 749.1084,647.7116 766.9338,634.4125 787.1528,650.3666 		"/>
		<polyline fill="none" stroke="#000000" stroke-width="3.0377" stroke-linecap="round" stroke-linejoin="round" points="
			750.9857,646.9218 750.9857,672.1956 768.5316,685.4826 		"/>
	</g>
	<polygon fill="none" stroke="#000000" stroke-width="3.0377" stroke-linecap="round" stroke-linejoin="round" points="
		737.9417,480.1266 718.5975,491.9554 700.6993,478.5226 700.6993,452.1856 718.5307,438.8682 738.7376,454.8466 	"/>
	<polyline fill="none" stroke="#000000" stroke-width="3.0377" stroke-linecap="round" stroke-linejoin="round" points="
		702.5705,451.3897 702.5705,476.6636 720.1224,489.9627 	"/>
	<g>
		<polygon fill="none" stroke="#000000" stroke-width="3.0377" stroke-linecap="round" stroke-linejoin="round" points="
			653.3473,533.5844 653.3473,487.569 657.8734,487.569 669.8481,497.6785 669.8481,525.6134 657.8734,533.5844 		"/>
		
			<line fill="none" stroke="#000000" stroke-width="3.0377" stroke-linecap="round" stroke-linejoin="round" x1="657.8734" y1="487.569" x2="657.8734" y2="532.7825"/>
	</g>
	<g>
		<polygon fill="none" stroke="#000000" stroke-width="3.0377" stroke-linecap="round" stroke-linejoin="round" points="
			654.1492,628.5557 654.1492,582.5342 658.6754,582.5342 670.638,592.6377 670.638,620.5908 658.6754,628.5557 		"/>
		
			<line fill="none" stroke="#000000" stroke-width="3.0377" stroke-linecap="round" stroke-linejoin="round" x1="658.6754" y1="582.5342" x2="658.6754" y2="627.772"/>
	</g>
	
		<line fill="none" stroke="#000000" stroke-width="3.0377" stroke-linecap="round" stroke-linejoin="round" x1="726.9088" y1="395.927" x2="726.9088" y2="408.6915"/>
	<polyline fill="none" stroke="#000000" stroke-width="3.0377" stroke-linecap="round" stroke-linejoin="round" points="
		683.4025,238.5669 683.4025,171.0019 805.2455,177.3872 805.2455,248.1539 681.8229,238.5669 	"/>
	<polyline fill="none" stroke="#000000" stroke-width="3.0377" stroke-linecap="round" stroke-linejoin="round" points="
		683.4025,171.0019 702.0298,166.7491 821.7404,173.669 821.7404,243.889 805.2455,248.1539 	"/>
	
		<line fill="none" stroke="#000000" stroke-width="3.0377" stroke-linecap="round" stroke-linejoin="round" x1="805.2455" y1="177.3872" x2="821.7404" y2="174.7322"/>
	<polyline fill="none" stroke="#000000" stroke-width="3.0377" stroke-linecap="round" stroke-linejoin="round" points="
		804.1762,223.6821 700.438,238.5669 700.438,172.0651 	"/>
	<polyline fill="none" stroke="#000000" stroke-width="3.0377" stroke-linecap="round" stroke-linejoin="round" points="
		843.0287,249.7397 843.0287,182.1868 964.8657,188.566 964.8657,259.3085 841.4247,249.7397 	"/>
	<polyline fill="none" stroke="#000000" stroke-width="3.0377" stroke-linecap="round" stroke-linejoin="round" points="
		843.0287,182.1868 861.6378,177.9218 981.3422,184.8357 981.3422,255.0678 964.8657,259.3085 	"/>
	
		<line fill="none" stroke="#000000" stroke-width="3.0377" stroke-linecap="round" stroke-linejoin="round" x1="964.8657" y1="188.566" x2="981.3422" y2="185.905"/>
	<polyline fill="none" stroke="#000000" stroke-width="3.0377" stroke-linecap="round" stroke-linejoin="round" points="
		963.7963,234.8427 860.046,249.7397 860.046,183.2439 	"/>
	<path fill="none" stroke="#000000" stroke-width="3.0377" stroke-linecap="round" stroke-linejoin="round" d="M616.9007,234.1987
		c0,3.8822-1.4824,7.0354-3.3112,7.0354c-1.853,0-3.3354-3.1532-3.3354-7.0354c0-3.9187,1.4885-7.0718,3.3354-7.0718
		C615.4183,227.1268,616.9007,230.28,616.9007,234.1987z"/>
	<path fill="none" stroke="#000000" stroke-width="3.0377" stroke-linecap="round" stroke-linejoin="round" d="M598.4192,242.8258
		c-1.8348,0-3.3232-3.9794-3.3232-8.9127c0-4.915,1.4885-8.9127,3.3232-8.9127"/>
	<path fill="none" stroke="#000000" stroke-width="3.0377" stroke-linecap="round" stroke-linejoin="round" d="M618.5107,234.1987
		c0,5.0548-2.8616,9.1618-6.3914,9.1618s-6.3853-4.1131-6.3853-9.1618c0-5.0852,2.8555-9.1982,6.3853-9.1982
		C615.6431,225.0004,618.5107,229.1135,618.5107,234.1987z"/>
	<path fill="none" stroke="#000000" stroke-width="3.0377" stroke-linecap="round" stroke-linejoin="round" d="M606.2687,223.4026
		c0,0-4.514-9.8361-12.5033,2.1507c0,0-2.6671,9.5749,0,15.4195c0,0,3.7182,9.8483,11.1667,1.8591"/>
	
		<line fill="none" stroke="#000000" stroke-width="3.0377" stroke-linecap="round" stroke-linejoin="round" x1="609.7195" y1="242.8258" x2="598.2855" y2="242.8258"/>
	
		<line fill="none" stroke="#000000" stroke-width="3.0377" stroke-linecap="round" stroke-linejoin="round" x1="612.1193" y1="225.0004" x2="598.5468" y2="225.0004"/>
	<path fill="none" stroke="#000000" stroke-width="3.0377" stroke-linecap="round" stroke-linejoin="round" d="M588.4433,198.5479
		c0,5.3525-2.5153,9.7025-5.5955,9.7025c-3.0864,0-5.5712-4.35-5.5712-9.7025c0-5.3768,2.4848-9.7268,5.5712-9.7268
		C585.928,188.8212,588.4433,193.1712,588.4433,198.5479z"/>
	<path fill="none" stroke="#000000" stroke-width="3.0377" stroke-linecap="round" stroke-linejoin="round" d="M591.6329,198.39
		c0,8.8337-4.1738,15.9724-9.3076,15.9724c-5.1398,0-9.3137-7.1386-9.3137-15.9724c0-8.7972,4.1738-15.948,9.3137-15.948
		C587.459,182.442,591.6329,189.5867,591.6329,198.39z"/>
	<path fill="none" stroke="#000000" stroke-width="3.0377" stroke-linecap="round" stroke-linejoin="round" d="M74.485,204.7814
		v-51.8661c0,0-3.9855-13.5786,15.9663-17.5641c0,0,38.3057-5.1884,60.2502,1.1969c0,0,118.9207,26.3371,125.6888,183.5452
		c0,0-1.5918,150.9748-121.3023,169.596h-69.418c0,0-17.9651-3.9855-17.9651-18.3539c0-14.3623,0-53.0569,0-53.0569"/>
	<path fill="none" stroke="#000000" stroke-width="3.0377" stroke-linecap="round" stroke-linejoin="round" d="M68.6891,200.9599
		V145.485c0,0-4.3379-14.5082,17.3029-18.761c0,0,41.5135-5.5469,65.3171,1.2698c0,0,127.3231,27.5704,134.6743,195.7022
		c0,0,3.1896,123.696-87.3831,165.6044l-3.5906-5.9904c0,0-14.3684,7.5822-39.9096,6.3792"/>
	<path fill="none" stroke="#000000" stroke-width="3.0377" stroke-linecap="round" stroke-linejoin="round" d="M195.0036,483.3101
		c0,0,82.1886-36.319,81.3866-154.0246"/>
	<path fill="none" stroke="#000000" stroke-width="3.0377" stroke-linecap="round" stroke-linejoin="round" d="M75.2809,411.8932
		v60.6329c0,0,1.209,7.1872,9.982,7.9892c8.779,0.7958,46.6898,2.0049,46.6898,2.0049s128.4896,8.2323,135.4095-160.9445
		c0,0,6.3853-123.9755-103.7564-170.2582c0,0-47.8745-23.4026-71.8239,44.1503v82.2129l67.5772-9.3258
		c16.75-0.7838,17.8193,6.6648,17.8193,6.6648v14.0829c-2.661,18.0927-10.6259,32.4672-10.6259,32.4672v36.7078
		c-1.3427,19.9457-7.1933,48.4152-7.1933,48.4152"/>
	<path fill="none" stroke="#000000" stroke-width="3.0377" stroke-linecap="round" stroke-linejoin="round" d="M166.2668,141.2079
		c0,0-63.8347-23.4087-82.462,55.3351v21.2701"/>
	<path fill="none" stroke="#000000" stroke-width="3.0377" stroke-linecap="round" stroke-linejoin="round" d="M175.8538,475.8555
		h-43.1053c0,0-9.0524-3.7242-9.0524-17.0295c0-13.287,0-83.5192,0-83.5192"/>
	<polyline fill="none" stroke="#000000" stroke-width="3.0377" stroke-linecap="round" stroke-linejoin="round" points="
		85.6699,489.6893 85.6699,482.7815 129.5529,474.7862 	"/>
	<polyline fill="none" stroke="#000000" stroke-width="3.0377" stroke-linecap="round" stroke-linejoin="round" points="
		69.4303,467.8724 74.2177,467.8724 122.6329,461.4992 	"/>
	<path fill="none" stroke="#000000" stroke-width="3.0377" stroke-linecap="round" stroke-linejoin="round" d="M89.1208,125.2356
		l75.5421-10.6381c0,0,142.5907-1.0511,166.5401,180.8964c0,0,11.1667,73.9564-30.3225,127.1712
		c0,0-37.7832,62.2369-100.0261,69.6914l-2.661-2.6611"/>
	<path fill="none" stroke="#000000" stroke-width="3.0377" stroke-linecap="round" stroke-linejoin="round" d="M163.6057,151.3175
		c0,0-23.4087,18.6152-23.4087,46.2827c0,27.6615,0,71.8178,0,71.8178"/>
	<path fill="none" stroke="#000000" stroke-width="3.0377" stroke-linecap="round" stroke-linejoin="round" d="M68.3731,201.0632"/>
	
		<line fill="none" stroke="#000000" stroke-width="3.0377" stroke-linecap="round" stroke-linejoin="round" x1="73.3003" y1="151.7245" x2="113.1917" y2="146.5422"/>
	<path fill="none" stroke="#000000" stroke-width="3.0377" stroke-linecap="round" stroke-linejoin="round" d="M125.5734,133.7533
		c0,0-5.1945,5.5894-3.1896,8.779"/>
	<polyline fill="none" stroke="#000000" stroke-width="3.0377" stroke-linecap="round" stroke-linejoin="round" points="
		84.4731,211.5676 91.2472,214.3623 139.1278,207.57 	"/>
	<path fill="none" stroke="#000000" stroke-width="3.0377" stroke-linecap="round" stroke-linejoin="round" d="M91.2472,226.738
		l-18.7488-22.3516c0,0-17.9651-15.9663-39.8974,3.9916c0,0-14.3745,6.7863-23.1535,49.8733v88.9931
		c0,0,2.8008,37.1088,9.988,55.0617c0,0,7.4424,17.157,27.3881,19.8242h9.3258c0,0,12.7706,1.853,23.4026-17.2968"/>
	<path fill="none" stroke="#000000" stroke-width="3.0377" stroke-linecap="round" stroke-linejoin="round" d="M79.5459,405.3622
		h3.1957v11.4401h21.8108v-16.4949c0,0,3.4569-25.7903,22.0782-25.2556c0,0,16.4948-6.3914,21.2762,34.5753"/>
	<path fill="none" stroke="#000000" stroke-width="3.0377" stroke-linecap="round" stroke-linejoin="round" d="M123.1797,382.2147
		c0,0,11.4279-7.4303,16.7439,16.5009"/>
	<polyline fill="none" stroke="#000000" stroke-width="3.0377" stroke-linecap="round" stroke-linejoin="round" points="
		139.9236,399.2442 139.9236,411.4801 150.58,411.4801 150.58,408.8191 159.3529,408.8191 159.3529,406.6988 253.7896,396.0606 	"/>
	<polyline fill="none" stroke="#000000" stroke-width="3.0377" stroke-linecap="round" stroke-linejoin="round" points="
		256.4446,385.939 171.0542,399.2442 160.4222,399.2442 	"/>
	
		<line fill="none" stroke="#000000" stroke-width="3.0377" stroke-linecap="round" stroke-linejoin="round" x1="173.1745" y1="270.4934" x2="258.3097" y2="259.588"/>
	<path fill="none" stroke="#000000" stroke-width="3.0377" stroke-linecap="round" stroke-linejoin="round" d="M242.3556,221.2823
		c0,0-23.6699,32.4368,15.4195,37.771"/>
	<path fill="none" stroke="#000000" stroke-width="3.0377" stroke-linecap="round" stroke-linejoin="round" d="M246.3351,230.3164
		c0,0-8.5056,23.676,10.6442,25.5533"/>
	<path fill="none" stroke="#000000" stroke-width="3.0377" stroke-linecap="round" stroke-linejoin="round" d="M234.9071,209.3137
		h-9.3137c0,0-5.8507,1.5978-5.8507,11.434c0,9.8362,0,43.8951,0,43.8951"/>
	<path fill="none" stroke="#000000" stroke-width="3.0377" stroke-linecap="round" stroke-linejoin="round" d="M228.777,210.1095
		c0,0-5.8507,4.7753-5.8507,7.971v131.6852c0,0-1.3244,15.4377,11.9808,14.095l27.9349-3.4509"/>
	
		<line fill="none" stroke="#000000" stroke-width="3.0377" stroke-linecap="round" stroke-linejoin="round" x1="262.034" y1="367.0686" x2="164.4077" y2="379.8271"/>
	<polyline fill="none" stroke="#000000" stroke-width="3.0377" stroke-linecap="round" stroke-linejoin="round" points="
		167.3239,380.3678 167.3239,402.4398 159.3529,406.6988 	"/>
	<path fill="none" stroke="#000000" stroke-width="3.0377" stroke-linecap="round" stroke-linejoin="round" d="M219.2082,313.8599
		v37.771c0,0,2.661,13.0318,11.9686,12.2299"/>
	<path fill="none" stroke="#000000" stroke-width="3.0377" stroke-linecap="round" stroke-linejoin="round" d="M267.0766,306.6787
		l-150.2883,21.8047c0,0,0.2612,10.8933-4.5262,11.4401c-4.7814,0.5347-15.4256,0-15.4256,0v-11.9808l19.9518,0.5407"/>
	<path fill="none" stroke="#000000" stroke-width="3.0377" stroke-linecap="round" stroke-linejoin="round" d="M166.5462,327.153
		c0,0-0.2734,3.4569-7.9831,6.6526c-7.7219,3.1896-4.5323,0-4.5323,0s-2.3937,8.5056-7.1751,11.9626
		c-4.7935,3.463-43.9012,5.3221-43.9012,5.3221s-4.2589-3.1835-6.118-11.1667"/>
	
		<line fill="none" stroke="#000000" stroke-width="3.0377" stroke-linecap="round" stroke-linejoin="round" x1="112.2621" y1="339.9235" x2="153.5023" y2="335.1361"/>
	
		<ellipse fill="none" stroke="#000000" stroke-width="3.0377" stroke-linecap="round" stroke-linejoin="round" cx="256.4446" cy="332.475" rx="8.5117" ry="15.9602"/>
	
		<ellipse fill="none" stroke="#000000" stroke-width="3.0377" stroke-linecap="round" stroke-linejoin="round" cx="255.916" cy="331.1506" rx="10.6442" ry="17.8253"/>
	
		<ellipse fill="none" stroke="#000000" stroke-width="3.0377" stroke-linecap="round" stroke-linejoin="round" cx="251.5174" cy="331.5516" rx="15.5592" ry="19.5447"/>
	<polyline fill="none" stroke="#000000" stroke-width="3.0377" stroke-linecap="round" stroke-linejoin="round" points="
		100.2996,293.3735 108.0093,293.3735 177.1722,283.2639 	"/>
	<path fill="none" stroke="#000000" stroke-width="3.0377" stroke-linecap="round" stroke-linejoin="round" d="M108.0093,340.4582
		v-11.9747v-5.3282c0,0-5.0548-13.5665-9.8483-32.7102c0,0-6.1119-9.587-13.2931,1.3244v75.5542l7.728,49.205"/>
	<path fill="none" stroke="#000000" stroke-width="3.0377" stroke-linecap="round" stroke-linejoin="round" d="M116.7883,328.4835
		c0,0-4.7814-14.3745-8.7729-35.11c0,0-2.661-17.2968-16.2336-15.6929c0,0-10.6381-1.8712-13.8338,11.9626v75.0196l4.7996,40.6994"
		/>
	<path fill="none" stroke="#000000" stroke-width="3.0377" stroke-linecap="round" stroke-linejoin="round" d="M77.948,292.3103
		h11.1727c0,0,2.1264-4.2711,7.4424-2.9284"/>
	<polyline fill="none" stroke="#000000" stroke-width="3.0377" stroke-linecap="round" stroke-linejoin="round" points="
		93.1124,289.6432 93.1124,327.4203 97.1039,327.4203 	"/>
	<path fill="none" stroke="#000000" stroke-width="3.0377" stroke-linecap="round" stroke-linejoin="round" d="M140.197,243.889
		c0,0,7.9771-6.6405,17.8253-24.7453c0,0,2.1264-5.3039,10.6381-6.6465c8.5117-1.3244,62.5163-7.971,62.5163-7.971"/>
	<path fill="none" stroke="#000000" stroke-width="3.0377" stroke-linecap="round" stroke-linejoin="round" d="M206.1703,177.6484
		l-50.5477,6.1362c0,0-11.4401,3.1714-15.4256,11.1545"/>
	<path fill="none" stroke="#000000" stroke-width="3.0377" stroke-linecap="round" stroke-linejoin="round" d="M217.343,188.2865
		l-51.8843,6.1301c0,0-4.5141-1.0632-13.8216,10.632l-11.44,17.0173"/>
	<path fill="none" stroke="#000000" stroke-width="3.0377" stroke-linecap="round" stroke-linejoin="round" d="M155.6226,183.7785
		c0,0,10.1217,0,10.9236,9.8362v19.4171"/>
	<path fill="none" stroke="#000000" stroke-width="3.0377" stroke-linecap="round" stroke-linejoin="round" d="M140.197,197.6002
		c0,0,5.8567,0.7837,11.4401,7.4485l6.3792,13.3113"/>
	<path fill="none" stroke="#000000" stroke-width="3.0377" stroke-linecap="round" stroke-linejoin="round" d="M92.839,231.3918
		l-21.2641-21.2762c0,0-11.4461-5.0609-19.4293,0.7959c0,0-22.874,15.6807-25.0065,44.9583v105.8768c0,0,0,43.6217,25.2799,52.4128
		h14.6357l10.3708-10.6563v-2.3937h4.7875"/>
	<path fill="none" stroke="#000000" stroke-width="3.0377" stroke-linecap="round" stroke-linejoin="round" d="M91.5145,253.2148
		l-21.2762-21.2884c0,0-20.4864-19.4232-31.9143,25.2678v102.4137c0,0-2.661,27.1329,18.6152,34.8548l8.5056,0.5286
		c0,0,10.1217-3.7242,12.7767-24.478"/>
	
		<line fill="none" stroke="#000000" stroke-width="3.0377" stroke-linecap="round" stroke-linejoin="round" x1="78.2214" y1="400.8359" x2="71.5688" y2="390.4651"/>
	<path fill="none" stroke="#000000" stroke-width="3.0377" stroke-linecap="round" stroke-linejoin="round" d="M77.948,364.6628
		c0,0-5.5833,20.2191-22.3333,29.0042"/>
	<path fill="none" stroke="#000000" stroke-width="3.0377" stroke-linecap="round" stroke-linejoin="round" d="M54.272,228.7308
		c0,0,6.3914-1.3244,9.8422,3.9855l15.9663,18.6152h8.779"/>
	
		<line fill="none" stroke="#000000" stroke-width="3.0377" stroke-linecap="round" stroke-linejoin="round" x1="84.0721" y1="251.3375" x2="84.0721" y2="278.7438"/>
	<path fill="none" stroke="#000000" stroke-width="3.0377" stroke-linecap="round" stroke-linejoin="round" d="M83.0028,274.7523
		l-19.4171,2.655c0,0-8.2505,7.1933-0.5407,12.4972H77.948"/>
	
		<line fill="none" stroke="#000000" stroke-width="3.0377" stroke-linecap="round" stroke-linejoin="round" x1="74.7706" y1="276.6113" x2="74.7706" y2="289.8983"/>
	<polyline fill="none" stroke="#000000" stroke-width="3.0377" stroke-linecap="round" stroke-linejoin="round" points="
		77.4195,339.6562 69.7037,339.6562 69.7037,341.2601 62.2552,341.2601 62.2552,329.0242 63.5857,329.0242 63.5857,289.8983 	"/>
	
		<line fill="none" stroke="#000000" stroke-width="3.0377" stroke-linecap="round" stroke-linejoin="round" x1="66.7753" y1="277.4072" x2="66.7753" y2="340.4582"/>
	<polyline fill="none" stroke="#000000" stroke-width="3.0377" stroke-linecap="round" stroke-linejoin="round" points="
		9.0586,272.6137 27.1391,272.6137 37.5099,270.7668 	"/>
	<polyline fill="none" stroke="#000000" stroke-width="3.0377" stroke-linecap="round" stroke-linejoin="round" points="
		11.185,360.4099 27.1391,360.4099 38.3179,359.608 	"/>
	<path fill="none" stroke="#000000" stroke-width="3.0377" stroke-linecap="round" stroke-linejoin="round" d="M50.1407,199.192
		c0,0,8.7851,0.4131,8.7851,7.1933v20.7416"/>
	<path fill="none" stroke="#000000" stroke-width="3.0377" stroke-linecap="round" stroke-linejoin="round" d="M54.6791,199.7266
		c0,0,8.7669,0.4071,8.7669,7.1812v20.7598"/>
	<path fill="none" stroke="#000000" stroke-width="3.0377" stroke-linecap="round" stroke-linejoin="round" d="M277.1922,168.0857
		l181.5525-23.9433c0,0,13.1716-2.8008,13.1716,5.9782v5.9904h2.011v46.6776l17.9469,23.1535v14.7633h7.169l5.6015,4.0037v13.1655
		l-6.7863,4.7814h-5.1824v17.959l-17.558,21.9506v51.8782c0,0,0,6.3853-11.1727,9.18l-141.6551,21.5496"/>
	<path fill="none" stroke="#000000" stroke-width="3.0377" stroke-linecap="round" stroke-linejoin="round" d="M475.1241,342.4631
		c0,0-3.5967-8.3902-12.3696-6.7863l-132.4872,19.9457"/>
	<polyline fill="none" stroke="#000000" stroke-width="3.0377" stroke-linecap="round" stroke-linejoin="round" points="
		473.9273,354.4256 464.7473,358.4172 456.758,358.4172 324.2769,378.369 	"/>
	
		<line fill="none" stroke="#000000" stroke-width="3.0377" stroke-linecap="round" stroke-linejoin="round" x1="462.7545" y1="335.6707" x2="462.7545" y2="363.6056"/>
	
		<line fill="none" stroke="#000000" stroke-width="3.0377" stroke-linecap="round" stroke-linejoin="round" x1="455.1784" y1="337.6574" x2="455.1784" y2="363.6056"/>
	<path fill="none" stroke="#000000" stroke-width="3.0377" stroke-linecap="round" stroke-linejoin="round" d="M298.353,195.6074
		l151.6249-21.9324l17.959-0.808c0,0,6.7923-3.5906,5.9965-6.7863"/>
	<polyline fill="none" stroke="#000000" stroke-width="3.0377" stroke-linecap="round" stroke-linejoin="round" points="
		286.3661,176.8525 447.9851,154.9141 470.7255,154.1182 	"/>
	<path fill="none" stroke="#000000" stroke-width="3.0377" stroke-linecap="round" stroke-linejoin="round" d="M451.9767,144.9322
		c0,0,2.8069,4.7814,2.8069,8.779s0,17.959,0,17.959"/>
	<path fill="none" stroke="#000000" stroke-width="3.0377" stroke-linecap="round" stroke-linejoin="round" d="M459.9416,144.9322
		c0,0,2.8129,4.7814,2.8129,8.779s0,17.959,0,17.959"/>
	<path fill="none" stroke="#000000" stroke-width="3.0377" stroke-linecap="round" stroke-linejoin="round" d="M311.1175,216.7561
		l51.0763-7.9831l29.9276-3.1835l39.8914-6.7802h4.0098c0,0,37.9047,42.2912,3.9855,112.9121l-5.9843,1.9988l-36.7139,8.7729
		l-23.9372,1.1969l-3.2018,4.7874l-36.7078,5.9782"/>
	<polyline fill="none" stroke="#000000" stroke-width="3.0377" stroke-linecap="round" stroke-linejoin="round" points="
		309.1126,213.5665 369.3689,204.7814 373.3726,323.696 	"/>
	
		<line fill="none" stroke="#000000" stroke-width="3.0377" stroke-linecap="round" stroke-linejoin="round" x1="360.201" y1="209.9819" x2="358.1961" y2="324.4919"/>
	<polyline fill="none" stroke="#000000" stroke-width="3.0377" stroke-linecap="round" stroke-linejoin="round" points="
		333.062,328.4835 356.9993,324.4919 365.3894,324.4919 365.3894,326.4907 370.1647,325.6888 	"/>
	<polyline fill="none" stroke="#000000" stroke-width="3.0377" stroke-linecap="round" stroke-linejoin="round" points="
		392.1214,322.4991 392.1214,205.5894 398.0996,199.6051 443.1976,194.8055 454.7775,192.8188 454.7775,203.9915 472.7182,202.7825 
			"/>
	
		<line fill="none" stroke="#000000" stroke-width="3.0377" stroke-linecap="round" stroke-linejoin="round" x1="396.1008" y1="204.3865" x2="396.1008" y2="321.3023"/>
	<polyline fill="none" stroke="#000000" stroke-width="3.0377" stroke-linecap="round" stroke-linejoin="round" points="
		393.3122,322.4991 404.09,325.2939 451.9767,318.5076 457.159,313.7262 457.159,304.5402 475.1241,302.5474 	"/>
	<polyline fill="none" stroke="#000000" stroke-width="3.0377" stroke-linecap="round" stroke-linejoin="round" points="
		454.7775,203.9915 471.9163,223.5302 475.1241,229.9337 475.1241,282.5835 458.7447,303.7503 	"/>
	<polyline fill="none" stroke="#000000" stroke-width="3.0377" stroke-linecap="round" stroke-linejoin="round" points="
		447.9851,194.8055 447.9851,205.9904 466.74,227.5278 466.74,277.8082 451.1686,297.3529 449.188,300.5547 449.188,318.5076 	"/>
	<polyline fill="none" stroke="#000000" stroke-width="3.0377" stroke-linecap="round" stroke-linejoin="round" points="
		466.74,225.5472 470.7255,221.5435 487.0866,221.5435 	"/>
	<polyline fill="none" stroke="#000000" stroke-width="3.0377" stroke-linecap="round" stroke-linejoin="round" points="
		466.74,277.8082 470.7255,288.5739 489.8753,288.5739 	"/>
	
		<line fill="none" stroke="#000000" stroke-width="3.0377" stroke-linecap="round" stroke-linejoin="round" x1="430.822" y1="198.8092" x2="430.822" y2="312.5233"/>
	<polyline fill="none" stroke="#000000" stroke-width="3.0377" stroke-linecap="round" stroke-linejoin="round" points="
		396.9028,231.5255 419.2543,227.9349 430.02,227.9349 	"/>
	<polyline fill="none" stroke="#000000" stroke-width="3.0377" stroke-linecap="round" stroke-linejoin="round" points="
		396.9028,294.5703 422.851,289.3819 430.02,284.6006 	"/>
	<polyline fill="none" stroke="#000000" stroke-width="3.0377" stroke-linecap="round" stroke-linejoin="round" points="
		396.1008,239.4964 425.2325,241.8963 425.2325,228.7308 	"/>
	
		<line fill="none" stroke="#000000" stroke-width="3.0377" stroke-linecap="round" stroke-linejoin="round" x1="396.1008" y1="285.7852" x2="412.869" y2="285.7852"/>
	
		<line fill="none" stroke="#000000" stroke-width="3.0377" stroke-linecap="round" stroke-linejoin="round" x1="414.8557" y1="290.5727" x2="414.8557" y2="240.6994"/>
	
		<line fill="none" stroke="#000000" stroke-width="3.0377" stroke-linecap="round" stroke-linejoin="round" x1="424.0417" y1="242.6921" x2="424.0417" y2="286.5872"/>
	<polyline fill="none" stroke="#000000" stroke-width="3.0377" stroke-linecap="round" stroke-linejoin="round" points="
		414.0598,243.889 407.2796,243.889 407.2796,285.7852 	"/>
	<polygon fill="#FFFFFF" stroke="#FFFFFF" stroke-width="6.0754" points="451.7701,470.1507 505.3312,421.6929 439.5524,387.8709 
		441.7578,407.6161 349.49,421.0915 356.2398,466.633 449.109,452.2646 	"/>
	<polygon points="465.0328,462.7265 509.663,422.3309 454.8443,394.153 456.6669,410.5931 368.6884,423.4974 373.7675,457.7871 
		462.4629,445.4175 	"/>
	<polygon points="355.936,406.6927 311.3119,447.0822 366.1306,475.2541 364.3141,458.8139 452.2926,445.9096 447.1953,411.6138 
		358.5181,423.9955 	"/>
</g>
</svg>
