<?xml version="1.0" encoding="utf-8"?>
<!-- Generator: Adobe Illustrator 21.1.0, SVG Export Plug-In . SVG Version: 6.00 Build 0)  -->
<svg version="1.1" id="Layer_1" xmlns="http://www.w3.org/2000/svg" xmlns:xlink="http://www.w3.org/1999/xlink" x="0px" y="0px"
	 width="188.7px" height="107.5px" viewBox="0 0 188.7 107.5" style="enable-background:new 0 0 188.7 107.5;" xml:space="preserve"
	>
<style type="text/css">
	.st0{clip-path:url(#SVGID_2_);}
	.st1{fill:none;stroke:#010101;stroke-width:0.352;stroke-linecap:round;stroke-linejoin:round;stroke-miterlimit:10;}
	.st2{fill:#FFFFFF;stroke:#010101;stroke-width:0.352;stroke-linecap:round;stroke-linejoin:round;stroke-miterlimit:10;}
	.st3{fill:none;stroke:#010101;stroke-width:0.352;stroke-linecap:round;stroke-linejoin:round;}
	.st4{fill:#010101;stroke:#010101;stroke-width:0.352;stroke-linecap:round;stroke-linejoin:round;}
	.st5{fill:#EB0D8C;stroke:#010101;stroke-width:0.352;stroke-linecap:round;stroke-linejoin:round;}
	.st6{fill:#BDBEC0;stroke:#010101;stroke-width:0.2753;stroke-linecap:round;stroke-linejoin:round;stroke-miterlimit:10;}
	.st7{fill:none;stroke:#010101;stroke-width:0.176;stroke-linecap:round;stroke-linejoin:round;stroke-miterlimit:10;}
	.st8{fill:#FFFFFF;stroke:#010101;stroke-width:0.352;stroke-miterlimit:10;}
	.st9{fill:#010101;stroke:#FFFFFF;stroke-width:1.056;}
	.st10{fill:none;stroke:#000000;stroke-width:0.704;stroke-linecap:round;stroke-linejoin:round;}
	.st11{fill:none;stroke:#000000;stroke-width:0.704;stroke-linecap:round;stroke-linejoin:round;stroke-dasharray:2.1095,2.1095;}
	.st12{fill:none;stroke:#000000;stroke-width:0.704;stroke-linecap:round;stroke-linejoin:round;stroke-dasharray:2.1661,2.1661;}
	.st13{fill:#010101;}
</style>
<g>
	<g>
		<defs>
			<polygon id="SVGID_1_" points="-1.8,108.9 186,108.9 186,11.5 -1.8,0.9 			"/>
		</defs>
		<clipPath id="SVGID_2_">
			<use xlink:href="#SVGID_1_"  style="overflow:visible;"/>
		</clipPath>
		<g id="SIMPLE_Open_Boot_2_" class="st0">
			<g>
				<g>
					<g>
						<path class="st1" d="M42.8,40.7c-0.3-1.9-0.1-2.6-0.1-2.6l3.4-6.1l0.5-0.1l0.6,0.1c0,0,0.4,0.4,0.2,1.8l-3.7,6.5
							C43.6,40.2,43.4,40.6,42.8,40.7c-0.1,0-0.4,0-0.7-0.1c-1.7-0.1-1.7-1.2-1.7-1.2l-0.1-15.7c0-0.1,0.1-0.1,0.1-0.2
							c0.2-0.2,0.6-0.3,0.6-0.3l1.6,0.3c0.5,0.2,0.6,0.9,0.6,0.9l0.1,1.4c0.2,0,0.4-0.3,0.4-0.3s2.7-4.9,2.9-5.1s0.4-1.4,0.4-1.4
							s0.1-0.9,0-1.3C47,17.2,46.3,17,46.3,17s-0.9-0.1-1.3-0.2c-0.4-0.1-0.6,0.1-0.6,0.1l-3.7,6.3"/>
						<line class="st1" x1="43.4" y1="24.1" x2="47" y2="17.9"/>
						<polyline class="st1" points="46.8,17.2 72.2,20.8 72.2,20.3 						"/>
						<path class="st1" d="M43.7,40c0,0-0.2-1.8,0.4-2.9c0.6-1.1,3-5.2,3-5.2"/>
						<line class="st1" x1="157.8" y1="49.8" x2="47.5" y2="34.1"/>
						<line class="st1" x1="45.8" y1="22.1" x2="45.9" y2="31.9"/>
						<polygon class="st1" points="134.3,36.3 144.2,37.7 144.8,45.4 134.7,43.9 						"/>
						<polygon class="st1" points="157.3,36.1 157.9,47.9 146.9,46.3 146.4,34.6 						"/>
						<polygon class="st1" points="84.2,35.4 101.8,37.8 101.5,32.8 84,30.2 						"/>
						<line class="st1" x1="92.8" y1="31.6" x2="93" y2="36.6"/>
						<path class="st1" d="M111.6,34.1c0,0-0.6-0.2-0.6,0.6l0.3,4.4l17.5,2.6l-0.2-4.9c0,0-0.1-0.4-0.6-0.4
							C127.6,36.5,111.6,34.1,111.6,34.1z"/>
						<line class="st1" x1="120" y1="40.3" x2="119.8" y2="35.3"/>
						<path class="st1" d="M81.7,39l-0.1-13.2c0,0,16.3,2.5,17,2.3c0.6-0.2,1.6,0.4,1.6,0.4l1.2,0.8l0.6,0.8c0,1.3,0.7,1.3,0.7,1.3
							s5.7,0.8,6.1,0.9c0.5,0.1,1.3,0,1.3-0.7s0.5-0.9,0.5-0.9l1.6-0.6l17,2.5c1.4,0.1,1.3,1.3,1.3,1.3l0.2,10.3
							c0,0-0.1,1.6,1.4,1.6"/>
						<line class="st1" x1="54.5" y1="27.6" x2="54.4" y2="21.7"/>
						<path class="st1" d="M48.6,20.8c-0.5-0.1-0.5,0.7-0.5,0.7s0,3.8-0.1,4.7c0,0.9,0.9,0.8,0.9,0.8l11.9,1.7c0,0,0.6,0.2,0.6-0.6
							c-0.1-0.8-0.2-4.9-0.2-4.9s0.1-0.8-0.6-0.7c-0.6,0.1-9.4-1.4-9.4-1.4S49.1,20.9,48.6,20.8z"/>
						<path class="st1" d="M109.1,28.9l-0.7,0.7l-3.6-0.6l-0.8-0.7c0,0-0.8-0.9,0.3-1.3l4.2,0.6C108.6,27.7,109.1,28.3,109.1,28.9z"
							/>
						<path class="st1" d="M163,41.2l-15.6,27.9l0.4,22.2c0,0-0.2,1.2-1.4,1.3c-1.2,0.1-3.1,0.3-5.6-0.3
							c-2.4-0.6-13.2-3.9-13.9-15.7c0,0-1.1-8.4,11.3-13.4c0,0,2.8-0.7,5.8-0.1c3,0.6,3.6,0.6,3.6,0.6s1.3,0,1.8,1.5l0.6,22.6
							l-2.1,3.7"/>
						<path class="st1" d="M142.9,90.2c-3.2,1.9-8.5-1.6-11.5-4.9s-4.3-10.6-0.8-14.4c0.1-0.1,0.3-0.3,0.4-0.4
							c3.6-3.4,9.5-3.2,9.5-3.2s4.4,0.6,5.1,0.7c0.8,0.1,1,1.1,1,1.1l0.3,16.3c0,0-0.4,2.7-0.8,3.7c-0.4,1.1-0.8,1.9-1.7,0.8
							s-0.4-10.4-0.4-10.4s1.1-5.5,2.3-4.6l-0.1-0.4c0,0-0.9-1.2-1.8-0.3c-0.9,0.9-2,5.4-2,6.9c0,1.5,0.2,7.7,0.2,7.7s0.4,3.5,2.5,2
							"/>
						<path class="st1" d="M142.7,87.1c0,0-4.9-0.3-9.3-5.6c-4.4-5.3-2.3-11.1-2.3-11.1"/>
						<path class="st1" d="M161.8,43.1c0,0-0.3-2,0.8-2s2,0.4,2,0.4l-14.9,26.6"/>
						<line class="st1" x1="165.8" y1="34.6" x2="162.4" y2="40.8"/>
						<path class="st1" d="M163.6,58.3c0,0,1.1,0.5,1.4-0.5L164.7,42l3.7-6.3"/>
						<line class="st1" x1="149.9" y1="82.5" x2="165" y2="56"/>
						<polyline class="st1" points="165,57.8 168.5,51.7 168.8,51.2 						"/>
						<path class="st1" d="M168.5,51.7l1.3,0.2c0,0,0.6,0,0.8-0.7L170,34.8"/>
						<polyline class="st1" points="170.7,51.5 222.6,-39.6 222.4,-45 221.8,-45.5 219.5,-47.2 219.5,-48.9 						"/>
						<path class="st1" d="M213.7-37.1c-0.4,0.2-0.4,1.5-0.4,2.4c0,0.9,0.6,0.6,0.6,0.6s2.5-4.2,2.7-5.1c0.2-0.9,0.6-0.2,0.6-0.2v2
							v2c0.5-0.1,0.6-1.3,0.6-1.3l4.5-8.1"/>
						<path class="st1" d="M222.1-45.8"/>
						<path class="st1" d="M217.2-37.5"/>
						<path class="st1" d="M160.7,51.5l0.2,8.5l2.8-4.9c0,0,0.1-0.6,0.1-0.9s-0.2-7.5-0.2-7.5s0-0.6-0.4,0.1
							C162.8,47.4,160.7,51.5,160.7,51.5z"/>
						<path class="st1" d="M155.8,59.6l-4.9,8.6c0,0-0.4,0.8-0.4,3.2c0.1,2.4,0.1,5.7,0.1,5.7s0,1.1,0.6,0.6
							c0.6-0.6,4.8-8.4,4.8-8.4s0.6-1.6,0.6-2.3c0-0.7-0.1-6.8-0.1-6.8S156.4,58.8,155.8,59.6z"/>
						
							<ellipse transform="matrix(0.1122 -0.9937 0.9937 0.1122 84.0655 207.7081)" class="st1" cx="158.3" cy="56.8" rx="2" ry="0.6"/>
						
							<ellipse transform="matrix(0.1122 -0.9937 0.9937 0.1122 77.8067 213.6637)" class="st1" cx="158.5" cy="63.3" rx="2" ry="0.6"/>
					</g>
					<polygon class="st1" points="79.9,25.7 80,30.5 62.8,27.8 62.7,23.1 					"/>
					<line class="st1" x1="71.2" y1="24.5" x2="71.4" y2="29.3"/>
					<path class="st1" d="M169,50.5l-0.4-14.2c0,0-0.2-1.4-1.6-1.5s-37.7-5.6-37.7-5.6s0-0.8-1.1-0.8l-0.8-0.1l-0.9,0.6l-0.6-0.4
						l-53.9-7.7"/>
					<ellipse class="st1" cx="80.1" cy="17.5" rx="2.7" ry="1.4"/>
					<path class="st1" d="M170.1,34.7l3.4-5.6l0.7,2.2c0,0,0.8-0.1,0.7-2.3c-0.1-2.2,0.3-4.5,0.7-4.9c0.5-0.4,0.5-2.3,0.5-2.3
						l1.9-3.2l0.2,2.5l15.4-27l-0.1-3.5l6.7-11.8l0.4,4.6c0.8,0.4,0.8,0.8,0.8,0.8S181,21,179.9,22.2c-1.4,1.5-1.8,5.4-1.8,5.4
						c0,0-1,11.3-2.6,13.4"/>
					<line class="st1" x1="170.5" y1="49.7" x2="175.6" y2="41.2"/>
					<path class="st1" d="M201,46.2"/>
					<line class="st1" x1="136.2" y1="23.8" x2="74.6" y2="14.8"/>
					<path class="st1" d="M142.6,21"/>
					<line class="st1" x1="169.3" y1="31.4" x2="135.5" y2="26.3"/>
					<polyline class="st1" points="129.8,28.9 130,28.2 168.6,33.9 					"/>
					<path class="st1" d="M136.4,23.7l-1.7,3.2c0,0-0.3,1-1.8,0.8c-1.5-0.2-3-0.4-3-0.4l-0.6,0.8l-3.2-0.5l-0.3,0.1L45.7,16v0.6"/>
					<polyline class="st1" points="110.7,20 114.9,12.9 132.1,15.4 132.4,15.7 132.4,16 128.6,22.4 					"/>
					<polyline class="st1" points="85.5,16.2 89.6,9.2 106.6,11.7 102.7,18.9 					"/>
					<polyline class="st1" points="63.3,15.6 65.4,11.8 75.5,13.3 73.2,17.2 47.2,13.3 45.7,16.1 					"/>
					<polygon class="st1" points="72.9,8.6 74.1,8.7 75.3,6.4 57,3.6 55.7,6 56.9,6.2 57.1,5.8 73.1,8.2 					"/>
					<polyline class="st1" points="74.8,13.1 76,10.8 75.9,7 75.7,6.8 75.7,5.3 65.5,3.7 65.7,3.4 63.2,3.1 62.9,3.4 57.5,2.6 
						57.4,3.4 					"/>
					<line class="st1" x1="62.9" y1="3.4" x2="62.9" y2="4.4"/>
					<line class="st1" x1="65.5" y1="4.9" x2="65.5" y2="3.7"/>
					<polyline class="st1" points="57.5,2.6 66,-12.3 71.3,-11.4 					"/>
					<line class="st1" x1="76.2" y1="7.2" x2="79.1" y2="2.2"/>
					<polyline class="st1" points="79.2,5.8 79.2,7.5 89.3,8.9 					"/>
					<g>
						<polyline class="st1" points="103.1,11 103.1,4.6 110.9,-8.6 						"/>
						<path class="st1" d="M79.1,5.8L79.1,1l5.8-10.3l4.8,0.8l0.1,0.1l1.6-2.8l19.4,2.7C110.9-7,111-2,111-2L103.6,11"/>
					</g>
					<g>
						<path class="st1" d="M138.8,3.2"/>
						<path class="st1" d="M131.6,11.1"/>
						<path class="st1" d="M129.9,10.9"/>
						<path class="st1" d="M128.2,10.6"/>
						<path class="st1" d="M126.4,10.3"/>
						<path class="st1" d="M124.8,10.1"/>
						<path class="st1" d="M123.1,9.8"/>
						<path class="st1" d="M121.4,9.6"/>
						<path class="st1" d="M119.7,9.3"/>
						<path class="st1" d="M118,9.2"/>
						<path class="st1" d="M116.2,8.9"/>
						<path class="st1" d="M114.5,8.7"/>
					</g>
					<g>
						<path class="st1" d="M146.2-52"/>
						<path class="st1" d="M144.5-52.2"/>
					</g>
					<polyline class="st1" points="173.9,26.8 139.7,21.9 136.9,26.5 					"/>
					<line class="st1" x1="154.5" y1="29.1" x2="157.3" y2="24.4"/>
					<polyline class="st1" points="155.4,29.3 156.7,27.2 157.1,27.2 169.7,29.1 168.4,31.2 					"/>
					<line class="st1" x1="157" y1="24.8" x2="157.1" y2="27.2"/>
					<line class="st1" x1="157.2" y1="26" x2="173.8" y2="28.5"/>
					<line class="st1" x1="53.5" y1="12" x2="55.8" y2="7.7"/>
					<polyline class="st1" points="55.7,6 55.8,11.3 57.1,11.5 57.5,11.1 65,12.3 					"/>
					<line class="st1" x1="56.9" y1="6" x2="57.1" y2="11.5"/>
					<line class="st1" x1="72.9" y1="8.3" x2="73.1" y2="12.7"/>
					<line class="st1" x1="74.2" y1="8.6" x2="74.4" y2="13.1"/>
					<path class="st1" d="M43.6,17.7V16l2.2-3.7c0,0,0.1-0.3,1-0.1c0.8,0.2,0.4,1.1,0.4,1.1l-1.4,2.3c0,0-0.5,0.7-1.2,0.6
						c-0.4-0.1-0.2,0.8-0.2,0.8"/>
					<path class="st1" d="M106.6,11.7c0,0,0.2,0.1,0.4,0.4l0.3,3.2c0,0-0.7,1.1,0,1.3c0,0,0.7-0.4,0.8,0.4l-1.4,2.5"/>
					<ellipse class="st2" cx="128.6" cy="24.7" rx="3" ry="1.3"/>
					<path class="st1" d="M180.7,0.1l-0.1-5.3c0,0,0.1-1.3,0.3-1.3"/>
					<path class="st1" d="M188.1-4.2l-7.6-1l-7.2-1.3v0.6c0,0-2.4,0.2-3.2,2.5l9.9,1.8c0,0,0.6,0.1,0.6,0.7"/>
					<polyline class="st1" points="175,-7.5 180.6,-6.4 188.3,-5.4 					"/>
					<path class="st1" d="M174.5-6.1c0,0-0.1-0.8,0.9-2.3c1-1.5,20-35.8,20-35.8l11.1,1.8l0.8-1.3l0.6,0.1l-0.8,1.2l2.2,0.4
						L202.8-31l-2.1-0.3l-5.2,9.1l1.9,0.3l-8.8,16.1c0,0-0.4,0.5-0.4,2s0.2,6.4,0.2,6.4"/>
					<polyline class="st1" points="188.9,2 188.8,-4.5 190.9,-8.5 191.2,-2 					"/>
					<line class="st1" x1="206.2" y1="-24" x2="213.3" y2="-36.5"/>
					<polygon class="st1" points="205.4,-25 216.6,-44.6 217.1,-44.9 221.7,-53.3 221.5,-58.1 217.6,-51 217.3,-51.2 205.6,-30.6 
											"/>
					<polyline class="st1" points="192.7,-4.6 192.4,-10.6 191.6,-10.8 					"/>
					<polyline class="st1" points="196.2,-22 200.8,-29.9 200.7,-30.9 					"/>
					<polyline class="st1" points="197.4,-21.8 201.5,-29.1 200.5,-29.2 					"/>
					<line class="st1" x1="201.6" y1="-27.5" x2="201.5" y2="-29.1"/>
					<polyline class="st1" points="201.1,-29.9 202.3,-29.5 202.3,-28.3 					"/>
					<line class="st1" x1="202.1" y1="-28.2" x2="198" y2="-21.1"/>
					<path class="st1" d="M199.5-21.3l3.4-6.1c0,0,0.5-0.9,0.6,0.8c0.1,1.7,0,2,0,2l0.3,0.6l-3.2,5.5"/>
					<path class="st1" d="M200.7-17.6l3.4-5.9c0,0,0.7-1.5-0.5-1.5"/>
					<path class="st1" d="M172.6-7.6l14.5-25c0,0,1-0.1,1.2-1.3l1.3-1.8c0,0,0.2-2,0.8-2.9"/>
					<path class="st1" d="M191-36.2c0,0-1.8-4.4,2.3-6.4"/>
					<polyline class="st1" points="194.7,-44.4 197.6,-49.9 206.2,-48.5 207.1,-48.2 208.7,-48 209.3,-47.7 209.9,-48.6 
						197.7,-50.4 198.7,-52 206.9,-51 213.7,-49.7 212.7,-48 210.1,-48.6 					"/>
					<line class="st1" x1="203" y1="-43.1" x2="206.3" y2="-48.8"/>
					<line class="st1" x1="207.1" y1="-48" x2="204" y2="-43"/>
					<line class="st1" x1="205.6" y1="-42.5" x2="208.7" y2="-48"/>
					<path class="st1" d="M213.3-49.9l0.3-0.6L196.7-53l-0.6,1.1c0,0-0.6,1.2,1.9,1.3"/>
					<path class="st1" d="M209.6-51.3c0,0-4.6-6.4-15.3-7.3c-13.4-1.2-13,7.9-13,7.9s0.4,1,2.5,1.1c1.8,0.1,2.2-1.4,2.2-1.4
						s0.4-3.3,7-2.9c0,0,3.2,0.1,4.9,1.1"/>
					<ellipse class="st2" cx="159" cy="-36.3" rx="2.7" ry="1.3"/>
					<polygon class="st1" points="112.9,-69.1 110.2,-63.8 109.4,-63.9 107.4,-60.2 100.1,-61.3 102.2,-65 101.5,-65.2 104.3,-70.4 
						105.3,-70.5 112.3,-69.6 					"/>
					<polygon class="st1" points="112.9,-69.1 113.8,-69.4 121.2,-68.4 121.7,-68 118.5,-62.6 117.9,-62.7 115.8,-59.1 108.6,-60.1 
						110.7,-63.8 110.2,-63.8 					"/>
					<polyline class="st1" points="121.7,-68 122.6,-68 129.6,-67 130.1,-66.6 127,-61.3 126.4,-61.5 124.3,-57.9 117.3,-58.9 
						119.3,-62.5 118.8,-62.7 					"/>
					<polygon class="st1" points="131.8,-67.5 126,-57.5 132.3,-56.5 138.2,-66.6 					"/>
					<polyline class="st1" points="148.9,-64.1 141.1,-65.3 140.5,-65.1 137.6,-59.8 138.1,-59.6 136,-56.1 143.3,-54.9 
						145.2,-58.7 145.7,-58.4 					"/>
					<polyline class="st1" points="152.2,-56.2 157.1,-64.6 150,-65.6 144.3,-55.7 149.9,-54.8 					"/>
					<polyline class="st1" points="157.2,-55.6 157.8,-56.7 157.2,-56.8 160,-62.2 160.7,-62.5 168.3,-61.3 168.7,-60.9 
						165.6,-55.6 164.9,-55.8 164,-54.4 					"/>
					<polyline class="st1" points="169.2,-61.2 176.7,-60.1 177.1,-59.7 174.3,-54.3 173.5,-54.5 171.4,-50.9 171.5,-50.2 					"/>
					<polyline class="st1" points="145.8,-47.7 144.4,-48 144.3,-55.7 					"/>
					<path class="st1" d="M136-56.1c0,0-0.4,1.4-0.3,3s0.2,4,0.2,4l7,0.8l1.4-2.2"/>
					<path class="st1" d="M100.1-61.3c0,0-0.2,0.6-0.3,2.3c-0.1,1.6,0,4.4,0,4.4l7.3,1l1.3-1.9"/>
					<path class="st1" d="M108.6-60.1c0,0-0.3,1-0.3,2.2s0.1,4.6,0.1,4.6l2,0.2"/>
					<path class="st1" d="M115.8-59.1c0,0,0,2.3-0.1,3"/>
					<polyline class="st1" points="117.3,-58.9 116.9,-57.4 117,-55.8 					"/>
					<polyline class="st1" points="124.5,-58.2 124.1,-56.5 124.1,-54.8 					"/>
					<polyline class="st1" points="107.4,-60.2 107.1,-59.1 107.2,-53.9 					"/>
					<line class="st1" x1="126" y1="-57.5" x2="126.1" y2="-54.6"/>
					<polyline class="st1" points="143.3,-54.9 143,-53.7 143.2,-48.6 					"/>
					<polyline class="st1" points="138.4,-66.4 138.1,-63.9 138.1,-61.4 					"/>
					<line class="st1" x1="157.1" y1="-64.6" x2="157.2" y2="-56.8"/>
					<polyline class="st1" points="177.1,-59.7 177.9,-59.8 185.4,-58.8 185.9,-58.4 185.7,-57.7 					"/>
					<polyline class="st1" points="174.3,-54.3 174.9,-54.3 172.8,-50.8 180.3,-49.6 					"/>
					<g>
						<path class="st1" d="M111-43.9l-0.6,1.1v3.4c0,0,0.1,0.6-0.6,0.5c-0.8-0.1-4.9-0.7-4.9-0.7L105-38l5.2,0.7"/>
						<path class="st1" d="M111.6-39.9"/>
					</g>
					<g>
						<line class="st1" x1="129.9" y1="-42.5" x2="134.1" y2="-49.6"/>
					</g>
					<line class="st1" x1="109.7" y1="-48.2" x2="104.9" y2="-39.9"/>
					<ellipse class="st2" cx="119.3" cy="-41.6" rx="3" ry="1.5"/>
					<ellipse class="st1" cx="119.3" cy="-42" rx="2.6" ry="1.3"/>
					<line class="st1" x1="113.6" y1="-39.6" x2="113.8" y2="-40.1"/>
					<path class="st2" d="M162.8-32.8c0,0-8.7,15.8-9.1,16.7c-0.4,0.9-1.4,0.7-1.4,0.7l-8.2-1.3c0,0-1.5,3.2-2.1,3.9
						c-0.5,0.7-1.4,0.5-1.4,0.5l-28.2-4l-3.7-0.6l2.5-4.5l-9.1-1.3l9.9-17.7l8.9,1.3l2.6-4.2l32.9,5.2l-2.3,3.9L162.8-32.8z"/>
					<g>
						<path class="st1" d="M174.3-38.4V-42c0,0-0.1-0.5-0.6-0.4l-0.6,1.1v0.6"/>
					</g>
					<g>
						<path class="st1" d="M176.6-38.1v-3.5c0,0-0.1-0.5-0.6-0.4l-0.6,1.1v0.6"/>
					</g>
					<g>
						<path class="st1" d="M179-37.7v-3.5c0,0-0.1-0.5-0.6-0.4l-0.6,1.1v0.6"/>
					</g>
					<g>
						<path class="st1" d="M181.3-37.4v-3.5c0,0-0.1-0.5-0.6-0.4l-0.6,1.1v0.6"/>
					</g>
					<g>
						<path class="st1" d="M183.6-37v-3.5c0,0-0.1-0.5-0.6-0.4l-0.6,1.1v0.6"/>
					</g>
					<g>
						<path class="st1" d="M182.6-35.2v-3.5c0,0-0.1-0.5-0.6-0.4l-0.6,1.1v0.6"/>
					</g>
					<g>
						<path class="st1" d="M181.6-33.4v-3.5c0,0-0.1-0.5-0.6-0.4l-0.6,1.1v0.6"/>
					</g>
					<g>
						<path class="st1" d="M180.5-31.5V-35c0,0-0.1-0.5-0.6-0.4l-0.6,1.1v0.6"/>
					</g>
					<g>
						<path class="st1" d="M179.5-29.6v-3.5c0,0-0.1-0.5-0.6-0.4l-0.6,1.1v0.6"/>
					</g>
					<g>
						<path class="st1" d="M178.4-27.8v-3.5c0,0-0.1-0.5-0.6-0.4l-0.6,1.1v0.6"/>
					</g>
					<g>
						<path class="st1" d="M177.3-25.9v-3.5c0,0-0.1-0.5-0.6-0.4l-0.6,1.1v6.4"/>
						<path class="st1" d="M175-26.3v-3.5c0,0-0.1-0.5-0.6-0.4l-0.6,1.1v4.9"/>
						<path class="st1" d="M172.7-26.6v-3.5c0,0-0.1-0.5-0.6-0.4l-0.6,1.1v4.9"/>
						<path class="st1" d="M170.4-27v-3.5c0,0-0.1-0.5-0.6-0.4l-0.6,1.1v4.7"/>
						<path class="st1" d="M168.1-27.3v-3.5c0,0-0.1-0.5-0.6-0.4l-0.6,1.1v4.9"/>
						<g>
							<path class="st1" d="M180.2-35.6v-3.5c0,0-0.1-0.5-0.6-0.4l-0.6,1.1v0.6"/>
						</g>
						<g>
							<path class="st1" d="M179.2-33.7v-3.5c0,0-0.1-0.5-0.6-0.4l-0.6,1.1v0.6"/>
						</g>
						<g>
							<path class="st1" d="M178.2-31.8v-3.5c0,0-0.1-0.5-0.6-0.4l-0.6,1.1v0.6"/>
						</g>
						<g>
							<path class="st1" d="M177.1-30v-3.5c0,0-0.1-0.5-0.6-0.4l-0.6,1.1v0.6"/>
						</g>
						<g>
							<path class="st1" d="M176.1-28.2v-3.5c0,0-0.1-0.5-0.6-0.4l-0.6,1.1v0.6"/>
						</g>
						<g>
							<path class="st1" d="M178-35.8v-3.5c0,0-0.1-0.5-0.6-0.4l-0.6,1.1v0.6"/>
						</g>
						<g>
							<path class="st1" d="M176.9-34.1v-3.5c0,0-0.1-0.5-0.6-0.4l-0.6,1.1v0.6"/>
						</g>
						<g>
							<path class="st1" d="M175.9-32.2v-3.5c0,0-0.1-0.5-0.6-0.4l-0.6,1.1v0.6"/>
						</g>
						<g>
							<path class="st1" d="M174.9-30.4v-3.5c0,0-0.1-0.5-0.6-0.4l-0.6,1.1v0.6"/>
						</g>
						<g>
							<path class="st1" d="M173.8-28.4V-32c0,0-0.1-0.5-0.6-0.4l-0.6,1.1v0.6"/>
						</g>
						<g>
							<path class="st1" d="M175.7-36.2v-3.5c0,0-0.1-0.5-0.6-0.4l-0.6,1.1v0.6"/>
						</g>
						<g>
							<path class="st1" d="M174.6-34.4v-3.5c0,0-0.1-0.5-0.6-0.4l-0.6,1.1v0.6"/>
						</g>
						<g>
							<path class="st1" d="M173.5-32.5V-36c0,0-0.1-0.5-0.6-0.4l-0.6,1.1v0.6"/>
						</g>
						<g>
							<path class="st1" d="M172.5-30.6v-3.5c0,0-0.1-0.5-0.6-0.4l-0.6,1.1v0.6"/>
						</g>
						<g>
							<path class="st1" d="M171.5-28.8v-3.5c0,0-0.1-0.5-0.6-0.4l-0.6,1.1v0.6"/>
						</g>
						<g>
							<path class="st1" d="M173.3-36.5v-3.5c0,0-0.1-0.5-0.6-0.4l-0.6,1.1v0.6"/>
						</g>
						<g>
							<path class="st1" d="M172.3-34.7v-3.5c0,0-0.1-0.5-0.6-0.4l-0.6,1.1v0.6"/>
						</g>
						<g>
							<path class="st1" d="M171.2-32.8v-3.5c0,0-0.1-0.5-0.6-0.4l-0.6,1.1v0.6"/>
						</g>
						<g>
							<path class="st1" d="M170.2-31v-3.5c0,0-0.1-0.5-0.6-0.4l-0.6,1.1v0.6"/>
						</g>
						<g>
							<path class="st1" d="M169.1-29.2v-3.5c0,0-0.1-0.5-0.6-0.4l-0.6,1.1v0.6"/>
						</g>
					</g>
					<g>
						<path class="st1" d="M186.1-34.4l-0.1-5.9c0,0-0.1-0.5-0.6-0.4l-0.6,1.1v0.6"/>
					</g>
					<g>
						<path class="st1" d="M183.7-37.2v-0.6l0.6-1.1c0.5-0.1,0.6,0.4,0.6,0.4l0.1,5.9l0.2,0.4l0.8-2.3"/>
					</g>
					<g>
						<path class="st1" d="M183.9-30.6l-0.1-5.9c0,0-0.1-0.5-0.6-0.4l-0.6,1.1v0.6"/>
					</g>
					<g>
						<path class="st1" d="M181.6-33.4V-34l0.6-1.1c0.5-0.1,0.6,0.4,0.6,0.4l0.1,5.9l0.3,0.4l0.8-1.8l-0.1-0.4"/>
					</g>
					<g>
						<path class="st1" d="M181.9-26.8l-0.1-5.9c0,0-0.1-0.5-0.6-0.4l-0.6,1.1v0.6"/>
					</g>
					<g>
						<path class="st1" d="M179.5-29.7v-0.6l0.6-1.1c0.5-0.1,0.6,0.4,0.6,0.4l0.1,5.9c0,0,0.2,0.4,0.4,0.4l0.8-1.9l-0.2-0.3"/>
					</g>
					<g>
						<path class="st1" d="M178.5-22.7l-0.1-5.7l0.6-1.1c0.5-0.1,0.6,0.4,0.6,0.4l0.1,5.9l-0.3,0.4"/>
					</g>
					<g>
						<path class="st1" d="M177.6-19.4l-0.1-5.9c0,0-0.1-0.5-0.6-0.4l-0.6,1.1l0.1,6.5l0.8,0.1l0.6-1
							C177.9-19.1,177.6-19.3,177.6-19.4z"/>
					</g>
					<g>
						<path class="st1" d="M174-24.2v-0.8l0.6-1.1c0.5-0.1,0.6,0.4,0.6,0.4l0.1,5.7c0,0-0.1,0.4,0.4,0.6l-0.6,1l-0.8-0.1"/>
					</g>
					<g>
						<path class="st1" d="M172.9-22.4v-0.8l0.6-1.1c0.5-0.1,0.6,0.4,0.6,0.4l0.1,5.7c0,0-0.1,0.4,0.4,0.6l-0.6,1l-0.8-0.1"/>
					</g>
					<g>
						<path class="st1" d="M171.9-20.6v-0.8l0.6-1.1c0.5-0.1,0.6,0.4,0.6,0.4l0.1,5.7c0,0-0.1,0.4,0.4,0.6l-0.6,1l-0.8-0.1"/>
					</g>
					<g>
						<path class="st1" d="M172.9-23.2v-2.9c0,0-0.1-0.5-0.6-0.4l-0.6,1.1v0.8"/>
					</g>
					<g>
						<path class="st1" d="M171.9-21.3v-2.9c0,0-0.1-0.5-0.6-0.4l-0.6,1.1v0.8"/>
					</g>
					<g>
						<path class="st1" d="M169.5-21.7v-2.9c0,0-0.1-0.5-0.6-0.4l-0.6,1.1v0.8"/>
					</g>
					<g>
						<path class="st1" d="M167.2-22v-2.9c0,0-0.1-0.5-0.6-0.4l-0.6,1.1v0.8"/>
					</g>
					<g>
						<path class="st1" d="M170.8-19.5v-2.9c0,0-0.1-0.5-0.6-0.4l-0.6,1.1v0.8"/>
					</g>
					<g>
						<path class="st1" d="M168.5-19.8v-2.9c0,0-0.1-0.5-0.6-0.4l-0.6,1.1v0.8"/>
					</g>
					<g>
						<path class="st1" d="M166.2-20.1V-23c0,0-0.1-0.5-0.6-0.4l-0.6,1.1v0.8"/>
					</g>
					<g>
						<path class="st1" d="M169.7-17.6v-2.9c0,0-0.1-0.5-0.6-0.4l-0.6,1.1v0.8"/>
					</g>
					<g>
						<path class="st1" d="M167.4-18v-2.9c0,0-0.1-0.5-0.6-0.4l-0.6,1.1v0.8"/>
					</g>
					<g>
						<path class="st1" d="M165.1-18.3v-2.9c0,0-0.1-0.5-0.6-0.4l-0.6,1.1v0.8"/>
					</g>
					<g>
						<path class="st1" d="M172.1-16.6v-3.7c0,0-0.1-0.5-0.6-0.4l-0.6,1.1v0.8"/>
					</g>
					<g>
						<path class="st1" d="M171.1-14.7v-3.7c0,0-0.1-0.5-0.6-0.4l-0.6,1.1v0.8"/>
					</g>
					<g>
						<path class="st1" d="M168.8-15v-3.7c0,0-0.1-0.5-0.6-0.4l-0.6,1.1v0.8"/>
					</g>
					<g>
						<path class="st1" d="M166.4-15.4V-19c0,0-0.1-0.5-0.6-0.4l-0.6,1.1v0.8"/>
					</g>
					<g>
						<path class="st1" d="M165.3-13.5v-3.7c0,0-0.1-0.5-0.6-0.4l-0.6,1.1l0.1,6.3"/>
					</g>
					<g>
						<path class="st1" d="M167.6-13.1v-3.7c0,0-0.1-0.5-0.6-0.4l-0.6,1.1l0.1,6.3"/>
					</g>
					<g>
						<path class="st1" d="M170-12.8v-3.7c0,0-0.1-0.5-0.6-0.4l-0.6,1.1v6.3"/>
					</g>
					<g>
						<path class="st1" d="M171.2-9.6l-0.1-5.8l0.6-1.1c0.5-0.1,0.6,0.4,0.6,0.4l0.1,5.9l-0.2,0.5"/>
					</g>
					<g>
						<path class="st1" d="M164-15.7v-3.7c0,0-0.1-0.5-0.6-0.4l-0.6,1.1v0.8"/>
					</g>
					<g>
						<path class="st1" d="M163-13.8v-3.7c0,0-0.1-0.5-0.6-0.4l-0.6,1.1l0.1,6.2"/>
					</g>
					<g>
						<path class="st1" d="M160.9-13.7c0,0-0.1-0.5-0.6-0.4l-0.6,1.1l0.1,6.2l1.1,0.1l0.5-0.8c0,0-0.4,0-0.4-0.6L160.9-13.7z"/>
					</g>
					<g>
						<path class="st1" d="M163.2-13.5c0,0-0.1-0.5-0.6-0.4l-0.6,1.1l0.1,6.2l1.1,0.1l0.5-0.8c0,0-0.4,0-0.4-0.6L163.2-13.5z"/>
					</g>
					<g>
						<path class="st1" d="M165.6-13.2c0,0-0.1-0.5-0.6-0.4l-0.6,1.1l0.1,6.2l1.1,0.1l0.5-0.8c0,0-0.4,0-0.4-0.6L165.6-13.2z"/>
					</g>
					<g>
						<path class="st1" d="M167.8-12.8c0,0-0.1-0.5-0.6-0.4l-0.6,1.1l0.1,6.2l1.1,0.1l0.5-0.8c0,0-0.4,0-0.4-0.6L167.8-12.8z"/>
					</g>
					<g>
						<path class="st1" d="M170.2-12.3c0,0-0.1-0.5-0.6-0.4l-0.6,1.1l0.1,6.2l1.1,0.1l0.5-0.8c0,0-0.4,0-0.4-0.6L170.2-12.3z"/>
					</g>
					<g>
						<path class="st1" d="M160.7-14.2v-3.7c0,0-0.1-0.5-0.6-0.4l-0.6,1.1l0.1,6.2"/>
					</g>
					<g>
						<path class="st1" d="M170.6-23.5v-2.9c0,0-0.1-0.5-0.6-0.4l-0.6,1.1v0.8"/>
					</g>
					<g>
						<path class="st1" d="M168.3-23.8v-2.9c0,0-0.1-0.5-0.6-0.4l-0.6,1.1v0.8"/>
					</g>
					<g>
						<path class="st1" d="M165.9-24.2v-2.9c0,0-0.1-0.5-0.6-0.4l-0.6,1.1l0.1,4.7"/>
					</g>
					<g>
						<path class="st1" d="M176.4-42.2v-3.5c0,0-0.1-0.5-0.6-0.4l-0.6,1.1l0.1,4.8"/>
					</g>
					<g>
						<path class="st1" d="M178.8-41.8v-3.5c0,0-0.1-0.5-0.6-0.4l-0.6,1.1l0.1,4.8"/>
					</g>
					<g>
						<path class="st1" d="M181.1-41.4v-3.5c0,0-0.1-0.5-0.6-0.4l-0.6,1.1l0.1,4.8"/>
					</g>
					<g>
						<path class="st1" d="M183.4-41.1v-3.5c0,0-0.1-0.5-0.6-0.4l-0.6,1.1l0.1,4.8"/>
					</g>
					<g>
						<path class="st1" d="M185.7-40.8v-3.5c0,0-0.1-0.5-0.6-0.4l-0.6,1.1l0.1,4.8"/>
					</g>
					<path class="st1" d="M164.3-5.2c2.4,0.4,4.5,0.6,4.5,0.6s0.9,0.4,1.3-0.7"/>
					<path class="st1" d="M158.8-9.9L157.1-7c0,0-0.6,0.7,0.2,0.8c0.4,0.1,2.5,0.4,4.7,0.6"/>
					<path class="st1" d="M160.7-17.4l1-1.6l0.6,0.1c0,0,0.3,0.3,0.1,1.1"/>
					<line class="st1" x1="153.1" y1="-5" x2="148.6" y2="-5.7"/>
					<polyline class="st1" points="163,-32.7 163.1,-24 164.7,-23.8 					"/>
					<path class="st1" d="M152.1-5.2l-0.1-8.3c0,0,0.1-1.7,0.5-1.9"/>
					<path class="st1" d="M140-12.5c0,0-0.4,0.4-0.5,1.8l0.1,4.1"/>
					<path class="st1" d="M110.3-16.6c0,0-0.4,0.4-0.5,1.8l0.1,6.1"/>
					<polyline class="st1" points="181.3,-50.8 180,-51 179.2,-49.8 179.2,-49.3 179.8,-48.8 					"/>
					<polyline class="st1" points="181.4,-50.6 181.1,-50 180.7,-50.1 179.4,-48 184.5,-47.1 188,-53.3 					"/>
					<line class="st1" x1="173.7" y1="-43.9" x2="175.2" y2="-43.7"/>
					<line class="st1" x1="176.5" y1="-43.5" x2="177.6" y2="-43.3"/>
					<line class="st1" x1="178.8" y1="-43.2" x2="179.9" y2="-43"/>
					<path class="st1" d="M179.3-47.8c0,0-0.1,0.4,0.5,0.5l0.1,3"/>
					<path class="st1" d="M184.5-47.1c0,0-0.1,0.4-0.5,0.3l0.1,3.7l-0.6-0.1"/>
					<path class="st1" d="M186-49.7l0.1,3.2c0,0,0.2,0.8-0.7,1.1l-0.6,1"/>
					<line class="st1" x1="182.2" y1="-43.4" x2="181.1" y2="-43.6"/>
					<line class="st1" x1="175.4" y1="-21.8" x2="176.4" y2="-22"/>
					<path class="st1" d="M177.6-22.3l1.5-0.4c0,0,0.5-0.1,0.5,0.4s0.1,2.2,0.1,2.2"/>
					<line class="st1" x1="175.4" y1="-20.6" x2="176.4" y2="-20.8"/>
					<path class="st1" d="M177.6-21.1l0.8-0.2c0,0,0.4-0.1,0.4,0.4c0,0.6,0,2.3,0,2.3"/>
					<line class="st1" x1="177.9" y1="-19.2" x2="178.8" y2="-20.6"/>
					<line class="st1" x1="178.8" y1="-21.1" x2="179.7" y2="-22.4"/>
					<polyline class="st1" points="163.3,-12.1 163.9,-12 164,-12.5 					"/>
					<polyline class="st1" points="165.7,-11.8 166.2,-11.7 166.4,-12.2 					"/>
					<polyline class="st1" points="168,-11.4 168.5,-11.4 168.7,-11.8 					"/>
					<polyline class="st1" points="170.3,-11.1 170.9,-11 171.2,-11.6 					"/>
					<path class="st1" d="M170.8-15"/>
					<line class="st1" x1="159.7" y1="-9.4" x2="157.8" y2="-10.5"/>
					<line class="st1" x1="162" y1="-8" x2="160.9" y2="-8.7"/>
					<path class="st1" d="M159.7-11.1l-0.8-0.5c0,0-0.4-0.4-0.8,0.1c-0.4,0.6-0.6,1.1-0.6,1.1l0.1,2.5"/>
					<line class="st1" x1="162.1" y1="-9.8" x2="160.9" y2="-10.4"/>
					<path class="st1" d="M169.1-7.9c-0.6,0.2-1.2,0.4-1.2,0.4"/>
					<path class="st1" d="M170.3-9.3l1.4-0.4c0,0,0.6-0.2,0.6,0.5s0.1,1.8,0.1,1.8l-0.7,1.1L171.6-8c0,0,0-0.6-0.5-0.5
						c-0.1,0-0.4,0.1-0.8,0.2"/>
					<line class="st1" x1="168" y1="-8.7" x2="169.1" y2="-8.9"/>
					<polyline class="st1" points="68.8,-13.2 92.3,-54.5 92.7,-54.1 93.2,-52.2 					"/>
					<polyline class="st1" points="79,-16.1 90.5,-36.3 95.4,-35.6 95.5,-35.2 105.5,-33.7 93.7,-13 83.4,-14.5 83.1,-14.2 
						79.1,-14.9 					"/>
					<polyline class="st1" points="88.8,-34.2 83.1,-35.1 71.1,-13.9 72.2,-13.9 					"/>
					<path class="st3" d="M66-22.1"/>
					<path class="st3" d="M77.8-11.1l1.2,0.1c0,0-0.1,0.6,0,1.4"/>
					<path class="st3" d="M71.5-10.5c0,0-0.1-1.1,0-1.4l1.2,0.1"/>
					<polyline class="st3" points="72.9,-10.4 72.9,-12 77.8,-11.3 77.8,-9.4 					"/>
					<line class="st3" x1="79.1" y1="-10.4" x2="84.5" y2="-9.5"/>
					<path class="st3" d="M74.1-16.4c0,0,0.8-1.8,3-1.4c2.2,0.4,1.8,2.5,1.8,2.5l-0.7,1.7c0,0-0.6,1.6-3,1.4c0,0-2-0.2-1.8-2.1
						L74.1-16.4z"/>
					<path class="st3" d="M74.7-16.3c0,0,0.8-1.3,2.3-1s1.3,1.5,1.3,1.5l-0.6,2c0,0-0.7,1.1-2.3,1.1c-1.5-0.1-1.4-1.5-1.4-1.5
						L74.7-16.3z"/>
					<g>
						<g id="LINE_10_">
							<polygon class="st4" points="77,-13.8 74.8,-14.2 74.8,-14.4 77,-14.1 							"/>
						</g>
						<g id="LINE_9_">
							<polygon class="st4" points="77.2,-14.7 75.1,-15.1 75.1,-15.4 77.3,-15 							"/>
						</g>
						<g id="LINE_8_">
							<polygon class="st4" points="77.5,-15.7 75.3,-16.1 75.4,-16.3 77.6,-16 							"/>
						</g>
					</g>
					<path class="st3" d="M102-22.8c0,0-0.5,0.9-0.5,2.4c0,1.5,0.3,8,0.3,8l2.5,0.4"/>
					<line class="st1" x1="111" y1="-6.3" x2="119.1" y2="-5.1"/>
					<g>
						<path class="st2" d="M143.1-13.1l0.1,2c0,0,0.5,1.3,3,1.3c0,0,2,0,2.6-1.4v-2.3"/>
						<ellipse class="st2" cx="145.9" cy="-13.3" rx="2.7" ry="1.5"/>
					</g>
					<g>
						<path class="st2" d="M103.4-18.9l0.1,2c0,0,0.5,1.3,3,1.3c0,0,2,0,2.6-1.4v-2.3"/>
						<ellipse class="st2" cx="106.2" cy="-19.1" rx="2.7" ry="1.5"/>
					</g>
					<g>
						<g>
							<path class="st1" d="M104.1-16.1c0,0-1.4,1.3,1.8,1.6c0,0,1.5,0.1,2.5-0.7"/>
							<path class="st1" d="M104.1-14.8c0,0-1.4,1.3,1.8,1.6c0,0,1.5,0.1,2.5-0.7"/>
							<path class="st1" d="M104.1-13.5c0,0-1.4,1.3,1.8,1.6c0,0,1.5,0.1,2.5-0.7"/>
							<path class="st1" d="M104.1-12.2c0,0-1.4,1.3,1.8,1.6c0,0,1.5,0.1,2.5-0.7"/>
							<path class="st1" d="M104.1-10.8c0,0-1.4,1.3,1.8,1.6c0,0,1.5,0.1,2.5-0.7"/>
						</g>
						<line class="st1" x1="104.6" y1="-15.9" x2="104.8" y2="-9.4"/>
					</g>
					<g>
						<g>
							<path class="st1" d="M144-10.3c0,0-1.4,1.3,1.7,1.5c0,0,1.5,0.1,2.5-0.7"/>
							<path class="st1" d="M143.9-9c0,0-1.4,1.3,1.8,1.6c0,0,1.5,0.1,2.5-0.7"/>
							<path class="st1" d="M143.9-7.8c0,0-1.4,1.3,1.8,1.6c0,0,1.5,0.1,2.5-0.7"/>
							<path class="st1" d="M146.3-4.8c0.5-0.1,1.3-0.2,1.8-0.7"/>
							<path class="st1" d="M143.9-6.4"/>
							<path class="st1" d="M146.3-3.5c0.5-0.1,1.3-0.2,1.8-0.7c0,0,0.8-0.6,0.3-1.3"/>
						</g>
						<line class="st1" x1="144.3" y1="-10.1" x2="144.5" y2="-6.2"/>
						<line class="st1" x1="147.9" y1="-10.2" x2="148.1" y2="-3.3"/>
						<line class="st1" x1="108" y1="-16.1" x2="108.1" y2="-9.2"/>
					</g>
					<path class="st1" d="M148.7-4.9c0,0,1.1,1.7-0.6,2.4c-1.3,0.6-1.7,0.3-1.7,0.3"/>
					<polygon class="st1" points="91.6,-51.8 91.8,-52.2 94.1,-51.9 94.5,-51.3 94.5,-45.3 95.2,-44.5 95.3,-38.7 91.8,-39.2 					
						"/>
					<path class="st1" d="M95.3-57c0,0-0.1-2.3,0.6-2.5l3.3,0.6c0,0-0.6,1.5-0.4,2.7l-0.9-0.2"/>
					<path class="st1" d="M99-55.8c0,0,0.5,2.8-0.3,6.2L98-49.7"/>
					<polyline class="st1" points="98.8,-49.5 98.8,-47.5 97.9,-47.8 97.8,-49.1 					"/>
					<polyline class="st1" points="95.3,-44.7 95.8,-45.3 96,-44.7 96,-42.9 98.7,-47.3 					"/>
					<polyline class="st1" points="94.6,-45.4 94.9,-46.2 95.8,-45.3 					"/>
					<path class="st1" d="M93.4-52.3c0,0,0.6-5,2.7-5.1l1.1,0.2c0,0-1.5-0.2-2.7,7"/>
					<path class="st1" d="M97.4-47.7c0,0,2-7.8,0-9.4"/>
					<path class="st1" d="M146.5-1l3.2,0.5c0,0,1,0.2,1.3,0.6c0.4,0.4,2.3,2.2,2.3,2.2"/>
					<line class="st1" x1="159.5" y1="-15.6" x2="150.7" y2="-0.2"/>
					<path class="st1" d="M193.2-13.9c0,0,1.1-0.3,1.1,0.6l0.1,1.3"/>
					<line class="st1" x1="192.4" y1="-10.6" x2="194.2" y2="-13.5"/>
					<path class="st1" d="M193-9.5l6.4-11.4c0,0,0.2-0.6,0.9-0.4"/>
					<path class="st1" d="M194.5-13c0,0,0.1-1.3,0.4-1.7c0.3-0.4,3.4-6,3.4-6s0.4-0.7,0.4,0.2c0,0.9,0.1,0.8,0.1,0.8"/>
					<path class="st1" d="M193.8-13.9l0.1-0.5l3.7-6.3c0,0,0.6-0.4,0.8-0.1"/>
					<path class="st1" d="M205.4-25c0,0,1.3,0.2,0.5,1.8c-0.8,1.6-4.3,7.6-4.3,7.6"/>
					<path class="st1" d="M203.6-27.4l0.1-1.9c0,0,0.1-1.2,0.6-2.1c0.6-0.9,3.7-6.3,3.7-6.3"/>
					<path class="st1" d="M207-38.2c0,0,0.4-0.1,1.1,0.2l1.7-3c0,0-0.3-0.6-1.1-0.3"/>
					<line class="st1" x1="208.1" y1="-35.1" x2="208.1" y2="-38"/>
					<line class="st1" x1="209.8" y1="-38.3" x2="209.8" y2="-41"/>
					<path class="st1" d="M221.5-58.1c0,0,0.2-0.9-1-0.7l-4.1,7c0,0,0.8-0.8,1.3,0.1"/>
					<polygon class="st1" points="199,-47.8 201.1,-47.5 200.1,-45.7 197.9,-46 					"/>
					<path class="st1" d="M196.8-48.3c0,0-0.9,0.1-2.3,1.7c-1.3,1.5-3.4,6.1-3.4,6.1"/>
					<line class="st1" x1="187.8" y1="-49.1" x2="195.4" y2="-48"/>
					<polyline class="st1" points="187.4,-52.1 187.7,-43.7 185.9,-41.1 					"/>
					<line class="st1" x1="173.5" y1="-54.3" x2="173.5" y2="-52.2"/>
					<line class="st1" x1="172.8" y1="-50.8" x2="172.8" y2="-49.9"/>
					<polyline class="st1" points="165.6,-54.1 166.3,-55.5 165.6,-55.6 					"/>
					<polyline class="st1" points="186,-39.2 188.6,-38.7 188.8,-38.6 187.3,-36.3 187.1,-36.4 186.1,-36.1 					"/>
					<line class="st1" x1="183.6" y1="-39.5" x2="184.7" y2="-39.3"/>
					<line class="st1" x1="181.4" y1="-39.9" x2="182.3" y2="-39.6"/>
					<line class="st1" x1="179" y1="-40.2" x2="180" y2="-40"/>
					<line class="st1" x1="177.7" y1="-40.3" x2="176.9" y2="-40.5"/>
					<path class="st1" d="M186.1-37.2c0,0,0.8-0.2,1.4-0.4c0.6-0.2,0.6,0.3,0.6,0.3l0.1,3.5"/>
					<line class="st1" x1="187.3" y1="-36.1" x2="187.3" y2="-32.7"/>
					<polyline class="st1" points="188.3,-35.7 188.9,-36.8 188.9,-38.5 					"/>
					<polyline class="st1" points="195.4,-44.1 194.2,-44.3 191,-38.5 192.1,-38.3 					"/>
					<polyline class="st1" points="213.8,-49.6 214.4,-49.5 214.4,-46.3 					"/>
					<polyline class="st1" points="210.5,-48.3 209.9,-47.2 211.9,-46.8 212.2,-46.6 212.1,-45.8 212.8,-47 212.8,-48 					"/>
					<polyline class="st1" points="209.3,-47.5 209.1,-47 211.8,-46.6 212.1,-46 					"/>
					<polyline class="st1" points="209,-46.8 209,-46.1 211.9,-45.8 212.2,-45.6 209.7,-41.2 					"/>
					<line class="st1" x1="207.4" y1="-43.8" x2="209" y2="-46.5"/>
					<path class="st1" d="M207.7-43.7l2.2,0.4c0,0,0.4,0.1,0.4,0.9"/>
					<line class="st1" x1="211.7" y1="-45.7" x2="210.2" y2="-43"/>
					<path class="st1" d="M172.1,31.2c0,0-0.1-1.1-1.8-0.8l-1.8,3.2c0,0,0.1,0.4,0.7,0.4s0.8,0.6,0.8,0.6"/>
					<path class="st1" d="M169.8,29.1c0,0,0.4-0.1,0.2,1.4"/>
					<path class="st1" d="M131,23c0,0,1.4-2.5,1.7-2.9l-0.3-4.4"/>
					<polyline class="st1" points="148.8,10.6 149,19.3 147,22.9 					"/>
					<line class="st1" x1="75.6" y1="13.3" x2="75.6" y2="15"/>
					<path class="st1" d="M51.5,2"/>
					<path class="st1" d="M64.8-10.4c0,0-0.6-0.8-0.2-1.4c0.4-0.5,0.7-1.3,0.7-1.3s0.2-0.4,0.9-0.3c0.7,0.1,6.6,1,6.6,1"/>
					<line class="st1" x1="77.8" y1="-11.4" x2="78.2" y2="-12.3"/>
					<path class="st1" d="M78.1-11.6l6.6,0.9c0,0,0.9,0.1,0.9,0.9"/>
					<line class="st1" x1="80.1" y1="-12.2" x2="90.7" y2="-10.6"/>
					<polyline class="st1" points="95.3,-38.7 95.9,-39.5 95.8,-40.1 99.1,-45.9 99.1,-45.6 99.6,-46.3 99.5,-58.7 					"/>
					<polygon class="st1" points="96.2,-44.2 96,-47.2 97,-48.7 97.4,-47.6 97.6,-46.5 					"/>
					<polyline class="st1" points="92.7,-53.9 95.3,-58.2 95.3,-71.3 					"/>
					<polyline class="st1" points="82.7,-50.4 96.1,-72.7 96.1,-75.3 					"/>
					<path class="st1" d="M93.4-70.5l3.4-6.1v-2c0,0-0.4-0.9-1.4-0.4L92-72.4c0,0,0.9-0.4,1.2,0.5C93.6-71,93.4-70.5,93.4-70.5z"/>
					<path class="st1" d="M92.2-72.2l-0.6-0.1l-7.4,13.1c0,0-0.6,1-0.8,2.3c-0.3,1.3-1.9,14.2-1.9,14.2s-0.8,6.9-1.9,8.4
						s-11.3,21-11.3,21"/>
					<path class="st1" d="M95.2-67.6l0.4-0.1l5.4,0.8c0,0,1,0,0.8,1.2l-0.1,1.9"/>
					<path class="st1" d="M93.4-70.3c-1,0-0.8-0.6-0.8-0.6l-0.1-0.9l1,0.1"/>
					<line class="st1" x1="93.4" y1="-70.8" x2="92.5" y2="-71"/>
					<line class="st1" x1="109.3" y1="-63.3" x2="109.3" y2="-61.8"/>
					<line class="st1" x1="110" y1="-63.6" x2="110" y2="-62.7"/>
					<line class="st1" x1="117.9" y1="-62.7" x2="118" y2="-60.2"/>
					<line class="st1" x1="118.5" y1="-62.6" x2="118.6" y2="-61.5"/>
					<line class="st1" x1="126.4" y1="-61.2" x2="126.5" y2="-58.4"/>
					<line class="st1" x1="127" y1="-61.3" x2="127.2" y2="-59.6"/>
					<line class="st1" x1="130.1" y1="-66.6" x2="130.3" y2="-64.8"/>
					<polyline class="st1" points="203.3,-20 203.2,-20.8 200.9,-16.6 					"/>
					<path class="st1" d="M171.5-7.3l-1.6,3c0,0-0.1,0.6-1.1,0.4s-11.5-1.7-11.5-1.7s-0.6,0-0.5-0.6"/>
					<path class="st1" d="M166.6-1.6l0.1-0.8l0.2-0.6l3.2,0.5l0.6-0.6l0.1,0.8c0,0,0,0.6-1.1,0.4s-2.9-0.4-2.9-0.4"/>
					<line class="st1" x1="170.7" y1="-1" x2="170.7" y2="-1.8"/>
					<path class="st1" d="M155.4-1.3l-0.1-3.2l0.4-0.7l0.6,0.1v0.3c0,0-0.1,0.3,0.2,0.4c0.4,0.1,2.3,0.4,2.3,0.4l-0.5,0.6l-2.3-0.4
						c0,0-0.6-0.1-0.6-0.4"/>
					<path class="st1" d="M159.2-2.6"/>
					<line class="st1" x1="159.3" y1="-5" x2="158.2" y2="-3.2"/>
					<line class="st1" x1="157.4" y1="-5.6" x2="157.5" y2="-4.4"/>
					<path class="st1" d="M161.5-4"/>
					<path class="st1" d="M159.3-4.4c0.1-0.3,1.1-0.6,1.1-0.6c0.8-0.1,1.5-0.1,3.1,0.1c1,0.1,1.3,0.4,1.4,0.6c0.1,0.1,0,0.1,0,0.1
						s-0.1,0-0.1,0.1c-0.1,0.1-0.4,0.2-0.5,0.3c-0.3,0.1-1.6,0.2-3.3,0C159.3-3.9,159.3-4.4,159.3-4.4l-0.1,1.1c0,0,0.2,0.6,1.8,0.8
						c1.6,0.1,2.5,0.4,3.1,0l0.8-0.6l0.1-0.6"/>
					<g>
						<g id="LINE_7_">
							<polygon class="st5" points="160.5,-4.3 163.1,-3.9 163,-3.8 160.3,-4.2 							"/>
						</g>
					</g>
					<g>
						<g id="LINE_6_">
							<polygon class="st5" points="161.1,-4.7 163.8,-4.2 163.6,-4.2 160.9,-4.5 							"/>
						</g>
					</g>
					<path class="st1" d="M164.3-4.7c0,0,0,0,0-0.4s-0.3-0.6-0.8-0.8c-0.6-0.1-1.2,0.2-1.2,0.2L162.1-5"/>
					<polyline class="st1" points="166.7,-2.6 166.7,-3.9 166.6,-4.3 					"/>
					<path class="st1" d="M164.6-2.2"/>
					<polyline class="st1" points="164.5,-2.2 164.7,-2.5 165.2,-2.5 165.7,-3.5 165.2,-3.5 165.6,-4.1 166.7,-3.9 165.6,-1.8 					
						"/>
					<line class="st1" x1="158.8" y1="-11.7" x2="159.5" y2="-13"/>
					<line class="st1" x1="160.9" y1="-11.9" x2="161.8" y2="-13.4"/>
					<g>
						<path class="st2" d="M167.8,45.2h-0.6c0,0-0.7,0.8-0.4,2.5l0.6,0.1"/>
						
							<ellipse transform="matrix(0.1076 -0.9942 0.9942 0.1076 103.8357 208.8749)" class="st2" cx="168.3" cy="46.6" rx="2.6" ry="0.7"/>
						
							<ellipse transform="matrix(0.1076 -0.9942 0.9942 0.1076 104.2677 209.6288)" class="st2" cx="168.9" cy="46.7" rx="2.5" ry="0.6"/>
					</g>
					<polyline class="st1" points="73.1,-12.8 73.3,-13.1 72.9,-12.5 					"/>
					<path class="st1" d="M71.9-12.7l0.7-1.4c0,0,0.3-0.3,0.7-0.1"/>
					<polyline class="st1" points="79,-13.2 80,-13.1 80.1,-11.6 					"/>
					<line class="st1" x1="79.1" y1="-11.6" x2="80" y2="-13.1"/>
					<polyline class="st1" points="71.1,-13.9 71.2,-13.2 70.8,-12.7 					"/>
					<path class="st1" d="M78.4-12.7c0,0,0.9-1.1,0.6-3"/>
					<polyline class="st1" points="105.5,-33.6 106.2,-33.4 106.2,-33.1 94.4,-12.2 89.7,-12.9 83.9,-13.8 83.4,-13.9 83.2,-13.5 
						79.1,-14.2 					"/>
					<line class="st1" x1="116.4" y1="-39.8" x2="116.4" y2="-41.3"/>
					<line class="st1" x1="171.6" y1="-8.2" x2="172.2" y2="-9.2"/>
					<line class="st1" x1="156.2" y1="-36.2" x2="156.2" y2="-33.9"/>
					<path class="st1" d="M160.9-33.2c0,0,0.7-0.1,1-0.9v-2.1"/>
					<line class="st1" x1="94.6" y1="-12.6" x2="93.8" y2="-12.8"/>
				</g>
				<line class="st1" x1="79.1" y1="1" x2="103.1" y2="4.6"/>
				<g>
					<polyline class="st1" points="114.6,8.4 114.6,10.2 138.3,13.8 138.5,7.4 146.2,-5.9 					"/>
					<path class="st1" d="M114.5,8.6l-0.1-4.8l5.8-10.3l4.8,0.8l0.1,0.1l1.6-2.8l19.4,2.7c0,1.5,0.1,6.5,0.1,6.5L138.6,14"/>
				</g>
				<line class="st1" x1="114.4" y1="3.7" x2="138.4" y2="7.3"/>
				<polyline class="st1" points="184.9,9.4 185,4 179.1,3.1 180.5,0.6 156.6,-3 148.8,10.6 153.8,11.5 152.1,14.3 152.3,23.4 				
					"/>
				<polyline class="st1" points="152.5,14.5 176.2,17.7 176.2,20.1 				"/>
				<line class="st1" x1="185" y1="4" x2="176.2" y2="17.7"/>
				<polyline class="st1" points="144.9,-40.2 144.8,-45.4 150.9,-56.4 169.5,-53.4 167.9,-50.7 173.5,-49.9 173.5,-42.6 				"/>
				<polyline class="st1" points="144.8,-45.4 149.8,-44.7 148.5,-42.2 167.4,-39.5 167.5,-31.3 				"/>
				<line class="st1" x1="167.6" y1="-39.8" x2="173.5" y2="-49.9"/>
				<line class="st1" x1="148.6" y1="-41.9" x2="148.7" y2="-39.6"/>
				<polyline class="st1" points="132.3,-56.5 132.6,-50.1 135.6,-55 				"/>
				<polyline class="st1" points="110,-38.9 110.4,-39.4 110.4,-42.8 112.3,-46.2 110.5,-46.5 111.5,-48.2 107.8,-48.7 112.3,-56.5 
					130.6,-53.8 128.7,-50.5 134.4,-49.6 134.5,-45.8 136.6,-48.5 136.7,-46.8 133.6,-41.8 				"/>
				<line class="st1" x1="110.4" y1="-42.8" x2="116.3" y2="-41.8"/>
				<line class="st1" x1="136.6" y1="-48.5" x2="134.5" y2="-48.7"/>
			</g>
			<g>
				<path class="st6" d="M22.5-12.5"/>
			</g>
			<line class="st7" x1="55.8" y1="5.1" x2="55.8" y2="6"/>
		</g>
		<g id="Lid_Tilted_2_" class="st0">
			<g>
				<path class="st8" d="M44.4,14.6l64.8-100.1l109.3,9.2l0.1,1.3c0,0,1.3-0.2,1.2,1.5c-0.1,1.7,0,26.5,0,26.5l-49.1,79.8l-4-0.6
					L44.4,14.6z"/>
			</g>
			<g>
				<path class="st9" d="M124-83.9"/>
			</g>
		</g>
	</g>
	<g>
		<path class="st1" d="M27.9,58.8l1.2-0.9l0.9-1.8v-0.7l0.1-0.2v-1.3L30,53.7c0.1-0.8-0.4-1.3-0.4-1.3s-2.8-1.9-3.5-2
			c-0.7-0.1-1.1,1-1.1,1L11.3,75.4"/>
		<path class="st1" d="M29.3,57.4c0,0-0.1-2.2-0.1-2.7c0-0.6-0.5-1.1-0.5-1.1l-1.1-1.2l-1.3-0.6L12.9,75.6"/>
		<line class="st1" x1="17.9" y1="68.5" x2="18" y2="77"/>
		<path class="st1" d="M5.8,79.6l1.8-3.4c0,0,0.6-0.7,1.8-0.7s7.9-0.6,14,5.2c6.1,5.8,4.9,12.5,4.9,12.5s-1.1,4-2.5,5.8"/>
		<path class="st1" d="M5.6,85.6l-0.1-4.9c0,0-0.1-1.5,1.6-1.7s6.7-0.4,12.2,3.3s8.5,10.3,6.8,15.9c0,0-1.2,4.5-7.3,6.5l-4.4-0.2"/>
		<path class="st1" d="M6.6,101.5v1.2c0,0,0,0.9,1.2,1.1c1.1,0.1,4.8,0.7,4.8,0.7s3.2,0.4,5.9-0.8c2.7-1.1,4.9-2.5,6.1-6.3
			c1.3-3.7-0.3-10.6-7.3-14.7c0,0-2.5-1.5-3.9-1.6c0,0-4.9-0.8-5.5,3.7L8,89.5"/>
		<line class="st1" x1="10.4" y1="91.1" x2="15.6" y2="81.9"/>
		<path class="st1" d="M7.9,90c0,0,1.3-0.8,2.3,0.6l0.6,2.1l2.5-4.4c0,0-0.1-2.2-0.1-2.6c0-0.4-0.4-0.9-0.4-0.9
			c-0.8-1.1-1.8-0.4-1.8-0.4l-3.4,6.1"/>
		<path class="st1" d="M7.5,90.8l0.7,0.1c0,0,0.4-0.9,1.1-0.3l0.4,1.8c0,0-0.8,0.6-1.1,0.6c0,0,1.3,1,2-0.2"/>
		<line class="st1" x1="12.9" y1="88.9" x2="16.6" y2="82.4"/>
		<path class="st1" d="M7,87.6L7.3,86c0,0-0.1-1.1-1.4-0.6c0,0-1.5,1.3-1.9,5c0,0-0.2,1.6-0.3,2.4c-0.1,0.8,0.2,7.6,0.2,7.6
			s0.4,3.4,2.4,1.6"/>
		<path class="st1" d="M7.2,86.1c0,0-0.6,0.2-1.2,2s-0.8,4.6-0.8,6.1c0,1.4-0.2,7.6,0.8,7.7c0,0,1.2,0.3,2.3-5.6l0.5,3.8l0.5-0.8
			c0,0,0-2.9,0.8-4.3c0.1-0.1,0.2-0.3,0.4-0.4c0,0,0.7-0.4,0.7,1.4l0.5-0.7l0.1-2.7l5.6-9.8"/>
		<path class="st1" d="M10.9,96h-0.6c0,0-0.1-0.8-0.2-1.1"/>
		<line class="st1" x1="6.6" y1="102.7" x2="8.7" y2="99.9"/>
		<path class="st1" d="M8.9,99.9c0,0,0.6,0.4,0.9,0.4c0.4,0,6,0.7,6,0.7s5.4,0.2,8.6-3.4"/>
		<path class="st1" d="M28.7,58.3l-0.1,5.2L19.9,78"/>
		<path class="st1" d="M19.3,77.6l8.3-14.5"/>
		<path class="st1" d="M21.1,74.1c0,0,0.1-1.5,0.1-2.5l0.4-0.6l-0.1-8.8"/>
		<polyline class="st1" points="21.6,69.1 23.1,66.4 23,59.2 		"/>
		<line class="st1" x1="25.3" y1="55" x2="13.7" y2="75.6"/>
		<line class="st1" x1="24.1" y1="57.5" x2="24.3" y2="66.2"/>
		<path class="st1" d="M23.2,66.4c0,0,0.9,0.3,1.1-0.3l0.8-1.5l-0.2-8.9"/>
		<line class="st1" x1="25.3" y1="61.9" x2="26.6" y2="62.1"/>
		<path class="st1" d="M25.1,58.7l1.8,0.2L27,59l-0.3,0.4c0,0-0.2,0.5-0.1,0.9c0.1,0.4,0.1,2.2,0.1,2.2s0,0.4,0.2,0.4
			c0.2,0,0.6,0.1,0.6,0.1"/>
		<path class="st1" d="M25.8,55v2.1V58l1.5,0.1c0,0,0.6,0.4,0.6,0.7s-0.4,0.7-0.4,0.7s-0.2,0.6-0.1,0.8c0.1,0.3,0.1,2.3,0.1,2.3"/>
		<path class="st1" d="M27.2,53.7c0,0,1.1,2.5,0.2,4.7"/>
		<line class="st1" x1="10.3" y1="81.7" x2="10.4" y2="85.4"/>
		<line class="st1" x1="7.8" y1="91.1" x2="7.9" y2="96.3"/>
	</g>
	<g>
		<line x1="26.5" y1="49.3" x2="41.8" y2="24"/>
		<g>
			<line class="st10" x1="26.5" y1="49.3" x2="27.1" y2="48.4"/>
			<line class="st11" x1="28.2" y1="46.6" x2="40.7" y2="25.8"/>
			<line class="st10" x1="41.2" y1="24.9" x2="41.8" y2="24"/>
		</g>
	</g>
	<g>
		<line x1="28.6" y1="62.6" x2="41.8" y2="40.3"/>
		<g>
			<line class="st10" x1="28.6" y1="62.6" x2="29.2" y2="61.7"/>
			<line class="st12" x1="30.3" y1="59.9" x2="40.7" y2="42.1"/>
			<line class="st10" x1="41.3" y1="41.2" x2="41.8" y2="40.3"/>
		</g>
	</g>
	<g>
		<polygon class="st13" points="43.5,61.3 43.8,53.2 38,55.3 39.3,56.8 33.9,66 36.6,69 42.1,59.8 		"/>
		<polygon class="st13" points="31.8,65.4 31.5,73.5 37.3,71.4 36,69.9 41.4,60.8 38.6,57.8 33.2,66.9 		"/>
	</g>
</g>
</svg>
