<?xml version="1.0" encoding="utf-8"?>
<!-- Generator: Adobe Illustrator 26.0.3, SVG Export Plug-In . SVG Version: 6.00 Build 0)  -->
<svg version="1.1" xmlns="http://www.w3.org/2000/svg" xmlns:xlink="http://www.w3.org/1999/xlink" x="0px" y="0px"
	 viewBox="0 0 342 229.2" style="enable-background:new 0 0 342 229.2;" xml:space="preserve">
<style type="text/css">
	.st0{fill:none;stroke:#000000;stroke-width:0.5;stroke-linecap:round;stroke-linejoin:round;stroke-miterlimit:10;}
	.st1{fill:#FFFFFF;stroke:#000000;stroke-width:0.5;stroke-linecap:round;stroke-linejoin:round;stroke-miterlimit:10;}
	.st2{fill:#D0CFCD;}
	.st3{stroke:#000000;stroke-width:0.25;stroke-miterlimit:10;}
	.st4{fill:none;stroke:#EC008C;stroke-width:0.5;stroke-linecap:round;stroke-linejoin:round;stroke-miterlimit:10;}
	.st5{fill:#FFFFFF;stroke:#000000;stroke-width:0.75;stroke-linecap:round;stroke-linejoin:round;stroke-miterlimit:22.9256;}
	.st6{fill-rule:evenodd;clip-rule:evenodd;}
	
		.st7{fill-rule:evenodd;clip-rule:evenodd;fill:none;stroke:#000000;stroke-width:0.25;stroke-linejoin:bevel;stroke-miterlimit:22.9256;}
	
		.st8{fill-rule:evenodd;clip-rule:evenodd;fill:none;stroke:#D0CFCD;stroke-width:0.25;stroke-linejoin:bevel;stroke-miterlimit:22.9256;}
	
		.st9{fill-rule:evenodd;clip-rule:evenodd;fill:none;stroke:#D0CFCD;stroke-width:0.1222;stroke-linejoin:bevel;stroke-miterlimit:22.9256;}
	
		.st10{fill-rule:evenodd;clip-rule:evenodd;fill:none;stroke:#D0CFCD;stroke-width:0.1222;stroke-linecap:round;stroke-linejoin:round;stroke-miterlimit:22.9256;}
	
		.st11{fill-rule:evenodd;clip-rule:evenodd;fill:none;stroke:#000000;stroke-width:0.1222;stroke-linejoin:bevel;stroke-miterlimit:22.9256;}
	
		.st12{fill-rule:evenodd;clip-rule:evenodd;fill:none;stroke:#D0CFCD;stroke-width:0.25;stroke-linecap:round;stroke-linejoin:round;stroke-miterlimit:22.9256;}
	
		.st13{fill-rule:evenodd;clip-rule:evenodd;fill:none;stroke:#000000;stroke-width:0.25;stroke-linecap:round;stroke-linejoin:round;stroke-miterlimit:22.9256;}
	.st14{fill:none;stroke:#000000;stroke-width:0.25;stroke-linejoin:bevel;stroke-miterlimit:22.9256;}
	.st15{fill-rule:evenodd;clip-rule:evenodd;fill:none;stroke:#000000;stroke-width:0.1222;stroke-miterlimit:22.9256;}
	.st16{fill-rule:evenodd;clip-rule:evenodd;fill:none;stroke:#000000;stroke-width:0.25;stroke-miterlimit:22.9256;}
	
		.st17{fill-rule:evenodd;clip-rule:evenodd;fill:#D0CFCD;stroke:#000000;stroke-width:0.25;stroke-linecap:round;stroke-linejoin:round;stroke-miterlimit:22.9256;}
	.st18{fill-rule:evenodd;clip-rule:evenodd;fill:#D0CFCD;}
	.st19{fill-rule:evenodd;clip-rule:evenodd;fill:none;stroke:#D0CFCD;stroke-width:0.1222;stroke-miterlimit:22.9256;}
	.st20{fill:none;stroke:#D0CFCD;stroke-width:0.1222;stroke-linejoin:bevel;stroke-miterlimit:22.9256;}
	.st21{fill:none;stroke:#D0CFCD;stroke-width:0.25;stroke-linejoin:bevel;stroke-miterlimit:22.9256;}
	.st22{fill-rule:evenodd;clip-rule:evenodd;stroke:#FFFFFF;stroke-miterlimit:22.9256;}
	.st23{fill:#FFFFFF;stroke:#FFFFFF;stroke-width:0.5;}
	.st24{fill:#010101;}
	.st25{stroke:#FFFFFF;stroke-width:0.75;}
	.st26{fill:#231F20;stroke:#FFFFFF;stroke-width:1.5;stroke-miterlimit:10;}
	.st27{fill:none;}
	.st28{fill:#FFFFFF;}
	.st29{font-family:'ArialMT';}
	.st30{font-size:21px;}
	.st31{letter-spacing:-1;}
	.st32{fill-rule:evenodd;clip-rule:evenodd;stroke:#FFFFFF;stroke-miterlimit:10;}
	.st33{fill:none;stroke:#FFFFFF;stroke-width:3;stroke-linecap:round;stroke-linejoin:round;}
	.st34{stroke:#000000;stroke-width:0.5;stroke-linecap:round;stroke-linejoin:round;}
	.st35{fill-rule:evenodd;clip-rule:evenodd;stroke:#FFFFFF;stroke-width:0.25;stroke-miterlimit:22.9256;}
</style>
<g id="Layer_5">
	<g>
		<g>
			<polyline class="st0" points="150.3,166.5 149.8,155.4 151.6,150.8 143.8,150 149.8,133.9 176.9,136.3 175.6,141.5 183.8,142.4 
				183.2,148.1 183.2,148.6 178.5,169.9 143.1,165.8 			"/>
			<polyline class="st0" points="143.8,150 144.8,160.9 143.1,166 143.3,167.4 179.4,171.5 184.4,149.4 184.4,148.3 183.3,148.2 			
				"/>
			<line class="st0" x1="150.1" y1="161.3" x2="144.8" y2="160.9"/>
			<g>
				<g>
					<path class="st1" d="M147.3,161.7l-0.1,2.4c0,0.3-0.4,0.5-0.9,0.5s-0.9-0.3-0.8-0.5l0.1-2.4"/>
					
						<ellipse transform="matrix(3.352692e-02 -0.9994 0.9994 3.352692e-02 -19.9868 302.5809)" class="st1" cx="146.5" cy="161.6" rx="0.5" ry="0.9"/>
				</g>
				<g>
					<path class="st1" d="M148.4,159.7l0,1.1c0,0.6-0.9,1.1-1.9,1s-1.8-0.5-1.8-1.1l0-1.1"/>
					
						<ellipse transform="matrix(3.352692e-02 -0.9994 0.9994 3.352692e-02 -17.9779 300.7646)" class="st1" cx="146.5" cy="159.7" rx="1.1" ry="1.8"/>
				</g>
			</g>
		</g>
		<g>
			<polyline class="st0" points="159,134.7 158.7,128.8 160.3,124.4 153,123.7 158.6,110.1 183.9,112.4 182.8,117.2 189.4,118 
				188.9,123.4 188.9,123.8 184.4,142.2 184,142.2 			"/>
			<polyline class="st0" points="183.9,143.5 185.3,143.7 190,124.5 190,123.5 188.9,123.4 			"/>
			<line class="st0" x1="153" y1="123.7" x2="153.9" y2="133.9"/>
			<g>
				<g>
					<line class="st1" x1="153.8" y1="133.7" x2="153.9" y2="132.7"/>
					<line class="st1" x1="157.3" y1="132.8" x2="157.2" y2="134.4"/>
					
						<ellipse transform="matrix(3.352692e-02 -0.9994 0.9994 3.352692e-02 17.6615 283.8062)" class="st1" cx="155.6" cy="132.8" rx="1" ry="1.7"/>
				</g>
			</g>
		</g>
	</g>
	<g>
		<line class="st0" x1="189.3" y1="145.1" x2="186.8" y2="157.8"/>
		<line class="st0" x1="190.1" y1="140.8" x2="189.6" y2="143.4"/>
		<path class="st0" d="M196.6,121.7l-2.6-2.4c0,0-0.4-0.4-0.7-0.2l-0.3,1.2l-0.1,0.2l0,5.2l-2.5,13.1"/>
		<line class="st0" x1="198.9" y1="123.9" x2="197.5" y2="122.6"/>
		<line class="st0" x1="197.8" y1="124.7" x2="198.6" y2="125.5"/>
		<line class="st0" x1="195" y1="122" x2="196.4" y2="123.3"/>
		<path class="st0" d="M193,120.5c0.3-0.2,0.7,0.4,0.6,0.2l0.4,0.4"/>
		<path class="st0" d="M205.2,123.7l3.9-2.7c0,0,0.7-0.3,0.7,0.1c0,0.4,0.1,5.2,0.1,5.2"/>
		<path class="st0" d="M205.2,125.4l3.7-2.5c0,0,0.6-0.6,0.8,0"/>
		<polyline class="st0" points="195.5,120.3 195.5,116.5 195.9,115.5 		"/>
		<line class="st0" x1="194.5" y1="121.2" x2="194.8" y2="120.1"/>
		<line class="st0" x1="194.1" y1="123.5" x2="194.3" y2="122.3"/>
		<line class="st0" x1="193.6" y1="125.9" x2="193.8" y2="124.7"/>
		<line class="st0" x1="193" y1="128.2" x2="193.3" y2="127.1"/>
		<line class="st0" x1="192.6" y1="130.7" x2="192.8" y2="129.6"/>
		<line class="st0" x1="192.1" y1="133.2" x2="192.4" y2="132"/>
		<polyline class="st0" points="191.9,134.6 191.6,135.7 191.6,139.6 		"/>
		<polyline class="st0" points="191,140 190.7,141.2 190.7,144.4 		"/>
		<line class="st0" x1="197" y1="121.4" x2="197.3" y2="120.2"/>
		<line class="st0" x1="196.7" y1="123.7" x2="197" y2="122.6"/>
		<line class="st0" x1="196.3" y1="126.1" x2="196.5" y2="124.9"/>
		<line class="st0" x1="195.8" y1="128.5" x2="196" y2="127.4"/>
		<line class="st0" x1="195.4" y1="130.9" x2="195.6" y2="129.8"/>
		<line class="st0" x1="194.8" y1="133.4" x2="195.1" y2="132.3"/>
		<line class="st0" x1="191.4" y1="151.8" x2="191.6" y2="150.7"/>
		<line class="st0" x1="191.8" y1="149.3" x2="192.1" y2="148.1"/>
		<line class="st0" x1="194.2" y1="152.1" x2="194.4" y2="151"/>
		<line class="st0" x1="196.9" y1="152.4" x2="197.2" y2="151.3"/>
		<line class="st0" x1="199.7" y1="152.7" x2="200" y2="151.6"/>
		<line class="st0" x1="202.5" y1="153.1" x2="202.7" y2="151.9"/>
		<line class="st0" x1="203" y1="150.3" x2="203.2" y2="149.2"/>
		<line class="st0" x1="200.2" y1="150" x2="200.5" y2="148.8"/>
		<line class="st0" x1="197.4" y1="149.7" x2="197.7" y2="148.6"/>
		<line class="st0" x1="197.9" y1="147.1" x2="198.2" y2="145.9"/>
		<line class="st0" x1="198.3" y1="144.5" x2="198.6" y2="143.4"/>
		<line class="st0" x1="201" y1="144.8" x2="201.3" y2="143.6"/>
		<line class="st0" x1="200.7" y1="147.3" x2="201" y2="146.1"/>
		<line class="st0" x1="195.2" y1="146.8" x2="195.5" y2="145.6"/>
		<line class="st0" x1="195.5" y1="144.2" x2="195.8" y2="143"/>
		<line class="st0" x1="192.5" y1="146.1" x2="192.7" y2="145.3"/>
		<line class="st0" x1="194.7" y1="149.5" x2="195" y2="148.3"/>
		<polyline class="st0" points="194.6,134.8 194.4,135.9 194.3,141.9 		"/>
		<polyline class="st0" points="191,153.5 190.7,154.7 190.7,160.6 		"/>
		<polyline class="st0" points="193.9,153.9 193.6,155 193.6,161 		"/>
		<polyline class="st0" points="196.7,154.1 196.4,155.3 196.4,161.2 		"/>
		<polyline class="st0" points="199.6,154.3 199.3,155.5 199.3,161.4 		"/>
		<polyline class="st0" points="202.3,154.7 202.1,155.8 202.1,160.1 		"/>
		<polyline class="st0" points="188.3,153.1 188.1,154.3 188.1,159.3 		"/>
		<line class="st0" x1="199.7" y1="121.7" x2="200" y2="120.6"/>
		<line class="st0" x1="207.4" y1="122.3" x2="207.5" y2="121.2"/>
		<line class="st0" x1="207.1" y1="124.7" x2="207.2" y2="123.6"/>
		<line class="st0" x1="206.7" y1="127.1" x2="206.9" y2="126"/>
		<line class="st0" x1="206.3" y1="129.5" x2="206.5" y2="128.4"/>
		<line class="st0" x1="206" y1="132" x2="206.1" y2="130.9"/>
		<line class="st0" x1="205.6" y1="134.5" x2="205.7" y2="133.4"/>
		<polyline class="st0" points="205.3,135.9 205.1,137.1 205.1,141.1 		"/>
		<line class="st0" x1="199.2" y1="124" x2="199.5" y2="122.9"/>
		<line class="st0" x1="198.9" y1="126.3" x2="199.2" y2="125.2"/>
		<line class="st0" x1="198.4" y1="128.7" x2="198.7" y2="127.6"/>
		<line class="st0" x1="198" y1="131.2" x2="198.2" y2="130"/>
		<line class="st0" x1="197.5" y1="133.6" x2="197.8" y2="132.5"/>
		<polyline class="st0" points="197.3,135 197,136.1 197,142.3 		"/>
		<polyline class="st0" points="198,122.8 198,116.8 198.3,115.7 		"/>
		<polyline class="st0" points="200.6,123.1 200.6,117 200.8,116 		"/>
		<polyline class="st0" points="203.1,123.3 203.1,117.3 203.3,116.2 		"/>
		<polyline class="st0" points="205.5,123.2 205.6,117.5 205.8,116.4 		"/>
		<polyline class="st0" points="208,121.6 208,117.7 208.2,116.7 		"/>
		<path class="st0" d="M210.6,118"/>
		<path class="st0" d="M193,116.3"/>
		<line class="st0" x1="202.4" y1="120.7" x2="202.2" y2="122"/>
		<line class="st0" x1="205.1" y1="120.9" x2="204.8" y2="122.3"/>
		<line class="st0" x1="204.7" y1="123.3" x2="204.5" y2="124.7"/>
		<line class="st0" x1="204.3" y1="125.7" x2="204.1" y2="127"/>
		<line class="st0" x1="204" y1="128" x2="203.7" y2="129.4"/>
		<line class="st0" x1="203.5" y1="130.5" x2="203.2" y2="131.8"/>
		<line class="st0" x1="203.1" y1="133" x2="202.9" y2="134.3"/>
		<polyline class="st0" points="202.7,135.6 202.5,136.9 202.5,142.9 		"/>
		<line class="st0" x1="202.1" y1="123.1" x2="201.9" y2="124.4"/>
		<line class="st0" x1="201.7" y1="125.4" x2="201.5" y2="126.6"/>
		<line class="st0" x1="201.3" y1="127.9" x2="201.1" y2="129.1"/>
		<line class="st0" x1="200.9" y1="130.2" x2="200.6" y2="131.5"/>
		<line class="st0" x1="200.4" y1="132.7" x2="200.2" y2="133.9"/>
		<polyline class="st0" points="200,135.2 199.8,136.4 199.7,142.6 		"/>
		<path class="st0" d="M202.2,143.2l3.9-2.7c0,0,0.7-0.3,0.7,0.1s0.1,5.2,0.1,5.2"/>
		<path class="st0" d="M202.1,144.8l3.7-2.5c0,0,0.6-0.6,0.8,0"/>
		<path class="st0" d="M201.5,147.6l3.9-2.7c0,0,0.7-0.3,0.7,0.1s0.1,5.2,0.1,5.2"/>
		<path class="st0" d="M201.5,149.3l3.7-2.5c0,0,0.6-0.6,0.8,0"/>
		<path class="st0" d="M198,163l5.1-3.4c0,0,0.7-0.3,0.7,0.1c0,0.4,0,6.5,0,6.5"/>
		<path class="st0" d="M197.8,164.8l5-3.3c0,0,0.6-0.6,0.8,0"/>
		<g>
			<path class="st0" d="M195.2,143.4l-4.9-4.5c0,0-0.4-0.4-0.7-0.2l-0.3,1.2l-0.1,0.2l0,3.1"/>
			<path class="st0" d="M189.2,140.1c0.3-0.2,0.7,0.4,0.6,0.2l5.2,4.8"/>
		</g>
		<g>
			<path class="st0" d="M194.3,147.8l-4.9-4.5c0,0-0.4-0.4-0.7-0.2l-0.3,1.2l-0.1,0.2l0,5.2"/>
			<path class="st0" d="M188.3,144.5c0.3-0.2,0.7,0.4,0.6,0.2l5.2,4.8"/>
		</g>
		<g>
			<path class="st0" d="M191.4,162.3l-4.9-4.5c0,0-0.4-0.4-0.7-0.2l-0.3,1.2l-0.1,0.2l0,5.2"/>
			<path class="st0" d="M185.4,159c0.3-0.2,0.7,0.4,0.6,0.2l5.2,4.8"/>
		</g>
		<line class="st0" x1="203.4" y1="161.1" x2="202.2" y2="168.9"/>
		<line class="st0" x1="205.5" y1="146.6" x2="203.7" y2="159.3"/>
		<line class="st0" x1="206.3" y1="142.1" x2="205.8" y2="144.7"/>
		<line class="st0" x1="209.1" y1="124.8" x2="206.6" y2="140.3"/>
		<path class="st0" d="M186.5,159.7"/>
		
			<ellipse transform="matrix(6.178944e-02 -0.9981 0.9981 6.178944e-02 12.3984 352.8089)" class="st0" cx="193.9" cy="169.8" rx="1" ry="1.7"/>
		<path class="st0" d="M195.4,171.6c0.2,0.2,0.3,0.4,0.3,0.6c0,0.6-0.8,1-1.8,1c-1,0-1.8-0.6-1.8-1.2c0-0.2,0.1-0.4,0.3-0.6"/>
		<path class="st0" d="M192.2,169.7l0,1.1c0,0.5,0.7,1,1.6,1c0.9,0,1.7-0.4,1.7-0.9l0-1.1"/>
		<polyline class="st0" points="191.8,171.1 191,171.7 192.3,173.7 195.2,173.8 196.7,171.9 195.8,171.2 		"/>
		<polyline class="st0" points="191,171.8 191,173.8 192.3,175.4 195.2,175.6 196.7,174 196.8,172 		"/>
		<polyline class="st0" points="190.7,171.5 185.4,171 185.3,167.5 186.4,159.9 		"/>
		<polyline class="st0" points="185.3,167.5 191.4,168 191.6,166.6 196.5,167.1 196.4,168.6 202.3,169.1 202.2,172.6 196.9,172.1 		
			"/>
		<polyline class="st0" points="202.5,171.4 202.9,171.3 209.7,125.6 		"/>
	</g>
</g>
<g id="Layer_3">
	<polygon class="st2" points="134,154.2 132.5,147.2 154.1,88.7 155,102.8 137,157 135.5,154.7 	"/>
	<polygon class="st2" points="215,106.2 220,93.2 217.4,154.1 214.3,160.9 212.6,160.7 211.1,162.9 	"/>
</g>
<g id="Layer_1_copy">
	<g>
		<path class="st0" d="M131.1,159.4l-14.8,39.5l-2.5-0.4l-1.6-3.9l8.4-21.4l-1.4-6.2l0.6-1.4l-0.8-4.9l8.6-23.3c0,0,0.6-2.9,2.1,1.4
			l2.1-7l-0.6-1.6l0.2-1.9L155.1,66l1,1l0.2,1.2l1.2-3.5l-0.4-1.6v-2.9l18.3-44.6l52.9,2.1l1,1.9l-0.4,32.1l-1,1.2l-0.4,14.6l-0.8,1
			v1.8l0.6,1.4l-2.5,66.5l-0.6,0.8l-0.8,0.4l0.2,7l0.4,1.4l-0.4,27.4v5.8l-1.8,7.6l-0.4,23.9l-1,3.9l-3.3-0.4L223,70.5l1.8-6
			l-0.6-1.6l0.4-2.7l0.6-9"/>
		<line class="st0" x1="159.3" y1="84.3" x2="156.5" y2="91.9"/>
		<line class="st0" x1="165.4" y1="67.4" x2="164.6" y2="69.7"/>
		<line class="st0" x1="170.2" y1="54.4" x2="168.2" y2="59.8"/>
		<polygon class="st0" points="122,197 121.6,195.2 123,191.7 216,205.3 216.9,206.9 216.7,210.6 215.4,211 123.1,196.6 
			123.1,197.9 		"/>
		<polyline class="st0" points="116.7,199 115.5,202.3 115.4,202.5 116.2,208.2 120.8,209 		"/>
		<polyline class="st0" points="124.3,196.6 120.6,206.9 131.5,208.6 134.9,198.8 		"/>
		<polyline class="st0" points="138.7,199.1 135.6,209.4 147.3,211.4 150.6,200.9 		"/>
		<polyline class="st0" points="153.5,201.6 151,211.9 163.1,213.9 165.4,203.4 		"/>
		<polyline class="st0" points="120.6,206.9 121.8,212.1 132.7,214.1 131.5,208.6 		"/>
		<line class="st0" x1="132.7" y1="214.1" x2="137.7" y2="198.9"/>
		<polyline class="st0" points="135.6,209.2 136.6,214.7 148.1,216.7 147.3,211.4 		"/>
		<polyline class="st0" points="151,212.2 151.7,217.3 163.6,219.2 163.1,213.9 		"/>
		<g>
			<polyline class="st0" points="182.3,206 180.4,216.9 193.2,218.9 194.8,207.9 			"/>
			<polyline class="st0" points="180.4,216.9 180.1,222.3 192.6,224.6 193.2,219 			"/>
		</g>
		<g>
			<polyline class="st0" points="196,208.1 194.4,219.1 207.2,221.2 208.6,210 			"/>
			<polyline class="st0" points="194.3,219.1 193.7,224.6 206.6,226.9 207.2,221.1 			"/>
		</g>
		<line class="st0" x1="148.2" y1="216.5" x2="152.9" y2="201.4"/>
		<line class="st0" x1="163.6" y1="219.2" x2="167" y2="203.6"/>
		<g>
			<polyline class="st0" points="168.4,204 166,214.5 178.3,216.6 180.2,205.7 			"/>
			<polyline class="st0" points="166,214.5 166.3,219.7 178.5,221.9 178.3,216.8 			"/>
			<line class="st0" x1="178.5" y1="221.9" x2="181.2" y2="205.7"/>
		</g>
		<polyline class="st0" points="161.9,49.4 163.3,47.9 226.9,51.2 228,52.4 		"/>
		<g>
			<polygon class="st0" points="129.7,157.8 130,159.3 134.5,159.8 134.5,158.1 			"/>
			<polyline class="st0" points="129.6,157.8 131.8,154.1 135.8,154.6 134.5,158.1 			"/>
			<polyline class="st0" points="135.8,154.6 137,157.7 134.5,159.8 136.2,165.9 136.3,166.2 132.2,165.5 131,159.8 			"/>
			<polyline class="st0" points="136.4,158.4 137.4,162.7 136.4,166.2 			"/>
			<polygon class="st3" points="133.1,154.1 131.8,147.1 153.9,88.3 154.3,88.8 132.8,147 134,154.3 			"/>
			<polyline class="st0" points="137,156.9 155.3,103 154.3,88.8 			"/>
			<polyline class="st0" points="137.5,162.1 157.2,102.9 156.7,96 155.9,96.2 155.4,95.2 154.9,95.1 			"/>
			<polyline class="st0" points="154.6,91.8 156.7,91.8 157.6,93.3 156.7,96 			"/>
		</g>
		<g>
			<polygon class="st0" points="216.1,165.3 215.4,166.7 212,166.1 212.5,164.5 			"/>
			<polyline class="st0" points="216.1,165.3 215.7,161.2 212.7,160.8 212.5,164.5 			"/>
			<polyline class="st0" points="212.7,160.8 210.9,163.5 212,166.1 208.9,171.6 208.7,171.9 211.8,172.2 214.5,166.9 			"/>
			<polyline class="st0" points="211.1,164.4 209,168.3 208.6,171.5 			"/>
			<polygon class="st3" points="214.8,160.9 217.9,154.4 220.5,92.4 220.1,92.8 217.2,154.1 214,161 			"/>
			<polyline class="st0" points="211.1,162.7 214.9,106.3 220.1,92.8 			"/>
			<polyline class="st0" points="209.1,167.7 213.6,105.8 216.1,99.2 216.6,99.6 217.3,98.8 217.7,98.8 			"/>
			<polyline class="st0" points="218.9,95.7 217.4,95.2 216.3,96.4 216.1,99.2 			"/>
		</g>
		<polygon class="st0" points="224.5,54.5 166.9,51.8 165.8,53.9 224.7,56.9 		"/>
		<line class="st0" x1="121.8" y1="203.5" x2="115.4" y2="202.5"/>
		<polyline class="st0" points="214.7,210.9 213.9,218.4 213.5,223.7 211.9,226.1 206.8,225.2 		"/>
		<polyline class="st0" points="213.5,220.4 208.4,219.6 207.3,221.2 		"/>
		<polyline class="st0" points="217.1,216 216.6,218.6 215.3,218 215.2,219.9 213.9,220.5 		"/>
		<line class="st0" x1="183.5" y1="61.6" x2="181.5" y2="61.5"/>
		<polyline class="st0" points="224.1,64.1 213.6,63.4 200.3,62.6 		"/>
		<g>
			<g>
				<path class="st1" d="M176.1,82.6l0,3.7c0,0.5,0.8,0.9,1.7,0.9c0.9,0,1.7-0.4,1.7-0.9l-0.1-3.8"/>
			</g>
			<g>
				<ellipse class="st1" cx="177.8" cy="82.3" rx="1.7" ry="0.9"/>
			</g>
		</g>
		<g>
			<g>
				<path class="st1" d="M176.7,86.6l0,3.7c0,0.5,0.8,0.9,1.7,0.9s1.7-0.4,1.7-0.9l-0.1-3.8"/>
			</g>
			<g>
				<ellipse class="st1" cx="178.4" cy="86.3" rx="1.7" ry="0.9"/>
			</g>
		</g>
		<g>
			<g>
				<path class="st1" d="M212.9,74.9l-0.2,1.8c0,0.2,0.3,0.5,0.8,0.5c0.4,0,0.8-0.1,0.9-0.3l0.1-1.8"/>
			</g>
			<g>
				
					<ellipse transform="matrix(0.1063 -0.9943 0.9943 0.1063 116.6505 279.3375)" class="st1" cx="213.7" cy="74.8" rx="0.4" ry="0.8"/>
			</g>
		</g>
		<polyline class="st1" points="166.8,89.8 170.6,76.6 170.2,71.2 169.4,70.1 164.7,70 160.5,81.3 		"/>
		<polygon class="st1" points="159.8,90.1 159.5,83.3 160.1,82.2 160.5,81.3 165.5,81.4 166.5,82.7 166.7,89.8 168.1,89.9 
			168.2,96.6 159.3,96.1 158.8,95.3 158.8,90.4 		"/>
		<polyline class="st0" points="168.1,89.9 171.8,77.6 170.5,76.3 		"/>
		<polyline class="st0" points="168.3,96.4 172.2,82.8 171.8,77.6 		"/>
		<line class="st1" x1="165.5" y1="81.4" x2="169.4" y2="70.1"/>
		<line class="st1" x1="166.5" y1="82.7" x2="170.1" y2="71.5"/>
		<path class="st0" d="M179.5,60.6l-2.2,7.5l-12.5-0.8l2.8-7.5L179.5,60.6l0.6,0.6l1,0c0,0,0.6,0.4,0.8,0.8l0.2,3.7l-2.1,7.9
			l-8.4-0.5"/>
		<polyline class="st0" points="170.6,76.2 171.4,73.7 170.8,67.8 		"/>
		<path class="st0" d="M177.3,68.3l0.6,0.5l0.8,0c0,0,0.9,0.5,0.9,0.9l0.2,3.7"/>
		<line class="st0" x1="178.7" y1="68.6" x2="180.9" y2="61.2"/>
		<line class="st0" x1="179.5" y1="69.6" x2="181.8" y2="62"/>
		<ellipse class="st0" cx="203.9" cy="65.9" rx="1.3" ry="0.7"/>
		<polyline class="st0" points="213.4,63.5 214.2,56.2 214.5,53.9 		"/>
		<polyline class="st0" points="215.8,63.6 216.6,56.4 216.8,54.1 		"/>
		<polyline class="st0" points="217.6,63.8 218.5,56.6 218.7,54.1 		"/>
		<polyline class="st0" points="220,63.7 221,56.7 221.2,54.3 		"/>
		<polyline class="st0" points="176.5,60.2 176.5,54.5 177.3,52.3 		"/>
		<polyline class="st0" points="174.6,60.2 174.6,54.4 175.2,52.3 		"/>
		<polyline class="st0" points="172.6,60.2 172.6,54.1 173.4,52.1 		"/>
		<polyline class="st0" points="170.7,60 170.6,54.1 171.3,52.1 		"/>
		<polygon class="st0" points="200.3,62.6 183.5,61.7 184.3,59.4 200.5,60.3 		"/>
		<polyline class="st0" points="200.3,62.6 200.3,63.6 183.5,62.8 183.5,61.8 		"/>
		<polyline class="st0" points="206.6,63.3 205.2,73.1 189.8,72.1 189.1,75.4 171.4,74.2 		"/>
		<polyline class="st0" points="181.5,74.9 179.9,80.7 172,80.2 		"/>
		<path class="st4" d="M179.5,67.8"/>
		<polyline class="st0" points="177.5,74.6 177.3,75.3 171.1,74.9 		"/>
		<path class="st0" d="M177.3,75.4l0.6,0.5l0.8,0c0,0,0.9,0.5,0.9,0.9l0.2,3.7"/>
		<line class="st0" x1="178.7" y1="75.7" x2="179" y2="74.7"/>
		<line class="st0" x1="179.5" y1="76.8" x2="180.1" y2="74.8"/>
		<path class="st0" d="M205.2,73.1c0,0.4-0.6,0.7-1.3,0.7s-1.3-0.3-1.3-0.7"/>
		<line class="st0" x1="176.3" y1="81.7" x2="172.1" y2="81.4"/>
		<polyline class="st0" points="204.5,80.3 189.8,79.3 189.1,82.5 179.5,81.9 		"/>
		<polyline class="st0" points="204.5,80.4 206.2,81.6 220.9,82.3 222.4,82.8 		"/>
		<line class="st0" x1="200.3" y1="72.9" x2="199.1" y2="79.8"/>
		<ellipse class="st0" cx="208.7" cy="78.8" rx="1.3" ry="0.8"/>
		<path class="st0" d="M217.8,82l0.5-5.4l0.1-1.7c0,0-0.1-1.4-1.6-1.4s-9.6-0.5-9.6-0.5l-1.6-1.2"/>
		<ellipse class="st1" cx="209.2" cy="74.6" rx="1.3" ry="0.8"/>
		<line class="st1" x1="204.6" y1="80.2" x2="205.7" y2="72"/>
		<path class="st0" d="M151,95.9l-0.6-5.1c0,0-0.5-2,0.3-3.6c0.8-1.6,15.7-38.9,15.7-38.9"/>
	</g>
	<g>
		<polyline class="st1" points="171.2,46.8 170.8,52.7 105.5,176 104.5,177 104,171.9 102.1,170.9 100.7,171.2 99.4,175.4 
			1.7,150.5 		"/>
		<polygon class="st1" points="104.5,33.6 171.2,46.6 143.7,96.2 63.2,77.4 		"/>
		<polyline class="st0" points="2,146.2 62.6,80.3 144.2,99 171.2,49.4 		"/>
		<polyline class="st0" points="99.1,170.9 2,146.2 1.4,150.5 		"/>
		<path class="st0" d="M148.9,66.2l-2.6,3.9c0,0-1.3,2.2,2.4,3.2c0,0,3.2,1.2,5.2-1l2.3-3.8c0,0,1.1-2.7-2.9-3.6
			C153.3,65.1,150.4,64.4,148.9,66.2z"/>
		<g>
			<path class="st0" d="M149.4,66.9l-2.1,3.1c0,0-1,1.7,1.9,2.6c0,0,2.5,0.9,4.2-0.8l1.9-3c0,0,0.9-2.1-2.3-2.9
				C152.9,66,150.6,65.5,149.4,66.9z"/>
			
				<ellipse transform="matrix(0.1417 -0.9899 0.9899 0.1417 63.0323 209.098)" class="st0" cx="152.1" cy="68.2" rx="1.6" ry="2.6"/>
		</g>
		<path class="st0" d="M121,41.4l29.6,6.4c0,0,3.1,0.3,1.8,2.5c-1.3,2.2-22.2,35.5-22.2,35.5s-1.6,2.9-5.7,2S92,80.4,92,80.4
			s-4.2-0.5-1.5-3.5s27.8-34.2,27.8-34.2S119.5,41.1,121,41.4z"/>
		<ellipse transform="matrix(0.1417 -0.9899 0.9899 0.1417 29.3491 146.0381)" class="st0" cx="98.9" cy="56.1" rx="2.3" ry="3.8"/>
		
			<ellipse transform="matrix(0.1417 -0.9899 0.9899 0.1417 82.6585 204.8266)" class="st0" cx="159.4" cy="54.7" rx="0.9" ry="1.6"/>
		<polygon class="st0" points="147.1,76.6 145.2,75.9 145.1,74.7 146.9,74.1 148.8,74.8 148.9,76.1 		"/>
		<line class="st0" x1="143.9" y1="96.2" x2="144.2" y2="102.6"/>
		<line class="st0" x1="63.1" y1="77.5" x2="62.6" y2="80.3"/>
	</g>
</g>
<g id="Layer_2">
	<g>
		<g>
			<polyline class="st5" points="212.3,151.1 213.1,150.3 239,91.7 239,116.6 332.6,116.6 332.6,38.4 239,38.4 239,67.3 
				212.3,151.1 			"/>
		</g>
		<g>
			<path class="st6" d="M319.1,59.1c0-0.4,0-0.9,0-1.3l0-0.8c0.1-0.8,0.2-1.5,0.4-2.3l0.2-0.7c0.6-1.8,1.6-3.5,2.9-4.9l3,1.5
				l-1.7-5.5l-7.5,1l2.1,1c-1.3,1.4-2.9,2.8-3.5,4.6l-0.2,0.7c-0.2,0.7-0.3,1.5-0.4,2.3l0,0.8c0,0.4,0,0.9,0,1.3l0.1,0.9
				c0.1,0.3,0.1,0.7,0.2,1l4.6,2.2c-0.1-0.3-0.1-0.7-0.2-1L319.1,59.1z"/>
		</g>
		<g>
			<path class="st7" d="M269.2,101.7L269.2,101.7 M269.2,101.7L269.2,101.7"/>
			<path class="st7" d="M267.7,98.3L267.7,98.3 M267.7,98.3l0,1.6"/>
			<path class="st8" d="M267.8,97.8L267.8,97.8 M267.8,97.8L267.8,97.8"/>
			<path class="st7" d="M268.5,101.9L268.5,101.9 M268.5,101.9l-0.1,4"/>
			<path class="st7" d="M268.6,106.1L268.6,106.1 M268.6,106.4l0-0.3"/>
			<path class="st7" d="M269.2,101.7L269.2,101.7 M269.2,101.7l-0.1,2.8"/>
			<path class="st8" d="M270.5,93.7L270.5,93.7 M270.4,96.7l0.1-3"/>
			<path class="st8" d="M271.4,94.7L271.4,94.7 M271.3,98l0.1-3.2"/>
			<path class="st7" d="M271.5,102.5L271.5,102.5 M271.5,102.5l-0.1,2.9"/>
			<path class="st7" d="M271.7,99.5L271.7,99.5 M271.7,99.5l0,1.6"/>
			<path class="st8" d="M272,94.9L272,94.9 M272,94.9l-0.1,3"/>
			<path class="st7" d="M271.7,107.1L271.7,107.1 M271.7,107.1l0,0.3"/>
			<path class="st7" d="M272,103.1L272,103.1 M271.9,107.1l0.1-4"/>
			<path class="st7" d="M272.4,103.1L272.4,103.1 M272.4,103.1l-0.1,4"/>
			<path class="st8" d="M272.9,94.5L272.9,94.5 M272.8,97.5l0.1-3"/>
			<path class="st7" d="M273.2,98.6L273.2,98.6 M273.2,98.6l0,0.2"/>
			<path class="st8" d="M273.2,99.5L273.2,99.5 M273.2,99.5l-0.1,1.8"/>
			<path class="st9" d="M274.2,98.1L274.2,98.1 M274.2,98.1l0,0.2"/>
			<path class="st9" d="M274.6,95L274.6,95 M274.6,95l-0.2,7.5"/>
			<path class="st7" d="M267.7,99.9L267.7,99.9"/>
			<path class="st7" d="M267.6,100.1L267.6,100.1"/>
			<path class="st10" d="M313.1,60L313.1,60 M313,61.2l0-1.3"/>
			<path class="st9" d="M313.9,61.5L313.9,61.5 M313.6,69l0.2-7.5"/>
			<path class="st11" d="M313.8,67L313.8,67 M313.7,69.3l0.1-2.3"/>
			<path class="st11" d="M313.9,64.3L313.9,64.3 M313.9,64.5l0-0.2"/>
			<path class="st7" d="M314.9,64L314.9,64 M314.9,65.8l0.1-1.8"/>
			<path class="st7" d="M315.5,66.4L315.5,66.4 M315.4,70.4l0.1-4"/>
			<path class="st7" d="M315.5,66.3L315.5,66.3 M315.5,66.3l-0.1,4"/>
			<path class="st7" d="M316.6,61.3L316.6,61.3 M316.6,61.3l0,1.6"/>
			<path class="st7" d="M273.1,101.3L273.1,101.3 M273.1,101.3l-0.4,1"/>
			<path class="st7" d="M316.5,63.1L316.5,63.1 M316.5,63.1l-0.4,0.9"/>
			<path class="st8" d="M309.9,60.2L309.9,60.2 M270.5,93.7l39.3-33.5"/>
			<path class="st12" d="M312.4,59.8L312.4,59.8 M271.4,94.7l41.1-35"/>
			<path class="st8" d="M268.6,97.2L268.6,97.2"/>
			<path class="st7" d="M268,97.7L268,97.7 M268,97.7l-0.2,0.1"/>
			<path class="st12" d="M313.1,60L313.1,60 M313.1,60l-41.1,35"/>
			<path class="st7" d="M270.2,96.7L270.2,96.7 M270.2,96.7l-0.8,0.7"/>
			<path class="st8" d="M312.2,61L312.2,61 M272.9,94.5L312.2,61"/>
			<path class="st7" d="M267.7,100L267.7,100 M267.7,100L267.7,100"/>
			<path class="st7" d="M267.4,100.6L267.4,100.6"/>
			<path class="st7" d="M271.3,97.6L271.3,97.6 M271.3,97.6l-0.3,0.3"/>
			<path class="st8" d="M313.9,61.5L313.9,61.5 M313.9,61.5L274.6,95"/>
			<path class="st8" d="M272.5,97.4L272.5,97.4 M271.7,98.1l0.8-0.7"/>
			<path class="st7" d="M268.5,101.8L268.5,101.8 M268.5,101.8L268.5,101.8"/>
			<path class="st7" d="M272,99L272,99 M271.8,99.1L272,99"/>
			<path class="st7" d="M316.4,61.1L316.4,61.1 M314.1,63.9l2.3-2.8"/>
			<path class="st7" d="M269.1,102.2L269.1,102.2 M269.1,102.2L269.1,102.2"/>
			<path class="st7" d="M274.1,97.9L274.1,97.9 M273.2,98.7l0.9-0.8"/>
			<path class="st7" d="M314.9,64L314.9,64 M314.9,64l-0.7,0.6"/>
			<path class="st8" d="M273.9,98.9L273.9,98.9 M273.9,98.9l-0.7,0.6"/>
			<path class="st7" d="M268.4,104.2L268.4,104.2"/>
			<path class="st7" d="M271.7,102.8L271.7,102.8 M271.7,102.8l-0.2,0.2"/>
			<polyline class="st8" points="273,101.8 274,100.9 274,100.9 			"/>
			<path class="st7" d="M315,66L315,66 M313.8,67l1.2-1"/>
			<path class="st7" d="M272.7,102.3L272.7,102.3 M272.3,102.7l0.4-0.4"/>
			<path class="st7" d="M315.7,65.8L315.7,65.8 M315.2,66.1l0.4-0.4"/>
			<path class="st7" d="M272.5,103L272.5,103 M272.4,103.1L272.4,103.1"/>
			<path class="st7" d="M315.5,66.4L315.5,66.4 M315.5,66.4L315.5,66.4"/>
			<path class="st9" d="M313.6,69L313.6,69 M274.3,102.5L313.6,69"/>
			<path class="st11" d="M313.7,69.3L313.7,69.3 M313.7,69.3l-39.6,33.8"/>
			<path class="st7" d="M272,107.1L272,107.1 M272,107.1l-0.3,0.3"/>
			<path class="st7" d="M315.4,70.4L315.4,70.4 M272.3,107.1l43.1-36.7"/>
			<path class="st7" d="M268.9,101.6L268.9,101.6 M268.9,101.6l-0.4,0.2"/>
			<line class="st7" x1="267.7" y1="100" x2="268" y2="100.3"/>
			<line class="st7" x1="272" y1="101.6" x2="271.6" y2="101.3"/>
			<line class="st7" x1="315" y1="66" x2="315.5" y2="66.4"/>
			<line class="st7" x1="315.2" y1="66.1" x2="314.9" y2="65.8"/>
			<line class="st7" x1="271.7" y1="107.4" x2="268.6" y2="106.4"/>
			<line class="st7" x1="271.9" y1="107.1" x2="271.7" y2="107.1"/>
			<line class="st7" x1="268.6" y1="106.1" x2="268.5" y2="106"/>
			<line class="st7" x1="268.6" y1="102" x2="269.1" y2="102.2"/>
			<line class="st7" x1="271.5" y1="102.9" x2="272" y2="103.1"/>
			<line class="st7" x1="271.7" y1="102.8" x2="272.5" y2="103"/>
			<line class="st7" x1="272.3" y1="102.7" x2="271.5" y2="102.5"/>
			<line class="st7" x1="269.2" y1="101.7" x2="268.4" y2="101.4"/>
			<line class="st7" x1="267.6" y1="100.1" x2="267.6" y2="100.1"/>
			<line class="st8" x1="273" y1="101.8" x2="273" y2="101.8"/>
			<line class="st7" x1="271.7" y1="99.5" x2="267.7" y2="98.3"/>
			<line class="st7" x1="268" y1="97.7" x2="272" y2="99"/>
			<line class="st7" x1="269.2" y1="97.3" x2="273.2" y2="98.6"/>
			<line class="st7" x1="270.2" y1="96.6" x2="271.3" y2="97"/>
			<line class="st8" x1="272" y1="94.9" x2="271.4" y2="94.7"/>
			<line class="st8" x1="274.6" y1="95" x2="272.9" y2="94.5"/>
			<line class="st8" x1="272" y1="94.2" x2="270.5" y2="93.7"/>
			<line class="st7" x1="315.1" y1="66.1" x2="315.4" y2="66.2"/>
			<line class="st7" x1="315.1" y1="66.1" x2="315.2" y2="66.1"/>
			<line class="st7" x1="315" y1="66" x2="313.8" y2="65.6"/>
			<line class="st11" x1="314" y1="64.7" x2="313.8" y2="64.6"/>
			<line class="st9" x1="313.8" y1="64.5" x2="313.9" y2="64.5"/>
			<line class="st9" x1="313.9" y1="64.3" x2="313.8" y2="64.2"/>
			<line class="st11" x1="313.8" y1="63.8" x2="314.1" y2="63.9"/>
			<polyline class="st8" points="309.9,60.2 310.1,60.3 311.3,60.7 			"/>
			<line class="st9" x1="312.2" y1="61" x2="313.9" y2="61.5"/>
			<line class="st13" x1="316.4" y1="61.1" x2="313.1" y2="60"/>
			<line class="st13" x1="316.5" y1="61.1" x2="313.1" y2="60"/>
			<line class="st10" x1="312.4" y1="59.8" x2="313.1" y2="60"/>
			<path class="st11" d="M315.4,70.4C315.4,70.4,315.4,70.4,315.4,70.4C315.4,70.4,315.4,70.3,315.4,70.4"/>
			<path class="st7" d="M315.4,66.2C315.4,66.2,315.4,66.2,315.4,66.2c0.1,0.1,0.2,0.1,0.2,0.1"/>
			<path class="st7" d="M316.1,64c-0.1,0.3-0.2,0.6-0.3,0.9c-0.1,0.3-0.1,0.6-0.1,0.9"/>
			<path class="st11" d="M314.2,64.6C314.2,64.6,314.2,64.6,314.2,64.6c-0.1,0.1-0.1,0.1-0.2,0.1"/>
			<path class="st7" d="M316.5,62.8C316.5,62.9,316.5,62.9,316.5,62.8c0,0.1,0,0.2-0.1,0.2"/>
			<path class="st9" d="M274.2,97.9C274.2,97.9,274.2,97.9,274.2,97.9c0.1,0.1,0.1,0.1,0.1,0.2"/>
			<path class="st8" d="M272.6,97.4C272.6,97.4,272.6,97.4,272.6,97.4C272.6,97.4,272.5,97.4,272.6,97.4"/>
			<path class="st7" d="M270.2,96.6C270.2,96.6,270.2,96.6,270.2,96.6C270.2,96.6,270.2,96.7,270.2,96.6"/>
			<path class="st7" d="M316.5,61.1C316.5,61.1,316.5,61.1,316.5,61.1c0.1,0.1,0.1,0.1,0.1,0.2"/>
			<path class="st7" d="M268.3,105.9C268.3,105.9,268.3,105.9,268.3,105.9c0,0.1,0.1,0.1,0.2,0.1"/>
			<path class="st7" d="M268.5,101.9C268.5,101.8,268.5,101.8,268.5,101.9C268.5,101.8,268.5,101.8,268.5,101.9"/>
			<path class="st7" d="M271.9,107.1c0.1,0,0.2,0,0.2,0c0.1,0,0.1,0,0.2-0.1"/>
			<path class="st9" d="M274.2,98.3c0,0.1-0.1,0.2-0.1,0.4c0,0.1-0.1,0.2-0.2,0.2"/>
			<path class="st7" d="M268,100.3c0.1,0.1,0.2,0.3,0.2,0.4c0.1,0.2,0.1,0.5,0.1,0.7"/>
			<path class="st7" d="M267.9,97.9c-0.1,0-0.1,0.1-0.1,0.2c0,0.1,0,0.1-0.1,0.2"/>
			<path class="st7" d="M267.7,99.8C267.7,99.9,267.7,99.9,267.7,99.8c0,0.1,0,0.1,0,0.1"/>
			<path class="st7" d="M268.6,102C268.6,102,268.6,102,268.6,102c-0.1-0.1-0.2-0.1-0.2-0.1"/>
			<path class="st7" d="M272.4,103.1c0,0-0.1,0.1-0.2,0.1c-0.1,0-0.2,0-0.2,0"/>
			<path class="st11" d="M314,64.7C314,64.7,314,64.7,314,64.7c-0.1-0.1-0.1-0.1-0.1-0.2"/>
			<path class="st7" d="M315.5,66.3C315.5,66.3,315.5,66.4,315.5,66.3C315.5,66.4,315.5,66.4,315.5,66.3"/>
			<path class="st7" d="M271.7,99.5c0-0.1,0-0.2,0.1-0.2c0-0.1,0.1-0.1,0.1-0.2"/>
			<path class="st8" d="M274.1,97.9C274.1,97.9,274.1,97.9,274.1,97.9C274.1,97.9,274.2,97.9,274.1,97.9c0.1,0-1.4-0.5-1.4-0.5"/>
			<path class="st7" d="M272.3,102.7c0-0.2,0-0.5-0.1-0.7c0-0.2-0.1-0.3-0.2-0.4"/>
			<path class="st7" d="M271.6,101.3C271.6,101.3,271.6,101.2,271.6,101.3c0-0.1,0-0.1,0-0.1"/>
			<path class="st11" d="M313.9,64.3c0-0.1,0-0.2,0.1-0.2c0-0.1,0.1-0.1,0.1-0.2"/>
			<path class="st7" d="M316.4,61.1C316.4,61.1,316.4,61.1,316.4,61.1C316.5,61.1,316.5,61.1,316.4,61.1"/>
			<line class="st7" x1="269.1" y1="104.5" x2="271.4" y2="105.3"/>
			<path class="st14" d="M273.2,98.6L273.2,98.6 M273.2,98.6L272,99"/>
			<path class="st14" d="M269.2,97.3L269.2,97.3 M269.2,97.3l-1.2,0.4"/>
			<line class="st15" x1="274" y1="100.9" x2="274.1" y2="103.1"/>
			<polygon class="st16" points="272.9,94.5 274.6,95 313.9,61.5 313,61.2 312.2,61 			"/>
			<path class="st17" d="M272.9,94.5l1.7,0.5l39.3-33.5l-0.8-0.3l-0.8-0.3L272.9,94.5z"/>
			<polygon class="st16" points="274.6,95 274.3,102.5 313.6,69 313.8,65.6 313.8,64.6 313.8,64.5 313.8,64.2 313.8,63.8 
				313.9,61.7 			"/>
			<path class="st17" d="M274.6,95l-0.2,7.5L313.6,69l0.1-3.4l0-1l0-0.1l0-0.2l0-0.4l0.1-2.2L274.6,95z"/>
			<polygon class="st16" points="272,94.2 311.3,60.7 311.2,60.6 310.1,60.3 310.1,60.3 309.9,60.2 308.5,61.4 270.5,93.7 			"/>
			<path class="st17" d="M272,94.2l39.3-33.5l-0.1,0l-1-0.3l0,0l-0.3-0.1l-1.4,1.2l-37.9,32.3L272,94.2z"/>
			<polygon class="st16" points="271.4,94.7 271.3,97 271.3,97.6 271.3,98 271.7,98.1 271.9,97.9 272,94.9 			"/>
			<path class="st18" d="M271.4,94.7l-0.1,2.3l0,0.6l0,0.4l0.5,0.2l0.2-0.2l0.1-3L271.4,94.7z"/>
			<polygon class="st16" points="271.3,97 271.4,94.7 272,94.2 270.5,93.7 270.4,96.7 			"/>
			<path class="st18" d="M271.3,97l0.1-2.3l0.6-0.5l-1.5-0.5l-0.1,3L271.3,97z"/>
			<polygon class="st13" points="272,94.2 271.4,94.7 272,94.9 313.1,60 312.4,59.8 311.3,60.7 			"/>
			<path class="st17" d="M272,94.2l-0.6,0.5l0.7,0.2l41.1-35l-0.7-0.2l-1.1,0.9L272,94.2z"/>
			<path class="st13" d="M313.1,60l-41.1,35l-0.1,3l0.6-0.5c0,0,0,0,0.1,0c0,0,0,0,0,0l0.2,0.1l0.1-3L312.2,61l0.8,0.3L313.1,60
				L313.1,60L313.1,60z"/>
			<path class="st17" d="M313.1,60l-41.1,35l-0.1,3l0.6-0.5c0,0,0,0,0.1,0c0,0,0,0,0,0l0.2,0.1l0.1-3L312.2,61l0.8,0.3L313.1,60
				L313.1,60L313.1,60z"/>
			<line class="st19" x1="274.3" y1="102.5" x2="274.1" y2="102.2"/>
			<path class="st16" d="M274,100.9L274,100.9L274,100.9z M273,101.8l1-0.9l0,1.3l0.2,0.3l0.2-7.5l-1.7-0.5l-0.1,3
				c0.3,0.1,1.4,0.5,1.4,0.5l0,0c0,0,0,0.1,0,0.1l0,0.2c0,0.1-0.1,0.2-0.1,0.4c0,0.1-0.1,0.2-0.2,0.2l-0.7,0.6l-0.1,1.8L273,101.8
				L273,101.8z"/>
			<path class="st18" d="M274,100.9L274,100.9L274,100.9z M273,101.8l1-0.9l0,1.3l0.2,0.3l0.2-7.5l-1.7-0.5l-0.1,3
				c0.3,0.1,1.4,0.5,1.4,0.5l0,0c0,0,0,0.1,0,0.1l0,0.2c0,0.1-0.1,0.2-0.1,0.4c0,0.1-0.1,0.2-0.2,0.2l-0.7,0.6l-0.1,1.8L273,101.8
				L273,101.8z"/>
		</g>
		<g>
			<path class="st6" d="M259.3,103.5c1.6-0.3,3.7,0.3,5.5,0.9c-4.1-1.6-8.5-2.4-12.9-2.2c-0.5,0-1.3,0.3-1.3,0.3
				c-1.1,0.5-2.1,1.3-2.8,2.2l-3.4-0.7l2.8,5.9l10.7-3l-3.2-0.7c1-1.1,2.3-2,3.7-2.4C258.3,103.9,258.3,103.9,259.3,103.5z"/>
			<path class="st6" d="M266,105.1c0.7,0.5,1.3,1.1,1.8,1.8l0.4,0.7c0.2,0.4,0.4,0.8,0.6,1.1l-7-1.2c-0.1-0.4-0.3-0.8-0.4-1.1
				l-0.3-0.7c-0.4-0.6-0.8-1.2-1.4-1.7C259.6,104.1,261.6,103.8,266,105.1z"/>
		</g>
		<g>
			<path class="st18" d="M287.6,61v0.3l-0.9,0.4l-1.6,1.4l2.5-1.2v1l19.5-16.6l-0.8-0.3l-0.8-0.3L287.6,61z"/>
			<path class="st18" d="M287.6,60l17-14.4l-1.5-0.5l-17,14.5l1.5-0.7V60z"/>
			<path class="st18" d="M267.6,87.3l21.4-18.2l0.4-0.3l0.1-0.1L306,54.6l0.9-0.7l0.2-7.5L287.6,63v0.4l-1.1,0.5l-1.6,1.4l2.7-1.3v1
				l-5.3,2.6l-14.5,12.3L267.6,87.3z"/>
			<path class="st18" d="M267.6,87.3l0.2-7.5l-1.7-0.5l-0.2,7.5L267.6,87.3z"/>
			<path class="st18" d="M265.9,86.8l0.2-7.5l16-13.6v-0.3l-16.9,14.4l-0.3,9.8l24-20.4l0-0.1l-21.4,18.2L265.9,86.8z"/>
			<path class="st18" d="M265,89.6l0.3-9.8l-0.7-0.2l-0.2,6.7l-0.1,3.1L265,89.6z"/>
			<path class="st18" d="M265.2,79l16.9-14.4v-0.1l0.2-0.1l1.6-1.4l-1.8,0.9v-1l-18.3,15.6L265.2,79z"/>
			<path class="st18" d="M282.1,65.7l-16,13.6l1.7,0.5l14.5-12.3l-0.1,0.1v-1l2.8-1.4l1.6-1.4l-4.4,2.1V65.7z"/>
			<path class="st18" d="M264.4,86.3l0.2-6.7l0.6-0.5l-1.5-0.5l-0.2,7.5L264.4,86.3z"/>
			<path class="st18" d="M265.3,79.8l16.9-14.4v-0.8L265.2,79l-0.6,0.5L265.3,79.8z"/>
			<path class="st18" d="M287.6,60.8l18.7-15.9l-0.7-0.2l-1.1,0.9l-17,14.4V60.8z"/>
			<path class="st8" d="M263.8,78.6L263.8,78.6 M263.5,86l0.2-7.5"/>
			<path class="st8" d="M264.6,79.6L264.6,79.6 M264.3,89.4l0.3-9.8"/>
			<path class="st8" d="M265.3,79.8L265.3,79.8 M265.3,79.8l-0.3,9.8"/>
			<path class="st8" d="M266.1,79.3L266.1,79.3 M265.9,86.8l0.2-7.5"/>
			<path class="st8" d="M267.8,79.9L267.8,79.9 M267.8,79.9l-0.2,7.5"/>
			<line class="st8" x1="263.8" y1="78.6" x2="282.1" y2="62.9"/>
			<line class="st8" x1="264.6" y1="79.6" x2="283.9" y2="63.1"/>
			<line class="st9" x1="306.3" y1="44.8" x2="287.6" y2="60.8"/>
			<line class="st8" x1="266.1" y1="79.3" x2="282.1" y2="65.7"/>
			<line class="st8" x1="267.6" y1="87.3" x2="306.9" y2="53.8"/>
			<line class="st8" x1="265" y1="89.6" x2="288.9" y2="69.2"/>
			<line class="st8" x1="265.9" y1="86.8" x2="267.6" y2="87.3"/>
			<line class="st8" x1="264.4" y1="86.3" x2="263.5" y2="86"/>
			<line class="st8" x1="265.3" y1="79.8" x2="264.6" y2="79.6"/>
			<line class="st8" x1="267.8" y1="79.9" x2="266.1" y2="79.3"/>
			<line class="st8" x1="265.2" y1="79" x2="263.8" y2="78.6"/>
			<line class="st9" x1="303.1" y1="45.1" x2="304.6" y2="45.5"/>
			<path class="st20" d="M303.1,45.1L303.1,45.1 M286.1,59.6l17-14.5"/>
			<line class="st20" x1="287.6" y1="60" x2="305.6" y2="44.6"/>
			<line class="st20" x1="287.6" y1="61" x2="305.4" y2="45.8"/>
			<line class="st21" x1="282.1" y1="65.4" x2="265.3" y2="79.8"/>
			<line class="st21" x1="282.3" y1="67.5" x2="267.8" y2="79.9"/>
			<polygon class="st13" points="267.6,87.3 288.9,69.1 289.3,68.8 289.4,68.7 306,54.6 306.9,53.8 307.1,46.4 287.6,63 287.6,63.4 
				286.6,63.9 285,65.2 287.6,64 287.6,65 282.3,67.5 267.8,79.9 			"/>
			<polygon class="st16" points="267.6,87.3 267.8,79.9 266.1,79.3 265.9,86.8 			"/>
			<polygon class="st16" points="265.3,79.8 282.1,65.4 282.1,64.7 265.2,79 264.6,79.6 			"/>
			<path class="st18" d="M265.3,79.8l16.9-14.4v-0.8L265.2,79l-0.6,0.5L265.3,79.8z"/>
			<polygon class="st16" points="265.9,86.8 266.1,79.3 282.1,65.7 282.1,65.4 265.3,79.8 265,89.6 288.9,69.2 288.9,69.1 
				267.6,87.3 			"/>
			<path class="st18" d="M265.9,86.8l0.2-7.5l16-13.6v-0.3l-16.9,14.4l-0.3,9.8l24-20.4l0-0.1l-21.4,18.2L265.9,86.8z"/>
			<polygon class="st16" points="265.9,86.8 266.1,79.3 282.1,65.7 282.1,65.4 265.3,79.8 265,89.6 288.9,69.2 288.9,69.1 
				267.6,87.3 			"/>
			<polygon class="st16" points="265,89.6 265.3,79.8 264.6,79.6 264.4,86.3 264.3,89.4 			"/>
			<polygon class="st16" points="265.2,79 282.1,64.7 282.1,64.6 282.3,64.5 283.9,63.1 282.1,64 282.1,62.9 263.8,78.6 			"/>
			<polygon class="st16" points="282.1,65.7 266.1,79.3 267.8,79.9 282.3,67.5 282.1,67.6 282.1,66.6 285,65.2 286.6,63.9 282.1,66 
							"/>
			<polygon class="st16" points="264.4,86.3 264.6,79.6 265.2,79 263.8,78.6 263.5,86 			"/>
			<polygon class="st16" points="265.3,79.8 282.1,65.4 282.1,64.7 265.2,79 264.6,79.6 			"/>
			<polygon class="st13" points="287.6,61 287.6,61.3 286.7,61.8 285.1,63.1 287.6,61.9 287.6,63 307.1,46.4 306.3,46.1 305.4,45.8 
							"/>
			<polygon class="st15" points="305.4,45.8 306.3,46.1 306.3,44.8 287.6,60.8 287.6,61 			"/>
			<path class="st17" d="M305.4,45.8l0.8,0.3l0-1.3l-18.7,15.9V61L305.4,45.8z"/>
			<polygon class="st13" points="287.6,60.8 306.3,44.8 305.6,44.6 304.6,45.5 287.6,60 			"/>
			<polygon class="st13" points="287.6,60 304.6,45.5 303.1,45.1 286.1,59.6 287.6,58.8 			"/>
			<path class="st22" d="M282.1,67.3l5.5-2.6V54l2.7-1.3l-5.8-1.9l-5.2,7.1l2.8-1.3V67.3z"/>
			<polygon class="st6" points="282.1,66.6 282.1,67.6 287.6,65 287.6,64 			"/>
			<polygon class="st6" points="286.2,64 287.6,63.4 287.6,62.7 			"/>
		</g>
	</g>
	<g>
		<g>
			<polygon class="st23" points="44.3,107.5 29.4,112.4 28.3,101.8 32.2,103.1 37.7,97.2 46.5,100.4 40.8,106.3 			"/>
			<polygon class="st24" points="43.2,107.3 30.8,111.3 29.9,102.5 33.2,103.6 38.1,98.3 45.2,100.8 39.9,106.1 			"/>
		</g>
		<g>
			<polygon class="st23" points="40.9,89.6 55.8,84.7 56.9,95.4 53,94.1 47.5,99.9 38.7,96.7 44.3,90.8 			"/>
			<polygon class="st24" points="41.9,89.8 54.4,85.8 55.3,94.7 52,93.6 47.1,98.8 40.4,96.4 45.3,91 			"/>
		</g>
	</g>
	<path class="st25" d="M26.4,125c-2.8-14.9-12.6-14.4-12.6-14.4l-4.6,2l2.1-7.3l13.5-1l-3.8,2.1c0,0,10,4.8,7.6,17.5L26.4,125z"/>
	<g>
		<g>
			<path class="st26" d="M281.1,42.9c0,7.6-6.2,13.7-13.9,13.7c-7.7,0-14-6.2-14-13.7c0-7.6,6.2-13.8,14-13.8
				C274.9,29.2,281.1,35.3,281.1,42.9"/>
		</g>
		<rect x="254" y="34.7" class="st27" width="27.2" height="24.8"/>
		<text transform="matrix(1 0 0 1 261.7263 49.7306)" class="st28 st29 st30 st31">2</text>
	</g>
	<path class="st32" d="M147.9,57.9l-4.5-1.4l8.7,9.9l7.5-5.7l-4-1l-1.1-14.5l-7.8-1.6L147.9,57.9z"/>
	<g>
		<line class="st33" x1="135.3" y1="33.4" x2="145.2" y2="67.6"/>
		<line class="st34" x1="135.3" y1="33.4" x2="145.2" y2="67.6"/>
	</g>
	<g>
		<g>
			<path class="st26" d="M144.2,21.3c0,7.6-6.2,13.7-13.9,13.7c-7.7,0-14-6.2-14-13.7c0-7.6,6.2-13.8,14-13.8
				C138,7.5,144.2,13.7,144.2,21.3"/>
		</g>
		<rect x="116.3" y="13" class="st27" width="27.2" height="24.8"/>
		<text transform="matrix(1 0 0 1 124.0962 28.065)" class="st28 st29 st30 st31">1</text>
	</g>
	<path class="st35" d="M282.1,67.6l5.5-2.6V54l2.7-1.3l-5.8-2.4l-5.2,7.6l2.8-1.3V67.6z"/>
</g>
</svg>
