<?xml version="1.0" encoding="utf-8"?>
<!-- Generator: Adobe Illustrator 19.1.0, SVG Export Plug-In . SVG Version: 6.00 Build 0)  -->
<svg version="1.1" xmlns="http://www.w3.org/2000/svg" xmlns:xlink="http://www.w3.org/1999/xlink" x="0px" y="0px" width="338px"
	 height="327.8px" viewBox="0 0 338 327.8" style="enable-background:new 0 0 338 327.8;" xml:space="preserve">
<style type="text/css">
	.st0{fill:none;stroke:#000000;stroke-width:0.5;stroke-miterlimit:10;}
	.st1{fill:none;}
	.st2{fill:#FFFFFF;stroke:#010101;stroke-width:0.5;stroke-miterlimit:10;}
	.st3{fill:#FFFFFF;stroke:#000000;stroke-width:0.5;stroke-miterlimit:10;}
	.st4{clip-path:url(#SVGID_2_);}
	.st5{fill:none;stroke:#000000;stroke-width:0.6;stroke-miterlimit:10;}
	.st6{fill:none;stroke:#000000;stroke-width:1.8;stroke-miterlimit:10;}
	.st7{fill:none;stroke:#000000;stroke-width:0.6;stroke-linecap:round;stroke-linejoin:round;stroke-miterlimit:10;}
	.st8{fill:none;stroke:#000000;stroke-width:3;stroke-linecap:round;stroke-linejoin:round;stroke-miterlimit:10;}
</style>
<g id="Layer_2">
	<g>
		<polygon class="st0" points="0.2,41 28.2,53.7 28.2,298.4 0.2,287.2 		"/>
		<polygon class="st0" points="28.2,53.9 58.5,66.6 58.4,327.4 28.2,314.7 		"/>
		<path class="st0" d="M14,42.7c-1.6-0.7-1.4-1.7-0.6-2.1c3.9-1.8,14.6-5.6,12.7-5.1c-0.7,0.2,1.7-1,4.2,0
			c2.5,1,41.2,17.6,42.1,17.9c0.9,0.3,4.4,2,0.9,3.7c-4.2,2-9,4.8-11.7,5.3c-1.1,0.2-1,0.4-4.8-1.2C51.1,58.9,14,42.7,14,42.7z"/>
		<path class="st0" d="M112.3,0.3C111.1,0,110,1.4,110,1.4l57.8,24.4c0,0,2.1,0,2.2-0.6C170.1,24.6,141.3,8.6,112.3,0.3z"/>
		<path class="st0" d="M110,1.4V3l55.3,23.6l2.5-0.6C167.8,26,110.8,1.1,110,1.4z"/>
		<path class="st0" d="M110,3C110,3,5.5,40.8,4.5,41.3"/>
		<polyline class="st0" points="160.4,25.8 110,4.4 9.2,41.5 		"/>
		<path class="st0" d="M0.2,41c0,0,4-0.2,4.3,0c0.3,0.2,46.6,21.5,53.7,22.9l2.5,2.3"/>
		<path class="st0" d="M160.8,25.8c-2.1,1-98.7,36.1-101.3,38.1"/>
		<path class="st0" d="M163.3,26.6c-2.7,0.9-101,37.2-102.6,37.6"/>
		<path class="st0" d="M165.3,26.6c0,0.7-0.4,1.2-0.8,1.5c-0.4,0.3-2.1,0.9-2.1,0.9S63.7,65.3,61.7,66.1v3.3l103.5-38.9V26.6z"/>
		<polyline class="st0" points="167.9,26 171,24.5 171,286.3 167.9,287.2 		"/>
		<line class="st0" x1="60.1" y1="66.1" x2="58.5" y2="66.6"/>
		<line class="st0" x1="58.4" y1="327.4" x2="59.7" y2="326.8"/>
		<polyline class="st0" points="61.7,71.5 63.8,71.5 63.6,306.3 		"/>
		<line class="st0" x1="61.7" y1="69.4" x2="61.7" y2="71.5"/>
		<line class="st0" x1="61.7" y1="71.5" x2="165.3" y2="32.9"/>
		<line class="st0" x1="165.3" y1="32.9" x2="165.3" y2="30.5"/>
		<line class="st0" x1="164.8" y1="286.1" x2="167.9" y2="287.2"/>
		<polygon class="st0" points="63.6,304.5 89.4,294.9 104.3,289.3 108.7,287.7 160.4,268.5 160.4,270.4 108.9,289.5 89.5,296.7 
			63.6,306.3 		"/>
		<polyline class="st0" points="59.7,326.4 164.8,286.1 164.8,283.3 164.8,33.1 		"/>
		<line class="st0" x1="58.7" y1="324.4" x2="164.8" y2="283.3"/>
		<polyline class="st0" points="160.4,270.4 160.4,281 58.9,318.7 		"/>
		<line class="st0" x1="145.2" y1="276.1" x2="145.2" y2="286.6"/>
		<polyline class="st0" points="4.2,288.8 4.2,298.8 5,299.2 28.2,309.6 		"/>
		<polyline class="st0" points="5,299.3 5,302.2 28.2,312.4 		"/>
		<polyline class="st0" points="4.2,298.8 9.2,297.6 9.2,290.8 		"/>
		<line class="st0" x1="9.2" y1="297.6" x2="28.2" y2="305.7"/>
		<line class="st0" x1="9.2" y1="297.6" x2="20.1" y2="295.2"/>
		<line class="st0" x1="93.6" y1="59.6" x2="92.9" y2="293.6"/>
		<line class="st0" x1="92.3" y1="60.1" x2="91.7" y2="294"/>
		<line class="st0" x1="91.6" y1="60.3" x2="90.9" y2="294.3"/>
		<line class="st0" x1="90" y1="61" x2="89.3" y2="294.9"/>
		<line class="st0" x1="104.9" y1="55.4" x2="104.2" y2="289.4"/>
		<path class="st0" d="M104.6,289"/>
		<line class="st0" x1="109.4" y1="53.8" x2="108.7" y2="287.7"/>
		<line class="st0" x1="145.5" y1="40.2" x2="144.8" y2="274.2"/>
		<line class="st0" x1="149.6" y1="38.6" x2="148.9" y2="272.5"/>
		<line class="st0" x1="156.7" y1="36" x2="156.1" y2="269.9"/>
		<polyline class="st0" points="63.6,271.4 68.2,269.7 71.7,272.2 63.6,275.3 		"/>
		<line class="st0" x1="71.7" y1="272.2" x2="71.7" y2="293.4"/>
		<line class="st0" x1="71.7" y1="293.4" x2="63.8" y2="296.5"/>
		<path class="st0" d="M63.6,272.7c0,0,0.4,0.8,1.1,1c0.7,0.2,3.2-1.1,3.4-1.2c0.3-0.3-1-1.2-1.3-1.5c0,0,0-0.4,0.3-0.4"/>
		<path class="st0" d="M66.6,270.3c0,0,1.1,0.9,1.3,1.1c0.2,0.1,1.4-0.4,1.5-0.5c0.1-0.1-1.3-1.1-1.4-1.1"/>
		<path class="st0" d="M68.4,269.8c0.1-0.2,0.1-0.3,0.2-0.2c0.1,0,2.4,1.7,2.4,1.7s0.3,0.3,0.2,0.5"/>
		<path class="st0" d="M66.6,272.5c0-0.1-0.1-0.1-0.2-0.1l-0.5,0.2c-0.1,0-0.1,0.2-0.1,0.2l0,0c0,0.1,0.1,0.1,0.2,0.1l0.5-0.2
			C66.6,272.7,66.6,272.5,66.6,272.5L66.6,272.5z"/>
		<line class="st0" x1="65.8" y1="272.8" x2="65.8" y2="273.6"/>
		<line class="st0" x1="66.5" y1="272.8" x2="66.5" y2="273.4"/>
		<ellipse transform="matrix(0.944 -0.3298 0.3298 0.944 -86.5818 37.2516)" class="st0" cx="66.5" cy="273.8" rx="0.3" ry="0.1"/>
		
			<ellipse transform="matrix(0.9438 -0.3304 0.3304 0.9438 -85.6097 37.7474)" class="st0" cx="68.2" cy="270.7" rx="0.3" ry="0.1"/>
		<ellipse class="st0" cx="65.9" cy="278.6" rx="0.4" ry="0.5"/>
		<ellipse class="st0" cx="67.3" cy="278" rx="0.4" ry="0.5"/>
		<ellipse class="st0" cx="68.8" cy="277.5" rx="0.4" ry="0.5"/>
		<ellipse class="st0" cx="70.1" cy="277" rx="0.4" ry="0.5"/>
		<ellipse class="st0" cx="65.9" cy="280.1" rx="0.4" ry="0.5"/>
		<ellipse class="st0" cx="67.3" cy="279.5" rx="0.4" ry="0.5"/>
		<ellipse class="st0" cx="68.8" cy="279" rx="0.4" ry="0.5"/>
		<ellipse class="st0" cx="70.1" cy="278.5" rx="0.4" ry="0.5"/>
		<ellipse class="st0" cx="65.9" cy="281.8" rx="0.4" ry="0.5"/>
		<ellipse class="st0" cx="67.3" cy="281.2" rx="0.4" ry="0.5"/>
		<ellipse class="st0" cx="68.8" cy="280.7" rx="0.4" ry="0.5"/>
		<ellipse class="st0" cx="70.1" cy="280.2" rx="0.4" ry="0.5"/>
		<ellipse class="st0" cx="65.9" cy="283.3" rx="0.4" ry="0.5"/>
		<ellipse class="st0" cx="67.3" cy="282.7" rx="0.4" ry="0.5"/>
		<ellipse class="st0" cx="68.8" cy="282.2" rx="0.4" ry="0.5"/>
		<ellipse class="st0" cx="70.1" cy="281.7" rx="0.4" ry="0.5"/>
		<ellipse class="st0" cx="65.9" cy="285" rx="0.4" ry="0.5"/>
		<ellipse class="st0" cx="67.3" cy="284.4" rx="0.4" ry="0.5"/>
		<ellipse class="st0" cx="68.8" cy="283.8" rx="0.4" ry="0.5"/>
		<ellipse class="st0" cx="70.1" cy="283.3" rx="0.4" ry="0.5"/>
		<ellipse class="st0" cx="65.9" cy="286.5" rx="0.4" ry="0.5"/>
		<ellipse class="st0" cx="67.3" cy="285.9" rx="0.4" ry="0.5"/>
		<ellipse class="st0" cx="68.8" cy="285.3" rx="0.4" ry="0.5"/>
		<ellipse class="st0" cx="70.1" cy="284.8" rx="0.4" ry="0.5"/>
		<ellipse class="st0" cx="65.9" cy="288.1" rx="0.4" ry="0.5"/>
		<ellipse class="st0" cx="67.3" cy="287.6" rx="0.4" ry="0.5"/>
		<ellipse class="st0" cx="68.8" cy="287" rx="0.4" ry="0.5"/>
		<ellipse class="st0" cx="70.1" cy="286.5" rx="0.4" ry="0.5"/>
		<ellipse class="st0" cx="65.9" cy="289.7" rx="0.4" ry="0.5"/>
		<ellipse class="st0" cx="67.3" cy="289.1" rx="0.4" ry="0.5"/>
		<ellipse class="st0" cx="68.8" cy="288.5" rx="0.4" ry="0.5"/>
		<ellipse class="st0" cx="70.1" cy="288" rx="0.4" ry="0.5"/>
		<ellipse class="st0" cx="65.9" cy="291.3" rx="0.4" ry="0.5"/>
		<ellipse class="st0" cx="67.4" cy="290.7" rx="0.4" ry="0.5"/>
		<ellipse class="st0" cx="68.8" cy="290.2" rx="0.4" ry="0.5"/>
		<ellipse class="st0" cx="70.1" cy="289.7" rx="0.4" ry="0.5"/>
		<polygon class="st0" points="3.9,275.8 10,278.5 10,286.2 3.9,283.7 		"/>
		<polygon class="st0" points="3.1,194.7 7.2,196.5 7.2,201.7 3.1,200 		"/>
		<polygon class="st0" points="20.9,283 27,285.8 27,293.5 20.9,290.9 		"/>
		<polygon class="st0" points="1.1,277.4 2.9,278.3 2.9,285.9 1.1,285.1 		"/>
		<polygon class="st0" points="55.6,301.4 57.4,302.3 57.4,309.9 55.6,309.2 		"/>
		<ellipse class="st0" cx="6.5" cy="286.7" rx="0.3" ry="0.6"/>
		<polygon class="st0" points="29,295.2 29,300.1 31.9,301.4 31.9,296.4 		"/>
		<polygon class="st0" points="29,307.5 31.4,308.7 31.4,312 29,311 		"/>
		<path class="st0" d="M36.9,190.6c0,1-0.6,1.9-1.4,1.9l-4.6-2.8c-0.8,0-1.4-0.8-1.4-1.9V182c0-1,0.6-1.9,1.4-1.9l4.6,2.8
			c0.8,0,1.4,0.8,1.4,1.9V190.6z"/>
		<polygon class="st0" points="4.5,50 8.6,51.8 8.6,57 4.5,55.3 		"/>
		<polygon class="st0" points="24.9,55.6 31.9,58.6 31.9,61.4 24.9,58.5 		"/>
		<polygon class="st0" points="106.4,71.1 107.7,71.7 107.7,73.2 106.4,72.7 		"/>
		<polygon class="st0" points="106.4,74.6 107.7,75.2 107.7,76.7 106.4,76.2 		"/>
		<polygon class="st0" points="106.4,77.9 107.7,78.5 107.7,80 106.4,79.5 		"/>
		<polygon class="st0" points="106.4,81.3 107.7,81.9 107.7,83.4 106.4,82.9 		"/>
		<polygon class="st0" points="106.4,84.8 107.7,85.4 107.7,86.9 106.4,86.4 		"/>
		<polygon class="st0" points="106.4,88.1 107.7,88.7 107.7,90.2 106.4,89.7 		"/>
		<polygon class="st0" points="106.4,91.3 107.7,91.9 107.7,93.4 106.4,92.9 		"/>
		<polygon class="st0" points="106.4,94.8 107.7,95.4 107.7,96.9 106.4,96.4 		"/>
		<polygon class="st0" points="106.4,98.1 107.7,98.7 107.7,100.2 106.4,99.7 		"/>
		<polygon class="st0" points="106.4,101.4 107.7,102.1 107.7,103.6 106.4,103.1 		"/>
		<polygon class="st0" points="106.4,105 107.7,105.6 107.7,107.1 106.4,106.6 		"/>
		<polygon class="st0" points="106.4,108.3 107.7,108.9 107.7,110.4 106.4,109.9 		"/>
		<polygon class="st0" points="106.4,111.3 107.7,111.9 107.7,113.4 106.4,112.9 		"/>
		<polygon class="st0" points="106.4,114.9 107.7,115.5 107.7,117 106.4,116.5 		"/>
		<polygon class="st0" points="106.4,118.2 107.7,118.8 107.7,120.3 106.4,119.8 		"/>
		<polygon class="st0" points="106.4,121.5 107.7,122.1 107.7,123.6 106.4,123.1 		"/>
		<polygon class="st0" points="106.4,125.1 107.7,125.7 107.7,127.2 106.4,126.7 		"/>
		<polygon class="st0" points="106.4,128.4 107.7,129 107.7,130.5 106.4,130 		"/>
		<polygon class="st0" points="106.4,131.5 107.7,132.1 107.7,133.6 106.4,133.1 		"/>
		<polygon class="st0" points="106.4,135.1 107.7,135.7 107.7,137.2 106.4,136.7 		"/>
		<polygon class="st0" points="106.4,138.4 107.7,139 107.7,140.5 106.4,140 		"/>
		<polygon class="st0" points="106.4,141.7 107.7,142.3 107.7,143.8 106.4,143.3 		"/>
		<polygon class="st0" points="106.4,145.3 107.7,145.9 107.7,147.4 106.4,146.9 		"/>
		<polygon class="st0" points="106.4,148.6 107.7,149.2 107.7,150.7 106.4,150.2 		"/>
		<polygon class="st0" points="106.4,151.4 107.7,152 107.7,153.5 106.4,153 		"/>
		<polygon class="st0" points="106.4,154.9 107.7,155.5 107.7,157 106.4,156.5 		"/>
		<polygon class="st0" points="106.4,158.2 107.7,158.8 107.7,160.3 106.4,159.8 		"/>
		<polygon class="st0" points="106.4,161.6 107.7,162.2 107.7,163.7 106.4,163.2 		"/>
		<polygon class="st0" points="106.4,165.1 107.7,165.7 107.7,167.2 106.4,166.7 		"/>
		<polygon class="st0" points="106.4,168.4 107.7,169 107.7,170.5 106.4,170 		"/>
		<polygon class="st0" points="106.4,171.6 107.7,172.2 107.7,173.7 106.4,173.2 		"/>
		<polygon class="st0" points="106.4,175.1 107.7,175.7 107.7,177.2 106.4,176.7 		"/>
		<polygon class="st0" points="106.4,178.4 107.7,179 107.7,180.5 106.4,180 		"/>
		<polygon class="st0" points="106.4,181.8 107.7,182.4 107.7,183.9 106.4,183.4 		"/>
		<polygon class="st0" points="106.4,185.3 107.7,185.9 107.7,187.4 106.4,186.9 		"/>
		<polygon class="st0" points="106.4,188.6 107.7,189.2 107.7,190.7 106.4,190.2 		"/>
		<polygon class="st0" points="106.4,191.3 107.7,191.9 107.7,193.4 106.4,192.9 		"/>
		<polygon class="st0" points="106.4,194.8 107.7,195.4 107.7,196.9 106.4,196.4 		"/>
		<polygon class="st0" points="106.4,198.1 107.7,198.7 107.7,200.2 106.4,199.7 		"/>
		<polygon class="st0" points="106.4,201.5 107.7,202.1 107.7,203.6 106.4,203.1 		"/>
		<polygon class="st0" points="106.4,205 107.7,205.6 107.7,207.1 106.4,206.6 		"/>
		<polygon class="st0" points="106.4,208.3 107.7,208.9 107.7,210.4 106.4,209.9 		"/>
		<polygon class="st0" points="106.4,211.5 107.7,212.1 107.7,213.6 106.4,213.1 		"/>
		<polygon class="st0" points="106.4,215 107.7,215.6 107.7,217.1 106.4,216.6 		"/>
		<polygon class="st0" points="106.4,218.3 107.7,218.9 107.7,220.4 106.4,219.9 		"/>
		<polygon class="st0" points="106.4,221.7 107.7,222.3 107.7,223.8 106.4,223.3 		"/>
		<polygon class="st0" points="106.4,225.2 107.7,225.8 107.7,227.3 106.4,226.8 		"/>
		<polygon class="st0" points="106.4,228.5 107.7,229.1 107.7,230.6 106.4,230.1 		"/>
		<polygon class="st0" points="106.4,231.4 107.7,232.1 107.7,233.6 106.4,233.1 		"/>
		<polygon class="st0" points="106.4,235 107.7,235.6 107.7,237.1 106.4,236.6 		"/>
		<polygon class="st0" points="106.4,238.3 107.7,238.9 107.7,240.4 106.4,239.9 		"/>
		<polygon class="st0" points="106.4,241.6 107.7,242.2 107.7,243.7 106.4,243.2 		"/>
		<polygon class="st0" points="106.4,245.2 107.7,245.8 107.7,247.3 106.4,246.8 		"/>
		<polygon class="st0" points="106.4,248.5 107.7,249.1 107.7,250.6 106.4,250.1 		"/>
		<polygon class="st0" points="106.4,251.6 107.7,252.2 107.7,253.7 106.4,253.2 		"/>
		<polygon class="st0" points="106.4,255.2 107.7,255.8 107.7,257.3 106.4,256.8 		"/>
		<polygon class="st0" points="106.4,258.5 107.7,259.1 107.7,260.6 106.4,260.1 		"/>
		<polygon class="st0" points="106.4,261.8 107.7,262.4 107.7,263.9 106.4,263.4 		"/>
		<polygon class="st0" points="106.4,265.4 107.7,266 107.7,267.5 106.4,267 		"/>
		<polygon class="st0" points="106.4,268.7 107.7,269.3 107.7,270.8 106.4,270.3 		"/>
		<polygon class="st0" points="106.4,271.7 107.7,272.3 107.7,273.8 106.4,273.3 		"/>
		<polygon class="st0" points="106.4,275 107.7,275.6 107.7,277.1 106.4,276.6 		"/>
		<polygon class="st0" points="106.4,278.3 107.7,278.9 107.7,280.4 106.4,279.9 		"/>
		<polygon class="st0" points="106.4,281.9 107.7,282.5 107.7,284 106.4,283.5 		"/>
		<polygon class="st0" points="106.4,285.2 107.7,285.8 107.7,287.3 106.4,286.8 		"/>
		<polygon class="st0" points="146.7,56.5 147.9,57.1 147.9,58.6 146.7,58.1 		"/>
		<polygon class="st0" points="146.7,60 147.9,60.6 147.9,62.1 146.7,61.6 		"/>
		<polygon class="st0" points="146.7,63.3 147.9,63.9 147.9,65.4 146.7,64.9 		"/>
		<polygon class="st0" points="146.7,66.7 147.9,67.3 147.9,68.8 146.7,68.3 		"/>
		<polygon class="st0" points="146.7,70.2 147.9,70.8 147.9,72.3 146.7,71.8 		"/>
		<polygon class="st0" points="146.7,73.5 147.9,74.1 147.9,75.6 146.7,75.1 		"/>
		<polygon class="st0" points="146.7,76.7 147.9,77.3 147.9,78.8 146.7,78.3 		"/>
		<polygon class="st0" points="146.7,80.2 147.9,80.8 147.9,82.3 146.7,81.8 		"/>
		<polygon class="st0" points="146.7,83.5 147.9,84.1 147.9,85.6 146.7,85.1 		"/>
		<polygon class="st0" points="146.7,86.9 147.9,87.5 147.9,89 146.7,88.5 		"/>
		<polygon class="st0" points="146.7,90.4 147.9,91 147.9,92.5 146.7,92 		"/>
		<polygon class="st0" points="146.7,93.7 147.9,94.3 147.9,95.8 146.7,95.3 		"/>
		<polygon class="st0" points="146.7,96.7 147.9,97.4 147.9,98.9 146.7,98.4 		"/>
		<polygon class="st0" points="146.7,100.3 147.9,100.9 147.9,102.4 146.7,101.9 		"/>
		<polygon class="st0" points="146.7,103.6 147.9,104.2 147.9,105.7 146.7,105.2 		"/>
		<polygon class="st0" points="146.7,106.9 147.9,107.5 147.9,109 146.7,108.5 		"/>
		<polygon class="st0" points="146.7,110.5 147.9,111.1 147.9,112.6 146.7,112.1 		"/>
		<polygon class="st0" points="146.7,113.8 147.9,114.4 147.9,115.9 146.7,115.4 		"/>
		<polygon class="st0" points="146.7,116.9 147.9,117.5 147.9,119 146.7,118.5 		"/>
		<polygon class="st0" points="146.7,120.5 147.9,121.1 147.9,122.6 146.7,122.1 		"/>
		<polygon class="st0" points="146.7,123.8 147.9,124.4 147.9,125.9 146.7,125.4 		"/>
		<polygon class="st0" points="146.7,127.1 147.9,127.7 147.9,129.2 146.7,128.7 		"/>
		<polygon class="st0" points="146.7,130.7 147.9,131.3 147.9,132.8 146.7,132.3 		"/>
		<polygon class="st0" points="146.7,134 147.9,134.6 147.9,136.1 146.7,135.6 		"/>
		<polygon class="st0" points="146.7,136.8 147.9,137.4 147.9,138.9 146.7,138.4 		"/>
		<polygon class="st0" points="146.7,140.3 147.9,140.9 147.9,142.4 146.7,141.9 		"/>
		<polygon class="st0" points="146.7,143.6 147.9,144.2 147.9,145.7 146.7,145.2 		"/>
		<polygon class="st0" points="146.7,147 147.9,147.6 147.9,149.1 146.7,148.6 		"/>
		<polygon class="st0" points="146.7,150.5 147.9,151.1 147.9,152.6 146.7,152.1 		"/>
		<polygon class="st0" points="146.7,153.8 147.9,154.4 147.9,155.9 146.7,155.4 		"/>
		<polygon class="st0" points="146.7,157 147.9,157.6 147.9,159.1 146.7,158.6 		"/>
		<polygon class="st0" points="146.7,160.5 147.9,161.1 147.9,162.6 146.7,162.1 		"/>
		<polygon class="st0" points="146.7,163.8 147.9,164.4 147.9,165.9 146.7,165.4 		"/>
		<polygon class="st0" points="146.7,167.2 147.9,167.8 147.9,169.3 146.7,168.8 		"/>
		<polygon class="st0" points="146.7,170.7 147.9,171.3 147.9,172.8 146.7,172.3 		"/>
		<polygon class="st0" points="146.7,174 147.9,174.6 147.9,176.1 146.7,175.6 		"/>
		<polygon class="st0" points="146.7,176.7 147.9,177.3 147.9,178.8 146.7,178.3 		"/>
		<polygon class="st0" points="146.7,180.2 147.9,180.8 147.9,182.3 146.7,181.8 		"/>
		<polygon class="st0" points="146.7,183.5 147.9,184.1 147.9,185.6 146.7,185.1 		"/>
		<polygon class="st0" points="146.7,186.9 147.9,187.5 147.9,189 146.7,188.5 		"/>
		<polygon class="st0" points="146.7,190.4 147.9,191 147.9,192.5 146.7,192 		"/>
		<polygon class="st0" points="146.7,193.7 147.9,194.3 147.9,195.8 146.7,195.3 		"/>
		<polygon class="st0" points="146.7,196.9 147.9,197.5 147.9,199 146.7,198.5 		"/>
		<polygon class="st0" points="146.7,200.4 147.9,201 147.9,202.5 146.7,202 		"/>
		<polygon class="st0" points="146.7,203.7 147.9,204.3 147.9,205.8 146.7,205.3 		"/>
		<polygon class="st0" points="146.7,207.1 147.9,207.7 147.9,209.2 146.7,208.7 		"/>
		<polygon class="st0" points="146.7,210.6 147.9,211.2 147.9,212.7 146.7,212.2 		"/>
		<polygon class="st0" points="146.7,213.9 147.9,214.5 147.9,216 146.7,215.5 		"/>
		<polygon class="st0" points="146.7,216.9 147.9,217.5 147.9,219 146.7,218.5 		"/>
		<polygon class="st0" points="146.7,220.4 147.9,221 147.9,222.5 146.7,222 		"/>
		<polygon class="st0" points="146.7,223.7 147.9,224.3 147.9,225.8 146.7,225.3 		"/>
		<polygon class="st0" points="146.7,227 147.9,227.7 147.9,229.1 146.7,228.7 		"/>
		<polygon class="st0" points="146.7,230.6 147.9,231.2 147.9,232.7 146.7,232.2 		"/>
		<polygon class="st0" points="146.7,233.9 147.9,234.5 147.9,236 146.7,235.5 		"/>
		<polygon class="st0" points="146.7,237 147.9,237.7 147.9,239.2 146.7,238.7 		"/>
		<polygon class="st0" points="146.7,240.6 147.9,241.2 147.9,242.7 146.7,242.2 		"/>
		<polygon class="st0" points="146.7,243.9 147.9,244.5 147.9,246 146.7,245.5 		"/>
		<polygon class="st0" points="146.7,247.2 147.9,247.8 147.9,249.3 146.7,248.8 		"/>
		<polygon class="st0" points="146.7,250.8 147.9,251.4 147.9,252.9 146.7,252.4 		"/>
		<polygon class="st0" points="146.7,254.1 147.9,254.7 147.9,256.2 146.7,255.7 		"/>
		<polygon class="st0" points="146.7,257.1 147.9,257.7 147.9,259.2 146.7,258.7 		"/>
		<polygon class="st0" points="146.7,260.4 147.9,261 147.9,262.5 146.7,262 		"/>
		<polygon class="st0" points="146.7,263.7 147.9,264.3 147.9,265.8 146.7,265.3 		"/>
		<polygon class="st0" points="146.7,267.3 147.9,267.9 147.9,269.4 146.7,268.9 		"/>
		<polygon class="st0" points="146.7,270.6 147.9,271.2 147.9,272.7 146.7,272.2 		"/>
		<polygon class="st1" points="94.3,289.6 95,289.4 95,288.3 95.6,288.1 95.6,289.2 96.2,289 96.2,290.8 94.3,291.4 		"/>
		<polygon class="st1" points="94.3,283.8 95,283.6 95,282.5 95.6,282.3 95.6,283.4 96.2,283.2 96.2,285 94.3,285.6 		"/>
		<polygon class="st1" points="94.3,278 95,277.8 95,276.8 95.6,276.6 95.6,277.6 96.2,277.5 96.2,279.3 94.3,279.9 		"/>
		<polygon class="st1" points="94.3,272.2 95,272 95,270.9 95.6,270.8 95.6,271.8 96.2,271.6 96.2,273.5 94.3,274.1 		"/>
		<polygon class="st1" points="94.3,265.8 95,265.6 95,264.5 95.6,264.3 95.6,265.4 96.2,265.2 96.2,267 94.3,267.6 		"/>
		<polygon class="st1" points="94.3,260 95,259.8 95,258.7 95.6,258.5 95.6,259.6 96.2,259.4 96.2,261.2 94.3,261.8 		"/>
		<polygon class="st1" points="94.3,254.2 95,254 95,252.9 95.6,252.8 95.6,253.8 96.2,253.6 96.2,255.5 94.3,256.1 		"/>
		<polygon class="st1" points="94.3,248.4 95,248.2 95,247.1 95.6,247 95.6,248 96.2,247.8 96.2,249.7 94.3,250.3 		"/>
		<polygon class="st1" points="94.3,242 95,241.8 95,240.7 95.6,240.6 95.6,241.6 96.2,241.4 96.2,243.3 94.3,243.9 		"/>
		<polygon class="st1" points="94.3,236.2 95,236 95,234.9 95.6,234.8 95.6,235.8 96.2,235.6 96.2,237.5 94.3,238.1 		"/>
		<polygon class="st1" points="94.3,230.5 95,230.3 95,229.2 95.6,229 95.6,230.1 96.2,229.9 96.2,231.7 94.3,232.3 		"/>
		<polygon class="st1" points="94.3,224.7 95,224.5 95,223.4 95.6,223.2 95.6,224.3 96.2,224.1 96.2,225.9 94.3,226.5 		"/>
		<polygon class="st1" points="94.3,218.2 95,218 95,216.9 95.6,216.8 95.6,217.8 96.2,217.6 96.2,219.5 94.3,220.1 		"/>
		<polygon class="st1" points="94.3,212.4 95,212.2 95,211.1 95.6,211 95.6,212 96.2,211.8 96.2,213.7 94.3,214.2 		"/>
		<polygon class="st1" points="94.3,206.7 95,206.5 95,205.4 95.6,205.2 95.6,206.3 96.2,206.1 96.2,207.9 94.3,208.5 		"/>
		<polygon class="st1" points="94.3,200.9 95,200.7 95,199.6 95.6,199.4 95.6,200.5 96.2,200.3 96.2,202.1 94.3,202.7 		"/>
		<polygon class="st1" points="94.3,194.7 95,194.5 95,193.4 95.6,193.2 95.6,194.3 96.2,194.1 96.2,195.9 94.3,196.5 		"/>
		<polygon class="st1" points="94.3,188.8 95,188.6 95,187.6 95.6,187.4 95.6,188.4 96.2,188.3 96.2,190.1 94.3,190.7 		"/>
		<polygon class="st1" points="94.3,183.1 95,182.9 95,181.8 95.6,181.7 95.6,182.7 96.2,182.5 96.2,184.4 94.3,185 		"/>
		<polygon class="st1" points="94.3,177.3 95,177.1 95,176 95.6,175.9 95.6,176.9 96.2,176.7 96.2,178.6 94.3,179.1 		"/>
		<polygon class="st1" points="94.3,170.8 95,170.6 95,169.6 95.6,169.4 95.6,170.4 96.2,170.3 96.2,172.1 94.3,172.7 		"/>
		<polygon class="st1" points="94.3,165 95,164.8 95,163.7 95.6,163.6 95.6,164.6 96.2,164.4 96.2,166.3 94.3,166.9 		"/>
		<polygon class="st1" points="94.3,159.3 95,159.1 95,158 95.6,157.8 95.6,158.9 96.2,158.7 96.2,160.6 94.3,161.1 		"/>
		<polygon class="st1" points="94.3,153.5 95,153.3 95,152.2 95.6,152 95.6,153.1 96.2,152.9 96.2,154.7 94.3,155.3 		"/>
		<polygon class="st1" points="94.3,147.4 95,147.2 95,146.1 95.6,146 95.6,147 96.2,146.8 96.2,148.7 94.3,149.3 		"/>
		<polygon class="st1" points="94.3,141.6 95,141.4 95,140.3 95.6,140.2 95.6,141.2 96.2,141 96.2,142.9 94.3,143.5 		"/>
		<polygon class="st1" points="94.3,135.9 95,135.7 95,134.6 95.6,134.4 95.6,135.5 96.2,135.3 96.2,137.1 94.3,137.7 		"/>
		<polygon class="st1" points="94.3,130.1 95,129.9 95,128.8 95.6,128.6 95.6,129.7 96.2,129.5 96.2,131.3 94.3,131.9 		"/>
		<polygon class="st1" points="94.3,123.6 95,123.4 95,122.3 95.6,122.2 95.6,123.2 96.2,123 96.2,124.9 94.3,125.4 		"/>
		<polygon class="st1" points="94.3,117.8 95,117.6 95,116.5 95.6,116.3 95.6,117.4 96.2,117.2 96.2,119.1 94.3,119.6 		"/>
		<polygon class="st1" points="94.3,112.1 95,111.9 95,110.8 95.6,110.6 95.6,111.7 96.2,111.5 96.2,113.3 94.3,113.9 		"/>
		<polygon class="st1" points="94.3,106.3 95,106.1 95,105 95.6,104.8 95.6,105.8 96.2,105.7 96.2,107.5 94.3,108.1 		"/>
		<polygon class="st1" points="94.3,100 95,99.8 95,98.7 95.6,98.6 95.6,99.6 96.2,99.4 96.2,101.3 94.3,101.9 		"/>
		<polygon class="st1" points="94.3,94.2 95,94 95,92.9 95.6,92.8 95.6,93.8 96.2,93.6 96.2,95.5 94.3,96.1 		"/>
		<polygon class="st1" points="94.3,88.5 95,88.3 95,87.2 95.6,87 95.6,88.1 96.2,87.9 96.2,89.7 94.3,90.3 		"/>
		<polygon class="st1" points="94.3,82.7 95,82.5 95,81.4 95.6,81.2 95.6,82.3 96.2,82.1 96.2,83.9 94.3,84.5 		"/>
		<polygon class="st1" points="94.3,76.2 95,76 95,74.9 95.6,74.8 95.6,75.8 96.2,75.6 96.2,77.5 94.3,78.1 		"/>
		<polygon class="st1" points="94.3,70.4 95,70.2 95,69.1 95.6,69 95.6,70 96.2,69.8 96.2,71.7 94.3,72.2 		"/>
		<polygon class="st1" points="94.3,64.7 95,64.5 95,63.4 95.6,63.2 95.6,64.3 96.2,64.1 96.2,65.9 94.3,66.5 		"/>
		<polygon class="st1" points="153.2,267.7 153.8,267.5 153.8,266.5 154.4,266.3 154.4,267.3 155.1,267.2 155.1,269 153.2,269.6 		
			"/>
		<polygon class="st1" points="153.2,261.9 153.8,261.7 153.8,260.7 154.4,260.5 154.4,261.5 155.1,261.4 155.1,263.2 153.2,263.8 
					"/>
		<polygon class="st1" points="153.2,256.2 153.8,256 153.8,254.9 154.4,254.8 154.4,255.8 155.1,255.6 155.1,257.5 153.2,258.1 		
			"/>
		<polygon class="st1" points="153.2,250.4 153.8,250.2 153.8,249.1 154.4,249 154.4,250 155.1,249.8 155.1,251.7 153.2,252.3 		"/>
		<polygon class="st1" points="153.2,244 153.8,243.8 153.8,242.7 154.4,242.5 154.4,243.6 155.1,243.4 155.1,245.2 153.2,245.8 		
			"/>
		<polygon class="st1" points="153.2,238.2 153.8,238 153.8,236.9 154.4,236.8 154.4,237.8 155.1,237.6 155.1,239.4 153.2,240 		"/>
		<polygon class="st1" points="153.2,232.5 153.8,232.3 153.8,231.2 154.4,231 154.4,232.1 155.1,231.9 155.1,233.7 153.2,234.3 		
			"/>
		<polygon class="st1" points="153.2,226.7 153.8,226.5 153.8,225.4 154.4,225.2 154.4,226.3 155.1,226.1 155.1,227.9 153.2,228.5 
					"/>
		<polygon class="st1" points="153.2,220.3 153.8,220.1 153.8,219 154.4,218.9 154.4,219.9 155.1,219.7 155.1,221.6 153.2,222.2 		
			"/>
		<polygon class="st1" points="153.2,214.5 153.8,214.3 153.8,213.2 154.4,213.1 154.4,214.1 155.1,213.9 155.1,215.8 153.2,216.4 
					"/>
		<polygon class="st1" points="153.2,208.8 153.8,208.6 153.8,207.5 154.4,207.4 154.4,208.4 155.1,208.2 155.1,210.1 153.2,210.6 
					"/>
		<polygon class="st1" points="153.2,203 153.8,202.8 153.8,201.7 154.4,201.6 154.4,202.6 155.1,202.4 155.1,204.3 153.2,204.9 		
			"/>
		<polygon class="st1" points="153.2,196.6 153.8,196.4 153.8,195.3 154.4,195.1 154.4,196.2 155.1,196 155.1,197.8 153.2,198.4 		
			"/>
		<polygon class="st1" points="153.2,190.8 153.8,190.6 153.8,189.5 154.4,189.3 154.4,190.4 155.1,190.2 155.1,192 153.2,192.6 		
			"/>
		<polygon class="st1" points="153.2,185.1 153.8,184.9 153.8,183.8 154.4,183.6 154.4,184.7 155.1,184.5 155.1,186.3 153.2,186.9 
					"/>
		<polygon class="st1" points="153.2,179.3 153.8,179.1 153.8,178 154.4,177.8 154.4,178.9 155.1,178.7 155.1,180.5 153.2,181.1 		
			"/>
		<polygon class="st1" points="153.2,173.1 153.8,172.9 153.8,171.8 154.4,171.7 154.4,172.7 155.1,172.5 155.1,174.3 153.2,174.9 
					"/>
		<polygon class="st1" points="153.2,167.3 153.8,167.1 153.8,166 154.4,165.9 154.4,166.9 155.1,166.7 155.1,168.6 153.2,169.1 		
			"/>
		<polygon class="st1" points="153.2,161.6 153.8,161.4 153.8,160.3 154.4,160.1 154.4,161.2 155.1,161 155.1,162.8 153.2,163.4 		
			"/>
		<polygon class="st1" points="153.2,155.8 153.8,155.6 153.8,154.5 154.4,154.3 154.4,155.4 155.1,155.2 155.1,157 153.2,157.6 		
			"/>
		<polygon class="st1" points="153.2,149.4 153.8,149.2 153.8,148.1 154.4,147.9 154.4,148.9 155.1,148.8 155.1,150.6 153.2,151.2 
					"/>
		<polygon class="st1" points="153.2,143.6 153.8,143.4 153.8,142.3 154.4,142.1 154.4,143.2 155.1,143 155.1,144.8 153.2,145.4 		
			"/>
		<polygon class="st1" points="153.2,137.8 153.8,137.6 153.8,136.6 154.4,136.4 154.4,137.4 155.1,137.3 155.1,139.1 153.2,139.7 
					"/>
		<polygon class="st1" points="153.2,132 153.8,131.9 153.8,130.8 154.4,130.6 154.4,131.6 155.1,131.5 155.1,133.3 153.2,133.9 		
			"/>
		<polygon class="st1" points="153.2,126 153.8,125.8 153.8,124.7 154.4,124.6 154.4,125.6 155.1,125.4 155.1,127.3 153.2,127.8 		
			"/>
		<polygon class="st1" points="153.2,120.2 153.8,120 153.8,118.9 154.4,118.8 154.4,119.8 155.1,119.6 155.1,121.5 153.2,122.1 		
			"/>
		<polygon class="st1" points="153.2,114.5 153.8,114.3 153.8,113.2 154.4,113.1 154.4,114.1 155.1,113.9 155.1,115.8 153.2,116.3 
					"/>
		<polygon class="st1" points="153.2,108.7 153.8,108.5 153.8,107.4 154.4,107.3 154.4,108.3 155.1,108.1 155.1,110 153.2,110.5 		
			"/>
		<polygon class="st1" points="153.2,102.3 153.8,102.1 153.8,101 154.4,100.8 154.4,101.9 155.1,101.7 155.1,103.5 153.2,104.1 		
			"/>
		<polygon class="st1" points="153.2,96.5 153.8,96.3 153.8,95.2 154.4,95 154.4,96.1 155.1,95.9 155.1,97.7 153.2,98.3 		"/>
		<polygon class="st1" points="153.2,90.8 153.8,90.6 153.8,89.5 154.4,89.3 154.4,90.4 155.1,90.2 155.1,92 153.2,92.6 		"/>
		<polygon class="st1" points="153.2,85 153.8,84.8 153.8,83.7 154.4,83.5 154.4,84.6 155.1,84.4 155.1,86.2 153.2,86.8 		"/>
		<polygon class="st1" points="153.2,78.8 153.8,78.6 153.8,77.5 154.4,77.3 154.4,78.4 155.1,78.2 155.1,80 153.2,80.6 		"/>
		<polygon class="st1" points="153.2,73 153.8,72.8 153.8,71.7 154.4,71.5 154.4,72.6 155.1,72.4 155.1,74.2 153.2,74.8 		"/>
		<polygon class="st1" points="153.2,67.2 153.8,67.1 153.8,66 154.4,65.8 154.4,66.8 155.1,66.7 155.1,68.5 153.2,69.1 		"/>
		<polygon class="st1" points="153.2,61.5 153.8,61.3 153.8,60.2 154.4,60 154.4,61 155.1,60.9 155.1,62.7 153.2,63.3 		"/>
		<polygon class="st1" points="153.2,55 153.8,54.8 153.8,53.7 154.4,53.6 154.4,54.6 155.1,54.4 155.1,56.3 153.2,56.8 		"/>
		<polygon class="st1" points="153.2,49.2 153.8,49 153.8,47.9 154.4,47.8 154.4,48.8 155.1,48.6 155.1,50.5 153.2,51.1 		"/>
		<polygon class="st1" points="153.2,43.5 153.8,43.3 153.8,42.2 154.4,42.1 154.4,43.1 155.1,42.9 155.1,44.8 153.2,45.3 		"/>
		<line class="st0" x1="108.8" y1="258.1" x2="144.8" y2="274.2"/>
		<line class="st0" x1="108.8" y1="251.2" x2="144.8" y2="267"/>
		<line class="st0" x1="108.8" y1="248.3" x2="144.8" y2="263.3"/>
		<path class="st0" d="M108.8,247c1.5,0,23.3,5.3,36.1,13.2"/>
		<line class="st0" x1="63.8" y1="264.6" x2="89.3" y2="255.2"/>
		<line class="st0" x1="63.6" y1="262.4" x2="89.3" y2="252.8"/>
		<line class="st0" x1="71.7" y1="274.7" x2="89.4" y2="268"/>
		<line class="st0" x1="71.7" y1="291.2" x2="89.3" y2="284.5"/>
		<line class="st0" x1="71.7" y1="286.2" x2="89.4" y2="279.7"/>
		<line class="st0" x1="71.7" y1="284.9" x2="89.4" y2="278.3"/>
		<line class="st0" x1="108.8" y1="277.5" x2="124.1" y2="271.8"/>
		<line class="st0" x1="124.1" y1="272.2" x2="124.1" y2="266.4"/>
		<line class="st0" x1="124.1" y1="266.4" x2="108.6" y2="272.2"/>
		<line class="st0" x1="124.1" y1="266.4" x2="108.8" y2="259.5"/>
		<ellipse class="st0" cx="111.7" cy="265.5" rx="2.9" ry="1.5"/>
		<line class="st0" x1="124.1" y1="271.8" x2="136.9" y2="277.2"/>
		<line class="st0" x1="140.3" y1="275.9" x2="124.3" y2="269"/>
		<line class="st0" x1="53.6" y1="45.4" x2="53.6" y2="60.1"/>
		<line class="st0" x1="42.9" y1="40.9" x2="42.9" y2="55.4"/>
		<line class="st0" x1="45.6" y1="42" x2="45.6" y2="56.3"/>
		<line class="st0" x1="41.9" y1="40.4" x2="41.9" y2="55.4"/>
		<line class="st0" x1="17" y1="44" x2="34.3" y2="37.2"/>
		<line class="st0" x1="14" y1="42.7" x2="31" y2="35.9"/>
		<line class="st0" x1="109.3" y1="82.9" x2="145.2" y2="98.3"/>
		<line class="st0" x1="109.4" y1="81.3" x2="145.2" y2="96.7"/>
		<line class="st0" x1="109.3" y1="113.1" x2="145.2" y2="127.8"/>
		<line class="st0" x1="109.4" y1="114.7" x2="145.2" y2="129.4"/>
		<path class="st0" d="M120.4,96.7c0.2-0.6,0.8-0.7,1.1-0.6c0.3,0,13.2,5.4,13.2,5.4s0.9,0.5,1.1,1.1c0.2,0.5,0,12.2,0,12.2
			s-0.1,0.5-1.5,0.2c-1.4-0.3-13.2-5.3-13.2-5.3s-0.6-0.1-0.7-0.9C120.3,108,120.4,96.7,120.4,96.7z"/>
		<path class="st0" d="M117.7,50.6v10.4c0,0,13.9,2.8,27.7,10.4"/>
		<line class="st0" x1="117.7" y1="51.4" x2="145.4" y2="62.4"/>
		<line class="st0" x1="130.1" y1="46" x2="145.2" y2="52.2"/>
		<line class="st0" x1="132.9" y1="45" x2="145.4" y2="50.3"/>
		<line class="st0" x1="134.7" y1="51.1" x2="145.4" y2="55.4"/>
		<line class="st0" x1="134.7" y1="55.8" x2="145.4" y2="60.3"/>
		<line class="st0" x1="134.7" y1="51.1" x2="134.7" y2="55.8"/>
		<ellipse class="st0" cx="127.7" cy="50.9" rx="3.1" ry="3.7"/>
		<ellipse class="st0" cx="128" cy="50.9" rx="2.4" ry="3"/>
		<ellipse class="st0" cx="128.4" cy="51" rx="1.8" ry="2.3"/>
		<ellipse class="st0" cx="128.8" cy="51.1" rx="1.5" ry="1.9"/>
	</g>
	<g>
		<path class="st0" d="M163.2,279.8"/>
	</g>
	<path class="st2" d="M202.3,117.4l-30.1,31.3c0,0,41.3-15.1,41.2-14.4"/>
	<polyline class="st3" points="164.5,151.7 91.3,179.1 91.2,188.8 164.7,161.4 	"/>
	<line class="st3" x1="164.4" y1="150.4" x2="91.1" y2="177.8"/>
	<g>
		<defs>
			<ellipse id="SVGID_1_" cx="266.1" cy="85.8" rx="71.4" ry="71.1"/>
		</defs>
		<clipPath id="SVGID_2_">
			<use xlink:href="#SVGID_1_"  style="overflow:visible;"/>
		</clipPath>
		<g class="st4">
			<line class="st5" x1="331.9" y1="14.5" x2="310" y2="172.3"/>
			<line class="st5" x1="323.1" y1="14.5" x2="301.2" y2="172.3"/>
			<path class="st5" d="M208.3,172.3L293.9,97c0,0,12.9-1.3,15,13.4l-71.7,62.1"/>
			<line class="st5" x1="250.3" y1="15.5" x2="254.4" y2="130.5"/>
			<path class="st5" d="M290.3,39.1l-7.9,4.5c0,0-1,1,0.3,2.4S303,66.5,303,66.5s8.8,8,5.6,11.4c0,0-1.9,2.7-4.6,3"/>
			<polyline class="st5" points="281.8,44.1 279.5,55 293.4,70.8 			"/>
			<path class="st6" d="M283.6,59.9c-8.6,20.5-25.6,59.7-23.9,66.6"/>
			<path class="st6" d="M291.9,14.9c0,0,0.3,22.6-4.3,35c-0.1,0.3-0.2,0.5-0.3,0.8"/>
			<line class="st5" x1="293.7" y1="71.3" x2="291.2" y2="99.1"/>
			<line class="st5" x1="298.6" y1="15.2" x2="294.8" y2="58.3"/>
			
				<ellipse transform="matrix(0.666 0.7459 -0.7459 0.666 155.9223 -197.8565)" class="st5" cx="298.9" cy="75.2" rx="7.2" ry="3.2"/>
			<path class="st5" d="M294.2,69.9l2.5-2.5c1.3-1.2,4.5,0.3,7.1,3.2s3.7,6.3,2.4,7.5l-2.5,2.8"/>
			<line class="st5" x1="295.9" y1="73.3" x2="299.7" y2="77.9"/>
			<line class="st5" x1="297.2" y1="73.6" x2="298.1" y2="77.8"/>
			<line class="st5" x1="299.7" y1="76.3" x2="296" y2="75.3"/>
			
				<ellipse transform="matrix(-0.8475 0.5309 -0.5309 -0.8475 503.1903 125.1416)" class="st5" cx="233.6" cy="134.9" rx="5.7" ry="3.4"/>
			<path class="st6" d="M282.4,106.5c0,0,4.6-10.4,9.7-20.3"/>
			<polygon class="st7" points="304.5,38.2 308.4,41 309.8,29.5 305.5,26.6 			"/>
			<polygon class="st7" points="302.5,60.5 306.5,63.3 307.9,51.8 303.5,48.9 			"/>
			<polyline class="st7" points="300.2,80.3 299.7,86.5 303.7,89.3 304.6,81 			"/>
			<polygon class="st7" points="303.8,43.7 307.8,46.5 308.3,43.4 304,40.5 			"/>
			<polygon class="st7" points="306.9,13.3 310.9,16.1 312.3,4.6 307.9,1.7 			"/>
			<polygon class="st7" points="306.3,20 310.3,22.8 310.8,19.7 306.4,16.7 			"/>
			<line class="st5" x1="273.7" y1="172.7" x2="304.7" y2="145.8"/>
			<path class="st5" d="M270.1,92.6c0,0,2.7,8.4,14.8,7.7"/>
			<path class="st5" d="M269.3,94.7c0,0,2.7,8.4,14.8,7.7"/>
			<path class="st5" d="M268.5,96.7c0,0,2.7,8.4,14.8,7.7"/>
			<path class="st5" d="M267.6,98.8c0,0,2.7,8.4,14.8,7.7"/>
			<path class="st5" d="M266.8,100.9c0,0,2.5,7.8,13.6,7.7"/>
			<path class="st5" d="M266,102.9c0,0,2.3,7.1,12.1,7.7"/>
			<path class="st5" d="M265.2,105c0,0,2.1,6.4,10.7,7.6"/>
			<path class="st5" d="M264.5,107.5c0.6,1.4,3,5.6,9.3,6.9"/>
			<path class="st5" d="M263.7,109.5c0.5,1.2,2.6,5.2,8.3,6.7"/>
			<path class="st5" d="M262.8,111.5c0,0.1,0.1,0.2,0.1,0.3c0.6,1.3,2.5,4.5,7,6.1"/>
			<path class="st5" d="M262.1,113.8c0.6,1.2,2.2,4,6,5.7"/>
			<path class="st5" d="M261.5,116.3c0.6,1.2,2.1,3.3,4.8,4.8"/>
			<path class="st5" d="M260.8,118.6c0.6,1.1,1.8,2.7,3.9,4.1"/>
			<path class="st5" d="M260.2,121.1c0.6,0.9,1.5,2.1,2.8,3.1"/>
			<path class="st5" d="M259.7,123.7C259.8,123.7,259.8,123.8,259.7,123.7c0.5,0.7,1,1.3,1.7,1.9"/>
			<path class="st5" d="M257.7,123.6"/>
			<path class="st5" d="M271.2,89.9c0,0,2.7,8.4,14.8,7.7"/>
			<path class="st5" d="M272.3,87.2c0,0,2.7,8.4,14.8,7.7"/>
			<path class="st5" d="M273.4,84.5c0,0,2.7,8.4,14.8,7.7"/>
			<path class="st5" d="M274.4,81.8c0,0,2.7,8.4,14.8,7.7"/>
			<path class="st5" d="M275.5,79.1c0,0,2.7,8.4,14.8,7.7"/>
			<path class="st5" d="M276.6,76.4c0,0,2.7,8.4,14.8,7.7"/>
			<path class="st5" d="M277.7,73.7c0,0,2.7,8.4,14.8,7.7"/>
			<path class="st5" d="M278.8,71c0,0,2.6,8,14.1,7.7"/>
			<path class="st5" d="M279.8,68.3c0,0,2.4,7.4,12.8,7.7"/>
			<path class="st5" d="M280.9,65.6c0,0,2.2,6.9,11.7,7.7"/>
			<path class="st5" d="M282,62.9c0,0,2,6.3,10.4,7.5"/>
			<path class="st5" d="M288,48.8c0,0,2.1,3.9,7.5,5.2"/>
			<path class="st5" d="M288.7,47c0,0,1.9,3.5,6.6,4.9"/>
			<path class="st5" d="M289.3,45.2c0,0,1.8,3.4,6.4,4.9"/>
			<path class="st5" d="M289.8,43.3c0,0,1.7,3.2,6,4.7"/>
			<path class="st5" d="M290.1,41c0,0,1.6,3.1,5.8,4.7"/>
			<path class="st5" d="M290.4,38.7c0,0,1.6,3.1,5.8,4.7"/>
			<path class="st5" d="M290.7,36.4c0,0,1.6,3,5.7,4.6"/>
			<path class="st5" d="M291,34.1c0,0,1.6,3,5.6,4.6"/>
			<path class="st5" d="M291.3,31.8c0,0,1.5,2.9,5.4,4.5"/>
			<path class="st5" d="M291.6,29.5c0,0,1.5,2.9,5.4,4.5"/>
			<path class="st5" d="M291.9,27.2c0,0,1.5,2.9,5.5,4.5"/>
			<path class="st5" d="M291.8,24.6c0,0,1.6,3,5.7,4.6"/>
			<path class="st5" d="M291.7,22c0,0,1.7,3.2,6.1,4.7"/>
			<path class="st5" d="M292.1,19.6c0,0,1.6,3.1,5.8,4.6"/>
			<path class="st5" d="M292.1,17.3c0,0,1.7,3.2,6,4.7"/>
			<path class="st5" d="M292.1,15c0,0,1.7,3.3,6.2,4.8"/>
			<path class="st5" d="M283.1,60.2c0,0,1.4,4.2,6.5,6.4"/>
		</g>
		<use xlink:href="#SVGID_1_"  style="overflow:visible;fill:none;stroke:#010101;stroke-miterlimit:10;"/>
	</g>
</g>
<g id="Layer_3">
	<polyline class="st8" points="61.1,261 61.1,312.1 99.1,297.9 98.7,181.4 168,155.1 168,81.9 	"/>
</g>
</svg>
