<?xml version="1.0" encoding="utf-8"?>
<!-- Generator: Adobe Illustrator 12.0.1, SVG Export Plug-In . SVG Version: 6.00 Build 51448)  -->
<!DOCTYPE svg PUBLIC "-//W3C//DTD SVG 1.1//EN" "http://www.w3.org/Graphics/SVG/1.1/DTD/svg11.dtd" [
	<!ENTITY ns_svg "http://www.w3.org/2000/svg">
	<!ENTITY ns_xlink "http://www.w3.org/1999/xlink">
]>
<svg  version="1.1" xmlns="&ns_svg;" xmlns:xlink="&ns_xlink;" width="230.718" height="269.948" viewBox="0 0 230.718 269.948"
	 overflow="visible" enable-background="new 0 0 230.718 269.948" xml:space="preserve">
<g id="Layer_1">
	<polygon fill="#FFFFFF" stroke="#000000" stroke-width="0.4" stroke-miterlimit="1" points="143.167,268.087 143.167,118.486 
		68.968,109.74 68.968,257.325 	"/>
	<polygon fill="#FFFFFF" stroke="#000000" stroke-width="0.4" stroke-miterlimit="1" points="138.715,260.287 138.715,123.887 
		73.167,115.14 73.167,251.54 	"/>
	
		<line fill="none" stroke="#000000" stroke-width="0.4" stroke-miterlimit="1" x1="68.968" y1="257.325" x2="143.167" y2="268.087"/>
	<line fill="none" stroke="#000000" stroke-width="0.4" stroke-miterlimit="1" x1="68.968" y1="109.74" x2="68.968" y2="257.325"/>
	<polyline fill="none" stroke="#000000" stroke-width="0.4" stroke-miterlimit="1" points="68.968,109.74 111.528,99.975 
		180.892,106.3 143.167,118.486 	"/>
	<polygon fill="none" stroke="#000000" stroke-width="0.4" stroke-miterlimit="1" points="68.748,111.174 68.749,250.628 
		3.949,266.476 0.201,264.487 64.468,249.136 64.468,112.433 	"/>
	<polygon fill="#FFFFFF" stroke="#000000" stroke-width="0.4" stroke-miterlimit="1" points="3.949,266.476 3.948,126.422 
		68.861,111.277 63.968,109.433 0.2,124.185 0.201,264.237 	"/>
	<line fill="none" stroke="#000000" stroke-width="0.4" stroke-miterlimit="1" x1="3.638" y1="126.946" x2="0.343" y2="124.872"/>
	<polygon fill="#FFFFFF" stroke="#FFFFFF" stroke-width="0.4" points="28.852,130.041 25.649,135.984 31.591,139.185 31.126,137.63 
		43.626,133.885 41.818,127.85 29.317,131.596 	"/>
	<polygon stroke="#000000" stroke-width="0.4" points="28.47,130.681 25.951,134.836 28.736,137.648 28.691,136.464 35.944,134.627 
		35.769,130.029 28.516,131.865 	"/>
	<polygon stroke="#000000" stroke-width="0.4" points="36.391,136.007 38.91,131.852 36.125,129.04 36.17,130.224 28.917,132.061 
		29.092,136.659 36.345,134.823 	"/>
	<line fill="none" stroke="#000000" stroke-width="0.4" stroke-miterlimit="1" x1="68.749" y1="250.628" x2="64.55" y2="249.104"/>
	<ellipse fill="none" stroke="#000000" stroke-width="0.4" stroke-miterlimit="1" cx="61.002" cy="115.891" rx="0.881" ry="0.402"/>
	<path fill="none" stroke="#000000" stroke-linecap="round" stroke-linejoin="round" stroke-miterlimit="1" d="M74.528,116.142
		c0,0-5.383,7.819-12.431,7.438c-4.128-0.224-1.36-5.895-1.449-6.702"/>
	<polyline fill="none" stroke="#000000" stroke-width="0.4" stroke-miterlimit="1" points="74.049,249.767 112.814,238.006 
		112.814,121.634 	"/>
	
		<line fill="none" stroke="#000000" stroke-width="0.4" stroke-miterlimit="1" x1="112.814" y1="238.006" x2="138.194" y2="241.681"/>
	<polyline fill="none" stroke="#000000" stroke-width="0.4" stroke-miterlimit="1" points="180.892,106.3 180.892,252.301 
		143.167,268.087 143.167,118.486 	"/>
	<polyline fill="#FFFFFF" stroke="#000000" stroke-width="0.5" points="155.278,86.892 71.975,128.146 137.778,60.642 	"/>
	<g>
		<circle cx="35.97" cy="102.952" r="7.087"/>
		<text transform="matrix(1 0 0 1 33.1851 106.2803)" fill="#FFFFFF" font-family="'Helvetica'" font-size="10">1</text>
	</g>
	<polyline fill="none" stroke="#000000" stroke-width="0.4" stroke-linecap="round" stroke-linejoin="round" points="
		54.278,115.142 54.278,117.392 57.403,118.392 57.403,114.267 	"/>
	<path fill="none" stroke="#000000" stroke-width="0.4" stroke-linecap="round" stroke-linejoin="round" d="M60.903,115.892"/>
	<path fill="none" stroke="#000000" stroke-width="0.4" stroke-linecap="round" stroke-linejoin="round" d="M60.903,113.642"/>
	<path fill="#FFFFFF" stroke="#000000" stroke-width="0.4" stroke-miterlimit="1" d="M57.403,118.392"/>
	<polyline fill="none" stroke="#000000" stroke-width="0.4" stroke-linecap="round" stroke-linejoin="round" points="
		57.403,118.392 64.028,116.892 64.028,112.767 	"/>
	
		<line fill="none" stroke="#FFFFFF" stroke-width="3" stroke-linecap="round" stroke-linejoin="round" x1="57.361" y1="119.808" x2="41.695" y2="110.975"/>
	
		<line fill="none" stroke="#000000" stroke-width="0.4" stroke-linecap="round" stroke-linejoin="round" x1="57.361" y1="119.808" x2="41.695" y2="110.975"/>
</g>
<g id="Dimension_Layer">
	<path fill="none" stroke="#000000" stroke-width="0.4" stroke-miterlimit="1" d="M68.93,239.343c0,1.131,0,2.908,0,2.908h-1.21
		v-2.848"/>
	<path fill="#FFFFFF" stroke="#000000" stroke-width="0.4" stroke-miterlimit="1" d="M69.297,240.198c0,0-0.636,0.035-1.416,0.063
		s-1.586,0.215-1.667,0.457c-0.081,0.242,0,4.502,0,4.502s1.64-0.092,2.286-0.039c0.646,0.055,0.753,0,0.753,0v-0.51
		c0,0-0.941-0.082-1.452-0.055s-1.479,0.242-1.479,0.242v-3.873c0,0,1.129-0.268,2.77-0.295v3.926"/>
	<line fill="none" stroke="#000000" stroke-width="0.4" stroke-miterlimit="1" x1="67.29" y1="240.896" x2="67.29" y2="244.589"/>
	<g>
		<path fill="none" stroke="#000000" stroke-width="0.4" stroke-miterlimit="1" d="M66.909,123.27c0,0,0,0,0.107,0
			c1.049,0,1.273,0.491,1.273,1.429s0,11.005,0,11.005h-1.005v-11.139c0,0,0.022-0.357-0.357-0.357s0.093,0,0.093,0"/>
		<path fill="#FFFFFF" stroke="#000000" stroke-width="0.4" stroke-miterlimit="1" d="M68.087,123.917
			c0,0.419-0.297,0.798-0.659,0.759c-1.016-0.112-0.658-0.34-0.658-0.759c0-0.419-0.246-0.826,0.658-0.759
			C67.792,123.185,68.087,123.498,68.087,123.917z"/>
		
			<ellipse fill="#FFFFFF" stroke="#000000" stroke-width="0.4" stroke-miterlimit="1" cx="67.072" cy="123.895" rx="0.659" ry="0.759"/>
		<polyline fill="none" stroke="#000000" stroke-width="0.4" stroke-miterlimit="1" points="68.333,124.631 68.4,124.631 
			68.4,126.551 		"/>
		<path fill="none" stroke="#000000" stroke-width="0.4" stroke-miterlimit="1" d="M70.722,126.596"/>
		<path fill="#FFFFFF" stroke="#000000" stroke-width="0.4" stroke-miterlimit="1" d="M70.722,126.596c0,0-0.647-0.111-1.005-0.134
			c-0.357-0.022-0.603-0.112-1.049,0.044c-0.447,0.156-1.116,0.246-1.384,0.313c-0.268,0.067-0.446,0.045-0.446,0.179
			s0,2.232,0,2.232s0.313-0.089,0.379-0.111c0.067-0.022,0.58-0.157,0.58-0.157s0,1.429,0,2.032c0,0.603-0.29,0.647-0.423,0.669
			c-0.134,0.022-0.536,0.067-0.536,0.067v2.166c0,0,1.719-0.179,2.009-0.179s0.737-0.089,1.116-0.045
			c0.38,0.045,0.804,0.089,0.804,0.089L70.722,126.596z"/>
		<line fill="none" stroke="#000000" stroke-width="0.4" stroke-miterlimit="1" x1="66.837" y1="129.23" x2="67.217" y2="129.319"/>
		<path fill="none" stroke="#000000" stroke-width="0.4" stroke-miterlimit="1" d="M67.797,129.409c0,0-0.893-0.045-0.58,0.29"/>
		<path fill="none" stroke="#000000" stroke-width="0.4" stroke-miterlimit="1" d="M67.797,129.833c0,0-0.893-0.045-0.58,0.291"/>
		<path fill="none" stroke="#000000" stroke-width="0.4" stroke-miterlimit="1" d="M67.797,130.256c0,0-0.893-0.044-0.58,0.291"/>
		<path fill="none" stroke="#000000" stroke-width="0.4" stroke-miterlimit="1" d="M67.797,130.681c0,0-0.893-0.044-0.58,0.29"/>
		<path fill="none" stroke="#000000" stroke-width="0.4" stroke-miterlimit="1" d="M67.797,131.105c0,0-0.893-0.044-0.58,0.29"/>
		
			<line fill="none" stroke="#000000" stroke-width="0.4" stroke-miterlimit="1" x1="68.601" y1="127.467" x2="68.601" y2="133.002"/>
		
			<line fill="none" stroke="#000000" stroke-width="0.4" stroke-miterlimit="1" x1="69.672" y1="126.618" x2="69.672" y2="133.248"/>
		<path fill="#FFFFFF" stroke="#000000" stroke-width="0.4" stroke-miterlimit="1" d="M68.629,134.017c0,0-0.564,0.012-1.211,0.034
			c-0.647,0.022-1.317,0.179-1.384,0.38c-0.067,0.201,0,3.737,0,3.737s1.362-0.077,1.897-0.032c0.536,0.045,0.625,0,0.625,0v-0.423
			c0,0-0.781-0.067-1.206-0.045c-0.424,0.022-1.228,0.201-1.228,0.201v-3.214c0,0,0.938-0.223,2.299-0.246v3.259"/>
	</g>
	
		<rect x="65.652" y="238.825" fill="none" stroke="#000000" stroke-width="0.4" stroke-miterlimit="1" width="3.645" height="0.613"/>
	<path fill="none" stroke="#000000" stroke-width="0.4" stroke-linecap="round" stroke-linejoin="round" stroke-miterlimit="1" d="
		M76.463,258.747c0,0,1.333,2.666,3.333,3.333s6-2,6-2"/>
	<path fill="none" stroke="#000000" stroke-width="0.4" stroke-linecap="round" stroke-linejoin="round" stroke-miterlimit="1" d="
		M129.694,266.309c0,0,1.333,2.666,3.333,3.333s6-2,6-2"/>
	<path fill="none" stroke="#000000" stroke-width="0.4" stroke-linecap="round" stroke-linejoin="round" stroke-miterlimit="1" d="
		M164.833,259.003c0,0,2.2,0.204,3.702,0.062c2.099-0.199,2.993-2.618,2.993-2.618"/>
	<g>
		<path d="M58.848,128.975c-1.537-0.849-2.9-1.945-3.655-3.039c-0.325-0.47-0.539-1.061-0.659-1.475l-1.011,0.679l0,0l0.331-3.81
			l3.456,1.938l0,0l-0.582,0.322c0.007,0.025-0.107,0.071-0.225,0.116c0.073,0.107,0.148,0.216,0.228,0.328
			c0.755,1.094,1.653,2.013,3.19,2.863"/>
		<polyline points="58.798,128.966 58.419,129.804 62.31,129.409 60.288,125.944 59.741,126.828 		"/>
	</g>
	<g>
		<circle fill="#FFFFFF" stroke="#000000" stroke-width="0.4" stroke-miterlimit="1" cx="182.393" cy="48.325" r="48.125"/>
		<path fill="none" stroke="#000000" stroke-width="0.4" stroke-miterlimit="1" d="M190.264,33.505"/>
		
			<line fill="none" stroke="#000000" stroke-width="0.4" stroke-miterlimit="1" x1="173.297" y1="69.193" x2="173.297" y2="82.908"/>
		<path fill="none" stroke="#000000" stroke-width="0.4" stroke-miterlimit="1" d="M173.216,18.635c0,0,0,0,0.479,0
			c4.691,0,5.688,2.196,5.688,6.387c0,4.192,0,49.201,0,49.201h-4.491v-49.8c0,0,0.1-1.596-1.596-1.596c-1.698,0,0.417,0,0.417,0"/>
		<path fill="#FFFFFF" stroke="#000000" stroke-width="0.4" stroke-miterlimit="1" d="M178.488,21.53
			c0,1.875-1.329,3.571-2.944,3.393c-4.542-0.499-2.944-1.518-2.944-3.393c0-1.874-1.099-3.693,2.944-3.394
			C177.165,18.256,178.488,19.656,178.488,21.53z"/>
		
			<ellipse fill="#FFFFFF" stroke="#000000" stroke-width="0.4" stroke-miterlimit="1" cx="173.947" cy="21.43" rx="2.945" ry="3.393"/>
		<polyline fill="none" stroke="#000000" stroke-width="0.4" stroke-miterlimit="1" points="179.584,24.723 179.884,24.723 
			179.884,33.306 		"/>
		<path fill="#FFFFFF" stroke="#000000" stroke-width="0.4" stroke-miterlimit="1" d="M190.264,33.505c0,0-2.895-0.499-4.492-0.598
			c-1.597-0.101-2.693-0.5-4.69,0.199c-1.996,0.699-4.99,1.099-6.188,1.398c-1.197,0.299-1.995,0.2-1.995,0.798
			c0,0.599,0,9.981,0,9.981s1.396-0.399,1.696-0.499c0.299-0.1,2.595-0.699,2.595-0.699s0,6.387,0,9.083
			c0,2.695-1.298,2.895-1.896,2.994c-0.6,0.099-2.396,0.299-2.396,0.299v9.681c0,0,7.685-0.799,8.981-0.799
			c1.298,0,3.295-0.397,4.99-0.199c1.698,0.199,3.593,0.4,3.593,0.4L190.264,33.505z"/>
		
			<line fill="none" stroke="#000000" stroke-width="0.4" stroke-miterlimit="1" x1="172.898" y1="45.283" x2="174.594" y2="45.681"/>
		<path fill="none" stroke="#000000" stroke-width="0.4" stroke-miterlimit="1" d="M177.189,46.081c0,0-3.991-0.2-2.595,1.297"/>
		<path fill="none" stroke="#000000" stroke-width="0.4" stroke-miterlimit="1" d="M177.189,47.977c0,0-3.991-0.2-2.595,1.298"/>
		<path fill="none" stroke="#000000" stroke-width="0.4" stroke-miterlimit="1" d="M177.189,49.873c0,0-3.991-0.2-2.595,1.297"/>
		<path fill="none" stroke="#000000" stroke-width="0.4" stroke-miterlimit="1" d="M177.189,51.77c0,0-3.991-0.2-2.595,1.297"/>
		<path fill="none" stroke="#000000" stroke-width="0.4" stroke-miterlimit="1" d="M177.189,53.666c0,0-3.991-0.2-2.595,1.297"/>
		
			<line fill="none" stroke="#000000" stroke-width="0.4" stroke-miterlimit="1" x1="180.783" y1="37.398" x2="180.783" y2="62.149"/>
		
			<line fill="none" stroke="#000000" stroke-width="0.4" stroke-miterlimit="1" x1="185.573" y1="33.605" x2="185.573" y2="63.246"/>
		<path fill="#FFFFFF" stroke="#000000" stroke-width="0.4" stroke-miterlimit="1" d="M186.87,67.337c0,0-8.482-0.598-11.376-0.499
			c-2.894,0.101-5.888,0.799-6.189,1.697c-0.299,0.899,0,16.709,0,16.709s6.089-0.342,8.484-0.143c2.395,0.201,2.794,0,2.794,0
			v-1.894c0,0-3.492-0.3-5.39-0.201c-1.896,0.099-5.488,0.898-5.488,0.898V69.534c0,0,4.191-0.998,10.279-1.098v14.571"/>
		
			<line fill="none" stroke="#000000" stroke-width="0.4" stroke-miterlimit="1" x1="187.269" y1="65.242" x2="187.269" y2="90.293"/>
		<polyline fill="none" stroke="#000000" stroke-width="0.4" stroke-miterlimit="1" points="179.581,0.944 179.884,24.723 
			186.172,25.522 186.172,32.807 		"/>
		<g>
			<g>
				<polygon stroke="#FFFFFF" stroke-width="4" stroke-linejoin="round" points="170.551,28.642 167.457,25.873 164.362,28.642 
					165.414,28.642 165.414,36.211 169.498,36.211 169.498,28.642 				"/>
				<polygon stroke="#000000" stroke-linecap="round" points="170.551,28.315 167.457,25.546 164.362,28.315 165.414,28.315 
					165.414,35.884 169.498,35.884 169.498,28.315 				"/>
			</g>
			<g>
				<polygon fill="none" stroke="#000000" stroke-width="0.4" stroke-miterlimit="1" points="170.551,28.642 167.457,25.873 
					164.362,28.642 165.414,28.642 165.414,36.211 169.498,36.211 169.498,28.642 				"/>
				<polygon fill="none" stroke="#000000" stroke-width="0.4" stroke-miterlimit="1" points="170.551,28.315 167.457,25.546 
					164.362,28.315 165.414,28.315 165.414,35.884 169.498,35.884 169.498,28.315 				"/>
			</g>
		</g>
	</g>
</g>
<g id="callouts">
	<g>
		<circle cx="207.137" cy="51.869" r="7.087"/>
		<text transform="matrix(1 0 0 1 204.3521 55.1973)" fill="#FFFFFF" font-family="'Helvetica'" font-size="10">2</text>
	</g>
	<g>
		<circle cx="206.137" cy="27.119" r="7.087"/>
		<text transform="matrix(1 0 0 1 203.3521 30.4473)" fill="#FFFFFF" font-family="'Helvetica'" font-size="10">3</text>
	</g>
	
		<line fill="none" stroke="#FFFFFF" stroke-width="3" stroke-linecap="round" stroke-linejoin="round" stroke-miterlimit="1" x1="176.527" y1="27.225" x2="197.194" y2="27.225"/>
	
		<line fill="none" stroke="#000000" stroke-width="0.5" stroke-linecap="round" stroke-linejoin="round" stroke-miterlimit="1" x1="177.027" y1="27.475" x2="196.694" y2="27.475"/>
	
		<line fill="none" stroke="#FFFFFF" stroke-width="3" stroke-linecap="round" stroke-linejoin="round" stroke-miterlimit="1" x1="196.278" y1="53.142" x2="187.528" y2="53.142"/>
	
		<line fill="none" stroke="#000000" stroke-width="0.5" stroke-linecap="round" stroke-linejoin="round" stroke-miterlimit="1" x1="196.278" y1="53.142" x2="187.528" y2="53.142"/>
</g>
</svg>
