<?xml version="1.0" encoding="utf-8"?>
<!-- Generator: Adobe Illustrator 26.0.3, SVG Export Plug-In . SVG Version: 6.00 Build 0)  -->
<svg version="1.1" xmlns="http://www.w3.org/2000/svg" xmlns:xlink="http://www.w3.org/1999/xlink" x="0px" y="0px"
	 viewBox="0 0 360 319.6" style="enable-background:new 0 0 360 319.6;" xml:space="preserve">
<style type="text/css">
	.st0{fill:#D0CFCD;}
	.st1{fill:none;stroke:#000000;stroke-width:0.5;stroke-linecap:round;stroke-linejoin:round;stroke-miterlimit:10;}
	.st2{fill:none;stroke:#FFFFFF;stroke-width:3;stroke-linecap:round;stroke-linejoin:round;}
	.st3{stroke:#000000;stroke-width:0.5;stroke-linecap:round;stroke-linejoin:round;}
	
		.st4{fill-rule:evenodd;clip-rule:evenodd;fill:none;stroke:#000000;stroke-width:0.4556;stroke-linejoin:bevel;stroke-miterlimit:22.9256;}
	
		.st5{fill-rule:evenodd;clip-rule:evenodd;fill:none;stroke:#D0CFCD;stroke-width:0.4556;stroke-linejoin:bevel;stroke-miterlimit:22.9256;}
	
		.st6{fill-rule:evenodd;clip-rule:evenodd;fill:none;stroke:#000000;stroke-width:0.2783;stroke-linejoin:bevel;stroke-miterlimit:22.9256;}
	
		.st7{fill-rule:evenodd;clip-rule:evenodd;fill:none;stroke:#D0CFCD;stroke-width:0.2783;stroke-linejoin:bevel;stroke-miterlimit:22.9256;}
	
		.st8{fill-rule:evenodd;clip-rule:evenodd;fill:none;stroke:#D0CFCD;stroke-width:0.5695;stroke-linejoin:bevel;stroke-miterlimit:22.9256;}
	.st9{fill:none;stroke:#000000;stroke-width:0.4556;stroke-linejoin:bevel;stroke-miterlimit:22.9256;}
	.st10{fill:none;stroke:#D0CFCD;stroke-width:0.4556;stroke-linejoin:bevel;stroke-miterlimit:22.9256;}
	.st11{fill-rule:evenodd;clip-rule:evenodd;fill:none;stroke:#000000;stroke-width:0.4556;stroke-miterlimit:22.9256;}
	.st12{fill-rule:evenodd;clip-rule:evenodd;fill:none;stroke:#000000;stroke-width:0.5695;stroke-miterlimit:22.9256;}
	.st13{fill-rule:evenodd;clip-rule:evenodd;fill:#D0CFCD;}
	.st14{fill-rule:evenodd;clip-rule:evenodd;fill:none;stroke:#D0CFCD;stroke-width:0.4556;stroke-miterlimit:22.9256;}
	.st15{fill:none;stroke:#D0CFCD;stroke-width:0.2783;stroke-linejoin:bevel;stroke-miterlimit:22.9256;}
	.st16{fill-rule:evenodd;clip-rule:evenodd;fill:none;stroke:#000000;stroke-width:0.2783;stroke-miterlimit:22.9256;}
	.st17{fill-rule:evenodd;clip-rule:evenodd;}
	
		.st18{fill-rule:evenodd;clip-rule:evenodd;stroke:#FFFFFF;stroke-width:0.5;stroke-linecap:round;stroke-linejoin:round;stroke-miterlimit:22.9256;}
	.st19{fill:#231F20;stroke:#FFFFFF;stroke-width:1.5;stroke-miterlimit:10;}
	.st20{fill:none;}
	.st21{fill:#FFFFFF;}
	.st22{font-family:'ArialMT';}
	.st23{font-size:21px;}
	.st24{letter-spacing:-1;}
</style>
<g id="Layer_6">
	<polygon class="st0" points="143.8,142.7 144.1,140.8 145.8,139.7 150.6,142.6 150.7,136.5 152.2,135.6 157.2,138.6 157.1,132.1 
		158.8,131.1 214.1,167.9 214.4,174.8 215.5,174.5 217,174.8 217,175.7 219.2,177.5 219.5,182.2 190.9,200.3 189.2,198.8 
		188.1,198.8 173.7,189.2 173.4,162.3 	"/>
	<polygon class="st0" points="73.3,192.3 73.4,186.4 74.8,185.2 79.7,187.8 80.2,181.9 81.4,180.5 86.2,183.1 86.5,177.1 
		88.2,176.6 92.8,179.2 93.1,172.9 94.6,172.1 150.1,208.7 150.3,215.6 152.4,214.8 154.7,213.3 156.2,213.7 156.3,214.6 
		158.3,216.2 158.3,217.7 158.4,221.2 137.1,235 	"/>
	<path class="st0" d="M151.2,243.9l-0.1-6.1l1.6-1l5.1,2.7l0.1-6.2l1.7-1l7.5,4.8l0.3-9.3l1.4-1.2l55.4,36.4l0.1,5.9l-16,10.3
		l-1.4,0.6l-2.2-0.3l-25-16.2l-1.3,0.3l1,1l1.6,0.9c0,0,0.6,2-1,1.3c-1.6-0.7-5.1-3.5-5.1-3.5l-0.9-1.6l-1-3.2L151.2,243.9z"/>
	<polygon class="st0" points="238.3,249.4 246.4,254.8 278.9,234.6 278.2,228.2 223.1,192 221.4,192.7 221.2,198.5 216.3,195.5 
		215,196.8 214.8,203.3 209.8,200 208.4,201.1 208.1,202 238.3,222.4 	"/>
</g>
<g id="Unit">
	<path class="st1" d="M204.4,312.6l0.3-24.5c0,0,0.4-1.2-1.6-2.3c-2-1.1-194.6-128.9-194.6-128.9v26.1l195.8,129.9l1.7-1"/>
	<path class="st1" d="M8.6,156.8l0.6-1.3l0.1-3c0,0,0-0.8,0.8-0.6c0.8,0.2,4.7,1.8,4.7,1.8l1.3,2.2v1.2l0.7,1.3l5.9,3.9
		c0,0,0.7,0.3,0.4-0.7c0,0-0.2-0.6-0.8-0.9c-0.6-0.3-1.8-1.1-1.8-1.1l-0.4-0.9l1.2-0.5l151.9,100.7l1.3,2.1l0,1.2l0.6,1.2l5.8,3.8
		c0,0,0.6,0.4,0.7-0.2c0.1-0.7-0.7-1.2-0.7-1.2l-1.9-1.2l-0.3-0.8l1.1-0.5l20,13.2c0,0,0.4,0.2,0.6,0.8c0.1,0.2,0.1,0.5,0.1,0.8
		c-0.1,1.3,0,4.2,0,4.2l-0.6,1.2"/>
	<path class="st1" d="M324.7,205.3l-115.6,73.8c0,0-1,0.4-0.9,1.7"/>
	<polyline class="st1" points="206.1,279.8 205.7,311.3 208.3,312.9 	"/>
	<path class="st1" d="M208.6,312.8l-1.3-2.6l1.3-2.6l0.3-17.8c0,0,0.2-2.9,3.4-1.7l9.8,6.5c0,0,1.5,1.3,3,0.3l28.7-18.7l0.4-1.1"/>
	<path class="st1" d="M313.1,238.3l21-13.4c0,0,0.1-1.3-1-2c-1-0.7-2.9-2.1-2.9-2.1s-0.7-0.3-1.8,0.4S246,273.9,246,273.9l-0.9-0.2
		l-23.3,14.9c0,0-1.2,0.5-0.3,1.1c0.9,0.6,3.5,2.4,3.5,2.4s1,1.1,0.8,2.1"/>
	<path class="st1" d="M268.2,278.6c0,0-7.6,4.9-9.6,6.1c-2.1,1.3-2.3-0.7-2.3-0.7l0-5.9l58-36.9"/>
	<path class="st1" d="M272.2,276c0,0,1.3-0.8,2.9-3.1c1.6-2.3,3.3-3.1,3.3-3.1s31.5-20.1,33.9-21.7c2.4-1.6,2-2.8,2-2.8l0.2-4
		c0,0-1-1.9-1.3-2.5c-0.3-0.6-1-1-1-1l-58.2,37.2c0,0,0.7,0.6,0.8,1.2c0.2,0.6,1.2,1.9,1.2,1.9"/>
	<path class="st1" d="M210.2,314.9l0.6,0.7l2.1,1.3c0,0,1.1,0.7,1.2-0.9c0.1-1.6,0.3-20.5,0.3-20.5s0.1-0.9,1-0.4
		c1,0.5,6.4,4.3,6.4,4.3s1.7,1.3,4.1-0.3c2.6-1.7,25.5-16.3,25.5-16.3s2.2,3.9,6.1,2.3"/>
	<line class="st1" x1="224.9" y1="295" x2="224.9" y2="299.6"/>
	<path class="st1" d="M214,316.7c0,0,1.2,1.2,2.1,0.8c0.9-0.4,115.4-73.7,115.4-73.7l0-0.8"/>
	<path class="st1" d="M331.9,232.1l0,9.5c0,0,0,1.4-1,1.7l-31.3,20.1l0.1-5.9l16-10.3l0.1-4.8"/>
	<path class="st1" d="M314.5,243.1l19.3-12.2c0,0,0.2-0.3,0.2-0.8c0,0,1,0,1-1.4c0-1.4,0-13.3,0-13.3s0.1-1.1-0.8-1.6
		c-0.9-0.5-1.3-0.8-1.3-0.8"/>
	<line class="st1" x1="332.9" y1="210.9" x2="332.7" y2="222.6"/>
	<path class="st1" d="M333.7,231.1l-0.1,9.1c0,0,0.1,1.3-1.7,1.4"/>
	<polygon class="st1" points="316.7,243.9 324.2,239.1 324.2,245.6 316.7,250.5 	"/>
	<path class="st1" d="M310.2,252.8l3-1.9c0,0,0.4,0,0.4,0.3s0,0.7,0,0.7l-0.7,1l-2.3,1.5l-0.7-0.2l-0.1-0.9L310.2,252.8z"/>
	
		<ellipse transform="matrix(0.5351 -0.8448 0.8448 0.5351 -73.0938 378.5833)" class="st1" cx="307.4" cy="255.7" rx="0.9" ry="0.7"/>
	
		<ellipse transform="matrix(0.5351 -0.8448 0.8448 0.5351 -76.0347 377.1292)" class="st1" cx="304.6" cy="257.6" rx="0.9" ry="0.7"/>
	
		<ellipse transform="matrix(0.5351 -0.8448 0.8448 0.5351 -78.9755 375.675)" class="st1" cx="301.8" cy="259.6" rx="0.9" ry="0.7"/>
	<path class="st1" d="M288.8,258.7l10.9-6.9c0,0,0.5-0.5,0.5,0.3s0,2.1,0,2.1s-0.1,0.5-0.8,0.9c-0.7,0.5-10.6,6.8-10.6,6.8
		s-0.5,0.4-0.5-0.2s0-2.4,0-2.4S288.5,258.9,288.8,258.7z"/>
	<path class="st1" d="M263.1,280.3l5.7-2.1h0.6c0,0,2.9-1,3.3-4c0,0,0.4-2.7-2.1-1.5l-1.3,0.8l-5.9,1.9l-2.8,1.8
		c0,0-2.6,2.4-1.6,4.5c0,0,0.5,0.9,2,0.1S263.1,280.3,263.1,280.3z"/>
	<path class="st1" d="M264.4,273.9l4.8-1.3c0,0,1.7-1.7,3.1-0.8c0,0,0.8,0.7,0.5,2"/>
	<path class="st1" d="M272.5,275.4c0,0,2.4-3.2,1.7-5.4c0,0-0.3-1.7-2.7-0.8l-10.8,6.9c0,0-3.9,3.4-2.7,6.5c0,0,0.4,1.6,3.2,0.3"/>
	<polyline class="st1" points="241.8,275.7 241.8,272.3 247.4,268.7 248.2,269.1 248.2,272.4 	"/>
	<polyline class="st1" points="249.9,271.2 248.6,267.9 251.3,266.2 252.7,267 252.7,269.4 	"/>
	<line class="st1" x1="244.1" y1="274.2" x2="241.9" y2="272.7"/>
	<line class="st1" x1="216.2" y1="285.4" x2="216.1" y2="290.5"/>
	
		<ellipse transform="matrix(0.833 -0.5533 0.5533 0.833 -122.5289 163.8534)" class="st1" cx="210.2" cy="284.9" rx="1.2" ry="1.7"/>
	<ellipse transform="matrix(0.833 -0.5533 0.5533 0.833 -125.9318 159.9455)" class="st1" cx="202" cy="288.6" rx="1.2" ry="1.7"/>
	<ellipse transform="matrix(0.833 -0.5533 0.5533 0.833 -131.122 161.5122)" class="st1" cx="202" cy="298" rx="1.2" ry="1.7"/>
	<ellipse transform="matrix(0.833 -0.5533 0.5533 0.833 -136.3123 163.0789)" class="st1" cx="202" cy="307.3" rx="1.2" ry="1.7"/>
	<polygon class="st1" points="37.4,162.1 59.9,147.7 65.8,151.5 69.9,148.9 83.1,157.8 60.7,172.1 54.8,168.1 50.6,171 	"/>
	<polygon class="st1" points="66.8,143.6 79.8,152 84.3,149.7 89.9,153.4 112.6,139.1 99.3,130 95.1,132.8 89.3,128.8 	"/>
	<polygon class="st1" points="96.3,124.7 109.5,133.4 113.6,130.8 119.7,134.4 142.1,120.2 128.8,111.3 124.7,114.1 118.8,110 	"/>
	<polygon class="st1" points="117.7,156.1 110.7,151.5 125.2,142.1 132.8,147 141.8,141.4 173.5,162.4 164.9,168.5 172,173.4 
		157.9,182.9 150.1,177.5 141.2,183.5 109.1,162.1 	"/>
	<polygon class="st1" points="175.6,211.5 190,202.3 197.5,207.2 206.5,201.4 238.4,222.6 229.7,228.5 236.6,233.2 222.6,242.7 
		214.8,237.8 205.9,243.7 174,222.3 182.8,216.5 	"/>
	<polyline class="st1" points="157.9,182.9 157.3,206.3 172.1,197 172,173.4 	"/>
	<polyline class="st1" points="150.1,177.5 150,201.1 157.3,206.3 	"/>
	<line class="st1" x1="143.6" y1="204.4" x2="150" y2="201.1"/>
	<line class="st1" x1="140.9" y1="202.4" x2="141.2" y2="183.5"/>
	<line class="st1" x1="109.1" y1="162.1" x2="108.8" y2="181.1"/>
	<line class="st1" x1="110.7" y1="151.5" x2="110.5" y2="161.1"/>
	<line class="st1" x1="112.6" y1="139.1" x2="112.3" y2="150.1"/>
	<polyline class="st1" points="110.3,158.7 89.7,171.9 83.1,167.6 	"/>
	<line class="st1" x1="119.4" y1="145.7" x2="119.7" y2="134.4"/>
	<polyline class="st1" points="130.9,145.5 141.9,138.5 142.1,120.2 	"/>
	<line class="st1" x1="96.3" y1="124.7" x2="96.1" y2="132"/>
	<line class="st1" x1="113.6" y1="130.8" x2="113.3" y2="149.8"/>
	<line class="st1" x1="109.5" y1="133.4" x2="109.4" y2="136.6"/>
	<polyline class="st1" points="92.3,130.7 94.4,129.4 96.1,128.4 	"/>
	<line class="st1" x1="94.5" y1="132.2" x2="94.4" y2="129.4"/>
	<line class="st1" x1="62.9" y1="149.5" x2="66.4" y2="147.3"/>
	<line class="st1" x1="66.8" y1="143.6" x2="66.5" y2="151"/>
	<line class="st1" x1="79.8" y1="152" x2="79.9" y2="155.4"/>
	<line class="st1" x1="84.3" y1="149.7" x2="84.2" y2="168.3"/>
	<line class="st1" x1="89.9" y1="153.4" x2="89.7" y2="171.9"/>
	<polyline class="st1" points="83.1,157.8 83,176 65.6,187.2 	"/>
	<line class="st1" x1="60.7" y1="172.1" x2="60.5" y2="184"/>
	<line class="st1" x1="54.8" y1="168.1" x2="54.6" y2="180.1"/>
	<line class="st1" x1="50.6" y1="171" x2="50.5" y2="177.3"/>
	<line class="st1" x1="37.4" y1="162.1" x2="37.2" y2="168.4"/>
	<path class="st1" d="M124.1,99.1l0.2-1.3l4.2-2.3l0.2-3.3l-1.2-0.7l0.2-4.2l1-1.3l0.2-6l-0.5-0.6v-3.1l0.9-0.6l5.3,1.9l1.3,2.2
		l-0.1,1.2l0.7,1.2l4.9,3.2c0,0,0.1,1.1-3,1.1c0,0-3.8-1.2-4.5,0.4c0,0-0.7,1.7,0.9,2.6c1.6,0.9,14,9.2,14,9.2s1.5,1.2,3.8,1.2
		c0,0,0.7-0.1,3.7,2.1s37.5,24.9,37.5,24.9s1.1,0.6,0.3,1.5c0,0-0.4,0.6,0.7,1.3s53,35.1,53,35.1s1.1,0.7,1,1.9c0,0-0.3,1.1,1.1,1.9
		s62.4,41.3,62.4,41.3s0.7,1.6,2.2,0.9c1.6-0.7,6.3-4,6.3-4s0.5-0.4-0.1-1.3c-0.2-0.3-0.5-0.7-1.1-1.2l0.9-0.6l-2.7-1.8l-2.1,0
		l0.1-1.4l-2.6-1.8l-2.5,1.6c0,0-1.2,0.7-3-0.6s-6.5-4.3-6.5-4.3s-0.8-0.9,0.3-1.6c1.1-0.7,2.2-1.4,2.2-1.4l-2.8-1.7"/>
	<path class="st1" d="M159.7,97.7l-0.3-0.2l-0.1-0.9l-0.7-0.7l0-1.2l-4.2-2.8c0,0-0.7-0.1-0.7,0.9c0,0-0.7-0.5-1.8-0.3l-1.5-0.9
		l-0.3-0.7l-1.7,1.2c0,0,7.9,5.2,9.1,6.1c1.2,0.9,1.6,0.4,1.6,0.4l1.2-0.9l8,5.2l-0.1,1.5l2.1,0l22.7,15l0.2,1.6h2.1l8.2,5.6
		l-2.2,1.3c-1.1,0.8-0.2,1.6-0.2,1.6l7.5,4.9c1.8,1.4,3.3,0.3,3.3,0.3l2-1.3l6.3,4.1l-1.9,1.1c0,0,8.2,5.6,9.4,6.3
		c1.2,0.8,1.6,0.2,1.6,0.2l1.2-0.7l6,3.8l-0.1,1.4l2.1,0.1l5.7,3.7c0,0-0.9,0.5-2.2,1.3s-0.2,1.7-0.2,1.7s4.9,3.1,6.6,4.4
		c1.7,1.3,3,0.4,3,0.4l2.3-1.4l7.2,4.7v1.5l2.1-0.1l20.4,13.5c-0.7,1.7,0.4,1.3,0.4,1.3h1.6l5.2,3.5l-0.9,0.7l9.2,6.1
		c0.9,0.7,1.6-0.1,1.6-0.1c0-0.3-0.7-1-0.7-1s-0.7-0.5-1.7-1.1c-1-0.5-0.3-1.3-0.3-1.3l1.2-0.5l20.5,13.6l0.2,0.7l0.6-0.2l4,2.8
		l-0.9,0.7l1.1,0.7l8.2,5.5c0,0-115.6,73.8-116.5,74.4c-0.9,0.6-1.6,0-1.6,0s-7.5-4.9-8.3-5.5c-0.8-0.5-0.8,0-0.8,0
		c-0.8,0.5-1.5-0.2-1.5-0.2l-3.7-2.4"/>
	<path class="st1" d="M149.7,90.6l-2-1.3l-2.2,0l0.2-1.4l-3.5-2.4c-0.1-0.4-1.3-1.3-2.2-1.8c-0.9-0.5-0.4-1.2-0.4-1.2L141,82
		L292.9,183l1,1.8v1.3l0.8,1.3l5.4,3.6"/>
	<polyline class="st1" points="312,199.1 311.5,198 306.8,194.8 304.8,194.4 303.7,193.7 303.4,192.5 	"/>
	<line class="st1" x1="319.9" y1="201.4" x2="319.9" y2="203.4"/>
	<line class="st1" x1="320.4" y1="203.8" x2="320.4" y2="205.1"/>
	<polyline class="st1" points="244.5,153.4 244.7,154.7 245.8,155.5 247.8,155.7 252.7,159 253.2,160.2 	"/>
	<path class="st1" d="M230.4,144.7l-0.7-0.5l-0.1-0.9l-0.6-0.5l-0.1-1c0,0-0.1-0.6-0.7-1c-0.7-0.4-3.5-2.3-3.5-2.3s-0.7,0.1-0.6,1.2
		c0,0,0-0.5-1.7-0.5l-1.6-0.9l-0.3-0.8"/>
	<polyline class="st1" points="203.7,126.4 204,127.7 205.7,128.9 207.9,129.2 212.2,132.1 212.7,133.3 213.3,133.7 	"/>
	<path class="st1" d="M138.2,91.9c0,0-1.8,0.3-1.8,3.3c0,3-0.3,18.3-0.3,18.3l4.6,3.3c0,0,1.9,1.4,3.8-0.5"/>
	<path class="st1" d="M144.1,95.8L144,97l-4.5-2.9c0,0-0.7-0.4-0.7,1.2c0,1.5-0.1,10.8-0.1,10.8"/>
	<path class="st1" d="M147.9,115.9l28.6,18.6c0,0,1.2,1.2,1.2,1.9"/>
	<path class="st1" d="M179.5,139.3c0,0,1.4,1.1,2.4,0.4c1-0.7,1.7-0.2,1.7-0.2l15.3,10.1c0,0,1,0.4,0.9,1.8
		c-0.1,1.4-0.1,4.8-0.1,4.8s0,1,1.9,1.9"/>
	<ellipse transform="matrix(0.8072 -0.5902 0.5902 0.8072 -46.7616 132.1897)" class="st1" cx="179" cy="137.7" rx="1.2" ry="1.8"/>
	<path class="st1" d="M177.9,135.6c0.1-0.2,0.2-0.3,0.3-0.4c0.7-0.5,2-0.1,2.8,1c0.8,1.1,0.9,2.4,0.1,3c-0.3,0.2-0.7,0.3-1.2,0.2"/>
	<polyline class="st1" points="201.6,159.5 201.7,150.7 208.9,146 209,140.5 210,140 	"/>
	<polyline class="st1" points="214.7,143.2 206.8,148.4 230.2,164 238.3,158.7 	"/>
	<line class="st1" x1="213.8" y1="143.7" x2="209" y2="140.5"/>
	<polyline class="st1" points="206.8,148.4 206.6,154.4 201.7,150.7 	"/>
	<polyline class="st1" points="230.2,164 229.9,182.5 238.3,177.1 	"/>
	<polyline class="st1" points="238.6,159 238.3,182.8 237,183.7 237.1,177.9 	"/>
	<polyline class="st1" points="229.9,182.5 225,179.3 225,185.1 229.1,182.3 	"/>
	<line class="st1" x1="232.9" y1="180.8" x2="237" y2="183.7"/>
	<line class="st1" x1="219.7" y1="181.5" x2="224.9" y2="185"/>
	<polyline class="st1" points="246.7,185.7 245.5,186.4 278.6,208.5 279.8,207.7 	"/>
	<polyline class="st1" points="245.6,186.9 245.6,187.5 245,187.8 245,189.6 246.3,190.5 246.3,189.2 277.9,210.2 277.8,211.5 
		279,212.2 279,210.6 	"/>
	<path class="st1" d="M300.1,220.8l-14.5-9.7c0,0-0.7-0.3-0.7,0.7l-3-1.8c0,0,0.4-0.7-0.3-1.4l-2.2-1.5c0,0-0.7-0.2-0.7,0.4
		l-31.4-21c0.3-1-0.8-1.5-0.8-1.5s-1.5-1-1.9-1.2c-0.4-0.2-0.6,0.2-0.6,0.2s0,0.4,0,1.2s-0.6,0.4-0.6,0.4l-4.8-3.2"/>
	<polyline class="st1" points="278.6,208.5 278.5,210 279.4,210.5 281.8,209 	"/>
	<path class="st1" d="M287.6,213.5"/>
	<polyline class="st1" points="280.4,211.1 280.4,212.7 285.5,216 286.1,215.7 286.1,214.5 285.6,214.7 284.9,214.4 286.8,213.1 
		287.3,213.5 286.9,213.9 286.9,215.1 289.1,213.9 	"/>
	<polyline class="st1" points="221.3,199 221.5,192.8 223.1,191.8 278.5,228.5 278.8,234.4 	"/>
	<polyline class="st1" points="214.7,202.9 214.7,196.8 216.4,195.6 272.1,232.8 272.2,238.5 	"/>
	<polyline class="st1" points="208.1,202.5 208.1,201.1 209.8,200.1 265.5,236.9 265.5,242.7 	"/>
	<polyline class="st1" points="238.4,222.6 238.4,227.6 238.3,249.5 246.5,254.8 	"/>
	<polyline class="st1" points="238.4,227.6 258.8,241.2 258.8,247.4 	"/>
	<polyline class="st1" points="238.6,230 257.1,242.2 257.1,248.3 	"/>
	<polyline class="st1" points="263.8,244 263.8,237.9 208.1,201.1 	"/>
	<polyline class="st1" points="214.7,196.8 270.2,233.7 270.3,239.8 	"/>
	<polyline class="st1" points="277.1,235.7 276.9,229.5 221.7,193 	"/>
	<polyline class="st1" points="236.6,233.2 236.6,257.4 224.7,264.8 	"/>
	<line class="st1" x1="205.9" y1="243.7" x2="205.6" y2="250.5"/>
	<line class="st1" x1="214.8" y1="237.8" x2="214.7" y2="256.8"/>
	<line class="st1" x1="222.6" y1="242.7" x2="222.1" y2="261.3"/>
	<line class="st1" x1="175.6" y1="211.5" x2="175.3" y2="221.1"/>
	<line class="st1" x1="174" y1="222.3" x2="173.8" y2="229.1"/>
	<polyline class="st1" points="167.1,237.1 167,227.6 168.8,226.4 224.4,263.3 224.2,269.2 	"/>
	<polyline class="st1" points="157.8,239.3 157.8,233.5 159.4,232.3 215,269.2 215,275.2 	"/>
	<polyline class="st1" points="151.3,244 151.3,237.8 152.9,236.6 208.6,273.3 208.4,279.6 	"/>
	<polyline class="st1" points="158.4,233.5 213.3,270.1 213.4,276.4 	"/>
	<polyline class="st1" points="167,227.6 222.8,264.4 222.6,270.3 	"/>
	<polyline class="st1" points="151.3,237.8 206.8,274.4 206.7,279.8 	"/>
	<line class="st1" x1="206.8" y1="274.4" x2="208.6" y2="273.3"/>
	<line class="st1" x1="213.3" y1="270.1" x2="215" y2="269.2"/>
	<line class="st1" x1="222.8" y1="264.4" x2="224.4" y2="263.3"/>
	<line class="st1" x1="204.2" y1="279.6" x2="204.3" y2="286.3"/>
	<line class="st1" x1="257.1" y1="242.2" x2="258.8" y2="241.2"/>
	<line class="st1" x1="263.8" y1="237.9" x2="265.5" y2="236.9"/>
	<line class="st1" x1="270.2" y1="233.7" x2="272.1" y2="232.8"/>
	<line class="st1" x1="276.9" y1="229.5" x2="278.5" y2="228.5"/>
	<polyline class="st1" points="73.2,192.2 73.2,186 74.9,184.9 79.6,188 130.4,221.4 130.5,230.1 	"/>
	<polyline class="st1" points="137,224.3 137,217.3 86.2,183.5 81.5,180.4 79.8,181.7 79.6,188 	"/>
	<polyline class="st1" points="143.5,220 143.5,213.1 88.1,176.4 86.4,177.3 86.2,183.5 	"/>
	<polyline class="st1" points="93,179 93.2,173 94.7,172.1 150.3,209 150.3,215.7 	"/>
	<polyline class="st1" points="86.4,177.3 142,214.1 142.1,221.1 	"/>
	<polyline class="st1" points="79.8,181.7 135.3,218.4 135.4,225.4 	"/>
	<polyline class="st1" points="73.2,186 128.7,222.5 128.7,229.1 	"/>
	<polyline class="st1" points="93.2,173 148.7,210 148.7,217 	"/>
	<line class="st1" x1="128.7" y1="222.5" x2="130.4" y2="221.4"/>
	<line class="st1" x1="135.3" y1="218.4" x2="137" y2="217.3"/>
	<line class="st1" x1="142" y1="214.1" x2="143.5" y2="213.1"/>
	<line class="st1" x1="148.7" y1="210" x2="150.3" y2="209"/>
	<polyline class="st1" points="143.9,142.7 144,140.8 145.7,139.6 150.5,142.8 201.2,176.4 201.2,183.4 	"/>
	<polyline class="st1" points="207.8,179.3 207.7,172.1 152.3,135.5 150.7,136.5 150.5,142.8 	"/>
	<polyline class="st1" points="157.3,137.9 157.2,132.3 158.9,131.1 214.3,167.9 214.3,175.1 	"/>
	<polyline class="st1" points="174,166.8 194.5,180.6 194.7,187.6 	"/>
	<polyline class="st1" points="173.5,162.4 173.6,169.1 173.8,189.2 187.8,198.7 188.6,198.7 189.5,199.2 189.9,199.9 190.8,200.4 
		193.6,198.8 193.6,193.9 191.7,192.5 191.3,191.2 189.9,190.9 189.8,194.6 	"/>
	<polyline class="st1" points="173.6,169.1 192.8,181.5 192.9,188.7 	"/>
	<polyline class="st1" points="144,140.8 199.5,177.5 199.5,184.3 	"/>
	<polyline class="st1" points="157.2,132.3 212.7,168.9 212.7,175.8 	"/>
	<polyline class="st1" points="151.2,136.8 206.1,173.2 206.1,180.4 	"/>
	<line class="st1" x1="192.8" y1="181.5" x2="194.5" y2="180.6"/>
	<line class="st1" x1="199.5" y1="177.5" x2="201.2" y2="176.4"/>
	<line class="st1" x1="206.1" y1="173.2" x2="207.7" y2="172.1"/>
	<line class="st1" x1="212.7" y1="168.9" x2="214.3" y2="167.9"/>
	<polyline class="st1" points="173.8,183.6 188.3,193.7 190.9,195.5 190.8,200 	"/>
	<line class="st1" x1="188.1" y1="198.6" x2="188.3" y2="193.9"/>
	<g>
		<polyline class="st1" points="190,190.7 192.4,189.2 193.8,189.6 194.1,190.5 196.1,192.2 196.1,192.8 196,193.3 194.3,194.3 
			194.2,198.2 196.9,196.6 196.9,193 		"/>
		<line class="st1" x1="193.8" y1="189.9" x2="191.6" y2="191.2"/>
	</g>
	<g>
		<polyline class="st1" points="197,196.7 197.1,191.8 195.1,190.4 194.8,189.1 193.3,188.8 		"/>
		<g>
			<polyline class="st1" points="193.5,188.6 195.9,187.1 197.3,187.5 197.6,188.5 199.6,190.1 199.6,190.7 199.5,191.2 
				197.7,192.3 197.7,196.2 200.3,194.5 200.4,190.9 			"/>
			<line class="st1" x1="197.3" y1="187.8" x2="195" y2="189.2"/>
		</g>
	</g>
	<g>
		<polyline class="st1" points="200.1,194.6 200.2,189.7 198.3,188.3 197.9,187 196.5,186.7 		"/>
		<g>
			<polyline class="st1" points="196.6,186.5 199,185 200.4,185.4 200.7,186.4 202.7,188 202.7,188.6 202.6,189.1 200.9,190.2 
				200.8,194.1 203.5,192.4 203.5,188.8 			"/>
			<line class="st1" x1="200.4" y1="185.7" x2="198.2" y2="187.1"/>
		</g>
	</g>
	<g>
		<polyline class="st1" points="203.5,192.6 203.6,187.8 201.6,186.3 201.2,185 199.8,184.7 		"/>
		<g>
			<polyline class="st1" points="200,184.5 202.3,183 203.7,183.4 204,184.4 206,186.1 206.1,186.6 205.9,187.1 204.2,188.2 
				204.1,192.1 206.8,190.4 206.8,186.8 			"/>
			<line class="st1" x1="203.7" y1="183.7" x2="201.5" y2="185.1"/>
		</g>
	</g>
	<g>
		<polyline class="st1" points="206.8,190.5 206.8,185.6 204.9,184.2 204.5,182.9 203.1,182.6 		"/>
		<g>
			<polyline class="st1" points="203.2,182.4 205.6,180.9 207,181.3 207.3,182.2 209.3,183.9 209.4,184.5 209.2,185 207.5,186 
				207.4,190 210.1,188.3 210.1,184.7 			"/>
			<line class="st1" x1="207" y1="181.6" x2="204.8" y2="182.9"/>
		</g>
	</g>
	<g>
		<polyline class="st1" points="210,188.3 210.1,183.5 208.2,182 207.8,180.8 206.4,180.4 		"/>
		<g>
			<polyline class="st1" points="206.5,180.3 208.9,178.8 210.3,179.2 210.6,180.1 212.6,181.8 212.6,182.3 212.5,182.8 
				210.8,183.9 210.7,187.8 213.4,186.2 213.4,182.6 			"/>
			<line class="st1" x1="210.3" y1="179.4" x2="208.1" y2="180.8"/>
		</g>
	</g>
	<g>
		<polyline class="st1" points="213.3,186.2 213.4,181.3 211.4,179.9 211.1,178.6 209.6,178.3 		"/>
		<g>
			<polyline class="st1" points="209.8,178.1 212.2,176.6 213.6,177 213.9,178 215.9,179.6 215.9,180.2 215.8,180.7 214,181.8 
				214,185.7 216.6,184 216.7,180.4 			"/>
			<line class="st1" x1="213.6" y1="177.3" x2="211.3" y2="178.7"/>
		</g>
	</g>
	<g>
		<polyline class="st1" points="216.7,184.1 216.8,179.3 214.8,177.8 214.4,176.6 213,176.2 		"/>
		<g>
			<polyline class="st1" points="213.2,176 215.5,174.5 216.9,175 217.2,175.9 219.2,177.6 219.3,178.1 219.1,178.6 217.4,179.7 
				217.3,183.6 219.3,182.2 219.4,178.7 			"/>
			<line class="st1" x1="216.9" y1="175.2" x2="214.7" y2="176.6"/>
		</g>
	</g>
	<path class="st1" d="M189.8,192.5l2.7,2.7c0,0,0.5-0.4,1-0.3"/>
	<g>
		<polyline class="st1" points="132.1,231.5 132.2,227.9 133.6,228.2 134,229.5 135.9,230.9 135.9,231.7 		"/>
		<g>
			<polyline class="st1" points="137.2,234.8 139.2,233.6 139.2,230 			"/>
			<polyline class="st1" points="132.4,227.7 134.7,226.2 136.1,226.6 136.4,227.6 138.4,229.2 138.5,229.8 138.3,230.3 
				136.6,231.4 136.5,234.2 			"/>
			<line class="st1" x1="136.1" y1="226.9" x2="133.9" y2="228.2"/>
		</g>
	</g>
	<g>
		<polyline class="st1" points="139.3,233.4 139.4,228.6 137.4,227.1 137.1,225.9 135.6,225.5 		"/>
		<g>
			<polyline class="st1" points="135.8,225.4 138.1,223.9 139.5,224.3 139.8,225.2 141.8,226.9 141.9,227.4 141.8,227.9 140,229 
				139.9,232.9 142.6,231.3 142.6,227.7 			"/>
			<line class="st1" x1="139.5" y1="224.5" x2="137.3" y2="225.9"/>
		</g>
	</g>
	<g>
		<polyline class="st1" points="142.5,231.4 142.6,226.5 140.7,225.1 140.3,223.8 138.8,223.5 		"/>
		<g>
			<polyline class="st1" points="139,223.3 141.4,221.8 142.8,222.2 143.1,223.2 145.1,224.8 145.1,225.4 145,225.9 143.2,227 
				143.2,230.9 145.9,229.2 145.9,225.6 			"/>
			<line class="st1" x1="142.8" y1="222.5" x2="140.5" y2="223.9"/>
		</g>
	</g>
	<g>
		<polyline class="st1" points="145.9,229.3 146,224.4 144,223 143.7,221.7 142.2,221.4 		"/>
		<g>
			<polyline class="st1" points="142.4,221.2 144.8,219.7 146.2,220.1 146.5,221 148.5,222.7 148.5,223.3 148.4,223.8 146.6,224.8 
				146.6,228.8 149.2,227.1 149.3,223.5 			"/>
			<line class="st1" x1="146.2" y1="220.4" x2="143.9" y2="221.7"/>
		</g>
	</g>
	<g>
		<polyline class="st1" points="149.2,227.1 149.2,222.3 147.3,220.8 146.9,219.6 145.5,219.2 		"/>
		<g>
			<polyline class="st1" points="145.6,219 148,217.5 149.4,218 149.7,218.9 151.7,220.6 151.7,221.1 151.6,221.6 149.9,222.7 
				149.8,226.6 152.5,224.9 152.5,221.3 			"/>
			<line class="st1" x1="149.4" y1="218.2" x2="147.2" y2="219.6"/>
		</g>
	</g>
	<g>
		<polyline class="st1" points="152.4,225.1 152.5,220.2 150.6,218.8 150.2,217.5 148.7,217.2 		"/>
		<g>
			<polyline class="st1" points="148.9,217 151.3,215.5 152.7,215.9 153,216.8 155,218.5 155,219.1 154.9,219.5 153.1,220.6 
				153.1,224.5 155.8,222.9 155.8,219.3 			"/>
			<line class="st1" x1="152.7" y1="216.2" x2="150.4" y2="217.5"/>
		</g>
	</g>
	<g>
		<polyline class="st1" points="155.9,222.9 155.9,218 154,216.6 153.6,215.3 152.2,215 		"/>
		<g>
			<polyline class="st1" points="152.3,214.8 154.7,213.3 156.1,213.7 156.4,214.6 158.4,216.3 158.4,216.9 158.3,217.4 
				156.6,218.4 156.5,222.4 158.4,221 158.4,217.4 			"/>
			<line class="st1" x1="156.1" y1="214" x2="153.9" y2="215.3"/>
		</g>
	</g>
	<polyline class="st1" points="135.6,231.8 135.1,231.9 134.8,233.2 	"/>
	<polyline class="st1" points="24.3,159.3 27.7,157.2 30.5,159 33.3,157.2 30.4,155.3 34.3,152.9 37.3,154.6 	"/>
	<polyline class="st1" points="39.6,153.3 37.4,151.7 37.4,150.8 41,148.5 44,150.3 	"/>
	<polyline class="st1" points="46.2,148.8 44.2,147.5 44.2,146.7 47.9,144.2 50.7,146 	"/>
	<polyline class="st1" points="80.1,127.4 78.1,126.1 78,125.3 81.8,122.8 84.6,124.6 	"/>
	<polyline class="st1" points="86.8,123 84.8,121.7 84.7,120.9 88.5,118.4 91.3,120.2 	"/>
	<polyline class="st1" points="93.4,118.8 91.4,117.5 91.3,116.6 95,114.2 97.9,116 	"/>
	<polyline class="st1" points="100.2,114.5 98.2,113.1 98.1,112.3 101.9,109.9 104.7,111.6 	"/>
	<polyline class="st1" points="106.9,110.1 104.9,108.8 104.8,108 108.5,105.5 111.4,107.3 112.8,106.5 110.9,105.1 117,101.3 
		129.6,109.6 129.6,111.7 	"/>
	<polyline class="st1" points="71.2,129.6 74.9,127.2 77.8,129 	"/>
	<polyline class="st1" points="53.1,144.6 51,143.3 51,142.1 54.7,139.9 57.5,141.7 	"/>
	<polyline class="st1" points="59.8,140.2 57.8,138.8 57.7,137.9 63.2,134.6 66.1,136.5 	"/>
	<polyline class="st1" points="69.4,136.8 69.6,130.4 78.1,136 	"/>
	<line class="st1" x1="124" y1="113.3" x2="129.6" y2="109.6"/>
	<polyline class="st1" points="118.8,102.2 118.8,101.1 118.3,99.3 121.4,97.4 134.3,106 131.4,108 118.8,99.6 	"/>
	<line class="st1" x1="131.4" y1="108" x2="131.2" y2="112.8"/>
	<polyline class="st1" points="132.6,113.7 134.1,112.6 134.3,106 	"/>
	<path class="st1" d="M143.2,115.1c-5-0.2-5.4-3.3-5.4-3.3l-0.4-0.2c-1.2-2.7,1.2-5,1.2-5l4.9-3.1l8,5.3"/>
	<path class="st1" d="M143.6,114.1c-2.4,0.2-4-1.1-4-1.1c-3.6-2.8-0.8-5.4-0.8-5.4c1-1.6,4.2-1.7,4.2-1.7l0.7-0.6l0.4,0.3l-0.3,0.7
		l4.8,3.3l0.5,0.1"/>
	<path class="st1" d="M148.8,111.1c0,0-0.8,1.6-3.2,2.2c0,0-4.3,0.8-1.5,2.8"/>
	<path class="st1" d="M149.3,112c0,0-1.4,1.6-3.7,2c0,0-2.7,0.6-1.1,2.3c0,0,1.8,0.5,4-1c2.2-1.5,2.9-1.9,2.9-1.9"/>
	<path class="st1" d="M150.7,109.6l1.7,0.5c0,0,1.7,0.8,1.7,2.2c0,0-0.1,1.3-1.6,1.3l-2.2-0.7c0,0-1.5-1.1-1.2-2.2
		C149,110.7,149.1,109.5,150.7,109.6z"/>
	<path class="st1" d="M149.4,109.8c0,0,0.1-1.1,2.1-0.8l1.8,0.7c0,0,2.6,1.7,0.3,3.5"/>
	<line class="st1" x1="150.5" y1="112.1" x2="150.5" y2="110.4"/>
	<line class="st1" x1="151.4" y1="112.4" x2="151.4" y2="110.7"/>
	<line class="st1" x1="152.2" y1="112.7" x2="152.2" y2="111"/>
	<ellipse transform="matrix(0.8496 -0.5274 0.5274 0.8496 -30.7522 89.1345)" class="st1" cx="140.9" cy="98.5" rx="1.2" ry="1.7"/>
	<path class="st1" d="M139.5,97.1c0-0.5,0.2-0.8,0.5-1c0.6-0.4,1.7,0.2,2.4,1.3c0.7,1.1,0.7,2.4,0.1,2.8c-0.2,0.1-0.5,0.2-0.9,0.1"
		/>
	<line class="st1" x1="157.3" y1="106" x2="201.5" y2="135.5"/>
	<polyline class="st1" points="158.4,103.7 155,105.9 154.8,108.5 153.8,109.2 151.8,107.7 151.8,108.7 	"/>
	<polyline class="st1" points="152,107.6 154.2,106.2 154.2,105.5 155.8,104.4 156.4,104.8 	"/>
	<polyline class="st1" points="155.2,105.9 156.3,106.5 159.6,104.5 	"/>
	<polyline class="st1" points="202.4,134.9 200.2,136.3 202.4,137.7 204.6,136.4 204.6,146.1 202.3,147.6 202.4,137.8 	"/>
	<polyline class="st1" points="202.1,147.5 199.8,146 200.4,145.6 200.5,136.5 	"/>
	<path class="st1" d="M200.2,145.8l-0.8-0.4l0.1-9.3L155.6,107l-0.1,3.8c0,0,1.2,0.8,0.8,1.9c0,0,0,0.9-1.3,0.6l-0.1,3.4l44,29.3"/>
	<path class="st1" d="M152.4,113.6c0,0,1,1.3,2.4,1.3"/>
</g>
<g id="Zoom">
	<g>
		<line class="st2" x1="220.9" y1="96.6" x2="186.8" y2="163.5"/>
		<line class="st3" x1="220.9" y1="96.6" x2="186.8" y2="163.5"/>
	</g>
	<g>
		<g>
			<g>
				<path class="st4" d="M306.5,133.6L306.5,133.6 M306.5,133.6L306.5,133.6"/>
				<path class="st4" d="M294.9,137.3L294.9,137.3 M294.9,137.4L294.9,137.4"/>
				<path class="st4" d="M309.6,126.2L309.6,126.2 M309.6,126.2l0.1,3.4"/>
				<path class="st4" d="M308,134L308,134 M308.2,142.6L308,134"/>
				<path class="st4" d="M307.6,143.1L307.6,143.1 M307.6,143.8l0-0.7"/>
				<path class="st4" d="M306.5,133.7L306.5,133.7 M306.5,133.7l0.2,6.1"/>
				<path class="st5" d="M303.5,116.4L303.5,116.4 M303.5,116.4l0.2,6.5"/>
				<path class="st5" d="M301.7,118.6L301.7,118.6 M301.7,118.6l0.2,7"/>
				<path class="st4" d="M301.4,135.2L301.4,135.2 M301.4,135.2l0.2,6.2"/>
				<path class="st4" d="M301.1,128.9L301.1,128.9 M301.1,128.9l0.1,3.4"/>
				<path class="st5" d="M300.3,119.1L300.3,119.1 M300.5,125.5l-0.2-6.5"/>
				<path class="st6" d="M300.9,145.2L300.9,145.2 M300.9,145.2l0,0.7"/>
				<path class="st4" d="M300.3,136.7L300.3,136.7 M300.3,136.7l0.3,8.6"/>
				<path class="st4" d="M299.4,136.6L299.4,136.6 M299.6,145.2l-0.3-8.6"/>
				<path class="st5" d="M298.4,118L298.4,118 M298.4,118l0.2,6.5"/>
				<path class="st4" d="M298.1,129.9L298.1,129.9 M298.2,133.3l-0.1-3.4"/>
				<path class="st4" d="M297.8,126.9L297.8,126.9 M297.8,126.9l0,0.3"/>
				<path class="st5" d="M297.7,129L297.7,129 M297.8,129.1l0-0.2"/>
				<path class="st4" d="M296.4,137.7L296.4,137.7 M296.7,146.4l-0.3-8.7"/>
				<path class="st5" d="M295.5,125.8L295.5,125.8 M295.5,125.8l0,0.5"/>
				<path class="st6" d="M296,146.8L296,146.8 M296,146.8l0,0.7"/>
				<path class="st5" d="M294.8,119.2L294.8,119.2 M295.1,128l-0.3-8.8"/>
				<path class="st4" d="M294.9,137.4L294.9,137.4 M295.1,143.5l-0.2-6.1"/>
				<path class="st5" d="M292,120.1L292,120.1 M292,120.1l0.2,6.5"/>
				<path class="st5" d="M290.2,122.3L290.2,122.3 M290.2,122.3l0.2,7"/>
				<path class="st4" d="M289.8,139L289.8,139 M290,145.1l-0.2-6.2"/>
				<path class="st4" d="M289.5,132.6L289.5,132.6 M289.6,136.1l-0.1-3.4"/>
				<path class="st5" d="M288.7,122.8L288.7,122.8 M288.9,129.2l-0.2-6.5"/>
				<path class="st6" d="M289.3,148.9L289.3,148.9 M289.4,149.7l0-0.7"/>
				<path class="st4" d="M288.7,140.4L288.7,140.4 M288.7,140.4l0.3,8.6"/>
				<path class="st4" d="M287.8,140.3L287.8,140.3 M288.1,148.9l-0.3-8.6"/>
				<path class="st5" d="M286.9,121.8L286.9,121.8 M286.9,121.8l0.2,6.5"/>
				<path class="st4" d="M286.2,130.6L286.2,130.6 M286.3,130.9l0-0.3"/>
				<path class="st5" d="M286.2,132.7L286.2,132.7 M286.3,136.6l-0.1-3.9"/>
				<path class="st5" d="M283.9,129.5L283.9,129.5 M284,130l0-0.5"/>
				<path class="st5" d="M283.3,122.9L283.3,122.9 M283.8,139l-0.5-16.1"/>
				<path class="st4" d="M298.1,133.5L298.1,133.5 M298.7,135l-0.6-1.5"/>
				<path class="st4" d="M298.2,133.8L298.2,133.8 M298.2,133.8l1.1,2.7"/>
				<path class="st5" d="M211.7,43.6L211.7,43.6 M211.7,43.6l0.1,2.7"/>
				<path class="st5" d="M210,46.9L210,46.9 M210,46.9l0.1,3.5"/>
				<path class="st4" d="M204.2,46.4L204.2,46.4 M204.2,46.4l0.1,2.4"/>
				<path class="st5" d="M200.2,47.3L200.2,47.3 M200.2,47.3l0.1,2.7"/>
				<path class="st5" d="M198.5,50.7L198.5,50.7 M198.5,50.7l0.5,16.1"/>
				<path class="st4" d="M198.6,62.5L198.6,62.5 M198.6,62.5l0.2,5"/>
				<path class="st4" d="M198.4,56.6L198.4,56.6 M198.4,56.6l0,0.5"/>
				<path class="st4" d="M196.2,56L196.2,56 M196.2,56l0.1,3.9"/>
				<path class="st4" d="M195,61.2L195,61.2 M195,61.2l0.3,8.6"/>
				<path class="st4" d="M194.9,61L194.9,61 M195.2,69.7l-0.3-8.6"/>
				<path class="st4" d="M192.7,50.1L192.7,50.1 M192.8,53.6l-0.1-3.4"/>
				<path class="st4" d="M286.3,136.6L286.3,136.6 M287.2,138.7l-0.9-2.1"/>
				<path class="st4" d="M192.9,54L192.9,54 M193.7,56l-0.8-2"/>
				<path class="st7" d="M248.1,60.7L248.1,60.7"/>
				<path class="st8" d="M218.7,44.1L218.7,44.1 M218.7,44.1l84.8,72.3"/>
				<path class="st5" d="M213.2,43.2L213.2,43.2 M213.2,43.2l88.5,75.4"/>
				<path class="st4" d="M308.9,125.1L308.9,125.1 M308.9,125.1l0.3,0.3"/>
				<path class="st5" d="M211.7,43.6L211.7,43.6 M300.3,119.1l-88.5-75.4"/>
				<path class="st4" d="M304.3,122.8L304.3,122.8 M304.3,122.8l1.7,1.4"/>
				<path class="st5" d="M213.6,45.8L213.6,45.8 M213.6,45.8l84.8,72.3"/>
				<path class="st4" d="M301.9,124.7L301.9,124.7 M301.9,124.7l0.7,0.6"/>
				<path class="st5" d="M210,46.9L210,46.9 M294.8,119.2L210,46.9"/>
				<path class="st5" d="M299.2,124.4L299.2,124.4 M300.9,125.9l-1.7-1.5"/>
				<path class="st5" d="M207.1,47.9L207.1,47.9 M207.1,47.9l84.8,72.3"/>
				<path class="st4" d="M307.8,133.8L307.8,133.8 M307.8,133.8L307.8,133.8"/>
				<path class="st4" d="M204.5,46.1L204.5,46.1 M204.9,46.4l-0.3-0.3"/>
				<path class="st4" d="M300.4,127.8L300.4,127.8 M300.7,128.1l-0.3-0.3"/>
				<path class="st4" d="M306.5,134.6L306.5,134.6 M306.5,134.6L306.5,134.6"/>
				<path class="st4" d="M295.8,125.5L295.8,125.5 M297.8,127.2l-2-1.7"/>
				<path class="st5" d="M201.7,46.9L201.7,46.9 M201.7,46.9l88.5,75.4"/>
				<path class="st5" d="M296.2,127.6L296.2,127.6 M296.2,127.6l1.6,1.3"/>
				<path class="st5" d="M297.4,128.8L297.4,128.8 M297.7,129.1l-0.3-0.3"/>
				<path class="st5" d="M200.2,47.3L200.2,47.3 M288.7,122.8l-88.5-75.4"/>
				<path class="st5" d="M292.8,126.5L292.8,126.5 M294.5,128l-1.7-1.4"/>
				<path class="st5" d="M202.1,49.5L202.1,49.5 M202.1,49.5l84.8,72.3"/>
				<path class="st4" d="M301,136L301,136 M301,136l0.4,0.3"/>
				<path class="st4" d="M298,133.7L298,133.7 M298.2,133.8l-0.1-0.1"/>
				<path class="st4" d="M298.7,135L298.7,135 M299.7,135.8l-0.9-0.8"/>
				<path class="st4" d="M290.4,128.5L290.4,128.5 M291.1,129.1l-0.7-0.6"/>
				<path class="st4" d="M299.3,136.5L299.3,136.5 M299.4,136.6L299.4,136.6"/>
				<path class="st5" d="M198.5,50.7L198.5,50.7 M283.3,122.9l-84.8-72.3"/>
				<path class="st5" d="M287.7,128.2L287.7,128.2 M287.7,128.2l1.7,1.4"/>
				<path class="st4" d="M296.3,137.5L296.3,137.5 M296.3,137.5L296.3,137.5"/>
				<path class="st4" d="M288.9,131.5L288.9,131.5 M288.9,131.5l0.3,0.3"/>
				<path class="st4" d="M193,49.8L193,49.8 M193,49.8l5,5.9"/>
				<path class="st4" d="M294.9,138.4L294.9,138.4 M295,138.4L295,138.4"/>
				<path class="st4" d="M284.3,129.3L284.3,129.3 M284.3,129.3l2,1.7"/>
				<path class="st4" d="M196.2,56L196.2,56 M197.8,57.3l-1.6-1.3"/>
				<path class="st5" d="M284.6,131.3L284.6,131.3 M286.2,132.7l-1.6-1.3"/>
				<path class="st6" d="M300.2,145.4L300.2,145.4 M300.2,145.4l0.7,0.6"/>
				<path class="st4" d="M296.6,142.6L296.6,142.6 M299.6,145.2l-3-2.6"/>
				<path class="st4" d="M289.5,139.7L289.5,139.7 M289.9,140l-0.4-0.3"/>
				<polyline class="st5" points="286.6,137.5 284.4,135.6 284.4,135.6 				"/>
				<path class="st4" d="M196,60.3L196,60.3 M196,60.3l2.6,2.2"/>
				<path class="st4" d="M287.2,138.7L287.2,138.7 M287.2,138.7l0.9,0.8"/>
				<path class="st4" d="M194.6,59.8L194.6,59.8 M194.6,59.8l0.9,0.8"/>
				<path class="st4" d="M287.8,140.2L287.8,140.2 M287.8,140.2L287.8,140.2"/>
				<path class="st4" d="M195,61.2L195,61.2 M195,61.2L195,61.2"/>
				<path class="st5" d="M199,66.8L199,66.8 M199,66.8l84.8,72.3"/>
				<path class="st4" d="M198.8,67.5L198.8,67.5 M284.2,140.3l-85.5-72.8"/>
				<path class="st6" d="M288.7,149.1L288.7,149.1 M289.4,149.7l-0.7-0.6"/>
				<path class="st4" d="M195.2,69.8L195.2,69.8 M195.2,69.8l92.9,79.1"/>
				<path class="st4" d="M307.1,133.4L307.1,133.4 M307.1,133.4l0.8,0.4"/>
				<path class="st4" d="M295.5,137.1L295.5,137.1 M296.3,137.5l-0.8-0.4"/>
				<line class="st4" x1="309.6" y1="129.9" x2="308.9" y2="130.6"/>
				<line class="st4" x1="300.4" y1="133.3" x2="301.1" y2="132.7"/>
				<line class="st4" x1="298.1" y1="133.7" x2="297.3" y2="134.3"/>
				<line class="st4" x1="288.8" y1="137.1" x2="289.6" y2="136.4"/>
				<line class="st4" x1="196" y1="60.3" x2="195" y2="61.2"/>
				<line class="st4" x1="195.5" y1="60.6" x2="196.3" y2="59.9"/>
				<line class="st6" x1="307.6" y1="143.8" x2="300.9" y2="146"/>
				<line class="st6" x1="289.4" y1="149.7" x2="296.1" y2="147.5"/>
				<line class="st4" x1="307.9" y1="142.9" x2="307.6" y2="143.1"/>
				<line class="st6" x1="300.9" y1="145.2" x2="300.5" y2="145.3"/>
				<line class="st6" x1="289" y1="149" x2="289.3" y2="148.9"/>
				<line class="st6" x1="296" y1="146.8" x2="296.4" y2="146.7"/>
				<line class="st4" x1="306.7" y1="139.8" x2="301.6" y2="141.4"/>
				<line class="st4" x1="296.1" y1="138" x2="295" y2="138.4"/>
				<line class="st4" x1="289.9" y1="140" x2="288.7" y2="140.4"/>
				<line class="st4" x1="300.3" y1="136.7" x2="301.4" y2="136.3"/>
				<line class="st4" x1="306.5" y1="134.7" x2="307.6" y2="134.3"/>
				<line class="st4" x1="289.5" y1="139.7" x2="287.8" y2="140.2"/>
				<line class="st4" x1="299.3" y1="136.5" x2="301" y2="136"/>
				<line class="st4" x1="288.1" y1="139.5" x2="289.8" y2="139"/>
				<line class="st4" x1="299.7" y1="135.8" x2="301.4" y2="135.2"/>
				<line class="st4" x1="294.9" y1="137.3" x2="296.7" y2="136.8"/>
				<line class="st4" x1="308.2" y1="133" x2="306.5" y2="133.6"/>
				<line class="st4" x1="298.2" y1="133.8" x2="298.2" y2="133.8"/>
				<line class="st5" x1="286.6" y1="137.5" x2="286.7" y2="137.5"/>
				<line class="st4" x1="289.5" y1="132.6" x2="298.1" y2="129.9"/>
				<line class="st4" x1="301.1" y1="128.9" x2="309.6" y2="126.2"/>
				<line class="st4" x1="297.4" y1="128.8" x2="288.9" y2="131.5"/>
				<line class="st4" x1="300.4" y1="127.8" x2="308.9" y2="125.1"/>
				<line class="st4" x1="294.8" y1="127.9" x2="286.2" y2="130.6"/>
				<line class="st4" x1="297.8" y1="126.9" x2="306.3" y2="124.1"/>
				<line class="st4" x1="304.1" y1="122.7" x2="301.9" y2="123.5"/>
				<line class="st5" x1="292.6" y1="126.4" x2="290.3" y2="127.2"/>
				<line class="st5" x1="288.7" y1="122.8" x2="290.2" y2="122.3"/>
				<line class="st8" x1="300.3" y1="119.1" x2="301.7" y2="118.6"/>
				<line class="st5" x1="283.3" y1="122.9" x2="286.9" y2="121.8"/>
				<line class="st5" x1="288.8" y1="121.1" x2="292" y2="120.1"/>
				<line class="st8" x1="294.8" y1="119.2" x2="298.4" y2="118"/>
				<line class="st8" x1="300.3" y1="117.4" x2="303.5" y2="116.4"/>
				<line class="st7" x1="299.8" y1="104.7" x2="301.3" y2="104.3"/>
				<line class="st4" x1="195.9" y1="60.5" x2="195.2" y2="60.7"/>
				<line class="st4" x1="195.9" y1="60.5" x2="195.5" y2="60.6"/>
				<line class="st4" x1="196" y1="60.3" x2="198.8" y2="59.5"/>
				<line class="st4" x1="198.2" y1="57.5" x2="198.7" y2="57.3"/>
				<line class="st5" x1="198.7" y1="57" x2="198.4" y2="57.1"/>
				<line class="st5" x1="198.4" y1="56.6" x2="198.7" y2="56.5"/>
				<line class="st4" x1="198.6" y1="55.6" x2="198" y2="55.8"/>
				<line class="st5" x1="218.7" y1="44.1" x2="215.5" y2="45.2"/>
				<line class="st5" x1="213.6" y1="45.8" x2="210" y2="46.9"/>
				<polyline class="st5" points="207.1,47.9 206.6,48 204,48.9 				"/>
				<line class="st5" x1="202.1" y1="49.5" x2="198.5" y2="50.7"/>
				<line class="st4" x1="193" y1="49.8" x2="200.2" y2="47.5"/>
				<line class="st4" x1="192.8" y1="49.8" x2="200.2" y2="47.4"/>
				<line class="st4" x1="204.4" y1="46.1" x2="211.8" y2="43.7"/>
				<line class="st5" x1="213.2" y1="43.2" x2="211.7" y2="43.6"/>
				<line class="st5" x1="201.7" y1="46.9" x2="200.2" y2="47.3"/>
				<path class="st4" d="M304.1,122.7C304.1,122.7,304.2,122.7,304.1,122.7c0.1,0,0.1,0,0.2,0.1"/>
				<path class="st5" d="M295.6,125.5C295.6,125.5,295.6,125.5,295.6,125.5c-0.1,0.1-0.1,0.2-0.1,0.3"/>
				<path class="st5" d="M299,124.4C299,124.4,299,124.4,299,124.4c0.1,0,0.1,0,0.2,0.1"/>
				<path class="st4" d="M204.4,46.1C204.3,46.1,204.3,46.1,204.4,46.1c-0.1,0.1-0.1,0.2-0.1,0.3"/>
				<path class="st4" d="M308.2,142.6C308.2,142.7,308.2,142.7,308.2,142.6c-0.1,0.2-0.2,0.3-0.3,0.3"/>
				<path class="st4" d="M308,134c0,0,0-0.1-0.1-0.1c0,0,0,0,0,0"/>
				<path class="st6" d="M300.5,145.3c-0.2,0-0.3,0.1-0.5,0c-0.1,0-0.3-0.1-0.4-0.1"/>
				<path class="st4" d="M308.9,130.6c-0.3,0.2-0.4,0.6-0.5,0.9c-0.1,0.5-0.2,1-0.2,1.5"/>
				<path class="st4" d="M309.2,125.3c0.1,0.1,0.2,0.2,0.2,0.4c0.1,0.2,0.1,0.3,0.1,0.5"/>
				<path class="st4" d="M309.7,129.6c0,0,0,0.1,0,0.1c0,0.1,0,0.2-0.1,0.2"/>
				<path class="st5" d="M295.5,126.3c0.1,0.3,0.1,0.5,0.3,0.8c0.1,0.2,0.2,0.4,0.4,0.5"/>
				<path class="st4" d="M307.6,134.3c0,0,0.1,0,0.1-0.1c0.1-0.1,0.2-0.1,0.2-0.2"/>
				<path class="st4" d="M299.4,136.6c0.1,0.1,0.3,0.1,0.4,0.1c0.2,0,0.3,0,0.5,0"/>
				<path class="st4" d="M204.5,46.1C204.5,46.1,204.5,46.1,204.5,46.1c-0.1-0.1-0.1-0.1-0.2-0.1"/>
				<path class="st4" d="M301.1,128.9c0-0.2,0-0.3-0.1-0.5c-0.1-0.1-0.1-0.3-0.2-0.4"/>
				<path class="st5" d="M295.8,125.5C295.8,125.5,295.8,125.5,295.8,125.5c-0.1-0.1-0.1-0.1-0.2-0.1c0,0,3-1,3-1"/>
				<path class="st4" d="M299.7,135.8c0-0.5,0-1,0.2-1.5c0.1-0.4,0.3-0.7,0.5-0.9"/>
				<path class="st4" d="M301.1,132.7C301.1,132.7,301.1,132.6,301.1,132.7c0.1-0.1,0.1-0.2,0.1-0.3"/>
				<path class="st4" d="M195.2,69.8C195.2,69.8,195.2,69.8,195.2,69.8c-0.1-0.1-0.1-0.1-0.1-0.2"/>
				<path class="st4" d="M195.2,60.7c-0.1,0-0.1,0-0.1,0.1c-0.1,0.1-0.2,0.1-0.2,0.2"/>
				<path class="st4" d="M193.7,56c0.2,0.6,0.5,1.3,0.6,1.9c0.1,0.6,0.2,1.2,0.3,1.9"/>
				<path class="st4" d="M197.8,57.3c0,0,0.1,0.1,0.1,0.1c0.1,0.1,0.2,0.1,0.3,0.1"/>
				<path class="st4" d="M192.8,53.6c0,0,0,0.1,0,0.1c0,0.1,0,0.2,0.1,0.4"/>
				<path class="st5" d="M284.1,129.2C284.1,129.2,284,129.2,284.1,129.2c-0.1,0.1-0.1,0.2-0.1,0.3"/>
				<path class="st5" d="M287.5,128.1C287.5,128.1,287.5,128.1,287.5,128.1c0.1,0,0.1,0,0.2,0.1"/>
				<path class="st5" d="M292.6,126.4C292.6,126.4,292.6,126.4,292.6,126.4c0.1,0,0.1,0,0.2,0.1"/>
				<path class="st4" d="M192.8,49.8C192.8,49.8,192.8,49.8,192.8,49.8c-0.1,0.1-0.1,0.2-0.1,0.3"/>
				<path class="st6" d="M296.7,146.4C296.7,146.4,296.7,146.4,296.7,146.4c-0.1,0.2-0.2,0.3-0.3,0.3"/>
				<path class="st4" d="M296.4,137.7c0,0,0-0.1-0.1-0.1c0,0,0,0,0,0"/>
				<path class="st6" d="M289,149c-0.2,0.1-0.3,0.1-0.5,0c-0.1,0-0.3-0.1-0.4-0.1"/>
				<path class="st5" d="M284,130c0.1,0.3,0.2,0.5,0.3,0.8c0.1,0.2,0.2,0.4,0.4,0.5"/>
				<path class="st4" d="M297.3,134.3c-0.3,0.2-0.4,0.6-0.5,0.9c-0.1,0.5-0.2,1-0.2,1.5"/>
				<path class="st4" d="M297.7,129.1c0.1,0.1,0.2,0.2,0.2,0.4c0.1,0.2,0.1,0.3,0.1,0.5"/>
				<path class="st4" d="M298.2,133.3c0,0,0,0.1,0,0.1c0,0.1,0,0.2-0.1,0.2"/>
				<path class="st4" d="M296.1,138c0,0,0.1,0,0.1-0.1c0.1-0.1,0.2-0.1,0.2-0.2"/>
				<path class="st4" d="M287.8,140.3c0.1,0.1,0.3,0.1,0.4,0.1c0.2,0,0.3,0,0.5,0"/>
				<path class="st4" d="M198.2,57.5C198.2,57.5,198.2,57.4,198.2,57.5c0.2-0.1,0.2-0.2,0.2-0.3"/>
				<path class="st4" d="M194.9,61c0,0,0,0.1,0,0.1c0,0,0,0,0,0"/>
				<path class="st4" d="M289.5,132.6c0-0.2,0-0.3-0.1-0.5c-0.1-0.1-0.1-0.3-0.2-0.4"/>
				<path class="st5" d="M284.3,129.3C284.2,129.2,284.2,129.2,284.3,129.3c-0.1-0.1-0.1-0.1-0.2-0.1c0,0,3.3-1.1,3.3-1.1"/>
				<path class="st4" d="M288.1,139.5c0-0.5,0-1,0.2-1.5c0.1-0.4,0.3-0.7,0.5-0.9"/>
				<path class="st4" d="M289.6,136.4C289.6,136.4,289.6,136.4,289.6,136.4c0.1-0.1,0.1-0.2,0.1-0.3"/>
				<path class="st4" d="M198.4,56.6c0-0.2,0-0.3-0.1-0.5c-0.1-0.1-0.1-0.3-0.2-0.4"/>
				<path class="st4" d="M193,49.8C193,49.8,193,49.8,193,49.8c-0.1-0.1-0.1-0.1-0.2-0.1"/>
				<line class="st4" x1="295.1" y1="143.5" x2="290" y2="145.1"/>
				<path class="st9" d="M286.2,130.6L286.2,130.6 M288.9,131.5l-2.6-0.9"/>
				<path class="st10" d="M294.8,127.9L294.8,127.9 M297.4,128.8l-2.6-0.9"/>
				<path class="st9" d="M297.8,126.9L297.8,126.9 M300.4,127.8l-2.6-0.9"/>
				<path class="st9" d="M306.3,124.1L306.3,124.1 M308.9,125.1l-2.6-0.9"/>
				<line class="st4" x1="206.5" y1="48.1" x2="204.9" y2="46.4"/>
				<line class="st11" x1="284.4" y1="135.6" x2="284.2" y2="140.3"/>
				<polygon class="st12" points="286.9,121.8 283.3,122.9 198.5,50.7 200.3,50.1 202.1,49.5 				"/>
				<path class="st13" d="M202.1,49.5l-1.8,0.6l-1.8,0.6l84.8,72.3l3.6-1.2L202.1,49.5z"/>
				<polygon class="st12" points="283.3,122.9 283.8,139 199,66.8 198.8,59.5 198.7,57.3 198.7,57 198.7,56.5 198.6,55.6 
					198.5,50.7 				"/>
				<path class="st13" d="M198.5,50.7l0.2,4.9l0,1l0,0.5l0,0.3l0.1,2.2l0.2,7.3l84.8,72.3l-0.5-16.1L198.5,50.7z"/>
				<polygon class="st12" points="288.8,121.1 204,48.9 204.3,48.8 206.5,48.1 206.6,48 207.1,47.9 210.1,50.4 292,120.1 				"/>
				<path class="st13" d="M292,120.1l-81.8-69.7l-3-2.5l-0.6,0.2l0,0l-2.2,0.7l-0.3,0.1l84.8,72.3L292,120.1z"/>
				<path class="st12" d="M292,120.1l-81.8-69.7l-0.1-3.5l84.8,72.3l0.3,8.8l-0.3-0.1l-0.3,0.1l-1.7-1.4c0,0-0.1-0.1-0.1-0.1l0,0
					l-0.4,0.1L292,120.1z"/>
				<path class="st13" d="M292.2,126.6l0.4-0.1l0,0c0.1,0,0.1,0,0.1,0.1l1.7,1.4l0.3-0.1l0.3,0.1l-0.3-8.8L210,46.9l0.1,3.5
					l81.8,69.7L292.2,126.6z"/>
				<polygon class="st12" points="294.8,119.2 210,46.9 211.8,46.3 213.6,45.8 298.4,118 				"/>
				<path class="st13" d="M298.4,118l-84.8-72.3l-1.8,0.6l-1.8,0.6l84.8,72.3L298.4,118z"/>
				<polygon class="st12" points="300.3,119.1 211.7,43.6 213.2,43.2 215.5,45.2 300.3,117.4 301.7,118.6 				"/>
				<path class="st13" d="M301.7,118.6l-1.4-1.2l-84.8-72.3l-2.4-2l-1.4,0.5l88.5,75.4L301.7,118.6z"/>
				<polygon class="st12" points="300.3,117.4 215.5,45.2 218.7,44.1 303.5,116.4 				"/>
				<path class="st13" d="M303.5,116.4l-84.8-72.3l-3.1,1l84.8,72.3L303.5,116.4z"/>
				<polygon class="st11" points="300.3,117.4 303.5,116.4 303.7,122.9 301.9,123.5 301.7,118.6 				"/>
				<path class="st13" d="M301.7,118.6l0.2,4.9l1.8-0.6l-0.2-6.5l-3.1,1L301.7,118.6z"/>
				<polygon class="st11" points="300.3,119.1 301.7,118.6 301.9,123.5 301.9,124.7 301.9,125.5 300.9,125.9 300.5,125.5 				"/>
				<path class="st13" d="M300.5,125.5l0.4,0.4l1-0.3l0-0.8l0-1.3l-0.2-4.9l-1.4,0.5L300.5,125.5z"/>
				<polygon class="st11" points="290.2,122.3 290.3,127.2 290.4,128.5 290.4,129.3 289.4,129.6 288.9,129.2 288.7,122.8 				"/>
				<path class="st13" d="M288.7,122.8l0.2,6.5l0.4,0.4l1-0.3l0-0.8l0-1.3l-0.2-4.9L288.7,122.8z"/>
				<polygon class="st11" points="290.3,127.2 290.2,122.3 288.8,121.1 292,120.1 292.2,126.6 				"/>
				<path class="st13" d="M292.2,126.6l-0.2-6.5l-3.1,1l1.4,1.2l0.2,4.9L292.2,126.6z"/>
				<path class="st12" d="M298.6,124.5l-0.2-6.5l-84.8-72.3l-1.8,0.6l-0.1-2.7l0-0.1l88.5,75.4l0.2,6.5l-1.3-1.1
					c0,0-0.1-0.1-0.1-0.1l0,0L298.6,124.5z"/>
				<path class="st13" d="M299,124.4L299,124.4c0.1,0,0.1,0,0.2,0.1l1.3,1.1l-0.2-6.5l-88.5-75.4l0,0.1l0.1,2.7l1.8-0.6l84.8,72.3
					l0.2,6.5L299,124.4z"/>
				<polygon class="st12" points="288.8,121.1 290.2,122.3 288.7,122.8 200.2,47.3 201.7,46.9 204,48.9 				"/>
				<path class="st13" d="M204,48.9l-2.3-2l-1.4,0.5l88.5,75.4l1.4-0.5l-1.4-1.2L204,48.9z"/>
				<path class="st12" d="M200.2,47.3l88.5,75.4l0.2,6.5l-1.3-1.1c0,0-0.1-0.1-0.1-0.1c0,0,0,0,0,0l-0.4,0.1l-0.2-6.5l-84.8-72.3
					l-1.8,0.6l-0.1-2.5L200.2,47.3L200.2,47.3z"/>
				<path class="st13" d="M200.2,47.4v0.1l0.1,2.5l1.8-0.6l84.8,72.3l0.2,6.5l0.4-0.1c0,0,0,0,0,0c0.1,0,0.1,0,0.1,0.1l1.3,1.1
					l-0.2-6.5L200.2,47.4L200.2,47.4z"/>
				<line class="st14" x1="283.8" y1="139" x2="284.3" y2="138.4"/>
				<path class="st11" d="M284.4,135.6L284.4,135.6L284.4,135.6z M286.7,137.5l-0.4-0.9l-0.1-3.9l-1.6-1.3c-0.2-0.1-0.3-0.3-0.4-0.5
					c-0.1-0.2-0.2-0.5-0.3-0.8l0-0.5c0-0.1,0-0.2,0.1-0.3l0.1,0c0,0,2.3-0.7,3-1l-0.2-6.5l-3.6,1.2l0.5,16.1l0.5-0.6l0.1-2.8
					L286.7,137.5L286.7,137.5z"/>
				<path class="st13" d="M284.4,135.6L284.4,135.6L284.4,135.6z M286.7,137.5l-0.4-0.9l-0.1-3.9l-1.6-1.3c-0.2-0.1-0.3-0.3-0.4-0.5
					c-0.1-0.2-0.2-0.5-0.3-0.8l0-0.5c0-0.1,0-0.2,0.1-0.3l0.1,0c0,0,2.3-0.7,3-1l-0.2-6.5l-3.6,1.2l0.5,16.1l0.5-0.6l0.1-2.8
					L286.7,137.5L286.7,137.5z"/>
				<path class="st11" d="M295.1,128l-0.3-8.8l3.6-1.2l0.2,6.5c0,0-3.1,1-3,1l-0.1,0c-0.1,0.1-0.1,0.2-0.1,0.3l0,0.5
					c0.1,0.3,0.1,0.5,0.3,0.8c0.1,0.2,0.2,0.4,0.4,0.5l1.6,1.3l0,0.1c0,0,0,0,0,0l-0.3-0.3L295.1,128z"/>
				<path class="st13" d="M297.4,128.8l0.3,0.3c0,0,0,0,0,0l0-0.1l-1.6-1.3c-0.2-0.1-0.3-0.3-0.4-0.5c-0.1-0.2-0.2-0.5-0.3-0.8
					l0-0.5c0-0.1,0-0.2,0.1-0.3l0.1,0c0,0,3-1,3-1l-0.2-6.5l-3.6,1.2l0.3,8.8L297.4,128.8z"/>
				<path class="st11" d="M295.1,128l-0.3-8.8l3.6-1.2l0.2,6.5c0,0-3.1,1-3,1l-0.1,0c-0.1,0.1-0.1,0.2-0.1,0.3l0,0.5
					c0.1,0.3,0.1,0.5,0.3,0.8c0.1,0.2,0.2,0.4,0.4,0.5l1.6,1.3l0,0.1c0,0,0,0,0,0l-0.3-0.3L295.1,128z"/>
				<path class="st13" d="M297.4,128.8l0.3,0.3c0,0,0,0,0,0l0-0.1l-1.6-1.3c-0.2-0.1-0.3-0.3-0.4-0.5c-0.1-0.2-0.2-0.5-0.3-0.8
					l0-0.5c0-0.1,0-0.2,0.1-0.3l0.1,0c0,0,3-1,3-1l-0.2-6.5l-3.6,1.2l0.3,8.8L297.4,128.8z"/>
			</g>
		</g>
	</g>
	<g>
		<path class="st13" d="M216.1,8.6l-1.8,0.6l-1.8,0.6l42.1,35.9v-2.2l5.3,2.6l-3.5-2.9l-1.9-0.9v-0.7L216.1,8.6z"/>
		<path class="st13" d="M254.6,36.6l3.3,1.6L221.1,7L218,8l36.6,31.1V36.6z"/>
		<path class="st13" d="M297.3,82l-31.2-26.6l-11.5-5.5v-2.2l5.7,2.7l-3.5-2.9l-2.3-1.1v-0.8L212.5,9.7l0.5,16.1l1.9,1.6L250.7,58
			l0.1,0.1l0.9,0.7l46.1,39.3L297.3,82z"/>
		<path class="st13" d="M301.4,97l-0.5-16.1l-3.6,1.2l0.5,16.1L301.4,97z"/>
		<path class="st13" d="M297.8,98.1l-46.1-39.3l0,0.2l51.7,44.1l-0.7-21.2l-36.4-31v0.6l34.5,29.4l0.5,16.1L297.8,98.1z"/>
		<path class="st13" d="M304.8,102.6l-0.2-6.7l-0.5-14.5l-1.4,0.5l0.7,21.2L304.8,102.6z"/>
		<path class="st13" d="M305.9,79.2l-39.6-33.7v2.2l-3.9-1.9l3.5,2.9l0.5,0.2v0.2l36.4,31L305.9,79.2z"/>
		<path class="st13" d="M266.4,52.1l-9.6-4.6l3.5,2.9l6.1,2.9v2.2l-0.3-0.1L297.3,82l3.6-1.2l-34.5-29.4V52.1z"/>
		<path class="st13" d="M306.5,95.3l-0.5-16.1l-3.1,1l1.4,1.2l0.5,14.5L306.5,95.3z"/>
		<path class="st13" d="M304.2,81.4l-1.4-1.2l-36.4-31v1.7l36.4,31L304.2,81.4z"/>
		<path class="st13" d="M254.6,39.1L218,8l-2.3-2l-1.4,0.5l40.3,34.4V39.1z"/>
		<path class="st7" d="M305.9,79.2L305.9,79.2 M305.9,79.2l0.5,16.1"/>
		<path class="st7" d="M304.2,81.4L304.2,81.4 M304.2,81.4l0.7,21.2"/>
		<path class="st7" d="M302.7,81.9L302.7,81.9 M303.4,103.1l-0.7-21.2"/>
		<path class="st7" d="M300.9,80.8L300.9,80.8 M300.9,80.8l0.5,16.1"/>
		<path class="st7" d="M297.3,82L297.3,82 M297.8,98.1L297.3,82"/>
		<line class="st7" x1="305.9" y1="79.2" x2="266.4" y2="45.5"/>
		<line class="st7" x1="304.2" y1="81.4" x2="262.5" y2="45.9"/>
		<line class="st7" x1="214.2" y1="6.4" x2="254.6" y2="40.8"/>
		<line class="st7" x1="300.9" y1="80.8" x2="266.4" y2="51.4"/>
		<line class="st7" x1="297.8" y1="98.1" x2="213" y2="25.9"/>
		<line class="st7" x1="303.4" y1="103.1" x2="251.7" y2="59"/>
		<line class="st7" x1="301.4" y1="97" x2="297.8" y2="98.1"/>
		<line class="st7" x1="304.6" y1="95.9" x2="306.5" y2="95.3"/>
		<line class="st7" x1="302.7" y1="81.9" x2="304.2" y2="81.4"/>
		<line class="st7" x1="297.3" y1="82" x2="300.9" y2="80.8"/>
		<line class="st7" x1="302.8" y1="80.2" x2="305.9" y2="79.2"/>
		<line class="st7" x1="221.1" y1="7" x2="218" y2="8"/>
		<path class="st15" d="M221.1,7L221.1,7 M221.1,7l36.7,31.3"/>
		<line class="st15" x1="254.6" y1="39.1" x2="215.6" y2="6"/>
		<line class="st15" x1="254.6" y1="41.4" x2="216.1" y2="8.6"/>
		<line class="st15" x1="266.4" y1="50.9" x2="302.7" y2="81.9"/>
		<line class="st15" x1="266.1" y1="55.4" x2="297.3" y2="82"/>
		<polygon class="st16" points="297.8,98.1 251.7,58.8 250.8,58.1 250.7,58 214.9,27.5 213,25.9 212.5,9.7 254.6,45.6 254.6,46.4 
			256.8,47.5 260.3,50.5 254.6,47.7 254.6,49.9 266.1,55.4 297.3,82 		"/>
		<polygon class="st16" points="297.8,98.1 297.3,82 300.9,80.8 301.4,97 		"/>
		<polygon class="st16" points="302.7,81.9 266.4,50.9 266.4,49.2 302.8,80.2 304.2,81.4 		"/>
		<path class="st13" d="M304.2,81.4l-1.4-1.2l-36.4-31v1.7l36.4,31L304.2,81.4z"/>
		<polygon class="st16" points="301.4,97 300.9,80.8 266.4,51.4 266.4,50.9 302.7,81.9 303.4,103.1 251.7,59 251.7,58.8 297.8,98.1 
					"/>
		<path class="st13" d="M297.8,98.1l-46.1-39.3l0,0.2l51.7,44.1l-0.7-21.2l-36.4-31v0.6l34.5,29.4l0.5,16.1L297.8,98.1z"/>
		<polygon class="st16" points="301.4,97 300.9,80.8 266.4,51.4 266.4,50.9 302.7,81.9 303.4,103.1 251.7,59 251.7,58.8 297.8,98.1 
					"/>
		<polygon class="st16" points="303.4,103.1 302.7,81.9 304.2,81.4 304.6,95.9 304.8,102.6 		"/>
		<polygon class="st16" points="302.8,80.2 266.4,49.2 266.4,49 265.9,48.8 262.5,45.9 266.4,47.7 266.4,45.5 305.9,79.2 		"/>
		<polygon class="st16" points="266.4,51.4 300.9,80.8 297.3,82 266.1,55.4 266.4,55.6 266.4,53.4 260.3,50.5 256.8,47.5 
			266.4,52.1 		"/>
		<polygon class="st16" points="304.6,95.9 304.2,81.4 302.8,80.2 305.9,79.2 306.5,95.3 		"/>
		<polygon class="st16" points="302.7,81.9 266.4,50.9 266.4,49.2 302.8,80.2 304.2,81.4 		"/>
		<polygon class="st16" points="254.6,41.4 254.6,42.1 256.4,43 259.9,45.9 254.6,43.4 254.6,45.6 212.5,9.7 214.3,9.2 216.1,8.6 		
			"/>
		<polygon class="st16" points="216.1,8.6 214.3,9.2 214.2,6.4 254.6,40.8 254.6,41.4 		"/>
		<path class="st13" d="M254.6,41.4v-0.5L214.2,6.4l0.1,2.7l1.8-0.6L254.6,41.4z"/>
		<polygon class="st16" points="254.6,40.8 214.2,6.4 215.6,6 218,8 254.6,39.1 		"/>
		<polygon class="st16" points="254.6,39.1 218,8 221.1,7 257.8,38.2 254.6,36.6 		"/>
		<polygon class="st13" points="265.5,48.6 260.2,46.1 256.8,43.2 262.1,45.7 		"/>
	</g>
</g>
<g id="Zoom_copy">
	<g>
		<line class="st2" x1="220.9" y1="96.6" x2="186.8" y2="163.5"/>
		<line class="st3" x1="220.9" y1="96.6" x2="186.8" y2="163.5"/>
	</g>
	<g>
		<g>
			<g>
				<path class="st7" d="M248.1,60.7L248.1,60.7"/>
				<path class="st17" d="M194.4,43.4c-0.1,0.8-0.3,1.6-0.5,2.4l-11.1,5.3c0.2-0.8,0.3-1.6,0.4-2.4l0.2-2.1c0.1-1,0.1-2.1,0.1-3.1
					l-0.1-1.9c-0.2-1.8-0.5-3.7-1-5.4l-0.5-1.7c-1.4-4.3-3.8-8.3-7-11.6l-7.2,3.5l4.2-13.1l18,2.5l-3.7,1.8
					c3.1,3.3,5.5,7.3,6.9,11.6l0.5,1.7c0.5,1.8,0.8,3.6,0.9,5.4l0.1,1.9c0,1,0,2.1-0.1,3.1L194.4,43.4z"/>
				<path class="st17" d="M310.8,150.4c3.6,1.2,6.9,3.3,9.4,6.1l-8.1,1.8l27.2,7.6l7-15.1l-8.6,1.9c-1.9-2.4-4.4-4.3-7.2-5.6
					c-0.9-0.4-3.2-0.7-3.2-0.7c-11.2-0.5-22.4,1.3-32.9,5.5c4.2-1.3,8.5-2.1,12.9-2.3C307.3,149.6,307.7,149.4,310.8,150.4z"/>
				<path class="st17" d="M304.1,155.3c0.9-1.6,2.1-3.1,3.4-4.4l-16.2,2.7c-1.7,1.3-3.2,2.8-4.5,4.6l-1.1,1.7
					c-0.5,0.9-1,1.9-1.4,2.9l17.9-3c0.3-1,0.6-1.9,1.1-2.9L304.1,155.3z"/>
			</g>
		</g>
	</g>
	<g>
		<path class="st17" d="M254.6,36.6v2.5v1.7v0.5v0.7l1.9,0.9l1.5,0.7l4.6,2.2l3.9,1.9v-2.2v-3.2"/>
		<path class="st17" d="M254.6,43.4v2.2l2.3,1.9l9.6,4.6v-0.7v-0.6v-1.7l-0.5-0.4l-4.6-2.2l-1.5-0.7L254.6,43.4z"/>
		<polygon class="st17" points="266.3,53.4 266.3,55.5 254.5,49.9 254.6,47.8 		"/>
		<polygon class="st17" points="257.6,47.9 254.6,46.4 254.6,45 		"/>
	</g>
	<path class="st18" d="M266.4,55.6V31.9l5.9,2.9l-11.1-15.4l-12.4,4.1l5.8,2.8v23.7L266.4,55.6z"/>
</g>
<g id="Numbers_x2F_Arrows">
	<line x1="254.2" y1="120.4" x2="253.6" y2="120.7"/>
	<g>
		<g>
			<path class="st19" d="M178.9,45.7c0,7.6-6.2,13.7-13.9,13.7c-7.7,0-14-6.2-14-13.7c0-7.6,6.2-13.8,14-13.8
				C172.7,32,178.9,38.1,178.9,45.7"/>
		</g>
		<rect x="150.8" y="37.7" class="st20" width="27.2" height="24.8"/>
		<text transform="matrix(1 0 0 1 158.5522 52.7239)" class="st21 st22 st23 st24">1</text>
	</g>
	<g>
		<g>
			<path class="st19" d="M301.6,37.4c0,7.6-6.2,13.7-13.9,13.7c-7.7,0-14-6.2-14-13.7c0-7.6,6.2-13.8,14-13.8
				C295.4,23.7,301.6,29.8,301.6,37.4"/>
		</g>
		<rect x="274.3" y="29.4" class="st20" width="27.2" height="24.8"/>
		<text transform="matrix(1 0 0 1 282.1125 44.401)" class="st21 st22 st23 st24">2</text>
	</g>
</g>
</svg>
