<?xml version="1.0" encoding="utf-8"?>
<!-- Generator: Adobe Illustrator 21.1.0, SVG Export Plug-In . SVG Version: 6.00 Build 0)  -->
<svg version="1.1" id="Layer_1" xmlns="http://www.w3.org/2000/svg" xmlns:xlink="http://www.w3.org/1999/xlink" x="0px" y="0px"
	 width="144px" height="185.5px" viewBox="0 0 144 185.5" style="enable-background:new 0 0 144 185.5;" xml:space="preserve">
<style type="text/css">
	.st0{clip-path:url(#SVGID_2_);}
	.st1{fill:none;stroke:#000000;stroke-width:0.4049;stroke-linecap:round;stroke-linejoin:round;stroke-miterlimit:10;}
	.st2{fill:#FFFFFF;stroke:#000000;stroke-width:0.8529;stroke-miterlimit:10;}
	.st3{fill:#BCBEC0;}
	.st4{fill:#A7A9AC;stroke:#000000;stroke-width:0.2802;stroke-linejoin:round;stroke-miterlimit:10;}
	.st5{fill:#D1D3D4;stroke:#000000;stroke-width:0.2802;stroke-linejoin:round;stroke-miterlimit:10;}
	.st6{fill:#BCBEC0;stroke:#000000;stroke-width:0.2802;stroke-linejoin:round;stroke-miterlimit:10;}
	.st7{fill:#6D6E71;stroke:#000000;stroke-width:0.2802;stroke-linejoin:round;stroke-miterlimit:10;}
	.st8{fill:none;stroke:#000000;stroke-width:2.0243;stroke-miterlimit:10;stroke-dasharray:4.0486,4.0486;}
	.st9{fill:#FFFFFF;stroke:#231F20;stroke-width:0.8818;stroke-miterlimit:10;}
	.st10{fill:none;stroke:#231F20;stroke-width:0.8818;stroke-miterlimit:10;}
	.st11{fill:#FFFFFF;stroke:#231F20;stroke-width:0.8818;stroke-linecap:round;stroke-linejoin:round;stroke-miterlimit:10;}
</style>
<g>
	<defs>
		<polygon id="SVGID_1_" points="139.1,134.7 -22,196.9 -22,15.8 139.1,-13.5 		"/>
	</defs>
	<clipPath id="SVGID_2_">
		<use xlink:href="#SVGID_1_"  style="overflow:visible;"/>
	</clipPath>
	<g class="st0">
		<g>
			<g>
				<g id="LINE_10104_">
					<path class="st1" d="M208.7,41c-82.2,44.9-80.3,47-161.8,93"/>
				</g>
				<g id="LINE_10103_">
					<path class="st1" d="M210,42.8c-79.9,50.3-80,47-162.4,93"/>
				</g>
				<g id="LINE_8657_">
					<path class="st1" d="M47.5,141.5c82.7-47.8,82.8-46.5,165.6-94.3"/>
				</g>
			</g>
			<g>
				<path class="st2" d="M16.4,173.2V200l29.5,17l0-26.8L16.4,173.2z M39.7,210l-17.2-9.9v-19.8l17.2,9.9V210z"/>
				<path class="st2" d="M15.1,174v26.8l29.5,17l0-26.8L15.1,174z M38.4,210.8l-17.2-9.9V181l17.2,9.9V210.8z"/>
				<path class="st2" d="M16.4,146.4v26.8l29.5,17l0-26.8L16.4,146.4z M39.7,183.2l-17.2-9.9v-19.8l17.2,9.9V183.2z"/>
				<path class="st2" d="M15.1,147.2V174l29.5,17l0-26.8L15.1,147.2z M38.4,184L21.2,174v-19.8l17.2,9.9V184z"/>
				<path class="st2" d="M16.4,119.5v26.8l29.5,17l0-26.8L16.4,119.5z M39.7,156.4l-17.2-9.9v-19.8l17.2,9.9V156.4z"/>
				<path class="st2" d="M15.1,120.3v26.8l29.5,17l0-26.8L15.1,120.3z M38.4,157.1l-17.2-9.9v-19.8l17.2,9.9V157.1z"/>
				<path class="st2" d="M16.4,92.7v26.8l29.5,17l0-26.8L16.4,92.7z M39.7,129.5l-17.2-9.9V99.7l17.2,9.9V129.5z"/>
				<path class="st2" d="M15.1,93.5v26.8l29.5,17l0-26.8L15.1,93.5z M38.4,130.3l-17.2-9.9v-19.8l17.2,9.9V130.3z"/>
				<path class="st2" d="M16.4,65.9v26.8l29.5,17l0-26.8L16.4,65.9z M39.7,102.8l-17.2-9.9V73l17.2,9.9V102.8z"/>
				<path class="st2" d="M15.1,66.7v26.8l29.5,17l0-26.8L15.1,66.7z M38.4,103.5l-17.2-9.9V73.7l17.2,9.9V103.5z"/>
				<path class="st2" d="M16.4,39.1v26.8l29.5,17l0-26.8L16.4,39.1z M39.7,75.9L22.5,66V46.1l17.2,9.9V75.9z"/>
				<path class="st2" d="M15.1,39.9v26.8l29.5,17l0-26.8L15.1,39.9z M38.4,76.7l-17.2-9.9V46.9l17.2,9.9V76.7z"/>
				<path class="st2" d="M16.4,12.3v26.8l29.5,17l0-26.8L16.4,12.3z M39.7,49.1l-17.2-9.9V19.3l17.2,9.9V49.1z"/>
				<path class="st2" d="M15.1,13.1v26.8l29.5,17l0-26.8L15.1,13.1z M38.4,49.9L21.2,40V20.1L38.4,30V49.9z"/>
				<path class="st2" d="M31.5-3.9c-0.9,0-1.9-0.1-2.8-0.1l11,6.4v19.8l-17.2-9.9V-4.2c-2.1-0.2-4.1-0.4-6.2-0.6v17.1l29.5,17
					l0-26.8L34.7-4C33.6-3.9,32.6-3.9,31.5-3.9z"/>
				<path class="st2" d="M31.5-3.9c-1.9,0-3.7-0.1-5.6-0.1l12.5,7.2V23l-17.2-9.9V-4.3c-2.1-0.2-4.1-0.4-6.2-0.7V13l29.5,17l0-26.8
					L32.2-3.9C32-3.9,31.7-3.9,31.5-3.9z"/>
			</g>
			<g>
				<g>
					<g>
						<path class="st3" d="M66.3,52.2c-0.1,0-0.2,0-0.3-0.1l-4.8-2.8c-0.2-0.1-0.3-0.3-0.3-0.5v-0.8c0-0.2,0.1-0.4,0.3-0.5
							c0.1,0,0.2-0.1,0.3-0.1s0.2,0,0.3,0.1l4.8,2.8c0.2,0.1,0.3,0.3,0.3,0.5v0.8c0,0.2-0.1,0.4-0.3,0.5
							C66.5,52.2,66.4,52.2,66.3,52.2z"/>
						<path d="M61.5,48.1l4.8,2.8v0.8l-4.8-2.8V48.1 M61.5,47c-0.2,0-0.4,0.1-0.6,0.2c-0.3,0.2-0.6,0.6-0.6,1v0.8
							c0,0.4,0.2,0.8,0.6,1l4.8,2.8c0.2,0.1,0.4,0.2,0.6,0.2c0.2,0,0.4-0.1,0.6-0.2c0.3-0.2,0.6-0.6,0.6-1v-0.8c0-0.4-0.2-0.8-0.6-1
							L62,47.1C61.9,47,61.7,47,61.5,47L61.5,47z"/>
					</g>
					<g>
						<path class="st3" d="M77.7,58.8c-0.1,0-0.2,0-0.3-0.1c-0.2-0.1-0.3-0.3-0.3-0.5v-0.8c0-0.2,0.1-0.4,0.3-0.5l4.1-2.4
							c0.1,0,0.2-0.1,0.3-0.1s0.2,0,0.3,0.1c0.2,0.1,0.3,0.3,0.3,0.5v0.8c0,0.2-0.1,0.4-0.3,0.5L78,58.7
							C77.9,58.8,77.8,58.8,77.7,58.8z"/>
						<path d="M81.8,55.1v0.8l-4.1,2.4v-0.8L81.8,55.1 M81.8,54c-0.2,0-0.4,0-0.6,0.1l-4.1,2.4c-0.3,0.2-0.6,0.6-0.6,1v0.8
							c0,0.4,0.2,0.8,0.6,1c0.2,0.1,0.4,0.2,0.6,0.2c0.2,0,0.4,0,0.6-0.1l4.1-2.4c0.3-0.2,0.6-0.6,0.6-1v-0.8c0-0.4-0.2-0.8-0.6-1
							C82.2,54,82,54,81.8,54L81.8,54z"/>
					</g>
					<g>
						<path class="st3" d="M70.6,59.2c-0.1,0-0.2,0-0.3-0.1l-2.8-1.6c-0.2-0.1-0.3-0.3-0.3-0.5v-5.3l-0.7,0.4
							c-0.1,0.1-0.2,0.1-0.3,0.1c-0.1,0-0.2,0-0.3-0.1l-4.8-3.6c-0.1-0.1-0.2-0.2-0.2-0.4l-4.4,2.5c-0.1,0-0.2,0.1-0.3,0.1
							c-0.1,0-0.2,0-0.2-0.1c-0.2-0.1-0.3-0.2-0.3-0.4L52.9,36c0-0.2,0.1-0.5,0.3-0.6l0.7-0.4c0.1,0,0.2-0.1,0.3-0.1
							c0.1,0,0.2,0,0.3,0.1l1.8,1l2.2-1.3v-2.1c0-0.1,0-0.1,0-0.2c0-0.1,0.1-0.2,0.2-0.3l0,0c0,0,0.4-0.3,0.4-1.2
							c0-0.2,0.1-0.4,0.3-0.5c0.2-0.1,1.3-0.8,2.5-1.4l-0.6-0.4c-0.2-0.1-0.3-0.3-0.3-0.5v-0.8c0-0.2,0.1-0.4,0.3-0.5l4.1-2.4
							c0.1,0,0.2-0.1,0.3-0.1s0.2,0,0.3,0.1l4.8,2.8c0.1,0.1,0.2,0.1,0.2,0.3l0.2,0.1l0.4-0.2c0.1,0,0.2-0.1,0.3-0.1
							c0.1,0,0.2,0,0.3,0.1l4.8,2.8c0.1,0,0.2,0.1,0.2,0.2l0.5,0.9l4.6,2.7c0,0,0.1,0.1,0.1,0.1c0,0,0,0,0,0.1l0.3,0.1
							c0.2,0.1,0.3,0.3,0.3,0.5v1.3c0,0.5,0.3,0.8,0.3,0.9c0.1,0.1,0.1,0.2,0.1,0.4v15.3c0,0.2-0.1,0.3-0.2,0.4
							c-0.1,0.1-0.2,0.1-0.3,0.1c0,0,0,0.1,0,0.1v1.3c0,0.2-0.1,0.4-0.3,0.5c-0.1,0-0.1,0.1-0.2,0.1c0,0.2-0.2,0.3-0.3,0.4l-3.8,2.2
							v0.5c0,0.2-0.1,0.4-0.3,0.5c-0.1,0-0.2,0.1-0.3,0.1s-0.2,0-0.3-0.1L72.6,56c-0.1,0-0.1-0.1-0.2-0.1l-0.6,0.3v2.1
							c0,0.2-0.1,0.4-0.3,0.5l-0.7,0.4C70.8,59.2,70.7,59.2,70.6,59.2z"/>
						<path d="M65.6,25l4.8,2.8l-0.1,0.1h0l0.1-0.1v0.1l0.7,0.4l0.7-0.4l4.8,2.8l0.6,1l4.6,2.7l-0.1,0.1h0l0.1-0.1v0.1l0.5,0.3
							c0,0,0,0.6,0,1.3c0,0.7,0.5,1.2,0.5,1.2v15.3c0,0,0,0,0,0c-0.1,0-0.5,0-0.5,0.7c0,0.7,0,1.3,0,1.3l-0.5-0.3c0,0.4,0,0.7,0,0.7
							v0l0,0l-4.1,2.4l-4.6-2.6h0l4.6,2.7v0.8l-4.8-2.8v-0.5l-1.6,0.9v2.4l-0.7,0.4l-2.8-1.6V51l-0.2-0.1l-1.4,0.8l-4.8-3.6l0.8-0.4
							c-0.2-0.2-0.3-0.4-0.4-0.7l-5.6,3.2l-2.8-14.3l0.7-0.4l2.1,1.2l2.7-1.6v-2.4h0l0,0l0,0c0.1-0.1,0.7-0.5,0.7-1.7
							c0.3-0.2,1.9-1.1,3.3-1.9l-1.5-0.8v-0.8v0L65.6,25 M65.6,23.9c-0.2,0-0.4,0-0.6,0.1l-4.1,2.4c-0.3,0.2-0.6,0.6-0.6,1v0.8
							c0,0.3,0.1,0.6,0.4,0.8c-0.8,0.5-1.5,0.9-1.7,1c-0.4,0.2-0.6,0.6-0.6,1c0,0.5-0.2,0.8-0.2,0.8c0,0,0,0-0.1,0.1
							c-0.3,0.2-0.4,0.5-0.4,0.9v1.8l-1.6,0.9l-1.5-0.9c-0.2-0.1-0.4-0.1-0.6-0.1c-0.2,0-0.4,0-0.6,0.1l-0.7,0.4
							c-0.4,0.2-0.6,0.7-0.5,1.2l2.8,14.3c0.1,0.4,0.3,0.7,0.6,0.8c0.1,0.1,0.3,0.1,0.5,0.1c0.2,0,0.4,0,0.6-0.1l4-2.3
							c0,0,0.1,0.1,0.1,0.1l4.8,3.6c0.2,0.1,0.4,0.2,0.7,0.2c0.1,0,0.3,0,0.4-0.1v4.4c0,0.4,0.2,0.8,0.6,1l2.8,1.6
							c0.2,0.1,0.4,0.1,0.6,0.1c0.2,0,0.4,0,0.6-0.1l0.7-0.4c0.3-0.2,0.6-0.6,0.6-1v-1.8l4.7,2.7c0.2,0.1,0.4,0.1,0.6,0.1
							c0.2,0,0.4-0.1,0.6-0.2c0.3-0.2,0.6-0.6,0.6-1v-0.2l3.5-2c0.2-0.1,0.4-0.2,0.5-0.4c0,0,0.1,0,0.1-0.1c0.3-0.2,0.6-0.6,0.6-1
							v-1.1c0,0,0.1-0.1,0.1-0.1c0.2-0.2,0.3-0.5,0.3-0.8V37.4c0-0.3-0.1-0.5-0.3-0.7c-0.1-0.1-0.2-0.3-0.2-0.5v-1.3
							c0-0.4-0.2-0.8-0.6-1l-0.1-0.1c0,0,0,0,0,0c0,0,0,0,0,0c0,0,0,0,0,0c0,0,0,0,0,0c0,0,0,0,0,0c0,0,0,0,0,0c0,0,0,0,0,0
							c0,0,0,0,0,0c0,0,0,0,0,0c0,0,0,0,0,0c0,0,0,0,0,0c0,0,0,0,0,0c0,0,0,0,0,0c0,0,0,0,0,0c0,0,0,0,0,0c0,0,0,0,0,0c0,0,0,0,0,0
							c0,0,0,0,0,0c0,0,0,0,0,0c0,0,0,0,0,0c0,0,0,0,0,0c0,0,0,0,0,0c0,0,0,0,0,0c0,0,0,0,0,0c0,0,0,0,0,0c0,0,0,0,0,0c0,0,0,0,0,0
							c0,0,0,0,0,0c0,0,0,0,0,0c0,0,0,0,0,0c0,0,0,0,0,0c0,0,0,0,0,0c0,0,0,0,0,0c0,0,0,0,0,0c0,0,0,0,0,0s0,0,0,0s0,0,0,0s0,0,0,0
							c0,0,0,0,0,0c0,0,0,0,0,0c0,0,0,0,0,0c0,0,0,0,0,0c0,0,0,0,0,0c0,0,0,0,0,0c0,0,0,0,0,0c0,0,0,0,0,0c0,0,0,0,0,0c0,0,0,0,0,0
							c0,0,0,0,0,0c0,0,0,0,0,0c0,0,0,0,0,0c0,0,0,0,0,0c0,0,0,0,0,0c0,0,0,0,0,0c0,0,0,0,0,0c0,0,0,0,0,0c0,0,0,0,0,0c0,0,0,0,0,0
							c0,0,0,0,0,0c0,0,0,0,0,0c0,0,0,0,0,0c0,0,0,0,0,0c0,0,0,0,0,0c0,0,0,0,0,0c0,0,0,0,0,0c0,0,0,0,0,0c0,0,0,0,0,0c0,0,0,0,0,0
							c0,0,0,0,0,0c0,0,0,0,0,0c0,0,0,0,0,0c0,0,0,0,0,0c0,0,0,0,0,0c0,0,0,0,0,0c0,0,0,0,0,0c0,0,0,0,0,0c0,0,0,0,0,0c0,0,0,0,0,0
							c0,0,0,0,0,0l0,0c0,0,0,0,0,0l0,0c0,0,0,0,0,0c0,0,0,0,0,0c0,0,0,0,0,0l0,0c0,0,0,0,0,0c0,0,0,0,0,0c0,0,0,0,0,0l0,0
							c0,0,0,0,0,0l0,0c-0.1-0.1-0.2-0.2-0.3-0.2L78,30.9l-0.4-0.8c-0.1-0.2-0.2-0.3-0.4-0.4L72.4,27c-0.2-0.1-0.4-0.1-0.6-0.1
							c-0.2,0-0.4,0-0.6,0.1l-0.1,0c-0.1-0.1-0.1-0.1-0.2-0.1l-4.8-2.8C66,24,65.8,23.9,65.6,23.9L65.6,23.9z"/>
					</g>
					<g>
						<path class="st3" d="M56.2,50.8c-0.1,0-0.2,0-0.3-0.1l-2.8-1.6c-0.2-0.1-0.3-0.3-0.3-0.5V35.9c0-0.3,0.2-0.5,0.5-0.6
							c0,0,0,0,0.1,0c0.3,0,0.5,0.2,0.5,0.5l2.8,14.3c0,0,0,0.1,0,0.1c0,0.2-0.1,0.4-0.3,0.5C56.4,50.7,56.3,50.8,56.2,50.8z"/>
						<path d="M53.4,35.9l2.8,14.3v0l-2.8-1.6V35.9 M53.4,34.8c0,0-0.1,0-0.1,0c-0.6,0.1-1,0.5-1,1.1v12.7c0,0.4,0.2,0.8,0.6,1
							l2.8,1.6c0.2,0.1,0.4,0.1,0.6,0.1c0.2,0,0.4-0.1,0.6-0.2c0.3-0.2,0.6-0.6,0.6-1c0-0.1,0-0.2,0-0.2l-2.8-14.3
							C54.4,35.2,54,34.8,53.4,34.8L53.4,34.8z"/>
					</g>
				</g>
				<path class="st4" d="M65.6,27.4v15.3c0,0,0.5,0.5,0.5,1.2c0,0.7,0,1.3,0,1.3l5,2.9l0.7,1.2l4.8,2.8l0.7-0.4l5,2.9
					c0,0,0-0.6,0-1.3c0-0.7,0.5-0.7,0.5-0.7V37.4c0,0-0.5-0.5-0.5-1.2c0-0.7,0-1.3,0-1.3l-5-2.9l-0.7-1.2l-4.8-2.8l-0.7,0.4l-5-2.9
					c0,0,0,0.6,0,1.3C66.1,27.5,65.6,27.4,65.6,27.4z M69,37.1c0-3.3,2.3-4.6,5.2-3c2.9,1.6,5.2,5.6,5.2,8.9c0,3.3-2.3,4.6-5.2,3
					C71.4,44.4,69,40.4,69,37.1z"/>
				<path class="st4" d="M65.1,27.8v15.3c0,0,0.5,0.5,0.5,1.2c0,0.7,0,1.3,0,1.3l5,2.9l0.7,1.2l4.8,2.8l0.7-0.4l5,2.9
					c0,0,0-0.6,0-1.3c0-0.7,0.5-0.7,0.5-0.7V37.8c0,0-0.5-0.5-0.5-1.2c0-0.7,0-1.3,0-1.3l-5-2.9l-0.7-1.2l-4.8-2.8l-0.7,0.4l-5-2.9
					c0,0,0,0.6,0,1.3C65.6,27.8,65.1,27.8,65.1,27.8z M68.6,37.5c0-3.3,2.3-4.6,5.2-3c2.9,1.6,5.2,5.6,5.2,8.9c0,3.3-2.3,4.6-5.2,3
					C70.9,44.8,68.6,40.8,68.6,37.5z"/>
				<polygon class="st4" points="66.3,50.9 70.4,48.5 70.4,49.3 66.3,51.7 				"/>
				<polygon class="st4" points="61.5,48.9 66.3,51.7 66.3,50.9 61.5,48.1 				"/>
				<polygon class="st5" points="65.6,45.7 61.5,48.1 66.3,50.8 70.4,48.5 				"/>
				<polygon class="st4" points="77.7,57.5 81.8,55.1 81.8,55.9 77.7,58.2 				"/>
				<polygon class="st4" points="72.9,55.5 77.7,58.2 77.7,57.5 72.9,54.7 				"/>
				<polygon class="st5" points="77,52.3 72.9,54.7 77.7,57.4 81.8,55.1 				"/>
				<polygon class="st4" points="65.1,29.2 65.1,41.9 58.9,45.4 58.9,32.7 				"/>
				<path class="st4" d="M58.9,32.7c0,0,0.7-0.4,0.7-1.7c0.5-0.3,5.5-3.2,5.5-3.2v1.3L58.9,32.7z"/>
				<path class="st6" d="M65.1,41.9v1.3c0,0-4.4,2.6-5.5,3.2c0-1.5-0.7-0.9-0.7-0.9L65.1,41.9z"/>
				<path class="st7" d="M74.9,47.1c0-4.1-2.8-9-6.4-11c-3.5-2-6.4-0.4-6.4,3.7c0,4.1,2.9,9,6.4,11C72.1,52.8,74.9,51.2,74.9,47.1z"
					/>
				<path class="st5" d="M61.7,32.7c0,0,0-0.5,0.3-0.7l5.5-3.2c0,0,0.3-0.2,0.8,0.1c0,0,11.4,6.5,11.7,6.8c0.3,0.2,1,0.8,1,1.8
					c0,0.9,0,13,0,13.5s-0.3,0.7-0.3,0.7l-5.5,3.2l-0.3,0.1V40.7L61.7,32.7z"/>
				<path class="st6" d="M61.7,32.7v13.5c0,0.7,0.5,1.5,1,1.8l11.7,6.8c0.6,0.3,1,0.1,1-0.6V40.7c0-0.7-0.5-1.5-1-1.8l-11.7-6.7
					C62.2,31.8,61.7,32.1,61.7,32.7z M65.1,41.5c0-2.2,1.5-3.1,3.4-2c1.9,1.1,3.4,3.8,3.4,6c0,2.2-1.5,3.1-3.4,2
					C66.7,46.3,65.1,43.6,65.1,41.5z"/>
				<path class="st6" d="M64.8,41.3c0,2.4,1.7,5.3,3.8,6.5c2.1,1.2,3.8,0.2,3.8-2.2c0-2.4-1.7-5.3-3.8-6.6
					C66.5,37.9,64.8,38.8,64.8,41.3z M65.1,41.5c0-2.2,1.5-3.1,3.4-2c1.9,1.1,3.4,3.8,3.4,6c0,2.2-1.5,3.1-3.4,2
					C66.7,46.3,65.1,43.6,65.1,41.5z"/>
				<polygon class="st4" points="66.3,30.2 70.4,27.8 70.4,28.6 66.3,31 				"/>
				<polygon class="st6" points="61.5,28.2 66.3,31 66.3,30.2 61.5,27.4 				"/>
				<polygon class="st5" points="65.6,25 61.5,27.4 66.3,30.2 70.4,27.8 				"/>
				<polygon class="st4" points="77.7,36.8 81.8,34.4 81.8,35.2 77.7,37.6 				"/>
				<polygon class="st6" points="72.9,34.8 77.7,37.6 77.7,36.8 72.9,34 				"/>
				<polygon class="st5" points="77,31.6 72.9,34 77.7,36.8 81.8,34.4 				"/>
				<polygon class="st5" points="53.4,35.9 54.1,35.5 56.2,36.7 61,33.9 58.9,32.7 59.6,32.3 61.7,33.5 61.7,33.5 62.4,33.9 
					62.4,33.9 62.4,33.9 61.7,34.3 61.7,34.3 56.2,37.5 				"/>
				<polygon class="st4" points="62.4,33.9 62.4,46.6 56.2,50.2 56.2,37.5 				"/>
				<polygon class="st6" points="53.4,35.9 53.4,48.6 56.2,50.2 56.2,37.5 				"/>
				<polygon class="st4" points="74.5,41.3 74.5,54 69.2,57.1 69.1,56.2 68.3,56.6 68.3,44.9 				"/>
				<polygon class="st4" points="71.3,45.6 71.3,58.3 70.6,58.7 70.6,45.9 				"/>
				<polygon class="st4" points="82.3,39.2 82.3,51.9 76.1,55.5 76.1,42.8 				"/>
				<path class="st4" d="M76.1,42.8c0,0,0.7-0.4,0.7-1.7c0.5-0.3,5.5-3.2,5.5-3.2v1.3L76.1,42.8z"/>
				<path class="st4" d="M82.3,51.9v1.3c0,0-4.4,2.6-5.5,3.2c0-1.5-0.7-0.9-0.7-0.9L82.3,51.9z"/>
				<polygon class="st6" points="67.9,44.4 67.9,57.1 70.6,58.7 70.6,45.9 				"/>
				<polygon class="st6" points="74,41.5 74,54.3 76.1,55.5 76.1,42.8 				"/>
				<polygon class="st5" points="76.8,42.4 76.1,42.8 74,41.6 69.2,44.3 71.3,45.5 70.6,45.9 67.8,44.4 74,40.8 				"/>
			</g>
			<line class="st8" x1="35.9" y1="61.9" x2="2.9" y2="80.9"/>
			<line class="st8" x1="68.4" y1="43.1" x2="45.9" y2="56.1"/>
		</g>
	</g>
	<g class="st0">
		<path class="st9" d="M279.2,108.5c-2.6,0-5.4,3.6-6.9,6c-1.5,2.4-2.8,1.7-2.8,1.7l-0.9-0.3l-13.4-6.6c-3.7-1.7-0.4-5.6-0.4-5.6
			c4.7-8.1,12.1-6,12.1-6l12,5.4"/>
		<path class="st10" d="M268.6,115.6c0.3-1.3,1.4-4.2,2.8-5.5c2.1-2,5.7-4.8,8.1-4.9"/>
	</g>
</g>
<path class="st11" d="M27.2,143.5c0,0,4.8,0,5.8-5.1c1-5.1,2.1-9.6,5.4-8.7l0-3.9c0,0-5.8-1-7.5,6C29,138.8,28.7,142.6,27.2,143.5z"
	/>
<path class="st11" d="M18.2,139.3l7.7,3.8c0,0,3.3,1,4.4-9.2c1.2-10.2,8-8,8-8l-14.9-7.2c0,0-2.7,0.1-4,2.1
	C19.4,121,14.4,130.5,18.2,139.3z"/>
</svg>
