<?xml version="1.0" encoding="utf-8"?>
<!-- Generator: Adobe Illustrator 26.0.3, SVG Export Plug-In . SVG Version: 6.00 Build 0)  -->
<svg version="1.1" xmlns="http://www.w3.org/2000/svg" xmlns:xlink="http://www.w3.org/1999/xlink" x="0px" y="0px"
	 viewBox="0 0 360 323.5" style="enable-background:new 0 0 360 323.5;" xml:space="preserve">
<style type="text/css">
	.st0{fill:#D0CFCD;}
	.st1{fill:none;stroke:#000000;stroke-width:0.5;stroke-linecap:round;stroke-linejoin:round;stroke-miterlimit:10;}
	.st2{fill:#D1D3D4;stroke:#000000;stroke-width:0.521;stroke-linecap:round;stroke-linejoin:round;stroke-miterlimit:22.926;}
	.st3{fill:none;stroke:#000000;stroke-width:3;stroke-linecap:round;stroke-linejoin:round;stroke-miterlimit:22.926;}
	.st4{fill:#FFFFFF;}
	.st5{fill:none;stroke:#000000;stroke-width:0.5;stroke-linecap:round;stroke-linejoin:round;stroke-miterlimit:22.926;}
	.st6{fill:none;stroke:#000000;stroke-width:0.507;stroke-linecap:round;stroke-linejoin:round;stroke-miterlimit:22.926;}
	.st7{fill:none;stroke:#FFFFFF;stroke-width:3;stroke-linecap:round;stroke-linejoin:round;}
	.st8{stroke:#000000;stroke-width:0.5;stroke-linecap:round;stroke-linejoin:round;}
	.st9{stroke:#FFFFFF;}
	.st10{stroke:#FFFFFF;stroke-linejoin:round;}
	.st11{fill:#231F20;stroke:#FFFFFF;stroke-width:1.5;stroke-miterlimit:10;}
	.st12{fill:none;}
	.st13{font-family:'ArialMT';}
	.st14{font-size:21px;}
	.st15{letter-spacing:-1;}
</style>
<g id="Layer_6">
	<path class="st0" d="M142.9,109.8c-2.9,0.2-5.2,1.9-5.2,4c0,2.2,2.5,4,5.7,4c3.1,0,5.7-1.8,5.7-4l-0.7-0.3l-4.7-3.3l0.3-0.7
		l-0.4-0.2L142.9,109.8z"/>
	<path class="st0" d="M143.5,117.9c-1.9,0.4-4.2-1.1-4.2-1.1c-1.9-1.7-1.6-3.4-1.6-3.4c-0.2,0.4-0.3,0.9-0.3,1.3
		c0,0.4,0.1,0.7,0.2,1c0.7,1.7,2.9,3,5.6,3L143.5,117.9z"/>
</g>
<g id="Unit">
	<path class="st1" d="M204.4,316.5l0.3-24.5c0,0,0.4-1.2-1.6-2.3c-2-1.1-194.6-128.9-194.6-128.9v26.1l195.8,129.9l1.7-1"/>
	<path class="st1" d="M8.6,160.7l0.6-1.3l0.1-3c0,0,0-0.8,0.8-0.6c0.8,0.2,4.7,1.8,4.7,1.8l1.3,2.2v1.2l0.7,1.3l5.9,3.9
		c0,0,0.7,0.3,0.4-0.7c0,0-0.2-0.6-0.8-0.9c-0.6-0.3-1.8-1.1-1.8-1.1l-0.4-0.9l1.2-0.5l151.9,100.7l1.3,2.1l0,1.2l0.6,1.2l5.8,3.8
		c0,0,0.6,0.4,0.7-0.2c0.1-0.7-0.7-1.2-0.7-1.2l-1.9-1.2l-0.3-0.8l1.1-0.5l20,13.2c0,0,0.4,0.2,0.6,0.8c0.1,0.2,0.1,0.5,0.1,0.8
		c-0.1,1.3,0,4.2,0,4.2l-0.6,1.2"/>
	<path class="st1" d="M324.7,209.2L209.1,283c0,0-1,0.4-0.9,1.7"/>
	<polyline class="st1" points="206.1,283.7 205.7,315.2 208.3,316.8 	"/>
	<path class="st1" d="M208.6,316.7l-1.3-2.6l1.3-2.6l0.3-17.8c0,0,0.2-2.9,3.4-1.7l9.8,6.5c0,0,1.5,1.3,3,0.3l28.7-18.7l0.4-1.1"/>
	<path class="st1" d="M313.1,242.2l21-13.4c0,0,0.1-1.3-1-2c-1-0.7-2.9-2.1-2.9-2.1s-0.7-0.3-1.8,0.4c-1,0.7-82.5,52.6-82.5,52.6
		l-0.9-0.2l-23.3,14.9c0,0-1.2,0.5-0.3,1.1c0.9,0.6,3.5,2.4,3.5,2.4s1,1.1,0.8,2.1"/>
	<path class="st1" d="M268.2,282.5c0,0-7.6,4.9-9.6,6.1c-2.1,1.3-2.3-0.7-2.3-0.7l0-5.9l58-36.9"/>
	<path class="st1" d="M272.2,279.9c0,0,1.3-0.8,2.9-3.1c1.6-2.3,3.3-3.1,3.3-3.1s31.5-20.1,33.9-21.7c2.4-1.6,2-2.8,2-2.8l0.2-4
		c0,0-1-1.9-1.3-2.5c-0.3-0.6-1-1-1-1l-58.2,37.2c0,0,0.7,0.6,0.8,1.2c0.2,0.6,1.2,1.9,1.2,1.9"/>
	<path class="st1" d="M210.2,318.8l0.6,0.7l2.1,1.3c0,0,1.1,0.7,1.2-0.9c0.1-1.6,0.3-20.5,0.3-20.5s0.1-0.9,1-0.4s6.4,4.3,6.4,4.3
		s1.7,1.3,4.1-0.3c2.6-1.7,25.5-16.3,25.5-16.3s2.2,3.9,6.1,2.3"/>
	<line class="st1" x1="224.9" y1="298.9" x2="224.9" y2="303.5"/>
	<path class="st1" d="M214,320.6c0,0,1.2,1.2,2.1,0.8c0.9-0.4,115.4-73.7,115.4-73.7l0-0.8"/>
	<path class="st1" d="M331.9,236l0,9.5c0,0,0,1.4-1,1.7l-31.3,20.1l0.1-5.9l16-10.3l0.1-4.8"/>
	<path class="st1" d="M314.5,247l19.3-12.2c0,0,0.2-0.3,0.2-0.8c0,0,1,0,1-1.4c0-1.4,0-13.3,0-13.3s0.1-1.1-0.8-1.6
		c-0.9-0.5-1.3-0.8-1.3-0.8"/>
	<line class="st1" x1="332.9" y1="214.8" x2="332.7" y2="226.5"/>
	<path class="st1" d="M333.7,235l-0.1,9.1c0,0,0.1,1.3-1.7,1.4"/>
	<polygon class="st1" points="316.7,247.8 324.2,243 324.2,249.5 316.7,254.4 	"/>
	<path class="st1" d="M310.2,256.7l3-1.9c0,0,0.4,0,0.4,0.3c0,0.3,0,0.7,0,0.7l-0.7,1l-2.3,1.5l-0.7-0.2l-0.1-0.9L310.2,256.7z"/>
	
		<ellipse transform="matrix(0.5351 -0.8448 0.8448 0.5351 -76.3911 380.398)" class="st1" cx="307.4" cy="259.6" rx="0.9" ry="0.7"/>
	
		<ellipse transform="matrix(0.5351 -0.8448 0.8448 0.5351 -79.332 378.9438)" class="st1" cx="304.6" cy="261.5" rx="0.9" ry="0.7"/>
	
		<ellipse transform="matrix(0.5351 -0.8448 0.8448 0.5351 -82.2728 377.4896)" class="st1" cx="301.8" cy="263.5" rx="0.9" ry="0.7"/>
	<path class="st1" d="M288.8,262.6l10.9-6.9c0,0,0.5-0.5,0.5,0.3c0,0.8,0,2.1,0,2.1s-0.1,0.5-0.8,0.9c-0.7,0.5-10.6,6.8-10.6,6.8
		s-0.5,0.4-0.5-0.2c0-0.7,0-2.4,0-2.4S288.5,262.8,288.8,262.6z"/>
	<path class="st1" d="M263.1,284.2l5.7-2.1h0.6c0,0,2.9-1,3.3-4c0,0,0.4-2.7-2.1-1.5l-1.3,0.8l-5.9,1.9l-2.8,1.8
		c0,0-2.6,2.4-1.6,4.5c0,0,0.5,0.9,2,0.1C262.5,284.8,263.1,284.2,263.1,284.2z"/>
	<path class="st1" d="M264.4,277.8l4.8-1.3c0,0,1.7-1.7,3.1-0.8c0,0,0.8,0.7,0.5,2"/>
	<path class="st1" d="M272.5,279.3c0,0,2.4-3.2,1.7-5.4c0,0-0.3-1.7-2.7-0.8l-10.8,6.9c0,0-3.9,3.4-2.7,6.5c0,0,0.4,1.6,3.2,0.3"/>
	<polyline class="st1" points="241.8,279.6 241.8,276.2 247.4,272.6 248.2,273.1 248.2,276.3 	"/>
	<polyline class="st1" points="249.9,275.1 248.6,271.8 251.3,270.1 252.7,270.9 252.7,273.3 	"/>
	<line class="st1" x1="244.1" y1="278.1" x2="241.9" y2="276.6"/>
	<line class="st1" x1="216.2" y1="289.3" x2="216.1" y2="294.4"/>
	
		<ellipse transform="matrix(0.833 -0.5533 0.5533 0.833 -124.6884 164.5052)" class="st1" cx="210.2" cy="288.8" rx="1.2" ry="1.7"/>
	<ellipse transform="matrix(0.833 -0.5533 0.5533 0.833 -128.0912 160.5974)" class="st1" cx="202" cy="292.5" rx="1.2" ry="1.7"/>
	<ellipse transform="matrix(0.833 -0.5533 0.5533 0.833 -133.2815 162.164)" class="st1" cx="202" cy="301.9" rx="1.2" ry="1.7"/>
	<ellipse transform="matrix(0.833 -0.5533 0.5533 0.833 -138.4717 163.7307)" class="st1" cx="202" cy="311.2" rx="1.2" ry="1.7"/>
	<polygon class="st1" points="37.4,166 59.9,151.6 65.8,155.4 69.9,152.8 83.1,161.7 60.7,176 54.8,172.1 50.6,174.9 	"/>
	<polygon class="st1" points="66.8,147.5 79.8,155.9 84.3,153.6 89.9,157.3 112.6,143 99.3,133.9 95.1,136.7 89.3,132.7 	"/>
	<polygon class="st1" points="96.3,128.6 109.5,137.3 113.6,134.7 119.7,138.3 142.1,124.1 128.8,115.2 124.7,118 118.8,113.9 	"/>
	<polygon class="st1" points="117.7,160 110.7,155.4 125.2,146.1 132.8,150.9 141.8,145.3 173.5,166.3 164.9,172.4 172,177.3 
		157.9,186.8 150.1,181.4 141.2,187.4 109.1,166 	"/>
	<polygon class="st1" points="175.6,215.4 190,206.2 197.5,211.1 206.5,205.3 238.4,226.5 229.7,232.4 236.6,237.1 222.6,246.6 
		214.8,241.7 205.9,247.6 174,226.2 182.8,220.4 	"/>
	<polyline class="st1" points="157.9,186.8 157.3,210.2 172.1,200.9 172,177.3 	"/>
	<polyline class="st1" points="150.1,181.4 150,205 157.3,210.2 	"/>
	<line class="st1" x1="143.6" y1="208.3" x2="150" y2="205"/>
	<line class="st1" x1="140.9" y1="206.3" x2="141.2" y2="187.4"/>
	<line class="st1" x1="109.1" y1="166" x2="108.8" y2="185"/>
	<line class="st1" x1="110.7" y1="155.4" x2="110.5" y2="165"/>
	<line class="st1" x1="112.6" y1="143" x2="112.3" y2="154"/>
	<polyline class="st1" points="110.3,162.6 89.7,175.8 83.1,171.5 	"/>
	<line class="st1" x1="119.4" y1="149.6" x2="119.7" y2="138.3"/>
	<polyline class="st1" points="130.9,149.4 141.9,142.4 142.1,124.1 	"/>
	<line class="st1" x1="96.3" y1="128.6" x2="96.1" y2="135.9"/>
	<line class="st1" x1="113.6" y1="134.7" x2="113.3" y2="153.7"/>
	<line class="st1" x1="109.5" y1="137.3" x2="109.4" y2="140.5"/>
	<polyline class="st1" points="92.3,134.6 94.4,133.3 96.1,132.3 	"/>
	<line class="st1" x1="94.5" y1="136.1" x2="94.4" y2="133.3"/>
	<line class="st1" x1="62.9" y1="153.5" x2="66.4" y2="151.2"/>
	<line class="st1" x1="66.8" y1="147.5" x2="66.5" y2="154.9"/>
	<line class="st1" x1="79.8" y1="155.9" x2="79.9" y2="159.3"/>
	<line class="st1" x1="84.3" y1="153.6" x2="84.2" y2="172.2"/>
	<line class="st1" x1="89.9" y1="157.3" x2="89.7" y2="175.8"/>
	<polyline class="st1" points="83.1,161.7 83,179.9 65.6,191.1 	"/>
	<line class="st1" x1="60.7" y1="176" x2="60.5" y2="187.9"/>
	<line class="st1" x1="54.8" y1="172.1" x2="54.6" y2="184"/>
	<line class="st1" x1="50.6" y1="174.9" x2="50.5" y2="181.2"/>
	<line class="st1" x1="37.4" y1="166" x2="37.2" y2="172.3"/>
	<path class="st1" d="M124.1,103.1l0.2-1.3l4.2-2.3l0.2-3.3l-1.2-0.7l0.2-4.2l1-1.3l0.2-6l-0.5-0.6v-3.1l0.9-0.6l5.3,1.9l1.3,2.2
		l-0.1,1.2l0.7,1.2l4.9,3.2c0,0,0.1,1.1-3,1.1c0,0-3.8-1.2-4.5,0.4c0,0-0.7,1.7,0.9,2.6c1.6,0.9,14,9.2,14,9.2s1.5,1.2,3.8,1.2
		c0,0,0.7-0.1,3.7,2.1s37.5,24.9,37.5,24.9s1.1,0.6,0.3,1.5c0,0-0.4,0.6,0.7,1.3c1,0.7,53,35.1,53,35.1s1.1,0.7,1,1.9
		c0,0-0.3,1.1,1.1,1.9s62.4,41.3,62.4,41.3s0.7,1.6,2.2,0.9c1.6-0.7,6.3-4,6.3-4s0.5-0.4-0.1-1.3c-0.2-0.3-0.5-0.7-1.1-1.2l0.9-0.6
		l-2.7-1.8l-2.1,0l0.1-1.4l-2.6-1.8l-2.5,1.6c0,0-1.2,0.7-3-0.6s-6.5-4.3-6.5-4.3s-0.8-0.9,0.3-1.6c1.1-0.7,2.2-1.4,2.2-1.4
		l-2.8-1.7"/>
	<path class="st1" d="M159.7,101.6l-0.3-0.2l-0.1-0.9l-0.7-0.7l0-1.2l-4.2-2.8c0,0-0.7-0.1-0.7,0.9c0,0-0.7-0.5-1.8-0.3l-1.5-0.9
		l-0.3-0.7l-1.7,1.2c0,0,7.9,5.2,9.1,6.1c1.2,0.9,1.6,0.4,1.6,0.4l1.2-0.9l8,5.2l-0.1,1.5l2.1,0l22.7,15l0.2,1.6h2.1l8.2,5.6
		l-2.2,1.3c-1.1,0.8-0.2,1.6-0.2,1.6l7.5,4.9c1.8,1.4,3.3,0.3,3.3,0.3l2-1.3l6.3,4.1l-1.9,1.1c0,0,8.2,5.6,9.4,6.3
		c1.2,0.8,1.6,0.2,1.6,0.2l1.2-0.7l6,3.8l-0.1,1.4l2.1,0.1l5.7,3.7c0,0-0.9,0.5-2.2,1.3s-0.2,1.7-0.2,1.7s4.9,3.1,6.6,4.4
		c1.7,1.3,3,0.4,3,0.4l2.3-1.4l7.2,4.7v1.5l2.1-0.1l20.4,13.5c-0.7,1.7,0.4,1.3,0.4,1.3h1.6l5.2,3.5l-0.9,0.7l9.2,6.1
		c0.9,0.7,1.6-0.1,1.6-0.1c0-0.3-0.7-1-0.7-1s-0.7-0.5-1.7-1.1c-1-0.5-0.3-1.3-0.3-1.3l1.2-0.5l20.5,13.6l0.2,0.7l0.6-0.2l4,2.8
		l-0.9,0.7l1.1,0.7l8.2,5.5c0,0-115.6,73.8-116.5,74.4c-0.9,0.6-1.6,0-1.6,0s-7.5-4.9-8.3-5.5c-0.8-0.5-0.8,0-0.8,0
		c-0.8,0.5-1.5-0.2-1.5-0.2l-3.7-2.4"/>
	<path class="st1" d="M149.7,94.5l-2-1.3l-2.2,0l0.2-1.4l-3.5-2.4c-0.1-0.4-1.3-1.3-2.2-1.8c-0.9-0.5-0.4-1.2-0.4-1.2l1.3-0.5
		l151.9,100.9l1,1.8v1.3l0.8,1.3l5.4,3.6"/>
	<polyline class="st1" points="312,203 311.5,201.9 306.8,198.7 304.8,198.3 303.7,197.6 303.4,196.4 	"/>
	<line class="st1" x1="319.9" y1="205.3" x2="319.9" y2="207.3"/>
	<line class="st1" x1="320.4" y1="207.8" x2="320.4" y2="209.1"/>
	<polyline class="st1" points="244.5,157.3 244.7,158.6 245.8,159.4 247.8,159.6 252.7,162.9 253.2,164.1 	"/>
	<path class="st1" d="M230.4,148.6l-0.7-0.5l-0.1-0.9l-0.6-0.5l-0.1-1c0,0-0.1-0.6-0.7-1c-0.7-0.4-3.5-2.3-3.5-2.3s-0.7,0.1-0.6,1.2
		c0,0,0-0.5-1.7-0.5l-1.6-0.9l-0.3-0.8"/>
	<polyline class="st1" points="203.7,130.4 204,131.6 205.7,132.8 207.9,133.1 212.2,136 212.7,137.2 213.3,137.6 	"/>
	<path class="st1" d="M138.2,95.8c0,0-1.8,0.3-1.8,3.3c0,3-0.3,18.3-0.3,18.3l4.6,3.3c0,0,1.9,1.4,3.8-0.5"/>
	<path class="st1" d="M144.1,99.7l-0.1,1.2l-4.5-2.9c0,0-0.7-0.4-0.7,1.2c0,1.5-0.1,10.8-0.1,10.8"/>
	<path class="st1" d="M147.9,119.8l28.6,18.6c0,0,1.2,1.2,1.2,1.9"/>
	<path class="st1" d="M179.5,143.2c0,0,1.4,1.1,2.4,0.4c1-0.7,1.7-0.2,1.7-0.2l15.3,10.1c0,0,1,0.4,0.9,1.8
		c-0.1,1.4-0.1,4.8-0.1,4.8s0,1,1.9,1.9"/>
	<ellipse transform="matrix(0.8072 -0.5902 0.5902 0.8072 -49.0653 132.9421)" class="st1" cx="179" cy="141.6" rx="1.2" ry="1.8"/>
	<path class="st1" d="M177.9,139.5c0.1-0.2,0.2-0.3,0.3-0.4c0.7-0.5,2-0.1,2.8,1c0.8,1.1,0.9,2.4,0.1,3c-0.3,0.2-0.7,0.3-1.2,0.2"/>
	<polyline class="st1" points="201.6,163.4 201.7,154.7 208.9,149.9 209,144.4 210,143.9 	"/>
	<polyline class="st1" points="214.7,147.1 206.8,152.3 230.2,167.9 238.3,162.6 	"/>
	<line class="st1" x1="213.8" y1="147.6" x2="209" y2="144.4"/>
	<polyline class="st1" points="206.8,152.3 206.6,158.3 201.7,154.7 	"/>
	<polyline class="st1" points="230.2,167.9 229.9,186.4 238.3,181 	"/>
	<polyline class="st1" points="238.6,162.9 238.3,186.7 237,187.6 237.1,181.8 	"/>
	<polyline class="st1" points="229.9,186.4 225,183.2 225,189 229.1,186.3 	"/>
	<line class="st1" x1="232.9" y1="184.7" x2="237" y2="187.6"/>
	<line class="st1" x1="219.7" y1="185.4" x2="224.9" y2="188.9"/>
	<polyline class="st1" points="246.7,189.6 245.5,190.3 278.6,212.4 279.8,211.6 	"/>
	<polyline class="st1" points="245.6,190.8 245.6,191.4 245,191.7 245,193.5 246.3,194.4 246.3,193.1 277.9,214.1 277.8,215.4 
		279,216.1 279,214.5 	"/>
	<path class="st1" d="M300.1,224.7l-14.5-9.7c0,0-0.7-0.3-0.7,0.7l-3-1.8c0,0,0.4-0.7-0.3-1.4l-2.2-1.5c0,0-0.7-0.2-0.7,0.4
		l-31.4-21c0.3-1-0.8-1.5-0.8-1.5s-1.5-1-1.9-1.2c-0.4-0.2-0.6,0.2-0.6,0.2s0,0.4,0,1.2s-0.6,0.4-0.6,0.4l-4.8-3.2"/>
	<polyline class="st1" points="278.6,212.4 278.5,213.9 279.4,214.4 281.8,212.9 	"/>
	<path class="st1" d="M287.6,217.4"/>
	<polyline class="st1" points="280.4,215 280.4,216.7 285.5,219.9 286.1,219.6 286.1,218.4 285.6,218.7 284.9,218.3 286.8,217 
		287.3,217.4 286.9,217.8 286.9,219 289.1,217.8 	"/>
	<polyline class="st1" points="221.3,202.9 221.5,196.7 223.1,195.7 278.5,232.4 278.8,238.3 	"/>
	<polyline class="st1" points="214.7,206.8 214.7,200.7 216.4,199.5 272.1,236.7 272.2,242.4 	"/>
	<polyline class="st1" points="208.1,206.4 208.1,205 209.8,204 265.5,240.8 265.5,246.6 	"/>
	<polyline class="st1" points="238.4,226.5 238.4,231.5 238.3,253.4 246.5,258.7 	"/>
	<polyline class="st1" points="238.4,231.5 258.8,245.1 258.8,251.3 	"/>
	<polyline class="st1" points="238.6,233.9 257.1,246.1 257.1,252.2 	"/>
	<polyline class="st1" points="263.8,247.9 263.8,241.8 208.1,205 	"/>
	<polyline class="st1" points="214.7,200.7 270.2,237.6 270.3,243.7 	"/>
	<polyline class="st1" points="277.1,239.6 276.9,233.4 221.7,196.9 	"/>
	<polyline class="st1" points="236.6,237.1 236.6,261.3 224.7,268.7 	"/>
	<line class="st1" x1="205.9" y1="247.6" x2="205.6" y2="254.4"/>
	<line class="st1" x1="214.8" y1="241.7" x2="214.7" y2="260.7"/>
	<line class="st1" x1="222.6" y1="246.6" x2="222.1" y2="265.2"/>
	<line class="st1" x1="175.6" y1="215.4" x2="175.3" y2="225"/>
	<line class="st1" x1="174" y1="226.2" x2="173.8" y2="233"/>
	<polyline class="st1" points="167.1,241 167,231.5 168.8,230.3 224.4,267.2 224.2,273.1 	"/>
	<polyline class="st1" points="157.8,243.2 157.8,237.4 159.4,236.2 215,273.1 215,279.2 	"/>
	<polyline class="st1" points="151.3,247.9 151.3,241.7 152.9,240.6 208.6,277.2 208.4,283.5 	"/>
	<polyline class="st1" points="158.4,237.4 213.3,274 213.4,280.3 	"/>
	<polyline class="st1" points="167,231.5 222.8,268.3 222.6,274.3 	"/>
	<polyline class="st1" points="151.3,241.7 206.8,278.3 206.7,283.7 	"/>
	<line class="st1" x1="206.8" y1="278.3" x2="208.6" y2="277.2"/>
	<line class="st1" x1="213.3" y1="274" x2="215" y2="273.1"/>
	<line class="st1" x1="222.8" y1="268.3" x2="224.4" y2="267.2"/>
	<line class="st1" x1="204.2" y1="283.5" x2="204.3" y2="290.2"/>
	<line class="st1" x1="257.1" y1="246.1" x2="258.8" y2="245.1"/>
	<line class="st1" x1="263.8" y1="241.8" x2="265.5" y2="240.8"/>
	<line class="st1" x1="270.2" y1="237.6" x2="272.1" y2="236.7"/>
	<line class="st1" x1="276.9" y1="233.4" x2="278.5" y2="232.4"/>
	<polyline class="st1" points="73.2,196.1 73.2,189.9 74.9,188.8 79.6,191.9 130.4,225.3 130.5,234 	"/>
	<polyline class="st1" points="137,228.2 137,221.2 86.2,187.4 81.5,184.3 79.8,185.6 79.6,191.9 	"/>
	<polyline class="st1" points="143.5,223.9 143.5,217 88.1,180.3 86.4,181.2 86.2,187.4 	"/>
	<polyline class="st1" points="93,182.9 93.2,176.9 94.7,176 150.3,212.9 150.3,219.6 	"/>
	<polyline class="st1" points="86.4,181.2 142,218 142.1,225 	"/>
	<polyline class="st1" points="79.8,185.6 135.3,222.3 135.4,229.3 	"/>
	<polyline class="st1" points="73.2,189.9 128.7,226.4 128.7,233 	"/>
	<polyline class="st1" points="93.2,176.9 148.7,213.9 148.7,220.9 	"/>
	<line class="st1" x1="128.7" y1="226.4" x2="130.4" y2="225.3"/>
	<line class="st1" x1="135.3" y1="222.3" x2="137" y2="221.2"/>
	<line class="st1" x1="142" y1="218" x2="143.5" y2="217"/>
	<line class="st1" x1="148.7" y1="213.9" x2="150.3" y2="212.9"/>
	<polyline class="st1" points="143.9,146.6 144,144.7 145.7,143.5 150.5,146.7 201.2,180.3 201.2,187.3 	"/>
	<polyline class="st1" points="207.8,183.2 207.7,176 152.3,139.4 150.7,140.4 150.5,146.7 	"/>
	<polyline class="st1" points="157.3,141.8 157.2,136.2 158.9,135 214.3,171.8 214.3,179 	"/>
	<polyline class="st1" points="174,170.7 194.5,184.5 194.7,191.5 	"/>
	<polyline class="st1" points="173.5,166.3 173.6,173 173.8,193.2 187.8,202.6 188.6,202.6 189.5,203.1 189.9,203.8 190.8,204.3 
		193.6,202.7 193.6,197.8 191.7,196.4 191.3,195.1 189.9,194.8 189.8,198.5 	"/>
	<polyline class="st1" points="173.6,173 192.8,185.4 192.9,192.6 	"/>
	<polyline class="st1" points="144,144.7 199.5,181.4 199.5,188.2 	"/>
	<polyline class="st1" points="157.2,136.2 212.7,172.8 212.7,179.7 	"/>
	<polyline class="st1" points="151.2,140.7 206.1,177.1 206.1,184.3 	"/>
	<line class="st1" x1="192.8" y1="185.4" x2="194.5" y2="184.5"/>
	<line class="st1" x1="199.5" y1="181.4" x2="201.2" y2="180.3"/>
	<line class="st1" x1="206.1" y1="177.1" x2="207.7" y2="176"/>
	<line class="st1" x1="212.7" y1="172.8" x2="214.3" y2="171.8"/>
	<polyline class="st1" points="173.8,187.5 188.3,197.6 190.9,199.4 190.8,203.9 	"/>
	<line class="st1" x1="188.1" y1="202.5" x2="188.3" y2="197.8"/>
	<g>
		<polyline class="st1" points="190,194.6 192.4,193.1 193.8,193.5 194.1,194.4 196.1,196.1 196.1,196.7 196,197.2 194.3,198.2 
			194.2,202.2 196.9,200.5 196.9,196.9 		"/>
		<line class="st1" x1="193.8" y1="193.8" x2="191.6" y2="195.1"/>
	</g>
	<g>
		<polyline class="st1" points="197,200.6 197.1,195.8 195.1,194.3 194.8,193 193.3,192.7 		"/>
		<g>
			<polyline class="st1" points="193.5,192.5 195.9,191 197.3,191.4 197.6,192.4 199.6,194.1 199.6,194.6 199.5,195.1 197.7,196.2 
				197.7,200.1 200.3,198.4 200.4,194.8 			"/>
			<line class="st1" x1="197.3" y1="191.7" x2="195" y2="193.1"/>
		</g>
	</g>
	<g>
		<polyline class="st1" points="200.1,198.5 200.2,193.6 198.3,192.2 197.9,190.9 196.5,190.6 		"/>
		<g>
			<polyline class="st1" points="196.6,190.4 199,188.9 200.4,189.3 200.7,190.3 202.7,191.9 202.7,192.5 202.6,193 200.9,194.1 
				200.8,198 203.5,196.3 203.5,192.7 			"/>
			<line class="st1" x1="200.4" y1="189.6" x2="198.2" y2="191"/>
		</g>
	</g>
	<g>
		<polyline class="st1" points="203.5,196.5 203.6,191.7 201.6,190.2 201.2,189 199.8,188.6 		"/>
		<g>
			<polyline class="st1" points="200,188.4 202.3,186.9 203.7,187.4 204,188.3 206,190 206.1,190.5 205.9,191 204.2,192.1 
				204.1,196 206.8,194.3 206.8,190.7 			"/>
			<line class="st1" x1="203.7" y1="187.6" x2="201.5" y2="189"/>
		</g>
	</g>
	<g>
		<polyline class="st1" points="206.8,194.4 206.8,189.5 204.9,188.1 204.5,186.8 203.1,186.5 		"/>
		<g>
			<polyline class="st1" points="203.2,186.3 205.6,184.8 207,185.2 207.3,186.1 209.3,187.8 209.4,188.4 209.2,188.9 207.5,189.9 
				207.4,193.9 210.1,192.2 210.1,188.6 			"/>
			<line class="st1" x1="207" y1="185.5" x2="204.8" y2="186.8"/>
		</g>
	</g>
	<g>
		<polyline class="st1" points="210,192.2 210.1,187.4 208.2,185.9 207.8,184.7 206.4,184.3 		"/>
		<g>
			<polyline class="st1" points="206.5,184.2 208.9,182.7 210.3,183.1 210.6,184 212.6,185.7 212.6,186.2 212.5,186.7 210.8,187.8 
				210.7,191.7 213.4,190.1 213.4,186.5 			"/>
			<line class="st1" x1="210.3" y1="183.3" x2="208.1" y2="184.7"/>
		</g>
	</g>
	<g>
		<polyline class="st1" points="213.3,190.1 213.4,185.2 211.4,183.8 211.1,182.5 209.6,182.2 		"/>
		<g>
			<polyline class="st1" points="209.8,182 212.2,180.5 213.6,180.9 213.9,181.9 215.9,183.5 215.9,184.1 215.8,184.6 214,185.7 
				214,189.6 216.6,187.9 216.7,184.3 			"/>
			<line class="st1" x1="213.6" y1="181.2" x2="211.3" y2="182.6"/>
		</g>
	</g>
	<g>
		<polyline class="st1" points="216.7,188 216.8,183.2 214.8,181.7 214.4,180.5 213,180.1 		"/>
		<g>
			<polyline class="st1" points="213.2,179.9 215.5,178.4 216.9,178.9 217.2,179.8 219.2,181.5 219.3,182 219.1,182.5 217.4,183.6 
				217.3,187.5 219.3,186.1 219.4,182.6 			"/>
			<line class="st1" x1="216.9" y1="179.1" x2="214.7" y2="180.5"/>
		</g>
	</g>
	<path class="st1" d="M189.8,196.4l2.7,2.7c0,0,0.5-0.4,1-0.3"/>
	<g>
		<polyline class="st1" points="132.1,235.4 132.2,231.8 133.6,232.1 134,233.4 135.9,234.8 135.9,235.6 		"/>
		<g>
			<polyline class="st1" points="137.2,238.7 139.2,237.5 139.2,233.9 			"/>
			<polyline class="st1" points="132.4,231.6 134.7,230.1 136.1,230.5 136.4,231.5 138.4,233.1 138.5,233.7 138.3,234.2 
				136.6,235.3 136.5,238.1 			"/>
			<line class="st1" x1="136.1" y1="230.8" x2="133.9" y2="232.2"/>
		</g>
	</g>
	<g>
		<polyline class="st1" points="139.3,237.3 139.4,232.5 137.4,231 137.1,229.8 135.6,229.4 		"/>
		<g>
			<polyline class="st1" points="135.8,229.3 138.1,227.8 139.5,228.2 139.8,229.1 141.8,230.8 141.9,231.3 141.8,231.8 140,232.9 
				139.9,236.8 142.6,235.2 142.6,231.6 			"/>
			<line class="st1" x1="139.5" y1="228.4" x2="137.3" y2="229.8"/>
		</g>
	</g>
	<g>
		<polyline class="st1" points="142.5,235.3 142.6,230.4 140.7,229 140.3,227.7 138.8,227.4 		"/>
		<g>
			<polyline class="st1" points="139,227.2 141.4,225.7 142.8,226.1 143.1,227.1 145.1,228.7 145.1,229.3 145,229.8 143.2,230.9 
				143.2,234.8 145.9,233.1 145.9,229.5 			"/>
			<line class="st1" x1="142.8" y1="226.4" x2="140.5" y2="227.8"/>
		</g>
	</g>
	<g>
		<polyline class="st1" points="145.9,233.2 146,228.3 144,226.9 143.7,225.6 142.2,225.3 		"/>
		<g>
			<polyline class="st1" points="142.4,225.1 144.8,223.6 146.2,224 146.5,224.9 148.5,226.6 148.5,227.2 148.4,227.7 146.6,228.7 
				146.6,232.7 149.2,231 149.3,227.4 			"/>
			<line class="st1" x1="146.2" y1="224.3" x2="143.9" y2="225.6"/>
		</g>
	</g>
	<g>
		<polyline class="st1" points="149.2,231 149.2,226.2 147.3,224.7 146.9,223.5 145.5,223.1 		"/>
		<g>
			<polyline class="st1" points="145.6,222.9 148,221.4 149.4,221.9 149.7,222.8 151.7,224.5 151.7,225 151.6,225.5 149.9,226.6 
				149.8,230.5 152.5,228.8 152.5,225.3 			"/>
			<line class="st1" x1="149.4" y1="222.1" x2="147.2" y2="223.5"/>
		</g>
	</g>
	<g>
		<polyline class="st1" points="152.4,229 152.5,224.1 150.6,222.7 150.2,221.4 148.7,221.1 		"/>
		<g>
			<polyline class="st1" points="148.9,220.9 151.3,219.4 152.7,219.8 153,220.7 155,222.4 155,223 154.9,223.5 153.1,224.5 
				153.1,228.4 155.8,226.8 155.8,223.2 			"/>
			<line class="st1" x1="152.7" y1="220.1" x2="150.4" y2="221.4"/>
		</g>
	</g>
	<g>
		<polyline class="st1" points="155.9,226.8 155.9,221.9 154,220.5 153.6,219.2 152.2,218.9 		"/>
		<g>
			<polyline class="st1" points="152.3,218.7 154.7,217.2 156.1,217.6 156.4,218.5 158.4,220.2 158.4,220.8 158.3,221.3 
				156.6,222.3 156.5,226.3 158.4,224.9 158.4,221.3 			"/>
			<line class="st1" x1="156.1" y1="217.9" x2="153.9" y2="219.2"/>
		</g>
	</g>
	<polyline class="st1" points="135.6,235.7 135.1,235.8 134.8,237.1 	"/>
	<polyline class="st1" points="24.3,163.2 27.7,161.1 30.5,162.9 33.3,161.1 30.4,159.2 34.3,156.8 37.3,158.5 	"/>
	<polyline class="st1" points="39.6,157.2 37.4,155.7 37.4,154.7 41,152.4 44,154.2 	"/>
	<polyline class="st1" points="46.2,152.7 44.2,151.4 44.2,150.6 47.9,148.1 50.7,149.9 	"/>
	<polyline class="st1" points="80.1,131.3 78.1,130 78,129.2 81.8,126.7 84.6,128.5 	"/>
	<polyline class="st1" points="86.8,126.9 84.8,125.6 84.7,124.8 88.5,122.3 91.3,124.1 	"/>
	<polyline class="st1" points="93.4,122.7 91.4,121.4 91.3,120.5 95,118.1 97.9,119.9 	"/>
	<polyline class="st1" points="100.2,118.4 98.2,117 98.1,116.2 101.9,113.8 104.7,115.5 	"/>
	<polyline class="st1" points="106.9,114 104.9,112.7 104.8,111.9 108.5,109.4 111.4,111.2 112.8,110.4 110.9,109 117,105.2 
		129.6,113.5 129.6,115.6 	"/>
	<polyline class="st1" points="71.2,133.5 74.9,131.1 77.8,132.9 	"/>
	<polyline class="st1" points="53.1,148.5 51,147.2 51,146 54.7,143.8 57.5,145.6 	"/>
	<polyline class="st1" points="59.8,144.1 57.8,142.7 57.7,141.8 63.2,138.5 66.1,140.4 	"/>
	<polyline class="st1" points="69.4,140.7 69.6,134.3 78.1,139.9 	"/>
	<line class="st1" x1="124" y1="117.2" x2="129.6" y2="113.5"/>
	<polyline class="st1" points="118.8,106.1 118.8,105 118.3,103.2 121.4,101.3 134.3,109.9 131.4,111.9 118.8,103.5 	"/>
	<line class="st1" x1="131.4" y1="111.9" x2="131.2" y2="116.7"/>
	<polyline class="st1" points="132.6,117.6 134.1,116.5 134.3,109.9 	"/>
	<path class="st1" d="M143.2,119c-5-0.2-5.4-3.3-5.4-3.3l-0.4-0.2c-1.2-2.7,1.2-5,1.2-5l4.9-3.1l8,5.3"/>
	<path class="st1" d="M143.6,118c-2.4,0.2-4-1.1-4-1.1c-3.6-2.8-0.8-5.4-0.8-5.4c1-1.6,4.2-1.7,4.2-1.7l0.7-0.6l0.4,0.3l-0.3,0.7
		l4.8,3.3l0.5,0.1"/>
	<path class="st1" d="M148.8,115c0,0-0.8,1.6-3.2,2.2c0,0-4.3,0.8-1.5,2.8"/>
	<path class="st1" d="M149.3,115.9c0,0-1.4,1.6-3.7,2c0,0-2.7,0.6-1.1,2.3c0,0,1.8,0.5,4-1s2.9-1.9,2.9-1.9"/>
	<path class="st1" d="M150.7,113.5l1.7,0.5c0,0,1.7,0.8,1.7,2.2c0,0-0.1,1.3-1.6,1.3l-2.2-0.7c0,0-1.5-1.1-1.2-2.2
		C149,114.6,149.1,113.4,150.7,113.5z"/>
	<path class="st1" d="M149.4,113.7c0,0,0.1-1.1,2.1-0.8l1.8,0.7c0,0,2.6,1.7,0.3,3.5"/>
	<line class="st1" x1="150.5" y1="116" x2="150.5" y2="114.3"/>
	<line class="st1" x1="151.4" y1="116.3" x2="151.4" y2="114.6"/>
	<line class="st1" x1="152.2" y1="116.6" x2="152.2" y2="114.9"/>
	
		<ellipse transform="matrix(0.8496 -0.5274 0.5274 0.8496 -32.8106 89.7215)" class="st1" cx="140.9" cy="102.4" rx="1.2" ry="1.7"/>
	<path class="st1" d="M139.5,101c0-0.5,0.2-0.8,0.5-1c0.6-0.4,1.7,0.2,2.4,1.3c0.7,1.1,0.7,2.4,0.1,2.8c-0.2,0.1-0.5,0.2-0.9,0.1"/>
	<line class="st1" x1="157.3" y1="110" x2="201.5" y2="139.4"/>
	<polyline class="st1" points="158.4,107.6 155,109.8 154.8,112.4 153.8,113.1 151.8,111.6 151.8,112.6 	"/>
	<polyline class="st1" points="152,111.5 154.2,110.1 154.2,109.4 155.8,108.3 156.4,108.7 	"/>
	<polyline class="st1" points="155.2,109.8 156.3,110.4 159.6,108.4 	"/>
	<polyline class="st1" points="202.4,138.8 200.2,140.2 202.4,141.6 204.6,140.3 204.6,150 202.3,151.5 202.4,141.7 	"/>
	<polyline class="st1" points="202.1,151.4 199.8,149.9 200.4,149.5 200.5,140.4 	"/>
	<path class="st1" d="M200.2,149.7l-0.8-0.4l0.1-9.3l-43.9-29.1l-0.1,3.8c0,0,1.2,0.8,0.8,1.9c0,0,0,0.9-1.3,0.6l-0.1,3.4l44,29.3"
		/>
	<path class="st1" d="M152.4,117.6c0,0,1,1.3,2.4,1.3"/>
</g>
<g id="Zoom">
	<path class="st0" d="M196.2,56.7l3.4-0.7c0,0,5-0.7,14.8-6.5S224.6,36,224.6,36l5.4-3.7l-3.5-2.1l-1.5,1.2
		c-2.3,1.6-4.9,0.1-4.9,0.1s-23.1-13.3-24.5-14.7c-1.4-1.3,3-3.2,3-3.2l-3.6-2.3l-5.3,3.4c0,0-12.3,1.2-20,8.3
		c-7.7,7.1-4.8,18-4.8,18"/>
	<g>
		<path class="st2" d="M226.4,86.1l1,7.2c2.1,9.9,15.4,17.1,31.3,16.6c17-0.6,30.5-10,30.2-20.9l-0.6-6.4"/>
		
			<ellipse transform="matrix(0.9994 -3.430507e-02 3.430507e-02 0.9994 -2.7451 8.8773)" class="st2" cx="257.3" cy="84.4" rx="30.9" ry="19.9"/>
		<g>
			<line class="st3" x1="247" y1="78.4" x2="267.3" y2="90.5"/>
			<line class="st3" x1="266.9" y1="78" x2="247.5" y2="91"/>
		</g>
	</g>
	<path class="st4" d="M290.7,90.4c0,0-5.1,2.8-9,3.1c-3.8,0.3-5.4,0.2-5.7,1.2c0,0-1.3,2.1-0.6,5.5c0,0-0.1,3.1,1.2,3.3
		c1.3,0.2,3.7,2,3.7,2l9.9-4.4L290.7,90.4z"/>
	<path class="st0" d="M164.7,40.9l-0.1,0.7c0,0-0.1,9.2,8.5,15.3c0,0,9.3,6.3,21.2,5.6l0.3-4.5l1.5-1.4"/>
	<path class="st5" d="M242.8,33.5l0.2,13.7l-19.3,12.9c-5.2,4.2-14.8,7.5-19.8,8.1c-5.1,0.6-6.6-3.4-6.6-3.4c-1.9-6,3.4-7.1,3.4-7.1
		c13.1-3.2,20.7-9.9,20.7-9.9L242.8,33.5L192.6,2.8l-22.8,15.4c0,0-8.8,7.3-8.9,17.6l-0.1,8.2l2.9,1.7c0,0-1.8-5.6,0.1-9.6"/>
	<path class="st5" d="M197.3,64.8l-1.4,0.5c0,0-1,0.2-1.3-2s0-5.2,0-5.2l1.5-1.4"/>
	<polygon class="st5" points="205.1,20.3 210,17.1 219.9,23 215,26.3 	"/>
	<path class="st6" d="M164.6,41.7c0,0-0.1,9.2,8.5,15.3c0,0,9.3,6.3,21.2,5.6"/>
	<path class="st6" d="M189.5,14.6c0,0-17,0.8-23.1,12.7c0,0-8.6,14.3,6.9,24.2c0,0,16,11.3,35.4,1.3c0,0,15.3-7.3,15.8-16.8l5.4-3.7
		l-3.5-2.1l-1.8,1.2c0,0-1.9,1.6-4.7,0c-2.8-1.5-24.5-14.7-24.5-14.7s-1-0.9,0.4-1.7c1.3-0.9,2.6-1.5,2.6-1.5l-3.6-2.3L189.5,14.6z"
		/>
	<g>
		<line class="st3" x1="180.1" y1="29.8" x2="200.4" y2="41.9"/>
		<line class="st3" x1="200" y1="29.4" x2="180.6" y2="42.4"/>
	</g>
	<path class="st5" d="M323.6,71.6l0.2,13.7l-19.3,12.9c-5.2,4.2-14.8,7.5-19.8,8.1c-5.1,0.6-6.6-3.4-6.6-3.4c-1.9-6,3.4-7.1,3.4-7.1
		c13.1-3.2,20.7-9.9,20.7-9.9L323.6,71.6l-50.2-30.7l-22.8,15.4c0,0-4.9,4-7.4,10.3"/>
	<path class="st6" d="M247.2,65.4c6.1-11.9,23.1-12.7,23.1-12.7l5.3-3.4l3.6,2.3c0,0-1.3,0.7-2.6,1.5c-1.3,0.9-0.4,1.7-0.4,1.7
		S298,68,300.8,69.5c2.8,1.5,4.7,0,4.7,0l1.8-1.2l3.5,2.1l-5.4,3.7c-0.6,9.5-15.8,16.8-15.8,16.8c-0.3,0.1-0.5,0.3-0.8,0.4
		c-4.7,2.5-11,2.6-11,2.6s-2,0.3-2.3,2.2c0,0-0.3,3,0,5.2c0.2,2.2,1.3,2,1.3,2l3,1.7"/>
	<polygon class="st5" points="286,58.4 290.8,55.2 300.7,61.1 295.8,64.4 	"/>
	<g>
		<line class="st7" x1="181.6" y1="65.1" x2="143.7" y2="112.9"/>
		<line class="st8" x1="181.6" y1="65.1" x2="143.7" y2="112.9"/>
	</g>
</g>
<g id="Numbers_x2F_Arrows">
	<line x1="254.2" y1="124.3" x2="253.6" y2="124.6"/>
	<polygon points="225.4,103.1 234.5,108.7 219.1,117.9 223.7,120.7 207.5,120 205.5,109.6 210,112.3 	"/>
	<g>
		<path class="st9" d="M157.7,63.3c-0.7,0.4-2.7,1.7-4.7,2.5c-2.3,0.9-4.1,0.9-5.2,0.1l0,0l11.3,9.5c1.1,0.8,2.9,0.8,5.2-0.1
			c2-0.8,4-2,4.7-2.5L157.7,63.3z"/>
		<path class="st10" d="M147.7,65.9c-1.8-2-1.1-6.8,2.2-13.4l0.1-0.3l-2.8-2.3l12.6-2.8l3.7,16.4l-2.8-2.3
			c-3.6,7.3-4.2,12.6-1.7,14.2L147.7,65.9z"/>
	</g>
	<g>
		<g>
			<path class="st11" d="M156.6,31c0,7.6-6.2,13.7-13.9,13.7c-7.7,0-14-6.2-14-13.7c0-7.6,6.2-13.8,14-13.8
				C150.3,17.3,156.6,23.4,156.6,31"/>
		</g>
		<rect x="128.4" y="23" class="st12" width="27.2" height="24.8"/>
		<text transform="matrix(1 0 0 1 136.1874 37.9894)" class="st4 st13 st14 st15">1</text>
	</g>
	<g>
		<g>
			<path class="st11" d="M223.7,90.2c0,7.6-6.2,13.7-13.9,13.7c-7.7,0-14-6.2-14-13.7c0-7.6,6.2-13.8,14-13.8
				C217.5,76.4,223.7,82.6,223.7,90.2"/>
		</g>
		<rect x="196.4" y="82.1" class="st12" width="27.2" height="24.8"/>
		<text transform="matrix(1 0 0 1 204.2082 97.1339)" class="st4 st13 st14 st15">2</text>
	</g>
</g>
</svg>
