<?xml version="1.0" encoding="utf-8"?>
<!-- Generator: Adobe Illustrator 26.0.3, SVG Export Plug-In . SVG Version: 6.00 Build 0)  -->
<svg version="1.1" id="Layer_1" xmlns="http://www.w3.org/2000/svg" xmlns:xlink="http://www.w3.org/1999/xlink" x="0px" y="0px"
	 viewBox="0 0 144.772 35.618" enable-background="new 0 0 144.772 35.618" xml:space="preserve">
<g>
	<path fill="none" stroke="#000000" stroke-width="0.7719" stroke-miterlimit="10" d="M131.012,35.232H13.76
		c-7.356,0-13.374-6.018-13.374-13.374V13.76c0-7.356,6.018-13.374,13.374-13.374h117.253c7.356,0,13.374,6.018,13.374,13.374v8.098
		C144.386,29.214,138.368,35.232,131.012,35.232z"/>
	<g>
		<path d="M13.917,6.824c-0.393-0.285-0.895-0.428-1.506-0.428c-0.248,0-0.492,0.025-0.732,0.074
			c-0.24,0.05-0.453,0.132-0.638,0.248c-0.186,0.116-0.335,0.271-0.447,0.465c-0.111,0.194-0.167,0.436-0.167,0.726
			c0,0.272,0.081,0.494,0.242,0.663c0.161,0.17,0.376,0.308,0.645,0.416s0.572,0.196,0.912,0.267
			c0.339,0.07,0.684,0.147,1.035,0.229c0.351,0.083,0.696,0.18,1.035,0.292c0.339,0.111,0.643,0.262,0.912,0.452
			c0.269,0.19,0.483,0.43,0.645,0.719c0.161,0.29,0.242,0.653,0.242,1.091c0,0.471-0.105,0.874-0.316,1.209
			c-0.211,0.334-0.481,0.607-0.812,0.818c-0.331,0.21-0.701,0.364-1.11,0.458c-0.409,0.095-0.816,0.143-1.221,0.143
			c-0.496,0-0.965-0.062-1.408-0.186c-0.442-0.124-0.831-0.312-1.166-0.564c-0.334-0.252-0.599-0.574-0.793-0.967
			c-0.194-0.393-0.291-0.857-0.291-1.395h1.116c0,0.372,0.072,0.692,0.217,0.961s0.335,0.49,0.57,0.663
			c0.236,0.174,0.511,0.302,0.825,0.384c0.314,0.083,0.637,0.124,0.967,0.124c0.264,0,0.531-0.025,0.8-0.074
			c0.269-0.05,0.51-0.134,0.725-0.254c0.215-0.12,0.389-0.283,0.521-0.49c0.132-0.207,0.198-0.471,0.198-0.793
			c0-0.306-0.081-0.554-0.242-0.744c-0.161-0.19-0.376-0.345-0.645-0.465c-0.269-0.12-0.572-0.217-0.911-0.292
			c-0.339-0.074-0.684-0.15-1.035-0.229c-0.352-0.079-0.697-0.169-1.036-0.273c-0.339-0.103-0.643-0.24-0.911-0.409
			S9.652,9.275,9.49,9.006c-0.161-0.269-0.242-0.605-0.242-1.01c0-0.447,0.091-0.833,0.273-1.16
			c0.182-0.326,0.423-0.595,0.725-0.806c0.302-0.211,0.645-0.368,1.029-0.471s0.779-0.155,1.184-0.155
			c0.455,0,0.876,0.054,1.265,0.161c0.389,0.108,0.729,0.277,1.023,0.509s0.525,0.522,0.694,0.874s0.263,0.771,0.279,1.258h-1.116
			C14.539,7.57,14.31,7.109,13.917,6.824z"/>
		<path d="M21.952,6.824c-0.393-0.285-0.895-0.428-1.506-0.428c-0.248,0-0.492,0.025-0.732,0.074
			c-0.24,0.05-0.453,0.132-0.638,0.248c-0.186,0.116-0.335,0.271-0.447,0.465c-0.111,0.194-0.167,0.436-0.167,0.726
			c0,0.272,0.081,0.494,0.242,0.663c0.161,0.17,0.376,0.308,0.645,0.416s0.572,0.196,0.912,0.267
			c0.339,0.07,0.684,0.147,1.035,0.229c0.351,0.083,0.696,0.18,1.035,0.292c0.339,0.111,0.643,0.262,0.912,0.452
			c0.269,0.19,0.483,0.43,0.645,0.719c0.161,0.29,0.242,0.653,0.242,1.091c0,0.471-0.105,0.874-0.316,1.209
			c-0.211,0.334-0.481,0.607-0.812,0.818c-0.331,0.21-0.701,0.364-1.11,0.458c-0.409,0.095-0.816,0.143-1.221,0.143
			c-0.496,0-0.965-0.062-1.408-0.186c-0.442-0.124-0.831-0.312-1.166-0.564c-0.334-0.252-0.599-0.574-0.793-0.967
			c-0.194-0.393-0.291-0.857-0.291-1.395h1.116c0,0.372,0.072,0.692,0.217,0.961s0.335,0.49,0.57,0.663
			c0.236,0.174,0.511,0.302,0.825,0.384c0.314,0.083,0.637,0.124,0.967,0.124c0.264,0,0.531-0.025,0.8-0.074
			c0.269-0.05,0.51-0.134,0.725-0.254c0.215-0.12,0.389-0.283,0.521-0.49c0.132-0.207,0.198-0.471,0.198-0.793
			c0-0.306-0.081-0.554-0.242-0.744c-0.161-0.19-0.376-0.345-0.645-0.465c-0.269-0.12-0.572-0.217-0.911-0.292
			c-0.339-0.074-0.684-0.15-1.035-0.229c-0.352-0.079-0.697-0.169-1.036-0.273c-0.339-0.103-0.643-0.24-0.911-0.409
			s-0.483-0.389-0.645-0.657c-0.161-0.269-0.242-0.605-0.242-1.01c0-0.447,0.091-0.833,0.273-1.16
			c0.182-0.326,0.423-0.595,0.725-0.806c0.302-0.211,0.645-0.368,1.029-0.471s0.779-0.155,1.184-0.155
			c0.455,0,0.876,0.054,1.265,0.161c0.389,0.108,0.729,0.277,1.023,0.509s0.525,0.522,0.694,0.874s0.263,0.771,0.279,1.258H22.64
			C22.574,7.57,22.344,7.109,21.952,6.824z"/>
		<path d="M26.794,5.615l4.662,7.179h0.025V5.615h1.116v8.853h-1.29l-4.625-7.104h-0.025v7.104h-1.116V5.615H26.794z"/>
		<path d="M34.567,9.434V8.058h1.376v1.376H34.567z M35.943,13.092v1.376h-1.376v-1.376H35.943z"/>
		<path d="M40.593,5.615h1.414l2.207,3.459l2.306-3.459h1.314l-2.926,4.303l3.112,4.55h-1.438l-2.38-3.658l-2.455,3.658h-1.314
			l3.075-4.55L40.593,5.615z"/>
		<path d="M48.169,5.615h1.414l2.207,3.459l2.306-3.459h1.314l-2.926,4.303l3.112,4.55h-1.438l-2.38-3.658l-2.455,3.658h-1.314
			l3.075-4.55L48.169,5.615z"/>
		<path d="M60.209,14.468h-1.178v-3.621l-3.422-5.232h1.401l2.653,4.216l2.592-4.216h1.339l-3.385,5.232V14.468z"/>
		<path d="M68.244,14.468h-1.178v-3.621l-3.422-5.232h1.401l2.653,4.216l2.592-4.216h1.339l-3.385,5.232V14.468z"/>
		<path d="M76.278,14.468H75.1v-3.621l-3.422-5.232h1.401l2.653,4.216l2.592-4.216h1.339l-3.385,5.232V14.468z"/>
		<path d="M84.313,14.468h-1.178v-3.621l-3.422-5.232h1.401l2.653,4.216l2.592-4.216h1.339l-3.385,5.232V14.468z"/>
		<path d="M92.347,14.468h-1.178v-3.621l-3.422-5.232h1.401l2.653,4.216l2.592-4.216h1.339l-3.385,5.232V14.468z"/>
		<path d="M100.381,14.468h-1.178v-3.621l-3.422-5.232h1.4l2.654,4.216l2.592-4.216h1.338l-3.385,5.232V14.468z"/>
		<path d="M108.417,14.468h-1.178v-3.621l-3.423-5.232h1.401l2.653,4.216l2.592-4.216h1.339l-3.385,5.232V14.468z"/>
		<path d="M116.451,14.468h-1.178v-3.621l-3.423-5.232h1.401l2.653,4.216l2.592-4.216h1.339l-3.385,5.232V14.468z"/>
		<path d="M124.486,14.468h-1.178v-3.621l-3.423-5.232h1.401l2.653,4.216l2.592-4.216h1.339l-3.385,5.232V14.468z"/>
		<path d="M132.52,14.468h-1.178v-3.621l-3.423-5.232h1.401l2.653,4.216l2.592-4.216h1.339l-3.385,5.232V14.468z"/>
	</g>
	<g>
		
			<line fill="none" stroke="#010101" stroke-width="1.1423" stroke-miterlimit="10" x1="18.073" y1="17.782" x2="18.073" y2="32.449"/>
		<path fill="none" stroke="#010101" stroke-width="0.5711" stroke-miterlimit="10" d="M19.741,17.782v14.667 M23.077,17.782v14.667
			"/>
		
			<line fill="none" stroke="#010101" stroke-width="1.1423" stroke-miterlimit="10" x1="25.413" y1="17.782" x2="25.413" y2="32.449"/>
		
			<line fill="none" stroke="#010101" stroke-width="1.7134" stroke-miterlimit="10" x1="28.415" y1="17.782" x2="28.415" y2="32.449"/>
		<path fill="none" stroke="#010101" stroke-width="0.5711" stroke-miterlimit="10" d="M31.084,17.782v14.667 M32.418,17.782v14.667
			"/>
		
			<line fill="none" stroke="#010101" stroke-width="1.7134" stroke-miterlimit="10" x1="35.087" y1="17.782" x2="35.087" y2="32.449"/>
		<path fill="none" stroke="#010101" stroke-width="1.1423" stroke-miterlimit="10" d="M38.089,17.782v14.667 M40.091,17.782v14.667
			"/>
		
			<line fill="none" stroke="#010101" stroke-width="1.7134" stroke-miterlimit="10" x1="42.426" y1="17.782" x2="42.426" y2="32.449"/>
		<path fill="none" stroke="#010101" stroke-width="0.5711" stroke-miterlimit="10" d="M45.095,17.782v14.667 M47.097,17.782v14.667
			"/>
		
			<line fill="none" stroke="#010101" stroke-width="1.1423" stroke-miterlimit="10" x1="49.432" y1="17.782" x2="49.432" y2="32.449"/>
		
			<line fill="none" stroke="#010101" stroke-width="1.7134" stroke-miterlimit="10" x1="51.767" y1="17.782" x2="51.767" y2="32.449"/>
		
			<line fill="none" stroke="#010101" stroke-width="0.5711" stroke-miterlimit="10" x1="54.436" y1="17.782" x2="54.436" y2="32.449"/>
		
			<line fill="none" stroke="#010101" stroke-width="1.7134" stroke-miterlimit="10" x1="57.105" y1="17.782" x2="57.105" y2="32.449"/>
		<path fill="none" stroke="#010101" stroke-width="1.1423" stroke-miterlimit="10" d="M60.107,17.782v14.667 M62.109,17.782v14.667
			"/>
		
			<line fill="none" stroke="#010101" stroke-width="0.5711" stroke-miterlimit="10" x1="64.444" y1="17.782" x2="64.444" y2="32.449"/>
		
			<line fill="none" stroke="#010101" stroke-width="1.7134" stroke-miterlimit="10" x1="66.445" y1="17.782" x2="66.445" y2="32.449"/>
		
			<line fill="none" stroke="#010101" stroke-width="0.5711" stroke-miterlimit="10" x1="69.114" y1="17.782" x2="69.114" y2="32.449"/>
		
			<line fill="none" stroke="#010101" stroke-width="1.7134" stroke-miterlimit="10" x1="71.783" y1="17.782" x2="71.783" y2="32.449"/>
		
			<line fill="none" stroke="#010101" stroke-width="1.1423" stroke-miterlimit="10" x1="74.118" y1="17.782" x2="74.118" y2="32.449"/>
		
			<line fill="none" stroke="#010101" stroke-width="1.7134" stroke-miterlimit="10" x1="77.121" y1="17.782" x2="77.121" y2="32.449"/>
		
			<line fill="none" stroke="#010101" stroke-width="0.5711" stroke-miterlimit="10" x1="79.122" y1="17.782" x2="79.122" y2="32.449"/>
		
			<line fill="none" stroke="#010101" stroke-width="1.1423" stroke-miterlimit="10" x1="81.457" y1="17.782" x2="81.457" y2="32.449"/>
		
			<line fill="none" stroke="#010101" stroke-width="0.5711" stroke-miterlimit="10" x1="83.793" y1="17.782" x2="83.793" y2="32.449"/>
		
			<line fill="none" stroke="#010101" stroke-width="1.7134" stroke-miterlimit="10" x1="86.461" y1="17.782" x2="86.461" y2="32.449"/>
		
			<line fill="none" stroke="#010101" stroke-width="1.1423" stroke-miterlimit="10" x1="88.797" y1="17.782" x2="88.797" y2="32.449"/>
		<path fill="none" stroke="#010101" stroke-width="0.5711" stroke-miterlimit="10" d="M91.132,17.782v14.667 M92.466,17.782v14.667
			"/>
		
			<line fill="none" stroke="#010101" stroke-width="1.1423" stroke-miterlimit="10" x1="94.801" y1="17.782" x2="94.801" y2="32.449"/>
		<path fill="none" stroke="#010101" stroke-width="0.5711" stroke-miterlimit="10" d="M98.471,17.782v14.667 M99.805,17.782v14.667
			"/>
		
			<line fill="none" stroke="#010101" stroke-width="1.1423" stroke-miterlimit="10" x1="102.808" y1="17.782" x2="102.808" y2="32.449"/>
		
			<line fill="none" stroke="#010101" stroke-width="0.5711" stroke-miterlimit="10" x1="105.81" y1="17.782" x2="105.81" y2="32.449"/>
		
			<line fill="none" stroke="#010101" stroke-width="1.7134" stroke-miterlimit="10" x1="108.479" y1="17.782" x2="108.479" y2="32.449"/>
		
			<line fill="none" stroke="#010101" stroke-width="1.1423" stroke-miterlimit="10" x1="110.814" y1="17.782" x2="110.814" y2="32.449"/>
		
			<line fill="none" stroke="#010101" stroke-width="0.5711" stroke-miterlimit="10" x1="113.149" y1="17.782" x2="113.149" y2="32.449"/>
		
			<line fill="none" stroke="#010101" stroke-width="1.1423" stroke-miterlimit="10" x1="114.817" y1="17.782" x2="114.817" y2="32.449"/>
		
			<line fill="none" stroke="#010101" stroke-width="1.7134" stroke-miterlimit="10" x1="117.153" y1="17.782" x2="117.153" y2="32.449"/>
		
			<line fill="none" stroke="#010101" stroke-width="1.1423" stroke-miterlimit="10" x1="120.822" y1="17.782" x2="120.822" y2="32.449"/>
		
			<line fill="none" stroke="#010101" stroke-width="1.7134" stroke-miterlimit="10" x1="124.492" y1="17.782" x2="124.492" y2="32.449"/>
		
			<line fill="none" stroke="#010101" stroke-width="0.5711" stroke-miterlimit="10" x1="126.493" y1="17.782" x2="126.493" y2="32.449"/>
		
			<line fill="none" stroke="#010101" stroke-width="1.1423" stroke-miterlimit="10" x1="128.161" y1="17.782" x2="128.161" y2="32.449"/>
	</g>
</g>
</svg>
