<?xml version="1.0" encoding="utf-8"?>
<!-- Generator: Adobe Illustrator 19.1.0, SVG Export Plug-In . SVG Version: 6.00 Build 0)  -->
<svg version="1.1" xmlns="http://www.w3.org/2000/svg" xmlns:xlink="http://www.w3.org/1999/xlink" x="0px" y="0px"
	 width="335.882px" height="268.153px" viewBox="0 0 335.882 268.153" enable-background="new 0 0 335.882 268.153"
	 xml:space="preserve">
<g id="Layer_1">
	
		<rect x="100.531" y="243.561" fill="none" stroke="#000000" stroke-width="0.5" stroke-linecap="round" stroke-linejoin="round" width="131.545" height="23.639"/>
	
		<rect x="100.531" y="123.285" fill="none" stroke="#000000" stroke-width="0.5" stroke-linecap="round" stroke-linejoin="round" width="131.545" height="23.64"/>
	
		<line fill="none" stroke="#000000" stroke-width="0.5" stroke-linecap="round" stroke-linejoin="round" x1="166.446" y1="123.712" x2="166.446" y2="135.302"/>
	
		<line fill="none" stroke="#000000" stroke-width="0.5" stroke-linecap="round" stroke-linejoin="round" x1="166.446" y1="135.344" x2="166.446" y2="146.933"/>
	<g>
		
			<rect x="137.149" y="130.106" fill="#211F1F" stroke="#211F1F" stroke-width="0.25" stroke-linecap="round" width="3.802" height="3.418"/>
		<circle fill="#211F1F" stroke="#211F1F" stroke-width="0.25" stroke-linecap="round" cx="154.965" cy="131.924" r="1.818"/>
		
			<rect x="132.598" y="135.021" fill="none" stroke="#211F1F" stroke-width="0.25" stroke-linecap="round" stroke-linejoin="round" width="12.904" height="6.884"/>
		
			<rect x="148.514" y="135.021" fill="none" stroke="#211F1F" stroke-width="0.25" stroke-linecap="round" stroke-linejoin="round" width="12.901" height="6.884"/>
	</g>
	<g>
		
			<rect x="107.061" y="130.354" fill="#211F1F" stroke="#211F1F" stroke-width="0.25" stroke-linecap="round" width="3.802" height="3.415"/>
		
			<rect x="104.9" y="135.27" fill="none" stroke="#211F1F" stroke-width="0.25" stroke-linecap="round" stroke-linejoin="round" width="8.127" height="6.883"/>
	</g>
	<g>
		<path fill="#211F1F" stroke="#211F1F" stroke-width="0.25" stroke-linecap="round" d="M121.199,132.169
			c0,1.009-0.815,1.824-1.818,1.824c-1.004,0-1.817-0.814-1.817-1.824c0-1.003,0.813-1.816,1.817-1.816
			C120.384,130.354,121.199,131.167,121.199,132.169z"/>
		
			<rect x="114.84" y="135.27" fill="none" stroke="#211F1F" stroke-width="0.25" stroke-linecap="round" stroke-linejoin="round" width="9.08" height="6.883"/>
	</g>
	<g>
		
			<rect x="203.027" y="130.106" fill="#211F1F" stroke="#211F1F" stroke-width="0.25" stroke-linecap="round" width="3.801" height="3.418"/>
		<circle fill="#211F1F" stroke="#211F1F" stroke-width="0.25" stroke-linecap="round" cx="220.845" cy="131.924" r="1.818"/>
		
			<rect x="198.477" y="135.021" fill="none" stroke="#211F1F" stroke-width="0.25" stroke-linecap="round" stroke-linejoin="round" width="12.901" height="6.884"/>
		
			<rect x="214.393" y="135.021" fill="none" stroke="#211F1F" stroke-width="0.25" stroke-linecap="round" stroke-linejoin="round" width="12.905" height="6.884"/>
	</g>
	<g>
		
			<rect x="172.94" y="129.792" fill="#211F1F" stroke="#211F1F" stroke-width="0.25" stroke-linecap="round" width="3.8" height="3.416"/>
		
			<rect x="170.778" y="134.707" fill="none" stroke="#211F1F" stroke-width="0.25" stroke-linecap="round" stroke-linejoin="round" width="8.123" height="6.883"/>
	</g>
	<g>
		<circle fill="#211F1F" stroke="#211F1F" stroke-width="0.25" stroke-linecap="round" cx="185.262" cy="131.608" r="1.819"/>
		
			<rect x="180.719" y="134.707" fill="none" stroke="#211F1F" stroke-width="0.25" stroke-linecap="round" stroke-linejoin="round" width="9.085" height="6.883"/>
	</g>
	
		<rect x="100.531" y="183.257" fill="none" stroke="#000000" stroke-width="0.5" stroke-linecap="round" stroke-linejoin="round" width="131.545" height="23.639"/>
	
		<line fill="none" stroke="#000000" stroke-width="0.5" stroke-linecap="round" stroke-linejoin="round" x1="166.446" y1="183.685" x2="166.446" y2="195.275"/>
	
		<line fill="none" stroke="#000000" stroke-width="0.5" stroke-linecap="round" stroke-linejoin="round" x1="166.446" y1="195.315" x2="166.446" y2="206.906"/>
	<g>
		
			<rect x="137.149" y="189.515" fill="#211F1F" stroke="#211F1F" stroke-width="0.25" stroke-linecap="round" width="3.802" height="3.423"/>
		<path fill="#211F1F" stroke="#211F1F" stroke-width="0.25" stroke-linecap="round" d="M156.783,191.333
			c0,1.009-0.816,1.823-1.819,1.823c-1.004,0-1.816-0.814-1.816-1.823c0-1,0.813-1.818,1.816-1.818
			C155.967,189.515,156.783,190.333,156.783,191.333z"/>
		
			<rect x="132.598" y="194.434" fill="none" stroke="#211F1F" stroke-width="0.25" stroke-linecap="round" stroke-linejoin="round" width="12.904" height="6.88"/>
		
			<rect x="148.514" y="194.434" fill="none" stroke="#211F1F" stroke-width="0.25" stroke-linecap="round" stroke-linejoin="round" width="12.901" height="6.88"/>
	</g>
	<g>
		
			<rect x="107.061" y="189.763" fill="#211F1F" stroke="#211F1F" stroke-width="0.25" stroke-linecap="round" width="3.802" height="3.42"/>
		
			<rect x="104.9" y="194.681" fill="none" stroke="#211F1F" stroke-width="0.25" stroke-linecap="round" stroke-linejoin="round" width="8.127" height="6.881"/>
	</g>
	<g>
		<path fill="#211F1F" stroke="#211F1F" stroke-width="0.25" stroke-linecap="round" d="M121.199,191.581
			c0,1.009-0.815,1.823-1.818,1.823c-1.004,0-1.817-0.814-1.817-1.823c0-1.004,0.813-1.818,1.817-1.818
			C120.384,189.763,121.199,190.577,121.199,191.581z"/>
		
			<rect x="114.84" y="194.681" fill="none" stroke="#211F1F" stroke-width="0.25" stroke-linecap="round" stroke-linejoin="round" width="9.08" height="6.881"/>
	</g>
	<g>
		
			<rect x="203.027" y="190.076" fill="#211F1F" stroke="#211F1F" stroke-width="0.25" stroke-linecap="round" width="3.801" height="3.423"/>
		<path fill="#211F1F" stroke="#211F1F" stroke-width="0.25" stroke-linecap="round" d="M222.663,191.896
			c0,1.009-0.816,1.824-1.818,1.824c-1.005,0-1.818-0.815-1.818-1.824c0-0.999,0.813-1.819,1.818-1.819
			C221.847,190.076,222.663,190.897,222.663,191.896z"/>
		
			<rect x="198.477" y="194.995" fill="none" stroke="#211F1F" stroke-width="0.25" stroke-linecap="round" stroke-linejoin="round" width="12.901" height="6.881"/>
		
			<rect x="214.393" y="194.995" fill="none" stroke="#211F1F" stroke-width="0.25" stroke-linecap="round" stroke-linejoin="round" width="12.905" height="6.881"/>
	</g>
	<g>
		
			<rect x="172.94" y="189.763" fill="#211F1F" stroke="#211F1F" stroke-width="0.25" stroke-linecap="round" width="3.8" height="3.42"/>
		
			<rect x="170.778" y="194.681" fill="none" stroke="#211F1F" stroke-width="0.25" stroke-linecap="round" stroke-linejoin="round" width="8.123" height="6.881"/>
	</g>
	<g>
		<path fill="#211F1F" stroke="#211F1F" stroke-width="0.25" stroke-linecap="round" d="M187.081,191.581
			c0,1.009-0.817,1.823-1.819,1.823c-1.006,0-1.818-0.814-1.818-1.823c0-1.004,0.812-1.818,1.818-1.818
			C186.264,189.763,187.081,190.577,187.081,191.581z"/>
		
			<rect x="180.719" y="194.681" fill="none" stroke="#211F1F" stroke-width="0.25" stroke-linecap="round" stroke-linejoin="round" width="9.085" height="6.881"/>
	</g>
	
		<line fill="none" stroke="#000000" stroke-width="0.5" stroke-linecap="round" stroke-linejoin="round" x1="166.446" y1="243.988" x2="166.446" y2="255.577"/>
	
		<line fill="none" stroke="#000000" stroke-width="0.5" stroke-linecap="round" stroke-linejoin="round" x1="166.446" y1="255.618" x2="166.446" y2="267.208"/>
	<g>
		
			<rect x="137.149" y="249.817" fill="#211F1F" stroke="#211F1F" stroke-width="0.25" stroke-linecap="round" width="3.802" height="3.423"/>
		<path fill="#211F1F" stroke="#211F1F" stroke-width="0.25" stroke-linecap="round" d="M156.783,251.636
			c0,1.01-0.816,1.823-1.819,1.823c-1.004,0-1.816-0.814-1.816-1.823c0-0.999,0.813-1.818,1.816-1.818
			C155.967,249.817,156.783,250.637,156.783,251.636z"/>
		
			<rect x="132.598" y="254.734" fill="none" stroke="#211F1F" stroke-width="0.25" stroke-linecap="round" stroke-linejoin="round" width="12.904" height="6.883"/>
		
			<rect x="148.514" y="254.734" fill="none" stroke="#211F1F" stroke-width="0.25" stroke-linecap="round" stroke-linejoin="round" width="12.901" height="6.883"/>
	</g>
	<g>
		
			<rect x="107.061" y="250.065" fill="#211F1F" stroke="#211F1F" stroke-width="0.25" stroke-linecap="round" width="3.802" height="3.419"/>
		
			<rect x="104.9" y="254.982" fill="none" stroke="#211F1F" stroke-width="0.25" stroke-linecap="round" stroke-linejoin="round" width="8.127" height="6.881"/>
	</g>
	<g>
		<path fill="#211F1F" stroke="#211F1F" stroke-width="0.25" stroke-linecap="round" d="M121.199,251.884
			c0,1.008-0.815,1.823-1.818,1.823c-1.004,0-1.817-0.815-1.817-1.823c0-1.003,0.813-1.818,1.817-1.818
			C120.384,250.065,121.199,250.881,121.199,251.884z"/>
		
			<rect x="114.84" y="254.982" fill="none" stroke="#211F1F" stroke-width="0.25" stroke-linecap="round" stroke-linejoin="round" width="9.08" height="6.881"/>
	</g>
	<g>
		
			<rect x="203.027" y="249.817" fill="#211F1F" stroke="#211F1F" stroke-width="0.25" stroke-linecap="round" width="3.801" height="3.423"/>
		<path fill="#211F1F" stroke="#211F1F" stroke-width="0.25" stroke-linecap="round" d="M222.663,251.636
			c0,1.01-0.816,1.823-1.818,1.823c-1.005,0-1.818-0.814-1.818-1.823c0-0.999,0.813-1.818,1.818-1.818
			C221.847,249.817,222.663,250.637,222.663,251.636z"/>
		
			<rect x="198.477" y="254.734" fill="none" stroke="#211F1F" stroke-width="0.25" stroke-linecap="round" stroke-linejoin="round" width="12.901" height="6.883"/>
		
			<rect x="214.393" y="254.734" fill="none" stroke="#211F1F" stroke-width="0.25" stroke-linecap="round" stroke-linejoin="round" width="12.905" height="6.883"/>
	</g>
	<g>
		
			<rect x="172.94" y="250.065" fill="#211F1F" stroke="#211F1F" stroke-width="0.25" stroke-linecap="round" width="3.8" height="3.419"/>
		
			<rect x="170.778" y="254.982" fill="none" stroke="#211F1F" stroke-width="0.25" stroke-linecap="round" stroke-linejoin="round" width="8.123" height="6.881"/>
	</g>
	<g>
		<path fill="#211F1F" stroke="#211F1F" stroke-width="0.25" stroke-linecap="round" d="M187.081,251.884
			c0,1.008-0.817,1.823-1.819,1.823c-1.006,0-1.818-0.815-1.818-1.823c0-1.003,0.812-1.818,1.818-1.818
			C186.264,250.065,187.081,250.881,187.081,251.884z"/>
		
			<rect x="180.719" y="254.982" fill="none" stroke="#211F1F" stroke-width="0.25" stroke-linecap="round" stroke-linejoin="round" width="9.085" height="6.881"/>
	</g>
	
		<rect x="32.531" y="47.724" fill="none" stroke="#000000" stroke-width="0.5" stroke-linecap="round" stroke-linejoin="round" width="266.939" height="47.971"/>
	
		<rect x="35.469" y="52.53" fill="none" stroke="#211F1F" stroke-width="0.25" stroke-linecap="round" stroke-linejoin="round" width="13.092" height="8.839"/>
	
		<rect x="51.763" y="52.53" fill="none" stroke="#211F1F" stroke-width="0.25" stroke-linecap="round" stroke-linejoin="round" width="13.091" height="8.839"/>
	<rect x="131.019" y="54.026" fill="#FFFFFF" stroke="#000000" stroke-width="0.25" width="7.273" height="12.366"/>
	<line fill="none" stroke="#000000" stroke-width="0.25" x1="130.777" y1="60.089" x2="138.292" y2="60.089"/>
	
		<line fill="none" stroke="#000000" stroke-width="0.5" stroke-linecap="round" stroke-linejoin="round" x1="166.29" y1="48.592" x2="166.29" y2="72.109"/>
	
		<line fill="none" stroke="#000000" stroke-width="0.5" stroke-linecap="round" stroke-linejoin="round" x1="166.29" y1="72.191" x2="166.29" y2="95.711"/>
	
		<line fill="none" stroke="#000000" stroke-width="0.5" stroke-linecap="round" stroke-linejoin="round" x1="32.678" y1="71.936" x2="299.383" y2="71.936"/>
</g>
<g id="text">
	<rect x="105.307" y="112.879" fill="none" width="20.242" height="9.097"/>
	<text transform="matrix(0.8685 0 0 1 105.3066 120.2358)" fill="#231F20" font-family="'Helvetica'" font-size="10.2325px">ACP</text>
	<rect x="138.386" y="112.596" fill="none" width="20.981" height="10.517"/>
	<text transform="matrix(0.8685 0 0 1 138.3853 119.9521)" fill="#231F20" font-family="'Helvetica'" font-size="10.2325px">SAS</text>
	<rect x="170.748" y="112.879" fill="none" width="20.242" height="9.097"/>
	<text transform="matrix(0.8685 0 0 1 170.748 120.2358)" fill="#231F20" font-family="'Helvetica'" font-size="10.2325px">ACP</text>
	<rect x="203.827" y="112.596" fill="none" width="20.981" height="10.517"/>
	<text transform="matrix(0.8685 0 0 1 203.8262 119.9521)" fill="#231F20" font-family="'Helvetica'" font-size="10.2325px">SAS</text>
	<rect x="105.307" y="172.951" fill="none" width="20.242" height="9.096"/>
	<text transform="matrix(0.8685 0 0 1 105.3066 180.3071)" fill="#231F20" font-family="'Helvetica'" font-size="10.2325px">ACP</text>
	<rect x="138.386" y="172.668" fill="none" width="20.981" height="10.517"/>
	<text transform="matrix(0.8685 0 0 1 138.3853 180.0249)" fill="#231F20" font-family="'Helvetica'" font-size="10.2325px">SAS</text>
	<rect x="170.748" y="172.951" fill="none" width="20.242" height="9.096"/>
	<text transform="matrix(0.8685 0 0 1 170.748 180.3071)" fill="#231F20" font-family="'Helvetica'" font-size="10.2325px">ACP</text>
	<rect x="203.827" y="172.668" fill="none" width="20.981" height="10.517"/>
	<text transform="matrix(0.8685 0 0 1 203.8262 180.0249)" fill="#231F20" font-family="'Helvetica'" font-size="10.2325px">SAS</text>
	<rect x="105.307" y="233.022" fill="none" width="20.242" height="9.099"/>
	<text transform="matrix(0.8685 0 0 1 105.3066 240.3774)" fill="#231F20" font-family="'Helvetica'" font-size="10.2325px">ACP</text>
	<rect x="138.386" y="232.738" fill="none" width="20.981" height="10.517"/>
	<text transform="matrix(0.8685 0 0 1 138.3853 240.0952)" fill="#231F20" font-family="'Helvetica'" font-size="10.2325px">SAS</text>
	<rect x="170.748" y="233.022" fill="none" width="20.242" height="9.099"/>
	<text transform="matrix(0.8685 0 0 1 170.748 240.3774)" fill="#231F20" font-family="'Helvetica'" font-size="10.2325px">ACP</text>
	<rect x="203.827" y="232.738" fill="none" width="20.981" height="10.517"/>
	<text transform="matrix(0.8685 0 0 1 203.8262 240.0952)" fill="#231F20" font-family="'Helvetica'" font-size="10.2325px">SAS</text>
	<rect x="118.118" y="149.944" fill="none" width="25.55" height="9.949"/>
	<text transform="matrix(0.8685 0 0 1 118.1177 157.3008)" fill="#231F20" font-family="'Helvetica'" font-size="10.2325px">IOM A</text>
	<rect x="184.076" y="150.356" fill="none" width="26.409" height="9.663"/>
	<text transform="matrix(0.8685 0 0 1 184.0757 157.7124)" fill="#231F20" font-family="'Helvetica'" font-size="10.2325px">IOM B</text>
	<rect x="244.595" y="123.676" fill="none" width="21.561" height="21.696"/>
	<text transform="matrix(0.8685 0 0 1 244.5942 131.0322)"><tspan x="0" y="0" fill="#231F20" font-family="'Helvetica'" font-size="10.2325px">First </tspan><tspan x="0" y="12.279" fill="#231F20" font-family="'Helvetica'" font-size="10.2325px">shelf</tspan></text>
	<rect x="243.986" y="243.597" fill="none" width="21.309" height="23.59"/>
	<text transform="matrix(0.8685 0 0 1 243.9858 250.9526)"><tspan x="0" y="0" fill="#231F20" font-family="'Helvetica'" font-size="10.2325px">Last </tspan><tspan x="0" y="12.279" fill="#231F20" font-family="'Helvetica'" font-size="10.2325px">shelf</tspan></text>
	<rect x="39.416" y="36.514" fill="none" width="22.534" height="9.165"/>
	<text transform="matrix(1 0 0 1 39.415 44.1279)" fill="#231F20" font-family="'Helvetica'" font-size="10.5904px">SAS</text>
	<rect x="123.388" y="36.049" fill="none" width="22.535" height="9.165"/>
	<text transform="matrix(1 0 0 1 123.3877 43.6631)" fill="#231F20" font-family="'Helvetica'" font-size="10.5904px">ACP</text>
	<rect x="123.267" y="79.369" fill="none" width="22.535" height="9.165"/>
	<text transform="matrix(1 0 0 1 123.2666 86.9824)" fill="#231F20" font-family="'Helvetica'" font-size="10.5904px">PSU</text>
	<rect x="261.934" y="79.369" fill="none" width="22.535" height="9.165"/>
	<text transform="matrix(1 0 0 1 261.9331 86.9824)" fill="#231F20" font-family="'Helvetica'" font-size="10.5904px">PSU</text>
	<g>
		<g>
			
				<rect x="43.047" y="64.804" fill="#211F1F" stroke="#211F1F" stroke-width="0.25" stroke-linecap="round" width="4.732" height="4.254"/>
			<text transform="matrix(1 0 0 1 34.8188 68.8818)" fill="#211F1F" font-family="'Myriad-Roman'" font-size="6.6884px">0b</text>
		</g>
		<g>
			<path fill="#211F1F" stroke="#211F1F" stroke-width="0.25" stroke-linecap="round" d="M65.202,66.655
				c0,1.253-1.015,2.263-2.264,2.263c-1.25,0-2.258-1.01-2.258-2.263c0-1.251,1.008-2.267,2.258-2.267
				C64.187,64.388,65.202,65.404,65.202,66.655z"/>
			<text transform="matrix(1 0 0 1 52.3428 68.8818)" fill="#211F1F" font-family="'Myriad-Roman'" font-size="6.6884px">0a</text>
		</g>
	</g>
</g>
<g id="cabling">
	<g>
		
			<line fill="none" stroke="#FFFFFF" stroke-width="3" stroke-linecap="round" stroke-linejoin="round" x1="155.635" y1="138.463" x2="140.733" y2="197.689"/>
	</g>
	<g>
		
			<line fill="none" stroke="#999999" stroke-width="2" stroke-linecap="round" stroke-linejoin="round" x1="155.635" y1="138.463" x2="140.733" y2="197.689"/>
	</g>
	<g>
		
			<line fill="none" stroke="#FFFFFF" stroke-width="3" stroke-linecap="round" stroke-linejoin="round" x1="156.642" y1="198.87" x2="141.74" y2="258.097"/>
	</g>
	<g>
		
			<line fill="none" stroke="#999999" stroke-width="2" stroke-linecap="round" stroke-linejoin="round" x1="156.642" y1="198.87" x2="141.74" y2="258.097"/>
	</g>
	<g>
		
			<line fill="none" stroke="#FFFFFF" stroke-width="3" stroke-linecap="round" stroke-linejoin="round" x1="222.754" y1="139.134" x2="207.852" y2="198.36"/>
	</g>
	<g>
		
			<line fill="none" stroke="#999999" stroke-width="2" stroke-linecap="round" stroke-linejoin="round" x1="222.754" y1="139.134" x2="207.852" y2="198.36"/>
	</g>
	<g>
		
			<line fill="none" stroke="#FFFFFF" stroke-width="3" stroke-linecap="round" stroke-linejoin="round" x1="223.761" y1="199.542" x2="208.859" y2="258.768"/>
	</g>
	<g>
		
			<line fill="none" stroke="#999999" stroke-width="2" stroke-linecap="round" stroke-linejoin="round" x1="223.761" y1="199.542" x2="208.859" y2="258.768"/>
	</g>
	<g>
		
			<line fill="none" stroke="#FFFFFF" stroke-width="3" stroke-linecap="round" stroke-linejoin="round" x1="62.204" y1="57.411" x2="136.035" y2="138.624"/>
	</g>
	<g>
		
			<line fill="none" stroke="#2E3192" stroke-width="2" stroke-linecap="round" stroke-linejoin="round" x1="62.204" y1="57.411" x2="136.035" y2="138.624"/>
	</g>
	<rect x="39.377" y="21.097" fill="none" width="109.598" height="9.597"/>
	<text transform="matrix(1 0 0 1 78.77 29.0703)" fill="#231F20" font-family="'Helvetica'" font-size="11.09px">PCM1</text>
	<rect x="26.5" y="1.479" fill="none" width="278.868" height="9.165"/>
	<text transform="matrix(1 0 0 1 68.2139 9.0933)" fill="#231F20" font-family="'Helvetica'" font-size="10.5904px">Single-controller-single-path configuration</text>
	<rect x="308" y="56.106" fill="none" width="27.882" height="20.511"/>
	<text transform="matrix(0.8685 0 0 1 308 63.061)" fill="#231F20" font-family="'Helvetica'" font-size="9.6731px">Slot B</text>
	<rect y="56.106" fill="none" width="27.882" height="20.511"/>
	<text transform="matrix(0.8685 0 0 1 -1.661611e-05 63.061)" fill="#231F20" font-family="'Helvetica'" font-size="9.6731px">Slot A</text>
</g>
</svg>
