<?xml version="1.0" encoding="utf-8"?>
<!-- Generator: Adobe Illustrator 19.1.0, SVG Export Plug-In . SVG Version: 6.00 Build 0)  -->
<svg version="1.1" xmlns="http://www.w3.org/2000/svg" xmlns:xlink="http://www.w3.org/1999/xlink" x="0px" y="0px" width="284.9px"
	 height="238.3px" viewBox="0 0 284.9 238.3" style="enable-background:new 0 0 284.9 238.3;" xml:space="preserve">
<style type="text/css">
	.st0{fill:#D1D3D4;}
	.st1{fill:none;stroke:#000000;stroke-width:0.3427;stroke-linecap:round;stroke-linejoin:round;stroke-miterlimit:10;}
	.st2{fill:#FFFFFF;}
	.st3{fill:none;stroke:#000000;stroke-width:0.4;stroke-linecap:round;stroke-linejoin:round;stroke-miterlimit:10;}
	.st4{fill:#FFFFFF;stroke:#000000;stroke-width:0.4;stroke-linecap:round;stroke-linejoin:round;stroke-miterlimit:10;}
	.st5{fill:none;stroke:#000000;stroke-width:0.4;stroke-linecap:round;stroke-linejoin:round;}
	.st6{fill:#FFFFFF;stroke:#000000;stroke-width:0.4;stroke-linecap:round;stroke-linejoin:round;}
	.st7{stroke:#000000;stroke-width:0.25;stroke-linecap:round;stroke-linejoin:round;}
	.st8{fill:none;stroke:#000000;stroke-width:0.3137;stroke-linecap:round;stroke-linejoin:round;stroke-miterlimit:10;}
	.st9{fill:#EC008C;stroke:#000000;stroke-width:0.25;stroke-linecap:round;stroke-linejoin:round;}
	.st10{fill:none;stroke:#000000;stroke-width:0.5931;stroke-linecap:round;stroke-linejoin:round;stroke-miterlimit:10;}
	.st11{stroke:#FFFFFF;stroke-width:2;}
	.st12{fill:none;stroke:#000000;stroke-width:0.5;stroke-linecap:round;stroke-linejoin:round;stroke-miterlimit:10;}
	.st13{fill:none;stroke:#000000;stroke-width:0.5;stroke-miterlimit:10;}
	.st14{fill:none;stroke:#000000;stroke-width:1.5;stroke-miterlimit:10;}
	.st15{fill:none;stroke:#000000;stroke-width:1.5;stroke-linecap:round;stroke-miterlimit:10;}
	.st16{fill:none;stroke:#000000;stroke-width:0.25;stroke-miterlimit:10;}
	.st17{fill:none;stroke:#000000;stroke-width:0.25;stroke-linecap:round;stroke-linejoin:round;stroke-miterlimit:10;}
	.st18{fill:#231F20;stroke:#FFFFFF;}
	.st19{fill:none;stroke:#000000;stroke-width:0.5;stroke-linecap:round;stroke-linejoin:round;}
	.st20{fill:none;stroke:#000000;stroke-width:0.5;stroke-linecap:round;stroke-linejoin:round;stroke-dasharray:2.9309,2.9309;}
	.st21{fill:#FFFFFF;stroke:#FFFFFF;}
	.st22{fill:none;stroke:#FFFFFF;stroke-width:2;stroke-linecap:round;stroke-linejoin:round;}
	.st23{fill:#FFFFFF;stroke:#000000;stroke-width:0.5;stroke-linecap:round;stroke-linejoin:round;}
</style>
<g id="GRAY">
	<path class="st0" d="M109.5,107.2l0.3,0.9l-1.4,0.3h-1.2l-0.2-0.8l12.8-22.4l5.9,0.5l1.3-1.6l5.4,0.2l0.2-0.9l15,0.9l0.1,4.9
		l-1.2,0.4l-12.2,21l-0.2,1.5l-6.4-0.5c0,0-1.3-0.3-3.4-0.1l-2.1-0.3c0,0-2.9,0.2-2.7-0.6l-4.8-1.1l-0.1-1.2"/>
	<path class="st0" d="M109.5,107.2c0,0,4.4-2.2,5.4,2.3"/>
</g>
<g id="SIMPLE_UNIT">
	<g>
		<g>
			<polyline class="st1" points="125.9,86 119.8,85.5 107.7,106.5 112.2,106.8 112.7,106.5 114.1,106.6 			"/>
			<polygon class="st1" points="114.7,105 126.9,84 141.2,85.3 129.5,105.7 119.5,105 119.1,105.4 			"/>
			<polygon class="st1" points="131,107.6 128,107.5 127.9,112 130.9,112.2 			"/>
			<polygon class="st1" points="134.5,107.6 132.2,107.4 132.1,111.9 134.4,112.1 			"/>
			<line class="st1" x1="132.1" y1="111.9" x2="131.2" y2="112.2"/>
			<polyline class="st1" points="134.6,110.5 146.8,89.8 147.1,84.6 133.8,107.3 			"/>
			<line class="st1" x1="141.6" y1="88.4" x2="144.5" y2="88.6"/>
			<line class="st1" x1="133.2" y1="102.9" x2="136.1" y2="103.1"/>
			<line class="st1" x1="127.1" y1="107" x2="128" y2="107.5"/>
			<polyline class="st1" points="121.7,106 132.4,106.8 131,107.6 			"/>
			<polyline class="st1" points="114.5,106.3 114.5,105.7 118.9,106 119.2,105.9 			"/>
			<line class="st1" x1="143.6" y1="84.7" x2="130.9" y2="106.7"/>
			<path class="st1" d="M133,84.5"/>
			<path d="M119.5,106.2l1.6,0.1c0,0,0.5-0.7-0.4-0.8C120,105.4,119.6,105.9,119.5,106.2z"/>
			<path d="M134.3,83.6l-1.6-0.1c0,0-0.5,0.7,0.3,0.8C133.8,84.4,134.2,83.9,134.3,83.6z"/>
			<path d="M112.5,107.8l1.6,0.1c0,0,0.5-0.7-0.4-0.8S112.5,107.5,112.5,107.8z"/>
			<polygon class="st1" points="119.9,108.6 123.6,108.9 123.6,111.5 119.8,111.2 			"/>
			<polyline class="st1" points="123.6,108.9 124.9,109 124.9,111.6 123.6,111.5 			"/>
			<polyline class="st1" points="119.9,108.6 112.4,108 112.4,108.5 112.4,109 113.7,109 113.9,109.3 115.8,109.5 116.2,109.8 
				116.7,109.8 116.8,110.3 119.7,110.5 			"/>
			<polyline class="st1" points="124.9,109 126,108.8 125.9,111.3 125,111.6 			"/>
			<line class="st1" x1="126" y1="108.8" x2="127.8" y2="108.9"/>
			<line class="st1" x1="125.9" y1="111.4" x2="127.7" y2="111.5"/>
			<polyline class="st1" points="130,106.4 142.1,85.8 141.4,85.3 			"/>
			<polyline class="st1" points="107.7,106.5 107.6,107.1 107.2,107.7 107.2,108.4 112.2,108.8 			"/>
			<line class="st1" x1="126.7" y1="108.1" x2="114.2" y2="107.3"/>
			<polyline class="st1" points="147,89.3 147.8,89.3 147.8,84.5 132.8,83.4 			"/>
		</g>
		<path class="st2" d="M107.9,109.7c0,0,0.3-2.6,3.4-3.3c0,0,3.9-0.6,3.6,4.2l-7.2,0.2L107.9,109.7z"/>
	</g>
	<g>
		<g>
			<g>
				<path class="st3" d="M68.7,158.6l-0.1-2.4c0-0.1,0.1-0.2,0.1-0.2c0.3-0.3,0.7-0.3,0.7-0.3l1.9,0.3c0.6,0.2,0.8,1,0.8,1l0.1,1.7
					c0.2,0,0.5-0.3,0.5-0.3s3.3-5.8,3.4-6s0.4-1.6,0.4-1.6s0.1-1,0-1.6c-0.1-0.6-1-0.9-1-0.9s-1.1-0.2-1.5-0.3
					c-0.4-0.1-0.7,0.2-0.7,0.2l-4.4,7.5"/>
				<line class="st3" x1="72.3" y1="156.8" x2="76.5" y2="149.4"/>
				<polyline class="st3" points="76.3,148.6 106.5,152.9 106.5,152.3 				"/>
				<line class="st3" x1="70" y1="156.4" x2="55.1" y2="183"/>
				<line class="st3" x1="71.7" y1="156.9" x2="56.9" y2="183.1"/>
				<line class="st3" x1="62.8" y1="174.8" x2="63" y2="184.8"/>
				<path class="st3" d="M48.6,187.8l2.2-4c0,0,0.7-0.9,2.1-0.8c1.4,0,9.4-0.7,16.6,6.2c7.2,6.9,5.8,14.8,5.8,14.8s-1.4,4.7-3,6.9"
					/>
				<path class="st3" d="M48.3,195l-0.1-5.8c0,0-0.2-1.7,1.9-2c2.1-0.2,7.9-0.4,14.4,3.9c6.4,4.3,10.1,12.2,8,18.9
					c0,0-1.4,5.4-8.7,7.7l-5.2-0.2"/>
				<path class="st3" d="M49.4,213.9l0,1.4c0,0,0,1.1,1.4,1.3c1.4,0.2,5.6,0.8,5.6,0.8s3.8,0.5,7-0.9s5.8-3,7.2-7.4
					c1.5-4.4-0.3-12.6-8.6-17.4c0,0-2.9-1.7-4.6-1.9c0,0-5.8-1-6.5,4.4l-0.1,5.6"/>
				<line class="st3" x1="53.9" y1="201.6" x2="60.2" y2="190.6"/>
				<path class="st3" d="M50.9,200.2c0,0,1.5-1,2.6,0.7l0.6,2.5l2.9-5.2c0,0-0.1-2.6-0.1-3.1c0-0.5-0.4-1.1-0.4-1.1
					c-1-1.2-2.1-0.4-2.1-0.4l-4.1,7.2"/>
				<path class="st3" d="M50.5,201.1l0.9,0.2c0,0,0.5-1,1.3-0.3l0.5,2.1c0,0-0.9,0.8-1.4,0.8c0,0,1.5,1.2,2.3-0.2"/>
				<line class="st3" x1="56.9" y1="199" x2="61.3" y2="191.2"/>
				<path class="st3" d="M49.9,197.3l0.3-2c0,0-0.2-1.4-1.7-0.7c0,0-1.7,1.5-2.3,6c0,0-0.3,1.9-0.3,2.9c-0.1,1,0.2,9,0.2,9
					s0.5,4.1,2.9,2"/>
				<path class="st3" d="M50.1,195.5c0,0-0.7,0.2-1.4,2.3c-0.7,2.1-1,5.5-1,7.2c0,1.6-0.2,9,0.9,9.2c0,0,1.4,0.3,2.6-6.6l0.6,4.5
					l0.6-0.9c0,0,0-3.5,1-5.1c0.1-0.2,0.2-0.4,0.4-0.5c0,0,0.9-0.4,0.8,1.7l0.6-0.8l0.2-3.3l6.6-11.6"/>
				<path class="st3" d="M54.5,207.3l-0.8,0c0,0-0.1-1-0.3-1.2"/>
				<line class="st3" x1="49.4" y1="215.3" x2="51.9" y2="211.9"/>
				<path class="st3" d="M52.2,211.9c0,0,0.7,0.5,1.1,0.5s7.1,0.8,7.1,0.8s6.4,0.2,10.2-4"/>
				<path class="st3" d="M64.5,185.5l10.9-19.4l0.6-0.2l0.7,0.1c0,0,0.5,0.4,0.2,2.2l-4.4,7.7c0,0-0.5,0.9-1.7,0.4l-5.5,9.8"/>
				<path class="st3" d="M72.6,175.6c0,0-0.2-2.2,0.5-3.5c0.8-1.3,3.5-6.2,3.5-6.2"/>
				<line class="st3" x1="207.9" y1="187.3" x2="77.2" y2="168.6"/>
				<path class="st3" d="M66.7,181.3c0,0,0.2-1.8,0.1-3l0.4-0.7L67,167.2"/>
				<polyline class="st3" points="67.3,175.4 69,172.3 68.8,163.7 				"/>
				<line class="st3" x1="71.7" y1="158.7" x2="57.8" y2="183.2"/>
				<line class="st3" x1="70.1" y1="161.7" x2="70.4" y2="172"/>
				<path class="st3" d="M69.2,172.2c0,0,1,0.3,1.3-0.3l1-1.8l-0.3-10.5"/>
				<line class="st3" x1="71.5" y1="166.9" x2="73.2" y2="167.2"/>
				<path class="st3" d="M71.3,163l2.2,0.3l0.2,0.2l-0.3,0.5c0,0-0.2,0.5-0.2,1.1c0.1,0.5,0.1,2.6,0.1,2.6s0,0.4,0.2,0.4
					s0.8,0.1,0.8,0.1"/>
				<path class="st3" d="M72.2,158.7l0,2.5v1.1l1.8,0.2c0,0,0.7,0.4,0.7,0.8s-0.4,0.9-0.4,0.9s-0.2,0.6-0.2,1s0.1,2.7,0.1,2.7"/>
				<path class="st3" d="M75.2,154.2l1.5,1.5c0,0,0.5,0.5,0.4,1.5l0.2,0.2v1.6l-0.2,0.3v0.8l-1.1,2.2l-1.4,1.1"/>
				<path class="st3" d="M74.3,155.7l1.4,1.4c0,0,0.6,0.6,0.6,1.3s0.1,3.2,0.1,3.2"/>
				<line class="st3" x1="75.2" y1="162.9" x2="75.2" y2="166"/>
				<polygon class="st3" points="78.8,154.8 90.6,156.4 91.2,165.6 79.2,163.8 				"/>
				<polygon class="st3" points="105.3,154 105.9,167.9 92.9,166 92.3,152.2 				"/>
				<polygon class="st3" points="116.7,163.9 137.7,166.8 137.3,160.7 116.5,157.6 				"/>
				<line class="st3" x1="127" y1="159.4" x2="127.1" y2="165.3"/>
				<path class="st3" d="M147.2,162.2c0,0-0.8-0.3-0.8,0.6l0.3,5.3l20.8,3.1l-0.2-5.7c0,0-0.1-0.5-0.6-0.5
					C166.2,164.9,147.2,162.2,147.2,162.2z"/>
				<line class="st3" x1="157.2" y1="169.5" x2="156.9" y2="163.6"/>
				<path class="st3" d="M171.5,162l0,14.8c0,0-19.4-3-20.1-2.7s-1.9-0.5-1.9-0.5l-1.4-1l-0.8-1c0-1.5-0.8-1.6-0.8-1.6
					s-6.7-1-7.3-1.1c-0.6-0.1-1.5,0-1.5,0.8c0,0.8-0.6,1.1-0.6,1.1l-1.9,0.7l-20.2-3c-1.7-0.1-1.5-1.6-1.5-1.6l-0.4-12.4
					c0,0,0.2-1.9-1.7-1.9"/>
				<line class="st3" x1="206.1" y1="176.2" x2="206.2" y2="183.3"/>
				<path class="st3" d="M212.7,177l-14.1-2c0,0-0.7-0.3-0.6,0.7c0.1,1,0.3,5.7,0.3,5.7s-0.1,0.9,0.7,0.8c0.8-0.1,11.1,1.7,11.1,1.7
					"/>
				<path class="st3" d="M139.4,174.8l0.8-0.8l4.3,0.7l0.9,0.8c0,0,1,1-0.3,1.5l-5-0.8C140,176.2,139.4,175.4,139.4,174.8z"/>
				<path class="st3" d="M214,177l-18.5,33.1l0.4,26.4c0,0-0.3,1.4-1.7,1.5c-1.4,0.1-3.7,0.3-6.6-0.3c-2.9-0.7-15.6-4.6-16.5-18.6
					c0,0-1.3-10,13.4-15.8c0,0,3.3-0.8,6.8-0.1c3.5,0.7,4.3,0.7,4.3,0.7s1.6,0,2.2,1.8l0.6,26.8l-2.5,4.4"/>
				<path class="st3" d="M190.2,235.1c-3.8,2.2-10.1-1.9-13.6-5.9c-3.5-4-5.1-12.5-0.9-17.1c0.2-0.2,0.3-0.3,0.5-0.5
					c4.3-4.1,11.2-3.8,11.2-3.8s5.2,0.8,6.1,0.8c0.9,0.1,1.2,1.3,1.2,1.3l0.3,19.2c0,0-0.5,3.2-1,4.5c-0.5,1.3-0.9,2.2-2,1
					c-1.1-1.3-0.4-12.3-0.4-12.3s1.3-6.5,2.8-5.5l-0.1-0.5c0,0-1.1-1.4-2.2-0.3s-2.4,6.4-2.4,8.2s0.2,9.1,0.2,9.1s0.4,4.2,3,2.3"/>
				<path class="st3" d="M190,231.4c0,0-5.9-0.3-11-6.6s-2.8-13.1-2.8-13.1"/>
				<path class="st3" d="M212.6,179.4c0,0-0.3-2.4,0.9-2.4c1.3,0,2.4,0.5,2.4,0.5l-17.7,31.5"/>
				<line class="st3" x1="217.4" y1="169.2" x2="213.4" y2="176.6"/>
				<path class="st3" d="M214.8,197.3c0,0,1.3,0.6,1.7-0.6l-0.3-18.7l4.4-7.4"/>
				<line class="st3" x1="198.5" y1="226" x2="216.4" y2="194.5"/>
				<polyline class="st3" points="216.4,196.7 220.6,189.5 221,188.9 				"/>
				<path class="st3" d="M220.5,189.5l1.5,0.2c0,0,0.8,0,0.9-0.8l-0.6-19.5"/>
				<polyline class="st3" points="223.1,189.3 284.7,81.2 284.4,74.9 283.8,74.2 281,72.2 281,70.3 				"/>
				<path class="st3" d="M274.1,84.2c-0.4,0.3-0.5,1.8-0.5,2.9s0.7,0.7,0.7,0.7s3-5,3.3-6.1c0.3-1,0.7-0.3,0.7-0.3l0,2.3l0,2.3
					c0.6-0.1,0.7-1.5,0.7-1.5l5.4-9.6"/>
				<path class="st3" d="M284,73.9"/>
				<path class="st3" d="M278.3,83.7"/>
				<path class="st3" d="M211.2,189.2l0.2,10.1l3.3-5.8c0,0,0.2-0.7,0.2-1.1s-0.2-8.9-0.2-8.9s0-0.7-0.4,0.1
					C213.9,184.5,211.2,189.2,211.2,189.2z"/>
				<path class="st3" d="M205.5,198.8l-5.8,10.2c0,0-0.5,0.9-0.5,3.8c0.1,2.8,0.1,6.7,0.1,6.7s0,1.4,0.7,0.6c0.7-0.7,5.6-10,5.6-10
					s0.6-1.9,0.6-2.8s-0.1-8.1-0.1-8.1S206.3,197.9,205.5,198.8z"/>
				
					<ellipse transform="matrix(0.9937 0.1122 -0.1122 0.9937 23.2556 -22.149)" class="st3" cx="208.4" cy="195.6" rx="0.7" ry="2.3"/>
				
					<ellipse transform="matrix(0.9937 0.1122 -0.1122 0.9937 24.1094 -22.1245)" class="st3" cx="208.6" cy="203.2" rx="0.7" ry="2.3"/>
			</g>
			<polygon class="st3" points="176,178.5 175.8,172.8 196.2,176 196.3,181.6 			"/>
			<line class="st3" x1="186.2" y1="179.9" x2="186" y2="174.4"/>
			<path class="st3" d="M221.2,188l-0.4-16.8c0,0-0.2-1.7-1.9-1.8s-44.7-6.6-44.7-6.6s0-0.9-1.2-0.9l-0.9-0.2l-1.1,0.8l-0.7-0.4
				l-57.2-8.2"/>
			<path class="st3" d="M73.8,157.1c0,0,1.2,2.9,0.2,5.6"/>
			<line class="st3" x1="53.8" y1="190.3" x2="53.9" y2="194.8"/>
			<line class="st3" x1="50.9" y1="201.5" x2="51" y2="207.7"/>
			<ellipse class="st3" cx="115.8" cy="149" rx="3.3" ry="1.6"/>
			<path class="st3" d="M222.4,169.3l4-6.7l0.9,2.6c0,0,1-0.1,0.9-2.6c-0.2-2.6,0.3-5.4,0.9-5.7c0.5-0.4,0.6-2.6,0.6-2.6l2.2-3.9
				l0.2,2.9l18.3-32l-0.1-4.2l7.9-14l0.4,5.5c0.9,0.4,0.9,0.9,0.9,0.9s-24.1,43.7-25.4,45.1c-1.7,1.8-2.2,6.5-2.1,6.4
				c0,0-1.2,13.4-3.1,15.9"/>
			<line class="st3" x1="223" y1="187.1" x2="228.9" y2="177"/>
			<path class="st3" d="M259.1,182.9"/>
			<line class="st3" x1="182.3" y1="156.4" x2="109.3" y2="145.7"/>
			<path class="st3" d="M189.8,153"/>
			<line class="st3" x1="221.5" y1="165.4" x2="181.5" y2="159.3"/>
			<polyline class="st3" points="174.6,162.5 174.9,161.6 220.7,168.4 			"/>
			<path class="st3" d="M182.6,156.3l-2,3.8c0,0-0.4,1.1-2.1,0.9s-3.5-0.5-3.5-0.5l-0.7,0.9l-3.8-0.6l-0.4,0.2L75,147.3v0.7"/>
			<polyline class="st3" points="152.1,151.9 157,143.5 177.4,146.4 177.8,146.8 177.7,147.1 173.2,154.8 			"/>
			<polyline class="st3" points="122.2,147.3 127,139.1 147.2,142 142.5,150.6 			"/>
			<polyline class="st3" points="95.9,146.6 98.4,142.2 110.3,144 107.5,148.5 76.7,144 75,147.3 			"/>
			<polygon class="st3" points="107.3,138.4 108.7,138.6 110.1,135.8 88.4,132.5 86.8,135.3 88.2,135.6 88.5,135.1 107.5,137.9 			
				"/>
			<polyline class="st3" points="109.4,143.7 111,141 110.8,136.4 110.6,136.2 110.6,134.5 98.5,132.6 98.7,132.3 95.7,131.8 
				95.3,132.2 88.9,131.3 88.9,132.3 			"/>
			<line class="st3" x1="95.3" y1="132.2" x2="95.4" y2="133.4"/>
			<line class="st3" x1="98.5" y1="134" x2="98.5" y2="132.6"/>
			<polyline class="st3" points="88.9,131.3 99.1,113.6 105.3,114.6 			"/>
			<polyline class="st3" points="110.7,134.3 119,119.3 114.9,118.7 115.7,117.3 102.5,115.5 101.5,117 97.6,116.5 			"/>
			<line class="st3" x1="111.1" y1="136.8" x2="114.6" y2="130.8"/>
			<polyline class="st3" points="114.7,135 114.7,137 126.7,138.8 			"/>
			<g>
				<polyline class="st3" points="143,141.3 143.1,133.7 152.3,118 				"/>
				<path class="st3" d="M114.7,135.1l-0.1-5.7l7-12.3l5.6,1l0.2,0.1l1.9-3.3l23,3.2c0,1.9,0.2,7.6,0.2,7.6l-8.8,15.6"/>
			</g>
			<g>
				<path class="st3" d="M185.3,132"/>
				<path class="st3" d="M176.8,141.4"/>
				<path class="st3" d="M174.8,141.1"/>
				<path class="st3" d="M172.8,140.8"/>
				<path class="st3" d="M170.7,140.5"/>
				<path class="st3" d="M168.7,140.2"/>
				<path class="st3" d="M166.7,139.9"/>
				<path class="st3" d="M164.7,139.5"/>
				<path class="st3" d="M162.7,139.2"/>
				<path class="st3" d="M160.7,139.1"/>
				<path class="st3" d="M158.5,138.7"/>
				<path class="st3" d="M156.5,138.5"/>
			</g>
			<g>
				<path class="st3" d="M194.1,66.5"/>
				<path class="st3" d="M192,66.3"/>
			</g>
			<g>
			</g>
			<polyline class="st3" points="226.9,160 186.4,154.2 183.2,159.6 			"/>
			<line class="st3" x1="203.9" y1="162.8" x2="207.2" y2="157.2"/>
			<polyline class="st3" points="205,162.9 206.5,160.4 207.1,160.5 222,162.7 220.4,165.2 			"/>
			<line class="st3" x1="206.9" y1="157.5" x2="207.1" y2="160.5"/>
			<line class="st3" x1="207.2" y1="159" x2="226.8" y2="162"/>
			<line class="st3" x1="84.3" y1="142.3" x2="87" y2="137.4"/>
			<polyline class="st3" points="86.8,135.3 87,141.5 88.5,141.9 88.9,141.4 97.9,142.7 			"/>
			<line class="st3" x1="88.3" y1="135.4" x2="88.5" y2="141.8"/>
			<line class="st3" x1="89.4" y1="135.3" x2="89.5" y2="141.6"/>
			<line class="st3" x1="90.6" y1="135.4" x2="90.7" y2="141.8"/>
			<line class="st3" x1="91.7" y1="135.8" x2="91.9" y2="141.8"/>
			<line class="st3" x1="92.7" y1="135.9" x2="92.9" y2="142"/>
			<line class="st3" x1="94.6" y1="135.9" x2="94.7" y2="142.3"/>
			<line class="st3" x1="96.4" y1="136.3" x2="96.5" y2="142.4"/>
			<line class="st3" x1="97.5" y1="136.5" x2="97.6" y2="142.6"/>
			<line class="st3" x1="98.6" y1="136.6" x2="98.7" y2="141.9"/>
			<line class="st3" x1="99.7" y1="137" x2="99.9" y2="142.2"/>
			<line class="st3" x1="100.8" y1="137.1" x2="101" y2="142.4"/>
			<line class="st3" x1="102" y1="137.2" x2="102.1" y2="142.5"/>
			<line class="st3" x1="103.2" y1="137.4" x2="103.3" y2="142.6"/>
			<line class="st3" x1="104.4" y1="137.7" x2="104.6" y2="143"/>
			<line class="st3" x1="105.5" y1="137.8" x2="105.7" y2="143.1"/>
			<line class="st3" x1="107.3" y1="138" x2="107.5" y2="143.3"/>
			<line class="st3" x1="108.8" y1="138.4" x2="108.9" y2="143.7"/>
			<path class="st3" d="M72.5,149.1v-2l2.6-4.3c0,0,0.2-0.4,1.1-0.1s0.5,1.3,0.5,1.3l-1.7,2.7c0,0-0.6,0.9-1.4,0.7
				c-0.5-0.1-0.3,0.9-0.3,0.9"/>
			<path class="st3" d="M75.9,142.4l2.2-4.1l0.9,0.1l0.6,3.3c0,0,0.9,1.3,0.8-2.2s1-6.6,1-6.6l0.5-2.4c0,0,0.2-1,0.6-1.3
				c0.5-0.3,1.1-1.9,1.1-1.9s0.7-1.2,0.9,1.1c0.2,2.3-0.5,14.1-0.5,14.1"/>
			<path class="st3" d="M147.2,142c0,0,0.3,0.1,0.5,0.4l0.3,3.7c0,0-0.8,1.2,0,1.5c0,0,0.8-0.4,0.9,0.5l-1.7,2.9"/>
			<ellipse class="st4" cx="173.3" cy="157.5" rx="3.5" ry="1.5"/>
			<path class="st3" d="M235,128.4l-0.2-6.3c0,0,0.1-1.5,0.3-1.5"/>
			<path class="st3" d="M243.8,123.3l-9-1.1l-8.5-1.6l0,0.7c0,0-2.8,0.3-3.8,3l11.7,2.1c0,0,0.7,0.2,0.7,0.8"/>
			<polyline class="st3" points="228.2,119.3 234.9,120.6 244,121.8 			"/>
			<path class="st3" d="M227.7,120.9c0,0-0.1-0.9,1.1-2.7c1.1-1.8,23.7-42.4,23.7-42.4l13.1,2.1l0.9-1.5l0.7,0.2l-1,1.4l2.6,0.4
				l-7.5,13.1l-2.5-0.3l-6.2,10.8l2.3,0.4l-10.4,19.1c0,0-0.5,0.6-0.5,2.4s0.3,7.6,0.3,7.6"/>
			<polyline class="st3" points="244.7,130.5 244.6,122.8 247.2,118.2 247.5,125.8 			"/>
			<line class="st3" x1="265.2" y1="99.7" x2="273.7" y2="84.8"/>
			<polygon class="st3" points="264.3,98.5 277.5,75.3 278.1,75 283.6,65 283.3,59.4 278.7,67.7 278.4,67.5 264.5,92 			"/>
			<polyline class="st3" points="249.3,122.7 248.9,115.6 247.9,115.3 			"/>
			<polyline class="st3" points="253.4,102.2 258.9,92.7 258.7,91.5 			"/>
			<polyline class="st3" points="254.8,102.4 259.6,93.7 258.5,93.6 			"/>
			<line class="st3" x1="259.8" y1="95.7" x2="259.6" y2="93.7"/>
			<polyline class="st3" points="259.2,92.7 260.6,93.3 260.6,94.7 			"/>
			<line class="st3" x1="260.4" y1="94.7" x2="255.6" y2="103.2"/>
			<path class="st3" d="M257.3,102.9l4-7.3c0,0,0.6-1.1,0.7,0.9c0.1,2,0,2.4,0,2.4l0.3,0.7l-3.9,6.5"/>
			<path class="st3" d="M258.8,107.4l4-7c0,0,0.9-1.9-0.6-1.9"/>
			<path class="st3" d="M225.4,119.2l17.2-29.6c0,0,1.2-0.1,1.4-1.6l1.5-2.2c0,0,0.2-2.3,1-3.4"/>
			<path class="st3" d="M247.2,85.3c0,0-2.1-5.2,2.7-7.6"/>
			<polyline class="st3" points="251.6,75.5 255,69.1 265.2,70.7 266.2,71.1 268.2,71.3 268.9,71.7 269.6,70.6 255.1,68.4 
				256.4,66.5 266.1,67.7 274.1,69.3 272.9,71.3 269.8,70.6 			"/>
			<line class="st3" x1="261.5" y1="77.1" x2="265.3" y2="70.4"/>
			<line class="st3" x1="266.2" y1="71.4" x2="262.7" y2="77.3"/>
			<line class="st3" x1="264.5" y1="77.8" x2="268.2" y2="71.3"/>
			<path class="st3" d="M273.6,69.1l0.3-0.7l-19.9-3l-0.8,1.3c0,0-0.8,1.4,2.2,1.6"/>
			<path class="st3" d="M269.3,67.3c0,0-5.4-7.6-18.1-8.7c-15.8-1.4-15.4,9.4-15.4,9.4s0.5,1.2,2.9,1.2c2.1,0.1,2.6-1.6,2.6-1.6
				s0.4-4,8.4-3.4c0,0,3.7,0.2,5.8,1.3"/>
			<ellipse class="st4" cx="209.3" cy="85.2" rx="3.2" ry="1.6"/>
			<polygon class="st3" points="154.7,46.3 151.5,52.6 150.5,52.5 148,56.8 139.5,55.6 141.9,51.1 141.1,50.9 144.5,44.7 
				145.6,44.6 153.9,45.6 			"/>
			<polygon class="st3" points="154.7,46.3 155.6,45.9 164.5,47.2 165,47.6 161.3,54 160.5,53.9 158.1,58.1 149.6,57 152,52.6 
				151.5,52.6 			"/>
			<polyline class="st3" points="165,47.6 166.1,47.6 174.5,48.7 175,49.3 171.4,55.6 170.7,55.3 168.2,59.6 159.8,58.4 162.2,54.2 
				161.6,53.9 			"/>
			<polygon class="st3" points="177.1,48.2 170.1,60.1 177.7,61.2 184.6,49.2 			"/>
			<polyline class="st3" points="197.3,52.2 188.1,50.8 187.3,51.1 183.9,57.3 184.6,57.5 182,61.7 190.7,63.1 193,58.7 193.6,58.9 
							"/>
			<polyline class="st3" points="201.3,61.6 207.1,51.6 198.6,50.4 191.9,62.2 198.5,63.2 			"/>
			<polyline class="st3" points="207.2,62.3 207.9,61 207.1,60.8 210.5,54.5 211.2,54.1 220.3,55.5 220.8,56 217.1,62.2 216.3,62.1 
				215.3,63.7 			"/>
			<polyline class="st3" points="221.3,55.6 230.2,57 230.8,57.4 227.4,63.9 226.5,63.6 224,67.8 224.1,68.7 			"/>
			<polyline class="st3" points="193.6,71.6 192,71.4 191.9,62.2 			"/>
			<path class="st3" d="M182,61.7c0,0-0.4,1.6-0.3,3.5c0.1,1.9,0.2,4.7,0.2,4.7l8.2,0.9l1.7-2.6"/>
			<path class="st3" d="M139.5,55.6c0,0-0.2,0.7-0.3,2.6c-0.1,1.9,0,5.2,0,5.2l8.6,1.2l1.6-2.2"/>
			<path class="st3" d="M149.6,57c0,0-0.3,1.2-0.3,2.6c0,1.4,0.1,5.5,0.1,5.5l2.3,0.2"/>
			<path class="st3" d="M158.1,58.1c0,0,0,2.7-0.1,3.6"/>
			<polyline class="st3" points="159.8,58.4 159.4,60.1 159.5,62 			"/>
			<polyline class="st3" points="168.4,59.3 168,61.1 168,63.3 			"/>
			<polyline class="st3" points="148,56.8 147.7,58.1 147.9,64.2 			"/>
			<line class="st3" x1="170.1" y1="60.1" x2="170.3" y2="63.5"/>
			<polyline class="st3" points="190.7,63.1 190.3,64.5 190.5,70.6 			"/>
			<polyline class="st3" points="184.9,49.5 184.6,52.4 184.5,55.4 			"/>
			<line class="st3" x1="207.1" y1="51.6" x2="207.1" y2="60.8"/>
			<polyline class="st3" points="230.8,57.4 231.7,57.3 240.6,58.5 241.1,58.9 240.9,59.8 			"/>
			<polyline class="st3" points="227.4,63.9 228.2,63.9 225.7,68 234.5,69.4 			"/>
			<g>
				<path class="st3" d="M152.4,76.2l-0.8,1.3v4c0,0,0.2,0.7-0.8,0.5c-1-0.2-5.8-0.9-5.8-0.9l0.1,2l6.2,0.9"/>
				<path class="st3" d="M153.1,80.9"/>
			</g>
			<g>
				<line class="st3" x1="174.8" y1="77.8" x2="179.8" y2="69.4"/>
			</g>
			<line class="st3" x1="150.8" y1="71" x2="145.2" y2="80.9"/>
			<ellipse class="st4" cx="162.2" cy="78.8" rx="3.5" ry="1.8"/>
			<ellipse class="st3" cx="162.2" cy="78.5" rx="3.1" ry="1.6"/>
			<line class="st4" x1="155.4" y1="81.3" x2="155.7" y2="80.7"/>
			<path class="st4" d="M213.9,89.3c0,0-10.4,18.7-10.7,19.8s-1.7,0.9-1.7,0.9l-9.7-1.6c0,0-1.9,3.7-2.5,4.6
				c-0.6,0.9-1.7,0.5-1.7,0.5l-33.5-4.8l-4.5-0.6l2.9-5.4l-10.8-1.6l11.8-20.9l10.6,1.6l3-5l39,6.2l-2.7,4.7L213.9,89.3z"/>
			<g>
				<path class="st3" d="M227.4,82.7v-4.2c0,0-0.1-0.5-0.6-0.5l-0.8,1.3v0.7"/>
			</g>
			<g>
				<path class="st3" d="M230.2,83.1v-4.2c0,0-0.1-0.5-0.6-0.5l-0.8,1.3v0.7"/>
			</g>
			<g>
				<path class="st3" d="M233,83.5v-4.2c0,0-0.1-0.5-0.6-0.5l-0.8,1.3v0.7"/>
			</g>
			<g>
				<path class="st3" d="M235.7,83.9v-4.2c0,0-0.1-0.5-0.6-0.5l-0.8,1.3v0.7"/>
			</g>
			<g>
				<path class="st3" d="M238.5,84.3v-4.2c0,0-0.1-0.5-0.6-0.5l-0.8,1.3v0.7"/>
			</g>
			<g>
				<path class="st3" d="M237.2,86.5v-4.2c0,0-0.1-0.5-0.6-0.5l-0.8,1.3v0.7"/>
			</g>
			<g>
				<path class="st3" d="M236,88.6v-4.2c0,0-0.1-0.5-0.6-0.5l-0.8,1.3v0.7"/>
			</g>
			<g>
				<path class="st3" d="M234.8,90.9v-4.2c0,0-0.1-0.5-0.6-0.5l-0.8,1.3v0.7"/>
			</g>
			<g>
				<path class="st3" d="M233.5,93.1v-4.2c0,0-0.1-0.5-0.6-0.5l-0.8,1.3v0.7"/>
			</g>
			<g>
				<path class="st3" d="M232.3,95.2V91c0,0-0.1-0.5-0.6-0.5l-0.8,1.3v0.7"/>
			</g>
			<g>
				<path class="st3" d="M231.1,97.5v-4.2c0,0-0.1-0.5-0.6-0.5l-0.8,1.3v7.6"/>
				<path class="st3" d="M228.2,97.1v-4.2c0,0-0.1-0.5-0.6-0.5l-0.8,1.3v5.7"/>
				<path class="st3" d="M225.5,96.7v-4.2c0,0-0.1-0.5-0.6-0.5l-0.8,1.3V99"/>
				<path class="st3" d="M222.8,96.3v-4.2c0,0-0.1-0.5-0.6-0.5l-0.8,1.3v5.6"/>
				<path class="st3" d="M220,95.8v-4.2c0,0-0.1-0.5-0.6-0.5l-0.8,1.3v5.7"/>
				<g>
					<path class="st3" d="M234.5,86.1v-4.2c0,0-0.1-0.5-0.6-0.5l-0.8,1.3v0.7"/>
				</g>
				<g>
					<path class="st3" d="M233.3,88.2V84c0,0-0.1-0.5-0.6-0.5l-0.8,1.3v0.7"/>
				</g>
				<g>
					<path class="st3" d="M232,90.5v-4.2c0,0-0.1-0.5-0.6-0.5l-0.8,1.3v0.7"/>
				</g>
				<g>
					<path class="st3" d="M230.8,92.7v-4.2c0,0-0.1-0.5-0.6-0.5l-0.8,1.3v0.7"/>
				</g>
				<g>
					<path class="st3" d="M229.6,94.8v-4.2c0,0-0.1-0.5-0.6-0.5l-0.8,1.3v0.7"/>
				</g>
				<g>
					<path class="st3" d="M231.8,85.7v-4.2c0,0-0.1-0.5-0.6-0.5l-0.8,1.3v0.7"/>
				</g>
				<g>
					<path class="st3" d="M230.6,87.8v-4.2c0,0-0.1-0.5-0.6-0.5l-0.8,1.3v0.7"/>
				</g>
				<g>
					<path class="st3" d="M229.3,90.1v-4.2c0,0-0.1-0.5-0.6-0.5l-0.8,1.3v0.7"/>
				</g>
				<g>
					<path class="st3" d="M228.1,92.3v-4.2c0,0-0.1-0.5-0.6-0.5l-0.8,1.3v0.7"/>
				</g>
				<g>
					<path class="st3" d="M226.8,94.4v-4.2c0,0-0.1-0.5-0.6-0.5l-0.8,1.3v0.7"/>
				</g>
				<g>
					<path class="st3" d="M229,85.3v-4.2c0,0-0.1-0.5-0.6-0.5l-0.8,1.3v0.7"/>
				</g>
				<g>
					<path class="st3" d="M227.8,87.5v-4.2c0,0-0.1-0.5-0.6-0.5l-0.8,1.3v0.7"/>
				</g>
				<g>
					<path class="st3" d="M226.5,89.7v-4.2c0,0-0.1-0.5-0.6-0.5l-0.8,1.3V87"/>
				</g>
				<g>
					<path class="st3" d="M225.3,91.9v-4.2c0,0-0.1-0.5-0.6-0.5l-0.8,1.3v0.7"/>
				</g>
				<g>
					<path class="st3" d="M224.1,94.1v-4.2c0,0-0.1-0.5-0.6-0.5l-0.8,1.3v0.7"/>
				</g>
				<g>
					<path class="st3" d="M226.2,84.9v-4.2c0,0-0.1-0.5-0.6-0.5l-0.8,1.3v0.7"/>
				</g>
				<g>
					<path class="st3" d="M225,87v-4.2c0,0-0.1-0.5-0.6-0.5l-0.8,1.3v0.7"/>
				</g>
				<g>
					<path class="st3" d="M223.8,89.3v-4.2c0,0-0.1-0.5-0.6-0.5l-0.8,1.3v0.7"/>
				</g>
				<g>
					<path class="st3" d="M222.5,91.5v-4.2c0,0-0.1-0.5-0.6-0.5l-0.8,1.3v0.7"/>
				</g>
				<g>
					<path class="st3" d="M221.3,93.6v-4.2c0,0-0.1-0.5-0.6-0.5l-0.8,1.3v0.7"/>
				</g>
			</g>
			<g>
				<path class="st3" d="M241.4,87.5l-0.1-7c0,0-0.1-0.5-0.6-0.5l-0.8,1.3v0.7"/>
			</g>
			<g>
				<path class="st3" d="M238.6,84.1v-0.7l0.8-1.3c0.6-0.1,0.6,0.5,0.6,0.5l0.1,7l0.3,0.4l1-2.6"/>
			</g>
			<g>
				<path class="st3" d="M238.8,91.9l-0.1-7c0,0-0.1-0.5-0.6-0.5l-0.8,1.3v0.7"/>
			</g>
			<g>
				<path class="st3" d="M236.1,88.6v-0.7l0.8-1.3c0.6-0.1,0.6,0.5,0.6,0.5l0.1,7l0.3,0.4l1-2.2l-0.1-0.4"/>
			</g>
			<g>
				<path class="st3" d="M236.4,96.4l-0.1-7c0,0-0.1-0.5-0.6-0.5l-0.8,1.3v0.7"/>
			</g>
			<g>
				<path class="st3" d="M233.6,92.9v-0.7l0.8-1.3c0.6-0.1,0.6,0.5,0.6,0.5l0.1,7c0,0,0.3,0.5,0.4,0.5l1-2.2l-0.2-0.4"/>
			</g>
			<g>
				<path class="st3" d="M232.4,101.3l-0.1-6.8l0.8-1.3c0.6-0.1,0.6,0.5,0.6,0.5l0.1,7l-0.3,0.5"/>
			</g>
			<g>
				<path class="st3" d="M231.4,105.1l-0.1-7c0,0-0.1-0.5-0.6-0.5l-0.8,1.3l0.1,7.7l1,0.1l0.7-1.2
					C231.7,105.6,231.4,105.3,231.4,105.1z"/>
			</g>
			<g>
				<path class="st3" d="M227.1,99.5l0-1l0.8-1.3c0.6-0.1,0.6,0.5,0.6,0.5l0.1,6.8c0,0-0.1,0.5,0.4,0.7l-0.6,1.2l-0.9-0.2"/>
			</g>
			<g>
				<path class="st3" d="M225.8,101.6l0-1l0.8-1.3c0.6-0.1,0.6,0.5,0.6,0.5l0.1,6.8c0,0-0.1,0.5,0.4,0.7l-0.6,1.2l-0.9-0.2"/>
			</g>
			<g>
				<path class="st3" d="M224.6,103.8l0-1l0.8-1.3c0.6-0.1,0.6,0.5,0.6,0.5l0.1,6.8c0,0-0.1,0.5,0.4,0.7l-0.6,1.2l-0.9-0.2"/>
			</g>
			<g>
				<path class="st3" d="M225.7,100.7l0-3.4c0,0-0.1-0.5-0.6-0.5l-0.8,1.3l0,0.9"/>
			</g>
			<g>
				<path class="st3" d="M224.5,103l0-3.4c0,0-0.1-0.5-0.6-0.5l-0.8,1.3l0,0.9"/>
			</g>
			<g>
				<path class="st3" d="M221.8,102.5l0-3.4c0,0-0.1-0.5-0.6-0.5l-0.8,1.3l0,0.9"/>
			</g>
			<g>
				<path class="st3" d="M219,102.1l0-3.4c0,0-0.1-0.5-0.6-0.5l-0.8,1.3l0,0.9"/>
			</g>
			<g>
				<path class="st3" d="M223.3,105l0-3.4c0,0-0.1-0.5-0.6-0.5l-0.8,1.3l0,0.9"/>
			</g>
			<g>
				<path class="st3" d="M220.5,104.7l0-3.4c0,0-0.1-0.5-0.6-0.5l-0.8,1.3l0,0.9"/>
			</g>
			<g>
				<path class="st3" d="M217.8,104.3l0-3.4c0,0-0.1-0.5-0.6-0.5l-0.8,1.3l0,0.9"/>
			</g>
			<g>
				<path class="st3" d="M222,107.3l0-3.4c0,0-0.1-0.5-0.6-0.5l-0.8,1.3l0,0.9"/>
			</g>
			<g>
				<path class="st3" d="M219.2,106.9l0-3.4c0,0-0.1-0.5-0.6-0.5l-0.8,1.3l0,0.9"/>
			</g>
			<g>
				<path class="st3" d="M216.5,106.5l0-3.4c0,0-0.1-0.5-0.6-0.5l-0.8,1.3l0,0.9"/>
			</g>
			<g>
				<path class="st3" d="M224.8,108.6l0-4.3c0,0-0.1-0.5-0.6-0.5l-0.8,1.3l0,0.9"/>
			</g>
			<g>
				<path class="st3" d="M223.6,110.8l0-4.3c0,0-0.1-0.5-0.6-0.5l-0.8,1.3l0,0.9"/>
			</g>
			<g>
				<path class="st3" d="M220.8,110.4l0-4.3c0,0-0.1-0.5-0.6-0.5l-0.8,1.3l0,0.9"/>
			</g>
			<g>
				<path class="st3" d="M218.1,110l0-4.3c0,0-0.1-0.5-0.6-0.5l-0.8,1.3l0,0.9"/>
			</g>
			<g>
				<path class="st3" d="M216.8,112.1l0-4.3c0,0-0.1-0.5-0.6-0.5l-0.8,1.3l0.1,7.5"/>
			</g>
			<g>
				<path class="st3" d="M219.5,112.7l0-4.3c0,0-0.1-0.5-0.6-0.5l-0.8,1.3l0.1,7.5"/>
			</g>
			<g>
				<path class="st3" d="M222.3,113.1l0-4.3c0,0-0.1-0.5-0.6-0.5l-0.8,1.3l0,7.5"/>
			</g>
			<g>
				<path class="st3" d="M223.8,116.8l-0.2-6.9l0.8-1.3c0.6-0.1,0.6,0.5,0.6,0.5l0.1,7l-0.2,0.6"/>
			</g>
			<g>
				<path class="st3" d="M215.3,109.6l0-4.3c0,0-0.1-0.5-0.6-0.5l-0.8,1.3l0,0.9"/>
			</g>
			<g>
				<path class="st3" d="M214,111.8l0-4.3c0,0-0.1-0.5-0.6-0.5l-0.8,1.3l0.2,7.4"/>
			</g>
			<g>
				<path class="st3" d="M211.5,111.9c0,0-0.1-0.5-0.6-0.5l-0.8,1.3l0.2,7.4l1.2,0.2l0.5-0.9c0,0-0.5,0-0.4-0.8L211.5,111.9z"/>
			</g>
			<g>
				<path class="st3" d="M214.3,112.3c0,0-0.1-0.5-0.6-0.5l-0.8,1.3l0.2,7.4l1.2,0.2l0.5-0.9c0,0-0.5,0-0.4-0.8L214.3,112.3z"/>
			</g>
			<g>
				<path class="st3" d="M217.1,112.6c0,0-0.1-0.5-0.6-0.5l-0.8,1.3l0.2,7.4l1.2,0.2l0.5-0.9c0,0-0.5,0-0.4-0.8L217.1,112.6z"/>
			</g>
			<g>
				<path class="st3" d="M219.8,113.1c0,0-0.1-0.5-0.6-0.5l-0.8,1.3l0.2,7.4l1.2,0.2l0.5-0.9c0,0-0.5,0-0.4-0.8L219.8,113.1z"/>
			</g>
			<g>
				<path class="st3" d="M222.6,113.5c0,0-0.1-0.5-0.6-0.5l-0.8,1.3l0.2,7.4l1.2,0.2l0.5-0.9c0,0-0.5,0-0.4-0.8L222.6,113.5z"/>
			</g>
			<g>
				<path class="st3" d="M211.3,111.4l0-4.3c0,0-0.1-0.5-0.6-0.5l-0.8,1.3l0.2,7.4"/>
			</g>
			<g>
				<path class="st3" d="M223,100.3l0-3.4c0,0-0.1-0.5-0.6-0.5l-0.8,1.3l0,0.9"/>
			</g>
			<g>
				<path class="st3" d="M220.3,100l0-3.4c0,0-0.1-0.5-0.6-0.5l-0.8,1.3l0,0.9"/>
			</g>
			<g>
				<path class="st3" d="M217.5,99.5l0-3.4c0,0-0.1-0.5-0.6-0.5l-0.8,1.3l0.1,5.6"/>
			</g>
			<g>
				<path class="st3" d="M230,78.2V74c0,0-0.1-0.5-0.6-0.5l-0.8,1.3l0.1,5.7"/>
			</g>
			<g>
				<path class="st3" d="M232.7,78.7v-4.2c0,0-0.1-0.5-0.6-0.5l-0.8,1.3l0.1,5.7"/>
			</g>
			<g>
				<path class="st3" d="M235.5,79.1v-4.2c0,0-0.1-0.5-0.6-0.5l-0.8,1.3l0.1,5.7"/>
			</g>
			<g>
				<path class="st3" d="M238.2,79.5v-4.2c0,0-0.1-0.5-0.6-0.5l-0.8,1.3l0.1,5.7"/>
			</g>
			<g>
				<path class="st3" d="M241,79.9v-4.2c0,0-0.1-0.5-0.6-0.5l-0.8,1.3l0.1,5.7"/>
			</g>
			<path class="st3" d="M215.5,122c2.8,0.4,5.3,0.8,5.3,0.8s1.1,0.4,1.6-0.9"/>
			<path class="st3" d="M209,116.5l-1.9,3.4c0,0-0.7,0.8,0.3,1c0.4,0.1,2.9,0.4,5.6,0.8"/>
			<path class="st3" d="M211.4,107.6l1.1-1.9l0.7,0.1c0,0,0.3,0.4,0.2,1.2"/>
			<line class="st3" x1="202.3" y1="122.3" x2="196.9" y2="121.4"/>
			<polyline class="st3" points="214,89.5 214.1,99.7 216,100 			"/>
			<path class="st3" d="M201.2,122l-0.2-9.8c0,0,0.1-2,0.6-2.2"/>
			<path class="st3" d="M186.7,113.3c0,0-0.5,0.5-0.6,2.1l0.1,4.8"/>
			<path class="st3" d="M151.6,108.5c0,0-0.5,0.5-0.6,2.1l0.1,7.2"/>
			<polyline class="st3" points="235.8,67.9 234.1,67.7 233.3,69.2 233.3,69.8 233.9,70.4 			"/>
			<polyline class="st3" points="235.8,68.3 235.5,68.9 234.9,68.8 233.5,71.4 239.6,72.4 243.7,65 			"/>
			<line class="st3" x1="226.7" y1="76.2" x2="228.5" y2="76.4"/>
			<line class="st3" x1="230" y1="76.6" x2="231.3" y2="76.8"/>
			<line class="st3" x1="232.8" y1="77.1" x2="234" y2="77.3"/>
			<path class="st3" d="M233.4,71.5c0,0-0.1,0.5,0.5,0.5l0.1,3.6"/>
			<path class="st3" d="M239.6,72.4c0,0-0.1,0.4-0.6,0.4l0.1,4.4l-0.7-0.1"/>
			<path class="st3" d="M241.3,69.3l0.1,3.9c0,0,0.3,1-0.8,1.2l-0.7,1.1"/>
			<line class="st3" x1="236.8" y1="76.7" x2="235.5" y2="76.6"/>
			<line class="st3" x1="228.7" y1="102.4" x2="229.9" y2="102.1"/>
			<path class="st3" d="M231.4,101.7l1.9-0.5c0,0,0.6-0.1,0.6,0.4c0,0.5,0.2,2.6,0.2,2.6"/>
			<line class="st3" x1="228.7" y1="103.8" x2="229.8" y2="103.5"/>
			<path class="st3" d="M231.4,103.1l1-0.3c0,0,0.4-0.2,0.4,0.5s0,2.7,0,2.7"/>
			<line class="st3" x1="231.7" y1="105.4" x2="232.7" y2="103.7"/>
			<line class="st3" x1="232.8" y1="103.1" x2="233.8" y2="101.6"/>
			<polyline class="st3" points="214.4,113.8 215.1,114 215.3,113.4 			"/>
			<polyline class="st3" points="217.2,114.3 217.8,114.4 218,113.8 			"/>
			<polyline class="st3" points="219.9,114.6 220.5,114.7 220.8,114.2 			"/>
			<polyline class="st3" points="222.7,115 223.3,115.1 223.7,114.5 			"/>
			<path class="st3" d="M223.2,110.4"/>
			<line class="st3" x1="210.2" y1="117.1" x2="207.9" y2="115.8"/>
			<line class="st3" x1="212.9" y1="118.6" x2="211.6" y2="117.9"/>
			<path class="st3" d="M210.1,115l-1-0.6c0,0-0.5-0.5-0.9,0.2s-0.7,1.2-0.7,1.2l0.1,2.9"/>
			<line class="st3" x1="213" y1="116.6" x2="211.6" y2="115.9"/>
			<path class="st3" d="M221.3,118.8c-0.8,0.2-1.4,0.4-1.4,0.4"/>
			<path class="st3" d="M222.7,117.2l1.6-0.5c0,0,0.7-0.3,0.8,0.6s0.1,2.1,0.1,2.1l-0.8,1.4l-0.1-2c0,0,0-0.7-0.6-0.6
				c-0.2,0-0.5,0.1-0.9,0.2"/>
			<line class="st3" x1="219.9" y1="117.9" x2="221.2" y2="117.6"/>
			<polyline class="st3" points="102.3,112.6 130.3,63.6 130.7,64 131.3,66.3 			"/>
			<path class="st5" d="M99.1,102"/>
			<path class="st5" d="M113.1,115.1l1.4,0.2c0,0-0.2,0.7,0,1.7"/>
			<path class="st5" d="M105.6,115.7c0,0-0.2-1.3,0-1.7l1.4,0.2"/>
			<polyline class="st5" points="107.2,115.9 107.2,114 113,114.8 113,117 			"/>
			<line class="st5" x1="114.5" y1="115.9" x2="121" y2="116.9"/>
			<path class="st6" d="M108.7,108.7c0,0,0.9-2.1,3.6-1.7c2.6,0.4,2.1,2.9,2.1,2.9l-0.9,2c0,0-0.7,1.9-3.6,1.7c0,0-2.3-0.3-2.1-2.5
				L108.7,108.7z"/>
			<path class="st5" d="M109.4,108.8c0,0,0.9-1.6,2.7-1.2c1.8,0.4,1.6,1.8,1.6,1.8l-0.8,2.4c0,0-0.8,1.4-2.6,1.2s-1.7-1.9-1.7-1.9
				L109.4,108.8z"/>
			<g>
				<g id="LINE_30_">
					<polygon class="st7" points="112,111.8 109.4,111.4 109.5,111.1 112.1,111.5 					"/>
				</g>
				<g id="LINE_29_">
					<polygon class="st7" points="112.4,110.7 109.8,110.3 109.9,110 112.5,110.4 					"/>
				</g>
				<g id="LINE_28_">
					<polygon class="st7" points="112.7,109.6 110.1,109.1 110.2,108.8 112.8,109.2 					"/>
				</g>
			</g>
			<path class="st5" d="M141.8,101.2c0,0-0.5,1.1-0.5,2.8s0.3,9.4,0.3,9.4l2.9,0.4"/>
			<line class="st4" x1="152.4" y1="120.8" x2="162" y2="122.2"/>
			<g>
				<path class="st4" d="M190.5,112.7l0.1,2.4c0,0,0.6,1.6,3.6,1.6c0,0,2.4,0,3.1-1.7v-2.7"/>
				<ellipse class="st4" cx="193.8" cy="112.4" rx="3.3" ry="1.8"/>
			</g>
			<g>
				<path class="st4" d="M143.4,105.8l0.1,2.4c0,0,0.6,1.6,3.6,1.6c0,0,2.4,0,3.1-1.7v-2.7"/>
				<ellipse class="st4" cx="146.8" cy="105.5" rx="3.3" ry="1.8"/>
			</g>
			<g>
				<g>
					<path class="st3" d="M144.3,109.1c0,0-1.7,1.6,2.1,1.9c0,0,1.8,0.2,2.9-0.8"/>
					<path class="st3" d="M144.3,110.6c0,0-1.7,1.6,2.1,1.9c0,0,1.8,0.2,2.9-0.8"/>
					<path class="st3" d="M144.3,112.2c0,0-1.7,1.6,2.1,1.9c0,0,1.8,0.2,2.9-0.8"/>
					<path class="st3" d="M144.3,113.7c0,0-1.7,1.6,2.1,1.9c0,0,1.8,0.2,2.9-0.8"/>
					<path class="st3" d="M144.3,115.3c0,0-1.7,1.6,2.1,1.9c0,0,1.8,0.2,2.9-0.8"/>
				</g>
				<line class="st3" x1="144.7" y1="109.3" x2="145" y2="117.1"/>
			</g>
			<g>
				<g>
					<path class="st3" d="M191.5,116c0,0-1.7,1.5,2,1.8c0,0,1.8,0.2,2.9-0.8"/>
					<path class="st3" d="M191.4,117.5c0,0-1.7,1.6,2.1,1.9c0,0,1.8,0.2,2.9-0.8"/>
					<path class="st3" d="M191.4,119c0,0-1.7,1.6,2.1,1.9c0,0,1.8,0.2,2.9-0.8"/>
					<path class="st3" d="M194.2,122.5c0.6-0.1,1.5-0.2,2.2-0.8"/>
					<path class="st3" d="M191.4,120.6"/>
					<path class="st3" d="M194.3,124c0.6-0.1,1.5-0.2,2.1-0.8c0,0,1-0.7,0.3-1.6"/>
				</g>
				<line class="st3" x1="191.9" y1="116.3" x2="192" y2="120.8"/>
				<line class="st3" x1="196.1" y1="116.1" x2="196.3" y2="124.3"/>
				<line class="st3" x1="148.9" y1="109.2" x2="149" y2="117.3"/>
			</g>
			<path class="st3" d="M197.1,122.3c0,0,1.3,2-0.8,2.8c-1.6,0.7-2,0.3-2,0.3"/>
			<polygon class="st3" points="129.4,66.8 129.7,66.4 132.4,66.7 132.8,67.3 132.8,74.4 133.6,75.4 133.9,82.4 129.7,81.7 			"/>
			<path class="st3" d="M133.9,60.6c0,0-0.2-2.6,0.7-2.9l4,0.7c0,0-0.7,1.8-0.5,3.3l-1.1-0.2"/>
			<path class="st3" d="M138.1,62c0,0,0.6,3.4-0.3,7.3l-0.8-0.1"/>
			<polyline class="st3" points="137.9,69.6 137.9,71.8 136.8,71.5 136.8,70 			"/>
			<polyline class="st3" points="133.7,75.2 134.3,74.6 134.6,75.2 134.7,77.4 137.8,72.1 			"/>
			<polyline class="st3" points="133,74.4 133.3,73.5 134.3,74.6 			"/>
			<path class="st3" d="M131.6,66.2c0,0,0.7-5.9,3.2-6l1.2,0.2c0,0-1.9-0.2-3.1,8.3"/>
			<path class="st3" d="M136.3,71.6c0,0,2.4-9.3,0-11.1"/>
			<path class="st3" d="M194.5,127.1l3.8,0.6c0,0,1.2,0.3,1.6,0.7c0.4,0.4,2.8,2.6,2.8,2.6"/>
			<line class="st3" x1="209.9" y1="109.7" x2="199.4" y2="127.9"/>
			<path class="st3" d="M249.8,111.7c0,0,1.3-0.4,1.3,0.8l0.1,1.6"/>
			<line class="st3" x1="248.9" y1="115.6" x2="251" y2="112.2"/>
			<path class="st3" d="M249.6,117l7.6-13.5c0,0,0.3-0.8,1.1-0.4"/>
			<path class="st3" d="M251.3,112.9c0,0,0.2-1.6,0.5-2c0.3-0.5,4-7.1,4-7.1s0.5-0.8,0.5,0.3s0.1,0.9,0.1,0.9"/>
			<path class="st3" d="M250.6,111.7l0.2-0.6l4.3-7.5c0,0,0.8-0.5,1-0.1"/>
			<path class="st3" d="M264.3,98.5c0,0,1.6,0.3,0.6,2.2s-5.1,9-5.1,9"/>
			<path class="st3" d="M262.1,95.8l0.1-2.3c0,0,0.1-1.4,0.7-2.5c0.7-1,4.5-7.5,4.5-7.5"/>
			<path class="st3" d="M266.2,82.9c0,0,0.5-0.2,1.3,0.3l2-3.5c0,0-0.3-0.7-1.2-0.4"/>
			<line class="st3" x1="267.5" y1="86.5" x2="267.5" y2="83.1"/>
			<line class="st3" x1="269.5" y1="82.8" x2="269.5" y2="79.6"/>
			<path class="st3" d="M283.3,59.4c0,0,0.3-1.1-1.1-0.8l-4.9,8.4c0,0,0.9-1,1.5,0.2"/>
			<path class="st3" d="M256.7,65.7c0,0,0.3-0.9,0.6-0.8c0.3,0.1,4.7,0.4,4.7,0.4s0.5,0.3,0.4,1c0,0-0.1-1.1-0.7-0.1"/>
			<polygon class="st3" points="256.7,71.6 259.2,71.9 258,74 255.4,73.7 			"/>
			<path class="st3" d="M254,70.9c0,0-1.1,0.2-2.7,2s-4.1,7.1-4.1,7.1"/>
			<line class="st3" x1="243.4" y1="69.9" x2="252.5" y2="71.4"/>
			<polyline class="st3" points="243,66.4 243.3,76.4 241.2,79.6 			"/>
			<line class="st3" x1="226.4" y1="63.8" x2="226.5" y2="66.3"/>
			<line class="st3" x1="225.7" y1="68" x2="225.7" y2="69"/>
			<polyline class="st3" points="217.1,64.1 218,62.5 217.1,62.2 			"/>
			<polyline class="st3" points="241.3,81.8 244.4,82.3 244.6,82.4 242.9,85.2 242.6,85 241.4,85.4 			"/>
			<line class="st3" x1="238.4" y1="81.4" x2="239.8" y2="81.6"/>
			<line class="st3" x1="235.8" y1="81" x2="237" y2="81.2"/>
			<line class="st3" x1="233" y1="80.6" x2="234.2" y2="80.8"/>
			<line class="st3" x1="231.4" y1="80.3" x2="230.5" y2="80.2"/>
			<path class="st3" d="M241.4,84.1c0,0,0.9-0.3,1.7-0.5c0.7-0.2,0.8,0.3,0.8,0.3l0.1,4.1"/>
			<line class="st3" x1="242.8" y1="85.4" x2="242.8" y2="89.4"/>
			<polyline class="st3" points="244,85.9 244.7,84.6 244.7,82.6 			"/>
			<polyline class="st3" points="252.4,75.9 251.1,75.7 247.2,82.6 248.5,82.8 			"/>
			<polyline class="st3" points="274.2,69.4 274.9,69.5 275,73.3 			"/>
			<polyline class="st3" points="270.3,70.9 269.6,72.2 272,72.7 272.4,72.9 272.3,73.9 273.1,72.5 273,71.3 			"/>
			<polyline class="st3" points="268.9,71.8 268.6,72.5 271.9,73 272.2,73.7 			"/>
			<polyline class="st3" points="268.6,72.7 268.6,73.6 272,74 272.4,74.2 269.4,79.3 			"/>
			<line class="st3" x1="266.7" y1="76.3" x2="268.5" y2="73.1"/>
			<path class="st3" d="M267,76.4l2.6,0.5c0,0,0.5,0.2,0.5,1.1"/>
			<line class="st3" x1="271.8" y1="74" x2="270" y2="77.2"/>
			<path class="st3" d="M224.9,165.2c0,0-0.1-1.2-2.2-1l-2.2,3.8c0,0,0.2,0.5,0.9,0.5c0.7,0,1,0.7,1,0.7"/>
			<path class="st3" d="M222.1,162.7c0,0,0.5-0.1,0.3,1.7"/>
			<path class="st3" d="M176.1,155.4c0,0,1.7-2.9,2-3.4l-0.3-5.2"/>
			<polyline class="st3" points="197.2,140.8 197.4,151.1 195,155.4 			"/>
			<line class="st3" x1="110.5" y1="143.9" x2="110.5" y2="145.9"/>
			<path class="st3" d="M81.9,130.5"/>
			<path class="st3" d="M97.7,115.8c0,0-0.7-1-0.2-1.6c0.5-0.6,0.9-1.6,0.9-1.6s0.3-0.4,1.1-0.3s7.8,1.1,7.8,1.1"/>
			<line class="st4" x1="113.1" y1="114.7" x2="113.6" y2="113.5"/>
			<path class="st3" d="M113.3,114.4l7.8,1.1c0,0,1.1,0.1,1,1.1"/>
			<line class="st3" x1="115.8" y1="113.8" x2="128.3" y2="115.6"/>
			<polyline class="st3" points="133.9,82.4 134.5,81.4 134.4,80.6 138.2,73.8 138.3,74.2 138.9,73.3 138.7,58.6 			"/>
			<polygon class="st3" points="134.9,75.8 134.7,72.2 135.8,70.5 136.3,71.8 136.5,73 			"/>
			<polyline class="st3" points="130.8,64.4 133.8,59.2 133.7,43.6 			"/>
			<polyline class="st3" points="118.9,68.4 134.7,42 134.7,38.9 			"/>
			<path class="st3" d="M131.5,44.6l4.1-7.2l0-2.4c0,0-0.4-1-1.6-0.4l-4.1,7.7c0,0,1.1-0.5,1.4,0.6C131.7,44,131.5,44.6,131.5,44.6z
				"/>
			<path class="st3" d="M130.2,42.6l-0.7-0.1L120.7,58c0,0-0.7,1.2-1,2.8c-0.3,1.6-2.2,16.8-2.2,16.8s-1,8.2-2.2,10
				c-1.3,1.9-13.5,24.9-13.5,24.9"/>
			<path class="st3" d="M133.6,48.1l0.4-0.2l6.3,0.9c0,0,1.2,0,0.9,1.4l-0.2,2.2"/>
			<path class="st3" d="M131.5,44.8c-1.2,0-1-0.7-1-0.7l-0.2-1.1l1.2,0.2"/>
			<line class="st3" x1="131.6" y1="44.3" x2="130.5" y2="44.1"/>
			<line class="st3" x1="150.3" y1="53.2" x2="150.3" y2="54.9"/>
			<line class="st3" x1="151.2" y1="52.7" x2="151.2" y2="53.9"/>
			<line class="st3" x1="160.5" y1="53.9" x2="160.6" y2="56.8"/>
			<line class="st3" x1="161.3" y1="54" x2="161.5" y2="55.3"/>
			<line class="st3" x1="170.7" y1="55.6" x2="170.8" y2="58.9"/>
			<line class="st3" x1="171.4" y1="55.6" x2="171.6" y2="57.5"/>
			<line class="st3" x1="175" y1="49.3" x2="175.2" y2="51.4"/>
			<polyline class="st3" points="261.8,104.5 261.7,103.6 258.9,108.5 			"/>
			<path class="st3" d="M224.1,119.5l-1.9,3.5c0,0-0.2,0.6-1.2,0.5c-1-0.2-13.6-2-13.6-2s-0.7,0-0.6-0.8"/>
			<path class="st3" d="M218.2,126.4l0-0.9l0.3-0.8l3.8,0.6l0.6-0.7l0.2,1c0,0,0,0.7-1.3,0.5c-1.3-0.1-3.4-0.5-3.4-0.5"/>
			<line class="st8" x1="223.2" y1="127" x2="223.2" y2="126"/>
			<path class="st3" d="M205,126.7l0-3.8l0.5-0.8l0.7,0.1l0,0.4c0,0-0.2,0.4,0.2,0.4c0.4,0,2.8,0.4,2.8,0.4l-0.6,0.7l-2.8-0.4
				c0,0-0.7-0.2-0.7-0.4"/>
			<path class="st3" d="M209.5,125.1"/>
			<line class="st3" x1="209.6" y1="122.3" x2="208.3" y2="124.4"/>
			<line class="st3" x1="207.5" y1="121.5" x2="207.5" y2="123"/>
			<path class="st3" d="M212.3,123.5"/>
			<path class="st3" d="M209.6,123c0.2-0.3,1.3-0.7,1.3-0.7c0.9-0.2,1.8-0.1,3.6,0.2c1.2,0.2,1.6,0.5,1.7,0.8c0.1,0.1,0,0.2,0,0.2
				s-0.1,0-0.1,0.1c-0.1,0.1-0.4,0.2-0.6,0.3c-0.4,0.2-1.9,0.3-3.9,0C209.6,123.6,209.6,123.1,209.6,123l-0.1,1.3
				c0,0,0.2,0.7,2.1,0.9c1.9,0.2,3,0.4,3.7,0l0.9-0.7l0.1-0.7"/>
			<g>
				<g id="LINE_27_">
					<polygon class="st9" points="211,123.1 214.1,123.6 214,123.7 210.8,123.2 					"/>
				</g>
			</g>
			<g>
				<g id="LINE_26_">
					<polygon class="st9" points="211.8,122.7 214.9,123.1 214.8,123.3 211.6,122.8 					"/>
				</g>
			</g>
			<path class="st3" d="M215.5,122.7c0,0,0,0,0-0.5s-0.3-0.8-1-0.9c-0.7-0.1-1.4,0.2-1.4,0.2l-0.1,0.7"/>
			<polyline class="st3" points="218.5,125.1 218.5,123.6 218.3,123.1 			"/>
			<path class="st3" d="M215.9,125.6"/>
			<polyline class="st3" points="215.9,125.6 216,125.2 216.7,125.3 217.3,124.1 216.7,124 217.1,123.4 218.5,123.6 217.1,126.1 			
				"/>
			<line class="st3" x1="209" y1="114.3" x2="209.8" y2="112.7"/>
			<line class="st3" x1="211.6" y1="114" x2="212.6" y2="112.4"/>
			<g>
				<path class="st4" d="M219.6,181.7H219c0,0-0.8,0.9-0.5,3l0.7,0.2"/>
				
					<ellipse transform="matrix(0.9942 0.1076 -0.1076 0.9942 21.0164 -22.6382)" class="st4" cx="220.2" cy="183.4" rx="0.8" ry="3.1"/>
				
					<ellipse transform="matrix(0.9942 0.1076 -0.1076 0.9942 21.0414 -22.7232)" class="st4" cx="221" cy="183.6" rx="0.8" ry="2.9"/>
			</g>
			<polyline class="st3" points="107.4,113.1 107.7,112.7 107.3,113.4 			"/>
			<path class="st3" d="M106,113.2l0.8-1.7c0,0,0.4-0.4,0.9-0.1"/>
			<polyline class="st3" points="114.5,112.5 115.6,112.7 115.8,114.5 			"/>
			<line class="st3" x1="114.5" y1="114.5" x2="115.6" y2="112.7"/>
			<path class="st3" d="M113.8,113.1c0,0,1.1-1.3,0.6-3.6"/>
			<line class="st3" x1="158.8" y1="81" x2="158.7" y2="79.2"/>
			<line class="st3" x1="224.2" y1="118.5" x2="224.9" y2="117.3"/>
			<line class="st3" x1="205.9" y1="85.3" x2="205.9" y2="87.9"/>
			<path class="st3" d="M211.6,88.9c0,0,0.8-0.2,1.2-1.1l0-2.5"/>
		</g>
		<line class="st4" x1="114.6" y1="129.4" x2="143" y2="133.6"/>
		<g>
			<polyline class="st3" points="156.6,138.2 156.6,140.2 184.8,144.5 184.9,137 194.1,121.3 			"/>
			<path class="st3" d="M156.5,138.3l-0.1-5.7l7-12.3l5.6,1l0.2,0.1l1.9-3.3l23,3.2c0,1.9,0.2,7.6,0.2,7.6l-9.2,15.8"/>
		</g>
		<line class="st4" x1="156.5" y1="132.6" x2="184.9" y2="136.9"/>
		<polyline class="st3" points="240,139.3 240.1,132.9 233.1,131.9 234.8,128.9 206.4,124.6 197.2,140.8 203.2,141.8 201.1,145.1 
			201.4,156 		"/>
		<polyline class="st3" points="201.6,145.3 229.7,149.2 229.7,152 		"/>
		<line class="st3" x1="240.1" y1="132.9" x2="229.7" y2="149.2"/>
		<polyline class="st3" points="192.5,80.5 192.4,74.4 199.7,61.4 221.8,64.8 219.9,68.1 226.4,69 226.5,77.7 		"/>
		<polyline class="st3" points="192.4,74.4 198.3,75.2 196.8,78.1 219.2,81.4 219.4,91.2 		"/>
		<line class="st3" x1="219.4" y1="81" x2="226.4" y2="69"/>
		<line class="st3" x1="196.9" y1="78.5" x2="197.1" y2="81.2"/>
		<polyline class="st3" points="177.7,61.2 178,68.7 181.6,63 		"/>
		<polyline class="st3" points="151.2,82 151.6,81.4 151.6,77.5 153.9,73.5 151.8,73.1 152.9,71.1 148.6,70.5 153.9,61.2 
			175.6,64.4 173.4,68.4 180.1,69.4 180.3,73.9 182.8,70.7 182.9,72.7 179.2,78.6 		"/>
		<line class="st3" x1="151.6" y1="77.5" x2="158.7" y2="78.6"/>
		<line class="st3" x1="182.7" y1="70.7" x2="180.3" y2="70.4"/>
	</g>
</g>
<g id="CALL_OUT">
	<g>
		<g>
			<polyline class="st10" points="68.9,57.4 60.9,56.8 40,93.2 47.7,93.7 48.5,93.2 57.1,93.7 			"/>
			<polygon class="st10" points="50.6,87.3 72.7,51.6 97.9,56.6 77.6,91.8 60.3,88.5 59.6,89.1 			"/>
			<polygon class="st10" points="80.2,95.1 75.1,94.8 74.9,102.7 80,103 			"/>
			<polygon class="st10" points="86.3,95 82.4,94.6 82.2,102.5 86.1,102.9 			"/>
			<line class="st10" x1="82.2" y1="102.5" x2="80.5" y2="103.1"/>
			<polyline class="st10" points="86.4,100.1 107.5,64.2 108.2,55.3 85.1,94.6 			"/>
			<line class="st10" x1="98.6" y1="61.9" x2="103.6" y2="62.2"/>
			<line class="st10" x1="84" y1="86.9" x2="89.1" y2="87.2"/>
			<line class="st10" x1="75.1" y1="94.8" x2="71" y2="96.5"/>
			<polyline class="st10" points="61.6,94.8 82.6,93.6 80.2,95.1 			"/>
			<polyline class="st10" points="50.4,87.7 50.6,89 59.8,90.9 60.7,90.1 77.6,93.3 77.6,91.8 			"/>
			<polyline class="st10" points="102.7,54.3 101.6,56.1 80.1,93.6 			"/>
			<path class="st10" d="M83.7,55.1"/>
			<path d="M58,95.2l2.8,0.1c0,0,0.8-1.3-0.6-1.4C58.7,93.8,58,94.6,58,95.2z"/>
			<path d="M85.9,51.4l-3.1-0.7c0,0-1.1,1.3,0.4,1.7S85.7,52.1,85.9,51.4z"/>
			<path d="M48.2,95.4l2.8,0.1c0,0,0.8-1.3-0.6-1.4C48.9,94,48.2,94.9,48.2,95.4z"/>
			<polygon class="st10" points="61,96.8 67.5,97.3 67.5,101.8 60.9,101.3 			"/>
			<polyline class="st10" points="67.5,97.3 69.7,97.5 69.7,102 67.4,101.8 			"/>
			<polyline class="st10" points="61,96.8 48,95.8 48,96.6 48.1,97.5 50.3,97.6 50.6,98.1 54,98.4 54.5,98.9 55.5,98.8 55.6,99.8 
				60.7,100 			"/>
			<polyline class="st10" points="69.7,97.5 71.5,97.1 71.4,101.5 69.9,102.1 			"/>
			<line class="st10" x1="71.5" y1="97.1" x2="74.7" y2="97.3"/>
			<line class="st10" x1="71.4" y1="101.6" x2="74.5" y2="101.9"/>
			<polyline class="st10" points="78.5,93.1 99.5,57.3 98.3,56.5 			"/>
			<polyline class="st10" points="40,93.2 39.8,94.2 39,95.3 39,96.4 47.8,97.1 			"/>
			<line class="st10" x1="72.8" y1="95.9" x2="51.2" y2="94.5"/>
			<polyline class="st10" points="107.9,63.4 109.4,63.4 109.4,55.1 84.4,50.4 			"/>
		</g>
	</g>
	<line class="st10" x1="86.4" y1="51.9" x2="101.6" y2="55.5"/>
	<path class="st2" d="M59.8,79.4l3.4-0.3c0,0,0.7-1.7-1-1.6C60.5,77.6,59.8,78.7,59.8,79.4z"/>
	<g>
		<path class="st2" d="M84.3,92.5l-21.1,1c0,0-6.8-3.7-7.5,3.5l25-1.4L84.3,92.5z"/>
		<polyline class="st10" points="61.7,94.7 82.7,93.6 80.3,95.1 58.2,96.3 		"/>
		<path d="M57.4,95.5l3.4-0.3c0,0,0.7-1.7-1-1.6C58.1,93.6,57.4,94.8,57.4,95.5z"/>
	</g>
	<g>
		<g>
			<polygon class="st11" points="55.2,109.2 47.5,111.5 43.7,107.4 46.5,107.8 50.4,102.1 56.2,103 52.3,108.7 			"/>
		</g>
		<g>
			<polygon points="55.2,109.2 47.5,111.5 43.7,107.4 46.5,107.8 50.4,102.1 56.2,103 52.3,108.7 			"/>
		</g>
	</g>
	<g>
		<polygon class="st2" points="0.8,52.4 0.2,50.9 33.3,0.4 47.5,2.5 71.5,6.9 38.7,58.5 		"/>
		<g>
			<g>
				<g>
					<g>
						<g>
							<g id="LINE_566_">
								<line class="st12" x1="0.2" y1="50.3" x2="0.3" y2="48.8"/>
							</g>
							<g id="LINE_565_">
								<line class="st12" x1="33.9" y1="0.2" x2="0.3" y2="48.8"/>
							</g>
							<g id="LINE_564_">
								<line class="st12" x1="13.8" y1="52.5" x2="13.8" y2="51"/>
							</g>
							<g id="LINE_563_">
								<line class="st12" x1="14.3" y1="51.8" x2="14.3" y2="50.3"/>
							</g>
							<g id="LINE_562_">
								<line class="st12" x1="13.8" y1="51" x2="14.3" y2="50.3"/>
							</g>
							<g id="LINE_561_">
								<line class="st12" x1="45.8" y1="3" x2="46.2" y2="2.3"/>
							</g>
							<g id="LINE_560_">
								<line class="st12" x1="13.8" y1="52.5" x2="14.3" y2="51.8"/>
							</g>
							<g id="LINE_559_">
								<line class="st12" x1="36.3" y1="53.9" x2="36.3" y2="54.4"/>
							</g>
							<g id="LINE_558_">
								<line class="st12" x1="38" y1="55.7" x2="38" y2="54.7"/>
							</g>
							<g id="LINE_557_">
								<line class="st12" x1="46.2" y1="3.1" x2="46.2" y2="2.3"/>
							</g>
							<g id="LINE_556_">
								<line class="st12" x1="35.4" y1="53.7" x2="66" y2="6.7"/>
							</g>
							<g id="LINE_555_">
								<line class="st12" x1="38" y1="54.6" x2="69" y2="7.3"/>
							</g>
							<g id="LINE_554_">
								<path class="st12" d="M38,55.7"/>
							</g>
							<g id="LINE_553_">
								<path class="st12" d="M69,8.4"/>
							</g>
							<g id="LINE_495_">
								<path class="st12" d="M69,7.3"/>
							</g>
							<g id="LINE_488_">
								<line class="st12" x1="13.8" y1="52.5" x2="0.2" y2="50.3"/>
							</g>
							<g id="LINE_485_">
								<line class="st12" x1="19.1" y1="52.6" x2="38" y2="55.7"/>
							</g>
							<g id="LINE_465_">
								<line class="st12" x1="0.3" y1="48.8" x2="13.8" y2="51"/>
							</g>
							<g id="LINE_464_">
								<line class="st12" x1="38" y1="54.7" x2="36.3" y2="54.4"/>
							</g>
							<g id="LINE_447_">
								<line class="st12" x1="14.3" y1="50.3" x2="36.3" y2="53.9"/>
							</g>
							<g id="LINE_261_">
								<line class="st12" x1="69" y1="7.3" x2="67.8" y2="7.1"/>
							</g>
							<g id="LINE_259_">
								<line class="st12" x1="69.2" y1="7.3" x2="45.8" y2="3"/>
							</g>
							<g id="LINE_50_">
								<line class="st13" x1="46.2" y1="2.3" x2="33.9" y2="0.2"/>
							</g>
							<g id="SPLINE_107_">
								<path class="st12" d="M67.8,7.1"/>
							</g>
							<g id="SPLINE_106_">
								<path class="st12" d="M17.5,51.7c-0.6-0.1-1.2-0.1-1.7,0c-0.2,0.1-0.5,0.1-0.7,0.3c-0.2,0.1-0.3,0.2-0.4,0.3"/>
							</g>
							<g id="SPLINE_105_">
								<path class="st12" d="M24.9,55.2"/>
							</g>
							<g id="SPLINE_45_">
								<path class="st12" d="M19.1,52.8c0-0.1,0-0.2-0.1-0.3c-0.5-0.4-0.7-0.5-0.8-0.6c-0.2-0.1-0.4-0.1-0.6-0.2"/>
							</g>
						</g>
					</g>
				</g>
			</g>
			<g>
				<line class="st14" x1="49.4" y1="37.2" x2="47.7" y2="36.8"/>
				<line class="st15" x1="48.2" y1="37" x2="46.5" y2="36.6"/>
			</g>
			<polygon class="st16" points="54.3,15.1 30.9,11 35.1,4.9 58.5,9.1 			"/>
			<polygon class="st16" points="49.1,22.9 25.7,18.8 29.9,12.7 53.3,16.8 			"/>
			<polygon class="st16" points="31.6,29.4 20,27.3 24.2,21.2 35.9,23.3 			"/>
			<polygon class="st16" points="37.7,39.9 14.3,35.8 18.5,29.7 41.9,33.8 			"/>
			<polygon class="st16" points="31.9,48.4 8.5,44.3 12.8,38.2 36.1,42.3 			"/>
		</g>
	</g>
	<g>
		<g>
			<g>
				<g>
					<g>
						<g>
							<g id="LINE_576_">
								<path class="st17" d="M141.9,86"/>
							</g>
							<g id="LINE_575_">
								<path class="st17" d="M141.9,85.6"/>
							</g>
							<g id="SPLINE_109_">
								<path class="st17" d="M125.4,106.7"/>
							</g>
						</g>
					</g>
				</g>
			</g>
			<polygon class="st16" points="136.1,89.3 126.4,88.3 127.9,85.7 137.6,86.6 			"/>
			<polygon class="st16" points="134.2,92.6 124.5,91.7 126,89.1 135.8,90 			"/>
			<polygon class="st16" points="127.3,95.9 122.4,95.4 123.9,92.8 128.8,93.2 			"/>
			<polygon class="st16" points="130.1,100 120.3,99.1 121.9,96.4 131.6,97.4 			"/>
			<polygon class="st16" points="128,103.7 118.3,102.8 119.8,100.1 129.5,101 			"/>
		</g>
	</g>
	<polygon class="st18" points="64,41.5 58.1,46 61.2,47.8 61.2,56.4 66.8,59.7 66.8,51.1 69.9,52.9 	"/>
	<polygon class="st18" points="64,74.3 69.9,69.8 66.8,68 66.8,59.4 61.2,56.1 61.2,64.7 58.1,62.9 	"/>
	<g>
		<g>
			<polygon class="st16" points="88.9,63.4 71.9,59.3 74.8,54.6 91.9,58.7 			"/>
			<polygon class="st16" points="85.2,69.4 68.2,65.3 71.2,60.6 88.2,64.7 			"/>
			<polygon class="st16" points="72.7,73.9 64.2,71.8 67.2,67.1 75.6,69.2 			"/>
			<polygon class="st16" points="77.2,82.5 60.2,78.4 63.2,73.7 80.2,77.8 			"/>
			<polygon class="st16" points="73.2,89.1 56.2,85 59.2,80.3 76.2,84.4 			"/>
		</g>
	</g>
	<g>
		<g>
			<line class="st19" x1="1.6" y1="53.2" x2="2.8" y2="54.1"/>
			<line class="st20" x1="5.1" y1="55.9" x2="45.6" y2="87.3"/>
			<line class="st19" x1="46.8" y1="88.2" x2="48" y2="89.2"/>
		</g>
	</g>
	<g>
		<polygon class="st21" points="98.5,43.1 95.7,38.1 86.3,40.7 89.2,41.3 84.4,47.3 91.1,48.7 95.8,42.6 		"/>
		<polygon points="97.8,42.9 95.5,38.7 87.6,40.9 90,41.4 85.5,47.2 90.6,48.2 95.2,42.4 		"/>
	</g>
	<g>
		<polygon class="st21" points="13.5,67.2 3.5,65.6 5.6,72.7 7.6,71.4 17.2,78.1 21.6,75 11.8,68.4 		"/>
		<polygon points="12.4,66.7 4.2,65 5.6,71 7.3,70 16.2,76.7 19.6,74.6 10.7,67.8 		"/>
		<polygon points="24.3,85.5 32.6,87.2 31.1,81.2 29.4,82.2 20.6,75.4 17.2,77.6 26,84.4 		"/>
	</g>
	<g>
		<line class="st22" x1="99.3" y1="75.1" x2="117.2" y2="95.2"/>
		<line class="st23" x1="99.3" y1="75.1" x2="117.2" y2="95.2"/>
	</g>
</g>
</svg>
