<?xml version="1.0" encoding="utf-8"?>
<!-- Generator: Adobe Illustrator 19.1.0, SVG Export Plug-In . SVG Version: 6.00 Build 0)  -->
<svg version="1.1" xmlns="http://www.w3.org/2000/svg" xmlns:xlink="http://www.w3.org/1999/xlink" x="0px" y="0px" width="284.9px"
	 height="266.3px" viewBox="0 0 284.9 266.3" style="enable-background:new 0 0 284.9 266.3;" xml:space="preserve">
<style type="text/css">
	.st0{fill:#D1D3D4;}
	.st1{fill:none;stroke:#000000;stroke-width:0.3603;stroke-linecap:round;stroke-linejoin:round;stroke-miterlimit:10;}
	.st2{fill:#FFFFFF;}
	.st3{fill:none;stroke:#000000;stroke-width:0.4;stroke-linecap:round;stroke-linejoin:round;stroke-miterlimit:10;}
	.st4{fill:#FFFFFF;stroke:#000000;stroke-width:0.4;stroke-linecap:round;stroke-linejoin:round;stroke-miterlimit:10;}
	.st5{fill:none;stroke:#000000;stroke-width:0.4;stroke-linecap:round;stroke-linejoin:round;}
	.st6{fill:#FFFFFF;stroke:#000000;stroke-width:0.4;stroke-linecap:round;stroke-linejoin:round;}
	.st7{stroke:#000000;stroke-width:0.25;stroke-linecap:round;stroke-linejoin:round;}
	.st8{fill:none;stroke:#000000;stroke-width:0.3137;stroke-linecap:round;stroke-linejoin:round;stroke-miterlimit:10;}
	.st9{fill:#EC008C;stroke:#000000;stroke-width:0.25;stroke-linecap:round;stroke-linejoin:round;}
	.st10{fill:#FFFFFF;stroke:#000000;}
	.st11{fill:#2E2A25;}
	.st12{clip-path:url(#SVGID_2_);}
	.st13{fill:none;stroke:#000000;stroke-width:0.3712;}
	.st14{fill:#2E2A25;stroke:#FFFFFF;stroke-width:2;stroke-linecap:round;stroke-linejoin:round;}
	.st15{fill:#2E2A25;stroke:#FFFFFF;stroke-width:1.8;stroke-linecap:round;stroke-linejoin:round;}
	.st16{clip-path:url(#SVGID_4_);}
	.st17{fill:none;stroke:#000000;stroke-width:0.5;stroke-linecap:round;stroke-linejoin:round;}
	.st18{clip-path:url(#SVGID_4_);fill:none;stroke:#000000;stroke-width:0.5;}
	.st19{fill:#2E2A25;stroke:#FFFFFF;stroke-width:0.5;}
	.st20{fill:none;stroke:#000000;}
	.st21{fill:none;stroke:#FFFFFF;stroke-width:2;stroke-linecap:round;stroke-linejoin:round;}
	.st22{fill:#FFFFFF;stroke:#000000;stroke-width:0.5;stroke-linecap:round;stroke-linejoin:round;}
</style>
<g id="GRAY">
	<path class="st0" d="M215.7,111l-0.1-3.5l-1.1-0.1l0.3-1.1l-4.4-0.6c0,0-4.7-7.3-17.8-8.7c0,0-13.6-1-13.5,8.8l-1.7-0.2l-0.7,1.8
		l0.6,0.8l-0.6,1.1l0.8,2.8c0,0,1.1-0.8,1.1,0.8l0.3,1.2h0.6l1.1-1.9l0.7,0.6l0.6,1.8l0.6-0.1l0.4-1.2l0.7-1.1l0.4,1.7v3l2.2-3
		l-0.4-8.4l1.1-2.1c0,0,4.3-1.7,9.4,0.1c0,0-2.2,1.8,1,3l-0.1,0.7l-1,1.7l-2.4,4.4l-4,6.5l0.1,2.4l-17.8,32.4l-0.3,1.2l-1.7-0.4v1.1
		c0,0-3-0.3-3.6,2.6h0.8v2.6L178,163l-1.7,3.2l6.2,0.6l0.3,6.1l10-16.7l-0.4-3.9l7.3-13.3l0.7,5l0.8,1.2l5.1-8.7
		c0,0,0.7-1.7-0.7-1.8v-6.1L215.7,111z"/>
</g>
<g id="SIMPLE">
	<g>
		<polyline class="st1" points="75.4,123 69.7,122.6 58.4,142.2 62.6,142.5 63,142.2 64.4,142.3 		"/>
		<polygon class="st1" points="65,140.8 76.3,121.2 89.6,122.4 78.7,141.5 69.4,140.8 69,141.1 		"/>
		<polygon class="st1" points="80.1,143.2 77.4,143.1 77.2,147.3 80,147.5 		"/>
		<polygon class="st1" points="83.4,143.2 81.3,143 81.2,147.2 83.3,147.4 		"/>
		<line class="st1" x1="81.2" y1="147.2" x2="80.3" y2="147.5"/>
		<polyline class="st1" points="83.5,145.9 94.8,126.5 95.2,121.7 82.8,142.9 		"/>
		<line class="st1" x1="90.1" y1="125.3" x2="92.7" y2="125.5"/>
		<line class="st1" x1="82.1" y1="138.8" x2="84.9" y2="139"/>
		<line class="st1" x1="76.5" y1="142.6" x2="77.4" y2="143.1"/>
		<polyline class="st1" points="71.4,141.7 81.4,142.4 80.1,143.2 		"/>
		<polyline class="st1" points="64.7,142 64.7,141.4 68.9,141.7 69.1,141.6 		"/>
		<line class="st1" x1="91.9" y1="121.9" x2="80.1" y2="142.4"/>
		<path class="st1" d="M82,121.7"/>
		<path d="M69.4,141.9L71,142c0,0,0.4-0.7-0.3-0.8C69.9,141.2,69.5,141.6,69.4,141.9z"/>
		<path d="M83.2,120.8l-1.5-0.1c0,0-0.5,0.7,0.3,0.8C82.7,121.5,83.1,121.1,83.2,120.8z"/>
		<path d="M62.8,143.4l1.5,0.1c0,0,0.4-0.7-0.3-0.8C63.3,142.6,62.9,143.1,62.8,143.4z"/>
		<polygon class="st1" points="69.8,144.1 73.3,144.4 73.3,146.8 69.7,146.5 		"/>
		<polyline class="st1" points="73.3,144.4 74.5,144.5 74.5,146.9 73.2,146.8 		"/>
		<polyline class="st1" points="69.8,144.1 62.8,143.6 62.8,144 62.8,144.5 64,144.5 64.1,144.8 66,145 66.3,145.3 66.8,145.2 
			66.9,145.7 69.6,145.9 		"/>
		<polyline class="st1" points="74.5,144.5 75.4,144.3 75.4,146.6 74.6,147 		"/>
		<line class="st1" x1="75.4" y1="144.3" x2="77.1" y2="144.4"/>
		<line class="st1" x1="75.4" y1="146.7" x2="77.1" y2="146.9"/>
		<polyline class="st1" points="79.2,142.1 90.5,122.8 89.8,122.4 		"/>
		<polyline class="st1" points="58.4,142.2 58.3,142.7 57.9,143.3 57.9,143.9 62.6,144.3 		"/>
		<line class="st1" x1="76.1" y1="143.7" x2="64.5" y2="142.9"/>
		<polyline class="st1" points="95,126.1 95.8,126.1 95.8,121.6 81.8,120.6 		"/>
	</g>
	<path class="st2" d="M58.6,145.2c0,0,0.3-2.4,3.2-3c0,0,3.7-0.6,3.4,3.9l-6.7,0.2L58.6,145.2z"/>
	<g>
		<g>
			<g>
				<path class="st3" d="M21.7,191.3l-0.1-2.2c0-0.1,0.1-0.2,0.1-0.2c0.2-0.2,0.7-0.3,0.7-0.3l1.8,0.3c0.6,0.2,0.7,1,0.7,1l0.1,1.6
					c0.2,0,0.4-0.3,0.4-0.3s3.1-5.4,3.2-5.7c0.1-0.2,0.4-1.5,0.4-1.5s0-1,0-1.5c-0.1-0.5-1-0.8-1-0.8s-1-0.2-1.5-0.2
					c-0.4-0.1-0.7,0.2-0.7,0.2l-4.1,7"/>
				<line class="st3" x1="25" y1="189.6" x2="29" y2="182.6"/>
				<polyline class="st3" points="28.8,181.9 57.2,185.9 57.2,185.3 				"/>
				<line class="st3" x1="22.9" y1="189.2" x2="8.8" y2="214.2"/>
				<line class="st3" x1="24.4" y1="189.7" x2="10.5" y2="214.3"/>
				<line class="st3" x1="16.1" y1="206.5" x2="16.3" y2="215.9"/>
				<path class="st3" d="M2.7,218.8l2.1-3.8c0,0,0.6-0.8,2-0.8s8.8-0.6,15.6,5.8c6.8,6.5,5.4,13.9,5.4,13.9s-1.3,4.5-2.9,6.5"/>
				<path class="st3" d="M2.4,225.6l-0.1-5.4c0,0-0.2-1.6,1.8-1.9s7.5-0.4,13.5,3.7s9.5,11.5,7.5,17.7c0,0-1.3,5.1-8.2,7.2l-4.9-0.2
					"/>
				<path class="st3" d="M3.5,243.3l0,1.3c0,0,0,1,1.3,1.2c1.3,0.2,5.3,0.8,5.3,0.8s3.5,0.4,6.6-0.9s5.4-2.8,6.8-7
					c1.4-4.2-0.3-11.8-8.1-16.4c0,0-2.8-1.6-4.3-1.8c0,0-5.5-0.9-6.1,4.1L5,229.9"/>
				<line class="st3" x1="7.7" y1="231.7" x2="13.6" y2="221.4"/>
				<path class="st3" d="M4.9,230.4c0,0,1.4-0.9,2.5,0.7l0.6,2.4l2.8-4.9c0,0-0.1-2.4-0.1-2.9c0-0.5-0.4-1-0.4-1
					c-0.9-1.1-1.9-0.4-1.9-0.4L4.6,231"/>
				<path class="st3" d="M4.5,231.3l0.8,0.2c0,0,0.5-1,1.2-0.3l0.5,1.9c0,0-0.9,0.7-1.3,0.7c0,0,1.4,1.1,2.2-0.2"/>
				<line class="st3" x1="10.5" y1="229.3" x2="14.7" y2="221.9"/>
				<path class="st3" d="M3.9,227.7l0.3-1.8c0,0-0.2-1.3-1.6-0.6c0,0-1.6,1.4-2.1,5.6c0,0-0.3,1.8-0.3,2.7c-0.1,0.9,0.2,8.5,0.2,8.5
					s0.5,3.8,2.7,1.8"/>
				<path class="st3" d="M4.2,226c0,0-0.7,0.2-1.3,2.2c-0.7,2-1,5.2-0.9,6.8c0,1.5-0.2,8.5,0.9,8.6c0,0,1.3,0.3,2.5-6.2l0.6,4.3
					l0.5-0.9c0,0,0-3.3,1-4.8c0.1-0.2,0.2-0.3,0.4-0.5c0,0,0.8-0.4,0.8,1.6l0.6-0.8l0.2-3.1l6.2-10.9"/>
				<path class="st3" d="M8.3,237.1l-0.7,0c0,0-0.1-0.9-0.3-1.1"/>
				<line class="st3" x1="3.5" y1="244.6" x2="5.8" y2="241.4"/>
				<path class="st3" d="M6.1,241.4c0,0,0.7,0.5,1,0.5c0.4,0,6.7,0.8,6.7,0.8s6,0.2,9.6-3.7"/>
				<path class="st3" d="M17.7,216.6L28,198.3l0.6-0.2l0.6,0.1c0,0,0.5,0.4,0.2,2l-4.1,7.2c0,0-0.4,0.8-1.6,0.4l-5.1,9.2"/>
				<path class="st3" d="M25.3,207.3c0,0-0.2-2,0.5-3.2s3.3-5.8,3.3-5.8"/>
				<line class="st3" x1="152.6" y1="218.3" x2="29.6" y2="200.7"/>
				<path class="st3" d="M19.7,212.7c0,0,0.2-1.7,0.1-2.8l0.4-0.6l-0.1-9.8"/>
				<polyline class="st3" points="20.3,207.1 21.9,204.1 21.8,196.1 				"/>
				<line class="st3" x1="24.4" y1="191.4" x2="11.4" y2="214.4"/>
				<line class="st3" x1="23" y1="194.2" x2="23.2" y2="203.9"/>
				<path class="st3" d="M22.1,204.1c0,0,1,0.3,1.2-0.3l0.9-1.6l-0.2-9.9"/>
				<line class="st3" x1="24.3" y1="199.1" x2="25.8" y2="199.3"/>
				<path class="st3" d="M24.1,195.4l2.1,0.3l0.1,0.2l-0.3,0.4c0,0-0.2,0.5-0.2,1c0,0.5,0,2.4,0,2.4s0,0.4,0.2,0.4s0.7,0.1,0.7,0.1"
					/>
				<path class="st3" d="M24.9,191.4l0,2.4v1.1l1.7,0.2c0,0,0.6,0.4,0.6,0.8s-0.4,0.8-0.4,0.8s-0.2,0.6-0.1,0.9
					c0,0.3,0.1,2.6,0.1,2.6"/>
				<path class="st3" d="M27.8,187.1l1.4,1.5c0,0,0.4,0.5,0.4,1.4l0.2,0.2v1.5l-0.2,0.3v0.8l-1.1,2l-1.4,1"/>
				<path class="st3" d="M26.9,188.5l1.3,1.3c0,0,0.5,0.5,0.5,1.2c0,0.6,0.1,3,0.1,3"/>
				<line class="st3" x1="27.7" y1="195.3" x2="27.8" y2="198.2"/>
				<polygon class="st3" points="31.2,187.7 42.3,189.3 42.8,197.8 31.6,196.2 				"/>
				<polygon class="st3" points="56.1,186.9 56.7,200 44.4,198.2 43.8,185.2 				"/>
				<polygon class="st3" points="66.8,196.3 86.5,199 86.2,193.3 66.6,190.4 				"/>
				<line class="st3" x1="76.5" y1="192" x2="76.6" y2="197.6"/>
				<path class="st3" d="M95.5,194.6c0,0-0.7-0.3-0.7,0.6l0.3,5l19.5,2.9l-0.2-5.4c0,0-0.1-0.5-0.6-0.5
					C113.4,197.3,95.5,194.6,95.5,194.6z"/>
				<line class="st3" x1="104.9" y1="201.5" x2="104.6" y2="196"/>
				<path class="st3" d="M118.4,194.5l0,13.9c0,0-18.2-2.8-18.9-2.6c-0.7,0.2-1.8-0.5-1.8-0.5l-1.3-0.9l-0.7-0.9
					c0-1.4-0.8-1.5-0.8-1.5s-6.3-0.9-6.9-1c-0.5-0.1-1.4,0-1.4,0.8c0,0.8-0.5,1-0.5,1l-1.8,0.6l-19-2.8c-1.6-0.1-1.4-1.5-1.4-1.5
					l-0.4-11.6c0,0,0.2-1.8-1.6-1.8"/>
				<line class="st3" x1="150.9" y1="207.9" x2="151" y2="214.5"/>
				<path class="st3" d="M157.1,208.6l-13.3-1.9c0,0-0.7-0.3-0.6,0.7s0.3,5.4,0.3,5.4s-0.1,0.9,0.7,0.8s10.4,1.6,10.4,1.6"/>
				<path class="st3" d="M88.1,206.5l0.8-0.8l4,0.7l0.9,0.8c0,0,0.9,1-0.3,1.4l-4.7-0.7C88.7,207.8,88.1,207.1,88.1,206.5z"/>
				<path class="st3" d="M158.3,208.6L141,239.8l0.4,24.8c0,0-0.3,1.3-1.6,1.4c-1.3,0.1-3.5,0.3-6.2-0.3
					c-2.7-0.7-14.7-4.3-15.5-17.5c0,0-1.2-9.4,12.6-14.9c0,0,3.1-0.8,6.4-0.1s4,0.7,4,0.7s1.5,0,2,1.7l0.6,25.2l-2.4,4.1"/>
				<path class="st3" d="M136,263.2c-3.5,2.1-9.5-1.8-12.8-5.5c-3.3-3.7-4.8-11.7-0.9-16.1c0.1-0.2,0.3-0.3,0.5-0.5
					c4-3.8,10.6-3.5,10.6-3.5s4.9,0.7,5.7,0.8s1.1,1.2,1.1,1.2l0.3,18.1c0,0-0.5,3-0.9,4.2c-0.5,1.2-0.9,2.1-1.9,0.9
					c-1-1.2-0.4-11.6-0.4-11.6s1.2-6.1,2.6-5.2l-0.1-0.5c0,0-1-1.3-2-0.3s-2.2,6-2.2,7.7s0.2,8.6,0.2,8.6s0.4,3.9,2.8,2.2"/>
				<path class="st3" d="M135.8,259.8c0,0-5.5-0.3-10.4-6.2c-4.9-5.9-2.6-12.3-2.6-12.3"/>
				<path class="st3" d="M157,210.8c0,0-0.3-2.3,0.9-2.3c1.2,0,2.2,0.5,2.2,0.5l-16.7,29.6"/>
				<line class="st3" x1="161.5" y1="201.3" x2="157.7" y2="208.2"/>
				<path class="st3" d="M159.1,227.7c0,0,1.2,0.5,1.6-0.5l-0.3-17.6l4.1-7"/>
				<line class="st3" x1="143.8" y1="254.7" x2="160.6" y2="225.1"/>
				<polyline class="st3" points="160.6,227.2 164.5,220.4 164.9,219.7 				"/>
				<path class="st3" d="M164.5,220.3l1.5,0.2c0,0,0.7,0,0.9-0.8l-0.5-18.4"/>
				<polyline class="st3" points="166.9,220.1 224.8,118.5 224.6,112.5 224,111.9 221.4,110 221.4,108.2 				"/>
				<path class="st3" d="M214.9,121.3c-0.4,0.3-0.5,1.7-0.5,2.7s0.7,0.7,0.7,0.7s2.8-4.7,3.1-5.7c0.3-1,0.7-0.3,0.7-0.3l0,2.2l0,2.2
					c0.5-0.1,0.7-1.4,0.7-1.4l5.1-9.1"/>
				<path class="st3" d="M224.2,111.6"/>
				<path class="st3" d="M218.8,120.8"/>
				<path class="st3" d="M155.7,220.1l0.2,9.5l3.1-5.4c0,0,0.2-0.6,0.2-1c0-0.4-0.2-8.3-0.2-8.3s0-0.6-0.4,0.1
					C158.2,215.6,155.7,220.1,155.7,220.1z"/>
				<path class="st3" d="M150.3,229.1l-5.4,9.6c0,0-0.5,0.9-0.4,3.5c0.1,2.7,0.1,6.3,0.1,6.3s0,1.3,0.7,0.6c0.7-0.7,5.3-9.4,5.3-9.4
					s0.6-1.8,0.6-2.6s-0.1-7.6-0.1-7.6S151.1,228.2,150.3,229.1z"/>
				
					<ellipse transform="matrix(0.9937 0.1122 -0.1122 0.9937 26.3275 -15.7494)" class="st3" cx="153.1" cy="226.1" rx="0.7" ry="2.2"/>
				
					<ellipse transform="matrix(0.9937 0.1122 -0.1122 0.9937 27.1307 -15.7264)" class="st3" cx="153.3" cy="233.2" rx="0.7" ry="2.2"/>
			</g>
			<polygon class="st3" points="122.6,210.1 122.4,204.7 141.6,207.6 141.7,213 			"/>
			<line class="st3" x1="132.2" y1="211.4" x2="132" y2="206.1"/>
			<path class="st3" d="M165.1,219l-0.4-15.8c0,0-0.2-1.6-1.8-1.7s-42-6.2-42-6.2s0-0.9-1.2-0.9l-0.9-0.1l-1,0.7l-0.7-0.4l-53.8-7.7
				"/>
			<path class="st3" d="M26.5,189.9c0,0,1.2,2.8,0.2,5.3"/>
			<line class="st3" x1="7.6" y1="221.1" x2="7.7" y2="225.3"/>
			<line class="st3" x1="4.9" y1="231.6" x2="5" y2="237.5"/>
			<ellipse class="st3" cx="65.9" cy="182.3" rx="3.1" ry="1.5"/>
			<path class="st3" d="M166.3,201.4l3.8-6.3l0.8,2.4c0,0,0.9-0.1,0.8-2.5c-0.1-2.4,0.3-5,0.8-5.4c0.5-0.4,0.6-2.5,0.6-2.5l2.1-3.6
				l0.2,2.8l17.2-30.1l-0.1-3.9L200,139l0.4,5.2c0.9,0.4,0.9,0.9,0.9,0.9s-22.7,41.1-23.9,42.5c-1.6,1.7-2.1,6.1-2,6
				c0,0-1.1,12.6-2.9,15"/>
			<line class="st3" x1="166.8" y1="218.1" x2="172.4" y2="208.6"/>
			<path class="st3" d="M200.8,214.1"/>
			<line class="st3" x1="128.5" y1="189.2" x2="59.8" y2="179.2"/>
			<path class="st3" d="M135.6,186"/>
			<line class="st3" x1="165.4" y1="197.7" x2="127.7" y2="192"/>
			<polyline class="st3" points="121.3,194.9 121.5,194.1 164.6,200.5 			"/>
			<path class="st3" d="M128.8,189.2l-1.8,3.6c0,0-0.3,1.1-2,0.8c-1.7-0.2-3.3-0.4-3.3-0.4L121,194l-3.6-0.5l-0.3,0.1l-89.5-12.9
				v0.7"/>
			<polyline class="st3" points="100.1,185 104.8,177.1 123.9,179.8 124.3,180.2 124.2,180.5 119.9,187.8 			"/>
			<polyline class="st3" points="72,180.7 76.5,173 95.5,175.7 91.1,183.8 			"/>
			<polyline class="st3" points="47.2,180 49.6,175.9 60.8,177.5 58.2,181.8 29.2,177.5 27.6,180.6 			"/>
			<polygon class="st3" points="58,172.2 59.2,172.4 60.6,169.8 40.2,166.7 38.7,169.4 40,169.6 40.3,169.2 58.1,171.8 			"/>
			<polyline class="st3" points="60,177.2 61.4,174.8 61.3,170.4 61,170.2 61,168.6 49.7,166.8 49.8,166.5 47,166.1 46.7,166.4 
				40.7,165.6 40.6,166.5 			"/>
			<line class="st3" x1="46.7" y1="166.4" x2="46.8" y2="167.6"/>
			<line class="st3" x1="49.7" y1="168.2" x2="49.7" y2="166.8"/>
			<polyline class="st3" points="40.7,165.6 50.2,149 56.1,149.9 			"/>
			<polyline class="st3" points="61.2,168.4 69,154.3 65.1,153.8 65.8,152.4 53.4,150.7 52.5,152.1 48.9,151.7 			"/>
			<line class="st3" x1="61.5" y1="170.8" x2="64.8" y2="165.1"/>
			<polyline class="st3" points="64.9,169.1 64.9,171 76.2,172.6 			"/>
			<g>
				<polyline class="st3" points="91.5,175 91.6,167.9 100.3,153.1 				"/>
				<path class="st3" d="M64.9,169.2l0-5.4l6.5-11.6l5.3,0.9l0.2,0l1.8-3.1l21.6,3c0,1.8,0.2,7.2,0.2,7.2L92.2,175"/>
			</g>
			<g>
				<path class="st3" d="M131.3,166.3"/>
				<path class="st3" d="M123.3,175.1"/>
				<path class="st3" d="M121.4,174.8"/>
				<path class="st3" d="M119.5,174.5"/>
				<path class="st3" d="M117.6,174.2"/>
				<path class="st3" d="M115.7,173.9"/>
				<path class="st3" d="M113.9,173.6"/>
				<path class="st3" d="M112,173.4"/>
				<path class="st3" d="M110.1,173.1"/>
				<path class="st3" d="M108.2,172.9"/>
				<path class="st3" d="M106.2,172.6"/>
				<path class="st3" d="M104.3,172.3"/>
			</g>
			<g>
				<path class="st3" d="M139.6,104.7"/>
				<path class="st3" d="M137.7,104.4"/>
			</g>
			<g>
			</g>
			<polyline class="st3" points="170.5,192.6 132.4,187.1 129.3,192.2 			"/>
			<line class="st3" x1="148.8" y1="195.2" x2="152" y2="189.9"/>
			<polyline class="st3" points="149.8,195.3 151.3,193 151.8,193.1 165.8,195.1 164.4,197.5 			"/>
			<line class="st3" x1="151.7" y1="190.3" x2="151.8" y2="193.1"/>
			<line class="st3" x1="151.9" y1="191.7" x2="170.4" y2="194.5"/>
			<line class="st3" x1="36.3" y1="176" x2="38.9" y2="171.3"/>
			<polyline class="st3" points="38.7,169.4 38.9,175.2 40.3,175.5 40.7,175.1 49.1,176.4 			"/>
			<line class="st3" x1="40.1" y1="169.4" x2="40.3" y2="175.4"/>
			<line class="st3" x1="41.1" y1="169.3" x2="41.2" y2="175.3"/>
			<line class="st3" x1="42.2" y1="169.5" x2="42.4" y2="175.4"/>
			<line class="st3" x1="43.3" y1="169.8" x2="43.4" y2="175.5"/>
			<line class="st3" x1="44.3" y1="169.9" x2="44.4" y2="175.6"/>
			<line class="st3" x1="46" y1="169.9" x2="46.1" y2="175.9"/>
			<line class="st3" x1="47.7" y1="170.3" x2="47.8" y2="176.1"/>
			<line class="st3" x1="48.7" y1="170.5" x2="48.9" y2="176.3"/>
			<line class="st3" x1="49.7" y1="170.6" x2="49.9" y2="175.6"/>
			<line class="st3" x1="50.8" y1="170.9" x2="51" y2="175.9"/>
			<line class="st3" x1="51.9" y1="171.1" x2="52" y2="176"/>
			<line class="st3" x1="53" y1="171.2" x2="53.1" y2="176.1"/>
			<line class="st3" x1="54.1" y1="171.3" x2="54.2" y2="176.3"/>
			<line class="st3" x1="55.2" y1="171.6" x2="55.4" y2="176.6"/>
			<line class="st3" x1="56.3" y1="171.7" x2="56.4" y2="176.7"/>
			<line class="st3" x1="58" y1="171.9" x2="58.1" y2="176.9"/>
			<line class="st3" x1="59.3" y1="172.3" x2="59.5" y2="177.2"/>
			<path class="st3" d="M25.2,182.4v-1.9l2.4-4.1c0,0,0.2-0.3,1.1-0.1c0.9,0.2,0.5,1.3,0.5,1.3l-1.6,2.5c0,0-0.5,0.8-1.4,0.6
				c-0.4-0.1-0.3,0.8-0.3,0.8"/>
			<path class="st3" d="M28.4,176.1l2.1-3.8l0.9,0.1l0.5,3.1c0,0,0.9,1.2,0.8-2.1c-0.1-3.3,0.9-6.2,0.9-6.2l0.5-2.3
				c0,0,0.1-0.9,0.6-1.2s1-1.8,1-1.8s0.6-1.1,0.8,1.1s-0.4,13.2-0.4,13.2"/>
			<path class="st3" d="M95.5,175.7c0,0,0.2,0,0.5,0.4l0.3,3.5c0,0-0.8,1.2,0,1.4c0,0,0.8-0.4,0.9,0.5l-1.6,2.8"/>
			<ellipse class="st4" cx="120.1" cy="190.2" rx="3.3" ry="1.4"/>
			<path class="st3" d="M178.1,162.8L178,157c0,0,0-1.4,0.3-1.4"/>
			<path class="st3" d="M186.4,158L178,157l-8-1.5l0,0.7c0,0-2.7,0.3-3.6,2.8l11,2c0,0,0.6,0.2,0.6,0.8"/>
			<polyline class="st3" points="171.7,154.3 178,155.5 186.6,156.7 			"/>
			<path class="st3" d="M171.2,155.8c0,0,0-0.8,1-2.5c1.1-1.7,22.3-39.9,22.3-39.9l12.3,1.9l0.8-1.4l0.6,0.2l-0.9,1.4l2.4,0.4
				l-7.1,12.4l-2.3-0.3l-5.8,10.1l2.1,0.3l-9.8,17.9c0,0-0.5,0.6-0.5,2.2s0.2,7.1,0.2,7.1"/>
			<polyline class="st3" points="187.2,164.9 187.1,157.6 189.5,153.3 189.9,160.5 			"/>
			<line class="st3" x1="206.6" y1="135.9" x2="214.5" y2="121.9"/>
			<polygon class="st3" points="205.7,134.8 218.1,112.9 218.6,112.6 223.9,103.3 223.6,97.9 219.2,105.8 219,105.6 205.8,128.6 			
				"/>
			<polyline class="st3" points="191.5,157.5 191.2,150.8 190.3,150.5 			"/>
			<polyline class="st3" points="195.4,138.2 200.5,129.3 200.4,128.2 			"/>
			<polyline class="st3" points="196.7,138.4 201.3,130.2 200.2,130.1 			"/>
			<line class="st3" x1="201.4" y1="132.1" x2="201.3" y2="130.2"/>
			<polyline class="st3" points="200.8,129.3 202.1,129.8 202.1,131.1 			"/>
			<line class="st3" x1="202" y1="131.2" x2="197.5" y2="139.1"/>
			<path class="st3" d="M199.1,138.8l3.8-6.9c0,0,0.6-1,0.7,0.9c0.1,1.9,0,2.3,0,2.3l0.3,0.7l-3.6,6.1"/>
			<path class="st3" d="M200.5,143.1l3.8-6.6c0,0,0.8-1.8-0.6-1.8"/>
			<path class="st3" d="M169.1,154.2l16.2-27.9c0,0,1.1-0.1,1.3-1.5l1.4-2c0,0,0.2-2.2,0.9-3.2"/>
			<path class="st3" d="M189.6,122.3c0,0-1.9-4.9,2.5-7.1"/>
			<polyline class="st3" points="193.7,113.1 196.9,107.1 206.5,108.6 207.5,108.9 209.4,109.2 210,109.5 210.7,108.5 197,106.5 
				198.2,104.6 207.3,105.8 214.8,107.3 213.8,109.2 210.9,108.5 			"/>
			<line class="st3" x1="203" y1="114.6" x2="206.6" y2="108.3"/>
			<line class="st3" x1="207.5" y1="109.2" x2="204.1" y2="114.8"/>
			<line class="st3" x1="205.9" y1="115.3" x2="209.4" y2="109.2"/>
			<path class="st3" d="M214.4,107l0.3-0.7l-18.7-2.8l-0.7,1.2c0,0-0.7,1.3,2.1,1.5"/>
			<path class="st3" d="M210.3,105.4c0,0-5.1-7.1-17-8.2c-14.9-1.3-14.4,8.8-14.4,8.8s0.5,1.1,2.8,1.2c2,0.1,2.4-1.5,2.4-1.5
				s0.4-3.7,7.9-3.2c0,0,3.5,0.1,5.5,1.2"/>
			<ellipse class="st4" cx="153.9" cy="122.2" rx="3" ry="1.5"/>
			<polygon class="st3" points="102.6,85.7 99.5,91.6 98.6,91.5 96.3,95.5 88.3,94.3 90.5,90.2 89.8,90 92.9,84.1 94,84 101.8,85 
							"/>
			<polygon class="st3" points="102.6,85.7 103.4,85.3 111.8,86.5 112.3,86.8 108.8,92.9 108,92.8 105.8,96.8 97.8,95.7 100,91.6 
				99.5,91.6 			"/>
			<polyline class="st3" points="112.3,86.8 113.3,86.8 121.2,87.9 121.7,88.4 118.3,94.3 117.6,94.1 115.3,98.1 107.4,97 109.6,93 
				109.1,92.7 			"/>
			<polygon class="st3" points="123.6,87.4 117.1,98.6 124.2,99.7 130.7,88.4 			"/>
			<polyline class="st3" points="142.6,91.2 133.9,89.9 133.2,90.1 130,95.9 130.7,96.2 128.2,100.1 136.4,101.4 138.6,97.3 
				139.1,97.5 			"/>
			<polyline class="st3" points="146.4,100 151.8,90.6 143.9,89.5 137.5,100.5 143.7,101.5 			"/>
			<polyline class="st3" points="151.9,100.7 152.6,99.5 151.9,99.3 155,93.3 155.8,93 164.3,94.3 164.7,94.8 161.3,100.6 
				160.5,100.5 159.5,102 			"/>
			<polyline class="st3" points="165.2,94.4 173.6,95.7 174.1,96.1 170.9,102.2 170.1,101.9 167.8,105.9 167.8,106.7 			"/>
			<polyline class="st3" points="139.2,109.4 137.7,109.2 137.5,100.5 			"/>
			<path class="st3" d="M128.2,100.1c0,0-0.4,1.5-0.3,3.3c0.1,1.8,0.2,4.5,0.2,4.5l7.7,0.9l1.6-2.4"/>
			<path class="st3" d="M88.3,94.3c0,0-0.2,0.7-0.3,2.5c-0.1,1.8,0,4.9,0,4.9l8.1,1.1l1.5-2.1"/>
			<path class="st3" d="M97.8,95.7c0,0-0.3,1.1-0.3,2.4s0.1,5.2,0.1,5.2l2.2,0.2"/>
			<path class="st3" d="M105.8,96.8c0,0,0,2.5-0.1,3.4"/>
			<polyline class="st3" points="107.4,97 106.9,98.6 107.1,100.4 			"/>
			<polyline class="st3" points="115.5,97.8 115,99.6 115,101.6 			"/>
			<polyline class="st3" points="96.3,95.5 96,96.8 96.1,102.5 			"/>
			<line class="st3" x1="117.1" y1="98.6" x2="117.2" y2="101.8"/>
			<polyline class="st3" points="136.4,101.4 136.1,102.7 136.3,108.5 			"/>
			<polyline class="st3" points="130.9,88.7 130.7,91.4 130.6,94.2 			"/>
			<line class="st3" x1="151.8" y1="90.6" x2="151.9" y2="99.3"/>
			<polyline class="st3" points="174.1,96.1 175,95.9 183.3,97.1 183.8,97.5 183.7,98.4 			"/>
			<polyline class="st3" points="170.9,102.2 171.7,102.2 169.3,106.1 177.7,107.4 			"/>
			<g>
				<path class="st3" d="M100.4,113.7l-0.7,1.2v3.7c0,0,0.2,0.7-0.7,0.5s-5.4-0.8-5.4-0.8l0.1,1.8l5.8,0.8"/>
				<path class="st3" d="M101,118.2"/>
			</g>
			<g>
				<line class="st3" x1="121.5" y1="115.3" x2="126.2" y2="107.4"/>
			</g>
			<line class="st3" x1="98.9" y1="108.9" x2="93.6" y2="118.2"/>
			<ellipse class="st4" cx="109.6" cy="116.3" rx="3.3" ry="1.7"/>
			<ellipse class="st3" cx="109.6" cy="115.9" rx="2.9" ry="1.5"/>
			<line class="st4" x1="103.2" y1="118.5" x2="103.5" y2="118"/>
			<path class="st4" d="M158.2,126.1c0,0-9.7,17.6-10.1,18.6c-0.4,1-1.6,0.8-1.6,0.8l-9.1-1.5c0,0-1.8,3.5-2.3,4.3
				c-0.6,0.8-1.6,0.5-1.6,0.5l-31.5-4.5l-4.2-0.6l2.8-5l-10.1-1.5l11.1-19.7l10,1.5l2.9-4.7l36.7,5.8l-2.5,4.4L158.2,126.1z"/>
			<g>
				<path class="st3" d="M171,119.8v-4c0,0,0-0.5-0.6-0.5l-0.7,1.2v0.6"/>
			</g>
			<g>
				<path class="st3" d="M173.6,120.2v-4c0,0,0-0.5-0.6-0.5l-0.7,1.2v0.6"/>
			</g>
			<g>
				<path class="st3" d="M176.2,120.6v-4c0,0,0-0.5-0.6-0.5l-0.7,1.2v0.6"/>
			</g>
			<g>
				<path class="st3" d="M178.8,121v-4c0,0,0-0.5-0.6-0.5l-0.7,1.2v0.6"/>
			</g>
			<g>
				<path class="st3" d="M181.4,121.3v-4c0,0,0-0.5-0.6-0.5l-0.7,1.2v0.6"/>
			</g>
			<g>
				<path class="st3" d="M180.2,123.4v-4c0,0,0-0.5-0.6-0.5l-0.7,1.2v0.6"/>
			</g>
			<g>
				<path class="st3" d="M179.1,125.5v-4c0,0,0-0.5-0.6-0.5l-0.7,1.2v0.6"/>
			</g>
			<g>
				<path class="st3" d="M177.9,127.6v-4c0,0,0-0.5-0.6-0.5l-0.7,1.2v0.6"/>
			</g>
			<g>
				<path class="st3" d="M176.7,129.6v-4c0,0,0-0.5-0.6-0.5l-0.7,1.2v0.6"/>
			</g>
			<g>
				<path class="st3" d="M175.6,131.7v-4c0,0,0-0.5-0.6-0.5l-0.7,1.2v0.6"/>
			</g>
			<g>
				<path class="st3" d="M174.4,133.8v-4c0,0,0-0.5-0.6-0.5l-0.7,1.2v7.2"/>
				<path class="st3" d="M171.7,133.4v-4c0,0,0-0.5-0.6-0.5l-0.7,1.2v5.4"/>
				<path class="st3" d="M169.2,133v-4c0,0,0-0.5-0.6-0.5l-0.7,1.2v5.4"/>
				<path class="st3" d="M166.6,132.6v-4c0,0,0-0.5-0.6-0.5l-0.7,1.2v5.3"/>
				<path class="st3" d="M164,132.2v-4c0,0,0-0.5-0.6-0.5l-0.7,1.2v5.4"/>
				<g>
					<path class="st3" d="M177.6,123.1v-4c0,0,0-0.5-0.6-0.5l-0.7,1.2v0.6"/>
				</g>
				<g>
					<path class="st3" d="M176.5,125.1v-4c0,0,0-0.5-0.6-0.5l-0.7,1.2v0.6"/>
				</g>
				<g>
					<path class="st3" d="M175.3,127.2v-4c0,0,0-0.5-0.6-0.5L174,124v0.6"/>
				</g>
				<g>
					<path class="st3" d="M174.1,129.3v-4c0,0,0-0.5-0.6-0.5l-0.7,1.2v0.6"/>
				</g>
				<g>
					<path class="st3" d="M173,131.3v-4c0,0,0-0.5-0.6-0.5l-0.7,1.2v0.6"/>
				</g>
				<g>
					<path class="st3" d="M175.1,122.7v-4c0,0,0-0.5-0.6-0.5l-0.7,1.2v0.6"/>
				</g>
				<g>
					<path class="st3" d="M173.9,124.7v-4c0,0,0-0.5-0.6-0.5l-0.7,1.2v0.6"/>
				</g>
				<g>
					<path class="st3" d="M172.7,126.8v-4c0,0,0-0.5-0.6-0.5l-0.7,1.2v0.6"/>
				</g>
				<g>
					<path class="st3" d="M171.6,128.9v-4c0,0,0-0.5-0.6-0.5l-0.7,1.2v0.6"/>
				</g>
				<g>
					<path class="st3" d="M170.4,130.9v-4c0,0,0-0.5-0.6-0.5l-0.7,1.2v0.6"/>
				</g>
				<g>
					<path class="st3" d="M172.5,122.3v-4c0,0,0-0.5-0.6-0.5l-0.7,1.2v0.6"/>
				</g>
				<g>
					<path class="st3" d="M171.3,124.4v-4c0,0,0-0.5-0.6-0.5l-0.7,1.2v0.6"/>
				</g>
				<g>
					<path class="st3" d="M170.1,126.5v-4c0,0,0-0.5-0.6-0.5l-0.7,1.2v0.6"/>
				</g>
				<g>
					<path class="st3" d="M169,128.5v-4c0,0,0-0.5-0.6-0.5l-0.7,1.2v0.6"/>
				</g>
				<g>
					<path class="st3" d="M167.8,130.6v-4c0,0,0-0.5-0.6-0.5l-0.7,1.2v0.6"/>
				</g>
				<g>
					<path class="st3" d="M169.8,121.9v-4c0,0,0-0.5-0.6-0.5l-0.7,1.2v0.6"/>
				</g>
				<g>
					<path class="st3" d="M168.7,123.9v-4c0,0,0-0.5-0.6-0.5l-0.7,1.2v0.6"/>
				</g>
				<g>
					<path class="st3" d="M167.5,126.1v-4c0,0,0-0.5-0.6-0.5l-0.7,1.2v0.6"/>
				</g>
				<g>
					<path class="st3" d="M166.4,128.1v-4c0,0,0-0.5-0.6-0.5l-0.7,1.2v0.6"/>
				</g>
				<g>
					<path class="st3" d="M165.2,130.2v-4c0,0,0-0.5-0.6-0.5l-0.7,1.2v0.6"/>
				</g>
			</g>
			<g>
				<path class="st3" d="M184.1,124.4l-0.1-6.6c0,0,0-0.5-0.6-0.5l-0.7,1.2v0.6"/>
			</g>
			<g>
				<path class="st3" d="M181.5,121.2v-0.6l0.7-1.2c0.6,0,0.6,0.5,0.6,0.5l0.1,6.6l0.3,0.4l0.9-2.5"/>
			</g>
			<g>
				<path class="st3" d="M181.7,128.6l-0.1-6.6c0,0,0-0.5-0.6-0.5l-0.7,1.2v0.6"/>
			</g>
			<g>
				<path class="st3" d="M179.1,125.4v-0.6l0.7-1.2c0.6,0,0.6,0.5,0.6,0.5l0.1,6.6l0.3,0.4l0.9-2l-0.1-0.4"/>
			</g>
			<g>
				<path class="st3" d="M179.4,132.7l-0.1-6.6c0,0,0-0.5-0.6-0.5l-0.7,1.2v0.6"/>
			</g>
			<g>
				<path class="st3" d="M176.8,129.5v-0.6l0.7-1.2c0.6,0,0.6,0.5,0.6,0.5l0.1,6.6c0,0,0.3,0.4,0.4,0.4l1-2.1l-0.2-0.3"/>
			</g>
			<g>
				<path class="st3" d="M175.7,137.3l-0.1-6.4l0.7-1.2c0.6,0,0.6,0.5,0.6,0.5l0.1,6.6l-0.3,0.5"/>
			</g>
			<g>
				<path class="st3" d="M174.7,141l-0.1-6.6c0,0,0-0.5-0.6-0.5l-0.7,1.2l0.1,7.2l1,0.1l0.7-1.1C175,141.4,174.7,141.1,174.7,141z"
					/>
			</g>
			<g>
				<path class="st3" d="M170.7,135.7l0-0.9l0.7-1.2c0.6,0,0.6,0.5,0.6,0.5l0.1,6.4c0,0,0,0.5,0.4,0.6l-0.6,1.1L171,142"/>
			</g>
			<g>
				<path class="st3" d="M169.5,137.7l0-0.9l0.7-1.2c0.6,0,0.6,0.5,0.6,0.5l0.1,6.4c0,0,0,0.5,0.4,0.6l-0.6,1.1l-0.9-0.1"/>
			</g>
			<g>
				<path class="st3" d="M168.3,139.8l0-0.9l0.7-1.2c0.6,0,0.6,0.5,0.6,0.5l0.1,6.4c0,0,0,0.5,0.4,0.6l-0.6,1.1l-0.9-0.1"/>
			</g>
			<g>
				<path class="st3" d="M169.4,136.8l0-3.2c0,0,0-0.5-0.6-0.5l-0.7,1.2l0,0.9"/>
			</g>
			<g>
				<path class="st3" d="M168.2,139l0-3.2c0,0,0-0.5-0.6-0.5l-0.7,1.2l0,0.9"/>
			</g>
			<g>
				<path class="st3" d="M165.6,138.5l0-3.2c0,0,0-0.5-0.6-0.5l-0.7,1.2l0,0.9"/>
			</g>
			<g>
				<path class="st3" d="M163,138.2l0-3.2c0,0,0-0.5-0.6-0.5l-0.7,1.2l0,0.9"/>
			</g>
			<g>
				<path class="st3" d="M167.1,140.9l0-3.2c0,0,0-0.5-0.6-0.5l-0.7,1.2l0,0.9"/>
			</g>
			<g>
				<path class="st3" d="M164.5,140.6l0-3.2c0,0,0-0.5-0.6-0.5l-0.7,1.2l0,0.9"/>
			</g>
			<g>
				<path class="st3" d="M161.9,140.2l0-3.2c0,0,0-0.5-0.6-0.5l-0.7,1.2l0,0.9"/>
			</g>
			<g>
				<path class="st3" d="M165.9,143l0-3.2c0,0,0-0.5-0.6-0.5l-0.7,1.2l0,0.9"/>
			</g>
			<g>
				<path class="st3" d="M163.2,142.6l0-3.2c0,0,0-0.5-0.6-0.5l-0.7,1.2l0,0.9"/>
			</g>
			<g>
				<path class="st3" d="M160.7,142.3l0-3.2c0,0,0-0.5-0.6-0.5l-0.7,1.2l0,0.9"/>
			</g>
			<g>
				<path class="st3" d="M168.5,144.2l0-4.1c0,0,0-0.5-0.6-0.5l-0.7,1.2l0,0.9"/>
			</g>
			<g>
				<path class="st3" d="M167.4,146.3l0-4.1c0,0,0-0.5-0.6-0.5L166,143l0,0.9"/>
			</g>
			<g>
				<path class="st3" d="M164.8,145.9l0-4.1c0,0,0-0.5-0.6-0.5l-0.7,1.2l0,0.9"/>
			</g>
			<g>
				<path class="st3" d="M162.2,145.6l0-4.1c0,0,0-0.5-0.6-0.5l-0.7,1.2l0,0.9"/>
			</g>
			<g>
				<path class="st3" d="M161,147.6l0-4.1c0,0,0-0.5-0.6-0.5l-0.7,1.2l0.1,7"/>
			</g>
			<g>
				<path class="st3" d="M163.5,148.1l0-4.1c0,0,0-0.5-0.6-0.5l-0.7,1.2l0.1,7"/>
			</g>
			<g>
				<path class="st3" d="M166.2,148.5l0-4.1c0,0,0-0.5-0.6-0.5l-0.7,1.2l0,7.1"/>
			</g>
			<g>
				<path class="st3" d="M167.5,152l-0.2-6.5l0.7-1.2c0.6,0,0.6,0.5,0.6,0.5l0.1,6.6l-0.2,0.5"/>
			</g>
			<g>
				<path class="st3" d="M159.5,145.1l0-4.1c0,0,0-0.5-0.6-0.5l-0.7,1.2l0,0.9"/>
			</g>
			<g>
				<path class="st3" d="M158.4,147.3l0-4.1c0,0,0-0.5-0.6-0.5L157,144l0.2,6.9"/>
			</g>
			<g>
				<path class="st3" d="M156,147.4c0,0,0-0.5-0.6-0.5l-0.7,1.2l0.2,6.9l1.2,0.1l0.5-0.9c0,0-0.5,0-0.4-0.7L156,147.4z"/>
			</g>
			<g>
				<path class="st3" d="M158.6,147.7c0,0,0-0.5-0.6-0.5l-0.7,1.2l0.2,6.9l1.2,0.1l0.5-0.9c0,0-0.5,0-0.4-0.7L158.6,147.7z"/>
			</g>
			<g>
				<path class="st3" d="M161.3,148c0,0,0-0.5-0.6-0.5l-0.7,1.2l0.2,6.9l1.2,0.1l0.5-0.9c0,0-0.5,0-0.4-0.7L161.3,148z"/>
			</g>
			<g>
				<path class="st3" d="M163.8,148.4c0,0,0-0.5-0.6-0.5l-0.7,1.2l0.2,6.9l1.2,0.1l0.5-0.9c0,0-0.5,0-0.4-0.7L163.8,148.4z"/>
			</g>
			<g>
				<path class="st3" d="M166.4,148.9c0,0,0-0.5-0.6-0.5l-0.7,1.2l0.2,6.9l1.2,0.1l0.5-0.9c0,0-0.5,0-0.4-0.7L166.4,148.9z"/>
			</g>
			<g>
				<path class="st3" d="M155.8,146.9l0-4.1c0,0,0-0.5-0.6-0.5l-0.7,1.2l0.2,6.9"/>
			</g>
			<g>
				<path class="st3" d="M166.8,136.5l0-3.2c0,0,0-0.5-0.6-0.5l-0.7,1.2l0,0.9"/>
			</g>
			<g>
				<path class="st3" d="M164.2,136.1l0-3.2c0,0,0-0.5-0.6-0.5l-0.7,1.2l0,0.9"/>
			</g>
			<g>
				<path class="st3" d="M161.6,135.7l0-3.2c0,0,0-0.5-0.6-0.5l-0.7,1.2l0.1,5.3"/>
			</g>
			<g>
				<path class="st3" d="M173.4,115.7v-4c0,0,0-0.5-0.6-0.5l-0.7,1.2l0.1,5.4"/>
			</g>
			<g>
				<path class="st3" d="M176,116.1v-4c0,0,0-0.5-0.6-0.5l-0.7,1.2l0.1,5.4"/>
			</g>
			<g>
				<path class="st3" d="M178.6,116.5v-4c0,0,0-0.5-0.6-0.5l-0.7,1.2l0.1,5.4"/>
			</g>
			<g>
				<path class="st3" d="M181.2,116.8v-4c0,0,0-0.5-0.6-0.5l-0.7,1.2l0.1,5.4"/>
			</g>
			<g>
				<path class="st3" d="M183.7,117.2v-4c0,0,0-0.5-0.6-0.5l-0.7,1.2l0.1,5.4"/>
			</g>
			<path class="st3" d="M159.8,156.9c2.7,0.4,5,0.7,5,0.7s1,0.4,1.5-0.8"/>
			<path class="st3" d="M153.7,151.7l-1.8,3.2c0,0-0.7,0.8,0.3,0.9c0.4,0.1,2.7,0.4,5.3,0.7"/>
			<path class="st3" d="M155.9,143.3l1.1-1.8l0.7,0.1c0,0,0.3,0.3,0.2,1.1"/>
			<line class="st3" x1="147.3" y1="157.1" x2="142.2" y2="156.3"/>
			<polyline class="st3" points="158.3,126.2 158.4,135.9 160.2,136.1 			"/>
			<path class="st3" d="M146.3,156.8l-0.2-9.3c0,0,0.1-1.8,0.6-2.1"/>
			<path class="st3" d="M132.6,148.7c0,0-0.5,0.5-0.5,1.9l0.1,4.5"/>
			<path class="st3" d="M99.6,144.2c0,0-0.5,0.5-0.5,1.9l0.1,6.8"/>
			<polyline class="st3" points="178.8,106 177.2,105.7 176.5,107.2 176.5,107.7 177.1,108.3 			"/>
			<polyline class="st3" points="178.8,106.3 178.6,106.9 178,106.8 176.6,109.2 182.4,110.2 186.3,103.3 			"/>
			<line class="st3" x1="170.3" y1="113.7" x2="172" y2="114"/>
			<line class="st3" x1="173.4" y1="114.2" x2="174.6" y2="114.4"/>
			<line class="st3" x1="176.1" y1="114.6" x2="177.2" y2="114.8"/>
			<path class="st3" d="M176.6,109.3c0,0-0.1,0.5,0.5,0.5l0.1,3.4"/>
			<path class="st3" d="M182.4,110.2c0,0-0.1,0.4-0.6,0.3l0.1,4.1l-0.7-0.1"/>
			<path class="st3" d="M184,107.3l0.1,3.6c0,0,0.2,0.9-0.8,1.2l-0.6,1.1"/>
			<line class="st3" x1="179.8" y1="114.3" x2="178.6" y2="114.1"/>
			<line class="st3" x1="172.2" y1="138.4" x2="173.3" y2="138.1"/>
			<path class="st3" d="M174.7,137.8l1.8-0.5c0,0,0.6-0.1,0.6,0.4c0,0.5,0.1,2.4,0.1,2.4"/>
			<line class="st3" x1="172.2" y1="139.7" x2="173.2" y2="139.5"/>
			<path class="st3" d="M174.7,139.1l1-0.2c0,0,0.4-0.2,0.4,0.5s0,2.6,0,2.6"/>
			<line class="st3" x1="175" y1="141.3" x2="176" y2="139.6"/>
			<line class="st3" x1="176.1" y1="139.1" x2="177" y2="137.7"/>
			<polyline class="st3" points="158.7,149.2 159.4,149.3 159.6,148.8 			"/>
			<polyline class="st3" points="161.4,149.6 161.9,149.7 162.1,149.1 			"/>
			<polyline class="st3" points="163.9,149.9 164.5,150 164.7,149.5 			"/>
			<polyline class="st3" points="166.5,150.3 167.1,150.4 167.4,149.8 			"/>
			<path class="st3" d="M167,145.9"/>
			<line class="st3" x1="154.7" y1="152.2" x2="152.6" y2="151"/>
			<line class="st3" x1="157.3" y1="153.7" x2="156.1" y2="153"/>
			<path class="st3" d="M154.7,150.3l-0.9-0.5c0,0-0.5-0.5-0.9,0.2c-0.4,0.7-0.6,1.2-0.6,1.2l0,2.7"/>
			<line class="st3" x1="157.4" y1="151.8" x2="156.1" y2="151.1"/>
			<path class="st3" d="M165.2,153.9c-0.7,0.2-1.3,0.4-1.3,0.4"/>
			<path class="st3" d="M166.5,152.3l1.5-0.4c0,0,0.7-0.3,0.7,0.5c0,0.8,0.1,2,0.1,2l-0.8,1.3l-0.1-1.9c0,0,0-0.7-0.6-0.6
				c-0.2,0-0.5,0.1-0.9,0.2"/>
			<line class="st3" x1="163.9" y1="153" x2="165.2" y2="152.7"/>
			<polyline class="st3" points="53.3,148 79.6,101.9 80,102.3 80.5,104.4 			"/>
			<path class="st5" d="M50.2,138"/>
			<path class="st5" d="M63.4,150.4l1.3,0.2c0,0-0.1,0.6,0,1.6"/>
			<path class="st5" d="M56.4,151c0,0-0.1-1.2,0-1.6l1.3,0.2"/>
			<polyline class="st5" points="57.9,151.1 57.9,149.3 63.4,150.1 63.4,152.1 			"/>
			<line class="st5" x1="64.7" y1="151.1" x2="70.8" y2="152.1"/>
			<path class="st6" d="M59.3,144.4c0,0,0.9-1.9,3.4-1.6c2.4,0.4,1.9,2.8,1.9,2.8l-0.8,1.9c0,0-0.6,1.8-3.4,1.6c0,0-2.2-0.3-2-2.4
				L59.3,144.4z"/>
			<path class="st5" d="M59.9,144.5c0,0,0.8-1.5,2.5-1.1s1.5,1.7,1.5,1.7l-0.7,2.2c0,0-0.8,1.3-2.5,1.2c-1.7-0.1-1.6-1.8-1.6-1.8
				L59.9,144.5z"/>
			<g>
				<g id="LINE_74_">
					<polygon class="st7" points="62.4,147.3 60,146.9 60.1,146.6 62.5,147 					"/>
				</g>
				<g id="LINE_73_">
					<polygon class="st7" points="62.7,146.2 60.3,145.8 60.4,145.5 62.8,145.9 					"/>
				</g>
				<g id="LINE_72_">
					<polygon class="st7" points="63,145.1 60.6,144.7 60.7,144.4 63.2,144.8 					"/>
				</g>
			</g>
			<path class="st5" d="M90.4,137.2c0,0-0.5,1-0.5,2.7c0,1.7,0.3,8.9,0.3,8.9l2.7,0.4"/>
			<line class="st4" x1="100.4" y1="155.7" x2="109.4" y2="157"/>
			<g>
				<path class="st4" d="M136.2,148.1l0,2.2c0,0,0.5,1.5,3.4,1.5c0,0,2.2,0,2.9-1.6v-2.6"/>
				<ellipse class="st4" cx="139.4" cy="147.8" rx="3.1" ry="1.6"/>
			</g>
			<g>
				<path class="st4" d="M92,141.6l0,2.2c0,0,0.5,1.5,3.4,1.5c0,0,2.2,0,2.9-1.6v-2.6"/>
				<ellipse class="st4" cx="95.1" cy="141.4" rx="3.1" ry="1.6"/>
			</g>
			<g>
				<g>
					<path class="st3" d="M92.7,144.7c0,0-1.6,1.5,1.9,1.8c0,0,1.7,0.1,2.7-0.8"/>
					<path class="st3" d="M92.7,146.2c0,0-1.6,1.5,1.9,1.8c0,0,1.7,0.1,2.7-0.8"/>
					<path class="st3" d="M92.7,147.6c0,0-1.6,1.5,1.9,1.8c0,0,1.7,0.1,2.7-0.8"/>
					<path class="st3" d="M92.7,149.1c0,0-1.6,1.5,1.9,1.8c0,0,1.7,0.1,2.7-0.8"/>
					<path class="st3" d="M92.7,150.5c0,0-1.6,1.5,1.9,1.8c0,0,1.7,0.1,2.7-0.8"/>
				</g>
				<line class="st3" x1="93.2" y1="144.9" x2="93.4" y2="152.2"/>
			</g>
			<g>
				<g>
					<path class="st3" d="M137.1,151.2c0,0-1.6,1.4,1.9,1.7c0,0,1.7,0.1,2.7-0.8"/>
					<path class="st3" d="M137.1,152.6c0,0-1.6,1.5,1.9,1.8c0,0,1.7,0.1,2.7-0.8"/>
					<path class="st3" d="M137.1,154c0,0-1.6,1.5,1.9,1.8c0,0,1.7,0.1,2.7-0.8"/>
					<path class="st3" d="M139.7,157.3c0.6,0,1.4-0.2,2-0.8"/>
					<path class="st3" d="M137.1,155.5"/>
					<path class="st3" d="M139.8,158.8c0.6-0.1,1.4-0.2,2-0.8c0,0,0.9-0.7,0.3-1.5"/>
				</g>
				<line class="st3" x1="137.5" y1="151.5" x2="137.7" y2="155.7"/>
				<line class="st3" x1="141.5" y1="151.3" x2="141.7" y2="159"/>
				<line class="st3" x1="97.1" y1="144.8" x2="97.2" y2="152.4"/>
			</g>
			<path class="st3" d="M142.5,157.2c0,0,1.2,1.8-0.7,2.7c-1.5,0.6-1.9,0.3-1.9,0.3"/>
			<polygon class="st3" points="78.7,104.9 79,104.5 81.6,104.8 82,105.4 82,112.1 82.7,113 82.9,119.6 79,119 			"/>
			<path class="st3" d="M82.9,99.1c0,0-0.2-2.5,0.7-2.7l3.7,0.7c0,0-0.7,1.7-0.4,3.1l-1-0.2"/>
			<path class="st3" d="M87,100.4c0,0,0.6,3.2-0.3,6.9l-0.8-0.1"/>
			<polyline class="st3" points="86.7,107.5 86.8,109.7 85.8,109.4 85.7,108 			"/>
			<polyline class="st3" points="82.8,112.8 83.3,112.2 83.6,112.8 83.7,114.8 86.7,109.9 			"/>
			<polyline class="st3" points="82.1,112 82.4,111.2 83.3,112.2 			"/>
			<path class="st3" d="M80.8,104.3c0,0,0.7-5.5,3-5.6l1.2,0.2c0,0-1.8-0.2-3,7.8"/>
			<path class="st3" d="M85.2,109.4c0,0,2.3-8.7,0-10.4"/>
			<path class="st3" d="M140,161.6l3.6,0.5c0,0,1.1,0.3,1.5,0.6s2.6,2.4,2.6,2.4"/>
			<line class="st3" x1="154.5" y1="145.3" x2="144.6" y2="162.4"/>
			<path class="st3" d="M192,147.1c0,0,1.3-0.3,1.2,0.7l0,1.5"/>
			<line class="st3" x1="191.2" y1="150.8" x2="193.1" y2="147.6"/>
			<path class="st3" d="M191.8,152.1l7.1-12.7c0,0,0.2-0.7,1-0.4"/>
			<path class="st3" d="M193.4,148.3c0,0,0.1-1.5,0.4-1.9s3.8-6.7,3.8-6.7s0.4-0.8,0.4,0.2c0,1,0,0.8,0,0.8"/>
			<path class="st3" d="M192.7,147.1l0.1-0.6l4.1-7.1c0,0,0.7-0.5,1,0"/>
			<path class="st3" d="M205.7,134.8c0,0,1.5,0.2,0.5,2c-0.9,1.8-4.8,8.5-4.8,8.5"/>
			<path class="st3" d="M203.6,132.2l0-2.1c0,0,0-1.4,0.7-2.3s4.2-7,4.2-7"/>
			<path class="st3" d="M207.4,120c0,0,0.5-0.1,1.2,0.2l1.9-3.3c0,0-0.3-0.6-1.2-0.3"/>
			<line class="st3" x1="208.6" y1="123.5" x2="208.6" y2="120.3"/>
			<line class="st3" x1="210.6" y1="120" x2="210.5" y2="117"/>
			<path class="st3" d="M223.6,97.9c0,0,0.2-1-1.1-0.8l-4.6,7.9c0,0,0.9-0.9,1.4,0.1"/>
			<path class="st3" d="M198.5,103.9c0,0,0.3-0.8,0.6-0.7c0.3,0.1,4.4,0.3,4.4,0.3s0.5,0.2,0.3,0.9c0,0-0.1-1.1-0.7,0"/>
			<polygon class="st3" points="198.5,109.4 200.9,109.7 199.7,111.7 197.3,111.4 			"/>
			<path class="st3" d="M196,108.8c0,0-1,0.2-2.5,1.9c-1.5,1.7-3.8,6.7-3.8,6.7"/>
			<line class="st3" x1="186" y1="107.8" x2="194.6" y2="109.2"/>
			<polyline class="st3" points="185.6,104.6 185.9,114 183.9,116.9 			"/>
			<line class="st3" x1="170.1" y1="102.1" x2="170.1" y2="104.4"/>
			<line class="st3" x1="169.3" y1="106.1" x2="169.3" y2="107"/>
			<polyline class="st3" points="161.2,102.4 162.1,100.8 161.3,100.6 			"/>
			<polyline class="st3" points="184,119.1 186.9,119.5 187.2,119.6 185.5,122.2 185.3,122.1 184.1,122.4 			"/>
			<line class="st3" x1="181.3" y1="118.6" x2="182.6" y2="118.8"/>
			<line class="st3" x1="178.8" y1="118.3" x2="179.9" y2="118.4"/>
			<line class="st3" x1="176.2" y1="117.9" x2="177.4" y2="118"/>
			<line class="st3" x1="174.7" y1="117.6" x2="173.9" y2="117.5"/>
			<path class="st3" d="M184.1,121.2c0,0,0.9-0.3,1.6-0.5s0.7,0.3,0.7,0.3l0,3.9"/>
			<line class="st3" x1="185.4" y1="122.4" x2="185.5" y2="126.2"/>
			<polyline class="st3" points="186.5,122.8 187.2,121.7 187.2,119.8 			"/>
			<polyline class="st3" points="194.5,113.4 193.3,113.3 189.6,119.8 190.8,120 			"/>
			<polyline class="st3" points="215,107.4 215.7,107.5 215.7,111 			"/>
			<polyline class="st3" points="211.3,108.8 210.6,110 212.9,110.4 213.3,110.7 213.2,111.6 213.9,110.3 213.9,109.2 			"/>
			<polyline class="st3" points="210,109.6 209.7,110.3 212.8,110.7 213.1,111.4 			"/>
			<polyline class="st3" points="209.7,110.5 209.7,111.3 212.9,111.7 213.3,111.9 210.4,116.7 			"/>
			<line class="st3" x1="207.9" y1="113.8" x2="209.6" y2="110.9"/>
			<path class="st3" d="M208.2,114l2.4,0.5c0,0,0.5,0.2,0.4,1"/>
			<line class="st3" x1="212.7" y1="111.7" x2="211" y2="114.7"/>
			<path class="st3" d="M168.6,197.5c0,0-0.1-1.2-2-0.9l-2,3.5c0,0,0.1,0.4,0.8,0.4c0.7,0,0.9,0.6,0.9,0.6"/>
			<path class="st3" d="M166,195.2c0,0,0.5-0.1,0.3,1.6"/>
			<path class="st3" d="M122.7,188.3c0,0,1.6-2.7,1.9-3.2l-0.3-4.9"/>
			<polyline class="st3" points="142.5,174.5 142.7,184.2 140.5,188.3 			"/>
			<line class="st3" x1="60.9" y1="177.5" x2="60.9" y2="179.4"/>
			<path class="st3" d="M34.1,164.9"/>
			<path class="st3" d="M48.9,151c0,0-0.7-0.9-0.2-1.5c0.5-0.6,0.8-1.5,0.8-1.5s0.3-0.4,1.1-0.3c0.8,0.1,7.4,1.1,7.4,1.1"/>
			<line class="st4" x1="63.4" y1="149.9" x2="63.9" y2="148.9"/>
			<path class="st3" d="M63.6,149.7l7.4,1c0,0,1,0.1,1,1.1"/>
			<line class="st3" x1="66" y1="149.1" x2="77.7" y2="150.9"/>
			<polyline class="st3" points="82.9,119.6 83.6,118.6 83.5,117.9 87.1,111.5 87.1,111.9 87.7,111 87.5,97.2 			"/>
			<polygon class="st3" points="83.9,113.4 83.7,110 84.7,108.4 85.2,109.6 85.4,110.8 			"/>
			<polyline class="st3" points="80,102.6 82.9,97.8 82.8,83.1 			"/>
			<polyline class="st3" points="68.8,106.5 83.7,81.5 83.8,78.7 			"/>
			<path class="st3" d="M80.8,84.1l3.9-6.8l0-2.2c0,0-0.4-1-1.5-0.4l-3.9,7.2c0,0,1-0.5,1.3,0.6C80.9,83.5,80.8,84.1,80.8,84.1z"/>
			<path class="st3" d="M79.5,82.1l-0.6-0.1l-8.3,14.6c0,0-0.7,1.1-0.9,2.6c-0.3,1.5-2.1,15.8-2.1,15.8s-0.9,7.7-2.1,9.4
				c-1.2,1.8-12.7,23.4-12.7,23.4"/>
			<path class="st3" d="M82.7,87.3l0.4-0.2l5.9,0.8c0,0,1.1,0,0.8,1.3l-0.1,2.1"/>
			<path class="st3" d="M80.7,84.2c-1.1,0-0.9-0.7-0.9-0.7l-0.2-1l1.1,0.1"/>
			<line class="st3" x1="80.8" y1="83.7" x2="79.8" y2="83.5"/>
			<line class="st3" x1="98.4" y1="92.1" x2="98.4" y2="93.8"/>
			<line class="st3" x1="99.3" y1="91.7" x2="99.2" y2="92.7"/>
			<line class="st3" x1="108" y1="92.8" x2="108.1" y2="95.5"/>
			<line class="st3" x1="108.8" y1="92.9" x2="108.9" y2="94.1"/>
			<line class="st3" x1="117.6" y1="94.4" x2="117.7" y2="97.5"/>
			<line class="st3" x1="118.3" y1="94.3" x2="118.4" y2="96.2"/>
			<line class="st3" x1="121.7" y1="88.4" x2="121.9" y2="90.4"/>
			<polyline class="st3" points="203.3,140.3 203.2,139.5 200.6,144.1 			"/>
			<path class="st3" d="M167.9,154.5l-1.8,3.3c0,0-0.2,0.6-1.1,0.4s-12.8-1.9-12.8-1.9s-0.7,0-0.6-0.7"/>
			<path class="st3" d="M162.3,161l0-0.8l0.3-0.7l3.6,0.5l0.6-0.7l0.2,0.9c0,0,0,0.6-1.2,0.5c-1.2-0.1-3.2-0.5-3.2-0.5"/>
			<line class="st8" x1="167" y1="161.6" x2="167" y2="160.6"/>
			<path class="st3" d="M149.9,161.2l0-3.6l0.4-0.8l0.7,0.1l0,0.3c0,0-0.2,0.3,0.2,0.4c0.4,0,2.6,0.4,2.6,0.4l-0.5,0.7l-2.6-0.4
				c0,0-0.6-0.2-0.6-0.4"/>
			<path class="st3" d="M154.1,159.8"/>
			<line class="st3" x1="154.2" y1="157.1" x2="153" y2="159.1"/>
			<line class="st3" x1="152.2" y1="156.4" x2="152.2" y2="157.8"/>
			<path class="st3" d="M156.7,158.3"/>
			<path class="st3" d="M154.2,157.8c0.2-0.3,1.2-0.6,1.2-0.6c0.9-0.2,1.7-0.1,3.4,0.2c1.1,0.2,1.5,0.5,1.6,0.7c0,0.1,0,0.2,0,0.2
				s0,0-0.1,0.1c-0.1,0.1-0.4,0.2-0.6,0.3c-0.3,0.2-1.8,0.3-3.7,0C154.2,158.3,154.2,157.8,154.2,157.8l-0.1,1.2c0,0,0.2,0.7,2,0.9
				c1.8,0.2,2.8,0.4,3.5,0l0.8-0.7l0.1-0.6"/>
			<g>
				<g id="LINE_71_">
					<polygon class="st9" points="155.5,157.9 158.5,158.3 158.3,158.4 155.4,158 					"/>
				</g>
			</g>
			<g>
				<g id="LINE_70_">
					<polygon class="st9" points="156.2,157.5 159.2,157.9 159.1,158.1 156.1,157.6 					"/>
				</g>
			</g>
			<path class="st3" d="M159.7,157.5c0,0,0,0,0-0.5c0-0.5-0.3-0.7-1-0.8c-0.7-0.1-1.3,0.2-1.3,0.2l-0.1,0.7"/>
			<polyline class="st3" points="162.5,159.8 162.5,158.3 162.3,157.9 			"/>
			<path class="st3" d="M160.2,160.3"/>
			<polyline class="st3" points="160.1,160.3 160.2,159.9 160.9,159.9 161.4,158.9 160.9,158.7 161.2,158.1 162.5,158.3 
				161.2,160.7 			"/>
			<line class="st3" x1="153.6" y1="149.6" x2="154.4" y2="148.1"/>
			<line class="st3" x1="156.1" y1="149.4" x2="157" y2="147.8"/>
			<g>
				<path class="st4" d="M163.7,213H163c0,0-0.8,0.9-0.4,2.8l0.6,0.1"/>
				
					<ellipse transform="matrix(0.9942 0.1076 -0.1076 0.9942 24.0505 -16.4271)" class="st4" cx="164.2" cy="214.6" rx="0.8" ry="2.9"/>
				
					<ellipse transform="matrix(0.9942 0.1076 -0.1076 0.9942 24.074 -16.5071)" class="st4" cx="165" cy="214.8" rx="0.7" ry="2.7"/>
			</g>
			<polyline class="st3" points="58.1,148.5 58.3,148.1 58,148.8 			"/>
			<path class="st3" d="M56.8,148.6l0.8-1.6c0,0,0.3-0.3,0.8-0.1"/>
			<polyline class="st3" points="64.7,147.9 65.8,148.1 65.9,149.8 			"/>
			<line class="st3" x1="64.8" y1="149.8" x2="65.8" y2="148.1"/>
			<path class="st3" d="M64.1,148.5c0,0,1-1.2,0.6-3.4"/>
			<line class="st3" x1="106.4" y1="118.3" x2="106.4" y2="116.5"/>
			<line class="st3" x1="167.9" y1="153.5" x2="168.6" y2="152.4"/>
			<line class="st3" x1="150.7" y1="122.3" x2="150.8" y2="124.8"/>
			<path class="st3" d="M156,125.7c0,0,0.8-0.1,1.1-1l0-2.4"/>
		</g>
		<line class="st4" x1="64.8" y1="163.8" x2="91.6" y2="167.8"/>
		<g>
			<polyline class="st3" points="104.3,172.1 104.3,174 130.9,178 131,170.9 139.7,156.2 			"/>
			<path class="st3" d="M104.3,172.2l0-5.4l6.5-11.6l5.3,0.9l0.2,0l1.8-3.1l21.6,3c0,1.8,0.2,7.2,0.2,7.2l-8.6,14.8"/>
		</g>
		<line class="st4" x1="104.2" y1="166.8" x2="131" y2="170.8"/>
		<polyline class="st3" points="182.8,173.1 182.9,167.1 176.3,166.2 177.9,163.3 151.2,159.3 142.5,174.5 148.2,175.5 146.2,178.6 
			146.4,188.8 		"/>
		<polyline class="st3" points="146.7,178.8 173.1,182.5 173.1,185.1 		"/>
		<line class="st3" x1="182.9" y1="167.1" x2="173.1" y2="182.5"/>
		<polyline class="st3" points="138.1,117.8 138,112.1 144.9,99.8 165.7,103.1 163.9,106.2 170,107 170.1,115.2 		"/>
		<polyline class="st3" points="138,112.1 143.6,112.8 142.2,115.6 163.3,118.6 163.4,127.8 		"/>
		<line class="st3" x1="163.5" y1="118.3" x2="170" y2="107"/>
		<line class="st3" x1="142.3" y1="115.9" x2="142.4" y2="118.5"/>
		<polyline class="st3" points="124.2,99.7 124.5,106.7 127.8,101.3 		"/>
		<polyline class="st3" points="99.3,119.3 99.7,118.7 99.7,114.9 101.8,111.2 99.8,110.8 100.9,109 96.8,108.4 101.8,99.6 
			122.2,102.7 120.1,106.4 126.5,107.4 126.6,111.6 128.9,108.6 129.1,110.5 125.6,116 		"/>
		<line class="st3" x1="99.7" y1="114.9" x2="106.3" y2="116"/>
		<line class="st3" x1="128.9" y1="108.6" x2="126.7" y2="108.3"/>
	</g>
</g>
<g id="CALL_OUT">
	<ellipse class="st10" cx="139.1" cy="64.5" rx="41.1" ry="37.1"/>
	<g>
		<polygon class="st11" points="113.8,54.9 109.9,58.2 110.3,56.3 104.5,55.7 105.3,52.2 111.1,52.8 111.5,51 		"/>
	</g>
	<g>
		<defs>
			<ellipse id="SVGID_1_" cx="138" cy="64.1" rx="41.6" ry="37.5"/>
		</defs>
		<clipPath id="SVGID_2_">
			<use xlink:href="#SVGID_1_"  style="overflow:visible;"/>
		</clipPath>
		<g class="st12">
			<path class="st13" d="M167.8,52.9c0.2-0.8-14.3-15.3-32-14.1s-17,14.6-17,14.6s1.3,2,4.5,1.9s3.9-2.1,3.9-2.1s-1.1-5.5,11.2-5.8
				c0,0,6.4,0.5,10.2,2.3"/>
			<polyline class="st13" points="130.4,49.3 124.3,60.5 115.4,59 117.4,54.9 118.3,55 118.7,53.9 			"/>
			<path class="st13" d="M147.2,53.8c0,0-3.6,0.1-3.2-2l1.3-2.3l3.8,0.6l24.9,4.1l0.1,0.7"/>
			<polyline class="st13" points="156.8,51.2 157.3,50 156.8,49.5 150.3,48.6 149.7,50.1 			"/>
			<polyline class="st13" points="118.8,53.4 116.5,53 115.1,55.2 115.1,56.2 116.3,57.3 			"/>
			<line class="st13" x1="116.8" y1="55.8" x2="115.1" y2="55.6"/>
			<path class="st13" d="M129.4,51.4l0.3,15.2l-6.2,8.7l-7.2-1.2l-0.2-14.2c0,0-0.9-0.1-0.8-0.9"/>
			<polyline class="st13" points="124.3,60.5 123.4,61 123.6,75.3 			"/>
			<path class="st13" d="M116.5,66.2l7,1.2l2.3-3.6c0,0,1.3-0.1,1.2-3s-0.1-5.2-0.1-5.2"/>
			<path class="st13" d="M126.3,71.3l0.1-5.8c0,0-0.2-1.1-1.1-1.1"/>
			<polyline class="st13" points="127.6,69.8 127.3,63.2 126.5,63.2 			"/>
			<path class="st13" d="M145.5,58c0,0-2.4,0.4-4.1,3.2s-5.8,10.6-5.8,10.6"/>
			<path class="st13" d="M139.4,68.4c0,0-3.7,1.5-4.7,6.5c0,0-0.6,2.4,0.8,5.4"/>
			<polyline class="st13" points="124.4,101.7 143.3,65.8 141.3,65.3 135.4,76 135.5,77.6 136.5,77.9 			"/>
			<line class="st13" x1="137.2" y1="76.5" x2="135.4" y2="76"/>
			<polyline class="st13" points="143.7,65.8 162,68.9 163.3,66.6 163.5,66.6 168.1,67.4 168.5,69.9 171.9,63.2 171.5,61.3 
				166.5,60.6 167.8,58 146.9,54.5 146.9,55.5 			"/>
			<polyline class="st13" points="128.7,52.3 128.9,57.5 129.5,56.9 			"/>
			<polyline class="st13" points="129.9,63.7 130.7,64 130.8,65.7 130.3,66.5 129.8,66.3 			"/>
			<path class="st13" d="M141.8,65.3l5.3-9.8c0,0,0-0.7,1.6-0.4c1.6,0.3,13.1,2.2,13.1,2.2l1.2,1l2.8,0.5l1.1,0.6"/>
			<line class="st13" x1="156.3" y1="67.5" x2="161.9" y2="57.3"/>
			<line class="st13" x1="157.9" y1="68.1" x2="163.3" y2="58.5"/>
			<line class="st13" x1="160.6" y1="68.5" x2="165.9" y2="58.7"/>
			<polygon class="st13" points="149.2,59 152.8,59.6 151.1,63 147.4,62.4 			"/>
			<path class="st13" d="M147.1,54.1l1.4-2.5l0.5-0.4l13.4,1.8l11.7,2.3c0,0,1.3,0.3,1,1.6l0.1,3.8"/>
			<polyline class="st13" points="166.5,60.6 166.5,62.1 171.7,62.8 			"/>
			<line class="st13" x1="168.3" y1="68.1" x2="171.2" y2="62.9"/>
			<line class="st13" x1="163.8" y1="66.4" x2="166.3" y2="61.4"/>
			<path class="st13" d="M167.9,67.7l-4-0.5l-1,1.9l3.5,0.7c0,0,0.9,0.4,0.8,1.4"/>
			<path class="st13" d="M174.9,56l-1.6,2.9l-0.1,1.6l-1,2.1c0.1-1.8-0.7-1.9-0.7-1.9l-3.5-0.9l0.9-1.8l3.7,0.4l1.6-2.9"/>
			<polyline class="st13" points="166.6,70 155.8,90.3 152.1,89.8 144.4,104.8 			"/>
			<path class="st13" d="M162.8,78.4c0,0,0.3-0.4,1.5,0l0.2,2.4"/>
			<line class="st13" x1="150.3" y1="104.2" x2="164" y2="78.4"/>
			<path class="st13" d="M163.3,76.5c0,0,1.4-0.1,1.5,0.8l0.1,2.7"/>
			<path class="st13" d="M166.1,70.8c0,0,1.6,0.1,1.6,1l0.2,2.9"/>
			<line class="st13" x1="164.8" y1="77" x2="167.7" y2="71.6"/>
			<polyline class="st13" points="151.9,104.2 179.9,52.2 180.8,52.5 153.2,104.2 			"/>
			<line class="st13" x1="163" y1="78.2" x2="163.8" y2="76.7"/>
			<polyline class="st13" points="175.7,59.5 175.7,55.9 174.7,55.6 			"/>
			<path class="st13" d="M144,52.4l0.1,1.5c0,0,0.5,0.9,1.3,1c0.8,0.2,1.6,0.3,1.6,0.3"/>
			<polyline class="st13" points="144.8,54.9 144.8,55.9 146.6,56.2 			"/>
			<line class="st13" x1="167.5" y1="71.3" x2="168.5" y2="69.9"/>
			<path class="st13" d="M179.3,52.8l0.1-1l6.7-12.7c0,0,1.4-0.8,1.9,0.9l0.2,9l-8.3,15.5l-0.5,0.4l-20.9,38.9"/>
			<polyline class="st13" points="161,103.4 174.2,78.7 180.7,66.6 			"/>
			<path class="st13" d="M179.5,65.1c0,0,1.8,0.5,1,2.9l-0.1,0.7l-5.6,10.3c0,0-0.7,1.1-0.7,2.8s0,2.5,0,2.5s0.2,1.5,1-0.1
				s5.3-10,5.3-10s0.4-0.5,0.4,0.5s0.1,6.9,0.1,6.9s0.3,1,0.7-0.4s-0.4-2.3-0.6-2.6l7.9-15.3"/>
			<line class="st13" x1="181.9" y1="79.5" x2="189.8" y2="64.6"/>
			<line class="st13" x1="180.8" y1="67.3" x2="184.8" y2="59.9"/>
			<path class="st13" d="M184.7,55.8l0.2,3.9c0,0-0.1,1,1.1,1.6s2.6,1.8,2.6,1.8s1.1,0.3,1.4,2.5l0.1,8.1c0,0,0.3,0.7-0.6,2
				s-10.7,20.3-10.7,20.3"/>
			<path class="st13" d="M179.8,51.5c0,0,1.2-0.6,1.5,0.9"/>
			<line class="st13" x1="187.9" y1="40.2" x2="181" y2="53.2"/>
			<polygon class="st13" points="184.3,50.7 186,47.6 186.2,51 184.6,54 			"/>
			<path class="st13" d="M185.1,59.8l3.2,0.6c0,0,1.3,0,1,3.2"/>
		</g>
	</g>
	<g>
		<g>
			<polygon class="st14" points="184.2,117.6 189.7,123.4 187,122.9 187.1,132 181.7,131.1 181.6,122 178.9,121.5 			"/>
		</g>
		<g>
			<polygon class="st11" points="184.2,117.6 189.7,123.4 187,122.9 187.1,132 181.7,131.1 181.6,122 178.9,121.5 			"/>
		</g>
	</g>
	<g>
		<g>
			<polygon class="st14" points="184.3,149 178.9,143.2 181.6,143.7 181.5,134.6 186.9,135.6 187,144.6 189.7,145.1 			"/>
		</g>
		<g>
			<polygon class="st11" points="184.3,149 178.9,143.2 181.6,143.7 181.5,134.6 186.9,135.6 187,144.6 189.7,145.1 			"/>
		</g>
	</g>
	<g>
		<g>
			<g>
				<polygon class="st15" points="116.1,18.3 121,23.5 118.6,23 118.7,31.2 113.9,30.4 113.8,22.2 111.4,21.7 				"/>
			</g>
			<g>
				<polygon class="st11" points="116.1,18.3 121,23.5 118.6,23 118.7,31.2 113.9,30.4 113.8,22.2 111.4,21.7 				"/>
			</g>
		</g>
		<g>
			<g>
				<polygon class="st15" points="116.2,44.5 111.4,39.3 113.8,39.7 113.7,31.5 118.5,32.4 118.6,40.6 121,41 				"/>
			</g>
			<g>
				<polygon class="st11" points="116.2,44.5 111.4,39.3 113.8,39.7 113.7,31.5 118.5,32.4 118.6,40.6 121,41 				"/>
			</g>
		</g>
	</g>
	<g>
		<ellipse class="st2" cx="249.5" cy="90.8" rx="35.3" ry="32.1"/>
		<g>
			<g>
				<path d="M247.7,89.5c-0.3,0.2-0.6,0.3-1.1,0.1l-0.9-0.2l-0.1,1.9l-0.9-0.2l0.2-5.4l1.9,0.4c0.4,0.1,0.8,0.3,1,0.6
					c0.2,0.3,0.4,0.8,0.3,1.4C248.1,88.8,248,89.3,247.7,89.5z M247.1,87.4c-0.1-0.1-0.3-0.2-0.5-0.3l-0.8-0.2l0,1.6l0.8,0.2
					c0.2,0,0.4,0,0.5-0.1c0.1-0.1,0.2-0.3,0.2-0.6C247.2,87.7,247.2,87.5,247.1,87.4z"/>
				<path d="M248.9,86.7l0.9,0.2l-0.1,3.3c0,0.4,0,0.6,0.1,0.8c0.1,0.3,0.3,0.5,0.7,0.6c0.4,0.1,0.6,0,0.7-0.3
					c0.1-0.2,0.1-0.4,0.1-0.8l0.1-3.3l0.9,0.2l-0.1,3.3c0,0.6-0.1,1-0.3,1.3c-0.3,0.5-0.8,0.7-1.6,0.5c-0.8-0.2-1.3-0.6-1.5-1.2
					c-0.1-0.4-0.2-0.8-0.2-1.4L248.9,86.7z"/>
				<path d="M253.8,91.5c0,0.3,0.1,0.4,0.1,0.6c0.1,0.3,0.4,0.4,0.8,0.5c0.2,0,0.4,0.1,0.5,0c0.3-0.1,0.4-0.2,0.4-0.5
					c0-0.2-0.1-0.3-0.2-0.5c-0.1-0.1-0.3-0.3-0.6-0.4l-0.5-0.2c-0.5-0.2-0.8-0.4-0.9-0.6c-0.3-0.3-0.4-0.7-0.4-1.3
					c0-0.5,0.2-0.8,0.5-1.1c0.3-0.3,0.7-0.3,1.3-0.2c0.5,0.1,0.9,0.3,1.2,0.7s0.5,0.8,0.5,1.4l-0.9-0.2c0-0.3-0.1-0.6-0.3-0.8
					c-0.1-0.1-0.3-0.2-0.5-0.3c-0.2-0.1-0.4,0-0.6,0c-0.1,0.1-0.2,0.2-0.2,0.4c0,0.2,0.1,0.4,0.2,0.5c0.1,0.1,0.3,0.2,0.6,0.4
					l0.8,0.4c0.3,0.2,0.6,0.4,0.7,0.6c0.3,0.3,0.4,0.7,0.4,1.2c0,0.5-0.2,0.9-0.5,1.1s-0.8,0.3-1.3,0.2c-0.6-0.1-1-0.4-1.3-0.8
					c-0.3-0.4-0.5-0.9-0.5-1.4L253.8,91.5z"/>
				<path d="M257.1,93.9l0.2-5.4l0.9,0.2l-0.1,2.1l1.7,0.4l0.1-2.1l0.9,0.2l-0.2,5.4l-0.9-0.2l0.1-2.4l-1.7-0.4l-0.1,2.4L257.1,93.9
					z"/>
			</g>
			<g>
				<defs>
					<ellipse id="SVGID_3_" cx="249.6" cy="90.5" rx="34.7" ry="31.3"/>
				</defs>
				<clipPath id="SVGID_4_">
					<use xlink:href="#SVGID_3_"  style="overflow:visible;"/>
				</clipPath>
				<g class="st16">
					<g id="LINE_638_">
						<line class="st17" x1="241.7" y1="85" x2="241.7" y2="85.2"/>
					</g>
					<g id="LINE_637_">
						<line class="st17" x1="241.7" y1="85.5" x2="241.7" y2="86.4"/>
					</g>
					<g id="LINE_636_">
						<line class="st17" x1="241.7" y1="86.7" x2="241.7" y2="87.6"/>
					</g>
					<g id="LINE_635_">
						<line class="st17" x1="241.7" y1="87.9" x2="241.6" y2="88.9"/>
					</g>
					<g id="LINE_634_">
						<line class="st17" x1="241.6" y1="89.2" x2="241.6" y2="90.1"/>
					</g>
					<g id="LINE_633_">
						<line class="st17" x1="241.6" y1="90.4" x2="241.6" y2="91.3"/>
					</g>
					<g id="LINE_632_">
						<line class="st17" x1="241.6" y1="91.6" x2="241.5" y2="92.4"/>
					</g>
					<g id="LINE_631_">
						<line class="st17" x1="243.2" y1="81.5" x2="243.1" y2="82.5"/>
					</g>
					<g id="LINE_630_">
						<line class="st17" x1="241.8" y1="84.8" x2="241.7" y2="85"/>
					</g>
					<g id="LINE_629_">
						<line class="st17" x1="241.8" y1="84.4" x2="241.8" y2="84.8"/>
					</g>
					<g id="LINE_628_">
						<line class="st17" x1="241.8" y1="84.3" x2="241.8" y2="84.4"/>
					</g>
					<g id="LINE_627_">
						<line class="st17" x1="241.6" y1="91.5" x2="241.6" y2="91.6"/>
					</g>
					<g id="LINE_626_">
						<line class="st17" x1="264.2" y1="90.2" x2="264.2" y2="89.9"/>
					</g>
					<g id="LINE_625_">
						<line class="st17" x1="241.7" y1="91.4" x2="241.6" y2="91.5"/>
					</g>
					<g id="LINE_624_">
						<line class="st17" x1="241.6" y1="91.3" x2="241.6" y2="91.3"/>
					</g>
					<g id="LINE_623_">
						<line class="st17" x1="264.4" y1="90.3" x2="264.2" y2="90.4"/>
					</g>
					<g id="LINE_622_">
						<line class="st17" x1="264.3" y1="91.5" x2="264.2" y2="91.6"/>
					</g>
					<g id="LINE_621_">
						<line class="st17" x1="264.3" y1="92.7" x2="264.2" y2="92.9"/>
					</g>
					<g id="LINE_620_">
						<line class="st17" x1="264.3" y1="94" x2="264.2" y2="94.1"/>
					</g>
					<g id="LINE_619_">
						<line class="st17" x1="264.2" y1="95.2" x2="264.1" y2="95.3"/>
					</g>
					<g id="LINE_618_">
						<line class="st17" x1="241.6" y1="91.3" x2="241.7" y2="91.4"/>
					</g>
					<g id="LINE_568_">
						<line class="st17" x1="264.1" y1="95.1" x2="264.2" y2="95.2"/>
					</g>
					<g id="LINE_567_">
						<line class="st17" x1="264.2" y1="93.9" x2="264.3" y2="94"/>
					</g>
					<g id="LINE_564_">
						<line class="st17" x1="265.7" y1="89.4" x2="264.2" y2="89.9"/>
					</g>
					<g id="LINE_563_">
						<line class="st17" x1="264.2" y1="92.7" x2="264.3" y2="92.7"/>
					</g>
					<g id="LINE_562_">
						<line class="st17" x1="264.2" y1="91.4" x2="264.3" y2="91.5"/>
					</g>
					<g id="LINE_559_">
						<line class="st17" x1="264.2" y1="90.2" x2="264.4" y2="90.3"/>
					</g>
					<g id="LINE_557_">
						<line class="st17" x1="263.8" y1="95.4" x2="262.2" y2="95.1"/>
					</g>
					<g id="LINE_542_">
						<line class="st17" x1="243.3" y1="90.8" x2="241.7" y2="90.5"/>
					</g>
					<g id="LINE_537_">
						<line class="st17" x1="263.8" y1="95" x2="262.2" y2="94.7"/>
					</g>
					<g id="LINE_525_">
						<line class="st17" x1="243.3" y1="90.4" x2="241.7" y2="90.1"/>
					</g>
					<g id="LINE_524_">
						<line class="st17" x1="263.8" y1="94.2" x2="262.3" y2="93.8"/>
					</g>
					<g id="LINE_523_">
						<line class="st17" x1="243.3" y1="89.6" x2="241.7" y2="89.3"/>
					</g>
					<g id="LINE_522_">
						<line class="st17" x1="263.8" y1="93.8" x2="262.3" y2="93.4"/>
					</g>
					<g id="LINE_509_">
						<line class="st17" x1="243.3" y1="89.2" x2="241.7" y2="88.8"/>
					</g>
					<g id="LINE_475_">
						<line class="st17" x1="263.9" y1="93" x2="262.3" y2="92.6"/>
					</g>
					<g id="LINE_474_">
						<line class="st17" x1="243.3" y1="88.4" x2="241.8" y2="88"/>
					</g>
					<g id="LINE_393_">
						<line class="st17" x1="263.9" y1="92.5" x2="262.3" y2="92.2"/>
					</g>
					<g id="LINE_392_">
						<line class="st17" x1="243.3" y1="88" x2="241.8" y2="87.6"/>
					</g>
					<g id="LINE_387_">
						<line class="st17" x1="263.9" y1="91.7" x2="262.3" y2="91.4"/>
					</g>
					<g id="LINE_373_">
						<line class="st17" x1="243.3" y1="87.2" x2="241.8" y2="86.8"/>
					</g>
					<g id="LINE_372_">
						<line class="st17" x1="263.9" y1="91.3" x2="262.3" y2="91"/>
					</g>
					<g id="LINE_370_">
						<line class="st17" x1="243.3" y1="86.7" x2="241.8" y2="86.4"/>
					</g>
					<g id="LINE_359_">
						<line class="st17" x1="263.9" y1="90.5" x2="262.4" y2="90.2"/>
					</g>
					<g id="LINE_333_">
						<line class="st17" x1="243.4" y1="85.9" x2="241.8" y2="85.6"/>
					</g>
					<g id="LINE_327_">
						<line class="st17" x1="263.9" y1="90.1" x2="262.4" y2="89.7"/>
					</g>
					<g id="LINE_326_">
						<line class="st17" x1="243.4" y1="85.5" x2="241.8" y2="85.2"/>
					</g>
					<g id="LINE_325_">
						<line class="st17" x1="264.1" y1="89" x2="242" y2="84.1"/>
					</g>
					<g id="LINE_324_">
						<line class="st17" x1="263.4" y1="87.6" x2="242.6" y2="83"/>
					</g>
					<g id="LINE_315_">
						<line class="st17" x1="262" y1="86.4" x2="244.2" y2="82.5"/>
					</g>
					<g id="LINE_313_">
						<line class="st17" x1="263.8" y1="85.8" x2="245.4" y2="81.7"/>
					</g>
					<g id="ARC_22_">
						<path class="st17" d="M264.2,89.2c0,0.2,0.1,0.6,0.1,0.8l-0.2,6.3"/>
					</g>
					<g id="SPLINE_56_">
						<path class="st17" d="M263.5,87.6c-0.1-0.1-0.2-0.3-0.3-0.4l0,0c-0.1-0.1-0.2-0.2-0.4-0.3l0,0c-0.1-0.1-0.3-0.2-0.4-0.2l0,0
							c-0.2-0.1-0.3-0.1-0.4-0.2"/>
					</g>
					<g id="SPLINE_13_">
						<path class="st17" d="M264.1,89c0-0.2-0.1-0.4-0.2-0.6l0,0c-0.1-0.2-0.2-0.4-0.3-0.5"/>
					</g>
					<g id="ELLIPSE_49_">
						<path class="st17" d="M245.4,81.7c-0.4-0.1-1.1,0-1.4,0.2"/>
					</g>
					<g id="ELLIPSE_48_">
						<path class="st17" d="M265.9,87.9c-0.3-1.1-1.2-2-2.1-2.2"/>
					</g>
					<g id="ELLIPSE_47_">
						<path class="st17" d="M241.7,86.7c0,0,0,0.1,0.1,0.1"/>
					</g>
					<g id="ELLIPSE_26_">
						<path class="st17" d="M241.7,87.9c0,0.1,0,0.1,0.1,0.1"/>
					</g>
					<g id="ELLIPSE_25_">
						<path class="st17" d="M241.6,89.2c0,0,0,0.1,0.1,0.1"/>
					</g>
					<g id="ELLIPSE_24_">
						<path class="st17" d="M241.6,90.4c0,0,0,0.1,0.1,0.1"/>
					</g>
					<g id="ELLIPSE_23_">
						<path class="st17" d="M241.7,85.5c0,0,0,0.1,0.1,0.1"/>
					</g>
					<g id="ELLIPSE_22_">
						<path class="st17" d="M264.2,90.2c-0.1-0.1-0.2-0.1-0.3-0.1"/>
					</g>
					<g id="ELLIPSE_21_">
						<path class="st17" d="M241.8,85.2C241.8,85.2,241.7,85.2,241.8,85.2"/>
					</g>
					<g id="ELLIPSE_20_">
						<path class="st17" d="M263.9,90.5c0.1,0,0.2,0,0.3-0.1"/>
					</g>
					<g id="ELLIPSE_19_">
						<path class="st17" d="M264.2,91.4c-0.1-0.1-0.2-0.1-0.3-0.1"/>
					</g>
					<g id="ELLIPSE_18_">
						<path class="st17" d="M241.8,86.4C241.7,86.4,241.7,86.4,241.8,86.4"/>
					</g>
					<g id="ELLIPSE_17_">
						<path class="st17" d="M263.9,91.7c0.1,0,0.2,0,0.3-0.1"/>
					</g>
					<g id="ELLIPSE_16_">
						<path class="st17" d="M264.2,92.7c-0.1,0-0.2-0.1-0.3-0.1"/>
					</g>
					<g id="ELLIPSE_15_">
						<path class="st17" d="M241.8,87.6C241.7,87.6,241.7,87.6,241.8,87.6"/>
					</g>
					<g id="ELLIPSE_14_">
						<path class="st17" d="M263.9,93c0.1,0,0.2,0,0.3-0.1"/>
					</g>
					<g id="ELLIPSE_13_">
						<path class="st17" d="M264.2,93.9c-0.1,0-0.2-0.1-0.3-0.1"/>
					</g>
					<g id="ELLIPSE_12_">
						<path class="st17" d="M241.7,88.8c-0.1,0-0.1,0-0.1,0"/>
					</g>
					<g id="ELLIPSE_11_">
						<path class="st17" d="M263.8,94.2c0.1,0,0.2,0,0.3-0.1"/>
					</g>
					<g id="ELLIPSE_10_">
						<path class="st17" d="M264.1,95.1c-0.1,0-0.2-0.1-0.3-0.1"/>
					</g>
					<g id="ELLIPSE_9_">
						<path class="st17" d="M241.7,90.1C241.7,90.1,241.6,90.1,241.7,90.1"/>
					</g>
					<g id="ELLIPSE_8_">
						<path class="st17" d="M263.8,95.4c0.1,0,0.2,0,0.3-0.1"/>
					</g>
					<g id="LINE_312_">
						<path class="st17" d="M240.6,79.9"/>
						<path class="st17" d="M240.8,89.1"/>
					</g>
					<g id="LINE_311_">
						<line class="st17" x1="243.3" y1="90.8" x2="243.3" y2="90.4"/>
					</g>
					<g id="LINE_235_">
						<line class="st17" x1="243.3" y1="89.6" x2="243.3" y2="89.2"/>
					</g>
					<g id="LINE_210_">
						<line class="st17" x1="243.3" y1="88.4" x2="243.3" y2="88"/>
					</g>
					<g id="LINE_209_">
						<line class="st17" x1="243.3" y1="87.2" x2="243.3" y2="86.7"/>
					</g>
					<g id="LINE_208_">
						<line class="st17" x1="243.4" y1="85.9" x2="243.4" y2="85.5"/>
					</g>
					<g id="LINE_190_">
						<line class="st17" x1="262.2" y1="95.1" x2="262.2" y2="94.7"/>
					</g>
					<g id="LINE_188_">
						<line class="st17" x1="262.3" y1="93.8" x2="262.3" y2="93.4"/>
					</g>
					<g id="LINE_182_">
						<line class="st17" x1="262.3" y1="91.4" x2="262.3" y2="91"/>
					</g>
					<g id="LINE_181_">
						<line class="st17" x1="262.3" y1="92.6" x2="262.3" y2="92.2"/>
					</g>
					<g id="LINE_180_">
						<line class="st17" x1="262.4" y1="90.2" x2="262.4" y2="89.7"/>
					</g>
					<g id="LINE_177_">
						<line class="st17" x1="264" y1="96.6" x2="263.9" y2="97.6"/>
					</g>
					<g id="LINE_176_">
						<line class="st17" x1="264.9" y1="95.1" x2="264.5" y2="95.5"/>
					</g>
					<g id="LINE_165_">
						<line class="st17" x1="217.3" y1="118.6" x2="301.5" y2="136.7"/>
						<line class="st17" x1="209.3" y1="116.8" x2="217.3" y2="118.6"/>
						<line class="st17" x1="207.3" y1="116.4" x2="209.3" y2="116.8"/>
						<line class="st17" x1="205.9" y1="116.1" x2="207.3" y2="116.4"/>
						<line class="st17" x1="199.5" y1="114.8" x2="205.9" y2="116.1"/>
						<line class="st17" x1="197" y1="114.2" x2="199.5" y2="114.8"/>
						<line class="st17" x1="194.8" y1="113.7" x2="197" y2="114.2"/>
						<line class="st17" x1="191.6" y1="113.1" x2="194.8" y2="113.7"/>
					</g>
					<g id="LINE_164_">
						<path class="st17" d="M262,86.4l-17.8-4c0,0-1.7-0.6-2.4,1.8l-0.4,8.7"/>
					</g>
					<g id="LINE_163_">
						<line class="st17" x1="268.1" y1="83.7" x2="292.5" y2="89.4"/>
					</g>
					<g id="ARC_21_">
						<path class="st17" d="M268.1,83.7C268.1,83.7,268.1,83.7,268.1,83.7"/>
					</g>
					<g id="ELLIPSE_7_">
						<path class="st17" d="M264.5,95.5c-0.3,0.2-0.5,0.7-0.5,1.1"/>
					</g>
					<g id="LINE_98_">
						<line class="st17" x1="266" y1="86.8" x2="265.2" y2="86.6"/>
					</g>
					<g id="LINE_94_">
						<line class="st17" x1="244" y1="81.9" x2="243.1" y2="81.7"/>
					</g>
				</g>
				<line class="st18" x1="211.9" y1="63.3" x2="299.9" y2="82.6"/>
				<path class="st18" d="M299.8,91.1l-32.1-7.4c0,0-1.6-0.7-1.8,3c-0.2,3.7-0.9,8.1-0.9,8.1l-0.7,0.9c0,0-0.4,1.3-0.4,2.2l-24-5.3
					c0,0-0.8-1.2,0.4-2.6l0.5-1.1c0,0-0.1-7.3-0.4-9.4c-0.3-2.1-2.4-2.6-2.4-2.6l-46-9.8l21.6-4.4l31.3,6.8v0.6"/>
				<line class="st18" x1="188.7" y1="80.9" x2="239.8" y2="92.6"/>
				<line class="st18" x1="300" y1="104.7" x2="264.1" y2="96.8"/>
				<line class="st18" x1="241.8" y1="91.6" x2="263.8" y2="96.4"/>
				<polyline class="st18" points="269,84 270.6,83.1 244.2,77.5 244.2,79.5 266.2,84.4 				"/>
				<polyline class="st18" points="238.9,77.3 241.3,78.1 244.1,77.4 				"/>
				<line class="st18" x1="247.6" y1="80.4" x2="243.3" y2="81.7"/>
				<line class="st18" x1="191.9" y1="113.2" x2="300" y2="136.4"/>
				<g class="st16">
					<polygon class="st19" points="250.3,90.1 237.6,93 241.6,94.1 232.3,103.4 240,105.5 249.3,96.1 253.2,97.1 					"/>
				</g>
			</g>
			<ellipse class="st20" cx="249.6" cy="90.5" rx="34.7" ry="31.3"/>
		</g>
	</g>
	<g>
		<line class="st21" x1="234.7" y1="106.8" x2="202.1" y2="135.8"/>
		<line class="st22" x1="234.7" y1="106.8" x2="202.1" y2="135.8"/>
	</g>
	<g>
		<line class="st21" x1="128.5" y1="73.9" x2="175.7" y2="105.8"/>
		<line class="st22" x1="128.5" y1="73.9" x2="175.7" y2="105.8"/>
	</g>
</g>
</svg>
