<?xml version="1.0" encoding="utf-8"?>
<!-- Generator: Adobe Illustrator 26.0.3, SVG Export Plug-In . SVG Version: 6.00 Build 0)  -->
<svg version="1.1" id="Layer_1" xmlns="http://www.w3.org/2000/svg" xmlns:xlink="http://www.w3.org/1999/xlink" x="0px" y="0px"
	 viewBox="0 0 288 169.9" style="enable-background:new 0 0 288 169.9;" xml:space="preserve">
<style type="text/css">
	.st0{fill:#FFFFFF;}
	.st1{fill:none;stroke:#000000;stroke-width:0.5;stroke-linecap:round;stroke-linejoin:round;}
	.st2{fill:#D1D3D4;stroke:#000000;stroke-width:0.5;stroke-miterlimit:10;}
	.st3{fill:#FFFFFF;stroke:#000000;stroke-width:0.5;stroke-miterlimit:10;}
	
		.st4{fill:none;stroke:#000000;stroke-width:0.5;stroke-linecap:round;stroke-linejoin:round;stroke-miterlimit:10;stroke-dasharray:1.1995,1.1995;}
	.st5{fill:none;stroke:#6D6E71;stroke-width:0.5;stroke-linecap:round;stroke-linejoin:round;}
	.st6{fill:none;stroke:#58595B;stroke-width:0.5;stroke-linecap:round;stroke-linejoin:round;}
	.st7{fill:#F1F2F2;}
	.st8{fill:none;stroke:#6D6E71;stroke-width:0.5;stroke-miterlimit:10;}
	.st9{clip-path:url(#SVGID_00000093857887370851936770000000165181328531157167_);fill:#D1D3D4;}
	.st10{clip-path:url(#SVGID_00000093857887370851936770000000165181328531157167_);fill:#FFFFFF;}
	
		.st11{clip-path:url(#SVGID_00000093857887370851936770000000165181328531157167_);fill:none;stroke:#000000;stroke-width:0.5;stroke-linecap:round;stroke-linejoin:round;}
	.st12{clip-path:url(#SVGID_00000093857887370851936770000000165181328531157167_);fill:#F1F2F2;}
	.st13{fill:none;stroke:#000000;stroke-width:0.5;stroke-dasharray:0.75,1;}
	.st14{fill:#D1D3D4;}
	.st15{fill:none;stroke:#F1F2F2;stroke-width:0.5;}
</style>
<g>
	<g>
		<g>
			<path d="M132,149.6h1.1v2.7h3.1v-2.7h1.1v6.4h-1.1v-2.7h-3.1v2.7H132V149.6z"/>
			<path d="M138.5,154.6L138.5,154.6c0-1.1,0.8-1.6,2-1.6c0.5,0,0.9,0.1,1.3,0.2v-0.1c0-0.7-0.4-1.1-1.2-1.1c-0.5,0-0.9,0.1-1.4,0.3
				l-0.3-0.9c0.5-0.2,1.1-0.4,1.8-0.4c0.7,0,1.3,0.2,1.6,0.5c0.4,0.3,0.5,0.9,0.5,1.5v2.9h-1.1v-0.6c-0.3,0.4-0.8,0.7-1.6,0.7
				C139.3,156.1,138.5,155.6,138.5,154.6z M141.8,154.2v-0.3c-0.3-0.1-0.7-0.2-1.1-0.2c-0.7,0-1.1,0.3-1.1,0.8v0
				c0,0.5,0.4,0.7,0.9,0.7C141.3,155.3,141.8,154.8,141.8,154.2z"/>
			<path d="M144.2,151.1h1.1v0.7c0.3-0.4,0.8-0.8,1.5-0.8c1.1,0,1.7,0.7,1.7,1.8v3.1h-1.1v-2.7c0-0.8-0.4-1.2-1-1.2
				c-0.6,0-1.1,0.4-1.1,1.2v2.7h-1.1V151.1z"/>
			<path d="M149.6,153.6L149.6,153.6c0-1.6,1.1-2.5,2.2-2.5c0.8,0,1.3,0.4,1.6,0.9v-2.6h1.1v6.7h-1.1v-0.8c-0.4,0.5-0.9,0.9-1.6,0.9
				C150.7,156.1,149.6,155.2,149.6,153.6z M153.5,153.6L153.5,153.6c0-1-0.7-1.6-1.4-1.6c-0.8,0-1.4,0.6-1.4,1.5v0
				c0,0.9,0.6,1.5,1.4,1.5C152.9,155.1,153.5,154.5,153.5,153.6z"/>
			<path d="M156.1,149.3h1.1v6.7h-1.1V149.3z"/>
			<path d="M158.4,153.6L158.4,153.6c0-1.4,1-2.5,2.4-2.5c1.5,0,2.3,1.2,2.3,2.6c0,0.1,0,0.2,0,0.3h-3.6c0.1,0.8,0.7,1.2,1.4,1.2
				c0.5,0,0.9-0.2,1.3-0.6l0.7,0.6c-0.5,0.5-1.1,0.9-2,0.9C159.5,156.1,158.4,155.1,158.4,153.6z M162,153.2
				c-0.1-0.7-0.5-1.3-1.2-1.3c-0.7,0-1.2,0.5-1.3,1.3H162z"/>
			<path d="M163.8,155.3l0.5-0.8c0.5,0.4,1.1,0.6,1.6,0.6c0.5,0,0.8-0.2,0.8-0.5v0c0-0.4-0.5-0.5-1.1-0.7c-0.7-0.2-1.5-0.5-1.5-1.4
				v0c0-0.9,0.8-1.5,1.7-1.5c0.6,0,1.3,0.2,1.8,0.5l-0.4,0.8c-0.5-0.3-1-0.5-1.4-0.5c-0.4,0-0.7,0.2-0.7,0.5v0
				c0,0.4,0.5,0.5,1.1,0.7c0.7,0.2,1.5,0.5,1.5,1.4v0c0,1-0.8,1.5-1.8,1.5C165.1,156.1,164.4,155.8,163.8,155.3z"/>
			<path d="M171.2,154.6L171.2,154.6c0-1.1,0.8-1.6,2-1.6c0.5,0,0.9,0.1,1.3,0.2v-0.1c0-0.7-0.4-1.1-1.2-1.1c-0.5,0-0.9,0.1-1.4,0.3
				l-0.3-0.9c0.5-0.2,1.1-0.4,1.8-0.4c0.7,0,1.3,0.2,1.6,0.5c0.4,0.3,0.5,0.9,0.5,1.5v2.9h-1.1v-0.6c-0.3,0.4-0.8,0.7-1.6,0.7
				C172,156.1,171.2,155.6,171.2,154.6z M174.5,154.2v-0.3c-0.3-0.1-0.7-0.2-1.1-0.2c-0.7,0-1.1,0.3-1.1,0.8v0
				c0,0.5,0.4,0.7,0.9,0.7C174,155.3,174.5,154.8,174.5,154.2z"/>
			<path d="M176.9,151.1h1.1v0.7c0.3-0.4,0.8-0.8,1.5-0.8c1.1,0,1.7,0.7,1.7,1.8v3.1h-1.1v-2.7c0-0.8-0.4-1.2-1-1.2
				c-0.6,0-1.1,0.4-1.1,1.2v2.7h-1.1V151.1z"/>
			<path d="M182.3,153.6L182.3,153.6c0-1.6,1.1-2.5,2.2-2.5c0.8,0,1.3,0.4,1.6,0.9v-2.6h1.1v6.7h-1.1v-0.8c-0.4,0.5-0.9,0.9-1.6,0.9
				C183.4,156.1,182.3,155.2,182.3,153.6z M186.2,153.6L186.2,153.6c0-1-0.7-1.6-1.4-1.6c-0.8,0-1.4,0.6-1.4,1.5v0
				c0,0.9,0.6,1.5,1.4,1.5C185.6,155.1,186.2,154.5,186.2,153.6z"/>
			<path d="M191.2,153.6L191.2,153.6c0-1.4,1.1-2.5,2.5-2.5c0.9,0,1.5,0.3,1.9,0.8l-0.7,0.7c-0.3-0.3-0.7-0.6-1.2-0.6
				c-0.8,0-1.4,0.7-1.4,1.5v0c0,0.9,0.6,1.5,1.4,1.5c0.5,0,0.9-0.2,1.3-0.6l0.7,0.7c-0.5,0.5-1,0.9-2,0.9
				C192.3,156.1,191.2,155,191.2,153.6z"/>
			<path d="M196.4,154.6L196.4,154.6c0-1.1,0.8-1.6,2-1.6c0.5,0,0.9,0.1,1.3,0.2v-0.1c0-0.7-0.4-1.1-1.2-1.1c-0.5,0-0.9,0.1-1.4,0.3
				l-0.3-0.9c0.5-0.2,1.1-0.4,1.8-0.4c0.7,0,1.3,0.2,1.6,0.5c0.4,0.3,0.5,0.9,0.5,1.5v2.9h-1.1v-0.6c-0.3,0.4-0.8,0.7-1.6,0.7
				C197.2,156.1,196.4,155.6,196.4,154.6z M199.7,154.2v-0.3c-0.3-0.1-0.7-0.2-1.1-0.2c-0.7,0-1.1,0.3-1.1,0.8v0
				c0,0.5,0.4,0.7,0.9,0.7C199.1,155.3,199.7,154.8,199.7,154.2z"/>
			<path d="M203.2,155.2v0.8h-1.1v-6.7h1.1v2.7c0.4-0.5,0.9-0.9,1.6-0.9c1.1,0,2.2,0.9,2.2,2.5v0c0,1.6-1.1,2.5-2.2,2.5
				C204,156.1,203.5,155.7,203.2,155.2z M206,153.6L206,153.6c0-1-0.6-1.6-1.4-1.6c-0.8,0-1.4,0.6-1.4,1.5v0c0,0.9,0.7,1.5,1.4,1.5
				C205.3,155.1,206,154.5,206,153.6z"/>
			<path d="M208.3,149.3h1.1v6.7h-1.1V149.3z"/>
			<path d="M210.6,153.6L210.6,153.6c0-1.4,1-2.5,2.4-2.5c1.5,0,2.3,1.2,2.3,2.6c0,0.1,0,0.2,0,0.3h-3.6c0.1,0.8,0.7,1.2,1.4,1.2
				c0.5,0,0.9-0.2,1.3-0.6l0.7,0.6c-0.5,0.5-1.1,0.9-2,0.9C211.7,156.1,210.6,155.1,210.6,153.6z M214.2,153.2
				c-0.1-0.7-0.5-1.3-1.2-1.3c-0.7,0-1.2,0.5-1.3,1.3H214.2z"/>
			<path d="M131.8,161.1h1.1v0.7c0.3-0.4,0.7-0.8,1.5-0.8c0.7,0,1.2,0.3,1.4,0.9c0.4-0.5,0.9-0.9,1.6-0.9c1.1,0,1.7,0.7,1.7,1.8v3.1
				h-1.1v-2.7c0-0.8-0.4-1.2-1-1.2c-0.6,0-1,0.4-1,1.2v2.7H135v-2.8c0-0.8-0.4-1.2-1-1.2c-0.6,0-1,0.5-1,1.2v2.7h-1.1V161.1z"/>
			<path d="M140.2,164.6L140.2,164.6c0-1.1,0.8-1.6,2-1.6c0.5,0,0.9,0.1,1.3,0.2v-0.1c0-0.7-0.4-1.1-1.2-1.1c-0.5,0-0.9,0.1-1.4,0.3
				l-0.3-0.9c0.5-0.2,1.1-0.4,1.8-0.4c0.7,0,1.3,0.2,1.6,0.5c0.4,0.3,0.5,0.9,0.5,1.5v2.9h-1.1v-0.6c-0.3,0.4-0.8,0.7-1.6,0.7
				C141,166.1,140.2,165.6,140.2,164.6z M143.5,164.2v-0.3c-0.3-0.1-0.7-0.2-1.1-0.2c-0.7,0-1.1,0.3-1.1,0.8v0
				c0,0.5,0.4,0.7,0.9,0.7C143,165.3,143.5,164.8,143.5,164.2z"/>
			<path d="M145.9,161.1h1.1v0.7c0.3-0.4,0.8-0.8,1.5-0.8c1.1,0,1.7,0.7,1.7,1.8v3.1h-1.1v-2.7c0-0.8-0.4-1.2-1-1.2
				c-0.6,0-1.1,0.4-1.1,1.2v2.7h-1.1V161.1z"/>
			<path d="M151.3,164.6L151.3,164.6c0-1.1,0.8-1.6,2-1.6c0.5,0,0.9,0.1,1.3,0.2v-0.1c0-0.7-0.4-1.1-1.2-1.1c-0.5,0-0.9,0.1-1.4,0.3
				l-0.3-0.9c0.5-0.2,1.1-0.4,1.8-0.4c0.7,0,1.3,0.2,1.6,0.5c0.4,0.3,0.5,0.9,0.5,1.5v2.9h-1.1v-0.6c-0.3,0.4-0.8,0.7-1.6,0.7
				C152.1,166.1,151.3,165.6,151.3,164.6z M154.6,164.2v-0.3c-0.3-0.1-0.7-0.2-1.1-0.2c-0.7,0-1.1,0.3-1.1,0.8v0
				c0,0.5,0.4,0.7,0.9,0.7C154,165.3,154.6,164.8,154.6,164.2z"/>
			<path d="M157,166.9l0.4-0.8c0.5,0.3,1.1,0.5,1.7,0.5c1,0,1.5-0.5,1.5-1.5v-0.4c-0.4,0.5-0.9,0.9-1.7,0.9c-1.1,0-2.2-0.8-2.2-2.3
				v0c0-1.4,1.1-2.3,2.2-2.3c0.8,0,1.3,0.4,1.7,0.8v-0.7h1.1v3.8c0,0.8-0.2,1.4-0.6,1.8c-0.4,0.4-1.1,0.7-2,0.7
				C158.3,167.5,157.6,167.3,157,166.9z M160.6,163.3L160.6,163.3c0-0.8-0.6-1.3-1.4-1.3s-1.4,0.5-1.4,1.3v0c0,0.8,0.6,1.3,1.4,1.3
				C160,164.6,160.6,164.1,160.6,163.3z"/>
			<path d="M162.9,163.6L162.9,163.6c0-1.4,1-2.5,2.4-2.5c1.5,0,2.3,1.2,2.3,2.6c0,0.1,0,0.2,0,0.3H164c0.1,0.8,0.7,1.2,1.4,1.2
				c0.5,0,0.9-0.2,1.3-0.6l0.6,0.6c-0.5,0.5-1.1,0.9-2,0.9C163.9,166.1,162.9,165.1,162.9,163.6z M166.4,163.2
				c-0.1-0.7-0.5-1.3-1.2-1.3c-0.7,0-1.2,0.5-1.3,1.3H166.4z"/>
			<path d="M168.7,161.1h1.1v0.7c0.3-0.4,0.7-0.8,1.5-0.8c0.7,0,1.2,0.3,1.4,0.9c0.4-0.5,0.9-0.9,1.6-0.9c1.1,0,1.7,0.7,1.7,1.8v3.1
				h-1.1v-2.7c0-0.8-0.4-1.2-1-1.2c-0.6,0-1,0.4-1,1.2v2.7h-1.1v-2.8c0-0.8-0.4-1.2-1-1.2c-0.6,0-1,0.5-1,1.2v2.7h-1.1V161.1z"/>
			<path d="M177.1,163.6L177.1,163.6c0-1.4,1-2.5,2.4-2.5c1.5,0,2.3,1.2,2.3,2.6c0,0.1,0,0.2,0,0.3h-3.6c0.1,0.8,0.7,1.2,1.4,1.2
				c0.5,0,0.9-0.2,1.3-0.6l0.7,0.6c-0.5,0.5-1.1,0.9-2,0.9C178.2,166.1,177.1,165.1,177.1,163.6z M180.7,163.2
				c-0.1-0.7-0.5-1.3-1.2-1.3c-0.7,0-1.2,0.5-1.3,1.3H180.7z"/>
			<path d="M182.9,161.1h1.1v0.7c0.3-0.4,0.8-0.8,1.5-0.8c1.1,0,1.7,0.7,1.7,1.8v3.1h-1.1v-2.7c0-0.8-0.4-1.2-1-1.2
				c-0.6,0-1.1,0.4-1.1,1.2v2.7h-1.1V161.1z"/>
			<path d="M188.8,164.6v-2.5h-0.6v-1h0.6v-1.3h1.1v1.3h1.3v1h-1.3v2.4c0,0.4,0.2,0.6,0.6,0.6c0.2,0,0.5-0.1,0.7-0.2v0.9
				c-0.3,0.2-0.6,0.2-1,0.2C189.4,166.1,188.8,165.7,188.8,164.6z"/>
			<path d="M194.8,163.6L194.8,163.6c0-1.6,1.1-2.5,2.2-2.5c0.8,0,1.3,0.4,1.6,0.9v-2.6h1.1v6.7h-1.1v-0.8c-0.4,0.5-0.9,0.9-1.6,0.9
				C196,166.1,194.8,165.2,194.8,163.6z M198.8,163.6L198.8,163.6c0-1-0.7-1.6-1.4-1.6c-0.8,0-1.4,0.6-1.4,1.5v0
				c0,0.9,0.6,1.5,1.4,1.5C198.1,165.1,198.8,164.5,198.8,163.6z"/>
			<path d="M201,163.6L201,163.6c0-1.4,1-2.5,2.4-2.5c1.5,0,2.3,1.2,2.3,2.6c0,0.1,0,0.2,0,0.3h-3.6c0.1,0.8,0.7,1.2,1.4,1.2
				c0.5,0,0.9-0.2,1.3-0.6l0.6,0.6c-0.5,0.5-1.1,0.9-2,0.9C202.1,166.1,201,165.1,201,163.6z M204.6,163.2c-0.1-0.7-0.5-1.3-1.2-1.3
				c-0.7,0-1.2,0.5-1.3,1.3H204.6z"/>
			<path d="M206.1,161.1h1.2l1.3,3.6l1.3-3.6h1.2l-2,4.9h-1L206.1,161.1z"/>
			<path d="M212,159.3h1.2v1.1H212V159.3z M212,161.1h1.1v4.8H212V161.1z"/>
			<path d="M214.3,163.6L214.3,163.6c0-1.4,1.1-2.5,2.5-2.5c0.9,0,1.5,0.3,1.9,0.8l-0.7,0.7c-0.3-0.3-0.7-0.6-1.2-0.6
				c-0.8,0-1.4,0.7-1.4,1.5v0c0,0.9,0.6,1.5,1.4,1.5c0.5,0,0.9-0.2,1.3-0.6l0.7,0.7c-0.5,0.5-1,0.9-2,0.9
				C215.4,166.1,214.3,165,214.3,163.6z"/>
			<path d="M219.4,163.6L219.4,163.6c0-1.4,1-2.5,2.4-2.5c1.5,0,2.3,1.2,2.3,2.6c0,0.1,0,0.2,0,0.3h-3.6c0.1,0.8,0.7,1.2,1.4,1.2
				c0.5,0,0.9-0.2,1.3-0.6l0.7,0.6c-0.5,0.5-1.1,0.9-2,0.9C220.5,166.1,219.4,165.1,219.4,163.6z M223,163.2
				c-0.1-0.7-0.5-1.3-1.2-1.3c-0.7,0-1.2,0.5-1.3,1.3H223z"/>
		</g>
	</g>
	<g>
		<polygon class="st0" points="39,41.8 116.3,86.6 116.3,147.2 38.8,102.3 		"/>
		<polygon class="st0" points="203,36.8 203.1,63.6 203.2,92.5 118.8,145.6 116.3,86.4 		"/>
		<polygon class="st0" points="39.4,41.9 125.1,1.3 203,36.6 115.5,86.4 		"/>
		<polyline class="st1" points="124.8,1.3 203,36.4 203,63.8 		"/>
		<line class="st1" x1="202.9" y1="36.4" x2="116" y2="86.5"/>
		<line class="st1" x1="191" y1="100" x2="116" y2="146.8"/>
		<line class="st1" x1="38.9" y1="42" x2="124.8" y2="1.3"/>
		<path class="st0" d="M117.9,96.9c0,0.2-0.3,0.3-0.7,0.1c-0.4-0.2-0.7-0.6-0.7-0.8c0-0.2,0.3-0.3,0.7-0.1
			C117.6,96.3,117.9,96.6,117.9,96.9"/>
		<path class="st0" d="M117.9,112.3c0,0.2-0.3,0.3-0.7,0.1c-0.4-0.2-0.7-0.6-0.7-0.8c0-0.2,0.3-0.3,0.7,0
			C117.6,111.7,117.9,112.1,117.9,112.3"/>
		<path class="st0" d="M117.9,127.8c0,0.2-0.3,0.3-0.7,0.1c-0.4-0.2-0.7-0.6-0.7-0.8c0-0.2,0.3-0.3,0.7-0.1
			C117.6,127.1,117.9,127.5,117.9,127.8"/>
		<path class="st0" d="M117.9,143.2c0,0.2-0.3,0.3-0.7,0.1c-0.4-0.2-0.7-0.6-0.7-0.8c0-0.2,0.3-0.3,0.7-0.1
			C117.6,142.6,117.9,142.9,117.9,143.2"/>
		<line class="st1" x1="113.1" y1="145.1" x2="113.1" y2="85"/>
		<polygon class="st1" points="38.9,42 116,86.5 116,146.8 38.9,102.2 		"/>
		<line class="st1" x1="41.6" y1="47.2" x2="52.4" y2="53.5"/>
		<line class="st1" x1="53.9" y1="54.5" x2="88.2" y2="74.1"/>
		<line class="st1" x1="91.2" y1="75.8" x2="112.9" y2="88.3"/>
		<line class="st1" x1="53.9" y1="107.7" x2="88.3" y2="127.4"/>
		<line class="st1" x1="91.3" y1="128.9" x2="113" y2="141.5"/>
		<line class="st1" x1="41.7" y1="43.7" x2="41.7" y2="103.9"/>
		<line class="st1" x1="52.4" y1="110.1" x2="52.4" y2="50"/>
		<line class="st1" x1="53.9" y1="110.9" x2="53.9" y2="50.6"/>
		<line class="st1" x1="88.3" y1="130.8" x2="88.3" y2="70.8"/>
		<line class="st1" x1="91.2" y1="72.3" x2="91.2" y2="132.5"/>
		<path class="st0" d="M114.9,105.6c0.1,0.1,0.3,0.3,0.3,0.5"/>
		<path class="st0" d="M114.9,136.8c0.1,0.1,0.3,0.3,0.3,0.5"/>
		<line class="st1" x1="41.5" y1="100.8" x2="52.5" y2="107.2"/>
		<g>
			<path class="st2" d="M1.1,59.9l0-2.4c0.1-1.3,2.5-2.1,2.5-2.1l10.1-3.1c0.9,0,1.8,2,1.8,2l0.1,4.4c0.9,0.9,1.7,0.3,1.7,0.3
				l7.1-2.2c2.2,0,2.9,2.9,2.9,2.9s0.6,38.6,0.8,43.1s-2.5,6-2.5,6l-7.4,2.4c-2.5,0.9-1.5,3.2-1.3,5.3s-1.7,3.3-1.7,3.3l-11.9,3.7
				l-1.3-1.3l0-1.6c0,0,1.1-0.5,1.3,0.7l0.4,0.1l8.9-2.9c0,0,0.8-0.3,0.8-1.8s-1.2-1.5-1.2-1.5l-9,2.7l-0.2,1.1c0,0-0.2,0.8-1.1,0.6
				l-0.1-4.6c0,0,0.9-0.5,1.1,0.1c0.3,0.5-0.1,0.8,0.8,0.7c0.9-0.1,9.8-3,9.8-3s0.7-0.2,0.7-1.1c0-0.9,0-1.4,0-1.4s0.1-0.8-1.1-0.6
				c-1.2,0.2-9.4,2.7-9.4,2.7s-0.7,0.3-0.8,0.8c-0.1,0.5,0,1.2-0.5,1.2s-0.6-0.1-0.6-0.1l-0.1-4.8c0,0,0-0.2,0.6-0.2
				c0,0,0.4-0.1,0.5,0.3l0.1,0.8c0,0-0.3,0.1,0.6-0.1c0.9-0.2,10.9-3.4,10.9-3.4s0.9-0.6,0.9-1.5s0-1.1,0-1.1s-0.3-0.9-1.4-0.6
				c-1.1,0.2-11.1,3.4-11.1,3.4s-0.4,0.2-0.5,0.7s0,1-0.3,1.1c-0.3,0.1-0.4-0.1-0.4-0.1l-0.1-4.6c0,0,0-0.3,0.5-0.2s0.5,0.2,0.5,0.6
				c0,0.4,0.2,0.4,0.9,0.4c0.7-0.1,10.8-3.6,10.8-3.6s0.9-0.4,0.9-1.2c0-0.8,0-1.2,0-1.2s-0.4-0.9-1.2-0.8c-0.8,0.1-11,3.6-11,3.6
				s-0.4,0.1-0.4,0.6c0.1,0.5,0,1.1-0.4,1.1c0,0-0.6,0.2-0.6-0.3l0-4.6c0,0,0.4-0.4,1,0c0,0,0.2,0,0.2,0.7c0,0.7,1.5,0,1.5,0
				L14.3,96c0,0,0.8-0.2,0.8-1.1c0-0.9,0-1.4,0-1.4s-0.1-0.9-1.2-0.6S3.3,96,3.3,96s-0.6,0.1-0.6,0.4c0,0.3,0,1.2-0.1,1.3
				c-0.1,0.1-0.9,0.3-1-0.2L1.4,82.9c0,0,0-0.7,0.5-0.7s0.6,0.5,0.6,0.5s0.1,0.7,0.7,0.6s10.9-3.7,10.9-3.7s0.8-0.2,0.8-1
				c0-0.8-0.1-1.7-0.1-1.7s-0.4-0.6-1.1-0.4C13,76.8,3.5,79.7,3.5,79.7S2.4,80,2.3,80.3c-0.1,0.3,0,1.1-0.3,1.2s-0.7,0.2-0.7-0.5
				l0-3.4c0,0,0-0.5,0.4-0.6s0.8,0,0.8,0.6c0.1,0.6,1,0,1,0l10.4-3.3c0,0,0.7-0.2,0.7-0.8c0-0.6,0-1.9,0-1.9s0-1-0.9-0.7
				c-0.9,0.3-11,3.4-11,3.4s-0.5,0.1-0.5,0.5c0,0.4,0.1,1-0.4,1.2s-0.5-0.1-0.5-0.1l0-4.1c0,0,0-0.7,0.5-0.6s0.6,0.6,0.6,0.6
				S2.3,72.1,3.1,72s10.6-3.2,10.6-3.2s1-0.2,1-1.1S14.6,66,14.6,66s-0.2-0.6-1.2-0.3C12.5,66,2.6,69,2.6,69s-0.4,0.2-0.4,0.5
				c0,0.3,0,0.8-0.3,0.9c-0.6,0.2-0.7-0.5-0.7-0.5l0-3.6c0,0,0.1-0.4,0.5-0.3c0,0,0.4-0.1,0.4,0.5s1.3,0.1,1.3,0.1l9.5-3.2
				c0,0,0.9-0.1,0.9-0.9c0-0.8-0.2-1.8-0.2-1.8s-0.3-0.7-1.2-0.4c-0.9,0.2-9.7,2.8-9.7,2.8s-0.7,0.2-0.7,0.4s0,0.9,0,0.9
				s0,0.4-0.5,0.5s-0.5-0.3-0.5-0.3l0-3.8c0,0,0.1-0.5,0.6-0.4s0.4,0.6,0.4,0.6S2,61.5,2.7,61.3c0.7-0.1,9.5-2.8,9.5-2.8
				s0.7-0.2,0.6-0.9c0-0.8-0.2-1.7-0.2-1.7s-0.2-0.8-1.2-0.5c-0.9,0.2-8.8,2.3-8.8,2.3S2.1,58,2.1,58.2c0,0.2,0.1,0.8,0,1
				S2.2,59.9,1.1,59.9z"/>
			<path class="st3" d="M4.2,86.4c0,0,0-1,1.3-1.5s2.2-0.6,2.2-0.6s0.8,0.3,0.8,1.5c0,1.2,0,5.5,0,5.5s-0.1,1.2-1.7,1.6
				c-1.5,0.3-2.4,0.2-2.5-0.3C4.3,92.1,4.2,86.4,4.2,86.4z"/>
			<path class="st3" d="M20.8,102.6l1.1,0c0.1,0,0.2-0.1,0.2-0.3l-0.1-3c0-0.1-0.1-0.2-0.3-0.2l-1.1,0c-0.1,0-0.2,0.1-0.2,0.3l0.1,3
				C20.6,102.5,20.7,102.6,20.8,102.6z"/>
			<path class="st3" d="M20.5,91.4l1.1,0c0.1,0,0.2-0.1,0.2-0.3l-0.1-3c0-0.1-0.1-0.2-0.3-0.2l-1.1,0c-0.1,0-0.2,0.1-0.2,0.3l0.1,3
				C20.2,91.3,20.3,91.4,20.5,91.4z"/>
			<path class="st3" d="M20.1,80.3l1.1,0c0.1,0,0.2-0.1,0.2-0.3l-0.1-3c0-0.1-0.1-0.2-0.3-0.2l-1.1,0c-0.1,0-0.2,0.1-0.2,0.3l0.1,3
				C19.8,80.2,20,80.3,20.1,80.3z"/>
			<path class="st3" d="M19.7,68.4l1.1,0c0.1,0,0.2-0.1,0.2-0.3l-0.1-3c0-0.1-0.1-0.2-0.3-0.2l-1.1,0c-0.1,0-0.2,0.1-0.2,0.3l0.1,3
				C19.5,68.3,19.6,68.4,19.7,68.4z"/>
		</g>
		<g>
			<path class="st2" d="M72.4,104.8l0-2.4c0.2-1.3,2.5-2.1,2.5-2.1l10.2-3c0.9,0,1.7,2,1.7,2l0.1,4.4c0.9,0.9,1.7,0.3,1.7,0.3
				l7.2-2.1c2.2,0,2.9,3,2.9,3s0.3,38.6,0.4,43.2s-2.6,6-2.6,6l-7.4,2.3c-2.5,0.9-1.5,3.2-1.3,5.3c0.2,2.1-1.7,3.3-1.7,3.3L74,168.4
				l-1.3-1.3l0-1.6c0,0,1.1-0.5,1.3,0.7l0.4,0.1l8.9-2.8c0,0,0.8-0.3,0.8-1.8s-1.1-1.6-1.1-1.6l-9,2.7l-0.2,1.1c0,0-0.2,0.8-1.1,0.6
				l0-4.6c0,0,0.9-0.5,1.1,0.1s-0.1,0.8,0.8,0.7c0.9-0.1,9.8-2.9,9.8-2.9s0.7-0.2,0.7-1.1c0-0.9,0-1.4,0-1.4s0.1-0.8-1.1-0.6
				c-1.2,0.2-9.4,2.6-9.4,2.6s-0.7,0.3-0.8,0.8c-0.1,0.5,0,1.2-0.5,1.2c-0.4,0-0.6-0.1-0.6-0.1l0-4.8c0,0,0-0.2,0.6-0.2
				c0,0,0.4-0.1,0.5,0.3l0.1,0.8c0,0-0.3,0.1,0.6-0.1c0.9-0.2,10.9-3.4,10.9-3.4s0.9-0.6,0.9-1.5c0-0.9,0-1.1,0-1.1
				s-0.3-0.9-1.4-0.6S73.8,152,73.8,152s-0.4,0.2-0.5,0.7c0,0.5,0,1-0.3,1.1c-0.3,0.1-0.4-0.1-0.4-0.1l0-4.6c0,0,0-0.3,0.5-0.2
				c0.4,0.1,0.5,0.2,0.5,0.6c0,0.4,0.2,0.4,0.9,0.4s10.8-3.5,10.8-3.5s0.9-0.4,0.9-1.2s0-1.2,0-1.2s-0.4-0.9-1.2-0.8
				c-0.8,0.1-11,3.5-11,3.5s-0.4,0.1-0.4,0.6s-0.1,1.1-0.4,1.1c0,0-0.6,0.2-0.6-0.4l0-4.6c0,0,0.4-0.4,1,0c0,0,0.2,0,0.2,0.7
				c0,0.7,1.5,0,1.5,0l10.1-3.2c0,0,0.8-0.2,0.8-1.1c0-0.9,0-1.5,0-1.5s-0.1-0.9-1.1-0.6c-1,0.3-10.6,3.1-10.6,3.1s-0.6,0.1-0.6,0.4
				s0,1.2-0.1,1.3c-0.1,0.1-0.9,0.3-1-0.2l0-14.6c0,0,0-0.7,0.5-0.7c0.6,0,0.6,0.5,0.6,0.5s0.1,0.7,0.6,0.6s11-3.6,11-3.6
				s0.8-0.2,0.8-1c0-0.8-0.1-1.7-0.1-1.7s-0.4-0.7-1.1-0.4c-0.7,0.3-10.2,3.1-10.2,3.1s-1.1,0.2-1.2,0.6c-0.1,0.3,0,1.1-0.3,1.2
				c-0.3,0.1-0.7,0.1-0.7-0.5l0-3.4c0,0,0-0.5,0.4-0.6s0.8,0,0.8,0.6c0.1,0.6,1,0,1,0l10.4-3.2c0,0,0.7-0.2,0.7-0.8
				c0-0.6,0-1.9,0-1.9s0-1-0.9-0.7c-0.9,0.3-11.1,3.3-11.1,3.3s-0.5,0.1-0.5,0.5c0,0.4,0.1,1-0.4,1.2c-0.4,0.1-0.5-0.1-0.5-0.1
				l0-4.1c0,0,0-0.7,0.5-0.6c0.6,0,0.6,0.6,0.6,0.6s-0.1,0.4,0.7,0.3c0.8-0.1,10.6-3.2,10.6-3.2s1-0.2,1-1.1c0-0.8,0-1.7,0-1.7
				s-0.2-0.6-1.2-0.3c-1,0.2-10.9,3.2-10.9,3.2s-0.4,0.2-0.4,0.5c0,0.3,0,0.8-0.3,0.9c-0.6,0.2-0.7-0.5-0.7-0.5l0-3.6
				c0,0,0.1-0.4,0.5-0.3c0,0,0.4-0.1,0.4,0.5s1.3,0.1,1.3,0.1l9.6-3.1c0,0,0.9-0.1,0.9-0.9s-0.2-1.8-0.2-1.8s-0.3-0.7-1.2-0.4
				c-0.9,0.2-9.7,2.7-9.7,2.7s-0.7,0.2-0.7,0.4c0,0.3,0,0.9,0,0.9s0,0.4-0.5,0.5s-0.5-0.3-0.5-0.3l0-3.8c0,0,0.1-0.5,0.6-0.4
				c0.5,0.1,0.4,0.6,0.4,0.6s-0.1,0.3,0.6,0.2c0.7-0.1,9.6-2.7,9.6-2.7s0.7-0.1,0.6-0.9c0-0.8-0.2-1.7-0.2-1.7s-0.2-0.8-1.1-0.6
				s-8.8,2.3-8.8,2.3s-0.6,0.3-0.6,0.5c0,0.2,0.1,0.8,0,1C73.3,104.2,73.4,104.8,72.4,104.8z"/>
			<path class="st3" d="M75.3,131.3c0,0,0-1,1.3-1.5s2.2-0.6,2.2-0.6s0.8,0.3,0.8,1.5c0,1.2-0.1,5.5-0.1,5.5s-0.1,1.2-1.7,1.5
				c-1.5,0.3-2.4,0.1-2.5-0.3C75.3,137,75.3,131.3,75.3,131.3z"/>
			<path class="st3" d="M91.7,147.6l1.1,0c0.1,0,0.2-0.1,0.2-0.2l-0.1-3c0-0.1-0.1-0.2-0.2-0.2l-1.1,0c-0.1,0-0.2,0.1-0.2,0.2l0.1,3
				C91.5,147.5,91.6,147.6,91.7,147.6z"/>
			<path class="st3" d="M91.5,136.4l1.1,0c0.1,0,0.2-0.1,0.2-0.2l-0.1-3c0-0.1-0.1-0.2-0.2-0.2l-1.1,0c-0.1,0-0.2,0.1-0.2,0.2l0.1,3
				C91.2,136.3,91.3,136.4,91.5,136.4z"/>
			<path class="st3" d="M91.2,125.3l1.1,0c0.1,0,0.2-0.1,0.2-0.2l-0.1-3c0-0.1-0.1-0.2-0.2-0.2l-1.1,0c-0.1,0-0.2,0.1-0.2,0.2l0.1,3
				C90.9,125.2,91.1,125.3,91.2,125.3z"/>
			<path class="st3" d="M90.9,113.4l1.1,0c0.1,0,0.2-0.1,0.2-0.2l-0.1-3c0-0.1-0.1-0.2-0.2-0.2l-1.1,0c-0.1,0-0.2,0.1-0.2,0.2l0.1,3
				C90.7,113.3,90.8,113.4,90.9,113.4z"/>
		</g>
		<g>
			<path class="st0" d="M38.8,47.5l-1.3-0.8c0,0-1.1-0.4-1.1,0.9v51.7c0,1.4,0.8,1.8,0.8,1.8l1.6,0.9"/>
			<path class="st1" d="M38.8,47.5l-1.3-0.8c0,0-1.1-0.4-1.1,0.9v51.7c0,1.4,0.8,1.8,0.8,1.8l1.6,0.9"/>
			<path class="st0" d="M36.9,96.9c0-0.2,0.3-0.3,0.7-0.1c0.4,0.2,0.7,0.6,0.7,0.8c0,0.2-0.3,0.3-0.7,0.1
				C37.3,97.5,36.9,97.1,36.9,96.9"/>
			<path class="st1" d="M36.9,96.9c0-0.2,0.3-0.3,0.7-0.1c0.4,0.2,0.7,0.6,0.7,0.8c0,0.2-0.3,0.3-0.7,0.1
				C37.3,97.5,36.9,97.1,36.9,96.9z"/>
			<path class="st0" d="M36.9,81.4c0-0.2,0.3-0.3,0.7-0.1c0.4,0.2,0.7,0.6,0.7,0.8c0,0.2-0.3,0.3-0.7,0.1
				C37.3,82,36.9,81.6,36.9,81.4"/>
			<path class="st1" d="M36.9,81.4c0-0.2,0.3-0.3,0.7-0.1c0.4,0.2,0.7,0.6,0.7,0.8c0,0.2-0.3,0.3-0.7,0.1
				C37.3,82,36.9,81.6,36.9,81.4z"/>
			<path class="st0" d="M36.9,65.9c0-0.2,0.3-0.3,0.7-0.1c0.4,0.2,0.7,0.6,0.7,0.8c0,0.2-0.3,0.3-0.7,0.1
				C37.3,66.5,36.9,66.1,36.9,65.9"/>
			<path class="st1" d="M36.9,65.9c0-0.2,0.3-0.3,0.7-0.1c0.4,0.2,0.7,0.6,0.7,0.8c0,0.2-0.3,0.3-0.7,0.1
				C37.3,66.5,36.9,66.1,36.9,65.9z"/>
			<path class="st0" d="M36.9,50.4c0-0.2,0.3-0.3,0.7-0.1c0.4,0.2,0.7,0.6,0.7,0.8c0,0.2-0.3,0.3-0.7,0.1
				C37.3,51,36.9,50.7,36.9,50.4"/>
			<path class="st1" d="M36.9,50.4c0-0.2,0.3-0.3,0.7-0.1c0.4,0.2,0.7,0.6,0.7,0.8c0,0.2-0.3,0.3-0.7,0.1
				C37.3,51,36.9,50.7,36.9,50.4z"/>
			<path class="st0" d="M36.1,60.5l1.7-1c0.1,0,0.1-0.2,0.1-0.3c0-0.3-0.2-0.7-0.5-0.8c-0.1-0.1-0.2-0.1-0.3,0l-1.7,1
				c0.1,0,0.2,0,0.3,0c0.3,0.1,0.5,0.5,0.5,0.8C36.2,60.3,36.2,60.5,36.1,60.5"/>
			<path class="st1" d="M36.1,60.5l1.7-1c0.1,0,0.1-0.2,0.1-0.3c0-0.3-0.2-0.7-0.5-0.8c-0.1-0.1-0.2-0.1-0.3,0l-1.7,1
				c0.1,0,0.2,0,0.3,0c0.3,0.1,0.5,0.5,0.5,0.8C36.2,60.3,36.2,60.5,36.1,60.5z"/>
			<path class="st0" d="M35.2,60c0.1,0.1,0.3,0.3,0.3,0.5"/>
			<path class="st1" d="M35.2,60c0.1,0.1,0.3,0.3,0.3,0.5"/>
			<polyline class="st1" points="35.4,59.4 35.2,59.9 34.7,60.1 			"/>
			<path class="st0" d="M35.2,60.6c0,0.2-0.1,0.2-0.3,0.2c-0.2-0.1-0.3-0.3-0.3-0.5c0-0.2,0.1-0.2,0.3-0.2
				C35.1,60.2,35.2,60.4,35.2,60.6"/>
			<path class="st1" d="M35.2,60.6c0,0.2-0.1,0.2-0.3,0.2c-0.2-0.1-0.3-0.3-0.3-0.5c0-0.2,0.1-0.2,0.3-0.2
				C35.1,60.2,35.2,60.4,35.2,60.6z"/>
			<polyline class="st1" points="35.2,60.7 35.5,60.5 36,60.5 			"/>
			<path class="st0" d="M36.1,91.8l1.7-1c0.1,0,0.1-0.2,0.1-0.3c0-0.3-0.2-0.7-0.5-0.8c-0.1-0.1-0.2-0.1-0.3,0l-1.7,1
				c0.1,0,0.2,0,0.3,0c0.3,0.1,0.5,0.5,0.5,0.8C36.2,91.6,36.2,91.7,36.1,91.8"/>
			<path class="st1" d="M36.1,91.8l1.7-1c0.1,0,0.1-0.2,0.1-0.3c0-0.3-0.2-0.7-0.5-0.8c-0.1-0.1-0.2-0.1-0.3,0l-1.7,1
				c0.1,0,0.2,0,0.3,0c0.3,0.1,0.5,0.5,0.5,0.8C36.2,91.6,36.2,91.7,36.1,91.8z"/>
			<path class="st0" d="M35.2,91.2c0.1,0.1,0.3,0.3,0.3,0.5"/>
			<path class="st1" d="M35.2,91.2c0.1,0.1,0.3,0.3,0.3,0.5"/>
			<polyline class="st1" points="35.4,90.7 35.2,91.2 34.7,91.4 			"/>
			<path class="st0" d="M35.2,91.9c0,0.2-0.1,0.2-0.3,0.2c-0.2-0.1-0.3-0.3-0.3-0.5c0-0.2,0.1-0.2,0.3-0.2
				C35.1,91.5,35.2,91.7,35.2,91.9"/>
			<path class="st1" d="M35.2,91.9c0,0.2-0.1,0.2-0.3,0.2c-0.2-0.1-0.3-0.3-0.3-0.5c0-0.2,0.1-0.2,0.3-0.2
				C35.1,91.5,35.2,91.7,35.2,91.9z"/>
			<polyline class="st1" points="35.2,91.9 35.5,91.8 36,91.8 			"/>
			<path class="st1" d="M116.1,146.1l3.2-1.8c0,0,0.6-0.2,0.6-1.6v-22.1c0-1,1.1-1.4,1.1-1.4l0.3-0.2c0,0,0.6-0.3,0.6-1.2v-11.6
				c0-1-0.7-0.8-0.7-0.8l-0.4,0.1c0,0-1,0.4-1-0.4V91.1c0-1-0.8-0.5-0.8-0.5l-3,1.7"/>
			<path class="st1" d="M116.2,146.8l1.4,0.8c0,0,1.1,0.4,1.1-0.9V94.9c0-1.4-0.8-1.8-0.8-1.8l-1.6-0.9"/>
			<path class="st1" d="M118,96.8c0,0.2-0.3,0.3-0.7,0.1c-0.4-0.2-0.7-0.6-0.7-0.8c0-0.2,0.3-0.3,0.7,0
				C117.7,96.1,118,96.5,118,96.8z"/>
			<path class="st1" d="M118,112.2c0,0.2-0.3,0.3-0.7,0.1c-0.4-0.2-0.7-0.6-0.7-0.8c0-0.2,0.3-0.3,0.7-0.1
				C117.7,111.6,118,112,118,112.2z"/>
			<path class="st1" d="M118,127.7c0,0.2-0.3,0.3-0.7,0.1c-0.4-0.2-0.7-0.6-0.7-0.8c0-0.2,0.3-0.3,0.7-0.1
				C117.7,127.1,118,127.5,118,127.7z"/>
			<path class="st1" d="M118,143.2c0,0.2-0.3,0.3-0.7,0.1c-0.4-0.2-0.7-0.6-0.7-0.8c0-0.2,0.3-0.3,0.7-0.1
				C117.7,142.6,118,143,118,143.2z"/>
			<path class="st1" d="M115.9,106l1.7-1c0.1,0,0.1-0.1,0.1-0.3c0-0.3-0.2-0.6-0.5-0.8c-0.1-0.1-0.2-0.1-0.3,0l-1.7,1
				c0.1,0,0.2,0,0.3,0c0.3,0.1,0.5,0.5,0.5,0.8C116.1,105.9,116,106,115.9,106z"/>
			<path class="st1" d="M115.1,105.5c0.1,0.1,0.3,0.3,0.3,0.5"/>
			<polyline class="st1" points="115.2,104.9 115,105.4 114.6,105.6 			"/>
			<path class="st1" d="M115,106.1c0,0.2-0.1,0.2-0.3,0.2c-0.2-0.1-0.3-0.3-0.3-0.5c0-0.2,0.1-0.2,0.3-0.2
				C114.9,105.7,115,105.9,115,106.1z"/>
			<polyline class="st1" points="115,106.2 115.3,106 115.9,106 			"/>
			<path class="st1" d="M115.9,137.3l1.7-1c0.1,0,0.1-0.1,0.1-0.3c0-0.3-0.2-0.7-0.5-0.8c-0.1-0.1-0.2-0.1-0.3,0l-1.7,1
				c0.1,0,0.2,0,0.3,0c0.3,0.1,0.5,0.5,0.5,0.8C116.1,137.2,116,137.3,115.9,137.3z"/>
			<path class="st1" d="M115.1,136.8c0.1,0.1,0.3,0.3,0.3,0.5"/>
			<polyline class="st1" points="115.2,136.2 115,136.7 114.6,136.9 			"/>
			<path class="st1" d="M115,137.4c0,0.2-0.1,0.3-0.3,0.2c-0.2-0.1-0.3-0.3-0.3-0.5c0-0.2,0.1-0.2,0.3-0.2
				C114.9,137,115,137.2,115,137.4z"/>
			<polyline class="st1" points="115,137.5 115.3,137.3 115.9,137.4 			"/>
		</g>
		<line class="st4" x1="24.4" y1="56.8" x2="38.8" y2="51.5"/>
		<line class="st4" x1="24.4" y1="109.5" x2="38.8" y2="104.2"/>
		<line class="st4" x1="98.3" y1="101.8" x2="116.3" y2="94.6"/>
		<line class="st4" x1="99" y1="153" x2="115.5" y2="146.6"/>
		<g>
			<path class="st5" d="M187.9,85.1c0,0.4-0.4,0.7-0.4,0.7l-7,4c0,0-0.4,0.3-0.4-0.3v-1.1l-7,4c0,0-0.6,0.4-0.6-0.4V77.5
				c0-1,0.8-1.3,0.8-1.3l20-11.5c0,0,0.8-0.4,0.8,0.3v14.6c0,0.9-0.7,1.2-0.7,1.2l-5.5,3.2C187.9,84,187.9,84.5,187.9,85.1z"/>
			<path class="st5" d="M172.9,80.6c0-0.7,0.6-0.9,0.6-0.9l3-1.7c0,0,0.4-0.3,0.4,0.4v2.5l-4,2.3V80.6z"/>
			<path class="st5" d="M189.7,70.8c0-0.7,0.6-0.9,0.6-0.9l3-1.7c0,0,0.4-0.3,0.4,0.4v2.5l-4,2.3V70.8z"/>
			<path class="st0" d="M189.7,73.3l3.9-2.2c0,0,0.1,0,0.1,0c0.1,0.1,0.2,0.2,0.2,0.4c0,0.1,0,0.1-0.1,0.1l-3.9,2.2
				c0,0,0.1-0.1,0.1-0.1c0-0.1-0.1-0.3-0.2-0.3C189.8,73.3,189.8,73.3,189.7,73.3"/>
			<path class="st5" d="M189.7,73.3l3.9-2.2c0,0,0.1,0,0.1,0c0.1,0.1,0.2,0.2,0.2,0.4c0,0.1,0,0.1-0.1,0.1l-3.9,2.2
				c0,0,0.1-0.1,0.1-0.1c0-0.1-0.1-0.3-0.2-0.3C189.8,73.3,189.8,73.3,189.7,73.3z"/>
			<path class="st5" d="M190.1,73.6c0,0.1-0.1,0.2-0.2,0.1c-0.1-0.1-0.2-0.2-0.2-0.4c0-0.1,0.1-0.2,0.2-0.1
				C190,73.4,190.1,73.5,190.1,73.6z"/>
			<polyline class="st5" points="191,72.5 191,71.4 192.4,70.7 192.4,71.7 			"/>
			<path class="st5" d="M187.1,71.5v2c0,2.9-1.5,3.6-1.5,3.6l-4.3,2.5c0,0-1.7,0.6-1.7-1.7v-2.1L187.1,71.5z"/>
			<path class="st0" d="M173,83l3.9-2.2c0,0,0.1,0,0.1,0c0.1,0.1,0.2,0.2,0.2,0.4c0,0.1,0,0.1-0.1,0.1l-3.9,2.2c0,0,0.1-0.1,0.1-0.1
				c0-0.1-0.1-0.3-0.2-0.4C173,83,173,83,173,83"/>
			<path class="st5" d="M173,83l3.9-2.2c0,0,0.1,0,0.1,0c0.1,0.1,0.2,0.2,0.2,0.4c0,0.1,0,0.1-0.1,0.1l-3.9,2.2c0,0,0.1-0.1,0.1-0.1
				c0-0.1-0.1-0.3-0.2-0.4C173,83,173,83,173,83z"/>
			<path class="st0" d="M173.3,83.3c0,0.1-0.1,0.2-0.2,0.1c-0.1-0.1-0.2-0.2-0.2-0.4c0-0.1,0.1-0.2,0.2-0.1
				C173.2,83.1,173.3,83.2,173.3,83.3"/>
			<path class="st5" d="M173.3,83.3c0,0.1-0.1,0.2-0.2,0.1c-0.1-0.1-0.2-0.2-0.2-0.4c0-0.1,0.1-0.2,0.2-0.1
				C173.2,83.1,173.3,83.2,173.3,83.3z"/>
			<polyline class="st5" points="174.2,82.2 174.2,81.2 175.6,80.4 175.6,81.5 			"/>
			<line class="st0" x1="177.3" y1="86.6" x2="177.6" y2="86"/>
			<line class="st6" x1="177.3" y1="86.6" x2="177.6" y2="86"/>
			<line class="st5" x1="177.3" y1="86.6" x2="177.9" y2="86.2"/>
			<polyline class="st0" points="195.2,76.6 190.3,73.8 194.1,71.6 201.1,75.6 180.2,87.5 173.4,83.6 177.3,81.4 182.2,84.1 			"/>
			<line class="st5" x1="177.3" y1="81.4" x2="182.2" y2="84.1"/>
			<polyline class="st5" points="194.1,71.6 201.1,75.6 180.2,87.5 173.4,83.6 			"/>
			<line class="st5" x1="195.2" y1="76.6" x2="190.3" y2="73.8"/>
			<path class="st0" d="M179.6,84.2l-0.3-0.3c0,0,0.7-1.5,1.1-2c0.4-0.5,0.9-0.6,0.9-0.6l2.6-1.4c0,0,0.7,0.1,0.7,0.6l-1.5,2.7
				l7.2-4.1l1.8-3.2c0,0,0.3-0.8,1.2-1.2l2.4-1.5c0,0,0.8-0.1,0.6,0.6l-0.6,1.2l-1.3,0.9l-1.1,2l-10.8,6.1l-0.7-0.5"/>
			<path class="st5" d="M179.3,83.7l-0.4,0.2c0,0-0.1,0.2,0.2,0.4c0.3,0.2,0.6,0.1,0.6,0.1l1.5-0.9"/>
			<path class="st5" d="M179.6,84.3c0,0,0.6-1.2,0.8-1.5c0.4-0.7,0.9-1,0.9-1l2.7-1.5c0,0,0.5-0.2,0.2,0.6c-0.1,0.2-1.3,2.4-1.4,2.5
				c-0.4,0.7,0,0.5,0,0.5l7.6-4.5c0,0,0.2-0.1,0.6-0.9c0.1-0.3,1.1-2,1.3-2.5c0.4-0.8,0.9-1,0.9-1l2.5-1.5c0,0,0.4-0.2,0.2,0.2
				c-0.1,0.1-0.7,1.4-0.7,1.4l-1.3,0.8l-1.1,2"/>
			<polyline class="st7" points="195.2,76.6 194.9,77.5 183.5,84.1 182.2,84.1 			"/>
			<polyline class="st5" points="195.2,76.6 194.9,77.5 183.5,84.1 182.2,84.1 			"/>
			<line class="st5" x1="195.1" y1="76.7" x2="182.3" y2="84.1"/>
			<path class="st1" d="M147.9,110.1c0,0.4-0.4,0.7-0.4,0.7l-7,4c0,0-0.4,0.3-0.4-0.3c0-0.5,0-1.1,0-1.1l-7,4c0,0-0.6,0.4-0.6-0.4
				v-14.6c0-1,0.8-1.3,0.8-1.3l20-11.5c0,0,0.8-0.4,0.8,0.3v14.6c0,0.9-0.7,1.2-0.7,1.2L148,109C148,109,147.9,109.5,147.9,110.1z"
				/>
			<path class="st1" d="M133,105.6c0-0.7,0.6-0.9,0.6-0.9l3-1.7c0,0,0.4-0.3,0.4,0.4v2.5l-4,2.3V105.6z"/>
			<path class="st1" d="M149.8,95.8c0-0.7,0.6-0.9,0.6-0.9l3-1.7c0,0,0.4-0.3,0.4,0.4v2.5l-4,2.3V95.8z"/>
			<path class="st0" d="M149.8,98.3l3.9-2.2c0,0,0.1,0,0.1,0c0.1,0.1,0.2,0.2,0.2,0.4c0,0.1,0,0.1-0.1,0.1l-3.9,2.2
				c0,0,0.1-0.1,0.1-0.1c0-0.1-0.1-0.3-0.2-0.4C149.9,98.2,149.8,98.2,149.8,98.3"/>
			<path class="st1" d="M149.8,98.3l3.9-2.2c0,0,0.1,0,0.1,0c0.1,0.1,0.2,0.2,0.2,0.4c0,0.1,0,0.1-0.1,0.1l-3.9,2.2
				c0,0,0.1-0.1,0.1-0.1c0-0.1-0.1-0.3-0.2-0.4C149.9,98.2,149.8,98.2,149.8,98.3z"/>
			<path class="st0" d="M150.2,98.6c0,0.1-0.1,0.2-0.2,0.1c-0.1-0.1-0.2-0.2-0.2-0.4c0-0.1,0.1-0.2,0.2-0.1
				C150.1,98.3,150.2,98.5,150.2,98.6"/>
			<path class="st1" d="M150.2,98.6c0,0.1-0.1,0.2-0.2,0.1c-0.1-0.1-0.2-0.2-0.2-0.4c0-0.1,0.1-0.2,0.2-0.1
				C150.1,98.3,150.2,98.5,150.2,98.6z"/>
			<polyline class="st1" points="151.1,97.5 151.1,96.4 152.5,95.7 152.5,96.7 			"/>
			<path class="st1" d="M147.2,96.5v2c0,2.9-1.5,3.6-1.5,3.6l-4.3,2.5c0,0-1.7,0.6-1.7-1.7v-2.2L147.2,96.5z"/>
			<path class="st0" d="M133,108l3.9-2.2c0,0,0.1,0,0.1,0c0.1,0.1,0.2,0.2,0.2,0.4c0,0.1,0,0.1-0.1,0.1l-3.9,2.2
				c0,0,0.1-0.1,0.1-0.1c0-0.1-0.1-0.3-0.2-0.4C133.1,107.9,133.1,107.9,133,108"/>
			<path class="st1" d="M133,108l3.9-2.2c0,0,0.1,0,0.1,0c0.1,0.1,0.2,0.2,0.2,0.4c0,0.1,0,0.1-0.1,0.1l-3.9,2.2
				c0,0,0.1-0.1,0.1-0.1c0-0.1-0.1-0.3-0.2-0.4C133.1,107.9,133.1,107.9,133,108z"/>
			<path class="st0" d="M133.4,108.3c0,0.1-0.1,0.2-0.2,0.1c-0.1-0.1-0.2-0.2-0.2-0.4c0-0.1,0.1-0.2,0.2-0.1
				C133.3,108,133.4,108.2,133.4,108.3"/>
			<path class="st1" d="M133.4,108.3c0,0.1-0.1,0.2-0.2,0.1c-0.1-0.1-0.2-0.2-0.2-0.4c0-0.1,0.1-0.2,0.2-0.1
				C133.3,108,133.4,108.2,133.4,108.3z"/>
			<polyline class="st1" points="134.3,107.2 134.3,106.2 135.7,105.4 135.7,106.4 			"/>
			<line class="st0" x1="137.4" y1="111.6" x2="137.7" y2="111"/>
			<line class="st1" x1="137.4" y1="111.6" x2="137.7" y2="111"/>
			<line class="st1" x1="137.4" y1="111.6" x2="138" y2="111.2"/>
			<polyline class="st0" points="155.3,101.6 150.4,98.8 154.2,96.6 161.1,100.6 140.3,112.5 133.5,108.6 137.4,106.4 142.3,109.1 
							"/>
			<line class="st1" x1="137.4" y1="106.4" x2="142.3" y2="109.1"/>
			<polyline class="st1" points="154.2,96.6 161.1,100.6 140.3,112.5 133.5,108.6 			"/>
			<line class="st1" x1="155.3" y1="101.6" x2="150.4" y2="98.8"/>
			<path class="st1" d="M154.3,101l1.5-0.9c0,0,0.1-0.2-0.1-0.4c-0.3-0.2-0.7,0-0.7,0l-1.5,0.9"/>
			<path class="st0" d="M139.7,109.2l-0.3-0.3c0,0,0.6-1.5,1.1-2c0.4-0.5,0.8-0.7,0.8-0.7l2.6-1.4c0,0,0.7,0.1,0.7,0.6l-1.5,2.7
				l7.2-4.1l1.8-3.2c0,0,0.3-0.8,1.2-1.2l2.4-1.5c0,0,0.8-0.1,0.6,0.6l-0.6,1.2l-1.3,0.9l-1,2l-10.8,6.1l-0.7-0.5l0.1-0.3
				L139.7,109.2z"/>
			<path class="st1" d="M139.4,108.7l-0.4,0.2c0,0-0.1,0.2,0.2,0.4c0.3,0.2,0.6,0.1,0.6,0.1l1.5-0.9"/>
			<path class="st1" d="M139.7,109.3c0,0,0.6-1.2,0.8-1.5c0.4-0.7,0.9-1,0.9-1l2.7-1.5c0,0,0.5-0.2,0.2,0.5
				c-0.1,0.2-1.3,2.4-1.4,2.5c-0.4,0.7,0,0.5,0,0.5l7.6-4.5c0,0,0.2-0.1,0.6-0.9c0.1-0.3,1.1-2,1.3-2.5c0.4-0.8,0.9-1,0.9-1l2.5-1.5
				c0,0,0.4-0.2,0.2,0.2c-0.1,0.1-0.7,1.4-0.7,1.4l-1.3,0.8l-1.1,2"/>
			<polyline class="st7" points="155.3,101.6 155,102.5 143.6,109.1 142.3,109.1 			"/>
			<polyline class="st1" points="155.3,101.6 155,102.5 143.6,109.1 142.3,109.1 			"/>
			<line class="st1" x1="155.2" y1="101.7" x2="142.3" y2="109.1"/>
			<path class="st8" d="M207.9,78.1c0,12.5-10.1,22.6-22.6,22.6c-12.5,0-22.6-10.1-22.6-22.6s10.1-22.6,22.6-22.6
				C197.8,55.5,207.9,65.6,207.9,78.1z"/>
			<line class="st4" x1="183" y1="55.7" x2="238.8" y2="51.7"/>
			<line class="st4" x1="172.1" y1="96.6" x2="201.1" y2="128.6"/>
			<g>
				<g>
					<defs>
						<path id="SVGID_1_" d="M286.2,99c0,26.1-21.2,47.3-47.3,47.3c-26.1,0-47.3-21.2-47.3-47.3c0-26.1,21.2-47.3,47.3-47.3
							C265,51.7,286.2,72.9,286.2,99z"/>
					</defs>
					<clipPath id="SVGID_00000148622340675581369000000016939574429326690993_">
						<use xlink:href="#SVGID_1_"  style="overflow:visible;"/>
					</clipPath>
					<polygon style="clip-path:url(#SVGID_00000148622340675581369000000016939574429326690993_);fill:#D1D3D4;" points="
						-27.7,36.8 134.3,130.6 134.3,257.8 -28.1,163.6 					"/>
					<polygon style="clip-path:url(#SVGID_00000148622340675581369000000016939574429326690993_);fill:#FFFFFF;" points="296.2,6.3 
						316.9,143.5 140,254.7 114.4,110.3 					"/>
					<path style="clip-path:url(#SVGID_00000148622340675581369000000016939574429326690993_);fill:#FFFFFF;" d="M-27.5,49.8
						l-2.8-1.6c0,0-2.2-0.7-2.2,1.9v108c0,2.9,1.7,3.7,1.7,3.7l3.3,1.9"/>
					
						<path style="clip-path:url(#SVGID_00000148622340675581369000000016939574429326690993_);fill:none;stroke:#000000;stroke-width:0.5;stroke-linecap:round;stroke-linejoin:round;" d="
						M-27.5,49.8l-2.8-1.6c0,0-2.2-0.7-2.2,1.9v108c0,2.9,1.7,3.7,1.7,3.7l3.3,1.9"/>
					<path style="clip-path:url(#SVGID_00000148622340675581369000000016939574429326690993_);fill:#FFFFFF;" d="M-31.3,152.8
						c0-0.5,0.6-0.6,1.4-0.1c0.8,0.5,1.4,1.2,1.4,1.7c0,0.5-0.6,0.6-1.4,0.1C-30.7,154.1-31.3,153.3-31.3,152.8"/>
					
						<path style="clip-path:url(#SVGID_00000148622340675581369000000016939574429326690993_);fill:none;stroke:#000000;stroke-width:0.5;stroke-linecap:round;stroke-linejoin:round;" d="
						M-31.3,152.8c0-0.5,0.6-0.6,1.4-0.1c0.8,0.5,1.4,1.2,1.4,1.7c0,0.5-0.6,0.6-1.4,0.1C-30.7,154.1-31.3,153.3-31.3,152.8z"/>
					<path style="clip-path:url(#SVGID_00000148622340675581369000000016939574429326690993_);fill:#FFFFFF;" d="M-31.3,120.5
						c0-0.5,0.6-0.6,1.4-0.1c0.8,0.5,1.4,1.2,1.4,1.8c0,0.5-0.6,0.6-1.4,0.1C-30.7,121.7-31.3,121-31.3,120.5"/>
					
						<path style="clip-path:url(#SVGID_00000148622340675581369000000016939574429326690993_);fill:none;stroke:#000000;stroke-width:0.5;stroke-linecap:round;stroke-linejoin:round;" d="
						M-31.3,120.5c0-0.5,0.6-0.6,1.4-0.1c0.8,0.5,1.4,1.2,1.4,1.8c0,0.5-0.6,0.6-1.4,0.1C-30.7,121.7-31.3,121-31.3,120.5z"/>
					<path style="clip-path:url(#SVGID_00000148622340675581369000000016939574429326690993_);fill:#FFFFFF;" d="M-31.3,88.1
						c0-0.5,0.6-0.6,1.4-0.1c0.8,0.5,1.4,1.2,1.4,1.8c0,0.5-0.6,0.6-1.4,0.1C-30.7,89.4-31.3,88.6-31.3,88.1"/>
					
						<path style="clip-path:url(#SVGID_00000148622340675581369000000016939574429326690993_);fill:none;stroke:#000000;stroke-width:0.5;stroke-linecap:round;stroke-linejoin:round;" d="
						M-31.3,88.1c0-0.5,0.6-0.6,1.4-0.1c0.8,0.5,1.4,1.2,1.4,1.8c0,0.5-0.6,0.6-1.4,0.1C-30.7,89.4-31.3,88.6-31.3,88.1z"/>
					<path style="clip-path:url(#SVGID_00000148622340675581369000000016939574429326690993_);fill:#FFFFFF;" d="M-31.3,55.8
						c0-0.5,0.6-0.6,1.4-0.1c0.8,0.5,1.4,1.2,1.4,1.7c0,0.5-0.6,0.6-1.4,0.1C-30.7,57.1-31.3,56.3-31.3,55.8"/>
					
						<path style="clip-path:url(#SVGID_00000148622340675581369000000016939574429326690993_);fill:none;stroke:#000000;stroke-width:0.5;stroke-linecap:round;stroke-linejoin:round;" d="
						M-31.3,55.8c0-0.5,0.6-0.6,1.4-0.1c0.8,0.5,1.4,1.2,1.4,1.7c0,0.5-0.6,0.6-1.4,0.1C-30.7,57.1-31.3,56.3-31.3,55.8z"/>
					<path style="clip-path:url(#SVGID_00000148622340675581369000000016939574429326690993_);fill:#FFFFFF;" d="M-33.1,76.9l3.5-2
						c0.2-0.1,0.3-0.3,0.3-0.6c0-0.6-0.4-1.4-1-1.7c-0.3-0.2-0.5-0.2-0.7-0.1l-3.5,2c0.2-0.1,0.4-0.1,0.7,0.1c0.5,0.3,1,1.1,1,1.7
						C-32.8,76.5-32.9,76.8-33.1,76.9"/>
					
						<path style="clip-path:url(#SVGID_00000148622340675581369000000016939574429326690993_);fill:none;stroke:#000000;stroke-width:0.5;stroke-linecap:round;stroke-linejoin:round;" d="
						M-33.1,76.9l3.5-2c0.2-0.1,0.3-0.3,0.3-0.6c0-0.6-0.4-1.4-1-1.7c-0.3-0.2-0.5-0.2-0.7-0.1l-3.5,2c0.2-0.1,0.4-0.1,0.7,0.1
						c0.5,0.3,1,1.1,1,1.7C-32.8,76.5-32.9,76.8-33.1,76.9z"/>
					<path style="clip-path:url(#SVGID_00000148622340675581369000000016939574429326690993_);fill:#FFFFFF;" d="M-34.9,75.7
						c0.3,0.2,0.5,0.6,0.5,0.9"/>
					
						<path style="clip-path:url(#SVGID_00000148622340675581369000000016939574429326690993_);fill:none;stroke:#000000;stroke-width:0.5;stroke-linecap:round;stroke-linejoin:round;" d="
						M-34.9,75.7c0.3,0.2,0.5,0.6,0.5,0.9"/>
					
						<polyline style="clip-path:url(#SVGID_00000148622340675581369000000016939574429326690993_);fill:none;stroke:#000000;stroke-width:0.5;stroke-linecap:round;stroke-linejoin:round;" points="
						-34.5,74.6 -35,75.6 -36,76 					"/>
					<path style="clip-path:url(#SVGID_00000148622340675581369000000016939574429326690993_);fill:#FFFFFF;" d="M-35,77
						c0,0.4-0.3,0.5-0.6,0.3c-0.3-0.2-0.6-0.6-0.6-1c0-0.4,0.3-0.5,0.6-0.3C-35.2,76.2-35,76.6-35,77"/>
					
						<path style="clip-path:url(#SVGID_00000148622340675581369000000016939574429326690993_);fill:none;stroke:#000000;stroke-width:0.5;stroke-linecap:round;stroke-linejoin:round;" d="
						M-35,77c0,0.4-0.3,0.5-0.6,0.3c-0.3-0.2-0.6-0.6-0.6-1c0-0.4,0.3-0.5,0.6-0.3C-35.2,76.2-35,76.6-35,77z"/>
					
						<polyline style="clip-path:url(#SVGID_00000148622340675581369000000016939574429326690993_);fill:none;stroke:#000000;stroke-width:0.5;stroke-linecap:round;stroke-linejoin:round;" points="
						-35,77.2 -34.4,76.8 -33.2,76.9 					"/>
					<path style="clip-path:url(#SVGID_00000148622340675581369000000016939574429326690993_);fill:#FFFFFF;" d="M-33.1,142.2l3.5-2
						c0.2-0.1,0.3-0.3,0.3-0.6c0-0.6-0.4-1.4-1-1.7c-0.3-0.2-0.5-0.2-0.7-0.1l-3.5,2c0.2-0.1,0.4-0.1,0.7,0.1c0.5,0.3,1,1.1,1,1.7
						C-32.8,141.9-32.9,142.1-33.1,142.2"/>
					
						<path style="clip-path:url(#SVGID_00000148622340675581369000000016939574429326690993_);fill:none;stroke:#000000;stroke-width:0.5;stroke-linecap:round;stroke-linejoin:round;" d="
						M-33.1,142.2l3.5-2c0.2-0.1,0.3-0.3,0.3-0.6c0-0.6-0.4-1.4-1-1.7c-0.3-0.2-0.5-0.2-0.7-0.1l-3.5,2c0.2-0.1,0.4-0.1,0.7,0.1
						c0.5,0.3,1,1.1,1,1.7C-32.8,141.9-32.9,142.1-33.1,142.2z"/>
					<path style="clip-path:url(#SVGID_00000148622340675581369000000016939574429326690993_);fill:#FFFFFF;" d="M-34.9,141.1
						c0.3,0.2,0.5,0.6,0.5,1"/>
					
						<path style="clip-path:url(#SVGID_00000148622340675581369000000016939574429326690993_);fill:none;stroke:#000000;stroke-width:0.5;stroke-linecap:round;stroke-linejoin:round;" d="
						M-34.9,141.1c0.3,0.2,0.5,0.6,0.5,1"/>
					
						<polyline style="clip-path:url(#SVGID_00000148622340675581369000000016939574429326690993_);fill:none;stroke:#000000;stroke-width:0.5;stroke-linecap:round;stroke-linejoin:round;" points="
						-34.5,139.9 -35,141 -36,141.3 					"/>
					<path style="clip-path:url(#SVGID_00000148622340675581369000000016939574429326690993_);fill:#FFFFFF;" d="M-35,142.4
						c0,0.4-0.3,0.5-0.6,0.3c-0.3-0.2-0.6-0.6-0.6-1c0-0.4,0.3-0.5,0.6-0.3C-35.2,141.6-35,142-35,142.4"/>
					
						<path style="clip-path:url(#SVGID_00000148622340675581369000000016939574429326690993_);fill:none;stroke:#000000;stroke-width:0.5;stroke-linecap:round;stroke-linejoin:round;" d="
						M-35,142.4c0,0.4-0.3,0.5-0.6,0.3c-0.3-0.2-0.6-0.6-0.6-1c0-0.4,0.3-0.5,0.6-0.3C-35.2,141.6-35,142-35,142.4z"/>
					
						<polyline style="clip-path:url(#SVGID_00000148622340675581369000000016939574429326690993_);fill:none;stroke:#000000;stroke-width:0.5;stroke-linecap:round;stroke-linejoin:round;" points="
						-35,142.5 -34.4,142.1 -33.2,142.3 					"/>
					
						<polyline style="clip-path:url(#SVGID_00000148622340675581369000000016939574429326690993_);fill:none;stroke:#000000;stroke-width:0.5;stroke-linecap:round;stroke-linejoin:round;" points="
						152.6,-47.8 316.3,25.7 316.3,143.2 					"/>
					
						<line style="clip-path:url(#SVGID_00000148622340675581369000000016939574429326690993_);fill:none;stroke:#000000;stroke-width:0.5;stroke-linecap:round;stroke-linejoin:round;" x1="316.3" y1="143.2" x2="134" y2="257.1"/>
					
						<line style="clip-path:url(#SVGID_00000148622340675581369000000016939574429326690993_);fill:none;stroke:#000000;stroke-width:0.5;stroke-linecap:round;stroke-linejoin:round;" x1="-27.5" y1="37.5" x2="152.5" y2="-47.8"/>
					
						<line style="clip-path:url(#SVGID_00000148622340675581369000000016939574429326690993_);fill:#FFFFFF;" x1="222.1" y1="116.8" x2="222.7" y2="115.5"/>
					
						<path style="clip-path:url(#SVGID_00000148622340675581369000000016939574429326690993_);fill:none;stroke:#000000;stroke-width:0.5;stroke-linecap:round;stroke-linejoin:round;" d="
						M134,255.5l6.8-3.8c0,0,1.3-0.5,1.3-3.4v-46.2c0-2,2.4-3,2.4-3l0.7-0.4c0,0,1.3-0.7,1.3-2.5v-24.2c0-2-1.5-1.6-1.5-1.6
						l-0.8,0.1c0,0-2.1,0.7-2.1-0.9v-28.9c0-2.2-1.7-1.1-1.7-1.1l-6.3,3.5"/>
					<path style="clip-path:url(#SVGID_00000148622340675581369000000016939574429326690993_);fill:#FFFFFF;" d="M134.1,257.1
						l2.8,1.7c0,0,2.2,0.7,2.2-1.9v-108c0-2.9-1.7-3.7-1.7-3.7l-3.3-1.9"/>
					
						<path style="clip-path:url(#SVGID_00000148622340675581369000000016939574429326690993_);fill:none;stroke:#000000;stroke-width:0.5;stroke-linecap:round;stroke-linejoin:round;" d="
						M134.1,257.1l2.8,1.7c0,0,2.2,0.7,2.2-1.9v-108c0-2.9-1.7-3.7-1.7-3.7l-3.3-1.9"/>
					<path style="clip-path:url(#SVGID_00000148622340675581369000000016939574429326690993_);fill:#FFFFFF;" d="M138,152.6
						c0,0.5-0.6,0.6-1.4,0.1c-0.8-0.4-1.4-1.2-1.4-1.7c0-0.5,0.6-0.6,1.4-0.1C137.4,151.3,138,152.1,138,152.6"/>
					
						<path style="clip-path:url(#SVGID_00000148622340675581369000000016939574429326690993_);fill:none;stroke:#000000;stroke-width:0.5;stroke-linecap:round;stroke-linejoin:round;" d="
						M138,152.6c0,0.5-0.6,0.6-1.4,0.1c-0.8-0.4-1.4-1.2-1.4-1.7c0-0.5,0.6-0.6,1.4-0.1C137.4,151.3,138,152.1,138,152.6z"/>
					<path style="clip-path:url(#SVGID_00000148622340675581369000000016939574429326690993_);fill:#FFFFFF;" d="M138,184.9
						c0,0.5-0.6,0.6-1.4,0.1c-0.8-0.4-1.4-1.2-1.4-1.8c0-0.5,0.6-0.6,1.4-0.1C137.4,183.6,138,184.4,138,184.9"/>
					
						<path style="clip-path:url(#SVGID_00000148622340675581369000000016939574429326690993_);fill:none;stroke:#000000;stroke-width:0.5;stroke-linecap:round;stroke-linejoin:round;" d="
						M138,184.9c0,0.5-0.6,0.6-1.4,0.1c-0.8-0.4-1.4-1.2-1.4-1.8c0-0.5,0.6-0.6,1.4-0.1C137.4,183.6,138,184.4,138,184.9z"/>
					<path style="clip-path:url(#SVGID_00000148622340675581369000000016939574429326690993_);fill:#FFFFFF;" d="M138,218.8
						c0,0.5-0.6,0.6-1.4,0.1c-0.8-0.4-1.4-1.2-1.4-1.7c0-0.5,0.6-0.6,1.4-0.1C137.4,217.5,138,218.3,138,218.8"/>
					
						<path style="clip-path:url(#SVGID_00000148622340675581369000000016939574429326690993_);fill:none;stroke:#000000;stroke-width:0.5;stroke-linecap:round;stroke-linejoin:round;" d="
						M138,218.8c0,0.5-0.6,0.6-1.4,0.1c-0.8-0.4-1.4-1.2-1.4-1.7c0-0.5,0.6-0.6,1.4-0.1C137.4,217.5,138,218.3,138,218.8z"/>
					<path style="clip-path:url(#SVGID_00000148622340675581369000000016939574429326690993_);fill:#FFFFFF;" d="M138,246.3
						c0,0.5-0.6,0.6-1.4,0.1c-0.8-0.5-1.4-1.2-1.4-1.7c0-0.5,0.6-0.6,1.4-0.1C137.4,245,138,245.8,138,246.3"/>
					
						<path style="clip-path:url(#SVGID_00000148622340675581369000000016939574429326690993_);fill:none;stroke:#000000;stroke-width:0.5;stroke-linecap:round;stroke-linejoin:round;" d="
						M138,246.3c0,0.5-0.6,0.6-1.4,0.1c-0.8-0.5-1.4-1.2-1.4-1.7c0-0.5,0.6-0.6,1.4-0.1C137.4,245,138,245.8,138,246.3z"/>
					
						<line style="clip-path:url(#SVGID_00000148622340675581369000000016939574429326690993_);fill:none;stroke:#000000;stroke-width:0.5;stroke-linecap:round;stroke-linejoin:round;" x1="24.2" y1="131.5" x2="-21.6" y2="105"/>
					
						<line style="clip-path:url(#SVGID_00000148622340675581369000000016939574429326690993_);fill:none;stroke:#000000;stroke-width:0.5;stroke-linecap:round;stroke-linejoin:round;" x1="24.2" y1="130.1" x2="-21.6" y2="103.7"/>
					
						<line style="clip-path:url(#SVGID_00000148622340675581369000000016939574429326690993_);fill:none;stroke:#000000;stroke-width:0.5;stroke-linecap:round;stroke-linejoin:round;" x1="128" y1="253.5" x2="128" y2="127.6"/>
					
						<polygon style="clip-path:url(#SVGID_00000148622340675581369000000016939574429326690993_);fill:none;stroke:#000000;stroke-width:0.5;stroke-linecap:round;stroke-linejoin:round;" points="
						-27.5,37.5 134,130.8 134,257.1 -27.5,163.8 					"/>
					
						<line style="clip-path:url(#SVGID_00000148622340675581369000000016939574429326690993_);fill:none;stroke:#000000;stroke-width:0.5;stroke-linecap:round;stroke-linejoin:round;" x1="-21.8" y1="48.4" x2="23.9" y2="74.8"/>
					
						<line style="clip-path:url(#SVGID_00000148622340675581369000000016939574429326690993_);fill:none;stroke:#000000;stroke-width:0.5;stroke-linecap:round;stroke-linejoin:round;" x1="30.2" y1="78.4" x2="75.8" y2="104.8"/>
					
						<line style="clip-path:url(#SVGID_00000148622340675581369000000016939574429326690993_);fill:none;stroke:#000000;stroke-width:0.5;stroke-linecap:round;stroke-linejoin:round;" x1="-21.8" y1="112.8" x2="23.8" y2="139.1"/>
					
						<line style="clip-path:url(#SVGID_00000148622340675581369000000016939574429326690993_);fill:none;stroke:#000000;stroke-width:0.5;stroke-linecap:round;stroke-linejoin:round;" x1="82.1" y1="108.4" x2="127.5" y2="134.6"/>
					
						<line style="clip-path:url(#SVGID_00000148622340675581369000000016939574429326690993_);fill:none;stroke:#000000;stroke-width:0.5;stroke-linecap:round;stroke-linejoin:round;" x1="29.9" y1="142.6" x2="75.9" y2="169.2"/>
					
						<line style="clip-path:url(#SVGID_00000148622340675581369000000016939574429326690993_);fill:none;stroke:#000000;stroke-width:0.5;stroke-linecap:round;stroke-linejoin:round;" x1="82" y1="172.7" x2="127.5" y2="199"/>
					
						<line style="clip-path:url(#SVGID_00000148622340675581369000000016939574429326690993_);fill:none;stroke:#000000;stroke-width:0.5;stroke-linecap:round;stroke-linejoin:round;" x1="-21.7" y1="41.2" x2="-21.7" y2="167.2"/>
					
						<line style="clip-path:url(#SVGID_00000148622340675581369000000016939574429326690993_);fill:none;stroke:#000000;stroke-width:0.5;stroke-linecap:round;stroke-linejoin:round;" x1="24.2" y1="193.6" x2="24.2" y2="67.5"/>
					
						<line style="clip-path:url(#SVGID_00000148622340675581369000000016939574429326690993_);fill:none;stroke:#000000;stroke-width:0.5;stroke-linecap:round;stroke-linejoin:round;" x1="30.1" y1="70.8" x2="30.1" y2="197"/>
					
						<line style="clip-path:url(#SVGID_00000148622340675581369000000016939574429326690993_);fill:none;stroke:#000000;stroke-width:0.5;stroke-linecap:round;stroke-linejoin:round;" x1="76.1" y1="223.5" x2="76.1" y2="97.8"/>
					
						<line style="clip-path:url(#SVGID_00000148622340675581369000000016939574429326690993_);fill:none;stroke:#000000;stroke-width:0.5;stroke-linecap:round;stroke-linejoin:round;" x1="82.1" y1="101" x2="82.1" y2="227.1"/>
					<path style="clip-path:url(#SVGID_00000148622340675581369000000016939574429326690993_);fill:#FFFFFF;" d="M133.6,171.9l3.5-2
						c0.2-0.1,0.3-0.3,0.3-0.6c0-0.6-0.4-1.4-1-1.7c-0.3-0.2-0.5-0.2-0.7-0.1l-3.5,2c0.2-0.1,0.4-0.1,0.7,0.1c0.5,0.3,1,1.1,1,1.7
						C133.9,171.6,133.8,171.8,133.6,171.9"/>
					
						<path style="clip-path:url(#SVGID_00000148622340675581369000000016939574429326690993_);fill:none;stroke:#000000;stroke-width:0.5;stroke-linecap:round;stroke-linejoin:round;" d="
						M133.6,171.9l3.5-2c0.2-0.1,0.3-0.3,0.3-0.6c0-0.6-0.4-1.4-1-1.7c-0.3-0.2-0.5-0.2-0.7-0.1l-3.5,2c0.2-0.1,0.4-0.1,0.7,0.1
						c0.5,0.3,1,1.1,1,1.7C133.9,171.6,133.8,171.8,133.6,171.9z"/>
					<path style="clip-path:url(#SVGID_00000148622340675581369000000016939574429326690993_);fill:#FFFFFF;" d="M131.8,170.8
						c0.3,0.2,0.5,0.6,0.5,0.9"/>
					
						<path style="clip-path:url(#SVGID_00000148622340675581369000000016939574429326690993_);fill:none;stroke:#000000;stroke-width:0.5;stroke-linecap:round;stroke-linejoin:round;" d="
						M131.8,170.8c0.3,0.2,0.5,0.6,0.5,0.9"/>
					
						<polyline style="clip-path:url(#SVGID_00000148622340675581369000000016939574429326690993_);fill:none;stroke:#000000;stroke-width:0.5;stroke-linecap:round;stroke-linejoin:round;" points="
						132.2,169.6 131.7,170.7 130.8,171 					"/>
					<path style="clip-path:url(#SVGID_00000148622340675581369000000016939574429326690993_);fill:#FFFFFF;" d="M131.8,172.1
						c0,0.4-0.3,0.5-0.6,0.3c-0.3-0.2-0.6-0.6-0.6-1c0-0.4,0.2-0.5,0.6-0.3C131.5,171.3,131.8,171.7,131.8,172.1"/>
					
						<path style="clip-path:url(#SVGID_00000148622340675581369000000016939574429326690993_);fill:none;stroke:#000000;stroke-width:0.5;stroke-linecap:round;stroke-linejoin:round;" d="
						M131.8,172.1c0,0.4-0.3,0.5-0.6,0.3c-0.3-0.2-0.6-0.6-0.6-1c0-0.4,0.2-0.5,0.6-0.3C131.5,171.3,131.8,171.7,131.8,172.1z"/>
					
						<polyline style="clip-path:url(#SVGID_00000148622340675581369000000016939574429326690993_);fill:none;stroke:#000000;stroke-width:0.5;stroke-linecap:round;stroke-linejoin:round;" points="
						131.8,172.2 132.3,171.9 133.5,172 					"/>
					<path style="clip-path:url(#SVGID_00000148622340675581369000000016939574429326690993_);fill:#FFFFFF;" d="M133.6,234l3.5-2
						c0.2-0.1,0.3-0.3,0.3-0.6c0-0.6-0.4-1.4-1-1.7c-0.3-0.2-0.5-0.2-0.7-0.1l-3.5,2c0.2-0.1,0.4-0.1,0.7,0.1c0.5,0.3,1,1.1,1,1.7
						C133.9,233.7,133.8,233.9,133.6,234"/>
					
						<path style="clip-path:url(#SVGID_00000148622340675581369000000016939574429326690993_);fill:none;stroke:#000000;stroke-width:0.5;stroke-linecap:round;stroke-linejoin:round;" d="
						M133.6,234l3.5-2c0.2-0.1,0.3-0.3,0.3-0.6c0-0.6-0.4-1.4-1-1.7c-0.3-0.2-0.5-0.2-0.7-0.1l-3.5,2c0.2-0.1,0.4-0.1,0.7,0.1
						c0.5,0.3,1,1.1,1,1.7C133.9,233.7,133.8,233.9,133.6,234z"/>
					<path style="clip-path:url(#SVGID_00000148622340675581369000000016939574429326690993_);fill:#FFFFFF;" d="M131.8,232.9
						c0.3,0.2,0.5,0.6,0.5,0.9"/>
					
						<path style="clip-path:url(#SVGID_00000148622340675581369000000016939574429326690993_);fill:none;stroke:#000000;stroke-width:0.5;stroke-linecap:round;stroke-linejoin:round;" d="
						M131.8,232.9c0.3,0.2,0.5,0.6,0.5,0.9"/>
					
						<polyline style="clip-path:url(#SVGID_00000148622340675581369000000016939574429326690993_);fill:none;stroke:#000000;stroke-width:0.5;stroke-linecap:round;stroke-linejoin:round;" points="
						132.2,231.7 131.7,232.8 130.8,233.2 					"/>
					<path style="clip-path:url(#SVGID_00000148622340675581369000000016939574429326690993_);fill:#FFFFFF;" d="M131.8,234.2
						c0,0.4-0.3,0.5-0.6,0.3c-0.3-0.2-0.6-0.6-0.6-1c0-0.4,0.2-0.5,0.6-0.3C131.5,233.4,131.8,233.8,131.8,234.2"/>
					
						<path style="clip-path:url(#SVGID_00000148622340675581369000000016939574429326690993_);fill:none;stroke:#000000;stroke-width:0.5;stroke-linecap:round;stroke-linejoin:round;" d="
						M131.8,234.2c0,0.4-0.3,0.5-0.6,0.3c-0.3-0.2-0.6-0.6-0.6-1c0-0.4,0.2-0.5,0.6-0.3C131.5,233.4,131.8,233.8,131.8,234.2z"/>
					
						<polyline style="clip-path:url(#SVGID_00000148622340675581369000000016939574429326690993_);fill:none;stroke:#000000;stroke-width:0.5;stroke-linecap:round;stroke-linejoin:round;" points="
						131.8,234.4 132.3,234 133.5,234.1 					"/>
					
						<line style="clip-path:url(#SVGID_00000148622340675581369000000016939574429326690993_);fill:none;stroke:#000000;stroke-width:0.5;stroke-linecap:round;stroke-linejoin:round;" x1="76.1" y1="161.4" x2="30.1" y2="134.9"/>
					
						<line style="clip-path:url(#SVGID_00000148622340675581369000000016939574429326690993_);fill:none;stroke:#000000;stroke-width:0.5;stroke-linecap:round;stroke-linejoin:round;" x1="76.1" y1="160.1" x2="30.1" y2="133.6"/>
					
						<line style="clip-path:url(#SVGID_00000148622340675581369000000016939574429326690993_);fill:none;stroke:#000000;stroke-width:0.5;stroke-linecap:round;stroke-linejoin:round;" x1="127.9" y1="191.3" x2="82" y2="164.9"/>
					
						<line style="clip-path:url(#SVGID_00000148622340675581369000000016939574429326690993_);fill:none;stroke:#000000;stroke-width:0.5;stroke-linecap:round;stroke-linejoin:round;" x1="127.9" y1="190" x2="82.1" y2="163.6"/>
					
						<path style="clip-path:url(#SVGID_00000148622340675581369000000016939574429326690993_);fill:none;stroke:#000000;stroke-width:0.5;stroke-linecap:round;stroke-linejoin:round;" d="
						M175.6,153.5c0,0.8-0.9,1.5-0.9,1.5l-14.7,8.5c0,0-0.8,0.5-0.8-0.5s0-2.3,0-2.3l-14.6,8.3c0,0-1.3,0.8-1.3-0.8v-30.6
						c0-2.2,1.6-2.7,1.6-2.7l41.9-24.2c0,0,1.8-0.9,1.8,0.6v30.6c0,1.8-1.4,2.6-1.4,2.6l-11.5,6.8
						C175.6,151.2,175.6,152.3,175.6,153.5z"/>
					
						<path style="clip-path:url(#SVGID_00000148622340675581369000000016939574429326690993_);fill:none;stroke:#000000;stroke-width:0.5;stroke-linecap:round;stroke-linejoin:round;" d="
						M144.2,144c0-1.4,1.2-1.9,1.2-1.9l6.2-3.6c0,0,0.9-0.7,0.9,0.9v5.3l-8.3,4.8V144z"/>
					
						<path style="clip-path:url(#SVGID_00000148622340675581369000000016939574429326690993_);fill:none;stroke:#000000;stroke-width:0.5;stroke-linecap:round;stroke-linejoin:round;" d="
						M179.4,123.6c0-1.4,1.2-1.9,1.2-1.9l6.2-3.6c0,0,0.9-0.7,0.9,0.9v5.3l-8.3,4.8V123.6z"/>
					<path style="clip-path:url(#SVGID_00000148622340675581369000000016939574429326690993_);fill:#FFFFFF;" d="M179.5,128.7
						l8.1-4.7c0.1,0,0.2,0,0.3,0c0.2,0.1,0.4,0.5,0.4,0.7c0,0.1,0,0.2-0.1,0.3l-8.1,4.7c0.1,0,0.1-0.1,0.1-0.3
						c0-0.3-0.2-0.6-0.4-0.7C179.7,128.6,179.6,128.6,179.5,128.7"/>
					
						<path style="clip-path:url(#SVGID_00000148622340675581369000000016939574429326690993_);fill:none;stroke:#000000;stroke-width:0.5;stroke-linecap:round;stroke-linejoin:round;" d="
						M179.5,128.7l8.1-4.7c0.1,0,0.2,0,0.3,0c0.2,0.1,0.4,0.5,0.4,0.7c0,0.1,0,0.2-0.1,0.3l-8.1,4.7c0.1,0,0.1-0.1,0.1-0.3
						c0-0.3-0.2-0.6-0.4-0.7C179.7,128.6,179.6,128.6,179.5,128.7z"/>
					<path style="clip-path:url(#SVGID_00000148622340675581369000000016939574429326690993_);fill:#FFFFFF;" d="M180.2,129.4
						c0,0.3-0.2,0.4-0.4,0.3c-0.2-0.1-0.4-0.5-0.4-0.7c0-0.3,0.2-0.4,0.4-0.2C180,128.8,180.2,129.2,180.2,129.4"/>
					
						<path style="clip-path:url(#SVGID_00000148622340675581369000000016939574429326690993_);fill:none;stroke:#000000;stroke-width:0.5;stroke-linecap:round;stroke-linejoin:round;" d="
						M180.2,129.4c0,0.3-0.2,0.4-0.4,0.3c-0.2-0.1-0.4-0.5-0.4-0.7c0-0.3,0.2-0.4,0.4-0.2C180,128.8,180.2,129.2,180.2,129.4z"/>
					
						<polyline style="clip-path:url(#SVGID_00000148622340675581369000000016939574429326690993_);fill:none;stroke:#000000;stroke-width:0.5;stroke-linecap:round;stroke-linejoin:round;" points="
						182.2,127 182.2,124.8 185.2,123.2 185.2,125.4 					"/>
					
						<polyline style="clip-path:url(#SVGID_00000148622340675581369000000016939574429326690993_);fill:none;stroke:#000000;stroke-width:0.5;stroke-linecap:round;stroke-linejoin:round;" points="
						182.2,127 183.5,127.7 183.5,128.2 					"/>
					
						<polyline style="clip-path:url(#SVGID_00000148622340675581369000000016939574429326690993_);fill:none;stroke:#000000;stroke-width:0.5;stroke-linecap:round;stroke-linejoin:round;" points="
						185.2,125.3 186.5,126 186.5,126.5 					"/>
					
						<path style="clip-path:url(#SVGID_00000148622340675581369000000016939574429326690993_);fill:none;stroke:#000000;stroke-width:0.5;stroke-linecap:round;stroke-linejoin:round;" d="
						M174,124.9v4.2c0,6-3.2,7.5-3.2,7.5l-9,5.3c0,0-3.6,1.3-3.6-3.6v-4.5L174,124.9z"/>
					<path style="clip-path:url(#SVGID_00000148622340675581369000000016939574429326690993_);fill:#FFFFFF;" d="M144.3,149l8.1-4.7
						c0.1,0,0.2,0,0.3,0c0.2,0.1,0.4,0.5,0.4,0.7c0,0.1-0.1,0.2-0.1,0.3L145,150c0.1,0,0.1-0.1,0.1-0.3c0-0.3-0.2-0.6-0.4-0.7
						C144.5,149,144.4,148.9,144.3,149"/>
					
						<path style="clip-path:url(#SVGID_00000148622340675581369000000016939574429326690993_);fill:none;stroke:#000000;stroke-width:0.5;stroke-linecap:round;stroke-linejoin:round;" d="
						M144.3,149l8.1-4.7c0.1,0,0.2,0,0.3,0c0.2,0.1,0.4,0.5,0.4,0.7c0,0.1-0.1,0.2-0.1,0.3L145,150c0.1,0,0.1-0.1,0.1-0.3
						c0-0.3-0.2-0.6-0.4-0.7C144.5,149,144.4,148.9,144.3,149z"/>
					<path style="clip-path:url(#SVGID_00000148622340675581369000000016939574429326690993_);fill:#FFFFFF;" d="M145.1,149.8
						c0,0.3-0.2,0.4-0.4,0.3c-0.2-0.1-0.4-0.5-0.4-0.7c0-0.3,0.2-0.4,0.4-0.3C144.9,149.1,145.1,149.5,145.1,149.8"/>
					
						<path style="clip-path:url(#SVGID_00000148622340675581369000000016939574429326690993_);fill:none;stroke:#000000;stroke-width:0.5;stroke-linecap:round;stroke-linejoin:round;" d="
						M145.1,149.8c0,0.3-0.2,0.4-0.4,0.3c-0.2-0.1-0.4-0.5-0.4-0.7c0-0.3,0.2-0.4,0.4-0.3C144.9,149.1,145.1,149.5,145.1,149.8z"/>
					
						<polyline style="clip-path:url(#SVGID_00000148622340675581369000000016939574429326690993_);fill:none;stroke:#000000;stroke-width:0.5;stroke-linecap:round;stroke-linejoin:round;" points="
						146.9,147.4 146.9,145.2 149.9,143.6 149.9,145.8 					"/>
					
						<line style="clip-path:url(#SVGID_00000148622340675581369000000016939574429326690993_);fill:none;stroke:#000000;stroke-width:0.5;stroke-linecap:round;stroke-linejoin:round;" x1="146.9" y1="147.4" x2="148.2" y2="148.1"/>
					
						<line style="clip-path:url(#SVGID_00000148622340675581369000000016939574429326690993_);fill:none;stroke:#000000;stroke-width:0.5;stroke-linecap:round;stroke-linejoin:round;" x1="149.9" y1="145.7" x2="151.2" y2="146.4"/>
					
						<line style="clip-path:url(#SVGID_00000148622340675581369000000016939574429326690993_);fill:#FFFFFF;" x1="153.5" y1="156.5" x2="154.1" y2="155.3"/>
					
						<line style="clip-path:url(#SVGID_00000148622340675581369000000016939574429326690993_);fill:none;stroke:#000000;stroke-width:0.5;stroke-linecap:round;stroke-linejoin:round;" x1="153.5" y1="156.5" x2="154.1" y2="155.3"/>
					
						<line style="clip-path:url(#SVGID_00000148622340675581369000000016939574429326690993_);fill:none;stroke:#000000;stroke-width:0.5;stroke-linecap:round;stroke-linejoin:round;" x1="153.5" y1="156.5" x2="154.7" y2="155.8"/>
					<polyline style="clip-path:url(#SVGID_00000148622340675581369000000016939574429326690993_);fill:#F1F2F2;" points="
						191,135.6 180.7,129.7 188.6,125.1 203.3,133.5 159.6,158.4 145.4,150.3 153.5,145.6 163.8,151.4 					"/>
					
						<polyline style="clip-path:url(#SVGID_00000148622340675581369000000016939574429326690993_);fill:none;stroke:#000000;stroke-width:0.5;stroke-linecap:round;stroke-linejoin:round;" points="
						191,135.6 180.7,129.7 188.6,125.1 203.3,133.5 159.6,158.4 145.4,150.3 153.5,145.6 163.8,151.4 					"/>
					
						<path style="clip-path:url(#SVGID_00000148622340675581369000000016939574429326690993_);fill:none;stroke:#000000;stroke-width:0.5;stroke-linecap:round;stroke-linejoin:round;" d="
						M189,134.4l3.1-1.8c0,0,0.3-0.5-0.3-0.9c-0.7-0.5-1.4-0.1-1.4-0.1l-3.1,1.8"/>
					<path style="clip-path:url(#SVGID_00000148622340675581369000000016939574429326690993_);fill:#F1F2F2;" d="M158.3,151.6
						l-0.7-0.5c0,0,1.4-3.2,2.3-4.2c0.9-1,1.8-1.4,1.8-1.4l5.3-3c0,0,1.5,0.3,1.4,1.3l-3.1,5.6l15.1-8.6l3.7-6.7
						c0,0,0.6-1.7,2.4-2.6l5-3.1c0,0,1.6-0.1,1.2,1.3l-1.4,2.6l-2.8,2l-2.2,4.2l-22.6,12.9l-1.4-1.1l0.3-0.7L158.3,151.6z"/>
					
						<path style="clip-path:url(#SVGID_00000148622340675581369000000016939574429326690993_);fill:none;stroke:#000000;stroke-width:0.5;stroke-linecap:round;stroke-linejoin:round;" d="
						M157.6,150.6l-0.8,0.5c0,0-0.3,0.4,0.4,0.8c0.7,0.4,1.3,0.2,1.3,0.2l3.1-1.8"/>
					
						<path style="clip-path:url(#SVGID_00000148622340675581369000000016939574429326690993_);fill:none;stroke:#000000;stroke-width:0.5;stroke-linecap:round;stroke-linejoin:round;" d="
						M162.2,149.7l-3.9,2c0,0,1.3-2.5,1.7-3.1c0.8-1.4,2-2,2-2l5.6-3.2c0,0,1-0.4,0.4,1.1c-0.1,0.3-2.7,5.1-2.9,5.3
						c-0.8,1.5-0.1,1.1-0.1,1.1l16-9.4c0,0,0.4-0.3,1.2-1.9c0.3-0.6,2.3-4.3,2.8-5.2c0.9-1.7,1.9-2.1,1.9-2.1l5.3-3.1
						c0,0,0.8-0.3,0.5,0.5c-0.1,0.3-1.5,2.8-1.5,2.8l-2.7,1.6l-2.3,4.2"/>
					
						<path style="clip-path:url(#SVGID_00000148622340675581369000000016939574429326690993_);fill:none;stroke:#000000;stroke-width:0.5;stroke-linecap:round;stroke-linejoin:round;" d="
						M158.3,151.7l-0.8-0.7c0,0,1.3-2.5,1.7-3.1c0.8-1.4,2-2,2-2l5.7-3.2c0,0,0.9-0.4,1.3,0.8"/>
					
						<line style="clip-path:url(#SVGID_00000148622340675581369000000016939574429326690993_);fill:none;stroke:#000000;stroke-width:0.5;stroke-linecap:round;stroke-linejoin:round;" x1="161.5" y1="150.3" x2="162.2" y2="149.7"/>
					<polyline style="clip-path:url(#SVGID_00000148622340675581369000000016939574429326690993_);fill:#F1F2F2;" points="
						190.9,135.7 190.4,137.6 166.4,151.4 163.8,151.4 					"/>
					
						<polyline style="clip-path:url(#SVGID_00000148622340675581369000000016939574429326690993_);fill:none;stroke:#000000;stroke-width:0.5;stroke-linecap:round;stroke-linejoin:round;" points="
						190.9,135.7 190.4,137.6 166.4,151.4 163.8,151.4 					"/>
					
						<line style="clip-path:url(#SVGID_00000148622340675581369000000016939574429326690993_);fill:none;stroke:#000000;stroke-width:0.5;stroke-linecap:round;stroke-linejoin:round;" x1="190.8" y1="135.8" x2="163.8" y2="151.4"/>
					
						<path style="clip-path:url(#SVGID_00000148622340675581369000000016939574429326690993_);fill:none;stroke:#000000;stroke-width:0.5;stroke-linecap:round;stroke-linejoin:round;" d="
						M165.2,149.6l15.1-8.8c0,0,0.4-0.3,1.2-2c0.3-0.6,2.3-4.3,2.8-5.2c0.8-1.6,1.9-2.1,1.9-2.1l5.3-3.1c0,0,1.1-0.3,1.3,0.7"/>
					
						<line style="clip-path:url(#SVGID_00000148622340675581369000000016939574429326690993_);fill:none;stroke:#000000;stroke-width:0.5;stroke-linecap:round;stroke-linejoin:round;" x1="161" y1="146" x2="161.8" y2="146.5"/>
					
						<line style="clip-path:url(#SVGID_00000148622340675581369000000016939574429326690993_);fill:none;stroke:#000000;stroke-width:0.5;stroke-linecap:round;stroke-linejoin:round;" x1="159.6" y1="147.7" x2="160.3" y2="148.1"/>
					
						<line style="clip-path:url(#SVGID_00000148622340675581369000000016939574429326690993_);fill:none;stroke:#000000;stroke-width:0.5;stroke-linecap:round;stroke-linejoin:round;" x1="186.1" y1="131.7" x2="186.8" y2="132.1"/>
					
						<line style="clip-path:url(#SVGID_00000148622340675581369000000016939574429326690993_);fill:none;stroke:#000000;stroke-width:0.5;stroke-linecap:round;stroke-linejoin:round;" x1="184.5" y1="133.4" x2="185.2" y2="133.8"/>
					<use xlink:href="#SVGID_1_"  style="overflow:visible;fill:none;stroke:#000000;stroke-width:0.5;"/>
				</g>
				<g>
					<path class="st1" d="M247.1,114c0,0.9-1,1.6-1,1.6l-16.6,9.6c0,0-0.9,0.6-0.9-0.6s0-2.6,0-2.6l-16.6,9.4c0,0-1.5,0.9-1.5-0.9
						V95.9c0-2.4,1.8-3,1.8-3l47.4-27.4c0,0,2-1,2,0.7s0,32.5,0,34.6c0,2.1-1.6,2.9-1.6,2.9l-13.1,7.7
						C247.2,111.3,247.1,112.6,247.1,114z"/>
					<path class="st1" d="M245.4,81.6v4.7c0,6.8-3.6,8.5-3.6,8.5l-10.2,6c0,0-4.1,1.5-4.1-4v-5.1L245.4,81.6z"/>
					<polyline class="st13" points="226.1,115.9 221.1,118.7 221.1,105.7 211.7,111.1 211.7,130.2 227.9,120.9 					"/>
					<polyline class="st13" points="261.1,82.6 251.6,88.1 251.6,101.2 					"/>
					<path class="st13" d="M218,97.2l3.9-2.2v22.4l29.1-16.8V78.2l4-2.3v-3.8c0-1.3-1.5-0.5-1.5-0.5l-4.4,2.6c0,0-2.6,1.1-2.6,5.1
						v7.2c0,7.6-4,9.5-4,9.5l-11.4,6.6c0,0-4.6,1.4-4.6-4.5v-7.6c0-3.9-3.1-1.8-3.1-1.8l-4.2,2.4c0,0-1.3,0.6-1.3,2.4V97.2"/>
					<path class="st1" d="M211.6,103.2c0-1.6,1.3-2.1,1.3-2.1L220,97c0,0,1.1-0.8,1.1,1v6l-9.4,5.5V103.2z"/>
					<path class="st1" d="M251.5,80.1c0-1.6,1.3-2.1,1.3-2.1l7.1-4.1c0,0,1.1-0.8,1.1,1v6l-9.4,5.4V80.1z"/>
					<path class="st7" d="M251.6,85.9l9.2-5.3c0.1-0.1,0.2,0,0.3,0c0.3,0.2,0.5,0.5,0.5,0.8c0,0.2-0.1,0.3-0.1,0.3l-9.2,5.3
						c0.1-0.1,0.1-0.2,0.1-0.3c0-0.3-0.2-0.7-0.5-0.8C251.8,85.8,251.6,85.8,251.6,85.9"/>
					<path class="st1" d="M251.6,85.9l9.2-5.3c0.1-0.1,0.2,0,0.3,0c0.3,0.2,0.5,0.5,0.5,0.8c0,0.2-0.1,0.3-0.1,0.3l-9.2,5.3
						c0.1-0.1,0.1-0.2,0.1-0.3c0-0.3-0.2-0.7-0.5-0.8C251.8,85.8,251.6,85.8,251.6,85.9z"/>
					<path class="st0" d="M252.4,86.8c0,0.3-0.2,0.4-0.5,0.3c-0.3-0.2-0.5-0.5-0.5-0.8c0-0.3,0.2-0.4,0.5-0.3
						C252.2,86.1,252.4,86.5,252.4,86.8"/>
					<path class="st1" d="M252.4,86.8c0,0.3-0.2,0.4-0.5,0.3c-0.3-0.2-0.5-0.5-0.5-0.8c0-0.3,0.2-0.4,0.5-0.3
						C252.2,86.1,252.4,86.5,252.4,86.8z"/>
					<polyline class="st1" points="254.7,84 254.7,81.5 258,79.7 258,82.2 					"/>
					<polyline class="st1" points="254.7,84 256.1,84.8 256.1,85.4 					"/>
					<polyline class="st1" points="258,82.1 259.4,82.9 259.4,83.5 					"/>
					<path class="st7" d="M211.8,108.9l9.2-5.3c0.1-0.1,0.2,0,0.3,0c0.3,0.2,0.5,0.5,0.5,0.8c0,0.2,0,0.3-0.1,0.3l-9.2,5.3
						c0.1,0,0.1-0.2,0.1-0.3c0-0.3-0.2-0.7-0.5-0.8C212,108.8,211.9,108.8,211.8,108.9"/>
					<path class="st1" d="M211.8,108.9l9.2-5.3c0.1-0.1,0.2,0,0.3,0c0.3,0.2,0.5,0.5,0.5,0.8c0,0.2,0,0.3-0.1,0.3l-9.2,5.3
						c0.1,0,0.1-0.2,0.1-0.3c0-0.3-0.2-0.7-0.5-0.8C212,108.8,211.9,108.8,211.8,108.9z"/>
					<path class="st0" d="M212.6,109.8c0,0.3-0.2,0.4-0.5,0.3c-0.3-0.2-0.5-0.5-0.5-0.8c0-0.3,0.2-0.4,0.5-0.3
						C212.4,109.1,212.6,109.4,212.6,109.8"/>
					<path class="st1" d="M212.6,109.8c0,0.3-0.2,0.4-0.5,0.3c-0.3-0.2-0.5-0.5-0.5-0.8c0-0.3,0.2-0.4,0.5-0.3
						C212.4,109.1,212.6,109.4,212.6,109.8z"/>
					<polyline class="st1" points="214.7,107.1 214.7,104.6 218,102.8 218,105.3 					"/>
					<polyline class="st1" points="216.1,108.5 216.1,107.9 214.7,107 					"/>
					<polyline class="st1" points="218.1,105.2 219.5,106 219.5,106.5 					"/>
					<line class="st0" x1="222" y1="117.3" x2="222.7" y2="115.9"/>
					<line class="st1" x1="222" y1="117.3" x2="222.7" y2="115.9"/>
					<line class="st1" x1="222" y1="117.3" x2="223.4" y2="116.5"/>
					<polyline class="st0" points="278.2,91.3 278.2,92 228.8,120.1 212.7,110.9 212.7,110.2 227.1,113.6 					"/>
					<polyline class="st1" points="278.2,91.3 278.2,92.4 228.8,120.6 212.7,111.3 212.7,110.2 227.1,113.6 					"/>
					<polyline class="st2" points="264.4,93.6 252.8,86.9 261.7,81.8 278.3,91.3 228.9,119.4 212.8,110.2 222,104.9 233.6,111.5 
											"/>
					<polyline class="st1" points="264.4,93.6 252.8,86.9 261.7,81.8 278.3,91.3 228.9,119.4 212.8,110.2 222,104.9 233.6,111.5 
											"/>
					<path class="st1" d="M262.1,92.3l3.5-2c0,0,0.3-0.6-0.3-1c-0.8-0.6-1.6-0.1-1.6-0.1l-3.5,2"/>
					<path class="st14" d="M227.4,111.7l-0.8-0.6c0,0,1.5-3.6,2.6-4.7c1-1.1,2-1.5,2-1.5l6-3.4c0,0,1.7,0.3,1.5,1.5l-3.5,6.3
						l17.1-9.7l4.2-7.5c0,0,0.7-2,2.8-3l5.6-3.5c0,0,1.8-0.1,1.3,1.5l-1.5,2.9l-3.2,2.2l-2.5,4.7l-25.5,14.6l-1.6-1.2l0.3-0.8
						L227.4,111.7z"/>
					<path class="st1" d="M226.7,110.5l-1,0.6c0,0-0.3,0.5,0.5,1c0.8,0.5,1.4,0.2,1.4,0.2l3.5-2"/>
					<path class="st1" d="M231.9,109.6l-4.5,2.2c0,0,1.5-2.8,1.9-3.5c1-1.6,2.2-2.3,2.2-2.3l6.4-3.6c0,0,1.1-0.4,0.4,1.3
						c-0.2,0.4-3.1,5.7-3.2,6c-0.9,1.7-0.1,1.2-0.1,1.2l18.1-10.6c0,0,0.4-0.3,1.4-2.2c0.3-0.7,2.6-4.8,3.1-5.8
						c1-1.9,2.2-2.4,2.2-2.4l6-3.5c0,0,0.9-0.4,0.5,0.5c-0.1,0.3-1.7,3.2-1.7,3.2l-3,1.9l-2.6,4.8"/>
					<path class="st1" d="M227.5,111.8l-0.9-0.8c0,0,1.5-2.8,1.9-3.5c1-1.6,2.2-2.3,2.2-2.3l6.4-3.6c0,0,1-0.4,1.5,0.9"/>
					<line class="st1" x1="231" y1="110.2" x2="231.9" y2="109.6"/>
					<polyline class="st14" points="264.2,93.8 233.7,111.5 236.6,111.5 263.7,95.9 264.3,93.7 					"/>
					<polyline class="st1" points="264.2,93.8 233.7,111.5 236.6,111.5 263.7,95.9 264.3,93.7 					"/>
					<path class="st1" d="M235.3,109.5l17-10c0,0,0.5-0.3,1.4-2.2c0.3-0.7,2.6-4.8,3.1-5.8c0.9-1.8,2.2-2.4,2.2-2.4l6-3.5
						c0,0,1.3-0.3,1.5,0.8"/>
					<line class="st1" x1="230.4" y1="105.4" x2="231.4" y2="106"/>
					<line class="st1" x1="228.9" y1="107.3" x2="229.7" y2="107.8"/>
					<line class="st1" x1="258.9" y1="89.2" x2="259.7" y2="89.7"/>
					<line class="st1" x1="257.1" y1="91.1" x2="257.9" y2="91.6"/>
					<line class="st1" x1="228.8" y1="120.1" x2="228.8" y2="119.4"/>
					<path d="M260.3,108l-5.2-2l-2,6.7l1.3-0.8c0.5,1.9,0.8,3.1,0.8,4.9c0,3.2-1,3.3-2.5,4.9c4.1-0.3,7.1-1.4,7.1-7.2
						c0-1.9-0.3-3.8-0.8-5.8L260.3,108z"/>
					<path class="st15" d="M260.3,108l-5.2-2l-2,6.7l1.3-0.8c0.5,1.9,0.8,3.1,0.8,4.9c0,3.2-1,3.3-2.5,4.9c4.1-0.3,7.1-1.4,7.1-7.2
						c0-1.9-0.3-3.8-0.8-5.8L260.3,108z"/>
					<path d="M248.3,119.9c-0.7-0.4-1.4-0.9-2.1-1.5l-3.6,2.1c0.6,0.5,1.3,0.9,1.9,1.3c3.9,2.2,7.3,1.9,9.3-0.4
						C252.2,121.5,250.3,121,248.3,119.9"/>
					<path d="M259.7,109.9l-4.3-1.6l-1.7,5l1.2-0.7c0.4,1.5,0.6,3,0.6,4.5c0,2.6-0.7,4.7-1.8,6c3.4-0.3,5.6-3.1,5.6-7.9
						c0-1.5-0.2-3.1-0.7-4.7L259.7,109.9z"/>
				</g>
			</g>
		</g>
	</g>
</g>
</svg>
