<?xml version="1.0" encoding="utf-8"?>
<!-- Generator: Adobe Illustrator 19.1.0, SVG Export Plug-In . SVG Version: 6.00 Build 0)  -->
<svg version="1.1" xmlns="http://www.w3.org/2000/svg" xmlns:xlink="http://www.w3.org/1999/xlink" x="0px" y="0px" width="288px"
	 height="360px" viewBox="0 0 288 360" style="enable-background:new 0 0 288 360;" xml:space="preserve">
<style type="text/css">
	.st0{fill:none;stroke:#000000;stroke-width:0.5;stroke-linecap:round;stroke-linejoin:round;stroke-miterlimit:10;}
	.st1{fill:none;stroke:#000000;stroke-width:0.5;stroke-miterlimit:10;}
	.st2{fill:none;stroke:#000000;stroke-width:0.5155;stroke-linecap:round;stroke-linejoin:round;stroke-miterlimit:10;}
	.st3{fill:none;stroke:#000000;stroke-width:0.3992;stroke-linecap:round;stroke-linejoin:round;stroke-miterlimit:10;}
	.st4{fill:#FFFFFF;stroke:#000000;stroke-width:0.5;stroke-linecap:round;stroke-linejoin:round;stroke-miterlimit:10;}
	.st5{fill:none;stroke:#000000;stroke-width:0.3764;stroke-linecap:round;stroke-linejoin:round;stroke-miterlimit:10;}
	.st6{fill:none;stroke:#000000;stroke-width:0.288;stroke-linecap:round;stroke-linejoin:round;stroke-miterlimit:10;}
	.st7{fill:none;stroke:#000000;stroke-width:1.25;stroke-linecap:round;stroke-linejoin:round;stroke-miterlimit:10;}
	.st8{fill:none;stroke:#000000;stroke-width:1.125;stroke-linecap:round;stroke-linejoin:round;stroke-miterlimit:10;}
	.st9{fill:none;stroke:#000000;stroke-width:0.25;stroke-linecap:round;stroke-linejoin:round;stroke-miterlimit:10;}
	.st10{fill:none;stroke:#000000;stroke-width:0.4338;stroke-linecap:round;stroke-linejoin:round;stroke-miterlimit:10;}
	.st11{fill:none;stroke:#000000;stroke-width:0.3709;stroke-linecap:round;stroke-linejoin:round;stroke-miterlimit:10;}
	.st12{fill:none;stroke:#000000;stroke-width:0.3819;stroke-linecap:round;stroke-linejoin:round;stroke-miterlimit:10;}
	.st13{fill:none;stroke:#000000;stroke-width:0.3598;stroke-linecap:round;stroke-linejoin:round;stroke-miterlimit:10;}
	.st14{fill:#D1D3D4;}
	.st15{fill:none;stroke:#000000;stroke-width:0.3263;stroke-linecap:round;stroke-linejoin:round;stroke-miterlimit:10;}
	.st16{clip-path:url(#SVGID_2_);}
	.st17{clip-path:url(#SVGID_4_);}
	.st18{fill:#D1D3D4;stroke:#000000;stroke-width:0.2773;stroke-linecap:round;stroke-linejoin:round;stroke-miterlimit:10;}
	.st19{fill:#FFFFFF;stroke:#000000;stroke-width:0.3263;stroke-linecap:round;stroke-linejoin:round;stroke-miterlimit:10;}
	.st20{fill:#D1D3D4;stroke:#000000;stroke-width:0.2743;stroke-linecap:round;stroke-linejoin:round;stroke-miterlimit:10;}
	.st21{fill:#D1D3D4;stroke:#000000;stroke-width:0.3263;stroke-linecap:round;stroke-linejoin:round;stroke-miterlimit:10;}
	.st22{fill:none;stroke:#000000;stroke-width:0.2832;stroke-linecap:round;stroke-linejoin:round;stroke-miterlimit:10;}
	.st23{fill:#FFFFFF;stroke:#000000;stroke-width:0.2743;stroke-linecap:round;stroke-linejoin:round;stroke-miterlimit:10;}
	.st24{fill:none;stroke:#000000;stroke-width:0.2743;stroke-linecap:round;stroke-linejoin:round;stroke-miterlimit:10;}
	.st25{fill:#D1D3D4;stroke:#000000;stroke-width:0.35;stroke-linecap:round;stroke-linejoin:round;stroke-miterlimit:10;}
	.st26{fill:#FFFFFF;}
	.st27{fill:#FFFFFF;stroke:#000000;stroke-width:0.3819;stroke-linecap:round;stroke-linejoin:round;stroke-miterlimit:10;}
	.st28{fill:#CCCCCC;}
	.st29{fill:#CCCCCC;stroke:#000000;stroke-width:0.2773;stroke-linecap:round;stroke-linejoin:round;stroke-miterlimit:10;}
	.st30{fill:#CCCCCC;stroke:#000000;stroke-width:0.2743;stroke-linecap:round;stroke-linejoin:round;stroke-miterlimit:10;}
	.st31{fill:#CCCCCC;stroke:#000000;stroke-width:0.3263;stroke-linecap:round;stroke-linejoin:round;stroke-miterlimit:10;}
	.st32{fill:#CCCCCC;stroke:#000000;stroke-width:0.35;stroke-linecap:round;stroke-linejoin:round;stroke-miterlimit:10;}
	.st33{fill:#FFFFFF;stroke:#FFFFFF;}
	.st34{clip-path:url(#SVGID_6_);}
	.st35{fill:none;stroke:#000000;stroke-width:0.6576;stroke-linecap:round;stroke-linejoin:round;stroke-miterlimit:10;}
	.st36{fill:none;stroke:#000000;stroke-width:0.6576;stroke-miterlimit:10;}
	.st37{fill:none;stroke:#000000;stroke-width:0.6332;stroke-linecap:round;stroke-linejoin:round;stroke-miterlimit:10;}
	.st38{fill:#2E2A25;}
	.st39{fill:none;stroke:#FFFFFF;stroke-width:2.6305;stroke-linecap:round;stroke-linejoin:round;}
	.st40{fill:none;stroke:#FFFFFF;stroke-width:2.5;stroke-linecap:round;stroke-linejoin:round;}
	.st41{fill:#FFFFFF;stroke:#000000;stroke-width:0.5;stroke-linecap:round;stroke-linejoin:round;}
	.st42{fill:none;stroke:#000000;stroke-width:0.5;stroke-linecap:round;stroke-linejoin:round;}
</style>
<g id="BASE_UNIT">
	<polyline class="st0" points="225.6,106.1 229.3,106.5 230.9,99.3 229.9,97.4 229.1,98.5 227.4,97.6 	"/>
	<path class="st0" d="M229.3,106.5c0,0,0.4-1.7-1.5-1.2l1.4-7.1"/>
	<polyline class="st0" points="110.1,35.8 108.7,33.3 108.2,33 109.1,28.6 109.9,28.5 110.1,27.5 111.6,27.5 	"/>
	<polyline class="st0" points="230.4,80.1 229.3,78.2 227.4,87.2 228.1,90.6 	"/>
	<path class="st1" d="M216.4,151.4l22.8-118.2l-5.5-0.4l2.5-14.8l-1.1-1.3l-12.5-1.7c-2.3,0-6.3-1.1-6.6-4.9s-4.4-4.7-4.4-4.7
		l-26.6-3.2c-4.9-1.3-8,2.3-8,2.3c-2.5,4.9-5.9,4-5.9,4L117,2L90.8,132.3l1.2,1.4l16.6,1.7l-1.2,9.1l2.7,1.9L212,159.2L216.4,151.4z
		"/>
	<path class="st0" d="M212,159.2c0,0-49.4,98.3-51.7,105.1c-2.3,6.8-6,5.4-6,5.4l-10.5-1.4l-1.7,4.3l79.8,9.9c0,0,6.8-13.2,9.3-17.6
		s0.6-3.7-3.1-6.2c-3.7-2.5-1.5-1.9-0.4-5.6c1.2-3.7,4.3-4.6,4.3-4.6s1.7,0,4.8-0.2c3.1-0.2,4.5-4.3,4.5-4.3s10.1-19.4,13.2-26.7
		s3.9-5.8-0.2-8.7c-4.1-2.9-3.1-0.6-1.2-5.8c1.9-5.2,4.6-4.8,4.6-4.8c8.1-0.2,7.7-2.5,7.7-2.5l6.9-14.4l3.3,0.4l-0.5,32.2
		l-50.9,101.2c0,0,0.2-17,0-19.9c-0.2-2.9-0.8-4.5-0.8-4.5c0.2-2.9-0.8-4.3-0.8-4.3L25.2,261l-2.8,4.8l-0.1,0.3l-0.8,11.2"/>
	<polyline class="st0" points="216.8,150.7 218.2,148.4 277.8,155.9 277.8,157.3 282.3,157.5 282.5,158.8 285.6,159.8 285.4,169.3 
		286.3,170.6 286.3,187.1 285.9,188.6 275.5,210.9 	"/>
	<path class="st0" d="M222.3,163.1c0,0,1-4.5,8.1-3.7c7.2,0.8,31.7,4.1,31.7,4.1s7-0.6,4.8,4.3c-2.1,4.8-4.1,6.8-4.1,6.8
		s0,1.4,2.1,3.1c2.1,1.7,2.5,0.6,1,3.9c-1.5,3.3-5.6,1.9-5.6,1.9l-2.1,0.4l-42.8,86.9c0,0-1.7,4.5-8.7,2.9c-7-1.5-32.1-3.9-32.1-3.9
		s-5.8-0.6-3.1-5.4C174.3,259.5,222.3,163.1,222.3,163.1z"/>
	<line class="st1" x1="256.3" y1="209.1" x2="261.7" y2="197.1"/>
	<line class="st1" x1="230.4" y1="259.9" x2="236.8" y2="248.2"/>
	<polyline class="st0" points="277.8,156.7 275.2,161.6 275.8,180.2 	"/>
	<path class="st0" d="M285.3,160l-1.5,3.3c0,0-0.1,0.8-1.8,0.5c-1.7-0.3-1.5,1.4-1.6,2.6c-0.1,1.2,0.1,11.9,0.1,11.9l1.2,4.6
		l1.9,0.7l-7.9,16"/>
	<polyline class="st0" points="274.4,180.7 274.9,180.2 278.6,180.7 	"/>
	
		<ellipse transform="matrix(0.9965 8.363634e-02 -8.363634e-02 0.9965 16.3941 -22.6187)" class="st2" cx="278.2" cy="184.4" rx="0.8" ry="3.7"/>
	<line class="st2" x1="277.6" y1="188.1" x2="275.8" y2="187.7"/>
	<polyline class="st2" points="273.2,179.9 272.9,171.9 268.8,179.7 271.6,180.2 272,181 	"/>
	<ellipse class="st2" cx="224.8" cy="152.1" rx="2.3" ry="1.2"/>
	<polyline class="st0" points="22.4,265.8 25.6,266.1 25.4,269.3 216.3,293 	"/>
	<line class="st0" x1="29.8" y1="292" x2="208.5" y2="314.3"/>
	<polygon class="st0" points="63.3,293.1 36.2,289.6 36.2,283.3 63.3,286.8 	"/>
	<polygon class="st0" points="74.9,294.2 65.7,293.1 65.7,279.3 74.9,280.5 	"/>
	<polygon class="st0" points="86.7,295.6 77.5,294.4 77.5,280.7 86.7,281.8 	"/>
	<polygon class="st0" points="98.5,296.9 89.3,295.8 89.3,282 98.5,283.2 	"/>
	<polygon class="st0" points="111.7,298.3 101.3,297.1 101.3,282.6 111.7,283.8 	"/>
	<polygon class="st0" points="123.9,299.9 113.7,298.6 113.7,290.7 123.9,292.1 	"/>
	<polygon class="st0" points="136.5,301.4 125.5,300 125.5,288.1 136.5,289.5 	"/>
	<line class="st3" x1="43.1" y1="284.3" x2="43.1" y2="290.3"/>
	<line class="st3" x1="49.8" y1="285" x2="49.8" y2="291.4"/>
	<line class="st3" x1="56.6" y1="286" x2="56.6" y2="292"/>
	<line class="st3" x1="30.8" y1="270.4" x2="30.9" y2="292.1"/>
	<line class="st3" x1="154.2" y1="285.4" x2="154.1" y2="306.9"/>
	<path class="st4" d="M143.3,288.5c-0.2,1.7-1.9,2.8-3.8,2.5c-1.9-0.3-3.3-2-3.2-3.7s1.9-2.8,3.8-2.5
		C142,285.1,143.5,286.7,143.3,288.5z"/>
	<path class="st4" d="M142.5,290.2c-0.2,1.7-1.9,2.8-3.8,2.5c-1.9-0.3-3.3-2-3.2-3.7c0.2-1.7,1.9-2.8,3.8-2.5
		C141.3,286.8,142.7,288.5,142.5,290.2z"/>
	<polyline class="st5" points="156.8,285.9 156.9,298.3 154.3,303.9 208.8,310.5 	"/>
	<line class="st5" x1="157.3" y1="288.6" x2="216.3" y2="296"/>
	<line class="st5" x1="157.1" y1="296.4" x2="212.4" y2="303.3"/>
	<path class="st5" d="M157.2,307.5c0,0,0-2.4,2-2.1c2,0.3,49.3,6.3,49.3,6.3"/>
	<path class="st6" d="M210.6,302.5l-49.5-6.4c-0.7,0-1.3-0.6-1.3-1.3v-4c0-0.7,0.6-1.3,1.3-1.3l49.5,6.4c0.7,0,1.3,0.6,1.3,1.3v4
		C211.8,302,211.2,302.5,210.6,302.5z"/>
	<path class="st0" d="M221.9,282.5l2.4,0.4c0,0,1.8,0.2,0.4,1.3l-2.1-0.2l-0.8,1.7"/>
	<polyline class="st0" points="154.2,269.7 154.1,262.8 154.1,262.8 180.2,211.1 185.7,211.8 	"/>
	<line class="st0" x1="160.4" y1="263.9" x2="154.1" y2="263.1"/>
	<polygon class="st0" points="124.2,205.6 130.5,192.7 138.9,193.8 140.6,190.8 156.9,192.7 155.4,195.6 163.7,196.8 157.4,210 
		148.9,208.8 147.3,211.9 130.8,209.9 132.3,206.8 	"/>
	<polyline class="st0" points="114.3,264.6 120,253.9 123,254.2 124.5,251.7 138.6,253.6 138.9,264 	"/>
	<polyline class="st0" points="83.6,260.6 83.5,256.8 88.9,246 92.2,246.4 93.6,243.7 107.7,245.5 107.7,256.5 104.2,263 	"/>
	<polyline class="st0" points="106,263.2 108.9,258.2 108.8,255.9 108,255.8 	"/>
	<line class="st0" x1="138.6" y1="264" x2="137.1" y2="266.9"/>
	<polyline class="st0" points="138.7,267.4 139.8,265.1 140.1,263.1 139.3,263 	"/>
	<polyline class="st0" points="67,258.3 66.6,249.1 52.3,247.2 50.7,250.4 47.6,250 44.8,255.1 	"/>
	<line class="st0" x1="48" y1="249.6" x2="57.3" y2="231.3"/>
	<path class="st0" d="M30.9,261.2l-0.2-2.5l2.4-4.6l102.5,13.4l0.4-0.5l4,0.6l-1.1,2.2c0,0,3.2-0.1,3.2,2.9"/>
	<path class="st0" d="M26,260.9c0,0,0.1-1.5,1.2-3.6c1.1-2,24.3-48.5,24.3-48.5l1-0.2l0.4-0.7l2.1,0.4"/>
	<path class="st0" d="M34,254.2l21.1-42.3c0,0,0.7-1.2-0.3-2.9c0,0-1.3-2.4,0-5.3c0,0-1.5-0.7-0.7-2.3c0.8-1.6,1.7-3.8,1.7-3.8
		s0.4-0.5,2.1-0.9s0.9-1.3,0.9-1.8s1.3-2.7,1.3-2.7s0.5-0.6,1.2-0.3s-0.3-0.5,0.3-2.1s4.1-8.3,4.1-8.3"/>
	<path class="st0" d="M70.8,173.8c0,0-0.4-2.3,0.8-4.2s5.9-11.6,5.9-11.6l-0.3-2.9l2.6-5.3c0,0,1.7,0.4,2.9-1.9"/>
	<path class="st0" d="M84.4,147c0,0-0.3-2.8,0.8-4.7c1.1-1.9,3.2-7.1,3.2-7.1s0.2-1.2,2.5-0.9l1-0.3"/>
	<ellipse class="st0" cx="102.4" cy="137.6" rx="2.3" ry="1"/>
	<ellipse class="st0" cx="93.5" cy="135.8" rx="2.3" ry="1"/>
	<line class="st0" x1="108.2" y1="156.8" x2="206.9" y2="169.1"/>
	<polygon class="st0" points="108.6,157.7 106.1,162.7 111.9,163.6 114.6,158.3 	"/>
	<polyline class="st0" points="106.1,162.7 105.5,171.4 111.6,172.3 111.9,163.6 	"/>
	<polyline class="st0" points="106,171.8 106,173.5 111.4,174.4 114.7,167.9 115.7,168.3 117,165.8 116.8,158 	"/>
	<line class="st0" x1="111.4" y1="172.1" x2="111.4" y2="174.4"/>
	<line class="st0" x1="135.5" y1="283.2" x2="135.5" y2="288.6"/>
	<polyline class="st0" points="142.5,290.7 147.6,291.2 147.7,284.3 	"/>
	<polyline class="st7" points="183.4,210.7 156.9,263.5 156.9,268.8 	"/>
	<polyline class="st8" points="108.1,182.1 88,222 88,230.4 	"/>
	<polyline class="st8" points="114.5,182.4 94.5,222.3 94.5,230.7 	"/>
	<polyline class="st8" points="120.5,183.4 100.5,223.3 100.5,231.7 	"/>
	<polyline class="st8" points="126.7,184.3 106.7,224.1 106.7,232.6 	"/>
	<line class="st0" x1="115.7" y1="168.3" x2="139.3" y2="171.2"/>
	<path class="st0" d="M139.9,169.3l-18.1-2.3c0,0-3.2,0.2-3.4,1.5"/>
	<line class="st0" x1="124.2" y1="205.6" x2="124.6" y2="226.2"/>
	<line class="st0" x1="130.8" y1="209.9" x2="131.3" y2="230"/>
	<line class="st0" x1="147.3" y1="211.9" x2="147.5" y2="231.8"/>
	<line class="st0" x1="149.4" y1="209" x2="149.6" y2="223.3"/>
	<line class="st0" x1="157.4" y1="210" x2="157.3" y2="229.7"/>
	<line class="st0" x1="163.7" y1="196.8" x2="164.2" y2="215.4"/>
	<polyline class="st0" points="124.3,224 122.3,228.6 155.1,233.3 165.8,213.4 164.2,213 	"/>
	<polyline class="st0" points="165.8,213.4 166.3,214.9 154.9,234.9 122.1,230.4 122.3,228.6 	"/>
	<polyline class="st0" points="139.6,267.1 143.5,259 150.6,260.1 151.8,257.4 156,258.1 	"/>
	<polyline class="st0" points="190.8,200.5 178.5,198.6 177.6,200.4 171.8,212.8 	"/>
	<line class="st0" x1="190.2" y1="202.4" x2="177.6" y2="200.5"/>
	<polyline class="st0" points="156.5,237.5 161.5,227.9 170.8,228.9 	"/>
	<polyline class="st0" points="174.3,214.9 174.5,213.5 169.6,212.8 168.7,215.1 177,216.3 	"/>
	<polyline class="st0" points="174.5,221.4 169,220.7 168.7,215.1 	"/>
	<g>
		<polygon class="st0" points="89,231 85.3,230.5 84,233.4 83.8,236.8 85.3,239.7 85.4,242.4 89.3,242.9 89,240 87.6,237.6 
			87.7,234 		"/>
		<line class="st0" x1="84.5" y1="233.6" x2="87.7" y2="234"/>
		<line class="st0" x1="84.1" y1="237.2" x2="87.3" y2="237.6"/>
		<line class="st0" x1="85.3" y1="239.4" x2="88.5" y2="239.8"/>
	</g>
	<polyline class="st0" points="89,231 89.2,238.7 90.8,239.8 89.3,242.9 	"/>
	<line class="st0" x1="89" y1="240" x2="89.2" y2="238.7"/>
	<g>
		<polygon class="st0" points="95.4,231.7 91.6,231.3 90.3,234.2 90.2,237.5 91.6,240.4 91.8,243.2 95.7,243.6 95.4,240.7 94,238.4 
			94.1,234.7 		"/>
		<line class="st0" x1="90.9" y1="234.3" x2="94.1" y2="234.7"/>
		<line class="st0" x1="90.5" y1="237.9" x2="93.7" y2="238.4"/>
		<line class="st0" x1="91.6" y1="240.1" x2="94.8" y2="240.5"/>
	</g>
	<polyline class="st0" points="95.4,231.7 95.6,239.4 97.2,240.5 95.7,243.6 	"/>
	<g>
		<polygon class="st0" points="101.5,232.4 97.7,232 96.4,234.9 96.3,238.2 97.7,241.1 97.9,243.9 101.8,244.3 101.5,241.4 
			100.1,239.1 100.2,235.5 		"/>
		<line class="st0" x1="97" y1="235" x2="100.2" y2="235.5"/>
		<line class="st0" x1="96.6" y1="238.7" x2="99.8" y2="239.1"/>
		<line class="st0" x1="97.7" y1="240.8" x2="100.9" y2="241.3"/>
	</g>
	<polyline class="st0" points="101.5,232.4 101.7,240.1 103.3,241.3 101.8,244.3 	"/>
	<g>
		<polygon class="st0" points="107.9,233.3 104.1,232.9 102.8,235.8 102.7,239.1 104.1,242 104.3,244.8 108.2,245.2 107.9,242.3 
			106.5,240 106.6,236.3 		"/>
		<line class="st0" x1="103.4" y1="235.9" x2="106.6" y2="236.3"/>
		<line class="st0" x1="103" y1="239.5" x2="106.2" y2="240"/>
		<line class="st0" x1="104.1" y1="241.7" x2="107.3" y2="242.1"/>
	</g>
	<polyline class="st0" points="107.9,233.3 108.1,241 109.6,242.1 108.2,245.2 	"/>
	<line class="st0" x1="95.4" y1="240.4" x2="95.6" y2="239.1"/>
	<line class="st0" x1="85.8" y1="229.1" x2="90.3" y2="229.5"/>
	<g>
		<polyline class="st0" points="86,230 85.8,221.4 105.7,182 110.4,182.6 110.5,184.8 		"/>
		<polyline class="st0" points="90.6,232.7 90.3,222 110.1,183.3 		"/>
		<line class="st0" x1="85.8" y1="221.5" x2="90.3" y2="222"/>
		<line class="st0" x1="86" y1="229.2" x2="90.5" y2="229.7"/>
	</g>
	<g>
		<polyline class="st0" points="92.1,230.7 91.9,222.1 111.8,182.8 116.5,183.3 116.6,185.5 		"/>
		<polyline class="st0" points="96.7,233.4 96.4,222.7 116.2,184.1 		"/>
		<line class="st0" x1="91.9" y1="222.3" x2="96.4" y2="222.7"/>
		<line class="st0" x1="92.1" y1="230" x2="96.6" y2="230.4"/>
	</g>
	<g>
		<polyline class="st0" points="98.2,231.3 98,222.7 117.9,183.3 122.6,183.9 122.7,186.1 		"/>
		<polyline class="st0" points="102.8,234 102.5,223.3 122.3,184.7 		"/>
		<line class="st0" x1="98" y1="222.8" x2="102.5" y2="223.3"/>
		<line class="st0" x1="98.2" y1="230.5" x2="102.7" y2="231"/>
	</g>
	<g>
		<polyline class="st0" points="104.6,232.3 104.4,223.7 124.3,184.4 129,184.9 129.2,194.4 		"/>
		<polyline class="st0" points="128.7,185.7 108.9,224.3 109.1,239.4 124.2,209.9 		"/>
		<line class="st0" x1="104.4" y1="223.9" x2="108.9" y2="224.3"/>
		<line class="st0" x1="104.6" y1="231.5" x2="109.1" y2="232"/>
	</g>
	<line class="st0" x1="109.6" y1="242.1" x2="124.2" y2="213.3"/>
	<g>
		<g>
			<path class="st4" d="M125.4,221.8l0,1.7c0,0,0.4,1.1,2.5,1.1c0,0,1.7,0,2.1-1.2v-1.9"/>
			<ellipse class="st4" cx="127.7" cy="221.6" rx="2.3" ry="1.2"/>
			<ellipse class="st4" cx="155.4" cy="246.1" rx="3.4" ry="1.8"/>
		</g>
		<g>
			<g>
				<path class="st0" d="M126,224.1c0,0-1.2,1.1,1.5,1.3c0,0,1.3,0.1,2-0.6"/>
				<path class="st0" d="M126,225.2c0,0-1.2,1.1,1.5,1.3c0,0,1.3,0.1,2-0.6"/>
				<path class="st0" d="M126,226.3c0,0-1.2,1.1,1.5,1.3c0,0,1.3,0.1,2-0.6"/>
				<path class="st0" d="M126,227.4c0,0-1.2,1.1,1.5,1.3c0,0,1.3,0.1,2-0.6"/>
			</g>
			<line class="st9" x1="126.3" y1="224.3" x2="126.5" y2="228.9"/>
			<line class="st9" x1="129.4" y1="224.3" x2="129.5" y2="228.5"/>
		</g>
	</g>
	<g>
		<g>
			<path class="st4" d="M148.9,224.7l0,1.7c0,0,0.4,1.1,2.5,1.1c0,0,1.7,0,2.1-1.2v-1.9"/>
			<ellipse class="st4" cx="151.3" cy="224.5" rx="2.3" ry="1.2"/>
		</g>
		<g>
			<g>
				<path class="st0" d="M149.5,227c0,0-1.2,1.1,1.5,1.3c0,0,1.3,0.1,2-0.6"/>
				<path class="st0" d="M149.5,228.1c0,0-1.2,1.1,1.5,1.3c0,0,1.3,0.1,2-0.6"/>
				<path class="st0" d="M149.5,229.2c0,0-1.2,1.1,1.5,1.3c0,0,1.3,0.1,2-0.6"/>
				<path class="st0" d="M149.5,230.3c0,0-1.2,1.1,1.5,1.3c0,0,1.3,0.1,2-0.6"/>
			</g>
			<line class="st9" x1="149.8" y1="227.2" x2="150" y2="231.8"/>
			<line class="st9" x1="152.9" y1="227.2" x2="153.1" y2="231.4"/>
		</g>
	</g>
	<polyline class="st0" points="107.7,245.5 101.8,256.7 102.1,262.6 	"/>
	<polyline class="st0" points="83.5,256.8 93.8,258.3 94.7,255.9 101.8,256.7 	"/>
	<line class="st0" x1="93.8" y1="258.3" x2="94" y2="261.6"/>
	<line class="st0" x1="66.6" y1="249.1" x2="62.3" y2="257.5"/>
	<polyline class="st0" points="138.6,253.6 133,264.1 126.1,263.1 124.7,265.5 	"/>
	<line class="st0" x1="133" y1="266.8" x2="133" y2="264.1"/>
	<path class="st0" d="M151,245.8l2.9-6.5c0,0,0.7-1.9,3.6-1.2l3.9,0.6c0,0,2-0.1,1.5,2l-3.3,7.3c0,0-1.9,2.2-5.5,1.6
		C154.1,249.6,149.6,249.3,151,245.8z"/>
	<line class="st0" x1="151.8" y1="257.4" x2="150.7" y2="247.7"/>
	<line class="st0" x1="160" y1="251" x2="159.7" y2="248"/>
	<path class="st0" d="M55.4,210.1h0.7l0.4,20.6l3.6,0.4v-8.6c0,0-0.4-4.1,4.8-3.6c0,0,4.9,1.2,4.5,5.1l0.3,8.7l3.3,0.3l0-0.4
		l-0.1-13.5"/>
	<polyline class="st0" points="73.1,232.6 75.1,228.8 75.4,230.8 76.5,228.8 76.5,226 81.2,216.6 80.9,211.2 	"/>
	<polyline class="st0" points="83.7,206 83.8,212.4 84.5,210.1 84.7,212.4 85.8,210.2 85.8,207.2 97.7,183.8 97.7,186 98.9,183.8 
		98.8,181 102.1,174.8 102,169.1 	"/>
	<path class="st0" d="M100.6,150.2l-3,6.8l-0.9-0.3l-0.6,0.6l-14.1-1.7l-13.8,28.6l0.3,0.7l-2.8,5.8l-1,0.1l-4.5,8.7h1.6l-1.6,3.2
		l-1.6-0.3l-2.6,4.6l17.1,2l28.5-56.8C103.1,150,100.6,150.2,100.6,150.2L85,148.5l1.5-2.5l19.3,2.2c0,0,2.2-0.1,2.2,2.2
		s0,6.8,0,6.8l-30.3,60.4c0,0-0.3,1.6-3.8,1.5l-17.3-2"/>
	<line class="st0" x1="64.8" y1="190.9" x2="80.9" y2="192.9"/>
	<polyline class="st0" points="82.5,186.4 72.5,207.6 57.1,205.7 	"/>
	<polyline class="st0" points="72.6,174.6 69.9,174.2 66.4,181 69.3,181.5 	"/>
	<polyline class="st0" points="85,147.8 83.7,147.5 82.9,149.4 82.9,150.7 83.5,150.5 	"/>
	<polyline class="st0" points="85.5,148.9 83.7,152.6 80.9,152.3 79,155.9 81.5,156.1 	"/>
	<polyline class="st0" points="81.3,157.5 86.3,158.2 84.4,161.9 79.6,161.1 	"/>
	<polyline class="st0" points="70.3,180.6 75.2,181.3 73.4,184.9 68.6,184.2 	"/>
	<polygon class="st0" points="94.7,163.2 96.4,159.7 91.6,159.1 90,162.4 	"/>
	<polygon class="st0" points="83.2,186.3 85,182.8 80.2,182.2 78.6,185.5 	"/>
	<polyline class="st0" points="85.3,186 89.2,186.4 89.3,193.8 	"/>
	<polyline class="st0" points="91.4,173 95.4,173.5 95.7,180.6 	"/>
	<polyline class="st0" points="101.4,176.7 102.8,176.7 104.1,175.1 104.3,169.8 105.4,167.8 	"/>
	<polyline class="st0" points="88.9,177.4 85.4,176.8 83.7,180.7 85.7,180.9 86.4,181.8 	"/>
	<line class="st0" x1="86.3" y1="148.9" x2="86.3" y2="155.9"/>
	<line class="st0" x1="83.7" y1="152.6" x2="83.8" y2="155.5"/>
	<ellipse class="st10" cx="60.3" cy="214.4" rx="2.2" ry="1.9"/>
	<line class="st10" x1="79" y1="155.9" x2="78.9" y2="161.9"/>
	<polyline class="st10" points="66.4,181 66.4,183.6 68,185.8 	"/>
	<polyline class="st10" points="59.7,199.5 57.7,199 55.6,202.9 58.1,203.4 	"/>
	<line class="st10" x1="55.6" y1="202.9" x2="56.1" y2="207.2"/>
	<path class="st10" d="M164.2,256.2l1.3,0.2l2.8,0.4c0,0,2,0.4,3-1.9c1-2.3,6.8-14.5,6.8-14.5s1.2-1.2-2.2-2.2l-2.9-0.1"/>
	<line class="st10" x1="174.3" y1="238.8" x2="165.7" y2="255.8"/>
	<path class="st10" d="M175,234l4.9,0.7c0,0,1.2,0.4,2.5-2.2s1.9-4.4,1.9-4.4s1-1-2.2-1.5c-3.2-0.4-3.9-0.3-3.9-0.3"/>
	<line class="st10" x1="177.6" y1="234" x2="180.9" y2="226.9"/>
	<g>
		<path class="st11" d="M21.3,282.9l-0.1-2c0-0.1,0.1-0.1,0.1-0.2c0.2-0.2,0.6-0.3,0.6-0.3l1.6,0.3c0.5,0.2,0.7,0.9,0.7,0.9l0.1,1.5
			c0.2,0,0.4-0.3,0.4-0.3s2.8-5,2.9-5.2s0.4-1.4,0.4-1.4s0-0.9,0-1.4c-0.1-0.5-0.9-0.7-0.9-0.7s-0.9-0.2-1.3-0.2s-0.6,0.2-0.6,0.2
			l-3.8,6.5"/>
		<line class="st11" x1="24.4" y1="281.3" x2="28" y2="274.9"/>
		<line class="st11" x1="22.5" y1="280.9" x2="9.5" y2="303.9"/>
		<line class="st11" x1="23.9" y1="281.4" x2="11.1" y2="304"/>
		<line class="st11" x1="16.2" y1="296.8" x2="16.4" y2="305.5"/>
		<path class="st11" d="M3.9,308.1l1.9-3.5c0,0,0.6-0.8,1.8-0.7c1.2,0,8.1-0.6,14.3,5.4s5,12.8,5,12.8s-1.2,4.1-2.6,6"/>
		<path class="st11" d="M3.7,314.3l-0.1-5c0,0-0.2-1.5,1.6-1.7c1.8-0.2,6.9-0.3,12.4,3.4s8.7,10.6,6.9,16.3c0,0-1.2,4.6-7.5,6.7
			l-4.5-0.2"/>
		<path class="st11" d="M4.7,330.6l0,1.2c0,0,0,0.9,1.2,1.1c1.2,0.2,4.9,0.7,4.9,0.7s3.3,0.4,6-0.8c2.8-1.2,5-2.6,6.3-6.4
			c1.3-3.8-0.3-10.9-7.4-15.1c0,0-2.5-1.5-3.9-1.7c0,0-5-0.8-5.6,3.8L6,318.3"/>
		<line class="st11" x1="8.5" y1="320" x2="13.9" y2="310.5"/>
		<path class="st11" d="M6,318.8c0,0,1.3-0.8,2.3,0.6l0.5,2.2l2.5-4.5c0,0-0.1-2.2-0.1-2.7s-0.3-1-0.3-1c-0.8-1.1-1.8-0.3-1.8-0.3
			l-3.5,6.2"/>
		<path class="st11" d="M5.6,319.6l0.8,0.2c0,0,0.5-0.9,1.1-0.3l0.5,1.8c0,0-0.8,0.7-1.2,0.7c0,0,1.3,1,2-0.2"/>
		<line class="st11" x1="11.1" y1="317.7" x2="14.9" y2="311"/>
		<path class="st11" d="M5.1,316.3l0.3-1.7c0,0-0.2-1.2-1.5-0.6c0,0-1.5,1.3-2,5.1c0,0-0.2,1.6-0.3,2.5c-0.1,0.8,0.2,7.8,0.2,7.8
			s0.5,3.5,2.5,1.7"/>
		<path class="st11" d="M5.3,314.8c0,0-0.6,0.2-1.2,2c-0.6,1.8-0.9,4.8-0.8,6.2c0,1.4-0.2,7.8,0.8,7.9c0,0,1.2,0.3,2.3-5.7l0.5,3.9
			l0.5-0.8c0,0,0-3,0.9-4.4c0.1-0.2,0.2-0.3,0.3-0.4c0,0,0.8-0.3,0.7,1.4l0.5-0.7l0.2-2.8l5.7-10"/>
		<path class="st11" d="M9.1,325l-0.7,0c0,0,0-0.9-0.2-1.1"/>
		<line class="st11" x1="4.6" y1="331.8" x2="6.8" y2="328.9"/>
		<path class="st11" d="M7,328.9c0,0,0.6,0.5,0.9,0.5c0.3,0,6.1,0.7,6.1,0.7s5.5,0.2,8.8-3.4"/>
		<path class="st11" d="M17.7,306.1l9.5-16.8l0.5-0.2l0.6,0.1c0,0,0.4,0.4,0.2,1.9l-3.8,6.6c0,0-0.4,0.8-1.5,0.3l-4.7,8.5"/>
		<path class="st11" d="M24.6,297.5c0,0-0.2-1.9,0.5-3c0.7-1.1,3-5.3,3-5.3"/>
		<path class="st11" d="M19.5,302.5c0,0,0.2-1.6,0.1-2.6l0.3-0.6l-0.1-9"/>
		<polyline class="st11" points="20.1,297.4 21.6,294.7 21.4,287.3 		"/>
		<line class="st11" x1="23.9" y1="283" x2="11.9" y2="304.1"/>
		<line class="st11" x1="22.6" y1="285.6" x2="22.8" y2="294.4"/>
		<path class="st11" d="M21.7,294.6c0,0,0.9,0.3,1.1-0.3l0.9-1.5l-0.2-9.1"/>
		<line class="st11" x1="23.8" y1="290.1" x2="25.2" y2="290.3"/>
		<path class="st11" d="M23.6,286.7l1.9,0.2l0.1,0.2l-0.3,0.4c0,0-0.2,0.5-0.2,0.9c0,0.5,0,2.2,0,2.2s0,0.4,0.2,0.4s0.7,0.1,0.7,0.1
			"/>
		<path class="st11" d="M24.3,283l0,2.2v1l1.5,0.2c0,0,0.6,0.3,0.6,0.7s-0.4,0.7-0.4,0.7s-0.2,0.5-0.1,0.9c0,0.3,0.1,2.4,0.1,2.4"/>
		<path class="st11" d="M26.9,279l1.3,1.3c0,0,0.4,0.5,0.4,1.3l0.2,0.2v1.4l-0.2,0.2v0.7l-1,1.9l-1.2,0.9"/>
		<path class="st11" d="M26.1,280.3l1.2,1.2c0,0,0.5,0.5,0.5,1.1s0.1,2.8,0.1,2.8"/>
		<line class="st11" x1="26.9" y1="286.6" x2="26.9" y2="289.2"/>
		<path class="st11" d="M25.7,281.6c0,0,1.1,2.5,0.2,4.8"/>
		<line class="st11" x1="8.4" y1="310.3" x2="8.5" y2="314.1"/>
		<line class="st11" x1="5.9" y1="319.9" x2="6" y2="325.3"/>
		<path class="st11" d="M24.6,274.7v-1.7l2.2-3.8c0,0,0.2-0.3,1-0.1c0.8,0.2,0.4,1.2,0.4,1.2l-1.5,2.3c0,0-0.5,0.7-1.3,0.6
			c-0.4-0.1-0.2,0.8-0.2,0.8"/>
	</g>
	<g>
		<path class="st12" d="M201.9,333.2l0.4,23.4c0,0-0.2,1.2-1.5,1.4c-1.2,0.1-3.3,0.3-5.8-0.3s-13.9-4.1-14.6-16.6
			c0,0-1.1-8.9,11.9-14.1c0,0,3-0.7,6.1-0.1s3.8,0.6,3.8,0.6s1.4,0,1.9,1.6l0.6,23.8l-2.2,3.9"/>
		<path class="st12" d="M197.2,355.4c-3.3,2-9-1.7-12.1-5.2c-3.1-3.5-4.5-11.1-0.8-15.2c0.1-0.2,0.3-0.3,0.4-0.4
			c3.8-3.6,10-3.3,10-3.3s4.6,0.7,5.4,0.7s1.1,1.2,1.1,1.2l0.3,17.1c0,0-0.4,2.9-0.9,4s-0.8,2-1.8,0.9c-1-1.1-0.4-11-0.4-11
			s1.1-5.8,2.5-4.9l-0.1-0.4c0,0-1-1.2-1.9-0.3c-0.9,0.9-2.1,5.7-2.1,7.3c0,1.5,0.2,8.1,0.2,8.1s0.4,3.7,2.7,2"/>
		<path class="st12" d="M197,352.1c0,0-5.2-0.3-9.8-5.9c-4.6-5.6-2.5-11.7-2.5-11.7"/>
		<path class="st12" d="M220.5,319.3"/>
		<path class="st12" d="M204.6,347.3"/>
		<polyline class="st12" points="220.5,321.3 224.2,314.9 224.6,314.3 		"/>
		
			<ellipse transform="matrix(0.9937 0.1122 -0.1122 0.9937 36.6337 -21.7608)" class="st12" cx="211.7" cy="314.6" rx="0.7" ry="2.1"/>
		
			<ellipse transform="matrix(0.9937 0.1122 -0.1122 0.9937 37.8645 -21.6981)" class="st12" cx="211.7" cy="325.6" rx="0.7" ry="2.1"/>
	</g>
	<path class="st12" d="M202.1,327.5l6.1-11.6l0.9-4.6c0,0,0.3-1.5,1.1-3c0.8-1.5,7.6-14.7,7.6-14.7l0.4,0.2l0.2,25.4l-7.5,14.1
		c0,0-0.4,1.5-2.2,0.8l-4.3,8.7"/>
	<path class="st12" d="M218.1,304.1c0,0-0.8,0.3-1.1-0.4l-2.5,4.9c0,0,0.2,4.1-0.4,4.7v3.9c0,0,0.5,0.4,0.4,2.4l1.3,0.1l2.5-3.9"/>
	<path class="st12" d="M200.1,331.9c0,0-3.4,5.2-3.1,11.2"/>
	<polyline class="st12" points="157.3,274.6 157.3,275.9 215.4,283.3 215.4,281.8 	"/>
	<ellipse class="st13" cx="164.9" cy="272.3" rx="2.4" ry="1.2"/>
	<ellipse class="st13" cx="207.3" cy="277.7" rx="2.4" ry="1.2"/>
	<polyline class="st13" points="90.5,134.4 88.9,138.9 89.3,145.7 	"/>
	<polyline class="st13" points="105.7,148.2 106.2,139.5 108.6,135.4 	"/>
	<g>
		<g>
			<g>
				<g>
					<path class="st14" d="M137.7,181.3l2.4-4.6c0,0,0.7-0.9,2-0.3l0-0.9l0.3-0.2v-0.6l-0.3-0.3l0-2.9c0,0-1.3-0.7-2.3,0.2l-0.8,1.7
						l-1.5-0.1l-2.2-1.2c0,0-1.9-0.8-2.5,0.5l-0.5,0.9c0,0-0.1,1,1,1.6l0.8,0.6l-0.5,1.1l0,2.3l-0.8,1.4v2.2l1.5,0.2l0,0.8
						c0,0,0.6,0.7,1.4,0.9l0,0.3c0,0,0.4,0.8,2,0.6v-0.6l0.4-0.4v-0.6l-0.3-0.3v-1.9L137.7,181.3z"/>
				</g>
				<g>
					<g>
						<g>
							<g>
								<g>
								</g>
							</g>
							<g>
								<g>
								</g>
							</g>
							<g>
								<g>
									<g>
									</g>
								</g>
								<g>
									<g>
									</g>
								</g>
								<g>
									<g>
									</g>
								</g>
								<g>
									<g>
									</g>
								</g>
								<g>
									<g>
									</g>
								</g>
								<g>
									<g>
									</g>
								</g>
								<g>
									<g>
									</g>
								</g>
							</g>
							<path class="st15" d="M137.6,185.4c0,0-2.1-0.1-2.1-0.7l0.1-4.7l0.8-1.6l0.6,0l0.3,0.5l-0.7,1.3"/>
							<path class="st15" d="M137,178.5l-0.8,1.6l1.6,0.3l-0.2,0.5l-1.3-0.3c0,0-0.6-0.1-0.5-0.5"/>
							<line class="st15" x1="136.3" y1="185.2" x2="136.3" y2="180.5"/>
							<polyline class="st15" points="137.5,180.7 137.6,183.5 137.9,183.5 137.9,184.4 137.6,184.6 137.6,185.3 							"/>
							<path class="st15" d="M135.5,183.6c0,0-1.3-0.4-1.3-0.8c0,0,0,0,0,0.6c0,0.6,1.3,1,1.3,1"/>
							<polyline class="st15" points="135.6,182.9 132.7,182.6 132.7,180.4 133.4,180.5 133.5,176.7 137.1,177.1 137.3,177.5 
															"/>
							<line class="st15" x1="137.2" y1="177.6" x2="139.1" y2="173.5"/>
							<line class="st15" x1="132.7" y1="180.4" x2="133.4" y2="178.9"/>
							<path class="st15" d="M137.6,178.8l-0.2,0c0,0-0.5-0.2-0.3-0.8"/>
							<path class="st15" d="M132.9,172.3c0,0,0.5-1,2.7-0.1l1.4,0.7c0,0,1.5,1,1.2,1.9c-0.4,1-2.4,0.4-2.4,0.4l-2-1
								C133.9,174.2,132.3,173.3,132.9,172.3z"/>
							<path class="st15" d="M132.9,172.4l-0.6,1c0,0-0.1,0.9,0.8,1.5c0.9,0.5,0.9,0.7,0.9,0.7"/>
							<polyline class="st15" points="134.5,174.6 133.1,177.5 133.5,178 							"/>
							<path class="st15" d="M134.2,175.3l1.3,0.6c0,0,2.2,0.8,2.7-1"/>
							<path class="st15" d="M137.5,173.2l1.5,0.3l1-1.8c0,0,0.3-0.7,2.2-0.3v3l0.3,0.2v0.6l-0.3,0.3v0.9c0,0-1.6-0.8-2.2,0.5
								l-2.1,4.1"/>
							<polygon points="134.4,172.4 134.8,172.5 134.2,173.6 133.9,173.3 							"/>
							<polygon points="135.2,172.8 135.6,172.9 135,174 134.7,173.6 							"/>
							<polygon points="136,173.2 136.4,173.3 135.7,174.4 135.5,174.1 							"/>
							<polygon points="136.7,173.5 137.1,173.6 136.4,174.7 136.2,174.4 							"/>
							<line class="st15" x1="135" y1="175.7" x2="135.3" y2="174.9"/>
							<g>
								<g>
									<g>
									</g>
									<g>
									</g>
									<g>
									</g>
									<g>
									</g>
									<g>
									</g>
								</g>
								<g>
									<g>
									</g>
									<g>
									</g>
									<g>
									</g>
									<g>
									</g>
								</g>
								<g>
									<g>
									</g>
								</g>
								<g>
									<g>
									</g>
								</g>
							</g>
						</g>
					</g>
					<path class="st15" d="M139.3,172.9c0.5,0.3,0.7,0.1,0.7,0.1l0.5-1.1c0.4-0.4,1.2,0,1.2,0l0.5-0.6"/>
					<line class="st15" x1="140.4" y1="172.4" x2="140.4" y2="176.1"/>
				</g>
			</g>
		</g>
		<g>
			<defs>
				<polygon id="SVGID_1_" points="129.4,184.6 129.7,192.3 140.7,193.9 140.7,178.1 124.5,178.1 124.5,185.9 				"/>
			</defs>
			<clipPath id="SVGID_2_">
				<use xlink:href="#SVGID_1_"  style="overflow:visible;"/>
			</clipPath>
			<g class="st16">
				<g>
					<path class="st14" d="M133,190.5l2.4-4.6c0,0,0.7-0.9,2-0.3l0-0.9l0.3-0.2v-0.6l-0.3-0.3l0-2.9c0,0-1.3-0.7-2.3,0.2l-0.8,1.7
						l-1.5-0.1l-2.2-1.2c0,0-1.9-0.8-2.5,0.5l-0.5,0.9c0,0-0.1,1,1,1.6l0.8,0.6l-0.5,1.1l0,2.3l-0.8,1.4v2.2l1.5,0.2l0,0.8
						c0,0,0.6,0.7,1.4,0.9l0,0.3c0,0,0.4,0.8,2,0.6v-0.6l0.4-0.4v-0.6l-0.3-0.3v-1.9L133,190.5z"/>
				</g>
				<g>
					<g>
						<g>
							<g>
								<g>
								</g>
							</g>
							<g>
								<g>
								</g>
							</g>
							<g>
								<g>
									<g>
									</g>
								</g>
								<g>
									<g>
									</g>
								</g>
								<g>
									<g>
									</g>
								</g>
								<g>
									<g>
									</g>
								</g>
								<g>
									<g>
									</g>
								</g>
								<g>
									<g>
									</g>
								</g>
								<g>
									<g>
									</g>
								</g>
							</g>
							<path class="st15" d="M132.9,194.6c0,0-2.1-0.1-2.1-0.7l0.1-4.7l0.8-1.6l0.6,0l0.3,0.5l-0.7,1.3"/>
							<path class="st15" d="M132.3,187.7l-0.8,1.6l1.6,0.3l-0.2,0.5l-1.3-0.3c0,0-0.6-0.1-0.5-0.5"/>
							<line class="st15" x1="131.6" y1="194.4" x2="131.6" y2="189.7"/>
							<polyline class="st15" points="132.8,189.9 132.9,192.7 133.2,192.7 133.2,193.6 132.9,193.8 132.9,194.5 							"/>
							<path class="st15" d="M130.8,192.8c0,0-1.3-0.4-1.3-0.8c0,0,0,0,0,0.6c0,0.6,1.3,1,1.3,1"/>
							<polyline class="st15" points="130.8,192.1 128,191.8 128,189.6 128.7,189.7 128.8,185.9 132.3,186.3 132.6,186.7 							"/>
							<line class="st15" x1="132.5" y1="186.8" x2="134.4" y2="182.7"/>
							<line class="st15" x1="128" y1="189.6" x2="128.7" y2="188.1"/>
							<path class="st15" d="M132.9,188l-0.2,0c0,0-0.5-0.2-0.3-0.8"/>
							<path class="st15" d="M128.2,181.5c0,0,0.5-1,2.7-0.1l1.4,0.7c0,0,1.5,1,1.2,1.9c-0.4,1-2.4,0.4-2.4,0.4l-2-1
								C129.1,183.4,127.6,182.6,128.2,181.5z"/>
							<path class="st15" d="M128.1,181.6l-0.6,1c0,0-0.1,0.9,0.8,1.5s0.9,0.7,0.9,0.7"/>
							<polyline class="st15" points="129.7,183.8 128.4,186.7 128.8,187.2 							"/>
							<path class="st15" d="M129.5,184.5l1.3,0.6c0,0,2.2,0.8,2.7-1"/>
							<path class="st15" d="M132.8,182.4l1.5,0.3l1-1.8c0,0,0.3-0.7,2.2-0.3v3l0.3,0.2v0.6l-0.3,0.3v0.9c0,0-1.6-0.8-2.2,0.5
								l-2.1,4.1"/>
							<polygon points="129.7,181.6 130.1,181.7 129.5,182.8 129.2,182.5 							"/>
							<polygon points="130.5,182 130.9,182.1 130.2,183.2 130,182.9 							"/>
							<polygon points="131.2,182.4 131.6,182.5 131,183.6 130.8,183.3 							"/>
							<polygon points="132,182.7 132.3,182.8 131.7,183.9 131.5,183.6 							"/>
							<line class="st15" x1="130.3" y1="184.9" x2="130.6" y2="184.2"/>
							<g>
								<g>
									<g>
									</g>
									<g>
									</g>
									<g>
									</g>
									<g>
									</g>
									<g>
									</g>
								</g>
								<g>
									<g>
									</g>
									<g>
									</g>
									<g>
									</g>
									<g>
									</g>
								</g>
								<g>
									<g>
									</g>
								</g>
								<g>
									<g>
									</g>
								</g>
							</g>
						</g>
					</g>
					<path class="st15" d="M134.6,182.2c0.5,0.3,0.7,0.1,0.7,0.1l0.5-1.1c0.4-0.4,1.2,0,1.2,0l0.5-0.6"/>
					<line class="st15" x1="135.7" y1="181.6" x2="135.7" y2="185.3"/>
				</g>
			</g>
		</g>
	</g>
	<g>
		<defs>
			<polygon id="SVGID_3_" points="194.7,193.1 203.6,175 164.7,162.5 141.1,158.4 132.4,166.6 130.7,179.5 176.6,190.4 			"/>
		</defs>
		<clipPath id="SVGID_4_">
			<use xlink:href="#SVGID_3_"  style="overflow:visible;"/>
		</clipPath>
		<g class="st17">
			<g>
				<path class="st14" d="M139.4,178.7l0.5-3.8l0.4,0l0.8-6.7l0.6-0.2l0.1-1l0.5-0.2l0.1-1l0.6,0.1l0.1-1l0.5-0.2l0.2-0.8l0.2-0.3
					l0.9,0.2l-0.5,5l1.3,0.2l1.5-4.2l0.4,0l0.1-1l2.4,0.6l0.5-0.3l1.3,0.2l-0.4,4.3l0.5-0.6l0.1-0.5l0.6-0.6l0.6-1l1.3,0.1l-0.1,2.1
					l0.8,0.3l0.4-0.6l0.4,0l0.2-0.9l0.4-0.1l1,0.1l-0.1,2.1l1,0.2l0.3-0.5l0.4,0l0.2-0.8l0.2-0.4l1.3,0.3l-0.1,2l0.9,0.4l0.2-0.5
					l0.5-0.2l0.2-0.8l0.5-0.3l1.1,0.3l-0.1,2l1.1,0.3l0.3-0.5l0.4-0.5l0.1-0.7l0.6-0.2l0.2-0.8l0.3-0.4l1.3,0.2l-0.5,4.5l1,0.4
					l0.6-0.6l0.6-2.4l0.4,0l0.2-0.9l2.1,0.6l0.5,0.3l0.4-0.7l1.4,0.3l-0.4,3.8l0.6,0.1l0.1-0.6l0.5-0.4l0.2-0.7l0.4-0.4l0.5-1.1
					l0.3,0l1.1,0.1l-0.3,3.8l0.5,0l0.1-0.6l0.3-0.4l0.2-0.7l0.5-0.5l0.4-0.9l0.5-0.3l1.1,0.3l-0.3,3.9l0.4,0l0.1-0.6l0.5-0.5
					l0.3-0.8l0.4-0.2l0.2-0.9l0.4-0.5l1.2,0.2l-0.5,4.1l0.5-0.2l0.1-0.6l0.6-0.5l0.2-0.7l0.6-0.2l0.2-1.1l0.8-0.1l0.9,0.2l-0.5,3.8
					l0.4,0l0.2-0.7l0.6-0.4l0.1-0.9l0.6-0.3l0.1-0.7l0.4-0.5l1.4,0.3l-0.5,3.7l0.6,0.1l0.1-0.6l0.5-0.5l0.1-0.5l0.6-0.4l0.1-0.9
					l0.3-0.3l1.5,0.3l-0.4,4.7l1.2,0.2l1.1-3.4l0.2-0.7l2.4,0.4l0,0.8l0.4,0l0.1-0.4l0.2-0.3l1.6,0.2l-0.3,4.6c0,0,1.3,0.1,1.3,1.9
					s0.7,0.8,0.7,0.8l0,0.5l0.1,0.1l0.7,0.8l-0.4-0.1l-3.7,5.9l-0.9,0.4l-0.3,1.4c0,0-0.7,0.9-1.6,0.2c0,0-2.9,0.4-3.6-1.1
					l-23.6-5.4l-0.1,0.6l-3.9-0.9c0,0-0.7-0.1-0.5-0.8l-23.2-5.1l-0.1,0.5l-0.5,0.1l-2-0.5L139.4,178.7z"/>
				<g>
					<g>
						<g>
							<path class="st18" d="M145.1,163.8l-1-0.3c-0.2,0-0.3,0.5-0.3,0.5l-0.7,5.8l1.2,0.3L145.1,163.8z"/>
							<path class="st18" d="M144.5,164.8l-1-0.3c-0.2,0-0.3,0.5-0.3,0.5l-0.7,5.8l1.2,0.3L144.5,164.8z"/>
							<path class="st18" d="M143.7,166l-1-0.3c-0.2,0-0.3,0.5-0.3,0.5l-0.7,5.8l1.2,0.3L143.7,166z"/>
							<path class="st18" d="M143,167l-1-0.3c-0.2,0-0.3,0.5-0.3,0.5L141,173l1.2,0.3L143,167z"/>
							<path class="st18" d="M142.4,168.2l-1-0.3c-0.2,0-0.3,0.5-0.3,0.5l-0.7,5.8l1.2,0.3L142.4,168.2z"/>
						</g>
						<g>
							<polyline class="st19" points="151.1,168.2 150.9,168.5 152.7,168.9 153,168.4 							"/>
							<g>
								<polyline class="st19" points="167.4,171.8 167.3,172.1 169,172.5 169.4,172 								"/>
							</g>
						</g>
						<g>
							<g>
							</g>
						</g>
						<g>
							<g>
								<g>
									<polyline class="st20" points="140.3,174.2 140.2,174.6 141.1,174.8 141.3,174.3 									"/>
								</g>
							</g>
						</g>
						<path class="st21" d="M146.7,171.3l-1.4-0.3l2-6.4c0,0,0-0.2,0.3-0.1c0.3,0.1,2,0.5,2,0.5l0.2,0.3"/>
						<line class="st15" x1="149.3" y1="166" x2="149.6" y2="165"/>
						<g>
							<path class="st21" d="M147.7,164.3l0.1-0.3c0,0,0-0.4,0.3-0.5l2.1,0.5l0.3,0.5"/>
							<path class="st19" d="M150,164.9l0.1-0.4c0,0,0-0.2,0.1-0.3"/>
						</g>
						<path class="st15" d="M142.6,173.4c0,0-1-0.2-1.3,1c0,0,0,0.7-0.5,0.7l-0.5-0.1c0,0-0.3-0.2-0.3,0.5l-0.4,3.4
							c0,0,0.1,0.1,0.1,0.3l2.3,0.5l0-0.4l0.1-0.7c0,0,0.1-0.3,0.5-0.2s22.9,5.1,22.9,5.1s0.5,0,0.4,0.6c-0.1,0.6-0.2,0.9,0.2,1
							c0.4,0.2,4.1,0.9,4.1,0.9s0-0.4,0-0.6c0-0.2,0.1-0.5,0.1-0.5s0.1-0.4,0.5-0.3s22.9,5.1,22.9,5.1s0.4,0,0.4,0.7
							c-0.1,0.6-0.3,0.7,0.1,0.9c0.4,0.2,3,0.7,3,0.7l0.3-0.2l0.4-3.2c0,0,0.1-0.8-1.1-1.3l-1-0.2c0,0-0.3,0-0.2-0.6
							c0.1-0.5,0.3-1.1-1.1-1.7"/>
						<line class="st15" x1="193.6" y1="190.5" x2="170" y2="185.2"/>
						<line class="st15" x1="193.6" y1="190.7" x2="197.1" y2="191.5"/>
						<line class="st15" x1="165.5" y1="184.2" x2="141.9" y2="178.9"/>
						<polyline class="st15" points="141.9,179.5 142.1,179.4 142.3,179.3 142.4,178.2 						"/>
						<g>
							<polygon class="st20" points="144.7,174.7 142.5,174.2 142.9,171.5 145.1,172.1 							"/>
							<polyline class="st21" points="142.9,171.5 143,171.1 145.2,171.6 145.1,172.1 							"/>
							<polyline class="st21" points="145.2,171.6 146.1,174 144.9,173.7 							"/>
							<polygon class="st21" points="144.9,176.3 142,175.5 142.2,174.2 145.1,175 							"/>
						</g>
						<line class="st22" x1="139.5" y1="178.6" x2="141.8" y2="179.1"/>
						<g>
							<path class="st21" d="M196.9,175.3l0.1-0.3c0,0,0-0.4,0.3-0.5l2.1,0.5l0.3,0.5"/>
							<path class="st15" d="M199.2,175.9l0.1-0.4c0,0,0-0.2,0.1-0.3"/>
						</g>
						<g>
							<path class="st21" d="M196.5,182.4l-2-0.5l2-6.4c0,0,0-0.2,0.3-0.1c0.3,0.1,2,0.5,2,0.5l0.2,0.3"/>
							<path class="st19" d="M198.6,177l0.1-0.6c0,0,0-0.3,0.2-0.4"/>
						</g>
						<g>
							<g>
								<polyline class="st21" points="196.2,185.5 196.1,185.9 197.8,186.3 198.2,185.8 								"/>
							</g>
						</g>
						<g>
							<polygon class="st20" points="167.7,179.9 165.5,179.3 165.8,176.7 168,177.2 							"/>
							<polyline class="st21" points="165.8,176.7 165.9,176.3 168.1,176.8 168,177.2 							"/>
							<polyline class="st15" points="168.1,176.8 169,179.1 167.9,178.9 							"/>
							<polygon class="st15" points="167.8,181.4 164.9,180.7 165.1,179.4 168,180.1 							"/>
						</g>
						<g>
							<path class="st21" d="M169.7,176.4l-1.4-0.3l2-6.4c0,0,0-0.2,0.3-0.1s2,0.5,2,0.5l0.2,0.3"/>
							<path class="st19" d="M172.3,171.2l0.1-0.6c0,0,0-0.3,0.2-0.4"/>
						</g>
						<g>
							<path class="st21" d="M170.6,169.5l0.1-0.3c0,0,0-0.4,0.3-0.5l2.1,0.5l0.3,0.5"/>
							<path class="st15" d="M173,170l0.1-0.4c0,0,0-0.2,0.1-0.3"/>
						</g>
						<g>
							<g>
								<g>
									<polyline class="st19" points="169.3,180.7 169.1,181.1 170.8,181.4 171.2,181 									"/>
								</g>
							</g>
							<g>
								<g>
									<polyline class="st19" points="172.5,181.5 172.3,181.8 174.1,182.2 174.4,181.7 									"/>
								</g>
							</g>
							<g>
								<g>
									<polyline class="st19" points="175.7,182.2 175.6,182.6 177.3,182.9 177.7,182.4 									"/>
								</g>
							</g>
							<g>
								<g>
									<polyline class="st19" points="178.9,183 178.8,183.3 180.5,183.7 180.9,183.2 									"/>
								</g>
							</g>
							<g>
								<g>
									<polyline class="st19" points="182.1,183.7 182,184.1 183.7,184.4 184.1,183.9 									"/>
								</g>
							</g>
							<g>
								<g>
									<polyline class="st19" points="185.5,184.5 185.4,184.8 187.1,185.2 187.5,184.7 									"/>
								</g>
							</g>
							<g>
								<g>
									<polyline class="st19" points="188.8,185.3 188.7,185.6 190.4,186 190.8,185.5 									"/>
								</g>
							</g>
						</g>
						<g>
							<polygon class="st20" points="193.9,185.6 191.8,185.1 192.1,182.5 194.3,183 							"/>
							<polyline class="st21" points="192.1,182.5 192.2,182.1 194.4,182.6 194.3,183 							"/>
							<polyline class="st15" points="194.4,182.6 195.3,184.9 194.2,184.6 							"/>
							<polygon class="st15" points="194.1,187.2 191.2,186.4 191.4,185.1 194.3,185.9 							"/>
						</g>
						<path class="st15" d="M202.7,181.8l-0.2,1.8l-3.6,5.5c0,0-0.3,0.4-1.3,0.1"/>
						<path class="st15" d="M196.6,187.3l1.6,0.3c0,0,0.6,0.2,1-0.3c0.4-0.6,3.5-5.3,3.5-5.3"/>
						<path class="st15" d="M167.8,179c0,0,1.4,0.1,1.1,1.8c0,0-0.2,0.8,0.7,1c1.1,0.2,20.4,4.5,20.4,4.5s0.5,0.1,0.6-0.4"/>
						<path class="st15" d="M144.8,173.9c0,0,1.4,0.1,1.1,1.8c0,0-0.2,0.8,0.7,1c1.1,0.2,17,3.7,17,3.7s0.5,0.1,0.6-0.4"/>
						<line class="st23" x1="198.5" y1="187.7" x2="198.4" y2="189.3"/>
						<path class="st24" d="M197.4,190.4l1.1,0.2l0.4,0l0.1-0.4l0.8-0.3l4-6c0,0,0.4-0.7-0.2-1.1l-0.8-0.3"/>
						<polyline class="st24" points="197.4,189.9 198.6,190.2 198.9,190.1 						"/>
						<path class="st15" d="M197.1,191.7c0,0,1,0.5,1.6-0.2l4.4-6.4l0-0.4"/>
						<path class="st15" d="M202.4,181.5c0,0,0.2-1.4-1.1-1.6"/>
						<line class="st15" x1="145.9" y1="169" x2="144.6" y2="168.7"/>
						<g>
							<g>
								<g>
								</g>
								<g>
								</g>
								<g>
								</g>
								<g>
								</g>
								<g>
								</g>
								<g>
									<path class="st19" d="M148.7,170.1"/>
									<polyline class="st19" points="146.3,175.6 146.1,175.9 147.9,176.3 148.2,175.8 									"/>
									<g>
										<path class="st21" d="M152.1,164.1l-1.4-0.3c-0.2,0-0.4,0.4-0.4,0.4l-0.7,5.8l1.7,0.4L152.1,164.1z"/>
										<path class="st21" d="M151.4,165.3l-1.4-0.3c-0.2,0-0.4,0.4-0.4,0.4l-0.7,5.8l1.7,0.4L151.4,165.3z"/>
										<path class="st21" d="M150.7,166.3l-1.4-0.3c-0.2,0-0.4,0.4-0.4,0.4l-0.7,5.8l1.7,0.4L150.7,166.3z"/>
										<path class="st21" d="M150.1,167.3l-1.4-0.3c-0.2,0-0.4,0.4-0.4,0.4l-0.7,5.8l1.7,0.4L150.1,167.3z"/>
										<path class="st21" d="M149.4,168.4l-1.4-0.3c-0.2,0-0.4,0.4-0.4,0.4l-0.7,5.8l1.7,0.4L149.4,168.4z"/>
										<path class="st21" d="M148.8,169.6l-1.4-0.3c-0.2,0-0.4,0.4-0.4,0.4l-0.7,5.8l1.7,0.4L148.8,169.6z"/>
										<polyline class="st21" points="150.2,175.2 150.1,175.5 151.8,175.9 152.2,175.4 										"/>
										<path class="st21" d="M154.7,165.9l-1.4-0.3c-0.2,0-0.4,0.4-0.4,0.4l-0.7,5.8l1.7,0.4L154.7,165.9z"/>
										<path class="st21" d="M154,167l-1.4-0.3c-0.2,0-0.4,0.4-0.4,0.4l-0.7,5.8l1.7,0.4L154,167z"/>
										<path class="st21" d="M153.4,168.1l-1.4-0.3c-0.2,0-0.4,0.4-0.4,0.4l-0.7,5.8l1.7,0.4L153.4,168.1z"/>
										<path class="st21" d="M152.7,169.2l-1.4-0.3c-0.2,0-0.4,0.4-0.4,0.4l-0.7,5.8l1.7,0.4L152.7,169.2z"/>
										<polyline class="st21" points="153.4,176 153.3,176.3 155,176.7 155.4,176.2 										"/>
										<path class="st21" d="M157.9,166.7l-1.4-0.3c-0.2,0-0.4,0.4-0.4,0.4l-0.7,5.8l1.7,0.4L157.9,166.7z"/>
										<path class="st21" d="M157.2,167.8l-1.4-0.3c-0.2,0-0.4,0.4-0.4,0.4l-0.7,5.8l1.7,0.4L157.2,167.8z"/>
										<path class="st21" d="M156.6,168.9l-1.4-0.3c-0.2,0-0.4,0.4-0.4,0.4l-0.7,5.8l1.7,0.4L156.6,168.9z"/>
										<path class="st21" d="M155.9,170l-1.4-0.3c-0.2,0-0.4,0.4-0.4,0.4l-0.7,5.8l1.7,0.4L155.9,170z"/>
										<polyline class="st21" points="156.6,176.8 156.5,177.2 158.2,177.5 158.6,177.1 										"/>
										<path class="st21" d="M161.1,167.6l-1.4-0.3c-0.2,0-0.4,0.4-0.4,0.4l-0.7,5.8l1.7,0.4L161.1,167.6z"/>
										<path class="st21" d="M160.4,168.6l-1.4-0.3c-0.2,0-0.4,0.4-0.4,0.4l-0.7,5.8l1.7,0.4L160.4,168.6z"/>
										<path class="st21" d="M159.8,169.7l-1.4-0.3c-0.2,0-0.4,0.4-0.4,0.4l-0.7,5.8l1.7,0.4L159.8,169.7z"/>
										<path class="st21" d="M159.1,170.8l-1.4-0.3c-0.2,0-0.4,0.4-0.4,0.4l-0.7,5.8l1.7,0.4L159.1,170.8z"/>
										<polyline class="st21" points="159.8,177.7 159.7,178 161.4,178.4 161.8,177.9 										"/>
										<path class="st21" d="M164.3,168.4l-1.4-0.3c-0.2,0-0.4,0.4-0.4,0.4l-0.7,5.8l1.7,0.4L164.3,168.4z"/>
										<path class="st21" d="M163.6,169.4l-1.4-0.3c-0.2,0-0.4,0.4-0.4,0.4l-0.7,5.8l1.7,0.4L163.6,169.4z"/>
										<path class="st21" d="M163,170.5l-1.4-0.3c-0.2,0-0.4,0.4-0.4,0.4l-0.7,5.8l1.7,0.4L163,170.5z"/>
										<path class="st21" d="M162.3,171.6l-1.4-0.3c-0.2,0-0.4,0.4-0.4,0.4l-0.7,5.8l1.7,0.4L162.3,171.6z"/>
										<polyline class="st21" points="162.6,179.3 162.5,179.6 164.2,180 164.6,179.5 										"/>
										<path class="st21" d="M168.5,167.7l-1.4-0.3c-0.2,0-0.4,0.4-0.4,0.4l-0.7,5.8l1.7,0.4L168.5,167.7z"/>
										<path class="st21" d="M167.8,168.9l-1.4-0.3c-0.2,0-0.4,0.4-0.4,0.4l-0.7,5.8l1.7,0.4L167.8,168.9z"/>
										<path class="st21" d="M167.1,170l-1.4-0.3c-0.2,0-0.4,0.4-0.4,0.4l-0.7,5.8l1.7,0.4L167.1,170z"/>
										<path class="st21" d="M166.4,171l-1.4-0.3c-0.2,0-0.4,0.4-0.4,0.4l-0.7,5.8l1.7,0.4L166.4,171z"/>
										<path class="st21" d="M165.7,172.1l-1.4-0.3c-0.2,0-0.4,0.4-0.4,0.4l-0.7,5.8l1.7,0.4L165.7,172.1z"/>
										<path class="st21" d="M165.1,173.2l-1.4-0.3c-0.2,0-0.4,0.4-0.4,0.4l-0.7,5.8l1.7,0.4L165.1,173.2z"/>
									</g>
								</g>
							</g>
							<g>
								<g>
								</g>
								<g>
								</g>
								<g>
								</g>
								<g>
								</g>
							</g>
							<g>
								<g>
								</g>
							</g>
							<g>
								<g>
								</g>
							</g>
						</g>
						<g>
							<path class="st21" d="M175.3,169.2l-1.4-0.3c-0.2,0-0.4,0.4-0.4,0.4l-0.7,5.8l1.7,0.4L175.3,169.2z"/>
							<path class="st21" d="M174.6,170.4l-1.4-0.3c-0.2,0-0.4,0.4-0.4,0.4l-0.7,5.8l1.7,0.4L174.6,170.4z"/>
							<path class="st21" d="M173.9,171.5l-1.4-0.3c-0.2,0-0.4,0.4-0.4,0.4l-0.7,5.8l1.7,0.4L173.9,171.5z"/>
							<path class="st21" d="M173.2,172.5l-1.4-0.3c-0.2,0-0.4,0.4-0.4,0.4l-0.7,5.8l1.7,0.4L173.2,172.5z"/>
							<path class="st21" d="M172.5,173.6l-1.4-0.3c-0.2,0-0.4,0.4-0.4,0.4l-0.7,5.8l1.7,0.4L172.5,173.6z"/>
							<path class="st21" d="M171.9,174.7l-1.4-0.3c-0.2,0-0.4,0.4-0.4,0.4l-0.7,5.8l1.7,0.4L171.9,174.7z"/>
							<path class="st21" d="M178.5,170l-1.4-0.3c-0.2,0-0.4,0.4-0.4,0.4l-0.7,5.8l1.7,0.4L178.5,170z"/>
							<path class="st21" d="M177.8,171.2l-1.4-0.3c-0.2,0-0.4,0.4-0.4,0.4l-0.7,5.8l1.7,0.4L177.8,171.2z"/>
							<path class="st21" d="M177.1,172.2l-1.4-0.3c-0.2,0-0.4,0.4-0.4,0.4l-0.7,5.8l1.7,0.4L177.1,172.2z"/>
							<path class="st21" d="M176.4,173.3l-1.4-0.3c-0.2,0-0.4,0.4-0.4,0.4l-0.7,5.8l1.7,0.4L176.4,173.3z"/>
							<path class="st21" d="M175.8,174.4l-1.4-0.3c-0.2,0-0.4,0.4-0.4,0.4l-0.7,5.8l1.7,0.4L175.8,174.4z"/>
							<path class="st21" d="M175.2,175.5l-1.4-0.3c-0.2,0-0.4,0.4-0.4,0.4l-0.7,5.8l1.7,0.4L175.2,175.5z"/>
							<path class="st21" d="M181.8,170.8l-1.4-0.3c-0.2,0-0.4,0.4-0.4,0.4l-0.7,5.8l1.7,0.4L181.8,170.8z"/>
							<path class="st21" d="M181.1,172l-1.4-0.3c-0.2,0-0.4,0.4-0.4,0.4l-0.7,5.8l1.7,0.4L181.1,172z"/>
							<path class="st21" d="M180.4,173l-1.4-0.3c-0.2,0-0.4,0.4-0.4,0.4l-0.7,5.8l1.7,0.4L180.4,173z"/>
							<path class="st21" d="M179.7,174l-1.4-0.3c-0.2,0-0.4,0.4-0.4,0.4l-0.7,5.8l1.7,0.4L179.7,174z"/>
							<path class="st21" d="M179,175.1l-1.4-0.3c-0.2,0-0.4,0.4-0.4,0.4l-0.7,5.8l1.7,0.4L179,175.1z"/>
							<path class="st21" d="M178.4,176.3l-1.4-0.3c-0.2,0-0.4,0.4-0.4,0.4l-0.7,5.8l1.7,0.4L178.4,176.3z"/>
							<path class="st21" d="M185,171.6l-1.4-0.3c-0.2,0-0.4,0.4-0.4,0.4l-0.7,5.8l1.7,0.4L185,171.6z"/>
							<path class="st21" d="M184.3,172.7l-1.4-0.3c-0.2,0-0.4,0.4-0.4,0.4l-0.7,5.8l1.7,0.4L184.3,172.7z"/>
							<path class="st21" d="M183.6,173.8l-1.4-0.3c-0.2,0-0.4,0.4-0.4,0.4l-0.7,5.8l1.7,0.4L183.6,173.8z"/>
							<path class="st21" d="M182.9,174.8l-1.4-0.3c-0.2,0-0.4,0.4-0.4,0.4l-0.7,5.8l1.7,0.4L182.9,174.8z"/>
							<path class="st21" d="M182.3,175.9l-1.4-0.3c-0.2,0-0.4,0.4-0.4,0.4l-0.7,5.8l1.7,0.4L182.3,175.9z"/>
							<path class="st21" d="M181.7,177l-1.4-0.3c-0.2,0-0.4,0.4-0.4,0.4l-0.7,5.8l1.7,0.4L181.7,177z"/>
							<path class="st21" d="M188.3,172.3l-1.4-0.3c-0.2,0-0.4,0.4-0.4,0.4l-0.7,5.8l1.7,0.4L188.3,172.3z"/>
							<path class="st21" d="M187.6,173.5l-1.4-0.3c-0.2,0-0.4,0.4-0.4,0.4l-0.7,5.8l1.7,0.4L187.6,173.5z"/>
							<path class="st21" d="M186.9,174.6l-1.4-0.3c-0.2,0-0.4,0.4-0.4,0.4l-0.7,5.8l1.7,0.4L186.9,174.6z"/>
							<path class="st21" d="M186.2,175.6l-1.4-0.3c-0.2,0-0.4,0.4-0.4,0.4l-0.7,5.8l1.7,0.4L186.2,175.6z"/>
							<path class="st21" d="M185.5,176.7l-1.4-0.3c-0.2,0-0.4,0.4-0.4,0.4l-0.7,5.8l1.7,0.4L185.5,176.7z"/>
							<path class="st21" d="M184.9,177.8l-1.4-0.3c-0.2,0-0.4,0.4-0.4,0.4l-0.7,5.8l1.7,0.4L184.9,177.8z"/>
							<path class="st21" d="M191.5,173.1l-1.4-0.3c-0.2,0-0.4,0.4-0.4,0.4L189,179l1.7,0.4L191.5,173.1z"/>
							<path class="st21" d="M190.8,174.3l-1.4-0.3c-0.2,0-0.4,0.4-0.4,0.4l-0.7,5.8l1.7,0.4L190.8,174.3z"/>
							<path class="st21" d="M190.1,175.3l-1.4-0.3c-0.2,0-0.4,0.4-0.4,0.4l-0.7,5.8l1.7,0.4L190.1,175.3z"/>
							<path class="st21" d="M189.5,176.4l-1.4-0.3c-0.2,0-0.4,0.4-0.4,0.4l-0.7,5.8l1.7,0.4L189.5,176.4z"/>
							<path class="st21" d="M188.8,177.5l-1.4-0.3c-0.2,0-0.4,0.4-0.4,0.4l-0.7,5.8l1.7,0.4L188.8,177.5z"/>
							<path class="st21" d="M188.2,178.6l-1.4-0.3c-0.2,0-0.4,0.4-0.4,0.4l-0.7,5.8l1.7,0.4L188.2,178.6z"/>
							<path class="st21" d="M194.8,173.9l-1.4-0.3c-0.2,0-0.4,0.4-0.4,0.4l-0.7,5.8l1.7,0.4L194.8,173.9z"/>
							<path class="st21" d="M194.1,175.1l-1.4-0.3c-0.2,0-0.4,0.4-0.4,0.4l-0.7,5.8l1.7,0.4L194.1,175.1z"/>
							<path class="st21" d="M193.4,176.1l-1.4-0.3c-0.2,0-0.4,0.4-0.4,0.4l-0.7,5.8l1.7,0.4L193.4,176.1z"/>
							<path class="st21" d="M192.7,177.1l-1.4-0.3c-0.2,0-0.4,0.4-0.4,0.4l-0.7,5.8l1.7,0.4L192.7,177.1z"/>
							<path class="st21" d="M192.1,178.2l-1.4-0.3c-0.2,0-0.4,0.4-0.4,0.4l-0.7,5.8l1.7,0.4L192.1,178.2z"/>
							<path class="st21" d="M191.4,179.4l-1.4-0.3c-0.2,0-0.4,0.4-0.4,0.4l-0.7,5.8l1.7,0.4L191.4,179.4z"/>
						</g>
						<g>
							<path class="st25" d="M201.7,175.4l-1.6-0.3c-0.3,0-0.4,0.4-0.4,0.4l-0.7,5.8l2,0.4L201.7,175.4z"/>
							<path class="st25" d="M201.1,176.3l-1.6-0.3c-0.3,0-0.4,0.4-0.4,0.4l-0.7,5.8l2,0.4L201.1,176.3z"/>
							<path class="st25" d="M200.3,177.3l-1.6-0.3c-0.3,0-0.4,0.4-0.4,0.4l-0.7,5.8l2,0.4L200.3,177.3z"/>
							<path class="st25" d="M199.6,178.3l-1.6-0.3c-0.3,0-0.4,0.4-0.4,0.4l-0.7,5.8l2,0.4L199.6,178.3z"/>
							<path class="st25" d="M198.9,179.4l-1.6-0.3c-0.3,0-0.4,0.4-0.4,0.4l-0.7,5.8l2,0.4L198.9,179.4z"/>
						</g>
					</g>
				</g>
			</g>
			<line class="st19" x1="195.6" y1="178.9" x2="194.4" y2="178.5"/>
		</g>
	</g>
	<polygon class="st26" points="161.7,159.7 190.5,159.7 190.5,170 161.7,165.8 	"/>
	<g>
		<path class="st27" d="M216.9,309.9h-0.6c0,0-0.7,0.8-0.4,2.7l0.6,0.1"/>
		
			<ellipse transform="matrix(0.9942 0.1076 -0.1076 0.9942 34.7718 -21.5923)" class="st27" cx="217.4" cy="311.4" rx="0.7" ry="2.7"/>
		
			<ellipse transform="matrix(0.9942 0.1076 -0.1076 0.9942 34.794 -21.668)" class="st27" cx="218.1" cy="311.5" rx="0.7" ry="2.6"/>
	</g>
</g>
<g id="CALL_OUT">
	<g>
		<g>
			<path class="st28" d="M126.7,106.3v-4.6l0.4-0.1v-8.2l0.7-0.3v-1.3l0.6-0.3v-1.3h0.8v-1.3l0.6-0.3l0.2-1l0.3-0.3l1.1,0.1l0.1,6.1
				l1.6,0.1l1.2-5.3l0.4-0.1v-1.2l2.9,0.4l0.6-0.4l1.6,0.1l0.2,5.2l0.5-0.8v-0.6l0.6-0.8l0.6-1.3h1.6l0.2,5.3l1-2.5l0.3-0.8l0.5-0.1
				l0.1-1.1l0.5-0.2h1.3l0.2,5.3l1.2-2.6l0.3-0.6l0.5-0.1l0.1-0.9l0.2-0.5l1.6,0.2l0.2,5l1.1-2.2l0.2-0.6l0.6-0.3l0.1-1l0.5-0.4
				l1.3,0.3l0.2,5.6l1.3-2.9l0.3-0.7l0.4-0.7v-0.8l0.7-0.3l0.2-1l0.3-0.5l1.6,0.1l0.1,5.5l1.3,0.4l0.7-0.8l0.4-2.9l0.4-0.1l0.2-1.1
				l2.6,0.5l0.6,0.3l0.4-0.8l1.7,0.2l0.1,4.6h0.7v-0.7l0.5-0.5l0.2-0.9l0.4-0.5l0.4-1.3h0.4h1.3l0.2,4.6h0.6v-0.8l0.3-0.5l0.2-0.8
				l0.5-0.7l0.3-1.1l0.5-0.4l1.4,0.3l0.3,4.7l0.5-0.1V96l0.5-0.7l0.3-1l0.4-0.3l0.2-1.1l0.4-0.6l1.5,0.1v5l0.6-0.3v-0.7l0.7-0.7
				l0.1-0.8l0.7-0.3l0.1-1.3l0.9-0.2l1.1,0.2v4.6h0.5l0.1-0.8l0.7-0.5v-1.1l0.7-0.4v-0.8l0.4-0.6l1.7,0.2v4.5h0.7v-0.7l0.5-0.7
				l0.1-0.7l0.7-0.6v-1.1l0.3-0.4l1.8,0.3l-0.2,5.7l1.4,0.2l1.2-4.3l0.2-0.9l2.9,0.3l0.1,1l0.4-0.1l0.1-0.5l0.2-0.4l2,0.1l0.3,5.5
				c0,0,1.4,0,1.8,2.2c0.3,1.2,0.9,0.9,0.9,0.9l0.5,0.3l0.1,0.1l0.2,0.4l-0.1,0.5l-3.6,7.6l-1,0.6l-0.2,1.7c0,0-0.8,1.2-1.8,0.4
				c0,0-3.4,0.8-4.5-0.9l-29.3-4v0.8l-4.9-0.7c0,0-0.8-0.1-0.7-0.9l-28.7-3.6v0.6l-0.6,0.2l-2.5-0.3L126.7,106.3z"/>
			<g>
				<g>
					<g>
						<path class="st29" d="M131.3,87.7l-1.2-0.2c-0.2,0-0.3,0.6-0.3,0.6l0,7l1.5,0.2L131.3,87.7z"/>
						<path class="st29" d="M130.8,89l-1.2-0.2c-0.2,0-0.3,0.6-0.3,0.6l0,7l1.5,0.2L130.8,89z"/>
						<path class="st29" d="M129.9,90.5l-1.2-0.2c-0.2,0-0.3,0.6-0.3,0.6l0,7l1.5,0.2L129.9,90.5z"/>
						<path class="st29" d="M129.3,91.8l-1.2-0.2c-0.2,0-0.3,0.6-0.3,0.6l0,7l1.5,0.2L129.3,91.8z"/>
						<path class="st29" d="M128.7,93.3l-1.2-0.2c-0.2,0-0.3,0.6-0.3,0.6l0,7l1.5,0.2L128.7,93.3z"/>
					</g>
					<g>
						<polyline class="st19" points="139.2,92.3 139,92.7 141.2,93 141.6,92.3 						"/>
						<g>
							<polyline class="st19" points="159.4,94.9 159.3,95.3 161.4,95.6 161.8,94.9 							"/>
						</g>
					</g>
					<g>
						<g>
						</g>
					</g>
					<g>
						<g>
							<g>
								<polyline class="st30" points="127.1,100.8 127,101.2 128.2,101.4 128.3,100.8 								"/>
							</g>
						</g>
					</g>
					<path class="st31" d="M134.4,96.5l-1.7-0.3l1.4-7.9c0,0,0-0.2,0.3-0.2c0.3,0,2.5,0.3,2.5,0.3l0.2,0.4"/>
					<line class="st15" x1="136.8" y1="89.8" x2="137" y2="88.7"/>
					<g>
						<path class="st31" d="M134.5,88l0-0.4c0,0-0.1-0.5,0.3-0.6l2.6,0.4l0.4,0.5"/>
						<path class="st19" d="M137.4,88.4l0-0.5c0,0,0-0.2,0.1-0.3"/>
					</g>
					<path class="st15" d="M129.7,99.6c0,0-1.3-0.2-1.4,1.3c0,0,0.1,0.9-0.5,0.9l-0.7-0.1c0,0-0.4-0.2-0.3,0.6l0.1,4.1
						c0,0,0.1,0.1,0.1,0.4l2.8,0.3l-0.1-0.5l0-0.9c0,0,0.1-0.3,0.5-0.3c0.4,0,28.3,3.6,28.3,3.6s0.6-0.1,0.6,0.7
						c0,0.7-0.1,1.1,0.4,1.2s5,0.7,5,0.7s-0.1-0.4-0.1-0.7s0-0.6,0-0.6s0-0.5,0.6-0.4c0.6,0,28.3,3.7,28.3,3.7s0.5,0,0.5,0.7
						c0,0.8-0.2,0.9,0.3,1.1s3.7,0.5,3.7,0.5l0.3-0.3l0-3.9c0,0,0-1-1.5-1.4l-1.2-0.1c0,0-0.4,0-0.4-0.7c0.1-0.7,0.1-1.4-1.6-2"/>
					<line class="st15" x1="193.7" y1="114.6" x2="164.5" y2="110.7"/>
					<line class="st15" x1="193.8" y1="114.9" x2="198" y2="115.4"/>
					<line class="st15" x1="159" y1="110.1" x2="129.8" y2="106.3"/>
					<polyline class="st15" points="129.8,107 130.1,106.8 130.3,106.7 130.2,105.3 					"/>
					<g>
						<polygon class="st30" points="132.5,100.9 129.8,100.5 129.8,97.3 132.5,97.7 						"/>
						<polyline class="st31" points="129.8,97.3 129.9,96.8 132.6,97.1 132.5,97.7 						"/>
						<polyline class="st31" points="132.6,97.1 134,99.9 132.6,99.7 						"/>
						<polygon class="st31" points="133,102.8 129.3,102.2 129.3,100.6 133,101.2 						"/>
					</g>
					<line class="st22" x1="126.8" y1="106.2" x2="129.6" y2="106.5"/>
					<g>
						<path class="st31" d="M195.4,95.9l0-0.4c0,0-0.1-0.5,0.3-0.6l2.6,0.4l0.4,0.5"/>
						<path class="st15" d="M198.3,96.3l0-0.5c0,0,0-0.2,0.1-0.3"/>
					</g>
					<g>
						<path class="st31" d="M196,104.5l-2.4-0.3l1.4-7.9c0,0,0-0.2,0.3-0.2c0.3,0,2.5,0.3,2.5,0.3l0.2,0.4"/>
						<path class="st19" d="M197.6,97.8l0-0.7c0,0,0-0.4,0.2-0.5"/>
					</g>
					<g>
						<g>
							<polyline class="st31" points="196.1,108.3 196,108.7 198.1,109 198.5,108.4 							"/>
						</g>
					</g>
					<g>
						<polygon class="st30" points="160.9,104.6 158.2,104.2 158.2,101 160.9,101.3 						"/>
						<polyline class="st31" points="158.2,101 158.3,100.5 161,100.8 160.9,101.3 						"/>
						<polyline class="st15" points="161,100.8 162.4,103.5 161,103.4 						"/>
						<polygon class="st15" points="161.3,106.4 157.7,105.9 157.7,104.3 161.4,104.9 						"/>
					</g>
					<g>
						<path class="st31" d="M162.8,100.2l-1.7-0.3l1.4-7.9c0,0,0-0.2,0.3-0.2c0.3,0,2.5,0.3,2.5,0.3l0.2,0.4"/>
						<path class="st19" d="M165.2,93.6l0-0.7c0,0,0-0.4,0.2-0.5"/>
					</g>
					<g>
						<path class="st31" d="M162.9,91.7l0-0.4c0,0-0.1-0.5,0.3-0.6l2.6,0.4l0.4,0.5"/>
						<path class="st15" d="M165.8,92.1l0-0.5c0,0,0-0.2,0.1-0.3"/>
					</g>
					<g>
						<g>
							<g>
								<polyline class="st19" points="162.9,105.5 162.8,105.9 165,106.2 165.3,105.5 								"/>
							</g>
						</g>
						<g>
							<g>
								<polyline class="st19" points="166.9,106 166.8,106.4 168.9,106.7 169.3,106.1 								"/>
							</g>
						</g>
						<g>
							<g>
								<polyline class="st19" points="170.9,106.6 170.8,107 172.9,107.3 173.3,106.6 								"/>
							</g>
						</g>
						<g>
							<g>
								<polyline class="st19" points="174.9,107.1 174.8,107.5 176.9,107.8 177.3,107.2 								"/>
							</g>
						</g>
						<g>
							<g>
								<polyline class="st19" points="178.9,107.7 178.8,108.1 180.9,108.4 181.3,107.7 								"/>
							</g>
						</g>
						<g>
							<g>
								<polyline class="st19" points="183.1,108.2 183,108.6 185.1,108.9 185.5,108.2 								"/>
							</g>
						</g>
						<g>
							<g>
								<polyline class="st19" points="187.1,108.8 187,109.2 189.2,109.5 189.5,108.8 								"/>
							</g>
						</g>
					</g>
					<g>
						<polygon class="st30" points="193.4,108.7 190.7,108.3 190.7,105.1 193.4,105.4 						"/>
						<polyline class="st31" points="190.7,105.1 190.8,104.6 193.5,104.9 193.4,105.4 						"/>
						<polyline class="st15" points="193.5,104.9 194.9,107.6 193.5,107.5 						"/>
						<polygon class="st15" points="193.9,110.5 190.2,110 190.2,108.4 193.9,108.9 						"/>
					</g>
					<path class="st15" d="M203.4,103.1l0,2.2l-3.6,7c0,0-0.3,0.5-1.6,0.2"/>
					<path class="st15" d="M196.8,110.4l1.9,0.2c0,0,0.8,0.2,1.1-0.4c0.4-0.8,3.5-6.8,3.5-6.8"/>
					<path class="st15" d="M160.9,103.6c0,0,1.7,0,1.6,2c0,0-0.1,1,1,1.1c1.3,0.2,25.3,3.2,25.3,3.2s0.6,0,0.7-0.6"/>
					<path class="st15" d="M132.5,99.9c0,0,1.7,0,1.6,2c0,0-0.1,1,1,1.1c1.3,0.2,21,2.6,21,2.6s0.6,0,0.7-0.6"/>
					<line class="st23" x1="199.2" y1="110.7" x2="199.3" y2="112.6"/>
					<path class="st24" d="M198.2,114l1.4,0.2l0.4-0.1l0-0.5l0.9-0.4l3.9-7.7c0,0,0.3-0.9-0.4-1.3l-1-0.2"/>
					<polyline class="st24" points="198.2,113.5 199.6,113.6 200.1,113.6 					"/>
					<path class="st15" d="M198.1,115.6c0,0,1.2,0.5,1.9-0.4l4.4-8.2l-0.1-0.5"/>
					<path class="st15" d="M202.9,102.8c0,0,0.1-1.7-1.6-1.8"/>
					<line class="st15" x1="133.1" y1="93.8" x2="131.5" y2="93.6"/>
					<g>
						<g>
							<g>
							</g>
							<g>
							</g>
							<g>
							</g>
							<g>
							</g>
							<g>
							</g>
							<g>
								<path class="st19" d="M136.6,94.8"/>
								<polyline class="st31" points="134.5,101.8 134.4,102.2 136.5,102.5 136.9,101.8 								"/>
								<g>
									<path class="st31" d="M139.8,87.2l-1.7-0.2c-0.3,0-0.4,0.6-0.4,0.6l0,7l2.1,0.2L139.8,87.2z"/>
									<path class="st31" d="M139.2,88.7l-1.7-0.2c-0.3,0-0.4,0.6-0.4,0.6l0,7l2.1,0.2L139.2,88.7z"/>
									<path class="st31" d="M138.5,90.1l-1.7-0.2c-0.3,0-0.4,0.6-0.4,0.6l0,7l2.1,0.2L138.5,90.1z"/>
									<path class="st31" d="M137.8,91.4l-1.7-0.2c-0.3,0-0.4,0.6-0.4,0.6l0,7l2.1,0.2L137.8,91.4z"/>
									<path class="st31" d="M137.2,92.8l-1.7-0.2c-0.3,0-0.4,0.6-0.4,0.6l0,7l2.1,0.2L137.2,92.8z"/>
									<path class="st31" d="M136.6,94.2l-1.7-0.2c-0.3,0-0.4,0.6-0.4,0.6l0,7l2.1,0.2L136.6,94.2z"/>
									<polyline class="st31" points="139.2,100.9 139.1,101.3 141.2,101.6 141.6,100.9 									"/>
									<path class="st31" d="M143.2,89.2l-1.7-0.2c-0.3,0-0.4,0.6-0.4,0.6l0,7l2.1,0.2L143.2,89.2z"/>
									<path class="st31" d="M142.5,90.5l-1.7-0.2c-0.3,0-0.4,0.6-0.4,0.6l0,7l2.1,0.2L142.5,90.5z"/>
									<path class="st31" d="M141.9,91.9l-1.7-0.2c-0.3,0-0.4,0.6-0.4,0.6l0,7l2.1,0.2L141.9,91.9z"/>
									<path class="st31" d="M141.3,93.3l-1.7-0.2c-0.3,0-0.4,0.6-0.4,0.6l0,7l2.1,0.2L141.3,93.3z"/>
									<polyline class="st31" points="143.2,101.5 143.1,101.9 145.2,102.2 145.6,101.6 									"/>
									<path class="st31" d="M147.2,89.8l-1.7-0.2c-0.3,0-0.4,0.6-0.4,0.6l0,7l2.1,0.2L147.2,89.8z"/>
									<path class="st31" d="M146.5,91.1l-1.7-0.2c-0.3,0-0.4,0.6-0.4,0.6l0,7l2.1,0.2L146.5,91.1z"/>
									<path class="st31" d="M145.9,92.5l-1.7-0.2c-0.3,0-0.4,0.6-0.4,0.6l0,7l2.1,0.2L145.9,92.5z"/>
									<path class="st31" d="M145.3,94l-1.7-0.2c-0.3,0-0.4,0.6-0.4,0.6l0,7l2.1,0.2L145.3,94z"/>
									<polyline class="st31" points="147.2,102.2 147.1,102.6 149.2,102.8 149.6,102.2 									"/>
									<path class="st31" d="M151.2,90.5l-1.7-0.2c-0.3,0-0.4,0.6-0.4,0.6l0,7l2.1,0.2L151.2,90.5z"/>
									<path class="st31" d="M150.5,91.8l-1.7-0.2c-0.3,0-0.4,0.6-0.4,0.6l0,7l2.1,0.2L150.5,91.8z"/>
									<path class="st31" d="M149.9,93.2l-1.7-0.2c-0.3,0-0.4,0.6-0.4,0.6l0,7l2.1,0.2L149.9,93.2z"/>
									<path class="st31" d="M149.3,94.6l-1.7-0.2c-0.3,0-0.4,0.6-0.4,0.6l0,7l2.1,0.2L149.3,94.6z"/>
									<polyline class="st31" points="151.2,102.8 151,103.2 153.2,103.5 153.6,102.8 									"/>
									<path class="st31" d="M155.1,91.1l-1.7-0.2c-0.3,0-0.4,0.6-0.4,0.6l0,7l2.1,0.2L155.1,91.1z"/>
									<path class="st31" d="M154.5,92.4l-1.7-0.2c-0.3,0-0.4,0.6-0.4,0.6l0,7l2.1,0.2L154.5,92.4z"/>
									<path class="st31" d="M153.8,93.8l-1.7-0.2c-0.3,0-0.4,0.6-0.4,0.6l0,7l2.1,0.2L153.8,93.8z"/>
									<path class="st31" d="M153.2,95.2l-1.7-0.2c-0.3,0-0.4,0.6-0.4,0.6l0,7l2.1,0.2L153.2,95.2z"/>
									<polyline class="st31" points="154.7,104.4 154.6,104.8 156.7,105.1 157.1,104.4 									"/>
									<path class="st31" d="M160,89.9l-1.7-0.2c-0.3,0-0.4,0.6-0.4,0.6l0,7l2.1,0.2L160,89.9z"/>
									<path class="st31" d="M159.4,91.4l-1.7-0.2c-0.3,0-0.4,0.6-0.4,0.6l0,7l2.1,0.2L159.4,91.4z"/>
									<path class="st31" d="M158.7,92.7l-1.7-0.2c-0.3,0-0.4,0.6-0.4,0.6l0,7l2.1,0.2L158.7,92.7z"/>
									<path class="st31" d="M158,94l-1.7-0.2c-0.3,0-0.4,0.6-0.4,0.6l0,7l2.1,0.2L158,94z"/>
									<path class="st31" d="M157.4,95.4l-1.7-0.2c-0.3,0-0.4,0.6-0.4,0.6l0,7l2.1,0.2L157.4,95.4z"/>
									<path class="st31" d="M156.8,96.8l-1.7-0.2c-0.3,0-0.4,0.6-0.4,0.6l0,7l2.1,0.2L156.8,96.8z"/>
								</g>
							</g>
						</g>
						<g>
							<g>
							</g>
							<g>
							</g>
							<g>
							</g>
							<g>
							</g>
						</g>
						<g>
							<g>
							</g>
						</g>
						<g>
							<g>
							</g>
						</g>
					</g>
					<g>
						<path class="st31" d="M168.4,90.9l-1.7-0.2c-0.3,0-0.4,0.6-0.4,0.6l0,7l2.1,0.2L168.4,90.9z"/>
						<path class="st31" d="M167.8,92.4l-1.7-0.2c-0.3,0-0.4,0.6-0.4,0.6l0,7l2.1,0.2L167.8,92.4z"/>
						<path class="st31" d="M167.1,93.8l-1.7-0.2c-0.3,0-0.4,0.6-0.4,0.6l0,7l2.1,0.2L167.1,93.8z"/>
						<path class="st31" d="M166.4,95.1l-1.7-0.2c-0.3,0-0.4,0.6-0.4,0.6l0,7l2.1,0.2L166.4,95.1z"/>
						<path class="st31" d="M165.8,96.5l-1.7-0.2c-0.3,0-0.4,0.6-0.4,0.6l0,7l2.1,0.2L165.8,96.5z"/>
						<path class="st31" d="M165.2,97.9l-1.7-0.2c-0.3,0-0.4,0.6-0.4,0.6l0,7l2.1,0.2L165.2,97.9z"/>
						<path class="st31" d="M172.5,91.5l-1.7-0.2c-0.3,0-0.4,0.6-0.4,0.6l0,7l2.1,0.2L172.5,91.5z"/>
						<path class="st31" d="M171.8,93l-1.7-0.2c-0.3,0-0.4,0.6-0.4,0.6l0,7l2.1,0.2L171.8,93z"/>
						<path class="st31" d="M171.1,94.3l-1.7-0.2c-0.3,0-0.4,0.6-0.4,0.6l0,7l2.1,0.2L171.1,94.3z"/>
						<path class="st31" d="M170.5,95.7l-1.7-0.2c-0.3,0-0.4,0.6-0.4,0.6l0,7l2.1,0.2L170.5,95.7z"/>
						<path class="st31" d="M169.8,97.1l-1.7-0.2c-0.3,0-0.4,0.6-0.4,0.6l0,7l2.1,0.2L169.8,97.1z"/>
						<path class="st31" d="M169.2,98.5l-1.7-0.2c-0.3,0-0.4,0.6-0.4,0.6l0,7l2.1,0.2L169.2,98.5z"/>
						<path class="st31" d="M176.5,92.1l-1.7-0.2c-0.3,0-0.4,0.6-0.4,0.6l0,7l2.1,0.2L176.5,92.1z"/>
						<path class="st31" d="M175.9,93.6l-1.7-0.2c-0.3,0-0.4,0.6-0.4,0.6l0,7l2.1,0.2L175.9,93.6z"/>
						<path class="st31" d="M175.2,94.9l-1.7-0.2c-0.3,0-0.4,0.6-0.4,0.6l0,7l2.1,0.2L175.2,94.9z"/>
						<path class="st31" d="M174.5,96.2l-1.7-0.2c-0.3,0-0.4,0.6-0.4,0.6l0,7l2.1,0.2L174.5,96.2z"/>
						<path class="st31" d="M173.9,97.6l-1.7-0.2c-0.3,0-0.4,0.6-0.4,0.6l0,7l2.1,0.2L173.9,97.6z"/>
						<path class="st31" d="M173.3,99.1l-1.7-0.2c-0.3,0-0.4,0.6-0.4,0.6l0,7l2.1,0.2L173.3,99.1z"/>
						<path class="st31" d="M180.5,92.7l-1.7-0.2c-0.3,0-0.4,0.6-0.4,0.6l0,7l2.1,0.2L180.5,92.7z"/>
						<path class="st31" d="M179.9,94.2l-1.7-0.2c-0.3,0-0.4,0.6-0.4,0.6l0,7l2.1,0.2L179.9,94.2z"/>
						<path class="st31" d="M179.2,95.5l-1.7-0.2c-0.3,0-0.4,0.6-0.4,0.6l0,7l2.1,0.2L179.2,95.5z"/>
						<path class="st31" d="M178.5,96.8l-1.7-0.2c-0.3,0-0.4,0.6-0.4,0.6l0,7l2.1,0.2L178.5,96.8z"/>
						<path class="st31" d="M177.9,98.2l-1.7-0.2c-0.3,0-0.4,0.6-0.4,0.6l0,7l2.1,0.2L177.9,98.2z"/>
						<path class="st31" d="M177.3,99.6l-1.7-0.2c-0.3,0-0.4,0.6-0.4,0.6l0,7l2.1,0.2L177.3,99.6z"/>
						<path class="st31" d="M184.6,93.2l-1.7-0.2c-0.3,0-0.4,0.6-0.4,0.6l0,7l2.1,0.2L184.6,93.2z"/>
						<path class="st31" d="M183.9,94.7l-1.7-0.2c-0.3,0-0.4,0.6-0.4,0.6l0,7l2.1,0.2L183.9,94.7z"/>
						<path class="st31" d="M183.2,96.1l-1.7-0.2c-0.3,0-0.4,0.6-0.4,0.6l0,7l2.1,0.2L183.2,96.1z"/>
						<path class="st31" d="M182.6,97.4l-1.7-0.2c-0.3,0-0.4,0.6-0.4,0.6l0,7l2.1,0.2L182.6,97.4z"/>
						<path class="st31" d="M181.9,98.8l-1.7-0.2c-0.3,0-0.4,0.6-0.4,0.6l0,7l2.1,0.2L181.9,98.8z"/>
						<path class="st31" d="M181.3,100.2l-1.7-0.2c-0.3,0-0.4,0.6-0.4,0.6l0,7l2.1,0.2L181.3,100.2z"/>
						<path class="st31" d="M188.6,93.8l-1.7-0.2c-0.3,0-0.4,0.6-0.4,0.6l0,7l2.1,0.2L188.6,93.8z"/>
						<path class="st31" d="M188,95.3l-1.7-0.2c-0.3,0-0.4,0.6-0.4,0.6l0,7l2.1,0.2L188,95.3z"/>
						<path class="st31" d="M187.3,96.7l-1.7-0.2c-0.3,0-0.4,0.6-0.4,0.6l0,7l2.1,0.2L187.3,96.7z"/>
						<path class="st31" d="M186.6,98l-1.7-0.2c-0.3,0-0.4,0.6-0.4,0.6l0,7l2.1,0.2L186.6,98z"/>
						<path class="st31" d="M186,99.4l-1.7-0.2c-0.3,0-0.4,0.6-0.4,0.6l0,7l2.1,0.2L186,99.4z"/>
						<path class="st31" d="M185.4,100.8l-1.7-0.2c-0.3,0-0.4,0.6-0.4,0.6l0,7l2.1,0.2L185.4,100.8z"/>
						<path class="st31" d="M192.6,94.4l-1.7-0.2c-0.3,0-0.4,0.6-0.4,0.6l0,7l2.1,0.2L192.6,94.4z"/>
						<path class="st31" d="M192,95.9l-1.7-0.2c-0.3,0-0.4,0.6-0.4,0.6l0,7l2.1,0.2L192,95.9z"/>
						<path class="st31" d="M191.3,97.3l-1.7-0.2c-0.3,0-0.4,0.6-0.4,0.6l0,7l2.1,0.2L191.3,97.3z"/>
						<path class="st31" d="M190.6,98.6l-1.7-0.2c-0.3,0-0.4,0.6-0.4,0.6l0,7l2.1,0.2L190.6,98.6z"/>
						<path class="st31" d="M190,100l-1.7-0.2c-0.3,0-0.4,0.6-0.4,0.6l0,7l2.1,0.2L190,100z"/>
						<path class="st31" d="M189.4,101.4l-1.7-0.2c-0.3,0-0.4,0.6-0.4,0.6l0,7l2.1,0.2L189.4,101.4z"/>
					</g>
					<g>
						<path class="st32" d="M201.2,95.4l-1.9-0.2c-0.3,0-0.4,0.6-0.4,0.6l0,7l2.4,0.3L201.2,95.4z"/>
						<path class="st32" d="M200.6,96.7l-1.9-0.2c-0.3,0-0.4,0.6-0.4,0.6l0,7l2.4,0.3L200.6,96.7z"/>
						<path class="st32" d="M199.8,98l-1.9-0.2c-0.3,0-0.4,0.6-0.4,0.6l0,7l2.4,0.3L199.8,98z"/>
						<path class="st32" d="M199.1,99.2l-1.9-0.2c-0.3,0-0.4,0.6-0.4,0.6l0,7l2.4,0.3L199.1,99.2z"/>
						<path class="st32" d="M198.4,100.6l-1.9-0.2c-0.3,0-0.4,0.6-0.4,0.6l0,7l2.4,0.3L198.4,100.6z"/>
					</g>
				</g>
			</g>
		</g>
		<line class="st19" x1="194.3" y1="100.3" x2="192.9" y2="100.1"/>
	</g>
	<g>
		<g>
			<polygon class="st33" points="138.7,123.6 134.2,116.7 129.3,123.6 131.5,123.7 131.5,128.9 136.7,128.9 136.7,123.6 			"/>
			<polygon points="138.2,123.5 134.4,117.8 130.3,123.5 132.1,123.6 132.1,128.3 136.3,128.3 136.2,123.5 			"/>
		</g>
		<g>
			<polygon class="st33" points="129.7,134.8 134.3,141.6 139.2,134.8 136.9,134.7 136.9,129.5 131.7,129.5 131.8,134.8 			"/>
			<polygon points="130.3,134.9 134.1,140.6 138.2,134.8 136.3,134.8 136.3,130.1 132.3,130.1 132.3,134.9 			"/>
		</g>
	</g>
	<g>
		<g>
			<polygon class="st33" points="168.3,158.4 161.5,160.1 170.3,166 169.9,164.2 175.8,165.7 174.7,161.5 168.7,160 			"/>
			<polygon points="168.3,158.8 162.6,160.2 170,165.1 169.7,163.6 175,165 174.1,161.6 168.7,160.4 			"/>
		</g>
		<g>
			<polygon class="st33" points="182.9,168.8 189.7,167.1 180.8,161.2 181.2,163 175.3,161.5 176.5,165.7 182.4,167.1 			"/>
			<polygon points="182.9,168.3 188.5,166.9 181.1,162 181.5,163.5 176.1,162.1 177,165.3 182.4,166.7 			"/>
		</g>
	</g>
	<g>
		<g>
			<g>
				<g>
					<defs>
						<circle id="SVGID_5_" cx="58.1" cy="106.1" r="28.1"/>
					</defs>
					<clipPath id="SVGID_6_">
						<use xlink:href="#SVGID_5_"  style="overflow:visible;"/>
					</clipPath>
					<g class="st34">
						<polyline class="st35" points="71.2,107.4 71.6,89.7 70.5,84.6 70.1,102.1 64.6,102 						"/>
						<polyline class="st35" points="48.5,115.1 42.7,127.1 46.2,131 						"/>
						<polyline class="st35" points="65.3,131.3 65.3,122.6 46.8,123.1 46.8,119.3 50,119.2 50,121 61.7,121.1 61.7,119.1 
							69.7,119.1 69,131.7 						"/>
						<polyline class="st35" points="70.2,131.8 71.1,128.7 69.7,119.1 						"/>
						<path class="st35" d="M61.6,119.6l-16-6.2c0,0-15.3-6.6-8.3-15.9"/>
						<line class="st35" x1="63.6" y1="118.9" x2="56.9" y2="116.9"/>
						<line class="st35" x1="70.1" y1="102.1" x2="70.7" y2="107.9"/>
						<polygon points="45,97.2 46.8,97.8 46.4,105.1 44.5,104.2 						"/>
						<polygon points="48.4,98.4 50.2,98.9 49.8,106.3 47.9,105.4 						"/>
						<polygon points="51.8,99.5 53.5,100.1 53.2,107.4 51.3,106.6 						"/>
						<polygon points="55.2,100.7 56.9,101.3 56.6,108.6 54.7,107.7 						"/>
						<polygon points="58.6,101.9 60.3,102.5 60,109.8 58.1,108.9 						"/>
						<path class="st36" d="M44.4,108.9c0,0-6.7-3.8-7.3-9.9c0,0,0.1-6.9,13.5-3.7l7.3,2.5c0,0,6.6,2.5,9.3,8.8c0,0,2.8,5.2-4.6,7.1
							c0,0-2,0.9-7.6-0.9l-8.7-2.8L44.4,108.9z"/>
						<path class="st36" d="M40.4,99.5c0,0,1.1-6,12.2-2l5.3,2c0,0,6.5,2.4,6.9,7.8c0.4,5.3-7.1,3.9-7.1,3.9l-10.4-3.4
							C47.3,107.7,40.8,106,40.4,99.5z"/>
						<path class="st36" d="M55.6,116.8h5.6c0,0,5.6-0.5,6.4-6.7"/>
						<path class="st35" d="M68.4,108.1c0,0,2.8-0.8,4.8,1c0,0,4.5,2.7,5.3,6.7c0,0,0,3.3-4.5,3.1c-4.5-0.3-6,0-6,0l0.3-13.6l-2.4-1
							"/>
						<path class="st35" d="M70.7,125.4c0,0,6.4-0.6,8-5l-0.1-4.6"/>
						<path class="st35" d="M68.7,109.8h2c0,0,4.6,1.7,5.1,5.2c0,0,0.3,2.3-3.4,2.2c-3.7-0.1-3.7-0.1-3.7-0.1"/>
						<path class="st35" d="M68.7,113.7c0,0,3.1-1.4,6.7,1.8"/>
						<path class="st35" d="M50,119.2c0,0,0.4-2.4,3.6-2.2s2.4,3.7,2.4,3.7"/>
						<path class="st35" d="M50,120.5c0,0,0.4-2.7,3.3-2.2c2.9,0.5,2.2,2.5,2.2,2.5"/>
					</g>
				</g>
				<circle class="st37" cx="58.1" cy="106.1" r="28.1"/>
			</g>
			<g>
				<polygon class="st38" points="48,91.6 54.4,81.3 51.1,83.2 51,71 44.6,74.8 44.7,87 41.5,88.9 				"/>
			</g>
		</g>
	</g>
	<line class="st39" x1="77.4" y1="129.2" x2="124.7" y2="173.8"/>
	<polyline class="st40" points="131.2,171.9 127.2,169 121.8,177.9 125.9,181.1 	"/>
	<line class="st41" x1="77.4" y1="129.2" x2="124.2" y2="173.2"/>
	<polyline class="st42" points="132,172.4 127.2,169.2 121.7,177.7 127.1,181.4 	"/>
	<g>
		<line class="st39" x1="144.3" y1="110.8" x2="143.8" y2="161.6"/>
		<line class="st41" x1="144.3" y1="110.8" x2="144" y2="160.8"/>
	</g>
</g>
</svg>
