<?xml version="1.0" encoding="utf-8"?>
<!-- Generator: Adobe Illustrator 19.1.0, SVG Export Plug-In . SVG Version: 6.00 Build 0)  -->
<svg version="1.1" xmlns="http://www.w3.org/2000/svg" xmlns:xlink="http://www.w3.org/1999/xlink" x="0px" y="0px" width="288px"
	 height="325.7px" viewBox="0 0 288 325.7" style="enable-background:new 0 0 288 325.7;" xml:space="preserve">
<style type="text/css">
	.st0{fill:none;stroke:#000000;stroke-width:0.3427;stroke-linecap:round;stroke-linejoin:round;stroke-miterlimit:10;}
	.st1{fill:#FFFFFF;}
	.st2{fill:none;stroke:#000000;stroke-width:0.4;stroke-linecap:round;stroke-linejoin:round;stroke-miterlimit:10;}
	.st3{fill:#FFFFFF;stroke:#000000;stroke-width:0.4;stroke-linecap:round;stroke-linejoin:round;stroke-miterlimit:10;}
	.st4{fill:none;stroke:#000000;stroke-width:0.4;stroke-linecap:round;stroke-linejoin:round;}
	.st5{fill:#FFFFFF;stroke:#000000;stroke-width:0.4;stroke-linecap:round;stroke-linejoin:round;}
	.st6{stroke:#000000;stroke-width:0.25;stroke-linecap:round;stroke-linejoin:round;}
	.st7{fill:#D1D3D4;}
	.st8{fill:none;stroke:#000000;stroke-width:0.35;stroke-linecap:round;stroke-linejoin:round;stroke-miterlimit:10;}
	.st9{fill:#D1D3D4;stroke:#000000;stroke-width:0.35;stroke-linecap:round;stroke-linejoin:round;stroke-miterlimit:10;}
	.st10{clip-path:url(#SVGID_2_);}
	.st11{fill:none;stroke:#000000;stroke-width:0.3;stroke-linecap:round;stroke-linejoin:round;stroke-miterlimit:10;}
	.st12{stroke:#000000;stroke-width:0.125;stroke-miterlimit:10;}
	.st13{stroke:#000000;stroke-width:0.3;stroke-linecap:round;stroke-linejoin:round;stroke-miterlimit:10;}
	.st14{clip-path:url(#SVGID_4_);}
	.st15{fill:none;stroke:#000000;stroke-width:0.5;stroke-linecap:round;stroke-linejoin:round;stroke-miterlimit:10;}
	.st16{fill:none;stroke:#000000;stroke-width:0.5;stroke-miterlimit:10;}
	.st17{fill:none;stroke:#000000;stroke-width:0.4814;stroke-linecap:round;stroke-linejoin:round;stroke-miterlimit:10;}
	.st18{fill:#2E2A25;}
	.st19{fill:none;stroke:#FFFFFF;stroke-width:1.9589;stroke-linecap:round;stroke-linejoin:round;}
	.st20{fill:#FFFFFF;stroke:#000000;stroke-width:0.4897;stroke-linecap:round;stroke-linejoin:round;}
	.st21{stroke:#FFFFFF;stroke-width:0.5;}
	.st22{fill:#FFFFFF;stroke:#FFFFFF;}
	.st23{fill:#FFFFFF;stroke:#000000;stroke-width:0.35;stroke-linecap:round;stroke-linejoin:round;stroke-miterlimit:10;}
</style>
<g id="SIMPLE_UNIT">
	<g>
		<g>
			<polyline class="st0" points="97.1,142.4 89.8,141.8 75.4,167 80.7,167.3 81.2,166.9 83,167 			"/>
			<polygon class="st0" points="83.7,165.1 98.3,140 115.3,141.6 101.4,166 89.4,165.1 89,165.5 			"/>
			<polygon class="st0" points="103.2,168.3 99.6,168.1 99.5,173.5 103,173.7 			"/>
			<polygon class="st0" points="107.4,168.2 104.7,167.9 104.5,173.4 107.2,173.6 			"/>
			<line class="st0" x1="104.5" y1="173.4" x2="103.4" y2="173.7"/>
			<polyline class="st0" points="107.5,171.7 122,146.9 122.5,140.7 106.5,167.9 			"/>
			<line class="st0" x1="115.9" y1="145.3" x2="119.3" y2="145.5"/>
			<line class="st0" x1="105.8" y1="162.6" x2="109.3" y2="162.8"/>
			<line class="st0" x1="98.5" y1="167.5" x2="99.6" y2="168.1"/>
			<polyline class="st0" points="92,166.3 104.8,167.2 103.2,168.3 			"/>
			<polyline class="st0" points="83.4,166.7 83.4,165.9 88.7,166.3 89,166.2 			"/>
			<line class="st0" x1="118.3" y1="140.9" x2="103.1" y2="167.2"/>
			<path class="st0" d="M105.5,140.6"/>
			<path d="M89.5,166.6l2,0.1c0,0,0.5-0.9-0.4-1C90,165.6,89.5,166.2,89.5,166.6z"/>
			<path d="M107.1,139.5l-1.9-0.2c0,0-0.6,0.9,0.4,1C106.5,140.5,107,139.9,107.1,139.5z"/>
			<path d="M81,168.5l2,0.1c0,0,0.5-0.9-0.4-1C81.6,167.5,81.1,168.1,81,168.5z"/>
			<polygon class="st0" points="89.9,169.4 94.4,169.8 94.4,172.9 89.8,172.5 			"/>
			<polyline class="st0" points="94.4,169.8 95.9,169.9 95.9,173 94.3,172.8 			"/>
			<polyline class="st0" points="89.9,169.4 80.9,168.7 80.9,169.3 81,169.9 82.5,169.9 82.7,170.3 85.1,170.5 85.4,170.9 
				86.1,170.8 86.2,171.5 89.7,171.6 			"/>
			<polyline class="st0" points="95.9,169.9 97.1,169.6 97.1,172.6 96.1,173.1 			"/>
			<line class="st0" x1="97.1" y1="169.6" x2="99.3" y2="169.8"/>
			<line class="st0" x1="97.1" y1="172.8" x2="99.2" y2="172.9"/>
			<polyline class="st0" points="101.9,166.8 116.5,142.1 115.6,141.6 			"/>
			<polyline class="st0" points="75.4,167 75.2,167.6 74.7,168.4 74.7,169.1 80.7,169.6 			"/>
			<line class="st0" x1="98.1" y1="168.8" x2="83.1" y2="167.8"/>
			<polyline class="st0" points="122.3,146.4 123.3,146.4 123.3,140.6 105.3,139.3 			"/>
		</g>
		<path class="st1" d="M75.6,170.7c0,0,0.4-3.1,4.1-3.9c0,0,4.7-0.7,4.3,5l-8.6,0.3L75.6,170.7z"/>
	</g>
	<g>
		<g>
			<g>
				<path class="st2" d="M28.8,229.2l-0.1-2.8c0-0.1,0.1-0.2,0.2-0.3c0.3-0.3,0.8-0.4,0.8-0.4l2.3,0.4c0.7,0.2,0.9,1.2,0.9,1.2
					l0.2,2c0.2,0,0.6-0.4,0.6-0.4s3.9-6.9,4.1-7.2s0.5-2,0.5-2s0.1-1.2,0-1.9c-0.1-0.7-1.2-1-1.2-1s-1.3-0.2-1.8-0.3
					c-0.5-0.1-0.9,0.2-0.9,0.2l-5.2,8.9"/>
				<line class="st2" x1="33" y1="227" x2="38" y2="218.2"/>
				<polyline class="st2" points="37.8,217.3 73.9,222.4 73.9,221.6 				"/>
				<line class="st2" x1="30.3" y1="226.5" x2="12.4" y2="258.3"/>
				<line class="st2" x1="32.3" y1="227.1" x2="14.6" y2="258.4"/>
				<line class="st2" x1="21.6" y1="248.5" x2="21.9" y2="260.5"/>
				<path class="st2" d="M4.6,264.1l2.6-4.8c0,0,0.8-1,2.5-1c1.7,0,11.2-0.8,19.8,7.4s6.9,17.7,6.9,17.7s-1.6,5.7-3.6,8.3"/>
				<path class="st2" d="M4.3,272.7l-0.2-6.9c0,0-0.2-2.1,2.2-2.4s9.5-0.5,17.2,4.7c7.7,5.1,12,14.6,9.6,22.5c0,0-1.7,6.4-10.4,9.2
					l-6.2-0.3"/>
				<path class="st2" d="M5.7,295.3l0,1.7c0,0,0,1.3,1.7,1.5s6.7,1,6.7,1s4.5,0.5,8.3-1.1s6.9-3.6,8.7-8.9c1.8-5.3-0.4-15-10.2-20.8
					c0,0-3.5-2.1-5.5-2.3c0,0-7-1.2-7.7,5.2l-0.1,6.6"/>
				<line class="st2" x1="11" y1="280.5" x2="18.5" y2="267.4"/>
				<path class="st2" d="M7.5,278.9c0,0,1.8-1.2,3.2,0.9l0.7,3l3.5-6.2c0,0-0.1-3.1-0.1-3.7c0-0.6-0.5-1.3-0.5-1.3
					c-1.2-1.5-2.5-0.5-2.5-0.5L7,279.7"/>
				<path class="st2" d="M6.9,280l1,0.2c0,0,0.6-1.2,1.6-0.4l0.6,2.5c0,0-1.1,0.9-1.6,0.9c0,0,1.8,1.4,2.8-0.2"/>
				<line class="st2" x1="14.6" y1="277.4" x2="19.9" y2="268.1"/>
				<path class="st2" d="M6.2,275.5l0.4-2.3c0,0-0.2-1.6-2-0.8c0,0-2.1,1.8-2.7,7.1c0,0-0.3,2.2-0.4,3.4s0.2,10.8,0.2,10.8
					s0.6,4.9,3.4,2.3"/>
				<path class="st2" d="M6.5,273.3c0,0-0.8,0.2-1.7,2.7c-0.9,2.5-1.2,6.6-1.2,8.6c0,2-0.2,10.7,1.1,11c0,0,1.7,0.4,3.2-7.9l0.7,5.4
					l0.7-1.1c0,0,0-4.1,1.2-6.1c0.1-0.2,0.3-0.4,0.5-0.6c0,0,1-0.5,1,2l0.7-1l0.2-3.9l7.9-13.8"/>
				<path class="st2" d="M11.8,287.4l-0.9,0c0,0-0.1-1.2-0.3-1.5"/>
				<line class="st2" x1="5.6" y1="297" x2="8.6" y2="292.9"/>
				<path class="st2" d="M8.9,292.9c0,0,0.8,0.6,1.3,0.6s8.5,1,8.5,1s7.6,0.3,12.2-4.7"/>
				<path class="st2" d="M23.7,261.4l13.1-23.2l0.7-0.2l0.8,0.1c0,0,0.6,0.5,0.3,2.6l-5.2,9.2c0,0-0.5,1-2.1,0.5l-6.5,11.7"/>
				<path class="st2" d="M33.3,249.5c0,0-0.3-2.6,0.6-4.1s4.2-7.4,4.2-7.4"/>
				<line class="st2" x1="195.1" y1="263.5" x2="38.8" y2="241.1"/>
				<path class="st2" d="M26.3,256.3c0,0,0.2-2.2,0.2-3.6l0.5-0.8l-0.2-12.5"/>
				<polyline class="st2" points="27,249.3 29.1,245.5 28.9,235.3 				"/>
				<line class="st2" x1="32.3" y1="229.3" x2="15.7" y2="258.6"/>
				<line class="st2" x1="30.4" y1="232.9" x2="30.8" y2="245.2"/>
				<path class="st2" d="M29.3,245.5c0,0,1.2,0.4,1.5-0.4L32,243l-0.3-12.6"/>
				<line class="st2" x1="32.1" y1="239.1" x2="34" y2="239.4"/>
				<path class="st2" d="M31.8,234.5l2.6,0.3l0.2,0.2l-0.4,0.6c0,0-0.3,0.7-0.2,1.3c0.1,0.6,0.1,3.1,0.1,3.1s0,0.5,0.2,0.5
					s0.9,0.1,0.9,0.1"/>
				<path class="st2" d="M32.9,229.3l0,3v1.3l2.1,0.2c0,0,0.8,0.4,0.8,1s-0.5,1-0.5,1s-0.2,0.7-0.2,1.2c0.1,0.4,0.2,3.3,0.2,3.3"/>
				<path class="st2" d="M36.5,223.9l1.8,1.8c0,0,0.6,0.6,0.5,1.8l0.2,0.2v1.9l-0.2,0.3v1l-1.3,2.6l-1.7,1.3"/>
				<path class="st2" d="M35.4,225.7l1.6,1.7c0,0,0.7,0.7,0.7,1.5s0.1,3.8,0.1,3.8"/>
				<line class="st2" x1="36.5" y1="234.3" x2="36.5" y2="238"/>
				<polygon class="st2" points="40.8,224.6 54.9,226.6 55.6,237.5 41.3,235.4 				"/>
				<polygon class="st2" points="72.5,223.7 73.2,240.3 57.6,238 56.9,221.5 				"/>
				<polygon class="st2" points="86.1,235.5 111.1,238.9 110.7,231.7 85.9,228 				"/>
				<line class="st2" x1="98.4" y1="230.1" x2="98.6" y2="237.2"/>
				<path class="st2" d="M122.6,233.4c0,0-0.9-0.3-0.9,0.7l0.4,6.3l24.8,3.7l-0.2-6.8c0,0-0.2-0.6-0.7-0.6S122.6,233.4,122.6,233.4z
					"/>
				<line class="st2" x1="134.5" y1="242.2" x2="134.1" y2="235.1"/>
				<path class="st2" d="M151.6,233.3l0,17.6c0,0-23.2-3.5-24-3.3c-0.8,0.2-2.2-0.6-2.2-0.6l-1.7-1.2l-0.9-1.2c0-1.7-1-1.9-1-1.9
					s-8.1-1.1-8.7-1.3s-1.7,0-1.7,1s-0.7,1.3-0.7,1.3l-2.3,0.8l-24.2-3.6c-2-0.1-1.7-1.9-1.7-1.9L82,224.4c0,0,0.2-2.2-2-2.2"/>
				<line class="st2" x1="192.9" y1="250.3" x2="193.1" y2="258.7"/>
				<path class="st2" d="M200.8,251.2l-16.9-2.4c0,0-0.8-0.3-0.7,0.8s0.3,6.8,0.3,6.8s-0.1,1.1,0.8,1c0.9-0.1,13.3,2,13.3,2"/>
				<path class="st2" d="M113.2,248.5l1-1l5.1,0.8l1.1,1c0,0,1.2,1.2-0.4,1.7l-6-0.9C113.9,250.2,113.2,249.3,113.2,248.5z"/>
				<path class="st2" d="M202.4,251.2l-22.1,39.6l0.5,31.5c0,0-0.3,1.7-2,1.8c-1.7,0.2-4.4,0.4-7.8-0.4c-3.4-0.8-18.7-5.5-19.7-22.2
					c0,0-1.5-11.9,16-18.9c0,0,4-1,8.2-0.2s5.1,0.8,5.1,0.8s1.9,0,2.6,2.2l0.7,32l-3,5.2"/>
				<path class="st2" d="M174,320.6c-4.5,2.7-12.1-2.2-16.2-7s-6.1-14.9-1.1-20.4c0.2-0.2,0.4-0.4,0.6-0.6
					c5.1-4.9,13.4-4.5,13.4-4.5s6.2,0.9,7.2,1c1.1,0.1,1.4,1.6,1.4,1.6l0.4,23c0,0-0.6,3.8-1.2,5.3s-1.1,2.7-2.4,1.2
					s-0.5-14.7-0.5-14.7s1.5-7.7,3.3-6.6l-0.2-0.6c0,0-1.3-1.7-2.6-0.4s-2.8,7.7-2.8,9.7s0.2,10.9,0.2,10.9s0.5,5,3.6,2.7"/>
				<path class="st2" d="M173.7,316.2c0,0-7-0.4-13.2-7.9s-3.3-15.7-3.3-15.7"/>
				<path class="st2" d="M200.7,254c0,0-0.4-2.9,1.1-2.9s2.8,0.6,2.8,0.6l-21.2,37.7"/>
				<line class="st2" x1="206.4" y1="241.9" x2="201.6" y2="250.7"/>
				<path class="st2" d="M203.3,275.4c0,0,1.5,0.7,2-0.7l-0.4-22.3l5.2-8.8"/>
				<line class="st2" x1="183.9" y1="309.8" x2="205.3" y2="272.1"/>
				<polyline class="st2" points="205.3,274.8 210.3,266.1 210.7,265.4 				"/>
				<path class="st2" d="M210.2,266.1l1.8,0.2c0,0,0.9,0,1.1-1l-0.7-23.4"/>
				<polyline class="st2" points="213.2,265.8 286.9,136.7 286.5,129.1 285.8,128.4 282.5,125.9 282.5,123.6 				"/>
				<path class="st2" d="M274.2,140.3c-0.5,0.3-0.6,2.2-0.6,3.4c0,1.2,0.8,0.8,0.8,0.8s3.6-6,3.9-7.2s0.8-0.3,0.8-0.3l0,2.8l0,2.7
					c0.7-0.2,0.8-1.8,0.8-1.8l6.4-11.5"/>
				<path class="st2" d="M286,127.9"/>
				<path class="st2" d="M279.3,139.7"/>
				<path class="st2" d="M199.1,265.8l0.2,12.1l4-6.9c0,0,0.2-0.8,0.2-1.3c0-0.5-0.2-10.6-0.2-10.6s0-0.8-0.5,0.1
					C202.2,260.1,199.1,265.8,199.1,265.8z"/>
				<path class="st2" d="M192.2,277.3l-6.9,12.2c0,0-0.6,1.1-0.5,4.5c0.1,3.4,0.1,8,0.1,8s0,1.6,0.8,0.7c0.9-0.9,6.7-11.9,6.7-11.9
					s0.7-2.2,0.7-3.3c0-1.1-0.2-9.7-0.2-9.7S193.2,276.1,192.2,277.3z"/>
				
					<ellipse transform="matrix(0.9937 0.1122 -0.1122 0.9937 31.9048 -20.2339)" class="st2" cx="195.7" cy="273.4" rx="0.9" ry="2.8"/>
				
					<ellipse transform="matrix(0.9937 0.1122 -0.1122 0.9937 32.9253 -20.2046)" class="st2" cx="196" cy="282.5" rx="0.9" ry="2.8"/>
			</g>
			<polygon class="st2" points="156.9,253 156.7,246.2 181.1,250 181.2,256.7 			"/>
			<line class="st2" x1="169.2" y1="254.7" x2="169" y2="248"/>
			<path class="st2" d="M211,264.3l-0.5-20.1c0,0-0.3-2-2.3-2.1c-2-0.1-53.4-7.9-53.4-7.9s0-1.1-1.5-1.1l-1.1-0.2l-1.3,0.9l-0.8-0.5
				l-68.3-9.8"/>
			<path class="st2" d="M34.9,227.5c0,0,1.5,3.5,0.3,6.7"/>
			<line class="st2" x1="10.8" y1="267.1" x2="11" y2="272.5"/>
			<line class="st2" x1="7.4" y1="280.4" x2="7.5" y2="287.9"/>
			<ellipse class="st2" cx="85" cy="217.7" rx="3.9" ry="1.9"/>
			<path class="st2" d="M212.5,242l4.8-8l1,3.1c0,0,1.2-0.1,1-3.2c-0.2-3.1,0.4-6.4,1-6.9c0.6-0.5,0.7-3.2,0.7-3.2l2.7-4.6l0.3,3.5
				l21.9-38.3l-0.1-5l9.5-16.8l0.5,6.6c1.1,0.5,1.1,1.1,1.1,1.1s-28.8,52.2-30.4,53.9c-2,2.1-2.6,7.7-2.5,7.6c0,0-1.4,16-3.6,19.1"
				/>
			<line class="st2" x1="213.1" y1="263.3" x2="220.2" y2="251.2"/>
			<path class="st2" d="M256.3,258.2"/>
			<line class="st2" x1="164.5" y1="226.5" x2="77.2" y2="213.8"/>
			<path class="st2" d="M173.5,222.5"/>
			<line class="st2" x1="211.3" y1="237.4" x2="163.5" y2="230"/>
			<polyline class="st2" points="155.4,233.8 155.6,232.8 210.4,240.9 			"/>
			<path class="st2" d="M164.8,226.5l-2.3,4.5c0,0-0.4,1.4-2.5,1.1s-4.2-0.6-4.2-0.6l-0.8,1.1l-4.6-0.7l-0.4,0.2L36.2,215.7v0.8"/>
			<polyline class="st2" points="128.4,221.2 134.3,211.2 158.6,214.6 159.2,215.1 159,215.4 153.6,224.7 			"/>
			<polyline class="st2" points="92.7,215.7 98.4,205.9 122.5,209.4 116.9,219.6 			"/>
			<polyline class="st2" points="61.2,214.9 64.2,209.6 78.5,211.7 75.1,217.2 38.3,211.7 36.2,215.7 			"/>
			<polygon class="st2" points="74.9,205 76.5,205.2 78.2,201.9 52.2,197.9 50.4,201.3 52.1,201.7 52.4,201.1 75.1,204.5 			"/>
			<polyline class="st2" points="77.4,211.4 79.3,208.2 79.1,202.7 78.8,202.4 78.8,200.4 64.3,198.1 64.5,197.7 61,197.2 
				60.5,197.6 52.9,196.5 52.8,197.7 			"/>
			<line class="st2" x1="60.5" y1="197.6" x2="60.7" y2="199.1"/>
			<line class="st2" x1="64.3" y1="199.8" x2="64.3" y2="198.1"/>
			<polyline class="st2" points="52.9,196.5 65,175.5 72.5,176.6 			"/>
			<polyline class="st2" points="78.9,200.1 88.8,182.2 84,181.5 84.9,179.8 69.1,177.6 67.9,179.5 63.3,178.9 			"/>
			<line class="st2" x1="79.4" y1="203.1" x2="83.6" y2="195.9"/>
			<polyline class="st2" points="83.7,201 83.7,203.4 98,205.5 			"/>
			<g>
				<polyline class="st2" points="117.5,208.5 117.6,199.5 128.6,180.7 				"/>
				<path class="st2" d="M83.6,201.1l-0.1-6.8l8.3-14.7l6.7,1.2l0.2,0.1l2.3-4l27.5,3.8c0,2.2,0.2,9.1,0.2,9.1l-10.6,18.6"/>
			</g>
			<g>
				<path class="st2" d="M168.1,197.5"/>
				<path class="st2" d="M157.9,208.6"/>
				<path class="st2" d="M155.5,208.3"/>
				<path class="st2" d="M153.1,207.9"/>
				<path class="st2" d="M150.7,207.5"/>
				<path class="st2" d="M148.3,207.2"/>
				<path class="st2" d="M145.9,206.8"/>
				<path class="st2" d="M143.5,206.4"/>
				<path class="st2" d="M141,206"/>
				<path class="st2" d="M138.6,205.9"/>
				<path class="st2" d="M136.1,205.4"/>
				<path class="st2" d="M133.7,205.1"/>
			</g>
			<g>
				<path class="st2" d="M178.6,119.2"/>
				<path class="st2" d="M176.1,118.8"/>
			</g>
			<g>
			</g>
			<polyline class="st2" points="217.9,230.9 169.4,223.9 165.5,230.4 			"/>
			<line class="st2" x1="190.3" y1="234.2" x2="194.3" y2="227.5"/>
			<polyline class="st2" points="191.6,234.3 193.4,231.4 194.1,231.5 211.9,234.1 210.1,237.1 			"/>
			<line class="st2" x1="193.9" y1="227.9" x2="194.1" y2="231.5"/>
			<line class="st2" x1="194.3" y1="229.7" x2="217.7" y2="233.2"/>
			<line class="st2" x1="47.3" y1="209.7" x2="50.6" y2="203.8"/>
			<polyline class="st2" points="50.4,201.3 50.6,208.8 52.4,209.2 52.9,208.6 63.6,210.2 			"/>
			<line class="st2" x1="52.1" y1="201.4" x2="52.4" y2="209.1"/>
			<line class="st2" x1="53.4" y1="201.3" x2="53.6" y2="208.9"/>
			<line class="st2" x1="54.8" y1="201.5" x2="55" y2="209.1"/>
			<line class="st2" x1="56.2" y1="201.9" x2="56.4" y2="209.1"/>
			<line class="st2" x1="57.4" y1="202.1" x2="57.6" y2="209.3"/>
			<line class="st2" x1="59.7" y1="202.1" x2="59.9" y2="209.7"/>
			<line class="st2" x1="61.8" y1="202.6" x2="62" y2="209.9"/>
			<line class="st2" x1="63.1" y1="202.8" x2="63.3" y2="210.1"/>
			<line class="st2" x1="64.4" y1="202.9" x2="64.6" y2="209.3"/>
			<line class="st2" x1="65.8" y1="203.3" x2="66" y2="209.6"/>
			<line class="st2" x1="67.1" y1="203.5" x2="67.3" y2="209.8"/>
			<line class="st2" x1="68.5" y1="203.6" x2="68.7" y2="209.9"/>
			<line class="st2" x1="69.9" y1="203.8" x2="70.1" y2="210.1"/>
			<line class="st2" x1="71.4" y1="204.2" x2="71.6" y2="210.5"/>
			<line class="st2" x1="72.7" y1="204.4" x2="72.9" y2="210.7"/>
			<line class="st2" x1="74.9" y1="204.6" x2="75.1" y2="210.9"/>
			<line class="st2" x1="76.6" y1="205" x2="76.8" y2="211.4"/>
			<path class="st2" d="M33.2,217.8v-2.4l3.1-5.2c0,0,0.2-0.4,1.4-0.1c1.1,0.3,0.6,1.6,0.6,1.6l-2,3.2c0,0-0.7,1-1.7,0.8
				c-0.6-0.1-0.3,1.1-0.3,1.1"/>
			<path class="st2" d="M37.3,209.9L40,205l1.1,0.1l0.7,4c0,0,1.1,1.5,1-2.7s1.2-7.8,1.2-7.8l0.6-2.9c0,0,0.2-1.2,0.7-1.5
				c0.6-0.4,1.3-2.3,1.3-2.3s0.8-1.4,1.1,1.4c0.2,2.8-0.6,16.8-0.6,16.8"/>
			<path class="st2" d="M122.5,209.4c0,0,0.3,0.1,0.6,0.5l0.4,4.4c0,0-1,1.5,0,1.8c0,0,1-0.5,1.1,0.6l-2,3.5"/>
			<ellipse class="st3" cx="153.8" cy="227.8" rx="4.1" ry="1.8"/>
			<path class="st2" d="M227.5,197.5l-0.2-11.9c0,0,0.1-1.8,0.4-1.8"/>
			<polyline class="st2" points="238.1,186.9 227.3,185.6 218.9,184 219.1,192.2 			"/>
			<polyline class="st2" points="219.4,182.2 227.4,183.7 238.3,185.2 			"/>
			<path class="st2" d="M218.9,183.9c0,0-0.2-0.8,1.2-3c1.4-2.2,28.3-50.7,28.3-50.7l15.6,2.5l1.1-1.8l0.8,0.2l-1.2,1.7l3.1,0.5
				l-9,15.7l-3-0.4l-7.4,12.9l2.7,0.4l-12.5,22.8c0,0-0.6,0.7-0.6,2.8s0.3,9.1,0.3,9.1"/>
			<polyline class="st2" points="239.1,195.7 238.9,186.5 242,180.9 242.5,190 			"/>
			<line class="st2" x1="263.6" y1="158.8" x2="273.7" y2="141"/>
			<polygon class="st2" points="262.5,157.4 278.3,129.6 279,129.2 285.6,117.4 285.3,110.6 279.8,120.6 279.4,120.3 262.7,149.6 
							"/>
			<polyline class="st2" points="244.6,186.3 244.1,177.8 242.9,177.4 			"/>
			<polyline class="st2" points="249.5,161.7 256,150.4 255.8,149 			"/>
			<polyline class="st2" points="251.2,162 256.9,151.6 255.6,151.4 			"/>
			<line class="st2" x1="257.1" y1="153.9" x2="256.9" y2="151.6"/>
			<polyline class="st2" points="256.4,150.4 258.1,151.1 258.1,152.8 			"/>
			<line class="st2" x1="257.9" y1="152.8" x2="252.1" y2="162.9"/>
			<path class="st2" d="M254.2,162.6l4.8-8.7c0,0,0.7-1.3,0.8,1.1c0.1,2.4,0,2.9,0,2.9l0.4,0.8l-4.6,7.8"/>
			<path class="st2" d="M255.9,167.9l4.8-8.3c0,0,1-2.2-0.7-2.2"/>
			<path class="st2" d="M242.1,141.5c0,0-2.5-6.3,3.2-9.1"/>
			<polyline class="st2" points="247.3,129.8 251.4,122.2 263.6,124.1 264.8,124.6 267.2,124.8 268.1,125.3 268.9,124 251.6,121.4 
				253.1,119.1 264.6,120.6 274.2,122.4 272.8,124.8 269.1,124.1 			"/>
			<line class="st2" x1="259.2" y1="131.8" x2="263.7" y2="123.7"/>
			<line class="st2" x1="264.8" y1="124.9" x2="260.6" y2="132"/>
			<line class="st2" x1="262.8" y1="132.6" x2="267.2" y2="124.8"/>
			<path class="st2" d="M273.6,122.2l0.4-0.8l-23.8-3.6l-0.9,1.6c0,0-0.9,1.7,2.7,1.9"/>
			<path class="st2" d="M268.4,120.1c0,0-6.5-9.1-21.6-10.4c-18.9-1.7-18.4,11.2-18.4,11.2s0.6,1.4,3.5,1.5c2.5,0.1,3.1-1.9,3.1-1.9
				s0.5-4.7,10-4.1c0,0,4.4,0.2,7,1.6"/>
			<ellipse class="st3" cx="196.8" cy="141.4" rx="3.8" ry="1.9"/>
			<polygon class="st2" points="131.5,95 127.6,102.5 126.5,102.4 123.6,107.5 113.4,106 116.2,100.7 115.3,100.5 119.3,93 
				120.6,92.9 130.6,94.2 			"/>
			<polygon class="st2" points="131.5,95 132.6,94.5 143.2,96 143.9,96.5 139.4,104.2 138.5,104.1 135.6,109.1 125.4,107.7 
				128.3,102.5 127.6,102.5 			"/>
			<polyline class="st2" points="143.9,96.5 145.2,96.5 155.2,97.9 155.8,98.5 151.5,106 150.6,105.7 147.7,110.8 137.6,109.4 
				140.5,104.4 139.8,104 			"/>
			<polygon class="st2" points="158.2,97.2 150,111.4 159,112.8 167.3,98.4 			"/>
			<polyline class="st2" points="182.4,102 171.4,100.4 170.5,100.6 166.4,108.1 167.2,108.3 164.2,113.3 174.5,115 177.3,109.7 
				178,110 			"/>
			<polyline class="st2" points="187.2,113.2 194.1,101.3 184,99.9 175.9,113.9 183.8,115.1 			"/>
			<polyline class="st2" points="194.2,114.1 195.1,112.5 194.2,112.3 198.2,104.7 199.1,104.3 209.9,105.9 210.5,106.6 206.1,114 
				205.1,113.8 203.9,115.8 			"/>
			<polyline class="st2" points="211.2,106.1 221.8,107.7 222.5,108.3 218.4,115.9 217.4,115.7 214.4,120.7 214.4,121.7 			"/>
			<polyline class="st2" points="178.1,125.2 176.1,124.9 175.9,113.9 			"/>
			<path class="st2" d="M164.2,113.3c0,0-0.5,1.9-0.4,4.2c0.1,2.2,0.3,5.7,0.3,5.7l9.8,1.1l2-3.1"/>
			<path class="st2" d="M113.4,106c0,0-0.3,0.8-0.4,3.2c-0.1,2.3,0,6.2,0,6.2l10.3,1.4l1.9-2.7"/>
			<path class="st2" d="M125.4,107.7c0,0-0.4,1.4-0.4,3.1s0.1,6.6,0.1,6.6l2.8,0.3"/>
			<path class="st2" d="M135.6,109.1c0,0,0,3.2-0.1,4.3"/>
			<polyline class="st2" points="137.6,109.4 137.1,111.5 137.3,113.8 			"/>
			<polyline class="st2" points="147.9,110.5 147.4,112.7 147.4,115.3 			"/>
			<polyline class="st2" points="123.6,107.5 123.2,109.1 123.4,116.4 			"/>
			<line class="st2" x1="150" y1="111.4" x2="150.1" y2="115.5"/>
			<polyline class="st2" points="174.5,115 174.1,116.7 174.4,124 			"/>
			<polyline class="st2" points="167.6,98.8 167.2,102.2 167.1,105.8 			"/>
			<line class="st2" x1="194.1" y1="101.3" x2="194.2" y2="112.3"/>
			<polyline class="st2" points="222.5,108.3 223.6,108.1 234.1,109.5 234.8,110 234.6,111.1 			"/>
			<polyline class="st2" points="218.4,115.9 219.3,115.9 216.3,120.9 226.9,122.6 			"/>
			<g>
				<path class="st2" d="M128.8,130.7l-0.9,1.5v4.8c0,0,0.2,0.9-0.9,0.6c-1.2-0.2-6.9-1-6.9-1l0.1,2.3l7.4,1"/>
				<path class="st2" d="M129.6,136.3"/>
			</g>
			<g>
				<line class="st2" x1="155.6" y1="132.7" x2="161.5" y2="122.6"/>
			</g>
			<line class="st2" x1="126.9" y1="124.5" x2="120.1" y2="136.3"/>
			<ellipse class="st3" cx="140.4" cy="133.9" rx="4.1" ry="2.1"/>
			<ellipse class="st2" cx="140.4" cy="133.4" rx="3.6" ry="1.9"/>
			<line class="st3" x1="132.4" y1="136.8" x2="132.7" y2="136"/>
			<path class="st3" d="M202.2,146.4c0,0-12.4,22.3-12.8,23.6c-0.5,1.3-2,1-2,1l-11.6-1.9c0,0-2.2,4.4-3,5.5c-0.7,1-2,0.6-2,0.6
				l-40-5.7l-5.3-0.8l3.5-6.4l-12.9-1.9l14.1-25l12.7,1.9l3.6-6l46.6,7.4l-3.2,5.6L202.2,146.4z"/>
			<g>
			</g>
			<g>
			</g>
			<g>
			</g>
			<g>
			</g>
			<g>
			</g>
			<g>
			</g>
			<g>
			</g>
			<g>
			</g>
			<g>
			</g>
			<g>
			</g>
			<g>
				<g>
				</g>
				<g>
				</g>
				<g>
				</g>
				<g>
				</g>
				<g>
				</g>
				<g>
				</g>
				<g>
				</g>
				<g>
				</g>
				<g>
				</g>
				<g>
				</g>
				<g>
				</g>
				<g>
				</g>
				<g>
				</g>
				<g>
				</g>
				<g>
				</g>
				<g>
				</g>
				<g>
				</g>
				<g>
				</g>
				<g>
				</g>
				<g>
				</g>
			</g>
			<g>
			</g>
			<g>
			</g>
			<g>
			</g>
			<g>
			</g>
			<g>
			</g>
			<g>
			</g>
			<g>
			</g>
			<g>
			</g>
			<g>
			</g>
			<g>
			</g>
			<g>
			</g>
			<g>
			</g>
			<g>
			</g>
			<g>
			</g>
			<g>
			</g>
			<g>
			</g>
			<g>
			</g>
			<g>
			</g>
			<g>
			</g>
			<g>
			</g>
			<g>
			</g>
			<g>
			</g>
			<g>
			</g>
			<g>
			</g>
			<g>
			</g>
			<g>
			</g>
			<g>
			</g>
			<g>
			</g>
			<g>
			</g>
			<g>
			</g>
			<g>
			</g>
			<g>
			</g>
			<g>
			</g>
			<g>
			</g>
			<g>
			</g>
			<g>
			</g>
			<g>
			</g>
			<g>
			</g>
			<g>
			</g>
			<g>
			</g>
			<g>
			</g>
			<g>
			</g>
			<g>
			</g>
			<g>
			</g>
			<g>
			</g>
			<line class="st2" x1="188.4" y1="185.8" x2="181.9" y2="184.8"/>
			<polyline class="st2" points="202.4,146.6 202.5,158.8 204.4,159.1 			"/>
			<path class="st2" d="M187.1,185.4l-0.2-11.8c0,0,0.1-2.3,0.7-2.7"/>
			<path class="st2" d="M169.7,175.1c0,0-0.6,0.6-0.7,2.5l0.1,5.8"/>
			<path class="st2" d="M127.8,169.3c0,0-0.6,0.6-0.7,2.5l0.1,8.6"/>
			<polyline class="st2" points="228.4,120.8 226.4,120.5 225.5,122.3 225.4,123 226.2,123.7 			"/>
			<polyline class="st2" points="228.4,121.3 228.1,122 227.4,121.8 225.6,124.9 232.9,126.1 237.9,117.4 			"/>
			<path class="st2" d="M225.6,125.1c0,0-0.1,0.6,0.6,0.6l0.1,4.3"/>
			<path class="st2" d="M232.9,126.1c0,0-0.1,0.5-0.7,0.4l0.2,5.2l-0.9-0.1"/>
			<path class="st2" d="M235,122.4l0.2,4.6c0,0,0.3,1.2-1,1.5l-0.8,1.4"/>
			<polyline class="st2" points="68.9,174.2 102.3,115.6 102.8,116.1 103.5,118.8 			"/>
			<path class="st4" d="M65,161.5"/>
			<path class="st4" d="M81.8,177.2l1.7,0.2c0,0-0.2,0.8,0,2"/>
			<path class="st4" d="M72.9,178c0,0-0.2-1.6,0-2l1.7,0.2"/>
			<polyline class="st4" points="74.8,178.2 74.8,175.9 81.7,176.9 81.7,179.4 			"/>
			<line class="st4" x1="83.5" y1="178.2" x2="91.2" y2="179.4"/>
			<path class="st5" d="M76.5,169.6c0,0,1.1-2.5,4.3-2c3.1,0.5,2.5,3.5,2.5,3.5l-1,2.4c0,0-0.8,2.3-4.3,2c0,0-2.8-0.3-2.5-3
				L76.5,169.6z"/>
			<path class="st4" d="M77.4,169.7c0,0,1.1-1.9,3.2-1.4c2.1,0.5,1.9,2.1,1.9,2.1l-0.9,2.8c0,0-1,1.6-3.2,1.5c-2.2-0.1-2-2.2-2-2.2
				L77.4,169.7z"/>
			<g>
				<g id="LINE_6487_">
					<polygon class="st6" points="80.5,173.3 77.4,172.8 77.5,172.4 80.6,172.9 					"/>
				</g>
				<g id="LINE_6486_">
					<polygon class="st6" points="80.9,171.9 77.8,171.4 78,171 81.1,171.6 					"/>
				</g>
				<g id="LINE_6485_">
					<polygon class="st6" points="81.3,170.6 78.2,170 78.4,169.7 81.5,170.2 					"/>
				</g>
			</g>
			<path class="st4" d="M116.1,160.5c0,0-0.6,1.3-0.6,3.4s0.4,11.2,0.4,11.2l3.5,0.5"/>
			<line class="st3" x1="128.8" y1="184" x2="140.2" y2="185.6"/>
			<g>
				<path class="st3" d="M174.3,174.3l0.1,2.8c0,0,0.7,1.9,4.3,1.9c0,0,2.8,0,3.6-2v-3.3"/>
				<ellipse class="st3" cx="178.3" cy="174" rx="3.9" ry="2.1"/>
			</g>
			<g>
				<path class="st3" d="M118.1,166.1l0.1,2.8c0,0,0.7,1.9,4.3,1.9c0,0,2.8,0,3.6-2v-3.3"/>
				<ellipse class="st3" cx="122" cy="165.8" rx="3.9" ry="2.1"/>
			</g>
			<g>
				<g>
					<path class="st2" d="M119,170c0,0-2,1.9,2.5,2.3c0,0,2.2,0.2,3.5-1"/>
					<path class="st2" d="M119,171.9c0,0-2,1.9,2.5,2.3c0,0,2.2,0.2,3.5-1"/>
					<path class="st2" d="M119,173.7c0,0-2,1.9,2.5,2.3c0,0,2.2,0.2,3.5-1"/>
					<path class="st2" d="M119,175.6c0,0-2,1.9,2.5,2.3c0,0,2.2,0.2,3.5-1"/>
					<path class="st2" d="M119,177.4c0,0-2,1.9,2.5,2.3c0,0,2.2,0.2,3.5-1"/>
				</g>
				<line class="st2" x1="119.6" y1="170.3" x2="119.9" y2="179.5"/>
			</g>
			<g>
				<g>
					<path class="st2" d="M175.5,178.3c0,0-2,1.8,2.4,2.2c0,0,2.2,0.2,3.5-1"/>
					<path class="st2" d="M175.4,180c0,0-2,1.9,2.5,2.3c0,0,2.2,0.2,3.5-1"/>
					<path class="st2" d="M175.4,181.9c0,0-2,1.9,2.5,2.3c0,0,2.2,0.2,3.5-1"/>
					<path class="st2" d="M178.7,186c0.7-0.1,1.8-0.3,2.6-1"/>
					<path class="st2" d="M175.4,183.7"/>
					<path class="st2" d="M178.8,187.9c0.7-0.1,1.8-0.3,2.5-1c0,0,1.2-0.9,0.4-1.9"/>
				</g>
				<line class="st2" x1="176" y1="178.6" x2="176.1" y2="184"/>
				<line class="st2" x1="181" y1="178.4" x2="181.2" y2="188.2"/>
				<line class="st2" x1="124.5" y1="170.1" x2="124.7" y2="179.8"/>
			</g>
			<path class="st2" d="M182.2,185.8c0,0,1.5,2.3-0.9,3.4c-1.9,0.8-2.4,0.4-2.4,0.4"/>
			<polygon class="st2" points="101.2,119.5 101.6,119 104.8,119.3 105.3,120.1 105.3,128.5 106.3,129.8 106.6,138.1 101.6,137.3 
							"/>
			<path class="st2" d="M106.6,112.1c0,0-0.2-3.2,0.9-3.5l4.7,0.8c0,0-0.9,2.1-0.6,3.9l-1.3-0.3"/>
			<path class="st2" d="M111.7,113.7c0,0,0.7,4-0.4,8.8l-1-0.1"/>
			<polyline class="st2" points="111.4,122.8 111.5,125.5 110.2,125.1 110.1,123.3 			"/>
			<polyline class="st2" points="106.5,129.5 107.1,128.7 107.4,129.5 107.6,132.1 111.3,125.8 			"/>
			<polyline class="st2" points="105.5,128.5 105.9,127.4 107.1,128.7 			"/>
			<path class="st2" d="M103.9,118.7c0,0,0.9-7,3.8-7.1l1.5,0.3c0,0-2.2-0.3-3.8,10"/>
			<path class="st2" d="M109.5,125.2c0,0,2.9-11.1,0-13.3"/>
			<path class="st2" d="M179,191.5l4.5,0.7c0,0,1.4,0.3,1.9,0.8s3.3,3.1,3.3,3.1"/>
			<line class="st2" x1="221.3" y1="129.7" x2="185" y2="192.5"/>
			<path class="st2" d="M245.2,173.1c0,0,1.6-0.4,1.5,0.9l0.1,1.9"/>
			<line class="st2" x1="244.1" y1="177.8" x2="246.6" y2="173.7"/>
			<path class="st2" d="M244.9,179.4l9.1-16.1c0,0,0.3-0.9,1.3-0.5"/>
			<path class="st2" d="M247,174.5c0,0,0.2-1.9,0.6-2.4c0.4-0.6,4.8-8.5,4.8-8.5s0.6-1,0.6,0.3s0.1,1.1,0.1,1.1"/>
			<path class="st2" d="M246.1,173.1l0.2-0.7l5.2-9c0,0,0.9-0.6,1.2-0.1"/>
			<path class="st2" d="M262.5,157.4c0,0,1.9,0.3,0.7,2.6c-1.2,2.3-6.1,10.8-6.1,10.8"/>
			<path class="st2" d="M259.9,154.1l0.1-2.7c0,0,0.1-1.7,0.9-3c0.8-1.2,5.3-8.9,5.3-8.9"/>
			<path class="st2" d="M264.8,138.7c0,0,0.6-0.2,1.5,0.3l2.4-4.2c0,0-0.4-0.8-1.5-0.4"/>
			<line class="st2" x1="266.3" y1="143" x2="266.3" y2="139"/>
			<line class="st2" x1="268.8" y1="138.6" x2="268.7" y2="134.8"/>
			<path class="st2" d="M285.3,110.6c0,0,0.3-1.3-1.4-1l-5.8,10c0,0,1.1-1.2,1.8,0.2"/>
			<path class="st2" d="M253.5,118.2c0,0,0.4-1.1,0.7-0.9c0.4,0.1,5.6,0.4,5.6,0.4s0.6,0.3,0.4,1.2c0,0-0.1-1.4-0.9-0.1"/>
			<polygon class="st2" points="253.4,125.2 256.4,125.6 255,128.1 251.8,127.7 			"/>
			<path class="st2" d="M250.3,124.4c0,0-1.3,0.2-3.2,2.4c-1.9,2.2-4.9,8.5-4.9,8.5"/>
			<line class="st2" x1="237.5" y1="123.2" x2="248.4" y2="124.9"/>
			<polyline class="st2" points="237,119 237.4,131 234.9,134.7 			"/>
			<line class="st2" x1="217.3" y1="115.9" x2="217.4" y2="118.8"/>
			<line class="st2" x1="216.3" y1="120.9" x2="216.4" y2="122.1"/>
			<polyline class="st2" points="206.1,116.2 207.1,114.3 206.1,114 			"/>
			<polyline class="st2" points="248.3,130.3 246.7,130.1 242.1,138.3 243.7,138.6 			"/>
			<polyline class="st2" points="274.4,122.6 275.2,122.7 275.3,127.2 			"/>
			<polyline class="st2" points="269.7,124.4 268.8,125.9 271.7,126.5 272.2,126.8 272.1,127.9 273,126.3 272.9,124.9 			"/>
			<polyline class="st2" points="268.1,125.5 267.7,126.3 271.6,126.9 272,127.7 			"/>
			<polyline class="st2" points="267.6,126.5 267.6,127.5 271.7,128 272.2,128.3 268.6,134.5 			"/>
			<line class="st2" x1="265.3" y1="130.8" x2="267.5" y2="127"/>
			<path class="st2" d="M265.7,131l3.1,0.6c0,0,0.6,0.2,0.6,1.3"/>
			<line class="st2" x1="271.5" y1="128.1" x2="269.3" y2="131.9"/>
			<path class="st2" d="M215.4,237.1c0,0-0.1-1.5-2.6-1.2l-2.6,4.5c0,0,0.2,0.6,1,0.6s1.2,0.8,1.2,0.8"/>
			<path class="st2" d="M212.1,234.1c0,0,0.6-0.1,0.3,2"/>
			<path class="st2" d="M157.1,225.4c0,0,2-3.5,2.4-4l-0.4-6.2"/>
			<polyline class="st2" points="182.3,207.9 182.5,220.2 179.7,225.4 			"/>
			<line class="st2" x1="78.7" y1="211.6" x2="78.7" y2="214.1"/>
			<path class="st2" d="M44.5,195.7"/>
			<path class="st2" d="M63.4,178c0,0-0.9-1.2-0.3-1.9s1-1.9,1-1.9s0.3-0.5,1.3-0.4c1,0.1,9.3,1.4,9.3,1.4"/>
			<line class="st3" x1="81.8" y1="176.7" x2="82.3" y2="175.3"/>
			<path class="st2" d="M82.1,176.3l9.4,1.3c0,0,1.3,0.1,1.3,1.3"/>
			<line class="st2" x1="85" y1="175.6" x2="99.9" y2="177.8"/>
			<polyline class="st2" points="106.6,138.1 107.4,136.9 107.2,136 111.8,127.8 111.9,128.3 112.7,127.2 112.4,109.7 			"/>
			<polygon class="st2" points="107.8,130.2 107.6,125.9 108.9,123.9 109.5,125.4 109.7,126.9 			"/>
			<polyline class="st2" points="102.9,116.5 106.5,110.4 106.5,91.8 			"/>
			<polyline class="st2" points="88.7,121.4 107.6,89.8 107.7,86.1 			"/>
			<path class="st2" d="M103.8,93l4.9-8.6l0-2.8c0,0-0.5-1.3-1.9-0.5l-4.9,9.2c0,0,1.3-0.6,1.7,0.7S103.8,93,103.8,93z"/>
			<path class="st2" d="M102.2,90.5l-0.8-0.1l-10.5,18.5c0,0-0.8,1.4-1.2,3.3c-0.3,1.9-2.7,20.1-2.7,20.1s-1.2,9.8-2.7,12
				c-1.5,2.2-16.1,29.7-16.1,29.7"/>
			<path class="st2" d="M106.3,97.1l0.5-0.2l7.6,1.1c0,0,1.4,0,1.1,1.7l-0.2,2.7"/>
			<path class="st2" d="M103.7,93.2c-1.4,0-1.2-0.9-1.2-0.9l-0.2-1.3l1.4,0.2"/>
			<line class="st2" x1="103.9" y1="92.5" x2="102.6" y2="92.3"/>
			<line class="st2" x1="126.3" y1="103.2" x2="126.3" y2="105.3"/>
			<line class="st2" x1="127.4" y1="102.6" x2="127.3" y2="104"/>
			<line class="st2" x1="138.5" y1="104.1" x2="138.6" y2="107.6"/>
			<line class="st2" x1="139.4" y1="104.2" x2="139.6" y2="105.7"/>
			<line class="st2" x1="150.7" y1="106.1" x2="150.8" y2="110"/>
			<line class="st2" x1="151.5" y1="106" x2="151.7" y2="108.4"/>
			<line class="st2" x1="155.8" y1="98.5" x2="156" y2="101"/>
			<polyline class="st2" points="259.5,164.5 259.4,163.4 256.1,169.3 			"/>
			<path class="st2" d="M197,189.2"/>
			<g>
				<g id="LINE_6484_">
				</g>
			</g>
			<g>
				<g id="LINE_6483_">
				</g>
			</g>
			<path class="st2" d="M204.7,189.8"/>
			<g>
				<path class="st3" d="M209.1,256.8h-0.8c0,0-1,1.1-0.6,3.6l0.8,0.2"/>
				
					<ellipse transform="matrix(0.9942 0.1076 -0.1076 0.9942 29.0743 -21.0824)" class="st3" cx="209.9" cy="258.8" rx="1" ry="3.7"/>
				
					<ellipse transform="matrix(0.9942 0.1076 -0.1076 0.9942 29.1042 -21.1841)" class="st3" cx="210.8" cy="259.1" rx="0.9" ry="3.5"/>
			</g>
			<polyline class="st2" points="75,174.8 75.3,174.3 74.9,175.2 			"/>
			<path class="st2" d="M73.3,174.9l1-2c0,0,0.4-0.4,1-0.1"/>
			<polyline class="st2" points="83.4,174.1 84.8,174.3 85,176.4 			"/>
			<line class="st2" x1="83.5" y1="176.4" x2="84.8" y2="174.3"/>
			<path class="st2" d="M82.7,174.8c0,0,1.3-1.6,0.8-4.3"/>
			<line class="st2" x1="136.4" y1="136.4" x2="136.4" y2="134.2"/>
			<line class="st2" x1="192.7" y1="141.6" x2="192.8" y2="144.7"/>
			<path class="st2" d="M199.5,145.9c0,0,1-0.2,1.4-1.3l0-3"/>
		</g>
		<line class="st3" x1="83.6" y1="194.3" x2="117.6" y2="199.3"/>
		<g>
			<polyline class="st2" points="133.7,204.8 133.7,207.2 167.5,212.3 167.7,203.3 178.7,184.6 			"/>
			<path class="st2" d="M133.7,205l-0.1-6.8l8.3-14.7l6.7,1.2l0.2,0.1l2.3-4l27.5,3.8c0,2.2,0.2,9.1,0.2,9.1l-11,18.9"/>
		</g>
		<line class="st3" x1="133.6" y1="198.1" x2="167.6" y2="203.2"/>
		<polyline class="st2" points="233.4,206.1 233.6,198.5 225.2,197.3 227.3,193.7 193.3,188.6 182.3,207.9 189.5,209.1 187,213.1 
			187.3,226.1 		"/>
		<polyline class="st2" points="187.5,213.3 221.2,218 221.2,221.3 		"/>
		<line class="st2" x1="233.6" y1="198.5" x2="221.2" y2="218"/>
		<polyline class="st2" points="176.7,135.8 176.6,128.5 185.3,113 211.7,117.1 209.4,121.1 217.2,122.1 217.3,136.2 		"/>
		<polyline class="st2" points="176.6,128.5 183.7,129.5 181.8,133 208.6,136.9 208.8,150.6 		"/>
		<line class="st2" x1="208.9" y1="136.4" x2="217.2" y2="122.1"/>
		<line class="st2" x1="182" y1="133.5" x2="182.2" y2="136.7"/>
		<polyline class="st2" points="159,112.8 159.4,121.8 163.6,114.9 		"/>
		<polyline class="st2" points="127.3,137.7 127.9,137 127.9,132.2 130.6,127.4 128,127 129.4,124.6 124.2,123.8 130.5,112.8 
			156.5,116.6 153.8,121.4 161.9,122.6 162.1,127.9 165,124.1 165.2,126.5 160.7,133.5 		"/>
		<line class="st2" x1="127.9" y1="132.2" x2="136.3" y2="133.5"/>
		<line class="st2" x1="165" y1="124.1" x2="162.1" y2="123.8"/>
	</g>
</g>
<g id="CALL_OUT">
	<path class="st7" d="M191.6,191.1l-0.1-3.9l0.7-1.2h0.7l-0.4,0.9l3.7,0.7l1-1.7l1.1,0.2l0.9-0.4c0,0,2.3,0,3.2,0.2
		c0,0,2.4,0.2,2.4,1.1c0.1,0.9-0.1,0.2-0.1,0.2l0.1,0.7l0.4,0.2l0.9-0.9l1.6,0.2l0.1,1.4l4.8,0.8l0.7-0.9l0.8,0.1l0.2,2.4l-21.2-3.2
		L191.6,191.1z"/>
	<g>
		<path class="st7" d="M193.8,177.2V172l0.8-1c0,0-0.2-2.4,0.2-3.3l-0.1-3.9l0.2-0.6l1.1-1.6l0.7,0.2l1.7,2.1l0.4-0.6l0.1-5.5
			l0.8-1.3c0,0,0.7-0.4,0.6,2.2c-0.1,2.6-0.1,2.6-0.1,2.6l0.5,0.1l1.3-1.7v-1.4l0.9-1.2l0.8,0.2v-1.1l0.7-1.4l0.7,0.2l0.2-7.7
			l1.2-1.7h0.3l0.5-0.6l0.6,0.4v1.3l1.3,1.3v-0.7v-5.3l0.8-1.4l0.9,0.1l0.1-0.9l0.9-1.2l0.6,0.2l0.1-1.3l0.8-1.3l0.6,0.2l-0.1-1.3
			l0.9-1.2l0.7,0.2v-1.1l0.8-1.5l0.8,0.3v-1.4l0.7-1.1v-0.6l1.6-1.9l0.7,0.5v0.9l1.3,1.4l0.1-5.9l1.2-1.2l0.5,0.2l-0.1,4.7l0.5,0.4
			v1.2l1.4,0.2l0.2-4.8l0.9-1.6l0.6,0.5l-0.1,4.8l0.4,0.5l0.1,1l1.3-0.1l0.2-4.5l0.9-1.6l0.3,0.4l0.1,4.6l0.5,0.6v1l1.3,0.2l0.2-4.9
			l0.9-1.4l0.5,0.2l0.1,5l0.5,0.5v0.9l1.2,0.3l0.2-5l0.9-1.3l0.6,0.2l0.1,0.5l0.2,4.4l0.1,0.4v0.9l2.2,0.3c0,0,0.6-1,1.8-0.9v0.6
			l0.2,0.8l2.1,0.3l0.2,6.6l-1.1,1.8v0.8l-1.3,2.1c0,0-0.9,1-1.8,0.5l-9.3,14.4v1.7l-2,2.9c0,0-0.7,0.9-1.7,0.9l-9.6,14.3v1.5
			l-1,1.9l-0.9,0.6c0,0-1.5,1.3-2.4,1.3c0,0-2.8-0.1-2.6-1.3c0-0.1,0-0.2,0.1-0.3c0.7-1.5,0.6-1.1,0.6-1.1l-11.2-1.6
			c0,0-0.7,2.5-3.4,1.7c0,0-3.2-0.3-1.7-1.7C194.2,178.7,193.8,178,193.8,177.2z"/>
		<g>
			<g>
				<g>
					<path class="st8" d="M236.9,129.1l0-4.6c0,0-0.1-0.6-0.7-0.5l-0.8,1.4l-0.2,6"/>
				</g>
			</g>
			<g>
				<g>
					<path class="st9" d="M237.1,139.3l0-9.7c0,0-0.1-0.6-0.7-0.5l-0.8,1.4l0.1,10.7"/>
				</g>
			</g>
			<g>
				<g>
					<path class="st9" d="M233.8,133.5l0-4.4c0,0-0.1-0.6-0.7-0.5l-0.8,1.4l0.1,5.4"/>
				</g>
			</g>
			<g>
				<g>
					<path class="st9" d="M230.4,133l0-4.4c0,0-0.1-0.6-0.7-0.5l-0.8,1.4l0.1,5.4"/>
				</g>
			</g>
			<g>
				<g>
					<path class="st9" d="M227,132.6l0-4.4c0,0-0.1-0.6-0.7-0.5l-0.8,1.4l0.1,5.4"/>
				</g>
			</g>
			<g>
				<g>
					<path class="st9" d="M223.6,132l0-4.4c0,0-0.1-0.6-0.7-0.5l-0.8,1.4l0.1,5.4"/>
				</g>
			</g>
			<g>
				<g>
					<path class="st9" d="M220.2,131.6l0-4.4c0,0-0.1-0.6-0.7-0.5l-0.8,1.4l0.1,5.4"/>
				</g>
			</g>
			<g>
				<g>
					<path class="st9" d="M235.6,141.6l0-9.7c0,0-0.1-0.6-0.7-0.5l-0.8,1.4l0.1,10.7"/>
				</g>
			</g>
			<g>
				<g>
					<path class="st9" d="M232.2,135.8l0-4.4c0,0-0.1-0.6-0.7-0.5l-0.8,1.4l0.1,5.4"/>
				</g>
			</g>
			<g>
				<g>
					<path class="st9" d="M228.8,135.3l0-4.4c0,0-0.1-0.6-0.7-0.5l-0.8,1.4l0.1,5.4"/>
				</g>
			</g>
			<g>
				<g>
					<path class="st9" d="M225.4,134.9l0-4.4c0,0-0.1-0.6-0.7-0.5l-0.8,1.4l0.1,5.4"/>
				</g>
			</g>
			<g>
				<g>
					<path class="st9" d="M222.1,134.3l0-4.4c0,0-0.1-0.6-0.7-0.5l-0.8,1.4l0.1,5.4"/>
				</g>
			</g>
			<g>
				<g>
					<path class="st9" d="M218.6,133.9l0-4.4c0,0-0.1-0.6-0.7-0.5l-0.8,1.4l0.1,5.4"/>
				</g>
			</g>
			<g>
				<g>
					<path class="st9" d="M232.7,145.8l-0.1-10.7l0.8-1.4c0.6-0.1,0.7,0.5,0.7,0.5l0,9.7"/>
				</g>
			</g>
			<g>
				<g>
					<path class="st9" d="M230.7,138.2l0-4.4c0,0-0.1-0.6-0.7-0.5l-0.8,1.4l0.1,5.4"/>
				</g>
			</g>
			<g>
				<g>
					<path class="st9" d="M227.3,137.7l0-4.4c0,0-0.1-0.6-0.7-0.5l-0.8,1.4l0.1,5.4"/>
				</g>
			</g>
			<g>
				<g>
					<path class="st9" d="M223.9,137.2l0-4.4c0,0-0.1-0.6-0.7-0.5l-0.8,1.4l0.1,5.4"/>
				</g>
			</g>
			<g>
				<g>
					<path class="st9" d="M220.6,136.7l0-4.4c0,0-0.1-0.6-0.7-0.5l-0.8,1.4l0.1,5.4"/>
				</g>
			</g>
			<g>
				<g>
					<path class="st9" d="M217.1,136.3l0-4.4c0,0-0.1-0.6-0.7-0.5l-0.8,1.4l0.1,5.4"/>
				</g>
			</g>
			<g>
				<g>
					<path class="st9" d="M232.5,146.3l0-9.7c0,0-0.1-0.6-0.7-0.5l-0.8,1.4l0.1,10.7"/>
				</g>
			</g>
			<g>
				<g>
					<path class="st9" d="M229.2,140.5l0-4.4c0,0-0.1-0.6-0.7-0.5l-0.8,1.4l0.1,5.4"/>
				</g>
			</g>
			<g>
				<g>
					<path class="st9" d="M225.8,140l0-4.4c0,0-0.1-0.6-0.7-0.5l-0.8,1.4l0.1,5.4"/>
				</g>
			</g>
			<g>
				<g>
					<path class="st9" d="M222.4,139.5l0-4.4c0,0-0.1-0.6-0.7-0.5l-0.8,1.4l0.1,5.4"/>
				</g>
			</g>
			<g>
				<g>
					<path class="st9" d="M219,139l0-4.4c0,0-0.1-0.6-0.7-0.5l-0.8,1.4l0.1,5.4"/>
				</g>
			</g>
			<g>
				<g>
					<path class="st9" d="M215.5,138.6l0-4.4c0,0-0.1-0.6-0.7-0.5l-0.8,1.4l0.1,5.4"/>
				</g>
			</g>
			<g>
				<g>
					<path class="st9" d="M229.7,150.4l-0.1-10.7l0.8-1.4c0.6-0.1,0.7,0.5,0.7,0.5l0,9.7"/>
				</g>
			</g>
			<g>
				<g>
					<path class="st9" d="M227.8,142.8l0-4.4c0,0-0.1-0.6-0.7-0.5l-0.8,1.4l0.1,5.4"/>
				</g>
			</g>
			<g>
				<g>
					<path class="st9" d="M224.4,142.2l0-4.4c0,0-0.1-0.6-0.7-0.5l-0.8,1.4l0.1,5.4"/>
				</g>
			</g>
			<g>
				<g>
					<path class="st9" d="M221,141.8l0-4.4c0,0-0.1-0.6-0.7-0.5l-0.8,1.4l0.1,5.4"/>
				</g>
			</g>
			<g>
				<g>
					<path class="st9" d="M217.6,141.2l0-4.4c0,0-0.1-0.6-0.7-0.5l-0.8,1.4l0.1,5.4"/>
				</g>
			</g>
			<g>
				<g>
					<path class="st9" d="M214.1,140.9l0-4.4c0,0-0.1-0.6-0.7-0.5l-0.8,1.4l0.1,5.4"/>
				</g>
			</g>
			<g>
				<g>
					<path class="st9" d="M229.5,151l0-9.8c0,0-0.1-0.6-0.7-0.5l-0.8,1.4l0.1,5.3"/>
				</g>
			</g>
			<g>
				<g>
					<path class="st9" d="M226.4,150l-0.2-9.3c0,0-0.1-0.6-0.7-0.5l-0.8,1.4l0.1,5.4"/>
				</g>
			</g>
			<g>
				<g>
					<path class="st9" d="M222.9,149.7l-0.1-9.6c0,0-0.1-0.6-0.7-0.5l-0.8,1.4l0.1,5.4"/>
				</g>
			</g>
			<g>
				<g>
					<path class="st9" d="M219.6,149l-0.2-9.3c0,0-0.1-0.6-0.7-0.5l-0.8,1.4l0.1,5.4"/>
				</g>
			</g>
			<g>
				<g>
					<path class="st9" d="M216.1,148.8l-0.1-9.7c0,0-0.1-0.6-0.7-0.5l-0.8,1.4l0.1,5.4"/>
				</g>
			</g>
			<g>
				<g>
					<path class="st9" d="M212.7,148.1l-0.1-9.3c0,0-0.1-0.6-0.7-0.5l-0.8,1.4l0.1,5.4"/>
				</g>
			</g>
			<g>
				<g>
					<path class="st9" d="M227.9,148.5l0-5.1c0,0-0.1-0.6-0.7-0.5l-0.8,1.4l0.1,5.3"/>
				</g>
			</g>
			<g>
				<g>
					<path class="st9" d="M224.6,147.4l0-4.4c0,0-0.1-0.6-0.7-0.5l-0.8,1.4l0.1,5.4"/>
				</g>
			</g>
			<g>
				<g>
					<path class="st9" d="M221.2,146.8l0-4.4c0,0-0.1-0.6-0.7-0.5l-0.8,1.4l0.1,5.4"/>
				</g>
			</g>
			<g>
				<g>
					<path class="st9" d="M217.8,146.4l0-4.4c0,0-0.1-0.6-0.7-0.5l-0.8,1.4l0.1,5.4"/>
				</g>
			</g>
			<g>
				<g>
					<path class="st9" d="M214.4,145.8l0-4.4c0,0-0.1-0.6-0.7-0.5l-0.8,1.4l0.1,5.4"/>
				</g>
			</g>
			<g>
				<g>
					<path class="st9" d="M210.9,145.4l0-4.4c0,0-0.1-0.6-0.7-0.5l-0.8,1.4l0.1,5.4"/>
				</g>
			</g>
			<g>
				<g>
					<path class="st9" d="M224.9,157l0-9.8c0,0-0.1-0.6-0.7-0.5l-0.8,1.4l0.1,10.8l1,0.2l1-1.4C225.5,157.7,224.8,157.4,224.9,157z"
						/>
				</g>
			</g>
			<g>
				<g>
					<path class="st9" d="M220.3,158.4l0.8,0.2l0.9-1.4c0,0-0.5,0-0.5-0.3l0-9.5c0,0-0.1-0.6-0.7-0.5l-0.8,1.4l0.1,5.5"/>
				</g>
			</g>
			<g>
				<g>
					<path class="st9" d="M218.2,151.4l0-4.5c0,0-0.1-0.6-0.7-0.5l-0.8,1.4l0.1,5.5"/>
				</g>
			</g>
			<g>
				<g>
					<path class="st9" d="M214.8,151l0-4.5c0,0-0.1-0.6-0.7-0.5l-0.8,1.4l0.1,5.5"/>
				</g>
			</g>
			<g>
				<g>
					<path class="st9" d="M211.4,150.5l0-4.5c0,0-0.1-0.6-0.7-0.5l-0.8,1.4l0.1,5.5"/>
				</g>
			</g>
			<g>
				<g>
					<path class="st9" d="M209.8,152.9l0-4.5c0,0-0.1-0.6-0.7-0.5l-0.8,1.4l0.1,5.5"/>
				</g>
			</g>
			<g>
				<g>
					<path class="st9" d="M213.2,153.4l0-4.5c0,0-0.1-0.6-0.7-0.5l-0.8,1.4l0.1,5.5"/>
				</g>
			</g>
			<g>
				<g>
					<path class="st9" d="M216.6,153.8l0-4.5c0,0-0.1-0.6-0.7-0.5l-0.8,1.4l0.1,5.5"/>
				</g>
			</g>
			<g>
				<g>
					<path class="st9" d="M218.7,160.6l0.8,0.1l0.9-1.3c0,0-0.4-0.2-0.4-0.4l0-9.4c0,0-0.1-0.6-0.7-0.5l-0.8,1.4l0.1,5.5"/>
				</g>
			</g>
			<g>
				<g>
					<path class="st9" d="M208,150l0-4.5c0,0-0.1-0.6-0.7-0.5l-0.8,1.4l0.1,5.5"/>
				</g>
			</g>
			<g>
				<g>
					<path class="st8" d="M233.5,128.6l0-4.6c0,0-0.1-0.6-0.7-0.5l-0.8,1.4l-0.2,6"/>
				</g>
			</g>
			<g>
				<g>
					<path class="st8" d="M230.1,128.1l0-4.6c0,0-0.1-0.6-0.7-0.5l-0.8,1.4l-0.2,6"/>
				</g>
			</g>
			<g>
				<g>
					<path class="st8" d="M226.7,127.6l0-4.6c0,0-0.1-0.6-0.7-0.5l-0.8,1.4l-0.2,6"/>
				</g>
			</g>
			<g>
				<g>
					<path class="st8" d="M223.3,127.2l0-4.6c0,0-0.1-0.6-0.7-0.5l-0.8,1.4l-0.2,6"/>
				</g>
			</g>
			<g>
				<g>
					<path class="st9" d="M218.6,161.5v-9.4c0,0-0.1-0.6-0.7-0.5l-0.8,1.4l0.1,5.5"/>
				</g>
				<polyline class="st8" points="217.9,162.8 218.2,163.2 219.1,161.6 218.6,161.5 				"/>
			</g>
			<g>
				<g>
					<path class="st9" d="M215.1,156.2l0-4.5c0,0-0.1-0.6-0.7-0.5l-0.8,1.4l0.1,5.5"/>
				</g>
			</g>
			<g>
				<g>
					<path class="st9" d="M211.7,155.7l0-4.5c0,0-0.1-0.6-0.7-0.5l-0.8,1.4l0.1,5.5"/>
				</g>
			</g>
			<g>
				<g>
					<path class="st9" d="M208.3,155.2l0-4.5c0,0-0.1-0.6-0.7-0.5l-0.8,1.4l0.1,5.5"/>
				</g>
			</g>
			<g>
				<g>
					<path class="st9" d="M217,158.9l0-4.5c0,0-0.1-0.6-0.7-0.5l-0.8,1.4l0.1,5.5"/>
				</g>
			</g>
			<g>
				<g>
					<path class="st9" d="M213.6,158.5l0-4.5c0,0-0.1-0.6-0.7-0.5l-0.8,1.4l0.1,5.5"/>
				</g>
			</g>
			<g>
				<g>
					<path class="st9" d="M210.2,158l0-4.5c0,0-0.1-0.6-0.7-0.5l-0.8,1.4l0.1,5.5"/>
				</g>
			</g>
			<g>
				<g>
					<path class="st9" d="M206.7,157.5l0-4.5c0,0-0.1-0.6-0.7-0.5l-0.8,1.4l0.1,5.5"/>
				</g>
			</g>
			<g>
				<g>
					<path class="st9" d="M215.5,165.6l0-8.8c0,0-0.1-0.6-0.7-0.5l-0.8,1.4l0.1,5.5"/>
				</g>
			</g>
			<g>
				<g>
					<path class="st9" d="M212.1,165.2l0-8.8c0,0-0.1-0.6-0.7-0.5l-0.8,1.4l0.1,5.5"/>
				</g>
			</g>
			<g>
				<g>
					<path class="st9" d="M208.7,164.6l-0.1-8.7c0,0-0.1-0.6-0.7-0.5l-0.8,1.4l0.1,5.5"/>
				</g>
			</g>
			<g>
				<g>
					<path class="st9" d="M205.2,164.6v-9.2c0,0-0.1-0.6-0.7-0.5l-0.8,1.4l0.1,5.5"/>
				</g>
			</g>
			<g>
				<g>
					<path class="st9" d="M213.9,163.4l0-4.5c0,0-0.1-0.6-0.7-0.5l-0.8,1.4l-0.1,8.9"/>
				</g>
			</g>
			<g>
				<g>
					<path class="st9" d="M217.2,164l0-4.5c0,0-0.1-0.6-0.7-0.5l-0.8,1.4l0.1,5.5"/>
				</g>
			</g>
			<g>
				<g>
					<path class="st9" d="M200.3,161.5l0-4.5c0,0-0.1-0.6-0.7-0.5l-0.8,1.4l0.1,5.5"/>
				</g>
			</g>
			<g>
				<g>
					<path class="st9" d="M210.5,163l0-4.5c0,0-0.1-0.6-0.7-0.5l-0.8,1.4l-0.1,9.6"/>
				</g>
			</g>
			<g>
				<g>
					<path class="st9" d="M207.1,162.5l0-4.5c0,0-0.1-0.6-0.7-0.5l-0.8,1.4l0,9.7"/>
				</g>
			</g>
			<g>
				<g>
					<path class="st9" d="M203.6,162l0-4.5c0,0-0.1-0.6-0.7-0.5l-0.8,1.4l-0.1,9.4"/>
				</g>
			</g>
			<g>
				<g>
					<path class="st9" d="M211,173l0.2-9.6c0,0-0.1-0.6-0.7-0.5l-0.8,1.4l-0.2,9.5"/>
				</g>
			</g>
			<g>
				<g>
					<path class="st9" d="M214.3,173.5l0.2-9.5c0,0-0.1-0.6-0.7-0.5l-0.8,1.4l-0.1,9.7"/>
				</g>
			</g>
			<g>
				<g>
					<path class="st9" d="M207.6,172.4l0.1-9.4c0,0-0.1-0.6-0.7-0.5l-0.8,1.4l-0.1,9.1"/>
				</g>
			</g>
			<g>
				<g>
					<path class="st9" d="M204.1,171.9l0.2-9.4c0,0-0.1-0.6-0.7-0.5l-0.8,1.4l-0.2,9.3"/>
				</g>
			</g>
			<g>
				<g>
					<path class="st9" d="M200.8,171.6l0.1-9.5c0,0-0.1-0.6-0.7-0.5l-0.8,1.4l-0.1,9.3"/>
				</g>
			</g>
			<path class="st8" d="M199.2,167.8l-3.6-4.3c0,0-0.8-0.7-0.8,0.5s-0.1,3.6-0.1,3.6"/>
			<line class="st8" x1="201.9" y1="171.1" x2="200.8" y2="169.8"/>
			<path class="st8" d="M199.3,165l-2.4-2.9c0,0-0.4-0.8-0.8-0.5l-1.2,1.8"/>
			<line class="st8" x1="202.6" y1="168.9" x2="200.9" y2="166.9"/>
			<path class="st8" d="M206.8,145.5c-0.1,0-0.2,0-0.3,0.1c-0.2,0.2-0.2,0.4-0.2,0.4l-0.8,1.2l-0.1,6.3"/>
			<line class="st8" x1="209.4" y1="148" x2="208" y2="146.6"/>
			<path class="st8" d="M241.8,134.9c0.7,0.2,0.7,1.1,0.7,1.1l-0.1,4.6l-1.5,2.3l-0.1-1.6l-10.9,16.4v1.8l-2.1,3l-0.1-1.4
				l-10.9,16.6v1.5l-1.2,2V175l0.8-0.9c0,0-0.4-3.3,0.5-4.3"/>
			<polyline class="st8" points="241.9,133.9 243.4,131.6 243.5,138 242.6,139.5 			"/>
			<line class="st8" x1="195.6" y1="163.5" x2="196.6" y2="161.9"/>
			<g>
				<path class="st8" d="M237.5,132.6l2.4-2.2c0.9-0.8,1.4,0,1.4,0l-0.2,6.5l-23,34.5"/>
				<path class="st8" d="M239.8,138.6l0.2-6.5c0,0-0.5-0.8-1.4,0l-1.5,1.3"/>
				<line class="st8" x1="239.8" y1="131.9" x2="241.1" y2="130.2"/>
			</g>
			<g>
				<line class="st8" x1="223.4" y1="152.7" x2="221.7" y2="154.2"/>
				<line class="st8" x1="223.3" y1="153.6" x2="221.6" y2="155.1"/>
				<g>
					<path class="st8" d="M228.7,155.4l0.2-6.5c0,0-0.5-0.8-1.4,0l-2.6,2.4"/>
					<path class="st8" d="M227.5,157.1l0.2-6.5c0,0-0.3-0.6-1.2,0.2l-1.6,1.4"/>
					<line class="st8" x1="227.5" y1="150.4" x2="228.7" y2="148.7"/>
				</g>
			</g>
			<line class="st8" x1="241.2" y1="131.2" x2="243.4" y2="131.6"/>
			<line class="st8" x1="237.1" y1="130.6" x2="239.2" y2="130.9"/>
			<line class="st8" x1="233.8" y1="130.1" x2="235.3" y2="130.4"/>
			<line class="st8" x1="230.4" y1="129.6" x2="231.8" y2="129.8"/>
			<line class="st8" x1="227.1" y1="129.1" x2="228.4" y2="129.3"/>
			<line class="st8" x1="224" y1="128.7" x2="224.9" y2="128.8"/>
			<line class="st8" x1="220.3" y1="128.1" x2="221.7" y2="129.4"/>
			<line class="st8" x1="217.9" y1="128.7" x2="219" y2="127.2"/>
			<line class="st8" x1="206.1" y1="152.5" x2="206.1" y2="148"/>
			<line class="st8" x1="205.5" y1="147.2" x2="206.6" y2="148.2"/>
			<g>
				<line class="st8" x1="212.9" y1="168.5" x2="211.3" y2="169.9"/>
				<path class="st8" d="M218,171.4l0.2-6.5c0,0-0.5-0.8-1.4,0l-2.3,2.1"/>
				<line class="st8" x1="212.9" y1="169.6" x2="211.2" y2="171.3"/>
				<path class="st8" d="M216.8,173.1l0.2-6.5c0,0-0.3-0.6-1.2,0.2l-1.3,1.3"/>
				<line class="st8" x1="216.8" y1="166.4" x2="218" y2="164.7"/>
			</g>
			<line class="st8" x1="226.3" y1="153.5" x2="226.4" y2="151"/>
			<path class="st8" d="M218.2,169.6l7.9-12c0,0-0.9-3.7,1.4-5.3"/>
			<path class="st8" d="M228.8,153.6l9.5-14.5c0,0-0.3-3.7,1.6-5.2"/>
			<path class="st8" d="M227.8,162.5c0,0-0.2,0.8-1.2,0.8"/>
			<path class="st8" d="M240.9,142.9c0,0-0.2,0.9-1.5,0.6"/>
			<path class="st8" d="M216.8,168.6c0,0-1.7,0.3-1.5,5l-0.8,1.1l0.2,6.8c0,0,0.1,0.4,0.8-0.4"/>
			<polyline class="st8" points="199,171.9 198.7,172.4 200.4,172.7 201.2,171.7 			"/>
			<polyline class="st8" points="202.3,172.5 202,172.9 203.8,173.2 204.5,172.2 			"/>
			<polyline class="st8" points="205.7,172.9 205.5,173.4 207.2,173.7 207.9,172.7 			"/>
			<polyline class="st8" points="209.1,173.5 208.9,174 210.6,174.2 211.3,173.2 			"/>
			<polyline class="st8" points="212.4,174.2 212.2,174.7 213.9,175 214.6,173.9 			"/>
			<polyline class="st8" points="232.9,145.1 233.7,145.2 234.5,144.2 			"/>
			<polyline class="st8" points="234.4,142.7 235.2,142.8 236,141.8 			"/>
			<polyline class="st8" points="236,140.3 236.9,140.4 237.6,139.4 			"/>
			<polyline class="st8" points="231.3,147.4 232.2,147.5 232.9,146.5 			"/>
			<polyline class="st8" points="229.7,149.7 230.6,149.8 231.3,148.8 			"/>
			<line class="st8" x1="229.2" y1="151.7" x2="229.9" y2="150.7"/>
			<line class="st8" x1="200.8" y1="161.7" x2="202" y2="159.7"/>
			<line class="st8" x1="201" y1="162.9" x2="202.1" y2="161"/>
			<path class="st8" d="M196.6,164.8l-1.3,2.1c0,0-1,1.1-0.7,3.9l-0.7,1.2l-0.1,5.3c0,0-0.1,0.8,0.4,1.3"/>
			<path class="st8" d="M198.1,167l-2.5,3.9c0,0-0.5-1.1,0.2-3.1l1.4-2.2"/>
			<path class="st8" d="M195.5,171.2l-1,1.7c0,0,0.1,0.3,0.7,0.5c0.7,0.2,6,0.9,6,0.9l0.4-0.3l5.1,0.7l0.2,0.4l5.9,0.8
				c0,0,1,0.4,1.8-1.1"/>
			<path class="st8" d="M194.3,173.1v0.8c0,0,0.5,0.2,0.8,0.3c0.3,0.1,6,0.9,6,0.9l0.7-0.3l4.7,0.7l0.5,0.5l6.2,0.9
				c0,0,0.8-0.1,1.4-0.7"/>
			<ellipse class="st8" cx="196.1" cy="172.6" rx="0.7" ry="0.5"/>
			<path class="st8" d="M195.4,174.2v2.5c0,0,0.8,0.5,1.4,0.1l0.1-2.4"/>
			<path class="st8" d="M195.4,178v1.1c0,0,0.8,0.5,1.4,0.1l0.1-0.9"/>
			<path class="st8" d="M194,177.7l18.9,2.8c0,0,0.7,0.2,1.2-0.4c0.5-0.7,0.5-0.7,0.5-0.7"/>
			<path class="st8" d="M193.9,177.2l8.2,1.2c0,0,0.7-1,2.3-0.7c1.5,0.3,1.2,1.1,1.2,1.1l7.9,1.2l1.2-1.5"/>
			<path class="st8" d="M205.2,179.4c-0.2-1.1-1.3-1-1.3-1s-1-0.2-1.6,0.5"/>
			<polyline class="st8" points="197,175.6 199.8,176.1 199.9,174.8 			"/>
			<polyline class="st8" points="200.7,175.1 200.7,176.1 207.2,177.3 207.2,175.9 			"/>
			<polyline class="st8" points="208.8,176.3 208.9,177.1 212.8,177.7 212.8,176.9 			"/>
			<line class="st8" x1="199.8" y1="176.1" x2="200.6" y2="175.3"/>
			<line class="st8" x1="207.2" y1="177.3" x2="208.1" y2="176.1"/>
			<line class="st8" x1="212.8" y1="177.7" x2="213.5" y2="176.9"/>
			<line class="st8" x1="194.7" y1="176" x2="194.6" y2="174.1"/>
			<path class="st8" d="M194.9,177.9l-0.7,0.9c0,0-0.4,0.7,1.8,0.9c0,0,2,0.5,3-1.1"/>
			<path class="st8" d="M194,179.2c0,0-0.3,1,1.9,1.2c0,0,2.4,0.7,3.6-1.7"/>
			<path class="st8" d="M210.6,180.2l-0.5,0.7c0,0-0.1,0.2-0.1,0.4c0,0.3,0.3,0.6,1.7,0.8c0,0,2.1,0.5,2.5-0.7l0.6-0.8"/>
			<path class="st8" d="M210,181.2l-0.2,0.8c0,0,1,1.1,3.7,0.7c0,0,0.9-0.4,1.2-1.6"/>
			<polyline class="st8" points="204.5,166.1 204.8,166.1 205.5,165.1 			"/>
			<polyline class="st8" points="207.7,166.4 208.3,166.7 208.7,166 			"/>
			<polyline class="st8" points="211.2,167.1 212,167.1 212.4,166.5 			"/>
		</g>
	</g>
	<g>
		<defs>
			<polygon id="SVGID_1_" points="191.3,191.7 193.3,188.3 214.9,191.5 215.3,187.6 202.6,185.1 191.6,184.4 189.4,189.2 			"/>
		</defs>
		<clipPath id="SVGID_2_">
			<use xlink:href="#SVGID_1_"  style="overflow:visible;"/>
		</clipPath>
		<g class="st10">
			<g>
				<path class="st11" d="M197.5,186.7c0.2-0.4,1.5-0.8,1.5-0.8c1.1-0.2,2-0.1,4.1,0.2c2.1,0.3,1.9,1.1,1.9,1.1s-0.4,0.3-0.9,0.5
					c-0.4,0.2-2.2,0.3-4.4,0C197.4,187.4,197.5,186.8,197.5,186.7l-0.2,1.4c0,0,0.2,0.8,2.4,1c2.2,0.2,3.4,0.3,4.2-0.2l0.8-0.6"/>
				<g>
					<g id="LINE_2_">
						<polygon class="st12" points="199,186.8 202.5,187.4 202.4,187.5 198.8,187 						"/>
					</g>
				</g>
				<g>
					<g id="LINE_1_">
						<polygon class="st12" points="199.9,186.4 203.4,186.9 203.3,187.1 199.7,186.5 						"/>
					</g>
				</g>
				<polyline class="st11" points="204.9,187.2 204.9,188.1 204.7,188.4 205.4,188 205.3,188.8 				"/>
			</g>
			<path class="st11" d="M196,188.3c0,0-2-0.3-3.3-0.5c-1.3-0.2-1.1-0.8-1.1-0.8l0.6-1.2l0.9,0.2l-0.6,1l3.7,0.6"/>
			<path class="st11" d="M207.8,189.8c0,0,2.9,0.4,4.2,0.6c1.3,0.2,1.8-0.4,1.8-0.4l0.5-1l-0.8-0.1l-0.7,1l-4.7-0.7"/>
			<polyline class="st11" points="198.2,186.2 197.3,186 195.8,188.7 197.3,189 197.5,188.5 			"/>
			<polygon class="st11" points="205.8,188 206.2,187.3 207.7,187.5 206.3,190.2 204.8,190 			"/>
			<path class="st11" d="M191.5,187.2l0.2,6.4c0,0-0.2,0.7,1.1,0.8s13.3,1.9,13.3,1.9l0.4-0.6l-0.2-5.5"/>
			<line class="st11" x1="192.7" y1="187.7" x2="192.8" y2="194.4"/>
			<polyline class="st11" points="195.8,188.7 195.9,194.1 195.5,194.8 195.6,197.7 206.2,199.2 206.1,196.3 			"/>
			<polyline class="st11" points="207.7,187.5 207.8,189 207.6,189.8 207.8,196.5 206.4,199.2 			"/>
			<path class="st11" d="M214.2,189l0.1,3.3l0.2,0.5l0.1,0.9l-0.2,0.8l0.1,1.1c0,0-0.4,1.8-2.3,1.5l-4.3-0.5"/>
			<line class="st11" x1="212.1" y1="190.5" x2="212.3" y2="196.8"/>
			<line class="st11" x1="213.7" y1="190" x2="214" y2="196.4"/>
			<line class="st11" x1="196.1" y1="194.1" x2="206.4" y2="195.6"/>
			
				<ellipse transform="matrix(0.995 0.1003 -0.1003 0.995 20.4185 -19.2601)" class="st11" cx="201.8" cy="193.5" rx="2.8" ry="1.3"/>
			<line class="st11" x1="197.3" y1="189" x2="197.4" y2="194.1"/>
			<line class="st11" x1="204.9" y1="190.1" x2="205" y2="195.2"/>
			<line class="st11" x1="198.9" y1="193" x2="197.5" y2="192.7"/>
			<polyline class="st11" points="199.1,192.8 198.7,191.8 199.1,189.1 			"/>
			<line class="st11" x1="197.4" y1="191.6" x2="198.6" y2="191.9"/>
			<line class="st11" x1="202.8" y1="192" x2="202.9" y2="189.4"/>
			<polyline class="st11" points="200.3,189.3 200.2,191.4 199.3,192.7 			"/>
			<path class="st11" d="M200.6,198.6c0,0,0.2,0.8,1.3,0.8c1.2,0,1.6-0.4,1.6-0.4"/>
			<path class="st11" d="M200.1,198.4c0,0,0,1.3,1.6,1.5c0,0,1.4,0.2,2.3-1"/>
			<polygon class="st13" points="203.2,193.7 200.3,193.3 200.4,193.1 203.5,193.5 			"/>
			<polyline class="st13" points="201.3,194.1 202,192.7 202.5,192.8 201.5,194.2 201.3,194.1 			"/>
		</g>
	</g>
	<g>
		<circle class="st1" cx="157.7" cy="63" r="27.4"/>
		<g>
			<g>
				<g>
					<g>
						<defs>
							<circle id="SVGID_3_" cx="157.7" cy="63" r="27.4"/>
						</defs>
						<clipPath id="SVGID_4_">
							<use xlink:href="#SVGID_3_"  style="overflow:visible;"/>
						</clipPath>
						<g class="st14">
							<polyline class="st15" points="170.5,64.2 170.9,46.9 169.8,41.9 169.4,59.1 164.1,59 							"/>
							<polyline class="st15" points="148.3,71.7 142.7,83.4 146.1,87.3 							"/>
							<polyline class="st15" points="164.7,87.5 164.7,79.1 146.7,79.6 146.7,75.8 149.8,75.7 149.8,77.5 161.2,77.6 161.2,75.6 
								169,75.6 168.3,87.9 							"/>
							<polyline class="st15" points="169.5,88 170.4,85 169,75.6 							"/>
							<path class="st15" d="M161.1,76.1L145.4,70c0,0-14.9-6.5-8.1-15.5"/>
							<line class="st15" x1="163.1" y1="75.5" x2="156.5" y2="73.5"/>
							<line class="st15" x1="169.4" y1="59.1" x2="170" y2="64.7"/>
							<polygon points="144.9,54.2 146.6,54.8 146.3,61.9 144.4,61.1 							"/>
							<polygon points="148.2,55.4 149.9,56 149.6,63.1 147.7,62.3 							"/>
							<polygon points="151.5,56.5 153.3,57.1 152.9,64.2 151,63.4 							"/>
							<polygon points="154.8,57.7 156.6,58.3 156.2,65.4 154.4,64.6 							"/>
							<polygon points="158.2,58.8 159.9,59.4 159.5,66.5 157.7,65.7 							"/>
							<path class="st16" d="M144.3,65.7c0,0-6.6-3.7-7.1-9.7c0,0,0.1-6.7,13.2-3.6l7.1,2.5c0,0,6.5,2.5,9.1,8.6c0,0,2.7,5.1-4.5,7
								c0,0-2,0.9-7.5-0.9l-8.4-2.7L144.3,65.7z"/>
							<path class="st16" d="M140.5,56.5c0,0,1.1-5.8,11.9-2l5.2,2c0,0,6.3,2.4,6.7,7.6s-7,3.9-7,3.9l-10.2-3.4
								C147.2,64.5,140.8,62.8,140.5,56.5z"/>
							<path class="st16" d="M155.3,73.4h5.5c0,0,5.5-0.5,6.2-6.6"/>
							<path class="st15" d="M167.8,64.9c0,0,2.7-0.7,4.7,1c0,0,4.3,2.6,5.2,6.6c0,0,0,3.2-4.3,3c-4.3-0.2-5.8,0-5.8,0l0.2-13.3
								l-2.4-1"/>
							<path class="st15" d="M170,81.8c0,0,6.2-0.6,7.8-4.8l-0.1-4.5"/>
							<path class="st15" d="M168,66.5h2c0,0,4.5,1.6,5,5.1c0,0,0.2,2.2-3.4,2.1s-3.6-0.1-3.6-0.1"/>
							<path class="st15" d="M168,70.4c0,0,3-1.4,6.6,1.7"/>
							<path class="st15" d="M149.8,75.7c0,0,0.4-2.4,3.5-2.1s2.4,3.6,2.4,3.6"/>
							<path class="st15" d="M149.8,77c0,0,0.4-2.6,3.2-2.1s2.1,2.5,2.1,2.5"/>
						</g>
					</g>
					<circle class="st17" cx="157.7" cy="63" r="27.4"/>
				</g>
				<g>
					<polygon class="st18" points="147.8,48.8 154.1,38.8 150.9,40.6 150.8,28.7 144.6,32.4 144.6,44.3 141.5,46.1 					"/>
				</g>
			</g>
		</g>
	</g>
	<g>
		<line class="st19" x1="172.7" y1="94" x2="198.2" y2="184.5"/>
		<line class="st20" x1="172.7" y1="94" x2="198.2" y2="184.5"/>
	</g>
	<g>
		<g>
			<polygon class="st21" points="206.6,156.6 208,162.9 215.3,158.9 213.3,158.3 215.6,153.9 211,152.7 208.8,157.1 			"/>
		</g>
		<g>
			<polygon class="st21" points="220.9,148.5 219.5,142.1 212.1,146.2 214.3,146.8 211.9,151.1 216.3,152.3 218.7,147.9 			"/>
		</g>
	</g>
	<g>
		<g>
			<polygon class="st22" points="219.7,89.3 214,80.9 208,89.3 210.8,89.4 210.8,95.8 217.2,95.8 217.1,89.3 			"/>
			<polygon points="219,89.2 214.3,82.1 209.2,89.2 211.6,89.2 211.5,95.1 216.7,95.1 216.5,89.2 			"/>
		</g>
		<g>
			<polygon class="st22" points="208.5,103 214.2,111.5 220.2,103 217.4,102.9 217.5,96.5 211,96.5 211.1,103 			"/>
			<polygon points="209.2,103.2 213.9,110.2 219,103.1 216.6,103.1 216.7,97.3 211.8,97.3 211.7,103.2 			"/>
		</g>
	</g>
	<g>
		<path class="st1" d="M206.6,73.7v-6.7l1-1.3c0,0-0.3-3.2,0.2-4.3l-0.1-5l0.3-0.8l1.4-2l0.9,0.3l2.2,2.8l0.5-0.7l0.1-7.2l1-1.6
			c0,0,0.9-0.5,0.8,2.9c-0.1,3.4-0.1,3.4-0.1,3.4l0.6,0.1l1.7-2.3v-1.8l1.2-1.5l1,0.2v-1.4l0.9-1.8l0.9,0.2l0.3-9.9l1.5-2.3h0.4
			l0.6-0.8l0.8,0.5v1.6l1.7,1.6v-0.9v-6.9l1-1.8l1.1,0.1l0.1-1.2l1.2-1.5l0.7,0.2l0.1-1.7l1-1.6l0.8,0.3l-0.1-1.6l1.1-1.5l0.9,0.2
			v-1.4l1-1.9l1,0.4v-1.8l0.9-1.4v-0.8l2-2.5l0.9,0.6v1.1l1.7,1.8l0.1-7.7l1.5-1.5l0.6,0.2l-0.1,6l0.6,0.5v1.5l1.8,0.2l0.2-6.3
			l1.1-2l0.8,0.6l-0.1,6.3l0.5,0.6l0.1,1.3l1.7-0.1l0.3-5.8l1.2-2l0.4,0.5l0.1,5.9l0.6,0.7v1.3l1.6,0.2l0.2-6.4l1.2-1.8l0.6,0.3
			l0.1,6.5l0.6,0.6v1.2l1.5,0.4l0.2-6.5l1.2-1.6l0.7,0.2l0.1,0.6l0.2,5.7l0.1,0.5v1.2l2.9,0.4c0,0,0.7-1.3,2.4-1.1v0.7l0.2,1
			l2.7,0.4l0.2,8.5l-1.4,2.4v1l-1.6,2.8c0,0-1.2,1.3-2.4,0.6l-12.1,18.8v2.2l-2.6,3.8c0,0-0.9,1.2-2.2,1.2l-12.4,18.5v1.9l-1.3,2.5
			l-1.2,0.8c0,0-1.9,1.6-3.1,1.6c0,0-3.6-0.1-3.4-1.6c0-0.1,0.1-0.3,0.1-0.4c0.9-1.9,0.7-1.4,0.7-1.4l-14.5-2c0,0-0.9,3.3-4.4,2.2
			c0,0-4.1-0.4-2.2-2.2C207.1,75.7,206.5,74.8,206.6,73.7z"/>
		<g>
			<g>
				<g>
					<path class="st8" d="M262.5,11.4l0.1-6c0,0-0.1-0.7-0.9-0.7l-1.1,1.8l-0.2,7.8"/>
				</g>
			</g>
			<g>
				<g>
					<path class="st23" d="M262.8,24.6l0.1-12.6c0,0-0.1-0.7-0.9-0.7l-1.1,1.8L261,27"/>
				</g>
			</g>
			<g>
				<g>
					<path class="st23" d="M258.5,17.1l0.1-5.7c0,0-0.1-0.7-0.9-0.7l-1.1,1.8l0.1,7.1"/>
				</g>
			</g>
			<g>
				<g>
					<path class="st23" d="M254.1,16.4l0.1-5.7c0,0-0.1-0.7-0.9-0.7l-1.1,1.8l0.1,7.1"/>
				</g>
			</g>
			<g>
				<g>
					<path class="st23" d="M249.7,15.8l0.1-5.7c0,0-0.1-0.7-0.9-0.7l-1.1,1.8l0.1,7.1"/>
				</g>
			</g>
			<g>
				<g>
					<path class="st23" d="M245.3,15.1l0.1-5.7c0,0-0.1-0.7-0.9-0.7l-1.1,1.8l0.1,7.1"/>
				</g>
			</g>
			<g>
				<g>
					<path class="st23" d="M240.8,14.6l0.1-5.7c0,0-0.1-0.7-0.9-0.7l-1.1,1.8L239,17"/>
				</g>
			</g>
			<g>
				<g>
					<path class="st23" d="M260.8,27.6l0.1-12.6c0,0-0.1-0.7-0.9-0.7l-1.1,1.8L259,30"/>
				</g>
			</g>
			<g>
				<g>
					<path class="st23" d="M256.5,20.1l0.1-5.7c0,0-0.1-0.7-0.9-0.7l-1.1,1.8l0.1,7.1"/>
				</g>
			</g>
			<g>
				<g>
					<path class="st23" d="M252.1,19.4l0.1-5.7c0,0-0.1-0.7-0.9-0.7l-1.1,1.8l0.1,7.1"/>
				</g>
			</g>
			<g>
				<g>
					<path class="st23" d="M247.6,18.8l0.1-5.7c0,0-0.1-0.7-0.9-0.7l-1.1,1.8l0.1,7.1"/>
				</g>
			</g>
			<g>
				<g>
					<path class="st23" d="M243.3,18.1l0.1-5.7c0,0-0.1-0.7-0.9-0.7l-1.1,1.8l0.1,7.1"/>
				</g>
			</g>
			<g>
				<g>
					<path class="st23" d="M238.8,17.6l0.1-5.7c0,0-0.1-0.7-0.9-0.7l-1.1,1.8L237,20"/>
				</g>
			</g>
			<g>
				<g>
					<path class="st23" d="M257,33.1l-0.1-13.9l1.1-1.8c0.8-0.1,0.9,0.7,0.9,0.7l-0.1,12.6"/>
				</g>
			</g>
			<g>
				<g>
					<path class="st23" d="M254.5,23.2l0.1-5.7c0,0-0.1-0.7-0.9-0.7l-1.1,1.8l0.1,7.1"/>
				</g>
			</g>
			<g>
				<g>
					<path class="st23" d="M250.1,22.5l0.1-5.7c0,0-0.1-0.7-0.9-0.7l-1.1,1.8l0.1,7.1"/>
				</g>
			</g>
			<g>
				<g>
					<path class="st23" d="M245.7,21.9l0.1-5.7c0,0-0.1-0.7-0.9-0.7l-1.1,1.8l0.1,7.1"/>
				</g>
			</g>
			<g>
				<g>
					<path class="st23" d="M241.3,21.2l0.1-5.7c0,0-0.1-0.7-0.9-0.7l-1.1,1.8l0.1,7.1"/>
				</g>
			</g>
			<g>
				<g>
					<path class="st23" d="M236.8,20.7l0.1-5.7c0,0-0.1-0.7-0.9-0.7l-1.1,1.8l0.1,7.1"/>
				</g>
			</g>
			<g>
				<g>
					<path class="st23" d="M256.8,33.7l0.1-12.6c0,0-0.1-0.7-0.9-0.7l-1.1,1.8l0.1,13.9"/>
				</g>
			</g>
			<g>
				<g>
					<path class="st23" d="M252.5,26.2l0.1-5.7c0,0-0.1-0.7-0.9-0.7l-1.1,1.8l0.1,7.1"/>
				</g>
			</g>
			<g>
				<g>
					<path class="st23" d="M248.1,25.5l0.1-5.7c0,0-0.1-0.7-0.9-0.7l-1.1,1.8l0.1,7.1"/>
				</g>
			</g>
			<g>
				<g>
					<path class="st23" d="M243.7,24.9l0.1-5.7c0,0-0.1-0.7-0.9-0.7l-1.1,1.8l0.1,7.1"/>
				</g>
			</g>
			<g>
				<g>
					<path class="st23" d="M239.3,24.2l0.1-5.7c0,0-0.1-0.7-0.9-0.7l-1.1,1.8l0.1,7.1"/>
				</g>
			</g>
			<g>
				<g>
					<path class="st23" d="M234.8,23.7l0.1-5.7c0,0-0.1-0.7-0.9-0.7l-1.1,1.8l0.1,7.1"/>
				</g>
			</g>
			<g>
				<g>
					<path class="st23" d="M253.2,39l-0.1-13.9l1.1-1.8C255,23.3,255,24,255,24L255,36.6"/>
				</g>
			</g>
			<g>
				<g>
					<path class="st23" d="M250.7,29.1l0.1-5.7c0,0-0.1-0.7-0.9-0.7l-1.1,1.8l0.1,7.1"/>
				</g>
			</g>
			<g>
				<g>
					<path class="st23" d="M246.3,28.4l0.1-5.7c0,0-0.1-0.7-0.9-0.7l-1.1,1.8l0.1,7.1"/>
				</g>
			</g>
			<g>
				<g>
					<path class="st23" d="M241.8,27.8l0.1-5.7c0,0-0.1-0.7-0.9-0.7l-1.1,1.8l0.1,7.1"/>
				</g>
			</g>
			<g>
				<g>
					<path class="st23" d="M237.5,27.1l0.1-5.7c0,0-0.1-0.7-0.9-0.7l-1.1,1.8l0.1,7.1"/>
				</g>
			</g>
			<g>
				<g>
					<path class="st23" d="M233,26.6l0.1-5.7c0,0-0.1-0.7-0.9-0.7l-1.1,1.8l0.1,7.1"/>
				</g>
			</g>
			<g>
				<g>
					<path class="st23" d="M252.9,39.7l0.1-12.7c0,0-0.1-0.7-0.9-0.7l-1.1,1.8l0.1,6.9"/>
				</g>
			</g>
			<g>
				<g>
					<path class="st23" d="M249,38.5l-0.3-12.1c0,0-0.1-0.7-0.9-0.7l-1.1,1.8l0.1,7.1"/>
				</g>
			</g>
			<g>
				<g>
					<path class="st23" d="M244.4,38.1l-0.1-12.5c0,0-0.1-0.7-0.9-0.7l-1.1,1.8l0.1,7.1"/>
				</g>
			</g>
			<g>
				<g>
					<path class="st23" d="M240,37.2l-0.2-12.1c0,0-0.1-0.7-0.9-0.7l-1.1,1.8l0.1,7.1"/>
				</g>
			</g>
			<g>
				<g>
					<path class="st23" d="M235.6,37l-0.1-12.6c0,0-0.1-0.7-0.9-0.7l-1.1,1.8l0.1,7.1"/>
				</g>
			</g>
			<g>
				<g>
					<path class="st23" d="M231.1,36L231,23.9c0,0-0.1-0.7-0.9-0.7L229,25l0.1,7.1"/>
				</g>
			</g>
			<g>
				<g>
					<path class="st23" d="M250.8,36.5l0.1-6.6c0,0-0.1-0.7-0.9-0.7l-1.1,1.8l0.1,6.9"/>
				</g>
			</g>
			<g>
				<g>
					<path class="st23" d="M246.5,35.1l0.1-5.7c0,0-0.1-0.7-0.9-0.7l-1.1,1.8l0.1,7.1"/>
				</g>
			</g>
			<g>
				<g>
					<path class="st23" d="M242.1,34.3l0.1-5.7c0,0-0.1-0.7-0.9-0.7l-1.1,1.8l0.1,7.1"/>
				</g>
			</g>
			<g>
				<g>
					<path class="st23" d="M237.7,33.8l0.1-5.7c0,0-0.1-0.7-0.9-0.7l-1.1,1.8l0.1,7.1"/>
				</g>
			</g>
			<g>
				<g>
					<path class="st23" d="M233.3,33.1l0.1-5.7c0,0-0.1-0.7-0.9-0.7l-1.1,1.8l0.1,7.1"/>
				</g>
			</g>
			<g>
				<g>
					<path class="st23" d="M228.8,32.5l0.1-5.7c0,0-0.1-0.7-0.9-0.7l-1.1,1.8L227,35"/>
				</g>
			</g>
			<g>
				<g>
					<path class="st23" d="M246.9,47.6l0.1-12.7c0,0-0.1-0.8-0.9-0.7L245,36l0.1,14l1.3,0.2l1.3-1.8
						C247.7,48.4,246.8,48.1,246.9,47.6z"/>
				</g>
				<path class="st8" d="M245.2,35.7c0,0,0.6,0.3,0.8,0.7L246,50"/>
			</g>
			<g>
				<g>
					<path class="st23" d="M241,49.3l1.1,0.2l1.2-1.8c0,0-0.7,0.1-0.7-0.4l0.1-12.3c0,0-0.1-0.8-0.9-0.7l-1.1,1.8l0.1,7.1"/>
				</g>
			</g>
			<g>
				<g>
					<path class="st23" d="M238.2,40.3l0.1-5.8c0,0-0.1-0.8-0.9-0.7l-1.1,1.8l0.1,7.1"/>
				</g>
			</g>
			<g>
				<g>
					<path class="st23" d="M233.9,39.8l0.1-5.8c0,0-0.1-0.8-0.9-0.7l-1.1,1.8l0.1,7.1"/>
				</g>
			</g>
			<g>
				<g>
					<path class="st23" d="M229.5,39.2l0.1-5.8c0,0-0.1-0.8-0.9-0.7l-1.1,1.8l0.1,7.1"/>
				</g>
			</g>
			<g>
				<g>
					<path class="st23" d="M227.3,42.2l0.1-5.8c0,0-0.1-0.8-0.9-0.7l-1.1,1.8l0.1,7.1"/>
				</g>
			</g>
			<g>
				<g>
					<path class="st23" d="M231.8,42.8l0.1-5.8c0,0-0.1-0.8-0.9-0.7l-1.1,1.8l0.1,7.1"/>
				</g>
			</g>
			<g>
				<g>
					<path class="st23" d="M236.1,43.5l0.1-5.8c0,0-0.1-0.8-0.9-0.7l-1.1,1.8l0.1,7.1"/>
				</g>
			</g>
			<g>
				<g>
					<path class="st23" d="M239,52.3l1.1,0.2l1.1-1.6c0,0-0.6-0.2-0.6-0.5l0.1-12.1c0,0-0.1-0.8-0.9-0.7l-1.1,1.8l0.1,7.1"/>
				</g>
			</g>
			<g>
				<g>
					<path class="st23" d="M225,38.4l0.1-5.8c0,0-0.1-0.8-0.9-0.7l-1.1,1.8l0.1,7.1"/>
				</g>
			</g>
			<g>
				<g>
					<path class="st8" d="M258.1,10.7l0.1-6c0,0-0.1-0.7-0.9-0.7l-1.1,1.8l-0.2,7.8"/>
				</g>
			</g>
			<g>
				<g>
					<path class="st8" d="M253.7,10.1l0.1-6c0,0-0.1-0.7-0.9-0.7l-1.1,1.8l-0.2,7.8"/>
				</g>
			</g>
			<g>
				<g>
					<path class="st8" d="M249.3,9.4l0.1-6c0,0-0.1-0.7-0.9-0.7l-1.1,1.8l-0.2,7.8"/>
				</g>
			</g>
			<g>
				<g>
					<path class="st8" d="M244.9,8.9l0.1-6c0,0-0.1-0.7-0.9-0.7L242.9,4l-0.2,7.8"/>
				</g>
			</g>
			<g>
				<g>
					<path class="st23" d="M238.8,53.4V41.3c0,0-0.1-0.8-0.9-0.7l-1.1,1.8l0.1,7.1"/>
				</g>
				<path class="st8" d="M237,42c0,0,0.6,0.3,0.8,0.7l0.1,12.3l0.4,0.5l1.2-2l-0.7-0.1"/>
			</g>
			<g>
				<g>
					<path class="st23" d="M234.2,46.5l0.1-5.8c0,0-0.1-0.8-0.9-0.7l-1.1,1.8l0.1,7.1"/>
				</g>
			</g>
			<g>
				<g>
					<path class="st23" d="M229.8,45.8l0.1-5.8c0,0-0.1-0.8-0.9-0.7l-1.1,1.8l0.1,7.1"/>
				</g>
			</g>
			<g>
				<g>
					<path class="st23" d="M225.4,45.2l0.1-5.8c0,0-0.1-0.8-0.9-0.7l-1.1,1.8l0.1,7.1"/>
				</g>
			</g>
			<g>
				<g>
					<path class="st23" d="M236.7,50.1l0.1-5.8c0,0-0.1-0.8-0.9-0.7l-1.1,1.8l0.1,7.1"/>
				</g>
			</g>
			<g>
				<g>
					<path class="st23" d="M232.2,49.5l0.1-5.8c0,0-0.1-0.8-0.9-0.7l-1.1,1.8l0.1,7.1"/>
				</g>
			</g>
			<g>
				<g>
					<path class="st23" d="M227.8,48.8l0.1-5.8c0,0-0.1-0.8-0.9-0.7l-1.1,1.8l0.1,7.1"/>
				</g>
			</g>
			<g>
				<g>
					<path class="st23" d="M223.4,48.2l0.1-5.8c0,0-0.1-0.8-0.9-0.7l-1.1,1.8l0.1,7.1"/>
				</g>
			</g>
			<g>
				<g>
					<path class="st23" d="M234.8,58.7l-0.1-11.4c0,0-0.1-0.8-0.9-0.7l-1.1,1.8l0.1,7.1"/>
				</g>
			</g>
			<g>
				<g>
					<path class="st23" d="M230.4,58.2l-0.1-11.5c0,0-0.1-0.8-0.9-0.7l-1.1,1.8l0.1,7.1"/>
				</g>
			</g>
			<g>
				<g>
					<path class="st23" d="M226,57.4l-0.1-11.3c0,0-0.1-0.8-0.9-0.7l-1.1,1.8l0.1,7.1"/>
				</g>
			</g>
			<g>
				<g>
					<path class="st23" d="M221.4,57.4v-12c0,0-0.1-0.8-0.9-0.7l-1.1,1.8l0.1,7.1"/>
				</g>
			</g>
			<g>
				<g>
					<path class="st23" d="M232.7,55.9l0.1-5.8c0,0-0.1-0.8-0.9-0.7l-1.1,1.8l-0.1,11.5"/>
				</g>
			</g>
			<g>
				<g>
					<path class="st23" d="M237,56.6l0.1-5.8c0,0-0.1-0.8-0.9-0.7l-1.1,1.8l0.1,7.1"/>
				</g>
			</g>
			<g>
				<g>
					<path class="st23" d="M215,53.4l0.1-5.8c0,0-0.1-0.8-0.9-0.7l-1.1,1.8l0.1,7.1"/>
				</g>
			</g>
			<g>
				<g>
					<path class="st23" d="M228.2,55.3l0.1-5.8c0,0-0.1-0.8-0.9-0.7l-1.1,1.8l-0.1,12.5"/>
				</g>
			</g>
			<g>
				<g>
					<path class="st23" d="M223.8,54.7l0.1-5.8c0,0-0.1-0.8-0.9-0.7l-1.1,1.8l0,12.6"/>
				</g>
			</g>
			<g>
				<g>
					<path class="st23" d="M219.3,54.1l0.1-5.8c0,0-0.1-0.8-0.9-0.7l-1.1,1.8l-0.1,12.3"/>
				</g>
			</g>
			<g>
				<g>
					<path class="st23" d="M228.9,68.4l0.2-12.4c0,0-0.1-0.8-0.9-0.7l-1.1,1.8l-0.2,12.4"/>
				</g>
			</g>
			<g>
				<g>
					<path class="st23" d="M233.2,69l0.3-12.3c0,0-0.1-0.8-0.9-0.7l-1.1,1.8l-0.2,12.6"/>
				</g>
			</g>
			<g>
				<g>
					<path class="st23" d="M224.5,67.6l0.2-12.2c0,0-0.1-0.8-0.9-0.7l-1.1,1.8l-0.2,11.8"/>
				</g>
			</g>
			<g>
				<g>
					<path class="st23" d="M220,66.9l0.3-12.2c0,0-0.1-0.8-0.9-0.7l-1.1,1.8l-0.2,12.1"/>
				</g>
			</g>
			<g>
				<g>
					<path class="st23" d="M215.7,66.5l0.2-12.3c0,0-0.1-0.8-0.9-0.7l-1.1,1.8l-0.2,12.1"/>
				</g>
			</g>
			<path class="st8" d="M213.6,61.6l-4.7-5.6c0,0-1.1-0.9-1.1,0.6s-0.1,4.6-0.1,4.6"/>
			<line class="st8" x1="217.1" y1="65.9" x2="215.7" y2="64.2"/>
			<path class="st8" d="M213.7,57.9l-3.1-3.8c0,0-0.5-1.1-1.1-0.6l-1.5,2.3"/>
			<line class="st8" x1="218" y1="62.9" x2="215.8" y2="60.3"/>
			<path class="st8" d="M223.5,32.6c-0.1,0-0.3,0-0.4,0.2c-0.3,0.3-0.3,0.5-0.3,0.5l-1.1,1.6l-0.2,8.1"/>
			<line class="st8" x1="226.8" y1="35.8" x2="225.1" y2="34.1"/>
			<path class="st8" d="M268.9,18.9c0.8,0.3,0.9,1.5,0.9,1.5l-0.1,6l-1.9,2.9l-0.2-2.1l-14.1,21.3v2.3l-2.8,3.9l-0.2-1.8l-14.1,21.5
				v1.9l-1.6,2.6v-8l1-1.2c0,0-0.5-4.2,0.6-5.5"/>
			<polyline class="st8" points="269,17.6 270.9,14.5 271.1,22.9 269.9,24.9 			"/>
			<line class="st8" x1="208.9" y1="56" x2="210.2" y2="54"/>
			<g>
				<path class="st8" d="M263.2,15.9l3.2-2.8c1.2-1.1,1.8,0,1.8,0l-0.3,8.5L238,66.3"/>
				<path class="st8" d="M266.3,23.7l0.3-8.5c0,0-0.6-1.1-1.8,0l-1.9,1.7"/>
				<line class="st8" x1="266.3" y1="14.9" x2="267.9" y2="12.8"/>
			</g>
			<g>
				<line class="st8" x1="245.1" y1="41.9" x2="242.8" y2="44"/>
				<line class="st8" x1="244.9" y1="43.1" x2="242.7" y2="45"/>
				<g>
					<path class="st8" d="M251.9,45.5l0.3-8.5c0,0-0.6-1.1-1.8,0l-3.4,3.1"/>
					<path class="st8" d="M250.3,47.7l0.3-8.5c0,0-0.4-0.8-1.6,0.3l-2.1,1.8"/>
					<line class="st8" x1="250.3" y1="39" x2="251.9" y2="36.8"/>
				</g>
			</g>
			<line class="st8" x1="268.2" y1="14.1" x2="270.9" y2="14.5"/>
			<line class="st8" x1="262.8" y1="13.3" x2="265.6" y2="13.7"/>
			<line class="st8" x1="258.5" y1="12.7" x2="260.5" y2="13"/>
			<line class="st8" x1="254.1" y1="12" x2="255.9" y2="12.3"/>
			<line class="st8" x1="249.8" y1="11.4" x2="251.5" y2="11.6"/>
			<line class="st8" x1="245.7" y1="10.8" x2="247" y2="11"/>
			<line class="st8" x1="241" y1="10" x2="242.8" y2="11.7"/>
			<line class="st8" x1="237.8" y1="10.8" x2="239.3" y2="8.8"/>
			<line class="st8" x1="222.5" y1="41.7" x2="222.6" y2="35.8"/>
			<line class="st8" x1="221.7" y1="34.8" x2="223.2" y2="36.1"/>
			<g>
				<line class="st8" x1="231.4" y1="62.4" x2="229.3" y2="64.3"/>
				<path class="st8" d="M238,66.3l0.3-8.5c0,0-0.6-1.1-1.8,0l-3,2.7"/>
				<line class="st8" x1="231.4" y1="63.9" x2="229.2" y2="66.1"/>
				<path class="st8" d="M236.4,68.4l0.3-8.5c0,0-0.4-0.8-1.6,0.3l-1.7,1.6"/>
				<line class="st8" x1="236.4" y1="59.7" x2="238" y2="57.6"/>
			</g>
			<line class="st8" x1="248.8" y1="43" x2="248.9" y2="39.8"/>
			<path class="st8" d="M238.3,63.9l10.3-15.5c0,0-1.2-4.8,1.8-6.8"/>
			<path class="st8" d="M252,43.2l12.4-18.8c0,0-0.4-4.8,2.1-6.8"/>
			<path class="st8" d="M250.7,54.7c0,0-0.3,1.1-1.6,1"/>
			<path class="st8" d="M267.8,29.3c0,0-0.3,1.2-1.9,0.8"/>
			<path class="st8" d="M236.5,62.6c0,0-2.2,0.4-1.9,6.5l-1,1.5l0.2,8.8c0,0,0.2,0.5,1-0.5"/>
			<polyline class="st8" points="213.3,66.9 213,67.6 215.2,67.9 216.1,66.6 			"/>
			<polyline class="st8" points="217.6,67.6 217.3,68.3 219.5,68.6 220.4,67.3 			"/>
			<polyline class="st8" points="222.1,68.3 221.7,68.9 224,69.3 224.9,67.9 			"/>
			<polyline class="st8" points="226.5,68.9 226.2,69.6 228.4,69.9 229.4,68.6 			"/>
			<polyline class="st8" points="230.7,69.9 230.4,70.5 232.7,70.9 233.6,69.5 			"/>
			<polyline class="st8" points="257.3,32.1 258.4,32.2 259.4,30.9 			"/>
			<polyline class="st8" points="259.2,29.1 260.4,29.2 261.3,27.9 			"/>
			<polyline class="st8" points="261.4,25.9 262.5,26 263.4,24.7 			"/>
			<polyline class="st8" points="255.3,35.1 256.4,35.2 257.3,33.9 			"/>
			<polyline class="st8" points="253.2,38.1 254.3,38.2 255.3,36.9 			"/>
			<line class="st8" x1="252.5" y1="40.6" x2="253.4" y2="39.3"/>
			<line class="st8" x1="215.7" y1="53.7" x2="217.3" y2="51"/>
			<line class="st8" x1="215.9" y1="55.2" x2="217.4" y2="52.8"/>
			<path class="st8" d="M210.2,57.6l-1.7,2.7c0,0-1.3,1.4-0.8,5.1l-0.9,1.5l-0.1,6.8c0,0-0.2,1.1,0.5,1.7"/>
			<path class="st8" d="M212.2,60.5l-3.2,5.1c0,0-0.7-1.4,0.2-4l1.8-2.8"/>
			<path class="st8" d="M208.8,65.9l-1.3,2.2c0,0,0.1,0.4,0.9,0.6c0.8,0.2,7.8,1.2,7.8,1.2l0.5-0.4l6.6,0.9l0.2,0.5l7.7,1.1
				c0,0,1.3,0.5,2.3-1.5"/>
			<path class="st8" d="M207.2,68.4v1c0,0,0.6,0.3,1,0.4c0.4,0.1,7.8,1.2,7.8,1.2l0.8-0.4l6.1,0.9l0.6,0.6l8.1,1.2
				c0,0,1-0.1,1.8-0.8"/>
			<ellipse class="st8" cx="209.6" cy="67.8" rx="1" ry="0.6"/>
			<path class="st8" d="M208.6,69.9v3.3c0,0,1,0.6,1.8,0.2l0.1-3.2"/>
			<path class="st8" d="M208.6,74.8v1.4c0,0,1,0.6,1.8,0.2l0.1-1.2"/>
			<path class="st8" d="M206.8,74.5l24.6,3.6c0,0,0.8,0.3,1.5-0.5s0.7-0.8,0.7-0.8"/>
			<path class="st8" d="M206.7,73.8l10.6,1.6c0,0,0.9-1.3,2.9-0.9c2,0.4,1.6,1.5,1.6,1.5l10.2,1.5l1.6-1.9"/>
			<path class="st8" d="M221.4,76.6c-0.3-1.4-1.7-1.3-1.7-1.3s-1.3-0.3-2.1,0.7"/>
			<polyline class="st8" points="210.8,71.7 214.4,72.3 214.4,70.7 			"/>
			<polyline class="st8" points="215.5,71 215.5,72.4 224,73.9 224,72.1 			"/>
			<polyline class="st8" points="226.1,72.6 226.1,73.6 231.2,74.4 231.3,73.3 			"/>
			<line class="st8" x1="214.4" y1="72.3" x2="215.4" y2="71.3"/>
			<line class="st8" x1="224" y1="73.9" x2="225.1" y2="72.3"/>
			<line class="st8" x1="231.2" y1="74.4" x2="232.1" y2="73.3"/>
			<line class="st8" x1="207.8" y1="72.2" x2="207.6" y2="69.8"/>
			<path class="st8" d="M208.1,74.7l-0.9,1.2c0,0-0.5,0.8,2.3,1.2c0,0,2.5,0.7,3.8-1.5"/>
			<path class="st8" d="M206.8,76.3c0,0-0.4,1.3,2.5,1.6c0,0,3.2,0.9,4.6-2.2"/>
			<path class="st8" d="M228.4,77.6l-0.6,0.9c0,0-0.2,0.2-0.2,0.5c0,0.4,0.4,0.8,2.2,1c0,0,2.8,0.7,3.2-0.9l0.8-1"/>
			<path class="st8" d="M227.6,79l-0.2,1c0,0,1.3,1.5,4.8,0.9c0,0,1.2-0.5,1.5-2.1"/>
			<polyline class="st8" points="220.5,59.4 220.9,59.4 221.7,58.1 			"/>
			<polyline class="st8" points="224.6,59.8 225.4,60.1 225.9,59.2 			"/>
			<polyline class="st8" points="229.2,60.6 230.1,60.7 230.8,59.9 			"/>
		</g>
	</g>
	<g>
		<line class="st19" x1="224" y1="81.5" x2="224.3" y2="119.6"/>
		<line class="st20" x1="224" y1="81.5" x2="224.3" y2="119.6"/>
	</g>
</g>
</svg>
