<?xml version="1.0" encoding="UTF-8"?><!-- Generator: Adobe Illustrator 12.0.1, SVG Export Plug-In . SVG Version: 6.00 Build 51448)  --><!DOCTYPE svg PUBLIC "-//W3C//DTD SVG 1.1//EN" "http://www.w3.org/Graphics/SVG/1.1/DTD/svg11.dtd">
<svg xmlns="http://www.w3.org/2000/svg" xmlns:xlink="http://www.w3.org/1999/xlink" version="1.1" id="Layer_1" width="286.65" height="122.001" viewBox="0 0 286.65 122.001" overflow="visible" enable-background="new 0 0 286.65 122.001" xml:space="preserve" preserveAspectRatio="xMidYMid meet" zoomAndPan="magnify" contentScriptType="text/ecmascript" contentStyleType="text/css">
<g>
	<g>
		<path fill="none" stroke="#231F20" stroke-width="0.5" stroke-linecap="round" stroke-linejoin="round" d="M123.636,0.25    l-14.644,30.884c0,0,0.622,0.621,1.509,0.621c0.887,0,38.871-0.443,38.871-0.443s1.332,0.177,1.332-0.444c0,0,0.977-0.444,1.153,0    c0,0-0.132,1.331,0.222,1.553l132.591,0.577"/>
		
			<line fill="none" stroke="#231F20" stroke-width="0.5" stroke-linecap="round" stroke-linejoin="round" x1="284.67" y1="31.223" x2="151.903" y2="31.268"/>
		<path fill="none" stroke="#231F20" stroke-width="0.5" stroke-linecap="round" stroke-linejoin="round" d="M108.993,31.134    c0,0-0.178,1.243,1.332,1.243c1.508,0,39.315-0.178,39.315-0.178s1.242-0.088,1.242-0.71h0.888"/>
		<path fill="none" stroke="#231F20" stroke-width="0.5" stroke-linecap="round" stroke-linejoin="round" d="M109.437,32.377    l15.087,59.905c0,0,1.154,1.863,3.106-0.178c0,0-0.888-4.171-0.444-5.857l-12.158-53.604"/>
		
			<line fill="none" stroke="#231F20" stroke-width="0.5" stroke-linecap="round" stroke-linejoin="round" x1="113.607" y1="32.643" x2="127.009" y2="88.288"/>
		<path fill="none" stroke="#231F20" stroke-width="0.5" stroke-linecap="round" stroke-linejoin="round" d="M118.133,32.555    l-0.887,2.041c0,0-0.71,2.396-0.266,3.994c0.444,1.597,1.775,6.656,1.775,6.656s0.798,1.598,2.839,1.598    s20.501-0.532,20.501-0.532s3.017-0.355,3.017-2.13"/>
		<path fill="none" stroke="#231F20" stroke-width="0.5" stroke-linecap="round" stroke-linejoin="round" d="M139.876,32.377    l-1.153,1.509c0,0-0.354,0.976-0.178,2.485"/>
		<path fill="none" stroke="#231F20" stroke-width="0.5" stroke-linecap="round" stroke-linejoin="round" d="M138.545,36.636    c0,0,0.445,0.622,1.065,0.622c0.621,0,2.219-0.177,2.219-0.177l0.177-1.154l-0.177-1.774l0.621-1.775"/>
		<polyline fill="none" stroke="#231F20" stroke-width="0.5" stroke-linecap="round" stroke-linejoin="round" points="    141.83,37.081 143.338,35.661 142.983,34.152 141.83,34.152   "/>
		<path fill="none" stroke="#231F20" stroke-width="0.5" stroke-linecap="round" stroke-linejoin="round" d="M139.611,36.992    c0,0,0-3.017,0.443-4.349"/>
		<path fill="none" stroke="#231F20" stroke-width="0.5" stroke-linecap="round" stroke-linejoin="round" d="M121.417,40.542    c0,0,0.266-1.242,1.154-1.242s4.881,0,4.881,0s1.51,0.088,1.51,1.686c0,1.598-0.445,3.372-0.445,3.372s-0.177,1.775-2.218,1.775    c-2.042,0-3.994,0-3.994,0s-1.508-0.533-1.332-1.598l0.178-1.065L121.417,40.542z"/>
		<path fill="none" stroke="#231F20" stroke-width="0.5" stroke-linecap="round" stroke-linejoin="round" d="M121.861,40.098    l5.325,0.089c0,0,0.533-0.178,0.71,0.888c0.178,1.064,0,2.396,0,2.396l-0.266,1.154c0,0-0.444,0.798-2.219,0.798    c-1.775,0-2.662,0-2.662,0"/>
		
			<line fill="none" stroke="#231F20" stroke-width="0.5" stroke-linecap="round" stroke-linejoin="round" x1="121.417" y1="43.737" x2="127.63" y2="43.737"/>
		<path fill="none" stroke="#231F20" stroke-width="0.5" stroke-linecap="round" stroke-linejoin="round" d="M128.961,41.695    c0,0,0.798-2.75,1.508-0.177l0.444,3.284h-2.397"/>
		
			<line fill="none" stroke="#231F20" stroke-width="0.5" stroke-linecap="round" stroke-linejoin="round" x1="143.87" y1="32.199" x2="148.309" y2="66.989"/>
		
			<line fill="none" stroke="#231F20" stroke-width="0.5" stroke-linecap="round" stroke-linejoin="round" x1="144.758" y1="32.555" x2="148.929" y2="65.923"/>
		<path fill="none" stroke="#231F20" stroke-width="0.5" stroke-linecap="round" stroke-linejoin="round" d="M119.464,46.399    l7.455,33.014c0,0,0.622,2.573,0.444,4.615c-0.178,2.041-0.178,2.041-0.178,2.041"/>
		<path fill="none" stroke="#231F20" stroke-width="0.5" stroke-linecap="round" stroke-linejoin="round" d="M127.63,91.661    l1.332,0.178l0.71-5.326c0,0,0.621-2.75,1.064-0.266"/>
		
			<line fill="none" stroke="#231F20" stroke-width="0.5" stroke-linecap="round" stroke-linejoin="round" x1="131.624" y1="84.028" x2="131.002" y2="82.342"/>
		<path fill="none" stroke="#231F20" stroke-width="0.5" stroke-linecap="round" stroke-linejoin="round" d="M124.346,47.287    l4.616,21.033c0,0,1.064-0.976,1.508,1.064c0,0,0.976,4.26,0.088,5.591c0,0-0.488,3.506-0.045,5.281"/>
		
			<ellipse transform="matrix(0.9999 -0.0102 0.0102 0.9999 -0.8358 1.3378)" fill="none" stroke="#231F20" stroke-width="0.5" stroke-linecap="round" stroke-linejoin="round" cx="130.381" cy="82.386" rx="0.621" ry="2.085"/>
		<path fill="none" stroke="#231F20" stroke-width="0.5" stroke-linecap="round" stroke-linejoin="round" d="M130.114,80.167    l-0.888,0.089c0,0-0.931,4.658,1.176,4.214"/>
		<path fill="none" stroke="#231F20" stroke-width="0.5" stroke-linecap="round" stroke-linejoin="round" d="M128.872,91.483    c0,0-0.532-1.597-0.532-3.018c0-1.419-0.133-2.973-0.133-2.973s0.665-3.683,0-5.68c-0.666-1.997-7.5-32.97-7.5-32.97"/>
		<path fill="none" stroke="#231F20" stroke-width="0.5" stroke-linecap="round" stroke-linejoin="round" d="M138.901,83.496    c0,0-5.947-1.953-6.212-6.834"/>
		<path fill="none" stroke="#231F20" stroke-width="0.5" stroke-linecap="round" stroke-linejoin="round" d="M137.392,75.064    c0,0-3.461-0.177-4.438,1.775"/>
		<path fill="none" stroke="#231F20" stroke-width="0.5" stroke-linecap="round" stroke-linejoin="round" d="M132.688,76.396    c0,0-1.953,0.709-0.888-1.509"/>
		<path fill="none" stroke="#231F20" stroke-width="0.5" stroke-linecap="round" stroke-linejoin="round" d="M131.801,74.621    l1.953-2.219c0,0,2.662-1.508,3.549-1.331"/>
		<path fill="none" stroke="#231F20" stroke-width="0.5" stroke-linecap="round" stroke-linejoin="round" d="M132.511,76.13    c0,0,1.42-2.663,4.881-2.396"/>
		<path fill="none" stroke="#231F20" stroke-width="0.5" stroke-linecap="round" stroke-linejoin="round" d="M145.112,73.112    l-0.443-3.194l-0.621-0.178l-0.533,1.331h-2.396l-1.332-1.597c0,0-0.622-1.864-1.774,0.444l-0.444,0.976    c0,0-0.532,1.42,0.711,2.574l2.572,0.976l1.154,4.438"/>
		<path fill="none" stroke="#231F20" stroke-width="0.5" stroke-linecap="round" stroke-linejoin="round" d="M138.013,73.112    c0,0-1.864,4.792,3.727,5.946"/>
		<path fill="none" stroke="#231F20" stroke-width="0.5" stroke-linecap="round" stroke-linejoin="round" d="M141.563,83.939    l0.888,0.887c0,0,0.888,0.267,1.332-0.443c0.444-0.709,1.331-1.952,1.331-1.952"/>
		<path fill="none" stroke="#231F20" stroke-width="0.5" stroke-linecap="round" stroke-linejoin="round" d="M146.267,82.608    l-2.662-0.888c0,0-0.71-0.887-0.267-1.331c0.443-0.443,2.218,0.444,2.218,0.444"/>
		<path fill="none" stroke="#231F20" stroke-width="0.5" stroke-linecap="round" stroke-linejoin="round" d="M143.338,80.39    l-0.888,1.597c-6.212,10.916-10.916,23.695-10.916,23.695c-2.218,5.324-1.508-1.33-1.508-1.33    c-0.444-5.947,16.951-33.813,16.951-33.813l-3.638-24.406"/>
		
			<line fill="none" stroke="#231F20" stroke-width="0.5" stroke-linecap="round" stroke-linejoin="round" x1="143.338" y1="84.561" x2="143.16" y2="81.543"/>
		
			<line fill="none" stroke="#231F20" stroke-width="0.5" stroke-linecap="round" stroke-linejoin="round" x1="143.516" y1="71.071" x2="140.942" y2="74.798"/>
		<path fill="none" stroke="#231F20" stroke-width="0.5" stroke-linecap="round" stroke-linejoin="round" d="M130.026,105.86    c0,0,1.242-6.922,9.585-22.098"/>
		<path fill="none" stroke="#231F20" stroke-width="0.5" stroke-linecap="round" stroke-linejoin="round" d="M144.669,55.806    h-16.417l-0.267,1.065l0.888,4.438c0,0,0.089,0.888,0.71,0.888"/>
		<path fill="none" stroke="#231F20" stroke-width="0.5" stroke-linecap="round" stroke-linejoin="round" d="M130.026,59.534    c0,0,0.888-0.621,1.775-0.621c0.888,0,4.437,0.443,5.769,1.065c0,0,1.775,0.709,1.775,2.663"/>
		<path fill="none" stroke="#231F20" stroke-width="0.5" stroke-linecap="round" stroke-linejoin="round" d="M139.345,62.907    c0,0,0.355,1.508-1.598,1.508l-2.396-0.709l-3.727-0.177c0,0-1.332,0.266-1.598-1.331c-0.266-1.598-0.266-2.396-0.266-2.396    s0-1.598,2.041-1.598c2.041,0,8.253,0,8.253,0s2.219,0.088,2.662,1.598l0.444,3.283c0,0-0.621,0.977-1.774,0.71"/>
		<path fill="none" stroke="#231F20" stroke-width="0.5" stroke-linecap="round" stroke-linejoin="round" d="M138.456,64.415    l2.664-0.621l-0.267-3.55c0,0-0.266-2.041-3.549-2.041"/>
		
			<line fill="none" stroke="#231F20" stroke-width="0.5" stroke-linecap="round" stroke-linejoin="round" x1="135.084" y1="59.356" x2="135.174" y2="63.793"/>
		
			<line fill="none" stroke="#231F20" stroke-width="0.5" stroke-linecap="round" stroke-linejoin="round" x1="145.734" y1="62.197" x2="143.16" y2="62.374"/>
		<path fill="none" stroke="#231F20" stroke-width="0.5" stroke-linecap="round" stroke-linejoin="round" d="M144.403,56.427    l-2.396,0.267c0,0-0.177,1.331-0.887,1.509"/>
		<path fill="none" stroke="#231F20" stroke-width="0.5" stroke-linecap="round" stroke-linejoin="round" d="M128.251,56.694h1.774    c0,0-0.266,1.864-0.266,2.129"/>
		<path fill="none" stroke="#231F20" stroke-width="0.5" stroke-linecap="round" stroke-linejoin="round" d="M130.292,63.35    c0,0-0.178,0.888,0,1.508c0.178,0.622,2.129,8.609,2.129,8.609"/>
		<path fill="none" stroke="#231F20" stroke-width="0.5" stroke-linecap="round" stroke-linejoin="round" d="M133.754,72.402    l-1.51-5.502c0,0-0.532-1.597,1.066-1.597c1.597,0,3.549,0,3.549,0s3.639-0.533,4.703,3.372l0.444,2.13"/>
		<path fill="none" stroke="#231F20" stroke-width="0.5" stroke-linecap="round" stroke-linejoin="round" d="M143.782,62.64    c0,0-0.355,1.774-1.154,1.952l1.42,5.147"/>
		<polygon fill="none" stroke="#231F20" stroke-width="0.5" stroke-linecap="round" stroke-linejoin="round" points="130.47,54.032     130.47,52.7 131.801,52.168 133.131,52.878 133.398,54.032 132.244,54.652   "/>
		<polygon fill="none" stroke="#231F20" stroke-width="0.5" stroke-linecap="round" stroke-linejoin="round" points="    131.801,51.369 131.801,50.038 133.131,49.505 134.463,50.215 134.73,51.369 133.575,51.99   "/>
		<polygon fill="none" stroke="#231F20" stroke-width="0.5" stroke-linecap="round" stroke-linejoin="round" points="    135.617,51.369 135.617,50.038 136.948,49.505 138.28,50.215 138.545,51.369 137.392,51.99   "/>
		<polygon fill="none" stroke="#231F20" stroke-width="0.5" stroke-linecap="round" stroke-linejoin="round" points="137.835,54.12     137.835,52.789 139.166,52.256 140.498,52.966 140.764,54.12 139.611,54.742   "/>
		<polygon fill="none" stroke="#231F20" stroke-width="0.5" stroke-linecap="round" stroke-linejoin="round" points="    128.251,51.458 128.251,50.126 129.582,49.594 130.914,50.304 131.18,51.458 130.026,52.079   "/>
		
			<line fill="none" stroke="#231F20" stroke-width="0.5" stroke-linecap="round" stroke-linejoin="round" x1="137.125" y1="62.197" x2="138.456" y2="62.818"/>
		
			<ellipse transform="matrix(0.9964 0.0843 -0.0843 0.9964 5.6207 -10.9243)" fill="none" stroke="#231F20" stroke-width="0.5" stroke-linecap="round" stroke-linejoin="round" cx="132.156" cy="61.087" rx="0.976" ry="0.665"/>
		<polyline fill="none" stroke="#231F20" stroke-width="0.5" stroke-linecap="round" stroke-linejoin="round" points="    138.324,65.48 137.569,68.763 138.545,68.808 139.7,65.923   "/>
		<polyline fill="none" stroke="#231F20" stroke-width="0.5" stroke-linecap="round" stroke-linejoin="round" points="    132.895,78.585 132.659,79.591 130.351,79.473   "/>
		<path fill="none" stroke="#231F20" stroke-width="0.5" stroke-linecap="round" stroke-linejoin="round" d="M132.777,79.769    l-1.597,6.035c0,0-0.237,1.005-0.06,1.598l5.799-0.118"/>
		<path fill="none" stroke="#231F20" stroke-width="0.5" stroke-linecap="round" stroke-linejoin="round" d="M139.876,87.401"/>
		
			<line fill="none" stroke="#231F20" stroke-width="0.5" stroke-linecap="round" stroke-linejoin="round" x1="131.12" y1="86.218" x2="137.806" y2="86.099"/>
		
			<line fill="none" stroke="#231F20" stroke-width="0.5" stroke-linecap="round" stroke-linejoin="round" x1="129.227" y1="90.3" x2="135.44" y2="90.3"/>
		
			<line fill="none" stroke="#231F20" stroke-width="0.5" stroke-linecap="round" stroke-linejoin="round" x1="138.28" y1="90.3" x2="148.042" y2="90.3"/>
		
			<line fill="none" stroke="#231F20" stroke-width="0.5" stroke-linecap="round" stroke-linejoin="round" x1="128.961" y1="91.839" x2="134.67" y2="91.839"/>
		
			<line fill="none" stroke="#231F20" stroke-width="0.5" stroke-linecap="round" stroke-linejoin="round" x1="137.51" y1="91.779" x2="148.161" y2="91.779"/>
		
			<line fill="none" stroke="#231F20" stroke-width="0.5" stroke-linecap="round" stroke-linejoin="round" x1="147.154" y1="87.342" x2="139.876" y2="87.342"/>
		
			<line fill="none" stroke="#231F20" stroke-width="0.5" stroke-linecap="round" stroke-linejoin="round" x1="140.469" y1="86.041" x2="146.799" y2="86.041"/>
		<path fill="none" stroke="#231F20" stroke-width="0.5" stroke-linecap="round" stroke-linejoin="round" d="M152.567,61.575    l-2.484-20.146c0,0,0.178-1.154,0-2.219c-0.178-1.065-0.178-1.065-0.178-1.065s0-1.331,1.332-1.331c1.331,0,2.839,0,2.839,0    s-0.354,2.574,0.711,2.574c1.064,0,129.927,0.089,129.927,0.089"/>
		
			<line fill="none" stroke="#231F20" stroke-width="0.5" stroke-linecap="round" stroke-linejoin="round" x1="153.898" y1="37.968" x2="232.885" y2="37.702"/>
		
			<line fill="none" stroke="#231F20" stroke-width="0.5" stroke-linecap="round" stroke-linejoin="round" x1="174.045" y1="92.814" x2="286.4" y2="92.814"/>
		
			<line fill="none" stroke="#231F20" stroke-width="0.5" stroke-linecap="round" stroke-linejoin="round" x1="154.52" y1="39.477" x2="152.923" y2="61.664"/>
		<path fill="none" stroke="#231F20" stroke-width="0.5" stroke-linecap="round" stroke-linejoin="round" d="M153.81,45.955    l-0.622-7.81c0,0-1.064-0.621-1.064-0.177s1.243,14.644,1.243,14.644"/>
		<path fill="none" stroke="#231F20" stroke-width="0.5" stroke-linecap="round" stroke-linejoin="round" d="M151.237,36.814    l0.178,3.106c0,0-0.178,0.443,0,1.774c0.177,1.332,1.774,14.467,1.774,14.467"/>
		<path fill="none" stroke="#231F20" stroke-width="0.5" stroke-linecap="round" stroke-linejoin="round" d="M152.302,71.16    l-0.177,5.147c0,0-0.267,3.373,0.177,6.657c0.443,3.284,1.153,9.939,1.153,9.939"/>
		<path fill="none" stroke="#231F20" stroke-width="0.5" stroke-linecap="round" stroke-linejoin="round" d="M154.254,70.539    l-0.444,5.768c0,0-0.088,1.775,0.444,6.657c0.533,4.881,1.154,7.987,1.154,7.987"/>
		<path fill="none" stroke="#231F20" stroke-width="0.5" stroke-linecap="round" stroke-linejoin="round" d="M156.029,90.063    c0,0-1.509-12.78-1.509-13.046c0-0.267-0.444-2.307,2.663-2.485c3.107-0.178,7.366-0.267,7.366-0.267l0.532,0.533l-0.177,0.622    c-4.01,2.801-4.642,11.986-4.793,10.679"/>
		<path fill="none" stroke="#231F20" stroke-width="0.5" stroke-linecap="round" stroke-linejoin="round" d="M162.063,90.773    c0,0,2.13,3.018,3.817,2.84l0.178,0.888l-6.834,0.443"/>
		<path fill="none" stroke="#231F20" stroke-width="0.5" stroke-linecap="round" stroke-linejoin="round" d="M184.872,77.638v9.141    c0,0,0.268,1.154,3.373,1.243c3.106,0.089,97.8,0,97.8,0"/>
		<path fill="none" stroke="#231F20" stroke-width="0.5" stroke-linecap="round" stroke-linejoin="round" d="M184.872,87.046v1.508    c0,0-0.177,1.153,3.106,1.153c3.284,0,98.156,0,98.156,0"/>
		
			<line fill="none" stroke="#231F20" stroke-width="0.5" stroke-linecap="round" stroke-linejoin="round" x1="154.787" y1="61.841" x2="156.384" y2="39.92"/>
		
			<line fill="none" stroke="#231F20" stroke-width="0.5" stroke-linecap="round" stroke-linejoin="round" x1="160.368" y1="62.354" x2="160.164" y2="57.741"/>
		<polyline fill="none" stroke="#231F20" stroke-width="0.5" stroke-linecap="round" stroke-linejoin="round" points="    157.894,39.477 159.756,56.339 213.004,56.782   "/>
		
			<line fill="none" stroke="#231F20" stroke-width="0.5" stroke-linecap="round" stroke-linejoin="round" x1="221.614" y1="56.782" x2="225.874" y2="56.782"/>
		
			<line fill="none" stroke="#231F20" stroke-width="0.5" stroke-linecap="round" stroke-linejoin="round" x1="235.281" y1="56.96" x2="239.629" y2="56.96"/>
		<path fill="none" stroke="#231F20" stroke-width="0.5" stroke-linecap="round" stroke-linejoin="round" d="M249.835,57.049    l19.969,0.088c0,0,3.816,0.355,5.769,1.509c1.953,1.154,5.058,2.663,5.058,2.663s4.172,2.219,4.971,2.219"/>
		<polyline fill="none" stroke="#231F20" stroke-width="0.5" stroke-linecap="round" stroke-linejoin="round" points="    159.756,56.339 159.934,57.848 226.318,57.848   "/>
		
			<line fill="none" stroke="#231F20" stroke-width="0.5" stroke-linecap="round" stroke-linejoin="round" x1="235.193" y1="57.936" x2="239.807" y2="57.936"/>
		<path fill="none" stroke="#231F20" stroke-width="0.5" stroke-linecap="round" stroke-linejoin="round" d="M249.481,57.936h18.637    c0,0,4.526,0.089,7.366,1.687c2.84,1.597,4.615,2.484,4.615,2.484s4.525,2.396,5.59,2.219"/>
		<path fill="none" stroke="#231F20" stroke-width="0.5" stroke-linecap="round" stroke-linejoin="round" d="M270.603,39.654    c0,0,0.354,3.373-4.704,3.373s-78.985-0.888-78.985-0.888s-3.551,0.267-3.106-2.662"/>
		
			<line fill="none" stroke="#231F20" stroke-width="0.5" stroke-linecap="round" stroke-linejoin="round" x1="266.166" y1="43.293" x2="262.26" y2="56.782"/>
		<polyline fill="none" stroke="#231F20" stroke-width="0.5" stroke-linecap="round" stroke-linejoin="round" points="    278.856,56.782 267.497,56.339 270.425,47.021 275.306,47.021   "/>
		
			<ellipse transform="matrix(0.4779 0.8784 -0.8784 0.4779 189.3924 -221.6673)" fill="none" stroke="#231F20" stroke-width="0.5" stroke-linecap="round" stroke-linejoin="round" cx="281.177" cy="48.496" rx="2.08" ry="3.403"/>
		
			<ellipse transform="matrix(0.4782 0.8783 -0.8783 0.4782 189.4449 -221.3727)" fill="none" stroke="#231F20" stroke-width="0.5" stroke-linecap="round" stroke-linejoin="round" cx="281.012" cy="48.735" rx="1.192" ry="2.234"/>
		<path fill="none" stroke="#231F20" stroke-width="0.5" stroke-linecap="round" stroke-linejoin="round" d="M283.916,46.399    l-1.775-3.373c0,0-6.301-2.751-7.011,3.373l2.84,3.727"/>
		
			<ellipse transform="matrix(0.5111 0.8595 -0.8595 0.5111 173.6568 -203.6181)" fill="none" stroke="#231F20" stroke-width="0.5" stroke-linecap="round" stroke-linejoin="round" cx="265.81" cy="50.836" rx="0.799" ry="0.976"/>
		
			<ellipse transform="matrix(0.5109 0.8596 -0.8596 0.5109 175.2564 -201.9372)" fill="none" stroke="#231F20" stroke-width="0.5" stroke-linecap="round" stroke-linejoin="round" cx="265.1" cy="53.055" rx="0.799" ry="0.976"/>
		<polygon fill="none" stroke="#231F20" stroke-width="0.5" stroke-linecap="round" stroke-linejoin="round" points="    251.611,53.854 253.918,44.357 263.859,44.357 261.017,54.12   "/>
		<polyline fill="none" stroke="#231F20" stroke-width="0.5" stroke-linecap="round" stroke-linejoin="round" points="    239.246,54.18 237.915,54.032 240.191,42.76   "/>
		
			<line fill="none" stroke="#231F20" stroke-width="0.5" stroke-linecap="round" stroke-linejoin="round" x1="250.487" y1="42.938" x2="248.918" y2="49.801"/>
		<polyline fill="none" stroke="#231F20" stroke-width="0.5" stroke-linecap="round" stroke-linejoin="round" points="    243.091,42.938 242.943,43.678 241.376,43.678 240.696,47.375 248.329,47.375 249.214,43.678 247.736,43.678 247.884,42.998   "/>
		<polyline fill="none" stroke="#231F20" stroke-width="0.5" stroke-linecap="round" stroke-linejoin="round" points="    228.803,42.76 228.655,43.5 227.087,43.5 226.407,47.198 234.04,47.198 234.926,43.5 233.447,43.5 233.595,42.82   "/>
		
			<line fill="none" stroke="#231F20" stroke-width="0.5" stroke-linecap="round" stroke-linejoin="round" x1="236.347" y1="42.79" x2="234.778" y2="50.038"/>
		<polyline fill="none" stroke="#231F20" stroke-width="0.5" stroke-linecap="round" stroke-linejoin="round" points="    225.786,42.701 224.159,53.942 223.331,53.942 222.974,56.25 221.644,56.25   "/>
		<polyline fill="none" stroke="#231F20" stroke-width="0.5" stroke-linecap="round" stroke-linejoin="round" points="    237.826,54.091 237.116,54.091 236.642,56.25 235.341,56.25   "/>
		<path fill="none" stroke="#231F20" stroke-width="0.5" stroke-linecap="round" stroke-linejoin="round" d="M222.679,42.642    l-0.207,1.036l0.443,1.095c0,0,0.444,1.153,0.297,2.159s-0.474,2.515-0.474,2.515s0.059,0.976-0.858,0.739"/>
		<path fill="none" stroke="#231F20" stroke-width="0.5" stroke-linecap="round" stroke-linejoin="round" d="M221.733,50.245    l-0.385,1.776l0.354,0.887c0,0,0.267,0.857,0.178,1.715c-0.088,0.858-0.532,2.929-0.532,2.929"/>
		<path fill="none" stroke="#231F20" stroke-width="0.5" stroke-linecap="round" stroke-linejoin="round" d="M221.644,42.79    l-0.296,1.243l0.502,1.539c0,0,0.09,1.005-0.058,1.331"/>
		<polyline fill="none" stroke="#231F20" stroke-width="0.5" stroke-linecap="round" stroke-linejoin="round" points="    221.733,46.991 222.088,46.991 221.733,49.061 218.687,49.15 218.982,47.05 219.336,46.991 219.573,46.606 218.922,45.157   "/>
		<path fill="none" stroke="#231F20" stroke-width="0.5" stroke-linecap="round" stroke-linejoin="round" d="M213.953,42.553    l0.592,2.515c0,0,0.029,1.035-0.06,1.922c-0.089,0.888-0.089,3.254-0.089,3.254"/>
		<polyline fill="none" stroke="#231F20" stroke-width="0.5" stroke-linecap="round" stroke-linejoin="round" points="    218.982,45.009 217.591,45.068 217.946,46.488 218.035,46.932 217.651,49.121   "/>
		<polyline fill="none" stroke="#231F20" stroke-width="0.5" stroke-linecap="round" stroke-linejoin="round" points="    217.857,46.784 216.852,46.784 216.32,45.157 214.988,45.157 215.195,46.192 214.839,49.21 217.501,49.121   "/>
		
			<line fill="none" stroke="#231F20" stroke-width="0.5" stroke-linecap="round" stroke-linejoin="round" x1="214.396" y1="50.333" x2="216.024" y2="50.333"/>
		<polygon fill="none" stroke="#231F20" stroke-width="0.5" stroke-linecap="round" stroke-linejoin="round" points="    216.171,49.654 219.87,49.654 219.958,50.097 219.81,50.896 216.259,50.896 216.466,50.245   "/>
		
			<line fill="none" stroke="#231F20" stroke-width="0.5" stroke-linecap="round" stroke-linejoin="round" x1="216.466" y1="50.245" x2="219.87" y2="50.186"/>
		<polyline fill="none" stroke="#231F20" stroke-width="0.5" stroke-linecap="round" stroke-linejoin="round" points="    216.231,56.162 214.1,56.162 214.1,53.795 217,53.795 217,54.327 216.911,56.014 216.408,56.162 216.082,56.813 218.094,56.813     218.242,56.25 217.886,56.014 217.886,53.795 220.698,53.647 221.201,54.238 220.667,56.605 218.242,56.664   "/>
		
			<line fill="none" stroke="#231F20" stroke-width="0.5" stroke-linecap="round" stroke-linejoin="round" x1="221.201" y1="51.813" x2="213.657" y2="51.872"/>
		
			<line fill="none" stroke="#231F20" stroke-width="0.5" stroke-linecap="round" stroke-linejoin="round" x1="213.569" y1="42.701" x2="212.326" y2="54.032"/>
		<path fill="none" stroke="#231F20" stroke-width="0.5" stroke-linecap="round" stroke-linejoin="round" d="M212.77,42.701    l-1.185,10.887c0,0,0.415,0.562,1.391,0.503"/>
		<path fill="none" stroke="#231F20" stroke-width="0.5" stroke-linecap="round" stroke-linejoin="round" d="M214.19,50.245h-0.978    l0.356,2.22c0,0,0.117,1.449,0.029,2.159c-0.09,0.71-0.386,2.869-0.386,2.869"/>
		
			<line fill="none" stroke="#231F20" stroke-width="0.5" stroke-linecap="round" stroke-linejoin="round" x1="212.622" y1="54.15" x2="213.154" y2="56.842"/>
		<path fill="none" stroke="#231F20" stroke-width="0.5" stroke-linecap="round" stroke-linejoin="round" d="M210.225,42.642    l-1.095,11.212c0,0,0.089,0.562-1.095,0.621s-7.188-0.089-7.188-0.089s-0.591,0.089-0.591-0.947    c0-1.034,0.738-11.093,0.738-11.093"/>
		
			<line fill="none" stroke="#231F20" stroke-width="0.5" stroke-linecap="round" stroke-linejoin="round" x1="200.404" y1="42.257" x2="199.516" y2="56.516"/>
		<polyline fill="none" stroke="#231F20" stroke-width="0.5" stroke-linecap="round" stroke-linejoin="round" points="    209.278,53.942 209.13,56.25 211.349,56.25 211.645,53.883   "/>
		<polyline fill="none" stroke="#231F20" stroke-width="0.5" stroke-linecap="round" stroke-linejoin="round" points="    208.893,42.553 209.782,46.694 207.207,46.694 206.409,42.406   "/>
		<polyline fill="none" stroke="#231F20" stroke-width="0.5" stroke-linecap="round" stroke-linejoin="round" points="    202.918,42.494 203.598,46.104 203.51,47.346 206.913,47.346 207.12,46.635   "/>
		
			<line fill="none" stroke="#231F20" stroke-width="0.5" stroke-linecap="round" stroke-linejoin="round" x1="203.421" y1="46.694" x2="200.847" y2="46.694"/>
		<polyline fill="none" stroke="#231F20" stroke-width="0.5" stroke-linecap="round" stroke-linejoin="round" points="    200.551,49.949 203.007,49.949 203.213,49.356 206.764,49.356 207.12,49.949 209.426,49.949   "/>
		<polyline fill="none" stroke="#231F20" stroke-width="0.5" stroke-linecap="round" stroke-linejoin="round" points="    208.155,47.73 208.834,48.914 207.296,48.914 208.006,47.73   "/>
		<polygon fill="none" stroke="#231F20" stroke-width="0.5" stroke-linecap="round" stroke-linejoin="round" points="204.013,47.73     204.633,48.914 203.213,48.914   "/>
		<polyline fill="none" stroke="#231F20" stroke-width="0.5" stroke-linecap="round" stroke-linejoin="round" points="    205.669,47.79 206.971,47.819 206.32,48.854 205.521,47.819   "/>
		<polyline fill="none" stroke="#231F20" stroke-width="0.5" stroke-linecap="round" stroke-linejoin="round" points="    201.675,47.819 202.977,47.849 202.327,48.884 201.527,47.849   "/>
		<polyline fill="none" stroke="#231F20" stroke-width="0.5" stroke-linecap="round" stroke-linejoin="round" points="    196.972,42.406 196.825,46.162 159.283,46.251 158.84,39.595   "/>
		
			<line fill="none" stroke="#231F20" stroke-width="0.5" stroke-linecap="round" stroke-linejoin="round" x1="165.88" y1="46.311" x2="166.443" y2="56.369"/>
		<polygon fill="none" stroke="#231F20" stroke-width="0.5" stroke-linecap="round" stroke-linejoin="round" points="    174.963,43.086 176.294,42.346 177.625,42.998 177.625,44.269 176.353,44.861 174.963,44.387   "/>
		<polygon fill="none" stroke="#231F20" stroke-width="0.5" stroke-linecap="round" stroke-linejoin="round" points="    167.952,43.086 169.284,42.346 170.615,42.998 170.615,44.269 169.341,44.861 167.952,44.387   "/>
		<polygon fill="none" stroke="#231F20" stroke-width="0.5" stroke-linecap="round" stroke-linejoin="round" points="    166.087,40.513 167.419,39.772 168.75,40.424 168.75,41.695 167.478,42.288 166.087,41.813   "/>
		<polygon fill="none" stroke="#231F20" stroke-width="0.5" stroke-linecap="round" stroke-linejoin="round" points="    161.147,42.998 162.479,42.257 163.81,42.909 163.81,44.18 162.539,44.772 161.147,44.298   "/>
		<polygon fill="none" stroke="#231F20" stroke-width="0.5" stroke-linecap="round" stroke-linejoin="round" points="    178.365,43.027 179.697,42.287 181.028,42.938 181.028,44.209 179.755,44.801 178.365,44.328   "/>
		<polygon fill="none" stroke="#231F20" stroke-width="0.5" stroke-linecap="round" stroke-linejoin="round" points="    180.289,40.482 181.619,39.743 182.951,40.394 182.951,41.666 181.678,42.257 180.289,41.784   "/>
		<polygon fill="none" stroke="#231F20" stroke-width="0.5" stroke-linecap="round" stroke-linejoin="round" points="    181.916,43.086 183.247,42.346 184.578,42.998 184.578,44.269 183.305,44.861 181.916,44.387   "/>
		<polygon fill="none" stroke="#231F20" stroke-width="0.5" stroke-linecap="round" stroke-linejoin="round" points="    188.867,43.174 190.198,42.434 191.53,43.086 191.53,44.357 190.257,44.95 188.867,44.476   "/>
		<polygon fill="none" stroke="#231F20" stroke-width="0.5" stroke-linecap="round" stroke-linejoin="round" points="    192.475,43.086 193.807,42.346 195.138,42.998 195.138,44.269 193.867,44.861 192.475,44.387   "/>
		<polyline fill="none" stroke="#231F20" stroke-width="0.5" stroke-linecap="round" stroke-linejoin="round" points="    192.861,46.192 192.712,48.795 166.058,48.795   "/>
		
			<line fill="none" stroke="#231F20" stroke-width="0.5" stroke-linecap="round" stroke-linejoin="round" x1="166.976" y1="48.943" x2="166.945" y2="50.038"/>
		<path fill="none" stroke="#231F20" stroke-width="0.5" stroke-linecap="round" stroke-linejoin="round" d="M166.236,50.777    c0,0,0.414-0.325,1.686-0.355c1.272-0.03,9.467-0.03,9.467-0.03s0.799-0.118,0.799,0.533s0.088,3.55,0.088,3.55    s0.03,0.592-0.945,0.592c-0.977,0-10.06,0-10.06,0s-0.649,0.088-0.888-0.651"/>
		<path fill="none" stroke="#231F20" stroke-width="0.5" stroke-linecap="round" stroke-linejoin="round" d="M180.554,51.073    c0,0,0.148-0.592,0.888-0.592c0.738,0,10.5-0.148,10.5-0.148s0.593-0.178,0.593,0.681s-0.118,3.461-0.118,3.461    s-0.237,0.503-0.829,0.503c-0.591,0-10.265,0.029-10.265,0.029s-0.829,0.06-0.829-0.68    C180.494,53.588,180.554,51.073,180.554,51.073z"/>
		
			<line fill="none" stroke="#231F20" stroke-width="0.5" stroke-linecap="round" stroke-linejoin="round" x1="180.583" y1="50.925" x2="180.643" y2="48.943"/>
		
			<line fill="none" stroke="#231F20" stroke-width="0.5" stroke-linecap="round" stroke-linejoin="round" x1="192.475" y1="48.795" x2="192.239" y2="50.245"/>
		
			<line fill="none" stroke="#231F20" stroke-width="0.5" stroke-linecap="round" stroke-linejoin="round" x1="178.275" y1="48.854" x2="178.127" y2="50.392"/>
		
			<line fill="none" stroke="#231F20" stroke-width="0.5" stroke-linecap="round" stroke-linejoin="round" x1="174.933" y1="69.563" x2="181.855" y2="69.563"/>
		
			<line fill="none" stroke="#231F20" stroke-width="0.5" stroke-linecap="round" stroke-linejoin="round" x1="227.116" y1="69.74" x2="285.601" y2="69.74"/>
		<path fill="none" stroke="#231F20" stroke-width="0.5" stroke-linecap="round" stroke-linejoin="round" d="M254.598,53.794    l0.208-1.034h-1.924l0.887-3.344c0,0,0.326-0.444,1.272-0.444c0.947,0,4.94,0,4.94,0s1.449-0.177,1.242,0.504    c-0.207,0.679-0.887,3.195-0.887,3.195l-1.687-0.06l-0.236,1.243"/>
		<path fill="none" stroke="#231F20" stroke-width="0.5" stroke-linecap="round" stroke-linejoin="round" d="M254.125,47.198    l0.021-0.084l0.424-1.78c0,0,0.266-0.503,0.917-0.503c0.65,0,6.359,0.06,6.359,0.06s0.799,0.029,0.651,0.532    c-0.147,0.504-0.591,1.864-0.591,1.864s-0.297,0.65-1.037,0.65c-0.9,0-0.673,0.219-5.841,0.015    C255.028,47.952,254.037,47.937,254.125,47.198z"/>
		<path fill="none" stroke="#231F20" stroke-width="0.5" stroke-linecap="round" stroke-linejoin="round" d="M161.414,99.411    c1.775,1.184,3.845,0,3.845,0c5.621-0.709,9.763-8.697,9.763-8.697l2.663-10.649c0.413-1.125-0.119-4.615-0.119-4.615    c-2.484-14.318-24.553-13.608-24.553-13.608c-4.26,0-3.727,3.432-3.727,3.432c-0.296,2.84,3.727,3.254,3.727,3.254l11.36,0.414    c0,0,7.514,1.36,8.993,7.101"/>
		<path fill="none" stroke="#231F20" stroke-width="0.5" stroke-linecap="round" stroke-linejoin="round" d="M161.414,99.292    c0,0-3.077,0.354-5.148-0.649"/>
		<path fill="none" stroke="#231F20" stroke-width="0.5" stroke-linecap="round" stroke-linejoin="round" d="M151.059,95.151    c0,0-2.603-4.26-3.076-6.566c-0.474-2.308-2.249-8.816-2.249-8.816s-0.414-6.626,1.774-9.17c0,0,0.947-4.615,1.657-4.911"/>
		<path fill="none" stroke="#231F20" stroke-width="0.5" stroke-linecap="round" stroke-linejoin="round" d="M173.365,76.159    c0,0,2.781,9.349,0.355,16.153"/>
		<path fill="none" stroke="#231F20" stroke-width="0.5" stroke-linecap="round" stroke-linejoin="round" d="M147.687,87.283    l-0.946-6.922c0,0-1.42-11.715,9.939-11.419c0,0,12.485,1.005,14.673,9.585c0,0,4.259,10.413-0.77,16.448"/>
		<path fill="none" stroke="#231F20" stroke-width="0.5" stroke-linecap="round" stroke-linejoin="round" d="M152.657,93.377    c0,0-5.325-9.054-3.253-19.111c0,0,1.359-4.911,7.869-4.437c0,0,6.034,0.355,10.177,4.023c0,0,4.731,6.686,2.544,15.975"/>
		<path fill="none" stroke="#231F20" stroke-width="0.5" stroke-linecap="round" stroke-linejoin="round" d="M153.898,75.746    c0,0,2.131-5.443,5.03-5.325"/>
		<path fill="none" stroke="#231F20" stroke-width="0.5" stroke-linecap="round" stroke-linejoin="round" d="M154.491,74.739    l5.265-2.13c0,0,7.159,0.059,7.574,4.615c0,0,2.07,7.691,1.183,11.833c0,0-0.415,4.437,0.591,5.62"/>
		<path fill="none" stroke="#231F20" stroke-width="0.5" stroke-linecap="round" stroke-linejoin="round" d="M169.814,89.827    c0,0,2.012,4.378-0.827,7.928"/>
		<path fill="none" stroke="#231F20" stroke-width="0.5" stroke-linecap="round" stroke-linejoin="round" d="M165.85,99.115    c0,0,4.141-1.774,3.847-9.466"/>
		<path fill="none" stroke="#231F20" stroke-width="0.5" stroke-linecap="round" stroke-linejoin="round" d="M168.395,84.916    c0,0-2.841,5.384-1.657,7.81c0,0-0.71,0.709-0.295,1.834c0,0-4.793,0.887-5.207,4.555"/>
		<path fill="#BBBDBF" stroke="#231F20" stroke-width="0.5" stroke-linecap="round" stroke-linejoin="round" d="M75.268,108.168    c26.803,10.205,40.646,10.383,40.646,10.383c24.85,3.106,41.534-21.477,41.712-21.743c0.177-0.267,10.65-14.377,10.65-14.377    l-1.065-4.704c-1.953,1.242-12.691,16.063-12.691,16.063c-3.549,6.479-14.909,14.821-14.909,14.821    c-17.958,13.446-63.455-6.656-63.455-6.656s-6.036,2.751-1.066,5.945"/>
		<path fill="#BBBDBF" stroke="#231F20" stroke-width="0.5" stroke-linecap="round" stroke-linejoin="round" d="M176.619,71.692    c0,0,1.42,2.84,1.153,3.639c-0.266,0.798,4.438-3.284,17.928-4.438c13.488-1.154,21.033-1.154,21.033-1.154    s14.644-1.065,16.862-1.509c2.218-0.444,11.98-0.887,13.313-7.1c0,0-2.575-0.621-3.018,0c-0.445,0.622-1.155,1.066-1.155,1.066    s-7.986,3.017-22.63,3.816c-14.644,0.798-17.927,0.443-17.927,0.443S185.937,66.989,176.619,71.692z"/>
		<path fill="none" stroke="#231F20" stroke-width="0.5" stroke-linecap="round" stroke-linejoin="round" d="M242.47,62.374    l-0.888-2.13l-1.509-1.774l-0.71-4.26l0.621-3.994c0,0,1.064-1.065,2.218-0.888c1.154,0.178,4.882,0.267,4.882,0.267    s1.331-0.178,1.775,0.887c0.443,1.065,0.976,3.284,0.976,3.284v2.219l-1.331,5.325c0,0-0.089,2.751-3.372,2.929"/>
		<path fill="none" stroke="#231F20" stroke-width="0.5" stroke-linecap="round" stroke-linejoin="round" d="M245.841,63.793    c0,0,2.84-1.953,1.066-2.663"/>
		<path fill="none" stroke="#231F20" stroke-width="0.5" stroke-linecap="round" stroke-linejoin="round" d="M242.292,61.752    c0,0,0.888-2.041,2.396-2.041c1.509,0,2.041,0.266,2.663,0.443c0.62,0.178,1.153,1.154,1.153,1.154"/>
		<path fill="none" stroke="#231F20" stroke-width="0.5" stroke-linecap="round" stroke-linejoin="round" d="M241.138,59.445    l0.621-2.84c0,0,0.045-1.198,1.51-1.065c1.464,0.133,5.014,0.089,5.014,0.089s1.597,0,1.42,0.666"/>
		<path fill="none" stroke="#231F20" stroke-width="0.5" stroke-linecap="round" stroke-linejoin="round" d="M242.292,61.309    l0.354-1.553c0,0,0.222-0.666,1.864-0.666c1.642,0,2.75,0.221,2.75,0.221s1.42,0.489,1.376,1.021"/>
		<path fill="none" stroke="#231F20" stroke-width="0.5" stroke-linecap="round" stroke-linejoin="round" d="M241.759,60.554    l0.666-2.884c0,0,0.134-0.621,1.508-0.443c1.376,0.177,3.462,0.31,3.462,0.31s1.864,0.355,1.774,0.888"/>
		
			<line fill="none" stroke="#231F20" stroke-width="0.5" stroke-linecap="round" stroke-linejoin="round" x1="240.517" y1="49.771" x2="242.159" y2="55.629"/>
		<polyline fill="none" stroke="#231F20" stroke-width="0.5" stroke-linecap="round" stroke-linejoin="round" points="    239.629,52.656 240.429,56.206 241.405,57.625   "/>
		<polygon fill="#BBBDBF" stroke="#231F20" stroke-width="0.5" stroke-linecap="round" stroke-linejoin="round" points="    168.454,84.472 164.238,87.933 168.232,82.697   "/>
		<path fill="#BBBDBF" stroke="#231F20" stroke-width="0.5" stroke-linecap="round" stroke-linejoin="round" d="M159.357,87.001    c0,0-14.096,15.663-31.963,25.84c0,0,9.052-0.887,14.673-5.501C142.066,107.34,157.597,92.519,159.357,87.001z"/>
		<path fill="#BBBDBF" stroke="#231F20" stroke-width="0.5" stroke-linecap="round" stroke-linejoin="round" d="M124.612,118.817    c0,0-19.938,9.645-50.586-6.035c0,0-1.952-3.43,1.893-4.318c0,0,8.491,4.053,19.14,6.538    C95.059,115.001,113.518,120.149,124.612,118.817z"/>
		<path fill="#BBBDBF" stroke="#231F20" stroke-width="0.5" stroke-linecap="round" stroke-linejoin="round" d="M177.861,75.153    c0,0,0.444,2.574,0.266,3.816c-0.177,1.243-0.266-1.154,16.863-2.484c0,0,9.673-0.267,10.827-0.267    c1.153,0,13.401-1.243,21.565-6.834c0,0-2.662,0.267-4.659,0.134c0,0-4.215,0.355-4.881,0.576    c-0.666,0.223-5.236,1.953-11.761,2.175c0,0-14.376,0.577-14.686,0.577C191.084,72.846,180.834,73.778,177.861,75.153z"/>
		<path fill="#BBBDBF" stroke="#231F20" stroke-width="0.5" stroke-linecap="round" stroke-linejoin="round" d="M232.264,64.726    c0,0,1.331-2.529,1.108-2.973c0,0-1.286-1.598-3.416,0.088c0,0-0.933,2.974-4.127,3.816c0,0,3.993-0.354,6.435-0.798"/>
		<path fill="none" stroke="#231F20" stroke-width="0.5" stroke-linecap="round" stroke-linejoin="round" d="M228.846,63.305    l-0.044-0.532l-0.444-0.222c0,0-0.442-0.488-0.442-1.242c0,0-0.577-0.221-0.4-1.109l-0.354-0.222c0,0-1.331-2.884-1.774-5.991"/>
		<path fill="none" stroke="#231F20" stroke-width="0.5" stroke-linecap="round" stroke-linejoin="round" d="M225.386,53.854    l0.665-3.728c0,0,0.665-0.532,1.774-0.444c1.11,0.089,5.637,0.089,5.637,0.089s0.931-0.044,1.242,1.198    c0.311,1.243,0.887,3.24,0.887,3.24l-0.311,1.331l-0.133,0.799l-0.089,0.311c0,0,0.134,0.621-0.222,1.198c0,0,0.222,1.02,0,1.463"/>
		<path fill="none" stroke="#231F20" stroke-width="0.5" stroke-linecap="round" stroke-linejoin="round" d="M234.705,59.312    l0.443,1.331l-0.532,2.308l-0.799,0.932c0,0-0.844,0.843-1.42,0.843"/>
		<polyline fill="none" stroke="#231F20" stroke-width="0.5" stroke-linecap="round" stroke-linejoin="round" points="    233.817,63.616 233.951,62.773 234.616,62.729   "/>
		<path fill="none" stroke="#231F20" stroke-width="0.5" stroke-linecap="round" stroke-linejoin="round" d="M229.468,62.418    l-0.622-0.133l0.178-1.731c0,0,0.089-0.665,1.332-0.577c1.242,0.088,3.595,0.444,3.595,0.444s0.976,0.221,0.976,0.443"/>
		<path fill="none" stroke="#231F20" stroke-width="0.5" stroke-linecap="round" stroke-linejoin="round" d="M227.959,61.176    l0.754-2.84c0,0,0.223-0.621,1.775-0.487c1.554,0.133,2.884,0.221,2.884,0.221s1.287,0.177,1.42,0.489"/>
		<path fill="none" stroke="#231F20" stroke-width="0.5" stroke-linecap="round" stroke-linejoin="round" d="M227.515,60.066    l0.888-3.328c0,0,0.399-0.311,1.509-0.222s3.684,0.311,3.684,0.311s1.331,0.044,1.331,0.355"/>
		<path fill="none" stroke="#231F20" stroke-width="0.5" stroke-linecap="round" stroke-linejoin="round" d="M227.161,59.711    l0.665-3.639c0,0,0-0.932,2.219-0.754l4.216,0.089c0,0,0.888,0.177,0.888,0.577"/>
		
			<line fill="none" stroke="#231F20" stroke-width="0.5" stroke-linecap="round" stroke-linejoin="round" x1="226.406" y1="49.86" x2="228.27" y2="55.407"/>
		
			<ellipse transform="matrix(0.9989 0.046 -0.046 0.9989 2.5837 -7.452)" fill="none" stroke="#231F20" stroke-width="0.5" stroke-linecap="round" stroke-linejoin="round" cx="163.133" cy="52.385" rx="0.939" ry="0.715"/>
		
			<ellipse transform="matrix(0.9989 0.0468 -0.0468 0.9989 2.4044 -7.9076)" fill="none" stroke="#231F20" stroke-width="0.5" stroke-linecap="round" stroke-linejoin="round" cx="170.068" cy="47.392" rx="0.715" ry="0.558"/>
		
			<ellipse transform="matrix(0.9989 0.0467 -0.0467 0.9989 2.4152 -8.5797)" fill="none" stroke="#231F20" stroke-width="0.5" stroke-linecap="round" stroke-linejoin="round" cx="184.8" cy="47.392" rx="0.716" ry="0.558"/>
		
			<ellipse transform="matrix(0.9989 0.046 -0.046 0.9989 2.6156 -8.9577)" fill="none" stroke="#231F20" stroke-width="0.5" stroke-linecap="round" stroke-linejoin="round" cx="195.748" cy="52.297" rx="0.938" ry="0.715"/>
		
			<line fill="none" stroke="#231F20" stroke-width="0.5" stroke-linecap="round" stroke-linejoin="round" x1="192.638" y1="51.857" x2="194.856" y2="51.857"/>
		
			<line fill="none" stroke="#231F20" stroke-width="0.5" stroke-linecap="round" stroke-linejoin="round" x1="192.548" y1="52.522" x2="194.767" y2="52.522"/>
		
			<line fill="none" stroke="#231F20" stroke-width="0.5" stroke-linecap="round" stroke-linejoin="round" x1="164.06" y1="52.079" x2="166.146" y2="52.079"/>
		
			<line fill="none" stroke="#231F20" stroke-width="0.5" stroke-linecap="round" stroke-linejoin="round" x1="164.06" y1="52.745" x2="166.236" y2="52.745"/>
		<rect x="160.91" y="49.105" fill="none" width="4.571" height="1.953"/>
		<rect x="194.102" y="48.884" fill="none" width="4.57" height="1.953"/>
		<text transform="matrix(1 0 0 1 194.1021 50.4126)" fill="#231F20" font-family="'Helvetica'" font-size="2.13">LNK</text>
		<path fill="#FFFFFF" stroke="#221E1F" d="M159.934,57.848"/>
	</g>
	<polyline fill="none" points="91.244,46.106 151.366,57.627 90.524,79.228  "/>
	<text transform="matrix(0.9821 0.1882 -0.1882 0.9821 136.3457 54.749)"><tspan x="0" y="0" fill="#231F20" font-family="'Helvetica'" font-size="2.13">L</tspan><tspan x="1.185" y="0.001" fill="#231F20" font-family="'Helvetica'" font-size="2.13" rotate="0">N</tspan><tspan x="2.726" y="0" fill="#231F20" font-family="'Helvetica'" font-size="2.13" rotate="0.001">K</tspan></text>
	<g>
		<g>
			
				<path fill="#FFFFFF" stroke="#000100" stroke-width="0.5" stroke-linecap="round" stroke-linejoin="round" stroke-miterlimit="10" d="     M89.728,43.14l-23.806-3.912l-8.074,1.082c0,0-0.666,0.375-0.666,1.29v1.041c0,0,0.042,0.541-0.083,1.04l-0.833,3.955     c0,0-0.208,0.54-0.125,1.456c0.083,0.916,0.333,16.522,0.333,16.522h-0.333c0,0-0.416-0.042-0.416,0.582c0,0.625,0,2.331,0,2.331     s0.083,0.708,0.624,0.708l0.25,0.083l-0.042,1.082c0,0,0.416,1.415,1.249,1.54l0.125,1.541c0,0,0.875,2.206,3.039,2.206     l8.823-1.124l0.249,0.167l19.686,3.121V43.14z"/>
			
				<path fill="none" stroke="#000100" stroke-width="0.5" stroke-linecap="round" stroke-linejoin="round" stroke-miterlimit="10" d="     M57.1,43.764"/>
			
				<path fill="#FFFFFF" stroke="#000100" stroke-width="0.5" stroke-linecap="round" stroke-linejoin="round" stroke-miterlimit="10" d="     M19.061,49.84l-1.123-0.125l-5.286,0.624l-2.081-1.748l-1.998,0.083c0,0-1.124,0.25-1.748,0.957c0,0-1.499,1.457-1.582,2.58     c0,0-0.292,1.249-0.417,1.873l0.417,23.181c0,0,0.166,2.371,1.956,3.537c0,0,0.625,1.125,2.706,0.667l1.29-0.125l1.956-2.289     l2.497,0.416l4.578-0.541l0.208,0.541l0.624,0.208l2.498,0.499l2.081-0.832l1.665-2.289c0,0,0.333-0.5,1.665-0.708     c1.332-0.208,17.896-2.164,17.896-2.164s0.916,0,2.29-0.833c0,0,0.332-0.75,0.332-1.166l-0.041-0.541c0,0-0.208-0.583-0.5-0.583     l0.708-0.333c0,0,0.333-0.167,0.333-0.749c0-0.583-0.125-3.621-0.125-3.621l0.458-0.417c0,0,0.5-0.208,0.5-1.249     c0-1.041,0-2.289,0-2.289l1.04-0.125l0.833-0.499v-2.997l-0.624-0.54l-1.374,0.125V56.25c0,0,0-0.833-0.499-1.332l-0.625-0.625     v-3.87c0,0,0.125-0.749-0.707-0.624l0.083-1.873c0,0-0.625-0.75-2.081-0.833h-0.916l-18.229,2.206c0,0-0.625,0.042-1.249-0.541     c-0.624-0.583-1.123-1.123-1.123-1.123s-1.249-1.041-3.122-0.624c0,0-1.041-0.085-3.121,2.704"/>
			<path fill="none" stroke="#000100" stroke-width="0.5" stroke-linecap="round" stroke-linejoin="round" d="M46.903,70.565     l-6.742,0.708c0,0-1.29,0.166-1.373-1.624c-0.083-1.789-0.291-12.693-0.291-12.693s0.125-1.956,1.456-2.123l6.576-0.791v0.083     v0.417l0.708,0.833c0,0,0.25,0.458,0.333,1.374c0.083,0.915,0.208,8.406,0.208,8.406s-0.166,0.833-0.458,1.041l-0.624,0.625     l-0.292,0.416l-5.327,0.5c0,0-0.624,0.042-0.707,0.957c0,0-0.125,0.833,0,1.041c0,0,0.291,0.416,0.707,0.416l5.744-0.624     L46.903,70.565z"/>
			<path fill="none" stroke="#000100" stroke-width="0.5" stroke-linecap="round" stroke-linejoin="round" d="M45.987,54.252v0.416     c0,0,0.375,0.916,0.5,0.916l0.333,0.333c0,0,0.333,0.208,0.333,0.708c0,0.5,0.167,8.53,0.167,8.53l-0.292,0.417     c0,0-0.957,0.458-0.749,1.581"/>
			<path fill="none" stroke="#000100" stroke-width="0.5" stroke-linecap="round" stroke-linejoin="round" d="M41.618,67.652     c0,0-1.207,1.249-0.125,2.497"/>
			
				<line fill="none" stroke="#000100" stroke-width="0.5" stroke-linecap="round" stroke-linejoin="round" x1="47.361" y1="55.458" x2="50.357" y2="55.084"/>
			
				<line fill="none" stroke="#000100" stroke-width="0.5" stroke-linecap="round" stroke-linejoin="round" x1="47.861" y1="65.28" x2="50.774" y2="64.948"/>
			<path fill="none" stroke="#000100" stroke-width="0.5" stroke-linecap="round" stroke-linejoin="round" d="M38.83,64.531     l0.417-0.083c0,0.333,0.582,0.5,0.582,0.5l0.958-0.208l-0.125-5.827l-0.999,0.125c0,0-0.624,0.417-0.541,0.708l-0.624,0.125"/>
			<path fill="none" stroke="#000100" stroke-width="0.5" stroke-linecap="round" stroke-linejoin="round" d="M38.58,59.746"/>
			
				<line fill="none" stroke="#000100" stroke-width="0.5" stroke-linecap="round" stroke-linejoin="round" x1="48.901" y1="71.065" x2="31.13" y2="73.146"/>
			<path fill="none" stroke="#000100" stroke-width="0.5" stroke-linecap="round" stroke-linejoin="round" d="M12.694,50.464     l-0.291,0.458l-1.666-1.456c0,0-2.83-0.458-4.078,1.956l-0.625,2.914L6.451,77.1c0,0,0.458,3.079,2.581,3.995l2.498-0.416"/>
			<path fill="none" stroke="#000100" stroke-width="0.5" stroke-linecap="round" stroke-linejoin="round" d="M47.112,73.687h-0.084     c0.542,0,2.29-1.123,2.29-1.123"/>
			<path fill="none" stroke="#000100" stroke-width="0.5" stroke-linecap="round" stroke-linejoin="round" d="M23.098,79.306     l0.832,0.208l1.665-0.832l1.665-2.165c0.208-0.291,1.457-0.749,1.457-0.749l18.312-2.081"/>
			
				<line fill="none" stroke="#000100" stroke-width="0.5" stroke-linecap="round" stroke-linejoin="round" x1="40.66" y1="58.788" x2="38.705" y2="58.497"/>
			<path fill="none" stroke="#000100" stroke-width="0.5" stroke-linecap="round" stroke-linejoin="round" d="M43.075,54.46     l0.292,12.443c0,0,2.705,0.083,2.83-6.243C46.196,60.661,45.489,54.501,43.075,54.46z"/>
			<path fill="none" stroke="#000100" stroke-width="0.5" stroke-linecap="round" stroke-linejoin="round" d="M54.229,62.034"/>
			<path fill="none" stroke="#000100" stroke-width="0.5" stroke-linecap="round" stroke-linejoin="round" d="M26.219,51.755     l-0.916-1.665c-1.873-2.373-3.538,0.083-3.538,0.083l-1.165-0.208"/>
			<path fill="none" stroke="#000100" stroke-width="0.5" stroke-linecap="round" stroke-linejoin="round" d="M23.93,49.133"/>
			<path fill="none" stroke="#000100" stroke-width="0.5" stroke-linecap="round" stroke-linejoin="round" d="M24.138,49.258     c0,0,1.249,1.332,1.457,2.58"/>
			<path fill="none" stroke="#000100" stroke-width="0.5" stroke-linecap="round" stroke-linejoin="round" d="M30.922,69.109     l4.661-0.624c0.624-0.125,0.624-0.708,0.624-0.708S36,57.457,36,56.416c0-1.04-0.624-0.832-0.624-0.832l-4.578,0.541"/>
			<path fill="none" stroke="#000100" stroke-width="0.5" stroke-linecap="round" stroke-linejoin="round" d="M34.876,55.583     c0,0,0.708,0.25,0.708,0.749s0.083,11.445,0.083,11.445s-0.583,0.333-1.207,0.417c-0.624,0.083-3.329,0.417-3.329,0.417"/>
			<path fill="none" stroke="#000100" stroke-width="0.5" stroke-linecap="round" stroke-linejoin="round" d="M15.939,70.233     l0.084,2.955c0,0-0.292,1.54,2.289,1.123"/>
			<path fill="none" stroke="#000100" stroke-width="0.5" stroke-linecap="round" stroke-linejoin="round" d="M10.404,63.699     c0,0-0.957-0.707-0.125-1.248l10.612-1.124c0,0,0.75,0.042,0.75,0.999l-0.624,1.79l0.333,3.246l-0.874,5.203l-1.124,0.166     l-0.624-0.166c0,0,0.208-1.374-0.832-2.415c0,0-1.165-1.04-2.914,0.833c0,0-0.624,0.874-0.624,2.206l-1.248,0.208l-0.708-0.125     L11.57,68.61l0.083-1.374l-1.249,0.208c0,0-1.082-0.292,0.083-0.916L10.404,63.699z"/>
			<path fill="none" stroke="#000100" stroke-width="0.5" stroke-linecap="round" stroke-linejoin="round" d="M13.11,73.396     l-1.124-4.786l0.208-4.994c0,0,0.25-1.291,1.208-0.125"/>
			<polyline fill="none" stroke="#000100" stroke-width="0.5" stroke-linecap="round" stroke-linejoin="round" points="     13.526,63.616 14.275,65.988 14.233,67.236    "/>
			
				<line fill="none" stroke="#000100" stroke-width="0.5" stroke-linecap="round" stroke-linejoin="round" x1="10.113" y1="63.366" x2="12.153" y2="63.491"/>
			<path fill="none" stroke="#000100" stroke-width="0.5" stroke-linecap="round" stroke-linejoin="round" d="M11.653,63.283     c0,0,0.416-1.124,1.041-1.124"/>
			<path fill="none" stroke="#000100" stroke-width="0.5" stroke-linecap="round" stroke-linejoin="round" d="M12.485,62.243     c0,0,1.166,0.291,1.249,1.331l7.783-0.999"/>
			<path fill="none" stroke="#000100" stroke-width="0.5" stroke-linecap="round" stroke-linejoin="round" d="M13.734,63.699     l1.04,2.58c0,0,0.167,0.791-0.125,1.083"/>
			<path fill="none" stroke="#000100" stroke-width="0.5" stroke-linecap="round" stroke-linejoin="round" d="M13.526,63.824v2.664     c0,0-0.333,1.706,1.04,1.581l4.37-0.625c0,0,0.542-0.125,0.833-0.832"/>
			<path fill="none" stroke="#000100" stroke-width="0.5" stroke-linecap="round" stroke-linejoin="round" d="M21.018,64.115     l-0.5,1.582c0,0.624-0.625,0.916-0.625,0.916l-5.243,0.624l-1.124-0.125"/>
			
				<line fill="none" stroke="#000100" stroke-width="0.5" stroke-linecap="round" stroke-linejoin="round" x1="14.899" y1="66.279" x2="20.476" y2="65.572"/>
			<path fill="none" stroke="#000100" stroke-width="0.5" stroke-linecap="round" stroke-linejoin="round" d="M19.352,49.341     l1.124,0.625c0.833-1.581,2.123-2.081,2.123-2.081c1.873-0.625,2.871,0.624,2.871,0.624l1.166,1.165     c0.5,0.417,1.374,0.5,1.374,0.5l18.52-2.289c1.041-0.125,2.372,0.416,2.372,0.416"/>
			<polyline fill="none" stroke="#000100" stroke-width="0.5" stroke-linecap="round" stroke-linejoin="round" points="     21.766,50.173 22.765,50.257 24.554,52.13 30.672,51.338 31.088,74.644 27.468,75.143    "/>
			<path fill="none" stroke="#000100" stroke-width="0.5" stroke-linecap="round" stroke-linejoin="round" d="M24.679,52.13     l2.456,2.622l2.622,7.2l0.125,7.907c0,0-2.373,6.034-3.579,7.158c0,0-1.249,2.415-5.202,2.498"/>
			<path fill="none" stroke="#000100" stroke-width="0.5" stroke-linecap="round" stroke-linejoin="round" d="M13.401,50.382     l3.87,0.499l4.495,4.411l2.664,7.284c0,0,0.5,8.615-0.208,11.112l-0.708,2.29c0,0-2.663,3.12-2.996,3.329"/>
			<path fill="none" stroke="#000100" stroke-width="0.5" stroke-linecap="round" stroke-linejoin="round" d="M12.485,51.006     l4.786,0.624l4.079,4.162l2.372,6.576c0,0,1.082,9.322-0.499,12.859l-3.122,3.455"/>
			<path fill="none" stroke="#000100" stroke-width="0.5" stroke-linecap="round" stroke-linejoin="round" d="M13.318,62.034     l-0.083-4.87l0.167-2.331l1.165-1.831l1.333-0.833l1.581,0.375l4.162,4.995l1.665,4.786l0.292,6.076l-1.249,5.411     c0,0-5.618,0.832-7.033,0.999c-1.415,0.167-1.789,1.166-1.789,1.166s-1.166,1.456-1.54,2.081s-1.499,1.457-1.499,1.457H9.156     c-1.457-0.333-1.582-2.58-1.582-2.58s0.25-1.791,0.458-2.498c0.208-0.707,0.375-2.913,0.375-2.913S8.199,60.869,8.199,59.746     s-0.375-2.497-0.375-2.497l-0.749-3.413l0.416-1.498c1.665-2.415,2.913-1.332,2.913-1.332l1.041,0.832l1.873,1.998"/>
			<polyline fill="none" stroke="#000100" stroke-width="0.5" stroke-linecap="round" stroke-linejoin="round" points="     22.349,73.812 20.518,77.016 15.69,78.764 13.443,78.39    "/>
			<path fill="none" stroke="#000100" stroke-width="0.5" stroke-linecap="round" stroke-linejoin="round" d="M13.11,78.889     c0,0,0.374-1.206,1.581-1.332l4.37-0.624l0.999,0.083"/>
			<polyline fill="none" stroke="#000100" stroke-width="0.5" stroke-linecap="round" stroke-linejoin="round" points="     16.356,79.223 20.601,77.64 22.89,74.311 24.014,69.192    "/>
			<polyline fill="none" stroke="#000100" stroke-width="0.5" stroke-linecap="round" stroke-linejoin="round" points="     18.936,54.46 18.646,56.625 18.728,61.327    "/>
			<polyline fill="none" stroke="#000100" stroke-width="0.5" stroke-linecap="round" stroke-linejoin="round" points="     18.646,56.416 13.235,57.165 12.694,57.04 13.11,54.335 14.15,52.337 15.523,51.421    "/>
			<path fill="none" stroke="#000100" stroke-width="0.5" stroke-linecap="round" stroke-linejoin="round" d="M18.812,56.416     c0,0,2.747,1.373-0.166,3.039"/>
			
				<line fill="none" stroke="#000100" stroke-width="0.5" stroke-linecap="round" stroke-linejoin="round" x1="89.728" y1="45.096" x2="59.056" y2="40.31"/>
			<path fill="none" stroke="#000100" stroke-width="0.5" stroke-linecap="round" stroke-linejoin="round" d="M59.472,40.559     c0,0-1.914,1.291-0.125,2.664l0.628,0.098l29.669,4.604"/>
			<path fill="none" stroke="#000100" stroke-width="0.5" stroke-linecap="round" stroke-linejoin="round" d="M59.597,43.265     c0,0,2.455,0.832,4.953,1.249c2.497,0.416,25.179,4.162,25.179,4.162"/>
			<path fill="none" stroke="#000100" stroke-width="0.5" stroke-linecap="round" stroke-linejoin="round" d="M58.723,42.641     c0,0-1.415,1.54-1.54,3.413c-0.125,1.873,0.333,11.278,0.333,11.278s0.125,0.083,0.833,0.083c0.708,0,1.041-0.208,1.041-0.208     s0.292-0.166,0.292-1.165s-0.083-11.403-0.083-11.403l3.08-0.333"/>
			<path fill="none" stroke="#000100" stroke-width="0.5" stroke-linecap="round" stroke-linejoin="round" d="M59.472,43.348     c0,0-1.082,0.916-1.165,2.706c-0.083,1.789,0.333,11.361,0.333,11.361"/>
			<polyline fill="none" stroke="#000100" stroke-width="0.5" stroke-linecap="round" stroke-linejoin="round" points="     65.922,44.93 61.428,45.679 60.528,45.464 59.68,45.263    "/>
			<path fill="none" stroke="#000100" stroke-width="0.5" stroke-linecap="round" stroke-linejoin="round" d="M60.513,45.554     l0.083,2.082c0,0,0.292,0.25,1.041,0.125l6.16-0.833c0,0,0.831-0.165,0.624-1.539"/>
			
				<line fill="none" stroke="#000100" stroke-width="0.5" stroke-linecap="round" stroke-linejoin="round" x1="61.428" y1="45.679" x2="61.428" y2="47.676"/>
			<path fill="none" stroke="#000100" stroke-width="0.5" stroke-linecap="round" stroke-linejoin="round" d="M63.01,45.47     c0,0,0.624,1.207,0,1.956"/>
			<path fill="none" stroke="#000100" stroke-width="0.5" stroke-linecap="round" stroke-linejoin="round" d="M73.081,74.687     l-3.455-0.625l-8.323,1.082c0,0-2.415,0.083-2.623-2.83l0.125-2.373"/>
			<path fill="none" stroke="#000100" stroke-width="0.5" stroke-linecap="round" stroke-linejoin="round" d="M59.847,44.763     l0.207,11.778c0,0,0.125,1.04-0.915,1.248l-0.333,0.083c0,0-0.749-0.167-0.749,0.958c0,1.123,0.25,9.78,0.25,9.78     s-0.208,1.373,0.916,1.165l0.333-0.125c0,0,0.708-0.208,0.708,0.833c0,1.04,0,2.913,0,2.913l1.54,0.208l0.249-0.208l7.7-1.04"/>
			<path fill="none" stroke="#000100" stroke-width="0.5" stroke-linecap="round" stroke-linejoin="round" d="M58.265,57.914     c0,0-0.999,0.416-0.999,0.916c0,0.5,0.167,6.95,0.167,6.95l-0.916-0.166"/>
			<path fill="none" stroke="#000100" stroke-width="0.5" stroke-linecap="round" stroke-linejoin="round" d="M56.726,69.234     c0,0,1.332,0.333,1.54-0.083"/>
			<path fill="none" stroke="#000100" stroke-width="0.5" stroke-linecap="round" stroke-linejoin="round" d="M60.263,70.483     c0,0-1.873,2.455,0.416,3.621c0,0,1.25,0.124,1.79-0.708"/>
			<path fill="none" stroke="#000100" stroke-width="0.5" stroke-linecap="round" stroke-linejoin="round" d="M67.879,72.564v-1.541     c0,0,0.041-1.082-0.999-0.957c-1.041,0.125-5.951,0.75-5.951,0.75v1.956l0.832,0.208l6.035-0.832"/>
			<path fill="none" stroke="#000100" stroke-width="0.5" stroke-linecap="round" stroke-linejoin="round" d="M61.137,70.899h0.749     l1.457-0.083c0,0,0.624,0.624,0.208,1.748"/>
			
				<line fill="none" stroke="#000100" stroke-width="0.5" stroke-linecap="round" stroke-linejoin="round" x1="61.969" y1="71.023" x2="61.969" y2="72.897"/>
			
				<line fill="none" stroke="#000100" stroke-width="0.5" stroke-linecap="round" stroke-linejoin="round" x1="69.169" y1="45.429" x2="69.668" y2="73.896"/>
			<path fill="none" stroke="#000100" stroke-width="0.5" stroke-linecap="round" stroke-linejoin="round" d="M72.582,45.928     l0.499,28.633c0,0,0.208,0.708,0.416,0.708"/>
			<polyline fill="none" stroke="#000100" stroke-width="0.5" stroke-linecap="round" stroke-linejoin="round" points="     73.081,72.98 74.038,72.98 73.539,46.137    "/>
			<path fill="none" stroke="#000100" stroke-width="0.5" stroke-linecap="round" stroke-linejoin="round" d="M74.163,72.772     l0.916-0.083c0,0,0.333,0.541,0.333-1.29c0-1.832-0.416-24.929-0.416-24.929"/>
			<path fill="none" stroke="#000100" stroke-width="0.5" stroke-linecap="round" stroke-linejoin="round" d="M73.747,75.269     c0,0-0.125-1.832-0.125-2.206"/>
			<polyline fill="none" stroke="#000100" stroke-width="0.5" stroke-linecap="round" stroke-linejoin="round" points="     75.203,72.688 79.324,72.148 89.644,73.812    "/>
			
				<line fill="none" stroke="#000100" stroke-width="0.5" stroke-linecap="round" stroke-linejoin="round" x1="89.728" y1="76.393" x2="76.452" y2="74.353"/>
			<path fill="none" stroke="#000100" stroke-width="0.5" stroke-linecap="round" stroke-linejoin="round" d="M76.743,75.685     c0,0-0.666-0.999,0.084-1.956l2.08-0.208l10.821,1.665"/>
			
				<line fill="none" stroke="#000100" stroke-width="0.5" stroke-linecap="round" stroke-linejoin="round" x1="76.452" y1="74.436" x2="73.622" y2="73.937"/>
			<path fill="none" stroke="#000100" stroke-width="0.5" stroke-linecap="round" stroke-linejoin="round" d="M79.324,72.022v-4.661     c0,0-0.084-0.916,1.165-0.624c1.249,0.292,9.239,1.457,9.239,1.457"/>
			<path fill="none" stroke="#000100" stroke-width="0.5" stroke-linecap="round" stroke-linejoin="round" d="M89.769,55.126     l-9.988-1.582c0,0-0.832-0.291-0.832,0.625c0,0.915,0,3.121,0,3.121s0.125,0.791,1.04,0.958c0.916,0.167,9.655,1.539,9.655,1.539     "/>
			<path fill="none" stroke="#000100" stroke-width="0.5" stroke-linecap="round" stroke-linejoin="round" d="M84.775,59.079     c0,0-0.707,0.625-0.707,1.333c0,0.708,0.083,5.202,0.083,5.202s-0.083,0.749,1.249,1.04c1.332,0.292,4.287,0.75,4.287,0.75"/>
			
				<line fill="none" stroke="#000100" stroke-width="0.5" stroke-linecap="round" stroke-linejoin="round" x1="89.644" y1="66.862" x2="84.359" y2="65.946"/>
			
				<line fill="none" stroke="#000100" stroke-width="0.5" stroke-linecap="round" stroke-linejoin="round" x1="89.769" y1="60.62" x2="84.276" y2="59.871"/>
			
				<line fill="none" stroke="#000100" stroke-width="0.5" stroke-linecap="round" stroke-linejoin="round" x1="78.949" y1="46.969" x2="79.157" y2="71.939"/>
			
				<line fill="none" stroke="#000100" stroke-width="0.5" stroke-linecap="round" stroke-linejoin="round" x1="78.824" y1="55.209" x2="75.203" y2="55.708"/>
			
				<line fill="none" stroke="#000100" stroke-width="0.5" stroke-linecap="round" stroke-linejoin="round" x1="79.157" y1="68.526" x2="75.411" y2="69.068"/>
			
				<line fill="none" stroke="#000100" stroke-width="0.5" stroke-linecap="round" stroke-linejoin="round" x1="78.949" y1="57.29" x2="75.329" y2="57.789"/>
			
				<line fill="none" stroke="#000100" stroke-width="0.5" stroke-linecap="round" stroke-linejoin="round" x1="79.074" y1="58.039" x2="75.329" y2="58.539"/>
			<path fill="none" stroke="#000100" stroke-width="0.5" stroke-linecap="round" stroke-linejoin="round" d="M64.716,52.005     l2.372-0.25c0,0,0.5-0.083,0.5,0.541s0.124,4.578,0.124,4.578s-0.499,1.416-0.707,1.541c0,0-2.165,1.373-2.705-0.708     l-0.208-5.077C64.092,52.629,64.009,52.254,64.716,52.005z"/>
			<path fill="none" stroke="#000100" stroke-width="0.5" stroke-linecap="round" stroke-linejoin="round" d="M64.3,57.207     c0,0,1.539,2.539,2.372-0.208V52.92c0,0,0.292-0.916,0.708-0.832"/>
			<path fill="none" stroke="#000100" stroke-width="0.5" stroke-linecap="round" stroke-linejoin="round" d="M83.735,47.842     l0.208,4.661c0,0,0.208,0.791,1.665,0.958s4.079,0.708,4.079,0.708"/>
			
				<line fill="none" stroke="#000100" stroke-width="0.5" stroke-linecap="round" stroke-linejoin="round" x1="83.943" y1="52.629" x2="89.644" y2="53.544"/>
			<polygon fill="none" stroke="#000100" stroke-width="0.5" stroke-linecap="round" stroke-linejoin="round" points="     85.192,48.425 86.981,48.758 86.981,51.589 85.192,51.338    "/>
			<polygon fill="none" stroke="#000100" stroke-width="0.5" stroke-linecap="round" stroke-linejoin="round" points="     87.689,48.841 89.479,49.091 89.479,51.796 87.689,51.547    "/>
			
				<line fill="none" stroke="#000100" stroke-width="0.5" stroke-linecap="round" stroke-linejoin="round" x1="85.608" y1="48.675" x2="85.608" y2="51.256"/>
			<polyline fill="none" stroke="#000100" stroke-width="0.5" stroke-linecap="round" stroke-linejoin="round" points="     81.53,47.426 81.53,48.134 83.319,48.467 83.319,47.635    "/>
			<polygon fill="none" stroke="#000100" stroke-width="0.5" stroke-linecap="round" stroke-linejoin="round" points="     81.654,50.007 83.236,50.298 83.319,53.045 81.654,52.795    "/>
			<polygon fill="none" stroke="#000100" stroke-width="0.5" stroke-linecap="round" stroke-linejoin="round" points="     81.862,58.663 83.444,58.955 83.527,61.701 81.862,61.452    "/>
			<polygon fill="none" stroke="#000100" stroke-width="0.5" stroke-linecap="round" stroke-linejoin="round" points="     81.946,63.325 83.527,63.616 83.611,66.363 81.946,66.113    "/>
			<polygon fill="none" stroke="#000100" stroke-width="0.5" stroke-linecap="round" stroke-linejoin="round" points="     85.399,61.701 86.981,61.993 87.065,64.74 85.399,64.49    "/>
			<polygon fill="none" stroke="#000100" stroke-width="0.5" stroke-linecap="round" stroke-linejoin="round" points="     88.021,62.201 89.604,62.492 89.687,65.239 88.021,64.99    "/>
			<polygon fill="none" stroke="#000100" stroke-width="0.5" stroke-linecap="round" stroke-linejoin="round" points="     84.359,68.651 85.192,68.818 85.608,69.9 85.317,71.023 84.484,70.899 84.026,69.775    "/>
			<polyline fill="none" stroke="#000100" stroke-width="0.5" stroke-linecap="round" stroke-linejoin="round" points="     84.879,68.901 84.609,69.671 84.983,70.711    "/>
			<polyline fill="none" stroke="#000100" stroke-width="0.5" stroke-linecap="round" stroke-linejoin="round" points="     89.708,69.941 85.961,69.422 85.961,70.648 89.708,71.19    "/>
			<polyline fill="none" stroke="#000100" stroke-width="0.5" stroke-linecap="round" stroke-linejoin="round" points="     69.626,68.381 71.604,68.693 71.604,70.004 69.637,69.723    "/>
			
				<ellipse fill="none" stroke="#000100" stroke-width="0.5" stroke-linecap="round" stroke-linejoin="round" cx="62.614" cy="68.116" rx="1.186" ry="1.42"/>
			
				<ellipse fill="none" stroke="#000100" stroke-width="0.5" stroke-linecap="round" stroke-linejoin="round" cx="62.411" cy="68.021" rx="0.515" ry="0.734"/>
			
				<ellipse fill="none" stroke="#000100" stroke-width="0.5" stroke-linecap="round" stroke-linejoin="round" cx="62.396" cy="61.342" rx="1.186" ry="1.42"/>
			
				<ellipse fill="none" stroke="#000100" stroke-width="0.5" stroke-linecap="round" stroke-linejoin="round" cx="62.193" cy="61.249" rx="0.515" ry="0.733"/>
			
				<ellipse fill="none" stroke="#000100" stroke-width="0.5" stroke-linecap="round" stroke-linejoin="round" cx="62.146" cy="49.294" rx="1.186" ry="1.42"/>
			
				<ellipse fill="none" stroke="#000100" stroke-width="0.5" stroke-linecap="round" stroke-linejoin="round" cx="61.943" cy="49.201" rx="0.515" ry="0.733"/>
			
				<ellipse transform="matrix(0.9991 -0.0421 0.0421 0.9991 -2.5817 3.04)" fill="none" stroke="#000100" stroke-width="0.5" stroke-linecap="round" stroke-linejoin="round" cx="70.823" cy="62.762" rx="0.562" ry="0.936"/>
			
				<ellipse transform="matrix(0.9991 -0.0426 0.0426 0.9991 -2.2061 3.058)" fill="none" stroke="#000100" stroke-width="0.5" stroke-linecap="round" stroke-linejoin="round" cx="70.667" cy="53.305" rx="0.562" ry="0.937"/>
			
				<ellipse transform="matrix(0.9991 -0.0417 0.0417 0.9991 -2.0427 2.9857)" fill="none" stroke="#000100" stroke-width="0.5" stroke-linecap="round" stroke-linejoin="round" cx="70.511" cy="50.433" rx="0.562" ry="0.937"/>
			
				<ellipse transform="matrix(0.9991 -0.0417 0.0417 0.9991 -1.9216 2.9832)" fill="none" stroke="#000100" stroke-width="0.5" stroke-linecap="round" stroke-linejoin="round" cx="70.511" cy="47.531" rx="0.562" ry="0.936"/>
			
				<line fill="none" stroke="#000100" stroke-width="0.5" stroke-linecap="round" stroke-linejoin="round" x1="75.411" y1="46.47" x2="75.474" y2="55.677"/>
			<path fill="none" stroke="#000100" stroke-width="0.5" stroke-linecap="round" stroke-linejoin="round" d="M75.567,54.272     c0,0,0.593-0.78,0.999-0.78c0,0,1.155-0.062,1.092,0.937"/>
			<path fill="none" stroke="#000100" stroke-width="0.5" stroke-linecap="round" stroke-linejoin="round" d="M75.567,54.896     l2.185-0.375c0,0,0.374,0.687,0.312,0.843"/>
			<polygon fill="none" stroke="#000100" stroke-width="0.5" stroke-linecap="round" stroke-linejoin="round" points="     70.261,55.771 71.104,55.895 71.197,60.453 70.355,60.266    "/>
			<path fill="none" stroke="#000100" stroke-width="0.5" stroke-linecap="round" stroke-linejoin="round" d="M60.335,43.754     c0,0-2.373,1.061-0.749,3.652"/>
			<path fill="none" stroke="#000100" stroke-width="0.5" stroke-linecap="round" stroke-linejoin="round" d="M62.864,59.86     l-0.936-0.718c0,0-2.217-0.219-2.279,1.966c-0.063,2.185,1.748,2.279,1.748,2.279l1.155-0.5"/>
			
				<line fill="none" stroke="#000100" stroke-width="0.5" stroke-linecap="round" stroke-linejoin="round" x1="62.489" y1="59.766" x2="60.679" y2="59.547"/>
			
				<line fill="none" stroke="#000100" stroke-width="0.5" stroke-linecap="round" stroke-linejoin="round" x1="62.146" y1="62.825" x2="60.148" y2="62.669"/>
		</g>
		
			<circle fill="none" stroke="#000100" stroke-width="0.5" stroke-linecap="round" stroke-linejoin="round" stroke-miterlimit="10" cx="47.142" cy="62.398" r="46.892"/>
	</g>
	<g>
		<polygon fill="#FFFFFF" stroke="#FFFFFF" points="42.553,86.104 49.07,80.616 41.458,76.354 41.634,78.69 30.701,79.893     31.307,85.288 42.314,83.983   "/>
		<polygon points="42.589,85.507 48.02,80.933 41.677,77.38 41.823,79.327 31.396,80.478 31.852,84.541 42.358,83.456   "/>
	</g>
	<g>
		
			<line fill="none" stroke="#FFFFFF" stroke-width="3" stroke-linecap="round" stroke-linejoin="round" stroke-dasharray="3 3" x1="53.578" y1="60.328" x2="69.778" y2="58.303"/>
	</g>
	<g>
		
			<line fill="none" stroke="#221E1F" stroke-width="0.5" stroke-linecap="round" stroke-linejoin="round" stroke-dasharray="3 3" x1="53.578" y1="60.328" x2="69.778" y2="58.303"/>
	</g>
	<g>
		
			<line fill="none" stroke="#221E1F" stroke-width="0.75" stroke-linecap="round" stroke-linejoin="round" x1="31.048" y1="53.375" x2="31.179" y2="55.16"/>
		
			<line fill="none" stroke="#221E1F" stroke-width="0.75" stroke-linecap="round" stroke-linejoin="round" x1="33.079" y1="53.226" x2="33.21" y2="55.011"/>
		<g>
			
				<line fill="none" stroke="#221E1F" stroke-width="0.75" stroke-linecap="round" stroke-linejoin="round" x1="31.732" y1="53.324" x2="31.863" y2="55.11"/>
			
				<line fill="none" stroke="#221E1F" stroke-width="0.75" stroke-linecap="round" stroke-linejoin="round" x1="31.89" y1="53.425" x2="32.945" y2="54.919"/>
		</g>
		
			<line fill="none" stroke="#221E1F" stroke-width="0.75" stroke-linecap="round" stroke-linejoin="round" x1="35.215" y1="53.05" x2="35.339" y2="54.737"/>
		
			<line fill="none" stroke="#221E1F" stroke-width="0.75" stroke-linecap="round" stroke-linejoin="round" x1="35.897" y1="52.96" x2="36.014" y2="54.549"/>
		<polyline fill="none" stroke="#221E1F" stroke-width="0.75" stroke-linecap="round" stroke-linejoin="round" points="    37.903,54.529 37.782,52.878 38.848,52.764   "/>
		
			<line fill="none" stroke="#221E1F" stroke-width="0.75" stroke-linecap="round" stroke-linejoin="round" x1="37.834" y1="53.588" x2="38.688" y2="53.505"/>
		
			<line fill="none" stroke="#221E1F" stroke-width="0.75" stroke-linecap="round" stroke-linejoin="round" x1="37.897" y1="54.45" x2="38.945" y2="54.373"/>
		<path fill="none" stroke="#221E1F" stroke-width="0.75" stroke-linecap="round" stroke-linejoin="round" d="M35.901,53.019    l0.62-0.045c0,0,0.479,0.083,0.575,0.511c0,0,0.349,0.94-0.402,0.956"/>
		<polyline fill="none" stroke="#221E1F" stroke-width="0.75" stroke-linecap="round" stroke-linejoin="round" points="    36.507,54.513 36.652,54.463 35.97,54.552   "/>
		<path fill="none" stroke="#221E1F" stroke-width="0.75" stroke-linecap="round" stroke-linejoin="round" d="M34.647,53.505    c0,0-0.238-0.316-0.345-0.309c-0.107,0.008-0.715,0.209-0.663,0.344c0.053,0.134,0.354,0.428,0.614,0.448s0.574,0.214,0.521,0.355    c-0.055,0.142-0.509,0.393-0.509,0.393s-0.579,0.022-0.689-0.304"/>
	</g>
	
		<line fill="none" stroke="#221E1F" stroke-width="0.75" stroke-linecap="round" stroke-linejoin="round" x1="38.058" y1="71.58" x2="37.927" y2="69.794"/>
	
		<line fill="none" stroke="#221E1F" stroke-width="0.75" stroke-linecap="round" stroke-linejoin="round" x1="36.027" y1="71.728" x2="35.896" y2="69.944"/>
	<g>
		
			<line fill="none" stroke="#221E1F" stroke-width="0.75" stroke-linecap="round" stroke-linejoin="round" x1="37.375" y1="71.629" x2="37.244" y2="69.845"/>
		
			<line fill="none" stroke="#221E1F" stroke-width="0.75" stroke-linecap="round" stroke-linejoin="round" x1="37.216" y1="71.53" x2="36.162" y2="70.036"/>
	</g>
	
		<line fill="none" stroke="#221E1F" stroke-width="0.75" stroke-linecap="round" stroke-linejoin="round" x1="33.891" y1="71.905" x2="33.767" y2="70.218"/>
	
		<line fill="none" stroke="#221E1F" stroke-width="0.75" stroke-linecap="round" stroke-linejoin="round" x1="33.21" y1="71.995" x2="33.093" y2="70.406"/>
	
		<line fill="none" stroke="#221E1F" stroke-width="0.75" stroke-linecap="round" stroke-linejoin="round" x1="31.204" y1="70.426" x2="31.324" y2="72.077"/>
	<path fill="none" stroke="#221E1F" stroke-width="0.75" stroke-linecap="round" stroke-linejoin="round" d="M33.206,71.936   l-0.621,0.045c0,0-0.479-0.083-0.574-0.51c0,0-0.349-0.94,0.402-0.956"/>
	<polyline fill="none" stroke="#221E1F" stroke-width="0.75" stroke-linecap="round" stroke-linejoin="round" points="   32.599,70.441 32.455,70.492 33.136,70.402  "/>
	<path fill="none" stroke="#221E1F" stroke-width="0.75" stroke-linecap="round" stroke-linejoin="round" d="M34.459,71.449   c0,0,0.238,0.317,0.345,0.309c0.107-0.007,0.715-0.209,0.663-0.343c-0.053-0.134-0.354-0.428-0.614-0.449   c-0.26-0.021-0.575-0.214-0.52-0.356c0.054-0.142,0.508-0.392,0.508-0.392s0.579-0.022,0.688,0.304"/>
</g>
</svg>