<?xml version="1.0" encoding="utf-8"?>
<!-- Generator: Adobe Illustrator 19.1.0, SVG Export Plug-In . SVG Version: 6.00 Build 0)  -->
<svg version="1.1" xmlns="http://www.w3.org/2000/svg" xmlns:xlink="http://www.w3.org/1999/xlink" x="0px" y="0px" width="288px"
	 height="360px" viewBox="0 0 288 360" style="enable-background:new 0 0 288 360;" xml:space="preserve">
<style type="text/css">
	.st0{fill:#D1D3D4;}
	.st1{fill:none;stroke:#000000;stroke-width:0.5;stroke-miterlimit:10;}
	.st2{fill:none;stroke:#000000;stroke-width:0.5;stroke-linecap:round;stroke-linejoin:round;stroke-miterlimit:10;}
	.st3{fill:none;stroke:#000000;stroke-width:0.5155;stroke-linecap:round;stroke-linejoin:round;stroke-miterlimit:10;}
	.st4{fill:none;stroke:#000000;stroke-width:0.3992;stroke-linecap:round;stroke-linejoin:round;stroke-miterlimit:10;}
	.st5{fill:#FFFFFF;stroke:#000000;stroke-width:0.5;stroke-linecap:round;stroke-linejoin:round;stroke-miterlimit:10;}
	.st6{fill:none;stroke:#000000;stroke-width:0.3764;stroke-linecap:round;stroke-linejoin:round;stroke-miterlimit:10;}
	.st7{fill:none;stroke:#000000;stroke-width:0.273;stroke-linecap:round;stroke-linejoin:round;stroke-miterlimit:10;}
	.st8{fill:none;stroke:#000000;stroke-width:1.25;stroke-linecap:round;stroke-linejoin:round;stroke-miterlimit:10;}
	.st9{fill:none;stroke:#000000;stroke-width:1.125;stroke-linecap:round;stroke-linejoin:round;stroke-miterlimit:10;}
	.st10{fill:none;stroke:#000000;stroke-width:0.25;stroke-linecap:round;stroke-linejoin:round;stroke-miterlimit:10;}
	.st11{fill:none;stroke:#000000;stroke-width:0.4338;stroke-linecap:round;stroke-linejoin:round;stroke-miterlimit:10;}
	.st12{fill:none;stroke:#000000;stroke-width:0.3709;stroke-linecap:round;stroke-linejoin:round;stroke-miterlimit:10;}
	.st13{fill:none;stroke:#000000;stroke-width:0.3819;stroke-linecap:round;stroke-linejoin:round;stroke-miterlimit:10;}
	.st14{fill:none;stroke:#000000;stroke-width:0.3598;stroke-linecap:round;stroke-linejoin:round;stroke-miterlimit:10;}
	.st15{clip-path:url(#SVGID_2_);}
	.st16{fill:#FFFFFF;stroke:#000000;stroke-width:0.2773;stroke-linecap:round;stroke-linejoin:round;stroke-miterlimit:10;}
	.st17{fill:#FFFFFF;stroke:#000000;stroke-width:0.3263;stroke-linecap:round;stroke-linejoin:round;stroke-miterlimit:10;}
	.st18{fill:#FFFFFF;stroke:#000000;stroke-width:0.2743;stroke-linecap:round;stroke-linejoin:round;stroke-miterlimit:10;}
	.st19{fill:none;stroke:#000000;stroke-width:0.3263;stroke-linecap:round;stroke-linejoin:round;stroke-miterlimit:10;}
	.st20{fill:none;stroke:#000000;stroke-width:0.2832;stroke-linecap:round;stroke-linejoin:round;stroke-miterlimit:10;}
	.st21{fill:none;stroke:#000000;stroke-width:0.2743;stroke-linecap:round;stroke-linejoin:round;stroke-miterlimit:10;}
	.st22{fill:#FFFFFF;stroke:#000000;stroke-width:0.35;stroke-linecap:round;stroke-linejoin:round;stroke-miterlimit:10;}
	.st23{fill:none;stroke:#FFFFFF;stroke-width:2.6305;stroke-linecap:round;stroke-linejoin:round;}
	.st24{fill:#FFFFFF;stroke:#000000;stroke-width:0.6576;stroke-linecap:round;stroke-linejoin:round;}
	.st25{clip-path:url(#SVGID_4_);}
	.st26{fill:none;stroke:#000000;stroke-width:0.6576;stroke-linecap:round;stroke-linejoin:round;stroke-miterlimit:10;}
	.st27{fill:none;stroke:#000000;stroke-width:0.6576;stroke-miterlimit:10;}
	.st28{fill:none;stroke:#000000;stroke-width:0.6332;stroke-linecap:round;stroke-linejoin:round;stroke-miterlimit:10;}
	.st29{fill:#2E2A25;}
	.st30{fill:none;stroke:#000000;stroke-width:0.4;stroke-miterlimit:10;}
	.st31{fill:none;stroke:#000000;stroke-width:0.4;stroke-linecap:round;stroke-linejoin:round;stroke-miterlimit:10;}
	.st32{fill:#FFFFFF;stroke:#FFFFFF;stroke-width:0.2961;}
	.st33{fill:#FFFFFF;stroke:#FFFFFF;}
</style>
<g id="Layer_4">
	<polygon class="st0" points="174.7,221 169.2,220.4 168.7,215 169.3,212.7 171.2,212.7 178.3,198.4 190.9,200.4 185.4,211.4 
		179.8,210.7 	"/>
</g>
<g id="Base">
	<path class="st1" d="M216.1,151.2l22.8-118l-5.5-0.4L236,18l-1.1-1.3l-12.5-1.7c-2.3,0-6.3-1.1-6.5-4.9c-0.2-3.8-4.4-4.6-4.4-4.6
		l-26.6-3.2c-4.9-1.3-8,2.3-8,2.3c-2.5,4.9-5.9,4-5.9,4L117,2L90.8,132.1l1.2,1.4l16.6,1.7l-1.2,9.1l2.7,1.9l101.7,12.8L216.1,151.2
		z"/>
	<path class="st2" d="M211.8,158.9c0,0-49.3,98.2-51.6,104.9c-2.3,6.8-6,5.4-6,5.4l-10.4-1.4l-1.7,4.3l79.6,9.9
		c0,0,6.8-13.1,9.3-17.6c2.5-4.4,0.6-3.7-3.1-6.2c-3.7-2.5-1.5-1.9-0.4-5.6c1.2-3.7,4.3-4.6,4.3-4.6s1.7,0,4.8-0.2s4.4-4.3,4.4-4.3
		s10-19.3,13.1-26.7c3.1-7.3,3.9-5.8-0.2-8.7c-4.1-2.9-3.1-0.6-1.2-5.8c1.9-5.2,4.6-4.8,4.6-4.8c8.1-0.2,7.7-2.5,7.7-2.5l6.9-14.4
		l3.3,0.4l-0.5,32.2L224,314.3c0,0,0.2-17,0-19.9c-0.2-2.9-0.8-4.4-0.8-4.4c0.2-2.9-0.8-4.3-0.8-4.3L25.3,260.6l-2.8,4.8l-0.1,0.3
		l0.1,11.8"/>
	<polyline class="st2" points="216.6,150.4 218,148.1 277.5,155.7 277.5,157 281.9,157.2 282.1,158.6 285.2,159.5 285,169 
		286,170.3 286,186.8 285.6,188.3 275.2,210.5 	"/>
	<path class="st2" d="M222,162.8c0,0,1-4.4,8.1-3.7s31.7,4.1,31.7,4.1s7-0.6,4.8,4.3c-2.1,4.8-4.1,6.8-4.1,6.8s0,1.4,2.1,3.1
		c2.1,1.7,2.5,0.6,1,3.9c-1.5,3.3-5.6,1.9-5.6,1.9l-2.1,0.4l-42.7,86.8c0,0-1.7,4.4-8.7,2.9s-32.1-3.9-32.1-3.9s-5.8-0.6-3.1-5.4
		C174.1,259,222,162.8,222,162.8z"/>
	<line class="st1" x1="256" y1="208.8" x2="261.5" y2="196.8"/>
	<line class="st1" x1="230.1" y1="259.4" x2="236.5" y2="247.8"/>
	<polyline class="st2" points="277.4,156.5 274.8,161.3 275.5,179.9 	"/>
	<path class="st2" d="M285,159.7l-1.5,3.3c0,0-0.1,0.8-1.8,0.5c-1.7-0.3-1.5,1.4-1.6,2.6c-0.1,1.2,0.1,11.9,0.1,11.9l1.2,4.6
		l1.9,0.7l-7.9,16"/>
	<polyline class="st2" points="274,180.4 274.5,179.9 278.3,180.4 	"/>
	
		<ellipse transform="matrix(0.9965 8.363634e-02 -8.363634e-02 0.9965 16.3679 -22.5929)" class="st3" cx="277.8" cy="184.1" rx="0.8" ry="3.7"/>
	<line class="st3" x1="277.3" y1="187.8" x2="275.5" y2="187.4"/>
	<polyline class="st3" points="272.9,179.6 272.6,171.6 268.5,179.4 271.3,179.9 271.7,180.7 	"/>
	<ellipse class="st3" cx="224.5" cy="151.8" rx="2.2" ry="1.2"/>
	<ellipse class="st3" cx="270.5" cy="158" rx="2.2" ry="1.2"/>
	<ellipse class="st3" cx="279" cy="159.5" rx="2.2" ry="1.2"/>
	<path class="st2" d="M28.6,269.3L216,292.5l0-2.8l3.5,0.4c0,0,2-0.3,1.4,4.1l-0.3,25.4c0,0-0.1,3.6-2.8,0"/>
	<polyline class="st2" points="22.5,265.4 25.7,265.6 25.5,268.9 26.6,269 	"/>
	<line class="st2" x1="28.4" y1="291.2" x2="208.3" y2="313.7"/>
	<polygon class="st2" points="63.4,292.6 36.3,289.1 36.3,282.8 63.4,286.3 	"/>
	<polygon class="st2" points="74.9,293.7 65.7,292.6 65.7,278.9 74.9,280 	"/>
	<polygon class="st2" points="86.7,295.1 77.5,293.9 77.5,280.2 86.7,281.4 	"/>
	<polygon class="st2" points="98.4,296.4 89.3,295.3 89.3,281.6 98.4,282.7 	"/>
	<polygon class="st2" points="111.7,297.8 101.2,296.6 101.2,282.1 111.7,283.4 	"/>
	<polygon class="st2" points="123.9,299.4 113.6,298.1 113.6,290.3 123.9,291.6 	"/>
	<polygon class="st2" points="136.4,300.9 125.4,299.5 125.4,287.6 136.4,289 	"/>
	<line class="st4" x1="43.2" y1="283.9" x2="43.2" y2="289.9"/>
	<line class="st4" x1="49.8" y1="284.6" x2="49.8" y2="290.9"/>
	<line class="st4" x1="56.6" y1="285.5" x2="56.6" y2="291.5"/>
	<line class="st4" x1="30.9" y1="270" x2="31" y2="291.6"/>
	<line class="st4" x1="154.1" y1="284.9" x2="154" y2="306.4"/>
	<path class="st5" d="M143.2,288c-0.2,1.7-1.9,2.8-3.8,2.5c-1.9-0.3-3.3-2-3.1-3.7s1.9-2.8,3.8-2.5
		C141.9,284.6,143.4,286.3,143.2,288z"/>
	<path class="st5" d="M142.4,289.7c-0.2,1.7-1.9,2.8-3.8,2.5s-3.3-2-3.1-3.7s1.9-2.8,3.8-2.5C141.2,286.3,142.6,288,142.4,289.7z"/>
	<polyline class="st6" points="156.7,285.4 156.8,297.8 154.2,303.4 208.6,310 	"/>
	<line class="st6" x1="157.2" y1="288.1" x2="216" y2="295.5"/>
	<line class="st6" x1="157" y1="296" x2="212.2" y2="302.8"/>
	<path class="st6" d="M157.1,307c0,0,0-2.4,2-2.1s49.2,6.3,49.2,6.3"/>
	<path class="st7" d="M210.3,301.6l-49.3-6.1c-0.7,0-1.2-0.5-1.2-1.1l0-3.6c0-0.6,0.6-1.1,1.3-1.1l49.3,6.1c0.7,0,1.2,0.5,1.2,1.1
		l0,3.6C211.6,301.1,211,301.6,210.3,301.6z"/>
	<path class="st2" d="M221.6,282l2.4,0.4c0,0,1.8,0.2,0.4,1.3l-2.1-0.2l-0.8,1.7"/>
	<polyline class="st2" points="154.1,269.3 154,262.3 154,262.3 180,210.7 185.5,211.4 	"/>
	<line class="st2" x1="160.3" y1="263.5" x2="154" y2="262.6"/>
	<polygon class="st2" points="124.1,205.2 130.4,192.4 138.8,193.4 140.5,190.4 156.8,192.4 155.3,195.3 163.6,196.5 157.3,209.7 
		148.8,208.4 147.1,211.6 130.7,209.6 132.3,206.5 	"/>
	<polyline class="st2" points="114.3,264.2 119.9,253.4 122.9,253.8 124.4,251.3 138.5,253.2 138.8,263.6 	"/>
	<polyline class="st2" points="83.6,260.2 83.5,256.3 88.9,245.6 92.2,246 93.6,243.3 107.6,245.1 107.6,256.1 104.1,262.5 	"/>
	<polyline class="st2" points="106,262.8 108.9,257.8 108.8,255.5 107.9,255.4 	"/>
	<line class="st2" x1="138.5" y1="263.6" x2="137" y2="266.5"/>
	<polyline class="st2" points="138.6,267 139.7,264.7 140,262.7 139.2,262.5 	"/>
	<polyline class="st2" points="67,257.9 66.7,248.7 52.4,246.8 50.7,250 47.6,249.6 44.8,254.7 	"/>
	<line class="st2" x1="48.1" y1="249.2" x2="57.4" y2="230.9"/>
	<path class="st2" d="M31,260.8l-0.2-2.5l2.4-4.6L135.5,267l0.4-0.5l4,0.6l-1.1,2.2c0,0,3.2-0.1,3.2,2.9"/>
	<path class="st2" d="M26.1,260.5c0,0,0.1-1.5,1.2-3.6c1.1-2,24.3-48.4,24.3-48.4l1-0.2l0.4-0.7L55,208"/>
	<path class="st2" d="M34.1,253.8l21.1-42.2c0,0,0.7-1.2-0.3-2.9c0,0-1.3-2.4,0-5.3c0,0-1.4-0.7-0.7-2.3c0.8-1.6,1.7-3.8,1.7-3.8
		s0.4-0.5,2.1-0.9c1.7-0.4,0.9-1.3,0.9-1.8c0-0.6,1.3-2.7,1.3-2.7s0.5-0.6,1.2-0.3c0.7,0.3-0.3-0.5,0.3-2.1c0.6-1.6,4.1-8.3,4.1-8.3
		"/>
	<path class="st2" d="M70.8,173.5c0,0-0.4-2.3,0.8-4.2c1.2-1.8,5.9-11.6,5.9-11.6l-0.3-2.9l2.6-5.3c0,0,1.7,0.4,2.9-1.9"/>
	<path class="st2" d="M84.4,146.8c0,0-0.3-2.8,0.8-4.7c1.1-1.9,3.2-7.1,3.2-7.1s0.2-1.2,2.5-0.9l1-0.3"/>
	<ellipse class="st2" cx="102.4" cy="137.3" rx="2.3" ry="1"/>
	<ellipse class="st2" cx="93.8" cy="135.8" rx="2.3" ry="1"/>
	<line class="st2" x1="108.2" y1="156.5" x2="206.7" y2="168.8"/>
	<polygon class="st2" points="108.6,157.4 106.1,162.4 111.9,163.3 114.6,158.1 	"/>
	<polyline class="st2" points="106.1,162.4 105.5,171.1 111.6,172 111.9,163.3 	"/>
	<polyline class="st2" points="106,171.5 106,173.2 111.4,174.1 114.7,167.6 115.6,168 116.9,165.5 116.7,157.8 	"/>
	<line class="st2" x1="111.4" y1="171.8" x2="111.4" y2="174.1"/>
	<line class="st2" x1="135.5" y1="282.7" x2="135.5" y2="288.1"/>
	<polyline class="st2" points="142.4,290.3 147.5,290.7 147.6,283.9 	"/>
	<polyline class="st8" points="183.2,210.3 156.8,263.1 156.8,268.3 	"/>
	<polyline class="st9" points="108,181.8 88,221.7 88,230.1 	"/>
	<polyline class="st9" points="114.5,182.1 94.5,221.9 94.5,230.3 	"/>
	<polyline class="st9" points="120.5,183.1 100.5,222.9 100.5,231.3 	"/>
	<polyline class="st9" points="126.7,184 106.7,223.8 106.7,232.2 	"/>
	<line class="st2" x1="115.6" y1="168" x2="139.2" y2="170.9"/>
	<path class="st2" d="M139.8,169l-18.1-2.3c0,0-3.2,0.2-3.4,1.4"/>
	<line class="st2" x1="124.1" y1="205.2" x2="124.5" y2="225.8"/>
	<line class="st2" x1="130.7" y1="209.6" x2="131.2" y2="229.6"/>
	<line class="st2" x1="147.1" y1="211.6" x2="147.4" y2="231.5"/>
	<line class="st2" x1="149.3" y1="208.7" x2="149.5" y2="222.9"/>
	<line class="st2" x1="157.3" y1="209.7" x2="157.1" y2="227.9"/>
	<line class="st2" x1="163.6" y1="196.5" x2="164.1" y2="215.1"/>
	<polyline class="st2" points="124.2,223.6 122.2,228.3 154.6,233 165.7,213.1 164.1,212.6 	"/>
	<polyline class="st2" points="165.7,213.1 166.1,214.5 154.8,234.5 122.1,230 122.2,228.3 	"/>
	<polyline class="st2" points="139.5,266.7 143.4,258.6 150.5,259.7 151.6,257 155.8,257.7 	"/>
	<polyline class="st2" points="190.6,200.2 178.3,198.3 177.5,200.1 171.6,212.5 	"/>
	<line class="st2" x1="190" y1="202" x2="177.4" y2="200.2"/>
	<polyline class="st2" points="156.4,237.1 161.3,227.5 170.6,228.6 	"/>
	<polyline class="st2" points="173.8,215.3 174.4,213.2 169.5,212.5 168.6,214.8 176.9,216 	"/>
	<polyline class="st2" points="174.4,221 168.9,220.3 168.6,214.8 	"/>
	<g>
		<polygon class="st2" points="89,230.6 85.3,230.2 83.9,233.1 83.8,236.4 85.3,239.3 85.4,242 89.3,242.5 89,239.6 87.6,237.3 
			87.7,233.6 		"/>
		<line class="st2" x1="84.5" y1="233.2" x2="87.7" y2="233.6"/>
		<line class="st2" x1="84.1" y1="236.8" x2="87.3" y2="237.3"/>
		<line class="st2" x1="85.3" y1="239" x2="88.4" y2="239.4"/>
	</g>
	<polyline class="st2" points="89,230.6 89.2,238.3 90.8,239.4 89.3,242.5 	"/>
	<line class="st2" x1="89" y1="239.6" x2="89.2" y2="238.3"/>
	<g>
		<polygon class="st2" points="95.4,231.3 91.6,230.9 90.3,233.8 90.2,237.1 91.6,240 91.8,242.8 95.7,243.2 95.4,240.3 94,238 
			94.1,234.4 		"/>
		<line class="st2" x1="90.9" y1="233.9" x2="94.1" y2="234.4"/>
		<line class="st2" x1="90.5" y1="237.5" x2="93.7" y2="238"/>
		<line class="st2" x1="91.6" y1="239.7" x2="94.8" y2="240.2"/>
	</g>
	<polyline class="st2" points="95.4,231.3 95.5,239 97.1,240.2 95.7,243.2 	"/>
	<g>
		<polygon class="st2" points="101.5,232 97.7,231.6 96.4,234.5 96.3,237.8 97.7,240.7 97.9,243.5 101.8,243.9 101.5,241 100,238.7 
			100.2,235.1 		"/>
		<line class="st2" x1="97" y1="234.6" x2="100.2" y2="235.1"/>
		<line class="st2" x1="96.6" y1="238.3" x2="99.7" y2="238.7"/>
		<line class="st2" x1="97.7" y1="240.4" x2="100.9" y2="240.9"/>
	</g>
	<polyline class="st2" points="101.5,232 101.6,239.7 103.2,240.9 101.8,243.9 	"/>
	<g>
		<polygon class="st2" points="107.9,232.9 104.1,232.5 102.8,235.4 102.6,238.7 104.1,241.6 104.2,244.4 108.2,244.8 107.9,241.9 
			106.4,239.6 106.6,236 		"/>
		<line class="st2" x1="103.4" y1="235.5" x2="106.6" y2="236"/>
		<line class="st2" x1="102.9" y1="239.1" x2="106.1" y2="239.6"/>
		<line class="st2" x1="104.1" y1="241.3" x2="107.3" y2="241.8"/>
	</g>
	<polyline class="st2" points="107.9,232.9 108,240.6 109.6,241.8 108.2,244.8 	"/>
	<line class="st2" x1="95.4" y1="240" x2="95.5" y2="238.7"/>
	<line class="st2" x1="85.8" y1="228.7" x2="90.3" y2="229.1"/>
	<g>
		<polyline class="st2" points="86,229.6 85.8,221 105.7,181.7 110.3,182.3 110.5,184.5 		"/>
		<polyline class="st2" points="90.6,232.3 90.3,221.6 110,183.1 		"/>
		<line class="st2" x1="85.8" y1="221.2" x2="90.3" y2="221.6"/>
		<line class="st2" x1="86" y1="228.9" x2="90.5" y2="229.3"/>
	</g>
	<g>
		<polyline class="st2" points="92.1,230.3 91.9,221.7 111.8,182.5 116.4,183.1 116.6,185.2 		"/>
		<polyline class="st2" points="96.7,233.1 96.4,222.3 116.1,183.8 		"/>
		<line class="st2" x1="91.9" y1="221.9" x2="96.4" y2="222.3"/>
		<line class="st2" x1="92.1" y1="229.6" x2="96.6" y2="230"/>
	</g>
	<g>
		<polyline class="st2" points="98.2,230.9 98,222.3 117.9,183.1 122.5,183.6 122.6,185.8 		"/>
		<polyline class="st2" points="102.8,233.6 102.5,222.9 122.2,184.4 		"/>
		<line class="st2" x1="98" y1="222.5" x2="102.5" y2="222.9"/>
		<line class="st2" x1="98.2" y1="230.2" x2="102.6" y2="230.6"/>
	</g>
	<g>
		<polyline class="st2" points="104.5,231.9 104.4,223.3 124.2,184.1 128.9,184.6 129.2,194.1 		"/>
		<polyline class="st2" points="128.6,185.4 108.9,223.9 109,239 124.1,209.6 		"/>
		<line class="st2" x1="104.4" y1="223.5" x2="108.9" y2="223.9"/>
		<line class="st2" x1="104.5" y1="231.2" x2="109" y2="231.6"/>
	</g>
	<line class="st2" x1="109.6" y1="241.8" x2="124.1" y2="212.9"/>
	<g>
		<g>
			<path class="st5" d="M125.3,221.5l0,1.7c0,0,0.4,1.1,2.5,1.1c0,0,1.7,0,2.1-1.2v-1.9"/>
			<ellipse class="st5" cx="127.7" cy="221.3" rx="2.3" ry="1.2"/>
			<ellipse class="st5" cx="155.3" cy="245.7" rx="3.4" ry="1.8"/>
		</g>
		<g>
			<g>
				<path class="st2" d="M125.9,223.8c0,0-1.2,1.1,1.5,1.3c0,0,1.3,0.1,2-0.6"/>
				<path class="st2" d="M125.9,224.9c0,0-1.2,1.1,1.5,1.3c0,0,1.3,0.1,2-0.6"/>
				<path class="st2" d="M125.9,226c0,0-1.2,1.1,1.5,1.3c0,0,1.3,0.1,2-0.6"/>
				<path class="st2" d="M125.9,227c0,0-1.2,1.1,1.5,1.3c0,0,1.3,0.1,2-0.6"/>
			</g>
			<line class="st10" x1="126.2" y1="223.9" x2="126.4" y2="228.6"/>
			<line class="st10" x1="129.3" y1="224" x2="129.5" y2="228.1"/>
		</g>
	</g>
	<g>
		<g>
			<path class="st5" d="M148.8,224.3l0,1.7c0,0,0.4,1.1,2.5,1.1c0,0,1.7,0,2.1-1.2V224"/>
			<ellipse class="st5" cx="151.1" cy="224.2" rx="2.3" ry="1.2"/>
		</g>
		<g>
			<g>
				<path class="st2" d="M149.4,226.7c0,0-1.2,1.1,1.5,1.3c0,0,1.3,0.1,2-0.6"/>
				<path class="st2" d="M149.4,227.8c0,0-1.2,1.1,1.5,1.3c0,0,1.3,0.1,2-0.6"/>
				<path class="st2" d="M149.4,228.9c0,0-1.2,1.1,1.5,1.3c0,0,1.3,0.1,2-0.6"/>
				<path class="st2" d="M149.4,229.9c0,0-1.2,1.1,1.5,1.3c0,0,1.3,0.1,2-0.6"/>
			</g>
			<line class="st10" x1="149.7" y1="226.8" x2="149.9" y2="231.5"/>
			<line class="st10" x1="152.8" y1="226.9" x2="152.9" y2="231"/>
		</g>
	</g>
	<polyline class="st2" points="107.6,245.1 101.8,256.2 102.1,262.2 	"/>
	<polyline class="st2" points="83.5,256.3 93.8,257.8 94.7,255.5 101.8,256.2 	"/>
	<line class="st2" x1="93.8" y1="257.8" x2="94" y2="261.2"/>
	<line class="st2" x1="66.7" y1="248.7" x2="62.4" y2="257.1"/>
	<polyline class="st2" points="138.5,253.2 132.9,263.6 126,262.6 124.7,265.1 	"/>
	<line class="st2" x1="132.9" y1="266.4" x2="132.9" y2="263.6"/>
	<path class="st2" d="M150.9,245.4l2.9-6.5c0,0,0.7-1.9,3.6-1.2l3.9,0.6c0,0,2-0.1,1.4,2l-3.3,7.2c0,0-1.9,2.2-5.5,1.6
		C154,249.1,149.5,248.9,150.9,245.4z"/>
	<line class="st2" x1="151.6" y1="257" x2="150.6" y2="247.3"/>
	<line class="st2" x1="159.9" y1="250.6" x2="159.6" y2="247.5"/>
	<path class="st2" d="M55.4,209.7h0.7l0.4,20.6l3.6,0.4v-8.6c0,0-0.4-4.1,4.8-3.6c0,0,4.9,1.2,4.5,5.1l0.3,8.7l3.3,0.3l0-0.4
		l-0.1-13.5"/>
	<polyline class="st2" points="73.1,232.2 75.1,228.4 75.4,230.4 76.6,228.4 76.6,225.7 81.2,216.2 80.9,210.9 	"/>
	<polyline class="st2" points="83.7,205.7 83.8,212 84.5,209.7 84.7,212 85.8,209.9 85.8,206.8 97.7,183.5 97.7,185.7 98.9,183.5 
		98.7,180.7 102.1,174.5 101.9,168.8 	"/>
	<path class="st2" d="M100.6,150l-3,6.8l-0.9-0.3l-0.6,0.6l-14.1-1.7l-13.8,28.6l0.3,0.7l-2.8,5.8l-1,0.1l-4.5,8.7h1.6l-1.6,3.2
		l-1.6-0.3l-2.6,4.6l17.1,2l28.4-56.7C103.1,149.7,100.6,150,100.6,150L85,148.3l1.4-2.5l19.3,2.2c0,0,2.2-0.1,2.2,2.2s0,6.8,0,6.8
		l-30.3,60.3c0,0-0.3,1.6-3.8,1.4l-17.2-2"/>
	<line class="st2" x1="64.8" y1="190.6" x2="80.9" y2="192.6"/>
	<polyline class="st2" points="82.5,186.1 72.5,207.3 57.1,205.4 	"/>
	<polyline class="st2" points="72.6,174.4 69.9,173.9 66.4,180.7 69.3,181.2 	"/>
	<polyline class="st2" points="85,147.5 83.7,147.2 82.9,149.1 82.9,150.4 83.5,150.3 	"/>
	<polyline class="st2" points="85.5,148.7 83.7,152.3 80.9,152 79,155.7 81.5,155.8 	"/>
	<polyline class="st2" points="81.3,157.3 86.3,158 84.4,161.6 79.6,160.9 	"/>
	<polyline class="st2" points="70.3,180.3 75.3,181 73.4,184.6 68.6,183.9 	"/>
	<polygon class="st2" points="94.7,162.9 96.4,159.4 91.6,158.8 90,162.2 	"/>
	<polygon class="st2" points="83.2,185.9 85,182.5 80.2,181.9 78.6,185.2 	"/>
	<polyline class="st2" points="85.3,185.7 89.2,186.1 89.3,193.5 	"/>
	<polyline class="st2" points="91.3,172.8 95.4,173.2 95.7,180.3 	"/>
	<polyline class="st2" points="101.3,176.4 102.8,176.4 104.1,174.8 104.2,169.6 105.4,167.5 	"/>
	<polyline class="st2" points="88.9,177.1 85.4,176.5 83.7,180.4 85.7,180.6 86.4,181.5 	"/>
	<line class="st2" x1="86.3" y1="148.7" x2="86.3" y2="155.7"/>
	<line class="st2" x1="83.7" y1="152.3" x2="83.8" y2="155.2"/>
	<ellipse class="st11" cx="60.3" cy="214.1" rx="2.2" ry="1.9"/>
	<line class="st11" x1="79" y1="155.7" x2="78.9" y2="161.6"/>
	<polyline class="st11" points="66.4,180.7 66.4,183.3 68,185.5 	"/>
	<polyline class="st11" points="59.7,199.1 57.7,198.7 55.7,202.6 58.1,203.1 	"/>
	<line class="st11" x1="55.7" y1="202.6" x2="56.1" y2="206.8"/>
	<path class="st11" d="M164.1,255.8l1.3,0.2l2.8,0.4c0,0,2,0.4,3-1.9c1-2.3,6.8-14.5,6.8-14.5s1.2-1.2-2.2-2.2l-2.9-0.1"/>
	<line class="st11" x1="174.1" y1="238.4" x2="165.6" y2="255.4"/>
	<path class="st11" d="M174.8,233.6l4.9,0.7c0,0,1.2,0.4,2.5-2.2c1.3-2.6,1.9-4.3,1.9-4.3s1-1-2.2-1.4c-3.2-0.4-3.9-0.3-3.9-0.3"/>
	<line class="st11" x1="177.4" y1="233.6" x2="180.8" y2="226.5"/>
	<g>
		<path class="st12" d="M21.4,282.4l-0.1-2c0-0.1,0.1-0.1,0.1-0.2c0.2-0.2,0.6-0.3,0.6-0.3l1.6,0.3c0.5,0.2,0.7,0.9,0.7,0.9l0.1,1.5
			c0.2,0,0.4-0.3,0.4-0.3s2.8-5,2.9-5.2c0.1-0.2,0.4-1.4,0.4-1.4s0-0.9,0-1.4s-0.9-0.7-0.9-0.7s-0.9-0.2-1.3-0.2s-0.6,0.2-0.6,0.2
			l-3.8,6.4"/>
		<line class="st12" x1="24.5" y1="280.9" x2="28.1" y2="274.5"/>
		<line class="st12" x1="22.6" y1="280.5" x2="9.6" y2="303.4"/>
		<line class="st12" x1="24" y1="280.9" x2="11.2" y2="303.5"/>
		<line class="st12" x1="16.3" y1="296.4" x2="16.5" y2="305"/>
		<path class="st12" d="M4.1,307.6l1.9-3.5c0,0,0.6-0.8,1.8-0.7s8.1-0.6,14.3,5.3c6.2,5.9,5,12.7,5,12.7s-1.2,4.1-2.6,6"/>
		<path class="st12" d="M3.8,313.8l-0.1-5c0,0-0.2-1.5,1.6-1.7s6.9-0.3,12.4,3.4s8.7,10.5,6.9,16.3c0,0-1.2,4.6-7.5,6.6l-4.4-0.2"/>
		<path class="st12" d="M4.8,330.1l0,1.2c0,0,0,0.9,1.2,1.1c1.2,0.2,4.9,0.7,4.9,0.7s3.2,0.4,6-0.8c2.8-1.2,5-2.6,6.3-6.4
			c1.3-3.8-0.3-10.8-7.4-15c0,0-2.5-1.5-3.9-1.7c0,0-5-0.8-5.6,3.8l-0.1,4.8"/>
		<line class="st12" x1="8.7" y1="319.5" x2="14.1" y2="310"/>
		<path class="st12" d="M6.1,318.3c0,0,1.3-0.8,2.3,0.6l0.5,2.2l2.5-4.5c0,0-0.1-2.2-0.1-2.7c0-0.5-0.3-1-0.3-1
			c-0.8-1.1-1.8-0.3-1.8-0.3l-3.5,6.2"/>
		<path class="st12" d="M5.7,319.1l0.8,0.2c0,0,0.5-0.9,1.1-0.3l0.5,1.8c0,0-0.8,0.7-1.2,0.7c0,0,1.3,1,2-0.2"/>
		<line class="st12" x1="11.2" y1="317.2" x2="15" y2="310.5"/>
		<path class="st12" d="M5.2,315.8l0.3-1.7c0,0-0.2-1.2-1.5-0.6c0,0-1.5,1.3-2,5.1c0,0-0.2,1.6-0.3,2.5c-0.1,0.8,0.2,7.8,0.2,7.8
			s0.5,3.5,2.5,1.7"/>
		<path class="st12" d="M5.4,314.2c0,0-0.6,0.2-1.2,2c-0.6,1.8-0.9,4.8-0.8,6.2c0,1.4-0.2,7.8,0.8,7.9c0,0,1.2,0.3,2.3-5.7l0.5,3.9
			l0.5-0.8c0,0,0-3,0.9-4.4c0.1-0.2,0.2-0.3,0.3-0.4c0,0,0.8-0.3,0.7,1.4l0.5-0.7l0.2-2.8l5.7-10"/>
		<path class="st12" d="M9.2,324.4l-0.7,0c0,0,0-0.9-0.2-1"/>
		<line class="st12" x1="4.8" y1="331.3" x2="6.9" y2="328.4"/>
		<path class="st12" d="M7.1,328.3c0,0,0.6,0.5,0.9,0.5s6.1,0.7,6.1,0.7s5.5,0.2,8.8-3.4"/>
		<path class="st12" d="M17.8,305.6l9.4-16.7l0.5-0.2l0.6,0.1c0,0,0.4,0.4,0.2,1.9l-3.8,6.6c0,0-0.4,0.8-1.5,0.3l-4.7,8.4"/>
		<path class="st12" d="M24.7,297c0,0-0.2-1.9,0.5-3c0.7-1.1,3-5.3,3-5.3"/>
		<path class="st12" d="M19.6,302c0,0,0.2-1.6,0.1-2.6l0.3-0.6l-0.1-9"/>
		<polyline class="st12" points="20.2,296.9 21.7,294.2 21.5,286.8 		"/>
		<line class="st12" x1="24" y1="282.5" x2="12" y2="303.6"/>
		<line class="st12" x1="22.7" y1="285.1" x2="22.9" y2="293.9"/>
		<path class="st12" d="M21.8,294.2c0,0,0.9,0.3,1.1-0.3l0.9-1.5l-0.2-9.1"/>
		<line class="st12" x1="23.8" y1="289.6" x2="25.2" y2="289.8"/>
		<path class="st12" d="M23.7,286.2l1.9,0.2l0.1,0.2l-0.3,0.4c0,0-0.2,0.5-0.2,0.9c0,0.5,0,2.2,0,2.2s0,0.4,0.2,0.4s0.7,0.1,0.7,0.1
			"/>
		<path class="st12" d="M24.4,282.5l0,2.2v1l1.5,0.2c0,0,0.6,0.3,0.6,0.7s-0.4,0.7-0.4,0.7s-0.2,0.5-0.1,0.9c0,0.3,0.1,2.4,0.1,2.4"
			/>
		<path class="st12" d="M27,278.6l1.3,1.3c0,0,0.4,0.5,0.4,1.3l0.2,0.2v1.4l-0.2,0.2v0.7l-1,1.9l-1.2,0.9"/>
		<path class="st12" d="M26.2,279.9l1.2,1.2c0,0,0.5,0.5,0.5,1.1s0.1,2.8,0.1,2.8"/>
		<line class="st12" x1="27" y1="286.1" x2="27" y2="288.8"/>
		<path class="st12" d="M25.8,281.2c0,0,1.1,2.5,0.2,4.8"/>
		<line class="st12" x1="8.5" y1="309.8" x2="8.7" y2="313.6"/>
		<line class="st12" x1="6" y1="319.4" x2="6.1" y2="324.8"/>
		<path class="st12" d="M24.7,274.2v-1.7l2.2-3.7c0,0,0.2-0.3,1-0.1s0.4,1.2,0.4,1.2l-1.5,2.3c0,0-0.5,0.7-1.2,0.6
			c-0.4-0.1-0.2,0.8-0.2,0.8"/>
	</g>
	<g>
		<g>
			<path class="st13" d="M201.7,332.6l0.4,23.4c0,0-0.2,1.2-1.5,1.4c-1.2,0.1-3.3,0.3-5.8-0.3s-13.9-4.1-14.6-16.5
				c0,0-1.1-8.8,11.9-14c0,0,3-0.7,6.1-0.1c3.1,0.6,3.8,0.6,3.8,0.6s1.4,0,1.9,1.6l0.6,23.8l-2.2,3.9"/>
			<path class="st13" d="M197,354.8c-3.3,2-9-1.7-12.1-5.2c-3.1-3.5-4.5-11.1-0.8-15.2c0.1-0.2,0.3-0.3,0.4-0.4
				c3.8-3.6,10-3.3,10-3.3s4.6,0.7,5.4,0.7s1.1,1.2,1.1,1.2l0.3,17.1c0,0-0.4,2.8-0.9,4c-0.4,1.1-0.8,2-1.8,0.9
				c-1-1.1-0.4-11-0.4-11s1.1-5.8,2.5-4.9l-0.1-0.4c0,0-1-1.2-1.9-0.3s-2.1,5.7-2.1,7.2c0,1.5,0.2,8.1,0.2,8.1s0.4,3.7,2.7,2"/>
			<path class="st13" d="M196.8,351.5c0,0-5.2-0.3-9.8-5.9c-4.6-5.6-2.5-11.6-2.5-11.6"/>
			<path class="st13" d="M220.3,318.8"/>
			<path class="st13" d="M204.4,346.8"/>
			<polyline class="st13" points="220.3,320.8 224,314.3 224.3,313.8 			"/>
			
				<ellipse transform="matrix(0.9937 0.1122 -0.1122 0.9937 36.5747 -21.7403)" class="st13" cx="211.5" cy="314.1" rx="0.7" ry="2.1"/>
			
				<ellipse transform="matrix(0.9937 0.1122 -0.1122 0.9937 37.8035 -21.6776)" class="st13" cx="211.5" cy="325.1" rx="0.7" ry="2.1"/>
		</g>
	</g>
	<path class="st13" d="M201.9,327l6.1-11.6l0.9-4.6c0,0,0.3-1.4,1.1-3s7.6-14.7,7.6-14.7l0.4,0.2l0.2,25.3l-7.4,14.1
		c0,0-0.4,1.4-2.2,0.8l-4.3,8.7"/>
	<path class="st13" d="M217.9,303.6c0,0-0.8,0.3-1.1-0.4l-2.5,4.9c0,0,0.2,4.1-0.4,4.7v3.9c0,0,0.5,0.4,0.4,2.4l1.3,0.1l2.5-3.9"/>
	<path class="st13" d="M199.9,331.4c0,0-3.4,5.2-3.1,11.1"/>
	<ellipse class="st14" cx="164.7" cy="271.9" rx="2.4" ry="1.2"/>
	<ellipse class="st14" cx="207.1" cy="277.2" rx="2.4" ry="1.2"/>
	<polyline class="st14" points="90.8,134.3 88.9,137.8 89.3,145.5 	"/>
	<polyline class="st14" points="105.7,148 105.8,139.8 108.6,135.2 	"/>
	<path class="st5" d="M142.2,302l-3.2-0.4c-0.7,0-1.3-0.6-1.3-1.3v-0.1c0-0.7,0.6-1.3,1.3-1.3l3.2,0.4c0.7,0,1.3,0.6,1.3,1.3v0.1
		C143.5,301.5,142.9,302,142.2,302z"/>
	<polyline class="st2" points="225.1,105.6 228.8,106 230.3,98.8 229.4,96.9 228.6,98.1 226.9,97.1 	"/>
	<path class="st2" d="M228.8,106c0,0,0.4-1.6-1.5-1.2l1.4-7.1"/>
	<polyline class="st2" points="110.1,35.6 108.8,33.1 108.3,32.8 109.2,28.5 109.9,28.4 110.1,27.4 111.7,27.4 	"/>
	<polyline class="st2" points="229.9,79.7 228.7,77.8 226.9,86.8 227.6,90.1 	"/>
	<line class="st14" x1="105.8" y1="139.8" x2="88.9" y2="137.8"/>
	<g>
		<defs>
			<polygon id="SVGID_1_" points="129.2,194.2 129.2,184.1 127.9,183 127,180.1 132.9,168.1 141.4,163.1 203.2,171.5 204.5,173.5 
				191.3,199.7 155.3,194.7 157,192.2 140,190.1 138.6,193.5 130.5,192.5 			"/>
		</defs>
		<clipPath id="SVGID_2_">
			<use xlink:href="#SVGID_1_"  style="overflow:visible;"/>
		</clipPath>
		<g class="st15">
			<g>
				<path class="st16" d="M138.4,174.7l-1-0.2c-0.2,0-0.2,0.5-0.2,0.5l0,6.1l1.3,0.2L138.4,174.7z"/>
				<path class="st16" d="M137.9,175.8l-1-0.2c-0.2,0-0.2,0.5-0.2,0.5l0,6.1l1.3,0.2L137.9,175.8z"/>
				<path class="st16" d="M137.1,177.1l-1-0.2c-0.2,0-0.2,0.5-0.2,0.5l0,6.1l1.3,0.2L137.1,177.1z"/>
				<path class="st16" d="M136.6,178.2l-1-0.2c-0.2,0-0.2,0.5-0.2,0.5l0,6.1l1.3,0.2L136.6,178.2z"/>
				<path class="st16" d="M136.1,179.5l-1-0.2c-0.2,0-0.2,0.5-0.2,0.5l0,6.1l1.3,0.2L136.1,179.5z"/>
			</g>
			<g>
				<path class="st16" d="M142.5,166.4l-1-0.2c-0.2,0-0.2,0.5-0.2,0.5l0,6.1l1.3,0.2L142.5,166.4z"/>
				<path class="st16" d="M142,167.5l-1-0.2c-0.2,0-0.2,0.5-0.2,0.5l0,6.1l1.3,0.2L142,167.5z"/>
				<path class="st16" d="M141.2,168.8l-1-0.2c-0.2,0-0.2,0.5-0.2,0.5l0,6.1l1.3,0.2L141.2,168.8z"/>
				<path class="st16" d="M140.7,169.9l-1-0.2c-0.2,0-0.2,0.5-0.2,0.5l0,6.1l1.3,0.2L140.7,169.9z"/>
				<path class="st16" d="M140.2,171.2l-1-0.2c-0.2,0-0.2,0.5-0.2,0.5l0,6.1l1.3,0.2L140.2,171.2z"/>
			</g>
			<g>
				<polyline class="st17" points="145.1,178.6 145,179 146.8,179.2 147.2,178.7 				"/>
				<g>
					<path class="st17" d="M149.7,166.1l-1.4-0.2c-0.2,0-0.3,0.5-0.3,0.5l0,6.1l1.8,0.2L149.7,166.1z"/>
					<path class="st17" d="M149.1,167.4l-1.4-0.2c-0.2,0-0.3,0.5-0.3,0.5l0,6.1l1.8,0.2L149.1,167.4z"/>
					<path class="st17" d="M148.5,168.6l-1.4-0.2c-0.2,0-0.3,0.5-0.3,0.5l0,6.1l1.8,0.2L148.5,168.6z"/>
					<path class="st17" d="M147.9,169.7l-1.4-0.2c-0.2,0-0.3,0.5-0.3,0.5l0,6.1l1.8,0.2L147.9,169.7z"/>
					<path class="st17" d="M147.4,170.9l-1.4-0.2c-0.2,0-0.3,0.5-0.3,0.5l0,6.1l1.8,0.2L147.4,170.9z"/>
					<path class="st17" d="M146.9,172.1l-1.4-0.2c-0.2,0-0.3,0.5-0.3,0.5l0,6.1l1.8,0.2L146.9,172.1z"/>
					<path class="st17" d="M174.3,169.2l-1.4-0.2c-0.2,0-0.3,0.5-0.3,0.5l0,6.1l1.8,0.2L174.3,169.2z"/>
					<path class="st17" d="M173.7,170.5l-1.4-0.2c-0.2,0-0.3,0.5-0.3,0.5l0,6.1l1.8,0.2L173.7,170.5z"/>
					<path class="st17" d="M173.1,171.6l-1.4-0.2c-0.2,0-0.3,0.5-0.3,0.5l0,6.1l1.8,0.2L173.1,171.6z"/>
					<path class="st17" d="M172.5,172.8l-1.4-0.2c-0.2,0-0.3,0.5-0.3,0.5l0,6.1l1.8,0.2L172.5,172.8z"/>
					<path class="st17" d="M172,174l-1.4-0.2c-0.2,0-0.3,0.5-0.3,0.5l0,6.1l1.8,0.2L172,174z"/>
					<path class="st17" d="M171.5,175.2L170,175c-0.2,0-0.3,0.5-0.3,0.5l0,6.1l1.8,0.2L171.5,175.2z"/>
					<path class="st17" d="M177.7,169.7l-1.4-0.2c-0.2,0-0.3,0.5-0.3,0.5l0,6.1l1.8,0.2L177.7,169.7z"/>
					<path class="st17" d="M177.2,171l-1.4-0.2c-0.2,0-0.3,0.5-0.3,0.5l0,6.1l1.8,0.2L177.2,171z"/>
					<path class="st17" d="M176.6,172.1l-1.4-0.2c-0.2,0-0.3,0.5-0.3,0.5l0,6.1l1.8,0.2L176.6,172.1z"/>
					<path class="st17" d="M176,173.3l-1.4-0.2c-0.2,0-0.3,0.5-0.3,0.5l0,6.1l1.8,0.2L176,173.3z"/>
					<path class="st17" d="M175.5,174.5l-1.4-0.2c-0.2,0-0.3,0.5-0.3,0.5l0,6.1l1.8,0.2L175.5,174.5z"/>
					<path class="st17" d="M174.9,175.7l-1.4-0.2c-0.2,0-0.3,0.5-0.3,0.5l0,6.1l1.8,0.2L174.9,175.7z"/>
					<path class="st17" d="M181.2,170.2l-1.4-0.2c-0.2,0-0.3,0.5-0.3,0.5l0,6.1l1.8,0.2L181.2,170.2z"/>
					<path class="st17" d="M180.6,171.5l-1.4-0.2c-0.2,0-0.3,0.5-0.3,0.5l0,6.1l1.8,0.2L180.6,171.5z"/>
					<path class="st17" d="M180.1,172.6l-1.4-0.2c-0.2,0-0.3,0.5-0.3,0.5l0,6.1l1.8,0.2L180.1,172.6z"/>
					<path class="st17" d="M179.5,173.8l-1.4-0.2c-0.2,0-0.3,0.5-0.3,0.5l0,6.1l1.8,0.2L179.5,173.8z"/>
					<path class="st17" d="M178.9,175l-1.4-0.2c-0.2,0-0.3,0.5-0.3,0.5l0,6.1l1.8,0.2L178.9,175z"/>
					<path class="st17" d="M178.4,176.2L177,176c-0.2,0-0.3,0.5-0.3,0.5l0,6.1l1.8,0.2L178.4,176.2z"/>
					<path class="st17" d="M184.7,170.7l-1.4-0.2c-0.2,0-0.3,0.5-0.3,0.5l0,6.1l1.8,0.2L184.7,170.7z"/>
					<path class="st17" d="M184.1,172l-1.4-0.2c-0.2,0-0.3,0.5-0.3,0.5l0,6.1l1.8,0.2L184.1,172z"/>
					<path class="st17" d="M183.5,173.1l-1.4-0.2c-0.2,0-0.3,0.5-0.3,0.5l0,6.1l1.8,0.2L183.5,173.1z"/>
					<path class="st17" d="M182.9,174.3l-1.4-0.2c-0.2,0-0.3,0.5-0.3,0.5l0,6.1l1.8,0.2L182.9,174.3z"/>
					<path class="st17" d="M182.4,175.5l-1.4-0.2c-0.2,0-0.3,0.5-0.3,0.5l0,6.1l1.8,0.2L182.4,175.5z"/>
					<path class="st17" d="M181.9,176.7l-1.4-0.2c-0.2,0-0.3,0.5-0.3,0.5l0,6.1l1.8,0.2L181.9,176.7z"/>
					<path class="st17" d="M188.2,171.2l-1.4-0.2c-0.2,0-0.3,0.5-0.3,0.5l0,6.1l1.8,0.2L188.2,171.2z"/>
					<path class="st17" d="M187.6,172.5l-1.4-0.2c-0.2,0-0.3,0.5-0.3,0.5l0,6.1l1.8,0.2L187.6,172.5z"/>
					<path class="st17" d="M187,173.6l-1.4-0.2c-0.2,0-0.3,0.5-0.3,0.5l0,6.1l1.8,0.2L187,173.6z"/>
					<path class="st17" d="M186.4,174.8l-1.4-0.2c-0.2,0-0.3,0.5-0.3,0.5l0,6.1l1.8,0.2L186.4,174.8z"/>
					<path class="st17" d="M185.9,176l-1.4-0.2c-0.2,0-0.3,0.5-0.3,0.5l0,6.1l1.8,0.2L185.9,176z"/>
					<path class="st17" d="M185.4,177.2l-1.4-0.2c-0.2,0-0.3,0.5-0.3,0.5l0,6.1l1.8,0.2L185.4,177.2z"/>
					<path class="st17" d="M191.6,171.7l-1.4-0.2c-0.2,0-0.3,0.5-0.3,0.5l0,6.1l1.8,0.2L191.6,171.7z"/>
					<path class="st17" d="M191.1,173l-1.4-0.2c-0.2,0-0.3,0.5-0.3,0.5l0,6.1l1.8,0.2L191.1,173z"/>
					<path class="st17" d="M190.5,174.1l-1.4-0.2c-0.2,0-0.3,0.5-0.3,0.5l0,6.1l1.8,0.2L190.5,174.1z"/>
					<path class="st17" d="M189.9,175.3l-1.4-0.2c-0.2,0-0.3,0.5-0.3,0.5l0,6.1l1.8,0.2L189.9,175.3z"/>
					<path class="st17" d="M189.4,176.5l-1.4-0.2c-0.2,0-0.3,0.5-0.3,0.5l0,6.1l1.8,0.2L189.4,176.5z"/>
					<path class="st17" d="M188.8,177.7l-1.4-0.2c-0.2,0-0.3,0.5-0.3,0.5l0,6.1l1.8,0.2L188.8,177.7z"/>
					<path class="st17" d="M195.1,172.2l-1.4-0.2c-0.2,0-0.3,0.5-0.3,0.5l0,6.1l1.8,0.2L195.1,172.2z"/>
					<path class="st17" d="M194.5,173.5l-1.4-0.2c-0.2,0-0.3,0.5-0.3,0.5l0,6.1l1.8,0.2L194.5,173.5z"/>
					<path class="st17" d="M194,174.6l-1.4-0.2c-0.2,0-0.3,0.5-0.3,0.5l0,6.1l1.8,0.2L194,174.6z"/>
					<path class="st17" d="M193.4,175.8l-1.4-0.2c-0.2,0-0.3,0.5-0.3,0.5l0,6.1l1.8,0.2L193.4,175.8z"/>
					<path class="st17" d="M192.8,177l-1.4-0.2c-0.2,0-0.3,0.5-0.3,0.5l0,6.1l1.8,0.2L192.8,177z"/>
					<path class="st17" d="M192.3,178.2l-1.4-0.2c-0.2,0-0.3,0.5-0.3,0.5l0,6.1l1.8,0.2L192.3,178.2z"/>
					<polyline class="st17" points="149.2,177.9 149.1,178.2 150.9,178.5 151.2,177.9 					"/>
					<path class="st17" d="M152.6,167.8l-1.4-0.2c-0.2,0-0.3,0.5-0.3,0.5l0,6.1l1.8,0.2L152.6,167.8z"/>
					<path class="st17" d="M152,168.9l-1.4-0.2c-0.2,0-0.3,0.5-0.3,0.5l0,6.1l1.8,0.2L152,168.9z"/>
					<path class="st17" d="M151.5,170.1l-1.4-0.2c-0.2,0-0.3,0.5-0.3,0.5l0,6.1l1.8,0.2L151.5,170.1z"/>
					<path class="st17" d="M151,171.3l-1.4-0.2c-0.2,0-0.3,0.5-0.3,0.5l0,6.1l1.8,0.2L151,171.3z"/>
					<polyline class="st17" points="152.6,178.4 152.5,178.8 154.3,179 154.7,178.5 					"/>
					<path class="st17" d="M156,168.3l-1.4-0.2c-0.2,0-0.3,0.5-0.3,0.5l0,6.1l1.8,0.2L156,168.3z"/>
					<path class="st17" d="M155.4,169.5l-1.4-0.2c-0.2,0-0.3,0.5-0.3,0.5l0,6.1l1.8,0.2L155.4,169.5z"/>
					<path class="st17" d="M154.9,170.7l-1.4-0.2c-0.2,0-0.3,0.5-0.3,0.5l0,6.1l1.8,0.2L154.9,170.7z"/>
					<path class="st17" d="M154.4,171.9l-1.4-0.2c-0.2,0-0.3,0.5-0.3,0.5l0,6.1l1.8,0.2L154.4,171.9z"/>
					<polyline class="st17" points="156,179 155.9,179.3 157.8,179.6 158.1,179 					"/>
					<path class="st17" d="M159.5,168.9l-1.4-0.2c-0.2,0-0.3,0.5-0.3,0.5l0,6.1l1.8,0.2L159.5,168.9z"/>
					<path class="st17" d="M158.9,170l-1.4-0.2c-0.2,0-0.3,0.5-0.3,0.5l0,6.1l1.8,0.2L158.9,170z"/>
					<path class="st17" d="M158.3,171.2l-1.4-0.2c-0.2,0-0.3,0.5-0.3,0.5l0,6.1l1.8,0.2L158.3,171.2z"/>
					<path class="st17" d="M157.8,172.4l-1.4-0.2c-0.2,0-0.3,0.5-0.3,0.5l0,6.1l1.8,0.2L157.8,172.4z"/>
					<polyline class="st17" points="159.4,179.5 159.3,179.9 161.2,180.1 161.5,179.5 					"/>
					<path class="st17" d="M162.9,169.4l-1.4-0.2c-0.2,0-0.3,0.5-0.3,0.5l0,6.1l1.8,0.2L162.9,169.4z"/>
					<path class="st17" d="M162.3,170.6l-1.4-0.2c-0.2,0-0.3,0.5-0.3,0.5l0,6.1l1.8,0.2L162.3,170.6z"/>
					<path class="st17" d="M161.8,171.8l-1.4-0.2c-0.2,0-0.3,0.5-0.3,0.5l0,6.1l1.8,0.2L161.8,171.8z"/>
					<path class="st17" d="M161.2,173l-1.4-0.2c-0.2,0-0.3,0.5-0.3,0.5l0,6.1l1.8,0.2L161.2,173z"/>
					<polyline class="st17" points="162.5,180.9 162.4,181.3 164.3,181.5 164.6,180.9 					"/>
					<path class="st17" d="M167.1,168.4l-1.4-0.2c-0.2,0-0.3,0.5-0.3,0.5l0,6.1l1.8,0.2L167.1,168.4z"/>
					<path class="st17" d="M166.5,169.7l-1.4-0.2c-0.2,0-0.3,0.5-0.3,0.5l0,6.1l1.8,0.2L166.5,169.7z"/>
					<path class="st17" d="M166,170.8l-1.4-0.2c-0.2,0-0.3,0.5-0.3,0.5l0,6.1l1.8,0.2L166,170.8z"/>
					<path class="st17" d="M165.4,172l-1.4-0.2c-0.2,0-0.3,0.5-0.3,0.5l0,6.1l1.8,0.2L165.4,172z"/>
					<path class="st17" d="M164.8,173.2l-1.4-0.2c-0.2,0-0.3,0.5-0.3,0.5l0,6.1l1.8,0.2L164.8,173.2z"/>
					<path class="st17" d="M164.3,174.4l-1.4-0.2c-0.2,0-0.3,0.5-0.3,0.5l0,6.1l1.8,0.2L164.3,174.4z"/>
				</g>
			</g>
			<g>
				<g>
					<polyline class="st17" points="198.4,184.2 198.3,184.5 200.1,184.8 200.5,184.2 					"/>
				</g>
			</g>
			<g>
				<g>
					<g>
						<polyline class="st18" points="134.7,186 134.6,186.3 135.6,186.5 135.8,186 						"/>
					</g>
				</g>
			</g>
			<path class="st17" d="M141,182.3l-1.5-0.2l1.2-6.8c0,0,0-0.2,0.3-0.1c0.3,0,2.2,0.3,2.2,0.3l0.2,0.3"/>
			<line class="st19" x1="143" y1="176.5" x2="143.2" y2="175.5"/>
			<g>
				<path class="st17" d="M141.1,175l0-0.3c0,0-0.1-0.5,0.2-0.5l2.2,0.3l0.3,0.5"/>
				<path class="st17" d="M143.6,175.3l0-0.4c0,0,0-0.2,0.1-0.3"/>
			</g>
			<g>
				<path class="st19" d="M145.2,174l-1.5-0.2l1.2-6.7c0,0,0-0.4,0.2-0.4c0.2,0,2.3,0.3,2.3,0.3l0.2,0.4"/>
				<path class="st19" d="M147.1,168.5l0.2-1c0,0,0-0.2,0.1-0.2"/>
			</g>
			<path class="st19" d="M169.7,177.2l-1.5-0.2l1.2-6.7c0,0,0-0.4,0.2-0.4c0.2,0,2.3,0.3,2.3,0.3l0.2,0.4"/>
			<path class="st19" d="M137,184.9c0,0-1.1-0.1-1.2,1.1c0,0,0.1,0.7-0.5,0.8l-0.6-0.1c0,0-0.3-0.1-0.3,0.5l0.1,3.5
				c0,0,0.1,0.1,0.1,0.3l2.4,0.3l-0.1-0.4l0-0.8c0,0,0.1-0.3,0.5-0.3c0.3,0,24.4,3.1,24.4,3.1s0.5-0.1,0.5,0.6
				c0,0.6-0.1,0.9,0.3,1.1c0.4,0.2,4.3,0.6,4.3,0.6s-0.1-0.4-0.1-0.6s0-0.5,0-0.5s0-0.4,0.5-0.4c0.5,0,24.4,3.2,24.4,3.2
				s0.4,0,0.4,0.6s-0.2,0.8,0.3,0.9c0.4,0.2,3.2,0.4,3.2,0.4l0.3-0.2l0-3.3c0,0,0-0.9-1.3-1.2l-1-0.1c0,0-0.4,0-0.3-0.6
				c0-0.6,0.1-1.2-1.3-1.7"/>
			<line class="st19" x1="192.1" y1="197.9" x2="166.9" y2="194.6"/>
			<line class="st19" x1="192.2" y1="198.1" x2="195.8" y2="198.6"/>
			<line class="st19" x1="162.2" y1="194" x2="137" y2="190.7"/>
			<polyline class="st19" points="137,191.4 137.3,191.2 137.4,191 137.4,189.9 			"/>
			<g>
				<polygon class="st18" points="139.4,186.1 137,185.7 137,182.9 139.4,183.3 				"/>
				<polyline class="st17" points="137,182.9 137.1,182.5 139.5,182.8 139.4,183.3 				"/>
				<polyline class="st17" points="139.5,182.8 140.7,185.2 139.4,185 				"/>
				<polygon class="st17" points="139.8,187.7 136.6,187.2 136.6,185.8 139.8,186.3 				"/>
			</g>
			<line class="st20" x1="134.5" y1="190.6" x2="136.9" y2="190.9"/>
			<g>
				<path class="st17" d="M193.6,181.8l0-0.3c0,0-0.1-0.5,0.2-0.5l2.2,0.3l0.3,0.5"/>
				<path class="st19" d="M196.1,182.1l0-0.4c0,0,0-0.2,0.1-0.3"/>
			</g>
			<g>
				<path class="st19" d="M198.3,180.9l-2.2-0.3l1.2-6.7c0,0,0-0.4,0.2-0.4c0.2,0,2.3,0.3,2.3,0.3l0.2,0.4"/>
				<path class="st19" d="M199.6,175.3l0.2-1c0,0,0-0.2,0.1-0.2"/>
			</g>
			<g>
				<path class="st17" d="M194.1,189.2l-2.1-0.3l1.2-6.8c0,0,0-0.2,0.3-0.1c0.3,0,2.2,0.3,2.2,0.3l0.2,0.3"/>
				<path class="st17" d="M195.5,183.4l0-0.6c0,0,0-0.3,0.2-0.4"/>
			</g>
			<g>
				<g>
					<polyline class="st17" points="194.2,192.5 194.1,192.8 195.9,193.1 196.3,192.5 					"/>
				</g>
			</g>
			<g>
				<polygon class="st18" points="163.8,189.3 161.5,188.9 161.5,186.1 163.8,186.5 				"/>
				<polyline class="st17" points="161.5,186.1 161.6,185.7 163.9,186 163.8,186.5 				"/>
				<polyline class="st19" points="163.9,186 165.1,188.4 163.9,188.2 				"/>
				<polygon class="st19" points="164.2,190.9 161.1,190.4 161.1,189 164.2,189.5 				"/>
			</g>
			<g>
				<path class="st17" d="M165.5,185.5l-1.5-0.2l1.2-6.8c0,0,0-0.2,0.3-0.1c0.3,0,2.2,0.3,2.2,0.3l0.2,0.3"/>
				<path class="st17" d="M167.5,179.8l0-0.6c0,0,0-0.3,0.2-0.4"/>
			</g>
			<g>
				<path class="st17" d="M165.6,178.2l0-0.3c0,0-0.1-0.5,0.2-0.5l2.2,0.3l0.3,0.5"/>
				<path class="st19" d="M168.1,178.5l0-0.4c0,0,0-0.2,0.1-0.3"/>
			</g>
			<g>
				<g>
					<g>
						<polyline class="st17" points="165.6,190 165.5,190.4 167.3,190.6 167.7,190.1 						"/>
					</g>
				</g>
				<g>
					<g>
						<polyline class="st17" points="169,190.5 168.9,190.9 170.8,191.1 171.1,190.5 						"/>
					</g>
				</g>
				<g>
					<g>
						<polyline class="st17" points="172.5,191 172.4,191.3 174.2,191.6 174.6,191 						"/>
					</g>
				</g>
				<g>
					<g>
						<polyline class="st17" points="175.9,191.5 175.8,191.8 177.7,192 178,191.5 						"/>
					</g>
				</g>
				<g>
					<g>
						<polyline class="st17" points="179.4,191.9 179.3,192.3 181.1,192.5 181.4,192 						"/>
					</g>
				</g>
				<g>
					<g>
						<polyline class="st17" points="183,192.4 182.9,192.7 184.7,193 185.1,192.4 						"/>
					</g>
				</g>
				<g>
					<g>
						<polyline class="st17" points="186.5,192.9 186.4,193.2 188.2,193.5 188.5,192.9 						"/>
					</g>
				</g>
			</g>
			<g>
				<polygon class="st18" points="191.8,192.8 189.5,192.4 189.5,189.7 191.9,190 				"/>
				<polyline class="st17" points="189.5,189.7 189.6,189.2 191.9,189.5 191.9,190 				"/>
				<polyline class="st19" points="191.9,189.5 193.2,191.9 191.9,191.7 				"/>
				<polygon class="st19" points="192.2,194.4 189.1,193.9 189.1,192.5 192.3,193 				"/>
			</g>
			<path class="st19" d="M202.9,179.3l1.1,0.1c0,0,0.8,0,0.7,0.9l0,1.1l-3,5.8c0,0-0.1,0.6-0.9,0.7l-2-0.4"/>
			<line class="st19" x1="195.2" y1="178.3" x2="196.6" y2="178.5"/>
			<path class="st19" d="M198.7,185.9l2,0.3c0,0,0.7,0,0.9-0.4c0.2-0.4,3-5.9,3-5.9"/>
			<path class="st19" d="M200.4,187.9l0,1.9l-3.1,6.1c0,0-0.2,0.5-1.4,0.2"/>
			<path class="st19" d="M194.8,194.3l1.7,0.2c0,0,0.7,0.2,1-0.4c0.4-0.7,3-5.9,3-5.9"/>
			<line class="st19" x1="201" y1="186.3" x2="201" y2="187.8"/>
			<path class="st19" d="M163.9,188.4c0,0,1.5,0,1.4,1.7c0,0-0.1,0.9,0.9,1c1.2,0.1,21.8,2.8,21.8,2.8s0.5,0,0.6-0.5"/>
			<path class="st19" d="M139.3,185.2c0,0,1.5,0,1.4,1.7c0,0-0.1,0.9,0.9,1c1.2,0.1,18.1,2.3,18.1,2.3s0.5,0,0.6-0.5"/>
			<path class="st19" d="M168.9,172.7c0,0-0.6,0-0.8,0.6c-0.2,0.6,0.2,1.2-0.3,1.5l-0.5,0.1"/>
			<path class="st19" d="M144.4,169.5c0,0-0.6,0-0.8,0.6c-0.2,0.6,0.2,1.2-0.3,1.5l-0.4-0.1"/>
			<line class="st18" x1="196.9" y1="194.5" x2="197" y2="196.1"/>
			<polygon class="st18" points="205.9,181.6 208.8,182 205.4,188.7 202.6,188.4 			"/>
			<polygon class="st18" points="201.8,189.9 204.6,190.2 201.2,197 198.4,196.6 			"/>
			<polyline class="st21" points="197.6,197.7 197.6,201.1 201.2,201.5 204.6,194.8 204.6,190.2 			"/>
			<line class="st21" x1="201.2" y1="197" x2="201.2" y2="201.5"/>
			<polyline class="st21" points="204.7,193.2 205.4,193.3 208.8,186.4 208.8,182 			"/>
			<line class="st21" x1="205.4" y1="188.7" x2="205.3" y2="193.1"/>
			<polyline class="st21" points="200.5,189.1 201.4,189.2 201.8,189.1 201.8,188.7 202.6,188.4 202.5,189.9 			"/>
			<polyline class="st21" points="198.4,196.6 197.6,197 197.6,197.5 197.2,197.5 196,197.4 			"/>
			<polyline class="st21" points="196,196.9 197.2,197.1 197.6,197 			"/>
			<polyline class="st21" points="200.5,188.7 201.4,188.9 201.8,188.7 			"/>
			<path class="st19" d="M195.9,198.8c0,0,1.1,0.4,1.7-0.4"/>
			<path class="st19" d="M196,198.3c0,0,1,0.5,1.6-0.4"/>
			<path class="st19" d="M204.4,182l0.4,0c0,0,0.2,0,0.2,0.4l0.5,0.1"/>
			<path class="st19" d="M200.1,187.7c0,0,0.1-1.5-1.4-1.6"/>
			<line class="st19" x1="139.9" y1="180" x2="138.5" y2="179.8"/>
			<path class="st19" d="M134.5,191l-1.2,2.4c0,0-2.1-0.1-2.1-0.7l0.1-4.7l0.8-1.6l0.6,0l0.3,0.5l-0.7,1.3"/>
			<path class="st19" d="M132.7,186.6l-0.8,1.6l1.6,0.3l-0.2,0.3l-1.4-0.2c0,0-0.6-0.1-0.5-0.5"/>
			<line class="st19" x1="132" y1="193.3" x2="132" y2="188.6"/>
			<polyline class="st19" points="133.2,188.7 133.3,191.6 133.6,191.6 133.6,192.4 133.3,192.7 133.3,193.3 			"/>
			<polyline class="st19" points="133.4,191.5 133.6,191 133.5,188.4 			"/>
			<path class="st19" d="M131.2,191.6c0,0-1.3-0.4-1.3-0.8c0,0,0,0,0,0.6c0,0.6,1.3,1,1.3,1"/>
			<polyline class="st19" points="131.3,191 128.4,190.6 128.4,188.5 129.1,188.5 129.2,184.7 132.8,185.2 133,185.5 			"/>
			<path class="st19" d="M134.6,186.4l-1.4-0.2c0,0-0.7,0.1-0.2-0.8l0.9-1.6"/>
			<line class="st19" x1="128.4" y1="188.5" x2="129.1" y2="187"/>
			<path class="st19" d="M134.4,187l-1.1-0.2l-0.2,0c0,0-0.5-0.2-0.3-0.8"/>
			<line class="st19" x1="133.3" y1="186.2" x2="133.3" y2="186.8"/>
			<path class="st19" d="M128.6,180.3c0,0,0.5-1,2.7-0.1l1.4,0.7c0,0,1.5,1,1.2,1.9s-2.4,0.4-2.4,0.4l-2-1
				C129.6,182.3,128,181.4,128.6,180.3z"/>
			<path class="st19" d="M128.6,180.5l-0.6,1c0,0-0.1,0.9,0.8,1.5c0.9,0.5,0.9,0.7,0.9,0.7"/>
			<polyline class="st19" points="130.2,182.7 128.8,185.6 129.2,186 			"/>
			<path class="st19" d="M129.9,183.4l1.3,0.6c0,0,2.2,0.8,2.7-1"/>
			<path class="st19" d="M134.2,175.2l1.3,0.6c0,0,0.5,0.2,1,0.2"/>
			<line class="st19" x1="133.2" y1="181.3" x2="134.7" y2="181.5"/>
			<polyline class="st19" points="132.6,180.8 132.6,180.2 133.3,178.8 			"/>
			<polyline class="st19" points="132.7,180.2 133.3,180.2 133.4,177.7 133.4,176.5 136,176.8 			"/>
			<polyline class="st19" points="134.3,174.5 133,177.2 133.4,177.7 			"/>
			<polygon points="130.1,180.5 130.5,180.6 129.9,181.7 129.6,181.4 			"/>
			<polygon points="130.9,180.9 131.3,181 130.7,182 130.4,181.7 			"/>
			<polygon points="131.7,181.3 132.1,181.4 131.4,182.5 131.2,182.1 			"/>
			<polygon points="132.4,181.6 132.8,181.7 132.1,182.8 131.9,182.5 			"/>
			<path class="st19" d="M136.9,175.2c-0.6,0-1.3-0.2-1.3-0.2l-2-1c0,0-1.5-0.9-0.9-2c0,0,0.5-1,2.7-0.1l1.4,0.7
				c0,0,1.3,0.9,1.2,1.8"/>
			<path class="st19" d="M132.7,172.1l-0.6,1c0,0-0.1,0.9,0.8,1.5c0.9,0.5,0.9,0.7,0.9,0.7"/>
			<polygon points="134.3,172.2 134.7,172.3 134,173.4 133.8,173 			"/>
			<polygon points="135.1,172.5 135.4,172.6 134.8,173.7 134.6,173.4 			"/>
			<polygon points="135.8,173 136.2,173.1 135.6,174.1 135.3,173.8 			"/>
			<polygon points="136.5,173.3 136.9,173.4 136.3,174.5 136,174.1 			"/>
			<line class="st19" x1="138.9" y1="173.2" x2="137.3" y2="173"/>
			<line class="st19" x1="130.7" y1="183.7" x2="131" y2="183"/>
			<line class="st19" x1="134.8" y1="175.5" x2="135.2" y2="174.8"/>
			<g>
				<g>
					<g>
					</g>
					<g>
					</g>
					<g>
					</g>
					<g>
					</g>
					<g>
					</g>
					<g>
						<path class="st17" d="M142.9,180.8"/>
						<polyline class="st17" points="141.1,186.8 141,187.2 142.8,187.4 143.2,186.9 						"/>
						<g>
							<path class="st17" d="M145.7,174.3l-1.4-0.2c-0.2,0-0.3,0.5-0.3,0.5l0,6.1l1.8,0.2L145.7,174.3z"/>
							<path class="st17" d="M145.1,175.6l-1.4-0.2c-0.2,0-0.3,0.5-0.3,0.5l0,6.1l1.8,0.2L145.1,175.6z"/>
							<path class="st17" d="M144.5,176.8l-1.4-0.2c-0.2,0-0.3,0.5-0.3,0.5l0,6.1l1.8,0.2L144.5,176.8z"/>
							<path class="st17" d="M143.9,177.9l-1.4-0.2c-0.2,0-0.3,0.5-0.3,0.5l0,6.1l1.8,0.2L143.9,177.9z"/>
							<path class="st17" d="M143.4,179.1l-1.4-0.2c-0.2,0-0.3,0.5-0.3,0.5l0,6.1l1.8,0.2L143.4,179.1z"/>
							<path class="st17" d="M142.9,180.3l-1.4-0.2c-0.2,0-0.3,0.5-0.3,0.5l0,6.1l1.8,0.2L142.9,180.3z"/>
							<polyline class="st17" points="145.2,186.1 145.1,186.4 146.9,186.6 147.2,186.1 							"/>
							<path class="st17" d="M148.6,176l-1.4-0.2c-0.2,0-0.3,0.5-0.3,0.5l0,6.1l1.8,0.2L148.6,176z"/>
							<path class="st17" d="M148,177.1l-1.4-0.2c-0.2,0-0.3,0.5-0.3,0.5l0,6.1l1.8,0.2L148,177.1z"/>
							<path class="st17" d="M147.5,178.3l-1.4-0.2c-0.2,0-0.3,0.5-0.3,0.5l0,6.1l1.8,0.2L147.5,178.3z"/>
							<path class="st17" d="M147,179.5l-1.4-0.2c-0.2,0-0.3,0.5-0.3,0.5l0,6.1l1.8,0.2L147,179.5z"/>
							<polyline class="st17" points="148.6,186.6 148.5,187 150.3,187.2 150.7,186.6 							"/>
							<path class="st17" d="M152,176.5l-1.4-0.2c-0.2,0-0.3,0.5-0.3,0.5l0,6.1l1.8,0.2L152,176.5z"/>
							<path class="st17" d="M151.4,177.7l-1.4-0.2c-0.2,0-0.3,0.5-0.3,0.5l0,6.1l1.8,0.2L151.4,177.7z"/>
							<path class="st17" d="M150.9,178.9l-1.4-0.2c-0.2,0-0.3,0.5-0.3,0.5l0,6.1l1.8,0.2L150.9,178.9z"/>
							<path class="st17" d="M150.4,180.1l-1.4-0.2c-0.2,0-0.3,0.5-0.3,0.5l0,6.1l1.8,0.2L150.4,180.1z"/>
							<polyline class="st17" points="152,187.2 151.9,187.5 153.8,187.7 154.1,187.2 							"/>
							<path class="st17" d="M155.4,177.1l-1.4-0.2c-0.2,0-0.3,0.5-0.3,0.5l0,6.1l1.8,0.2L155.4,177.1z"/>
							<path class="st17" d="M154.9,178.2l-1.4-0.2c-0.2,0-0.3,0.5-0.3,0.5l0,6.1l1.8,0.2L154.9,178.2z"/>
							<path class="st17" d="M154.3,179.4l-1.4-0.2c-0.2,0-0.3,0.5-0.3,0.5l0,6.1l1.8,0.2L154.3,179.4z"/>
							<path class="st17" d="M153.8,180.6l-1.4-0.2c-0.2,0-0.3,0.5-0.3,0.5l0,6.1l1.8,0.2L153.8,180.6z"/>
							<polyline class="st17" points="155.4,187.7 155.3,188.1 157.2,188.3 157.5,187.7 							"/>
							<path class="st17" d="M158.9,177.6l-1.4-0.2c-0.2,0-0.3,0.5-0.3,0.5l0,6.1l1.8,0.2L158.9,177.6z"/>
							<path class="st17" d="M158.3,178.8l-1.4-0.2c-0.2,0-0.3,0.5-0.3,0.5l0,6.1l1.8,0.2L158.3,178.8z"/>
							<path class="st17" d="M157.8,180l-1.4-0.2c-0.2,0-0.3,0.5-0.3,0.5l0,6.1l1.8,0.2L157.8,180z"/>
							<path class="st17" d="M157.2,181.2l-1.4-0.2c-0.2,0-0.3,0.5-0.3,0.5l0,6.1l1.8,0.2L157.2,181.2z"/>
							<polyline class="st17" points="158.5,189.1 158.4,189.5 160.3,189.7 160.6,189.1 							"/>
							<path class="st17" d="M163.1,176.6l-1.4-0.2c-0.2,0-0.3,0.5-0.3,0.5l0,6.1l1.8,0.2L163.1,176.6z"/>
							<path class="st17" d="M162.5,177.9l-1.4-0.2c-0.2,0-0.3,0.5-0.3,0.5l0,6.1l1.8,0.2L162.5,177.9z"/>
							<path class="st17" d="M162,179l-1.4-0.2c-0.2,0-0.3,0.5-0.3,0.5l0,6.1l1.8,0.2L162,179z"/>
							<path class="st17" d="M161.4,180.1l-1.4-0.2c-0.2,0-0.3,0.5-0.3,0.5l0,6.1l1.8,0.2L161.4,180.1z"/>
							<path class="st17" d="M160.8,181.4l-1.4-0.2c-0.2,0-0.3,0.5-0.3,0.5l0,6.1l1.8,0.2L160.8,181.4z"/>
							<path class="st17" d="M160.3,182.6l-1.4-0.2c-0.2,0-0.3,0.5-0.3,0.5l0,6.1l1.8,0.2L160.3,182.6z"/>
						</g>
					</g>
				</g>
				<g>
					<g>
					</g>
					<g>
					</g>
					<g>
					</g>
					<g>
					</g>
				</g>
				<g>
					<g>
					</g>
				</g>
				<g>
					<g>
					</g>
				</g>
			</g>
			<g>
				<path class="st17" d="M170.3,177.5l-1.4-0.2c-0.2,0-0.3,0.5-0.3,0.5l0,6.1l1.8,0.2L170.3,177.5z"/>
				<path class="st17" d="M169.8,178.8l-1.4-0.2c-0.2,0-0.3,0.5-0.3,0.5l0,6.1l1.8,0.2L169.8,178.8z"/>
				<path class="st17" d="M169.2,179.9l-1.4-0.2c-0.2,0-0.3,0.5-0.3,0.5l0,6.1l1.8,0.2L169.2,179.9z"/>
				<path class="st17" d="M168.6,181.1l-1.4-0.2c-0.2,0-0.3,0.5-0.3,0.5l0,6.1l1.8,0.2L168.6,181.1z"/>
				<path class="st17" d="M168.1,182.3l-1.4-0.2c-0.2,0-0.3,0.5-0.3,0.5l0,6.1l1.8,0.2L168.1,182.3z"/>
				<path class="st17" d="M167.6,183.5l-1.4-0.2c-0.2,0-0.3,0.5-0.3,0.5l0,6.1l1.8,0.2L167.6,183.5z"/>
				<path class="st17" d="M173.8,178l-1.4-0.2c-0.2,0-0.3,0.5-0.3,0.5l0,6.1l1.8,0.2L173.8,178z"/>
				<path class="st17" d="M173.3,179.3l-1.4-0.2c-0.2,0-0.3,0.5-0.3,0.5l0,6.1l1.8,0.2L173.3,179.3z"/>
				<path class="st17" d="M172.7,180.4l-1.4-0.2c-0.2,0-0.3,0.5-0.3,0.5l0,6.1l1.8,0.2L172.7,180.4z"/>
				<path class="st17" d="M172.1,181.6l-1.4-0.2c-0.2,0-0.3,0.5-0.3,0.5l0,6.1l1.8,0.2L172.1,181.6z"/>
				<path class="st17" d="M171.6,182.8l-1.4-0.2c-0.2,0-0.3,0.5-0.3,0.5l0,6.1l1.8,0.2L171.6,182.8z"/>
				<path class="st17" d="M171,184l-1.4-0.2c-0.2,0-0.3,0.5-0.3,0.5l0,6.1l1.8,0.2L171,184z"/>
				<path class="st17" d="M177.3,178.5l-1.4-0.2c-0.2,0-0.3,0.5-0.3,0.5l0,6.1l1.8,0.2L177.3,178.5z"/>
				<path class="st17" d="M176.7,179.8l-1.4-0.2c-0.2,0-0.3,0.5-0.3,0.5l0,6.1l1.8,0.2L176.7,179.8z"/>
				<path class="st17" d="M176.1,180.9l-1.4-0.2c-0.2,0-0.3,0.5-0.3,0.5l0,6.1l1.8,0.2L176.1,180.9z"/>
				<path class="st17" d="M175.6,182.1l-1.4-0.2c-0.2,0-0.3,0.5-0.3,0.5l0,6.1l1.8,0.2L175.6,182.1z"/>
				<path class="st17" d="M175,183.3l-1.4-0.2c-0.2,0-0.3,0.5-0.3,0.5l0,6.1l1.8,0.2L175,183.3z"/>
				<path class="st17" d="M174.5,184.5l-1.4-0.2c-0.2,0-0.3,0.5-0.3,0.5l0,6.1l1.8,0.2L174.5,184.5z"/>
				<path class="st17" d="M180.8,179l-1.4-0.2c-0.2,0-0.3,0.5-0.3,0.5l0,6.1l1.8,0.2L180.8,179z"/>
				<path class="st17" d="M180.2,180.3l-1.4-0.2c-0.2,0-0.3,0.5-0.3,0.5l0,6.1l1.8,0.2L180.2,180.3z"/>
				<path class="st17" d="M179.6,181.4l-1.4-0.2c-0.2,0-0.3,0.5-0.3,0.5l0,6.1l1.8,0.2L179.6,181.4z"/>
				<path class="st17" d="M179,182.6l-1.4-0.2c-0.2,0-0.3,0.5-0.3,0.5l0,6.1l1.8,0.2L179,182.6z"/>
				<path class="st17" d="M178.5,183.8l-1.4-0.2c-0.2,0-0.3,0.5-0.3,0.5l0,6.1l1.8,0.2L178.5,183.8z"/>
				<path class="st17" d="M178,185l-1.4-0.2c-0.2,0-0.3,0.5-0.3,0.5l0,6.1l1.8,0.2L178,185z"/>
				<path class="st17" d="M184.3,179.5l-1.4-0.2c-0.2,0-0.3,0.5-0.3,0.5l0,6.1l1.8,0.2L184.3,179.5z"/>
				<path class="st17" d="M183.7,180.8l-1.4-0.2c-0.2,0-0.3,0.5-0.3,0.5l0,6.1l1.8,0.2L183.7,180.8z"/>
				<path class="st17" d="M183.1,181.9l-1.4-0.2c-0.2,0-0.3,0.5-0.3,0.5l0,6.1l1.8,0.2L183.1,181.9z"/>
				<path class="st17" d="M182.5,183.1l-1.4-0.2c-0.2,0-0.3,0.5-0.3,0.5l0,6.1l1.8,0.2L182.5,183.1z"/>
				<path class="st17" d="M182,184.3l-1.4-0.2c-0.2,0-0.3,0.5-0.3,0.5l0,6.1l1.8,0.2L182,184.3z"/>
				<path class="st17" d="M181.5,185.5l-1.4-0.2c-0.2,0-0.3,0.5-0.3,0.5l0,6.1l1.8,0.2L181.5,185.5z"/>
				<path class="st17" d="M187.7,180l-1.4-0.2c-0.2,0-0.3,0.5-0.3,0.5l0,6.1l1.8,0.2L187.7,180z"/>
				<path class="st17" d="M187.2,181.3l-1.4-0.2c-0.2,0-0.3,0.5-0.3,0.5l0,6.1l1.8,0.2L187.2,181.3z"/>
				<path class="st17" d="M186.6,182.4l-1.4-0.2c-0.2,0-0.3,0.5-0.3,0.5l0,6.1l1.8,0.2L186.6,182.4z"/>
				<path class="st17" d="M186,183.6l-1.4-0.2c-0.2,0-0.3,0.5-0.3,0.5l0,6.1l1.8,0.2L186,183.6z"/>
				<path class="st17" d="M185.5,184.8l-1.4-0.2c-0.2,0-0.3,0.5-0.3,0.5l0,6.1l1.8,0.2L185.5,184.8z"/>
				<path class="st17" d="M184.9,186l-1.4-0.2c-0.2,0-0.3,0.5-0.3,0.5l0,6.1l1.8,0.2L184.9,186z"/>
				<path class="st17" d="M191.2,180.5l-1.4-0.2c-0.2,0-0.3,0.5-0.3,0.5l0,6.1l1.8,0.2L191.2,180.5z"/>
				<path class="st17" d="M190.6,181.8l-1.4-0.2c-0.2,0-0.3,0.5-0.3,0.5l0,6.1l1.8,0.2L190.6,181.8z"/>
				<path class="st17" d="M190.1,182.9l-1.4-0.2c-0.2,0-0.3,0.5-0.3,0.5l0,6.1l1.8,0.2L190.1,182.9z"/>
				<path class="st17" d="M189.5,184.1l-1.4-0.2c-0.2,0-0.3,0.5-0.3,0.5l0,6.1l1.8,0.2L189.5,184.1z"/>
				<path class="st17" d="M188.9,185.3l-1.4-0.2c-0.2,0-0.3,0.5-0.3,0.5l0,6.1l1.8,0.2L188.9,185.3z"/>
				<path class="st17" d="M188.4,186.5l-1.4-0.2c-0.2,0-0.3,0.5-0.3,0.5l0,6.1l1.8,0.2L188.4,186.5z"/>
			</g>
			<g>
				<path class="st22" d="M202.7,173l-1.7-0.2c-0.3,0-0.4,0.5-0.4,0.5l0,6.1l2.1,0.2L202.7,173z"/>
				<path class="st22" d="M202.1,174.1l-1.7-0.2c-0.3,0-0.4,0.5-0.4,0.5l0,6.1l2.1,0.2L202.1,174.1z"/>
				<path class="st22" d="M201.6,175.2L200,175c-0.3,0-0.4,0.5-0.4,0.5l0,6.1l2.1,0.2L201.6,175.2z"/>
				<path class="st22" d="M200.9,176.5l-1.7-0.2c-0.3,0-0.4,0.5-0.4,0.5l0,6.1l2.1,0.2L200.9,176.5z"/>
				<path class="st22" d="M200.4,177.7l-1.7-0.2c-0.3,0-0.4,0.5-0.4,0.5l0,6.1l2.1,0.2L200.4,177.7z"/>
			</g>
			<g>
				<path class="st22" d="M198.6,181.4l-1.7-0.2c-0.3,0-0.4,0.5-0.4,0.5l0,6.1l2.1,0.2L198.6,181.4z"/>
				<path class="st22" d="M198.1,182.4l-1.7-0.2c-0.3,0-0.4,0.5-0.4,0.5l0,6.1l2.1,0.2L198.1,182.4z"/>
				<path class="st22" d="M197.4,183.5l-1.7-0.2c-0.3,0-0.4,0.5-0.4,0.5l0,6.1l2.1,0.2L197.4,183.5z"/>
				<path class="st22" d="M196.8,184.7l-1.7-0.2c-0.3,0-0.4,0.5-0.4,0.5l0,6.1l2.1,0.2L196.8,184.7z"/>
				<path class="st22" d="M196.2,185.9l-1.7-0.2c-0.3,0-0.4,0.5-0.4,0.5l0,6.1l2.1,0.2L196.2,185.9z"/>
			</g>
		</g>
	</g>
</g>
<g id="Layer_3">
	<g>
		<line class="st23" x1="72.7" y1="110.6" x2="167.1" y2="213.4"/>
		<line class="st24" x1="72.7" y1="110.6" x2="167.1" y2="213.4"/>
	</g>
	<g>
		<g>
			<g>
				<g>
					<defs>
						<circle id="SVGID_3_" cx="60.9" cy="80.9" r="29.2"/>
					</defs>
					<clipPath id="SVGID_4_">
						<use xlink:href="#SVGID_3_"  style="overflow:visible;"/>
					</clipPath>
					<g class="st25">
						<polyline class="st26" points="74.6,82.1 75,63.7 73.9,58.4 73.5,76.7 67.8,76.6 						"/>
						<polyline class="st26" points="50.9,90.2 45,102.7 48.6,106.8 						"/>
						<polyline class="st26" points="68.4,107 68.4,98 49.2,98.5 49.2,94.6 52.5,94.4 52.5,96.3 64.7,96.4 64.7,94.3 73.1,94.3 
							72.3,107.4 						"/>
						<polyline class="st26" points="73.6,107.5 74.5,104.4 73.1,94.3 						"/>
						<path class="st26" d="M64.6,94.8l-16.7-6.5c0,0-15.9-6.9-8.6-16.6"/>
						<line class="st26" x1="66.7" y1="94.2" x2="59.7" y2="92.1"/>
						<line class="st26" x1="73.5" y1="76.7" x2="74.1" y2="82.7"/>
						<polygon points="47.3,71.5 49.2,72.2 48.8,79.8 46.8,78.9 						"/>
						<polygon points="50.9,72.8 52.7,73.4 52.3,81 50.3,80.1 						"/>
						<polygon points="54.4,74 56.2,74.6 55.8,82.2 53.9,81.3 						"/>
						<polygon points="57.9,75.2 59.8,75.8 59.4,83.4 57.4,82.5 						"/>
						<polygon points="61.5,76.4 63.3,77.1 62.9,84.7 60.9,83.8 						"/>
						<path class="st27" d="M46.7,83.7c0,0-7-4-7.5-10.3c0,0,0.1-7.1,14-3.8l7.5,2.6c0,0,6.9,2.6,9.7,9.1c0,0,2.9,5.4-4.8,7.4
							c0,0-2.1,0.9-7.9-0.9l-9-2.9L46.7,83.7z"/>
						<path class="st27" d="M42.6,73.9c0,0,1.2-6.2,12.7-2.1l5.6,2.1c0,0,6.8,2.5,7.1,8.1s-7.4,4.1-7.4,4.1l-10.9-3.6
							C49.8,82.5,43,80.7,42.6,73.9z"/>
						<path class="st27" d="M58.4,91.9h5.8c0,0,5.8-0.5,6.6-7"/>
						<path class="st26" d="M71.7,82.9c0,0,2.9-0.8,5,1.1c0,0,4.6,2.8,5.6,7c0,0,0,3.4-4.6,3.2c-4.6-0.3-6.2,0-6.2,0L71.7,80
							L69.2,79"/>
						<path class="st26" d="M74.1,100.9c0,0,6.6-0.7,8.3-5.2L82.3,91"/>
						<path class="st26" d="M72,84.6h2.1c0,0,4.8,1.7,5.3,5.4c0,0,0.3,2.4-3.6,2.3C72,92.2,72,92.2,72,92.2"/>
						<path class="st26" d="M72,88.7c0,0,3.2-1.5,7,1.9"/>
						<path class="st26" d="M52.5,94.4c0,0,0.4-2.5,3.7-2.3c3.3,0.3,2.5,3.8,2.5,3.8"/>
						<path class="st26" d="M52.5,95.8c0,0,0.4-2.8,3.4-2.3c3,0.5,2.3,2.6,2.3,2.6"/>
					</g>
				</g>
				<circle class="st28" cx="60.9" cy="80.9" r="29.2"/>
			</g>
			<g>
				<polygon class="st29" points="50.4,65.7 57.1,55.1 53.7,57 53.6,44.3 47,48.2 47.1,60.9 43.7,62.9 				"/>
			</g>
		</g>
	</g>
	<g>
		<g>
			<g>
				
					<ellipse transform="matrix(0.9969 7.844356e-02 -7.844356e-02 0.9969 10.0466 -10.3393)" class="st30" cx="136.6" cy="122.7" rx="6" ry="1.6"/>
				
					<ellipse transform="matrix(0.9969 7.844356e-02 -7.844356e-02 0.9969 10.0481 -10.3405)" class="st30" cx="136.6" cy="122.7" rx="4.7" ry="1.3"/>
				<g id="LINE_91_">
					<polygon points="138.2,123.5 134.1,122.9 134.2,122.5 138.4,123.1 					"/>
				</g>
				<g id="LINE_92_">
					<polygon points="139.2,123 135,122.4 135.2,122 139.4,122.6 					"/>
				</g>
				<polyline class="st30" points="130.2,125.6 129.7,130.5 131.8,131 132.5,126.5 				"/>
				<polyline class="st31" points="129.7,130.7 130.2,132 132.6,132.6 131.8,131 				"/>
				<polyline class="st30" points="134.5,126.9 134.4,129.9 132.6,132.6 				"/>
				<line class="st30" x1="133.9" y1="131" x2="138.8" y2="131.9"/>
				<polyline class="st30" points="139.1,127.3 138.7,132.2 139.5,133.9 141.7,134.1 141.1,132.4 142,126.5 				"/>
				<line class="st30" x1="141.1" y1="132.4" x2="138.9" y2="132.1"/>
				<polyline class="st31" points="141.9,127.9 144.8,128.5 147.2,124.3 161.3,126.6 163.1,126 165.5,121.3 163.9,121 161.3,125.5 
					144.8,122.7 143.8,124.5 145.4,124.7 144.1,127.6 141.8,127.2 				"/>
				<polyline class="st30" points="132.5,121.4 132.7,120.7 116.4,117.8 117.9,115.1 				"/>
				<polyline class="st30" points="130.2,125.9 127.1,125.4 129.3,121.1 115.5,118.8 114.6,117.9 114.5,117.8 117.1,113 
					117.5,113.5 				"/>
				<path class="st30" d="M114.4,117.9l0.1,15.1c0,0,0.3,0.6,2.1,0.8l1.2-1.8"/>
				<line class="st30" x1="115.6" y1="119" x2="115.6" y2="133.5"/>
				<polyline class="st30" points="116.8,133.4 116.9,131.8 127,133.6 				"/>
				<path class="st30" d="M114.5,131.1c0,0,0.4,0.3,1.1,0.3"/>
				<polyline class="st30" points="144.8,128.5 144.8,137.3 144.5,137.9 127,134.8 127.1,125.4 				"/>
				<polyline class="st30" points="147.2,124.5 147.2,137.2 144.5,142 				"/>
				<path class="st30" d="M147.2,137.2l14,2.1c0,0,1.5,0,1.9-0.6l2.6-4.7"/>
				<path class="st30" d="M130.4,125.4l-1.7-0.4l1.3-2.9l0.7,0.1L130.4,125.4c0,0,0.3,0.8,4.9,1.6c4.5,0.7,6.7-0.5,6.7-0.5l0.5-1
					l0.1-2.3"/>
				<line class="st30" x1="161.3" y1="126.6" x2="161.3" y2="141.2"/>
				<polyline class="st30" points="165.5,121.3 165.5,136.4 163,140.8 163.1,126 				"/>
				<path class="st30" d="M163,140.8c-0.7,1.2-2.8,0.4-2.8,0.4l-0.7-2.1"/>
				<polyline class="st31" points="147.8,137.4 144.4,143.8 144.5,137.9 				"/>
				<polyline class="st31" points="126.9,135 127,141 144.4,143.8 				"/>
				<polyline class="st31" points="117.5,113.8 117.5,115 119.1,115.3 119.1,118.1 				"/>
				<polyline class="st31" points="183.3,93.4 183.6,106.4 187.3,99.6 187.3,88.2 184.4,93.2 183.5,93.1 186.4,88.1 				"/>
				<line class="st31" x1="184.4" y1="104.5" x2="184.3" y2="93"/>
				<polyline class="st31" points="180.5,97.3 180.5,105.6 182.4,106 182.5,106.3 183.5,106.5 				"/>
				<polyline class="st31" points="185.3,86.8 146.2,80.1 143.8,84.2 				"/>
				<polyline class="st31" points="142.6,84.1 144.6,80.6 146.2,80.1 				"/>
				<polyline class="st31" points="182.8,91.2 183,91 185.3,86.9 186.4,87.9 187.1,88 				"/>
				<polyline class="st31" points="144.3,80.7 143.4,80.9 141.7,83.9 142.8,84.1 				"/>
				
					<ellipse transform="matrix(-0.9748 -0.2231 0.2231 -0.9748 259.227 291.7779)" class="st31" cx="146.1" cy="131.2" rx="0.5" ry="1.6"/>
				<polyline class="st31" points="127.1,134.3 129.9,134.7 130.2,134.2 142.4,136.2 142.1,136.8 144.8,137.3 				"/>
				<path class="st31" d="M134.3,131.2v1.3c0,0,0.2,2.1,3.7,2.6c0,0,2.1,0.4,3.8-0.1"/>
				<polyline class="st31" points="133.2,131.8 133.2,134.6 133.9,133.8 133.9,130.9 				"/>
				<line class="st31" x1="131.9" y1="132.5" x2="131.8" y2="134.4"/>
				<line class="st31" x1="129" y1="134.5" x2="129" y2="125.9"/>
				<line class="st31" x1="142.8" y1="128.2" x2="142.7" y2="136.9"/>
				<line class="st31" x1="143.8" y1="124.5" x2="143.9" y2="127.6"/>
				<path class="st31" d="M134.6,131.1c0,0,1.4,2,4.5,2"/>
				<line class="st31" x1="142" y1="128.1" x2="141.9" y2="136.1"/>
				<line class="st31" x1="130.1" y1="134.3" x2="130.1" y2="131.9"/>
				<line class="st31" x1="144.1" y1="124" x2="142.8" y2="123.8"/>
				<line class="st30" x1="180.4" y1="105.2" x2="178.3" y2="104.7"/>
				<polygon class="st31" points="181,88 182.1,87.4 182.4,88.3 				"/>
				<ellipse class="st31" cx="136" cy="143" rx="1.5" ry="0.6"/>
			</g>
			<g>
				<polyline class="st31" points="119.5,110.9 159.6,117.7 159.8,115.7 118.2,108.7 				"/>
				<polyline class="st31" points="159.9,115.5 182.6,93.4 183.3,93.5 183.3,94.2 160.3,117.4 				"/>
				<polyline class="st31" points="162.4,113.3 154.7,112 151.9,114.2 				"/>
				<path id="SVGID_x5F_5_x5F_" class="st1" d="M182.7,93.3l0.2-2.2l-20.5,19.9l-0.3,2.1"/>
				<text>				<textPath  xlink:href="#SVGID_x5F_5_x5F_" startOffset="48.698%">
				</textPath>
</text>
				<polyline class="st31" points="162.4,111.1 155.2,109.9 153.2,111.3 127.9,107.1 129.7,105.5 122.4,104.2 142.9,84.4 				"/>
				<polyline class="st31" points="122.3,104.4 122,106.4 127.9,107.3 127.4,109.2 152.7,113.5 153.2,111.3 				"/>
				<line class="st31" x1="154.7" y1="112" x2="155.2" y2="109.9"/>
				<polyline class="st31" points="122.2,105.5 118.2,108.8 118.1,110.6 119.6,110.9 				"/>
				<line class="st31" x1="123.7" y1="109.5" x2="127.9" y2="107.3"/>
				<path class="st31" d="M159.4,113.9c-0.1,0.4-1.1,0.7-2.4,0.6c-1.3-0.1-2.2-0.4-2.2-0.8c0.1-0.4,1.1-0.7,2.4-0.6
					C158.5,113.1,159.5,113.5,159.4,113.9z"/>
				<path class="st31" d="M124.8,108c-0.1,0.4-1,0.6-2.1,0.6c-1.1-0.1-2-0.4-1.9-0.7c0.1-0.4,1-0.6,2.1-0.6
					C124,107.3,124.8,107.7,124.8,108z"/>
				<polyline class="st31" points="143,84.3 165.4,88.1 164.9,88.6 170.6,89.5 171.1,89.2 182.9,91.1 182.6,91 				"/>
			</g>
		</g>
		<g>
			<g>
				<polygon class="st32" points="140.9,103.9 139.3,112.5 148.3,108.4 146.6,107.2 150.5,102.3 146.4,99.8 142.5,104.8 				"/>
				<polygon points="141.3,104.2 140,111.5 147.4,108 146,107 149.6,102.5 146.3,100.6 142.8,105.2 				"/>
			</g>
			<g>
				<polygon class="st32" points="156.3,97.5 157.9,88.9 149,93.1 150.6,94.2 146.7,99.1 150.8,101.6 154.7,96.6 				"/>
				<polygon points="155.9,97.2 157.3,90 149.8,93.5 151.2,94.4 147.7,98.9 150.7,100.7 154.4,96.2 				"/>
			</g>
		</g>
	</g>
	<g>
		<g>
			<polygon class="st33" points="138.5,66.6 134.3,60.2 129.7,66.6 131.8,66.7 131.8,71.6 136.7,71.6 136.6,66.6 			"/>
			<polygon points="138,66.5 134.5,61.2 130.6,66.5 132.4,66.6 132.4,71 136.3,71 136.1,66.5 			"/>
		</g>
		<g>
			<polygon class="st33" points="130.1,77 134.4,83.4 138.9,77 136.8,77 136.9,72.1 132,72.1 132,77 			"/>
			<polygon points="130.6,77.1 134.2,82.5 138,77.1 136.2,77.1 136.3,72.7 132.6,72.7 132.5,77.1 			"/>
		</g>
	</g>
	<g>
		<g>
			<polyline class="st31" points="118.7,53.9 158.8,60.7 159,58.7 117.4,51.7 			"/>
			<polyline class="st31" points="159.1,58.5 181.8,36.4 182.5,36.5 182.5,37.2 159.5,60.4 			"/>
			<polyline class="st31" points="161.6,56.3 153.9,55 151.1,57.2 			"/>
			<path id="SVGID_x5F_6_x5F_" class="st1" d="M161.3,56.2l0.3-2.1l20.5-19.9l-0.2,2.2l2.3-2.2"/>
			<text>			<textPath  xlink:href="#SVGID_x5F_6_x5F_" startOffset="36.5235%">
			</textPath>
</text>
			<polyline class="st31" points="161.6,54.1 154.4,52.9 152.4,54.3 127.1,50.1 128.9,48.5 121.6,47.2 142.9,27.5 			"/>
			<polyline class="st31" points="121.5,47.4 121.2,49.4 127.1,50.3 126.6,52.2 151.9,56.5 152.4,54.3 			"/>
			<line class="st31" x1="153.9" y1="55" x2="154.4" y2="52.9"/>
			<polyline class="st31" points="121.4,48.5 117.4,51.8 117.3,53.6 118.8,53.9 			"/>
			<line class="st31" x1="122.9" y1="52.5" x2="127.1" y2="50.3"/>
			<path class="st31" d="M158.6,56.9c-0.1,0.4-1.1,0.7-2.4,0.6s-2.2-0.4-2.2-0.8s1.1-0.7,2.4-0.6C157.7,56.1,158.7,56.5,158.6,56.9z
				"/>
			<path class="st31" d="M124,51c-0.1,0.4-1,0.6-2.1,0.6c-1.1-0.1-2-0.4-1.9-0.7c0.1-0.4,1-0.6,2.1-0.6C123.2,50.3,124,50.7,124,51z
				"/>
			<path class="st31" d="M168.5,32.1l0.3-0.4l13.2,2.5l-0.3-0.1l2.5-2l-39.3-6.5l-1.9,1.9l23.5,3.8l-0.5,0.4
				C166,31.6,166,32.9,168.5,32.1z"/>
		</g>
		<polyline class="st31" points="184.3,31.9 184.4,35.2 182.5,37.2 		"/>
		<path d="M168.5,32.1l2.2-2.2l-2.8-0.4l-1.9,2C166,31.4,165.8,32.9,168.5,32.1z"/>
	</g>
</g>
<g id="Layer_5">
</g>
</svg>
