<?xml version="1.0" encoding="UTF-8"?><!-- Generator: Adobe Illustrator 12.0.0, SVG Export Plug-In . SVG Version: 6.00 Build 51448)  --><!DOCTYPE svg PUBLIC "-//W3C//DTD SVG 1.1//EN" "http://www.w3.org/Graphics/SVG/1.1/DTD/svg11.dtd">
<svg xmlns="http://www.w3.org/2000/svg" xmlns:xlink="http://www.w3.org/1999/xlink" version="1.1" width="180.045" height="133.391" viewBox="0 0 180.045 133.391" overflow="visible" enable-background="new 0 0 180.045 133.391" xml:space="preserve" preserveAspectRatio="xMidYMid meet" zoomAndPan="magnify" contentScriptType="application/ecmascript" contentStyleType="text/css">
<g id="outline">
	<path fill="none" stroke="#000000" stroke-width="0.5" stroke-linecap="round" stroke-linejoin="round" d="M88.075,133.141   c0,0,2.066-11.604-4.292-30.839c0,0-0.636-3.02-0.795-6.994l1.272-0.477l0.318-1.113c0,0,3.179-6.517,12.558-1.908   c0,0,15.26,10.174,20.665,17.009c0,0,12.081,16.373,11.127,21.937l0.795,2.385"/>
	<path fill="none" stroke="#000000" stroke-width="0.5" stroke-linecap="round" stroke-linejoin="round" d="M88.234,126.146   c0,0,3.179-2.544,3.179-13.512c0,0-0.159-9.379-2.226-14.625c0,0-4.928-1.113-6.2-2.703"/>
	<path fill="none" stroke="#000000" stroke-width="0.5" stroke-linecap="round" stroke-linejoin="round" d="M89.188,98.01   l0.318-1.749c0,0-3.815-1.908-5.087-1.908"/>
	<path fill="none" stroke="#000000" stroke-width="0.5" stroke-linecap="round" stroke-linejoin="round" d="M179.636,48.574   c0,0-9.855-1.113-16.373,2.702c0,0-18.757-1.271-23.685-0.954c0,0-11.127-2.861-21.142,11.922c0,0-2.861,7.471-10.491,14.625   c0,0-1.431,3.179-2.385,3.974c0,0,2.385,7.948,11.445,10.809c0,0,12.399,7.153,23.208-0.159c0,0,2.861,15.737,3.338,17.009   l1.271,2.702c0,0,0.795,13.67-0.477,16.69l0.318,5.246"/>
	<path fill="none" stroke="#000000" stroke-width="0.5" stroke-linecap="round" stroke-linejoin="round" d="M128.61,65.9   c0,0-0.477,14.783,12.876,25.274c0,0,8.425,6.358,14.624,5.087c0,0,6.2,0.795,7.312-0.159"/>
	<path fill="none" stroke="#000000" stroke-width="0.5" stroke-linecap="round" stroke-linejoin="round" d="M159.289,72.735   c0,0-2.066,19.394,6.835,26.07c0,0,13.671,15.418,13.512,16.849"/>
	
		<line fill="none" stroke="#000000" stroke-width="0.5" stroke-linecap="round" stroke-linejoin="round" x1="141.168" y1="98.646" x2="112.396" y2="102.779"/>
	<path fill="none" stroke="#000000" stroke-width="0.5" stroke-linecap="round" stroke-linejoin="round" d="M140.373,95.467   l-28.454,2.861c0,0-9.378-0.954-11.127-6.199c-1.749-5.246-13.353-36.561-13.353-36.561"/>
	<path fill="none" stroke="#000000" stroke-width="0.5" stroke-linecap="round" stroke-linejoin="round" d="M91.202,53.237   l-14.89,1.218c0,0-2.066,0.477-0.954,2.703C76.471,59.383,96.5,91.334,96.5,91.334"/>
	<path fill="none" stroke="#000000" stroke-width="0.5" stroke-linecap="round" stroke-linejoin="round" d="M75.041,55.25   l-0.477,3.338c0,0,1.272,2.543,2.543,4.292c1.272,1.749,13.353,20.029,13.353,20.029l-0.715,5.166"/>
	<path fill="none" stroke="#000000" stroke-width="0.5" stroke-linecap="round" stroke-linejoin="round" d="M79.809,67.49   l-2.066,10.968c0,0,0,1.272,0.318,2.066l0.159,0.477l6.041-1.908c0,0,1.431-1.271,0.795-2.384   C84.419,75.597,79.809,67.49,79.809,67.49z"/>
	<path fill="none" stroke="#000000" stroke-width="0.5" stroke-linecap="round" stroke-linejoin="round" d="M77.743,78.458   c0,0-0.794,2.226-0.636,3.656l0.557,1.431c0,0,1.033,0.954,2.623,0.397c1.59-0.557,5.405-2.146,5.405-2.146"/>
	<polyline fill="none" stroke="#000000" stroke-width="0.5" stroke-linecap="round" stroke-linejoin="round" points="84.578,79.015    89.744,88.075 90.142,87.996 91.414,89.824  "/>
	
		<line fill="none" stroke="#000000" stroke-width="0.5" stroke-linecap="round" stroke-linejoin="round" x1="91.731" y1="84.499" x2="90.857" y2="88.711"/>
	<path fill="none" stroke="#000000" stroke-width="0.5" stroke-linecap="round" stroke-linejoin="round" d="M91.811,53.899   l14.465,35.607c0,0,1.272,2.623,5.087,2.226l4.133-0.397"/>
	
		<line fill="none" stroke="#000000" stroke-width="0.5" stroke-linecap="round" stroke-linejoin="round" x1="129.087" y1="51.991" x2="0.488" y2="55.886"/>
	
		<line fill="none" stroke="#000000" stroke-width="0.5" stroke-linecap="round" stroke-linejoin="round" x1="0.806" y1="53.342" x2="179.636" y2="47.699"/>
	
		<line fill="none" stroke="#000000" stroke-width="0.5" stroke-linecap="round" stroke-linejoin="round" x1="179.716" y1="46.11" x2="0.806" y2="51.991"/>
	
		<line fill="none" stroke="#000000" stroke-width="0.5" stroke-linecap="round" stroke-linejoin="round" x1="179.636" y1="41.262" x2="0.25" y2="47.381"/>
	
		<line fill="none" stroke="#000000" stroke-width="0.5" stroke-linecap="round" stroke-linejoin="round" x1="0.33" y1="40.864" x2="168.19" y2="34.347"/>
	<polyline fill="none" stroke="#000000" stroke-width="0.5" stroke-linecap="round" stroke-linejoin="round" points="50.004,38.559    44.521,19.484 44.917,15.271  "/>
	<path fill="none" stroke="#000000" stroke-width="0.5" stroke-linecap="round" stroke-linejoin="round" d="M44.441,19.007   l-1.51-3.1c0,0,0.159-0.875,2.782-1.034c2.623-0.159,36.402-0.954,36.402-0.954s2.066-0.397,2.146,2.066s0.238,18.917,0.238,18.917   h-0.636"/>
	<path fill="none" stroke="#000000" stroke-width="0.5" stroke-linecap="round" stroke-linejoin="round" d="M44.759,18.53   l1.828,1.033l34.653-0.636c0,0,1.908-0.318,1.987-2.384l-0.159-2.384"/>
	
		<line fill="none" stroke="#000000" stroke-width="0.5" stroke-linecap="round" stroke-linejoin="round" x1="47.063" y1="14.795" x2="46.507" y2="19.325"/>
	<path fill="none" stroke="#000000" stroke-width="0.5" stroke-linecap="round" stroke-linejoin="round" d="M50.799,14.874   l-0.239,2.146c0,0-0.318,1.669,0.08,2.305"/>
	<path fill="none" stroke="#000000" stroke-width="0.5" stroke-linecap="round" stroke-linejoin="round" d="M51.753,14.874   c0,0,0.159,3.895-0.397,4.372"/>
	<path fill="none" stroke="#000000" stroke-width="0.5" stroke-linecap="round" stroke-linejoin="round" d="M75.835,14.397   l-0.08,2.464c0,0,0.08,1.749,0.318,1.987"/>
	<path fill="none" stroke="#000000" stroke-width="0.5" stroke-linecap="round" stroke-linejoin="round" d="M77.027,14.159   l0.08,2.861c0,0-0.397,1.272-0.715,1.749"/>
	<polyline fill="none" stroke="#000000" stroke-width="0.5" stroke-linecap="round" stroke-linejoin="round" points="80.684,14.159    80.922,18.133 82.67,17.815  "/>
	<path fill="none" stroke="#000000" stroke-width="0.5" stroke-linecap="round" stroke-linejoin="round" d="M52.548,37.526   c0.318,0,27.659-0.636,27.659-0.636l-0.954-14.147L49.13,23.538L52.548,37.526z"/>
	<polyline fill="none" stroke="#000000" stroke-width="0.5" stroke-linecap="round" stroke-linejoin="round" points="52.548,37.526    55.091,31.327 79.571,30.532  "/>
	
		<line fill="none" stroke="#000000" stroke-width="0.5" stroke-linecap="round" stroke-linejoin="round" x1="55.091" y1="31.327" x2="53.184" y2="23.378"/>
	
		<line fill="none" stroke="#000000" stroke-width="0.5" stroke-linecap="round" stroke-linejoin="round" x1="81.479" y1="19.802" x2="82.512" y2="35.539"/>
	<path fill="none" stroke="#000000" stroke-width="0.5" stroke-linecap="round" stroke-linejoin="round" d="M83.625,37.446   c0,0-0.715-2.066,0.874-5.643"/>
	<polyline fill="none" stroke="#000000" stroke-width="0.5" stroke-linecap="round" stroke-linejoin="round" points="83.572,36.069    99.255,35.433 103.07,4.065 167.926,3.429 156.693,30.559 172.801,29.71  "/>
	
		<line fill="none" stroke="#000000" stroke-width="0.5" stroke-linecap="round" stroke-linejoin="round" x1="179.795" y1="0.25" x2="2.608" y2="5.549"/>
	
		<ellipse fill="none" stroke="#000000" stroke-width="0.5" stroke-linecap="round" stroke-linejoin="round" cx="62.377" cy="9.046" rx="4.875" ry="3.285"/>
	<path fill="none" stroke="#000000" stroke-width="0.5" stroke-linecap="round" stroke-linejoin="round" d="M92.367,55.145   L82.035,55.25c-2.861,0.795-2.384,4.451-2.384,4.451l19.075,31.474l-12.24-35.448"/>
	<path fill="none" stroke="#000000" stroke-width="0.5" stroke-linecap="round" stroke-linejoin="round" d="M118.012,62.562   l-13.14,0.636c0,0-5.934,1.908-4.133,7.842c0,0,3.179,12.292,4.821,9.802"/>
	
		<line fill="none" stroke="#000000" stroke-width="0.5" stroke-linecap="round" stroke-linejoin="round" x1="74.563" y1="58.959" x2="65.662" y2="59.807"/>
	<path fill="none" stroke="#000000" stroke-width="0.5" stroke-linecap="round" stroke-linejoin="round" d="M63.437,54.296   l7.206,22.467c0,0,2.014,1.06,2.755,0.954c0.742-0.106,2.543-0.106,2.543-0.106l1.06-0.106l2.225-10.915"/>
	<path fill="none" stroke="#000000" stroke-width="0.5" stroke-linecap="round" stroke-linejoin="round" d="M70.537,76.551   l0.424,1.802c0,0,0.53,0.954,2.014,0.954s3.073-0.636,3.073-0.636l0.318,4.451c0,0-0.423,1.695-3.814,1.377   s-28.613-2.861-28.613-2.861s-4.133-2.861-4.557-5.616l-0.954-5.723c0,0-2.755-5.298-6.358-6.252L1.654,65.423"/>
	<path fill="none" stroke="#000000" stroke-width="0.5" stroke-linecap="round" stroke-linejoin="round" d="M40.546,57.899   c0,0,0.211-1.801,4.557-1.907c4.345-0.106,11.445,0,11.445,0s2.013,0.954,2.861,2.861c0.848,1.907,5.829,16.85,5.829,16.85   s-0.318,3.815-3.709,3.603c-3.391-0.212-13.458-1.271-13.458-1.271s-3.603-1.271-4.239-3.604   C43.195,72.1,40.546,57.899,40.546,57.899z"/>
	<path fill="none" stroke="#000000" stroke-width="0.5" stroke-linecap="round" stroke-linejoin="round" d="M46.163,76.763   l-2.861-15.685c0,0-0.636-1.695,2.226-1.801c2.861-0.106,13.882,0,13.882,0"/>
	<path fill="none" stroke="#000000" stroke-width="0.5" stroke-linecap="round" stroke-linejoin="round" d="M77.107,82.591   l-0.424,2.861v1.908c0,0-1.377,0.53-4.133,0.424c-2.755-0.106-26.6-2.543-26.6-2.543s-4.875-1.802-6.57-8.372"/>
	
		<line fill="none" stroke="#000000" stroke-width="0.5" stroke-linecap="round" stroke-linejoin="round" x1="76.365" y1="83.122" x2="76.683" y2="87.36"/>
	
		<line fill="none" stroke="#000000" stroke-width="0.5" stroke-linecap="round" stroke-linejoin="round" x1="39.063" y1="76.126" x2="1.23" y2="74.961"/>
	
		<line fill="none" stroke="#000000" stroke-width="0.5" stroke-linecap="round" stroke-linejoin="round" x1="87.916" y1="85.665" x2="76.789" y2="85.665"/>
	<path fill="none" stroke="#000000" stroke-width="0.5" stroke-linecap="round" stroke-linejoin="round" d="M57.184,86.619   l-26.493,0.318c0,0-11.551-1.061-15.048,8.053c-3.497,9.115-9.75,36.349-9.75,36.349"/>
	<polyline fill="none" stroke="#000000" stroke-width="0.5" stroke-linecap="round" stroke-linejoin="round" points="   83.572,101.879 29.419,104.104 19.246,90.009  "/>
</g>
<g id="arrows">
	<polygon points="53.064,96.479 66.307,96.479 66.307,99.334 70.789,96.747 75.27,94.159 70.789,91.573 66.307,88.985 66.307,91.77    53.064,91.77  "/>
	<g>
		<polygon points="132.839,84.53 119.598,84.53 119.598,81.674 115.116,84.262 110.635,86.85 115.116,89.436 119.598,92.024     119.598,89.239 132.839,89.239   "/>
	</g>
</g>
</svg>