<?xml version="1.0" encoding="utf-8"?>
<!-- Generator: Adobe Illustrator 19.1.0, SVG Export Plug-In . SVG Version: 6.00 Build 0)  -->
<svg version="1.1" xmlns="http://www.w3.org/2000/svg" xmlns:xlink="http://www.w3.org/1999/xlink" x="0px" y="0px" width="342px"
	 height="219.8px" viewBox="0 0 342 219.8" style="enable-background:new 0 0 342 219.8;" xml:space="preserve">
<style type="text/css">
	.st0{fill:#D2D0CD;}
	.st1{fill:none;stroke:#000000;stroke-width:0.5;stroke-linecap:round;stroke-linejoin:round;stroke-miterlimit:10;}
	.st2{stroke:#000000;stroke-width:0.25;stroke-miterlimit:10;}
	.st3{fill:#FFFFFF;stroke:#000000;stroke-width:0.5;stroke-linecap:round;stroke-linejoin:round;stroke-miterlimit:10;}
	.st4{fill:#FFFFFF;stroke:#000000;stroke-width:0.75;stroke-linecap:round;stroke-linejoin:round;stroke-miterlimit:22.9256;}
	.st5{fill-rule:evenodd;clip-rule:evenodd;}
	
		.st6{fill-rule:evenodd;clip-rule:evenodd;fill:none;stroke:#000000;stroke-width:0.25;stroke-linejoin:bevel;stroke-miterlimit:22.9256;}
	
		.st7{fill-rule:evenodd;clip-rule:evenodd;fill:none;stroke:#D2D0CD;stroke-width:0.25;stroke-linejoin:bevel;stroke-miterlimit:22.9256;}
	
		.st8{fill-rule:evenodd;clip-rule:evenodd;fill:none;stroke:#D2D0CD;stroke-width:0.1222;stroke-linejoin:bevel;stroke-miterlimit:22.9256;}
	
		.st9{fill-rule:evenodd;clip-rule:evenodd;fill:none;stroke:#D2D0CD;stroke-width:0.1222;stroke-linecap:round;stroke-linejoin:round;stroke-miterlimit:22.9256;}
	
		.st10{fill-rule:evenodd;clip-rule:evenodd;fill:none;stroke:#000000;stroke-width:0.1222;stroke-linejoin:bevel;stroke-miterlimit:22.9256;}
	
		.st11{fill-rule:evenodd;clip-rule:evenodd;fill:none;stroke:#D2D0CD;stroke-width:0.25;stroke-linecap:round;stroke-linejoin:round;stroke-miterlimit:22.9256;}
	
		.st12{fill-rule:evenodd;clip-rule:evenodd;fill:none;stroke:#000000;stroke-width:0.25;stroke-linecap:round;stroke-linejoin:round;stroke-miterlimit:22.9256;}
	.st13{fill:none;stroke:#000000;stroke-width:0.25;stroke-linejoin:bevel;stroke-miterlimit:22.9256;}
	.st14{fill-rule:evenodd;clip-rule:evenodd;fill:none;stroke:#000000;stroke-width:0.1222;stroke-miterlimit:22.9256;}
	.st15{fill-rule:evenodd;clip-rule:evenodd;fill:none;stroke:#000000;stroke-width:0.25;stroke-miterlimit:22.9256;}
	.st16{fill-rule:evenodd;clip-rule:evenodd;fill:#D2D0CD;}
	.st17{fill-rule:evenodd;clip-rule:evenodd;fill:none;stroke:#D2D0CD;stroke-width:0.1222;stroke-miterlimit:22.9256;}
	.st18{fill:#FFFFFF;}
	.st19{font-family:'HelveticaNeueLTPro-Md';}
	.st20{font-size:10.0564px;}
	.st21{fill:none;stroke:#D2D0CD;stroke-width:0.1222;stroke-linejoin:bevel;stroke-miterlimit:22.9256;}
	.st22{fill:none;stroke:#D2D0CD;stroke-width:0.25;stroke-linejoin:bevel;stroke-miterlimit:22.9256;}
	.st23{fill:#FFFFFF;stroke:#FFFFFF;stroke-width:0.5;}
	.st24{fill:#010101;}
	.st25{stroke:#FFFFFF;stroke-width:0.75;}
	.st26{fill:none;stroke:#FFFFFF;stroke-width:3;stroke-linecap:round;stroke-linejoin:round;}
	.st27{stroke:#000000;stroke-width:0.5;stroke-linecap:round;stroke-linejoin:round;}
</style>
<g id="Layer_3">
	<polygon class="st0" points="134,144.8 132.5,137.8 154.1,79.3 155,93.4 137,147.6 135.5,145.3 	"/>
	<polygon class="st0" points="215,96.8 220,83.8 217.4,144.7 214.3,151.5 212.6,151.3 211.1,153.5 	"/>
</g>
<g id="Layer_1">
	<g>
		<path class="st1" d="M131.1,150l-14.8,39.5l-2.5-0.4l-1.6-3.9l8.4-21.4l-1.4-6.2l0.6-1.4l-0.8-4.9l8.6-23.3c0,0,0.6-2.9,2.1,1.4
			l2.1-7l-0.6-1.6l0.2-1.9l23.5-62.3l1,1l0.2,1.2l1.2-3.5l-0.4-1.6v-2.9l18.3-44.6l52.9,2.1l1,1.9l-0.4,32.1l-1,1.2l-0.4,14.6
			l-0.8,1v1.8l0.6,1.4l-2.5,66.5l-0.6,0.8l-0.8,0.4l0.2,7l0.4,1.4l-0.4,27.4v5.8l-1.8,7.6l-0.4,23.9l-1,3.9l-3.3-0.4L223,61.1l1.8-6
			l-0.6-1.6l0.4-2.7l0.6-9"/>
		<line class="st1" x1="159.3" y1="74.9" x2="156.5" y2="82.5"/>
		<line class="st1" x1="165.4" y1="58" x2="164.6" y2="60.3"/>
		<line class="st1" x1="170.2" y1="45" x2="168.2" y2="50.4"/>
		<polygon class="st1" points="122,187.6 121.6,185.8 123,182.3 216,195.9 216.9,197.5 216.7,201.2 215.4,201.6 123.1,187.2 
			123.1,188.5 		"/>
		<polyline class="st1" points="116.7,189.6 115.5,193 115.4,193.1 116.2,198.8 120.8,199.6 		"/>
		<polyline class="st1" points="124.3,187.2 120.6,197.5 131.5,199.2 134.9,189.5 		"/>
		<polyline class="st1" points="138.7,189.7 135.6,200 147.3,202 150.6,191.5 		"/>
		<polyline class="st1" points="153.5,192.2 151,202.6 163.1,204.5 165.4,194 		"/>
		<polyline class="st1" points="120.6,197.5 121.8,202.7 132.7,204.7 131.5,199.2 		"/>
		<line class="st1" x1="132.7" y1="204.7" x2="137.7" y2="189.5"/>
		<polyline class="st1" points="135.6,199.8 136.6,205.3 148.1,207.3 147.3,202 		"/>
		<polyline class="st1" points="151,202.8 151.7,207.9 163.6,209.8 163.1,204.5 		"/>
		<g>
			<polyline class="st1" points="182.3,196.6 180.4,207.5 193.2,209.6 194.8,198.5 			"/>
			<polyline class="st1" points="180.4,207.5 180.1,212.9 192.6,215.2 193.2,209.6 			"/>
		</g>
		<g>
			<polyline class="st1" points="196,198.7 194.4,209.7 207.2,211.8 208.6,200.6 			"/>
			<polyline class="st1" points="194.3,209.7 193.7,215.2 206.6,217.5 207.2,211.7 			"/>
		</g>
		<line class="st1" x1="148.2" y1="207.1" x2="152.9" y2="192"/>
		<line class="st1" x1="163.6" y1="209.8" x2="167" y2="194.3"/>
		<g>
			<polyline class="st1" points="168.4,194.6 166,205.1 178.3,207.2 180.2,196.3 			"/>
			<polyline class="st1" points="166,205.1 166.3,210.3 178.5,212.5 178.3,207.4 			"/>
			<line class="st1" x1="178.5" y1="212.5" x2="181.2" y2="196.4"/>
		</g>
		<polyline class="st1" points="161.9,40 163.3,38.5 226.9,41.8 228,43 		"/>
		<g>
			<polygon class="st1" points="129.7,148.4 130,149.9 134.5,150.4 134.5,148.8 			"/>
			<polyline class="st1" points="129.6,148.4 131.8,144.7 135.8,145.3 134.5,148.8 			"/>
			<polyline class="st1" points="135.8,145.3 137,148.3 134.5,150.4 136.2,156.5 136.3,156.8 132.2,156.1 131,150.4 			"/>
			<polyline class="st1" points="136.4,149 137.4,153.3 136.4,156.8 			"/>
			<polygon class="st2" points="133.1,144.7 131.8,137.7 153.9,78.9 154.3,79.4 132.8,137.6 134,145 			"/>
			<polyline class="st1" points="137,147.5 155.3,93.6 154.3,79.4 			"/>
			<polyline class="st1" points="137.5,152.7 157.2,93.5 156.7,86.6 155.9,86.8 155.4,85.8 154.9,85.7 			"/>
			<polyline class="st1" points="154.6,82.4 156.7,82.4 157.6,83.9 156.7,86.6 			"/>
		</g>
		<polygon class="st1" points="143.9,154.7 150.8,131.9 159,133 160.5,127.7 187.5,131.1 184.1,153.6 177,152.9 174.3,159.1 		"/>
		<polyline class="st1" points="143.8,155.1 144.7,163.4 182,168.8 184.1,153.6 		"/>
		<polyline class="st1" points="174.3,159.1 174.5,167.5 176.6,160.9 182.9,161.5 		"/>
		<line class="st1" x1="177" y1="152.9" x2="176.6" y2="160.9"/>
		<path class="st3" d="M178.6,163.5l0.1,2.1c0,0.7,0.7,1.3,1.6,1.3c0.9,0,1.6-0.6,1.6-1.3l0.2-2.3"/>
		<ellipse class="st3" cx="180.3" cy="161.8" rx="2.5" ry="2.1"/>
		<polyline class="st1" points="204.1,174 202.8,183 184.5,180.7 184.8,171.4 		"/>
		<polygon class="st1" points="184.8,171.4 186.8,157.9 205.4,160.5 204.1,174 		"/>
		<path class="st3" d="M198.2,183.8l0.1,2.1c0,0.7,0.7,1.3,1.6,1.3s1.6-0.6,1.6-1.3l0.2-2.3"/>
		<ellipse class="st3" cx="199.8" cy="182" rx="2.5" ry="2.1"/>
		<polygon class="st1" points="189.5,143.1 191.3,131.6 208.1,133.9 206.8,145.3 		"/>
		<polyline class="st1" points="206.7,145.2 205.6,154.3 188.8,152.1 189.5,143.1 		"/>
		<path class="st3" d="M190.1,153.5l0.1,2.1c0,0.7,0.7,1.3,1.6,1.3s1.6-0.6,1.6-1.3l0.2-2.3"/>
		<ellipse class="st3" cx="191.7" cy="151.8" rx="2.5" ry="2.1"/>
		<polygon class="st1" points="165,93.7 161,108.6 195.4,111.9 198.3,95.5 196.4,95.3 198.1,85.6 177.2,83.5 175.3,92 173.3,91.8 
			172.6,94.4 		"/>
		<polyline class="st1" points="160.9,109 161.8,122.3 194.3,125.4 195.4,111.9 		"/>
		<path class="st3" d="M190.6,124.7l0.1,2.1c0,0.7,0.7,1.3,1.6,1.3c0.9,0,1.6-0.6,1.6-1.3l0.2-2.3"/>
		<ellipse class="st3" cx="192.2" cy="123" rx="2.5" ry="2.1"/>
		<g>
			<polygon class="st1" points="216.1,155.9 215.4,157.3 212,156.7 212.5,155.1 			"/>
			<polyline class="st1" points="216.1,155.9 215.7,151.8 212.7,151.4 212.5,155.1 			"/>
			<polyline class="st1" points="212.7,151.4 210.9,154.1 212,156.7 208.9,162.2 208.7,162.5 211.8,162.8 214.5,157.5 			"/>
			<polyline class="st1" points="211.1,155 209,158.9 208.6,162.1 			"/>
			<polygon class="st2" points="214.8,151.5 217.9,145 220.5,83 220.1,83.4 217.2,144.7 214,151.6 			"/>
			<polyline class="st1" points="211.1,153.3 214.9,96.9 220.1,83.4 			"/>
			<polyline class="st1" points="209.1,158.3 213.6,96.4 216.1,89.8 216.6,90.2 217.3,89.4 217.7,89.4 			"/>
			<polyline class="st1" points="218.9,86.3 217.4,85.8 216.3,87 216.1,89.8 			"/>
		</g>
		<polygon class="st1" points="224.5,45.1 166.9,42.4 165.8,44.6 224.7,47.5 		"/>
		<g>
			<path class="st3" d="M137.1,164.5l0.6,3.5c0,1.2,1.1,2.1,2.5,2.1s2.5-1,2.5-2.1l-0.6-3.5"/>
			<ellipse class="st3" cx="139.6" cy="164.5" rx="2.5" ry="2.1"/>
		</g>
		<g>
			<path class="st3" d="M150.3,167.1l0.6,3.5c0,1.2,1.1,2.1,2.5,2.1c1.4,0,2.5-1,2.5-2.1l-0.6-3.5"/>
			<ellipse class="st3" cx="152.8" cy="167.1" rx="2.5" ry="2.1"/>
		</g>
		<path class="st3" d="M171.1,173.5l0.1,4.1c0,3.9-3.6,7.1-8,7.1s-8-3.2-8-7.1v-3.5"/>
		<ellipse class="st3" cx="163.2" cy="174.1" rx="8" ry="7.1"/>
		<ellipse class="st3" cx="163.2" cy="174.1" rx="4" ry="3.5"/>
		<line class="st1" x1="121.8" y1="194.1" x2="115.4" y2="193.1"/>
		<polyline class="st1" points="214.7,201.5 213.9,209 213.5,214.4 211.9,216.7 206.8,215.8 		"/>
		<polyline class="st1" points="213.5,211 208.4,210.2 207.3,211.8 		"/>
		<polyline class="st1" points="217.1,206.6 216.6,209.2 215.3,208.6 215.2,210.5 213.9,211.1 		"/>
		<line class="st1" x1="183.5" y1="52.2" x2="181.5" y2="52.1"/>
		<polyline class="st1" points="224.1,54.7 213.6,54 200.3,53.2 		"/>
		<g>
			<g>
				<path class="st3" d="M176.1,73.2l0,3.7c0,0.5,0.8,0.9,1.7,0.9c0.9,0,1.7-0.4,1.7-0.9l-0.1-3.8"/>
			</g>
			<g>
				<ellipse class="st3" cx="177.8" cy="72.9" rx="1.7" ry="0.9"/>
			</g>
		</g>
		<g>
			<g>
				<path class="st3" d="M176.7,77.2l0,3.7c0,0.5,0.8,0.9,1.7,0.9s1.7-0.4,1.7-0.9l-0.1-3.8"/>
			</g>
			<g>
				<ellipse class="st3" cx="178.4" cy="76.9" rx="1.7" ry="0.9"/>
			</g>
		</g>
		<g>
			<g>
				<path class="st3" d="M212.9,65.5l-0.2,1.8c0,0.2,0.3,0.5,0.8,0.5c0.4,0,0.8-0.1,0.9-0.3l0.1-1.8"/>
			</g>
			<g>
				
					<ellipse transform="matrix(-0.9943 -0.1063 0.1063 -0.9943 419.2792 153.1175)" class="st3" cx="213.7" cy="65.4" rx="0.8" ry="0.4"/>
			</g>
		</g>
		<polyline class="st3" points="166.8,80.4 170.6,67.2 170.2,61.8 169.4,60.7 164.7,60.6 160.5,71.9 		"/>
		<polygon class="st3" points="159.8,80.7 159.5,73.9 160.1,72.8 160.5,71.9 165.5,72.1 166.5,73.4 166.7,80.4 168.1,80.6 
			168.2,87.2 159.3,86.7 158.8,85.9 158.8,81 		"/>
		<polyline class="st1" points="168.1,80.6 171.8,68.2 170.5,66.9 		"/>
		<polyline class="st1" points="168.3,87 172.2,73.4 171.8,68.2 		"/>
		<line class="st3" x1="165.5" y1="72.1" x2="169.4" y2="60.7"/>
		<line class="st3" x1="166.5" y1="73.4" x2="170.1" y2="62.1"/>
		<path class="st1" d="M179.5,51.2l-2.2,7.5L164.8,58l2.8-7.5L179.5,51.2l0.6,0.6l1,0c0,0,0.6,0.4,0.8,0.8l0.2,3.7l-2.1,7.9
			l-8.4-0.5"/>
		<polyline class="st1" points="170.6,66.8 171.4,64.3 170.8,58.4 		"/>
		<path class="st1" d="M177.3,58.9l0.6,0.5l0.8,0c0,0,0.9,0.5,0.9,0.9l0.2,3.7"/>
		<line class="st1" x1="178.7" y1="59.2" x2="180.9" y2="51.9"/>
		<line class="st1" x1="179.5" y1="60.3" x2="181.8" y2="52.6"/>
		<ellipse class="st1" cx="203.9" cy="56.5" rx="1.3" ry="0.7"/>
		<polyline class="st1" points="213.4,54.1 214.2,46.8 214.5,44.6 		"/>
		<polyline class="st1" points="215.8,54.2 216.6,47 216.8,44.8 		"/>
		<polyline class="st1" points="217.6,54.4 218.5,47.2 218.7,44.7 		"/>
		<polyline class="st1" points="220,54.4 221,47.3 221.2,44.9 		"/>
		<polyline class="st1" points="176.5,50.8 176.5,45.1 177.3,42.9 		"/>
		<polyline class="st1" points="174.6,50.8 174.6,45 175.2,42.9 		"/>
		<polyline class="st1" points="172.6,50.8 172.6,44.7 173.4,42.7 		"/>
		<polyline class="st1" points="170.7,50.7 170.6,44.7 171.3,42.7 		"/>
		<polygon class="st1" points="200.3,53.2 183.5,52.3 184.3,50.1 200.5,50.9 		"/>
		<polyline class="st1" points="200.3,53.2 200.3,54.2 183.5,53.4 183.5,52.4 		"/>
		<polyline class="st1" points="206.6,53.9 205.2,63.7 189.8,62.8 189.1,66 171.4,64.8 		"/>
		<polyline class="st1" points="200.3,63.5 199.1,70.4 204.5,71 206.2,72.2 220.9,72.9 222.4,73.5 		"/>
		<ellipse class="st1" cx="208.7" cy="69.4" rx="1.3" ry="0.8"/>
		<path class="st1" d="M217.8,72.6l0.5-5.4l0.1-1.7c0,0-0.1-1.4-1.6-1.4s-9.6-0.5-9.6-0.5l-1.6-1.2"/>
		<ellipse class="st3" cx="209.2" cy="65.2" rx="1.3" ry="0.8"/>
		<line class="st3" x1="204.6" y1="70.8" x2="205.7" y2="62.7"/>
		<path class="st1" d="M151,86.5l-0.6-5.1c0,0-0.5-2,0.3-3.6c0.8-1.6,15.7-38.9,15.7-38.9"/>
	</g>
	<g>
		<polyline class="st3" points="171.2,37.4 170.8,43.3 105.5,166.6 104.5,167.6 104,162.5 102.1,161.5 100.7,161.8 99.4,166 
			1.7,141.1 		"/>
		<polygon class="st3" points="104.5,24.2 171.2,37.2 143.7,86.8 63.2,68 		"/>
		<polyline class="st1" points="2,136.8 62.6,70.9 144.2,89.6 171.2,40.1 		"/>
		<polyline class="st1" points="99.1,161.6 2,136.8 1.4,141.1 		"/>
		<path class="st1" d="M148.9,56.8l-2.6,3.9c0,0-1.3,2.2,2.4,3.2c0,0,3.2,1.2,5.2-1l2.3-3.8c0,0,1.1-2.7-2.9-3.6
			C153.3,55.7,150.4,55,148.9,56.8z"/>
		<g>
			<path class="st1" d="M149.4,57.5l-2.1,3.1c0,0-1,1.7,1.9,2.6c0,0,2.5,0.9,4.2-0.8l1.9-3c0,0,0.9-2.1-2.3-2.9
				C152.9,56.6,150.6,56.1,149.4,57.5z"/>
			
				<ellipse transform="matrix(0.9899 0.1417 -0.1417 0.9899 9.8679 -20.9585)" class="st1" cx="152.1" cy="58.8" rx="2.6" ry="1.6"/>
		</g>
		<path class="st1" d="M121,32l29.6,6.4c0,0,3.1,0.3,1.8,2.5c-1.3,2.2-22.2,35.5-22.2,35.5s-1.6,2.9-5.7,2S92,71,92,71
			s-4.2-0.5-1.5-3.5s27.8-34.2,27.8-34.2S119.5,31.7,121,32z"/>
		<ellipse transform="matrix(0.9899 0.1417 -0.1417 0.9899 7.6157 -13.5414)" class="st1" cx="98.9" cy="46.7" rx="3.8" ry="2.3"/>
		<ellipse transform="matrix(0.9899 0.1417 -0.1417 0.9899 8.0357 -22.1357)" class="st1" cx="159.4" cy="45.4" rx="1.6" ry="0.9"/>
		<ellipse transform="matrix(0.9899 0.1417 -0.1417 0.9899 8.6145 -21.7232)" class="st1" cx="156.8" cy="49.6" rx="1.6" ry="0.9"/>
		<polygon class="st1" points="147.1,67.2 145.2,66.5 145.1,65.3 146.9,64.8 148.8,65.5 148.9,66.7 		"/>
		<line class="st1" x1="143.9" y1="86.8" x2="144.2" y2="93.2"/>
		<line class="st1" x1="63.1" y1="68.1" x2="62.6" y2="70.9"/>
	</g>
</g>
<g id="Layer_2">
	<g>
		<g>
			<polyline class="st4" points="213,140 213.8,139.3 239.7,80.6 239.7,105.5 333.3,105.5 333.3,27.3 239.7,27.3 239.7,56.2 
				213,140 			"/>
		</g>
		<g>
			<path class="st5" d="M318.9,57.6l4.6,2.2c-0.1-0.3-0.1-0.7-0.2-1l-4.7-2.2C318.8,56.9,318.8,57.3,318.9,57.6z"/>
			<path class="st5" d="M318.6,55.7l4.7,2.2c0-0.4,0-0.9,0-1.3l-4.7-2.2C318.6,54.8,318.6,55.3,318.6,55.7z"/>
			<path class="st5" d="M318.6,53.6l4.7,2.2c0.1-0.8,0.2-1.5,0.4-2.3l-4.7-2.2C318.8,52.1,318.7,52.8,318.6,53.6z"/>
			<path class="st5" d="M319.2,50.6l4.7,2.3c0.6-1.8,1.6-3.5,2.9-4.9l3,1.5l-1.7-5.5l-7.5,1l1.5,0.7
				C320.8,47.1,319.8,48.8,319.2,50.6z"/>
		</g>
		<g>
			<path class="st6" d="M269.2,92.3L269.2,92.3 M269.2,92.3L269.2,92.3"/>
			<path class="st6" d="M267.7,88.9L267.7,88.9 M267.7,88.9l0,1.6"/>
			<path class="st7" d="M267.8,88.4L267.8,88.4 M267.8,88.4L267.8,88.4"/>
			<path class="st6" d="M268.5,92.5L268.5,92.5 M268.5,92.5l-0.1,4"/>
			<path class="st6" d="M268.6,96.7L268.6,96.7 M268.6,97l0-0.3"/>
			<path class="st6" d="M269.2,92.3L269.2,92.3 M269.2,92.3l-0.1,2.8"/>
			<path class="st7" d="M270.5,84.3L270.5,84.3 M270.4,87.3l0.1-3"/>
			<path class="st7" d="M271.4,85.3L271.4,85.3 M271.3,88.6l0.1-3.2"/>
			<path class="st6" d="M271.5,93.1L271.5,93.1 M271.5,93.1l-0.1,2.9"/>
			<path class="st6" d="M271.7,90.1L271.7,90.1 M271.7,90.1l0,1.6"/>
			<path class="st7" d="M272,85.6L272,85.6 M272,85.6l-0.1,3"/>
			<path class="st6" d="M271.7,97.7L271.7,97.7 M271.7,97.7l0,0.3"/>
			<path class="st6" d="M272,93.7L272,93.7 M271.9,97.7l0.1-4"/>
			<path class="st6" d="M272.4,93.7L272.4,93.7 M272.4,93.7l-0.1,4"/>
			<path class="st7" d="M272.9,85.1L272.9,85.1 M272.8,88.1l0.1-3"/>
			<path class="st6" d="M273.2,89.2L273.2,89.2 M273.2,89.2l0,0.2"/>
			<path class="st7" d="M273.2,90.1L273.2,90.1 M273.2,90.1l-0.1,1.8"/>
			<path class="st8" d="M274.2,88.7L274.2,88.7 M274.2,88.7l0,0.2"/>
			<path class="st8" d="M274.6,85.6L274.6,85.6 M274.6,85.6l-0.2,7.5"/>
			<path class="st6" d="M267.7,90.5L267.7,90.5"/>
			<path class="st6" d="M267.6,90.7L267.6,90.7"/>
			<path class="st9" d="M313.1,50.6L313.1,50.6 M313,51.8l0-1.3"/>
			<path class="st8" d="M313.9,52.1L313.9,52.1 M313.6,59.6l0.2-7.5"/>
			<path class="st10" d="M313.8,57.6L313.8,57.6 M313.7,59.9l0.1-2.3"/>
			<path class="st10" d="M313.9,54.9L313.9,54.9 M313.9,55.1l0-0.2"/>
			<path class="st6" d="M314.9,54.6L314.9,54.6 M314.9,56.4l0.1-1.8"/>
			<path class="st6" d="M315.5,57L315.5,57 M315.4,61l0.1-4"/>
			<path class="st6" d="M315.5,56.9L315.5,56.9 M315.5,56.9l-0.1,4"/>
			<path class="st6" d="M316.6,51.9L316.6,51.9 M316.6,51.9l0,1.6"/>
			<path class="st6" d="M273.1,92L273.1,92 M273.1,92l-0.4,1"/>
			<path class="st6" d="M316.5,53.7L316.5,53.7 M316.5,53.7l-0.4,0.9"/>
			<path class="st7" d="M309.9,50.8L309.9,50.8 M270.5,84.3l39.3-33.5"/>
			<path class="st11" d="M312.4,50.4L312.4,50.4 M271.4,85.3l41.1-35"/>
			<path class="st7" d="M268.6,87.8L268.6,87.8"/>
			<path class="st6" d="M268,88.3L268,88.3 M268,88.3l-0.2,0.1"/>
			<path class="st11" d="M313.1,50.6L313.1,50.6 M313.1,50.6l-41.1,35"/>
			<path class="st6" d="M270.2,87.3L270.2,87.3 M270.2,87.3l-0.8,0.7"/>
			<path class="st7" d="M312.2,51.6L312.2,51.6 M272.9,85.1l39.3-33.5"/>
			<path class="st6" d="M267.7,90.6L267.7,90.6 M267.7,90.6L267.7,90.6"/>
			<path class="st6" d="M267.4,91.2L267.4,91.2"/>
			<path class="st6" d="M271.3,88.2L271.3,88.2 M271.3,88.2l-0.3,0.3"/>
			<path class="st7" d="M313.9,52.1L313.9,52.1 M313.9,52.1l-39.3,33.5"/>
			<path class="st7" d="M272.5,88L272.5,88 M271.7,88.7l0.8-0.7"/>
			<path class="st6" d="M268.5,92.4L268.5,92.4 M268.5,92.4L268.5,92.4"/>
			<path class="st6" d="M272,89.6L272,89.6 M271.8,89.7l0.2-0.1"/>
			<path class="st6" d="M316.4,51.7L316.4,51.7 M314.1,54.5l2.3-2.8"/>
			<path class="st6" d="M269.1,92.8L269.1,92.8 M269.1,92.8L269.1,92.8"/>
			<path class="st6" d="M274.1,88.6L274.1,88.6 M273.2,89.3l0.9-0.8"/>
			<path class="st6" d="M314.9,54.6L314.9,54.6 M314.9,54.6l-0.7,0.6"/>
			<path class="st7" d="M273.9,89.5L273.9,89.5 M273.9,89.5l-0.7,0.6"/>
			<path class="st6" d="M268.4,94.8L268.4,94.8"/>
			<path class="st6" d="M271.7,93.4L271.7,93.4 M271.7,93.4l-0.2,0.2"/>
			<polyline class="st7" points="273,92.4 274,91.5 274,91.5 			"/>
			<path class="st6" d="M315,56.6L315,56.6 M313.8,57.6l1.2-1"/>
			<path class="st6" d="M272.7,92.9L272.7,92.9 M272.3,93.3l0.4-0.4"/>
			<path class="st6" d="M315.7,56.4L315.7,56.4 M315.2,56.7l0.4-0.4"/>
			<path class="st6" d="M272.5,93.7L272.5,93.7 M272.4,93.7L272.4,93.7"/>
			<path class="st6" d="M315.5,57L315.5,57 M315.5,57L315.5,57"/>
			<path class="st8" d="M313.6,59.6L313.6,59.6 M274.3,93.1l39.3-33.5"/>
			<path class="st10" d="M313.7,59.9L313.7,59.9 M313.7,59.9l-39.6,33.8"/>
			<path class="st6" d="M272,97.8L272,97.8 M272,97.8l-0.3,0.3"/>
			<path class="st6" d="M315.4,61L315.4,61 M272.3,97.7L315.4,61"/>
			<path class="st6" d="M268.9,92.2L268.9,92.2 M268.9,92.2l-0.4,0.2"/>
			<line class="st6" x1="267.7" y1="90.6" x2="268" y2="90.9"/>
			<line class="st6" x1="272" y1="92.2" x2="271.6" y2="91.9"/>
			<line class="st6" x1="315" y1="56.6" x2="315.5" y2="57"/>
			<line class="st6" x1="315.2" y1="56.7" x2="314.9" y2="56.4"/>
			<line class="st6" x1="271.7" y1="98" x2="268.6" y2="97"/>
			<line class="st6" x1="271.9" y1="97.7" x2="271.7" y2="97.7"/>
			<line class="st6" x1="268.6" y1="96.7" x2="268.5" y2="96.6"/>
			<line class="st6" x1="268.6" y1="92.6" x2="269.1" y2="92.8"/>
			<line class="st6" x1="271.5" y1="93.6" x2="272" y2="93.7"/>
			<line class="st6" x1="271.7" y1="93.4" x2="272.5" y2="93.7"/>
			<line class="st6" x1="272.3" y1="93.3" x2="271.5" y2="93.1"/>
			<line class="st6" x1="269.2" y1="92.3" x2="268.4" y2="92"/>
			<line class="st6" x1="267.6" y1="90.7" x2="267.6" y2="90.7"/>
			<line class="st7" x1="273" y1="92.4" x2="273" y2="92.4"/>
			<line class="st6" x1="271.7" y1="90.1" x2="267.7" y2="88.9"/>
			<line class="st6" x1="268" y1="88.3" x2="272" y2="89.6"/>
			<line class="st6" x1="269.2" y1="87.9" x2="273.2" y2="89.2"/>
			<line class="st6" x1="270.2" y1="87.3" x2="271.3" y2="87.6"/>
			<line class="st7" x1="272" y1="85.6" x2="271.4" y2="85.3"/>
			<line class="st7" x1="274.6" y1="85.6" x2="272.9" y2="85.1"/>
			<line class="st7" x1="272" y1="84.8" x2="270.5" y2="84.3"/>
			<line class="st6" x1="315.1" y1="56.7" x2="315.4" y2="56.8"/>
			<line class="st6" x1="315.1" y1="56.7" x2="315.2" y2="56.7"/>
			<line class="st6" x1="315" y1="56.6" x2="313.8" y2="56.2"/>
			<line class="st10" x1="314" y1="55.3" x2="313.8" y2="55.2"/>
			<line class="st8" x1="313.8" y1="55.1" x2="313.9" y2="55.1"/>
			<line class="st8" x1="313.9" y1="54.9" x2="313.8" y2="54.8"/>
			<line class="st10" x1="313.8" y1="54.4" x2="314.1" y2="54.5"/>
			<polyline class="st7" points="309.9,50.8 310.1,50.9 311.3,51.3 			"/>
			<line class="st8" x1="312.2" y1="51.6" x2="313.9" y2="52.1"/>
			<line class="st12" x1="316.4" y1="51.7" x2="313.1" y2="50.7"/>
			<line class="st12" x1="316.5" y1="51.7" x2="313.1" y2="50.6"/>
			<line class="st9" x1="312.4" y1="50.4" x2="313.1" y2="50.6"/>
			<path class="st10" d="M315.4,61C315.4,61,315.4,61,315.4,61C315.4,61,315.4,60.9,315.4,61"/>
			<path class="st6" d="M315.4,56.8C315.4,56.8,315.4,56.8,315.4,56.8c0.1,0.1,0.2,0.1,0.2,0.1"/>
			<path class="st6" d="M316.1,54.6c-0.1,0.3-0.2,0.6-0.3,0.9c-0.1,0.3-0.1,0.6-0.1,0.9"/>
			<path class="st10" d="M314.2,55.2C314.2,55.2,314.2,55.2,314.2,55.2c-0.1,0.1-0.1,0.1-0.2,0.1"/>
			<path class="st6" d="M316.5,53.5C316.5,53.5,316.5,53.5,316.5,53.5c0,0.1,0,0.2-0.1,0.2"/>
			<path class="st8" d="M274.2,88.5C274.2,88.5,274.2,88.5,274.2,88.5c0.1,0.1,0.1,0.1,0.1,0.2"/>
			<path class="st7" d="M272.6,88C272.6,88,272.6,88,272.6,88C272.6,88,272.5,88,272.6,88"/>
			<path class="st6" d="M270.2,87.3C270.2,87.3,270.2,87.3,270.2,87.3C270.2,87.3,270.2,87.3,270.2,87.3"/>
			<path class="st6" d="M316.5,51.7C316.5,51.7,316.5,51.7,316.5,51.7c0.1,0.1,0.1,0.1,0.1,0.2"/>
			<path class="st6" d="M268.3,96.5C268.3,96.5,268.3,96.5,268.3,96.5c0,0.1,0.1,0.1,0.2,0.1"/>
			<path class="st6" d="M268.5,92.5C268.5,92.5,268.5,92.4,268.5,92.5C268.5,92.4,268.5,92.4,268.5,92.5"/>
			<path class="st6" d="M271.9,97.7c0.1,0,0.2,0,0.2,0c0.1,0,0.1,0,0.2-0.1"/>
			<path class="st8" d="M274.2,88.9c0,0.1-0.1,0.2-0.1,0.4c0,0.1-0.1,0.2-0.2,0.2"/>
			<path class="st6" d="M268,90.9c0.1,0.1,0.2,0.3,0.2,0.4c0.1,0.2,0.1,0.5,0.1,0.7"/>
			<path class="st6" d="M267.9,88.5c-0.1,0-0.1,0.1-0.1,0.2c0,0.1,0,0.1-0.1,0.2"/>
			<path class="st6" d="M267.7,90.5C267.7,90.5,267.7,90.5,267.7,90.5c0,0.1,0,0.1,0,0.1"/>
			<path class="st6" d="M268.6,92.6C268.6,92.6,268.6,92.6,268.6,92.6c-0.1-0.1-0.2-0.1-0.2-0.1"/>
			<path class="st6" d="M272.4,93.7c0,0-0.1,0.1-0.2,0.1c-0.1,0-0.2,0-0.2,0"/>
			<path class="st10" d="M314,55.3C314,55.3,314,55.3,314,55.3c-0.1-0.1-0.1-0.1-0.1-0.2"/>
			<path class="st6" d="M315.5,56.9C315.5,56.9,315.5,57,315.5,56.9C315.5,57,315.5,57,315.5,56.9"/>
			<path class="st6" d="M271.7,90.1c0-0.1,0-0.2,0.1-0.2c0-0.1,0.1-0.1,0.1-0.2"/>
			<path class="st7" d="M274.1,88.6C274.1,88.6,274.1,88.5,274.1,88.6C274.1,88.5,274.2,88.5,274.1,88.6c0.1,0-1.4-0.5-1.4-0.5"/>
			<path class="st6" d="M272.3,93.3c0-0.2,0-0.5-0.1-0.7c0-0.2-0.1-0.3-0.2-0.4"/>
			<path class="st6" d="M271.6,91.9C271.6,91.9,271.6,91.9,271.6,91.9c0-0.1,0-0.1,0-0.1"/>
			<path class="st10" d="M313.9,54.9c0-0.1,0-0.2,0.1-0.2c0-0.1,0.1-0.1,0.1-0.2"/>
			<path class="st6" d="M316.4,51.7C316.4,51.7,316.4,51.7,316.4,51.7C316.5,51.7,316.5,51.7,316.4,51.7"/>
			<line class="st6" x1="269.1" y1="95.1" x2="271.4" y2="95.9"/>
			<path class="st13" d="M273.2,89.2L273.2,89.2 M273.2,89.2l-1.2,0.4"/>
			<path class="st13" d="M269.2,87.9L269.2,87.9 M269.2,87.9l-1.2,0.4"/>
			<line class="st14" x1="274" y1="91.5" x2="274.1" y2="93.7"/>
			<polygon class="st15" points="272.9,85.1 274.6,85.6 313.9,52.1 313,51.8 312.2,51.6 			"/>
			<path class="st16" d="M272.9,85.1l1.7,0.5l39.3-33.5l-0.8-0.3l-0.8-0.3L272.9,85.1z"/>
			<polygon class="st15" points="274.6,85.6 274.3,93.1 313.6,59.6 313.8,56.2 313.8,55.2 313.8,55.1 313.8,54.8 313.8,54.4 
				313.9,52.1 			"/>
			<path class="st16" d="M274.6,85.6l-0.2,7.5l39.3-33.5l0.1-3.4l0-1l0-0.1l0-0.2l0-0.4l0.1-2.3L274.6,85.6z"/>
			<polygon class="st15" points="272,84.8 311.3,51.3 311.2,51.2 310.1,50.9 310.1,50.9 309.9,50.8 308.5,52 270.5,84.3 			"/>
			<path class="st16" d="M272,84.8l39.3-33.5l-0.1,0l-1-0.3l0,0l-0.3-0.1l-1.4,1.2l-37.9,32.3L272,84.8z"/>
			<polygon class="st15" points="271.4,85.3 271.3,87.6 271.3,88.2 271.3,88.6 271.7,88.7 271.9,88.6 272,85.6 			"/>
			<path class="st16" d="M271.4,85.3l-0.1,2.3l0,0.6l0,0.4l0.5,0.2l0.2-0.2l0.1-3L271.4,85.3z"/>
			<polygon class="st15" points="271.3,87.6 271.4,85.3 272,84.8 270.5,84.3 270.4,87.3 			"/>
			<path class="st16" d="M271.3,87.6l0.1-2.3l0.6-0.5l-1.5-0.5l-0.1,3L271.3,87.6z"/>
			<polygon class="st12" points="272,84.8 271.4,85.3 272,85.6 313.1,50.6 312.4,50.4 311.3,51.3 			"/>
			<path class="st16" d="M272,84.8l-0.6,0.5l0.7,0.2l41.1-35l-0.7-0.2l-1.1,0.9L272,84.8z"/>
			<path class="st12" d="M313.1,50.6l-41.1,35l-0.1,3l0.6-0.5c0,0,0,0,0.1,0c0,0,0,0,0,0l0.2,0.1l0.1-3l39.3-33.5l0.8,0.3
				L313.1,50.6L313.1,50.6L313.1,50.6z"/>
			<path class="st16" d="M313.1,50.6l-41.1,35l-0.1,3l0.6-0.5c0,0,0,0,0.1,0c0,0,0,0,0,0l0.2,0.1l0.1-3l39.3-33.5l0.8,0.3
				L313.1,50.6L313.1,50.6L313.1,50.6z"/>
			<line class="st17" x1="274.3" y1="93.1" x2="274.1" y2="92.8"/>
			<path class="st15" d="M274,91.5L274,91.5L274,91.5z M273,92.4l1-0.9l0,1.3l0.2,0.3l0.2-7.5l-1.7-0.5l-0.1,3
				c0.3,0.1,1.4,0.5,1.4,0.5l0,0c0,0,0,0.1,0,0.1l0,0.2c0,0.1-0.1,0.2-0.1,0.4c0,0.1-0.1,0.2-0.2,0.2l-0.7,0.6l-0.1,1.8L273,92.4
				L273,92.4z"/>
			<path class="st16" d="M274,91.5L274,91.5L274,91.5z M273,92.4l1-0.9l0,1.3l0.2,0.3l0.2-7.5l-1.7-0.5l-0.1,3
				c0.3,0.1,1.4,0.5,1.4,0.5l0,0c0,0,0,0.1,0,0.1l0,0.2c0,0.1-0.1,0.2-0.1,0.4c0,0.1-0.1,0.2-0.2,0.2l-0.7,0.6l-0.1,1.8L273,92.4
				L273,92.4z"/>
		</g>
		<g>
			<circle class="st5" cx="272.3" cy="40.7" r="6.7"/>
			<g>
				<text transform="matrix(1 0 0 1 269.5244 44.0116)" class="st18 st19 st20">2</text>
			</g>
		</g>
		<g>
			<g>
				<text transform="matrix(1 0 0 1 255.6064 111.1478)" class="st18 st19 st20">3</text>
			</g>
		</g>
		<g>
			<g>
				<text transform="matrix(1 0 0 1 331.1143 62.5741)" class="st18 st19 st20">3</text>
			</g>
		</g>
		<g>
			<path class="st5" d="M258.3,94.5l-7.8-1.3c-1.1,0.5-2.1,1.3-2.8,2.2l-3.4-0.7l2.8,5.9l10.7-3l-3.2-0.7
				C255.6,95.8,256.9,94.9,258.3,94.5z"/>
			<path class="st5" d="M251.8,92.9l7.5,1.3c1.9,0,3.7,0.3,5.5,0.9C260.7,93.4,256.3,92.6,251.8,92.9z"/>
			<path class="st5" d="M259.6,94.7c0.5,0.5,1,1.1,1.4,1.7l6.8,1.2c-0.5-0.7-1.1-1.3-1.8-1.8L259.6,94.7z"/>
			<path class="st5" d="M268.2,98.2l-6.9-1.2c0.2,0.4,0.3,0.7,0.4,1.1l7,1.2C268.6,99,268.4,98.6,268.2,98.2z"/>
		</g>
		<g>
			<path class="st16" d="M287.6,51.6V52l-0.9,0.4l-1.6,1.4l2.5-1.2v1L307.1,37l-0.8-0.3l-0.8-0.3L287.6,51.6z"/>
			<path class="st16" d="M287.6,50.6l17-14.4l-1.5-0.5l-17,14.5l1.5-0.7V50.6z"/>
			<path class="st16" d="M267.6,77.9l21.4-18.2l0.4-0.3l0.1-0.1L306,45.2l0.9-0.7l0.2-7.5l-19.5,16.6V54l-1.1,0.5l-1.6,1.4l2.7-1.3
				v1l-5.3,2.6l-14.5,12.3L267.6,77.9z"/>
			<path class="st16" d="M267.6,77.9l0.2-7.5l-1.7-0.5l-0.2,7.5L267.6,77.9z"/>
			<path class="st16" d="M265.9,77.4l0.2-7.5l16-13.6V56l-16.9,14.4l-0.3,9.8l24-20.4l0-0.1l-21.4,18.2L265.9,77.4z"/>
			<path class="st16" d="M265,80.2l0.3-9.8l-0.7-0.2l-0.2,6.7l-0.1,3.1L265,80.2z"/>
			<path class="st16" d="M265.2,69.7l16.9-14.4v-0.1l0.2-0.1l1.6-1.4l-1.8,0.9v-1l-18.3,15.6L265.2,69.7z"/>
			<path class="st16" d="M282.1,56.3l-16,13.6l1.7,0.5l14.5-12.3l-0.1,0.1v-1l2.8-1.4l1.6-1.4l-4.4,2.1V56.3z"/>
			<path class="st16" d="M264.4,76.9l0.2-6.7l0.6-0.5l-1.5-0.5l-0.2,7.5L264.4,76.9z"/>
			<path class="st16" d="M265.3,70.4L282.1,56v-0.8l-16.9,14.4l-0.6,0.5L265.3,70.4z"/>
			<path class="st16" d="M287.6,51.4l18.7-15.9l-0.7-0.2l-1.1,0.9l-17,14.4V51.4z"/>
			<path class="st7" d="M263.8,69.2L263.8,69.2 M263.5,76.7l0.2-7.5"/>
			<path class="st7" d="M264.6,70.2L264.6,70.2 M264.3,80l0.3-9.8"/>
			<path class="st7" d="M265.3,70.4L265.3,70.4 M265.3,70.4l-0.3,9.8"/>
			<path class="st7" d="M266.1,69.9L266.1,69.9 M265.9,77.4l0.2-7.5"/>
			<path class="st7" d="M267.8,70.5L267.8,70.5 M267.8,70.5l-0.2,7.5"/>
			<line class="st7" x1="263.8" y1="69.2" x2="282.1" y2="53.6"/>
			<line class="st7" x1="264.6" y1="70.2" x2="283.9" y2="53.7"/>
			<line class="st8" x1="306.3" y1="35.4" x2="287.6" y2="51.4"/>
			<line class="st7" x1="266.1" y1="69.9" x2="282.1" y2="56.3"/>
			<line class="st7" x1="267.6" y1="77.9" x2="306.9" y2="44.4"/>
			<line class="st7" x1="265" y1="80.2" x2="288.9" y2="59.8"/>
			<line class="st7" x1="265.9" y1="77.4" x2="267.6" y2="77.9"/>
			<line class="st7" x1="264.4" y1="76.9" x2="263.5" y2="76.7"/>
			<line class="st7" x1="265.3" y1="70.4" x2="264.6" y2="70.2"/>
			<line class="st7" x1="267.8" y1="70.5" x2="266.1" y2="69.9"/>
			<line class="st7" x1="265.2" y1="69.7" x2="263.8" y2="69.2"/>
			<line class="st8" x1="303.1" y1="35.7" x2="304.6" y2="36.1"/>
			<path class="st21" d="M303.1,35.7L303.1,35.7 M286.1,50.2l17-14.5"/>
			<line class="st21" x1="287.6" y1="50.6" x2="305.6" y2="35.2"/>
			<line class="st21" x1="287.6" y1="51.6" x2="305.4" y2="36.4"/>
			<line class="st22" x1="282.1" y1="56" x2="265.3" y2="70.4"/>
			<line class="st22" x1="282.3" y1="58.2" x2="267.8" y2="70.5"/>
			<polygon class="st15" points="267.6,77.9 288.9,59.7 289.3,59.4 289.4,59.3 306,45.2 306.9,44.4 307.1,37 287.6,53.6 287.6,54 
				286.6,54.5 285,55.9 287.6,54.6 287.6,55.6 282.3,58.2 267.8,70.5 			"/>
			<polygon class="st15" points="267.6,77.9 267.8,70.5 266.1,69.9 265.9,77.4 			"/>
			<polygon class="st15" points="265.3,70.4 282.1,56 282.1,55.3 265.2,69.7 264.6,70.2 			"/>
			<path class="st16" d="M265.3,70.4L282.1,56v-0.8l-16.9,14.4l-0.6,0.5L265.3,70.4z"/>
			<polygon class="st15" points="265.9,77.4 266.1,69.9 282.1,56.3 282.1,56 265.3,70.4 265,80.2 288.9,59.8 288.9,59.7 267.6,77.9 
							"/>
			<path class="st16" d="M265.9,77.4l0.2-7.5l16-13.6V56l-16.9,14.4l-0.3,9.8l24-20.4l0-0.1l-21.4,18.2L265.9,77.4z"/>
			<polygon class="st15" points="265.9,77.4 266.1,69.9 282.1,56.3 282.1,56 265.3,70.4 265,80.2 288.9,59.8 288.9,59.7 267.6,77.9 
							"/>
			<polygon class="st15" points="265,80.2 265.3,70.4 264.6,70.2 264.4,76.9 264.3,80 			"/>
			<polygon class="st15" points="265.2,69.7 282.1,55.3 282.1,55.2 282.3,55.1 283.9,53.7 282.1,54.6 282.1,53.6 263.8,69.2 			"/>
			<polygon class="st15" points="282.1,56.3 266.1,69.9 267.8,70.5 282.3,58.2 282.1,58.2 282.1,57.2 285,55.9 286.6,54.5 
				282.1,56.6 			"/>
			<polygon class="st15" points="264.4,76.9 264.6,70.2 265.2,69.7 263.8,69.2 263.5,76.7 			"/>
			<polygon class="st15" points="265.3,70.4 282.1,56 282.1,55.3 265.2,69.7 264.6,70.2 			"/>
			<polygon class="st14" points="287.6,51.6 287.6,52 286.7,52.4 285.1,53.7 287.6,52.6 287.6,53.6 307.1,37 306.3,36.7 305.4,36.4 
							"/>
			<polygon class="st14" points="305.4,36.4 306.3,36.7 306.3,35.4 287.6,51.4 287.6,51.6 			"/>
			<path class="st16" d="M305.4,36.4l0.8,0.3l0-1.3l-18.7,15.9v0.3L305.4,36.4z"/>
			<polygon class="st14" points="287.6,51.4 306.3,35.4 305.6,35.2 304.6,36.1 287.6,50.6 			"/>
			<polygon class="st14" points="287.6,50.6 304.6,36.1 303.1,35.7 286.1,50.2 287.6,49.4 			"/>
			<path class="st5" d="M282.1,51.5l5.5-2.6v-4.3l2.7-1.3l-5.8-1.9l-5.2,7.1l2.8-1.3V51.5z"/>
			<path class="st5" d="M286.1,50.2l-4,1.9v1.5v1l1.8-0.9l2.1-1l0.7-0.3l0.9-0.4v-0.3v-0.3v-0.8v-1.1L286.1,50.2z"/>
			<path class="st5" d="M285.1,53.7l-0.7,0.3l-2.1,1l-0.2,0.2V56v0.3v0.3l4.4-2.1l1.1-0.9v-1L285.1,53.7z"/>
			<polygon class="st5" points="282.1,57.2 282.1,58.2 287.6,55.6 287.6,54.6 			"/>
			<polygon class="st5" points="286.2,54.6 287.6,54 287.6,53.3 			"/>
			<polygon class="st16" points="282.5,55 285,53.8 286.6,52.5 284.1,53.6 			"/>
		</g>
	</g>
	<g>
		<g>
			<polygon class="st23" points="139.9,65.3 131.4,69.4 129.9,63.2 132.3,63.6 135,59.7 140.6,60.9 137.7,64.8 			"/>
			<polygon class="st24" points="139.2,65.2 132.2,68.7 130.9,63.5 132.9,63.9 135.4,60.3 139.8,61.2 137.1,64.8 			"/>
		</g>
		<g>
			<polygon class="st23" points="136.3,54.9 144.8,50.7 146.3,57 143.9,56.5 141.1,60.5 135.6,59.3 138.5,55.4 			"/>
			<polygon class="st24" points="136.9,55 144,51.5 145.3,56.7 143.3,56.3 140.8,59.9 136.6,59 139,55.4 			"/>
		</g>
	</g>
	<g>
		<g>
			<polygon class="st23" points="44.3,98.1 29.4,103 28.3,92.4 32.2,93.7 37.7,87.8 46.5,91 40.8,96.9 			"/>
			<polygon class="st24" points="43.2,97.9 30.8,101.9 29.9,93.1 33.2,94.2 38.1,88.9 45.2,91.4 39.9,96.7 			"/>
		</g>
		<g>
			<polygon class="st23" points="40.9,80.2 55.8,75.4 56.9,86 53,84.7 47.5,90.5 38.7,87.3 44.3,81.5 			"/>
			<polygon class="st24" points="41.9,80.4 54.4,76.4 55.3,85.3 52,84.2 47.1,89.4 40.4,87 45.3,81.7 			"/>
		</g>
	</g>
	<path class="st25" d="M26.4,115.6c-2.8-14.9-12.6-14.4-12.6-14.4l-4.6,2l2.1-7.3l13.5-1l-3.8,2.1c0,0,10,4.8,7.6,17.5L26.4,115.6z"
		/>
	<g>
		<line class="st26" x1="139.5" y1="20.3" x2="149.5" y2="54.5"/>
		<line class="st27" x1="139.5" y1="20.3" x2="149.5" y2="54.5"/>
	</g>
	<g>
		<circle class="st5" cx="136.6" cy="12" r="6.7"/>
		<g>
			<text transform="matrix(1 0 0 1 133.8428 15.2816)" class="st18 st19 st20">1</text>
		</g>
	</g>
</g>
</svg>
