<?xml version="1.0" encoding="UTF-8"?><!-- Generator: Adobe Illustrator 12.0.0, SVG Export Plug-In . SVG Version: 6.00 Build 51448)  --><!DOCTYPE svg PUBLIC "-//W3C//DTD SVG 1.1//EN" "http://www.w3.org/Graphics/SVG/1.1/DTD/svg11.dtd">
<svg xmlns="http://www.w3.org/2000/svg" xmlns:xlink="http://www.w3.org/1999/xlink" version="1.1" id="outline" width="193.869" height="106.944" viewBox="0 0 193.869 106.944" overflow="visible" enable-background="new 0 0 193.869 106.944" xml:space="preserve" preserveAspectRatio="xMidYMid meet" zoomAndPan="magnify" contentScriptType="application/ecmascript" contentStyleType="text/css">
<g>
	<path fill="none" stroke="#000000" stroke-width="0.5" stroke-linecap="round" stroke-linejoin="round" d="M167.698,10.646   c0,0,1.428,6.214,0.756,8.733l-2.352,0.084c0,0-0.504-1.511-3.947-0.252l-19.985-1.007c0,0-8.313-6.382-8.986-8.229   C133.184,9.975,155.857,9.387,167.698,10.646z"/>
	<path fill="none" stroke="#000000" stroke-width="0.5" stroke-linecap="round" stroke-linejoin="round" d="M168.202,19.38   c0,0-0.252,2.939-0.84,2.939"/>
	<path fill="none" stroke="#000000" stroke-width="0.5" stroke-linecap="round" stroke-linejoin="round" d="M168.202,20.052h-1.932   c0,0-3.275,2.939-4.786,0l-19.314-1.26v-0.588c0,0,0.588,5.486,1.177,6.158"/>
	
		<ellipse fill="none" stroke="#000000" stroke-width="0.5" stroke-linecap="round" stroke-linejoin="round" cx="163.877" cy="19.926" rx="1.26" ry="0.629"/>
	<path fill="none" stroke="#000000" stroke-width="0.5" stroke-linecap="round" stroke-linejoin="round" d="M162.155,18.96   c0,0-0.252-1.344,0.169-2.519"/>
	<path fill="none" stroke="#000000" stroke-width="0.5" stroke-linecap="round" stroke-linejoin="round" d="M134.863,19.632   l0.588-1.931c0,0-2.938-2.688-3.359-3.527c-0.419-0.84,0.84-4.199,0.84-4.199L55.086,9.471l-0.419,0.84l3.107,18.055l59.035,0.252"/>
	<path fill="none" stroke="#000000" stroke-width="0.5" stroke-linecap="round" stroke-linejoin="round" d="M136.627,96.302   l-4.702,10.329c-1.513,0.504-9.237-2.184-9.237-2.184l5.71-13.353c0,0,5.711,3.107,7.978,4.199   c2.268,1.092,2.352-0.504,2.352-0.504s29.224-69.112,29.979-70.792c0.755-1.68-0.756-1.68-0.756-1.68h-7.558l-31.995,68.524"/>
	<path fill="none" stroke="#000000" stroke-width="0.5" stroke-linecap="round" stroke-linejoin="round" d="M123.946,104.28   l5.291-12.177l6.718,3.611c0,0,2.1,0.84,2.52-0.252"/>
	<path fill="none" stroke="#000000" stroke-width="0.5" stroke-linecap="round" stroke-linejoin="round" d="M136.375,96.47   l-6.298-1.008c0,0-5.543,3.358-3.611,7.978l5.29,2.771"/>
	<path fill="none" stroke="#000000" stroke-width="0.5" stroke-linecap="round" stroke-linejoin="round" d="M130.245,95.714   c0,0-3.275,7.642-3.527,7.894"/>
	<path fill="none" stroke="#000000" stroke-width="0.5" stroke-linecap="round" stroke-linejoin="round" d="M143.765,86.225   l4.535-10.497l0.084-3.527c0,0,20.826-2.604,44.787-1.483"/>
	<path fill="none" stroke="#000000" stroke-width="0.5" stroke-linecap="round" stroke-linejoin="round" d="M144.186,82.026   c0,0,0.671,5.626-3.444,8.397"/>
	<path fill="none" stroke="#000000" stroke-width="0.5" stroke-linecap="round" stroke-linejoin="round" d="M162.24,39.366   l0.503,2.519c1.344-2.1,5.879-13.604,5.879-13.604l0.084-4.283"/>
	<path fill="none" stroke="#000000" stroke-width="0.5" stroke-linecap="round" stroke-linejoin="round" d="M162.743,41.885   c0,0,0.085,0.84-0.503,2.519c-0.589,1.68-6.215,12.597-6.215,12.597"/>
	<path fill="none" stroke="#000000" stroke-width="0.5" stroke-linecap="round" stroke-linejoin="round" d="M156.193,53.474   c0,0,1.176,5.794-4.871,11.505"/>
	<path fill="none" stroke="#000000" stroke-width="0.5" stroke-linecap="round" stroke-linejoin="round" d="M159.301,24.586   l-3.611-0.168c0,0-1.763,0.336-1.259,1.175c0.503,0.84,3.106,6.466-5.459,8.062c0,0-1.26,0.084-1.848,1.176   c-0.588,1.091-1.26,2.352-1.26,2.352s-1.092,1.511-2.939,0.671c-1.847-0.84-5.29-2.52-5.29-2.52s-0.672-1.259-1.68,0.168   c-1.007,1.428-22.842,30.483-22.842,30.483s-3.526-1.259-5.626,0c-2.099,1.26-3.778,2.939-4.618,4.619s-0.925,4.451,0.167,5.459   c0,0,0.84,1.931,3.779,3.359c2.939,1.427,17.887,8.397,17.887,8.397s1.344,1.763,2.939-0.589c1.596-2.351,4.787-9.068,4.787-9.068   s0.336-1.26,0.671-0.84l1.261,0.42"/>
	<path fill="none" stroke="#000000" stroke-width="0.5" stroke-linecap="round" stroke-linejoin="round" d="M130.16,86.812   l-1.091-0.504c0,0-1.68,4.535-2.519,5.543c0,0-1.513,3.107-2.521,3.947l-0.42,1.091l-2.1-1.091l-1.259,2.267l-2.352-1.176   l-2.268-3.61c0,0,0-0.252-1.68-0.84s-10.329-5.207-10.329-5.207s-3.023-1.343-2.519-5.71c0.504-4.366,1.092-7.726,1.092-7.726"/>
	<path fill="none" stroke="#000000" stroke-width="0.5" stroke-linecap="round" stroke-linejoin="round" d="M123.61,87.988   l-0.671,2.268c0,0,0.336,1.008-1.177,0.336c-1.511-0.672-0.923-0.42-0.923-0.42s-1.26-0.84-1.428-1.26s-2.1-3.863-2.1-3.863   l6.298,2.772"/>
	
		<line fill="none" stroke="#000000" stroke-width="0.5" stroke-linecap="round" stroke-linejoin="round" x1="117.313" y1="85.048" x2="114.793" y2="92.607"/>
	
		<line fill="none" stroke="#000000" stroke-width="0.5" stroke-linecap="round" stroke-linejoin="round" x1="122.771" y1="90.759" x2="121.511" y2="95.798"/>
	<path fill="none" stroke="#000000" stroke-width="0.5" stroke-linecap="round" stroke-linejoin="round" d="M101.357,80.095   c0,0,0.756,1.931,3.946,3.694c3.191,1.763,10.329,5.29,10.329,5.29l2.771,3.947c0,0-0.252-0.084,1.008,0.504   c1.259,0.588,2.351,1.26,2.351,1.26"/>
	<polyline fill="none" stroke="#000000" stroke-width="0.5" stroke-linecap="round" stroke-linejoin="round" points="   122.771,91.347 124.45,92.439 122.351,93.447  "/>
	<path fill="none" stroke="#000000" stroke-width="0.5" stroke-linecap="round" stroke-linejoin="round" d="M135.115,76.736   l-2.52-1.092c0,0-1.175-0.84-2.015,1.26s-2.771,6.13-2.771,6.13s-0.672,2.519-4.199,1.008c-3.526-1.512-16.207-7.558-16.207-7.558   s-3.191-1.176-2.1-4.871c0,0,0.673-1.848,2.352-3.107c0,0,2.016-1.092,4.87,0.168c2.855,1.26,15.032,6.971,15.032,6.971   l3.023-5.207l5.794,2.855"/>
	<path fill="none" stroke="#000000" stroke-width="0.5" stroke-linecap="round" stroke-linejoin="round" d="M105.977,75.644   c0,0,2.099-1.26,5.038,0c2.938,1.26,14.527,6.718,14.527,6.718"/>
	<path fill="none" stroke="#000000" stroke-width="0.5" stroke-linecap="round" stroke-linejoin="round" d="M117.732,71.025   c0,0,8.481,7.727,8.649,8.566"/>
	<path fill="none" stroke="#000000" stroke-width="0.5" stroke-linecap="round" stroke-linejoin="round" d="M127.558,75.644   c0,0-2.603,9.237-2.855,8.817"/>
	
		<ellipse transform="matrix(0.9222 0.3868 -0.3868 0.9222 29.7465 -45.8089)" fill="none" stroke="#000000" stroke-width="0.5" stroke-linecap="round" stroke-linejoin="round" cx="128.705" cy="51.013" rx="1.915" ry="2.016"/>
	
		<ellipse fill="none" stroke="#000000" stroke-width="0.5" stroke-linecap="round" stroke-linejoin="round" cx="128.733" cy="50.871" rx="0.924" ry="1.007"/>
	<path fill="none" stroke="#000000" stroke-width="0.5" stroke-linecap="round" stroke-linejoin="round" d="M158.462,26.266   l-1.68-0.279c0,0,1.511,7.894-7.558,9.125l-1.68,3.191c0,0-0.337,0.56,0.672,1.12c1.008,0.56,2.126,1.007,2.126,1.007   s1.12,0.168,1.96-0.84"/>
	<path fill="none" stroke="#000000" stroke-width="0.5" stroke-linecap="round" stroke-linejoin="round" d="M154.374,25.258   c0,0-0.671,0.392-1.231,1.959c0,0,1.903,1.624,1.848,2.016"/>
	<path fill="none" stroke="#000000" stroke-width="0.5" stroke-linecap="round" stroke-linejoin="round" d="M132.429,14.622   c0,0-2.365,0.671-1.183,1.735"/>
	<path fill="none" stroke="#000000" stroke-width="0.5" stroke-linecap="round" stroke-linejoin="round" d="M131.31,16.469   c0,0,6.605,8.23,21.833,10.749"/>
	<polyline fill="none" stroke="#000000" stroke-width="0.5" stroke-linecap="round" stroke-linejoin="round" points="   154.543,28.673 150.904,28.673 149.336,32.424 151.855,32.704  "/>
	<path fill="none" stroke="#000000" stroke-width="0.5" stroke-linecap="round" stroke-linejoin="round" d="M131.477,41.661   c0,0-12.708-8.341-15.787-14.724c0,0-0.56-0.167-0.28-2.519c0.546-4.578,1.186-4.996,1.624-7.334"/>
	<path fill="none" stroke="#000000" stroke-width="0.5" stroke-linecap="round" stroke-linejoin="round" d="M116.138,20.835   c0,0,1.176,7.445,18.139,16.795"/>
	<path fill="none" stroke="#000000" stroke-width="0.5" stroke-linecap="round" stroke-linejoin="round" d="M146.201,36.063   l-5.711-1.792c0,0-0.392-0.504-0.84,0.224c-0.447,0.728-0.728,1.455-0.728,1.455"/>
	<path fill="none" stroke="#000000" stroke-width="0.5" stroke-linecap="round" stroke-linejoin="round" d="M136.964,34.888   c0,0-0.561-2.285-2.8-2.731c0,0-10.469-4.292-17.187-12.54c0,0-0.952-1.226,1.063-4.18l2.547-3.866"/>
	<path fill="none" stroke="#000000" stroke-width="0.5" stroke-linecap="round" stroke-linejoin="round" d="M57.605,27.525h13.437   l0.42-4.199c0,0,0.084-1.26,1.428-1.26s8.817,0,8.817,0s2.016-0.167,2.183,1.26c0.169,1.428,0.169,4.199,0.169,4.199l31.911,0.168"/>
	<path fill="none" stroke="#000000" stroke-width="0.5" stroke-linecap="round" stroke-linejoin="round" d="M118.236,30.464   c0,0-46.69-0.839-60.883,0v-1.847h-1.428l-3.61-18.307l1.932-9.658"/>
	
		<line fill="none" stroke="#000000" stroke-width="0.5" stroke-linecap="round" stroke-linejoin="round" x1="55.086" y1="9.471" x2="56.514" y2="0.485"/>
	<path fill="none" stroke="#000000" stroke-width="0.5" stroke-linecap="round" stroke-linejoin="round" d="M82.967,23.957   c0,0.348-0.282,0.63-0.631,0.63h-9.404c-0.348,0-0.63-0.282-0.63-0.63l0,0c0-0.348,0.282-0.63,0.63-0.63h9.404   C82.685,23.327,82.967,23.609,82.967,23.957L82.967,23.957z"/>
	<path fill="none" stroke="#000000" stroke-width="0.5" stroke-linecap="round" stroke-linejoin="round" d="M118.488,31.304   c0,0-52.989-0.923-61.135,0.252v-1.092"/>
	<path fill="none" stroke="#000000" stroke-width="0.5" stroke-linecap="round" stroke-linejoin="round" d="M57.605,31.472   c0,0,2.016,2.52,1.848,11.589"/>
	<path fill="none" stroke="#000000" stroke-width="0.5" stroke-linecap="round" stroke-linejoin="round" d="M129.153,44.741   l-68.021-0.84l0.504,1.932c0,0,54.836-0.252,66.341,0.168"/>
	<path fill="none" stroke="#000000" stroke-width="0.5" stroke-linecap="round" stroke-linejoin="round" d="M127.138,47.26   c0,0-52.821-0.839-66.845,0l-0.168-3.527l-0.588-0.084v-0.84c0,0,56.096,1.26,70.54,0.672"/>
	<path fill="none" stroke="#000000" stroke-width="0.5" stroke-linecap="round" stroke-linejoin="round" d="M99.174,31.304   c0,0-2.352,7.558-0.42,12.177"/>
	<path fill="none" stroke="#000000" stroke-width="0.5" stroke-linecap="round" stroke-linejoin="round" d="M80.111,31.136   c0,0-2.1,6.047,0.588,11.925l0.252-12.092"/>
	<path fill="none" stroke="#000000" stroke-width="0.5" stroke-linecap="round" stroke-linejoin="round" d="M71.462,31.136   c0,0-2.268,6.467,1.092,11.925"/>
	<path fill="none" stroke="#000000" stroke-width="0.5" stroke-linecap="round" stroke-linejoin="round" d="M66.676,31.304   c0,0-2.52,5.794,0.84,9.909l3.946,0.168"/>
	<path fill="none" stroke="#000000" stroke-width="0.5" stroke-linecap="round" stroke-linejoin="round" d="M82.799,5.482   c0,0.58-0.471,1.05-1.05,1.05H71.252c-0.58,0-1.05-0.47-1.05-1.05l0,0c0-0.58,0.47-1.05,1.05-1.05h10.497   C82.328,4.432,82.799,4.902,82.799,5.482L82.799,5.482z"/>
	<path fill="none" stroke="#000000" stroke-width="0.5" stroke-linecap="round" stroke-linejoin="round" d="M148.972,6.237   c0,0.626-0.508,1.134-1.134,1.134h-9.909c-0.626,0-1.134-0.508-1.134-1.134l0,0c0-0.626,0.508-1.133,1.134-1.133h9.909   C148.464,5.104,148.972,5.611,148.972,6.237L148.972,6.237z"/>
	<polyline fill="none" stroke="#000000" stroke-width="0.5" stroke-linecap="round" stroke-linejoin="round" points="137.047,6.783    147.292,6.783 148.3,7.12  "/>
	
		<ellipse fill="none" stroke="#000000" stroke-width="0.5" stroke-linecap="round" stroke-linejoin="round" cx="154.01" cy="3.844" rx="2.099" ry="1.427"/>
	
		<ellipse fill="none" stroke="#000000" stroke-width="0.5" stroke-linecap="round" stroke-linejoin="round" cx="132.303" cy="3.802" rx="2.394" ry="1.05"/>
	
		<ellipse fill="none" stroke="#000000" stroke-width="0.5" stroke-linecap="round" stroke-linejoin="round" cx="112.568" cy="3.634" rx="2.393" ry="1.05"/>
	
		<ellipse fill="none" stroke="#000000" stroke-width="0.5" stroke-linecap="round" stroke-linejoin="round" cx="132.232" cy="3.76" rx="1.204" ry="0.583"/>
	
		<ellipse fill="none" stroke="#000000" stroke-width="0.5" stroke-linecap="round" stroke-linejoin="round" cx="112.526" cy="3.76" rx="1.204" ry="0.583"/>
	
		<ellipse fill="none" stroke="#000000" stroke-width="0.5" stroke-linecap="round" stroke-linejoin="round" cx="125.71" cy="23.915" rx="1.204" ry="0.583"/>
	<path fill="none" stroke="#000000" stroke-width="0.5" stroke-linecap="round" stroke-linejoin="round" d="M0.25,1.073   c0,0,75.411-3.022,192.809,2.52"/>
	
		<ellipse fill="none" stroke="#000000" stroke-width="0.5" stroke-linecap="round" stroke-linejoin="round" cx="125.626" cy="23.999" rx="1.847" ry="1.386"/>
	<path fill="none" stroke="#000000" stroke-width="0.5" stroke-linecap="round" stroke-linejoin="round" d="M137.915,31.697   c0,0,0.616,0.448,1.288-0.336l0.044-0.092l1.468-3.099c0,0,0.615-0.448-0.673-1.12c-1.287-0.672-5.206-2.967-5.206-2.967   s-0.784-0.672-1.512-0.112c-0.728,0.56-4.086,2.911-4.086,2.911s-1.344,0.336,0.392,1.176c1.548,0.75,6.794,3.058,7.909,3.547   c0.134,0.059,0.208,0.092,0.208,0.092"/>
	<path fill="none" stroke="#000000" stroke-width="0.5" stroke-linecap="round" stroke-linejoin="round" d="M128.286,17.701   c0,0-0.561-0.672-1.96-0.28s-5.767,1.68-5.767,1.68s-1.398,0.28-0.84,0.839c0,0,4.087,5.431,5.879,5.991   c1.791,0.56,1.902-0.112,2.688-0.56c0.783-0.448,3.303-2.52,3.303-2.52s1.007-0.56,0.448-1.119   c-0.561-0.56-3.639-2.631-3.919-4.031"/>
	<path fill="none" stroke="#000000" stroke-width="0.5" stroke-linecap="round" stroke-linejoin="round" d="M121.008,21.451   l5.15-1.959c0,0,1.064-0.448,1.567,0.56c0.504,1.008,3.08,3.359,3.08,3.359"/>
	<path fill="none" stroke="#000000" stroke-width="0.5" stroke-linecap="round" stroke-linejoin="round" d="M130.357,28.449   l2.52-2.351c0,0,0.671-0.728,1.511,0.111c0.84,0.84,5.486,3.08,5.486,3.08"/>
	<path fill="none" stroke="#000000" stroke-width="0.5" stroke-linecap="round" stroke-linejoin="round" d="M149.336,32.424   l-0.392-0.896c0,0,0.167-0.28-0.952-0.56c-1.119-0.28-2.407-0.56-2.407-0.56"/>
	
		<line fill="none" stroke="#000000" stroke-width="0.5" stroke-linecap="round" stroke-linejoin="round" x1="132.513" y1="11.57" x2="54.667" y2="10.562"/>
	<path fill="none" stroke="#000000" stroke-width="0.5" stroke-linecap="round" stroke-linejoin="round" d="M132.303,12.326   l-4.073-0.168c0,0-1.008-0.042-1.134,0.588c-0.126,0.63-0.336,2.729-0.336,2.729l-6.929,2.1c0,0-1.553,0.545-0.839-0.714   c0.713-1.26,3.443-5.375,3.443-5.375"/>
	<path fill="none" stroke="#000000" stroke-width="0.5" stroke-linecap="round" stroke-linejoin="round" d="M132.009,14.047   l-4.199,0.084l0.084,0.546h1.386v0.504h-0.63l0.084,0.63h1.26l0.21,0.419l-0.63,0.084l0.126,0.755l0.825-0.209l0.562,0.447   l-0.562,0.393l0.112,0.447l0.952-0.28l0.448,0.56l-0.561,0.112l0.28,0.56l1.287-0.112l0.225,0.392l-0.672,0.28l0.447,0.448   l0.784-0.336l0.336,0.448l-0.168,0.447l0.28,0.504l0.84-0.28l0.447,0.335l-0.447,0.504l0.447,0.279l0.672-0.392l0.561,0.448   l-0.28,0.56l0.56,0.28l0.561-0.28l0.559,0.224l-0.167,0.616l0.84,0.392l0.279-0.448l0.448,0.168l-0.111,0.728l0.503,0.28   l0.729-0.56l0.56,0.392l-0.28,0.84l0.84,0.168l0.169-0.728l0.671,0.28v0.84l0.673,0.28l0.055-0.672l0.952,0.28v0.952h0.56   l0.112-0.728l1.008,0.168v1.119h0.56l0.224-0.615c0,0,1.288,0.28,2.407,0.56c1.119,0.28,0.952,0.56,0.952,0.56l0.616,1.287"/>
	<polyline fill="none" stroke="#000000" stroke-width="0.5" stroke-linecap="round" stroke-linejoin="round" points="   127.894,14.677 127.39,16.581 128.063,16.581 128.51,15.349  "/>
	<polyline fill="none" stroke="#000000" stroke-width="0.5" stroke-linecap="round" stroke-linejoin="round" points="   128.733,15.811 128.286,17.588 129.238,17.645  "/>
	<polyline fill="none" stroke="#000000" stroke-width="0.5" stroke-linecap="round" stroke-linejoin="round" points="129.63,16.468    129.238,18.708 130.078,18.708  "/>
	<polyline fill="none" stroke="#000000" stroke-width="0.5" stroke-linecap="round" stroke-linejoin="round" points="130.47,18.148    130.189,19.939 131.422,19.66  "/>
	<polyline fill="none" stroke="#000000" stroke-width="0.5" stroke-linecap="round" stroke-linejoin="round" points="131.589,19.1    131.477,20.779 132.484,20.667  "/>
	<polyline fill="none" stroke="#000000" stroke-width="0.5" stroke-linecap="round" stroke-linejoin="round" points="132.82,20.108    132.429,22.067 133.548,21.619  "/>
	<polyline fill="none" stroke="#000000" stroke-width="0.5" stroke-linecap="round" stroke-linejoin="round" points="   134.108,20.948 133.548,22.739 134.668,22.459  "/>
	<polyline fill="none" stroke="#000000" stroke-width="0.5" stroke-linecap="round" stroke-linejoin="round" points="   136.516,22.627 136.067,24.418 136.627,24.418 136.907,23.019  "/>
	
		<line fill="none" stroke="#000000" stroke-width="0.5" stroke-linecap="round" stroke-linejoin="round" x1="139.483" y1="24.307" x2="138.867" y2="26.098"/>
	
		<line fill="none" stroke="#000000" stroke-width="0.5" stroke-linecap="round" stroke-linejoin="round" x1="139.426" y1="26.377" x2="139.986" y2="24.586"/>
	<polyline fill="none" stroke="#000000" stroke-width="0.5" stroke-linecap="round" stroke-linejoin="round" points="   138.027,23.299 137.188,25.37 138.027,25.818 138.698,23.971  "/>
	<polyline fill="none" stroke="#000000" stroke-width="0.5" stroke-linecap="round" stroke-linejoin="round" points="   140.994,25.258 140.435,27.049 140.827,27.609 141.834,25.426  "/>
	<path fill="none" stroke="#000000" stroke-width="0.5" stroke-linecap="round" stroke-linejoin="round" d="M142.674,25.818   l-0.504,2.407c0,0-1.176,1.96-2.016,3.527c-0.84,1.567,0.615,1.231,0.615,1.231l5.991,2.239"/>
	<polyline fill="none" stroke="#000000" stroke-width="0.5" stroke-linecap="round" stroke-linejoin="round" points="   142.226,28.337 142.897,28.617 143.347,26.098  "/>
	
		<line fill="none" stroke="#000000" stroke-width="0.5" stroke-linecap="round" stroke-linejoin="round" x1="133.828" y1="19.772" x2="133.381" y2="21.619"/>
	<polyline fill="none" stroke="#000000" stroke-width="0.5" stroke-linecap="round" stroke-linejoin="round" points="   134.948,21.788 134.388,23.299 134.948,23.579 135.563,22.011  "/>
	<polyline fill="none" stroke="#000000" stroke-width="0.5" stroke-linecap="round" stroke-linejoin="round" points="   135.116,23.579 135.676,23.131 136.235,21.619  "/>
	
		<line fill="none" stroke="#000000" stroke-width="0.5" stroke-linecap="round" stroke-linejoin="round" x1="135.116" y1="20.892" x2="134.78" y2="22.179"/>
	<polyline fill="none" stroke="#000000" stroke-width="0.5" stroke-linecap="round" stroke-linejoin="round" points="   144.354,26.658 143.01,30.213 143.639,30.423 144.913,26.658  "/>
	<polyline fill="none" stroke="#000000" stroke-width="0.5" stroke-linecap="round" stroke-linejoin="round" points="   145.948,27.147 144.646,30.927 145.318,31.136 146.593,27.217  "/>
	<path fill="none" stroke="#000000" stroke-width="0.5" stroke-linecap="round" stroke-linejoin="round" d="M60.713,47.204   c0,0,2.352,1.791,2.015,9.853h34.935c0,0-1.008-4.814,0.672-9.853"/>
	<path fill="none" stroke="#000000" stroke-width="0.5" stroke-linecap="round" stroke-linejoin="round" d="M69.446,46.98   c0,0-2.128,4.143,0.336,8.622l3.778,0.056"/>
	<path fill="none" stroke="#000000" stroke-width="0.5" stroke-linecap="round" stroke-linejoin="round" d="M73.365,47.204   c0,0-2.016,6.046,1.12,9.741"/>
	<path fill="none" stroke="#000000" stroke-width="0.5" stroke-linecap="round" stroke-linejoin="round" d="M80.979,46.98   c0,0-2.352,6.382,0.784,9.741V46.98"/>
	<polyline fill="none" stroke="#000000" stroke-width="0.5" stroke-linecap="round" stroke-linejoin="round" points="62.728,57.057    62.728,57.841 119.272,58.065  "/>
	<path fill="none" stroke="#000000" stroke-width="0.5" stroke-linecap="round" stroke-linejoin="round" d="M117.033,60.864   L63.513,61.76c0,0,0.111-2.128-0.225-3.583"/>
	<path fill="none" stroke="#000000" stroke-width="0.5" stroke-linecap="round" stroke-linejoin="round" d="M102.253,72.173   l-36.165,0.223c0,0,0.447-1.118-0.337-2.238"/>
	
		<line fill="none" stroke="#000000" stroke-width="0.5" stroke-linecap="round" stroke-linejoin="round" x1="102.478" y1="70.494" x2="66.088" y2="70.941"/>
	<path fill="none" stroke="#000000" stroke-width="0.5" stroke-linecap="round" stroke-linejoin="round" d="M97.438,61.2   c0,0-1.008,5.374-0.336,8.733"/>
	<path fill="none" stroke="#000000" stroke-width="0.5" stroke-linecap="round" stroke-linejoin="round" d="M97.215,70.158   l-31.352-0.336c0,0-1.231-0.449-1.231-1.568s0.225-4.478-1.119-6.493"/>
	<path fill="none" stroke="#000000" stroke-width="0.5" stroke-linecap="round" stroke-linejoin="round" d="M82.547,69.597   l-0.225-8.062c0,0-2.351,5.375,0.337,8.286"/>
	<path fill="none" stroke="#000000" stroke-width="0.5" stroke-linecap="round" stroke-linejoin="round" d="M70.566,61.76   c0,0-1.218,3.919,1.021,6.157"/>
	<path fill="none" stroke="#000000" stroke-width="0.5" stroke-linecap="round" stroke-linejoin="round" d="M75.044,61.76   c0,0-2.015,5.933,0.784,7.837"/>
	
		<line fill="none" stroke="#000000" stroke-width="0.5" stroke-linecap="round" stroke-linejoin="round" x1="71.462" y1="67.917" x2="74.709" y2="67.917"/>
	<path fill="none" stroke="#000000" stroke-width="0.5" stroke-linecap="round" stroke-linejoin="round" d="M65.863,72.733   c0,0,1.344,1.903,1.344,6.382c0,0,17.69,0.448,34.15-0.336"/>
	<path fill="none" stroke="#000000" stroke-width="0.5" stroke-linecap="round" stroke-linejoin="round" d="M96.654,72.396   c0,0-0.783,2.465,0,6.383"/>
	<path fill="none" stroke="#000000" stroke-width="0.5" stroke-linecap="round" stroke-linejoin="round" d="M82.883,72.396   c0,0-2.575,4.48,0.783,6.719l-0.447-6.941"/>
	<path fill="none" stroke="#000000" stroke-width="0.5" stroke-linecap="round" stroke-linejoin="round" d="M76.388,72.173   c0,0-2.127,5.262,0.673,6.941"/>
	<path fill="none" stroke="#000000" stroke-width="0.5" stroke-linecap="round" stroke-linejoin="round" d="M72.245,72.621   c0,0-0.111,3.248,0.896,4.591h2.687"/>
	<path fill="none" stroke="#000000" stroke-width="0.5" stroke-linecap="round" stroke-linejoin="round" d="M67.768,79.115   c0,0,0.224,1.119,0.224,2.24h32.807"/>
	<path fill="none" stroke="#000000" stroke-width="0.5" stroke-linecap="round" stroke-linejoin="round" d="M68.663,81.355   c0,0-0.449,3.695,0.447,5.598l34.514,0.279"/>
	<path fill="none" stroke="#000000" stroke-width="0.5" stroke-linecap="round" stroke-linejoin="round" d="M96.543,81.355   c0,0-1.345,3.021-0.225,5.037h5.823"/>
	<path fill="none" stroke="#000000" stroke-width="0.5" stroke-linecap="round" stroke-linejoin="round" d="M77.284,81.69   c0,0-1.119,3.695,0.56,4.479l5.935-0.113c-1.903-1.231-0.336-4.701-0.336-4.701"/>
	<path fill="none" stroke="#000000" stroke-width="0.5" stroke-linecap="round" stroke-linejoin="round" d="M73.925,81.69   c0,0-0.671,2.353,0.784,3.919h2.575"/>
	<path fill="none" stroke="#000000" stroke-width="0.5" stroke-linecap="round" stroke-linejoin="round" d="M193.395,6.224   L168.09,5.44c0,0-1.344,1.903-2.351,4.702l-2.688-7.669"/>
	<path fill="none" stroke="#000000" stroke-width="0.5" stroke-linecap="round" stroke-linejoin="round" d="M193.059,12.382   l-22.953,0.224c0,0-1.232-5.71-2.016-7.166"/>
	<path fill="none" stroke="#000000" stroke-width="0.5" stroke-linecap="round" stroke-linejoin="round" d="M168.985,27.162   c0,0,24.634,1.344,24.634,0.672"/>
	
		<line fill="none" stroke="#000000" stroke-width="0.5" stroke-linecap="round" stroke-linejoin="round" x1="168.622" y1="28.281" x2="193.171" y2="28.953"/>
	
		<line fill="none" stroke="#000000" stroke-width="0.5" stroke-linecap="round" stroke-linejoin="round" x1="167.418" y1="30.969" x2="193.395" y2="30.745"/>
	<path fill="none" stroke="#000000" stroke-width="0.5" stroke-linecap="round" stroke-linejoin="round" d="M166.858,32.313   c0,0,21.609-1.008,26.313-0.224"/>
	
		<line fill="none" stroke="#000000" stroke-width="0.5" stroke-linecap="round" stroke-linejoin="round" x1="162.24" y1="44.404" x2="193.395" y2="44.404"/>
	<path fill="none" stroke="#000000" stroke-width="0.5" stroke-linecap="round" stroke-linejoin="round" d="M161.261,46.644   c0,0,28.887-0.896,31.91-0.335"/>
	<path fill="none" stroke="#000000" stroke-width="0.5" stroke-linecap="round" stroke-linejoin="round" d="M160.699,48.1   c0,0,26.762-1.232,32.695-0.672"/>
	<path fill="none" stroke="#000000" stroke-width="0.5" stroke-linecap="round" stroke-linejoin="round" d="M156.222,58.065   c0,0,34.487-0.448,36.949-0.224"/>
	<path fill="none" stroke="#000000" stroke-width="0.5" stroke-linecap="round" stroke-linejoin="round" d="M155.102,60.64   c0,0,37.733-1.008,38.293-0.784"/>
	<path fill="none" stroke="#000000" stroke-width="0.5" stroke-linecap="round" stroke-linejoin="round" d="M153.981,62.096   c0,0,37.51-1.567,39.189-1.119"/>
	<path fill="none" stroke="#000000" stroke-width="0.5" stroke-linecap="round" stroke-linejoin="round" d="M148.943,70.158   c-2.403,0.063,46.108,0.268,44.451-0.561"/>
	
		<line fill="none" stroke="#000000" stroke-width="0.5" stroke-linecap="round" stroke-linejoin="round" x1="146.816" y1="79.338" x2="193.282" y2="78.332"/>
	<path fill="none" stroke="#000000" stroke-width="0.5" stroke-linecap="round" stroke-linejoin="round" d="M144.577,84.154   c0,0-0.449,2.799,3.358,2.799s39.077-0.561,39.077-0.561c1.68-2.016,1.68-6.941,1.68-6.941   c-16.235-0.224-42.212,1.344-42.212,1.344"/>
	<path fill="none" stroke="#000000" stroke-width="0.5" stroke-linecap="round" stroke-linejoin="round" d="M193.282,79.115   l-3.694,0.336c0,0-0.224,5.822-1.903,6.941l5.822-0.223"/>
	<path fill="none" stroke="#000000" stroke-width="0.5" stroke-linecap="round" stroke-linejoin="round" d="M166.299,10.254   l1.68-3.135c0,0,1.344,3.135,1.68,6.494c0,0,23.625-0.896,23.849-0.336"/>
	<path fill="none" stroke="#000000" stroke-width="0.5" stroke-linecap="round" stroke-linejoin="round" d="M192.388,13.39   c0,0-4.703,11.533-8.063,14.444"/>
	<path fill="none" stroke="#000000" stroke-width="0.5" stroke-linecap="round" stroke-linejoin="round" d="M182.869,13.39   l-6.157,12.204l0.224,1.792c3.583-6.158,7.055-14.332,7.055-14.332"/>
	<path fill="none" stroke="#000000" stroke-width="0.5" stroke-linecap="round" stroke-linejoin="round" d="M178.167,13.614   c0,0-6.271,4.479-6.271,9.517c0,0-0.783,2.016,2.016,2.24c2.8,0.223,3.136-0.224,3.136-0.224"/>
	
		<line fill="none" stroke="#000000" stroke-width="0.5" stroke-linecap="round" stroke-linejoin="round" x1="168.65" y1="22.795" x2="172.009" y2="22.571"/>
	<path fill="none" stroke="#000000" stroke-width="0.5" stroke-linecap="round" stroke-linejoin="round" d="M182.311,32.088   c0,0-4.927,9.853-6.942,12.316"/>
	<path fill="none" stroke="#000000" stroke-width="0.5" stroke-linecap="round" stroke-linejoin="round" d="M173.017,32.088   c0,0-3.808,8.733-4.927,9.853l0.225,2.24c1.456-2.239,5.822-12.093,5.822-12.093"/>
	<path fill="none" stroke="#000000" stroke-width="0.5" stroke-linecap="round" stroke-linejoin="round" d="M163.611,39.926   c0,0,0.224,1.679,2.463,1.679l2.24-0.224"/>
	<path fill="none" stroke="#000000" stroke-width="0.5" stroke-linecap="round" stroke-linejoin="round" d="M173.353,47.764   c-6.69,12.47-6.198,10.135-5.374,9.518"/>
	<path fill="none" stroke="#000000" stroke-width="0.5" stroke-linecap="round" stroke-linejoin="round" d="M166.019,47.932   c0,0-3.862,9.125-4.422,9.685"/>
	<path fill="none" stroke="#000000" stroke-width="0.5" stroke-linecap="round" stroke-linejoin="round" d="M164.955,48.1   c0,0-3.247,6.942-3.694,7.502v2.239"/>
	<path fill="none" stroke="#000000" stroke-width="0.5" stroke-linecap="round" stroke-linejoin="round" d="M157.117,55.042   c0,0,0.896,0.56,1.68,0.56h2.464"/>
	<path fill="none" stroke="#000000" stroke-width="0.5" stroke-linecap="round" stroke-linejoin="round" d="M180.07,61.536   c0,0-3.135,6.942-4.478,8.062c0,0-2.464-1.68-1.904-3.359"/>
	<path fill="none" stroke="#000000" stroke-width="0.5" stroke-linecap="round" stroke-linejoin="round" d="M162.94,66.462   l10.748-0.225c0,0,2.351-0.559,6.158-4.478"/>
	<path fill="none" stroke="#000000" stroke-width="0.5" stroke-linecap="round" stroke-linejoin="round" d="M189.028,47.428   c0,0-3.808,8.174-5.823,9.854"/>
	<path fill="none" stroke="#000000" stroke-width="0.5" stroke-linecap="round" stroke-linejoin="round" d="M183.094,57.617   c0,0-2.128-2.351-1.568-4.254l-11.531,0.784"/>
	<path fill="none" stroke="#000000" stroke-width="0.5" stroke-linecap="round" stroke-linejoin="round" d="M165.515,61.788   c0,0-3.526,6.466-4.954,8.146"/>
	<path fill="none" stroke="#000000" stroke-width="0.5" stroke-linecap="round" stroke-linejoin="round" d="M158.797,61.956   c0,0-2.435,6.214-3.526,7.726l-0.673-1.848c0,0,3.275-5.458,3.191-5.878"/>
	<path fill="none" stroke="#000000" stroke-width="0.5" stroke-linecap="round" stroke-linejoin="round" d="M150.651,66.574   c0,0,0.84,2.939,3.946,1.26"/>
	<path fill="none" stroke="#000000" stroke-width="0.5" stroke-linecap="round" stroke-linejoin="round" d="M155.941,78.919   c0.421-0.253,3.779-6.635,3.779-6.635l13.268-0.84c0.252,1.932-4.03,7.475-4.03,7.475s-1.428-2.268-1.428-3.527"/>
	<path fill="none" stroke="#000000" stroke-width="0.5" stroke-linecap="round" stroke-linejoin="round" d="M158.041,75.644   l9.237-0.252c0,0,5.206-2.52,5.458-3.779"/>
	<path fill="none" stroke="#000000" stroke-width="0.5" stroke-linecap="round" stroke-linejoin="round" d="M153.591,71.865   c0,0-2.352,6.215-3.36,7.307"/>
	<polyline fill="none" stroke="#000000" stroke-width="0.5" stroke-linecap="round" stroke-linejoin="round" points="   150.482,79.171 150.063,77.324 152.835,71.865  "/>
	<path fill="none" stroke="#000000" stroke-width="0.5" stroke-linecap="round" stroke-linejoin="round" d="M147.544,77.492   c0,0,1.932,0.503,2.52-0.168"/>
	<path fill="none" stroke="#000000" stroke-width="0.5" stroke-linecap="round" stroke-linejoin="round" d="M153.254,83.37h9.153   c0,0,3.611-1.596,4.451-2.688"/>
	<path fill="none" stroke="#000000" stroke-width="0.5" stroke-linecap="round" stroke-linejoin="round" d="M162.072,83.538   c0,0-0.084,2.688,0.587,3.022c0,0,4.451-5.458,4.199-5.878c-0.252-0.419-12.177,0.42-12.177,0.42s-2.435,3.946-3.107,4.366   c-0.671,0.421-5.038,0.252-5.038,0.252s-1.26-0.42-0.672-1.259c0.588-0.84,2.52-3.779,2.52-3.779"/>
	<path fill="none" stroke="#000000" stroke-width="0.5" stroke-linecap="round" stroke-linejoin="round" d="M0.474,2.529   c0,0,44.899-1.679,50.75-0.434l1.386,6.872"/>
	<path fill="none" stroke="#000000" stroke-width="0.5" stroke-linecap="round" stroke-linejoin="round" d="M47.164,10.926"/>
	
		<ellipse fill="none" stroke="#000000" stroke-width="0.5" stroke-linecap="round" stroke-linejoin="round" cx="45.135" cy="11.108" rx="1.469" ry="0.882"/>
	<path fill="none" stroke="#000000" stroke-width="0.5" stroke-linecap="round" stroke-linejoin="round" d="M0.586,3.341   l16.124-0.504c0,0,3.527,5.962,6.802,6.97"/>
	
		<ellipse fill="none" stroke="#000000" stroke-width="0.5" stroke-linecap="round" stroke-linejoin="round" cx="45.135" cy="11.171" rx="2.141" ry="1.449"/>
	
		<line fill="none" stroke="#000000" stroke-width="0.5" stroke-linecap="round" stroke-linejoin="round" x1="23.637" y1="9.891" x2="43.078" y2="10.437"/>
	<path fill="none" stroke="#000000" stroke-width="0.5" stroke-linecap="round" stroke-linejoin="round" d="M47.276,10.521h2.646   c0,0,1.176-8.817,1.26-8.397"/>
	<path fill="none" stroke="#000000" stroke-width="0.5" stroke-linecap="round" stroke-linejoin="round" d="M47.024,11.906h3.359   l0.588-3.107c0,0,2.939,11.589,2.1,16.375"/>
	
		<ellipse fill="none" stroke="#000000" stroke-width="0.5" stroke-linecap="round" stroke-linejoin="round" cx="48.683" cy="26.14" rx="1.827" ry="1.302"/>
	
		<ellipse fill="none" stroke="#000000" stroke-width="0.5" stroke-linecap="round" stroke-linejoin="round" cx="48.725" cy="26.161" rx="0.987" ry="0.609"/>
	
		<ellipse fill="none" stroke="#000000" stroke-width="0.5" stroke-linecap="round" stroke-linejoin="round" cx="49.964" cy="30.738" rx="1.679" ry="1.322"/>
	
		<ellipse fill="none" stroke="#000000" stroke-width="0.5" stroke-linecap="round" stroke-linejoin="round" cx="50.027" cy="30.738" rx="0.945" ry="0.692"/>
	
		<ellipse fill="none" stroke="#000000" stroke-width="0.5" stroke-linecap="round" stroke-linejoin="round" cx="52.945" cy="42.893" rx="1.722" ry="1.134"/>
	
		<ellipse fill="none" stroke="#000000" stroke-width="0.5" stroke-linecap="round" stroke-linejoin="round" cx="52.924" cy="42.872" rx="1.197" ry="0.525"/>
	
		<ellipse fill="none" stroke="#000000" stroke-width="0.5" stroke-linecap="round" stroke-linejoin="round" cx="53.932" cy="47.134" rx="1.575" ry="0.882"/>
	
		<ellipse fill="none" stroke="#000000" stroke-width="0.5" stroke-linecap="round" stroke-linejoin="round" cx="53.952" cy="47.008" rx="0.84" ry="0.588"/>
	
		<ellipse fill="none" stroke="#000000" stroke-width="0.5" stroke-linecap="round" stroke-linejoin="round" cx="56.556" cy="56.938" rx="1.26" ry="0.693"/>
	
		<ellipse fill="none" stroke="#000000" stroke-width="0.5" stroke-linecap="round" stroke-linejoin="round" cx="57.396" cy="61.662" rx="1.26" ry="0.798"/>
	
		<ellipse fill="none" stroke="#000000" stroke-width="0.5" stroke-linecap="round" stroke-linejoin="round" cx="59.747" cy="69.808" rx="0.882" ry="0.503"/>
	
		<ellipse fill="none" stroke="#000000" stroke-width="0.5" stroke-linecap="round" stroke-linejoin="round" cx="60.461" cy="72.327" rx="0.882" ry="0.504"/>
	
		<ellipse fill="none" stroke="#000000" stroke-width="0.5" stroke-linecap="round" stroke-linejoin="round" cx="62.393" cy="79.128" rx="0.882" ry="0.357"/>
	
		<ellipse fill="none" stroke="#000000" stroke-width="0.5" stroke-linecap="round" stroke-linejoin="round" cx="62.896" cy="81.312" rx="0.882" ry="0.357"/>
	
		<ellipse fill="none" stroke="#000000" stroke-width="0.5" stroke-linecap="round" stroke-linejoin="round" cx="64.324" cy="87.148" rx="0.882" ry="0.357"/>
	<path fill="none" stroke="#000000" stroke-width="0.5" stroke-linecap="round" stroke-linejoin="round" d="M50.523,25.482   l2.408-0.167c0,0,0.504,1.287,0.111,1.399l-2.631,0.167"/>
	<path fill="none" stroke="#000000" stroke-width="0.5" stroke-linecap="round" stroke-linejoin="round" d="M43.078,11.878   l-0.504-0.112c0,0,3.471,3.415,3.471,11.421"/>
	<path fill="none" stroke="#000000" stroke-width="0.5" stroke-linecap="round" stroke-linejoin="round" d="M45.933,23.243   c0,0-0.335,2.016-0.896,2.52"/>
	<path fill="none" stroke="#000000" stroke-width="0.5" stroke-linecap="round" stroke-linejoin="round" d="M46.772,25.986   L28.41,26.322c0,0,2.52-4.646-0.84-8.286"/>
	<polyline fill="none" stroke="#000000" stroke-width="0.5" stroke-linecap="round" stroke-linejoin="round" points="27.402,17.924    43.525,17.645 43.974,16.636  "/>
	<path fill="none" stroke="#000000" stroke-width="0.5" stroke-linecap="round" stroke-linejoin="round" d="M42.687,11.71   c0,0-0.672-0.672-2.352-0.672s-17.803-0.728-17.803-0.728s3.582,3.191,4.646,6.774"/>
	<polyline fill="none" stroke="#000000" stroke-width="0.5" stroke-linecap="round" stroke-linejoin="round" points="27.291,17.364    42.966,17.084 43.694,16.524  "/>
	<path fill="none" stroke="#000000" stroke-width="0.5" stroke-linecap="round" stroke-linejoin="round" d="M0.474,4.152   l15.731-0.224c0,0,2.296,4.759,4.143,5.599"/>
	<path fill="none" stroke="#000000" stroke-width="0.5" stroke-linecap="round" stroke-linejoin="round" d="M20.236,9.527   c0,0,0.952,0.952,0,1.511"/>
	
		<line fill="none" stroke="#000000" stroke-width="0.5" stroke-linecap="round" stroke-linejoin="round" x1="20.068" y1="11.038" x2="0.25" y2="10.926"/>
	<path fill="none" stroke="#000000" stroke-width="0.5" stroke-linecap="round" stroke-linejoin="round" d="M20.796,10.758   c0,0,9.405,13.996,5.318,15.956"/>
	<path fill="none" stroke="#000000" stroke-width="0.5" stroke-linecap="round" stroke-linejoin="round" d="M0.362,26.714   l25.585,0.167c0,0-0.448,1.624,1.959,2.744"/>
	<path fill="none" stroke="#000000" stroke-width="0.5" stroke-linecap="round" stroke-linejoin="round" d="M41.79,11.318   c0,0,0.616,5.262,1.288,5.43"/>
	<path fill="none" stroke="#000000" stroke-width="0.5" stroke-linecap="round" stroke-linejoin="round" d="M43.358,17.756   c0,0,0.728,5.991,1.623,8.23"/>
	<path fill="none" stroke="#000000" stroke-width="0.5" stroke-linecap="round" stroke-linejoin="round" d="M46.157,23.355   c0,0,4.534-0.392,6.998-0.112"/>
	<path fill="none" stroke="#000000" stroke-width="0.5" stroke-linecap="round" stroke-linejoin="round" d="M56.234,19.716h2.071   c0,0-0.279,7.054-0.561,7.39"/>
	
		<line fill="none" stroke="#000000" stroke-width="0.5" stroke-linecap="round" stroke-linejoin="round" x1="46.997" y1="26.826" x2="28.187" y2="26.826"/>
	<polyline fill="none" stroke="#000000" stroke-width="0.5" stroke-linecap="round" stroke-linejoin="round" points="27.962,29.905    27.794,31.025 0.362,30.464  "/>
	<path fill="none" stroke="#000000" stroke-width="0.5" stroke-linecap="round" stroke-linejoin="round" d="M27.906,31.025   c0,0,8.565,9.517,4.646,12.876"/>
	
		<line fill="none" stroke="#000000" stroke-width="0.5" stroke-linecap="round" stroke-linejoin="round" x1="32.553" y1="44.069" x2="0.474" y2="43.901"/>
	<path fill="none" stroke="#000000" stroke-width="0.5" stroke-linecap="round" stroke-linejoin="round" d="M55.115,23.635   c0,0-1.12,6.55-0.729,6.83h-2.799"/>
	<path fill="none" stroke="#000000" stroke-width="0.5" stroke-linecap="round" stroke-linejoin="round" d="M48.229,30.464   l-17.635-0.391c0,0-0.28-0.112-0.84-0.56c0,0-3.191-3.08-3.079-3.359"/>
	<path fill="none" stroke="#000000" stroke-width="0.5" stroke-linecap="round" stroke-linejoin="round" d="M30.481,29.961   c0,0,6.494,9.909,3.919,13.268"/>
	<polyline fill="none" stroke="#000000" stroke-width="0.5" stroke-linecap="round" stroke-linejoin="round" points="34.121,36.399    48.229,36.119 48.508,35  "/>
	<path fill="none" stroke="#000000" stroke-width="0.5" stroke-linecap="round" stroke-linejoin="round" d="M48.396,35.391   c0,0-1.455-2.799-1.567-4.759c0,0,5.542,7.11,2.688,11.757"/>
	<path fill="none" stroke="#000000" stroke-width="0.5" stroke-linecap="round" stroke-linejoin="round" d="M54.387,30.464   c0,0,2.8,4.423,2.519,11.757"/>
	<polyline fill="none" stroke="#000000" stroke-width="0.5" stroke-linecap="round" stroke-linejoin="round" points="54.667,43.229    56.905,43.229 56.905,42.389 54.667,42.389  "/>
	
		<line fill="none" stroke="#000000" stroke-width="0.5" stroke-linecap="round" stroke-linejoin="round" x1="51.307" y1="43.509" x2="34.512" y2="43.509"/>
	
		<line fill="none" stroke="#000000" stroke-width="0.5" stroke-linecap="round" stroke-linejoin="round" x1="51.195" y1="42.557" x2="34.681" y2="42.837"/>
	<path fill="none" stroke="#000000" stroke-width="0.5" stroke-linecap="round" stroke-linejoin="round" d="M48.229,36.119   c0,0,1.735,4.255,1.231,6.382"/>
	<path fill="none" stroke="#000000" stroke-width="0.5" stroke-linecap="round" stroke-linejoin="round" d="M58.978,36.287   c0,0-0.393,8.006-1.12,10.357"/>
	
		<line fill="none" stroke="#000000" stroke-width="0.5" stroke-linecap="round" stroke-linejoin="round" x1="57.689" y1="46.644" x2="55.339" y2="46.644"/>
	<polyline fill="none" stroke="#000000" stroke-width="0.5" stroke-linecap="round" stroke-linejoin="round" points="52.371,46.644    36.416,46.644 32.777,43.285  "/>
	<path fill="none" stroke="#000000" stroke-width="0.5" stroke-linecap="round" stroke-linejoin="round" d="M57.97,46.644   c0,0,2.688,3.358,2.128,9.518h-3.08"/>
	<path fill="none" stroke="#000000" stroke-width="0.5" stroke-linecap="round" stroke-linejoin="round" d="M60.545,47.204   c0,0,2.071,6.886-0.447,10.525H0.306"/>
	<path fill="none" stroke="#000000" stroke-width="0.5" stroke-linecap="round" stroke-linejoin="round" d="M52.819,56.833   c1.848-4.255-2.071-10.189-2.071-10.189"/>
	<path fill="none" stroke="#000000" stroke-width="0.5" stroke-linecap="round" stroke-linejoin="round" d="M50.86,46.812"/>
	<path fill="none" stroke="#000000" stroke-width="0.5" stroke-linecap="round" stroke-linejoin="round" d="M51.14,46.812   c0,0,4.479,5.99,1.792,10.357"/>
	
		<line fill="none" stroke="#000000" stroke-width="0.5" stroke-linecap="round" stroke-linejoin="round" x1="60.377" y1="56.889" x2="57.97" y2="56.889"/>
	<path fill="none" stroke="#000000" stroke-width="0.5" stroke-linecap="round" stroke-linejoin="round" d="M55.17,57.169H39.271   c3.248-2.912-2.967-10.693-2.967-10.693"/>
	<polyline fill="none" stroke="#000000" stroke-width="0.5" stroke-linecap="round" stroke-linejoin="round" points="39.551,51.683    52.371,51.683 52.651,50.731  "/>
	<path fill="none" stroke="#000000" stroke-width="0.5" stroke-linecap="round" stroke-linejoin="round" d="M32.218,44.013   l1.399,1.512c0,0,1.176,1.231,0.167,1.399"/>
	
		<line fill="none" stroke="#000000" stroke-width="0.5" stroke-linecap="round" stroke-linejoin="round" x1="33.673" y1="47.036" x2="0.362" y2="46.644"/>
	<path fill="none" stroke="#000000" stroke-width="0.5" stroke-linecap="round" stroke-linejoin="round" d="M33.953,46.644   c0,0,5.822,5.822,4.311,10.245H0.362"/>
	<path fill="none" stroke="#000000" stroke-width="0.5" stroke-linecap="round" stroke-linejoin="round" d="M4.673,46.644   c0,0,0.168,8.174,5.599,10.189"/>
	<polyline fill="none" stroke="#000000" stroke-width="0.5" stroke-linecap="round" stroke-linejoin="round" points="62.728,57.841    61.331,57.782 60.098,57.729  "/>
	<path fill="none" stroke="#000000" stroke-width="0.5" stroke-linecap="round" stroke-linejoin="round" d="M61.608,57.785   c0,0-0.056,3.247-0.448,3.527"/>
	
		<line fill="none" stroke="#000000" stroke-width="0.5" stroke-linecap="round" stroke-linejoin="round" x1="61.217" y1="61.424" x2="58.81" y2="61.424"/>
	<path fill="none" stroke="#000000" stroke-width="0.5" stroke-linecap="round" stroke-linejoin="round" d="M56.01,61.312H41.622   c0,0-1.119-2.575-3.358-3.471"/>
	<path fill="none" stroke="#000000" stroke-width="0.5" stroke-linecap="round" stroke-linejoin="round" d="M36.584,57.785   l2.799,2.408c0,0,0.616,0.447,0.225,1.007"/>
	<path fill="none" stroke="#000000" stroke-width="0.5" stroke-linecap="round" stroke-linejoin="round" d="M0.474,60.752   L39.495,61.2c0,0,6.214,5.99,3.247,9.63"/>
	
		<line fill="none" stroke="#000000" stroke-width="0.5" stroke-linecap="round" stroke-linejoin="round" x1="42.687" y1="70.997" x2="0.306" y2="70.662"/>
	<path fill="none" stroke="#000000" stroke-width="0.5" stroke-linecap="round" stroke-linejoin="round" d="M12.735,60.92   c0,0,0.783,8.229,6.438,9.909"/>
	<path fill="none" stroke="#000000" stroke-width="0.5" stroke-linecap="round" stroke-linejoin="round" d="M61.496,58.513   c0,0,2.416,6.62,1.624,11.588c-0.012,0.074-0.074,0.267-0.088,0.34l-2.935-0.004"/>
	
		<line fill="none" stroke="#000000" stroke-width="0.5" stroke-linecap="round" stroke-linejoin="round" x1="62.896" y1="69.877" x2="60.769" y2="69.877"/>
	<path fill="none" stroke="#000000" stroke-width="0.5" stroke-linecap="round" stroke-linejoin="round" d="M58.865,69.808"/>
	<path fill="none" stroke="#000000" stroke-width="0.5" stroke-linecap="round" stroke-linejoin="round" d="M0.474,71.557   l43.5,0.672c0,0,0.336-0.561-0.952-1.96"/>
	<path fill="none" stroke="#000000" stroke-width="0.5" stroke-linecap="round" stroke-linejoin="round" d="M43.974,71.949   c0,0,5.318,5.935,2.799,7.67L0.418,79.115"/>
	<path fill="none" stroke="#000000" stroke-width="0.5" stroke-linecap="round" stroke-linejoin="round" d="M46.493,79.787   c0,0,1.343,0.672,1.231,1.399l-47.418-0.56"/>
	<path fill="none" stroke="#000000" stroke-width="0.5" stroke-linecap="round" stroke-linejoin="round" d="M47.725,81.186   c0,0,3.471,3.862,2.854,4.927"/>
	<path fill="none" stroke="#000000" stroke-width="0.5" stroke-linecap="round" stroke-linejoin="round" d="M50.804,87.513   c0.503-0.111-0.393-1.4-0.393-1.4l-23.904-0.168c0,0-1.567-1.399-1.848-4.759"/>
	
		<line fill="none" stroke="#000000" stroke-width="0.5" stroke-linecap="round" stroke-linejoin="round" x1="50.972" y1="87.513" x2="0.418" y2="86.225"/>
	<path fill="none" stroke="#000000" stroke-width="0.5" stroke-linecap="round" stroke-linejoin="round" d="M5.233,71.781   c0,0,0.672,7.277,4.871,7.445"/>
	<polyline fill="none" stroke="#000000" stroke-width="0.5" stroke-linecap="round" stroke-linejoin="round" points="9.935,79.226    10.104,75.196 19.621,75.196  "/>
	<path fill="none" stroke="#000000" stroke-width="0.5" stroke-linecap="round" stroke-linejoin="round" d="M19.229,71.949   c0,0,0.895,6.885,4.143,7.445"/>
	<path fill="none" stroke="#000000" stroke-width="0.5" stroke-linecap="round" stroke-linejoin="round" d="M11.951,80.738   c0,0,0.168,5.32,3.919,5.6l0.112-3.191h8.958"/>
	<path fill="none" stroke="#000000" stroke-width="0.5" stroke-linecap="round" stroke-linejoin="round" d="M6.185,80.906   c0,0,1.512,5.432,3.359,5.432"/>
	
		<line fill="none" stroke="#000000" stroke-width="0.5" stroke-linecap="round" stroke-linejoin="round" x1="58.81" y1="69.99" x2="44.253" y2="69.99"/>
	<path fill="none" stroke="#000000" stroke-width="0.5" stroke-linecap="round" stroke-linejoin="round" d="M41.622,61.312   c0,0,5.431,5.823,2.631,8.51"/>
	<path fill="none" stroke="#000000" stroke-width="0.5" stroke-linecap="round" stroke-linejoin="round" d="M63.12,66.462   c0,0,1.063,2.799,0.616,5.486h-2.128"/>
	<path fill="none" stroke="#000000" stroke-width="0.5" stroke-linecap="round" stroke-linejoin="round" d="M63.736,72.229"/>
	
		<line fill="none" stroke="#000000" stroke-width="0.5" stroke-linecap="round" stroke-linejoin="round" x1="59.537" y1="71.949" x2="45.765" y2="71.949"/>
	<path fill="none" stroke="#000000" stroke-width="0.5" stroke-linecap="round" stroke-linejoin="round" d="M64.016,71.109   c0,0,2.072,3.975,1.232,8.285h-1.792"/>
	<path fill="none" stroke="#000000" stroke-width="0.5" stroke-linecap="round" stroke-linejoin="round" d="M61.329,79.338   l-13.156,0.336c1.96-3.022-4.087-9.685-4.087-9.685"/>
	<path fill="none" stroke="#000000" stroke-width="0.5" stroke-linecap="round" stroke-linejoin="round" d="M65.136,75.14   c0,0,1.12,3.303,0.672,5.934"/>
	
		<line fill="none" stroke="#000000" stroke-width="0.5" stroke-linecap="round" stroke-linejoin="round" x1="65.808" y1="81.298" x2="63.778" y2="81.298"/>
	
		<line fill="none" stroke="#000000" stroke-width="0.5" stroke-linecap="round" stroke-linejoin="round" x1="61.888" y1="81.298" x2="49.404" y2="81.298"/>
	<path fill="none" stroke="#000000" stroke-width="0.5" stroke-linecap="round" stroke-linejoin="round" d="M48.173,79.955   c0,0,4.479,4.535,3.078,5.598c0,0,1.232,0.785,0.393,1.512"/>
	<path fill="none" stroke="#000000" stroke-width="0.5" stroke-linecap="round" stroke-linejoin="round" d="M65.976,80.738   c0,0,1.399,5.654,0.84,6.326h-1.456"/>
	
		<line fill="none" stroke="#000000" stroke-width="0.5" stroke-linecap="round" stroke-linejoin="round" x1="63.288" y1="87.344" x2="50.86" y2="87.344"/>
	<path fill="none" stroke="#000000" stroke-width="0.5" stroke-linecap="round" stroke-linejoin="round" d="M54.778,61.312   c0,0,3.191,2.24,1.792,8.398"/>
	<path fill="none" stroke="#000000" stroke-width="0.5" stroke-linecap="round" stroke-linejoin="round" d="M57.802,72.117   c0,0,3.079,1.848,2.127,7.222"/>
	<path fill="none" stroke="#000000" stroke-width="0.5" stroke-linecap="round" stroke-linejoin="round" d="M60.937,81.466   c0,0,1.96,1.735,1.232,5.766"/>
	<polyline fill="none" stroke="#000000" stroke-width="0.5" stroke-linecap="round" stroke-linejoin="round" points="44.533,65.511    56.29,65.511 56.57,64.391  "/>
	<polyline fill="none" stroke="#000000" stroke-width="0.5" stroke-linecap="round" stroke-linejoin="round" points="48.061,75.7    59.089,75.7 59.537,74.468  "/>
	
		<line fill="none" stroke="#000000" stroke-width="0.5" stroke-linecap="round" stroke-linejoin="round" x1="51.419" y1="85.665" x2="62.281" y2="85.665"/>
	<path fill="none" stroke="#000000" stroke-width="0.5" stroke-linecap="round" stroke-linejoin="round" d="M13.966,65.511H3.722   c0,0-0.952,4.029,0.279,5.15"/>
	
		<line fill="none" stroke="#000000" stroke-width="0.5" stroke-linecap="round" stroke-linejoin="round" x1="98.223" y1="39.366" x2="81.203" y2="39.366"/>
	
		<line fill="none" stroke="#000000" stroke-width="0.5" stroke-linecap="round" stroke-linejoin="round" x1="97.103" y1="53.698" x2="81.987" y2="54.034"/>
	
		<line fill="none" stroke="#000000" stroke-width="0.5" stroke-linecap="round" stroke-linejoin="round" x1="96.879" y1="66.015" x2="82.547" y2="66.574"/>
	
		<line fill="none" stroke="#000000" stroke-width="0.5" stroke-linecap="round" stroke-linejoin="round" x1="96.318" y1="75.533" x2="83.666" y2="76.091"/>
	
		<line fill="none" stroke="#000000" stroke-width="0.5" stroke-linecap="round" stroke-linejoin="round" x1="95.982" y1="83.929" x2="83.666" y2="83.929"/>
	
		<line fill="none" stroke="#000000" stroke-width="0.5" stroke-linecap="round" stroke-linejoin="round" x1="83.387" y1="81.747" x2="83.778" y2="86.056"/>
</g>
<text transform="matrix(1.722 -0.0165 0.0096 0.9999 30.606 20.9424)" font-family="'Helvetica'" font-size="2.4115">6.0TB</text>
<text transform="matrix(1.7822 -0.0171 0.0096 0.9999 35.9414 38.8745)" fill="#231F20" font-family="'Helvetica'" font-size="2.2902">6.0TB</text>
<text transform="matrix(1.7811 -0.0171 0.0096 0.9999 41.3184 54.1812)" fill="#231F20" font-family="'Helvetica'" font-size="2.0278">6.0TB</text>
<text transform="matrix(1.993 -0.0191 0.0096 0.9999 46.4619 67.5054)" fill="#231F20" font-family="'Helvetica'" font-size="1.6876">6.0TB</text>
<g>
	<g>
		<path fill="#FFFFFF" stroke="#FFFFFF" stroke-width="3" stroke-linecap="round" stroke-linejoin="round" d="M86.317,50.662    c-6.854-5.287-6.854-18.211-6.854-18.211L71.63,34.8c0,0-1.762,14.688,9.597,21.541l-3.721,4.504l17.428,3.329l-5.286-16.646    L86.317,50.662z"/>
	</g>
	<g>
		<path stroke="#000000" d="M86.317,50.662c-6.854-5.287-6.854-18.211-6.854-18.211L71.63,34.8c0,0-1.762,14.688,9.597,21.541    l-3.721,4.504l17.428,3.329l-5.286-16.646L86.317,50.662z"/>
	</g>
</g>
</svg>