<?xml version="1.0" encoding="UTF-8"?><!-- Generator: Adobe Illustrator 12.0.0, SVG Export Plug-In . SVG Version: 6.00 Build 51448)  --><!DOCTYPE svg PUBLIC "-//W3C//DTD SVG 1.1//EN" "http://www.w3.org/Graphics/SVG/1.1/DTD/svg11.dtd">
<svg xmlns="http://www.w3.org/2000/svg" xmlns:xlink="http://www.w3.org/1999/xlink" version="1.1" width="179.667" height="127.454" viewBox="0 0 179.667 127.454" overflow="visible" enable-background="new 0 0 179.667 127.454" xml:space="preserve" preserveAspectRatio="xMidYMid meet" zoomAndPan="magnify" contentScriptType="application/ecmascript" contentStyleType="text/css">
<g id="outline">
	<path fill="none" stroke="#000000" stroke-width="0.5" stroke-linecap="round" stroke-linejoin="round" d="M140.713,127.204   c0,0,6.528-10.569,27.357-0.155"/>
	<path fill="none" stroke="#000000" stroke-width="0.5" stroke-linecap="round" stroke-linejoin="round" d="M179.106,70.78   l-2.901,0.622c0,0-10.777-2.384-12.85,6.839"/>
	<path fill="none" stroke="#000000" stroke-width="0.5" stroke-linecap="round" stroke-linejoin="round" d="M179.106,80.521   c0,0-12.538-3.005-21.347-1.555c0,0-4.87,0.414-8.29,4.56l-6.839,3.627c0,0-3.938,1.14-3.834,9.223c0,0,0.519,2.694,0.104,4.248   c0,0-0.104,3.938,1.243,4.871c0,0,11.813,2.28,13.782-5.285c0,0,1.658-1.14,2.591-1.14"/>
	<path fill="none" stroke="#000000" stroke-width="0.5" stroke-linecap="round" stroke-linejoin="round" d="M142.526,96.376   c0,0,7.875,5.181,11.606,3.108"/>
	<path fill="none" stroke="#000000" stroke-width="0.5" stroke-linecap="round" stroke-linejoin="round" d="M150.92,94.096   c0,0,3.316,5.699,11.295,6.528c0,0,9.43,2.281,11.191,2.384c0,0,2.383,4.042,5.699,4.663"/>
	<path fill="none" stroke="#000000" stroke-width="0.5" stroke-linecap="round" stroke-linejoin="round" d="M159.728,100.624v2.384   c0,0,0.311,2.072,2.073,3.627l1.969,3.005c0,0,0.519,1.968,0.933,2.798c0.414,0.829,4.455,7.357,4.455,7.357   s2.176,3.212,4.456,2.901c0,0,4.975-1.554,5.389-2.59"/>
	<path fill="none" stroke="#000000" stroke-width="0.5" stroke-linecap="round" stroke-linejoin="round" d="M169.78,120.831   c0,0,1.762,4.456,5.182,1.554"/>
	<polyline fill="none" stroke="#000000" stroke-width="0.5" stroke-linecap="round" stroke-linejoin="round" points="   159.625,102.489 155.894,111.09 153.407,110.365 157.966,99.795  "/>
	<path fill="none" stroke="#000000" stroke-width="0.5" stroke-linecap="round" stroke-linejoin="round" d="M154.857,99.588v6.839   c0,0-1.761,2.695-4.663,2.488s-4.974-0.726-4.974-0.726s-0.726-0.103-3.212,0.104s-11.502-0.208-11.502-0.208   s-1.45,0.001-1.657,1.451"/>
	<path fill="none" stroke="#000000" stroke-width="0.5" stroke-linecap="round" stroke-linejoin="round" d="M153.718,109.433   c0,0,0.828,1.969-6.736,1.554c-7.564-0.415-16.477-1.037-16.477-1.037s-1.969-0.622-1.865,0.518v1.037c0,0,0,0.829,2.28,0.829   c2.28,0,10.673-0.103,10.673-0.103s2.487,0,3.73,0.414s4.456,0.829,5.077,0.829c0.622,0,5.7,0.415,5.7,0.415s0.311,0.622,0,1.347   s-1.037,1.658-1.037,1.658s-0.622,1.036-1.554-0.208"/>
	<polyline fill="none" stroke="#000000" stroke-width="0.5" stroke-linecap="round" stroke-linejoin="round" points="   153.614,116.375 144.703,116.271 144.184,116.79 140.764,116.686  "/>
	<path fill="none" stroke="#000000" stroke-width="0.5" stroke-linecap="round" stroke-linejoin="round" d="M134.858,115.028   l4.663,3.626c1.036,0.622,1.243-0.622,1.243-0.622l-0.311-2.28L134.858,115.028l-0.933,1.14l4.767,3.834   c0,0,1.141,0.622,1.658-0.311"/>
	
		<line fill="none" stroke="#000000" stroke-width="0.5" stroke-linecap="round" stroke-linejoin="round" x1="140.35" y1="119.484" x2="140.764" y2="118.551"/>
	<path fill="none" stroke="#000000" stroke-width="0.5" stroke-linecap="round" stroke-linejoin="round" d="M133.925,116.168   l-6.632-0.311c0,0-1.866,0.104-0.519-4.042"/>
	
		<line fill="none" stroke="#000000" stroke-width="0.5" stroke-linecap="round" stroke-linejoin="round" x1="154.132" y1="114.924" x2="153.51" y2="116.064"/>
	<path fill="none" stroke="#000000" stroke-width="0.5" stroke-linecap="round" stroke-linejoin="round" d="M133.718,29.9   l-23.419,73.833c0,0-1.347,3.212,2.072,4.042c3.42,0.829,12.746,3.834,12.746,3.834s1.347,0.207,1.969-1.036"/>
	<path fill="none" stroke="#000000" stroke-width="0.5" stroke-linecap="round" stroke-linejoin="round" d="M128.744,104.147   l-0.933-0.415c0,0-1.865,0.104-1.244,1.037c0.622,0.933,1.451,1.347,1.451,1.347"/>
	
		<ellipse fill="none" stroke="#000000" stroke-width="0.5" stroke-linecap="round" stroke-linejoin="round" cx="114.133" cy="103.733" rx="1.865" ry="1.658"/>
	<path fill="none" stroke="#000000" stroke-width="0.5" stroke-linecap="round" stroke-linejoin="round" d="M112.164,103.319   c0,0,1.554-1.036,3.834,0.415"/>
	<path fill="none" stroke="#000000" stroke-width="0.5" stroke-linecap="round" stroke-linejoin="round" d="M149.883,32.232   l-2.487,31.605c0,0-0.932,2.798,1.969,4.042c2.901,1.244,4.663,1.865,4.663,1.865s1.347-0.104,1.451,3.212   c0.104,3.316,0,6.425,0,6.425"/>
	<path fill="none" stroke="#000000" stroke-width="0.5" stroke-linecap="round" stroke-linejoin="round" d="M147.5,84.355   l-9.534-4.56c0,0-0.932-0.83-0.725-1.865l2.59-10.673c0,0,0.518-1.244,2.487-0.311c1.969,0.933,9.845,4.145,9.845,4.145   s0.829-0.414,0.933,2.591c0.103,3.005,0,6.735,0,6.735"/>
	<path fill="none" stroke="#000000" stroke-width="0.5" stroke-linecap="round" stroke-linejoin="round" d="M145.013,85.392   l-6.943-3.212c0,0-1.761-0.83-2.383,1.45c-0.622,2.28-5.389,20.829-5.389,20.829s0.311,1.347,3.005,1.451   c2.695,0.104,7.565,0,7.565,0"/>
	<path fill="none" stroke="#000000" stroke-width="0.5" stroke-linecap="round" stroke-linejoin="round" d="M140.972,87.775   c0,0-2.073-0.415-6.943,2.383"/>
	<path fill="none" stroke="#000000" stroke-width="0.5" stroke-linecap="round" stroke-linejoin="round" d="M139.729,90.262   c0,0-1.762-1.037-6.114,2.279"/>
	<path fill="none" stroke="#000000" stroke-width="0.5" stroke-linecap="round" stroke-linejoin="round" d="M132.164,98.448   c0,0,0.934,6.322,7.979,7.047"/>
	<path fill="none" stroke="#000000" stroke-width="0.5" stroke-linecap="round" stroke-linejoin="round" d="M119.833,72.438   l-4.974,1.14c0,0-1.244,0.415-1.244,1.451s0,1.865,0,1.865s-0.207,1.244-2.176,1.865c-1.969,0.621-5.596,1.347-5.596,1.347   s-1.244,0.726-1.762,0.726c-0.518,0-0.518-0.415-0.518-0.415l0.207-0.829l-1.451-0.104l-0.518,7.668l-0.726-0.103l-0.207-0.83   l-0.208-11.709"/>
	<path fill="none" stroke="#000000" stroke-width="0.5" stroke-linecap="round" stroke-linejoin="round" d="M120.558,70.055   l-5.181,1.451c0,0-2.487,1.347-2.487,2.798c0,1.451-0.104,1.865-0.104,1.865s0.104,0.414-2.798,1.243   c-2.901,0.829-6.424,1.866-6.424,1.866"/>
	<path fill="none" stroke="#000000" stroke-width="0.5" stroke-linecap="round" stroke-linejoin="round" d="M114.962,71.506   c0,0-3.005,0.829-4.249,0.415c-1.243-0.415-1.347-0.933-1.347-0.933l-10.777,4.145l-0.415,7.979l-0.103,2.695   c0,0-1.762,1.658-5.078,1.347c-3.316-0.311-6.425-0.414-6.425-0.414l-16.373,1.14c0,0-0.725-0.103-1.554-1.451   c-0.829-1.347-3.212-9.43,2.176-12.228"/>
	<polyline fill="none" stroke="#000000" stroke-width="0.5" stroke-linecap="round" stroke-linejoin="round" points="98.175,83.111    95.792,84.874 77.657,86.013  "/>
	<polyline fill="none" stroke="#000000" stroke-width="0.5" stroke-linecap="round" stroke-linejoin="round" points="98.175,80.521    95.792,80.832 76.31,86.22 70.818,87.567 70.093,85.702 68.124,84.563  "/>
	<path fill="none" stroke="#000000" stroke-width="0.5" stroke-linecap="round" stroke-linejoin="round" d="M98.279,77.412   c0,0-1.244,1.555-2.902,2.073s-15.854,4.559-15.854,4.559s-4.145,0.001-6.114,0.519l-3.316,1.14"/>
	
		<line fill="none" stroke="#000000" stroke-width="0.5" stroke-linecap="round" stroke-linejoin="round" x1="122.32" y1="64.563" x2="23.254" y2="80.625"/>
	<polyline fill="none" stroke="#000000" stroke-width="0.5" stroke-linecap="round" stroke-linejoin="round" points="   31.648,126.323 32.685,96.687 91.647,87.257  "/>
	
		<line fill="none" stroke="#000000" stroke-width="0.5" stroke-linecap="round" stroke-linejoin="round" x1="98.072" y1="85.806" x2="100.663" y2="85.392"/>
	
		<line fill="none" stroke="#000000" stroke-width="0.5" stroke-linecap="round" stroke-linejoin="round" x1="102.009" y1="85.081" x2="116.724" y2="82.49"/>
	<polyline fill="none" stroke="#000000" stroke-width="0.5" stroke-linecap="round" stroke-linejoin="round" points="69.782,88.086    30.923,94.614 29.576,125.805  "/>
	<path fill="none" stroke="#000000" stroke-width="0.5" stroke-linecap="round" stroke-linejoin="round" d="M20.042,121.142   l3.108-34.818c0,0,0.829-1.658,1.865,0.104c1.036,1.762,5.907,8.187,5.907,8.187l1.762,2.072"/>
	
		<line fill="none" stroke="#000000" stroke-width="0.5" stroke-linecap="round" stroke-linejoin="round" x1="26.674" y1="88.811" x2="24.395" y2="120.935"/>
	<polyline fill="none" stroke="#000000" stroke-width="0.5" stroke-linecap="round" stroke-linejoin="round" points="26.467,90.469    29.886,94.821 28.332,124.25  "/>
	<polyline fill="none" stroke="#000000" stroke-width="0.5" stroke-linecap="round" stroke-linejoin="round" points="26.467,92.023    28.643,94.821 27.192,122.8  "/>
	<path fill="none" stroke="#000000" stroke-width="0.5" stroke-linecap="round" stroke-linejoin="round" d="M8.851,108.396   l5.492-1.036c0,0,2.176,1.036,3.834-6.528c1.658-7.565,7.771-32.228,7.771-32.228s0.518-3.419,7.979-4.56   s90.049-15.543,90.049-15.543s2.176-0.415,3.42,0.104"/>
	
		<line fill="none" stroke="#000000" stroke-width="0.5" stroke-linecap="round" stroke-linejoin="round" x1="126.983" y1="50.263" x2="26.674" y2="67.361"/>
	
		<line fill="none" stroke="#000000" stroke-width="0.5" stroke-linecap="round" stroke-linejoin="round" x1="147.915" y1="57.724" x2="153.407" y2="69.123"/>
	<polyline fill="none" stroke="#000000" stroke-width="0.5" stroke-linecap="round" stroke-linejoin="round" points="   156.101,75.754 156.516,75.754 157.862,78.552  "/>
	
		<line fill="none" stroke="#000000" stroke-width="0.5" stroke-linecap="round" stroke-linejoin="round" x1="148.64" y1="49.538" x2="161.904" y2="78.345"/>
	
		<line fill="none" stroke="#000000" stroke-width="0.5" stroke-linecap="round" stroke-linejoin="round" x1="169.883" y1="71.195" x2="178.899" y2="47.879"/>
	<polyline fill="none" stroke="#000000" stroke-width="0.5" stroke-linecap="round" stroke-linejoin="round" points="   172.059,65.392 169.158,65.806 165.945,73.164  "/>
	
		<line fill="none" stroke="#000000" stroke-width="0.5" stroke-linecap="round" stroke-linejoin="round" x1="167.292" y1="63.008" x2="169.158" y2="65.806"/>
	<path fill="none" stroke="#000000" stroke-width="0.5" stroke-linecap="round" stroke-linejoin="round" d="M173.095,62.491   l-3.73,0.622c0,0-1.865,0.311-3.42-2.176c-1.554-2.487-18.134-32.642-18.134-32.642s-19.688,79.273-20.725,83.003   s1.14,2.798,1.14,2.798s10.362,0.103,13.471,0c3.109-0.104,3.109-0.104,3.109-0.104l3.316,0.518l7.979,0.415"/>
	
		<line fill="none" stroke="#000000" stroke-width="0.5" stroke-linecap="round" stroke-linejoin="round" x1="132.579" y1="31.921" x2="45.638" y2="46.118"/>
	<path fill="none" stroke="#000000" stroke-width="0.5" stroke-linecap="round" stroke-linejoin="round" d="M179.106,37.31   c0,0-2.384,1.14-5.596-3.316c-3.212-4.456-22.59-31.916-22.59-31.916s-1.14-2.487-6.114-1.658   C139.833,1.249,3.151,23.32,3.151,23.32"/>
	<path fill="none" stroke="#000000" stroke-width="0.5" stroke-linecap="round" stroke-linejoin="round" d="M1.39,30.16   L151.542,5.912c0,0,2.072,0.104,2.176,0.933l-4.042,20L2.426,52.128"/>
	<polyline fill="none" stroke="#000000" stroke-width="0.5" stroke-linecap="round" stroke-linejoin="round" points="   148.537,26.533 152.06,7.259 0.25,31.61  "/>
	<polyline fill="none" stroke="#000000" stroke-width="0.5" stroke-linecap="round" stroke-linejoin="round" points="   174.029,60.003 171.126,60.107 149.987,25.911  "/>
	<polyline fill="none" stroke="#000000" stroke-width="0.5" stroke-linecap="round" stroke-linejoin="round" points="   179.417,39.849 175.479,50.211 177.448,50.314 176.205,54.252 173.821,54.563 151.542,20.367  "/>
	
		<line fill="none" stroke="#000000" stroke-width="0.5" stroke-linecap="round" stroke-linejoin="round" x1="175.894" y1="53.165" x2="152.06" y2="16.274"/>
	
		<line fill="none" stroke="#000000" stroke-width="0.5" stroke-linecap="round" stroke-linejoin="round" x1="173.51" y1="53.475" x2="171.126" y2="60.107"/>
	
		<line fill="none" stroke="#000000" stroke-width="0.5" stroke-linecap="round" stroke-linejoin="round" x1="166.463" y1="71.506" x2="149.469" y2="37.621"/>
	<polyline fill="none" stroke="#000000" stroke-width="0.5" stroke-linecap="round" stroke-linejoin="round" points="   124.081,59.278 114.029,60.833 114.029,57.102 125.221,55.34  "/>
	<polyline fill="none" stroke="#000000" stroke-width="0.5" stroke-linecap="round" stroke-linejoin="round" points="   114.029,60.833 113.097,59.382 112.786,55.755 125.635,53.786  "/>
	
		<line fill="none" stroke="#000000" stroke-width="0.5" stroke-linecap="round" stroke-linejoin="round" x1="114.029" y1="57.102" x2="112.786" y2="55.755"/>
	<polygon fill="none" stroke="#000000" stroke-width="0.5" stroke-linecap="round" stroke-linejoin="round" points="98.486,63.734    98.072,60.107 86.983,61.972 87.398,65.806  "/>
	<polyline fill="none" stroke="#000000" stroke-width="0.5" stroke-linecap="round" stroke-linejoin="round" points="98.072,60.107    97.968,58.035 86.155,60.003 86.465,64.459 87.398,65.806  "/>
	
		<line fill="none" stroke="#000000" stroke-width="0.5" stroke-linecap="round" stroke-linejoin="round" x1="86.983" y1="61.972" x2="86.155" y2="60.003"/>
	
		<line fill="none" stroke="#000000" stroke-width="0.5" stroke-linecap="round" stroke-linejoin="round" x1="112.994" y1="59.9" x2="98.382" y2="62.491"/>
	<polyline fill="none" stroke="#000000" stroke-width="0.5" stroke-linecap="round" stroke-linejoin="round" points="86.051,64.356    82.527,64.874 81.491,58.138  "/>
	<polyline fill="none" stroke="#000000" stroke-width="0.5" stroke-linecap="round" stroke-linejoin="round" points="64.497,61.04    67.088,69.641 62.632,70.262 60.663,64.459 50.093,66.221 50.818,67.671  "/>
	<polyline fill="none" stroke="#000000" stroke-width="0.5" stroke-linecap="round" stroke-linejoin="round" points="62.632,70.262    61.596,71.195 52.995,72.335 50.818,67.671 60.041,66.117 61.596,71.195  "/>
	
		<line fill="none" stroke="#000000" stroke-width="0.5" stroke-linecap="round" stroke-linejoin="round" x1="60.041" y1="66.117" x2="60.663" y2="64.459"/>
	<polyline fill="none" stroke="#000000" stroke-width="0.5" stroke-linecap="round" stroke-linejoin="round" points="43.357,73.578    41.492,69.226 32.374,70.884 34.653,75.236 43.484,73.832 43.772,73.786 44.601,72.853 42.218,67.464 32.166,69.226 32.374,70.366     "/>
	
		<line fill="none" stroke="#000000" stroke-width="0.5" stroke-linecap="round" stroke-linejoin="round" x1="42.218" y1="67.464" x2="41.492" y2="69.226"/>
	
		<line fill="none" stroke="#000000" stroke-width="0.5" stroke-linecap="round" stroke-linejoin="round" x1="32.374" y1="70.884" x2="32.788" y2="69.433"/>
	<polyline fill="none" stroke="#000000" stroke-width="0.5" stroke-linecap="round" stroke-linejoin="round" points="8.333,108.189    13.825,67.05 128.019,46.947  "/>
	<polyline fill="none" stroke="#000000" stroke-width="0.5" stroke-linecap="round" stroke-linejoin="round" points="13.825,67.05    13.099,67.05 3.566,51.921  "/>
	<path fill="none" stroke="#000000" stroke-width="0.5" stroke-linecap="round" stroke-linejoin="round" d="M131.957,34.097   l-16.372,3.627c0,0-0.726,0.622-0.726,1.451s-0.104,1.451-0.104,1.451s0.103,1.658-2.798,2.487s-8.394,2.072-8.394,2.072   s-1.658-0.208-1.554-0.726c0.104-0.518,0.104-1.036,0.104-1.036l-1.658,0.104l-0.725,4.456l0.207,3.42"/>
	<path fill="none" stroke="#000000" stroke-width="0.5" stroke-linecap="round" stroke-linejoin="round" d="M132.682,32.543   l-15.958,3.316c0,0-1.969,0.415-2.487,1.555c-0.518,1.14-0.518,1.658-0.518,1.658s0.208,1.037-2.176,1.762   s-7.461,1.865-7.461,1.865s-1.865,0.207-1.969-0.726l0.829-1.451l-4.56,0.311"/>
	<polyline fill="none" stroke="#000000" stroke-width="0.5" stroke-linecap="round" stroke-linejoin="round" points="   113.511,39.071 103.563,41.04 100.248,37.414  "/>
	
		<line fill="none" stroke="#000000" stroke-width="0.5" stroke-linecap="round" stroke-linejoin="round" x1="103.875" y1="36.895" x2="103.563" y2="41.04"/>
	
		<line fill="none" stroke="#000000" stroke-width="0.5" stroke-linecap="round" stroke-linejoin="round" x1="98.279" y1="37.517" x2="98.382" y2="51.92"/>
	<path fill="none" stroke="#000000" stroke-width="0.5" stroke-linecap="round" stroke-linejoin="round" d="M95.377,38.035   c0,0.311-0.104,11.087-0.104,11.087s0.208,2.694-3.005,2.798l-3.523,0.104l-7.979-0.311l-20.414,1.762c0,0-1.762-0.104-2.176-1.347   c-0.414-1.244-0.933-2.694-0.933-2.694s-0.104-0.725-2.59-0.518s-8.394,0.829-8.394,0.829"/>
	<path fill="none" stroke="#000000" stroke-width="0.5" stroke-linecap="round" stroke-linejoin="round" d="M95.274,44.459   c0,0,1.036,3.316-4.56,3.73c-5.596,0.415-31.398,2.902-31.398,2.902s-1.14-0.311-2.073-1.658"/>
	<path fill="none" stroke="#000000" stroke-width="0.5" stroke-linecap="round" stroke-linejoin="round" d="M80.145,40.522   c0,0-1.866,2.176-2.073,3.212"/>
	<path fill="none" stroke="#000000" stroke-width="0.5" stroke-linecap="round" stroke-linejoin="round" d="M88.953,39.175   c0,0,3.834,1.762,3.523,3.212"/>
	<path fill="none" stroke="#000000" stroke-width="0.5" stroke-linecap="round" stroke-linejoin="round" d="M78.072,40.833   c0,0-1.037,5.181,2.798,5.596c0,0,6.943,1.969,10.363-2.073c0,0,2.487-2.072,0.311-5.492"/>
	<path fill="none" stroke="#000000" stroke-width="0.5" stroke-linecap="round" stroke-linejoin="round" d="M45.327,44.978   l-0.104,1.347l1.14,3.938l0.208,0.829c0,0,0.518,1.14,2.176,0.725l0.933,2.176l0.104,1.244c0,0,0.415,0.829-2.59,1.14   c-3.005,0.311-9.119,0.726-9.119,0.726s-1.451-0.415-1.969-1.036c-0.518-0.622-1.036-1.762-1.036-1.762l-0.518-1.451L6.364,55.858"/>
	<path fill="none" stroke="#000000" stroke-width="0.5" stroke-linecap="round" stroke-linejoin="round" d="M48.746,51.817v1.347   c0,0,0.208,0.829-2.59,0.933s-9.223,0.415-9.223,0.415s-1.451-0.415-2.383-1.658l-0.518-2.072c0,0-0.933-2.072-2.902-1.865   S4.188,52.75,4.188,52.75"/>
	<path fill="none" stroke="#000000" stroke-width="0.5" stroke-linecap="round" stroke-linejoin="round" d="M43.461,48.19   l1.347,3.109c0,0,0.829,1.244-1.762,1.658s-4.56,0.311-4.56,0.311s-1.761-0.415-1.969-1.555c-0.207-1.14-0.726-3.419-0.726-3.419   s0.104-0.622,2.28-0.933c2.176-0.311,4.352-0.622,4.352-0.622L43.461,48.19z"/>
</g>
<g id="arrow">
	<path stroke="#FFFFFF" d="M100.68,74.013l-6.28-6.672l-1.412,4.701c-11.529-3.492-15.059-15.013-15.059-15.013l-6.089,6.317   c0,0,4.318,14.097,19.003,15.828l-1.719,5.717l8.919-2.104l8.919-2.103L100.68,74.013z"/>
</g>
</svg>