<?xml version="1.0" encoding="utf-8"?>
<!-- Generator: Adobe Illustrator 26.0.3, SVG Export Plug-In . SVG Version: 6.00 Build 0)  -->
<svg version="1.1" id="Layer_1" xmlns="http://www.w3.org/2000/svg" xmlns:xlink="http://www.w3.org/1999/xlink" x="0px" y="0px"
	 viewBox="0 0 218.5 63.3" style="enable-background:new 0 0 218.5 63.3;" xml:space="preserve">
<style type="text/css">
	.st0{fill:#FFFFFF;}
	.st1{fill:none;stroke:#939598;stroke-width:2.4533;}
	.st2{fill:#939598;stroke:#808080;stroke-width:2.1127;}
	.st3{fill-rule:evenodd;clip-rule:evenodd;fill:#F79320;}
	.st4{fill-rule:evenodd;clip-rule:evenodd;fill:#FFFFFF;}
	.st5{enable-background:new    ;}
	.st6{fill:none;stroke:#000000;stroke-width:0.5195;stroke-linejoin:round;}
	.st7{fill:none;}
	.st8{fill:none;stroke:#000000;stroke-width:0.7986;}
	.st9{fill-rule:evenodd;clip-rule:evenodd;fill:#221F1F;}
</style>
<g>
	<rect x="113" y="1.2" class="st0" width="104.2" height="60.9"/>
	<rect x="113" y="1.2" class="st1" width="104.2" height="60.9"/>
	<rect x="165" y="1.2" class="st2" width="52.3" height="13.1"/>
	<rect x="165" y="1.2" class="st1" width="52.3" height="13.1"/>
	<rect x="113" y="1.2" class="st0" width="52" height="13.1"/>
	<rect x="113" y="1.2" class="st1" width="52" height="13.1"/>
	<g>
		<path class="st0" d="M169.7,5.9v3.2h1.9v0.7h-2.8V5.9H169.7z"/>
		<path class="st0" d="M172.9,5.9v3.9H172V5.9H172.9z"/>
		<path class="st0" d="M176.4,5.9v0.7h-1.9v0.9h1.6v0.7h-1.6v1.6h-0.9V5.9H176.4z"/>
		<path class="st0" d="M176.6,6.6V5.9h3.2v0.7h-1.2v3.2h-0.9V6.6H176.6z"/>
		<path class="st0" d="M181.1,5.9v3.9h-0.9V5.9H181.1z"/>
		<path class="st0" d="M182.7,5.9l1.6,2.6l0,0V5.9h0.8v3.9h-0.9l-1.6-2.6l0,0v2.6h-0.8V5.9H182.7z"/>
		<path class="st0" d="M188.2,9.8c-0.2,0.1-0.4,0.1-0.6,0.1c-0.3,0-0.6-0.1-0.8-0.2c-0.2-0.1-0.4-0.2-0.6-0.4
			c-0.2-0.2-0.3-0.4-0.4-0.6c-0.1-0.2-0.1-0.5-0.1-0.8s0-0.6,0.1-0.8c0.1-0.2,0.2-0.5,0.4-0.7s0.4-0.3,0.6-0.4
			c0.2-0.1,0.5-0.2,0.8-0.2c0.2,0,0.4,0,0.6,0.1c0.2,0.1,0.4,0.1,0.5,0.3c0.2,0.1,0.3,0.3,0.4,0.4c0.1,0.2,0.2,0.4,0.2,0.6h-0.8
			c-0.1-0.2-0.1-0.4-0.3-0.5c-0.1-0.1-0.3-0.2-0.5-0.2s-0.4,0-0.5,0.1s-0.2,0.2-0.3,0.3c-0.1,0.1-0.1,0.3-0.2,0.4
			c0,0.2-0.1,0.3-0.1,0.5s0,0.3,0.1,0.5s0.1,0.3,0.2,0.4s0.2,0.2,0.3,0.3s0.3,0.1,0.5,0.1c0.3,0,0.5-0.1,0.7-0.2
			c0.2-0.1,0.2-0.4,0.3-0.6h-0.9V7.7h1.6v2.1h-0.5l-0.1-0.4C188.6,9.6,188.4,9.7,188.2,9.8z"/>
		<path class="st0" d="M192.4,5.9v1.5h1.6V5.9h0.9v3.9H194V8.1h-1.6v1.7h-0.9V5.9H192.4z"/>
		<path class="st0" d="M197.6,5.9l1.5,3.9h-0.9l-0.3-0.9h-1.5l-0.3,0.9h-0.9l1.5-3.9H197.6z M197.6,8.3l-0.5-1.4l0,0l-0.5,1.4H197.6
			z"/>
		<path class="st0" d="M201.2,6.6h-1.9V5.9h3.1v0.7l-2.1,2.5h2.1v0.7h-3.3V9.1L201.2,6.6z"/>
		<path class="st0" d="M204.8,5.9l1.5,3.9h-0.9l-0.3-0.9h-1.5l-0.3,0.9h-0.9l1.5-3.9H204.8z M204.9,8.3l-0.5-1.4l0,0l-0.5,1.4H204.9
			z"/>
		<path class="st0" d="M208.7,5.9c0.2,0,0.3,0,0.5,0.1c0.1,0.1,0.3,0.1,0.4,0.2s0.2,0.2,0.2,0.3c0.1,0.1,0.1,0.3,0.1,0.4
			c0,0.2,0,0.4-0.1,0.6s-0.3,0.3-0.5,0.4l0,0c0.1,0,0.2,0.1,0.3,0.1s0.1,0.1,0.2,0.2c0,0.1,0.1,0.2,0.1,0.3s0,0.2,0,0.3s0,0.1,0,0.2
			s0,0.2,0,0.3s0,0.2,0,0.2c0,0.1,0.1,0.1,0.1,0.2h-0.9c0-0.1-0.1-0.3-0.1-0.4c0-0.2,0-0.3,0-0.5s-0.1-0.4-0.2-0.4
			c-0.1-0.1-0.2-0.1-0.5-0.1h-0.9v1.5h-0.9V5.9H208.7z M208.4,7.7c0.2,0,0.3,0,0.4-0.1c0.1-0.1,0.1-0.2,0.1-0.4c0-0.2,0-0.3-0.1-0.4
			s-0.2-0.1-0.4-0.1h-0.9v1.1L208.4,7.7L208.4,7.7z"/>
		<path class="st0" d="M212.3,5.9c0.3,0,0.5,0,0.7,0.1s0.4,0.2,0.6,0.4c0.2,0.2,0.3,0.4,0.4,0.6c0.1,0.2,0.1,0.5,0.1,0.8
			s0,0.5-0.1,0.8c-0.1,0.2-0.2,0.4-0.3,0.6c-0.1,0.2-0.3,0.3-0.6,0.4c-0.2,0.1-0.5,0.2-0.8,0.2h-1.7V5.9H212.3z M212.2,9.1
			c0.1,0,0.2,0,0.4-0.1c0.1,0,0.2-0.1,0.3-0.2c0.1-0.1,0.2-0.2,0.2-0.4c0.1-0.1,0.1-0.3,0.1-0.5s0-0.4-0.1-0.5
			c0-0.2-0.1-0.3-0.2-0.4c-0.1-0.1-0.2-0.2-0.3-0.3c-0.1-0.1-0.3-0.1-0.5-0.1h-0.6v2.5H212.2z"/>
	</g>
	<path class="st3" d="M119.4,12h8.1c0.2,0,0.2-0.2,0.1-0.3c0,0-3.9-7.8-4-8c0,0,0-0.1-0.1-0.1s-0.1,0-0.1,0.1c-0.1,0.2-4,8-4,8
		C119.3,11.8,119.2,12,119.4,12"/>
	<g>
		<path d="M134.3,6.6c-0.2-0.2-0.5-0.2-0.8-0.2s-0.5,0-0.7,0.1s-0.3,0.2-0.5,0.4c-0.1,0.2-0.2,0.4-0.3,0.6s-0.1,0.4-0.1,0.7
			c0,0.2,0,0.5,0.1,0.7s0.1,0.4,0.3,0.6c0.1,0.2,0.3,0.3,0.5,0.4c0.2,0.1,0.4,0.1,0.7,0.1c0.2,0,0.4,0,0.5-0.1s0.3-0.2,0.4-0.3
			c0.1-0.1,0.2-0.2,0.3-0.4s0.1-0.3,0.1-0.5h0.6c-0.1,0.5-0.2,1-0.6,1.3c-0.3,0.3-0.8,0.5-1.3,0.5c-0.3,0-0.6-0.1-0.9-0.2
			s-0.5-0.3-0.6-0.5c-0.2-0.2-0.3-0.4-0.4-0.7c-0.1-0.3-0.1-0.6-0.1-0.9c0-0.3,0-0.6,0.1-0.9s0.2-0.5,0.4-0.7s0.4-0.4,0.6-0.5
			c0.3-0.1,0.6-0.2,0.9-0.2c0.2,0,0.4,0,0.6,0.1c0.2,0.1,0.4,0.2,0.5,0.3c0.2,0.1,0.3,0.3,0.4,0.4c0.1,0.2,0.2,0.4,0.2,0.6h-0.6
			C134.7,7,134.5,6.8,134.3,6.6z"/>
		<path d="M137.9,6l1.7,4.3H139L138.5,9h-1.8l-0.5,1.3h-0.6l1.7-4.3H137.9z M138.3,8.6l-0.7-2l0,0l-0.7,2H138.3z"/>
		<path d="M143,10c-0.3,0.3-0.7,0.4-1.3,0.4s-1-0.1-1.3-0.4c-0.3-0.3-0.5-0.7-0.5-1.3V6h0.6v2.8c0,0.4,0.1,0.7,0.3,0.9
			s0.5,0.3,0.9,0.3s0.7-0.1,0.8-0.3c0.2-0.2,0.3-0.5,0.3-0.9V6h0.6v2.8C143.4,9.3,143.3,9.8,143,10z"/>
		<path d="M143.8,6.5V6h3.5v0.5h-1.4v3.9h-0.6V6.5H143.8z"/>
		<path d="M148.3,6v4.3h-0.6V6H148.3z"/>
		<path d="M149.1,7.3c0.1-0.3,0.2-0.5,0.4-0.7s0.4-0.4,0.7-0.5s0.6-0.2,0.9-0.2s0.6,0.1,0.9,0.2c0.3,0.1,0.5,0.3,0.7,0.5
			s0.3,0.5,0.4,0.7c0.1,0.3,0.1,0.6,0.1,0.9c0,0.3,0,0.6-0.1,0.9c-0.1,0.3-0.2,0.5-0.4,0.7s-0.4,0.4-0.7,0.5s-0.6,0.2-0.9,0.2
			s-0.6-0.1-0.9-0.2c-0.3-0.1-0.5-0.3-0.7-0.5s-0.3-0.5-0.4-0.7C149,8.8,149,8.5,149,8.2C149,7.9,149.1,7.6,149.1,7.3z M149.7,8.8
			c0.1,0.2,0.1,0.4,0.3,0.6c0.1,0.2,0.3,0.3,0.5,0.4c0.2,0.1,0.4,0.2,0.7,0.2s0.5-0.1,0.7-0.2c0.2-0.1,0.3-0.2,0.5-0.4
			c0.1-0.2,0.2-0.4,0.3-0.6c0.1-0.2,0.1-0.4,0.1-0.6c0-0.2,0-0.4-0.1-0.6s-0.1-0.4-0.3-0.6c-0.1-0.2-0.3-0.3-0.5-0.4
			s-0.4-0.2-0.7-0.2s-0.5,0.1-0.7,0.2S150.2,6.8,150,7c-0.1,0.2-0.2,0.4-0.3,0.6s-0.1,0.4-0.1,0.6C149.6,8.4,149.6,8.6,149.7,8.8z"
			/>
	</g>
	<g>
		<path d="M154.4,6l2.3,3.5l0,0V6h0.5v4.3h-0.6l-2.3-3.5l0,0v3.5h-0.5V6H154.4z"/>
	</g>
	<path class="st3" d="M119.7,12.4c-0.4,0-0.8-0.4-0.8-0.8c0-0.2,0.1-0.3,0.2-0.5l3.8-7.6c0.1-0.2,0.4-0.3,0.6-0.3
		c0.3,0,0.5,0.1,0.6,0.3l3.8,7.6c0.1,0.1,0.2,0.3,0.2,0.5c0,0.4-0.4,0.8-0.8,0.8H119.7z M119.7,12.5h7.6c0.2,0,0.2-0.2,0.1-0.3
		c0,0-3.7-7.3-3.8-7.5c0,0,0,0-0.1,0s-0.1,0-0.1,0c-0.1,0.2-3.8,7.5-3.8,7.5C119.5,12.3,119.5,12.5,119.7,12.5"/>
	<path class="st4" d="M124,10.6c0,0.3-0.3,0.6-0.6,0.6c-0.3,0-0.6-0.3-0.6-0.6s0.3-0.6,0.6-0.6C123.8,10,124,10.3,124,10.6"/>
	<path class="st4" d="M123.4,5.9c-0.3,0-0.5,0.2-0.5,0.5l0.2,2.8c0,0.2,0.2,0.4,0.4,0.4c0.2,0,0.4-0.2,0.4-0.4l0.2-2.8
		C124,6.1,123.7,5.9,123.4,5.9"/>
	<g class="st5">
		<path d="M119.5,51.2l1.2-1c0.5-0.4,0.7-0.7,0.7-1c0-0.4-0.3-0.6-0.7-0.6c-0.4,0-0.6,0.2-0.9,0.6l-0.3-0.2c0.3-0.4,0.6-0.7,1.2-0.7
			c0.6,0,1,0.4,1,0.9v0c0,0.5-0.2,0.8-0.8,1.3l-0.9,0.8h1.7v0.3h-2.3V51.2z"/>
		<path d="M123.9,50.7h-1.7l-0.1-0.3l1.8-2.2h0.3v2.2h0.5v0.3h-0.5v0.8h-0.4V50.7z M123.9,50.4v-1.7l-1.4,1.7H123.9z"/>
		<path d="M125.3,49.9L125.3,49.9c0-0.9,0.5-1.7,1.4-1.7c0.8,0,1.4,0.8,1.4,1.7v0c0,0.9-0.5,1.7-1.4,1.7
			C125.9,51.6,125.3,50.8,125.3,49.9z M127.7,49.9L127.7,49.9c0-0.7-0.4-1.4-1-1.4c-0.6,0-1,0.6-1,1.3v0c0,0.7,0.4,1.3,1,1.3
			C127.3,51.2,127.7,50.6,127.7,49.9z"/>
		<path d="M130.2,48.1h0.4v3.4h-0.4V48.1z"/>
		<path d="M131.7,51.1v0.5h-0.4v-3.4h0.4v1.5c0.2-0.3,0.5-0.5,0.9-0.5c0.6,0,1.1,0.5,1.1,1.2v0c0,0.8-0.6,1.2-1.1,1.2
			C132.2,51.6,131.9,51.3,131.7,51.1z M133.4,50.3L133.4,50.3c0-0.6-0.4-0.9-0.8-0.9c-0.4,0-0.9,0.4-0.9,0.9v0
			c0,0.6,0.4,0.9,0.9,0.9C133,51.2,133.4,50.9,133.4,50.3z"/>
		<path d="M134.2,51.2l0.2-0.3c0.3,0.2,0.5,0.3,0.8,0.3c0.3,0,0.5-0.1,0.5-0.4v0c0-0.2-0.3-0.3-0.6-0.4c-0.4-0.1-0.8-0.2-0.8-0.7v0
			c0-0.4,0.3-0.7,0.8-0.7c0.3,0,0.6,0.1,0.9,0.3l-0.2,0.3c-0.2-0.1-0.5-0.2-0.7-0.2c-0.3,0-0.5,0.1-0.5,0.3v0c0,0.2,0.3,0.3,0.6,0.4
			c0.4,0.1,0.8,0.3,0.8,0.7v0c0,0.5-0.4,0.7-0.9,0.7C134.9,51.6,134.5,51.4,134.2,51.2z"/>
		<path d="M136.7,51h0.4v0.5h-0.4V51z"/>
		<path d="M139.2,50.2c0-0.9,0.5-1.5,1.3-2l0.2,0.2c-0.7,0.4-1.1,1-1.1,1.7c0,0.7,0.4,1.3,1.1,1.7l-0.2,0.2
			C139.6,51.7,139.2,51,139.2,50.2z"/>
		<path d="M141.7,48.6l-0.6,0.2l-0.1-0.3l0.8-0.3h0.3v3.3h-0.4V48.6z"/>
		<path d="M142.8,49.9L142.8,49.9c0-0.9,0.5-1.7,1.4-1.7s1.4,0.8,1.4,1.7v0c0,0.9-0.5,1.7-1.4,1.7C143.3,51.6,142.8,50.8,142.8,49.9
			z M145.2,49.9L145.2,49.9c0-0.7-0.4-1.4-1-1.4c-0.6,0-1,0.6-1,1.3v0c0,0.7,0.4,1.3,1,1.3S145.2,50.6,145.2,49.9z"/>
		<path d="M148.2,49.9L148.2,49.9c-0.2,0.2-0.5,0.4-0.9,0.4c-0.7,0-1.1-0.4-1.1-1v0c0-0.6,0.5-1.1,1.2-1.1c0.4,0,0.6,0.1,0.8,0.3
			c0.2,0.2,0.4,0.6,0.4,1.3v0c0,1-0.5,1.8-1.3,1.8c-0.4,0-0.7-0.2-1-0.4l0.2-0.3c0.3,0.2,0.5,0.3,0.8,0.3
			C147.8,51.2,148.2,50.6,148.2,49.9z M148.1,49.3L148.1,49.3c0-0.4-0.3-0.7-0.8-0.7s-0.8,0.4-0.8,0.8v0c0,0.4,0.3,0.7,0.8,0.7
			C147.8,50,148.1,49.7,148.1,49.3z"/>
		<path d="M150.6,48.1h0.4v2.3l1.3-1.3h0.4l-1,1l1,1.4h-0.4l-0.9-1.1l-0.5,0.5v0.6h-0.4V48.1z"/>
		<path d="M153.1,51.9l0.2-0.3c0.3,0.2,0.6,0.3,0.9,0.3c0.5,0,0.9-0.3,0.9-0.9v-0.3c-0.2,0.3-0.5,0.5-0.9,0.5
			c-0.6,0-1.1-0.4-1.1-1.1v0c0-0.7,0.6-1.1,1.1-1.1c0.4,0,0.7,0.2,0.9,0.5v-0.4h0.4v2c0,0.4-0.1,0.7-0.3,0.8
			c-0.2,0.2-0.5,0.3-0.9,0.3C153.8,52.3,153.4,52.2,153.1,51.9z M155.1,50.2L155.1,50.2c0-0.5-0.4-0.8-0.9-0.8s-0.8,0.3-0.8,0.8v0
			c0,0.5,0.4,0.8,0.8,0.8C154.6,51,155.1,50.7,155.1,50.2z"/>
	</g>
	<g class="st5">
		<path d="M156.6,51.9c0.7-0.4,1.1-1,1.1-1.7c0-0.7-0.4-1.3-1.1-1.7l0.2-0.2c0.8,0.5,1.3,1.1,1.3,2c0,0.9-0.5,1.5-1.3,2L156.6,51.9z
			"/>
	</g>
	<g class="st5">
		<path d="M119.7,53.5h2v0.3H120v1h1.5v0.3H120v1.2h-0.3V53.5z"/>
		<path d="M122.2,55.5v-1.3h0.3v1.2c0,0.4,0.2,0.6,0.6,0.6c0.4,0,0.6-0.3,0.6-0.6v-1.2h0.3v2.1h-0.3V56c-0.1,0.2-0.4,0.4-0.7,0.4
			C122.5,56.4,122.2,56,122.2,55.5z"/>
		<path d="M124.7,53.4h0.3v2.9h-0.3V53.4z"/>
		<path d="M125.8,53.4h0.3v2.9h-0.3V53.4z"/>
		<path d="M128.4,54.2h0.3l-0.9,2.1c-0.2,0.4-0.4,0.6-0.7,0.6c-0.2,0-0.3,0-0.4-0.1l0.1-0.2c0.1,0.1,0.2,0.1,0.3,0.1
			c0.2,0,0.3-0.1,0.4-0.4l-0.9-2.1h0.3l0.8,1.7L128.4,54.2z"/>
		<path d="M129,54.9h1.1v0.3H129V54.9z"/>
		<path d="M130.7,54.2h0.3v0.4c0.2-0.2,0.4-0.5,0.8-0.5c0.5,0,1,0.4,1,1.1v0c0,0.7-0.5,1.1-1,1.1c-0.4,0-0.6-0.2-0.8-0.4v1h-0.3
			V54.2z M132.5,55.3L132.5,55.3c0-0.5-0.3-0.8-0.7-0.8c-0.4,0-0.7,0.3-0.7,0.8v0c0,0.5,0.4,0.8,0.7,0.8
			C132.2,56.1,132.5,55.8,132.5,55.3z"/>
		<path d="M133.3,55.3L133.3,55.3c0-0.6,0.5-1.1,1.1-1.1c0.6,0,1.1,0.5,1.1,1.1v0c0,0.6-0.5,1.1-1.1,1.1
			C133.7,56.4,133.3,55.9,133.3,55.3z M135.1,55.3L135.1,55.3c0-0.5-0.3-0.8-0.8-0.8c-0.4,0-0.8,0.4-0.8,0.8v0
			c0,0.4,0.3,0.8,0.8,0.8C134.8,56.1,135.1,55.7,135.1,55.3z"/>
		<path d="M136,54.2h0.3v0.4c0.2-0.2,0.4-0.5,0.8-0.5c0.5,0,1,0.4,1,1.1v0c0,0.7-0.5,1.1-1,1.1c-0.4,0-0.6-0.2-0.8-0.4v1H136V54.2z
			 M137.7,55.3L137.7,55.3c0-0.5-0.3-0.8-0.7-0.8c-0.4,0-0.7,0.3-0.7,0.8v0c0,0.5,0.4,0.8,0.7,0.8C137.4,56.1,137.7,55.8,137.7,55.3
			z"/>
		<path d="M138.6,55.5v-1.3h0.3v1.2c0,0.4,0.2,0.6,0.6,0.6c0.4,0,0.6-0.3,0.6-0.6v-1.2h0.3v2.1h-0.3V56c-0.1,0.2-0.4,0.4-0.7,0.4
			C138.9,56.4,138.6,56,138.6,55.5z"/>
		<path d="M141.1,53.4h0.3v2.9h-0.3V53.4z"/>
		<path d="M142,55.7L142,55.7c0-0.4,0.4-0.7,0.9-0.7c0.3,0,0.5,0,0.6,0.1v-0.1c0-0.4-0.2-0.6-0.6-0.6c-0.2,0-0.4,0.1-0.6,0.2
			l-0.1-0.3c0.2-0.1,0.5-0.2,0.8-0.2c0.3,0,0.5,0.1,0.7,0.2c0.1,0.1,0.2,0.3,0.2,0.6v1.3h-0.3V56c-0.1,0.2-0.4,0.4-0.7,0.4
			C142.4,56.4,142,56.1,142,55.7z M143.5,55.6v-0.2c-0.2,0-0.4-0.1-0.6-0.1c-0.4,0-0.6,0.2-0.6,0.4v0c0,0.3,0.2,0.4,0.5,0.4
			C143.2,56.1,143.5,55.9,143.5,55.6z"/>
		<path d="M144.5,55.8v-1.2h-0.3v-0.3h0.3v-0.6h0.3v0.6h0.7v0.3h-0.7v1.2c0,0.3,0.1,0.3,0.3,0.3c0.1,0,0.2,0,0.3-0.1v0.3
			c-0.1,0.1-0.2,0.1-0.4,0.1C144.8,56.3,144.5,56.2,144.5,55.8z"/>
		<path d="M145.8,55.3L145.8,55.3c0-0.6,0.4-1.1,1-1.1c0.6,0,1,0.5,1,1.1c0,0,0,0.1,0,0.1h-1.6c0,0.4,0.4,0.7,0.7,0.7
			c0.3,0,0.5-0.1,0.7-0.3l0.2,0.2c-0.2,0.2-0.5,0.4-0.9,0.4C146.3,56.4,145.8,55.9,145.8,55.3z M147.5,55.2c0-0.4-0.2-0.7-0.7-0.7
			c-0.4,0-0.6,0.3-0.7,0.7H147.5z"/>
		<path d="M148.2,55.3L148.2,55.3c0-0.7,0.5-1.1,1-1.1c0.4,0,0.6,0.2,0.8,0.4v-1.2h0.3v2.9H150v-0.4c-0.2,0.2-0.4,0.5-0.8,0.5
			C148.7,56.4,148.2,56,148.2,55.3z M150,55.3L150,55.3c0-0.5-0.4-0.8-0.7-0.8c-0.4,0-0.7,0.3-0.7,0.8v0c0,0.5,0.3,0.8,0.7,0.8
			C149.6,56.1,150,55.8,150,55.3z"/>
		<path d="M152.1,55.3L152.1,55.3c0-0.6,0.5-1.1,1.1-1.1c0.4,0,0.6,0.2,0.8,0.4l-0.2,0.2c-0.2-0.2-0.3-0.3-0.6-0.3
			c-0.4,0-0.7,0.4-0.7,0.8v0c0,0.4,0.3,0.8,0.8,0.8c0.3,0,0.5-0.1,0.6-0.3L154,56c-0.2,0.2-0.5,0.4-0.8,0.4
			C152.5,56.4,152.1,55.9,152.1,55.3z"/>
		<path d="M154.5,53.4h0.3v1.2c0.1-0.2,0.4-0.4,0.7-0.4c0.5,0,0.8,0.3,0.8,0.8v1.3H156v-1.2c0-0.4-0.2-0.6-0.6-0.6
			c-0.4,0-0.6,0.3-0.6,0.6v1.2h-0.3V53.4z"/>
		<path d="M156.8,55.7L156.8,55.7c0-0.4,0.4-0.7,0.9-0.7c0.3,0,0.5,0,0.6,0.1v-0.1c0-0.4-0.2-0.6-0.6-0.6c-0.2,0-0.4,0.1-0.6,0.2
			l-0.1-0.3c0.2-0.1,0.5-0.2,0.8-0.2c0.3,0,0.5,0.1,0.7,0.2c0.1,0.1,0.2,0.3,0.2,0.6v1.3h-0.3V56c-0.1,0.2-0.4,0.4-0.7,0.4
			C157.2,56.4,156.8,56.1,156.8,55.7z M158.3,55.6v-0.2c-0.2,0-0.4-0.1-0.6-0.1c-0.4,0-0.6,0.2-0.6,0.4v0c0,0.3,0.2,0.4,0.5,0.4
			C158,56.1,158.3,55.9,158.3,55.6z"/>
		<path d="M159.1,56l0.2-0.2c0.2,0.2,0.5,0.3,0.7,0.3c0.2,0,0.4-0.1,0.4-0.3v0c0-0.2-0.2-0.3-0.5-0.4c-0.3-0.1-0.7-0.2-0.7-0.6v0
			c0-0.4,0.3-0.6,0.7-0.6c0.3,0,0.5,0.1,0.7,0.2l-0.1,0.2c-0.2-0.1-0.4-0.2-0.6-0.2c-0.2,0-0.4,0.1-0.4,0.3v0c0,0.2,0.3,0.3,0.5,0.4
			c0.3,0.1,0.7,0.2,0.7,0.6v0c0,0.4-0.3,0.6-0.7,0.6C159.6,56.4,159.3,56.2,159.1,56z"/>
		<path d="M161,56l0.2-0.2c0.2,0.2,0.5,0.3,0.7,0.3c0.2,0,0.4-0.1,0.4-0.3v0c0-0.2-0.2-0.3-0.5-0.4c-0.3-0.1-0.7-0.2-0.7-0.6v0
			c0-0.4,0.3-0.6,0.7-0.6c0.3,0,0.5,0.1,0.7,0.2l-0.1,0.2c-0.2-0.1-0.4-0.2-0.6-0.2c-0.2,0-0.4,0.1-0.4,0.3v0c0,0.2,0.3,0.3,0.5,0.4
			c0.3,0.1,0.7,0.2,0.7,0.6v0c0,0.4-0.3,0.6-0.7,0.6C161.6,56.4,161.2,56.2,161,56z"/>
		<path d="M163.2,53.5h0.4v0.3h-0.4V53.5z M163.2,54.2h0.3v2.1h-0.3V54.2z"/>
		<path d="M164.1,56l0.2-0.2c0.2,0.2,0.5,0.3,0.7,0.3c0.2,0,0.4-0.1,0.4-0.3v0c0-0.2-0.2-0.3-0.5-0.4c-0.3-0.1-0.7-0.2-0.7-0.6v0
			c0-0.4,0.3-0.6,0.7-0.6c0.3,0,0.5,0.1,0.7,0.2l-0.1,0.2c-0.2-0.1-0.4-0.2-0.6-0.2c-0.2,0-0.4,0.1-0.4,0.3v0c0,0.2,0.3,0.3,0.5,0.4
			c0.3,0.1,0.7,0.2,0.7,0.6v0c0,0.4-0.3,0.6-0.7,0.6C164.6,56.4,164.3,56.2,164.1,56z"/>
	</g>
	<polyline class="st0" points="143.3,45.5 159.2,36.3 159.2,26.1 143.2,34.1 	"/>
	<polyline class="st6" points="143.3,45.5 159.2,36.3 159.2,26.1 143.2,34.1 	"/>
	<polyline class="st0" points="129.1,26.3 145.1,19.5 159.2,26.1 143.3,34.5 	"/>
	<polyline class="st6" points="129.1,26.3 145.1,19.8 159.2,26.1 143.3,34.5 	"/>
	<polygon class="st0" points="129.1,26.3 143.3,34.5 143.3,45.5 129.1,37.4 	"/>
	<polygon class="st6" points="129.1,26.3 143.3,34.5 143.3,45.5 129.1,37.4 	"/>
	<line class="st7" x1="133.7" y1="34.5" x2="129.7" y2="32.2"/>
	<line class="st6" x1="133.7" y1="34.5" x2="129.7" y2="32.2"/>
	<line class="st7" x1="133.7" y1="34.4" x2="129.6" y2="32.1"/>
	<line class="st6" x1="133.7" y1="34.4" x2="129.6" y2="32.1"/>
	<line class="st7" x1="142.7" y1="45.2" x2="142.7" y2="34.2"/>
	<line class="st6" x1="142.7" y1="45.2" x2="142.7" y2="34.2"/>
	<line class="st7" x1="129.6" y1="26.6" x2="129.6" y2="37.7"/>
	<line class="st6" x1="129.6" y1="26.6" x2="129.6" y2="37.7"/>
	<line class="st7" x1="133.7" y1="40" x2="133.7" y2="28.9"/>
	<line class="st6" x1="133.7" y1="40" x2="133.7" y2="28.9"/>
	<line class="st7" x1="134.2" y1="29.2" x2="134.2" y2="40.3"/>
	<line class="st6" x1="134.2" y1="29.2" x2="134.2" y2="40.3"/>
	<line class="st7" x1="138.2" y1="42.6" x2="138.2" y2="31.6"/>
	<line class="st6" x1="138.2" y1="42.6" x2="138.2" y2="31.6"/>
	<line class="st7" x1="138.7" y1="31.9" x2="138.7" y2="42.9"/>
	<line class="st6" x1="138.7" y1="31.9" x2="138.7" y2="42.9"/>
	<line class="st7" x1="138.2" y1="37.2" x2="134.2" y2="34.8"/>
	<line class="st6" x1="138.2" y1="37.2" x2="134.2" y2="34.8"/>
	<line class="st7" x1="138.2" y1="37" x2="134.2" y2="34.7"/>
	<line class="st6" x1="138.2" y1="37" x2="134.2" y2="34.7"/>
	<line class="st7" x1="142.7" y1="39.8" x2="138.7" y2="37.5"/>
	<line class="st6" x1="142.7" y1="39.8" x2="138.7" y2="37.5"/>
	<line class="st7" x1="142.7" y1="39.7" x2="138.7" y2="37.3"/>
	<line class="st6" x1="142.7" y1="39.7" x2="138.7" y2="37.3"/>
	<g>
		<path d="M176.4,24.9c0,1.3,1.1,2.4,2.4,2.4c1.3,0,2.4-1.1,2.4-2.4s-1.1-2.4-2.4-2.4S176.4,23.6,176.4,24.9z"/>
		<path d="M179.4,28.8l-2.5-1.7c0,0-1.2-0.5-1.6,0.9l-3.4,6.8c0,0-0.2,1.3,1.1,2.4l4.7,5.4c0,0,0.7,0.7,0.1,2l-1.8,4.1
			c0,0-0.8,1.4,0.1,2.3l1,0.6c0,0,0.9,0,1.4-0.9l2.5-6.4c0,0,0.5-2.2-0.5-3.4l-3.4-3.8c0,0-0.6-1-0.2-1.8l1.4-2.2l0.5-0.1
			c0,0-0.2,1.6,0.8,2.2l4.6,3.8c0,0,0.8,0.1,1-0.4l0.4-0.5c0,0,0.3-0.9-0.4-1.5l-3.9-3.5L179.4,28.8z"/>
	</g>
	<g>
		<path d="M199.1,24.9c0,1.3-1.1,2.4-2.4,2.4c-1.3,0-2.4-1.1-2.4-2.4s1.1-2.4,2.4-2.4S199.1,23.6,199.1,24.9z"/>
		<path d="M194.6,28h3.5c0,0,1.4,0.3,1.4,1.5c0.1,1.2,0,3.7,0,3.7v5.4c0,0-0.5,0.5-0.9,0.7c0,0-0.4,0.2-0.5,0.6l-0.4,5.6l0.1,5.1
			c0,0-0.3,1.2-1.2,1.3h-0.5c0,0-0.9-0.4-1.1-1.7v-7.5c0,0-1.4-1.6-1.8-2.8c-0.5-1.2-0.5-7.2-0.5-7.2s-0.1-0.7-0.6-0.2l-3.2,4.4
			c0,0-0.6,0.3-0.9,0.2c0,0-0.7-0.5-0.5-1.4l5.4-6.9C192.9,28.7,193.8,27.7,194.6,28z"/>
	</g>
	<g>
		<polygon class="st0" points="189.5,45 200.4,43.2 200.4,34.6 189.5,32.8 178.7,34.6 178.7,43.2 		"/>
		<line class="st8" x1="189.5" y1="36.3" x2="189.5" y2="45"/>
		<line class="st8" x1="178.7" y1="34.6" x2="178.7" y2="43.2"/>
		<line class="st8" x1="200.4" y1="34.6" x2="200.4" y2="43.2"/>
		<line class="st8" x1="178.7" y1="34.6" x2="189.5" y2="36.3"/>
		<line class="st8" x1="200.4" y1="34.6" x2="189.5" y2="36.3"/>
		<line class="st8" x1="178.7" y1="34.6" x2="189.5" y2="32.8"/>
		<line class="st8" x1="200.4" y1="34.6" x2="189.5" y2="32.8"/>
		<line class="st8" x1="178.7" y1="43.2" x2="189.5" y2="45"/>
		<line class="st8" x1="200.4" y1="43.2" x2="189.5" y2="45"/>
	</g>
	<g>
		<path d="M204.2,24.9c0,1.3-1.1,2.4-2.4,2.4c-1.3,0-2.4-1.1-2.4-2.4s1.1-2.4,2.4-2.4C203.1,22.5,204.2,23.6,204.2,24.9z"/>
		<path d="M201.2,28.8l2.5-1.7c0,0,1.2-0.5,1.6,0.9l3.4,6.8c0,0,0.2,1.3-1.1,2.4l-4.7,5.4c0,0-0.7,0.7-0.1,2l1.8,4.1
			c0,0,0.8,1.4-0.1,2.3l-1,0.6c0,0-0.9,0-1.4-0.9l-2.5-6.4c0,0-0.5-2.2,0.5-3.4l3.4-3.8c0,0,0.6-1,0.2-1.8l-1.4-2.2l-0.5-0.1
			c0,0,0.2,1.6-0.8,2.2l-4.6,3.8c0,0-0.8,0.1-1-0.4l-0.4-0.5c0,0-0.3-0.9,0.4-1.5l3.9-3.5L201.2,28.8z"/>
	</g>
	<g>
		<path d="M182.1,24.9c0,1.3,1.1,2.4,2.4,2.4c1.3,0,2.4-1.1,2.4-2.4s-1.1-2.4-2.4-2.4C183.2,22.5,182.1,23.6,182.1,24.9z"/>
		<path d="M186.6,28h-3.5c0,0-1.4,0.3-1.4,1.5c-0.1,1.2,0,3.7,0,3.7v5.4c0,0,0.5,0.5,0.9,0.7c0,0,0.4,0.2,0.5,0.6l0.4,5.6v5.1
			c0,0,0.3,1.2,1.2,1.3h0.5c0,0,0.9-0.4,1.1-1.7v-7.5c0,0,1.4-1.6,1.8-2.8c0.5-1.2,0.5-7.2,0.5-7.2s0.1-0.7,0.6-0.2l3.2,4.4
			c0,0,0.6,0.3,0.9,0.2c0,0,0.7-0.5,0.5-1.4l-5.4-6.9C188.3,28.7,187.4,27.7,186.6,28z"/>
	</g>
</g>
<g>
	<g>
		<rect x="1.2" y="1.2" class="st0" width="104.2" height="60.9"/>
		<rect x="1.2" y="1.2" class="st1" width="104.2" height="60.9"/>
		<rect x="53.2" y="1.2" class="st2" width="52.3" height="13.1"/>
		<rect x="53.2" y="1.2" class="st1" width="52.3" height="13.1"/>
		<rect x="1.2" y="1.2" class="st0" width="52" height="13.1"/>
		<rect x="1.2" y="1.2" class="st1" width="52" height="13.1"/>
		<g>
			<path class="st0" d="M57.9,5.9v3.2h1.9v0.7H57V5.9H57.9z"/>
			<path class="st0" d="M61.1,5.9v3.9h-0.9V5.9H61.1z"/>
			<path class="st0" d="M64.6,5.9v0.7h-1.9v0.9h1.6v0.7h-1.6v1.6h-0.9V5.9H64.6z"/>
			<path class="st0" d="M64.8,6.6V5.9H68v0.7h-1.2v3.2H66V6.6H64.8z"/>
			<path class="st0" d="M69.3,5.9v3.9h-0.9V5.9H69.3z"/>
			<path class="st0" d="M70.9,5.9l1.6,2.6l0,0V5.9h0.8v3.9h-0.9l-1.6-2.6l0,0v2.6H70V5.9H70.9z"/>
			<path class="st0" d="M76.4,9.8c-0.2,0.1-0.4,0.1-0.6,0.1c-0.3,0-0.6-0.1-0.8-0.2c-0.2-0.1-0.4-0.2-0.6-0.4S74.1,8.9,74,8.7
				c0-0.3,0-0.5,0-0.8c0-0.3,0-0.6,0.1-0.8c0.1-0.2,0.2-0.5,0.4-0.7c0.2-0.2,0.4-0.3,0.6-0.4s0.5-0.2,0.8-0.2c0.2,0,0.4,0,0.6,0.1
				S76.8,6,77,6.2c0.2,0.1,0.3,0.3,0.4,0.4c0.1,0.2,0.2,0.4,0.2,0.6h-0.8c-0.1-0.2-0.1-0.4-0.3-0.5S76.2,6.5,76,6.5s-0.4,0-0.5,0.1
				s-0.2,0.2-0.3,0.3C75.1,7,75.1,7.2,75,7.3c0,0.2-0.1,0.3-0.1,0.5s0,0.3,0.1,0.5c0,0.2,0.1,0.3,0.2,0.4c0.1,0.1,0.2,0.2,0.3,0.3
				c0.1,0.1,0.3,0.1,0.5,0.1c0.3,0,0.5-0.1,0.7-0.2c0.2-0.1,0.2-0.4,0.3-0.6h-0.9V7.7h1.6v2.1H77V9.4C76.8,9.6,76.6,9.7,76.4,9.8z"
				/>
			<path class="st0" d="M80.7,5.9v1.5h1.6V5.9h0.9v3.9h-0.9V8.1h-1.6v1.7h-0.9V5.9H80.7z"/>
			<path class="st0" d="M85.8,5.9l1.5,3.9h-0.9l-0.3-0.9h-1.5l-0.3,0.9h-0.9l1.5-3.9H85.8z M85.8,8.3l-0.5-1.4l0,0l-0.5,1.4H85.8z"
				/>
			<path class="st0" d="M89.4,6.6h-1.9V5.9h3.1v0.7l-2.1,2.5h2.1v0.7h-3.3V9.1L89.4,6.6z"/>
			<path class="st0" d="M93.1,5.9l1.5,3.9h-0.9l-0.3-0.9h-1.5l-0.3,0.9h-0.9l1.5-3.9H93.1z M93.1,8.3l-0.5-1.4l0,0l-0.5,1.4H93.1z"
				/>
			<path class="st0" d="M97,5.9c0.2,0,0.3,0,0.5,0.1c0.1,0.1,0.3,0.1,0.4,0.2S98,6.4,98,6.6c0.1,0.1,0.1,0.3,0.1,0.4
				c0,0.2,0,0.4-0.1,0.6S97.7,7.9,97.5,8l0,0c0.1,0,0.2,0.1,0.3,0.1c0.1,0.1,0.1,0.1,0.2,0.2c0,0.1,0,0.2,0,0.3s0,0.2,0,0.3
				s0,0.1,0,0.2c0,0.1,0,0.2,0,0.3s0,0.2,0,0.2c0,0.1,0.1,0.1,0.1,0.2h-0.9c0-0.1-0.1-0.3-0.1-0.4c0-0.2,0-0.3,0-0.5
				S97,8.5,96.9,8.5c-0.1-0.1-0.2-0.1-0.5-0.1h-0.9v1.5h-0.9v-4H97z M96.7,7.7c0.2,0,0.3,0,0.4-0.1s0.1-0.2,0.1-0.4
				c0-0.2,0-0.3-0.1-0.4s-0.2-0.1-0.4-0.1h-0.9v1.1L96.7,7.7L96.7,7.7z"/>
			<path class="st0" d="M100.5,5.9c0.3,0,0.5,0,0.7,0.1s0.4,0.2,0.6,0.4c0.2,0.2,0.3,0.4,0.4,0.6s0.1,0.5,0.1,0.8s0,0.5-0.1,0.8
				c-0.1,0.2-0.2,0.4-0.3,0.6c-0.1,0.2-0.3,0.3-0.6,0.4c-0.2,0.1-0.5,0.2-0.8,0.2h-1.7V5.9H100.5z M100.4,9.1c0.1,0,0.2,0,0.4-0.1
				c0.1,0,0.2-0.1,0.3-0.2c0.1-0.1,0.2-0.2,0.2-0.4c0.1-0.1,0.1-0.3,0.1-0.5s0-0.4-0.1-0.5c0-0.2-0.1-0.3-0.2-0.4s-0.2-0.2-0.3-0.3
				c-0.1-0.1-0.3-0.1-0.5-0.1h-0.6v2.5H100.4z"/>
		</g>
		<path class="st3" d="M7.7,12h8.1c0.2,0,0.2-0.2,0.1-0.3c0,0-3.9-7.8-4-8c0,0,0-0.1-0.1-0.1s-0.1,0-0.1,0.1c-0.1,0.2-4,8-4,8
			C7.5,11.8,7.5,12,7.7,12"/>
		<g>
			<path d="M22.6,6.6c-0.2-0.2-0.5-0.2-0.8-0.2s-0.5,0-0.7,0.1s-0.3,0.2-0.5,0.4c-0.1,0.2-0.2,0.4-0.3,0.6c-0.1,0.2-0.1,0.4-0.1,0.7
				c0,0.2,0,0.5,0.1,0.7s0.1,0.4,0.3,0.6c0.1,0.2,0.3,0.3,0.5,0.4c0.2,0.1,0.4,0.1,0.7,0.1c0.2,0,0.4,0,0.5-0.1s0.3-0.2,0.4-0.3
				s0.2-0.2,0.3-0.4c0-0.1,0-0.3,0-0.5h0.6c-0.1,0.5-0.2,1-0.6,1.3c-0.3,0.3-0.8,0.5-1.3,0.5c-0.3,0-0.6-0.1-0.9-0.2
				c-0.3-0.1-0.5-0.3-0.6-0.5c-0.2-0.2-0.3-0.4-0.4-0.7s-0.1-0.6-0.1-0.9c0-0.3,0-0.6,0.1-0.9C20,7,20.1,6.8,20.3,6.6
				c0.2-0.2,0.4-0.4,0.6-0.5c0.3-0.1,0.6-0.2,0.9-0.2c0.2,0,0.4,0,0.6,0.1s0.4,0.2,0.5,0.3c0.2,0.1,0.3,0.3,0.4,0.4
				c0.1,0.2,0.2,0.4,0.2,0.6H23C22.9,7,22.8,6.8,22.6,6.6z"/>
			<path d="M26.1,6l1.7,4.3h-0.6L26.7,9h-1.8l-0.5,1.3h-0.6L25.5,6H26.1z M26.5,8.6l-0.7-2l0,0l-0.7,2H26.5z"/>
			<path d="M31.2,10c-0.3,0.3-0.7,0.4-1.3,0.4c-0.6,0-1-0.1-1.3-0.4c-0.3-0.3-0.5-0.7-0.5-1.3V6h0.6v2.8c0,0.4,0.1,0.7,0.3,0.9
				c0.2,0.2,0.5,0.3,0.9,0.3s0.7-0.1,0.8-0.3C30.9,9.5,31,9.2,31,8.8V6h0.6v2.8C31.7,9.3,31.5,9.8,31.2,10z"/>
			<path d="M32.1,6.5V6h3.5v0.5h-1.4v3.9h-0.6V6.5H32.1z"/>
			<path d="M36.6,6v4.3H36V6H36.6z"/>
			<path d="M37.4,7.3c0.1-0.3,0.2-0.5,0.4-0.7s0.4-0.4,0.7-0.5C38.7,6,39,5.9,39.3,5.9S40,6,40.2,6.1c0.3,0.1,0.5,0.3,0.7,0.5
				s0.3,0.5,0.4,0.7c0.1,0.3,0.1,0.6,0.1,0.9s0,0.6-0.1,0.9c-0.1,0.3-0.2,0.5-0.4,0.7s-0.4,0.4-0.7,0.5s-0.6,0.2-0.9,0.2
				s-0.6-0.1-0.9-0.2c-0.3-0.1-0.5-0.3-0.7-0.5s-0.3-0.5-0.4-0.7c-0.1-0.3-0.1-0.6-0.1-0.9C37.3,7.9,37.3,7.6,37.4,7.3z M37.9,8.8
				C38,9,38.1,9.2,38.2,9.4c0.1,0.2,0.3,0.3,0.5,0.4c0.2,0.1,0.4,0.2,0.7,0.2s0.5-0.1,0.7-0.2c0.2-0.1,0.3-0.2,0.5-0.4
				c0.1-0.2,0.2-0.4,0.3-0.6C41,8.6,41,8.4,41,8.2c0-0.2,0-0.4-0.1-0.6S40.8,7.2,40.6,7c-0.1-0.2-0.3-0.3-0.5-0.4s-0.4-0.2-0.7-0.2
				s-0.5,0.1-0.7,0.2S38.4,6.8,38.2,7c-0.1,0.2-0.2,0.4-0.3,0.6S37.8,8,37.8,8.2C37.8,8.4,37.9,8.6,37.9,8.8z"/>
		</g>
		<g>
			<path d="M42.7,6L45,9.5l0,0V6h0.5v4.3h-0.6l-2.3-3.5l0,0v3.5H42V6H42.7z"/>
		</g>
		<path class="st3" d="M7.9,12.4c-0.4,0-0.8-0.4-0.8-0.8c0-0.2,0.1-0.3,0.2-0.5l3.8-7.6c0.1-0.2,0.4-0.3,0.6-0.3
			c0.3,0,0.5,0.1,0.6,0.3l3.8,7.6c0.1,0.1,0.2,0.3,0.2,0.5c0,0.4-0.4,0.8-0.8,0.8H7.9z M7.9,12.5h7.6c0.2,0,0.2-0.2,0.1-0.3
			c0,0-3.7-7.3-3.8-7.5c0,0,0,0-0.1,0s-0.1,0-0.1,0c-0.1,0.2-3.8,7.5-3.8,7.5C7.8,12.3,7.7,12.5,7.9,12.5"/>
		<path class="st4" d="M12.3,10.6c0,0.3-0.3,0.6-0.6,0.6s-0.6-0.3-0.6-0.6s0.3-0.6,0.6-0.6S12.3,10.3,12.3,10.6"/>
		<path class="st4" d="M11.7,5.9c-0.3,0-0.5,0.2-0.5,0.5l0.2,2.8c0,0.2,0.2,0.4,0.4,0.4s0.4-0.2,0.4-0.4l0.2-2.8
			C12.2,6.1,12,5.9,11.7,5.9"/>
		<g class="st5">
			<path d="M9.9,49.9L9.9,49.9c-0.2,0.2-0.5,0.4-0.9,0.4c-0.7,0-1.1-0.4-1.1-1v0c0-0.6,0.5-1.1,1.2-1.1c0.4,0,0.6,0.1,0.9,0.3
				c0.2,0.2,0.4,0.6,0.4,1.3v0c0,1-0.5,1.8-1.3,1.8c-0.4,0-0.7-0.2-1-0.4l0.2-0.3c0.3,0.2,0.5,0.3,0.8,0.3
				C9.5,51.2,9.9,50.6,9.9,49.9z M9.8,49.3L9.8,49.3c0-0.4-0.3-0.7-0.8-0.7s-0.8,0.4-0.8,0.8v0C8.2,49.7,8.5,50,9,50
				C9.5,50,9.8,49.7,9.8,49.3z"/>
			<path d="M10.8,49.9L10.8,49.9c0-0.9,0.5-1.7,1.4-1.7c0.8,0,1.4,0.8,1.4,1.7v0c0,0.9-0.5,1.7-1.4,1.7
				C11.3,51.6,10.8,50.8,10.8,49.9z M13.2,49.9L13.2,49.9c0-0.7-0.4-1.3-1-1.3c-0.6,0-1,0.6-1,1.3v0c0,0.7,0.4,1.3,1,1.3
				C12.8,51.2,13.2,50.6,13.2,49.9z"/>
			<path d="M15.6,48.1H16v3.4h-0.4V48.1z"/>
			<path d="M17.2,51.1v0.5h-0.4v-3.4h0.4v1.5c0.2-0.3,0.5-0.5,0.9-0.5c0.6,0,1.1,0.5,1.1,1.2v0c0,0.8-0.6,1.2-1.1,1.2
				C17.7,51.6,17.4,51.3,17.2,51.1z M18.9,50.3L18.9,50.3c0-0.6-0.4-0.9-0.8-0.9c-0.4,0-0.9,0.4-0.9,0.9v0c0,0.6,0.4,0.9,0.9,0.9
				C18.5,51.2,18.9,50.9,18.9,50.3z"/>
			<path d="M19.7,51.2l0.2-0.3c0.3,0.2,0.5,0.3,0.8,0.3c0.3,0,0.5-0.1,0.5-0.4v0c0-0.2-0.3-0.3-0.6-0.4c-0.4-0.1-0.8-0.2-0.8-0.7v0
				c0-0.4,0.3-0.7,0.8-0.7c0.3,0,0.6,0.1,0.9,0.3l-0.2,0.3c-0.2-0.1-0.5-0.2-0.7-0.2c-0.3,0-0.5,0.1-0.5,0.3v0
				c0,0.2,0.3,0.3,0.6,0.4c0.4,0.1,0.8,0.3,0.8,0.7v0c0,0.5-0.4,0.7-0.9,0.7C20.4,51.6,20,51.4,19.7,51.2z"/>
			<path d="M22.2,51h0.4v0.5h-0.4V51z"/>
			<path d="M24.6,50.2c0-0.9,0.5-1.5,1.3-2l0.2,0.2c-0.7,0.4-1.1,1-1.1,1.7s0.4,1.3,1.1,1.7l-0.2,0.2C25.1,51.7,24.6,51,24.6,50.2z"
				/>
			<path d="M28.3,50.7h-1.7l-0.1-0.3l1.8-2.2h0.3v2.2h0.5v0.3h-0.5v0.8h-0.4V50.7z M28.3,50.4v-1.7L27,50.4H28.3z"/>
			<path d="M30.2,48.6l-0.6,0.2l-0.1-0.3l0.8-0.3h0.3v3.3h-0.4V48.6z"/>
			<path d="M32.8,48.1h0.4v2.3l1.3-1.3h0.4l-1,1l1,1.4h-0.4l-0.9-1.1l-0.5,0.5v0.6h-0.4V48.1z"/>
			<path d="M35.3,51.9l0.2-0.3c0.3,0.2,0.6,0.3,0.9,0.3c0.5,0,0.9-0.3,0.9-0.8v-0.3c-0.2,0.3-0.5,0.5-0.9,0.5
				c-0.6,0-1.1-0.4-1.1-1.1v0c0-0.7,0.6-1.1,1.1-1.1c0.4,0,0.7,0.2,0.9,0.5v-0.4h0.4v2c0,0.4-0.1,0.7-0.3,0.8
				c-0.2,0.2-0.5,0.3-0.9,0.3C36,52.3,35.6,52.2,35.3,51.9z M37.2,50.2L37.2,50.2c0-0.5-0.4-0.8-0.9-0.8s-0.8,0.3-0.8,0.8v0
				c0,0.5,0.4,0.8,0.8,0.8C36.8,51,37.2,50.7,37.2,50.2z"/>
		</g>
		<g class="st5">
			<path d="M38.8,51.9c0.7-0.4,1.1-1,1.1-1.7s-0.4-1.3-1.1-1.7l0.2-0.2c0.8,0.5,1.3,1.1,1.3,2s-0.5,1.5-1.3,2L38.8,51.9z"/>
		</g>
		<g class="st5">
			<path d="M7.9,53.5h2v0.3H8.2v1h1.5V55H8.2v1H10v0.3h-2V53.5z"/>
			<path d="M10.5,54.2h0.3v0.3c0.1-0.2,0.3-0.4,0.7-0.4c0.3,0,0.6,0.2,0.7,0.4c0.1-0.2,0.4-0.4,0.7-0.4c0.5,0,0.8,0.3,0.8,0.8v1.3
				h-0.3v-1.2c0-0.4-0.2-0.6-0.5-0.6c-0.3,0-0.6,0.2-0.6,0.6v1.2H12v-1.2c0-0.4-0.2-0.6-0.5-0.6c-0.3,0-0.6,0.3-0.6,0.7v1.2h-0.3
				V54.2z"/>
			<path d="M14.3,54.2h0.3v0.4c0.2-0.2,0.4-0.5,0.8-0.5c0.5,0,1,0.4,1,1.1v0c0,0.7-0.5,1.1-1,1.1c-0.4,0-0.6-0.2-0.8-0.4v1h-0.3
				V54.2z M16.1,55.3L16.1,55.3c0-0.5-0.3-0.8-0.7-0.8c-0.4,0-0.7,0.3-0.7,0.8v0c0,0.5,0.4,0.8,0.7,0.8
				C15.8,56.1,16.1,55.8,16.1,55.3z"/>
			<path d="M17.1,55.8v-1.2h-0.3v-0.3h0.3v-0.6h0.3v0.6H18v0.3h-0.7v1.2c0,0.3,0.1,0.3,0.3,0.3c0.1,0,0.2,0,0.3-0.1v0.3
				c-0.1,0.1-0.2,0.1-0.4,0.1C17.3,56.3,17.1,56.2,17.1,55.8z"/>
			<path d="M20.1,54.2h0.3l-0.9,2.1c-0.2,0.4-0.4,0.6-0.7,0.6c-0.2,0-0.3,0-0.4-0.1l0.1-0.2c0.1,0.1,0.2,0.1,0.3,0.1
				c0.2,0,0.3-0.1,0.4-0.4l-0.9-2.1h0.3l0.8,1.7L20.1,54.2z"/>
			<path d="M22,55.3L22,55.3c0-0.6,0.5-1.1,1.1-1.1c0.4,0,0.6,0.2,0.8,0.4l-0.2,0.2c-0.2-0.2-0.3-0.3-0.6-0.3
				c-0.4,0-0.7,0.4-0.7,0.8v0c0,0.4,0.3,0.8,0.8,0.8c0.3,0,0.5-0.1,0.6-0.3l0.2,0.2c-0.2,0.2-0.5,0.4-0.8,0.4
				C22.5,56.4,22,55.9,22,55.3z"/>
			<path d="M24.4,53.4h0.3v1.2c0.1-0.2,0.4-0.4,0.7-0.4c0.5,0,0.8,0.3,0.8,0.8v1.3h-0.3v-1.2c0-0.4-0.2-0.6-0.6-0.6
				c-0.4,0-0.6,0.3-0.6,0.6v1.2h-0.3V53.4z"/>
			<path d="M26.7,55.7L26.7,55.7c0-0.4,0.4-0.7,0.9-0.7c0.3,0,0.5,0,0.6,0.1v-0.1c0-0.4-0.2-0.6-0.6-0.6c-0.2,0-0.4,0.1-0.6,0.2
				l-0.1-0.3c0.2-0.1,0.5-0.2,0.8-0.2c0.3,0,0.5,0.1,0.7,0.2c0.1,0.1,0.2,0.3,0.2,0.6v1.3h-0.3V56c-0.1,0.2-0.4,0.4-0.7,0.4
				C27.1,56.4,26.7,56.1,26.7,55.7z M28.3,55.6v-0.2c-0.2,0-0.4-0.1-0.6-0.1c-0.4,0-0.6,0.2-0.6,0.4v0c0,0.3,0.2,0.4,0.5,0.4
				C27.9,56.1,28.3,55.9,28.3,55.6z"/>
			<path d="M29,56l0.2-0.2c0.2,0.2,0.5,0.3,0.7,0.3c0.2,0,0.4-0.1,0.4-0.3v0c0-0.2-0.2-0.3-0.5-0.4c-0.3-0.1-0.7-0.2-0.7-0.6v0
				c0-0.4,0.3-0.6,0.7-0.6c0.3,0,0.5,0.1,0.7,0.2l-0.1,0.2c-0.2-0.1-0.4-0.2-0.6-0.2c-0.2,0-0.4,0.1-0.4,0.3v0
				c0,0.2,0.3,0.3,0.5,0.4c0.3,0.1,0.7,0.2,0.7,0.6v0c0,0.4-0.3,0.6-0.7,0.6C29.6,56.4,29.3,56.2,29,56z"/>
			<path d="M31,56l0.2-0.2c0.2,0.2,0.5,0.3,0.7,0.3c0.2,0,0.4-0.1,0.4-0.3v0c0-0.2-0.2-0.3-0.5-0.4c-0.3-0.1-0.7-0.2-0.7-0.6v0
				c0-0.4,0.3-0.6,0.7-0.6c0.3,0,0.5,0.1,0.7,0.2l-0.1,0.2c-0.2-0.1-0.4-0.2-0.6-0.2c-0.2,0-0.4,0.1-0.4,0.3v0
				c0,0.2,0.3,0.3,0.5,0.4c0.3,0.1,0.7,0.2,0.7,0.6v0c0,0.4-0.3,0.6-0.7,0.6C31.5,56.4,31.2,56.2,31,56z"/>
			<path d="M33.1,53.5h0.4v0.3h-0.4V53.5z M33.2,54.2h0.3v2.1h-0.3V54.2z"/>
			<path d="M34,56l0.2-0.2c0.2,0.2,0.5,0.3,0.7,0.3c0.2,0,0.4-0.1,0.4-0.3v0c0-0.2-0.2-0.3-0.5-0.4c-0.3-0.1-0.7-0.2-0.7-0.6v0
				c0-0.4,0.3-0.6,0.7-0.6c0.3,0,0.5,0.1,0.7,0.2l-0.1,0.2c-0.2-0.1-0.4-0.2-0.6-0.2c-0.2,0-0.4,0.1-0.4,0.3v0
				c0,0.2,0.3,0.3,0.5,0.4c0.3,0.1,0.7,0.2,0.7,0.6v0c0,0.4-0.3,0.6-0.7,0.6C34.6,56.4,34.2,56.2,34,56z"/>
		</g>
		<polyline class="st0" points="31.5,45.5 47.4,36.3 47.4,26.1 31.5,34.1 		"/>
		<polyline class="st6" points="31.5,45.5 47.4,36.3 47.4,26.1 31.5,34.1 		"/>
		<polyline class="st0" points="17.4,26.3 33.3,19.5 47.4,26.1 31.5,34.5 		"/>
		<polyline class="st6" points="17.4,26.3 33.3,19.8 47.4,26.1 31.5,34.5 		"/>
		<polygon class="st0" points="17.4,26.3 31.5,34.5 31.5,45.5 17.4,37.4 		"/>
		<polygon class="st6" points="17.4,26.3 31.5,34.5 31.5,45.5 17.4,37.4 		"/>
		<line class="st7" x1="21.9" y1="34.5" x2="17.9" y2="32.2"/>
		<line class="st6" x1="21.9" y1="34.5" x2="17.9" y2="32.2"/>
		<line class="st7" x1="21.9" y1="34.4" x2="17.9" y2="32.1"/>
		<line class="st6" x1="21.9" y1="34.4" x2="17.9" y2="32.1"/>
		<line class="st7" x1="31" y1="45.2" x2="31" y2="34.2"/>
		<line class="st6" x1="31" y1="45.2" x2="31" y2="34.2"/>
		<line class="st7" x1="17.9" y1="26.6" x2="17.9" y2="37.7"/>
		<line class="st6" x1="17.9" y1="26.6" x2="17.9" y2="37.7"/>
		<line class="st7" x1="21.9" y1="40" x2="21.9" y2="28.9"/>
		<line class="st6" x1="21.9" y1="40" x2="21.9" y2="28.9"/>
		<line class="st7" x1="22.4" y1="29.2" x2="22.4" y2="40.3"/>
		<line class="st6" x1="22.4" y1="29.2" x2="22.4" y2="40.3"/>
		<line class="st7" x1="26.4" y1="42.6" x2="26.4" y2="31.6"/>
		<line class="st6" x1="26.4" y1="42.6" x2="26.4" y2="31.6"/>
		<line class="st7" x1="27" y1="31.9" x2="27" y2="42.9"/>
		<line class="st6" x1="27" y1="31.9" x2="27" y2="42.9"/>
		<line class="st7" x1="26.4" y1="37.2" x2="22.4" y2="34.8"/>
		<line class="st6" x1="26.4" y1="37.2" x2="22.4" y2="34.8"/>
		<line class="st7" x1="26.4" y1="37" x2="22.4" y2="34.7"/>
		<line class="st6" x1="26.4" y1="37" x2="22.4" y2="34.7"/>
		<line class="st7" x1="31" y1="39.8" x2="27" y2="37.5"/>
		<line class="st6" x1="31" y1="39.8" x2="27" y2="37.5"/>
		<line class="st7" x1="31" y1="39.7" x2="27" y2="37.3"/>
		<line class="st6" x1="31" y1="39.7" x2="27" y2="37.3"/>
	</g>
	<g>
		<rect x="72" y="34.6" class="st4" width="14.9" height="6.4"/>
		<path class="st9" d="M86.9,41H72v-6.4h14.9V41z M87.7,41.8H71.3v-7.9h16.4L87.7,41.8"/>
		<g>
			<path class="st9" d="M71.1,25.6c0,1.3-1,2.3-2.3,2.3s-2.3-1-2.3-2.3s1-2.3,2.3-2.3C70.1,23.3,71.1,24.3,71.1,25.6z"/>
			<path class="st9" d="M64.9,28.5c0.5-0.9,1.8-1.4,2.6-0.8l2,1.3l1.8,4.3l3.5,3.2c0.5,0.5,0.5,1.2,0,1.6c-0.5,0.5-1.2,0.5-1.6,0
				l-4.4-3.6l-0.5-1.8L66.8,36l3.8,4.8c0.5,0.7,0.4,1.7,0.3,2l-2.6,6.6c-0.3,0.7-1.1,1-1.8,0.7c-0.7-0.3-1-1.1-0.7-1.8l2.1-5.4
				c0.1-0.4-0.1-1-0.4-1.3l-4.7-5.5c-0.7-0.7-0.8-1.8-0.3-2.8L64.9,28.5"/>
		</g>
		<g>
			<path class="st9" d="M87.9,25.6c0,1.3,1,2.3,2.3,2.3s2.3-1,2.3-2.3s-1-2.3-2.3-2.3C88.9,23.3,87.9,24.3,87.9,25.6z"/>
			<path class="st9" d="M94.1,28.5c-0.5-0.9-1.8-1.4-2.6-0.8l-2,1.3l-1.8,4.3l-3.5,3.2c-0.5,0.5-0.5,1.2,0,1.6
				c0.5,0.5,1.2,0.5,1.6,0l4.4-3.6l0.5-1.8l1.5,3.3l-3.8,4.8c-0.5,0.7-0.4,1.7-0.3,2l2.6,6.6c0.3,0.7,1.1,1,1.8,0.7
				c0.7-0.3,1-1.1,0.7-1.8l-2.1-5.4c-0.2-0.4,0.1-1,0.3-1.3l4.7-5.5c0.7-0.7,0.8-1.8,0.3-2.8L94.1,28.5"/>
		</g>
	</g>
</g>
</svg>
