<?xml version="1.0" encoding="utf-8"?>
<!-- Generator: Adobe Illustrator 19.1.0, SVG Export Plug-In . SVG Version: 6.00 Build 0)  -->
<svg version="1.1" xmlns="http://www.w3.org/2000/svg" xmlns:xlink="http://www.w3.org/1999/xlink" x="0px" y="0px" width="288px"
	 height="360px" viewBox="0 0 288 360" style="enable-background:new 0 0 288 360;" xml:space="preserve">
<style type="text/css">
	.st0{fill:none;stroke:#000000;stroke-width:0.5;stroke-miterlimit:10;}
	.st1{fill:none;stroke:#000000;stroke-width:0.5;stroke-linecap:round;stroke-linejoin:round;stroke-miterlimit:10;}
	.st2{fill:none;stroke:#000000;stroke-width:0.5155;stroke-linecap:round;stroke-linejoin:round;stroke-miterlimit:10;}
	.st3{fill:none;stroke:#000000;stroke-width:0.3992;stroke-linecap:round;stroke-linejoin:round;stroke-miterlimit:10;}
	.st4{fill:#FFFFFF;stroke:#000000;stroke-width:0.5;stroke-linecap:round;stroke-linejoin:round;stroke-miterlimit:10;}
	.st5{fill:none;stroke:#000000;stroke-width:0.3764;stroke-linecap:round;stroke-linejoin:round;stroke-miterlimit:10;}
	.st6{fill:none;stroke:#000000;stroke-width:0.273;stroke-linecap:round;stroke-linejoin:round;stroke-miterlimit:10;}
	.st7{fill:none;stroke:#000000;stroke-width:1.25;stroke-linecap:round;stroke-linejoin:round;stroke-miterlimit:10;}
	.st8{fill:none;stroke:#000000;stroke-width:1.125;stroke-linecap:round;stroke-linejoin:round;stroke-miterlimit:10;}
	.st9{fill:none;stroke:#000000;stroke-width:0.25;stroke-linecap:round;stroke-linejoin:round;stroke-miterlimit:10;}
	.st10{fill:none;stroke:#000000;stroke-width:0.4338;stroke-linecap:round;stroke-linejoin:round;stroke-miterlimit:10;}
	.st11{fill:none;stroke:#000000;stroke-width:0.3709;stroke-linecap:round;stroke-linejoin:round;stroke-miterlimit:10;}
	.st12{fill:none;stroke:#000000;stroke-width:0.3819;stroke-linecap:round;stroke-linejoin:round;stroke-miterlimit:10;}
	.st13{fill:none;stroke:#000000;stroke-width:0.3598;stroke-linecap:round;stroke-linejoin:round;stroke-miterlimit:10;}
	.st14{clip-path:url(#SVGID_2_);}
	.st15{fill:#FFFFFF;stroke:#000000;stroke-width:0.2773;stroke-linecap:round;stroke-linejoin:round;stroke-miterlimit:10;}
	.st16{fill:#FFFFFF;stroke:#000000;stroke-width:0.3263;stroke-linecap:round;stroke-linejoin:round;stroke-miterlimit:10;}
	.st17{fill:#FFFFFF;stroke:#000000;stroke-width:0.2743;stroke-linecap:round;stroke-linejoin:round;stroke-miterlimit:10;}
	.st18{fill:none;stroke:#000000;stroke-width:0.3263;stroke-linecap:round;stroke-linejoin:round;stroke-miterlimit:10;}
	.st19{fill:none;stroke:#000000;stroke-width:0.2832;stroke-linecap:round;stroke-linejoin:round;stroke-miterlimit:10;}
	.st20{fill:none;stroke:#000000;stroke-width:0.2743;stroke-linecap:round;stroke-linejoin:round;stroke-miterlimit:10;}
	.st21{fill:#FFFFFF;stroke:#000000;stroke-width:0.35;stroke-linecap:round;stroke-linejoin:round;stroke-miterlimit:10;}
	.st22{clip-path:url(#SVGID_4_);}
	.st23{fill:#BCBEC0;}
	.st24{fill:none;stroke:#000000;stroke-width:0.4;stroke-linecap:round;stroke-linejoin:round;stroke-miterlimit:10;}
	.st25{fill:none;stroke:#000000;stroke-width:0.4614;stroke-linecap:round;stroke-linejoin:round;stroke-miterlimit:10;}
	.st26{fill:none;stroke:#000000;stroke-width:0.4427;stroke-linecap:round;stroke-linejoin:round;stroke-miterlimit:10;}
	.st27{fill:none;stroke:#000000;stroke-width:1.5282;stroke-linecap:round;stroke-linejoin:round;stroke-miterlimit:10;}
	.st28{fill:none;stroke:#000000;stroke-width:0.382;stroke-linecap:round;stroke-linejoin:round;stroke-miterlimit:10;}
	.st29{fill:#2E2A25;}
	.st30{fill:none;stroke:#FFFFFF;stroke-width:0.2886;stroke-miterlimit:10;}
	.st31{fill:none;stroke:#FFFFFF;stroke-width:2.6305;stroke-linecap:round;stroke-linejoin:round;}
	.st32{fill:#FFFFFF;stroke:#000000;stroke-width:0.6576;stroke-linecap:round;stroke-linejoin:round;}
</style>
<g id="Base">
	<path class="st0" d="M211,158.7L233.5,42l-5.4-0.4l2.5-14.6l-1-1.3L217.2,24c-2.3,0-6.3-1-6.5-4.8c-0.2-3.8-4.4-4.6-4.4-4.6
		l-26.3-3.1c-4.8-1.3-7.9,2.3-7.9,2.3c-2.5,4.8-5.8,4-5.8,4l-53.4-6.7L87,139.8l1.1,1.3l16.4,1.7l-1.1,9l2.7,1.9l100.5,12.6
		L211,158.7z"/>
	<path class="st1" d="M206.7,166.3c0,0-48.7,97.1-51,103.8c-2.3,6.7-5.9,5.4-5.9,5.4l-10.3-1.3l-1.7,4.2l78.8,9.7
		c0,0,6.7-13,9.2-17.4c2.5-4.4,0.6-3.6-3.1-6.1s-1.5-1.9-0.4-5.5c1.1-3.6,4.2-4.6,4.2-4.6s1.7,0,4.8-0.2s4.4-4.2,4.4-4.2
		s9.9-19.1,13-26.4s3.8-5.7-0.2-8.6s-3.1-0.6-1.1-5.7c1.9-5.2,4.6-4.8,4.6-4.8c8-0.2,7.6-2.5,7.6-2.5l6.8-14.3l3.2,0.4L269,220
		l-50.3,100c0,0,0.2-16.8,0-19.7c-0.2-2.9-0.8-4.4-0.8-4.4c0.2-2.9-0.8-4.2-0.8-4.2l-195-24.9l-2.7,4.7l-0.1,0.2l0.1,11.7"/>
	<polyline class="st1" points="211.4,157.9 212.8,155.6 271.7,163.1 271.7,164.4 276.1,164.6 276.2,165.9 279.3,166.9 279.1,176.3 
		280.1,177.6 280.1,193.9 279.7,195.4 269.4,217.4 	"/>
	<path class="st1" d="M216.8,170.2c0,0,1-4.4,8-3.6c7.1,0.8,31.4,4,31.4,4s6.9-0.6,4.8,4.2c-2.1,4.8-4,6.7-4,6.7s0,1.3,2.1,3.1
		c2.1,1.7,2.5,0.6,1,3.8c-1.5,3.2-5.5,1.9-5.5,1.9l-2.1,0.4l-42.2,85.8c0,0-1.7,4.4-8.6,2.9c-6.9-1.5-31.7-3.8-31.7-3.8
		s-5.7-0.6-3.1-5.4C169.4,265.3,216.8,170.2,216.8,170.2z"/>
	<line class="st0" x1="250.4" y1="215.6" x2="255.8" y2="203.8"/>
	<line class="st0" x1="224.8" y1="265.7" x2="231.1" y2="254.3"/>
	<polyline class="st1" points="271.6,163.9 269,168.7 269.7,187.1 	"/>
	<path class="st1" d="M279.1,167.1l-1.5,3.3c0,0-0.1,0.8-1.8,0.5c-1.6-0.3-1.5,1.4-1.6,2.6c-0.1,1.2,0.1,11.8,0.1,11.8l1.2,4.6
		l1.9,0.6l-7.8,15.8"/>
	<polyline class="st1" points="268.2,187.5 268.7,187 272.5,187.6 	"/>
	
		<ellipse transform="matrix(0.9965 8.363634e-02 -8.363634e-02 0.9965 16.9425 -22.0791)" class="st2" cx="272" cy="191.2" rx="0.8" ry="3.7"/>
	<line class="st2" x1="271.5" y1="194.8" x2="269.7" y2="194.5"/>
	<polyline class="st2" points="267.1,186.7 266.8,178.8 262.7,186.6 265.5,187 265.9,187.8 	"/>
	<ellipse class="st2" cx="219.3" cy="159.3" rx="2.2" ry="1.2"/>
	<ellipse class="st2" cx="264.8" cy="165.4" rx="2.2" ry="1.2"/>
	<ellipse class="st2" cx="273.2" cy="166.9" rx="2.2" ry="1.2"/>
	<path class="st1" d="M25.5,275.5l185.4,22.9l0-2.7l3.4,0.4c0,0,2-0.3,1.4,4l-0.3,25.1c0,0-0.1,3.6-2.7,0"/>
	<polyline class="st1" points="19.5,271.6 22.6,271.8 22.4,275.1 23.4,275.2 	"/>
	<line class="st1" x1="25.3" y1="297.2" x2="203.2" y2="319.4"/>
	<polygon class="st1" points="59.8,298.5 33.1,295.1 33.1,288.9 59.8,292.3 	"/>
	<polygon class="st1" points="71.2,299.7 62.1,298.5 62.1,284.9 71.2,286.1 	"/>
	<polygon class="st1" points="82.9,301 73.8,299.9 73.8,286.3 82.9,287.4 	"/>
	<polygon class="st1" points="94.5,302.3 85.5,301.2 85.5,287.6 94.5,288.8 	"/>
	<polygon class="st1" points="107.6,303.7 97.3,302.5 97.3,288.2 107.6,289.4 	"/>
	<polygon class="st1" points="119.7,305.3 109.6,304 109.6,296.2 119.7,297.5 	"/>
	<polygon class="st1" points="132.1,306.7 121.2,305.4 121.2,293.6 132.1,295 	"/>
	<line class="st3" x1="39.9" y1="289.9" x2="39.9" y2="295.8"/>
	<line class="st3" x1="46.5" y1="290.6" x2="46.5" y2="296.9"/>
	<line class="st3" x1="53.2" y1="291.5" x2="53.2" y2="297.5"/>
	<line class="st3" x1="27.7" y1="276.1" x2="27.8" y2="297.6"/>
	<line class="st3" x1="149.6" y1="291" x2="149.5" y2="312.2"/>
	<path class="st4" d="M138.8,294c-0.2,1.7-1.9,2.8-3.8,2.5c-1.9-0.3-3.3-2-3.1-3.7c0.2-1.7,1.9-2.8,3.8-2.5
		C137.6,290.6,139,292.3,138.8,294z"/>
	<path class="st4" d="M138,295.7c-0.2,1.7-1.9,2.8-3.8,2.5c-1.9-0.3-3.3-2-3.1-3.7c0.2-1.7,1.9-2.8,3.8-2.5
		C136.8,292.3,138.2,294,138,295.7z"/>
	<polyline class="st5" points="152.2,291.4 152.3,303.7 149.7,309.2 203.5,315.7 	"/>
	<line class="st5" x1="152.7" y1="294.1" x2="210.9" y2="301.4"/>
	<line class="st5" x1="152.5" y1="301.9" x2="207" y2="308.6"/>
	<path class="st5" d="M152.6,312.8c0,0,0-2.4,2-2.1s48.7,6.2,48.7,6.2"/>
	<path class="st6" d="M205.2,307.4l-48.8-6c-0.7,0-1.2-0.5-1.2-1.1l0-3.6c0-0.6,0.6-1.1,1.2-1.1l48.8,6c0.7,0,1.2,0.5,1.2,1.1l0,3.6
		C206.4,306.9,205.9,307.4,205.2,307.4z"/>
	<path class="st1" d="M216.4,288.1l2.4,0.4c0,0,1.8,0.2,0.4,1.2l-2.1-0.2l-0.8,1.7"/>
	<polyline class="st1" points="149.6,275.5 149.5,268.6 149.5,268.6 175.2,217.6 180.7,218.2 	"/>
	<line class="st1" x1="155.7" y1="269.7" x2="149.5" y2="268.9"/>
	<polygon class="st1" points="120,212.1 126.2,199.4 134.5,200.5 136.1,197.5 152.3,199.4 150.7,202.3 159,203.5 152.8,216.5 
		144.3,215.3 142.7,218.4 126.5,216.4 128,213.4 	"/>
	<polyline class="st1" points="110.2,270.4 115.8,259.8 118.7,260.2 120.3,257.7 134.2,259.5 134.5,269.8 	"/>
	<polyline class="st1" points="79.8,266.5 79.7,262.7 85.1,252.1 88.3,252.4 89.8,249.8 103.6,251.6 103.6,262.4 100.2,268.8 	"/>
	<polyline class="st1" points="102,269.1 104.9,264.1 104.8,261.8 103.9,261.7 	"/>
	<line class="st1" x1="134.2" y1="269.8" x2="132.7" y2="272.7"/>
	<polyline class="st1" points="134.3,273.2 135.4,270.9 135.6,269 134.9,268.8 	"/>
	<polyline class="st1" points="63.5,264.2 63.1,255.1 49,253.2 47.3,256.4 44.3,256 41.5,261 	"/>
	<line class="st1" x1="44.7" y1="255.6" x2="53.9" y2="237.5"/>
	<path class="st1" d="M27.8,267.1l-0.2-2.5L30,260l101.2,13.2l0.4-0.5l3.9,0.6l-1.1,2.2c0,0,3.2-0.1,3.2,2.9"/>
	<path class="st1" d="M23,266.8c0,0,0.1-1.5,1.1-3.5c1.1-2,24-47.9,24-47.9l1-0.2l0.4-0.7l2.1,0.4"/>
	<path class="st1" d="M30.9,260.2l20.8-41.8c0,0,0.7-1.1-0.3-2.9c0,0-1.2-2.4,0-5.3c0,0-1.4-0.7-0.7-2.3c0.8-1.6,1.7-3.7,1.7-3.7
		s0.4-0.5,2.1-0.9c1.7-0.4,0.9-1.2,0.9-1.8c0-0.6,1.2-2.7,1.2-2.7s0.5-0.6,1.1-0.3c0.7,0.3-0.3-0.5,0.3-2.1c0.6-1.6,4-8.2,4-8.2"/>
	<path class="st1" d="M67.2,180.8c0,0-0.4-2.3,0.8-4.1c1.1-1.8,5.8-11.5,5.8-11.5l-0.3-2.9l2.6-5.3c0,0,1.7,0.4,2.9-1.9"/>
	<path class="st1" d="M80.7,154.3c0,0-0.3-2.8,0.8-4.7c1.1-1.9,3.2-7,3.2-7s0.2-1.1,2.5-0.9l1-0.3"/>
	<ellipse class="st1" cx="98.4" cy="145" rx="2.2" ry="1"/>
	<ellipse class="st1" cx="90" cy="143.4" rx="2.2" ry="1"/>
	<line class="st1" x1="104.2" y1="163.9" x2="201.6" y2="176.1"/>
	<polygon class="st1" points="104.6,164.8 102.1,169.8 107.8,170.6 110.5,165.5 	"/>
	<polyline class="st1" points="102.1,169.8 101.5,178.4 107.5,179.2 107.8,170.6 	"/>
	<polyline class="st1" points="102,178.8 102,180.5 107.4,181.3 110.6,174.9 111.6,175.3 112.8,172.8 112.6,165.2 	"/>
	<line class="st1" x1="107.4" y1="179" x2="107.4" y2="181.3"/>
	<line class="st1" x1="131.2" y1="288.8" x2="131.2" y2="294.1"/>
	<polyline class="st1" points="138,296.2 143.1,296.7 143.2,289.9 	"/>
	<polyline class="st7" points="178.4,217.2 152.3,269.4 152.3,274.5 	"/>
	<polyline class="st8" points="104,189 84.2,228.4 84.2,236.7 	"/>
	<polyline class="st8" points="110.4,189.3 90.6,228.6 90.6,237 	"/>
	<polyline class="st8" points="116.3,190.2 96.6,229.6 96.6,237.9 	"/>
	<polyline class="st8" points="122.5,191.1 102.7,230.5 102.7,238.8 	"/>
	<line class="st1" x1="111.6" y1="175.3" x2="134.9" y2="178.2"/>
	<path class="st1" d="M135.5,176.3l-17.9-2.3c0,0-3.2,0.2-3.3,1.4"/>
	<line class="st1" x1="120" y1="212.1" x2="120.4" y2="232.5"/>
	<line class="st1" x1="126.5" y1="216.4" x2="126.9" y2="236.2"/>
	<line class="st1" x1="142.7" y1="218.4" x2="143" y2="238.1"/>
	<line class="st1" x1="144.9" y1="215.6" x2="145" y2="229.6"/>
	<line class="st1" x1="152.8" y1="216.5" x2="152.6" y2="234.6"/>
	<line class="st1" x1="159" y1="203.5" x2="159.5" y2="221.9"/>
	<polyline class="st1" points="120.1,230.3 118.1,234.9 150.1,239.5 161.1,219.9 159.5,219.4 	"/>
	<polyline class="st1" points="161.1,219.9 161.5,221.3 150.3,241.1 117.9,236.6 118.1,234.9 	"/>
	<polyline class="st1" points="135.1,272.9 139,264.9 146,266 147.2,263.3 151.3,264 	"/>
	<polyline class="st1" points="185.7,207.1 173.5,205.2 172.7,207 166.9,219.3 	"/>
	<line class="st1" x1="185.2" y1="209" x2="172.7" y2="207.1"/>
	<polyline class="st1" points="151.9,243.7 156.8,234.2 165.9,235.2 	"/>
	<polyline class="st1" points="169.1,222.1 169.7,220 164.8,219.3 163.9,221.6 172.1,222.7 	"/>
	<polyline class="st1" points="169.7,227.7 164.2,227 163.9,221.6 	"/>
	<g>
		<polygon class="st1" points="85.2,237.2 81.5,236.8 80.2,239.6 80.1,242.9 81.5,245.8 81.6,248.5 85.5,249 85.2,246.1 83.8,243.8 
			83.9,240.2 		"/>
		<line class="st1" x1="80.8" y1="239.8" x2="83.9" y2="240.2"/>
		<line class="st1" x1="80.4" y1="243.4" x2="83.5" y2="243.8"/>
		<line class="st1" x1="81.5" y1="245.5" x2="84.7" y2="245.9"/>
	</g>
	<polyline class="st1" points="85.2,237.2 85.4,244.8 86.9,245.9 85.5,249 	"/>
	<line class="st1" x1="85.2" y1="246.1" x2="85.4" y2="244.8"/>
	<g>
		<polygon class="st1" points="91.5,237.9 87.8,237.5 86.5,240.4 86.4,243.7 87.8,246.5 87.9,249.2 91.8,249.7 91.5,246.8 
			90.1,244.5 90.2,240.9 		"/>
		<line class="st1" x1="87.1" y1="240.5" x2="90.2" y2="240.9"/>
		<line class="st1" x1="86.7" y1="244.1" x2="89.8" y2="244.5"/>
		<line class="st1" x1="87.8" y1="246.2" x2="91" y2="246.7"/>
	</g>
	<polyline class="st1" points="91.5,237.9 91.7,245.5 93.3,246.7 91.8,249.7 	"/>
	<g>
		<polygon class="st1" points="97.6,238.6 93.8,238.2 92.5,241.1 92.4,244.4 93.8,247.2 94,250 97.8,250.4 97.6,247.5 96.1,245.2 
			96.3,241.6 		"/>
		<line class="st1" x1="93.1" y1="241.2" x2="96.3" y2="241.6"/>
		<line class="st1" x1="92.7" y1="244.8" x2="95.8" y2="245.2"/>
		<line class="st1" x1="93.8" y1="246.9" x2="97" y2="247.4"/>
	</g>
	<polyline class="st1" points="97.6,238.6 97.7,246.2 99.3,247.4 97.8,250.4 	"/>
	<g>
		<polygon class="st1" points="103.9,239.5 100.1,239.1 98.8,241.9 98.7,245.2 100.1,248.1 100.3,250.8 104.2,251.3 103.9,248.4 
			102.4,246.1 102.6,242.5 		"/>
		<line class="st1" x1="99.4" y1="242.1" x2="102.6" y2="242.5"/>
		<line class="st1" x1="99" y1="245.7" x2="102.1" y2="246.1"/>
		<line class="st1" x1="100.1" y1="247.8" x2="103.3" y2="248.2"/>
	</g>
	<polyline class="st1" points="103.9,239.5 104,247.1 105.6,248.2 104.2,251.3 	"/>
	<line class="st1" x1="91.5" y1="246.5" x2="91.7" y2="245.2"/>
	<line class="st1" x1="82.1" y1="235.3" x2="86.5" y2="235.8"/>
	<g>
		<polyline class="st1" points="82.2,236.2 82.1,227.7 101.7,188.9 106.3,189.5 106.4,191.6 		"/>
		<polyline class="st1" points="86.8,238.9 86.5,228.3 106,190.2 		"/>
		<line class="st1" x1="82.1" y1="227.9" x2="86.5" y2="228.3"/>
		<line class="st1" x1="82.2" y1="235.5" x2="86.7" y2="235.9"/>
	</g>
	<g>
		<polyline class="st1" points="88.2,236.9 88.1,228.5 107.7,189.6 112.3,190.2 112.5,192.3 		"/>
		<polyline class="st1" points="92.8,239.6 92.5,229 112,190.9 		"/>
		<line class="st1" x1="88.1" y1="228.6" x2="92.5" y2="229"/>
		<line class="st1" x1="88.2" y1="236.2" x2="92.7" y2="236.6"/>
	</g>
	<g>
		<polyline class="st1" points="94.3,237.5 94.1,229 113.8,190.2 118.3,190.7 118.5,192.9 		"/>
		<polyline class="st1" points="98.8,240.2 98.6,229.6 118.1,191.5 		"/>
		<line class="st1" x1="94.1" y1="229.2" x2="98.6" y2="229.6"/>
		<line class="st1" x1="94.3" y1="236.8" x2="98.7" y2="237.2"/>
	</g>
	<g>
		<polyline class="st1" points="100.6,238.5 100.4,230 120.1,191.2 124.7,191.8 124.9,201.1 		"/>
		<polyline class="st1" points="124.4,192.5 104.9,230.6 105,245.5 119.9,216.4 		"/>
		<line class="st1" x1="100.4" y1="230.2" x2="104.9" y2="230.6"/>
		<line class="st1" x1="100.6" y1="237.8" x2="105" y2="238.2"/>
	</g>
	<line class="st1" x1="105.6" y1="248.2" x2="119.9" y2="219.7"/>
	<g>
		<g>
			<path class="st4" d="M121.1,228.2l0,1.7c0,0,0.4,1.1,2.5,1.1c0,0,1.7,0,2.1-1.2v-1.9"/>
			<ellipse class="st4" cx="123.5" cy="228" rx="2.3" ry="1.2"/>
			<ellipse class="st4" cx="150.8" cy="252.2" rx="3.4" ry="1.8"/>
		</g>
		<g>
			<g>
				<path class="st1" d="M121.7,230.5c0,0-1.2,1.1,1.4,1.3c0,0,1.3,0.1,2-0.6"/>
				<path class="st1" d="M121.7,231.5c0,0-1.2,1.1,1.4,1.3c0,0,1.3,0.1,2-0.6"/>
				<path class="st1" d="M121.7,232.6c0,0-1.2,1.1,1.4,1.3c0,0,1.3,0.1,2-0.6"/>
				<path class="st1" d="M121.7,233.7c0,0-1.2,1.1,1.4,1.3c0,0,1.3,0.1,2-0.6"/>
			</g>
			<line class="st9" x1="122" y1="230.6" x2="122.2" y2="235.2"/>
			<line class="st9" x1="125" y1="230.7" x2="125.2" y2="234.8"/>
		</g>
	</g>
	<g>
		<g>
			<path class="st4" d="M144.4,231l0,1.7c0,0,0.4,1.1,2.5,1.1c0,0,1.7,0,2.1-1.2v-1.9"/>
			<ellipse class="st4" cx="146.7" cy="230.9" rx="2.3" ry="1.2"/>
		</g>
		<g>
			<g>
				<path class="st1" d="M144.9,233.3c0,0-1.2,1.1,1.4,1.3c0,0,1.3,0.1,2-0.6"/>
				<path class="st1" d="M144.9,234.4c0,0-1.2,1.1,1.4,1.3c0,0,1.3,0.1,2-0.6"/>
				<path class="st1" d="M144.9,235.5c0,0-1.2,1.1,1.4,1.3c0,0,1.3,0.1,2-0.6"/>
				<path class="st1" d="M144.9,236.6c0,0-1.2,1.1,1.4,1.3c0,0,1.3,0.1,2-0.6"/>
			</g>
			<line class="st9" x1="145.3" y1="233.5" x2="145.4" y2="238.1"/>
			<line class="st9" x1="148.3" y1="233.5" x2="148.5" y2="237.6"/>
		</g>
	</g>
	<polyline class="st1" points="103.6,251.6 97.8,262.6 98.1,268.5 	"/>
	<polyline class="st1" points="79.7,262.7 90,264.2 90.8,261.9 97.8,262.6 	"/>
	<line class="st1" x1="90" y1="264.2" x2="90.1" y2="267.5"/>
	<line class="st1" x1="63.1" y1="255.1" x2="58.8" y2="263.4"/>
	<polyline class="st1" points="134.2,259.5 128.7,269.9 121.8,268.9 120.5,271.3 	"/>
	<line class="st1" x1="128.7" y1="272.6" x2="128.7" y2="269.9"/>
	<path class="st1" d="M146.4,251.8l2.9-6.5c0,0,0.7-1.9,3.6-1.1l3.9,0.6c0,0,2-0.1,1.4,2l-3.3,7.2c0,0-1.9,2.2-5.4,1.6
		C149.5,255.6,145,255.3,146.4,251.8z"/>
	<line class="st1" x1="147.2" y1="263.3" x2="146.2" y2="253.7"/>
	<line class="st1" x1="155.3" y1="257" x2="155" y2="254"/>
	<path class="st1" d="M52,216.6h0.7l0.4,20.4l3.6,0.4v-8.5c0,0-0.4-4,4.7-3.6c0,0,4.9,1.1,4.4,5l0.3,8.6l3.3,0.3l0-0.4l-0.1-13.3"/>
	<polyline class="st1" points="69.5,238.8 71.5,235.1 71.7,237.1 72.9,235.1 72.9,232.3 77.5,223 77.2,217.7 	"/>
	<polyline class="st1" points="79.9,212.5 80.1,218.8 80.8,216.6 80.9,218.8 82.1,216.7 82.1,213.7 93.8,190.6 93.8,192.8 95,190.6 
		94.8,187.9 98.1,181.7 98,176.1 	"/>
	<path class="st1" d="M96.7,157.5l-3,6.7l-0.9-0.3l-0.6,0.6l-13.9-1.7L64.7,191l0.3,0.7l-2.7,5.7l-1,0.1l-4.4,8.6h1.6l-1.6,3.2
		l-1.6-0.3l-2.6,4.6l16.9,2l28.1-56.1C99.1,157.2,96.7,157.5,96.7,157.5l-15.5-1.7l1.4-2.4l19.1,2.2c0,0,2.2-0.1,2.2,2.2
		c0,2.3,0,6.7,0,6.7l-30,59.6c0,0-0.3,1.6-3.7,1.4l-17.1-2"/>
	<line class="st1" x1="61.3" y1="197.6" x2="77.2" y2="199.6"/>
	<polyline class="st1" points="78.8,193.2 68.9,214.1 53.7,212.3 	"/>
	<polyline class="st1" points="69,181.6 66.3,181.1 62.9,187.9 65.7,188.3 	"/>
	<polyline class="st1" points="81.2,155.1 79.9,154.8 79.2,156.6 79.2,157.9 79.8,157.8 	"/>
	<polyline class="st1" points="81.8,156.2 79.9,159.8 77.2,159.5 75.3,163.1 77.8,163.2 	"/>
	<polyline class="st1" points="77.6,164.7 82.5,165.4 80.6,169 75.9,168.2 	"/>
	<polyline class="st1" points="66.7,187.5 71.6,188.2 69.7,191.8 65,191 	"/>
	<polygon class="st1" points="90.8,170.2 92.5,166.8 87.8,166.2 86.2,169.5 	"/>
	<polygon class="st1" points="79.5,193 81.2,189.6 76.5,189 74.9,192.3 	"/>
	<polyline class="st1" points="81.5,192.8 85.4,193.2 85.5,200.5 	"/>
	<polyline class="st1" points="87.5,180 91.5,180.4 91.8,187.5 	"/>
	<polyline class="st1" points="97.4,183.6 98.8,183.6 100.1,182 100.3,176.8 101.4,174.8 	"/>
	<polyline class="st1" points="85.1,184.3 81.6,183.7 79.9,187.6 81.9,187.7 82.6,188.6 	"/>
	<line class="st1" x1="82.5" y1="156.2" x2="82.5" y2="163.1"/>
	<line class="st1" x1="79.9" y1="159.8" x2="80.1" y2="162.6"/>
	<ellipse class="st10" cx="56.8" cy="220.9" rx="2.2" ry="1.9"/>
	<line class="st10" x1="75.3" y1="163.1" x2="75.2" y2="169"/>
	<polyline class="st10" points="62.9,187.9 62.9,190.5 64.4,192.6 	"/>
	<polyline class="st10" points="56.3,206.1 54.3,205.7 52.3,209.5 54.7,210 	"/>
	<line class="st10" x1="52.3" y1="209.5" x2="52.7" y2="213.7"/>
	<path class="st10" d="M159.5,262.1l1.3,0.2l2.7,0.4c0,0,2,0.4,3-1.9s6.7-14.3,6.7-14.3s1.1-1.1-2.2-2.2l-2.9-0.1"/>
	<line class="st10" x1="169.4" y1="244.9" x2="160.9" y2="261.7"/>
	<path class="st10" d="M170.1,240.2l4.9,0.7c0,0,1.1,0.4,2.4-2.2c1.3-2.6,1.9-4.3,1.9-4.3s1-1-2.2-1.4c-3.2-0.4-3.9-0.3-3.9-0.3"/>
	<line class="st10" x1="172.7" y1="240.2" x2="176" y2="233.2"/>
	<g>
		<path class="st11" d="M18.4,288.5l-0.1-2c0-0.1,0.1-0.1,0.1-0.2c0.2-0.2,0.6-0.3,0.6-0.3l1.6,0.3c0.5,0.2,0.6,0.9,0.6,0.9l0.1,1.4
			c0.2,0,0.4-0.3,0.4-0.3s2.8-4.9,2.9-5.1c0.1-0.2,0.4-1.4,0.4-1.4s0-0.9,0-1.4c-0.1-0.5-0.9-0.7-0.9-0.7s-0.9-0.2-1.3-0.2
			c-0.4-0.1-0.6,0.2-0.6,0.2l-3.7,6.4"/>
		<line class="st11" x1="21.4" y1="286.9" x2="25" y2="280.6"/>
		<line class="st11" x1="19.5" y1="286.6" x2="6.7" y2="309.2"/>
		<line class="st11" x1="20.9" y1="287" x2="8.3" y2="309.3"/>
		<line class="st11" x1="13.3" y1="302.3" x2="13.5" y2="310.8"/>
		<path class="st11" d="M1.2,313.4L3,310c0,0,0.6-0.7,1.8-0.7s8-0.6,14.1,5.3c6.2,5.9,4.9,12.6,4.9,12.6s-1.2,4-2.6,5.9"/>
		<path class="st11" d="M0.9,319.5l-0.1-4.9c0,0-0.1-1.5,1.6-1.7c1.8-0.2,6.8-0.3,12.3,3.3c5.5,3.7,8.6,10.4,6.8,16.1
			c0,0-1.2,4.6-7.4,6.6l-4.4-0.2"/>
		<path class="st11" d="M1.9,335.6l0,1.2c0,0,0,0.9,1.2,1.1c1.2,0.1,4.8,0.7,4.8,0.7s3.2,0.4,5.9-0.8c2.7-1.2,4.9-2.6,6.2-6.3
			c1.3-3.8-0.3-10.7-7.3-14.9c0,0-2.5-1.5-3.9-1.6c0,0-5-0.8-5.5,3.7l-0.1,4.7"/>
		<line class="st11" x1="5.7" y1="325.1" x2="11.1" y2="315.7"/>
		<path class="st11" d="M3.2,323.9c0,0,1.3-0.8,2.3,0.6l0.5,2.2l2.5-4.5c0,0-0.1-2.2-0.1-2.6c0-0.4-0.3-1-0.3-1
			c-0.8-1-1.8-0.3-1.8-0.3l-3.5,6.2"/>
		<path class="st11" d="M2.8,324.7l0.7,0.1c0,0,0.4-0.9,1.1-0.3l0.4,1.8c0,0-0.8,0.7-1.2,0.7c0,0,1.3,1,2-0.2"/>
		<line class="st11" x1="8.3" y1="322.9" x2="12" y2="316.3"/>
		<path class="st11" d="M2.3,321.5l0.3-1.7c0,0-0.1-1.2-1.5-0.6c0,0-1.5,1.3-1.9,5.1c0,0-0.2,1.6-0.3,2.4c-0.1,0.8,0.2,7.7,0.2,7.7
			s0.4,3.5,2.4,1.7"/>
		<path class="st11" d="M2.5,319.9c0,0-0.6,0.2-1.2,2s-0.9,4.7-0.8,6.1c0,1.4-0.2,7.7,0.8,7.8c0,0,1.2,0.3,2.3-5.6l0.5,3.9l0.5-0.8
			c0,0,0-2.9,0.9-4.4c0.1-0.2,0.2-0.3,0.3-0.4c0,0,0.7-0.3,0.7,1.4l0.5-0.7l0.1-2.8l5.6-9.9"/>
		<path class="st11" d="M6.3,330l-0.7,0c0,0,0-0.9-0.2-1"/>
		<line class="st11" x1="1.9" y1="336.8" x2="4" y2="333.9"/>
		<path class="st11" d="M4.2,333.9c0,0,0.6,0.4,0.9,0.4s6,0.7,6,0.7s5.4,0.2,8.7-3.4"/>
		<path class="st11" d="M14.8,311.4l9.3-16.6l0.5-0.1l0.6,0.1c0,0,0.4,0.4,0.2,1.8l-3.7,6.5c0,0-0.4,0.7-1.5,0.3l-4.7,8.4"/>
		<path class="st11" d="M21.6,302.9c0,0-0.2-1.8,0.4-2.9c0.7-1.1,3-5.3,3-5.3"/>
		<path class="st11" d="M16.6,307.8c0,0,0.2-1.6,0.1-2.5l0.3-0.6l-0.1-8.9"/>
		<polyline class="st11" points="17.1,302.8 18.6,300.1 18.5,292.8 		"/>
		<line class="st11" x1="20.9" y1="288.5" x2="9.1" y2="309.4"/>
		<line class="st11" x1="19.6" y1="291.1" x2="19.8" y2="299.9"/>
		<path class="st11" d="M18.8,300.1c0,0,0.9,0.3,1.1-0.3l0.8-1.5l-0.2-9"/>
		<line class="st11" x1="20.8" y1="295.6" x2="22.1" y2="295.8"/>
		<path class="st11" d="M20.6,292.2l1.9,0.2l0.1,0.2l-0.3,0.4c0,0-0.2,0.5-0.2,0.9c0,0.4,0,2.2,0,2.2s0,0.4,0.2,0.4s0.7,0.1,0.7,0.1
			"/>
		<path class="st11" d="M21.3,288.6l0,2.1v1l1.5,0.2c0,0,0.6,0.3,0.6,0.7s-0.4,0.7-0.4,0.7s-0.2,0.5-0.1,0.8c0,0.3,0.1,2.3,0.1,2.3"
			/>
		<path class="st11" d="M23.9,284.7l1.3,1.3c0,0,0.4,0.4,0.4,1.3l0.2,0.2v1.3l-0.2,0.2v0.7l-1,1.9l-1.2,0.9"/>
		<path class="st11" d="M23.1,285.9l1.2,1.2c0,0,0.5,0.5,0.5,1.1c0,0.6,0.1,2.7,0.1,2.7"/>
		<line class="st11" x1="23.9" y1="292.1" x2="23.9" y2="294.7"/>
		<path class="st11" d="M22.7,287.2c0,0,1.1,2.5,0.2,4.8"/>
		<line class="st11" x1="5.6" y1="315.5" x2="5.7" y2="319.3"/>
		<line class="st11" x1="3.2" y1="325" x2="3.2" y2="330.4"/>
		<path class="st11" d="M21.6,280.4v-1.7l2.2-3.7c0,0,0.2-0.3,1-0.1c0.8,0.2,0.4,1.1,0.4,1.1l-1.5,2.3c0,0-0.5,0.7-1.2,0.6
			c-0.4-0.1-0.2,0.8-0.2,0.8"/>
	</g>
	<g>
		<g>
			<path class="st12" d="M196.7,338.1l0.4,23.1c0,0-0.2,1.2-1.5,1.3c-1.2,0.1-3.2,0.3-5.8-0.3c-2.5-0.6-13.7-4-14.4-16.3
				c0,0-1.1-8.8,11.8-13.9c0,0,2.9-0.7,6-0.1c3.1,0.6,3.7,0.6,3.7,0.6s1.4,0,1.9,1.6l0.6,23.5l-2.2,3.9"/>
			<path class="st12" d="M192.1,360.1c-3.3,2-8.9-1.7-11.9-5.1c-3.1-3.5-4.5-11-0.8-15c0.1-0.2,0.3-0.3,0.4-0.4
				c3.7-3.6,9.9-3.3,9.9-3.3s4.5,0.7,5.3,0.7c0.8,0.1,1,1.2,1,1.2l0.3,16.9c0,0-0.4,2.8-0.9,3.9c-0.4,1.1-0.8,2-1.8,0.9
				c-1-1.1-0.4-10.8-0.4-10.8s1.1-5.7,2.4-4.8l-0.1-0.4c0,0-1-1.2-1.9-0.3s-2.1,5.6-2.1,7.2s0.2,8,0.2,8s0.4,3.7,2.6,2"/>
			<path class="st12" d="M191.9,356.8c0,0-5.1-0.3-9.7-5.8s-2.5-11.5-2.5-11.5"/>
			<path class="st12" d="M215.1,324.4"/>
			<path class="st12" d="M199.4,352.1"/>
			<polyline class="st12" points="215.1,326.4 218.7,320 219.1,319.5 			"/>
			
				<ellipse transform="matrix(0.9937 0.1122 -0.1122 0.9937 37.1822 -21.1293)" class="st12" cx="206.3" cy="319.8" rx="0.7" ry="2"/>
			
				<ellipse transform="matrix(0.9937 0.1122 -0.1122 0.9937 38.3977 -21.0673)" class="st12" cx="206.4" cy="330.7" rx="0.7" ry="2"/>
		</g>
	</g>
	<path class="st12" d="M196.9,332.6l6-11.5l0.9-4.6c0,0,0.3-1.4,1.1-3c0.8-1.5,7.6-14.5,7.6-14.5l0.4,0.2l0.2,25l-7.4,14
		c0,0-0.4,1.4-2.2,0.8l-4.2,8.6"/>
	<path class="st12" d="M212.7,309.4c0,0-0.8,0.3-1.1-0.4l-2.5,4.9c0,0,0.2,4-0.4,4.7v3.8c0,0,0.5,0.4,0.4,2.4l1.2,0.1l2.5-3.8"/>
	<path class="st12" d="M194.9,336.9c0,0-3.4,5.2-3.1,11"/>
	<ellipse class="st13" cx="160.1" cy="278.1" rx="2.4" ry="1.1"/>
	<ellipse class="st13" cx="202" cy="283.3" rx="2.4" ry="1.1"/>
	<polyline class="st13" points="86.9,141.9 85.1,145.4 85.5,153 	"/>
	<polyline class="st13" points="101.7,155.5 101.8,147.4 104.6,142.8 	"/>
	<path class="st4" d="M137.8,307.9l-3.2-0.4c-0.7,0-1.2-0.6-1.2-1.2v-0.1c0-0.7,0.6-1.2,1.2-1.2l3.2,0.4c0.7,0,1.2,0.6,1.2,1.2v0.1
		C139.1,307.3,138.5,307.9,137.8,307.9z"/>
	<polygon class="st1" points="139,27.9 134.4,19.7 132.3,28.3 132.9,29.6 111.7,137.5 115.7,146.4 116.8,146.6 119.1,128.7 	"/>
	<polygon class="st1" points="168.8,20.3 170.3,23.2 152.9,113 148,101.9 161.9,32.9 161.2,31.4 163.1,23.9 166.7,31.2 	"/>
	<polyline class="st1" points="150.3,108 130.6,143.6 132.5,148.6 152.9,113 	"/>
	<path class="st1" d="M208.4,27.5l2.7,0.6l-5,27.3l-6.7,14.9l-1.1,5.5c0,0-2.5-1.5-0.4,2.1l-2.3,14.3c0,0-0.8,2.3-2.3-1
		c-1.5-3.2-1.5-3.2-1.5-3.2l9-45.9l-0.6-1.3l0.6-3.8h1.3l1.1,1.3l3.2-0.4L208.4,27.5z"/>
	<polygon class="st1" points="194.8,151.8 196.9,156.6 197.9,156.6 190.8,111.3 190,113.8 	"/>
	<polyline class="st1" points="219.8,113.5 223.5,114 225,106.9 224.1,105 223.3,106.1 221.6,105.2 	"/>
	<path class="st1" d="M223.5,114c0,0,0.4-1.6-1.5-1.2l1.4-7"/>
	<polyline class="st1" points="106.1,44.4 104.8,41.9 104.3,41.6 105.2,37.3 105.9,37.2 106.1,36.2 107.6,36.2 	"/>
	<polyline class="st1" points="224.6,88 223.4,86.1 221.6,95 222.3,98.3 	"/>
	<line class="st13" x1="101.8" y1="147.4" x2="85.1" y2="145.4"/>
	<g>
		<defs>
			<polygon id="SVGID_1_" points="124.9,201.2 124.9,191.2 123.7,190.1 122.8,187.3 128.7,175.4 137.1,170.4 198.2,178.8 
				199.5,180.8 186.4,206.7 150.7,201.7 152.5,199.2 135.6,197.1 134.3,200.5 126.3,199.5 			"/>
		</defs>
		<clipPath id="SVGID_2_">
			<use xlink:href="#SVGID_1_"  style="overflow:visible;"/>
		</clipPath>
		<g class="st14">
			<g>
				<path class="st15" d="M134,181.9l-1-0.2c-0.2,0-0.2,0.5-0.2,0.5l0,6l1.3,0.2L134,181.9z"/>
				<path class="st15" d="M133.6,183l-1-0.2c-0.2,0-0.2,0.5-0.2,0.5l0,6l1.3,0.2L133.6,183z"/>
				<path class="st15" d="M132.8,184.3l-1-0.2c-0.2,0-0.2,0.5-0.2,0.5l0,6l1.3,0.2L132.8,184.3z"/>
				<path class="st15" d="M132.3,185.4l-1-0.2c-0.2,0-0.2,0.5-0.2,0.5l0,6l1.3,0.2L132.3,185.4z"/>
				<path class="st15" d="M131.8,186.7l-1-0.2c-0.2,0-0.2,0.5-0.2,0.5l0,6l1.3,0.2L131.8,186.7z"/>
			</g>
			<g>
				<path class="st15" d="M138.1,173.7l-1-0.2c-0.2,0-0.2,0.5-0.2,0.5l0,6l1.3,0.2L138.1,173.7z"/>
				<path class="st15" d="M137.6,174.8l-1-0.2c-0.2,0-0.2,0.5-0.2,0.5l0,6l1.3,0.2L137.6,174.8z"/>
				<path class="st15" d="M136.9,176l-1-0.2c-0.2,0-0.2,0.5-0.2,0.5l0,6l1.3,0.2L136.9,176z"/>
				<path class="st15" d="M136.4,177.1l-1-0.2c-0.2,0-0.2,0.5-0.2,0.5l0,6l1.3,0.2L136.4,177.1z"/>
				<path class="st15" d="M135.8,178.4l-1-0.2c-0.2,0-0.2,0.5-0.2,0.5l0,6l1.3,0.2L135.8,178.4z"/>
			</g>
			<g>
				<polyline class="st16" points="140.7,185.8 140.6,186.2 142.4,186.4 142.7,185.9 				"/>
				<g>
					<path class="st16" d="M145.2,173.4l-1.4-0.2c-0.2,0-0.3,0.5-0.3,0.5l0,6l1.8,0.2L145.2,173.4z"/>
					<path class="st16" d="M144.7,174.7l-1.4-0.2c-0.2,0-0.3,0.5-0.3,0.5l0,6l1.8,0.2L144.7,174.7z"/>
					<path class="st16" d="M144.1,175.8l-1.4-0.2c-0.2,0-0.3,0.5-0.3,0.5l0,6l1.8,0.2L144.1,175.8z"/>
					<path class="st16" d="M143.5,177l-1.4-0.2c-0.2,0-0.3,0.5-0.3,0.5l0,6l1.8,0.2L143.5,177z"/>
					<path class="st16" d="M143,178.2l-1.4-0.2c-0.2,0-0.3,0.5-0.3,0.5l0,6l1.8,0.2L143,178.2z"/>
					<path class="st16" d="M142.5,179.4l-1.4-0.2c-0.2,0-0.3,0.5-0.3,0.5l0,6l1.8,0.2L142.5,179.4z"/>
					<path class="st16" d="M169.5,176.5l-1.4-0.2c-0.2,0-0.3,0.5-0.3,0.5l0,6l1.8,0.2L169.5,176.5z"/>
					<path class="st16" d="M169,177.7l-1.4-0.2c-0.2,0-0.3,0.5-0.3,0.5l0,6l1.8,0.2L169,177.7z"/>
					<path class="st16" d="M168.4,178.9l-1.4-0.2c-0.2,0-0.3,0.5-0.3,0.5l0,6l1.8,0.2L168.4,178.9z"/>
					<path class="st16" d="M167.8,180l-1.4-0.2c-0.2,0-0.3,0.5-0.3,0.5l0,6l1.8,0.2L167.8,180z"/>
					<path class="st16" d="M167.3,181.2l-1.4-0.2c-0.2,0-0.3,0.5-0.3,0.5l0,6l1.8,0.2L167.3,181.2z"/>
					<path class="st16" d="M166.8,182.4l-1.4-0.2c-0.2,0-0.3,0.5-0.3,0.5l0,6l1.8,0.2L166.8,182.4z"/>
					<path class="st16" d="M173,176.9l-1.4-0.2c-0.2,0-0.3,0.5-0.3,0.5l0,6l1.8,0.2L173,176.9z"/>
					<path class="st16" d="M172.4,178.2L171,178c-0.2,0-0.3,0.5-0.3,0.5l0,6l1.8,0.2L172.4,178.2z"/>
					<path class="st16" d="M171.8,179.4l-1.4-0.2c-0.2,0-0.3,0.5-0.3,0.5l0,6l1.8,0.2L171.8,179.4z"/>
					<path class="st16" d="M171.3,180.5l-1.4-0.2c-0.2,0-0.3,0.5-0.3,0.5l0,6l1.8,0.2L171.3,180.5z"/>
					<path class="st16" d="M170.7,181.7l-1.4-0.2c-0.2,0-0.3,0.5-0.3,0.5l0,6l1.8,0.2L170.7,181.7z"/>
					<path class="st16" d="M170.2,182.9l-1.4-0.2c-0.2,0-0.3,0.5-0.3,0.5l0,6l1.8,0.2L170.2,182.9z"/>
					<path class="st16" d="M176.4,177.4l-1.4-0.2c-0.2,0-0.3,0.5-0.3,0.5l0,6l1.8,0.2L176.4,177.4z"/>
					<path class="st16" d="M175.9,178.7l-1.4-0.2c-0.2,0-0.3,0.5-0.3,0.5l0,6l1.8,0.2L175.9,178.7z"/>
					<path class="st16" d="M175.3,179.9l-1.4-0.2c-0.2,0-0.3,0.5-0.3,0.5l0,6l1.8,0.2L175.3,179.9z"/>
					<path class="st16" d="M174.7,181l-1.4-0.2c-0.2,0-0.3,0.5-0.3,0.5l0,6l1.8,0.2L174.7,181z"/>
					<path class="st16" d="M174.2,182.2l-1.4-0.2c-0.2,0-0.3,0.5-0.3,0.5l0,6l1.8,0.2L174.2,182.2z"/>
					<path class="st16" d="M173.7,183.4l-1.4-0.2c-0.2,0-0.3,0.5-0.3,0.5l0,6l1.8,0.2L173.7,183.4z"/>
					<path class="st16" d="M179.8,177.9l-1.4-0.2c-0.2,0-0.3,0.5-0.3,0.5l0,6l1.8,0.2L179.8,177.9z"/>
					<path class="st16" d="M179.3,179.2l-1.4-0.2c-0.2,0-0.3,0.5-0.3,0.5l0,6l1.8,0.2L179.3,179.2z"/>
					<path class="st16" d="M178.7,180.4l-1.4-0.2c-0.2,0-0.3,0.5-0.3,0.5l0,6l1.8,0.2L178.7,180.4z"/>
					<path class="st16" d="M178.1,181.5l-1.4-0.2c-0.2,0-0.3,0.5-0.3,0.5l0,6l1.8,0.2L178.1,181.5z"/>
					<path class="st16" d="M177.6,182.7l-1.4-0.2c-0.2,0-0.3,0.5-0.3,0.5l0,6l1.8,0.2L177.6,182.7z"/>
					<path class="st16" d="M177.1,183.9l-1.4-0.2c-0.2,0-0.3,0.5-0.3,0.5l0,6l1.8,0.2L177.1,183.9z"/>
					<path class="st16" d="M183.3,178.4l-1.4-0.2c-0.2,0-0.3,0.5-0.3,0.5l0,6l1.8,0.2L183.3,178.4z"/>
					<path class="st16" d="M182.7,179.7l-1.4-0.2c-0.2,0-0.3,0.5-0.3,0.5l0,6l1.8,0.2L182.7,179.7z"/>
					<path class="st16" d="M182.1,180.9l-1.4-0.2c-0.2,0-0.3,0.5-0.3,0.5l0,6l1.8,0.2L182.1,180.9z"/>
					<path class="st16" d="M181.6,182l-1.4-0.2c-0.2,0-0.3,0.5-0.3,0.5l0,6l1.8,0.2L181.6,182z"/>
					<path class="st16" d="M181,183.2l-1.4-0.2c-0.2,0-0.3,0.5-0.3,0.5l0,6l1.8,0.2L181,183.2z"/>
					<path class="st16" d="M180.5,184.4l-1.4-0.2c-0.2,0-0.3,0.5-0.3,0.5l0,6l1.8,0.2L180.5,184.4z"/>
					<path class="st16" d="M186.7,178.9l-1.4-0.2c-0.2,0-0.3,0.5-0.3,0.5l0,6l1.8,0.2L186.7,178.9z"/>
					<path class="st16" d="M186.2,180.2l-1.4-0.2c-0.2,0-0.3,0.5-0.3,0.5l0,6l1.8,0.2L186.2,180.2z"/>
					<path class="st16" d="M185.6,181.4l-1.4-0.2c-0.2,0-0.3,0.5-0.3,0.5l0,6l1.8,0.2L185.6,181.4z"/>
					<path class="st16" d="M185,182.5l-1.4-0.2c-0.2,0-0.3,0.5-0.3,0.5l0,6l1.8,0.2L185,182.5z"/>
					<path class="st16" d="M184.5,183.7l-1.4-0.2c-0.2,0-0.3,0.5-0.3,0.5l0,6l1.8,0.2L184.5,183.7z"/>
					<path class="st16" d="M184,184.9l-1.4-0.2c-0.2,0-0.3,0.5-0.3,0.5l0,6l1.8,0.2L184,184.9z"/>
					<path class="st16" d="M190.2,179.4l-1.4-0.2c-0.2,0-0.3,0.5-0.3,0.5l0,6l1.8,0.2L190.2,179.4z"/>
					<path class="st16" d="M189.6,180.7l-1.4-0.2c-0.2,0-0.3,0.5-0.3,0.5l0,6l1.8,0.2L189.6,180.7z"/>
					<path class="st16" d="M189,181.9l-1.4-0.2c-0.2,0-0.3,0.5-0.3,0.5l0,6l1.8,0.2L189,181.9z"/>
					<path class="st16" d="M188.4,183l-1.4-0.2c-0.2,0-0.3,0.5-0.3,0.5l0,6l1.8,0.2L188.4,183z"/>
					<path class="st16" d="M187.9,184.2l-1.4-0.2c-0.2,0-0.3,0.5-0.3,0.5l0,6l1.8,0.2L187.9,184.2z"/>
					<path class="st16" d="M187.4,185.4l-1.4-0.2c-0.2,0-0.3,0.5-0.3,0.5l0,6l1.8,0.2L187.4,185.4z"/>
					<polyline class="st16" points="144.7,185.1 144.6,185.4 146.4,185.6 146.8,185.1 					"/>
					<path class="st16" d="M148.1,175.1l-1.4-0.2c-0.2,0-0.3,0.5-0.3,0.5l0,6l1.8,0.2L148.1,175.1z"/>
					<path class="st16" d="M147.5,176.2l-1.4-0.2c-0.2,0-0.3,0.5-0.3,0.5l0,6l1.8,0.2L147.5,176.2z"/>
					<path class="st16" d="M147,177.4l-1.4-0.2c-0.2,0-0.3,0.5-0.3,0.5l0,6l1.8,0.2L147,177.4z"/>
					<path class="st16" d="M146.5,178.6l-1.4-0.2c-0.2,0-0.3,0.5-0.3,0.5l0,6l1.8,0.2L146.5,178.6z"/>
					<polyline class="st16" points="148.1,185.6 148,185.9 149.8,186.2 150.2,185.6 					"/>
					<path class="st16" d="M151.5,175.6l-1.4-0.2c-0.2,0-0.3,0.5-0.3,0.5l0,6l1.8,0.2L151.5,175.6z"/>
					<path class="st16" d="M150.9,176.7l-1.4-0.2c-0.2,0-0.3,0.5-0.3,0.5l0,6l1.8,0.2L150.9,176.7z"/>
					<path class="st16" d="M150.4,177.9l-1.4-0.2c-0.2,0-0.3,0.5-0.3,0.5l0,6l1.8,0.2L150.4,177.9z"/>
					<path class="st16" d="M149.9,179.1l-1.4-0.2c-0.2,0-0.3,0.5-0.3,0.5l0,6l1.8,0.2L149.9,179.1z"/>
					<polyline class="st16" points="151.5,186.1 151.4,186.5 153.2,186.7 153.5,186.2 					"/>
					<path class="st16" d="M154.9,176.2l-1.4-0.2c-0.2,0-0.3,0.5-0.3,0.5l0,6l1.8,0.2L154.9,176.2z"/>
					<path class="st16" d="M154.3,177.3l-1.4-0.2c-0.2,0-0.3,0.5-0.3,0.5l0,6l1.8,0.2L154.3,177.3z"/>
					<path class="st16" d="M153.8,178.5l-1.4-0.2c-0.2,0-0.3,0.5-0.3,0.5l0,6l1.8,0.2L153.8,178.5z"/>
					<path class="st16" d="M153.3,179.7l-1.4-0.2c-0.2,0-0.3,0.5-0.3,0.5l0,6l1.8,0.2L153.3,179.7z"/>
					<polyline class="st16" points="154.9,186.7 154.8,187 156.6,187.3 156.9,186.7 					"/>
					<path class="st16" d="M158.3,176.7l-1.4-0.2c-0.2,0-0.3,0.5-0.3,0.5l0,6l1.8,0.2L158.3,176.7z"/>
					<path class="st16" d="M157.7,177.8l-1.4-0.2c-0.2,0-0.3,0.5-0.3,0.5l0,6l1.8,0.2L157.7,177.8z"/>
					<path class="st16" d="M157.2,179l-1.4-0.2c-0.2,0-0.3,0.5-0.3,0.5l0,6l1.8,0.2L157.2,179z"/>
					<path class="st16" d="M156.7,180.2l-1.4-0.2c-0.2,0-0.3,0.5-0.3,0.5l0,6l1.8,0.2L156.7,180.2z"/>
					<polyline class="st16" points="157.9,188.1 157.8,188.4 159.7,188.6 160,188.1 					"/>
					<path class="st16" d="M162.5,175.6l-1.4-0.2c-0.2,0-0.3,0.5-0.3,0.5l0,6l1.8,0.2L162.5,175.6z"/>
					<path class="st16" d="M161.9,176.9l-1.4-0.2c-0.2,0-0.3,0.5-0.3,0.5l0,6l1.8,0.2L161.9,176.9z"/>
					<path class="st16" d="M161.3,178.1l-1.4-0.2c-0.2,0-0.3,0.5-0.3,0.5l0,6l1.8,0.2L161.3,178.1z"/>
					<path class="st16" d="M160.8,179.2l-1.4-0.2c-0.2,0-0.3,0.5-0.3,0.5l0,6l1.8,0.2L160.8,179.2z"/>
					<path class="st16" d="M160.2,180.4l-1.4-0.2c-0.2,0-0.3,0.5-0.3,0.5l0,6l1.8,0.2L160.2,180.4z"/>
					<path class="st16" d="M159.7,181.6l-1.4-0.2c-0.2,0-0.3,0.5-0.3,0.5l0,6l1.8,0.2L159.7,181.6z"/>
				</g>
			</g>
			<g>
				<g>
					<polyline class="st16" points="193.4,191.3 193.3,191.7 195.1,191.9 195.5,191.3 					"/>
				</g>
			</g>
			<g>
				<g>
					<g>
						<polyline class="st17" points="130.4,193.1 130.3,193.4 131.3,193.6 131.5,193.1 						"/>
					</g>
				</g>
			</g>
			<path class="st16" d="M136.7,189.4l-1.5-0.2l1.2-6.8c0,0,0-0.2,0.3-0.1c0.3,0,2.1,0.3,2.1,0.3l0.2,0.3"/>
			<line class="st18" x1="138.6" y1="183.7" x2="138.8" y2="182.7"/>
			<g>
				<path class="st16" d="M136.7,182.2l0-0.3c0,0-0.1-0.5,0.2-0.5l2.2,0.3l0.3,0.4"/>
				<path class="st16" d="M139.2,182.5l0-0.4c0,0,0-0.2,0.1-0.3"/>
			</g>
			<g>
				<path class="st18" d="M140.8,181.2l-1.5-0.2l1.1-6.6c0,0,0-0.4,0.2-0.4c0.2,0,2.3,0.3,2.3,0.3l0.2,0.4"/>
				<path class="st18" d="M142.7,175.7l0.2-1c0,0,0-0.2,0.1-0.2"/>
			</g>
			<path class="st18" d="M165.1,184.4l-1.5-0.2l1.1-6.6c0,0,0-0.4,0.2-0.4s2.3,0.3,2.3,0.3l0.2,0.4"/>
			<path class="st18" d="M132.6,192c0,0-1.1-0.1-1.2,1.1c0,0,0.1,0.7-0.5,0.7l-0.6-0.1c0,0-0.3-0.1-0.3,0.5l0,3.5
				c0,0,0.1,0.1,0.1,0.3l2.4,0.3l-0.1-0.4l0-0.7c0,0,0.1-0.3,0.4-0.3s24.1,3.1,24.1,3.1s0.5-0.1,0.5,0.6s-0.1,0.9,0.3,1.1
				c0.4,0.2,4.3,0.6,4.3,0.6s-0.1-0.4-0.1-0.6c0-0.2,0-0.5,0-0.5s0-0.4,0.5-0.4s24.1,3.2,24.1,3.2s0.4,0,0.4,0.6
				c0,0.6-0.2,0.8,0.3,0.9c0.4,0.2,3.1,0.4,3.1,0.4l0.3-0.2l0-3.3c0,0,0-0.9-1.3-1.2l-1-0.1c0,0-0.4,0-0.3-0.6s0.1-1.2-1.3-1.7"/>
			<line class="st18" x1="187.2" y1="204.9" x2="162.3" y2="201.6"/>
			<line class="st18" x1="187.3" y1="205.1" x2="190.9" y2="205.6"/>
			<line class="st18" x1="157.6" y1="201" x2="132.7" y2="197.8"/>
			<polyline class="st18" points="132.7,198.4 133,198.2 133.1,198.1 133.1,197 			"/>
			<g>
				<polygon class="st17" points="135,193.2 132.7,192.8 132.7,190.1 135,190.4 				"/>
				<polyline class="st16" points="132.7,190.1 132.8,189.6 135.1,190 135,190.4 				"/>
				<polyline class="st16" points="135.1,190 136.3,192.3 135.1,192.1 				"/>
				<polygon class="st16" points="135.4,194.8 132.3,194.3 132.3,192.9 135.4,193.4 				"/>
			</g>
			<line class="st19" x1="130.2" y1="197.7" x2="132.6" y2="198"/>
			<g>
				<path class="st16" d="M188.7,188.9l0-0.3c0,0-0.1-0.5,0.2-0.5l2.2,0.3l0.3,0.4"/>
				<path class="st18" d="M191.1,189.3l0-0.4c0,0,0-0.2,0.1-0.3"/>
			</g>
			<g>
				<path class="st18" d="M193.4,188.1l-2.1-0.3l1.1-6.6c0,0,0-0.4,0.2-0.4s2.3,0.3,2.3,0.3l0.2,0.4"/>
				<path class="st18" d="M194.6,182.5l0.2-1c0,0,0-0.2,0.1-0.2"/>
			</g>
			<g>
				<path class="st16" d="M189.2,196.2l-2.1-0.3l1.2-6.8c0,0,0-0.2,0.3-0.1c0.3,0,2.1,0.3,2.1,0.3l0.2,0.3"/>
				<path class="st16" d="M190.6,190.5l0-0.6c0,0,0-0.3,0.2-0.4"/>
			</g>
			<g>
				<g>
					<polyline class="st16" points="189.3,199.5 189.1,199.9 191,200.1 191.3,199.5 					"/>
				</g>
			</g>
			<g>
				<polygon class="st17" points="159.2,196.3 156.9,196 156.9,193.2 159.2,193.6 				"/>
				<polyline class="st16" points="156.9,193.2 157,192.8 159.3,193.1 159.2,193.6 				"/>
				<polyline class="st18" points="159.3,193.1 160.5,195.4 159.3,195.3 				"/>
				<polygon class="st18" points="159.6,197.9 156.5,197.4 156.5,196.1 159.6,196.5 				"/>
			</g>
			<g>
				<path class="st16" d="M160.9,192.6l-1.5-0.2l1.2-6.8c0,0,0-0.2,0.3-0.1c0.3,0,2.1,0.3,2.1,0.3l0.2,0.3"/>
				<path class="st16" d="M162.9,186.9l0-0.6c0,0,0-0.3,0.2-0.4"/>
			</g>
			<g>
				<path class="st16" d="M161,185.4l0-0.3c0,0-0.1-0.5,0.2-0.5l2.2,0.3l0.3,0.4"/>
				<path class="st18" d="M163.4,185.7l0-0.4c0,0,0-0.2,0.1-0.3"/>
			</g>
			<g>
				<g>
					<g>
						<polyline class="st16" points="161,197.1 160.9,197.4 162.7,197.7 163,197.1 						"/>
					</g>
				</g>
				<g>
					<g>
						<polyline class="st16" points="164.4,197.6 164.3,197.9 166.1,198.1 166.4,197.6 						"/>
					</g>
				</g>
				<g>
					<g>
						<polyline class="st16" points="167.8,198 167.7,198.4 169.5,198.6 169.8,198.1 						"/>
					</g>
				</g>
				<g>
					<g>
						<polyline class="st16" points="171.2,198.5 171.1,198.8 172.9,199.1 173.2,198.5 						"/>
					</g>
				</g>
				<g>
					<g>
						<polyline class="st16" points="174.6,199 174.5,199.3 176.3,199.5 176.6,199 						"/>
					</g>
				</g>
				<g>
					<g>
						<polyline class="st16" points="178.2,199.4 178.1,199.7 179.9,200 180.2,199.4 						"/>
					</g>
				</g>
				<g>
					<g>
						<polyline class="st16" points="181.6,199.9 181.5,200.3 183.3,200.5 183.7,199.9 						"/>
					</g>
				</g>
			</g>
			<g>
				<polygon class="st17" points="186.9,199.8 184.6,199.5 184.6,196.7 186.9,197 				"/>
				<polyline class="st16" points="184.6,196.7 184.7,196.3 187,196.6 186.9,197 				"/>
				<polyline class="st18" points="187,196.6 188.2,198.9 187,198.8 				"/>
				<polygon class="st18" points="187.3,201.4 184.2,200.9 184.3,199.6 187.3,200 				"/>
			</g>
			<path class="st18" d="M197.9,186.5l1.1,0.1c0,0,0.8,0,0.6,0.9l0,1.1l-2.9,5.8c0,0-0.1,0.6-0.9,0.7l-2-0.4"/>
			<line class="st18" x1="190.2" y1="185.4" x2="191.6" y2="185.6"/>
			<path class="st18" d="M193.7,193l2,0.3c0,0,0.7,0,0.9-0.4c0.2-0.4,3-5.9,3-5.9"/>
			<path class="st18" d="M195.4,195l0,1.8l-3,6c0,0-0.2,0.5-1.4,0.2"/>
			<path class="st18" d="M189.9,201.3l1.7,0.2c0,0,0.7,0.2,0.9-0.3c0.4-0.7,3-5.8,3-5.8"/>
			<line class="st18" x1="196" y1="193.4" x2="196" y2="194.9"/>
			<path class="st18" d="M159.2,195.4c0,0,1.5,0,1.4,1.7c0,0-0.1,0.8,0.9,1c1.1,0.1,21.5,2.8,21.5,2.8s0.5,0,0.6-0.5"/>
			<path class="st18" d="M135,192.3c0,0,1.5,0,1.4,1.7c0,0-0.1,0.8,0.9,1c1.1,0.1,17.9,2.3,17.9,2.3s0.5,0,0.6-0.5"/>
			<path class="st18" d="M164.2,179.9c0,0-0.6,0-0.8,0.6c-0.2,0.6,0.2,1.2-0.3,1.5l-0.5,0.1"/>
			<path class="st18" d="M140,176.7c0,0-0.6,0-0.8,0.6c-0.2,0.6,0.2,1.2-0.3,1.5l-0.4-0.1"/>
			<line class="st17" x1="191.9" y1="201.5" x2="192" y2="203.1"/>
			<polygon class="st17" points="200.9,188.8 203.7,189.1 200.3,195.8 197.5,195.4 			"/>
			<polygon class="st17" points="196.8,197 199.5,197.3 196.2,204 193.4,203.6 			"/>
			<polyline class="st20" points="192.6,204.7 192.6,208 196.2,208.4 199.6,201.8 199.5,197.3 			"/>
			<line class="st20" x1="196.2" y1="204" x2="196.2" y2="208.4"/>
			<polyline class="st20" points="199.6,200.2 200.3,200.3 203.7,193.5 203.7,189.1 			"/>
			<line class="st20" x1="200.3" y1="195.8" x2="200.2" y2="200.1"/>
			<polyline class="st20" points="195.5,196.2 196.4,196.3 196.8,196.2 196.8,195.8 197.5,195.4 197.5,196.9 			"/>
			<polyline class="st20" points="193.4,203.6 192.6,204 192.6,204.4 192.3,204.5 191.1,204.4 			"/>
			<polyline class="st20" points="191.1,203.9 192.3,204 192.6,204 			"/>
			<polyline class="st20" points="195.5,195.7 196.4,195.9 196.8,195.8 			"/>
			<path class="st18" d="M191,205.7c0,0,1.1,0.4,1.6-0.4"/>
			<path class="st18" d="M191,205.3c0,0,1,0.5,1.6-0.4"/>
			<path class="st18" d="M199.4,189.1l0.4,0c0,0,0.2,0,0.2,0.4l0.4,0.1"/>
			<path class="st18" d="M195.1,194.8c0,0,0.1-1.5-1.4-1.6"/>
			<line class="st18" x1="135.5" y1="187.1" x2="134.2" y2="186.9"/>
			<path class="st18" d="M130.2,198.1l-1.2,2.4c0,0-2.1-0.1-2-0.7l0.1-4.7l0.8-1.6l0.6,0l0.3,0.5l-0.7,1.3"/>
			<path class="st18" d="M128.4,193.6l-0.8,1.5l1.5,0.3l-0.2,0.3l-1.4-0.2c0,0-0.5-0.1-0.5-0.5"/>
			<line class="st18" x1="127.7" y1="200.3" x2="127.8" y2="195.6"/>
			<polyline class="st18" points="129,195.8 129,198.6 129.4,198.6 129.4,199.4 129,199.7 129,200.3 			"/>
			<polyline class="st18" points="129.1,198.5 129.3,198 129.3,195.5 			"/>
			<path class="st18" d="M127,198.7c0,0-1.3-0.4-1.3-0.8c0,0,0,0,0,0.6c0,0.6,1.3,1,1.3,1"/>
			<polyline class="st18" points="127,198 124.2,197.7 124.2,195.5 124.9,195.6 125,191.9 128.5,192.3 128.7,192.6 			"/>
			<path class="st18" d="M130.3,193.5l-1.3-0.2c0,0-0.7,0.1-0.2-0.8l0.9-1.6"/>
			<line class="st18" x1="124.2" y1="195.5" x2="124.9" y2="194.1"/>
			<path class="st18" d="M130.1,194.1l-1.1-0.2l-0.2,0c0,0-0.5-0.2-0.3-0.8"/>
			<line class="st18" x1="129" y1="193.3" x2="129" y2="193.8"/>
			<path class="st18" d="M124.4,187.5c0,0,0.5-1,2.7-0.1l1.4,0.7c0,0,1.5,1,1.2,1.9c-0.4,1-2.4,0.4-2.4,0.4l-2-1
				C125.3,189.4,123.8,188.6,124.4,187.5z"/>
			<path class="st18" d="M124.3,187.6l-0.6,1c0,0-0.1,0.9,0.8,1.4c0.9,0.5,0.9,0.7,0.9,0.7"/>
			<polyline class="st18" points="125.9,189.8 124.6,192.7 125,193.1 			"/>
			<path class="st18" d="M125.7,190.5l1.3,0.6c0,0,2.2,0.8,2.7-0.9"/>
			<path class="st18" d="M129.9,182.4l1.3,0.6c0,0,0.5,0.2,1,0.2"/>
			<line class="st18" x1="128.9" y1="188.4" x2="130.4" y2="188.7"/>
			<polyline class="st18" points="128.4,188 128.3,187.3 129.1,185.9 			"/>
			<polyline class="st18" points="128.5,187.3 129,187.4 129.1,184.9 129.1,183.7 131.7,184 			"/>
			<polyline class="st18" points="130,181.7 128.7,184.4 129.1,184.9 			"/>
			<polygon points="125.9,187.7 126.3,187.8 125.7,188.8 125.4,188.5 			"/>
			<polygon points="126.7,188 127,188.1 126.4,189.2 126.2,188.9 			"/>
			<polygon points="127.4,188.4 127.8,188.5 127.2,189.6 126.9,189.3 			"/>
			<polygon points="128.1,188.7 128.5,188.8 127.9,189.9 127.6,189.6 			"/>
			<path class="st18" d="M132.6,182.4c-0.6,0-1.2-0.2-1.2-0.2l-2-1c0,0-1.5-0.9-0.9-2c0,0,0.5-1,2.7-0.1l1.4,0.7
				c0,0,1.3,0.8,1.2,1.7"/>
			<path class="st18" d="M128.4,179.4l-0.6,1c0,0-0.1,0.9,0.8,1.4c0.9,0.5,0.9,0.7,0.9,0.7"/>
			<polygon points="130,179.4 130.4,179.5 129.8,180.6 129.5,180.3 			"/>
			<polygon points="130.8,179.8 131.1,179.9 130.5,181 130.3,180.6 			"/>
			<polygon points="131.5,180.2 131.9,180.3 131.3,181.4 131,181 			"/>
			<polygon points="132.2,180.5 132.6,180.6 132,181.7 131.7,181.4 			"/>
			<line class="st18" x1="134.5" y1="180.4" x2="133" y2="180.2"/>
			<line class="st18" x1="126.5" y1="190.8" x2="126.8" y2="190.1"/>
			<line class="st18" x1="130.5" y1="182.7" x2="130.9" y2="182"/>
			<g>
				<g>
					<g>
					</g>
					<g>
					</g>
					<g>
					</g>
					<g>
					</g>
					<g>
					</g>
					<g>
						<path class="st16" d="M138.5,188"/>
						<polyline class="st16" points="136.7,193.9 136.6,194.3 138.5,194.5 138.8,194 						"/>
						<g>
							<path class="st16" d="M141.3,181.5l-1.4-0.2c-0.2,0-0.3,0.5-0.3,0.5l0,6l1.8,0.2L141.3,181.5z"/>
							<path class="st16" d="M140.7,182.8l-1.4-0.2c-0.2,0-0.3,0.5-0.3,0.5l0,6l1.8,0.2L140.7,182.8z"/>
							<path class="st16" d="M140.1,183.9l-1.4-0.2c-0.2,0-0.3,0.5-0.3,0.5l0,6l1.8,0.2L140.1,183.9z"/>
							<path class="st16" d="M139.6,185.1l-1.4-0.2c-0.2,0-0.3,0.5-0.3,0.5l0,6l1.8,0.2L139.6,185.1z"/>
							<path class="st16" d="M139,186.3l-1.4-0.2c-0.2,0-0.3,0.5-0.3,0.5l0,6l1.8,0.2L139,186.3z"/>
							<path class="st16" d="M138.5,187.5l-1.4-0.2c-0.2,0-0.3,0.5-0.3,0.5l0,6l1.8,0.2L138.5,187.5z"/>
							<polyline class="st16" points="140.8,193.2 140.6,193.5 142.5,193.7 142.8,193.2 							"/>
							<path class="st16" d="M144.1,183.2l-1.4-0.2c-0.2,0-0.3,0.5-0.3,0.5l0,6l1.8,0.2L144.1,183.2z"/>
							<path class="st16" d="M143.6,184.3l-1.4-0.2c-0.2,0-0.3,0.5-0.3,0.5l0,6l1.8,0.2L143.6,184.3z"/>
							<path class="st16" d="M143,185.5l-1.4-0.2c-0.2,0-0.3,0.5-0.3,0.5l0,6l1.8,0.2L143,185.5z"/>
							<path class="st16" d="M142.5,186.7l-1.4-0.2c-0.2,0-0.3,0.5-0.3,0.5l0,6l1.8,0.2L142.5,186.7z"/>
							<polyline class="st16" points="144.1,193.7 144,194 145.9,194.3 146.2,193.7 							"/>
							<path class="st16" d="M147.5,183.7l-1.4-0.2c-0.2,0-0.3,0.5-0.3,0.5l0,6l1.8,0.2L147.5,183.7z"/>
							<path class="st16" d="M147,184.8l-1.4-0.2c-0.2,0-0.3,0.5-0.3,0.5l0,6l1.8,0.2L147,184.8z"/>
							<path class="st16" d="M146.4,186l-1.4-0.2c-0.2,0-0.3,0.5-0.3,0.5l0,6l1.8,0.2L146.4,186z"/>
							<path class="st16" d="M145.9,187.2l-1.4-0.2c-0.2,0-0.3,0.5-0.3,0.5l0,6l1.8,0.2L145.9,187.2z"/>
							<polyline class="st16" points="147.5,194.2 147.4,194.6 149.3,194.8 149.6,194.3 							"/>
							<path class="st16" d="M150.9,184.3l-1.4-0.2c-0.2,0-0.3,0.5-0.3,0.5l0,6l1.8,0.2L150.9,184.3z"/>
							<path class="st16" d="M150.3,185.4l-1.4-0.2c-0.2,0-0.3,0.5-0.3,0.5l0,6l1.8,0.2L150.3,185.4z"/>
							<path class="st16" d="M149.8,186.6l-1.4-0.2c-0.2,0-0.3,0.5-0.3,0.5l0,6l1.8,0.2L149.8,186.6z"/>
							<path class="st16" d="M149.3,187.8l-1.4-0.2c-0.2,0-0.3,0.5-0.3,0.5l0,6l1.8,0.2L149.3,187.8z"/>
							<polyline class="st16" points="150.9,194.8 150.8,195.1 152.6,195.4 153,194.8 							"/>
							<path class="st16" d="M154.3,184.8l-1.4-0.2c-0.2,0-0.3,0.5-0.3,0.5l0,6l1.8,0.2L154.3,184.8z"/>
							<path class="st16" d="M153.7,185.9l-1.4-0.2c-0.2,0-0.3,0.5-0.3,0.5l0,6l1.8,0.2L153.7,185.9z"/>
							<path class="st16" d="M153.2,187.1l-1.4-0.2c-0.2,0-0.3,0.5-0.3,0.5l0,6l1.8,0.2L153.2,187.1z"/>
							<path class="st16" d="M152.7,188.3l-1.4-0.2c-0.2,0-0.3,0.5-0.3,0.5l0,6l1.8,0.2L152.7,188.3z"/>
							<polyline class="st16" points="154,196.2 153.9,196.5 155.7,196.7 156,196.2 							"/>
							<path class="st16" d="M158.5,183.8l-1.4-0.2c-0.2,0-0.3,0.5-0.3,0.5l0,6l1.8,0.2L158.5,183.8z"/>
							<path class="st16" d="M158,185l-1.4-0.2c-0.2,0-0.3,0.5-0.3,0.5l0,6l1.8,0.2L158,185z"/>
							<path class="st16" d="M157.4,186.2l-1.4-0.2c-0.2,0-0.3,0.5-0.3,0.5l0,6l1.8,0.2L157.4,186.2z"/>
							<path class="st16" d="M156.8,187.3l-1.4-0.2c-0.2,0-0.3,0.5-0.3,0.5l0,6l1.8,0.2L156.8,187.3z"/>
							<path class="st16" d="M156.3,188.5l-1.4-0.2c-0.2,0-0.3,0.5-0.3,0.5l0,6l1.8,0.2L156.3,188.5z"/>
							<path class="st16" d="M155.8,189.7l-1.4-0.2c-0.2,0-0.3,0.5-0.3,0.5l0,6l1.8,0.2L155.8,189.7z"/>
						</g>
					</g>
				</g>
				<g>
					<g>
					</g>
					<g>
					</g>
					<g>
					</g>
					<g>
					</g>
				</g>
				<g>
					<g>
					</g>
				</g>
				<g>
					<g>
					</g>
				</g>
			</g>
			<g>
				<path class="st16" d="M165.7,184.7l-1.4-0.2c-0.2,0-0.3,0.5-0.3,0.5l0,6l1.8,0.2L165.7,184.7z"/>
				<path class="st16" d="M165.1,185.9l-1.4-0.2c-0.2,0-0.3,0.5-0.3,0.5l0,6l1.8,0.2L165.1,185.9z"/>
				<path class="st16" d="M164.5,187.1l-1.4-0.2c-0.2,0-0.3,0.5-0.3,0.5l0,6l1.8,0.2L164.5,187.1z"/>
				<path class="st16" d="M164,188.2l-1.4-0.2c-0.2,0-0.3,0.5-0.3,0.5l0,6l1.8,0.2L164,188.2z"/>
				<path class="st16" d="M163.4,189.4l-1.4-0.2c-0.2,0-0.3,0.5-0.3,0.5l0,6l1.8,0.2L163.4,189.4z"/>
				<path class="st16" d="M162.9,190.6l-1.4-0.2c-0.2,0-0.3,0.5-0.3,0.5l0,6l1.8,0.2L162.9,190.6z"/>
				<path class="st16" d="M169.1,185.1l-1.4-0.2c-0.2,0-0.3,0.5-0.3,0.5l0,6l1.8,0.2L169.1,185.1z"/>
				<path class="st16" d="M168.5,186.4l-1.4-0.2c-0.2,0-0.3,0.5-0.3,0.5l0,6l1.8,0.2L168.5,186.4z"/>
				<path class="st16" d="M168,187.6l-1.4-0.2c-0.2,0-0.3,0.5-0.3,0.5l0,6l1.8,0.2L168,187.6z"/>
				<path class="st16" d="M167.4,188.7l-1.4-0.2c-0.2,0-0.3,0.5-0.3,0.5l0,6l1.8,0.2L167.4,188.7z"/>
				<path class="st16" d="M166.9,189.9l-1.4-0.2c-0.2,0-0.3,0.5-0.3,0.5l0,6l1.8,0.2L166.9,189.9z"/>
				<path class="st16" d="M166.4,191.1l-1.4-0.2c-0.2,0-0.3,0.5-0.3,0.5l0,6l1.8,0.2L166.4,191.1z"/>
				<path class="st16" d="M172.5,185.6l-1.4-0.2c-0.2,0-0.3,0.5-0.3,0.5l0,6l1.8,0.2L172.5,185.6z"/>
				<path class="st16" d="M172,186.9l-1.4-0.2c-0.2,0-0.3,0.5-0.3,0.5l0,6l1.8,0.2L172,186.9z"/>
				<path class="st16" d="M171.4,188.1l-1.4-0.2c-0.2,0-0.3,0.5-0.3,0.5l0,6l1.8,0.2L171.4,188.1z"/>
				<path class="st16" d="M170.8,189.2l-1.4-0.2c-0.2,0-0.3,0.5-0.3,0.5l0,6l1.8,0.2L170.8,189.2z"/>
				<path class="st16" d="M170.3,190.4l-1.4-0.2c-0.2,0-0.3,0.5-0.3,0.5l0,6l1.8,0.2L170.3,190.4z"/>
				<path class="st16" d="M169.8,191.6l-1.4-0.2c-0.2,0-0.3,0.5-0.3,0.5l0,6l1.8,0.2L169.8,191.6z"/>
				<path class="st16" d="M176,186.1l-1.4-0.2c-0.2,0-0.3,0.5-0.3,0.5l0,6l1.8,0.2L176,186.1z"/>
				<path class="st16" d="M175.4,187.4l-1.4-0.2c-0.2,0-0.3,0.5-0.3,0.5l0,6l1.8,0.2L175.4,187.4z"/>
				<path class="st16" d="M174.8,188.6l-1.4-0.2c-0.2,0-0.3,0.5-0.3,0.5l0,6l1.8,0.2L174.8,188.6z"/>
				<path class="st16" d="M174.3,189.7l-1.4-0.2c-0.2,0-0.3,0.5-0.3,0.5l0,6l1.8,0.2L174.3,189.7z"/>
				<path class="st16" d="M173.7,190.9l-1.4-0.2c-0.2,0-0.3,0.5-0.3,0.5l0,6l1.8,0.2L173.7,190.9z"/>
				<path class="st16" d="M173.2,192.1l-1.4-0.2c-0.2,0-0.3,0.5-0.3,0.5l0,6l1.8,0.2L173.2,192.1z"/>
				<path class="st16" d="M179.4,186.6l-1.4-0.2c-0.2,0-0.3,0.5-0.3,0.5l0,6l1.8,0.2L179.4,186.6z"/>
				<path class="st16" d="M178.9,187.9l-1.4-0.2c-0.2,0-0.3,0.5-0.3,0.5l0,6l1.8,0.2L178.9,187.9z"/>
				<path class="st16" d="M178.3,189.1l-1.4-0.2c-0.2,0-0.3,0.5-0.3,0.5l0,6l1.8,0.2L178.3,189.1z"/>
				<path class="st16" d="M177.7,190.2l-1.4-0.2c-0.2,0-0.3,0.5-0.3,0.5l0,6l1.8,0.2L177.7,190.2z"/>
				<path class="st16" d="M177.2,191.4l-1.4-0.2c-0.2,0-0.3,0.5-0.3,0.5l0,6l1.8,0.2L177.2,191.4z"/>
				<path class="st16" d="M176.7,192.6l-1.4-0.2c-0.2,0-0.3,0.5-0.3,0.5l0,6l1.8,0.2L176.7,192.6z"/>
				<path class="st16" d="M182.9,187.1l-1.4-0.2c-0.2,0-0.3,0.5-0.3,0.5l0,6l1.8,0.2L182.9,187.1z"/>
				<path class="st16" d="M182.3,188.4l-1.4-0.2c-0.2,0-0.3,0.5-0.3,0.5l0,6l1.8,0.2L182.3,188.4z"/>
				<path class="st16" d="M181.7,189.6l-1.4-0.2c-0.2,0-0.3,0.5-0.3,0.5l0,6l1.8,0.2L181.7,189.6z"/>
				<path class="st16" d="M181.1,190.7l-1.4-0.2c-0.2,0-0.3,0.5-0.3,0.5l0,6l1.8,0.2L181.1,190.7z"/>
				<path class="st16" d="M180.6,191.9l-1.4-0.2c-0.2,0-0.3,0.5-0.3,0.5l0,6l1.8,0.2L180.6,191.9z"/>
				<path class="st16" d="M180.1,193.1l-1.4-0.2c-0.2,0-0.3,0.5-0.3,0.5l0,6l1.8,0.2L180.1,193.1z"/>
				<path class="st16" d="M186.3,187.6l-1.4-0.2c-0.2,0-0.3,0.5-0.3,0.5l0,6l1.8,0.2L186.3,187.6z"/>
				<path class="st16" d="M185.7,188.9l-1.4-0.2c-0.2,0-0.3,0.5-0.3,0.5l0,6l1.8,0.2L185.7,188.9z"/>
				<path class="st16" d="M185.2,190.1l-1.4-0.2c-0.2,0-0.3,0.5-0.3,0.5l0,6l1.8,0.2L185.2,190.1z"/>
				<path class="st16" d="M184.6,191.2l-1.4-0.2c-0.2,0-0.3,0.5-0.3,0.5l0,6l1.8,0.2L184.6,191.2z"/>
				<path class="st16" d="M184.1,192.4l-1.4-0.2c-0.2,0-0.3,0.5-0.3,0.5l0,6l1.8,0.2L184.1,192.4z"/>
				<path class="st16" d="M183.5,193.6l-1.4-0.2c-0.2,0-0.3,0.5-0.3,0.5l0,6l1.8,0.2L183.5,193.6z"/>
			</g>
			<g>
				<path class="st21" d="M197.7,180.2L196,180c-0.3,0-0.4,0.5-0.4,0.5l0,6l2.1,0.2L197.7,180.2z"/>
				<path class="st21" d="M197.1,181.3l-1.6-0.2c-0.3,0-0.4,0.5-0.4,0.5l0,6l2.1,0.2L197.1,181.3z"/>
				<path class="st21" d="M196.6,182.4l-1.6-0.2c-0.3,0-0.4,0.5-0.4,0.5l0,6l2.1,0.2L196.6,182.4z"/>
				<path class="st21" d="M195.9,183.7l-1.6-0.2c-0.3,0-0.4,0.5-0.4,0.5l0,6l2.1,0.2L195.9,183.7z"/>
				<path class="st21" d="M195.4,184.9l-1.6-0.2c-0.3,0-0.4,0.5-0.4,0.5l0,6l2.1,0.2L195.4,184.9z"/>
			</g>
			<g>
				<path class="st21" d="M193.6,188.5l-1.6-0.2c-0.3,0-0.4,0.5-0.4,0.5l0,6l2.1,0.2L193.6,188.5z"/>
				<path class="st21" d="M193.1,189.6l-1.6-0.2c-0.3,0-0.4,0.5-0.4,0.5l0,6l2.1,0.2L193.1,189.6z"/>
				<path class="st21" d="M192.4,190.7l-1.6-0.2c-0.3,0-0.4,0.5-0.4,0.5l0,6l2.1,0.2L192.4,190.7z"/>
				<path class="st21" d="M191.8,191.8l-1.6-0.2c-0.3,0-0.4,0.5-0.4,0.5l0,6l2.1,0.2L191.8,191.8z"/>
				<path class="st21" d="M191.2,193l-1.6-0.2c-0.3,0-0.4,0.5-0.4,0.5l0,6l2.1,0.2L191.2,193z"/>
			</g>
		</g>
	</g>
	<g>
		<defs>
			<polygon id="SVGID_3_" points="136,197.3 134.3,200.2 130,199.7 130.8,195 132,192.8 138.8,195 137,197.2 			"/>
		</defs>
		<clipPath id="SVGID_4_">
			<use xlink:href="#SVGID_3_"  style="overflow:visible;"/>
		</clipPath>
		<g class="st22">
			<path class="st23" d="M132.2,196.6c-0.6,0.7-1.3,3.8-1.3,3.8l-1.3-0.1l-0.2,0.2l0.1,1.7c0,0-0.4,7.6,0.1,9.1l3.1,0.5l0.5-0.8
				l-0.1-0.5l2.8-4.9l0.1,0.2l0.4-0.6V205l-0.1-5.3l-0.2-5.1l-2.9-0.7c0,0-0.7,0.2-0.5,2.1L132.2,196.6z"/>
			<polygon class="st24" points="129.4,200.6 129.6,200.3 131.5,200.5 131.9,201 131.9,206.1 132.4,206.8 132.6,211.8 129.6,211.4 
							"/>
			<path class="st24" d="M132.6,196.1c0,0-0.1-1.9,0.5-2.1l2.9,0.5c0,0-0.5,1.3-0.3,2.3l-0.8-0.2"/>
			<path class="st24" d="M135.7,197.1c0,0,0.4,2.4-0.2,5.3l-0.6-0.1"/>
			<polyline class="st24" points="135.5,202.6 135.5,204.2 134.8,204 134.7,202.9 			"/>
			<polyline class="st24" points="132.5,206.7 132.9,206.2 133.1,206.6 133.2,208.2 135.5,204.4 			"/>
			<polyline class="st24" points="132,206 132.2,205.4 132.9,206.2 			"/>
			<path class="st24" d="M131,200.1c0,0,0.5-4.3,2.3-4.3l0.9,0.2c0,0-1.3-0.2-2.3,6"/>
			<path class="st24" d="M134.3,204.1c0,0,1.7-6.7,0-8"/>
			<polyline class="st24" points="132.6,211.8 133.1,211.1 133,210.6 135.8,205.6 135.8,205.9 136.3,205.3 136.1,194.7 			"/>
			<polygon class="st24" points="133.4,207.1 133.2,204.5 134,203.3 134.3,204.2 134.5,205.1 			"/>
		</g>
	</g>
</g>
<g id="Pull_Out">
	<g>
		<g>
			<path class="st25" d="M52.5,70.2c0,0-3.1,0.3-4.8,5.3c0,0-2,4.7-1.5,9.4L46,102.3l7.3,4.2l1.1-0.2l0.3-0.8l6.4-2.8l0.6,0.5l3-1.3
				v-0.7l3.3-1.3l0.5,0.6l4.4-1.8l0.4-0.6l2.8-1.5l0.6,0.2l3.3-1.4l0.1-0.6l6.2-2.4l0.7,0.3l0.8-0.5l0.1-17.6c0,0-0.2-6.4-3.4-9.8
				c0,0-0.3,3.4-0.6,4.2c0,0,1.8,2.6,1.8,6.5c0,0-0.9,6.8-3.5,11l0.1,3.3l-1.7,0.7l-0.2-2.2l-1-1l-17.8,7.6c0,0-0.8,0.2-1.7,1.8"/>
			<path class="st25" d="M53.7,80.6c0,0-0.3,1.1-0.4,8.3c-0.1,7.2-0.1,17.6-0.1,17.6"/>
			<polyline class="st25" points="87.7,74.6 85.6,75.5 82.1,73.4 			"/>
			<path class="st25" d="M54.7,82.1c0,0,0.7,1.8,0.8,5.8l-2.1,1l-7.2-4.1"/>
			<path class="st25" d="M55.5,88.3c0,0-0.2,3.2,3.4,7.6l0,0.4l0.1,2.9l1.2-0.4v-1.6l-1-0.5"/>
			<polygon class="st25" points="67,94.9 67.1,98.5 68.5,98 68.7,98.2 72.5,96.6 72.4,96.3 73.8,95.7 73.8,92.1 			"/>
			<line class="st25" x1="56.6" y1="91.7" x2="66.5" y2="87.6"/>
			<path class="st25" d="M69.1,89.4l2.6-2.7l3.4-1.4l2.7-5.2l0.9-0.2l3.6,2.3c0,0-1.5,3.2-1.8,3.4l1.2,0.7"/>
			<path class="st25" d="M76,83.1c0,0-9.6,7.9-16.9,3c0,0-5.8-3.1-7-10s4.7-20.5,14.7-24.5s15.7,5.3,15.7,5.3s-3.1-4.3-6.9-4.9
				s-10.8,1.5-16.4,9.7s-6.6,18.3-0.1,24"/>
			
				<ellipse transform="matrix(-0.86 -0.5102 0.5102 -0.86 94.3863 165.4987)" class="st26" cx="69.9" cy="69.8" rx="12.5" ry="18.6"/>
			<line class="st27" x1="69.5" y1="62.5" x2="69.6" y2="76.4"/>
			<line class="st27" x1="63.2" y1="72.1" x2="75.5" y2="67"/>
			<line class="st28" x1="71.9" y1="86.8" x2="75.2" y2="88.8"/>
			<line class="st28" x1="75.2" y1="85.4" x2="78.6" y2="87.4"/>
			<path class="st28" d="M78.5,87c0,0,0.9-1.8-1.3-3.9l0-0.4l0.1-0.2l0.9-1.4l1.1-0.1l2.6,1.6l-0.2,0.5c0,0-1-0.1-1.7,1.1l-0.4,3.2"
				/>
			<line class="st28" x1="77.3" y1="82.7" x2="80.1" y2="84.2"/>
			<polyline class="st28" points="81.9,89.9 81.1,89.7 81.1,86.7 82.1,86.4 			"/>
			<polyline class="st28" points="80.2,88 80.1,86.2 80.5,85.7 			"/>
			<polyline class="st28" points="57.8,94.4 59.9,94.2 61,95 			"/>
			<path class="st28" d="M59.9,93.9l0.1-3.6l2,1.4l0.2,0l0.3,0l0.7,0.1v0.5l5-2.1c0,0-0.1-1,0.2-1.1"/>
			<line class="st28" x1="62.3" y1="94.5" x2="62.1" y2="91.8"/>
			<line class="st28" x1="63.6" y1="93.8" x2="63.6" y2="92.2"/>
			<polyline class="st28" points="69,91.5 68.9,89.1 66.9,87.8 			"/>
			<line class="st28" x1="67.6" y1="90.6" x2="67.6" y2="92.2"/>
		</g>
		<g>
			<g>
				<polygon class="st29" points="50.4,29.6 44.9,37.6 47.6,36.1 47.3,45.9 52.5,43.1 52.8,33.3 55.5,31.9 				"/>
			</g>
		</g>
		<g>
			<g>
				<polygon class="st29" points="49.4,62 54.8,54 52.2,55.5 52.5,45.7 47.3,48.5 47,58.3 44.3,59.7 				"/>
			</g>
		</g>
	</g>
	<g>
		<g>
			<path class="st28" d="M14.5,131.2c0,0-2.7-0.4-4.7,3.8s-2.5,10.8-2.5,10.8l0.1,18.4l7.4,4.3l0.2-18.3c0,0-1-5.9,1.7-12.8
				C18.6,131.8,14.5,131.2,14.5,131.2z"/>
			<path class="st28" d="M12.7,131.6l3.2-1.1c0,0,4.3,1.5,3.6,4.1c0,0-3.1,6.2-2.4,15.1l-2.3,0.9l-7.6-4.6"/>
			<path class="st28" d="M17.2,149.6c0.8,6.1,3.9,8.2,3.9,8.2l-0.6,0.1v3.5l1.8-0.6l-0.1-1.6l0.7-1.9l0.4-0.4l18.8-7.6
				c0,0,0.7,0.3,0.8,1.1c0.1,0.9,0,1.5,0,1.5l1.6-0.5l-0.1-3.4l-0.6,0.3c0,0,3.8-5.9,4.1-11.8c0.3-6-5.4-13.6-10.6-15.2l2.3-0.2
				l1.5,0.4c0,0,7.6,2.1,9.2,14.1l0.1,18.2l-1.4,0.5v-0.6l-7.1,3.1l0.1,0.6l-3.5,1.6l-0.1-0.6l-3.4,1.5v0.5l-4.9,2v-0.6l-3.5,1.5
				v0.6l-3.4,1.6v-0.6l-7,2.8v0.7l-1.5,0.3"/>
			<line class="st28" x1="44" y1="126" x2="46.2" y2="125.1"/>
			<polyline class="st28" points="50.5,135.6 48.2,136.7 46.8,135.7 			"/>
			<polyline class="st28" points="43,147.6 43.9,148.1 43.8,151.5 			"/>
			<line class="st28" x1="16.6" y1="137.4" x2="18.7" y2="136.6"/>
			<line class="st28" x1="20.8" y1="158.1" x2="22.2" y2="159.1"/>
			<polygon class="st28" points="29.2,156.5 36,153.7 36,157.5 34.6,158.1 34.6,158.3 30.7,160 30.6,159.8 29.2,160.4 			"/>
			<path class="st28" d="M18.2,131.5c0,0,3.8-6.3,10.3-9.2c4.1-1.8,8.4-1.2,9.2-1"/>
			<path class="st28" d="M41.9,123.9c0,0-3.4-3.1-10.4-0.5c-7,2.5-12.9,11.8-13.1,14.7"/>
			<path class="st28" d="M22.6,157.5c-0.1-0.1-0.3-0.2-0.4-0.3c-5.8-3.7-6.6-13.7-1.5-22.7c5.2-9.1,14.4-13.7,20.6-10.2
				s7.1,13.8,2,22.9c-0.3,0.5-0.6,1.1-0.9,1.6"/>
			<line class="st27" x1="32.9" y1="132.4" x2="33.1" y2="146.3"/>
			<line class="st27" x1="26.7" y1="142" x2="39" y2="136.9"/>
		</g>
		<g>
			<g>
				<g>
					<path class="st29" d="M36,117.4l-7.7,1.3c0,0-0.2-4.9,6.9-6.2c1.5-0.3,3.2,0.1,4.1,0.6C36.9,114.9,36.2,116.1,36,117.4"/>
					<path class="st29" d="M35,112.6l6.4-1.1c5.2-0.8,7.5,3,7.5,3l4-0.7l-4.2,7.2l-12.1-4.3l4.5-0.8c0,0-1-1.1-2.8-1.8
						c-1.6-0.7-3.9-0.9-6.7,0.4L35,112.6z"/>
				</g>
			</g>
			<g>
				<path class="st30" d="M40.8,115.6c0,0-4.2-4.2-10.3-1.2"/>
			</g>
		</g>
	</g>
	<g>
		<line class="st31" x1="46.8" y1="158.3" x2="130.2" y2="195.7"/>
		<line class="st32" x1="46.8" y1="158.3" x2="130.2" y2="195.7"/>
	</g>
</g>
</svg>
