<?xml version="1.0" encoding="utf-8"?>
<!-- Generator: Adobe Illustrator 19.1.0, SVG Export Plug-In . SVG Version: 6.00 Build 0)  -->
<svg version="1.1" id="Illustration" xmlns="http://www.w3.org/2000/svg" xmlns:xlink="http://www.w3.org/1999/xlink" x="0px"
	 y="0px" width="432.3px" height="480.6px" viewBox="0 0 432.3 480.6" style="enable-background:new 0 0 432.3 480.6;"
	 xml:space="preserve">
<style type="text/css">
	.st0{fill:#E6E7E8;}
	.st1{fill:none;stroke:#000000;stroke-width:0.5;stroke-miterlimit:10;}
	.st2{fill:none;stroke:#000000;stroke-width:0.5;stroke-linecap:round;stroke-linejoin:round;stroke-miterlimit:10;}
	.st3{fill:#FFFFFF;stroke:#000000;stroke-width:0.5;stroke-miterlimit:10;}
	.st4{opacity:0.6;fill:#FFFFFF;stroke:#FFFFFF;stroke-width:5;stroke-miterlimit:10;}
	.st5{fill:none;stroke:#000000;stroke-linecap:round;stroke-linejoin:round;stroke-miterlimit:10;stroke-dasharray:3;}
	.st6{fill:#FFFFFF;stroke:#000000;stroke-width:0.5;stroke-linecap:round;stroke-linejoin:round;stroke-miterlimit:10;}
	.st7{clip-path:url(#SVGID_4_);}
	.st8{fill:none;stroke:#000000;stroke-width:0.3088;stroke-linecap:round;stroke-linejoin:round;stroke-miterlimit:10;}
	.st9{fill:none;stroke:#000000;stroke-width:0.4632;stroke-linecap:round;stroke-linejoin:round;stroke-miterlimit:10;}
	.st10{fill:none;stroke:#FFFFFF;stroke-width:1.8527;stroke-linecap:round;stroke-linejoin:round;stroke-miterlimit:10;}
	
		.st11{fill:none;stroke:#FFFFFF;stroke-width:1.8527;stroke-linecap:round;stroke-linejoin:round;stroke-miterlimit:10;stroke-dasharray:1.2351;}
	
		.st12{fill:none;stroke:#000000;stroke-width:0.75;stroke-linecap:round;stroke-linejoin:round;stroke-miterlimit:10;stroke-dasharray:1,1.5;}
	.st13{fill:none;stroke:#000000;stroke-width:2.4703;stroke-miterlimit:10;}
	.st14{fill:none;stroke:#000000;stroke-width:1.7645;stroke-miterlimit:10;}
	.st15{font-family:'MyriadPro-Regular';}
	.st16{font-size:7.4185px;}
	.st17{fill:none;stroke:#000000;stroke-width:0.25;stroke-miterlimit:10;}
	
		.st18{fill:none;stroke:#FFFFFF;stroke-width:4;stroke-linecap:round;stroke-linejoin:round;stroke-miterlimit:10;stroke-dasharray:3;}
	.st19{fill:#FFFFFF;}
	.st20{fill:none;stroke:#000000;stroke-width:1.8;stroke-miterlimit:10;}
	.st21{fill:none;stroke:#000000;stroke-width:1.9762;stroke-miterlimit:10;}
	.st22{font-size:9.0119px;}
	.st23{fill:#FFFFFF;stroke:#000000;stroke-miterlimit:10;}
	.st24{font-size:21.101px;}
	.st25{clip-path:url(#SVGID_6_);}
	.st26{clip-path:url(#SVGID_8_);}
	.st27{clip-path:url(#SVGID_10_);}
	.st28{clip-path:url(#SVGID_12_);}
	.st29{clip-path:url(#SVGID_14_);}
	.st30{stroke:#FFFFFF;stroke-width:0.1544;stroke-miterlimit:10;}
	.st31{stroke:#FFFFFF;stroke-width:0.3088;stroke-miterlimit:10;}
	.st32{fill:none;stroke:#FFFFFF;stroke-width:0.3088;stroke-miterlimit:10;}
	.st33{fill:none;stroke:#FFFFFF;stroke-width:1.5658;stroke-linecap:round;stroke-linejoin:round;stroke-miterlimit:10;}
	
		.st34{fill:none;stroke:#000000;stroke-width:0.3914;stroke-linecap:round;stroke-linejoin:round;stroke-miterlimit:10;stroke-dasharray:1.0439;}
	.st35{clip-path:url(#SVGID_16_);}
	.st36{fill:none;stroke:#000000;stroke-width:0.4;stroke-linecap:round;stroke-linejoin:round;stroke-miterlimit:10;}
	.st37{fill:none;stroke:#FFFFFF;stroke-width:2;stroke-linecap:round;stroke-linejoin:round;stroke-miterlimit:10;}
	
		.st38{fill:none;stroke:#000000;stroke-width:0.75;stroke-linecap:round;stroke-linejoin:round;stroke-miterlimit:10;stroke-dasharray:0.75,1.5;}
	.st39{fill:none;stroke:#000000;stroke-width:1.6772;stroke-miterlimit:10;}
	.st40{fill:#010101;}
	.st41{fill:none;stroke:#FFFFFF;stroke-width:2;}
	.st42{fill:#010101;stroke:#FFFFFF;stroke-width:2;}
	.st43{fill:none;stroke:#FFFFFF;stroke-width:3;stroke-linecap:round;stroke-linejoin:round;}
	.st44{fill:#010101;stroke:#FFFFFF;stroke-width:3;stroke-linecap:round;stroke-linejoin:round;}
	.st45{opacity:0.34;}
	.st46{fill:#FFFFFF;stroke:#010101;stroke-width:0.5417;stroke-miterlimit:10;}
	.st47{fill:#1C1C1C;}
	.st48{fill:#404040;}
	.st49{opacity:0.62;}
	.st50{opacity:0.68;}
</style>
<path class="st0" d="M261.3,74.7v4.4c0,0-8.9,6.7-11.2,8.6c-2.4,1.8-5.2,0.7-5.2,0.7S150,70.6,148.5,70.3c-1.5-0.3-1.8-1.4-1.8-1.4
	v-3.7l1.2-1.3l11.7-8.6l2.5-0.5l5.9,1.4l0.4,2.5c0,0-4.8,2.5-5.4,3.9c-0.5,1.4,1.3,3.2,5.6,3.9c4.3,0.7,9.1-1.6,9.1-1.6l5.6-4.1
	l5.9-1.1l45.5,9l0.5,2.2c0,0,0,3.8,0,4.7s-6.3,2.3-0.2,3.4c6.1,1.1,9.5-2,9.5-2l4.5-3.4l5.4-1.4c0,0,2.1,0.2,5,0.7
	C261.6,73.1,261.4,74.7,261.3,74.7L261.3,74.7z"/>
<line class="st1" x1="82" y1="345.9" x2="84.9" y2="366.7"/>
<line class="st1" x1="154.9" y1="360.4" x2="164.3" y2="438.8"/>
<path class="st1" d="M115.8,352.5c-15.1-3-90.8-18.2-92.3-18.5"/>
<path class="st1" d="M177.5,364.8c0,0-39.9-8-58.9-11.7"/>
<path class="st1" d="M120.8,351c18.5,3.7,55.6,10.9,55.6,10.9"/>
<path class="st1" d="M24.5,331.5c1.1,0.2,77.4,15.7,93.5,18.9"/>
<line class="st1" x1="87.5" y1="386.3" x2="94.8" y2="439.1"/>
<line class="st1" x1="89.5" y1="383.1" x2="97.1" y2="439.1"/>
<line class="st1" x1="84.9" y1="346.7" x2="86.5" y2="360.9"/>
<line class="st1" x1="114.9" y1="439" x2="103.2" y2="350"/>
<line class="st1" x1="105.7" y1="350.6" x2="117.2" y2="438.9"/>
<line class="st1" x1="113.2" y1="352.2" x2="124.4" y2="439"/>
<polyline class="st1" points="128.6,438.3 118.5,353.2 175.4,303.8 "/>
<line class="st1" x1="121.5" y1="353.9" x2="132.4" y2="438.7"/>
<line class="st1" x1="135.1" y1="412.7" x2="138.7" y2="439.4"/>
<line class="st1" x1="137.7" y1="405.3" x2="142.2" y2="439.3"/>
<line class="st1" x1="140" y1="396.4" x2="146.1" y2="438.6"/>
<line class="st1" x1="134.5" y1="356.6" x2="136.8" y2="373.8"/>
<line class="st1" x1="141.8" y1="393.6" x2="148.2" y2="439.2"/>
<line class="st1" x1="137" y1="356.8" x2="138.4" y2="367.7"/>
<line class="st2" x1="161.4" y1="361.9" x2="171.5" y2="439.2"/>
<line class="st2" x1="169.9" y1="439.5" x2="159.5" y2="361.6"/>
<polyline class="st1" points="126.2,438.7 115.9,352.5 172.8,303 "/>
<g>
	<defs>
		<path id="SVGID_1_" d="M152.8,372.6l-0.5-5.7c0,0,0.2-0.6,0.1-0.8c-0.4-0.9-1.5-3.7-4.8-4.3c-4-0.7-8.2,2.3-7.7,5l-0.5,1.3
			l11.2,2.6L152.8,372.6z"/>
	</defs>
	<clipPath id="SVGID_2_">
		<use xlink:href="#SVGID_1_"  style="overflow:visible;"/>
	</clipPath>
</g>
<g>
	<g>
		<ellipse class="st2" cx="266.5" cy="458" rx="3.1" ry="1.6"/>
		<ellipse class="st3" cx="266.5" cy="456.3" rx="2.1" ry="1.1"/>
	</g>
	<g>
		<ellipse class="st2" cx="259.6" cy="455.4" rx="3.1" ry="1.6"/>
		<ellipse class="st3" cx="259.6" cy="453.7" rx="2.1" ry="1.1"/>
	</g>
	<polygon class="st2" points="319.5,474.4 205,432.7 205,185.6 319.5,227.3 	"/>
	<polygon class="st2" points="429.3,432.7 320.9,474.4 320.9,227.3 429.8,187.1 	"/>
	<polyline class="st2" points="261.3,452.8 261.3,204 369.3,165.1 	"/>
	<polyline class="st2" points="431.9,184.8 432.1,431.5 429.3,432.7 	"/>
	<line class="st2" x1="281.1" y1="444.6" x2="281.1" y2="217.4"/>
	<line class="st2" x1="271.9" y1="448.9" x2="271.9" y2="213.9"/>
	<polygon class="st2" points="431.7,184.8 319.9,226.1 204.3,183.9 314.4,146.1 	"/>
	<line class="st2" x1="222.6" y1="196.9" x2="222.6" y2="424.6"/>
	<line class="st2" x1="214.8" y1="194.3" x2="214.8" y2="426.1"/>
	<polyline class="st2" points="255.9,450.6 255.9,208.9 205.1,189.9 	"/>
	<polygon class="st2" points="265.5,451.4 265.5,211.2 312.7,227.8 314.7,469.3 	"/>
	<line class="st2" x1="206" y1="430.8" x2="255.8" y2="412.3"/>
	<line class="st2" x1="231.1" y1="426.8" x2="255.8" y2="417.6"/>
	<line class="st2" x1="289.9" y1="448.1" x2="314.1" y2="438.9"/>
	<line class="st2" x1="222.6" y1="414.6" x2="255.9" y2="402.2"/>
	<line class="st2" x1="281.1" y1="431.7" x2="313.8" y2="419.7"/>
	<line class="st2" x1="265.5" y1="451.4" x2="313.9" y2="433.7"/>
	<line class="st2" x1="313.9" y1="456.4" x2="282.1" y2="445.4"/>
	<line class="st2" x1="254.6" y1="435.5" x2="222.8" y2="424.5"/>
	<line class="st2" x1="321.7" y1="230" x2="429.5" y2="190"/>
	<line class="st2" x1="280.7" y1="329.8" x2="313.3" y2="317.7"/>
	<line class="st2" x1="280.7" y1="318" x2="313.3" y2="305.9"/>
	<line class="st2" x1="223.4" y1="307.7" x2="256" y2="295.7"/>
	<line class="st2" x1="223.4" y1="297.2" x2="256" y2="285.2"/>
	<g>
		<circle class="st4" cx="264.1" cy="205.3" r="17.4"/>
		<circle class="st5" cx="264.1" cy="205.3" r="17.4"/>
	</g>
	<g>
		<circle class="st4" cx="261.5" cy="452.2" r="17.4"/>
		<circle class="st5" cx="261.5" cy="452.2" r="17.4"/>
	</g>
	<g>
		<circle class="st4" cx="380.9" cy="408.1" r="15.7"/>
		<circle class="st5" cx="380.9" cy="408.1" r="15.7"/>
	</g>
	<g>
		<circle class="st4" cx="368.2" cy="165" r="15.7"/>
		<circle class="st5" cx="368.2" cy="165" r="15.7"/>
	</g>
	<g>
		<ellipse class="st2" cx="428.5" cy="437.1" rx="2.7" ry="1.4"/>
		<ellipse class="st3" cx="428.5" cy="435.6" rx="1.8" ry="0.9"/>
		<line class="st6" x1="428.5" y1="434.9" x2="428.5" y2="433.3"/>
	</g>
	<g>
		<ellipse class="st2" cx="320.2" cy="478.7" rx="3.1" ry="1.6"/>
		<ellipse class="st3" cx="320.2" cy="477" rx="2.1" ry="1.1"/>
		<line class="st6" x1="320.2" y1="476.1" x2="320.2" y2="474.8"/>
	</g>
	<g>
		<ellipse class="st2" cx="208.4" cy="437.7" rx="3.1" ry="1.6"/>
		<ellipse class="st3" cx="208.4" cy="436" rx="2.1" ry="1.1"/>
		<line class="st6" x1="208.4" y1="435.2" x2="208.4" y2="434"/>
	</g>
</g>
<g>
	<g>
		<defs>
			<rect id="SVGID_3_" x="129.8" y="0.9" width="145.1" height="120.3"/>
		</defs>
		<clipPath id="SVGID_4_">
			<use xlink:href="#SVGID_3_"  style="overflow:visible;"/>
		</clipPath>
		<g class="st7">
			<line class="st2" x1="249.7" y1="83.7" x2="249.8" y2="88"/>
			<path class="st2" d="M159.6,55.3l-11.7,8.6c0,0-2.5,1.8,1.6,2.7s94.7,17.8,94.7,17.8s2.5,1.3,6.3-1.4c3.8-2.7,10.4-7.9,10.4-7.9
				s1.4-1.4-1.4-2.2c-2.9-0.7-5-0.7-5-0.7l-5.4,1.4l-4.5,3.4c0,0-3.4,3-9.5,2c-6.1-1.1-5.6-2.7-5.6-3.6s5.7-4.5,5.7-4.5l-0.5-2.2
				l-45.5-9l-5.9,1.1l-5.6,4.1c0,0-4.8,2.3-9.1,1.6c-4.3-0.7-6.1-2.5-5.6-3.9s5.4-3.9,5.4-3.9l-0.4-2.5l-5.9-1.4L159.6,55.3z"/>
			<line class="st2" x1="244.8" y1="84.7" x2="244.8" y2="88.5"/>
			<ellipse class="st2" cx="245.7" cy="81.6" rx="3.1" ry="1.3"/>
			<line class="st2" x1="148.6" y1="66.5" x2="148.6" y2="70.4"/>
			<ellipse class="st2" cx="155.6" cy="64.2" rx="3.4" ry="1.4"/>
			<ellipse class="st2" cx="170.7" cy="89.4" rx="7.1" ry="2.9"/>
			<ellipse class="st2" cx="237.4" cy="101.7" rx="7.1" ry="2.9"/>
			<ellipse class="st8" cx="237.4" cy="102.6" rx="6.7" ry="2.1"/>
			<ellipse class="st8" cx="170.4" cy="90.2" rx="6.7" ry="2.1"/>
			<g>
				<ellipse class="st2" cx="169.4" cy="29.6" rx="11.5" ry="4.8"/>
				<path class="st2" d="M180.7,28.9c0,2.7-4.9,4.8-11.3,4.8s-11.2-2.2-11.2-4.8"/>
				<path class="st2" d="M163,33.6c-0.3,0.1-0.4,0.4-0.4,0.4c-0.8,2.8,6.6,2.7,6.6,2.7c7.4-0.6,7.3-3.2,7.3-3.2"/>
				<path class="st2" d="M163,35.3c-0.3,0.1-0.4,0.4-0.4,0.4c-0.8,2.8,6.6,2.7,6.6,2.7c7.4-0.6,7.3-3.2,7.3-3.2s0-0.3-0.3-0.4"/>
				<path class="st2" d="M163,37c-0.3,0.1-0.4,0.4-0.4,0.4c-0.8,2.8,6.6,2.7,6.6,2.7c7.4-0.6,7.3-3.2,7.3-3.2s0-0.3-0.3-0.4"/>
				<path class="st2" d="M163,38.7c-0.3,0.1-0.4,0.4-0.4,0.4c-0.8,2.8,6.6,2.7,6.6,2.7c7.4-0.6,7.3-3.2,7.3-3.2s0-0.3-0.3-0.4"/>
				<path class="st2" d="M163,40.4c-0.3,0.1-0.4,0.4-0.4,0.4c-0.8,2.8,6.6,2.7,6.6,2.7c7.4-0.6,7.3-3.2,7.3-3.2s0-0.3-0.3-0.4"/>
				<path class="st2" d="M163,42.1c-0.3,0.1-0.4,0.4-0.4,0.4c-0.8,2.8,6.6,2.7,6.6,2.7c7.4-0.6,7.3-3.2,7.3-3.2s0-0.3-0.3-0.4"/>
				<path class="st2" d="M163,43.8c-0.3,0.1-0.4,0.4-0.4,0.4c-0.8,2.8,6.6,2.7,6.6,2.7c7.4-0.6,7.3-3.2,7.3-3.2s0-0.3-0.3-0.4"/>
				<path class="st2" d="M163,45.5c-0.3,0.1-0.4,0.4-0.4,0.4c-0.8,2.8,6.6,2.7,6.6,2.7c7.4-0.6,7.3-3.2,7.3-3.2s0-0.3-0.3-0.4"/>
				<path class="st2" d="M163,47.2c-0.3,0.1-0.4,0.4-0.4,0.4c-0.8,2.8,6.6,2.7,6.6,2.7c7.4-0.6,7.3-3.2,7.3-3.2s0-0.3-0.3-0.4"/>
				<path class="st2" d="M163,48.9c-0.3,0.1-0.4,0.4-0.4,0.4c-0.8,2.8,6.6,2.7,6.6,2.7c7.4-0.6,7.3-3.2,7.3-3.2s0-0.3-0.3-0.4"/>
				<path class="st2" d="M163,50.6c-0.3,0.1-0.4,0.4-0.4,0.4c-0.8,2.8,6.6,2.7,6.6,2.7c7.4-0.6,7.3-3.2,7.3-3.2s0-0.3-0.3-0.4"/>
				<g>
					<line class="st9" x1="167" y1="27" x2="172.1" y2="26.8"/>
					<line class="st9" x1="168.1" y1="26" x2="171" y2="27.8"/>
					<line class="st9" x1="168.2" y1="28.1" x2="170.8" y2="25.8"/>
				</g>
			</g>
			<g>
				<ellipse class="st2" cx="236.6" cy="42.3" rx="11.5" ry="4.8"/>
				<path class="st2" d="M247.8,41.5c0,2.7-4.9,4.8-11.3,4.8s-11.2-2.2-11.2-4.8"/>
				<path class="st2" d="M230.1,46.2c-0.3,0.1-0.4,0.4-0.4,0.4c-0.8,2.8,6.6,2.7,6.6,2.7c7.4-0.6,7.3-3.2,7.3-3.2"/>
				<path class="st2" d="M230.1,47.9c-0.3,0.1-0.4,0.4-0.4,0.4c-0.8,2.8,6.6,2.7,6.6,2.7c7.4-0.6,7.3-3.2,7.3-3.2s0-0.3-0.3-0.4"/>
				<path class="st2" d="M230.1,49.6c-0.3,0.1-0.4,0.4-0.4,0.4c-0.8,2.8,6.6,2.7,6.6,2.7c7.4-0.6,7.3-3.2,7.3-3.2s0-0.3-0.3-0.4"/>
				<path class="st2" d="M230.1,51.3c-0.3,0.1-0.4,0.4-0.4,0.4c-0.8,2.8,6.6,2.7,6.6,2.7c7.4-0.6,7.3-3.2,7.3-3.2s0-0.3-0.3-0.4"/>
				<path class="st2" d="M230.1,53c-0.3,0.1-0.4,0.4-0.4,0.4c-0.8,2.8,6.6,2.7,6.6,2.7c7.4-0.6,7.3-3.2,7.3-3.2s0-0.3-0.3-0.4"/>
				<path class="st2" d="M230.1,54.7c-0.3,0.1-0.4,0.4-0.4,0.4c-0.8,2.8,6.6,2.7,6.6,2.7c7.4-0.6,7.3-3.2,7.3-3.2s0-0.3-0.3-0.4"/>
				<path class="st2" d="M230.1,56.4c-0.3,0.1-0.4,0.4-0.4,0.4c-0.8,2.8,6.6,2.7,6.6,2.7c7.4-0.6,7.3-3.2,7.3-3.2s0-0.3-0.3-0.4"/>
				<path class="st2" d="M230.1,58.1c-0.3,0.1-0.4,0.4-0.4,0.4c-0.8,2.8,6.6,2.7,6.6,2.7c7.4-0.6,7.3-3.2,7.3-3.2s0-0.3-0.3-0.4"/>
				<path class="st2" d="M230.1,59.8c-0.3,0.1-0.4,0.4-0.4,0.4c-0.8,2.8,6.6,2.7,6.6,2.7c7.4-0.6,7.3-3.2,7.3-3.2s0-0.3-0.3-0.4"/>
				<path class="st2" d="M230.1,61.5c-0.3,0.1-0.4,0.4-0.4,0.4c-0.8,2.8,6.6,2.7,6.6,2.7c7.4-0.6,7.3-3.2,7.3-3.2s0-0.3-0.3-0.4"/>
				<path class="st2" d="M230.1,63.2c-0.3,0.1-0.4,0.4-0.4,0.4c-0.8,2.8,6.6,2.7,6.6,2.7c7.4-0.6,7.3-3.2,7.3-3.2s0-0.3-0.3-0.4"/>
				<g>
					<line class="st9" x1="234.1" y1="39.6" x2="239.2" y2="39.4"/>
					<line class="st9" x1="235.2" y1="38.6" x2="238.2" y2="40.5"/>
					<line class="st9" x1="235.3" y1="40.7" x2="237.9" y2="38.5"/>
				</g>
			</g>
			<path class="st2" d="M129.8,97l50.1,10c0,0,3.8,0.6,3.8,3c0,2.4,0.1,7.7,0.1,7.7"/>
			<line class="st2" x1="248.6" y1="42.9" x2="275.8" y2="22.2"/>
			<line class="st2" x1="219.1" y1="65.5" x2="229.4" y2="57.6"/>
			<polyline class="st2" points="129.4,88.7 176.8,97.7 199.5,80.4 			"/>
			<path class="st2" d="M244,50.2c17.4-13.4,31.6-24.4,31.6-24.4"/>
			<path class="st2" d="M223.3,66.2c1.9-1.5,3.9-3,5.9-4.5"/>
			<path class="st2" d="M129.2,91.9l45.7,8.8c0,0,2.6,0.8,6-1.8c1-0.8,10.4-8,22.8-17.6"/>
			<path class="st2" d="M215,83.5l-31.3,24l-0.8,0.7l0.6,0.6l11.5-4.4c0,0,3.4-1,4.1,0.9c0.7,1.9-0.6,2.7-3.1,4"/>
			<line class="st2" x1="275.6" y1="37" x2="244.1" y2="61.2"/>
			<path class="st2" d="M183.8,110.6l11.5-4.5c0,0,1.8-0.9,1.7,0.6c0,0,0,0.5-1.6,1l-11.5,4.5"/>
			<line class="st2" x1="236.2" y1="78.9" x2="275.6" y2="48.5"/>
			<line class="st2" x1="199" y1="107.6" x2="227.6" y2="85.6"/>
			<line class="st2" x1="235.5" y1="73.2" x2="275.8" y2="42"/>
			<polyline class="st2" points="195.1,104.5 220.9,84.5 221.1,84.3 			"/>
			<polyline class="st2" points="235.2,71.1 235.3,75.5 231.8,78.1 			"/>
			<line class="st2" x1="239.2" y1="78.9" x2="276" y2="50.7"/>
			<line class="st2" x1="198.6" y1="110" x2="229.7" y2="86.1"/>
			<path class="st2" d="M258.3,72.3c9.8-7.6,17.5-13.6,17.5-13.6"/>
			<path class="st2" d="M213.9,112.6l0.1-5.1c0,0-0.3-0.9,2.7-3c1.2-0.9,10.7-8.2,21.8-16.8"/>
			<path class="st2" d="M225.1,134.3l-38.7-11.1c0,0-4.7-1.6-3.3-4.6l3.7-3.4"/>
			<line class="st8" x1="183.3" y1="134" x2="183" y2="120.3"/>
			<path class="st2" d="M186.4,134.3l-0.6-11.1c0,0,0.1-2.7,1.7-3.2"/>
			<path class="st2" d="M129.4,112l35.6,4.1c0,0,3.6,0.3,6.2-1.4s9.4-7.2,9.4-7.2"/>
			<path class="st2" d="M183.4,109.4l-10,8c0,0-4.3,1.9-9.4,1.5s-34.7-3.5-34.7-3.5"/>
			<path class="st2" d="M164.9,116.1c0,0-0.3,2.7-0.1,3.5c0.2,0.8,0.3,14.6,0.3,14.6"/>
			<path class="st2" d="M171.1,114.7c0,0,2.1,0.7,2.3,2.7c0.1,2,0.7,17,0.7,17"/>
			<path class="st2" d="M176.2,106.3c0,0-0.1-3.8-0.2-5.4c-0.1-1.6,0.8-3.1,0.8-3.1s2.3,0.9,2.4,2.5c0.1,1.6,0.5,6.8,0.5,6.8"/>
			<line class="st10" x1="170.6" y1="76.8" x2="171" y2="90.5"/>
			<line class="st10" x1="170.6" y1="55.4" x2="170.9" y2="64.5"/>
			<line class="st11" x1="237.1" y1="88.8" x2="237.5" y2="101.9"/>
			<line class="st11" x1="237.1" y1="68.4" x2="237.4" y2="77.4"/>
			<line class="st11" x1="236.1" y1="11.7" x2="236.6" y2="34.8"/>
			<line class="st12" x1="237.1" y1="89" x2="237.5" y2="102.2"/>
			<line class="st12" x1="237.1" y1="68.5" x2="237.4" y2="77.3"/>
			<line class="st12" x1="170.6" y1="76.1" x2="171" y2="90.5"/>
			<line class="st12" x1="170.6" y1="55.4" x2="170.9" y2="65.2"/>
			<line class="st2" x1="275.7" y1="115.9" x2="216.3" y2="105"/>
			<line class="st2" x1="214" y1="108" x2="276" y2="119.5"/>
			<path class="st2" d="M275.5,124.4L195,109.5c0,0-1.8-0.6-2.6,0.2l-6,6.1c0,0-3.2,2.8,1.1,4.2c4.3,1.4,49,14.2,49,14.2"/>
			<g>
				<g>
					<line class="st13" x1="169.6" y1="8.3" x2="169.6" y2="18.8"/>
					<g>
						<polygon points="172.9,18.4 166.3,18.4 169.6,21.7 						"/>
					</g>
				</g>
			</g>
			<g>
				<g>
					<line class="st13" x1="236.6" y1="21.2" x2="236.6" y2="31.7"/>
					<g>
						<polygon points="239.9,31.3 233.3,31.3 236.6,34.6 						"/>
					</g>
				</g>
			</g>
			<path class="st2" d="M146.7,65.3V69c0,0,0.3,1.1,1.8,1.4c1.5,0.3,96.3,18.1,96.3,18.1s2.9,1.1,5.2-0.7s11.2-8.6,11.2-8.6v-4.4"/>
		</g>
	</g>
	<rect x="129.8" y="0.9" class="st14" width="145.1" height="120.3"/>
</g>
<g>
	<text transform="matrix(1 0 0 1 47.9659 392.5731)" class="st15 st16">12 mm</text>
</g>
<g>
	<text transform="matrix(1 0 0 1 54.6391 378.9847)" class="st15 st16">19 mm</text>
</g>
<g>
	<g>
		<ellipse transform="matrix(0.927 0.375 -0.375 0.927 148.0254 -4.959)" class="st1" cx="86.8" cy="377.8" rx="7.6" ry="4.7"/>
		<ellipse transform="matrix(0.927 0.375 -0.375 0.927 147.9082 -4.8229)" class="st17" cx="86.3" cy="377.6" rx="5" ry="3.1"/>
		<path class="st1" d="M79.5,376.9l-0.5-3.8l1.3-2.8c0,0,1.7-1.3,5.8-1.5c0,0,1.3-0.1,2,0.2s3.5,1.6,5.5,2.9c0,0,1.3,1,1.6,2.4
			s0.5,4.4,0.5,4.4l-1,2.9c0,0-2.1,1.2-3.8,1.2"/>
		<path class="st1" d="M87.2,368.9l-0.9,1.8c0,0-0.9,1.3-2.6,1.6c-1.7,0.3-3,0.8-3,0.8s-1.3,0.2-1.6-0.2"/>
		<path class="st1" d="M86.3,370.9c0,0-0.1,1.3,1.9,2.3c1.9,1,5,2.7,5.7,2.6l1.1-2.5"/>
		<path class="st1" d="M94.8,381.7c0,0-0.9-0.8-1-2.6s-0.2-3,0.2-3.8"/>
	</g>
	<g>
		<ellipse transform="matrix(0.927 0.375 -0.375 0.927 155.5725 -23.2679)" class="st1" cx="137.6" cy="388.1" rx="7.8" ry="4.9"/>
		<ellipse transform="matrix(0.927 0.375 -0.375 0.927 155.4512 -23.1271)" class="st17" cx="137.1" cy="387.8" rx="5.2" ry="3.2"/>
		<ellipse transform="matrix(0.927 0.375 -0.375 0.927 155.4551 -23.347)" class="st17" cx="137.7" cy="387.7" rx="4.2" ry="2.7"/>
		<ellipse transform="matrix(0.927 0.375 -0.375 0.927 155.3165 -23.4797)" class="st17" cx="138" cy="387.3" rx="3.9" ry="2"/>
		<ellipse transform="matrix(0.927 0.375 -0.375 0.927 155.2047 -23.6893)" class="st17" cx="138.5" cy="386.9" rx="3.7" ry="1.5"/>
		<ellipse transform="matrix(0.927 0.375 -0.375 0.927 154.985 -23.7673)" class="st17" cx="138.6" cy="386.3" rx="3.2" ry="1.1"/>
		<path class="st1" d="M130.1,387.1l-0.5-3.9l1.4-2.9c0,0,1.8-1.3,6-1.6c0,0,1.3-0.1,2.1,0.2s3.6,1.7,5.7,3c0,0,1.4,1,1.7,2.5
			c0.3,1.5,0.5,4.5,0.5,4.5l-1.1,3c0,0-2.2,1.2-3.9,1.2"/>
		<path class="st1" d="M138.1,378.8l-0.9,1.9c0,0-1,1.3-2.7,1.6s-3.1,0.8-3.1,0.8s-1.4,0.2-1.6-0.2"/>
		<path class="st1" d="M137.1,380.9c0,0-0.1,1.3,1.9,2.4c2,1.1,5.2,2.8,5.9,2.7l1.1-2.6"/>
		<path class="st1" d="M145.9,392c0,0-0.9-0.8-1-2.7c-0.1-1.9-0.2-3.1,0.2-4"/>
	</g>
	<line class="st17" x1="82.5" y1="380.7" x2="82.8" y2="383.2"/>
</g>
<text transform="matrix(1 0 0 1 181.7748 48.5098)"><tspan x="0" y="0" class="st15 st16">Interconnect </tspan><tspan x="8.2" y="7" class="st15 st16">bracket</tspan></text>
<text transform="matrix(1 0 0 1 109.4555 315.5865)"><tspan x="0" y="0" class="st15 st16">Interconnect </tspan><tspan x="8.2" y="7" class="st15 st16">bracket</tspan></text>
<g>
	<line class="st18" x1="154.1" y1="127.7" x2="248.5" y2="191.8"/>
	<line class="st5" x1="154.1" y1="127.7" x2="248.5" y2="191.8"/>
</g>
<g>
	<line class="st18" x1="182.4" y1="369" x2="361.6" y2="401"/>
	<line class="st5" x1="182.4" y1="369" x2="361.6" y2="401"/>
</g>
<g>
	<line class="st18" x1="157.8" y1="126.7" x2="347" y2="161.8"/>
	<line class="st5" x1="157.8" y1="126.7" x2="347" y2="161.8"/>
</g>
<g>
	<line class="st18" x1="181.9" y1="374.7" x2="241.9" y2="439.6"/>
	<line class="st5" x1="181.9" y1="374.7" x2="241.9" y2="439.6"/>
</g>
<rect y="79.6" class="st19" width="152.6" height="119.2"/>
<ellipse class="st2" cx="42.4" cy="150.2" rx="7.1" ry="2.9"/>
<ellipse class="st2" cx="109.1" cy="162.5" rx="7.1" ry="2.9"/>
<ellipse class="st8" cx="109.1" cy="163.5" rx="6.7" ry="2.1"/>
<ellipse class="st8" cx="42.1" cy="151" rx="6.7" ry="2.1"/>
<path class="st2" d="M6.2,158.6l45.5,9.3c0,0,3.8,0.6,3.8,3c0,2.4,0.1,7.7,0.1,7.7"/>
<line class="st2" x1="116" y1="105.5" x2="128.6" y2="95.6"/>
<polyline class="st2" points="6.8,150.5 48.5,158.6 101.3,117.2 "/>
<path class="st2" d="M6.5,153.6l40.2,8c0,0,2.6,0.8,6-1.8c1-0.8,10.4-8,22.8-17.6l27.5-21.3"/>
<path class="st2" d="M104.1,130.7l-48.6,37.7l-0.8,0.7l0.6,0.6l11.5-4.4c0,0,3.4-1,4.1,0.9c0.7,1.9-0.6,2.7-3.1,4"/>
<line class="st2" x1="145.6" y1="98.7" x2="115.9" y2="121.6"/>
<path class="st2" d="M55.5,171.4l11.5-4.5c0,0,1.8-0.9,1.7,0.6c0,0,0,0.5-1.6,1L55.6,173"/>
<line class="st2" x1="70.8" y1="168.5" x2="145.8" y2="110.7"/>
<line class="st2" x1="66.8" y1="165.3" x2="96.4" y2="142.4"/>
<line class="st2" x1="70.3" y1="170.8" x2="146.6" y2="112.4"/>
<path class="st2" d="M85.7,173.4l0.1-5.1c0,0-0.3-0.9,2.7-3c1.2-0.9,10.7-8.2,21.8-16.8l19.8-15.3c9.8-7.6,17.5-13.6,17.5-13.6"/>
<path class="st2" d="M96.8,195.1L58.1,184c0,0-4.7-1.6-3.3-4.6l3.7-3.4"/>
<line class="st2" x1="55.1" y1="194.9" x2="54.7" y2="181.1"/>
<path class="st2" d="M58.1,195.1L57.5,184c0,0,0.1-2.7,1.7-3.2"/>
<path class="st2" d="M5.9,173.2l30.7,3.8c0,0,3.6,0.3,6.2-1.4c2.6-1.7,9.4-7.2,9.4-7.2"/>
<path class="st2" d="M55.2,170.3l-10,8c0,0-4.3,1.9-9.4,1.5c-2.8-0.2-21-2.1-29.6-3"/>
<path class="st2" d="M36.7,176.9c0,0-0.3,2.7-0.1,3.5c0.2,0.8,0.3,14.6,0.3,14.6"/>
<path class="st2" d="M42.9,175.6c0,0,2.1,0.7,2.3,2.7c0.1,2,0.7,17,0.7,17"/>
<path class="st2" d="M47.9,167.1c0,0-0.1-3.8-0.2-5.4c-0.1-1.6,0.8-3.1,0.8-3.1s2.3,0.9,2.4,2.5c0.1,1.6,0.5,6.8,0.5,6.8"/>
<line class="st2" x1="147.4" y1="176.7" x2="88" y2="165.9"/>
<line class="st2" x1="85.8" y1="168.8" x2="147.8" y2="180.3"/>
<path class="st2" d="M147.2,185.3l-80.5-14.9c0,0-1.8-0.6-2.6,0.2l-6,6.1c0,0-3.2,2.8,1.1,4.2s49,14.2,49,14.2"/>
<line class="st2" x1="147.5" y1="102.9" x2="111.9" y2="130.5"/>
<g>
	<g>
		<line class="st20" x1="32.4" y1="120.2" x2="32.8" y2="112.6"/>
		<g>
			<polygon points="30.3,112.8 35.1,113 32.9,110.5 			"/>
		</g>
	</g>
</g>
<g>
	<g>
		<line class="st21" x1="53.2" y1="147.3" x2="53.2" y2="138.9"/>
		<g>
			<polygon points="50.6,139.2 55.9,139.2 53.2,136.6 			"/>
		</g>
	</g>
</g>
<rect x="5.6" y="84.6" class="st14" width="141.6" height="109.7"/>
<g>
	<circle cx="26.6" cy="105" r="5.4"/>
	<text transform="matrix(0.9986 5.313000e-02 -5.313000e-02 0.9986 24.108 107.7282)" class="st19 st15 st22">1</text>
</g>
<g>
	<circle cx="63.2" cy="148.1" r="5.4"/>
	<text transform="matrix(1 0 0 1 60.9296 150.8111)" class="st19 st15 st22">2</text>
</g>
<path class="st2" d="M119.7,108c6-4.6,11.4-8.8,15.9-12.3"/>
<g>
	<circle class="st23" cx="75.4" cy="104.3" r="12.7"/>
	<text transform="matrix(1 0 0 1 70.0248 111.3746)" class="st15 st24">1</text>
</g>
<g>
	<circle class="st23" cx="206.2" cy="22.2" r="12.7"/>
	<text transform="matrix(1 0 0 1 200.7744 28.6758)" class="st15 st24">2</text>
</g>
<g>
	<path class="st19" d="M78.3,383.4l4.7-8.6c0,0,7.7,0.1,8.1,4.1l-4.3,10.7L78.3,383.4z"/>
	<g>
		<defs>
			<path id="SVGID_5_" d="M91.3,379.7c0.7-1.6-0.8-3.7-3.4-4.8c-2.5-1.1-5.2-0.9-5.9,0.7l-8.9,4.9l-16.1,12l-9.2,11.2l0.9,12.9
				l11.5,14.5l26.4,5.1l4.1-6.9l3.1-18.3L91.3,379.7z"/>
		</defs>
		<clipPath id="SVGID_6_">
			<use xlink:href="#SVGID_5_"  style="overflow:visible;"/>
		</clipPath>
		<g class="st25">
			<path class="st17" d="M71.9,398.1L88,362.5c0.5-1.3,2.9-1.7,5.4-0.8c2.5,0.9,4.1,2.8,3.6,4.1l-16.3,36.4"/>
			<g>
				<path class="st17" d="M87.4,363.7c0.5-1.3,2.9-1.7,5.4-0.8s4.1,2.8,3.6,4.1"/>
				<path class="st17" d="M86.7,365.3c0.5-1.3,2.9-1.7,5.4-0.8s4.1,2.8,3.6,4.1"/>
				<path class="st17" d="M86,366.8c0.5-1.3,2.9-1.7,5.4-0.8c2.5,0.9,4.1,2.8,3.6,4.1"/>
				<path class="st17" d="M85.3,368.4c0.5-1.3,2.9-1.7,5.4-0.8c2.5,0.9,4.1,2.8,3.6,4.1"/>
				<path class="st17" d="M84.6,369.9c0.5-1.3,2.9-1.7,5.4-0.8c2.5,0.9,4.1,2.8,3.6,4.1"/>
				<path class="st17" d="M83.9,371.5c0.5-1.3,2.9-1.7,5.4-0.8s4.1,2.8,3.6,4.1"/>
				<path class="st17" d="M83.2,373c0.5-1.3,2.9-1.7,5.4-0.8s4.1,2.8,3.6,4.1"/>
				<path class="st17" d="M82.5,374.6c0.5-1.3,2.9-1.7,5.4-0.8s4.1,2.8,3.6,4.1"/>
				<path class="st17" d="M81.8,376.1c0.5-1.3,2.9-1.7,5.4-0.8s4.1,2.8,3.6,4.1"/>
				<path class="st17" d="M81.1,377.7c0.5-1.3,2.9-1.7,5.4-0.8c2.5,0.9,4.1,2.8,3.6,4.1"/>
				<path class="st17" d="M80.4,379.2c0.5-1.3,2.9-1.7,5.4-0.8c2.5,0.9,4.1,2.8,3.6,4.1"/>
				<path class="st17" d="M79.7,380.8c0.5-1.3,2.9-1.7,5.4-0.8s4.1,2.8,3.6,4.1"/>
				<path class="st17" d="M79,382.3c0.5-1.3,2.9-1.7,5.4-0.8s4.1,2.8,3.6,4.1"/>
				<path class="st17" d="M78.3,383.9c0.5-1.3,2.9-1.7,5.4-0.8s4.1,2.8,3.6,4.1"/>
				<path class="st17" d="M77.6,385.4c0.5-1.3,2.9-1.7,5.4-0.8s4.1,2.8,3.6,4.1"/>
				<path class="st17" d="M76.9,387c0.5-1.3,2.9-1.7,5.4-0.8c2.5,0.9,4.1,2.8,3.6,4.1"/>
				<path class="st17" d="M76.2,388.5c0.5-1.3,2.9-1.7,5.4-0.8c2.5,0.9,4.1,2.8,3.6,4.1"/>
				<path class="st17" d="M75.5,390.1c0.5-1.3,2.9-1.7,5.4-0.8s4.1,2.8,3.6,4.1"/>
				<path class="st17" d="M74.8,391.6c0.5-1.3,2.9-1.7,5.4-0.8s4.1,2.8,3.6,4.1"/>
				<path class="st17" d="M74.1,393.1c0.5-1.3,2.9-1.7,5.4-0.8s4.1,2.8,3.6,4.1"/>
				<path class="st17" d="M73.4,394.7c0.5-1.3,2.9-1.7,5.4-0.8s4.1,2.8,3.6,4.1"/>
				<path class="st17" d="M72.7,396.2c0.5-1.3,2.9-1.7,5.4-0.8c2.5,0.9,4.1,2.8,3.6,4.1"/>
				<path class="st17" d="M72,397.8c0.5-1.3,2.9-1.7,5.4-0.8c2.5,0.9,4.1,2.8,3.6,4.1"/>
				<path class="st17" d="M71.3,399.3c0.5-1.3,2.9-1.7,5.4-0.8s4.1,2.8,3.6,4.1"/>
			</g>
			<ellipse transform="matrix(0.9361 0.3517 -0.3517 0.9361 149.4661 1.3605)" cx="71" cy="412.1" rx="19.8" ry="14.1"/>
			
				<ellipse transform="matrix(0.9361 0.3517 -0.3517 0.9361 150.2196 1.8236)" class="st23" cx="70.1" cy="414.4" rx="18.8" ry="11.5"/>
			<ellipse transform="matrix(0.9361 0.3517 -0.3517 0.9361 150.0552 1.8707)" class="st1" cx="69.9" cy="414" rx="12.7" ry="7.8"/>
			<ellipse transform="matrix(0.9361 0.3517 -0.3517 0.9361 149.6215 1.3411)" class="st1" cx="71.1" cy="412.5" rx="11.1" ry="6"/>
			
				<ellipse transform="matrix(0.9361 0.3517 -0.3517 0.9361 149.7545 1.4487)" class="st1" cx="70.9" cy="412.9" rx="12.1" ry="6.7"/>
		</g>
	</g>
</g>
<g>
	<defs>
		<path id="SVGID_7_" d="M96.8,374.4l4.8-18.2c0,0,0-0.1-0.2-0.3c-0.4-0.9-2-3.4-5.2-4c-4-0.7-6.2-0.6-12.6,17h4.2l6.6,3.7
			L96.8,374.4z"/>
	</defs>
	<clipPath id="SVGID_8_">
		<use xlink:href="#SVGID_7_"  style="overflow:visible;"/>
	</clipPath>
	<g class="st26">
		<path class="st17" d="M75.7,389.5l15.7-36.8c0.5-1.4,3-1.8,5.5-0.9c2.6,0.9,4.3,2.7,3.8,4.1l-15.9,37.6"/>
		<g>
			<path class="st17" d="M90.8,354.1c0.5-1.4,3-1.8,5.5-0.9c2.6,0.9,4.3,2.7,3.8,4.1"/>
			<path class="st17" d="M90.1,355.7c0.5-1.4,3-1.8,5.5-0.9c2.6,0.9,4.3,2.7,3.8,4.1"/>
			<path class="st17" d="M89.5,357.3c0.5-1.4,3-1.8,5.5-0.9c2.6,0.9,4.3,2.7,3.8,4.1"/>
			<path class="st17" d="M88.8,358.9c0.5-1.4,3-1.8,5.5-0.9c2.6,0.9,4.3,2.7,3.8,4.1"/>
			<path class="st17" d="M88.1,360.5c0.5-1.4,3-1.8,5.5-0.9c2.6,0.9,4.3,2.7,3.8,4.1"/>
			<path class="st17" d="M87.4,362.1c0.5-1.4,3-1.8,5.5-0.9c2.6,0.9,4.3,2.7,3.8,4.1"/>
			<path class="st17" d="M86.7,363.7c0.5-1.4,3-1.8,5.5-0.9c2.6,0.9,4.3,2.7,3.8,4.1"/>
			<path class="st17" d="M86,365.3c0.5-1.4,3-1.8,5.5-0.9c2.6,0.9,4.3,2.7,3.8,4.1"/>
			<path class="st17" d="M85.4,366.9c0.5-1.4,3-1.8,5.5-0.9c2.6,0.9,4.3,2.7,3.8,4.1"/>
			<path class="st17" d="M84.7,368.5c0.5-1.4,3-1.8,5.5-0.9c2.6,0.9,4.3,2.7,3.8,4.1"/>
			<path class="st17" d="M84,370.1c0.5-1.4,3-1.8,5.5-0.9c2.6,0.9,4.3,2.7,3.8,4.1"/>
			<path class="st17" d="M83.3,371.7c0.5-1.4,3-1.8,5.5-0.9c2.6,0.9,4.3,2.7,3.8,4.1"/>
			<path class="st17" d="M82.6,373.3c0.5-1.4,3-1.8,5.5-0.9c2.6,0.9,4.3,2.7,3.8,4.1"/>
			<path class="st17" d="M81.9,374.9c0.5-1.4,3-1.8,5.5-0.9c2.6,0.9,4.3,2.7,3.8,4.1"/>
			<path class="st17" d="M81.3,376.4c0.5-1.4,3-1.8,5.5-0.9c2.6,0.9,4.3,2.7,3.8,4.1"/>
			<path class="st17" d="M80.6,378c0.5-1.4,3-1.8,5.5-0.9c2.6,0.9,4.3,2.7,3.8,4.1"/>
			<path class="st17" d="M79.9,379.6c0.5-1.4,3-1.8,5.5-0.9c2.6,0.9,4.3,2.7,3.8,4.1"/>
			<path class="st17" d="M79.2,381.2c0.5-1.4,3-1.8,5.5-0.9c2.6,0.9,4.3,2.7,3.8,4.1"/>
			<path class="st17" d="M78.5,382.8c0.5-1.4,3-1.8,5.5-0.9c2.6,0.9,4.3,2.7,3.8,4.1"/>
			<path class="st17" d="M77.8,384.4c0.5-1.4,3-1.8,5.5-0.9c2.6,0.9,4.3,2.7,3.8,4.1"/>
			<path class="st17" d="M77.2,386c0.5-1.4,3-1.8,5.5-0.9c2.6,0.9,4.3,2.7,3.8,4.1"/>
			<path class="st17" d="M76.5,387.6c0.5-1.4,3-1.8,5.5-0.9c2.6,0.9,4.3,2.7,3.8,4.1"/>
			<path class="st17" d="M75.8,389.2c0.5-1.4,3-1.8,5.5-0.9c2.6,0.9,4.3,2.7,3.8,4.1"/>
			<path class="st17" d="M75.1,390.8c0.5-1.4,3-1.8,5.5-0.9c2.6,0.9,4.3,2.7,3.8,4.1"/>
		</g>
	</g>
</g>
<g>
	<path class="st19" d="M129.1,393.6l4.4-8.8c0,0,7.7-0.1,8.2,3.8l-4,10.8L129.1,393.6z"/>
	<g>
		<defs>
			<path id="SVGID_9_" d="M141.9,389.6c0.6-1.6-1-3.7-3.5-4.7c-2.6-1-5.3-0.7-5.9,0.9l-8.8,5.2l-15.7,12.5l-8.9,11.5l1.3,12.8
				l12.2,11.9l26.3,1.6l3.7-1.7l8-24L141.9,389.6z"/>
		</defs>
		<clipPath id="SVGID_10_">
			<use xlink:href="#SVGID_9_"  style="overflow:visible;"/>
		</clipPath>
		<g class="st27">
			<path class="st17" d="M127.7,399.5l13.8-36.6c0.4-1.4,2.8-1.9,5.4-1.1c2.6,0.8,4.3,2.5,3.9,3.9l-13.9,37.4"/>
			<g>
				<path class="st17" d="M140.9,364.2c0.4-1.4,2.8-1.9,5.4-1.1c2.6,0.8,4.3,2.5,3.9,3.9"/>
				<path class="st17" d="M140.3,365.8c0.4-1.4,2.8-1.9,5.4-1.1c2.6,0.8,4.3,2.5,3.9,3.9"/>
				<path class="st17" d="M139.7,367.4c0.4-1.4,2.8-1.9,5.4-1.1s4.3,2.5,3.9,3.9"/>
				<path class="st17" d="M139.1,369c0.4-1.4,2.8-1.9,5.4-1.1c2.6,0.8,4.3,2.5,3.9,3.9"/>
				<path class="st17" d="M138.5,370.6c0.4-1.4,2.8-1.9,5.4-1.1c2.6,0.8,4.3,2.5,3.9,3.9"/>
				<path class="st17" d="M137.9,372.2c0.4-1.4,2.8-1.9,5.4-1.1c2.6,0.8,4.3,2.5,3.9,3.9"/>
				<path class="st17" d="M137.3,373.8c0.4-1.4,2.8-1.9,5.4-1.1c2.6,0.8,4.3,2.5,3.9,3.9"/>
				<path class="st17" d="M136.7,375.4c0.4-1.4,2.8-1.9,5.4-1.1c2.6,0.8,4.3,2.5,3.9,3.9"/>
				<path class="st17" d="M136.1,377c0.4-1.4,2.8-1.9,5.4-1.1c2.6,0.8,4.3,2.5,3.9,3.9"/>
				<path class="st17" d="M135.5,378.5c0.4-1.4,2.8-1.9,5.4-1.1c2.6,0.8,4.3,2.5,3.9,3.9"/>
				<path class="st17" d="M134.9,380.1c0.4-1.4,2.8-1.9,5.4-1.1c2.6,0.8,4.3,2.5,3.9,3.9"/>
				<path class="st17" d="M134.3,381.7c0.4-1.4,2.8-1.9,5.4-1.1c2.6,0.8,4.3,2.5,3.9,3.9"/>
				<path class="st17" d="M133.7,383.3c0.4-1.4,2.8-1.9,5.4-1.1c2.6,0.8,4.3,2.5,3.9,3.9"/>
				<path class="st17" d="M133.1,384.9c0.4-1.4,2.8-1.9,5.4-1.1c2.6,0.8,4.3,2.5,3.9,3.9"/>
				<path class="st17" d="M132.5,386.5c0.4-1.4,2.8-1.9,5.4-1.1c2.6,0.8,4.3,2.5,3.9,3.9"/>
				<path class="st17" d="M131.9,388.1c0.4-1.4,2.8-1.9,5.4-1.1c2.6,0.8,4.3,2.5,3.9,3.9"/>
				<path class="st17" d="M131.3,389.7c0.4-1.4,2.8-1.9,5.4-1.1c2.6,0.8,4.3,2.5,3.9,3.9"/>
				<path class="st17" d="M130.7,391.3c0.4-1.4,2.8-1.9,5.4-1.1c2.6,0.8,4.3,2.5,3.9,3.9"/>
				<path class="st17" d="M130.1,392.9c0.4-1.4,2.8-1.9,5.4-1.1c2.6,0.8,4.3,2.5,3.9,3.9"/>
				<path class="st17" d="M129.5,394.5c0.4-1.4,2.8-1.9,5.4-1.1c2.6,0.8,4.3,2.5,3.9,3.9"/>
				<path class="st17" d="M128.9,396c0.4-1.4,2.8-1.9,5.4-1.1c2.6,0.8,4.3,2.5,3.9,3.9"/>
				<path class="st17" d="M128.3,397.6c0.4-1.4,2.8-1.9,5.4-1.1c2.6,0.8,4.3,2.5,3.9,3.9"/>
				<path class="st17" d="M127.7,399.2c0.4-1.4,2.8-1.9,5.4-1.1c2.6,0.8,4.3,2.5,3.9,3.9"/>
				<path class="st17" d="M127.1,400.8c0.4-1.4,2.8-1.9,5.4-1.1c2.6,0.8,4.3,2.5,3.9,3.9"/>
			</g>
			<ellipse transform="matrix(0.9572 0.2894 -0.2894 0.9572 125.15 -19.2563)" cx="127.7" cy="413.5" rx="19.8" ry="14.1"/>
			
				<ellipse transform="matrix(0.9572 0.2894 -0.2894 0.9572 125.8011 -18.9399)" class="st23" cx="126.9" cy="415.9" rx="18.8" ry="11.5"/>
			
				<ellipse transform="matrix(0.9572 0.2894 -0.2894 0.9572 125.671 -18.8883)" class="st1" cx="126.7" cy="415.5" rx="12.7" ry="7.8"/>
			
				<ellipse transform="matrix(0.9572 0.2894 -0.2894 0.9572 125.275 -19.2847)" class="st1" cx="127.8" cy="413.9" rx="11.1" ry="6"/>
			
				<ellipse transform="matrix(0.9572 0.2894 -0.2894 0.9572 125.392 -19.2078)" class="st1" cx="127.6" cy="414.4" rx="12.1" ry="6.7"/>
		</g>
	</g>
</g>
<g>
	<defs>
		<path id="SVGID_11_" d="M147.5,384.9l5.2-18.9c0,0,0-0.1-0.2-0.3c-0.4-0.9-1.9-3.8-5.2-4.4c-4-0.7-6.5,0.3-12.8,17.8l4.2-0.5
			l6.6,3.6L147.5,384.9z"/>
	</defs>
	<clipPath id="SVGID_12_">
		<use xlink:href="#SVGID_11_"  style="overflow:visible;"/>
	</clipPath>
	<g class="st28">
		<path class="st17" d="M127.1,399.3l15.6-36.8c0.5-1.4,3-1.8,5.5-0.9c2.6,0.9,4.3,2.7,3.8,4.1l-15.8,37.7"/>
		<g>
			<path class="st17" d="M142.2,363.9c0.5-1.4,3-1.8,5.5-0.9c2.6,0.9,4.3,2.7,3.8,4.1"/>
			<path class="st17" d="M141.5,365.5c0.5-1.4,3-1.8,5.5-0.9c2.6,0.9,4.3,2.7,3.8,4.1"/>
			<path class="st17" d="M140.8,367.1c0.5-1.4,3-1.8,5.5-0.9c2.6,0.9,4.3,2.7,3.8,4.1"/>
			<path class="st17" d="M140.1,368.7c0.5-1.4,3-1.8,5.5-0.9c2.6,0.9,4.3,2.7,3.8,4.1"/>
			<path class="st17" d="M139.4,370.3c0.5-1.4,3-1.8,5.5-0.9c2.6,0.9,4.3,2.7,3.8,4.1"/>
			<path class="st17" d="M138.8,371.9c0.5-1.4,3-1.8,5.5-0.9c2.6,0.9,4.3,2.7,3.8,4.1"/>
			<path class="st17" d="M138.1,373.5c0.5-1.4,3-1.8,5.5-0.9c2.6,0.9,4.3,2.7,3.8,4.1"/>
			<path class="st17" d="M137.4,375.1c0.5-1.4,3-1.8,5.5-0.9c2.6,0.9,4.3,2.7,3.8,4.1"/>
			<path class="st17" d="M136.7,376.7c0.5-1.4,3-1.8,5.5-0.9c2.6,0.9,4.3,2.7,3.8,4.1"/>
			<path class="st17" d="M136,378.3c0.5-1.4,3-1.8,5.5-0.9s4.3,2.7,3.8,4.1"/>
			<path class="st17" d="M135.4,379.9c0.5-1.4,3-1.8,5.5-0.9s4.3,2.7,3.8,4.1"/>
			<path class="st17" d="M134.7,381.5c0.5-1.4,3-1.8,5.5-0.9c2.6,0.9,4.3,2.7,3.8,4.1"/>
			<path class="st17" d="M134,383.1c0.5-1.4,3-1.8,5.5-0.9s4.3,2.7,3.8,4.1"/>
			<path class="st17" d="M133.3,384.7c0.5-1.4,3-1.8,5.5-0.9s4.3,2.7,3.8,4.1"/>
			<path class="st17" d="M132.7,386.3c0.5-1.4,3-1.8,5.5-0.9s4.3,2.7,3.8,4.1"/>
			<path class="st17" d="M132,387.9c0.5-1.4,3-1.8,5.5-0.9c2.6,0.9,4.3,2.7,3.8,4.1"/>
			<path class="st17" d="M131.3,389.5c0.5-1.4,3-1.8,5.5-0.9s4.3,2.7,3.8,4.1"/>
			<path class="st17" d="M130.6,391.1c0.5-1.4,3-1.8,5.5-0.9s4.3,2.7,3.8,4.1"/>
			<path class="st17" d="M129.9,392.7c0.5-1.4,3-1.8,5.5-0.9c2.6,0.9,4.3,2.7,3.8,4.1"/>
			<path class="st17" d="M129.3,394.3c0.5-1.4,3-1.8,5.5-0.9c2.6,0.9,4.3,2.7,3.8,4.1"/>
			<path class="st17" d="M128.6,395.9c0.5-1.4,3-1.8,5.5-0.9s4.3,2.7,3.8,4.1"/>
			<path class="st17" d="M127.9,397.5c0.5-1.4,3-1.8,5.5-0.9s4.3,2.7,3.8,4.1"/>
			<path class="st17" d="M127.2,399.1c0.5-1.4,3-1.8,5.5-0.9c2.6,0.9,4.3,2.7,3.8,4.1"/>
			<path class="st17" d="M126.5,400.7c0.5-1.4,3-1.8,5.5-0.9s4.3,2.7,3.8,4.1"/>
		</g>
	</g>
</g>
<g>
	<defs>
		<path id="SVGID_13_" d="M116.3,162.4c0,1.6-3.2,2.9-7.1,2.9s-7.1-1.3-7.1-2.9l-7.5-13.8v-10l1.8-4.5l4.3-4.1l-2.6-6.9l5.1-3.3
			l8.8-1l6.9,3.7l0.6,2.9l-2,3.9l4.5,5.3v4.9v7.7L116.3,162.4z"/>
	</defs>
	<clipPath id="SVGID_14_">
		<use xlink:href="#SVGID_13_"  style="overflow:visible;"/>
	</clipPath>
	<g class="st29">
		<path class="st30" d="M103.6,144.2v25.2l2.3,2.3h0c1.3,0,2.3-1,2.3-2.3v-17.2c0,0,1-1.3,1.9,0v17.2c0,1.2,0.9,2.2,2.1,2.3
			c0.1,0,0.2,0,0.3,0l2.3-2.3v-25.2"/>
		<path class="st8" d="M109.2,169.6"/>
		<g>
			<ellipse class="st31" cx="109.2" cy="140.4" rx="11.5" ry="5.4"/>
			<path class="st32" d="M120.5,138.8c0,2.7-4.9,4.8-11.3,4.8c-6.3,0-11.2-2.2-11.2-4.8"/>
		</g>
		<ellipse class="st30" cx="109.2" cy="139.4" rx="3.5" ry="1.6"/>
	</g>
</g>
<g>
	<line class="st33" x1="109.1" y1="128.9" x2="109.3" y2="138.7"/>
	<line class="st34" x1="109.1" y1="129" x2="109.3" y2="139.3"/>
</g>
<path class="st30" d="M112.3,126.1v-13.2c0-1.8-1.4-3.2-3.2-3.2h0c-1.8,0-3.2,1.4-3.2,3.2v13.2c0,0,1.7,1.3,3.3,1.3
	S112.3,126.1,112.3,126.1z"/>
<ellipse class="st30" cx="109.1" cy="110.7" rx="9" ry="4.1"/>
<path class="st32" d="M118,109.6c0,2.1-3.9,3.8-8.9,3.8c-5,0-8.8-1.7-8.8-3.8"/>
<g>
	<g>
		<defs>
			<path id="SVGID_15_" d="M49.3,149.9c0,1.6-3.2,2.9-7.1,2.9s-7.1-1.3-7.1-2.9l-7.5-13.8l0-10l1.8-4.5l4.3-4.1l-2.6-6.9l5.1-3.3
				l8.8-1l6.9,3.7l0.6,2.9l-2,3.9l4.5,5.3v4.9v7.7L49.3,149.9z"/>
		</defs>
		<clipPath id="SVGID_16_">
			<use xlink:href="#SVGID_15_"  style="overflow:visible;"/>
		</clipPath>
		<g class="st35">
			<path class="st30" d="M36.6,131.7v25.2l2.3,2.3h0c1.3,0,2.3-1,2.3-2.3v-17.2c0,0,1-1.3,1.9,0v17.2c0,1.2,0.9,2.2,2.1,2.3
				c0.1,0,0.2,0,0.3,0l2.3-2.3v-25.2"/>
			<path class="st8" d="M42.2,157.1"/>
			<g>
				<ellipse class="st31" cx="42.2" cy="127.9" rx="11.5" ry="5.4"/>
				<path class="st32" d="M53.4,126.3c0,2.7-4.9,4.8-11.3,4.8S31,128.9,31,126.3"/>
			</g>
			<ellipse class="st30" cx="42.2" cy="126.9" rx="3.5" ry="1.6"/>
		</g>
	</g>
	<g>
		<line class="st33" x1="42.1" y1="116.4" x2="42.3" y2="126.3"/>
		<line class="st34" x1="42.1" y1="116.5" x2="42.3" y2="126.8"/>
	</g>
	<path class="st30" d="M45.3,113.6v-13.2c0-1.8-1.4-3.2-3.2-3.2h0c-1.8,0-3.2,1.4-3.2,3.2v13.2c0,0,1.7,1.3,3.3,1.3
		S45.3,113.6,45.3,113.6z"/>
	<ellipse class="st30" cx="42.1" cy="98.2" rx="9" ry="4.1"/>
	<path class="st32" d="M51,97.1c0,2.1-3.9,3.8-8.9,3.8s-8.8-1.7-8.8-3.8"/>
</g>
<path class="st36" d="M89.1,356c0.5-3,3.6-5,7-4.5c3.4,0.5,5.7,3.4,5.3,6.4c-0.2,1-0.6,1.9-1.2,2.6c0,0-0.7,1-1.4,1"/>
<path class="st2" d="M89.4,358.5"/>
<path class="st36" d="M140.3,366.6c0.2-3.3,3.1-5.8,6.4-5.5c3.3,0.2,5.9,3.1,5.7,6.3c-0.1,1.2-0.5,2.2-1.1,3.1l-1.5,1.4"/>
<g>
	<path class="st0" d="M97.7,343.5l-2.4-2.9l-0.6-6.1c0,0-1.4-4.1-4.9-4.5c-3.1-0.3-4.9,1.3-4.4,4.2l0.1,4.1l-1.5,1.9l-2.1,0.3
		l-5.8-1.5l-0.8-1.5l-1.6-11.6c0,0-0.3-5.5,3.3-4.9c3.7,0.7,78.6,13.8,78.6,13.8s2.2,1.2,2.4,2.8c0.2,1.6,1.4,12.9,1.4,12.9
		s-1.4,3.3-2,3.5c-1.3,0.4-5-1-5-1l-3.2-3.2l-0.7-6c0,0-0.9-4-5.6-4.6c-3.3-0.5-3.7,1-3.7,4l0.2,4.5l-1.5,1.7l-2.2,0.4L97.7,343.5z"
		/>
	<path class="st1" d="M87.5,330.2c-1.6,0.8-2.3,2.3-2,4.1l0.1,4.2l-1.8,1.8l-1.9,0.5"/>
	<path class="st1" d="M140.9,339.2c-1.3,0.6-1.6,2-1.6,3.8l0.1,4.8l-1.7,1.8l-2.1,0.4"/>
	<path class="st1" d="M73.4,325.1l1.7-3.5c0,0,0.6-0.8,2.3-0.4c2.4,0.7,77.6,13.5,77.6,13.5s2.7,0,3.3,3.2
		c0.6,3.2,1.2,12.6,1.2,12.6l-1.6,3.2"/>
	<line class="st1" x1="76.2" y1="323.8" x2="77.5" y2="321.3"/>
	<line class="st1" x1="154.4" y1="337.3" x2="155.3" y2="335.1"/>
	<path class="st1" d="M97.5,343.5l-2.4-2.9l-0.6-6.1c0,0-1.4-3.9-4.9-4.5c-4.3-0.6-6.7,1.6-6.2,4.5l0.1,4.2l-1.8,1.8l-5.8-1.5
		l-0.8-1.5l-1.6-11.6c0,0-0.5-2.8,3.2-2.1c3.7,0.7,77.8,13.3,77.8,13.3s2.1,0.4,2.2,1.8S158,353,158,353s-0.2,1.3-1.6,1.2
		s-4.3-1-4.3-1l-3.2-3.2l-0.7-6c0,0-1-3.8-5.6-4.6s-5.5,1.1-5.5,4l0.1,4.8l-1.7,1.8L97.5,343.5z"/>
	<ellipse transform="matrix(0.9846 0.1749 -0.1749 0.9846 58.432 -8.4553)" class="st1" cx="77.2" cy="327.3" rx="1.7" ry="1.4"/>
	
		<ellipse transform="matrix(0.9846 0.1749 -0.1749 0.9846 61.9157 -21.4693)" class="st1" cx="152.8" cy="340.5" rx="1.7" ry="1.4"/>
</g>
<g>
	<line class="st37" x1="91.5" y1="358" x2="89.6" y2="333.5"/>
	<line class="st38" x1="91.5" y1="358" x2="89.6" y2="333.5"/>
</g>
<g>
	<line class="st37" x1="144.7" y1="366.9" x2="143.3" y2="342.4"/>
	<line class="st38" x1="144.7" y1="366.9" x2="143.3" y2="342.4"/>
</g>
<rect x="23" y="302.7" class="st39" width="153.9" height="138"/>
<g>
	<g>
		<g>
			<g>
				<path class="st40" d="M72.9,351.2c-4,0-7.2,3.2-7.2,7.2h1.6c0-3.1,2.5-5.6,5.6-5.6s5.6,2.5,5.6,5.6c0,0.8-0.2,1.5-0.4,2.2l1.3,1
					c0.5-1,0.7-2,0.7-3.2C80.2,354.4,76.9,351.2,72.9,351.2z"/>
			</g>
			<g>
				<path class="st41" d="M72.9,351.2c-4,0-7.2,3.2-7.2,7.2h1.6c0-3.1,2.5-5.6,5.6-5.6s5.6,2.5,5.6,5.6c0,0.8-0.2,1.5-0.4,2.2l1.3,1
					c0.5-1,0.7-2,0.7-3.2C80.2,354.4,76.9,351.2,72.9,351.2z"/>
			</g>
		</g>
		<polygon class="st42" points="81.8,361.8 77,364.2 76.5,358.9 		"/>
	</g>
	<g>
		<g>
			<path class="st40" d="M72.9,351.2c-4,0-7.2,3.2-7.2,7.2h1.6c0-3.1,2.5-5.6,5.6-5.6s5.6,2.5,5.6,5.6c0,0.8-0.2,1.5-0.4,2.2l1.3,1
				c0.5-1,0.7-2,0.7-3.2C80.2,354.4,76.9,351.2,72.9,351.2z"/>
		</g>
	</g>
	<polygon class="st40" points="81.8,361.8 77,364.2 76.5,358.9 	"/>
</g>
<g>
	<g>
		<g>
			<g>
				<g>
					<path class="st40" d="M68.8,410c-4.6,0-8.3,3.7-8.3,8.3h1.9c0-3.6,2.9-6.5,6.5-6.5s6.5,2.9,6.5,6.5c0,0.9-0.2,1.7-0.5,2.5
						l1.5,1.1c0.5-1.1,0.8-2.3,0.8-3.7C77.2,413.7,73.4,410,68.8,410z"/>
				</g>
				<g>
					<path class="st43" d="M68.8,410c-4.6,0-8.3,3.7-8.3,8.3h1.9c0-3.6,2.9-6.5,6.5-6.5s6.5,2.9,6.5,6.5c0,0.9-0.2,1.7-0.5,2.5
						l1.5,1.1c0.5-1.1,0.8-2.3,0.8-3.7C77.2,413.7,73.4,410,68.8,410z"/>
				</g>
			</g>
			<polygon class="st44" points="79,422.2 73.5,425 72.9,418.9 			"/>
		</g>
	</g>
	<g>
		<g>
			<g>
				<path class="st40" d="M68.8,410c-4.6,0-8.3,3.7-8.3,8.3h1.9c0-3.6,2.9-6.5,6.5-6.5s6.5,2.9,6.5,6.5c0,0.9-0.2,1.7-0.5,2.5
					l1.5,1.1c0.5-1.1,0.8-2.3,0.8-3.7C77.2,413.7,73.4,410,68.8,410z"/>
			</g>
		</g>
		<polygon class="st40" points="79,422.2 73.5,425 72.9,418.9 		"/>
	</g>
</g>
<g>
	<circle class="st23" cx="50.8" cy="307.8" r="12.7"/>
	<text transform="matrix(1 0 0 1 45.3527 314.218)" class="st15 st24">3</text>
</g>
<g>
	<g>
		<g>
			<g class="st45">
				
					<rect x="63.3" y="366" transform="matrix(0.9315 0.3638 -0.3638 0.9315 138.1824 2.1368)" class="st19" width="0.2" height="3.7"/>
			</g>
		</g>
		<g>
			<g>
				<g>
					<path class="st40" d="M62.9,366.3l2.4,0.5c0,0,0.1,0.1,0.1,0.1l0,0.2c0,0-0.1,0.1-0.1,0.1l-2.4-0.5c0,0-0.1-0.1-0.1-0.1l0-0.2
						C62.8,366.4,62.9,366.3,62.9,366.3z"/>
				</g>
			</g>
			<g>
				<path class="st40" d="M65.2,367.1l-2.2-0.5c-0.1,0-0.2-0.1-0.2-0.2c0,0,0,0,0,0.1c0,0.1,0,0.2,0.1,0.2L65.2,367.1
					c0.1,0.1,0.1,0,0.2-0.1c0,0,0,0,0,0C65.3,367,65.3,367.1,65.2,367.1z"/>
			</g>
		</g>
		<g>
			<g>
				<g>
					<path class="st40" d="M62.6,367.1l2.4,0.5c0,0,0.1,0.1,0.1,0.1l0,0.2c0,0-0.1,0.1-0.1,0.1l-2.4-0.5c0,0-0.1-0.1-0.1-0.1l0-0.2
						C62.5,367.1,62.6,367.1,62.6,367.1z"/>
				</g>
			</g>
			<g>
				<path class="st40" d="M64.9,367.8l-2.2-0.5c-0.1,0-0.2-0.1-0.2-0.2c0,0,0,0,0,0.1c0,0.1,0,0.2,0.1,0.2L64.9,367.8
					c0.1,0.1,0.1,0,0.2-0.1c0,0,0,0,0,0C65,367.8,65,367.8,64.9,367.8z"/>
			</g>
		</g>
		<g>
			<g>
				<g>
					<path class="st40" d="M62.3,367.9l2.4,0.5c0,0,0.1,0.1,0.1,0.1l0,0.2c0,0-0.1,0.1-0.1,0.1l-2.4-0.5c0,0-0.1-0.1-0.1-0.1l0-0.2
						C62.2,367.9,62.3,367.8,62.3,367.9z"/>
				</g>
			</g>
			<g>
				<path class="st40" d="M64.6,368.6l-2.2-0.5c-0.1,0-0.2-0.1-0.2-0.2c0,0,0,0,0,0.1c0,0.1,0,0.2,0.1,0.2L64.6,368.6
					c0.1,0.1,0.1,0,0.2-0.1c0,0,0,0,0,0C64.7,368.6,64.7,368.6,64.6,368.6z"/>
			</g>
		</g>
		<g>
			<g>
				<g>
					<path class="st40" d="M62,368.6l2.4,0.5c0,0,0.1,0.1,0.1,0.1l0,0.2c0,0-0.1,0.1-0.1,0.1L62,369c0,0-0.1-0.1-0.1-0.1l0-0.2
						C61.9,368.6,62,368.6,62,368.6z"/>
				</g>
			</g>
		</g>
	</g>
	<g>
		<path class="st46" d="M74.5,366.4l-4.8-1.8L68,364l-0.2,0.4l6.5,2.3C74.4,366.7,74.5,366.5,74.5,366.4z"/>
	</g>
	<g>
		<polygon class="st47" points="68.7,368 68.4,368 66.6,369.2 66.8,370.2 		"/>
	</g>
	<g>
		<path class="st46" d="M66,370.7c-0.1,0.2-0.1,0.5-0.2,0.7c3,0.3,7.3-0.3,7.8-1.7l0,0l-4.9-1.8l-2.4,1.9
			C66.2,370.2,66.1,370.4,66,370.7z"/>
	</g>
	<g>
		<polygon class="st46" points="68.1,368.3 67.5,366.6 66.6,369.4 		"/>
	</g>
	<g>
		<path class="st48" d="M66.2,371.4l0.9-2.1l-0.1,0.1L66.2,371.4C66.1,371.4,66.2,371.4,66.2,371.4z"/>
	</g>
	<g>
		<path class="st46" d="M63.1,371.9c0.5,0.3,1.2,0.8,2.1,1.4c0.1,0.1,0.2,0,0.2-0.1l3.1-7.7l1.2-0.9l4.8,1.8v0
			c0.2-0.7-0.6-2.6-2.3-4.2c-1.7-1.6-3.5-1.9-4.2-2c-0.3,0-0.6-0.1-1.1,0c-0.7,0.2-1.2,0.5-1.4,0.7c-1.2,0.9-2.5,1.7-3.7,2.6
			c-1,0.7-2.5,1.4-5.1,1.5c-8-0.3-16-0.6-24-0.9c-1.8,0-3.2,1.4-3.2,3.2c0,1.8,1.4,3.2,3.2,3.2l25.2-1c0.4,0,1,0.1,1.7,0.3
			C60.9,370.2,61.5,370.7,63.1,371.9z M32.7,369c-1,0-1.7-0.8-1.7-1.8s0.8-1.7,1.8-1.7c1,0,1.7,0.8,1.7,1.8
			C34.5,368.3,33.7,369,32.7,369z M64,369.9l-1.9-0.8c-0.3-0.1-0.4-0.4-0.3-0.7l0.9-2.3c0.1-0.3,0.4-0.4,0.7-0.3l1.9,0.8
			c0.3,0.1,0.4,0.4,0.3,0.7l-0.9,2.2C64.6,369.9,64.3,370,64,369.9z"/>
	</g>
	<g class="st45">
		<path class="st19" d="M64.7,369.8c-0.1,0.1-0.3,0.2-0.4,0.2c-0.1,0-0.2,0-0.3-0.1l-2-0.8c-0.3-0.1-0.4-0.4-0.3-0.7l0.9-2.3
			c0.1-0.3,0.3-0.4,0.5-0.4c0,0-0.2,0.1-0.3,0.1c-0.1,0-0.2,0.2-0.3,0.3l-0.9,2.4c-0.1,0.3,0,0.6,0.3,0.7l2,0.8
			C64.2,370.1,64.6,370.1,64.7,369.8z"/>
	</g>
	<g class="st45">
		<path class="st40" d="M64.9,369.6l0.9-2.3c0.1-0.3,0-0.6-0.3-0.7l-2-0.9c-0.3-0.1-0.6,0-0.7,0.3c0.1-0.2,0.4-0.3,0.6-0.2l1.9,0.8
			c0.3,0.1,0.4,0.4,0.3,0.7l-0.9,2.2c-0.1,0.2-0.3,0.4-0.6,0.3c0,0,0,0-0.1,0l0,0c0,0,0,0,0,0C64.4,370.1,64.8,369.9,64.9,369.6z"/>
	</g>
	<g class="st45">
		<g>
			<path class="st19" d="M32.8,364.4c8,0.3,16,0.6,24,0.9c2.5-0.1,4.1-0.8,5.1-1.5c1.2-0.9,2.5-1.7,3.7-2.6c0.2-0.1,0.7-0.5,1.4-0.7
				c0.4-0.1,0.8-0.1,1.1,0c0.7,0.1,2.5,0.4,4.2,2c1.5,1.4,2.3,3,2.3,3.8c0.1-0.8-0.6-2.5-2.3-4.1c-1.7-1.6-3.5-1.9-4.2-2
				c-0.3,0-0.6-0.1-1.1,0c-0.7,0.2-1.2,0.5-1.4,0.7c-1.2,0.9-2.5,1.7-3.7,2.6c-1,0.7-2.5,1.4-5.1,1.5c-8-0.3-16-0.6-24-0.9
				c-1.8,0-3.2,1.4-3.2,3.2c0,0,0,0,0,0C29.8,365.7,31.1,364.4,32.8,364.4z"/>
		</g>
	</g>
	<g class="st49">
		<g>
			<path class="st19" d="M74.4,365.5C74.5,365.5,74.5,365.5,74.4,365.5C74.5,365.5,74.5,365.5,74.4,365.5z"/>
		</g>
		<g>
			<path class="st19" d="M74.4,365.3C74.4,365.3,74.4,365.3,74.4,365.3C74.4,365.3,74.4,365.3,74.4,365.3z"/>
		</g>
		<g>
			<path class="st19" d="M74.4,365.4C74.4,365.4,74.4,365.4,74.4,365.4C74.4,365.4,74.4,365.4,74.4,365.4z"/>
		</g>
		<g>
			<path class="st19" d="M74.1,364.7C74.2,364.8,74.2,364.8,74.1,364.7C74.2,364.8,74.2,364.8,74.1,364.7z"/>
		</g>
		<g>
			<path class="st19" d="M74.3,365C74.3,365,74.3,365,74.3,365C74.3,365,74.3,365,74.3,365z"/>
		</g>
		<g>
			<path class="st19" d="M74.2,364.9C74.2,364.9,74.2,364.9,74.2,364.9C74.2,364.9,74.2,364.9,74.2,364.9z"/>
		</g>
		<g>
			<path class="st19" d="M74.5,365.7C74.5,365.7,74.5,365.8,74.5,365.7C74.5,365.8,74.5,365.7,74.5,365.7z"/>
		</g>
		<g>
			<path class="st19" d="M74.6,366C74.6,366,74.6,366.1,74.6,366C74.6,366.1,74.6,366,74.6,366z"/>
		</g>
		<g>
			<path class="st19" d="M72.8,362.7C72.7,362.7,72.7,362.7,72.8,362.7C72.7,362.7,72.7,362.7,72.8,362.7z"/>
		</g>
		<g>
			<path class="st19" d="M74.6,366.2C74.6,366.1,74.6,366.1,74.6,366.2C74.6,366.1,74.6,366.1,74.6,366.2z"/>
		</g>
		<g>
			<path class="st19" d="M74.5,365.8C74.5,365.8,74.5,365.9,74.5,365.8C74.5,365.9,74.5,365.8,74.5,365.8z"/>
		</g>
		<g>
			<path class="st19" d="M74.1,364.6C74.1,364.6,74.1,364.6,74.1,364.6C74.1,364.6,74.1,364.6,74.1,364.6z"/>
		</g>
		<g>
			<path class="st19" d="M74.5,365.9C74.5,365.9,74.5,366,74.5,365.9C74.5,366,74.5,365.9,74.5,365.9z"/>
		</g>
		<g>
			<path class="st19" d="M74.5,365.6C74.5,365.6,74.5,365.6,74.5,365.6C74.5,365.6,74.5,365.6,74.5,365.6z"/>
		</g>
		<g>
			<path class="st19" d="M74.3,365.1C74.3,365.1,74.3,365.2,74.3,365.1C74.3,365.2,74.3,365.1,74.3,365.1z"/>
		</g>
		<g>
			<path class="st19" d="M73,363C73,363,73,363,73,363C73,363,73,363,73,363z"/>
		</g>
		<g>
			<path class="st19" d="M73.1,363.1C73.1,363.1,73.1,363.2,73.1,363.1C73.1,363.2,73.1,363.1,73.1,363.1z"/>
		</g>
		<g>
			<path class="st19" d="M72.8,362.8C72.9,362.8,72.9,362.9,72.8,362.8C72.9,362.9,72.9,362.8,72.8,362.8z"/>
		</g>
		<g>
			<path class="st19" d="M72.4,362.4C72.4,362.4,72.4,362.4,72.4,362.4C72.4,362.4,72.4,362.4,72.4,362.4z"/>
		</g>
		<g>
			<path class="st19" d="M32.8,364.6c8,0.3,16,0.6,24,0.9c2.5-0.1,4.1-0.8,5.1-1.5c1.2-0.9,2.5-1.7,3.7-2.6c0.2-0.1,0.7-0.5,1.4-0.7
				c0.4-0.1,0.8-0.1,1.1,0c0.7,0.1,2.5,0.4,4.2,2c1.4,1.3,2.2,2.8,2.3,3.7l0,0v0c0-0.1,0-0.1,0-0.2c0,0,0,0.1,0,0.1
				c-0.1-0.9-0.8-2.4-2.3-3.8c-1.7-1.6-3.5-1.9-4.2-2c-0.3,0-0.6-0.1-1.1,0c-0.7,0.2-1.2,0.5-1.4,0.7c-1.2,0.9-2.5,1.7-3.7,2.6
				c-1,0.7-2.5,1.4-5.1,1.5c-8-0.3-16-0.6-24-0.9c-1.7,0-3.1,1.3-3.2,3c0,0,0,0.1,0,0.1C29.8,365.8,31.2,364.6,32.8,364.6z"/>
		</g>
		<g>
			<path class="st19" d="M74,364.5C74,364.5,74,364.5,74,364.5C74,364.5,74,364.5,74,364.5z"/>
		</g>
		<g>
			<path class="st19" d="M73.2,363.3C73.2,363.3,73.3,363.3,73.2,363.3C73.3,363.3,73.2,363.3,73.2,363.3z"/>
		</g>
		<g>
			<path class="st19" d="M72.5,362.5C72.6,362.5,72.6,362.5,72.5,362.5C72.6,362.5,72.6,362.5,72.5,362.5z"/>
		</g>
		<g>
			<path class="st19" d="M73.8,364C73.8,364,73.8,364.1,73.8,364C73.8,364.1,73.8,364,73.8,364z"/>
		</g>
		<g>
			<path class="st19" d="M73.8,364.2C73.9,364.2,73.9,364.2,73.8,364.2C73.9,364.2,73.9,364.2,73.8,364.2z"/>
		</g>
		<g>
			<path class="st19" d="M73.9,364.3C73.9,364.3,74,364.4,73.9,364.3C74,364.4,73.9,364.3,73.9,364.3z"/>
		</g>
		<g>
			<path class="st19" d="M73.7,363.9C73.7,363.9,73.7,363.9,73.7,363.9C73.7,363.9,73.7,363.9,73.7,363.9z"/>
		</g>
		<g>
			<path class="st19" d="M73.4,363.6C73.5,363.6,73.5,363.6,73.4,363.6C73.5,363.6,73.5,363.6,73.4,363.6z"/>
		</g>
		<g>
			<path class="st19" d="M73.3,363.4C73.4,363.4,73.4,363.5,73.3,363.4C73.4,363.5,73.4,363.4,73.3,363.4z"/>
		</g>
		<g>
			<path class="st19" d="M73.6,363.7C73.6,363.7,73.6,363.8,73.6,363.7C73.6,363.8,73.6,363.7,73.6,363.7z"/>
		</g>
	</g>
	<g>
		<path class="st46" d="M36.2,365.3c-0.3,0-0.6,0.3-0.4,0.7c0.2,0.5,0.4,1,0.3,1.5c0,0.5-0.1,0.9-0.3,1.3c-0.2,0.3,0.1,0.7,0.4,0.6
			l19.5-0.8c0.7,0,1.2-0.6,1.3-1.3l0,0c0-0.7-0.5-1.3-1.3-1.3L36.2,365.3z"/>
	</g>
	<g class="st50">
		<g>
			<path class="st19" d="M36.2,369.5l19.5-0.8c0.7,0,1.2-0.6,1.3-1.3l0,0c0,0,0-0.1,0-0.1c-0.1,0.6-0.6,1.1-1.2,1.2l-19.5,0.8
				c-0.2,0-0.4-0.2-0.5-0.4C35.7,369.2,35.9,369.5,36.2,369.5z"/>
		</g>
		<g>
			<path class="st19" d="M36.1,367.3c0-0.6-0.1-1.1-0.3-1.5c0,0,0-0.1,0-0.1c0,0.1,0,0.2,0,0.3c0.2,0.4,0.3,0.9,0.3,1.4
				C36.1,367.3,36.1,367.3,36.1,367.3z"/>
		</g>
	</g>
	<g class="st45">
		<g>
			<path class="st40" d="M36.2,365.5l19.5,0.7c0.7,0,1.2,0.6,1.3,1.2c0,0,0-0.1,0-0.1l0,0c0-0.7-0.5-1.3-1.3-1.3l-19.5-0.7
				c-0.3,0-0.5,0.3-0.4,0.5C35.8,365.6,35.9,365.5,36.2,365.5z"/>
		</g>
		<g>
			<path class="st40" d="M35.8,369c0.2-0.4,0.3-0.9,0.3-1.3c0,0,0-0.1,0-0.1c0,0.4-0.1,0.9-0.3,1.2C35.7,368.9,35.7,369,35.8,369
				C35.7,369.1,35.8,369,35.8,369z"/>
		</g>
	</g>
	<g>
		<g class="st45">
			<path class="st19" d="M34.5,367.5c0,0,0-0.2,0-0.2c-0.1,0.9-0.8,1.7-1.8,1.7c-0.9,0-1.7-0.8-1.7-1.7c0,0,0,0.1,0,0.2
				c0,1,0.7,1.7,1.7,1.7C33.7,369.2,34.5,368.5,34.5,367.5z"/>
		</g>
		<g class="st45">
			<path class="st40" d="M32.8,365.6c0.9,0,1.7,0.8,1.7,1.8c0,0,0-0.1,0-0.1c0-1-0.7-1.8-1.7-1.8c-1,0-1.8,0.7-1.8,1.7
				c0,0,0,0.1,0,0.2C31.1,366.3,31.9,365.5,32.8,365.6z"/>
		</g>
		<g class="st45">
			<path class="st19" d="M34.6,367.5c0-0.6-0.2-1.1-0.7-1.5c0.4,0.3,0.6,0.8,0.6,1.3c0,1-0.8,1.7-1.8,1.7c-1,0-1.7-0.8-1.7-1.8
				c0-0.5,0.3-1,0.6-1.3c-0.4,0.3-0.7,0.8-0.7,1.4c0,1,0.8,1.9,1.8,1.9C33.7,369.3,34.6,368.5,34.6,367.5z"/>
		</g>
		<g class="st45">
			<path class="st40" d="M31.5,368.5c-0.3-0.3-0.5-0.8-0.5-1.3c0-1,0.8-1.7,1.8-1.7c1,0,1.7,0.8,1.7,1.8c0,0.5-0.2,0.9-0.6,1.2
				c0.4-0.3,0.7-0.8,0.7-1.4c0-1-0.8-1.9-1.8-1.9s-1.9,0.8-1.9,1.8C30.9,367.6,31.2,368.2,31.5,368.5z"/>
		</g>
	</g>
</g>
</svg>
