<?xml version="1.0" encoding="utf-8"?>
<!-- Generator: Adobe Illustrator 19.1.0, SVG Export Plug-In . SVG Version: 6.00 Build 0)  -->
<svg version="1.1" xmlns="http://www.w3.org/2000/svg" xmlns:xlink="http://www.w3.org/1999/xlink" x="0px" y="0px" width="288px"
	 height="360px" viewBox="0 0 288 360" style="enable-background:new 0 0 288 360;" xml:space="preserve">
<style type="text/css">
	.st0{fill:#D1D3D4;}
	.st1{fill:none;stroke:#000000;stroke-width:0.5;stroke-miterlimit:10;}
	.st2{fill:none;stroke:#000000;stroke-width:0.5;stroke-linecap:round;stroke-linejoin:round;stroke-miterlimit:10;}
	.st3{fill:none;stroke:#000000;stroke-width:0.5155;stroke-linecap:round;stroke-linejoin:round;stroke-miterlimit:10;}
	.st4{fill:none;stroke:#000000;stroke-width:0.3992;stroke-linecap:round;stroke-linejoin:round;stroke-miterlimit:10;}
	.st5{fill:#FFFFFF;stroke:#000000;stroke-width:0.5;stroke-linecap:round;stroke-linejoin:round;stroke-miterlimit:10;}
	.st6{fill:none;stroke:#000000;stroke-width:0.3764;stroke-linecap:round;stroke-linejoin:round;stroke-miterlimit:10;}
	.st7{fill:none;stroke:#000000;stroke-width:0.273;stroke-linecap:round;stroke-linejoin:round;stroke-miterlimit:10;}
	.st8{fill:none;stroke:#000000;stroke-width:1.25;stroke-linecap:round;stroke-linejoin:round;stroke-miterlimit:10;}
	.st9{fill:none;stroke:#000000;stroke-width:1.125;stroke-linecap:round;stroke-linejoin:round;stroke-miterlimit:10;}
	.st10{fill:none;stroke:#000000;stroke-width:0.25;stroke-linecap:round;stroke-linejoin:round;stroke-miterlimit:10;}
	.st11{fill:none;stroke:#000000;stroke-width:0.4338;stroke-linecap:round;stroke-linejoin:round;stroke-miterlimit:10;}
	.st12{fill:none;stroke:#000000;stroke-width:0.3709;stroke-linecap:round;stroke-linejoin:round;stroke-miterlimit:10;}
	.st13{fill:none;stroke:#000000;stroke-width:0.3819;stroke-linecap:round;stroke-linejoin:round;stroke-miterlimit:10;}
	.st14{fill:none;stroke:#000000;stroke-width:0.3598;stroke-linecap:round;stroke-linejoin:round;stroke-miterlimit:10;}
	.st15{clip-path:url(#SVGID_2_);}
	.st16{fill:#FFFFFF;stroke:#000000;stroke-width:0.2773;stroke-linecap:round;stroke-linejoin:round;stroke-miterlimit:10;}
	.st17{fill:#FFFFFF;stroke:#000000;stroke-width:0.3263;stroke-linecap:round;stroke-linejoin:round;stroke-miterlimit:10;}
	.st18{fill:#FFFFFF;stroke:#000000;stroke-width:0.2743;stroke-linecap:round;stroke-linejoin:round;stroke-miterlimit:10;}
	.st19{fill:none;stroke:#000000;stroke-width:0.3263;stroke-linecap:round;stroke-linejoin:round;stroke-miterlimit:10;}
	.st20{fill:none;stroke:#000000;stroke-width:0.2832;stroke-linecap:round;stroke-linejoin:round;stroke-miterlimit:10;}
	.st21{fill:none;stroke:#000000;stroke-width:0.2743;stroke-linecap:round;stroke-linejoin:round;stroke-miterlimit:10;}
	.st22{fill:#FFFFFF;stroke:#000000;stroke-width:0.35;stroke-linecap:round;stroke-linejoin:round;stroke-miterlimit:10;}
	.st23{fill:none;stroke:#000000;stroke-width:0.5;stroke-linecap:round;stroke-linejoin:round;}
	.st24{fill:none;stroke:#000000;stroke-linecap:round;stroke-linejoin:round;}
	.st25{fill:none;stroke:#000000;stroke-linejoin:round;}
	.st26{fill:none;stroke:#FFFFFF;stroke-width:2.6305;stroke-linecap:round;stroke-linejoin:round;}
	.st27{fill:#FFFFFF;stroke:#000000;stroke-width:0.6576;stroke-linecap:round;stroke-linejoin:round;}
	.st28{fill:#FFFFFF;stroke:#FFFFFF;stroke-width:0.2961;}
	.st29{fill:#FFFFFF;stroke:#FFFFFF;}
</style>
<g id="GRAY">
	<polygon class="st0" points="85.8,242.1 89.8,242.4 91.5,239.4 92.3,243 96,243.2 97.9,240.2 98.1,243.6 102.1,243.8 103.8,241 
		104.7,244.9 108.3,245 124.4,213.5 124.2,205.9 129.3,195.5 129,185.6 124.4,184.8 123.1,187.1 122.3,184.6 118.2,183.8 117,186.2 
		116.5,184 111.9,183.3 111,185.4 110.4,183.4 106.1,182.6 86.4,221.4 86.4,230.4 85.8,230.4 84.6,233.4 84.4,236.8 85.6,239.3 	"/>
</g>
<g id="Base_UNIT">
	<path class="st1" d="M215.2,152.3l22.5-116.7l-5.4-0.4l2.5-14.6l-1-1.3l-12.3-1.7c-2.3,0-6.3-1-6.5-4.8c-0.2-3.8-4.4-4.6-4.4-4.6
		l-26.3-3.1c-4.8-1.3-7.9,2.3-7.9,2.3c-2.5,4.8-5.8,4-5.8,4l-53.4-6.7L91.2,133.4l1.1,1.3l16.4,1.7l-1.1,9l2.7,1.9L210.9,160
		L215.2,152.3z"/>
	<path class="st2" d="M210.9,160c0,0-48.7,97.1-51,103.8c-2.3,6.7-5.9,5.4-5.9,5.4l-10.3-1.3l-1.7,4.2l78.8,9.7c0,0,6.7-13,9.2-17.4
		c2.5-4.4,0.6-3.6-3.1-6.1c-3.6-2.5-1.5-1.9-0.4-5.5c1.1-3.6,4.2-4.6,4.2-4.6s1.7,0,4.8-0.2c3.1-0.2,4.4-4.2,4.4-4.2
		s9.9-19.1,13-26.4c3.1-7.3,3.8-5.7-0.2-8.6s-3.1-0.6-1.1-5.7s4.6-4.8,4.6-4.8c8-0.2,7.6-2.5,7.6-2.5l6.8-14.3l3.2,0.4l-0.5,31.8
		l-50.3,100c0,0,0.2-16.8,0-19.7c-0.2-2.9-0.8-4.4-0.8-4.4c0.2-2.9-0.8-4.2-0.8-4.2l-195-24.9l-2.7,4.7l-0.1,0.2l0.1,11.7"/>
	<polyline class="st2" points="215.7,151.6 217,149.3 275.9,156.8 275.9,158.1 280.3,158.3 280.5,159.6 283.5,160.6 283.3,170 
		284.3,171.3 284.3,187.5 283.9,189.1 273.6,211.1 	"/>
	<path class="st2" d="M221,163.8c0,0,1-4.4,8-3.6s31.4,4,31.4,4s6.9-0.6,4.8,4.2s-4,6.7-4,6.7s0,1.3,2.1,3.1s2.5,0.6,1,3.8
		s-5.5,1.9-5.5,1.9l-2.1,0.4l-42.2,85.8c0,0-1.7,4.4-8.6,2.9c-6.9-1.5-31.7-3.8-31.7-3.8s-5.7-0.6-3.1-5.4
		C173.6,259,221,163.8,221,163.8z"/>
	<line class="st1" x1="254.6" y1="209.3" x2="260" y2="197.5"/>
	<line class="st1" x1="229" y1="259.4" x2="235.3" y2="247.9"/>
	<polyline class="st2" points="275.8,157.6 273.2,162.4 273.9,180.8 	"/>
	<path class="st2" d="M283.3,160.8l-1.5,3.3c0,0-0.1,0.8-1.8,0.5c-1.6-0.3-1.5,1.4-1.6,2.6s0.1,11.8,0.1,11.8l1.2,4.6l1.9,0.6
		l-7.8,15.8"/>
	<polyline class="st2" points="272.5,181.2 273,180.7 276.7,181.3 	"/>
	
		<ellipse transform="matrix(0.9965 8.363634e-02 -8.363634e-02 0.9965 16.4291 -22.4537)" class="st3" cx="276.2" cy="184.9" rx="0.8" ry="3.7"/>
	<line class="st3" x1="275.7" y1="188.5" x2="273.9" y2="188.2"/>
	<polyline class="st3" points="271.3,180.4 271,172.5 266.9,180.3 269.7,180.7 270.2,181.5 	"/>
	<ellipse class="st3" cx="223.5" cy="153" rx="2.2" ry="1.2"/>
	<ellipse class="st3" cx="269" cy="159.1" rx="2.2" ry="1.2"/>
	<ellipse class="st3" cx="277.4" cy="160.6" rx="2.2" ry="1.2"/>
	<path class="st2" d="M29.7,269.2l185.4,22.9l0-2.7l3.4,0.4c0,0,2-0.3,1.4,4l-0.3,25.1c0,0-0.1,3.6-2.7,0"/>
	<polyline class="st2" points="23.7,265.3 26.8,265.5 26.6,268.8 27.7,268.9 	"/>
	<line class="st2" x1="29.5" y1="290.9" x2="207.4" y2="313.1"/>
	<polygon class="st2" points="64.1,292.2 37.3,288.8 37.3,282.5 64.1,286 	"/>
	<polygon class="st2" points="75.4,293.3 66.4,292.2 66.4,278.6 75.4,279.8 	"/>
	<polygon class="st2" points="87.1,294.7 78,293.5 78,280 87.1,281.1 	"/>
	<polygon class="st2" points="98.8,296 89.7,294.9 89.7,281.3 98.8,282.5 	"/>
	<polygon class="st2" points="111.9,297.4 101.5,296.2 101.5,281.9 111.9,283.1 	"/>
	<polygon class="st2" points="123.9,299 113.8,297.7 113.8,289.9 123.9,291.2 	"/>
	<polygon class="st2" points="136.3,300.4 125.4,299.1 125.4,287.3 136.3,288.7 	"/>
	<line class="st4" x1="44.1" y1="283.6" x2="44.1" y2="289.5"/>
	<line class="st4" x1="50.7" y1="284.3" x2="50.7" y2="290.6"/>
	<line class="st4" x1="57.4" y1="285.2" x2="57.4" y2="291.1"/>
	<line class="st4" x1="31.9" y1="269.8" x2="32" y2="291.2"/>
	<line class="st4" x1="153.8" y1="284.6" x2="153.7" y2="305.9"/>
	<path class="st5" d="M143,287.7c-0.2,1.7-1.9,2.8-3.8,2.5c-1.9-0.3-3.3-2-3.1-3.7c0.2-1.7,1.9-2.8,3.8-2.5
		C141.8,284.3,143.2,286,143,287.7z"/>
	<path class="st5" d="M142.2,289.4c-0.2,1.7-1.9,2.8-3.8,2.5c-1.9-0.3-3.3-2-3.1-3.7c0.2-1.7,1.9-2.8,3.8-2.5
		C141,286,142.4,287.7,142.2,289.4z"/>
	<polyline class="st6" points="156.4,285.1 156.5,297.4 153.9,302.9 207.7,309.4 	"/>
	<line class="st6" x1="156.9" y1="287.8" x2="215.1" y2="295.1"/>
	<line class="st6" x1="156.7" y1="295.5" x2="211.3" y2="302.3"/>
	<path class="st6" d="M156.8,306.4c0,0,0-2.4,2-2.1s48.7,6.2,48.7,6.2"/>
	<path class="st7" d="M209.4,301.1l-48.8-6c-0.7,0-1.2-0.5-1.2-1.1l0-3.6c0-0.6,0.6-1.1,1.2-1.1l48.8,6c0.7,0,1.2,0.5,1.2,1.1l0,3.6
		C210.6,300.6,210.1,301.1,209.4,301.1z"/>
	<path class="st2" d="M220.6,281.8l2.4,0.4c0,0,1.8,0.2,0.4,1.2l-2.1-0.2l-0.8,1.7"/>
	<polyline class="st2" points="153.8,269.2 153.7,262.3 153.7,262.3 179.4,211.2 184.9,211.9 	"/>
	<line class="st2" x1="159.9" y1="263.4" x2="153.7" y2="262.6"/>
	<polygon class="st2" points="124.2,205.8 130.4,193.1 138.7,194.1 140.3,191.2 156.5,193.1 155,196 163.2,197.2 157,210.2 
		148.6,209 146.9,212.1 130.7,210.1 132.2,207 	"/>
	<polyline class="st2" points="114.4,264.1 120,253.5 122.9,253.9 124.5,251.4 138.4,253.2 138.7,263.5 	"/>
	<polyline class="st2" points="84,260.2 83.9,256.4 89.3,245.7 92.5,246.1 94,243.5 107.8,245.3 107.8,256.1 104.4,262.5 	"/>
	<polyline class="st2" points="106.2,262.8 109.1,257.8 109,255.5 108.1,255.4 	"/>
	<line class="st2" x1="138.4" y1="263.5" x2="136.9" y2="266.4"/>
	<polyline class="st2" points="138.5,266.9 139.6,264.6 139.9,262.7 139.1,262.5 	"/>
	<polyline class="st2" points="67.7,257.9 67.3,248.8 53.2,246.9 51.5,250 48.5,249.7 45.7,254.7 	"/>
	<line class="st2" x1="49" y1="249.3" x2="58.1" y2="231.2"/>
	<path class="st2" d="M32,260.8l-0.2-2.5l2.4-4.6l101.2,13.2l0.4-0.5l3.9,0.6l-1.1,2.2c0,0,3.2-0.1,3.2,2.9"/>
	<path class="st2" d="M27.2,260.5c0,0,0.1-1.5,1.1-3.5c1.1-2,24-47.9,24-47.9l1-0.2l0.4-0.7l2.1,0.4"/>
	<path class="st2" d="M35.1,253.9l20.8-41.8c0,0,0.7-1.1-0.3-2.9c0,0-1.2-2.4,0-5.3c0,0-1.4-0.7-0.7-2.3c0.8-1.6,1.7-3.7,1.7-3.7
		s0.4-0.5,2.1-0.9s0.9-1.2,0.9-1.8c0-0.6,1.2-2.7,1.2-2.7s0.5-0.6,1.1-0.3c0.7,0.3-0.3-0.5,0.3-2.1c0.6-1.6,4-8.2,4-8.2"/>
	<path class="st2" d="M71.4,174.4c0,0-0.4-2.3,0.8-4.1c1.1-1.8,5.8-11.5,5.8-11.5l-0.3-2.9l2.6-5.3c0,0,1.7,0.4,2.9-1.9"/>
	<path class="st2" d="M84.9,148c0,0-0.3-2.8,0.8-4.7c1.1-1.9,3.2-7,3.2-7s0.2-1.1,2.5-0.9l1-0.3"/>
	<ellipse class="st2" cx="102.6" cy="138.7" rx="2.2" ry="1"/>
	<ellipse class="st2" cx="94.2" cy="137.1" rx="2.2" ry="1"/>
	<line class="st2" x1="108.4" y1="157.6" x2="205.8" y2="169.8"/>
	<polygon class="st2" points="108.8,158.5 106.3,163.5 112,164.3 114.7,159.2 	"/>
	<polyline class="st2" points="106.3,163.5 105.7,172.1 111.8,172.9 112,164.3 	"/>
	<polyline class="st2" points="106.2,172.4 106.2,174.2 111.6,175 114.8,168.6 115.8,169 117,166.5 116.8,158.9 	"/>
	<line class="st2" x1="111.6" y1="172.7" x2="111.6" y2="175"/>
	<line class="st2" x1="135.4" y1="282.5" x2="135.4" y2="287.8"/>
	<polyline class="st2" points="142.2,289.9 147.3,290.4 147.4,283.6 	"/>
	<polyline class="st8" points="182.6,210.9 156.5,263 156.5,268.2 	"/>
	<polyline class="st9" points="108.2,182.7 88.4,222 88.4,230.4 	"/>
	<polyline class="st9" points="114.6,183 94.8,222.3 94.8,230.6 	"/>
	<polyline class="st9" points="120.6,183.9 100.8,223.3 100.8,231.6 	"/>
	<polyline class="st9" points="126.7,184.8 106.9,224.1 106.9,232.5 	"/>
	<line class="st2" x1="115.8" y1="169" x2="139.1" y2="171.9"/>
	<path class="st2" d="M139.7,170l-17.9-2.3c0,0-3.2,0.2-3.3,1.4"/>
	<line class="st2" x1="124.2" y1="205.8" x2="124.6" y2="226.2"/>
	<line class="st2" x1="130.7" y1="210.1" x2="131.2" y2="229.9"/>
	<line class="st2" x1="146.9" y1="212.1" x2="147.2" y2="231.7"/>
	<line class="st2" x1="149.1" y1="209.2" x2="149.2" y2="223.3"/>
	<line class="st2" x1="157" y1="210.2" x2="156.8" y2="228.3"/>
	<line class="st2" x1="163.2" y1="197.2" x2="163.7" y2="215.5"/>
	<polyline class="st2" points="124.3,224 122.3,228.6 154.3,233.2 165.3,213.5 163.7,213.1 	"/>
	<polyline class="st2" points="165.3,213.5 165.7,215 154.5,234.8 122.1,230.3 122.3,228.6 	"/>
	<polyline class="st2" points="139.3,266.6 143.2,258.6 150.2,259.7 151.4,257 155.5,257.7 	"/>
	<polyline class="st2" points="189.9,200.8 177.8,198.9 176.9,200.7 171.2,213 	"/>
	<line class="st2" x1="189.4" y1="202.6" x2="176.9" y2="200.8"/>
	<polyline class="st2" points="156.1,237.3 161,227.9 170.2,228.9 	"/>
	<polyline class="st2" points="173.3,215.7 173.9,213.7 169,213 168.2,215.3 176.3,216.4 	"/>
	<polyline class="st2" points="173.9,221.4 168.4,220.7 168.2,215.3 	"/>
	<g>
		<polygon class="st2" points="89.4,230.9 85.7,230.5 84.4,233.3 84.3,236.6 85.7,239.5 85.9,242.2 89.7,242.6 89.4,239.8 88,237.5 
			88.2,233.9 		"/>
		<line class="st2" x1="85" y1="233.5" x2="88.2" y2="233.9"/>
		<line class="st2" x1="84.6" y1="237.1" x2="87.7" y2="237.5"/>
		<line class="st2" x1="85.7" y1="239.2" x2="88.9" y2="239.6"/>
	</g>
	<polyline class="st2" points="89.4,230.9 89.6,238.5 91.2,239.6 89.7,242.6 	"/>
	<line class="st2" x1="89.4" y1="239.8" x2="89.6" y2="238.5"/>
	<g>
		<polygon class="st2" points="95.7,231.6 92,231.2 90.7,234 90.6,237.3 92,240.2 92.2,242.9 96,243.4 95.7,240.5 94.3,238.2 
			94.5,234.6 		"/>
		<line class="st2" x1="91.3" y1="234.2" x2="94.5" y2="234.6"/>
		<line class="st2" x1="90.9" y1="237.8" x2="94" y2="238.2"/>
		<line class="st2" x1="92" y1="239.9" x2="95.2" y2="240.3"/>
	</g>
	<polyline class="st2" points="95.7,231.6 95.9,239.2 97.5,240.3 96,243.4 	"/>
	<g>
		<polygon class="st2" points="101.8,232.3 98,231.9 96.8,234.8 96.6,238.1 98,240.9 98.2,243.6 102.1,244.1 101.8,241.2 
			100.3,238.9 100.5,235.3 		"/>
		<line class="st2" x1="97.3" y1="234.9" x2="100.5" y2="235.3"/>
		<line class="st2" x1="96.9" y1="238.5" x2="100" y2="238.9"/>
		<line class="st2" x1="98" y1="240.6" x2="101.2" y2="241.1"/>
	</g>
	<polyline class="st2" points="101.8,232.3 101.9,239.9 103.5,241.1 102.1,244.1 	"/>
	<g>
		<polygon class="st2" points="108.1,233.2 104.4,232.7 103.1,235.6 102.9,238.9 104.4,241.8 104.5,244.5 108.4,244.9 108.1,242.1 
			106.6,239.8 106.8,236.2 		"/>
		<line class="st2" x1="103.6" y1="235.8" x2="106.8" y2="236.2"/>
		<line class="st2" x1="103.2" y1="239.3" x2="106.4" y2="239.8"/>
		<line class="st2" x1="104.4" y1="241.5" x2="107.5" y2="241.9"/>
	</g>
	<polyline class="st2" points="108.1,233.2 108.2,240.8 109.8,241.9 108.4,244.9 	"/>
	<line class="st2" x1="95.7" y1="240.2" x2="95.9" y2="238.9"/>
	<line class="st2" x1="86.3" y1="229" x2="90.7" y2="229.5"/>
	<g>
		<polyline class="st2" points="86.4,229.9 86.3,221.4 105.9,182.6 110.5,183.1 110.7,185.3 		"/>
		<polyline class="st2" points="91,232.6 90.7,222 110.2,183.9 		"/>
		<line class="st2" x1="86.3" y1="221.6" x2="90.7" y2="222"/>
		<line class="st2" x1="86.4" y1="229.2" x2="90.9" y2="229.6"/>
	</g>
	<g>
		<polyline class="st2" points="92.5,230.6 92.3,222.1 111.9,183.3 116.5,183.9 116.7,186 		"/>
		<polyline class="st2" points="97,233.3 96.8,222.7 116.3,184.6 		"/>
		<line class="st2" x1="92.3" y1="222.3" x2="96.8" y2="222.7"/>
		<line class="st2" x1="92.5" y1="229.9" x2="96.9" y2="230.3"/>
	</g>
	<g>
		<polyline class="st2" points="98.5,231.2 98.3,222.7 118,183.9 122.6,184.4 122.7,186.6 		"/>
		<polyline class="st2" points="103.1,233.9 102.8,223.3 122.3,185.2 		"/>
		<line class="st2" x1="98.3" y1="222.9" x2="102.8" y2="223.3"/>
		<line class="st2" x1="98.5" y1="230.5" x2="102.9" y2="230.9"/>
	</g>
	<g>
		<polyline class="st2" points="104.8,232.2 104.6,223.7 124.3,184.9 128.9,185.4 129.2,194.8 		"/>
		<polyline class="st2" points="128.6,186.2 109.1,224.3 109.2,239.2 124.1,210.1 		"/>
		<line class="st2" x1="104.6" y1="223.9" x2="109.1" y2="224.3"/>
		<line class="st2" x1="104.8" y1="231.5" x2="109.2" y2="231.9"/>
	</g>
	<line class="st2" x1="109.8" y1="241.9" x2="124.1" y2="213.4"/>
	<g>
		<g>
			<path class="st5" d="M125.3,221.8l0,1.7c0,0,0.4,1.1,2.5,1.1c0,0,1.7,0,2.1-1.2v-1.9"/>
			<ellipse class="st5" cx="127.7" cy="221.7" rx="2.3" ry="1.2"/>
			<ellipse class="st5" cx="155" cy="245.9" rx="3.4" ry="1.8"/>
		</g>
		<g>
			<g>
				<path class="st2" d="M125.9,224.1c0,0-1.2,1.1,1.4,1.3c0,0,1.3,0.1,2-0.6"/>
				<path class="st2" d="M125.9,225.2c0,0-1.2,1.1,1.4,1.3c0,0,1.3,0.1,2-0.6"/>
				<path class="st2" d="M125.9,226.3c0,0-1.2,1.1,1.4,1.3c0,0,1.3,0.1,2-0.6"/>
				<path class="st2" d="M125.9,227.4c0,0-1.2,1.1,1.4,1.3c0,0,1.3,0.1,2-0.6"/>
			</g>
			<line class="st10" x1="126.2" y1="224.3" x2="126.4" y2="228.9"/>
			<line class="st10" x1="129.3" y1="224.3" x2="129.4" y2="228.4"/>
		</g>
	</g>
	<g>
		<g>
			<path class="st5" d="M148.6,224.7l0,1.7c0,0,0.4,1.1,2.5,1.1c0,0,1.7,0,2.1-1.2v-1.9"/>
			<ellipse class="st5" cx="150.9" cy="224.5" rx="2.3" ry="1.2"/>
		</g>
		<g>
			<g>
				<path class="st2" d="M149.1,227c0,0-1.2,1.1,1.4,1.3c0,0,1.3,0.1,2-0.6"/>
				<path class="st2" d="M149.1,228.1c0,0-1.2,1.1,1.4,1.3c0,0,1.3,0.1,2-0.6"/>
				<path class="st2" d="M149.1,229.2c0,0-1.2,1.1,1.4,1.3c0,0,1.3,0.1,2-0.6"/>
				<path class="st2" d="M149.1,230.3c0,0-1.2,1.1,1.4,1.3c0,0,1.3,0.1,2-0.6"/>
			</g>
			<line class="st10" x1="149.5" y1="227.2" x2="149.7" y2="231.7"/>
			<line class="st10" x1="152.5" y1="227.2" x2="152.7" y2="231.3"/>
		</g>
	</g>
	<polyline class="st2" points="107.8,245.3 102.1,256.3 102.3,262.1 	"/>
	<polyline class="st2" points="83.9,256.4 94.2,257.8 95,255.5 102.1,256.3 	"/>
	<line class="st2" x1="94.2" y1="257.8" x2="94.3" y2="261.1"/>
	<line class="st2" x1="67.3" y1="248.8" x2="63.1" y2="257.1"/>
	<polyline class="st2" points="138.4,253.2 132.9,263.6 126,262.6 124.7,265 	"/>
	<line class="st2" x1="132.9" y1="266.3" x2="132.9" y2="263.6"/>
	<path class="st2" d="M150.7,245.5l2.9-6.5c0,0,0.7-1.9,3.6-1.1l3.9,0.6c0,0,2-0.1,1.4,2l-3.3,7.2c0,0-1.9,2.2-5.4,1.6
		C153.7,249.2,149.2,249,150.7,245.5z"/>
	<line class="st2" x1="151.4" y1="257" x2="150.4" y2="247.4"/>
	<line class="st2" x1="159.5" y1="250.7" x2="159.3" y2="247.7"/>
	<path class="st2" d="M56.2,210.2h0.7l0.4,20.4l3.6,0.4v-8.5c0,0-0.4-4,4.7-3.6c0,0,4.9,1.1,4.4,5l0.3,8.6l3.3,0.3l0-0.4l-0.1-13.3"
		/>
	<polyline class="st2" points="73.7,232.5 75.7,228.7 76,230.7 77.1,228.7 77.1,226 81.7,216.7 81.4,211.4 	"/>
	<polyline class="st2" points="84.1,206.2 84.3,212.5 85,210.2 85.1,212.5 86.3,210.4 86.3,207.4 98,184.3 98,186.4 99.2,184.3 
		99,181.6 102.3,175.4 102.2,169.8 	"/>
	<path class="st2" d="M100.9,151.2l-3,6.7l-0.9-0.3l-0.6,0.6l-13.9-1.7l-13.6,28.2l0.3,0.7l-2.7,5.7l-1,0.1l-4.4,8.6h1.6l-1.6,3.2
		l-1.6-0.3l-2.6,4.6l16.9,2l28.1-56.1C103.3,150.9,100.9,151.2,100.9,151.2l-15.5-1.7l1.4-2.4l19.1,2.2c0,0,2.2-0.1,2.2,2.2
		s0,6.7,0,6.7l-30,59.6c0,0-0.3,1.6-3.7,1.4l-17.1-2"/>
	<line class="st2" x1="65.5" y1="191.3" x2="81.4" y2="193.3"/>
	<polyline class="st2" points="83,186.9 73.1,207.8 57.9,205.9 	"/>
	<polyline class="st2" points="73.2,175.3 70.5,174.8 67.1,181.6 69.9,182 	"/>
	<polyline class="st2" points="85.4,148.7 84.1,148.4 83.4,150.3 83.4,151.6 84,151.5 	"/>
	<polyline class="st2" points="86,149.9 84.1,153.5 81.4,153.2 79.5,156.8 82,156.9 	"/>
	<polyline class="st2" points="81.8,158.3 86.7,159.1 84.9,162.6 80.1,161.9 	"/>
	<polyline class="st2" points="70.9,181.1 75.8,181.9 74,185.4 69.2,184.7 	"/>
	<polygon class="st2" points="95,163.9 96.8,160.5 92,159.9 90.4,163.2 	"/>
	<polygon class="st2" points="83.7,186.7 85.4,183.3 80.7,182.7 79.1,186 	"/>
	<polyline class="st2" points="85.7,186.4 89.6,186.9 89.7,194.2 	"/>
	<polyline class="st2" points="91.7,173.7 95.7,174.1 96,181.1 	"/>
	<polyline class="st2" points="101.6,177.3 103.1,177.3 104.4,175.7 104.5,170.5 105.6,168.5 	"/>
	<polyline class="st2" points="89.3,178 85.9,177.4 84.1,181.3 86.1,181.4 86.9,182.3 	"/>
	<line class="st2" x1="86.7" y1="149.9" x2="86.7" y2="156.8"/>
	<line class="st2" x1="84.1" y1="153.5" x2="84.3" y2="156.3"/>
	<ellipse class="st11" cx="61.1" cy="214.5" rx="2.2" ry="1.9"/>
	<line class="st11" x1="79.5" y1="156.8" x2="79.4" y2="162.6"/>
	<polyline class="st11" points="67.1,181.6 67.1,184.1 68.7,186.3 	"/>
	<polyline class="st11" points="60.5,199.8 58.5,199.3 56.5,203.2 58.9,203.6 	"/>
	<line class="st11" x1="56.5" y1="203.2" x2="56.9" y2="207.4"/>
	<path class="st11" d="M163.7,255.8l1.3,0.2l2.7,0.4c0,0,2,0.4,3-1.9s6.7-14.3,6.7-14.3s1.1-1.1-2.2-2.2l-2.9-0.1"/>
	<line class="st11" x1="173.6" y1="238.6" x2="165.1" y2="255.4"/>
	<path class="st11" d="M174.3,233.9l4.9,0.7c0,0,1.1,0.4,2.4-2.2c1.3-2.6,1.9-4.3,1.9-4.3s1-1-2.2-1.4s-3.9-0.3-3.9-0.3"/>
	<line class="st11" x1="176.9" y1="233.9" x2="180.2" y2="226.9"/>
	<g>
		<path class="st12" d="M22.6,282.2l-0.1-2c0-0.1,0.1-0.1,0.1-0.2c0.2-0.2,0.6-0.3,0.6-0.3l1.6,0.3c0.5,0.2,0.6,0.9,0.6,0.9l0.1,1.4
			c0.2,0,0.4-0.3,0.4-0.3s2.8-4.9,2.9-5.1c0.1-0.2,0.4-1.4,0.4-1.4s0-0.9,0-1.4c-0.1-0.5-0.9-0.7-0.9-0.7s-0.9-0.2-1.3-0.2
			c-0.4-0.1-0.6,0.2-0.6,0.2l-3.7,6.4"/>
		<line class="st12" x1="25.6" y1="280.6" x2="29.2" y2="274.3"/>
		<line class="st12" x1="23.7" y1="280.2" x2="10.9" y2="302.9"/>
		<line class="st12" x1="25.1" y1="280.7" x2="12.5" y2="303"/>
		<line class="st12" x1="17.5" y1="295.9" x2="17.7" y2="304.5"/>
		<path class="st12" d="M5.4,307.1l1.9-3.4c0,0,0.6-0.7,1.8-0.7s8-0.6,14.1,5.3c6.2,5.9,4.9,12.6,4.9,12.6s-1.2,4-2.6,5.9"/>
		<path class="st12" d="M5.1,313.2L5,308.3c0,0-0.1-1.5,1.6-1.7c1.8-0.2,6.8-0.3,12.3,3.3s8.6,10.4,6.8,16.1c0,0-1.2,4.6-7.4,6.6
			l-4.4-0.2"/>
		<path class="st12" d="M6.1,329.3l0,1.2c0,0,0,0.9,1.2,1.1s4.8,0.7,4.8,0.7s3.2,0.4,5.9-0.8c2.7-1.2,4.9-2.6,6.2-6.3
			c1.3-3.8-0.3-10.7-7.3-14.9c0,0-2.5-1.5-3.9-1.6c0,0-5-0.8-5.5,3.7l-0.1,4.7"/>
		<line class="st12" x1="10" y1="318.8" x2="15.3" y2="309.4"/>
		<path class="st12" d="M7.4,317.6c0,0,1.3-0.8,2.3,0.6l0.5,2.2l2.5-4.5c0,0-0.1-2.2-0.1-2.6c0-0.4-0.3-1-0.3-1
			c-0.8-1-1.8-0.3-1.8-0.3l-3.5,6.2"/>
		<path class="st12" d="M7,318.4l0.7,0.1c0,0,0.4-0.9,1.1-0.3l0.4,1.8c0,0-0.8,0.7-1.2,0.7c0,0,1.3,1,2-0.2"/>
		<line class="st12" x1="12.5" y1="316.6" x2="16.2" y2="309.9"/>
		<path class="st12" d="M6.5,315.2l0.3-1.7c0,0-0.1-1.2-1.5-0.6c0,0-1.5,1.3-1.9,5.1c0,0-0.2,1.6-0.3,2.4c-0.1,0.8,0.2,7.7,0.2,7.7
			s0.4,3.5,2.4,1.7"/>
		<path class="st12" d="M6.7,313.6c0,0-0.6,0.2-1.2,2s-0.9,4.7-0.8,6.1c0,1.4-0.2,7.7,0.8,7.8c0,0,1.2,0.3,2.3-5.6l0.5,3.9l0.5-0.8
			c0,0,0-2.9,0.9-4.4c0.1-0.2,0.2-0.3,0.3-0.4c0,0,0.7-0.3,0.7,1.4l0.5-0.7l0.1-2.8l5.6-9.9"/>
		<path class="st12" d="M10.5,323.7l-0.7,0c0,0,0-0.9-0.2-1"/>
		<line class="st12" x1="6.1" y1="330.5" x2="8.2" y2="327.6"/>
		<path class="st12" d="M8.5,327.6c0,0,0.6,0.4,0.9,0.4c0.3,0,6,0.7,6,0.7s5.4,0.2,8.7-3.4"/>
		<path class="st12" d="M19,305.1l9.3-16.6l0.5-0.1l0.6,0.1c0,0,0.4,0.4,0.2,1.8l-3.7,6.5c0,0-0.4,0.7-1.5,0.3l-4.7,8.4"/>
		<path class="st12" d="M25.8,296.6c0,0-0.2-1.8,0.4-2.9c0.7-1.1,3-5.3,3-5.3"/>
		<path class="st12" d="M20.8,301.5c0,0,0.2-1.6,0.1-2.5l0.3-0.6l-0.1-8.9"/>
		<polyline class="st12" points="21.3,296.5 22.8,293.8 22.7,286.5 		"/>
		<line class="st12" x1="25.1" y1="282.2" x2="13.3" y2="303.1"/>
		<line class="st12" x1="23.8" y1="284.8" x2="24" y2="293.5"/>
		<path class="st12" d="M23,293.8c0,0,0.9,0.3,1.1-0.3l0.8-1.5l-0.2-9"/>
		<line class="st12" x1="25" y1="289.2" x2="26.4" y2="289.4"/>
		<path class="st12" d="M24.8,285.9l1.9,0.2l0.1,0.2l-0.3,0.4c0,0-0.2,0.5-0.2,0.9c0,0.4,0,2.2,0,2.2s0,0.4,0.2,0.4s0.7,0.1,0.7,0.1
			"/>
		<path class="st12" d="M25.5,282.2l0,2.1v1l1.5,0.2c0,0,0.6,0.3,0.6,0.7s-0.4,0.7-0.4,0.7s-0.2,0.5-0.1,0.8c0,0.3,0.1,2.3,0.1,2.3"
			/>
		<path class="st12" d="M28.1,278.4l1.3,1.3c0,0,0.4,0.4,0.4,1.3l0.2,0.2v1.3l-0.2,0.2v0.7l-1,1.9l-1.2,0.9"/>
		<path class="st12" d="M27.3,279.6l1.2,1.2c0,0,0.5,0.5,0.5,1.1c0,0.6,0.1,2.7,0.1,2.7"/>
		<line class="st12" x1="28.1" y1="285.8" x2="28.1" y2="288.4"/>
		<path class="st12" d="M26.9,280.9c0,0,1.1,2.5,0.2,4.8"/>
		<line class="st12" x1="9.8" y1="309.2" x2="9.9" y2="313"/>
		<line class="st12" x1="7.4" y1="318.7" x2="7.4" y2="324.1"/>
		<path class="st12" d="M25.8,274v-1.7l2.2-3.7c0,0,0.2-0.3,1-0.1c0.8,0.2,0.4,1.1,0.4,1.1l-1.5,2.3c0,0-0.5,0.7-1.2,0.6
			c-0.4-0.1-0.2,0.8-0.2,0.8"/>
	</g>
	<g>
		<g>
			<path class="st13" d="M200.9,331.8l0.4,23.1c0,0-0.2,1.2-1.5,1.3c-1.2,0.1-3.2,0.3-5.8-0.3s-13.7-4-14.4-16.3
				c0,0-1.1-8.8,11.8-13.9c0,0,2.9-0.7,6-0.1c3.1,0.6,3.7,0.6,3.7,0.6s1.4,0,1.9,1.6l0.6,23.5l-2.2,3.9"/>
			<path class="st13" d="M196.3,353.7c-3.3,2-8.9-1.7-11.9-5.1c-3.1-3.5-4.5-11-0.8-15c0.1-0.2,0.3-0.3,0.4-0.4
				c3.7-3.6,9.9-3.3,9.9-3.3s4.5,0.7,5.3,0.7c0.8,0.1,1,1.2,1,1.2l0.3,16.9c0,0-0.4,2.8-0.9,3.9c-0.4,1.1-0.8,2-1.8,0.9
				c-1-1.1-0.4-10.8-0.4-10.8s1.1-5.7,2.4-4.8l-0.1-0.4c0,0-1-1.2-1.9-0.3s-2.1,5.6-2.1,7.2c0,1.5,0.2,8,0.2,8s0.4,3.7,2.6,2"/>
			<path class="st13" d="M196.1,350.5c0,0-5.1-0.3-9.7-5.8s-2.5-11.5-2.5-11.5"/>
			<path class="st13" d="M219.3,318.1"/>
			<path class="st13" d="M203.6,345.8"/>
			<polyline class="st13" points="219.3,320.1 223,313.7 223.3,313.2 			"/>
			
				<ellipse transform="matrix(0.9937 0.1122 -0.1122 0.9937 36.5003 -21.642)" class="st13" cx="210.6" cy="313.5" rx="0.7" ry="2"/>
			<ellipse transform="matrix(0.9937 0.1122 -0.1122 0.9937 37.7158 -21.58)" class="st13" cx="210.6" cy="324.3" rx="0.7" ry="2"/>
		</g>
	</g>
	<path class="st13" d="M201.1,326.3l6-11.5l0.9-4.6c0,0,0.3-1.4,1.1-3c0.8-1.5,7.6-14.5,7.6-14.5l0.4,0.2l0.2,25l-7.4,14
		c0,0-0.4,1.4-2.2,0.8l-4.2,8.6"/>
	<path class="st13" d="M216.9,303.1c0,0-0.8,0.3-1.1-0.4l-2.5,4.9c0,0,0.2,4-0.4,4.7v3.8c0,0,0.5,0.4,0.4,2.4l1.2,0.1l2.5-3.8"/>
	<path class="st13" d="M199.2,330.6c0,0-3.4,5.2-3.1,11"/>
	<ellipse class="st14" cx="164.3" cy="271.7" rx="2.4" ry="1.1"/>
	<ellipse class="st14" cx="206.2" cy="277" rx="2.4" ry="1.1"/>
	<polyline class="st14" points="91.2,135.6 89.3,139.1 89.7,146.7 	"/>
	<polyline class="st14" points="105.9,149.2 106,141.1 108.8,136.5 	"/>
	<path class="st5" d="M142.1,301.6l-3.2-0.4c-0.7,0-1.2-0.6-1.2-1.2v-0.1c0-0.7,0.6-1.2,1.2-1.2l3.2,0.4c0.7,0,1.2,0.6,1.2,1.2v0.1
		C143.3,301,142.7,301.6,142.1,301.6z"/>
	<polyline class="st2" points="224,107.2 227.7,107.6 229.2,100.6 228.3,98.7 227.5,99.8 225.8,98.8 	"/>
	<path class="st2" d="M227.7,107.6c0,0,0.4-1.6-1.5-1.2l1.4-7"/>
	<polyline class="st2" points="110.3,38.1 109,35.6 108.5,35.3 109.4,31 110.1,30.9 110.3,29.9 111.9,29.9 	"/>
	<polyline class="st2" points="228.8,81.6 227.6,79.8 225.8,88.7 226.5,92 	"/>
	<line class="st14" x1="106" y1="141.1" x2="89.3" y2="139.1"/>
	<g>
		<defs>
			<polygon id="SVGID_1_" points="129.2,194.9 129.2,184.9 127.9,183.8 127.1,180.9 132.9,169.1 141.3,164.1 202.4,172.4 
				203.7,174.4 190.6,200.3 155,195.4 156.7,192.9 139.9,190.8 138.5,194.2 130.5,193.2 			"/>
		</defs>
		<clipPath id="SVGID_2_">
			<use xlink:href="#SVGID_1_"  style="overflow:visible;"/>
		</clipPath>
		<g class="st15">
			<g>
				<path class="st16" d="M138.3,175.6l-1-0.2c-0.2,0-0.2,0.5-0.2,0.5l0,6l1.3,0.2L138.3,175.6z"/>
				<path class="st16" d="M137.8,176.7l-1-0.2c-0.2,0-0.2,0.5-0.2,0.5l0,6l1.3,0.2L137.8,176.7z"/>
				<path class="st16" d="M137,178l-1-0.2c-0.2,0-0.2,0.5-0.2,0.5l0,6l1.3,0.2L137,178z"/>
				<path class="st16" d="M136.5,179.1l-1-0.2c-0.2,0-0.2,0.5-0.2,0.5l0,6l1.3,0.2L136.5,179.1z"/>
				<path class="st16" d="M136,180.4l-1-0.2c-0.2,0-0.2,0.5-0.2,0.5l0,6l1.3,0.2L136,180.4z"/>
			</g>
			<g>
				<path class="st16" d="M142.3,167.3l-1-0.2c-0.2,0-0.2,0.5-0.2,0.5l0,6l1.3,0.2L142.3,167.3z"/>
				<path class="st16" d="M141.8,168.4l-1-0.2c-0.2,0-0.2,0.5-0.2,0.5l0,6l1.3,0.2L141.8,168.4z"/>
				<path class="st16" d="M141.1,169.7l-1-0.2c-0.2,0-0.2,0.5-0.2,0.5l0,6l1.3,0.2L141.1,169.7z"/>
				<path class="st16" d="M140.6,170.8l-1-0.2c-0.2,0-0.2,0.5-0.2,0.5l0,6l1.3,0.2L140.6,170.8z"/>
				<path class="st16" d="M140,172.1l-1-0.2c-0.2,0-0.2,0.5-0.2,0.5l0,6l1.3,0.2L140,172.1z"/>
			</g>
			<g>
				<polyline class="st17" points="144.9,179.5 144.8,179.9 146.6,180.1 147,179.5 				"/>
				<g>
					<path class="st17" d="M149.4,167.1l-1.4-0.2c-0.2,0-0.3,0.5-0.3,0.5l0,6l1.8,0.2L149.4,167.1z"/>
					<path class="st17" d="M148.9,168.4l-1.4-0.2c-0.2,0-0.3,0.5-0.3,0.5l0,6l1.8,0.2L148.9,168.4z"/>
					<path class="st17" d="M148.3,169.5l-1.4-0.2c-0.2,0-0.3,0.5-0.3,0.5l0,6l1.8,0.2L148.3,169.5z"/>
					<path class="st17" d="M147.7,170.6l-1.4-0.2c-0.2,0-0.3,0.5-0.3,0.5l0,6l1.8,0.2L147.7,170.6z"/>
					<path class="st17" d="M147.2,171.8l-1.4-0.2c-0.2,0-0.3,0.5-0.3,0.5l0,6l1.8,0.2L147.2,171.8z"/>
					<path class="st17" d="M146.7,173.1l-1.4-0.2c-0.2,0-0.3,0.5-0.3,0.5l0,6l1.8,0.2L146.7,173.1z"/>
					<path class="st17" d="M173.7,170.1l-1.4-0.2c-0.2,0-0.3,0.5-0.3,0.5l0,6l1.8,0.2L173.7,170.1z"/>
					<path class="st17" d="M173.2,171.4l-1.4-0.2c-0.2,0-0.3,0.5-0.3,0.5l0,6l1.8,0.2L173.2,171.4z"/>
					<path class="st17" d="M172.6,172.6l-1.4-0.2c-0.2,0-0.3,0.5-0.3,0.5l0,6l1.8,0.2L172.6,172.6z"/>
					<path class="st17" d="M172,173.7l-1.4-0.2c-0.2,0-0.3,0.5-0.3,0.5l0,6l1.8,0.2L172,173.7z"/>
					<path class="st17" d="M171.5,174.9l-1.4-0.2c-0.2,0-0.3,0.5-0.3,0.5l0,6l1.8,0.2L171.5,174.9z"/>
					<path class="st17" d="M171,176.1l-1.4-0.2c-0.2,0-0.3,0.5-0.3,0.5l0,6l1.8,0.2L171,176.1z"/>
					<path class="st17" d="M177.2,170.6l-1.4-0.2c-0.2,0-0.3,0.5-0.3,0.5l0,6l1.8,0.2L177.2,170.6z"/>
					<path class="st17" d="M176.6,171.9l-1.4-0.2c-0.2,0-0.3,0.5-0.3,0.5l0,6l1.8,0.2L176.6,171.9z"/>
					<path class="st17" d="M176,173.1l-1.4-0.2c-0.2,0-0.3,0.5-0.3,0.5l0,6l1.8,0.2L176,173.1z"/>
					<path class="st17" d="M175.5,174.2L174,174c-0.2,0-0.3,0.5-0.3,0.5l0,6l1.8,0.2L175.5,174.2z"/>
					<path class="st17" d="M174.9,175.4l-1.4-0.2c-0.2,0-0.3,0.5-0.3,0.5l0,6l1.8,0.2L174.9,175.4z"/>
					<path class="st17" d="M174.4,176.6l-1.4-0.2c-0.2,0-0.3,0.5-0.3,0.5l0,6l1.8,0.2L174.4,176.6z"/>
					<path class="st17" d="M180.6,171.1l-1.4-0.2c-0.2,0-0.3,0.5-0.3,0.5l0,6l1.8,0.2L180.6,171.1z"/>
					<path class="st17" d="M180.1,172.4l-1.4-0.2c-0.2,0-0.3,0.5-0.3,0.5l0,6l1.8,0.2L180.1,172.4z"/>
					<path class="st17" d="M179.5,173.6l-1.4-0.2c-0.2,0-0.3,0.5-0.3,0.5l0,6l1.8,0.2L179.5,173.6z"/>
					<path class="st17" d="M178.9,174.7l-1.4-0.2c-0.2,0-0.3,0.5-0.3,0.5l0,6l1.8,0.2L178.9,174.7z"/>
					<path class="st17" d="M178.4,175.9l-1.4-0.2c-0.2,0-0.3,0.5-0.3,0.5l0,6l1.8,0.2L178.4,175.9z"/>
					<path class="st17" d="M177.9,177.1l-1.4-0.2c-0.2,0-0.3,0.5-0.3,0.5l0,6l1.8,0.2L177.9,177.1z"/>
					<path class="st17" d="M184.1,171.6l-1.4-0.2c-0.2,0-0.3,0.5-0.3,0.5l0,6l1.8,0.2L184.1,171.6z"/>
					<path class="st17" d="M183.5,172.9l-1.4-0.2c-0.2,0-0.3,0.5-0.3,0.5l0,6l1.8,0.2L183.5,172.9z"/>
					<path class="st17" d="M182.9,174.1l-1.4-0.2c-0.2,0-0.3,0.5-0.3,0.5l0,6l1.8,0.2L182.9,174.1z"/>
					<path class="st17" d="M182.3,175.2l-1.4-0.2c-0.2,0-0.3,0.5-0.3,0.5l0,6l1.8,0.2L182.3,175.2z"/>
					<path class="st17" d="M181.8,176.4l-1.4-0.2c-0.2,0-0.3,0.5-0.3,0.5l0,6l1.8,0.2L181.8,176.4z"/>
					<path class="st17" d="M181.3,177.6l-1.4-0.2c-0.2,0-0.3,0.5-0.3,0.5l0,6l1.8,0.2L181.3,177.6z"/>
					<path class="st17" d="M187.5,172.1l-1.4-0.2c-0.2,0-0.3,0.5-0.3,0.5l0,6l1.8,0.2L187.5,172.1z"/>
					<path class="st17" d="M186.9,173.4l-1.4-0.2c-0.2,0-0.3,0.5-0.3,0.5l0,6l1.8,0.2L186.9,173.4z"/>
					<path class="st17" d="M186.4,174.6l-1.4-0.2c-0.2,0-0.3,0.5-0.3,0.5l0,6l1.8,0.2L186.4,174.6z"/>
					<path class="st17" d="M185.8,175.7l-1.4-0.2c-0.2,0-0.3,0.5-0.3,0.5l0,6l1.8,0.2L185.8,175.7z"/>
					<path class="st17" d="M185.3,176.9l-1.4-0.2c-0.2,0-0.3,0.5-0.3,0.5l0,6l1.8,0.2L185.3,176.9z"/>
					<path class="st17" d="M184.7,178.1l-1.4-0.2c-0.2,0-0.3,0.5-0.3,0.5l0,6l1.8,0.2L184.7,178.1z"/>
					<path class="st17" d="M190.9,172.6l-1.4-0.2c-0.2,0-0.3,0.5-0.3,0.5l0,6l1.8,0.2L190.9,172.6z"/>
					<path class="st17" d="M190.4,173.9l-1.4-0.2c-0.2,0-0.3,0.5-0.3,0.5l0,6l1.8,0.2L190.4,173.9z"/>
					<path class="st17" d="M189.8,175l-1.4-0.2c-0.2,0-0.3,0.5-0.3,0.5l0,6l1.8,0.2L189.8,175z"/>
					<path class="st17" d="M189.2,176.2l-1.4-0.2c-0.2,0-0.3,0.5-0.3,0.5l0,6l1.8,0.2L189.2,176.2z"/>
					<path class="st17" d="M188.7,177.4l-1.4-0.2c-0.2,0-0.3,0.5-0.3,0.5l0,6l1.8,0.2L188.7,177.4z"/>
					<path class="st17" d="M188.2,178.6l-1.4-0.2c-0.2,0-0.3,0.5-0.3,0.5l0,6l1.8,0.2L188.2,178.6z"/>
					<path class="st17" d="M194.4,173.1l-1.4-0.2c-0.2,0-0.3,0.5-0.3,0.5l0,6l1.8,0.2L194.4,173.1z"/>
					<path class="st17" d="M193.8,174.4l-1.4-0.2c-0.2,0-0.3,0.5-0.3,0.5l0,6l1.8,0.2L193.8,174.4z"/>
					<path class="st17" d="M193.2,175.5l-1.4-0.2c-0.2,0-0.3,0.5-0.3,0.5l0,6l1.8,0.2L193.2,175.5z"/>
					<path class="st17" d="M192.7,176.7l-1.4-0.2c-0.2,0-0.3,0.5-0.3,0.5l0,6l1.8,0.2L192.7,176.7z"/>
					<path class="st17" d="M192.1,177.9l-1.4-0.2c-0.2,0-0.3,0.5-0.3,0.5l0,6l1.8,0.2L192.1,177.9z"/>
					<path class="st17" d="M191.6,179.1l-1.4-0.2c-0.2,0-0.3,0.5-0.3,0.5l0,6l1.8,0.2L191.6,179.1z"/>
					<polyline class="st17" points="148.9,178.7 148.8,179.1 150.7,179.3 151,178.8 					"/>
					<path class="st17" d="M152.3,168.8l-1.4-0.2c-0.2,0-0.3,0.5-0.3,0.5l0,6l1.8,0.2L152.3,168.8z"/>
					<path class="st17" d="M151.7,169.9l-1.4-0.2c-0.2,0-0.3,0.5-0.3,0.5l0,6l1.8,0.2L151.7,169.9z"/>
					<path class="st17" d="M151.2,171.1l-1.4-0.2c-0.2,0-0.3,0.5-0.3,0.5l0,6l1.8,0.2L151.2,171.1z"/>
					<path class="st17" d="M150.7,172.3l-1.4-0.2c-0.2,0-0.3,0.5-0.3,0.5l0,6l1.8,0.2L150.7,172.3z"/>
					<polyline class="st17" points="152.3,179.3 152.2,179.6 154,179.9 154.4,179.3 					"/>
					<path class="st17" d="M155.7,169.3l-1.4-0.2c-0.2,0-0.3,0.5-0.3,0.5l0,6l1.8,0.2L155.7,169.3z"/>
					<path class="st17" d="M155.1,170.4l-1.4-0.2c-0.2,0-0.3,0.5-0.3,0.5l0,6l1.8,0.2L155.1,170.4z"/>
					<path class="st17" d="M154.6,171.6l-1.4-0.2c-0.2,0-0.3,0.5-0.3,0.5l0,6l1.8,0.2L154.6,171.6z"/>
					<path class="st17" d="M154.1,172.8l-1.4-0.2c-0.2,0-0.3,0.5-0.3,0.5l0,6l1.8,0.2L154.1,172.8z"/>
					<polyline class="st17" points="155.7,179.8 155.6,180.2 157.4,180.4 157.8,179.9 					"/>
					<path class="st17" d="M159.1,169.8l-1.4-0.2c-0.2,0-0.3,0.5-0.3,0.5l0,6l1.8,0.2L159.1,169.8z"/>
					<path class="st17" d="M158.5,171l-1.4-0.2c-0.2,0-0.3,0.5-0.3,0.5l0,6l1.8,0.2L158.5,171z"/>
					<path class="st17" d="M158,172.2l-1.4-0.2c-0.2,0-0.3,0.5-0.3,0.5l0,6l1.8,0.2L158,172.2z"/>
					<path class="st17" d="M157.5,173.4l-1.4-0.2c-0.2,0-0.3,0.5-0.3,0.5l0,6l1.8,0.2L157.5,173.4z"/>
					<polyline class="st17" points="159.1,180.4 159,180.7 160.8,180.9 161.1,180.4 					"/>
					<path class="st17" d="M162.5,170.4l-1.4-0.2c-0.2,0-0.3,0.5-0.3,0.5l0,6l1.8,0.2L162.5,170.4z"/>
					<path class="st17" d="M161.9,171.5l-1.4-0.2c-0.2,0-0.3,0.5-0.3,0.5l0,6l1.8,0.2L161.9,171.5z"/>
					<path class="st17" d="M161.4,172.7l-1.4-0.2c-0.2,0-0.3,0.5-0.3,0.5l0,6l1.8,0.2L161.4,172.7z"/>
					<path class="st17" d="M160.9,173.9l-1.4-0.2c-0.2,0-0.3,0.5-0.3,0.5l0,6l1.8,0.2L160.9,173.9z"/>
					<polyline class="st17" points="162.1,181.7 162,182.1 163.9,182.3 164.2,181.8 					"/>
					<path class="st17" d="M166.7,169.3l-1.4-0.2c-0.2,0-0.3,0.5-0.3,0.5l0,6l1.8,0.2L166.7,169.3z"/>
					<path class="st17" d="M166.1,170.6l-1.4-0.2c-0.2,0-0.3,0.5-0.3,0.5l0,6l1.8,0.2L166.1,170.6z"/>
					<path class="st17" d="M165.5,171.8l-1.4-0.2c-0.2,0-0.3,0.5-0.3,0.5l0,6l1.8,0.2L165.5,171.8z"/>
					<path class="st17" d="M165,172.9l-1.4-0.2c-0.2,0-0.3,0.5-0.3,0.5l0,6l1.8,0.2L165,172.9z"/>
					<path class="st17" d="M164.4,174.1l-1.4-0.2c-0.2,0-0.3,0.5-0.3,0.5l0,6l1.8,0.2L164.4,174.1z"/>
					<path class="st17" d="M163.9,175.3l-1.4-0.2c-0.2,0-0.3,0.5-0.3,0.5l0,6l1.8,0.2L163.9,175.3z"/>
				</g>
			</g>
			<g>
				<g>
					<polyline class="st17" points="197.6,185 197.5,185.3 199.4,185.6 199.7,185 					"/>
				</g>
			</g>
			<g>
				<g>
					<g>
						<polyline class="st18" points="134.6,186.8 134.6,187.1 135.5,187.3 135.7,186.8 						"/>
					</g>
				</g>
			</g>
			<path class="st17" d="M140.9,183.1l-1.5-0.2l1.2-6.8c0,0,0-0.2,0.3-0.1c0.3,0,2.1,0.3,2.1,0.3l0.2,0.3"/>
			<line class="st19" x1="142.9" y1="177.4" x2="143.1" y2="176.4"/>
			<g>
				<path class="st17" d="M141,175.9l0-0.3c0,0-0.1-0.5,0.2-0.5l2.2,0.3l0.3,0.4"/>
				<path class="st17" d="M143.4,176.2l0-0.4c0,0,0-0.2,0.1-0.3"/>
			</g>
			<g>
				<path class="st19" d="M145,174.9l-1.5-0.2l1.1-6.6c0,0,0-0.4,0.2-0.4c0.2,0,2.3,0.3,2.3,0.3l0.2,0.4"/>
				<path class="st19" d="M146.9,169.4l0.2-1c0,0,0-0.2,0.1-0.2"/>
			</g>
			<path class="st19" d="M169.3,178.1l-1.5-0.2l1.1-6.6c0,0,0-0.4,0.2-0.4c0.2,0,2.3,0.3,2.3,0.3l0.2,0.4"/>
			<path class="st19" d="M136.9,185.7c0,0-1.1-0.1-1.2,1.1c0,0,0.1,0.7-0.5,0.7l-0.6-0.1c0,0-0.3-0.1-0.3,0.5l0,3.5
				c0,0,0.1,0.1,0.1,0.3l2.4,0.3l-0.1-0.4l0-0.7c0,0,0.1-0.3,0.4-0.3c0.3,0,24.1,3.1,24.1,3.1s0.5-0.1,0.5,0.6
				c0,0.6-0.1,0.9,0.3,1.1c0.4,0.2,4.3,0.6,4.3,0.6s-0.1-0.4-0.1-0.6c0-0.2,0-0.5,0-0.5s0-0.4,0.5-0.4c0.5,0,24.1,3.2,24.1,3.2
				s0.4,0,0.4,0.6s-0.2,0.8,0.3,0.9c0.4,0.2,3.1,0.4,3.1,0.4l0.3-0.2l0-3.3c0,0,0-0.9-1.3-1.2l-1-0.1c0,0-0.4,0-0.3-0.6
				c0-0.6,0.1-1.2-1.3-1.7"/>
			<line class="st19" x1="191.4" y1="198.5" x2="166.5" y2="195.2"/>
			<line class="st19" x1="191.5" y1="198.8" x2="195.1" y2="199.3"/>
			<line class="st19" x1="161.8" y1="194.7" x2="136.9" y2="191.4"/>
			<polyline class="st19" points="136.9,192.1 137.2,191.9 137.3,191.8 137.3,190.6 			"/>
			<g>
				<polygon class="st18" points="139.2,186.8 136.9,186.5 136.9,183.8 139.2,184.1 				"/>
				<polyline class="st17" points="136.9,183.8 137,183.3 139.3,183.6 139.2,184.1 				"/>
				<polyline class="st17" points="139.3,183.6 140.5,186 139.3,185.8 				"/>
				<polygon class="st17" points="139.6,188.4 136.5,188 136.5,186.6 139.6,187.1 				"/>
			</g>
			<line class="st20" x1="134.4" y1="191.4" x2="136.8" y2="191.6"/>
			<g>
				<path class="st17" d="M192.9,182.6l0-0.3c0,0-0.1-0.5,0.2-0.5l2.2,0.3l0.3,0.4"/>
				<path class="st19" d="M195.3,183l0-0.4c0,0,0-0.2,0.1-0.3"/>
			</g>
			<g>
				<path class="st19" d="M197.6,181.8l-2.1-0.3l1.1-6.6c0,0,0-0.4,0.2-0.4c0.2,0,2.3,0.3,2.3,0.3l0.2,0.4"/>
				<path class="st19" d="M198.8,176.2l0.2-1c0,0,0-0.2,0.1-0.2"/>
			</g>
			<g>
				<path class="st17" d="M193.4,189.9l-2.1-0.3l1.2-6.8c0,0,0-0.2,0.3-0.1c0.3,0,2.1,0.3,2.1,0.3l0.2,0.3"/>
				<path class="st17" d="M194.8,184.2l0-0.6c0,0,0-0.3,0.2-0.4"/>
			</g>
			<g>
				<g>
					<polyline class="st17" points="193.5,193.2 193.4,193.5 195.2,193.8 195.5,193.2 					"/>
				</g>
			</g>
			<g>
				<polygon class="st18" points="163.4,190 161.1,189.7 161.1,186.9 163.4,187.2 				"/>
				<polyline class="st17" points="161.1,186.9 161.2,186.5 163.5,186.8 163.4,187.2 				"/>
				<polyline class="st19" points="163.5,186.8 164.7,189.1 163.5,189 				"/>
				<polygon class="st19" points="163.8,191.6 160.7,191.1 160.8,189.7 163.8,190.2 				"/>
			</g>
			<g>
				<path class="st17" d="M165.1,186.3l-1.5-0.2l1.2-6.8c0,0,0-0.2,0.3-0.1c0.3,0,2.1,0.3,2.1,0.3l0.2,0.3"/>
				<path class="st17" d="M167.1,180.6l0-0.6c0,0,0-0.3,0.2-0.4"/>
			</g>
			<g>
				<path class="st17" d="M165.2,179l0-0.3c0,0-0.1-0.5,0.2-0.5l2.2,0.3l0.3,0.4"/>
				<path class="st19" d="M167.6,179.4l0-0.4c0,0,0-0.2,0.1-0.3"/>
			</g>
			<g>
				<g>
					<g>
						<polyline class="st17" points="165.2,190.8 165.1,191.1 166.9,191.3 167.2,190.8 						"/>
					</g>
				</g>
				<g>
					<g>
						<polyline class="st17" points="168.6,191.2 168.5,191.6 170.3,191.8 170.6,191.3 						"/>
					</g>
				</g>
				<g>
					<g>
						<polyline class="st17" points="172,191.7 171.9,192.1 173.7,192.3 174,191.7 						"/>
					</g>
				</g>
				<g>
					<g>
						<polyline class="st17" points="175.4,192.2 175.3,192.5 177.1,192.8 177.4,192.2 						"/>
					</g>
				</g>
				<g>
					<g>
						<polyline class="st17" points="178.8,192.7 178.7,193 180.5,193.2 180.8,192.7 						"/>
					</g>
				</g>
				<g>
					<g>
						<polyline class="st17" points="182.4,193.1 182.3,193.4 184.1,193.7 184.4,193.1 						"/>
					</g>
				</g>
				<g>
					<g>
						<polyline class="st17" points="185.8,193.6 185.7,193.9 187.5,194.2 187.9,193.6 						"/>
					</g>
				</g>
			</g>
			<g>
				<polygon class="st18" points="191.1,193.5 188.8,193.2 188.9,190.4 191.2,190.7 				"/>
				<polyline class="st17" points="188.9,190.4 188.9,190 191.2,190.3 191.2,190.7 				"/>
				<polyline class="st19" points="191.2,190.3 192.4,192.6 191.2,192.5 				"/>
				<polygon class="st19" points="191.5,195.1 188.5,194.6 188.5,193.2 191.6,193.7 				"/>
			</g>
			<path class="st19" d="M202.1,180.1l1.1,0.1c0,0,0.8,0,0.6,0.9l0,1.1l-2.9,5.8c0,0-0.1,0.6-0.9,0.7l-2-0.4"/>
			<line class="st19" x1="194.5" y1="179.1" x2="195.8" y2="179.3"/>
			<path class="st19" d="M197.9,186.7l2,0.3c0,0,0.7,0,0.9-0.4c0.2-0.4,3-5.9,3-5.9"/>
			<path class="st19" d="M199.7,188.7l0,1.8l-3,6c0,0-0.2,0.5-1.4,0.2"/>
			<path class="st19" d="M194.1,194.9l1.7,0.2c0,0,0.7,0.2,0.9-0.3c0.4-0.7,3-5.8,3-5.8"/>
			<line class="st19" x1="200.2" y1="187.1" x2="200.2" y2="188.5"/>
			<path class="st19" d="M163.5,189.1c0,0,1.5,0,1.4,1.7c0,0-0.1,0.8,0.9,1c1.1,0.1,21.5,2.8,21.5,2.8s0.5,0,0.6-0.5"/>
			<path class="st19" d="M139.2,186c0,0,1.5,0,1.4,1.7c0,0-0.1,0.8,0.9,1c1.1,0.1,17.9,2.3,17.9,2.3s0.5,0,0.6-0.5"/>
			<path class="st19" d="M168.4,173.6c0,0-0.6,0-0.8,0.6c-0.2,0.6,0.2,1.2-0.3,1.5l-0.5,0.1"/>
			<path class="st19" d="M144.2,170.4c0,0-0.6,0-0.8,0.6c-0.2,0.6,0.2,1.2-0.3,1.5l-0.4-0.1"/>
			<line class="st18" x1="196.1" y1="195.2" x2="196.2" y2="196.8"/>
			<polygon class="st18" points="205.1,182.5 207.9,182.8 204.5,189.5 201.8,189.1 			"/>
			<polygon class="st18" points="201,190.7 203.8,191 200.4,197.7 197.6,197.3 			"/>
			<polyline class="st21" points="196.8,198.4 196.8,201.7 200.4,202.1 203.8,195.5 203.8,191 			"/>
			<line class="st21" x1="200.4" y1="197.7" x2="200.4" y2="202.1"/>
			<polyline class="st21" points="203.9,193.9 204.5,194 208,187.2 207.9,182.8 			"/>
			<line class="st21" x1="204.5" y1="189.5" x2="204.4" y2="193.8"/>
			<polyline class="st21" points="199.7,189.9 200.6,190 201,189.9 201,189.5 201.8,189.1 201.7,190.6 			"/>
			<polyline class="st21" points="197.6,197.3 196.9,197.7 196.9,198.1 196.5,198.2 195.3,198 			"/>
			<polyline class="st21" points="195.3,197.6 196.5,197.7 196.9,197.7 			"/>
			<polyline class="st21" points="199.7,189.4 200.6,189.6 201,189.5 			"/>
			<path class="st19" d="M195.2,199.4c0,0,1.1,0.4,1.6-0.4"/>
			<path class="st19" d="M195.2,199c0,0,1,0.5,1.6-0.4"/>
			<path class="st19" d="M203.6,182.8l0.4,0c0,0,0.2,0,0.2,0.4l0.4,0.1"/>
			<path class="st19" d="M199.3,188.5c0,0,0.1-1.5-1.4-1.6"/>
			<line class="st19" x1="139.7" y1="180.8" x2="138.4" y2="180.6"/>
			<path class="st19" d="M134.4,191.7l-1.2,2.4c0,0-2.1-0.1-2-0.7l0.1-4.7l0.8-1.6l0.6,0l0.3,0.5l-0.7,1.3"/>
			<path class="st19" d="M132.6,187.3l-0.8,1.5l1.5,0.3l-0.2,0.3l-1.4-0.2c0,0-0.5-0.1-0.5-0.5"/>
			<line class="st19" x1="132" y1="194" x2="132" y2="189.3"/>
			<polyline class="st19" points="133.2,189.5 133.2,192.3 133.6,192.3 133.6,193.1 133.2,193.4 133.2,194 			"/>
			<polyline class="st19" points="133.3,192.2 133.6,191.7 133.5,189.2 			"/>
			<path class="st19" d="M131.2,192.4c0,0-1.3-0.4-1.3-0.8c0,0,0,0,0,0.6c0,0.6,1.3,1,1.3,1"/>
			<polyline class="st19" points="131.2,191.7 128.4,191.3 128.4,189.2 129.1,189.3 129.2,185.5 132.7,186 132.9,186.3 			"/>
			<path class="st19" d="M134.5,187.2l-1.3-0.2c0,0-0.7,0.1-0.2-0.8l0.9-1.6"/>
			<line class="st19" x1="128.4" y1="189.2" x2="129.1" y2="187.8"/>
			<path class="st19" d="M134.3,187.8l-1.1-0.2l-0.2,0c0,0-0.5-0.2-0.3-0.8"/>
			<line class="st19" x1="133.3" y1="187" x2="133.2" y2="187.5"/>
			<path class="st19" d="M128.6,181.2c0,0,0.5-1,2.7-0.1l1.4,0.7c0,0,1.5,1,1.2,1.9c-0.4,1-2.4,0.4-2.4,0.4l-2-1
				C129.5,183.1,128,182.2,128.6,181.2z"/>
			<path class="st19" d="M128.6,181.3l-0.6,1c0,0-0.1,0.9,0.8,1.4c0.9,0.5,0.9,0.7,0.9,0.7"/>
			<polyline class="st19" points="130.1,183.5 128.8,186.3 129.2,186.8 			"/>
			<path class="st19" d="M129.9,184.2l1.3,0.6c0,0,2.2,0.8,2.7-0.9"/>
			<path class="st19" d="M134.1,176.1l1.3,0.6c0,0,0.5,0.2,1,0.2"/>
			<line class="st19" x1="133.1" y1="182.1" x2="134.6" y2="182.3"/>
			<polyline class="st19" points="132.6,181.7 132.6,181 133.3,179.6 			"/>
			<polyline class="st19" points="132.7,181 133.2,181.1 133.3,178.6 133.3,177.3 135.9,177.7 			"/>
			<polyline class="st19" points="134.2,175.4 133,178.1 133.3,178.6 			"/>
			<polygon points="130.1,181.3 130.5,181.4 129.9,182.5 129.6,182.2 			"/>
			<polygon points="130.9,181.7 131.3,181.8 130.6,182.9 130.4,182.5 			"/>
			<polygon points="131.6,182.1 132,182.2 131.4,183.3 131.1,183 			"/>
			<polygon points="132.3,182.4 132.7,182.5 132.1,183.6 131.9,183.3 			"/>
			<path class="st19" d="M136.8,176.1c-0.6,0-1.2-0.2-1.2-0.2l-2-1c0,0-1.5-0.9-0.9-2c0,0,0.5-1,2.7-0.1l1.4,0.7
				c0,0,1.3,0.8,1.2,1.7"/>
			<path class="st19" d="M132.7,173.1l-0.6,1c0,0-0.1,0.9,0.8,1.4s0.9,0.7,0.9,0.7"/>
			<polygon points="134.2,173.1 134.6,173.2 134,174.3 133.7,174 			"/>
			<polygon points="135,173.5 135.4,173.6 134.7,174.6 134.5,174.3 			"/>
			<polygon points="135.7,173.9 136.1,174 135.5,175.1 135.2,174.7 			"/>
			<polygon points="136.4,174.2 136.8,174.3 136.2,175.4 136,175.1 			"/>
			<line class="st19" x1="138.7" y1="174.1" x2="137.2" y2="173.9"/>
			<line class="st19" x1="130.7" y1="184.5" x2="131" y2="183.8"/>
			<line class="st19" x1="134.8" y1="176.4" x2="135.1" y2="175.7"/>
			<g>
				<g>
					<g>
					</g>
					<g>
					</g>
					<g>
					</g>
					<g>
					</g>
					<g>
					</g>
					<g>
						<path class="st17" d="M142.7,181.7"/>
						<polyline class="st17" points="140.9,187.6 140.8,188 142.7,188.2 143,187.6 						"/>
						<g>
							<path class="st17" d="M145.5,175.2L144,175c-0.2,0-0.3,0.5-0.3,0.5l0,6l1.8,0.2L145.5,175.2z"/>
							<path class="st17" d="M144.9,176.5l-1.4-0.2c-0.2,0-0.3,0.5-0.3,0.5l0,6l1.8,0.2L144.9,176.5z"/>
							<path class="st17" d="M144.3,177.6l-1.4-0.2c-0.2,0-0.3,0.5-0.3,0.5l0,6l1.8,0.2L144.3,177.6z"/>
							<path class="st17" d="M143.8,178.8l-1.4-0.2c-0.2,0-0.3,0.5-0.3,0.5l0,6l1.8,0.2L143.8,178.8z"/>
							<path class="st17" d="M143.2,179.9l-1.4-0.2c-0.2,0-0.3,0.5-0.3,0.5l0,6l1.8,0.2L143.2,179.9z"/>
							<path class="st17" d="M142.7,181.2l-1.4-0.2c-0.2,0-0.3,0.5-0.3,0.5l0,6l1.8,0.2L142.7,181.2z"/>
							<polyline class="st17" points="145,186.8 144.9,187.2 146.7,187.4 147,186.9 							"/>
							<path class="st17" d="M148.4,176.9l-1.4-0.2c-0.2,0-0.3,0.5-0.3,0.5l0,6l1.8,0.2L148.4,176.9z"/>
							<path class="st17" d="M147.8,178l-1.4-0.2c-0.2,0-0.3,0.5-0.3,0.5l0,6l1.8,0.2L147.8,178z"/>
							<path class="st17" d="M147.3,179.2l-1.4-0.2c-0.2,0-0.3,0.5-0.3,0.5l0,6l1.8,0.2L147.3,179.2z"/>
							<path class="st17" d="M146.7,180.4l-1.4-0.2c-0.2,0-0.3,0.5-0.3,0.5l0,6l1.8,0.2L146.7,180.4z"/>
							<polyline class="st17" points="148.4,187.4 148.3,187.7 150.1,188 150.4,187.4 							"/>
							<path class="st17" d="M151.8,177.4l-1.4-0.2c-0.2,0-0.3,0.5-0.3,0.5l0,6l1.8,0.2L151.8,177.4z"/>
							<path class="st17" d="M151.2,178.5l-1.4-0.2c-0.2,0-0.3,0.5-0.3,0.5l0,6l1.8,0.2L151.2,178.5z"/>
							<path class="st17" d="M150.6,179.7l-1.4-0.2c-0.2,0-0.3,0.5-0.3,0.5l0,6l1.8,0.2L150.6,179.7z"/>
							<path class="st17" d="M150.1,180.9l-1.4-0.2c-0.2,0-0.3,0.5-0.3,0.5l0,6l1.8,0.2L150.1,180.9z"/>
							<polyline class="st17" points="151.7,187.9 151.6,188.3 153.5,188.5 153.8,188 							"/>
							<path class="st17" d="M155.1,177.9l-1.4-0.2c-0.2,0-0.3,0.5-0.3,0.5l0,6l1.8,0.2L155.1,177.9z"/>
							<path class="st17" d="M154.6,179.1l-1.4-0.2c-0.2,0-0.3,0.5-0.3,0.5l0,6l1.8,0.2L154.6,179.1z"/>
							<path class="st17" d="M154,180.3l-1.4-0.2c-0.2,0-0.3,0.5-0.3,0.5l0,6l1.8,0.2L154,180.3z"/>
							<path class="st17" d="M153.5,181.5l-1.4-0.2c-0.2,0-0.3,0.5-0.3,0.5l0,6l1.8,0.2L153.5,181.5z"/>
							<polyline class="st17" points="155.1,188.5 155,188.8 156.9,189 157.2,188.5 							"/>
							<path class="st17" d="M158.5,178.5l-1.4-0.2c-0.2,0-0.3,0.5-0.3,0.5l0,6l1.8,0.2L158.5,178.5z"/>
							<path class="st17" d="M158,179.6l-1.4-0.2c-0.2,0-0.3,0.5-0.3,0.5l0,6l1.8,0.2L158,179.6z"/>
							<path class="st17" d="M157.4,180.8l-1.4-0.2c-0.2,0-0.3,0.5-0.3,0.5l0,6l1.8,0.2L157.4,180.8z"/>
							<path class="st17" d="M156.9,182l-1.4-0.2c-0.2,0-0.3,0.5-0.3,0.5l0,6l1.8,0.2L156.9,182z"/>
							<polyline class="st17" points="158.2,189.8 158.1,190.2 159.9,190.4 160.2,189.9 							"/>
							<path class="st17" d="M162.7,177.4l-1.4-0.2c-0.2,0-0.3,0.5-0.3,0.5l0,6l1.8,0.2L162.7,177.4z"/>
							<path class="st17" d="M162.2,178.7l-1.4-0.2c-0.2,0-0.3,0.5-0.3,0.5l0,6l1.8,0.2L162.2,178.7z"/>
							<path class="st17" d="M161.6,179.9l-1.4-0.2c-0.2,0-0.3,0.5-0.3,0.5l0,6l1.8,0.2L161.6,179.9z"/>
							<path class="st17" d="M161,181l-1.4-0.2c-0.2,0-0.3,0.5-0.3,0.5l0,6l1.8,0.2L161,181z"/>
							<path class="st17" d="M160.5,182.2L159,182c-0.2,0-0.3,0.5-0.3,0.5l0,6l1.8,0.2L160.5,182.2z"/>
							<path class="st17" d="M160,183.4l-1.4-0.2c-0.2,0-0.3,0.5-0.3,0.5l0,6l1.8,0.2L160,183.4z"/>
						</g>
					</g>
				</g>
				<g>
					<g>
					</g>
					<g>
					</g>
					<g>
					</g>
					<g>
					</g>
				</g>
				<g>
					<g>
					</g>
				</g>
				<g>
					<g>
					</g>
				</g>
			</g>
			<g>
				<path class="st17" d="M169.9,178.3l-1.4-0.2c-0.2,0-0.3,0.5-0.3,0.5l0,6l1.8,0.2L169.9,178.3z"/>
				<path class="st17" d="M169.3,179.6l-1.4-0.2c-0.2,0-0.3,0.5-0.3,0.5l0,6l1.8,0.2L169.3,179.6z"/>
				<path class="st17" d="M168.7,180.8l-1.4-0.2c-0.2,0-0.3,0.5-0.3,0.5l0,6l1.8,0.2L168.7,180.8z"/>
				<path class="st17" d="M168.2,181.9l-1.4-0.2c-0.2,0-0.3,0.5-0.3,0.5l0,6l1.8,0.2L168.2,181.9z"/>
				<path class="st17" d="M167.6,183.1l-1.4-0.2c-0.2,0-0.3,0.5-0.3,0.5l0,6l1.8,0.2L167.6,183.1z"/>
				<path class="st17" d="M167.1,184.3l-1.4-0.2c-0.2,0-0.3,0.5-0.3,0.5l0,6l1.8,0.2L167.1,184.3z"/>
				<path class="st17" d="M173.3,178.8l-1.4-0.2c-0.2,0-0.3,0.5-0.3,0.5l0,6l1.8,0.2L173.3,178.8z"/>
				<path class="st17" d="M172.8,180.1l-1.4-0.2c-0.2,0-0.3,0.5-0.3,0.5l0,6l1.8,0.2L172.8,180.1z"/>
				<path class="st17" d="M172.2,181.3l-1.4-0.2c-0.2,0-0.3,0.5-0.3,0.5l0,6l1.8,0.2L172.2,181.3z"/>
				<path class="st17" d="M171.6,182.4l-1.4-0.2c-0.2,0-0.3,0.5-0.3,0.5l0,6l1.8,0.2L171.6,182.4z"/>
				<path class="st17" d="M171.1,183.6l-1.4-0.2c-0.2,0-0.3,0.5-0.3,0.5l0,6l1.8,0.2L171.1,183.6z"/>
				<path class="st17" d="M170.6,184.8l-1.4-0.2c-0.2,0-0.3,0.5-0.3,0.5l0,6l1.8,0.2L170.6,184.8z"/>
				<path class="st17" d="M176.8,179.3l-1.4-0.2c-0.2,0-0.3,0.5-0.3,0.5l0,6l1.8,0.2L176.8,179.3z"/>
				<path class="st17" d="M176.2,180.6l-1.4-0.2c-0.2,0-0.3,0.5-0.3,0.5l0,6l1.8,0.2L176.2,180.6z"/>
				<path class="st17" d="M175.6,181.8l-1.4-0.2c-0.2,0-0.3,0.5-0.3,0.5l0,6l1.8,0.2L175.6,181.8z"/>
				<path class="st17" d="M175,182.9l-1.4-0.2c-0.2,0-0.3,0.5-0.3,0.5l0,6l1.8,0.2L175,182.9z"/>
				<path class="st17" d="M174.5,184.1l-1.4-0.2c-0.2,0-0.3,0.5-0.3,0.5l0,6l1.8,0.2L174.5,184.1z"/>
				<path class="st17" d="M174,185.3l-1.4-0.2c-0.2,0-0.3,0.5-0.3,0.5l0,6l1.8,0.2L174,185.3z"/>
				<path class="st17" d="M180.2,179.8l-1.4-0.2c-0.2,0-0.3,0.5-0.3,0.5l0,6l1.8,0.2L180.2,179.8z"/>
				<path class="st17" d="M179.6,181.1l-1.4-0.2c-0.2,0-0.3,0.5-0.3,0.5l0,6l1.8,0.2L179.6,181.1z"/>
				<path class="st17" d="M179.1,182.3l-1.4-0.2c-0.2,0-0.3,0.5-0.3,0.5l0,6l1.8,0.2L179.1,182.3z"/>
				<path class="st17" d="M178.5,183.4l-1.4-0.2c-0.2,0-0.3,0.5-0.3,0.5l0,6l1.8,0.2L178.5,183.4z"/>
				<path class="st17" d="M178,184.6l-1.4-0.2c-0.2,0-0.3,0.5-0.3,0.5l0,6l1.8,0.2L178,184.6z"/>
				<path class="st17" d="M177.4,185.8l-1.4-0.2c-0.2,0-0.3,0.5-0.3,0.5l0,6l1.8,0.2L177.4,185.8z"/>
				<path class="st17" d="M183.6,180.3l-1.4-0.2c-0.2,0-0.3,0.5-0.3,0.5l0,6l1.8,0.2L183.6,180.3z"/>
				<path class="st17" d="M183.1,181.6l-1.4-0.2c-0.2,0-0.3,0.5-0.3,0.5l0,6l1.8,0.2L183.1,181.6z"/>
				<path class="st17" d="M182.5,182.8l-1.4-0.2c-0.2,0-0.3,0.5-0.3,0.5l0,6l1.8,0.2L182.5,182.8z"/>
				<path class="st17" d="M181.9,183.9l-1.4-0.2c-0.2,0-0.3,0.5-0.3,0.5l0,6l1.8,0.2L181.9,183.9z"/>
				<path class="st17" d="M181.4,185.1l-1.4-0.2c-0.2,0-0.3,0.5-0.3,0.5l0,6l1.8,0.2L181.4,185.1z"/>
				<path class="st17" d="M180.9,186.3l-1.4-0.2c-0.2,0-0.3,0.5-0.3,0.5l0,6l1.8,0.2L180.9,186.3z"/>
				<path class="st17" d="M187.1,180.8l-1.4-0.2c-0.2,0-0.3,0.5-0.3,0.5l0,6l1.8,0.2L187.1,180.8z"/>
				<path class="st17" d="M186.5,182.1l-1.4-0.2c-0.2,0-0.3,0.5-0.3,0.5l0,6l1.8,0.2L186.5,182.1z"/>
				<path class="st17" d="M185.9,183.2l-1.4-0.2c-0.2,0-0.3,0.5-0.3,0.5l0,6l1.8,0.2L185.9,183.2z"/>
				<path class="st17" d="M185.4,184.4l-1.4-0.2c-0.2,0-0.3,0.5-0.3,0.5l0,6l1.8,0.2L185.4,184.4z"/>
				<path class="st17" d="M184.8,185.6l-1.4-0.2c-0.2,0-0.3,0.5-0.3,0.5l0,6l1.8,0.2L184.8,185.6z"/>
				<path class="st17" d="M184.3,186.8l-1.4-0.2c-0.2,0-0.3,0.5-0.3,0.5l0,6l1.8,0.2L184.3,186.8z"/>
				<path class="st17" d="M190.5,181.3l-1.4-0.2c-0.2,0-0.3,0.5-0.3,0.5l0,6l1.8,0.2L190.5,181.3z"/>
				<path class="st17" d="M190,182.6l-1.4-0.2c-0.2,0-0.3,0.5-0.3,0.5l0,6l1.8,0.2L190,182.6z"/>
				<path class="st17" d="M189.4,183.7l-1.4-0.2c-0.2,0-0.3,0.5-0.3,0.5l0,6l1.8,0.2L189.4,183.7z"/>
				<path class="st17" d="M188.8,184.9l-1.4-0.2c-0.2,0-0.3,0.5-0.3,0.5l0,6l1.8,0.2L188.8,184.9z"/>
				<path class="st17" d="M188.3,186.1l-1.4-0.2c-0.2,0-0.3,0.5-0.3,0.5l0,6l1.8,0.2L188.3,186.1z"/>
				<path class="st17" d="M187.8,187.3l-1.4-0.2c-0.2,0-0.3,0.5-0.3,0.5l0,6l1.8,0.2L187.8,187.3z"/>
			</g>
			<g>
				<path class="st22" d="M201.9,173.9l-1.6-0.2c-0.3,0-0.4,0.5-0.4,0.5l0,6l2.1,0.2L201.9,173.9z"/>
				<path class="st22" d="M201.3,175l-1.6-0.2c-0.3,0-0.4,0.5-0.4,0.5l0,6l2.1,0.2L201.3,175z"/>
				<path class="st22" d="M200.8,176.1l-1.6-0.2c-0.3,0-0.4,0.5-0.4,0.5l0,6l2.1,0.2L200.8,176.1z"/>
				<path class="st22" d="M200.1,177.3l-1.6-0.2c-0.3,0-0.4,0.5-0.4,0.5l0,6l2.1,0.2L200.1,177.3z"/>
				<path class="st22" d="M199.6,178.5l-1.6-0.2c-0.3,0-0.4,0.5-0.4,0.5l0,6l2.1,0.2L199.6,178.5z"/>
			</g>
			<g>
				<path class="st22" d="M197.8,182.2l-1.6-0.2c-0.3,0-0.4,0.5-0.4,0.5l0,6l2.1,0.2L197.8,182.2z"/>
				<path class="st22" d="M197.3,183.3l-1.6-0.2c-0.3,0-0.4,0.5-0.4,0.5l0,6l2.1,0.2L197.3,183.3z"/>
				<path class="st22" d="M196.6,184.4l-1.6-0.2c-0.3,0-0.4,0.5-0.4,0.5l0,6l2.1,0.2L196.6,184.4z"/>
				<path class="st22" d="M196.1,185.4l-1.6-0.2c-0.3,0-0.4,0.5-0.4,0.5l0,6l2.1,0.2L196.1,185.4z"/>
				<path class="st22" d="M195.4,186.6l-1.6-0.2c-0.3,0-0.4,0.5-0.4,0.5l0,6l2.1,0.2L195.4,186.6z"/>
			</g>
		</g>
	</g>
</g>
<g id="CALL_OUT">
	<g>
		<polygon class="st23" points="24.9,133.5 55.4,72 55.4,95.4 24.9,156.5 		"/>
		<polyline class="st23" points="55.2,71.7 48.5,71 18,132.5 18,155.5 24.9,156.5 		"/>
		<line class="st23" x1="18" y1="132.5" x2="24.9" y2="133.5"/>
		<path class="st24" d="M52.4,70.5L20.8,134l-0.1,11.9c0,0,1,0.5,0.1,2.5l-0.1,11.9l1.9-4.1"/>
		<line class="st23" x1="18.1" y1="144.2" x2="24.8" y2="145.1"/>
		<polygon class="st23" points="58.8,105.6 53.1,104.7 50.5,109.4 56.3,110.3 		"/>
		<polygon class="st23" points="56.6,110.1 50.7,109.3 50.7,115.6 56.6,116.4 		"/>
		<polyline class="st23" points="58.8,105.6 59,111 56.9,124 		"/>
		<polyline class="st23" points="50.7,115.6 48.9,119 51.2,119.3 51.8,118 53.4,118.2 52.8,119.5 55.1,119.7 56.6,116.4 56.8,128.4 
			22.9,196.2 22.9,184.3 24.5,181.3 24.5,187.4 55.1,126.3 		"/>
		<polyline class="st23" points="48.9,119 48.9,125.5 51.3,125.8 51.2,119.3 		"/>
		<polyline class="st23" points="52.8,119.5 52.8,126 55.1,126.3 55.1,119.7 		"/>
		<line class="st23" x1="48.9" y1="125.5" x2="22.6" y2="178"/>
		<polygon class="st23" points="16.7,177.5 14.5,182.1 20.5,182.9 23,178.2 		"/>
		<polygon class="st23" points="14.3,188 20.5,188.8 20.5,182.9 14.5,182.1 		"/>
		<polygon class="st23" points="16.7,191.4 22.8,192.1 20.5,188.8 14.3,188 		"/>
		<polyline class="st23" points="22.9,196.2 16.7,195.5 16.7,191.4 		"/>
		<line class="st23" x1="23" y1="178.2" x2="22.9" y2="183.8"/>
		<line class="st23" x1="24.5" y1="181.3" x2="22.9" y2="181.1"/>
		<line class="st23" x1="23.8" y1="180.9" x2="51.3" y2="125.8"/>
		<polyline class="st23" points="52.8,126 36.1,159.5 24.6,182.5 		"/>
		<line class="st25" x1="34.3" y1="159.6" x2="35.8" y2="159.8"/>
	</g>
	<g>
		<line class="st26" x1="62.3" y1="130.1" x2="97.5" y2="205.7"/>
		<line class="st27" x1="62.3" y1="130.1" x2="97.5" y2="205.7"/>
	</g>
	<g>
		<polygon class="st28" points="4.3,193.3 4.5,202.8 14.4,195.1 12.1,194.6 17.4,186.3 11.8,185.3 6.5,193.7 		"/>
		<polygon points="4.8,193.6 5.3,201.1 13.2,195.1 11.3,194.6 16.1,187.1 11.7,186.3 6.9,193.9 		"/>
	</g>
	<g>
		<polygon class="st28" points="65.6,97.6 65.1,90.1 57.5,96.6 59.4,96.9 55.5,103.7 60,104.3 63.9,97.4 		"/>
		<polygon points="65.2,97.4 64.5,91.5 58.5,96.6 60,96.9 56.5,103 60.1,103.5 63.5,97.2 		"/>
	</g>
	<g>
		<g>
			<polygon class="st29" points="27.5,87.7 22.2,79.8 16.6,87.7 19.2,87.8 19.2,93.8 25.2,93.8 25.1,87.7 			"/>
			<polygon points="26.8,87.6 22.5,81 17.8,87.6 19.9,87.7 19.9,93.1 24.7,93.1 24.5,87.6 			"/>
		</g>
		<g>
			<polygon class="st29" points="17.1,100.5 22.3,108.4 28,100.5 25.4,100.4 25.4,94.5 19.4,94.5 19.5,100.5 			"/>
			<polygon points="17.8,100.7 22.1,107.2 26.9,100.6 24.7,100.6 24.7,95.2 20.1,95.2 20,100.7 			"/>
		</g>
	</g>
</g>
</svg>
