<?xml version="1.0" encoding="UTF-8"?><!-- Generator: Adobe Illustrator 16.0.3, SVG Export Plug-In . SVG Version: 6.00 Build 0)  --><!DOCTYPE svg PUBLIC "-//W3C//DTD SVG 1.1//EN" "http://www.w3.org/Graphics/SVG/1.1/DTD/svg11.dtd">
<svg xmlns="http://www.w3.org/2000/svg" xmlns:xlink="http://www.w3.org/1999/xlink" version="1.1" x="0px" y="0px" width="170px" height="127.333px" viewBox="0 0 170 127.333" enable-background="new 0 0 170 127.333" xml:space="preserve" preserveAspectRatio="xMidYMid meet" zoomAndPan="magnify" contentScriptType="application/ecmascript" contentStyleType="text/css">
<g id="Layer_4">
</g>
<g id="outline">
</g>
<g id="wires" display="none">
	<path display="inline" fill="none" stroke="#000000" stroke-width="0.5" stroke-linecap="round" stroke-linejoin="round" d="   M252.678,118.325V58.406c0,0,1.554-6.213,5.992-6.658c0,0,8.877-2.108,16.312-0.443c0,0,30.292,7.546,29.404,36.062   c0,0-1.22,29.626-29.515,33.843c0,0-2.996,0.999-4.661,0.776c-1.664-0.222-12.761,0-12.761,0S253.233,121.32,252.678,118.325z"/>
	<path display="inline" fill="none" stroke="#000000" stroke-width="0.5" stroke-linecap="round" stroke-linejoin="round" d="   M254.454,117.054V59.931c0,0,1.423-5.925,5.49-6.347c0,0,8.134-2.01,14.947-0.423c0,0,27.758,7.194,26.944,34.38   c0,0-1.119,28.244-27.045,32.264c0,0-2.745,0.952-4.271,0.741c-1.525-0.212-11.693,0-11.693,0S254.961,119.911,254.454,117.054z"/>
	<path display="inline" fill="none" stroke="#000000" stroke-width="0.5" stroke-linecap="round" stroke-linejoin="round" d="   M255.563,116.205V61.503c0,0,1.34-5.672,5.169-6.077c0,0,7.658-1.925,14.071-0.406c0,0,26.134,6.888,25.368,32.923   c0,0-1.053,27.045-25.464,30.896c0,0-2.583,0.912-4.02,0.708c-1.437-0.203-11.009,0-11.009,0S256.042,118.94,255.563,116.205z"/>
	<path display="inline" fill="none" stroke="#000000" stroke-width="0.5" stroke-linecap="round" stroke-linejoin="round" d="   M256.229,115.25V63.065c0,0,1.268-5.413,4.887-5.798c0,0,7.239-1.837,13.302-0.387c0,0,24.705,6.571,23.98,31.408   c0,0-0.995,25.802-24.071,29.475c0,0-2.443,0.87-3.8,0.675c-1.357-0.194-10.406,0-10.406,0S256.681,117.86,256.229,115.25z"/>
</g>
<g id="details">
	<path fill="none" stroke="#000000" stroke-width="0.5" stroke-linecap="round" stroke-linejoin="round" d="M163.984,2.441   l-64.455,9.108c0,0-4.379,0.524-0.173,0.963c4.202,0.438,65.151,3.416,65.151,3.416"/>
	<path fill="none" stroke="#000000" stroke-width="0.5" stroke-linecap="round" stroke-linejoin="round" d="M97.69,11.856   c0,0-1.443,0.217-1.227,1.313c0,0-0.306,1.136,0.659,1.182c0.963,0.044,67.603,3.896,67.603,3.896"/>
	<polyline fill="none" stroke="#000000" stroke-width="0.5" stroke-linecap="round" stroke-linejoin="round" points="106.667,14.92    106.667,17.109 164.726,20.261  "/>
	
		<line fill="none" stroke="#000000" stroke-width="0.5" stroke-linecap="round" stroke-linejoin="round" x1="96.685" y1="14.219" x2="96.641" y2="18.38"/>
	
		<line fill="none" stroke="#000000" stroke-width="0.5" stroke-linecap="round" stroke-linejoin="round" x1="104.214" y1="14.876" x2="104.214" y2="17.198"/>
	<path fill="none" stroke="#000000" stroke-width="0.5" stroke-linecap="round" stroke-linejoin="round" d="M106.622,16.977   l-14.229,1.882c0,0-1.096-0.349-1.096,2.06c0,2.406,0,36.955,0,36.955s-0.132,1.183,1.534,1.401h3.545l13.88-2.102   c0,0,0.92-0.175,0.92-1.622c0-1.443,0-2.407,0-2.407s0.307-2.014-2.539-1.794l-10.948,1.576c0,0-1.313,1.052-1.313,2.715   c0,1.664,0,3.635,0,3.635"/>
	<path fill="none" stroke="#000000" stroke-width="0.5" stroke-linecap="round" stroke-linejoin="round" d="M97.689,52.796h-1.093   c0,0-1.228,0.962-1.228,2.496c0,1.531,0,3.984,0,3.984"/>
	<polyline fill="none" stroke="#000000" stroke-width="0.5" stroke-linecap="round" stroke-linejoin="round" points="95.414,57.744    96.509,57.744 111.045,55.641 164.597,58.663  "/>
	<path fill="none" stroke="#000000" stroke-width="0.5" stroke-linecap="round" stroke-linejoin="round" d="M110.958,17.284v4.161   c0,1.27-1.183,2.102-1.183,2.102l-12.26,1.665h-1.095c-1.313-0.089-1.446-1.446-1.446-1.446v-5.254c0,0,1.227,1.225,1.227,2.057   c0,0.832,0,2.932,0,2.932"/>
	<polyline fill="none" stroke="#000000" stroke-width="0.5" stroke-linecap="round" stroke-linejoin="round" points="94.975,21.094    96.202,21.094 110.871,18.993  "/>
	<path fill="none" stroke="#000000" stroke-width="0.5" stroke-linecap="round" stroke-linejoin="round" d="M97.166,25.166   c0,0-0.833-0.569-0.964-1.882"/>
	<path fill="none" stroke="#000000" stroke-width="0.5" stroke-linecap="round" stroke-linejoin="round" d="M94.976,20.568h-2.189   c0,0-0.438-0.174-0.438,0.876s0,35.993,0,35.993s0.132,0.611,1.228,0.698h1.751"/>
	<path fill="none" stroke="#000000" stroke-width="0.5" stroke-linecap="round" stroke-linejoin="round" d="M91.165,36.986H90.51   l-1.751,2.061v4.073c0,0,0.306,5.122,2.406,5.472"/>
	<path fill="none" stroke="#000000" stroke-width="0.5" stroke-linecap="round" stroke-linejoin="round" d="M91.255,38.168H90.51   l-0.657,1.317v4.071c0,0,0.086,3.064,1.402,3.502"/>
	
		<line fill="none" stroke="#000000" stroke-width="0.5" stroke-linecap="round" stroke-linejoin="round" x1="88.759" y1="42.679" x2="89.853" y2="42.679"/>
	
		<line fill="none" stroke="#000000" stroke-width="0.5" stroke-linecap="round" stroke-linejoin="round" x1="88.759" y1="39.834" x2="89.939" y2="39.834"/>
	
		<line fill="none" stroke="#000000" stroke-width="0.5" stroke-linecap="round" stroke-linejoin="round" x1="107.28" y1="23.896" x2="107.28" y2="51.438"/>
	
		<line fill="none" stroke="#000000" stroke-width="0.5" stroke-linecap="round" stroke-linejoin="round" x1="101.851" y1="14.701" x2="101.851" y2="17.548"/>
	
		<rect x="110.214" y="35.193" fill="none" stroke="#000000" stroke-width="0.5" stroke-linecap="round" stroke-linejoin="round" width="2.058" height="4.029"/>
	<polyline fill="none" stroke="#000000" stroke-width="0.5" stroke-linecap="round" stroke-linejoin="round" points="   164.202,12.118 138.15,11.241 129.523,12.336 164.641,13.782  "/>
	
		<line fill="none" stroke="#000000" stroke-width="0.5" stroke-linecap="round" stroke-linejoin="round" x1="108.112" y1="57.7" x2="164.773" y2="60.763"/>
	<path fill="none" stroke="#000000" stroke-width="0.5" stroke-linecap="round" stroke-linejoin="round" d="M164.682,60.896   l-1.838,0.831c0,0-1.311,0.438-1.311,1.928c0,1.487,0,6.566,0,6.566s0.349,1.358,1.748,1.007l1.316-0.351"/>
	<path fill="none" stroke="#000000" stroke-width="0.5" stroke-linecap="round" stroke-linejoin="round" d="M164.682,62.034   l-0.873,0.308c0,0-0.31,0.349-0.31,1.532c0,1.182,0,7.225,0,7.225"/>
	
		<line fill="none" stroke="#000000" stroke-width="0.5" stroke-linecap="round" stroke-linejoin="round" x1="161.618" y1="62.995" x2="163.5" y2="62.995"/>
	<path fill="none" stroke="#000000" stroke-width="0.5" stroke-linecap="round" stroke-linejoin="round" d="M103.472,58.398v4.116   c0,0-0.09,1.577,3.678,1.753c3.765,0.175,41.596,2.189,41.596,2.189"/>
	<polyline fill="none" stroke="#000000" stroke-width="0.5" stroke-linecap="round" stroke-linejoin="round" points="   146.119,63.828 145.944,65.405 132.982,65.142 132.982,64.529 132.105,64.443 127.728,64.006 126.853,64.268 118.357,64.006    118.357,63.215 104.608,62.779 104.608,60.763 113.28,61.641 114.855,61.026 119.67,61.641 118.619,62.078 126.853,62.69    127.99,62.515 132.369,62.515 146.205,63.392 146.205,64.092 151.81,64.092 148.833,65.142 148.833,67.07 161.443,67.772  "/>
	
		<line fill="none" stroke="#000000" stroke-width="0.5" stroke-linecap="round" stroke-linejoin="round" x1="132.105" y1="64.443" x2="132.105" y2="62.779"/>
	
		<line fill="none" stroke="#000000" stroke-width="0.5" stroke-linecap="round" stroke-linejoin="round" x1="118.357" y1="61.641" x2="118.357" y2="63.215"/>
	
		<line fill="none" stroke="#000000" stroke-width="0.5" stroke-linecap="round" stroke-linejoin="round" x1="113.28" y1="61.641" x2="113.28" y2="62.955"/>
	
		<line fill="none" stroke="#000000" stroke-width="0.5" stroke-linecap="round" stroke-linejoin="round" x1="104.608" y1="60.501" x2="161.268" y2="63.128"/>
	<polyline fill="none" stroke="#000000" stroke-width="0.5" stroke-linecap="round" stroke-linejoin="round" points="   164.773,71.446 118.796,68.995 118.97,66.807 161.533,69.26  "/>
	<polyline fill="none" stroke="#000000" stroke-width="0.5" stroke-linecap="round" stroke-linejoin="round" points="118.97,66.807    117.011,68.931 105.311,68.556  "/>
	<polyline fill="none" stroke="#000000" stroke-width="0.5" stroke-linecap="round" stroke-linejoin="round" points="   118.796,68.995 117.044,70.046 104.083,69.696  "/>
	<polyline fill="none" stroke="#000000" stroke-width="0.5" stroke-linecap="round" stroke-linejoin="round" points="   117.483,69.696 117.483,71.36 116.87,71.623 105.046,70.924  "/>
	
		<line fill="none" stroke="#000000" stroke-width="0.5" stroke-linecap="round" stroke-linejoin="round" x1="117.044" y1="69.127" x2="117.044" y2="69.915"/>
	<path fill="none" stroke="#000000" stroke-width="0.5" stroke-linecap="round" stroke-linejoin="round" d="M114.241,64.792v2.278   l-9.37,1.486l-0.876,0.878h-2.015c0,0-3.415,0.35-5.602,4.115L86.22,93.077c0,0-1.927,3.153-1.927,8.145c0,4.993,0,6.481,0,6.481"/>
	<path fill="none" stroke="#000000" stroke-width="0.5" stroke-linecap="round" stroke-linejoin="round" d="M112.927,64.443   c0,0,0.178,1.4-2.013,1.75c-2.189,0.35-10.946,1.751-10.946,1.751s-3.327-0.525-6.129,4.291L83.766,92.026   c0,0-2.188,3.067-2.188,9.195v6.569"/>
	<path fill="none" stroke="#000000" stroke-width="0.5" stroke-linecap="round" stroke-linejoin="round" d="M104.608,66.892h-9.369   l-2.19,0.615c0,0-2.363,0.526-4.904,4.641c-2.539,4.117-9.983,19.266-9.983,19.266s-2.453,4.555-2.453,9.372s0,6.831,0,6.831h8.494   "/>
	<path fill="none" stroke="#000000" stroke-width="0.5" stroke-linecap="round" stroke-linejoin="round" d="M88.146,72.147   l5.693,0.088c0,0,2.189,0.438,2.189,1.491"/>
	<path fill="none" stroke="#000000" stroke-width="0.5" stroke-linecap="round" stroke-linejoin="round" d="M77.901,91.676h5.865   c0,0,2.19,0.615,2.19,1.49"/>
	
		<line fill="none" stroke="#000000" stroke-width="0.5" stroke-linecap="round" stroke-linejoin="round" x1="96.376" y1="59.276" x2="96.376" y2="66.632"/>
	
		<line fill="none" stroke="#000000" stroke-width="0.5" stroke-linecap="round" stroke-linejoin="round" x1="102.156" y1="58.575" x2="102.156" y2="66.892"/>
	
		<line fill="none" stroke="#000000" stroke-width="0.5" stroke-linecap="round" stroke-linejoin="round" x1="97.166" y1="59.45" x2="97.166" y2="66.457"/>
	<path fill="none" stroke="#000000" stroke-width="0.5" stroke-linecap="round" stroke-linejoin="round" d="M107.061,57.7   c0,0-1.489,1.576,0,2.627"/>
	
		<line fill="none" stroke="#000000" stroke-width="0.5" stroke-linecap="round" stroke-linejoin="round" x1="126.853" y1="62.69" x2="126.853" y2="63.828"/>
	
		<line fill="none" stroke="#000000" stroke-width="0.5" stroke-linecap="round" stroke-linejoin="round" x1="142.528" y1="63.392" x2="142.528" y2="65.142"/>
	
		<line fill="none" stroke="#000000" stroke-width="0.5" stroke-linecap="round" stroke-linejoin="round" x1="104.872" y1="68.556" x2="104.872" y2="111.292"/>
	<path fill="none" stroke="#000000" stroke-width="0.5" stroke-linecap="round" stroke-linejoin="round" d="M164.773,125.128   c0,0-2.804,0.79-3.069-0.787v-0.877l-57.445-2.713h-2.103l-2.451-0.174h-1.487c0,0-0.441-0.352-0.878-1.927h-1.577v0.877   c0,0,0.438,0.875-1.313,1.05c-1.75,0.174-10.684,1.313-10.684,1.313s-5.341,2.452-7.531-5.428v-6.83h2.015h1.752v3.065   c0,0,0.613,6.303,3.501,4.814l2.191,1.314c0,0,2.277,1.663,5.516-2.364h1.052v-0.877h7.181v0.612h5.515l42.102,2.585"/>
	<polyline fill="none" stroke="#000000" stroke-width="0.5" stroke-linecap="round" stroke-linejoin="round" points="   95.589,118.386 95.589,114.008 104.697,114.008 104.697,118.563 147.256,121.451  "/>
	<polyline fill="none" stroke="#000000" stroke-width="0.5" stroke-linecap="round" stroke-linejoin="round" points="   99.529,114.446 99.529,116.196 99.529,118.825 97.34,118.825  "/>
	
		<line fill="none" stroke="#000000" stroke-width="0.5" stroke-linecap="round" stroke-linejoin="round" x1="99.529" y1="118.825" x2="104.697" y2="118.563"/>
	
		<line fill="none" stroke="#000000" stroke-width="0.5" stroke-linecap="round" stroke-linejoin="round" x1="99.88" y1="119" x2="99.88" y2="120.577"/>
	
		<line fill="none" stroke="#000000" stroke-width="0.5" stroke-linecap="round" stroke-linejoin="round" x1="106.448" y1="118.825" x2="106.448" y2="120.839"/>
	<path fill="none" stroke="#000000" stroke-width="0.5" stroke-linecap="round" stroke-linejoin="round" d="M164.773,115.146   l-2.279,0.614c0,0-0.612,0.347-0.612,1.487c0,1.138,0,6.216,0,6.216"/>
	<path fill="none" stroke="#000000" stroke-width="0.5" stroke-linecap="round" stroke-linejoin="round" d="M164.773,116.196   l-0.703,0.179c0,0-0.437,0.086-0.437,0.699c0,0.611,0,8.055,0,8.055"/>
	<polyline fill="none" stroke="#000000" stroke-width="0.5" stroke-linecap="round" stroke-linejoin="round" points="   101.718,114.008 101.718,112.255 102.595,111.381 104.697,111.556 164.773,114.708  "/>
	<polyline fill="none" stroke="#000000" stroke-width="0.5" stroke-linecap="round" stroke-linejoin="round" points="   101.718,112.255 150.06,115.583 147.869,116.021 147.256,117.51 147.387,121.387 148.878,122.875  "/>
	
		<line fill="none" stroke="#000000" stroke-width="0.5" stroke-linecap="round" stroke-linejoin="round" x1="147.869" y1="116.021" x2="161.882" y2="116.811"/>
	<polyline fill="none" stroke="#000000" stroke-width="0.5" stroke-linecap="round" stroke-linejoin="round" points="   99.903,119.174 102.662,119.307 106.47,119.307  "/>
	
		<line fill="none" stroke="#000000" stroke-width="0.5" stroke-linecap="round" stroke-linejoin="round" x1="102.662" y1="119.307" x2="102.662" y2="120.817"/>
	<path fill="none" stroke="#000000" stroke-width="0.5" stroke-linecap="round" stroke-linejoin="round" d="M95.763,119.044   l-13.135,1.573c0,0-2.365-0.063-3.481-4.531v-6.436"/>
	<polyline fill="none" stroke="#000000" stroke-width="0.5" stroke-linecap="round" stroke-linejoin="round" points="   95.589,114.008 97.801,113.265 97.801,110.834 104.697,110.834  "/>
	<path fill="none" stroke="#000000" stroke-width="0.5" stroke-linecap="round" stroke-linejoin="round" d="M104.828,107.877   l-4.401,0.261c0,0-1.444-0.524-2.43-2.231c0,0,0.526-3.151-4.926-3.81c0,0-2.757,0.198-3.676,2.496l-0.988,1.775   c0,0,0.135,1.116-3.94,1.314"/>
	<path fill="none" stroke="#000000" stroke-width="0.5" stroke-linecap="round" stroke-linejoin="round" d="M87.817,107.023"/>
	<path fill="none" stroke="#000000" stroke-width="0.5" stroke-linecap="round" stroke-linejoin="round" d="M84.336,107.877   c0,0-2.627,2.364,0.33,6.505c0,0,2.889,1.574,4.138-2.563c0,0,0.46-0.659-0.526-5.125"/>
	<path fill="none" stroke="#000000" stroke-width="0.5" stroke-linecap="round" stroke-linejoin="round" d="M87.162,107.354   c0,0,1.772,7.29-2.496,7.028"/>
	<polyline fill="none" stroke="#000000" stroke-width="0.5" stroke-linecap="round" stroke-linejoin="round" points="   90.577,103.084 96.354,110.307 104.697,110.307  "/>
	<path fill="none" stroke="#000000" stroke-width="0.5" stroke-linecap="round" stroke-linejoin="round" d="M93.071,102.097   c0,0,3.942,1.708,3.614,3.744c0,0,0.13,2.825,3.742,2.825h4.139"/>
	<polyline fill="none" stroke="#000000" stroke-width="0.5" stroke-linecap="round" stroke-linejoin="round" points="   77.901,107.683 77.901,108.469 77.113,109.323  "/>
	<polyline fill="none" stroke="#000000" stroke-width="0.5" stroke-linecap="round" stroke-linejoin="round" points="   79.081,107.683 79.081,108.469 78.294,109.323  "/>
	<path fill="none" stroke="#000000" stroke-width="0.5" stroke-linecap="round" stroke-linejoin="round" d="M100.362,69.784   c0,0,0.196-1.182-0.985-1.84"/>
	
		<line fill="none" stroke="#000000" stroke-width="0.5" stroke-linecap="round" stroke-linejoin="round" x1="99.64" y1="67.944" x2="92.611" y2="67.944"/>
	<path fill="none" stroke="#000000" stroke-width="0.5" stroke-linecap="round" stroke-linejoin="round" d="M104.171,92.278   c0,5.35-2.471,9.688-5.518,9.688c-3.046,0-5.518-4.338-5.518-9.688c0-5.348,2.472-9.686,5.518-9.686   C101.7,82.592,104.171,86.931,104.171,92.278z"/>
	<path fill="none" stroke="#000000" stroke-width="0.5" stroke-linecap="round" stroke-linejoin="round" d="M101.806,92.377   c0,4.172-1.85,7.554-4.138,7.554c-2.283,0-4.137-3.382-4.137-7.554c0-4.17,1.854-7.554,4.137-7.554   C99.956,84.823,101.806,88.207,101.806,92.377z"/>
	<path fill="none" stroke="#000000" stroke-width="0.5" stroke-linecap="round" stroke-linejoin="round" d="M96.027,85.55   c0,0,3.678-0.987,4.137,6.236c0,0,0.327,7.29-4.925,6.764"/>
	
		<ellipse fill="none" stroke="#000000" stroke-width="0.5" stroke-linecap="round" stroke-linejoin="round" cx="95.928" cy="92.083" rx="1.872" ry="3.251"/>
	<path fill="none" stroke="#000000" stroke-width="0.5" stroke-linecap="round" stroke-linejoin="round" d="M144.828,87.847"/>
	
		<ellipse fill="none" stroke="#000000" stroke-width="0.5" stroke-linecap="round" stroke-linejoin="round" cx="96.223" cy="92.114" rx="1.313" ry="2.628"/>
	
		<ellipse fill="none" stroke="#000000" stroke-width="0.5" stroke-linecap="round" stroke-linejoin="round" cx="96.257" cy="92.148" rx="0.558" ry="1.149"/>
	<polygon fill="none" stroke="#000000" stroke-width="0.5" stroke-linecap="round" stroke-linejoin="round" points="138.15,79.549    134.963,81.498 132.02,79.285 132.02,74.951 134.952,72.762 138.281,75.389  "/>
	<polyline fill="none" stroke="#000000" stroke-width="0.5" stroke-linecap="round" stroke-linejoin="round" points="   132.325,74.818 132.325,78.981 135.216,81.169  "/>
	<g>
		<polygon fill="none" stroke="#000000" stroke-width="0.5" stroke-linecap="round" stroke-linejoin="round" points="134.383,87.21     131.201,89.161 128.256,86.947 128.256,82.614 131.188,80.425 134.515,83.051   "/>
		<polyline fill="none" stroke="#000000" stroke-width="0.5" stroke-linecap="round" stroke-linejoin="round" points="    128.562,82.481 128.562,86.644 131.451,88.831   "/>
	</g>
	<g>
		<polygon fill="none" stroke="#000000" stroke-width="0.5" stroke-linecap="round" stroke-linejoin="round" points="    141.608,87.474 138.423,89.424 135.479,87.21 135.479,82.877 138.412,80.686 141.742,83.315   "/>
		<polyline fill="none" stroke="#000000" stroke-width="0.5" stroke-linecap="round" stroke-linejoin="round" points="    135.786,82.746 135.786,86.903 138.673,89.095   "/>
	</g>
	<g>
		<polygon fill="none" stroke="#000000" stroke-width="0.5" stroke-linecap="round" stroke-linejoin="round" points="145.813,95.75     142.629,97.697 139.682,95.487 139.682,91.152 142.615,88.964 145.944,91.59   "/>
		<polyline fill="none" stroke="#000000" stroke-width="0.5" stroke-linecap="round" stroke-linejoin="round" points="    139.988,91.022 139.988,95.18 142.877,97.37   "/>
	</g>
	<g>
		<polygon fill="none" stroke="#000000" stroke-width="0.5" stroke-linecap="round" stroke-linejoin="round" points="    153.037,96.143 149.851,98.092 146.907,95.881 146.907,91.546 149.843,89.357 153.169,91.984   "/>
		<polyline fill="none" stroke="#000000" stroke-width="0.5" stroke-linecap="round" stroke-linejoin="round" points="    147.214,91.413 147.214,95.574 150.104,97.763   "/>
	</g>
	<g>
		<polygon fill="none" stroke="#000000" stroke-width="0.5" stroke-linecap="round" stroke-linejoin="round" points="    149.753,103.632 146.568,105.581 143.624,103.369 143.624,99.034 146.556,96.843 149.885,99.472   "/>
		<polyline fill="none" stroke="#000000" stroke-width="0.5" stroke-linecap="round" stroke-linejoin="round" points="    143.93,98.902 143.93,103.063 146.818,105.251   "/>
	</g>
	<g>
		<polygon fill="none" stroke="#000000" stroke-width="0.5" stroke-linecap="round" stroke-linejoin="round" points="    156.978,104.024 153.791,105.975 150.847,103.763 150.847,99.428 153.781,97.237 157.109,99.866   "/>
		<polyline fill="none" stroke="#000000" stroke-width="0.5" stroke-linecap="round" stroke-linejoin="round" points="    151.153,99.295 151.153,103.456 154.044,105.646   "/>
	</g>
	<g>
		<polygon fill="none" stroke="#000000" stroke-width="0.5" stroke-linecap="round" stroke-linejoin="round" points="    152.776,80.249 149.589,82.199 146.644,79.987 146.644,75.652 149.579,73.461 152.905,76.089   "/>
		<polyline fill="none" stroke="#000000" stroke-width="0.5" stroke-linecap="round" stroke-linejoin="round" points="146.95,75.52     146.95,79.682 149.843,81.869   "/>
	</g>
	<g>
		<polygon fill="none" stroke="#000000" stroke-width="0.5" stroke-linecap="round" stroke-linejoin="round" points="    159.998,80.643 156.814,82.592 153.867,80.381 153.867,76.046 156.8,73.856 160.129,76.485   "/>
		<polyline fill="none" stroke="#000000" stroke-width="0.5" stroke-linecap="round" stroke-linejoin="round" points="    154.173,75.914 154.173,80.075 157.063,82.264   "/>
	</g>
	<g>
		<polygon fill="none" stroke="#000000" stroke-width="0.5" stroke-linecap="round" stroke-linejoin="round" points="    119.539,86.466 116.355,88.414 113.411,86.203 113.411,81.869 116.343,79.682 119.67,82.307   "/>
		<polyline fill="none" stroke="#000000" stroke-width="0.5" stroke-linecap="round" stroke-linejoin="round" points="    113.715,81.738 113.715,85.899 116.606,88.087   "/>
	</g>
	<g>
		<polygon fill="none" stroke="#000000" stroke-width="0.5" stroke-linecap="round" stroke-linejoin="round" points="123.393,94.61     120.208,96.56 117.264,94.346 117.264,90.012 120.197,87.825 123.523,90.45   "/>
		<polyline fill="none" stroke="#000000" stroke-width="0.5" stroke-linecap="round" stroke-linejoin="round" points="    117.57,89.882 117.57,94.04 120.459,96.23   "/>
	</g>
	<g>
		<polygon fill="none" stroke="#000000" stroke-width="0.5" stroke-linecap="round" stroke-linejoin="round" points="    127.247,102.756 124.061,104.704 121.116,102.493 121.116,98.159 124.05,95.968 127.378,98.596   "/>
		<polyline fill="none" stroke="#000000" stroke-width="0.5" stroke-linecap="round" stroke-linejoin="round" points="    121.423,98.028 121.423,102.186 124.313,104.376   "/>
	</g>
	<g>
		<polygon fill="none" stroke="#000000" stroke-width="0.5" stroke-linecap="round" stroke-linejoin="round" points="131.099,110.9     127.914,112.851 124.968,110.637 124.968,106.302 127.902,104.113 131.23,106.739   "/>
		<polyline fill="none" stroke="#000000" stroke-width="0.5" stroke-linecap="round" stroke-linejoin="round" points="    125.277,106.172 125.277,110.332 128.165,112.519   "/>
	</g>
	<polygon fill="none" stroke="#000000" stroke-width="0.5" stroke-linecap="round" stroke-linejoin="round" points="123.13,78.718    119.946,80.665 117,78.454 117,74.119 119.935,71.927 123.261,74.557  "/>
	<polyline fill="none" stroke="#000000" stroke-width="0.5" stroke-linecap="round" stroke-linejoin="round" points="   117.308,73.988 117.308,78.148 120.197,80.337  "/>
	<g>
		<polygon fill="none" stroke="#000000" stroke-width="0.5" stroke-linecap="round" stroke-linejoin="round" points="    109.206,87.517 109.206,79.943 109.951,79.943 111.922,81.607 111.922,86.205 109.951,87.517   "/>
		
			<line fill="none" stroke="#000000" stroke-width="0.5" stroke-linecap="round" stroke-linejoin="round" x1="109.951" y1="79.943" x2="109.951" y2="87.385"/>
	</g>
	<g>
		<polygon fill="none" stroke="#000000" stroke-width="0.5" stroke-linecap="round" stroke-linejoin="round" points="    109.338,103.149 109.338,95.574 110.083,95.574 112.052,97.237 112.052,101.838 110.083,103.149   "/>
		
			<line fill="none" stroke="#000000" stroke-width="0.5" stroke-linecap="round" stroke-linejoin="round" x1="110.083" y1="95.574" x2="110.083" y2="103.02"/>
	</g>
	
		<line fill="none" stroke="#000000" stroke-width="0.5" stroke-linecap="round" stroke-linejoin="round" x1="121.314" y1="64.859" x2="121.314" y2="66.96"/>
	<polyline fill="none" stroke="#000000" stroke-width="0.5" stroke-linecap="round" stroke-linejoin="round" points="   114.153,38.958 114.153,27.837 134.208,28.888 134.208,40.536 113.893,38.958  "/>
	<polyline fill="none" stroke="#000000" stroke-width="0.5" stroke-linecap="round" stroke-linejoin="round" points="   114.153,27.837 117.219,27.137 136.923,28.276 136.923,39.834 134.208,40.536  "/>
	
		<line fill="none" stroke="#000000" stroke-width="0.5" stroke-linecap="round" stroke-linejoin="round" x1="134.208" y1="28.888" x2="136.923" y2="28.451"/>
	<polyline fill="none" stroke="#000000" stroke-width="0.5" stroke-linecap="round" stroke-linejoin="round" points="   134.032,36.508 116.957,38.958 116.957,28.012  "/>
	<polyline fill="none" stroke="#000000" stroke-width="0.5" stroke-linecap="round" stroke-linejoin="round" points="   140.427,40.797 140.427,29.678 160.481,30.728 160.481,42.372 140.163,40.797  "/>
	<polyline fill="none" stroke="#000000" stroke-width="0.5" stroke-linecap="round" stroke-linejoin="round" points="   140.427,29.678 143.49,28.976 163.193,30.114 163.193,41.674 160.481,42.372  "/>
	
		<line fill="none" stroke="#000000" stroke-width="0.5" stroke-linecap="round" stroke-linejoin="round" x1="160.481" y1="30.728" x2="163.193" y2="30.29"/>
	<polyline fill="none" stroke="#000000" stroke-width="0.5" stroke-linecap="round" stroke-linejoin="round" points="   160.305,38.345 143.228,40.797 143.228,29.852  "/>
	<path fill="none" stroke="#000000" stroke-width="0.5" stroke-linecap="round" stroke-linejoin="round" d="M103.207,38.239   c0,0.639-0.244,1.158-0.545,1.158c-0.305,0-0.549-0.519-0.549-1.158c0-0.645,0.245-1.164,0.549-1.164   C102.963,37.075,103.207,37.594,103.207,38.239z"/>
	<path fill="none" stroke="#000000" stroke-width="0.5" stroke-linecap="round" stroke-linejoin="round" d="M100.165,39.659   c-0.302,0-0.547-0.655-0.547-1.467c0-0.809,0.245-1.467,0.547-1.467"/>
	<path fill="none" stroke="#000000" stroke-width="0.5" stroke-linecap="round" stroke-linejoin="round" d="M103.472,38.239   c0,0.832-0.471,1.508-1.052,1.508c-0.581,0-1.051-0.677-1.051-1.508c0-0.837,0.47-1.514,1.051-1.514   C103,36.725,103.472,37.402,103.472,38.239z"/>
	<path fill="none" stroke="#000000" stroke-width="0.5" stroke-linecap="round" stroke-linejoin="round" d="M101.457,36.462   c0,0-0.743-1.619-2.058,0.354c0,0-0.439,1.576,0,2.538c0,0,0.612,1.621,1.838,0.306"/>
	
		<line fill="none" stroke="#000000" stroke-width="0.5" stroke-linecap="round" stroke-linejoin="round" x1="102.025" y1="39.659" x2="100.143" y2="39.659"/>
	
		<line fill="none" stroke="#000000" stroke-width="0.5" stroke-linecap="round" stroke-linejoin="round" x1="102.42" y1="36.725" x2="100.186" y2="36.725"/>
	<path fill="none" stroke="#000000" stroke-width="0.5" stroke-linecap="round" stroke-linejoin="round" d="M98.523,32.371   c0,0.881-0.414,1.597-0.921,1.597c-0.508,0-0.917-0.716-0.917-1.597c0-0.885,0.409-1.601,0.917-1.601   C98.109,30.77,98.523,31.486,98.523,32.371z"/>
	<path fill="none" stroke="#000000" stroke-width="0.5" stroke-linecap="round" stroke-linejoin="round" d="M99.048,32.345   c0,1.454-0.687,2.629-1.532,2.629c-0.846,0-1.533-1.175-1.533-2.629c0-1.448,0.687-2.625,1.533-2.625   C98.361,29.72,99.048,30.896,99.048,32.345z"/>
	<path fill="none" stroke="#000000" stroke-width="0.5" stroke-linecap="round" stroke-linejoin="round" d="M13.927,33.397v-8.537   c0,0-0.656-2.235,2.628-2.891c0,0,6.305-0.854,9.917,0.197c0,0,19.574,4.335,20.688,30.211c0,0-0.262,24.85-19.966,27.915H15.768   c0,0-2.957-0.656-2.957-3.021c0-2.364,0-8.733,0-8.733"/>
	<path fill="none" stroke="#000000" stroke-width="0.5" stroke-linecap="round" stroke-linejoin="round" d="M12.973,32.768v-9.131   c0,0-0.714-2.388,2.848-3.088c0,0,6.833-0.913,10.751,0.209c0,0,20.957,4.538,22.167,32.212c0,0,0.525,20.36-14.383,27.258   l-0.591-0.986c0,0-2.365,1.248-6.569,1.05"/>
	<path fill="none" stroke="#000000" stroke-width="0.5" stroke-linecap="round" stroke-linejoin="round" d="M33.764,79.242   c0,0,13.528-5.978,13.396-25.352"/>
	<path fill="none" stroke="#000000" stroke-width="0.5" stroke-linecap="round" stroke-linejoin="round" d="M14.058,67.487v9.98   c0,0,0.199,1.183,1.643,1.315c1.445,0.131,7.685,0.33,7.685,0.33s21.149,1.355,22.288-26.491c0,0,1.051-20.406-17.078-28.024   c0,0-7.88-3.852-11.822,7.267v13.532l11.123-1.535c2.757-0.129,2.933,1.097,2.933,1.097v2.318   c-0.438,2.978-1.749,5.344-1.749,5.344v6.042c-0.221,3.283-1.184,7.969-1.184,7.969"/>
	<path fill="none" stroke="#000000" stroke-width="0.5" stroke-linecap="round" stroke-linejoin="round" d="M29.034,22.933   c0,0-10.507-3.853-13.573,9.108v3.501"/>
	<path fill="none" stroke="#000000" stroke-width="0.5" stroke-linecap="round" stroke-linejoin="round" d="M30.612,78.015h-7.095   c0,0-1.49-0.613-1.49-2.803c0-2.187,0-13.747,0-13.747"/>
	<polyline fill="none" stroke="#000000" stroke-width="0.5" stroke-linecap="round" stroke-linejoin="round" points="15.768,80.292    15.768,79.155 22.991,77.839  "/>
	<polyline fill="none" stroke="#000000" stroke-width="0.5" stroke-linecap="round" stroke-linejoin="round" points="13.095,76.701    13.883,76.701 21.852,75.652  "/>
	<path fill="none" stroke="#000000" stroke-width="0.5" stroke-linecap="round" stroke-linejoin="round" d="M16.336,20.304   l12.434-1.751c0,0,23.47-0.173,27.412,29.775c0,0,1.838,12.173-4.991,20.932c0,0-6.219,10.244-16.464,11.471l-0.438-0.438"/>
	<path fill="none" stroke="#000000" stroke-width="0.5" stroke-linecap="round" stroke-linejoin="round" d="M28.596,24.597   c0,0-3.853,3.064-3.853,7.618c0,4.553,0,11.821,0,11.821"/>
	<path fill="none" stroke="#000000" stroke-width="0.5" stroke-linecap="round" stroke-linejoin="round" d="M12.921,32.785"/>
	
		<line fill="none" stroke="#000000" stroke-width="0.5" stroke-linecap="round" stroke-linejoin="round" x1="13.732" y1="24.664" x2="20.298" y2="23.811"/>
	<path fill="none" stroke="#000000" stroke-width="0.5" stroke-linecap="round" stroke-linejoin="round" d="M22.336,21.706   c0,0-0.855,0.92-0.525,1.445"/>
	<polyline fill="none" stroke="#000000" stroke-width="0.5" stroke-linecap="round" stroke-linejoin="round" points="15.571,34.514    16.686,34.974 24.567,33.856  "/>
	<path fill="none" stroke="#000000" stroke-width="0.5" stroke-linecap="round" stroke-linejoin="round" d="M16.686,37.011   L13.6,33.332c0,0-2.957-2.628-6.567,0.657c0,0-2.366,1.117-3.811,8.209v14.648c0,0,0.461,6.108,1.644,9.063   c0,0,1.225,2.824,4.508,3.263h1.535c0,0,2.102,0.305,3.852-2.847"/>
	<path fill="none" stroke="#000000" stroke-width="0.5" stroke-linecap="round" stroke-linejoin="round" d="M14.76,66.412h0.526   v1.883h3.59V65.58c0,0,0.569-4.245,3.634-4.157c0,0,2.715-1.052,3.502,5.691"/>
	<path fill="none" stroke="#000000" stroke-width="0.5" stroke-linecap="round" stroke-linejoin="round" d="M21.942,62.602   c0,0,1.881-1.223,2.756,2.716"/>
	<polyline fill="none" stroke="#000000" stroke-width="0.5" stroke-linecap="round" stroke-linejoin="round" points="24.698,65.405    24.698,67.419 26.452,67.419 26.452,66.981 27.896,66.981 27.896,66.632 43.44,64.881  "/>
	<polyline fill="none" stroke="#000000" stroke-width="0.5" stroke-linecap="round" stroke-linejoin="round" points="43.877,63.215    29.822,65.405 28.072,65.405  "/>
	
		<line fill="none" stroke="#000000" stroke-width="0.5" stroke-linecap="round" stroke-linejoin="round" x1="30.171" y1="44.213" x2="44.184" y2="42.418"/>
	<path fill="none" stroke="#000000" stroke-width="0.5" stroke-linecap="round" stroke-linejoin="round" d="M41.558,36.113   c0,0-3.896,5.339,2.538,6.217"/>
	<path fill="none" stroke="#000000" stroke-width="0.5" stroke-linecap="round" stroke-linejoin="round" d="M42.213,37.6   c0,0-1.4,3.897,1.752,4.206"/>
	<path fill="none" stroke="#000000" stroke-width="0.5" stroke-linecap="round" stroke-linejoin="round" d="M40.332,34.143h-1.533   c0,0-0.963,0.263-0.963,1.882c0,1.619,0,7.225,0,7.225"/>
	<path fill="none" stroke="#000000" stroke-width="0.5" stroke-linecap="round" stroke-linejoin="round" d="M39.323,34.274   c0,0-0.963,0.786-0.963,1.312v21.675c0,0-0.218,2.541,1.972,2.32l4.598-0.568"/>
	
		<line fill="none" stroke="#000000" stroke-width="0.5" stroke-linecap="round" stroke-linejoin="round" x1="44.797" y1="60.109" x2="28.728" y2="62.209"/>
	<polyline fill="none" stroke="#000000" stroke-width="0.5" stroke-linecap="round" stroke-linejoin="round" points="29.208,62.298    29.208,65.931 27.896,66.632  "/>
	<path fill="none" stroke="#000000" stroke-width="0.5" stroke-linecap="round" stroke-linejoin="round" d="M37.748,51.351v6.217   c0,0,0.438,2.145,1.97,2.013"/>
	<path fill="none" stroke="#000000" stroke-width="0.5" stroke-linecap="round" stroke-linejoin="round" d="M45.627,50.169   L20.89,53.758c0,0,0.043,1.793-0.745,1.883c-0.787,0.088-2.539,0-2.539,0v-1.972l3.284,0.089"/>
	<path fill="none" stroke="#000000" stroke-width="0.5" stroke-linecap="round" stroke-linejoin="round" d="M29.08,53.539   c0,0-0.045,0.569-1.314,1.095c-1.271,0.525-0.746,0-0.746,0s-0.394,1.4-1.181,1.969c-0.789,0.57-7.226,0.876-7.226,0.876   s-0.701-0.524-1.007-1.838"/>
	
		<line fill="none" stroke="#000000" stroke-width="0.5" stroke-linecap="round" stroke-linejoin="round" x1="20.145" y1="55.641" x2="26.933" y2="54.853"/>
	
		<ellipse fill="none" stroke="#000000" stroke-width="0.5" stroke-linecap="round" stroke-linejoin="round" cx="43.877" cy="54.415" rx="1.401" ry="2.627"/>
	
		<ellipse fill="none" stroke="#000000" stroke-width="0.5" stroke-linecap="round" stroke-linejoin="round" cx="43.79" cy="54.197" rx="1.752" ry="2.934"/>
	
		<ellipse fill="none" stroke="#000000" stroke-width="0.5" stroke-linecap="round" stroke-linejoin="round" cx="43.066" cy="54.263" rx="2.561" ry="3.217"/>
	<polyline fill="none" stroke="#000000" stroke-width="0.5" stroke-linecap="round" stroke-linejoin="round" points="18.176,47.979    19.445,47.979 30.829,46.315  "/>
	<path fill="none" stroke="#000000" stroke-width="0.5" stroke-linecap="round" stroke-linejoin="round" d="M19.445,55.729v-1.971   v-0.877c0,0-0.832-2.233-1.621-5.384c0,0-1.006-1.578-2.188,0.218v12.436l1.272,8.099"/>
	<path fill="none" stroke="#000000" stroke-width="0.5" stroke-linecap="round" stroke-linejoin="round" d="M20.89,53.758   c0,0-0.787-2.366-1.444-5.779c0,0-0.438-2.847-2.672-2.583c0,0-1.751-0.308-2.277,1.969v12.348l0.79,6.699"/>
	<path fill="none" stroke="#000000" stroke-width="0.5" stroke-linecap="round" stroke-linejoin="round" d="M14.497,47.804h1.839   c0,0,0.35-0.703,1.225-0.482"/>
	<polyline fill="none" stroke="#000000" stroke-width="0.5" stroke-linecap="round" stroke-linejoin="round" points="16.993,47.365    16.993,53.583 17.65,53.583  "/>
	<path fill="none" stroke="#000000" stroke-width="0.5" stroke-linecap="round" stroke-linejoin="round" d="M24.743,39.834   c0,0,1.313-1.093,2.934-4.073c0,0,0.35-0.873,1.751-1.094c1.401-0.218,10.29-1.312,10.29-1.312"/>
	<path fill="none" stroke="#000000" stroke-width="0.5" stroke-linecap="round" stroke-linejoin="round" d="M35.602,28.931   l-8.32,1.01c0,0-1.883,0.522-2.539,1.836"/>
	<path fill="none" stroke="#000000" stroke-width="0.5" stroke-linecap="round" stroke-linejoin="round" d="M37.441,30.682   l-8.54,1.009c0,0-0.743-0.175-2.275,1.75l-1.883,2.801"/>
	<path fill="none" stroke="#000000" stroke-width="0.5" stroke-linecap="round" stroke-linejoin="round" d="M27.282,29.94   c0,0,1.666,0,1.798,1.619v3.196"/>
	<path fill="none" stroke="#000000" stroke-width="0.5" stroke-linecap="round" stroke-linejoin="round" d="M24.743,32.215   c0,0,0.964,0.129,1.883,1.226l1.05,2.191"/>
	<path fill="none" stroke="#000000" stroke-width="0.5" stroke-linecap="round" stroke-linejoin="round" d="M16.948,37.777   l-3.5-3.502c0,0-1.884-0.833-3.198,0.131c0,0-3.765,2.581-4.116,7.4v17.427c0,0,0,7.18,4.161,8.627h2.409l1.707-1.754v-0.394h0.788   "/>
	<path fill="none" stroke="#000000" stroke-width="0.5" stroke-linecap="round" stroke-linejoin="round" d="M16.73,41.369   l-3.502-3.504c0,0-3.372-3.197-5.253,4.159v16.857c0,0-0.438,4.466,3.064,5.737l1.4,0.087c0,0,1.666-0.613,2.103-4.029"/>
	
		<line fill="none" stroke="#000000" stroke-width="0.5" stroke-linecap="round" stroke-linejoin="round" x1="14.542" y1="65.667" x2="13.447" y2="63.96"/>
	<path fill="none" stroke="#000000" stroke-width="0.5" stroke-linecap="round" stroke-linejoin="round" d="M14.497,59.713   c0,0-0.919,3.328-3.676,4.774"/>
	<path fill="none" stroke="#000000" stroke-width="0.5" stroke-linecap="round" stroke-linejoin="round" d="M10.6,37.339   c0,0,1.052-0.218,1.62,0.656l2.628,3.064h1.445"/>
	
		<line fill="none" stroke="#000000" stroke-width="0.5" stroke-linecap="round" stroke-linejoin="round" x1="15.505" y1="41.06" x2="15.505" y2="45.571"/>
	<path fill="none" stroke="#000000" stroke-width="0.5" stroke-linecap="round" stroke-linejoin="round" d="M15.329,44.914   l-3.196,0.437c0,0-1.358,1.184-0.089,2.057h2.453"/>
	
		<line fill="none" stroke="#000000" stroke-width="0.5" stroke-linecap="round" stroke-linejoin="round" x1="13.974" y1="45.22" x2="13.974" y2="47.407"/>
	<polyline fill="none" stroke="#000000" stroke-width="0.5" stroke-linecap="round" stroke-linejoin="round" points="14.41,55.597    13.14,55.597 13.14,55.861 11.914,55.861 11.914,53.847 12.133,53.847 12.133,47.407  "/>
	
		<line fill="none" stroke="#000000" stroke-width="0.5" stroke-linecap="round" stroke-linejoin="round" x1="12.658" y1="45.351" x2="12.658" y2="55.729"/>
	<polyline fill="none" stroke="#000000" stroke-width="0.5" stroke-linecap="round" stroke-linejoin="round" points="3.158,44.562    6.134,44.562 7.841,44.258  "/>
	<polyline fill="none" stroke="#000000" stroke-width="0.5" stroke-linecap="round" stroke-linejoin="round" points="3.508,59.013    6.134,59.013 7.974,58.881  "/>
	<path fill="none" stroke="#000000" stroke-width="0.5" stroke-linecap="round" stroke-linejoin="round" d="M9.92,32.477   c0,0,1.446,0.068,1.446,1.184v3.414"/>
	<path fill="none" stroke="#000000" stroke-width="0.5" stroke-linecap="round" stroke-linejoin="round" d="M10.667,32.565   c0,0,1.443,0.067,1.443,1.182v3.417"/>
	<path fill="none" stroke="#000000" stroke-width="0.5" stroke-linecap="round" stroke-linejoin="round" d="M47.292,27.357   l29.883-3.941c0,0,2.168-0.461,2.168,0.984v0.986h0.331v7.683l2.954,3.811v2.43h1.18l0.922,0.659v2.167l-1.117,0.787H82.76v2.956   l-2.89,3.613v8.539c0,0,0,1.051-1.839,1.511l-23.316,3.547"/>
	<path fill="none" stroke="#000000" stroke-width="0.5" stroke-linecap="round" stroke-linejoin="round" d="M79.871,56.059   c0,0-0.592-1.381-2.036-1.117l-21.807,3.283"/>
	<polyline fill="none" stroke="#000000" stroke-width="0.5" stroke-linecap="round" stroke-linejoin="round" points="79.674,58.028    78.163,58.685 76.848,58.685 55.042,61.969  "/>
	
		<line fill="none" stroke="#000000" stroke-width="0.5" stroke-linecap="round" stroke-linejoin="round" x1="77.835" y1="54.941" x2="77.835" y2="59.539"/>
	
		<line fill="none" stroke="#000000" stroke-width="0.5" stroke-linecap="round" stroke-linejoin="round" x1="76.588" y1="55.268" x2="76.588" y2="59.539"/>
	<path fill="none" stroke="#000000" stroke-width="0.5" stroke-linecap="round" stroke-linejoin="round" d="M50.775,31.887   l24.957-3.61l2.956-0.133c0,0,1.118-0.591,0.987-1.117"/>
	<polyline fill="none" stroke="#000000" stroke-width="0.5" stroke-linecap="round" stroke-linejoin="round" points="48.802,28.8    75.404,25.189 79.147,25.058  "/>
	<path fill="none" stroke="#000000" stroke-width="0.5" stroke-linecap="round" stroke-linejoin="round" d="M76.061,23.546   c0,0,0.462,0.787,0.462,1.445s0,2.956,0,2.956"/>
	<path fill="none" stroke="#000000" stroke-width="0.5" stroke-linecap="round" stroke-linejoin="round" d="M77.372,23.546   c0,0,0.463,0.787,0.463,1.445s0,2.956,0,2.956"/>
	<path fill="none" stroke="#000000" stroke-width="0.5" stroke-linecap="round" stroke-linejoin="round" d="M52.876,35.368   l8.407-1.314l4.926-0.524l6.566-1.116h0.66c0,0,6.239,6.961,0.656,18.585l-0.985,0.329l-6.043,1.444l-3.94,0.197l-0.527,0.788   l-6.042,0.984"/>
	<polyline fill="none" stroke="#000000" stroke-width="0.5" stroke-linecap="round" stroke-linejoin="round" points="52.546,34.843    62.464,33.397 63.123,52.97  "/>
	
		<line fill="none" stroke="#000000" stroke-width="0.5" stroke-linecap="round" stroke-linejoin="round" x1="60.955" y1="34.253" x2="60.625" y2="53.101"/>
	<polyline fill="none" stroke="#000000" stroke-width="0.5" stroke-linecap="round" stroke-linejoin="round" points="56.488,53.758    60.428,53.101 61.809,53.101 61.809,53.43 62.595,53.298  "/>
	<polyline fill="none" stroke="#000000" stroke-width="0.5" stroke-linecap="round" stroke-linejoin="round" points="66.209,52.773    66.209,33.53 67.193,32.545 74.616,31.755 76.522,31.428 76.522,33.267 79.475,33.068  "/>
	
		<line fill="none" stroke="#000000" stroke-width="0.5" stroke-linecap="round" stroke-linejoin="round" x1="66.864" y1="33.332" x2="66.864" y2="52.576"/>
	<polyline fill="none" stroke="#000000" stroke-width="0.5" stroke-linecap="round" stroke-linejoin="round" points="66.405,52.773    68.179,53.233 76.061,52.116 76.914,51.329 76.914,49.817 79.871,49.489  "/>
	<polyline fill="none" stroke="#000000" stroke-width="0.5" stroke-linecap="round" stroke-linejoin="round" points="76.522,33.267    79.343,36.483 79.871,37.537 79.871,46.203 77.175,49.687  "/>
	<polyline fill="none" stroke="#000000" stroke-width="0.5" stroke-linecap="round" stroke-linejoin="round" points="75.404,31.755    75.404,33.596 78.491,37.141 78.491,45.417 75.928,48.634 75.602,49.161 75.602,52.116  "/>
	<polyline fill="none" stroke="#000000" stroke-width="0.5" stroke-linecap="round" stroke-linejoin="round" points="78.491,36.815    79.147,36.156 81.84,36.156  "/>
	<polyline fill="none" stroke="#000000" stroke-width="0.5" stroke-linecap="round" stroke-linejoin="round" points="78.491,45.417    79.147,47.189 82.299,47.189  "/>
	
		<line fill="none" stroke="#000000" stroke-width="0.5" stroke-linecap="round" stroke-linejoin="round" x1="72.579" y1="32.414" x2="72.579" y2="51.131"/>
	<polyline fill="none" stroke="#000000" stroke-width="0.5" stroke-linecap="round" stroke-linejoin="round" points="66.996,37.799    70.675,37.208 72.447,37.208  "/>
	<polyline fill="none" stroke="#000000" stroke-width="0.5" stroke-linecap="round" stroke-linejoin="round" points="66.996,48.176    71.267,47.322 72.447,46.535  "/>
	<polyline fill="none" stroke="#000000" stroke-width="0.5" stroke-linecap="round" stroke-linejoin="round" points="66.864,39.111    71.659,39.506 71.659,37.339  "/>
	
		<line fill="none" stroke="#000000" stroke-width="0.5" stroke-linecap="round" stroke-linejoin="round" x1="66.864" y1="46.73" x2="69.624" y2="46.73"/>
	
		<line fill="none" stroke="#000000" stroke-width="0.5" stroke-linecap="round" stroke-linejoin="round" x1="69.951" y1="47.518" x2="69.951" y2="39.309"/>
	
		<line fill="none" stroke="#000000" stroke-width="0.5" stroke-linecap="round" stroke-linejoin="round" x1="71.463" y1="39.637" x2="71.463" y2="46.862"/>
	<polyline fill="none" stroke="#000000" stroke-width="0.5" stroke-linecap="round" stroke-linejoin="round" points="69.82,39.834    68.704,39.834 68.704,46.73  "/>
	<polygon fill="#FFFFFF" stroke="#FFFFFF" points="76.027,77.076 84.843,69.1 74.016,63.533 74.379,66.783 59.192,69.001    60.303,76.497 75.589,74.132  "/>
	<polygon points="78.21,75.854 85.556,69.205 76.533,64.567 76.833,67.273 62.352,69.397 63.188,75.041 77.787,73.005  "/>
	<polygon points="60.253,66.631 52.908,73.279 61.931,77.916 61.632,75.21 76.113,73.086 75.274,67.441 60.678,69.479  "/>
</g>
</svg>