<?xml version="1.0" encoding="utf-8"?>
<!-- Generator: Adobe Illustrator 19.1.0, SVG Export Plug-In . SVG Version: 6.00 Build 0)  -->
<svg version="1.1" xmlns="http://www.w3.org/2000/svg" xmlns:xlink="http://www.w3.org/1999/xlink" x="0px" y="0px" width="288px"
	 height="450.5px" viewBox="0 0 288 450.5" style="enable-background:new 0 0 288 450.5;" xml:space="preserve">
<style type="text/css">
	.st0{fill:none;stroke:#000000;stroke-width:0.4;stroke-linecap:round;stroke-linejoin:round;}
	.st1{fill:#FFFFFF;stroke:#000000;stroke-width:0.4;stroke-linecap:round;stroke-linejoin:round;}
	.st2{fill:#CDCCCC;}
	.st3{fill:#FFFFFF;}
	.st4{fill:none;stroke:#000000;stroke-width:0.3;}
	.st5{fill:none;stroke:#FFFFFF;stroke-width:3;stroke-linecap:round;stroke-linejoin:round;}
	.st6{stroke:#FFFFFF;}
	.st7{fill:none;stroke:#000000;}
	.st8{fill:none;stroke:#000000;stroke-linecap:round;stroke-linejoin:round;}
	.st9{fill:#FFFFFF;stroke:#010101;stroke-width:0.4;}
	.st10{fill:none;stroke:#FFFFFF;stroke-width:2;stroke-linecap:round;stroke-linejoin:round;}
	.st11{fill:none;stroke:#010101;stroke-width:0.5;stroke-linecap:round;stroke-linejoin:round;}
	.st12{fill:#FFFFFF;stroke:#010101;stroke-width:0.4;stroke-linecap:round;stroke-linejoin:round;}
	.st13{fill:none;stroke:#010101;stroke-width:0.4;stroke-linecap:round;stroke-linejoin:round;}
	.st14{fill:none;stroke:#FFFFFF;stroke-width:3;stroke-linecap:round;}
	.st15{fill:none;stroke:#000000;stroke-width:0.5;stroke-linecap:round;stroke-linejoin:round;}
	.st16{font-family:'Helvetica';}
	.st17{font-size:17.9149px;}
</style>
<g id="Layer_1">
</g>
<g id="Illustrations">
	<line class="st0" x1="200.8" y1="72.9" x2="285.7" y2="122"/>
	<g>
		<line class="st0" x1="200.8" y1="72.9" x2="285.6" y2="25.1"/>
	</g>
	<path class="st1" d="M211.9,249.9"/>
	<path class="st0" d="M202.5,244.2"/>
	<line class="st0" x1="203.1" y1="246.7" x2="204.8" y2="245.7"/>
	<line class="st0" x1="235.1" y1="265.1" x2="236.6" y2="264.2"/>
	<line class="st1" x1="248.3" y1="112.7" x2="248.3" y2="243.7"/>
	<line class="st0" x1="245.4" y1="267.6" x2="285.6" y2="290.9"/>
	<polyline class="st1" points="254.6,248.2 258.1,242.6 258.1,117.6 	"/>
	<polyline class="st0" points="249.6,101.4 247.5,102.6 285.6,124.8 	"/>
	<line class="st0" x1="285.6" y1="265.6" x2="259.5" y2="250.5"/>
	<polyline class="st0" points="285.6,228.1 258,212.1 258,281 	"/>
	<g>
		<line class="st0" x1="203.1" y1="246.5" x2="204.8" y2="245.5"/>
		<line class="st0" x1="235.1" y1="264.9" x2="236.6" y2="264"/>
		<polygon class="st0" points="215.1,282.8 207.8,278.6 207.8,272.7 215.1,277 		"/>
		<polygon class="st2" points="214.6,277.2 214.6,280.7 212,282 207,279.2 207.1,275.7 209.6,274.3 		"/>
		<g>
			<path class="st0" d="M212,282c0,0-1.5-0.4-3.3-1.5c-1.2-0.8-1.8-1.4-1.8-1.4V276c0,0,1.1,1,2.1,1.6c1.7,1,3,1.3,3,1.3V282z"/>
			<line class="st0" x1="212" y1="278.9" x2="214.6" y2="277.4"/>
			<line class="st0" x1="209.6" y1="274.3" x2="207" y2="275.8"/>
			<line class="st0" x1="212.1" y1="281.9" x2="214.6" y2="280.4"/>
		</g>
	</g>
	<line class="st0" x1="285.7" y1="292.2" x2="245.4" y2="269"/>
	<g>
		<path class="st1" d="M156.7,297.3c0,0-0.1,21.1-0.1,22.6c0,2.1,1.3,2.1,1.3,2.1l4.8,0c0,0,1.4-0.1,1.4-1.9c0-1.2,0-22.6,0-22.6
			s12.8,15.6,13.6,16.6c1.2,1.6,2.4,0.1,2.4,0.1l3.8-3.1c0,0,1.5-0.7-0.6-2.7c-1.4-1.5-13.9-16.4-13.9-16.4"/>
	</g>
	<g>
		<path class="st1" d="M257.4,121.4l-4.2-2.4c-0.2-0.1-0.5-0.1-0.7,0.1c-0.6,0.3-1,1.1-1,1.8c0,0.3,0.1,0.6,0.3,0.7l4.2,2.4
			c-0.2-0.1-0.3-0.3-0.3-0.7c0-0.7,0.5-1.5,1-1.8C257,121.3,257.2,121.3,257.4,121.4z"/>
		<path class="st1" d="M257.7,122.1c0-0.7-0.5-0.9-1-0.6c-0.6,0.3-1,1.1-1,1.8s0.5,0.9,1,0.6C257.2,123.6,257.7,122.8,257.7,122.1z"
			/>
	</g>
	<polygon class="st3" points="116,293.1 116.3,124.4 202.5,74.4 244.9,99.5 243.2,267 160.8,315.2 158.3,313.8 154.8,315.8 	"/>
	<polyline class="st1" points="158,313.8 154.4,315.9 117.4,294.6 132.2,286 157.2,300.5 	"/>
	<line class="st0" x1="244.3" y1="98.5" x2="244.3" y2="266.8"/>
	<polyline class="st1" points="248.4,239.5 240.4,268.8 243.4,268.8 245,268.7 246.6,263.9 248.5,265.6 250.6,264.8 	"/>
	<g>
		<line class="st0" x1="157.5" y1="148.1" x2="243.9" y2="98.2"/>
		<line class="st0" x1="202.9" y1="74.3" x2="115.8" y2="124.6"/>
	</g>
	<polygon class="st0" points="154.8,240.7 132.4,227.7 132.4,266.1 154.8,279 	"/>
	<g>
		<g>
			<polyline class="st0" points="152.3,234 154.8,235.4 154.8,225.2 132.4,212.3 132.4,222.5 			"/>
			<g>
				<path class="st1" d="M143.8,234.2l-11.8-6.8c0,0-1.1-0.8-1.1-2.4c0-1.6,0-5.7,0-7.2c0-1.5,1.6-1,1.6-1l14.6,8.4
					c0,0,1.3,0.6,1.3,2.3c0,1.6,0,7.2,0,8.4"/>
				<line class="st0" x1="132.5" y1="216.8" x2="136.3" y2="214.6"/>
				<line class="st0" x1="146.6" y1="224.7" x2="150" y2="222.7"/>
				<line class="st0" x1="148.7" y1="227.2" x2="152.1" y2="225.3"/>
				<line class="st0" x1="148.4" y1="236.1" x2="152.2" y2="234"/>
			</g>
			<line class="st0" x1="152.4" y1="223.8" x2="152.4" y2="233.8"/>
			<line class="st0" x1="146.3" y1="224.9" x2="143.4" y2="226.6"/>
			<line class="st0" x1="148.1" y1="226.1" x2="144.2" y2="228.4"/>
			<polyline class="st1" points="148.2,235 144,237.1 143.1,229.3 			"/>
			<path class="st1" d="M144,236.8c0-0.8,0-7.8,0-8.5c0-1.2-0.8-1.9-0.8-1.9l-5.1-5l-5.5-3.2c0,0-0.6-0.2-0.6,0.5c0,0.7,0,8.1,0,8.9
				c0,0.8,0.7,1.3,0.7,1.3l5.5,3.2l5,5C143.2,237,144,237.6,144,236.8z"/>
			<line class="st0" x1="137.9" y1="231.9" x2="137.9" y2="221.6"/>
			<path class="st1" d="M135.4,225.4c0,0.5-0.3,0.7-0.8,0.4c-0.4-0.2-0.8-0.8-0.8-1.3c0-0.5,0.3-0.7,0.8-0.4
				C135.1,224.3,135.4,224.9,135.4,225.4z"/>
			<line class="st0" x1="140" y1="229" x2="141.9" y2="230.5"/>
		</g>
	</g>
	<g>
		<polyline class="st1" points="140.9,259.5 137.7,257.7 149.3,251 		"/>
		<polyline class="st1" points="151.5,255 140.9,261.1 140.9,259.5 151.5,253.4 		"/>
		<polygon class="st1" points="140.9,261.1 137.7,259.2 137.7,257.7 140.9,259.5 		"/>
	</g>
	<g>
		<polyline class="st1" points="146.1,238.5 145.7,238.7 140.9,241.4 137.7,239.6 143.2,236.4 143.5,236.2 		"/>
		<polyline class="st1" points="147.5,239.3 140.9,243 140.9,241.4 146.2,238.4 		"/>
		<polygon class="st1" points="140.9,243 137.7,241.2 137.7,239.6 140.9,241.4 		"/>
	</g>
	<g>
		<polyline class="st1" points="151.5,249.4 146.6,252.2 143.4,250.4 151.4,245.8 		"/>
		<polyline class="st1" points="151.4,251 146.6,253.8 146.6,252.2 151.4,249.4 		"/>
		<polygon class="st1" points="146.6,253.8 143.4,252 143.4,250.4 146.6,252.2 		"/>
	</g>
	<path class="st4" d="M146.1,237.7c0.4,0.2,1.1,0.9,1.4,1.3l3.6,5.7c0.3,0.5,0.6,1.3,0.6,1.7l0,20.9c0,0.4-0.3,0.9-0.6,1l-5.6,2.4
		c-0.3,0.1-0.9,0-1.4-0.2l-9-5.1c-0.4-0.2-0.8-0.8-0.8-1.3l0-32.1c0-0.4,0.4-0.6,0.8-0.3L146.1,237.7z"/>
	<path class="st1" d="M245.4,260.7l3.2-1.8l-1.8-1.1l0-5.6c0,0-2.1-0.1-2.3-3.3c-0.2-3.2,2.3-5.3,2.3-5.3l12.8-7.2v14.2"/>
	<path class="st1" d="M251.3,246.5c0,1.4-1,3.2-2.2,3.9c-1.2,0.7-2.2,0.1-2.2-1.3c0-1.4,1-3.2,2.2-3.9
		C250.3,244.5,251.3,245,251.3,246.5z"/>
	<line class="st0" x1="247.1" y1="257.9" x2="259.7" y2="250.5"/>
	<polyline class="st1" points="245.4,267.1 245.4,260.7 285.7,283.9 	"/>
	<path class="st0" d="M155.4,180.2"/>
	<line class="st0" x1="130.1" y1="132.9" x2="130.1" y2="284.6"/>
	<line class="st0" x1="115.8" y1="293.2" x2="130.4" y2="284.8"/>
	<path class="st0" d="M160.7,308.7c0-1.2,0.9-2.8,2-3.4c1.1-0.6,2-0.1,2,1.1c0,1.2-0.9,2.8-2,3.4
		C161.6,310.4,160.7,309.9,160.7,308.7z"/>
	<g>
		<path class="st0" d="M115.8,293.2V124.5l41.4,23.9c0,0,0,155.1,0,160.5c0,8.9,5,5.4,5,5.4l78.4-45.2"/>
	</g>
	<g>
		<path class="st1" d="M126.9,259.9l-46.7-53.5l1.6-8l-6.8-9.1l-4.9,0.3l-5.6,3.2v26l52.8,60.7c0,0-0.1,21.1-0.1,22.6
			c0,2.1,1.3,2.1,1.3,2.1l4.8,0c0,0,1.4-0.1,1.4-1.9c0-1.2,0-22.6,0-22.6s12.8,15.6,13.6,16.6c1.2,1.6,2.4,0.1,2.4,0.1l3.8-3.1
			c0,0,1.5-0.7-0.6-2.7c-1.4-1.5-13.9-16.4-13.9-16.4l7.7-11.7c0,0,0.8-1.1-0.3-6.5"/>
	</g>
	<polyline class="st1" points="67.1,192.5 73,189.1 104.8,207.4 98.9,210.9 	"/>
	<g>
		<polyline class="st1" points="64.7,192.7 63.6,193.6 63.6,219.2 67.1,220.9 67.1,222.8 99,241.2 99,239.5 102.1,241.2 
			106.1,238.9 106.1,213.3 102.1,215.6 99,213.9 99,211 67.1,192.5 67.1,195.2 63.6,193.6 		"/>
		<polygon class="st0" points="79.1,224.5 71.7,220.2 71.7,214.3 79.1,218.6 		"/>
	</g>
	<g>
		<path class="st3" d="M136,277l-5.7,3.2c0,0-1.6,3.3-1.2,6.5c0.4,3.2,4.4,9.8,8.8,9.4c4.4-0.3,0.2-7.7,0.2-7.7s-2.9-4.8-2.8-7.2v-3
			l2.1-1.4L136,277z"/>
		<path class="st1" d="M136.3,276.7c1.2-0.9,2.9-0.8,4.8,0.3l0,0.8c-4-2.4-5.6,0.6-5.6,3.4c0,3.7,2.5,8.2,5.6,10.1"/>
		<polyline class="st1" points="138.2,286.8 136.1,285.5 136.1,282.4 		"/>
		<path class="st1" d="M138.2,296.1c-1,0.4-2.2-0.2-3.5-1c-3.1-1.9-5.6-6.4-5.6-10.1c0-2.7,1.6-5.8,5.6-3.4l0-0.8
			c-3.6-2.1-6.5-0.4-6.5,3.8c0,4.2,2.9,9.3,6.6,11.4c1.3,0.7,2.5,1,3.5,0.9"/>
		<polyline class="st1" points="141.6,278.6 141.6,274.5 135.1,278.2 135.1,281.9 138.1,283.7 		"/>
		<polyline class="st1" points="138.1,282.8 135.1,281.1 141.6,277.2 144.6,278.9 		"/>
		<polygon class="st1" points="144.7,293.9 138.3,297.6 138.3,281.4 144.7,277.7 		"/>
		<path class="st1" d="M116,306.3l38.6-20.8v-5.3l-41.1,22.2l-1.7,3.1c0,0-0.3,0.8,0.6,1C112.5,306.5,116,306.3,116,306.3z"/>
		<g>
			<polygon class="st1" points="138.2,293.6 142.4,294.3 142.4,287.5 138.2,287.2 			"/>
			<polygon class="st1" points="144.8,283.3 138.2,287.2 142.4,287.9 142.4,294.3 149,290.4 149,284 			"/>
			<polygon class="st1" points="139.1,292.5 141.5,293 141.5,289 139.1,288.5 			"/>
			<g>
				<polyline class="st1" points="137.7,292.2 137.7,293.9 141.5,291.7 141.5,289.9 137.7,292.2 136.9,291.7 141.5,289 141.5,289.8 
									"/>
				<polygon class="st1" points="137.7,292.2 136.9,291.7 136.9,293.4 137.7,293.9 				"/>
			</g>
			<line class="st1" x1="142.4" y1="287.9" x2="148.7" y2="284"/>
		</g>
		<polyline class="st1" points="136.3,276.7 134.7,275.8 128.5,279.5 130,280.4 		"/>
		<line class="st1" x1="130" y1="280.4" x2="136.3" y2="276.8"/>
	</g>
	<polyline class="st1" points="156.8,267.4 122,226.9 125.4,220.4 119.8,211.3 113.1,209.7 106.2,213.3 106.2,239.3 156.7,297.9 	
		"/>
	<polyline class="st5" points="98.3,323.6 133.6,299.7 113.8,335.9 	"/>
	<line class="st0" x1="70.1" y1="358.2" x2="71.3" y2="357.4"/>
	<line class="st0" x1="70.1" y1="360.3" x2="71.3" y2="359.6"/>
	<polyline class="st6" points="56.9,410.8 67.5,405.1 74.7,408.2 64.1,413.9 71.3,417 51,417.6 49.7,407.8 56.9,410.8 	"/>
	<g>
		<path class="st3" d="M73.8,347.5l-15.5,8.8c0,0-4.4,8.9-3.3,17.6c1.1,8.6,12.1,26.5,24,25.6c11.9-0.9,0.5-21,0.5-21
			s-7.8-13-7.5-19.6v-8.1l5.8-3.8L73.8,347.5z"/>
		<path class="st1" d="M74.6,346.9c3.2-2.3,7.8-2.2,13.1,0.8l0,2.1c-10.9-6.5-15.2,1.8-15.2,9.1c0,10.1,6.8,22.3,15.2,27.4"/>
		<polyline class="st1" points="79.7,374.1 74,370.8 74,362.3 		"/>
		<path class="st1" d="M79.7,399.4c-2.6,1-6-0.4-9.6-2.6c-8.4-5-15.2-17.3-15.2-27.4c0-7.4,4.3-15.7,15.2-9.1l0-2.1
			c-9.9-5.7-17.7-1.1-17.7,10.3c0,11.4,8,25.3,17.9,31c3.5,2,6.7,2.7,9.5,2.3"/>
		<polyline class="st1" points="89,351.8 89,340.6 71.4,350.7 71.4,360.9 79.7,365.7 		"/>
		<polyline class="st1" points="79.5,363.3 71.5,358.7 89.1,348.2 97.1,352.9 		"/>
		<polygon class="st1" points="97.6,393.4 80,403.5 80,359.4 97.6,349.3 		"/>
		<polyline class="st1" points="19.5,427.3 124.5,370.6 124.5,356.3 12.7,416.6 		"/>
		<g>
			<polygon class="st1" points="79.8,392.7 91.2,394.6 91.2,376.2 79.8,375.3 			"/>
			<polygon class="st1" points="97.7,364.6 79.8,375.3 91.2,377.1 91.2,394.6 109.1,384 109.1,366.5 			"/>
			<polygon class="st1" points="82.1,389.7 88.9,391 88.9,380.2 82.1,378.9 			"/>
			<g>
				<polyline class="st1" points="78.5,388.8 78.5,393.4 88.8,387.5 88.9,382.7 78.5,388.8 76.3,387.5 88.8,380.2 88.8,382.4 				
					"/>
				<polygon class="st1" points="78.5,388.8 76.3,387.5 76.3,392.2 78.5,393.4 				"/>
			</g>
			<line class="st1" x1="91.2" y1="377.1" x2="108.3" y2="366.7"/>
		</g>
		<line class="st1" x1="57.5" y1="356.8" x2="74.6" y2="346.9"/>
		<polyline class="st0" points="74.7,346.8 70.4,344.4 53.4,354.4 57.6,356.9 		"/>
	</g>
	<polygon class="st6" points="93,386.2 101.1,398.5 92.9,403 92.9,399.2 82.8,393.3 82.8,385.4 93,391.3 	"/>
	<path class="st7" d="M50.2,319.9c34.9-10,71.2,10.2,81.2,45.1c1.2,4.2,2,8.4,2.3,12.6c2.6,30.7-16.7,59.9-47.4,68.6
		c-34.9,10-71.2-10.2-81.2-45.1C-4.9,366.2,15.3,329.8,50.2,319.9z"/>
	<polyline class="st8" points="98.6,323.4 133.6,299.7 113.8,335.9 	"/>
	<g>
		<path class="st9" d="M134.8,154c0,0.8-0.6,1.1-1.3,0.7c-0.7-0.4-1.3-1.4-1.3-2.2c0-0.8,0.6-1.1,1.3-0.7
			C134.2,152.2,134.8,153.2,134.8,154z"/>
		<path class="st9" d="M139.5,156.1c0,0.8-0.6,1.1-1.3,0.7c-0.7-0.4-1.3-1.4-1.3-2.2c0-0.8,0.6-1.1,1.3-0.7
			C138.9,154.3,139.5,155.3,139.5,156.1z"/>
	</g>
	<polyline class="st10" points="135.6,158.7 135.6,170.1 82.4,170.1 	"/>
	<polyline class="st11" points="135.6,158.7 135.6,170.1 82.4,170.1 	"/>
	<path class="st12" d="M147.4,147.4l-16.7,5.4c0,0-3.2,0.1-5,1.4c0,0-5,6.3-10.1,3.8l-3.9-2.1c0,0-2.9-3.4,2.3-5
		c0,0,3.5-2.7,4.3-3.5l1-2.3c0,0,1.8-2.3,4.2-1.4l3.8,1.5c0,0,4.4,1.1,7.2-2.1l3.6-3.5"/>
	<path class="st13" d="M142.8,143.2c0,0-2.9-0.9-3.8,4.1c0,0-0.6,0.8-2.3,1.6c-1.7,0.7-4.9,1-4.9,1l-2.5,0.3c0,0-0.5-2.4-1.6-2.8"/>
	<path class="st13" d="M115,154.7c0,0,3,2.2,5.6,0.3c0,0,3.1-2.6,3.4-4.6c0,0,0.5-1,1.2-1.8c0.7-0.7-4.7-2.1-4.7-2.1"/>
	<path class="st12" d="M285.6,133.7L246,110.6c0,0-1.4-3.7,7.4-2.4"/>
	<line class="st12" x1="253.3" y1="108.3" x2="285.6" y2="126.8"/>
	<path class="st12" d="M285.5,301.1l-39.5-23c0,0-1.4-3.7,7.4-2.4"/>
	<line class="st12" x1="253.3" y1="275.8" x2="285.6" y2="294.3"/>
</g>
<g id="Text">
	<line class="st14" x1="177.3" y1="32.4" x2="177.3" y2="116.8"/>
	<line class="st15" x1="177.3" y1="32.4" x2="177.3" y2="116.8"/>
	<g>
		<path d="M190,15.9c0,7-5.7,12.7-12.7,12.7c-7,0-12.7-5.7-12.7-12.7c0-7,5.7-12.7,12.7-12.7C184.4,3.2,190,8.9,190,15.9z"/>
		<text transform="matrix(1 0 0 1 172.3604 21.8506)" class="st3 st16 st17">1</text>
	</g>
	<line class="st14" x1="127.7" y1="54.2" x2="127.7" y2="138.5"/>
	<line class="st15" x1="127.7" y1="54.2" x2="127.7" y2="141.5"/>
	<g>
		<path d="M140.4,37.3c0,7-5.7,12.7-12.7,12.7c-7,0-12.7-5.7-12.7-12.7c0-7,5.7-12.7,12.7-12.7C134.7,24.6,140.4,30.3,140.4,37.3z"
			/>
		<text transform="matrix(1 0 0 1 122.7036 43.2969)" class="st3 st16 st17">2</text>
	</g>
	<g>
		<circle cx="25.4" cy="380.8" r="12.7"/>
		<text transform="matrix(1 0 0 1 20.4077 386.7686)" class="st3 st16 st17">5</text>
	</g>
	<g>
		<path d="M78.7,170.1c0,7-5.7,12.7-12.7,12.7c-7,0-12.7-5.7-12.7-12.7c0-7,5.7-12.7,12.7-12.7C73,157.4,78.7,163.1,78.7,170.1z"/>
		<text transform="matrix(1 0 0 1 61.0298 176.0938)" class="st3 st16 st17">3</text>
	</g>
	<g>
		<circle cx="22.8" cy="228.8" r="12.7"/>
		<text transform="matrix(1 0 0 1 17.8481 234.748)" class="st3 st16 st17">4</text>
	</g>
	<line class="st14" x1="39.3" y1="228.3" x2="87.5" y2="228.3"/>
	<line class="st15" x1="39.3" y1="228.3" x2="87.5" y2="228.3"/>
</g>
</svg>
