<?xml version="1.0" encoding="utf-8"?>
<!-- Generator: Adobe Illustrator 19.1.0, SVG Export Plug-In . SVG Version: 6.00 Build 0)  -->
<svg version="1.1" xmlns="http://www.w3.org/2000/svg" xmlns:xlink="http://www.w3.org/1999/xlink" x="0px" y="0px" width="342px"
	 height="310.1px" viewBox="0 0 342 310.1" style="enable-background:new 0 0 342 310.1;" xml:space="preserve">
<style type="text/css">
	.st0{fill:none;stroke:#000000;stroke-width:0.5;stroke-linecap:round;stroke-linejoin:round;stroke-miterlimit:10;}
	.st1{fill:none;stroke:#000000;stroke-width:0.5;stroke-miterlimit:10;}
	.st2{fill:none;stroke:#000000;stroke-width:0.5;stroke-linecap:round;stroke-miterlimit:10;}
	.st3{fill:#FFFFFF;stroke:#000000;stroke-width:0.5;stroke-miterlimit:10;}
	.st4{fill:#FFFFFF;stroke:#000000;stroke-miterlimit:10;}
	.st5{fill:none;stroke:#000000;stroke-width:0.35;stroke-linecap:round;stroke-linejoin:round;stroke-miterlimit:10;}
	.st6{fill:none;stroke:#000000;stroke-width:0.45;stroke-linecap:round;stroke-linejoin:round;stroke-miterlimit:10;}
	.st7{fill:none;stroke:#E70095;stroke-width:0.5;stroke-miterlimit:10;}
	.st8{fill:#D2D0CD;}
	.st9{fill-rule:evenodd;clip-rule:evenodd;fill:#FFFFFF;stroke:#000000;stroke-miterlimit:22.9256;}
	
		.st10{fill-rule:evenodd;clip-rule:evenodd;fill:none;stroke:#000000;stroke-width:0.4;stroke-linejoin:bevel;stroke-miterlimit:22.9256;}
	
		.st11{fill-rule:evenodd;clip-rule:evenodd;fill:none;stroke:#D2D0CD;stroke-width:0.4;stroke-linejoin:bevel;stroke-miterlimit:22.9256;}
	
		.st12{fill-rule:evenodd;clip-rule:evenodd;fill:none;stroke:#000000;stroke-width:0.2443;stroke-linejoin:bevel;stroke-miterlimit:22.9256;}
	
		.st13{fill-rule:evenodd;clip-rule:evenodd;fill:none;stroke:#D2D0CD;stroke-width:0.2443;stroke-linejoin:bevel;stroke-miterlimit:22.9256;}
	
		.st14{fill-rule:evenodd;clip-rule:evenodd;fill:none;stroke:#D2D0CD;stroke-width:0.5;stroke-linejoin:bevel;stroke-miterlimit:22.9256;}
	.st15{fill:none;stroke:#000000;stroke-width:0.4;stroke-linejoin:bevel;stroke-miterlimit:22.9256;}
	.st16{fill:none;stroke:#D2D0CD;stroke-width:0.4;stroke-linejoin:bevel;stroke-miterlimit:22.9256;}
	.st17{fill-rule:evenodd;clip-rule:evenodd;}
	.st18{fill-rule:evenodd;clip-rule:evenodd;fill:none;stroke:#000000;stroke-width:0.4;stroke-miterlimit:22.9256;}
	.st19{fill-rule:evenodd;clip-rule:evenodd;fill:none;stroke:#000000;stroke-width:0.5;stroke-miterlimit:22.9256;}
	.st20{fill-rule:evenodd;clip-rule:evenodd;fill:#D2D0CD;}
	.st21{fill-rule:evenodd;clip-rule:evenodd;fill:none;stroke:#D2D0CD;stroke-width:0.4;stroke-miterlimit:22.9256;}
	.st22{fill:#FFFFFF;stroke:#000000;stroke-miterlimit:22.9256;}
	.st23{fill:#FFFFFF;}
	.st24{font-family:'HelveticaNeueLTPro-Md';}
	.st25{font-size:19.0413px;}
	.st26{fill:none;stroke:#D2D0CD;stroke-width:0.2443;stroke-linejoin:bevel;stroke-miterlimit:22.9256;}
	.st27{fill-rule:evenodd;clip-rule:evenodd;fill:none;stroke:#000000;stroke-width:0.2443;stroke-miterlimit:22.9256;}
</style>
<g id="Bottom">
	<g id="LINE_7652_">
		<line class="st0" x1="121" y1="251.7" x2="120.4" y2="251.4"/>
	</g>
	<g id="LINE_7651_">
		<line class="st0" x1="117.3" y1="249.7" x2="116.8" y2="249.4"/>
	</g>
	<g id="LINE_7650_">
		<line class="st0" x1="114.1" y1="247.7" x2="113.6" y2="247.4"/>
	</g>
	<g id="LINE_7649_">
		<line class="st0" x1="110.3" y1="245.7" x2="109.7" y2="245.4"/>
	</g>
	<g id="LINE_7594_">
		<line class="st1" x1="109.1" y1="249" x2="108.8" y2="245.2"/>
	</g>
	<g id="LINE_7592_">
		<line class="st0" x1="110.7" y1="249.9" x2="110.4" y2="245.6"/>
	</g>
	<g id="LINE_7590_">
		<line class="st0" x1="112.7" y1="251" x2="112.4" y2="247.2"/>
	</g>
	<g id="LINE_7588_">
		<line class="st0" x1="114.3" y1="251.9" x2="113.9" y2="247.6"/>
	</g>
	<g id="LINE_7586_">
		<line class="st0" x1="116.2" y1="253" x2="115.9" y2="249.3"/>
	</g>
	<g id="LINE_7583_">
		<line class="st0" x1="117.8" y1="253.9" x2="117.4" y2="249.6"/>
	</g>
	<g id="LINE_7580_">
		<line class="st0" x1="119.7" y1="255.1" x2="119.4" y2="251.3"/>
	</g>
	<g id="LINE_7578_">
		<line class="st0" x1="121.3" y1="256" x2="121" y2="251.6"/>
	</g>
	<g id="LINE_7553_">
		<line class="st1" x1="162" y1="212.7" x2="162.3" y2="216.1"/>
	</g>
	<g id="LINE_7551_">
		<line class="st2" x1="165.5" y1="214.8" x2="165.8" y2="218.2"/>
	</g>
	<g id="LINE_7549_">
		<line class="st1" x1="169.1" y1="216.8" x2="169.3" y2="220.2"/>
	</g>
	<g id="LINE_7547_">
		<line class="st1" x1="172.6" y1="218.8" x2="173.1" y2="224.9"/>
	</g>
	<g id="LINE_7539_">
		<path class="st1" d="M195.9,230.9l-0.1-1.4l2.7-2.8l-0.1-0.7c0,0-0.2-0.8,1-0.9s1.3-0.2,1.3-0.2"/>
	</g>
	<g id="LINE_7527_">
		<polyline class="st0" points="112.7,184.4 59.5,216.9 59.8,220.7 		"/>
	</g>
	<g id="LINE_7525_">
		<polyline class="st1" points="88.9,200.5 61,217.3 61.4,221.6 		"/>
	</g>
	<g id="LINE_7523_">
		<polyline class="st1" points="89.1,203 63,218.9 63.3,222.7 		"/>
	</g>
	<g id="LINE_7521_">
		<polyline class="st0" points="89.2,204.2 64.5,219.3 64.9,223.7 		"/>
	</g>
	<g id="LINE_7519_">
		<polyline class="st0" points="84.9,209.7 66.5,221 66.8,224.7 		"/>
	</g>
	<g id="LINE_7517_">
		<polyline class="st0" points="85,210.9 68.1,221.3 68.5,225.7 		"/>
	</g>
	<g id="LINE_7515_">
		<polyline class="st0" points="85.3,213.7 70.1,223 70.4,226.8 		"/>
	</g>
	<g id="LINE_7513_">
		<polyline class="st0" points="85.4,214.9 71.6,223.4 72,227.7 		"/>
	</g>
	<g id="LINE_7512_">
		<line class="st1" x1="247.9" y1="184.6" x2="248" y2="186.8"/>
	</g>
	<g id="LINE_7511_">
		<line class="st1" x1="248.3" y1="183.1" x2="248.6" y2="186.5"/>
	</g>
	<g id="LINE_7509_">
		<line class="st1" x1="251.9" y1="185.1" x2="252.1" y2="188.5"/>
	</g>
	<g id="LINE_7507_">
		<line class="st1" x1="255.4" y1="187.1" x2="255.6" y2="190.5"/>
	</g>
	<g id="LINE_7506_">
		<line class="st1" x1="115.4" y1="239.4" x2="117" y2="238.1"/>
	</g>
	<g id="LINE_7505_">
		<line class="st1" x1="117.1" y1="239.4" x2="115.5" y2="240.8"/>
	</g>
	<g id="LINE_7502_">
		<polyline class="st1" points="165.9,179.1 149.3,189.3 149.6,193.3 		"/>
	</g>
	<g id="LINE_7501_">
		<polyline class="st0" points="195.5,161.1 202.5,156.8 202.6,158.7 		"/>
	</g>
	<g id="LINE_7498_">
		<polyline class="st1" points="166,180.4 150.9,189.6 151.2,194.2 		"/>
	</g>
	<g id="LINE_7497_">
		<line class="st1" x1="196.5" y1="161.7" x2="202" y2="158.3"/>
	</g>
	<g id="LINE_7495_">
		<polyline class="st1" points="161.7,185.9 152.9,191.3 153.2,195.3 		"/>
	</g>
	<g id="LINE_7493_">
		<path class="st0" d="M161.8,187.1l-7.4,4.5l0.5,6.8l2.2,1.3c0,0-0.8,0-1.2,0.3c-0.4,0.2-1.2,0.8-1.2,0.8"/>
	</g>
	<g id="LINE_7489_">
		<polyline class="st1" points="162,189.9 156.4,193.4 156.9,199.6 		"/>
	</g>
	<g id="LINE_7487_">
		<polyline class="st0" points="162.2,191.1 157.9,193.7 159.1,204.7 163.1,202.4 		"/>
	</g>
	<g id="LINE_7485_">
		<line class="st1" x1="258.9" y1="189.1" x2="259.4" y2="195.2"/>
	</g>
	<g id="LINE_7482_">
		<line class="st0" x1="108.8" y1="245.2" x2="162" y2="212.7"/>
	</g>
	<g id="LINE_7481_">
		<line class="st1" x1="121.5" y1="237.5" x2="141" y2="225.6"/>
	</g>
	<g id="LINE_7480_">
		<polyline class="st0" points="110.4,245.6 161.5,214.3 161.7,216.2 		"/>
	</g>
	<g id="LINE_7478_">
		<line class="st0" x1="112.4" y1="247.2" x2="165.5" y2="214.8"/>
	</g>
	<g id="LINE_7477_">
		<polyline class="st0" points="113.9,247.6 165.1,216.3 165.3,218.4 		"/>
	</g>
	<g id="LINE_7475_">
		<line class="st0" x1="115.9" y1="249.3" x2="169.1" y2="216.8"/>
	</g>
	<g id="LINE_7474_">
		<polyline class="st0" points="117.4,249.6 168.6,218.3 168.8,220.4 		"/>
	</g>
	<g id="LINE_7472_">
		<line class="st0" x1="119.4" y1="251.3" x2="172.6" y2="218.8"/>
	</g>
	<g id="LINE_7471_">
		<polyline class="st0" points="121,251.6 172.2,220.4 173,232.1 		"/>
	</g>
	<g id="LINE_7470_">
		<line class="st1" x1="173.1" y1="224.9" x2="172.5" y2="225.3"/>
	</g>
	<g id="LINE_7468_">
		<polyline class="st0" points="195.7,221.7 195.1,215.6 248.3,183.1 		"/>
	</g>
	<g id="LINE_7466_">
		<polyline class="st0" points="247.9,184.6 196.7,215.9 197.2,222.7 		"/>
	</g>
	<g id="LINE_7464_">
		<polyline class="st1" points="251.9,185.1 198.7,217.6 199.2,223.7 		"/>
	</g>
	<g id="LINE_7462_">
		<path class="st0" d="M196.1,229c-0.2,0.8,0.6,1.2,0.6,1.2l0.2,1.6l2.4,1.3l-0.2-1.6c-1.1-1-0.2-1.5-0.2-1.5l1.3-1.2l0.6,0.5
			l0.1-0.2c0,0,0.1,0.3-0.1-1.1c-0.2-1.4,0.6-1.5,0.6-1.5l1.4-0.3l-2.1-1.3l-0.6-6.8l51.2-31.3l0.1,2"/>
	</g>
	<g id="LINE_7460_">
		<polyline class="st1" points="255.4,187.1 202.2,219.6 202.7,225.8 		"/>
	</g>
	<g id="LINE_7458_">
		<polyline class="st0" points="204.3,226.8 203.7,219.9 254.9,188.7 255.1,190.7 		"/>
	</g>
	<g id="LINE_7456_">
		<polyline class="st1" points="258.9,189.1 205.7,221.6 206.2,227.9 		"/>
	</g>
	<g id="LINE_7454_">
		<polyline class="st0" points="208,230.5 207.3,222 258.5,190.7 259.1,197.9 259.8,198.4 259.8,199 		"/>
	</g>
	<g id="SPLINE_2865_">
		<path class="st1" d="M198.2,212.7c-0.1,0-0.1,0.1-0.2,0.1c-0.1,0-0.2,0-0.2,0.1c-0.1,0-0.2,0-0.2,0c-0.1,0-0.2,0-0.2,0
			c-0.1,0-0.1-0.1-0.2-0.1"/>
	</g>
	<g id="SPLINE_2856_">
		<path class="st1" d="M115.5,240.8c-0.1,0-0.1,0.1-0.2,0.1c0,0-0.1,0-0.1,0c-0.2-0.1-0.2-0.1-0.2-0.2c0,0,0-0.1,0-0.2
			c0-0.1,0-0.2,0-0.2c0-0.1,0.1-0.2,0.1-0.2c0-0.1,0-0.2,0.1-0.2c0.1-0.1,0.1-0.2,0.2-0.2c0-0.1,0.1-0.1,0.2-0.2"/>
	</g>
	<g id="SPLINE_2855_">
		<path class="st1" d="M117,238.1c0-0.1,0.1-0.1,0.1-0.1c0.1,0,0.1,0,0.2,0c0.2,0.1,0.2,0.2,0.2,0.2c0,0.1,0,0.1,0,0.2
			c0,0.1,0,0.2,0,0.2c0,0.1,0,0.2,0,0.2c0,0.1-0.1,0.2-0.1,0.2c-0.1,0.1-0.1,0.1-0.2,0.2c0,0.1-0.1,0.1-0.1,0.2"/>
	</g>
	<g id="LINE_7451_">
		<line class="st1" x1="65.1" y1="259.5" x2="65.1" y2="259.5"/>
	</g>
	<g id="LINE_7448_">
		<line class="st1" x1="147.5" y1="247.2" x2="147.5" y2="251"/>
	</g>
	<g id="LINE_7414_">
		<path class="st1" d="M31.4,213.7l104,59.8c0,0,0.6,0.7,1.8,0c1.2-0.7,7.4-4.5,7.4-4.5s0.3-0.4,1.4-0.1c0.6,0.3,2-0.9,2-0.9
			l2.2-1.4c0,0,0.4-0.3,0.5,0.2"/>
	</g>
	<g id="LINE_7413_">
		<line class="st1" x1="23.8" y1="223.1" x2="48.8" y2="236.3"/>
	</g>
	<g id="LINE_7400_">
		<line class="st1" x1="143.5" y1="302.9" x2="141.6" y2="301.7"/>
	</g>
	<g id="LINE_7395_">
		<line class="st1" x1="144.6" y1="300.9" x2="142.7" y2="299.8"/>
	</g>
	<g id="LINE_7375_">
		<line class="st1" x1="144.9" y1="301.8" x2="144.9" y2="301.7"/>
	</g>
	<g id="LINE_7374_">
		<line class="st1" x1="144.9" y1="301.5" x2="144.9" y2="301.4"/>
	</g>
	<g id="LINE_7373_">
		<line class="st1" x1="144.9" y1="301.8" x2="144.9" y2="301.5"/>
	</g>
	<g id="LINE_7368_">
		<line class="st1" x1="144.4" y1="302.6" x2="144.2" y2="302.7"/>
	</g>
	<g id="ARC_551_">
		<path class="st1" d="M54,249.6"/>
	</g>
	<g id="ARC_547_">
		<path class="st1" d="M54,249.6"/>
	</g>
	<g id="SPLINE_2854_">
		<path class="st1" d="M144.4,302.6c0,0,0.1-0.1,0.2-0.2c0.1-0.1,0.1-0.1,0.1-0.2c0.1-0.1,0.1-0.2,0.1-0.2c0-0.1,0-0.2,0.1-0.2"/>
	</g>
	<g id="SPLINE_2853_">
		<path class="st1" d="M144.9,301.4c0-0.1,0-0.1,0-0.2c0,0,0-0.1,0-0.1c-0.1-0.1-0.2-0.2-0.2-0.2"/>
	</g>
	<g id="SPLINE_2852_">
		<path class="st1" d="M143.5,302.9c0,0,0.1,0,0.1,0c0.1,0,0.1,0,0.2,0c0.1,0,0.1,0,0.2,0c0.1,0,0.1-0.1,0.2-0.1"/>
	</g>
	<g id="SPLINE_2851_">
		<path class="st1" d="M144.9,301.7c-0.1-0.1-0.1-0.2-0.1-0.2c-0.1-0.1-0.1-0.1-0.2-0.1c-0.1,0-0.1,0-0.2,0c-0.1,0-0.1,0.1-0.2,0.1
			c-0.1,0-0.1,0.1-0.2,0.2c0,0.1-0.1,0.2-0.2,0.2c0,0.1-0.1,0.2-0.1,0.3c0,0.1,0,0.2,0,0.3"/>
	</g>
	<g id="SPLINE_2850_">
		<path class="st1" d="M143.8,302.4c0,0.1,0.1,0.2,0.1,0.2c0.1,0.1,0.1,0.1,0.1,0.1c0.1,0,0.2,0,0.2,0c0.2,0,0.2-0.1,0.2-0.1"/>
	</g>
	<g id="SPLINE_2849_">
		<path class="st1" d="M143.3,302.4c0,0,0,0.1,0,0.1c0,0.1,0,0.1,0.1,0.1c0.1,0.1,0.1,0.1,0.2,0.2"/>
	</g>
	<g id="SPLINE_2848_">
		<path class="st1" d="M144.6,300.9c-0.1-0.1-0.2-0.1-0.2-0.1c-0.1,0-0.2,0-0.2,0.1c-0.1,0-0.2,0.1-0.3,0.1c-0.1,0-0.2,0.1-0.2,0.2
			c-0.1,0.1-0.1,0.2-0.2,0.3c-0.1,0.1-0.1,0.2-0.2,0.3c0,0.1-0.1,0.2-0.1,0.3c0,0.1,0,0.2,0,0.3"/>
	</g>
	<g id="LINE_7366_">
		<line class="st1" x1="148.3" y1="300.6" x2="148.9" y2="300.7"/>
	</g>
	<g id="LWPOLYLINE_42_">
		<polyline class="st1" points="62.6,255.7 63.1,256 63.5,256.1 64,256.2 64.4,256.3 		"/>
	</g>
	<g id="LWPOLYLINE_41_">
		<polyline class="st1" points="99,274.5 99.3,274.6 99.9,274.8 100.4,275 101,274.9 101.5,274.8 101.7,274.7 		"/>
	</g>
	<g id="LINE_7365_">
		<line class="st1" x1="34.3" y1="246.1" x2="138.7" y2="305.9"/>
	</g>
	<g id="LINE_7363_">
		<line class="st1" x1="139.4" y1="304.8" x2="139.9" y2="305.1"/>
	</g>
	<g id="LINE_7362_">
		<line class="st1" x1="33.6" y1="244.1" x2="33.1" y2="243.8"/>
	</g>
	<g id="LINE_7361_">
		<line class="st1" x1="55.6" y1="255.5" x2="61.2" y2="258.7"/>
	</g>
	<g id="LINE_7360_">
		<line class="st1" x1="61.2" y1="258.7" x2="61.2" y2="258.7"/>
	</g>
	<g id="LINE_7359_">
		<line class="st1" x1="55.6" y1="255.5" x2="55.6" y2="255.5"/>
	</g>
	<g id="LINE_7358_">
		<line class="st1" x1="45.7" y1="249.7" x2="52.2" y2="253.4"/>
	</g>
	<g id="LINE_7357_">
		<line class="st1" x1="52.2" y1="253.4" x2="45.6" y2="249.6"/>
	</g>
	<g id="LINE_7356_">
		<line class="st1" x1="64.4" y1="260.4" x2="67.3" y2="262"/>
	</g>
	<g id="LINE_7355_">
		<line class="st1" x1="45.8" y1="249.6" x2="51.8" y2="253.1"/>
	</g>
	<g id="LINE_7354_">
		<line class="st1" x1="51.8" y1="253.1" x2="52.2" y2="253.3"/>
	</g>
	<g id="LINE_7352_">
		<line class="st1" x1="37.2" y1="244.2" x2="42.3" y2="247.1"/>
	</g>
	<g id="LINE_7349_">
		<line class="st1" x1="67.2" y1="260.6" x2="64.3" y2="259"/>
	</g>
	<g id="LINE_7348_">
		<line class="st1" x1="37" y1="241.4" x2="42" y2="244.2"/>
	</g>
	<g id="LINE_7347_">
		<line class="st1" x1="61.4" y1="255.1" x2="62.6" y2="255.7"/>
	</g>
	<g id="LINE_7346_">
		<line class="st1" x1="141.2" y1="299.6" x2="140.9" y2="299.4"/>
	</g>
	<g id="LINE_7344_">
		<line class="st1" x1="67.1" y1="256.2" x2="99" y2="274.5"/>
	</g>
	<g id="LINE_7343_">
		<line class="st1" x1="47.5" y1="244.6" x2="45.1" y2="243.2"/>
	</g>
	<g id="LINE_7342_">
		<line class="st1" x1="45.1" y1="243.2" x2="45.1" y2="243.2"/>
	</g>
	<g id="LINE_7340_">
		<line class="st1" x1="148.7" y1="301.5" x2="147.1" y2="300.6"/>
	</g>
	<g id="LINE_7338_">
		<line class="st1" x1="47.4" y1="242.8" x2="33.1" y2="234.7"/>
	</g>
	<g id="LINE_7336_">
		<line class="st1" x1="49.8" y1="248.4" x2="55.9" y2="251.9"/>
	</g>
	<g id="LINE_7335_">
		<line class="st1" x1="49.4" y1="248.1" x2="49.8" y2="248.4"/>
	</g>
	<g id="LINE_7334_">
		<line class="st1" x1="122.7" y1="284" x2="136.3" y2="283.4"/>
	</g>
	<g id="LINE_7333_">
		<line class="st1" x1="135.9" y1="278.5" x2="122.3" y2="279.1"/>
	</g>
	<g id="LINE_7332_">
		<line class="st1" x1="122.3" y1="278.5" x2="135.9" y2="277.9"/>
	</g>
	<g id="LINE_7331_">
		<line class="st1" x1="28.5" y1="219.3" x2="28.5" y2="219.3"/>
	</g>
	<g id="LINE_7330_">
		<line class="st1" x1="121.8" y1="278.3" x2="121.9" y2="278.4"/>
	</g>
	<g id="LINE_7329_">
		<line class="st1" x1="28.6" y1="219.3" x2="28.7" y2="219.4"/>
	</g>
	<g id="LINE_7328_">
		<line class="st1" x1="24.5" y1="228.6" x2="47.3" y2="241.7"/>
	</g>
	<g id="LINE_7327_">
		<line class="st1" x1="102" y1="273" x2="121.5" y2="284.2"/>
	</g>
	<g id="LINE_7326_">
		<line class="st1" x1="24.1" y1="227.8" x2="23.3" y2="227.4"/>
	</g>
	<g id="LINE_7325_">
		<line class="st1" x1="143.4" y1="295.8" x2="143.1" y2="295.6"/>
	</g>
	<g id="LINE_7323_">
		<line class="st1" x1="22.9" y1="222.5" x2="23.8" y2="223.1"/>
	</g>
	<g id="LINE_7322_">
		<line class="st1" x1="121.2" y1="278.9" x2="120.8" y2="278.6"/>
	</g>
	<g id="LINE_7320_">
		<line class="st1" x1="121.5" y1="278.2" x2="121.8" y2="278.3"/>
	</g>
	<g id="LINE_7319_">
		<line class="st1" x1="101.4" y1="266.4" x2="48.9" y2="236.3"/>
	</g>
	<g id="LINE_7317_">
		<line class="st1" x1="28.5" y1="219.3" x2="124.3" y2="274.2"/>
	</g>
	<g id="LINE_7316_">
		<line class="st1" x1="28.7" y1="219.4" x2="124.4" y2="274.3"/>
	</g>
	<g id="LINE_7313_">
		<line class="st1" x1="22.9" y1="226.8" x2="22.5" y2="221.9"/>
	</g>
	<g id="LINE_7312_">
		<line class="st1" x1="31.8" y1="232.8" x2="32.6" y2="242.9"/>
	</g>
	<g id="LINE_7311_">
		<line class="st1" x1="33.9" y1="245" x2="33" y2="233.5"/>
	</g>
	<g id="LINE_7310_">
	</g>
	<g id="LINE_7308_">
		<line class="st1" x1="34.2" y1="245.8" x2="34.1" y2="245.3"/>
	</g>
	<g id="LINE_7306_">
		<line class="st1" x1="36.9" y1="241.5" x2="37.1" y2="244"/>
	</g>
	<g id="LINE_7302_">
		<line class="st1" x1="141.5" y1="276.1" x2="142" y2="276.4"/>
	</g>
	<g id="LINE_7300_">
		<line class="st1" x1="39.3" y1="209" x2="142.9" y2="268.3"/>
	</g>
	<g id="LINE_7299_">
		<polyline class="st1" points="101.3,240.8 82.5,230 79.3,231.9 		"/>
	</g>
	<g id="LINE_7298_">
		<line class="st1" x1="101.4" y1="240.8" x2="108.3" y2="244.9"/>
	</g>
	<g id="LWPOLYLINE_40_">
		<polyline class="st1" points="47.5,244.8 47.6,245.3 47.8,246 48.1,246.6 48.5,247.2 48.9,247.7 49.4,248.1 		"/>
	</g>
	<g id="LINE_7290_">
		<line class="st1" x1="42.3" y1="247.1" x2="42.1" y2="244.4"/>
	</g>
	<g id="LINE_7289_">
		<line class="st1" x1="42.1" y1="244.5" x2="42.3" y2="247"/>
	</g>
	<g id="LINE_7287_">
		<line class="st1" x1="43.5" y1="250.7" x2="42.6" y2="240.1"/>
	</g>
	<g id="LINE_7285_">
		<line class="st1" x1="45.1" y1="243.3" x2="45.6" y2="249.5"/>
	</g>
	<g id="LINE_7284_">
		<line class="st1" x1="45.6" y1="249.5" x2="45.6" y2="249.5"/>
	</g>
	<g id="LINE_7283_">
		<line class="st1" x1="45.1" y1="243.3" x2="45.1" y2="243.3"/>
	</g>
	<g id="LINE_7278_">
		<line class="st1" x1="47.5" y1="244.8" x2="47.1" y2="239.6"/>
	</g>
	<g id="LINE_7276_">
		<line class="st1" x1="52.2" y1="253.3" x2="52.2" y2="253.3"/>
	</g>
	<g id="LINE_7275_">
		<line class="st1" x1="52.2" y1="253.3" x2="51.9" y2="249.6"/>
	</g>
	<g id="LINE_7274_">
		<line class="st1" x1="54.3" y1="250.9" x2="54.8" y2="257.8"/>
	</g>
	<g id="LINE_7273_">
		<line class="st1" x1="55.5" y1="255.4" x2="55.5" y2="255.3"/>
	</g>
	<g id="LINE_7272_">
		<line class="st1" x1="55.2" y1="251.5" x2="55.5" y2="255.3"/>
	</g>
	<g id="LWPOLYLINE_39_">
		<path class="st1" d="M66.1,255.9c0.1,0,0.3,0.1,0.3,0.1l0.3,0.1l0.2,0.1l0.2,0.1"/>
	</g>
	<g id="LINE_7271_">
		<line class="st1" x1="64.4" y1="256.3" x2="64.9" y2="256.2"/>
	</g>
	<g id="LINE_7269_">
		<line class="st1" x1="143.9" y1="254.1" x2="157.2" y2="261.7"/>
	</g>
	<g id="LINE_7268_">
		<line class="st1" x1="147.6" y1="255.4" x2="143.8" y2="253.2"/>
	</g>
	<g id="LINE_7265_">
		<line class="st1" x1="147.3" y1="251.8" x2="158.6" y2="258.3"/>
	</g>
	<g id="LINE_7262_">
		<line class="st1" x1="147.5" y1="247.2" x2="151.3" y2="249.4"/>
	</g>
	<g id="LINE_7260_">
		<line class="st1" x1="47.5" y1="244.8" x2="47.5" y2="244.8"/>
	</g>
	<g id="LINE_7256_">
		<line class="st1" x1="61.2" y1="258.7" x2="60.9" y2="255"/>
	</g>
	<g id="LINE_7255_">
		<line class="st1" x1="61.2" y1="258.7" x2="61.2" y2="258.7"/>
	</g>
	<g id="LINE_7254_">
		<line class="st1" x1="64.2" y1="259.1" x2="64.3" y2="260.2"/>
	</g>
	<g id="LINE_7252_">
		<line class="st1" x1="67.3" y1="262" x2="67.3" y2="260.8"/>
	</g>
	<g id="LINE_7251_">
		<line class="st1" x1="64.9" y1="256.2" x2="65.4" y2="256.1"/>
	</g>
	<g id="LINE_7230_">
		<line class="st1" x1="170.6" y1="251" x2="166.8" y2="248.8"/>
	</g>
	<g id="LINE_7227_">
		<line class="st1" x1="170.8" y1="246.4" x2="159.5" y2="239.9"/>
	</g>
	<g id="LINE_7226_">
		<line class="st1" x1="146" y1="298.4" x2="144.8" y2="296.2"/>
	</g>
	<g id="LINE_7225_">
		<line class="st1" x1="146" y1="298.2" x2="144.8" y2="296"/>
	</g>
	<g id="LINE_7223_">
		<line class="st1" x1="86.8" y1="232.4" x2="84.8" y2="208.1"/>
	</g>
	<g id="LINE_7167_">
		<line class="st1" x1="89.3" y1="205.4" x2="88.9" y2="200.7"/>
	</g>
	<g id="LINE_7166_">
		<line class="st1" x1="101.9" y1="272.8" x2="101.5" y2="267.6"/>
	</g>
	<g id="LINE_7165_">
		<line class="st1" x1="101.6" y1="244.7" x2="101.3" y2="240.8"/>
	</g>
	<g id="LINE_7152_">
		<path class="st1" d="M163.5,207.7l25.6,14.6c0,0,0.3,0.2,0.7,0c0.3-0.2,1.9-1.1,1.9-1.1"/>
	</g>
	<g id="LINE_7142_">
		<line class="st0" x1="199.4" y1="224" x2="197.1" y2="222.6"/>
	</g>
	<g id="LINE_7085_">
		<line class="st1" x1="112" y1="242.7" x2="110.3" y2="222.8"/>
	</g>
	<g id="LINE_7084_">
		<line class="st1" x1="117.5" y1="236.2" x2="117.6" y2="238"/>
	</g>
	<g id="LINE_7083_">
		<line class="st1" x1="118.6" y1="217.7" x2="120" y2="234.6"/>
	</g>
	<g id="LINE_7082_">
		<line class="st1" x1="124.7" y1="275.2" x2="124.7" y2="274.7"/>
	</g>
	<g id="LINE_7081_">
		<line class="st1" x1="122.3" y1="235.8" x2="122.3" y2="236.4"/>
	</g>
	<g id="LINE_7080_">
		<line class="st1" x1="124.1" y1="235.3" x2="122.8" y2="220.1"/>
	</g>
	<g id="LINE_7056_">
		<line class="st1" x1="187.1" y1="198.4" x2="161.6" y2="183.8"/>
	</g>
	<g id="LINE_7015_">
		<line class="st1" x1="138.9" y1="303.8" x2="137.2" y2="283.4"/>
	</g>
	<g id="LINE_7014_">
		<line class="st1" x1="138" y1="283.6" x2="139.6" y2="304.1"/>
	</g>
	<g id="LINE_7013_">
		<line class="st1" x1="144.7" y1="295.9" x2="143.3" y2="278.9"/>
	</g>
	<g id="LINE_7012_">
		<line class="st1" x1="144.7" y1="295.7" x2="143.3" y2="278.7"/>
	</g>
	<g id="LINE_7011_">
		<line class="st1" x1="143.4" y1="269.3" x2="143.4" y2="269.2"/>
	</g>
	<g id="LINE_7010_">
		<line class="st1" x1="121.5" y1="278.2" x2="121.5" y2="278.1"/>
	</g>
	<g id="LINE_7009_">
		<line class="st1" x1="47.1" y1="239.3" x2="48.3" y2="236.8"/>
	</g>
	<g id="LINE_7006_">
		<line class="st1" x1="202.6" y1="157.9" x2="202.7" y2="157.9"/>
	</g>
	<g id="LINE_6993_">
		<line class="st1" x1="143.9" y1="254.1" x2="143.8" y2="253.2"/>
	</g>
	<g id="LINE_6992_">
		<line class="st1" x1="147.9" y1="299.9" x2="148" y2="300.3"/>
	</g>
	<g id="LINE_6990_">
		<line class="st1" x1="147" y1="275.6" x2="149.1" y2="301.2"/>
	</g>
	<g id="LINE_6988_">
		<line class="st1" x1="147.6" y1="255.4" x2="147.3" y2="251.8"/>
	</g>
	<g id="LINE_6986_">
		<polyline class="st1" points="150.7,266.9 151.2,273 147,275.6 		"/>
	</g>
	<g id="LINE_6979_">
		<line class="st1" x1="151.3" y1="218.6" x2="150" y2="203.4"/>
	</g>
	<g id="LINE_6972_">
		<line class="st1" x1="154.2" y1="216.4" x2="154.2" y2="216.8"/>
	</g>
	<g id="LINE_6970_">
		<line class="st1" x1="158.8" y1="260.8" x2="158.6" y2="258.3"/>
	</g>
	<g id="LINE_6968_">
		<line class="st1" x1="155.8" y1="215.9" x2="154.2" y2="196"/>
	</g>
	<g id="LINE_6963_">
		<line class="st1" x1="233.2" y1="191.7" x2="232.6" y2="191.3"/>
	</g>
	<g id="LINE_6962_">
		<line class="st1" x1="232.4" y1="189.5" x2="234.6" y2="190.8"/>
	</g>
	<g id="LINE_6956_">
		<polyline class="st1" points="193,159.7 197.1,162 205.4,157 230.9,171.6 		"/>
	</g>
	<g id="LINE_6950_">
		<line class="st1" x1="259.4" y1="194.7" x2="259.6" y2="194.9"/>
	</g>
	<g id="LINE_6949_">
		<line class="st1" x1="235.7" y1="180.9" x2="231.5" y2="178.5"/>
	</g>
	<g id="LINE_6939_">
		<line class="st1" x1="231.2" y1="174.5" x2="238.9" y2="178.9"/>
	</g>
	<g id="LINE_6930_">
		<path class="st1" d="M230.9,171.6"/>
	</g>
	<g id="LINE_6910_">
		<line class="st1" x1="170.9" y1="256.2" x2="170.6" y2="251"/>
	</g>
	<g id="LINE_6909_">
		<line class="st1" x1="171.6" y1="255.8" x2="170.8" y2="246.4"/>
	</g>
	<g id="LINE_6908_">
		<line class="st1" x1="166.1" y1="181" x2="165.7" y2="176.3"/>
	</g>
	<g id="LINE_6894_">
		<line class="st1" x1="143.9" y1="297.1" x2="143.9" y2="297"/>
	</g>
	<g id="LINE_6885_">
		<line class="st1" x1="247.3" y1="175.5" x2="243.6" y2="173.4"/>
	</g>
	<g id="LINE_6863_">
		<path class="st1" d="M187.1,198.4l1.8,22.2c0,0,0,0.5,0.9-0.1c0.9-0.5,2.3-1.5,2.3-1.5s1-0.7,2.6,0.2"/>
	</g>
	<g id="LINE_6849_">
		<line class="st1" x1="239.3" y1="138.8" x2="239.2" y2="138.8"/>
	</g>
	<g id="LINE_6847_">
		<polyline class="st1" points="237.4,117.2 226.4,123.9 227.1,131.8 239.2,138.8 		"/>
	</g>
	<g id="LINE_6827_">
		<line class="st1" x1="195.4" y1="193.4" x2="197" y2="212.7"/>
	</g>
	<g id="LINE_6816_">
		<line class="st1" x1="200.8" y1="211.5" x2="199.5" y2="195.7"/>
	</g>
	<g id="LINE_6789_">
		<line class="st1" x1="48.4" y1="236.7" x2="48.8" y2="236.4"/>
	</g>
	<g id="LINE_6788_">
		<line class="st1" x1="48.8" y1="236.4" x2="48.8" y2="236.4"/>
	</g>
	<g id="LINE_6787_">
		<line class="st1" x1="23.1" y1="221.1" x2="22.9" y2="221.2"/>
	</g>
	<g id="LINE_6786_">
		<line class="st1" x1="24.8" y1="220.8" x2="24.9" y2="220.8"/>
	</g>
	<g id="LINE_6780_">
		<path class="st1" d="M31.8,221.1l-0.4-7.4l7.9-4.7l0.3-1.1L226.6,97.3c0,0,0.3-0.2,0.4,0.6c0,0.9,0.4,4.5,0.4,4.5s0.2,0.5-0.3,0.9
			l0.5,1.8c0,0,0.2,0.4,0.4,0.5c0.2,0.1,0.5,0.6,0.5,1.4c0,0.8,0.2,2.6,0.2,2.6s0.1,0.4-0.1,0.5"/>
	</g>
	<g id="LINE_6769_">
		<line class="st1" x1="31.5" y1="215.9" x2="23.1" y2="221.1"/>
	</g>
	<g id="LINE_6768_">
		<line class="st1" x1="24.9" y1="220.8" x2="27.2" y2="219.4"/>
	</g>
	<g id="LINE_6748_">
		<line class="st1" x1="232.4" y1="115.9" x2="229.1" y2="114"/>
	</g>
	<g id="LINE_6747_">
		<line class="st1" x1="232.4" y1="115.9" x2="229.4" y2="114.3"/>
	</g>
	<g id="LINE_6745_">
		<polyline class="st1" points="281.6,147.5 281.1,142.3 235.4,116 222.7,123.7 223.3,130.3 226,131.8 		"/>
	</g>
	<g id="LINE_6730_">
		<line class="st1" x1="335.9" y1="172.7" x2="335.6" y2="172.5"/>
	</g>
	<g id="LINE_6718_">
		<line class="st1" x1="172.8" y1="220.6" x2="172.8" y2="220.5"/>
	</g>
	<g id="LINE_6709_">
		<line class="st1" x1="148.3" y1="152.2" x2="227.6" y2="105.2"/>
	</g>
	<g id="LINE_6707_">
		<line class="st1" x1="228.6" y1="110.2" x2="149.4" y2="157.1"/>
	</g>
	<g id="LINE_6702_">
		<line class="st1" x1="333.7" y1="154.3" x2="333.3" y2="154.1"/>
	</g>
	<g id="LINE_6698_">
		<line class="st1" x1="228.1" y1="194.8" x2="226.8" y2="179.1"/>
	</g>
	<g id="LINE_6696_">
		<line class="st1" x1="225.2" y1="151.8" x2="224.8" y2="147.6"/>
	</g>
	<g id="LINE_6691_">
		<line class="st1" x1="228.3" y1="114" x2="228" y2="110.5"/>
	</g>
	<g id="LINE_6687_">
		<line class="st1" x1="236.4" y1="189.7" x2="235.7" y2="180.9"/>
	</g>
	<g id="LINE_6680_">
		<line class="st1" x1="232.9" y1="117.6" x2="232.8" y2="116.6"/>
	</g>
	<g id="LINE_6679_">
		<line class="st1" x1="232.9" y1="117.6" x2="232.8" y2="116.6"/>
	</g>
	<g id="LINE_6677_">
		<line class="st1" x1="239.7" y1="187.4" x2="239.1" y2="178.9"/>
	</g>
	<g id="LINE_6664_">
		<line class="st1" x1="202.7" y1="157.9" x2="202.8" y2="157.8"/>
	</g>
	<g id="LINE_6653_">
		<line class="st1" x1="131.8" y1="182.1" x2="131.1" y2="182.6"/>
		<path class="st1" d="M141.6,176.2l69.4-42.4c0,0,0.4-0.3,1-0.2s1.5,0,1.6-0.1"/>
	</g>
	<g id="LINE_6648_">
		<line class="st1" x1="223.1" y1="127.6" x2="213.6" y2="133.5"/>
	</g>
	<g id="LINE_6643_">
		<polyline class="st0" points="227,131.2 226,131.8 225.4,125.3 		"/>
	</g>
	<g id="LINE_6638_">
		<polyline class="st1" points="199,154.8 145.8,187.3 146.1,191.2 		"/>
	</g>
	<g id="LINE_6632_">
		<polyline class="st1" points="240.8,174.5 239.6,160.8 255.6,151.1 		"/>
	</g>
	<g id="LINE_6628_">
		<polyline class="st1" points="243.6,173.4 243.8,176.2 262.6,187 		"/>
	</g>
	<g id="LINE_6627_">
		<line class="st1" x1="247.3" y1="175.5" x2="246.4" y2="164.7"/>
	</g>
	<g id="LINE_6623_">
		<line class="st1" x1="247.1" y1="164.3" x2="246.7" y2="160.2"/>
	</g>
	<g id="LINE_6614_">
		<line class="st1" x1="144.9" y1="301.2" x2="145.9" y2="299.3"/>
	</g>
	<g id="LINE_6612_">
		<line class="st1" x1="165.7" y1="176.3" x2="193" y2="159.7"/>
	</g>
	<g id="LINE_6611_">
		<polyline class="st1" points="165.7,176.4 147.3,187.6 147.7,192.2 		"/>
	</g>
	<g id="LINE_6610_">
		<polyline class="st0" points="193,159.7 198.5,156.3 198.7,158.3 		"/>
	</g>
	<g id="LINE_6608_">
		<line class="st1" x1="78.6" y1="231.5" x2="86.3" y2="226.8"/>
	</g>
	<g id="LINE_6605_">
		<line class="st1" x1="86.5" y1="228.2" x2="83.1" y2="230.3"/>
	</g>
	<g id="LINE_6604_">
		<line class="st1" x1="86.6" y1="229.5" x2="84.2" y2="230.9"/>
	</g>
	<g id="LINE_6603_">
		<line class="st1" x1="86.6" y1="229.5" x2="84.2" y2="230.9"/>
	</g>
	<g id="LINE_6602_">
		<polyline class="st1" points="163.5,207.7 161.6,183.8 169.8,178.7 165.7,176.4 		"/>
	</g>
	<g id="LINE_6576_">
		<polyline class="st1" points="255.9,146.5 251.9,148.9 255.6,151.1 255.9,154.5 		"/>
	</g>
	<g id="LINE_6573_">
		<polyline class="st0" points="256.5,154.2 255.9,146.5 240.8,137.9 224.8,147.6 228.5,149.7 224.6,152.2 239.6,160.8 		"/>
	</g>
	<g id="LINE_6558_">
		<polyline class="st1" points="268.4,183.4 262.6,187 261.5,173.4 		"/>
	</g>
	<g id="LINE_6517_">
		<line class="st1" x1="102.9" y1="274.2" x2="103.4" y2="273.8"/>
	</g>
	<g id="LINE_6509_">
		<line class="st1" x1="101.3" y1="240.8" x2="98.2" y2="242.7"/>
	</g>
	<g id="LINE_6500_">
		<polyline class="st0" points="232.6,191.9 230.9,171.6 222.7,176.7 226.8,179.1 199.5,195.7 195.4,193.4 187.1,198.4 		"/>
	</g>
	<g id="LINE_6493_">
		<line class="st1" x1="273.6" y1="138" x2="273.6" y2="138.1"/>
	</g>
	<g id="LINE_6491_">
		<line class="st1" x1="278.1" y1="171.8" x2="277.5" y2="163.6"/>
	</g>
	<g id="LINE_6490_">
		<polyline class="st0" points="277.7,159 273.7,161.4 277.5,163.6 261.5,173.4 246.4,164.8 250.3,162.4 246.6,160.2 262.6,150.4 
			277.6,158.9 277.7,159 278.7,171.4 		"/>
	</g>
	<g id="LINE_6442_">
		<polyline class="st0" points="246.9,170.7 240.8,174.5 222,163.7 221.8,160.9 225.4,162.8 225.1,158.8 224.5,152.3 		"/>
	</g>
	<g id="LINE_6441_">
		<line class="st1" x1="243.6" y1="173.4" x2="247" y2="171.3"/>
	</g>
	<g id="LINE_6438_">
		<line class="st1" x1="238.9" y1="178.9" x2="235.7" y2="180.9"/>
	</g>
	<g id="LINE_6416_">
		<line class="st1" x1="66" y1="256" x2="66.1" y2="255.9"/>
	</g>
	<g id="LINE_6385_">
		<line class="st1" x1="124.4" y1="275.8" x2="124.5" y2="275.7"/>
	</g>
	<g id="LINE_6382_">
		<line class="st1" x1="122" y1="277.2" x2="122" y2="277.2"/>
	</g>
	<g id="LINE_6381_">
		<line class="st1" x1="124.4" y1="275.8" x2="124.5" y2="275.7"/>
	</g>
	<g id="LINE_6380_">
		<line class="st1" x1="159.5" y1="239.9" x2="147.5" y2="247.2"/>
	</g>
	<g id="LINE_6379_">
		<line class="st1" x1="128" y1="259.8" x2="147.5" y2="247.8"/>
	</g>
	<g id="LINE_6378_">
		<polyline class="st0" points="160,240.2 173.6,231.8 173.4,228.7 172.8,228.4 		"/>
	</g>
	<g id="LINE_6368_">
		<line class="st1" x1="130.4" y1="261.2" x2="145.2" y2="252.1"/>
	</g>
	<g id="LINE_6367_">
		<line class="st1" x1="162.4" y1="241.6" x2="176.2" y2="233.2"/>
	</g>
	<g id="LINE_6366_">
		<path class="st1" d="M172.6,226.2l0.9,0.5l0.4-0.2l0.4,0.2l0.1,0.5l1.1-0.2c0,0,0.3-0.1,0.3,0.4s0.5,5.6,0.5,5.6l-0.1,0l-13.8,8.4
			"/>
	</g>
	<g id="LINE_6365_">
		<line class="st1" x1="147.5" y1="250.7" x2="130.4" y2="261.2"/>
	</g>
	<g id="LINE_6354_">
		<line class="st1" x1="151.3" y1="249.4" x2="147.3" y2="251.8"/>
	</g>
	<g id="LINE_6319_">
		<line class="st1" x1="166.8" y1="248.8" x2="170.8" y2="246.4"/>
	</g>
	<g id="LINE_6316_">
		<line class="st1" x1="124.2" y1="275" x2="121.8" y2="276.4"/>
	</g>
	<g id="LINE_6306_">
		<line class="st1" x1="122" y1="277.2" x2="124.4" y2="275.8"/>
	</g>
	<g id="LINE_6289_">
		<line class="st1" x1="158.6" y1="258.3" x2="170.6" y2="251"/>
	</g>
	<g id="LINE_6277_">
		<line class="st1" x1="102.6" y1="274.4" x2="102.7" y2="274.3"/>
	</g>
	<g id="LINE_6276_">
		<line class="st1" x1="102.6" y1="274.4" x2="102.6" y2="274.4"/>
	</g>
	<g id="LINE_6275_">
		<line class="st1" x1="65.4" y1="256.1" x2="66" y2="256"/>
	</g>
	<g id="LINE_6273_">
		<line class="st1" x1="334.5" y1="160.2" x2="334.2" y2="159.7"/>
	</g>
	<g id="LINE_6263_">
		<path class="st1" d="M333.3,154.1l-159.9,97.8l-0.5,1.1l0.1,1.5c0,0,0.3,0.5-1.1,1.4c-1.4,0.9-6.9,4.2-6.9,4.2s-2.8,0.3,0-1.3
			l1.3-0.7c0,0,1.2-0.8,0.4-1.2l-1.1-0.2l-15.1,9.2l0.1,0.7"/>
	</g>
	<g id="LINE_6254_">
		<line class="st1" x1="136.4" y1="277.7" x2="138.4" y2="276.4"/>
	</g>
	<g id="LINE_6253_">
		<line class="st1" x1="139.1" y1="277" x2="137" y2="278.2"/>
	</g>
	<g id="LINE_6250_">
		<line class="st1" x1="102.6" y1="274.4" x2="101.7" y2="274.7"/>
	</g>
	<g id="LINE_6249_">
		<line class="st1" x1="334.1" y1="159.6" x2="333.7" y2="154.3"/>
	</g>
	<g id="LINE_6247_">
		<line class="st1" x1="335.6" y1="172.5" x2="334.6" y2="160.7"/>
	</g>
	<g id="LINE_6244_">
		<line class="st1" x1="337.3" y1="185.7" x2="336.3" y2="173.4"/>
	</g>
	<g id="LINE_6243_">
		<line class="st1" x1="142.6" y1="299.4" x2="142.5" y2="299.4"/>
	</g>
	<g id="LINE_6242_">
		<line class="st1" x1="142.5" y1="299.5" x2="142.5" y2="299.4"/>
	</g>
	<g id="LINE_6241_">
		<line class="st1" x1="142.5" y1="299.4" x2="142.6" y2="299.4"/>
	</g>
	<g id="LINE_6239_">
		<line class="st1" x1="144.9" y1="301.7" x2="147.7" y2="299.9"/>
	</g>
	<g id="LINE_6238_">
		<line class="st1" x1="144.8" y1="302" x2="147.1" y2="300.6"/>
	</g>
	<g id="LINE_6236_">
		<line class="st1" x1="141.3" y1="304.8" x2="142.7" y2="303.9"/>
	</g>
	<g id="LINE_6234_">
		<line class="st1" x1="336.9" y1="186.5" x2="336.8" y2="186.6"/>
	</g>
	<g id="LINE_6233_">
		<line class="st1" x1="149" y1="301.5" x2="336.7" y2="186.9"/>
	</g>
	<g id="LINE_6232_">
		<line class="st1" x1="147.7" y1="299.9" x2="147.8" y2="299.9"/>
	</g>
	<g id="ARC_544_">
		<path class="st1" d="M34,245.1"/>
	</g>
	<g id="ARC_543_">
		<path class="st1" d="M42.1,244.4"/>
	</g>
	<g id="ARC_542_">
		<path class="st1" d="M42,244.3"/>
	</g>
	<g id="ARC_541_">
		<path class="st1" d="M37.7,243.8"/>
	</g>
	<g id="ARC_540_">
		<path class="st1" d="M42.3,247"/>
	</g>
	<g id="ARC_539_">
		<path class="st1" d="M45.1,243.2"/>
	</g>
	<g id="ARC_538_">
		<path class="st1" d="M55.5,255.4"/>
	</g>
	<g id="ARC_537_">
		<path class="st1" d="M67.2,260.7"/>
	</g>
	<g id="ARC_536_">
		<path class="st1" d="M67.2,260.7"/>
	</g>
	<g id="ARC_535_">
		<path class="st1" d="M23.8,222.5c0,0.1,0,0.1,0,0.2"/>
	</g>
	<g id="ARC_534_">
		<path class="st1" d="M23.8,222.7"/>
	</g>
	<g id="ARC_533_">
		<path class="st1" d="M81.6,237.6"/>
	</g>
	<g id="ARC_532_">
		<path class="st1" d="M81.7,238.1"/>
	</g>
	<g id="ARC_531_">
		<path class="st1" d="M82.4,238.1"/>
	</g>
	<g id="ARC_529_">
		<path class="st1" d="M120.8,278.6c0-0.1,0-0.1,0-0.2"/>
	</g>
	<g id="ARC_528_">
		<path class="st1" d="M92.9,244.1"/>
	</g>
	<g id="ARC_527_">
		<path class="st1" d="M92.9,244.6"/>
	</g>
	<g id="ARC_526_">
		<path class="st1" d="M93.7,244.5"/>
	</g>
	<g id="ARC_525_">
		<path class="st1" d="M121.9,277.3"/>
	</g>
	<g id="ARC_524_">
		<path class="st1" d="M121.5,278"/>
	</g>
	<g id="ARC_523_">
		<path class="st1" d="M121.5,278"/>
	</g>
	<g id="ARC_522_">
		<path class="st1" d="M122,277.2"/>
	</g>
	<g id="ARC_521_">
		<path class="st1" d="M121.5,278"/>
	</g>
	<g id="ARC_520_">
		<path class="st1" d="M121.9,278.4"/>
	</g>
	<g id="ARC_519_">
		<path class="st1" d="M122,277.2"/>
	</g>
	<g id="ARC_518_">
		<path class="st1" d="M121.9,278.4"/>
	</g>
	<g id="ARC_517_">
		<path class="st1" d="M143.8,303c0-0.1,0.1-0.1,0.1-0.1"/>
	</g>
	<g id="ARC_516_">
		<path class="st1" d="M142.7,303.9"/>
	</g>
	<g id="ARC_515_">
		<path class="st1" d="M142.7,303.9"/>
	</g>
	<g id="ARC_514_">
		<path class="st1" d="M141.9,296.4"/>
	</g>
	<g id="ARC_513_">
		<path class="st1" d="M141.8,295.8"/>
	</g>
	<g id="ARC_512_">
		<path class="st1" d="M143.9,297.1"/>
	</g>
	<g id="ARC_511_">
		<path class="st1" d="M142.5,299.5"/>
	</g>
	<g id="ARC_510_">
		<path class="st1" d="M141.1,304.9c0,0,0.1,0,0.1-0.1"/>
	</g>
	<g id="ARC_509_">
		<path class="st1" d="M141.5,301.6"/>
	</g>
	<g id="ARC_508_">
		<path class="st1" d="M146,298.4"/>
	</g>
	<g id="ARC_507_">
		<path class="st1" d="M141.6,301.7"/>
	</g>
	<g id="ARC_506_">
		<path class="st1" d="M144.9,289.9"/>
	</g>
	<g id="ARC_505_">
		<path class="st1" d="M147.3,300.3"/>
	</g>
	<g id="ARC_504_">
		<path class="st1" d="M145,289.9"/>
	</g>
	<g id="ARC_503_">
		<path class="st1" d="M145.1,289.9"/>
	</g>
	<g id="ARC_502_">
		<path class="st1" d="M142,298.2"/>
	</g>
	<g id="ARC_501_">
		<path class="st1" d="M142.5,297.1"/>
	</g>
	<g id="ARC_500_">
		<path class="st1" d="M138.9,276.2c-0.2,0.1-0.3,0.2-0.4,0.2"/>
	</g>
	<g id="ARC_499_">
		<path class="st1" d="M143.3,278.9c0,0,0-0.1,0-0.1"/>
	</g>
	<g id="ARC_498_">
		<path class="st1" d="M137.2,283.2c-0.1,0-0.1,0-0.1,0.1"/>
	</g>
	<g id="ARC_497_">
		<path class="st1" d="M140,275.9c-0.1,0-0.2,0-0.3,0.1"/>
	</g>
	<g id="ARC_496_">
		<path class="st1" d="M136.3,283.4c0.1,0,0.1,0,0.2,0"/>
	</g>
	<g id="ARC_495_">
		<path class="st1" d="M136.6,283.4c0.1,0,0.2,0,0.3,0"/>
	</g>
	<g id="ARC_494_">
		<path class="st1" d="M136.8,283.3c0.1,0,0.1-0.1,0.2-0.1"/>
	</g>
	<g id="ARC_493_">
		<path class="st1" d="M137,283.3"/>
	</g>
	<g id="ARC_492_">
		<path class="st1" d="M138.5,275"/>
	</g>
	<g id="ARC_491_">
		<path class="st1" d="M142.2,276.7c-0.1-0.1-0.2-0.1-0.3-0.2"/>
	</g>
	<g id="ARC_490_">
		<path class="st1" d="M139.2,275.3"/>
	</g>
	<g id="ARC_489_">
		<path class="st1" d="M139.8,274.3"/>
	</g>
	<g id="ARC_470_">
		<path class="st1" d="M231.8,117.7"/>
	</g>
	<g id="ARC_469_">
		<path class="st1" d="M231.8,117.7"/>
	</g>
	<g id="ARC_468_">
		<path class="st1" d="M173.2,128"/>
	</g>
	<g id="ARC_467_">
		<path class="st1" d="M232.8,116.6"/>
	</g>
	<g id="ARC_466_">
		<path class="st1" d="M229.4,114.3"/>
	</g>
	<g id="ARC_465_">
		<path class="st1" d="M174,127"/>
	</g>
	<g id="ARC_464_">
		<path class="st1" d="M231.2,118"/>
	</g>
	<g id="ARC_463_">
		<path class="st1" d="M230.6,117"/>
	</g>
	<g id="SPLINE_2781_">
		<path class="st1" d="M151.7,295.1"/>
	</g>
	<g id="SPLINE_2767_">
		<path class="st1" d="M150.1,276.1"/>
	</g>
	<g id="SPLINE_2752_">
		<path class="st1" d="M141.9,298.2"/>
	</g>
	<g id="SPLINE_2751_">
		<path class="st1" d="M141.9,298.1"/>
	</g>
	<g id="SPLINE_2750_">
		<path class="st1" d="M141.8,295.8c0.1-0.1,0.2-0.2,0.3-0.2c0.1,0,0.2-0.1,0.3-0.1c0.1,0,0.2,0,0.3,0c0.1,0,0.2,0.1,0.3,0.1"/>
	</g>
	<g id="SPLINE_2744_">
		<path class="st1" d="M141.7,295.8c-0.2,0.1-0.3,0.2-0.4,0.4c-0.2,0.1-0.3,0.3-0.4,0.5c-0.1,0.2-0.2,0.4-0.3,0.6
			c-0.1,0.2-0.1,0.4-0.2,0.6c0,0.2-0.1,0.4-0.1,0.5c0,0.1,0,0.2,0,0.3c0,0.1,0,0.1,0,0.2c0,0.1,0.1,0.3,0.2,0.4
			c0,0.1,0.1,0.1,0.1,0.2c0,0,0.1,0.1,0.1,0.1"/>
	</g>
	<g id="SPLINE_2743_">
		<path class="st1" d="M142.2,298.5"/>
	</g>
	<g id="SPLINE_2741_">
		<path class="st1" d="M143.9,297c0-0.1,0-0.3,0-0.4c0-0.1,0-0.2-0.1-0.3c-0.1-0.1-0.1-0.2-0.2-0.3c-0.1-0.1-0.2-0.1-0.2-0.2"/>
	</g>
	<g id="SPLINE_2740_">
		<path class="st1" d="M142.6,299.4c0.2-0.1,0.3-0.3,0.5-0.4c0.2-0.2,0.3-0.4,0.4-0.6c0.1-0.2,0.2-0.4,0.3-0.6
			c0.1-0.2,0.1-0.4,0.1-0.6"/>
	</g>
	<g id="SPLINE_2739_">
		<path class="st1" d="M141.2,299.6c0.1,0.1,0.2,0.1,0.3,0.1c0.1,0,0.2,0,0.3,0c0.1,0,0.2,0,0.3-0.1c0.1,0,0.2-0.1,0.4-0.2"/>
	</g>
	<g id="SPLINE_2732_">
		<path class="st1" d="M143.9,297c0-0.1,0-0.2,0-0.3c0-0.1,0-0.2-0.1-0.3c0-0.1-0.1-0.2-0.1-0.3c-0.1-0.1-0.1-0.1-0.2-0.2
			c-0.1,0-0.2-0.1-0.3-0.1c-0.1,0-0.2,0-0.3,0c-0.1,0-0.2,0.1-0.3,0.1c-0.1,0-0.2,0.1-0.3,0.2"/>
	</g>
	<g id="SPLINE_2725_">
		<path class="st1" d="M142.3,296.1c-0.2,0.1-0.3,0.2-0.4,0.3"/>
	</g>
	<g id="SPLINE_2724_">
		<path class="st1" d="M141.9,296.4c-0.2,0.2-0.3,0.3-0.5,0.5c-0.1,0.2-0.3,0.4-0.3,0.6c-0.1,0.2-0.2,0.4-0.2,0.7c0,0.2,0,0.4,0,0.6
			c0,0.1,0,0.2,0.1,0.2c0,0.1,0.1,0.2,0.1,0.2c0,0.1,0.1,0.1,0.2,0.2c0.1,0.1,0.1,0.1,0.2,0.1c0.1,0,0.1,0,0.2,0c0.1,0,0.1,0,0.2,0
			c0.1,0,0.2,0,0.3,0c0.1,0,0.1-0.1,0.3-0.1"/>
	</g>
	<g id="SPLINE_2717_">
		<path class="st1" d="M52.2,253.3"/>
	</g>
	<g id="SPLINE_2716_">
		<path class="st1" d="M42.3,247.1"/>
	</g>
	<g id="LINE_6212_">
		<line class="st1" x1="42.1" y1="244.4" x2="42.1" y2="244.4"/>
	</g>
	<g id="LINE_6211_">
		<line class="st1" x1="42.1" y1="244.4" x2="42.1" y2="244.3"/>
	</g>
	<g id="LINE_6210_">
		<line class="st1" x1="42.1" y1="244.3" x2="42" y2="244.3"/>
	</g>
	<g id="LINE_6209_">
		<line class="st1" x1="42" y1="244.3" x2="42" y2="244.3"/>
	</g>
	<g id="LINE_6208_">
		<line class="st1" x1="67.3" y1="260.8" x2="67.2" y2="260.7"/>
	</g>
	<g id="LINE_6207_">
		<line class="st1" x1="67.2" y1="260.7" x2="67.2" y2="260.7"/>
	</g>
	<g id="LINE_6206_">
		<line class="st1" x1="67.2" y1="260.7" x2="67.2" y2="260.6"/>
	</g>
	<g id="LINE_6205_">
		<line class="st1" x1="64.3" y1="259" x2="64.3" y2="259"/>
	</g>
	<g id="LINE_6204_">
		<line class="st1" x1="64.3" y1="259" x2="64.3" y2="259"/>
	</g>
	<g id="LINE_6203_">
		<line class="st1" x1="64.3" y1="259" x2="64.2" y2="259"/>
	</g>
	<g id="LINE_6202_">
		<line class="st1" x1="61.2" y1="258.7" x2="61.2" y2="258.7"/>
	</g>
	<g id="LINE_6201_">
		<line class="st1" x1="61.2" y1="258.7" x2="61.2" y2="258.7"/>
	</g>
	<g id="LINE_6200_">
		<line class="st1" x1="61.2" y1="258.7" x2="61.2" y2="258.7"/>
	</g>
	<g id="LINE_6199_">
		<line class="st1" x1="52.2" y1="253.4" x2="52.2" y2="253.3"/>
	</g>
	<g id="LINE_6198_">
		<line class="st1" x1="52.2" y1="253.3" x2="52.2" y2="253.3"/>
	</g>
	<g id="LINE_6197_">
		<line class="st1" x1="52.2" y1="253.3" x2="52.2" y2="253.3"/>
	</g>
	<g id="LINE_6196_">
		<line class="st1" x1="42.3" y1="247.1" x2="42.3" y2="247.1"/>
	</g>
	<g id="LINE_6195_">
		<line class="st1" x1="42.3" y1="247.1" x2="42.3" y2="247.1"/>
	</g>
	<g id="LINE_6194_">
		<line class="st1" x1="42.3" y1="247.1" x2="42.3" y2="247.1"/>
	</g>
	<g id="LINE_6193_">
		<line class="st1" x1="67.3" y1="262" x2="67.3" y2="262"/>
	</g>
	<g id="LINE_6192_">
		<line class="st1" x1="67.3" y1="262" x2="67.3" y2="262"/>
	</g>
	<g id="LINE_6191_">
		<line class="st1" x1="67.3" y1="262" x2="67.3" y2="262"/>
	</g>
	<g id="SPLINE_2715_">
		<path class="st1" d="M52.2,253.4"/>
	</g>
	<g id="LINE_6190_">
		<line class="st1" x1="37.1" y1="244" x2="37.1" y2="244.1"/>
	</g>
	<g id="LINE_6189_">
		<line class="st1" x1="37.1" y1="244.1" x2="37.2" y2="244.2"/>
	</g>
	<g id="SPLINE_2714_">
		<path class="st1" d="M67.3,262"/>
	</g>
	<g id="LINE_6188_">
		<line class="st1" x1="45.6" y1="249.5" x2="45.6" y2="249.6"/>
	</g>
	<g id="LINE_6187_">
		<line class="st1" x1="45.6" y1="249.6" x2="45.7" y2="249.7"/>
	</g>
	<g id="SPLINE_2713_">
		<path class="st1" d="M61.2,258.7"/>
	</g>
	<g id="SPLINE_2712_">
		<path class="st1" d="M42.3,247.1"/>
	</g>
	<g id="LINE_6186_">
		<line class="st1" x1="64.3" y1="260.2" x2="64.3" y2="260.3"/>
	</g>
	<g id="LINE_6185_">
		<line class="st1" x1="64.3" y1="260.3" x2="64.4" y2="260.4"/>
	</g>
	<g id="SPLINE_2711_">
		<path class="st1" d="M64.2,259"/>
	</g>
	<g id="LINE_6184_">
		<line class="st1" x1="52.2" y1="253.3" x2="52.2" y2="253.3"/>
	</g>
	<g id="SPLINE_2710_">
		<path class="st1" d="M36.9,241.5"/>
	</g>
	<g id="LINE_6183_">
		<line class="st1" x1="37" y1="241.4" x2="37" y2="241.4"/>
	</g>
	<g id="LINE_6182_">
		<line class="st1" x1="42" y1="244.2" x2="42" y2="244.3"/>
	</g>
	<g id="LINE_6181_">
		<line class="st1" x1="42" y1="244.3" x2="42.1" y2="244.3"/>
	</g>
	<g id="LINE_6180_">
		<line class="st1" x1="42.1" y1="244.4" x2="42.1" y2="244.5"/>
	</g>
	<g id="LINE_6179_">
		<line class="st1" x1="42.1" y1="244.5" x2="42.1" y2="244.5"/>
	</g>
	<g id="LINE_6178_">
		<line class="st1" x1="52.2" y1="253.3" x2="52.2" y2="253.3"/>
	</g>
	<g id="LINE_6177_">
		<line class="st1" x1="52.2" y1="253.3" x2="52.2" y2="253.3"/>
	</g>
	<g id="LINE_6176_">
		<line class="st1" x1="52.2" y1="253.3" x2="52.2" y2="253.3"/>
	</g>
	<g id="LINE_6175_">
		<line class="st1" x1="52.2" y1="253.3" x2="52.2" y2="253.4"/>
	</g>
	<g id="SPLINE_2709_">
		<path class="st1" d="M52.2,253.4"/>
	</g>
	<g id="LINE_6174_">
		<line class="st1" x1="45.6" y1="249.6" x2="45.6" y2="249.6"/>
	</g>
	<g id="LINE_6173_">
		<line class="st1" x1="45.6" y1="249.6" x2="45.6" y2="249.5"/>
	</g>
	<g id="SPLINE_2708_">
		<path class="st1" d="M45.1,243.3"/>
	</g>
	<g id="LINE_6172_">
		<line class="st1" x1="45.1" y1="243.2" x2="45.1" y2="243.2"/>
	</g>
	<g id="LINE_6171_">
		<line class="st1" x1="45.1" y1="243.2" x2="45.1" y2="243.2"/>
	</g>
	<g id="LINE_6170_">
		<line class="st1" x1="61.2" y1="258.7" x2="61.2" y2="258.7"/>
	</g>
	<g id="LINE_6169_">
		<line class="st1" x1="55.6" y1="255.5" x2="55.5" y2="255.5"/>
	</g>
	<g id="LINE_6168_">
		<line class="st1" x1="55.5" y1="255.4" x2="55.5" y2="255.4"/>
	</g>
	<g id="LINE_6167_">
		<line class="st1" x1="64.4" y1="260.4" x2="64.3" y2="260.3"/>
	</g>
	<g id="SPLINE_2707_">
		<path class="st1" d="M64.3,260.3c-0.1-0.1-0.1-0.1-0.1-0.1"/>
	</g>
	<g id="LINE_6166_">
		<line class="st1" x1="67.1" y1="260.6" x2="67.2" y2="260.6"/>
	</g>
	<g id="SPLINE_2706_">
		<path class="st1" d="M67.2,260.7c0.1,0.1,0.1,0.1,0.1,0.1"/>
	</g>
	<g id="LINE_6165_">
		<line class="st1" x1="67.3" y1="260.8" x2="67.3" y2="260.8"/>
	</g>
	<g id="SPLINE_2705_">
		<path class="st1" d="M200.2,157.5"/>
	</g>
	<g id="SPLINE_2703_">
		<path class="st1" d="M202.8,157.8"/>
	</g>
	<g id="SPLINE_2702_">
		<path class="st1" d="M200.7,157.2"/>
	</g>
	<g id="SPLINE_2697_">
		<path class="st1" d="M47.1,239.6c0-0.1,0-0.2,0-0.3"/>
	</g>
	<g id="SPLINE_2696_">
		<path class="st1" d="M48.3,236.8c0-0.1,0.1-0.1,0.2-0.2"/>
	</g>
	<g id="LINE_6164_">
		<line class="st1" x1="48.9" y1="236.3" x2="48.8" y2="236.3"/>
	</g>
	<g id="LINE_6163_">
		<line class="st1" x1="48.8" y1="236.3" x2="48.8" y2="236.3"/>
	</g>
	<g id="LINE_6162_">
		<line class="st1" x1="48.8" y1="236.3" x2="48.8" y2="236.4"/>
	</g>
	<g id="SPLINE_2695_">
		<path class="st1" d="M101.5,266.6c0-0.1-0.1-0.1-0.1-0.2"/>
	</g>
	<g id="SPLINE_2694_">
		<path class="st1" d="M101.5,266.6c0,0.2,0,0.3,0,0.5"/>
	</g>
	<g id="LINE_6161_">
		<line class="st1" x1="102.8" y1="274.2" x2="102.7" y2="274.3"/>
	</g>
	<g id="SPLINE_2693_">
		<path class="st1" d="M101.4,266.4c-0.1,0-0.1-0.1-0.2-0.1"/>
	</g>
	<g id="SPLINE_2692_">
		<path class="st1" d="M48.9,236.3"/>
	</g>
	<g id="LINE_6152_">
		<line class="st1" x1="154.4" y1="198.5" x2="154.4" y2="198.5"/>
	</g>
	<g id="LINE_6142_">
		<line class="st1" x1="102.8" y1="274.2" x2="102.9" y2="274.2"/>
	</g>
	<g id="SPLINE_2675_">
		<path class="st1" d="M250.1,185.5"/>
	</g>
	<g id="SPLINE_2670_">
		<path class="st1" d="M249.6,185.8"/>
	</g>
	<g id="LINE_6122_">
		<line class="st1" x1="199.4" y1="224" x2="199.4" y2="224"/>
	</g>
	<g id="LINE_6121_">
		<path class="st0" d="M197.1,222.6L197.1,222.6c0,0-0.3-0.1-1.4,0.3s-0.6,1.7-0.6,1.7l-2.5,2.4l-0.4,0.4c-0.8-0.7-0.2-1.4-0.2-1.4
			l1.4-1.4l0.6,0.5c0,0,0-0.3-0.1-1.6s0.9-1.3,0.9-1.3l1.1-0.3l-2-1.3c0,0,0,0-1.2,0.2c-1.2,0.2-1.1,0.9-1.1,0.9v0.9
			c0,0-1.6,1.6-2.1,2c-0.6,0.4-0.3,0.8-0.3,0.8l0.8,0.8l2,1.1"/>
	</g>
	<g id="LINE_6119_">
		<line class="st1" x1="196.7" y1="222.7" x2="196.7" y2="222.7"/>
	</g>
	<g id="LINE_6105_">
		<path class="st1" d="M192.6,226.8c-0.3,0.9,0.8,1.4,0.8,1.4l2.2,1.2c0,0-1-0.8-0.3-1.6c0.7-0.7,1.3-1.2,1.3-1.2l0.7,0.5l0.1-0.2
			l0-1c0,0-0.5-1.6,0.9-1.7s1.2-0.3,1.2-0.3h0"/>
	</g>
	<g id="LINE_6071_">
		<line class="st1" x1="259.4" y1="195" x2="259.4" y2="195"/>
	</g>
	<g id="SPLINE_2550_">
		<path class="st1" d="M172.8,220.4"/>
	</g>
	<g id="SPLINE_2517_">
		<path class="st1" d="M163.3,207.5c0,0.1,0.1,0.2,0.2,0.2"/>
	</g>
	<g id="SPLINE_2510_">
		<path class="st1" d="M118.2,238.9c-0.2-0.1-0.3-0.2-0.4-0.4c-0.1-0.1-0.2-0.3-0.2-0.5"/>
	</g>
	<g id="SPLINE_2509_">
		<path class="st1" d="M118.2,235.1c-0.3,0.1-0.4,0.3-0.6,0.5c-0.1,0.1-0.1,0.2-0.2,0.3c0,0.1,0,0.2,0,0.3"/>
	</g>
	<g id="SPLINE_2506_">
		<path class="st1" d="M122.3,235.8c0-0.1-0.1-0.2-0.2-0.4c-0.1-0.1-0.2-0.2-0.3-0.4c-0.1-0.1-0.3-0.2-0.5-0.3
			c-0.2-0.1-0.4-0.1-0.6-0.2c-0.4-0.1-0.9-0.1-1.3,0c-0.4,0.1-0.9,0.2-1.2,0.4"/>
	</g>
	<g id="SPLINE_2505_">
		<path class="st1" d="M154.2,216.4c0-0.1,0-0.2-0.1-0.3c-0.1-0.1-0.2-0.2-0.2-0.3c-0.1-0.1-0.2-0.2-0.3-0.3
			c-0.1-0.1-0.3-0.1-0.4-0.2c-0.3-0.1-0.7-0.2-1-0.2c-0.4,0-0.7,0-1.1,0.1"/>
	</g>
	<g id="SPLINE_2503_">
		<path class="st1" d="M154,217c0.1-0.1,0.1-0.2,0.2-0.3c0-0.1,0.1-0.2,0-0.3"/>
	</g>
	<g id="SPLINE_2502_">
		<path class="st1" d="M122.1,236.5c0.1-0.1,0.1-0.2,0.2-0.3c0.1-0.1,0.1-0.2,0.1-0.4"/>
	</g>
	<g id="SPLINE_2501_">
		<path class="st1" d="M117.5,236.2c0,0.1,0,0.2,0.1,0.3c0.1,0.1,0.2,0.2,0.3,0.3c0.1,0.1,0.2,0.2,0.3,0.3c0.1,0.1,0.3,0.1,0.4,0.2
			c0.3,0.1,0.7,0.2,1.1,0.2c0.4,0,0.7,0,1.1-0.1"/>
	</g>
	<g id="SPLINE_2500_">
		<path class="st1" d="M151.3,218c0.4,0,0.7,0,1.1,0c0.1,0,0.2-0.1,0.3-0.1"/>
	</g>
	<g id="SPLINE_2499_">
		<path class="st1" d="M124.5,275.7c0.1-0.1,0.2-0.2,0.2-0.2c0.1-0.1,0.1-0.2,0.1-0.3"/>
	</g>
	<g id="SPLINE_2498_">
		<path class="st1" d="M121.5,278c0-0.3,0.2-0.5,0.4-0.6"/>
	</g>
	<g id="LINE_6054_">
		<line class="st1" x1="122" y1="278.4" x2="122.1" y2="278.4"/>
	</g>
	<g id="LINE_6053_">
		<line class="st1" x1="122.1" y1="278.4" x2="122.3" y2="278.5"/>
	</g>
	<g id="LINE_6052_">
		<line class="st1" x1="146.1" y1="298.6" x2="146" y2="298.4"/>
	</g>
	<g id="SPLINE_2497_">
		<path class="st1" d="M146,298.4c0-0.1,0-0.1-0.1-0.2"/>
	</g>
	<g id="SPLINE_2496_">
		<path class="st1" d="M138.9,276.2c0.1,0,0.1-0.1,0.2-0.1c0.2-0.1,0.4-0.2,0.6-0.2"/>
	</g>
	<g id="SPLINE_2495_">
		<path class="st1" d="M140,275.9c0.2,0,0.3,0,0.4,0c0.4,0,0.7,0.1,1.1,0.3"/>
	</g>
	<g id="SPLINE_2494_">
		<path class="st1" d="M143.3,278.7c0-0.5-0.2-1-0.4-1.4c-0.2-0.4-0.5-0.7-0.9-0.9"/>
	</g>
	<g id="SPLINE_2493_">
		<path class="st1" d="M144.8,296c0,0-0.1-0.1-0.1-0.2"/>
	</g>
	<g id="LINE_6051_">
		<line class="st1" x1="144.7" y1="295.8" x2="144.7" y2="295.7"/>
	</g>
	<g id="SPLINE_2492_">
		<path class="st1" d="M32.6,242.9c0,0.2,0.1,0.4,0.2,0.6c0.1,0.2,0.2,0.3,0.3,0.4"/>
	</g>
	<g id="SPLINE_2491_">
		<path class="st1" d="M33.9,244.2c-0.1,0-0.2-0.1-0.2-0.1"/>
	</g>
	<g id="LINE_6050_">
		<line class="st1" x1="137.2" y1="283.4" x2="137.2" y2="283.2"/>
	</g>
	<g id="SPLINE_2490_">
		<path class="st1" d="M139.9,305.1c0.2,0.1,0.4,0.1,0.6,0.1c0.2,0,0.5-0.1,0.7-0.2"/>
	</g>
	<g id="SPLINE_2489_">
		<path class="st1" d="M139.4,304.8c-0.1-0.1-0.2-0.1-0.2-0.2"/>
	</g>
	<g id="SPLINE_2488_">
		<path class="st1" d="M139.2,304.6c-0.1-0.1-0.1-0.1-0.1-0.2c-0.1-0.2-0.2-0.4-0.2-0.6"/>
	</g>
	<g id="SPLINE_2487_">
		<path class="st1" d="M135.9,277.9c0.1,0,0.1,0,0.2,0c0.1,0,0.3,0,0.4-0.1"/>
	</g>
	<g id="SPLINE_2486_">
		<path class="st1" d="M124.4,274.3c0.1,0.1,0.1,0.1,0.2,0.2"/>
	</g>
	<g id="SPLINE_2485_">
		<path class="st1" d="M124.6,274.4c0,0.1,0.1,0.1,0.1,0.2"/>
	</g>
	<g id="SPLINE_2430_">
		<path class="st1" d="M336.9,186"/>
	</g>
	<g id="SPLINE_2424_">
		<path class="st1" d="M230.8,118.9c-0.2-0.1-0.3-0.2-0.4-0.4c-0.1-0.2-0.3-0.3-0.4-0.5c-0.1-0.2-0.2-0.4-0.3-0.6
			c-0.1-0.2-0.1-0.3-0.1-0.5"/>
	</g>
	<g id="SPLINE_2423_">
		<path class="st1" d="M229.6,116.9c0-0.3,0-0.6,0.2-0.7c0,0,0.1-0.1,0.1-0.1c0.1,0,0.1,0,0.1-0.1c0.1,0,0.3,0,0.4,0.1
			c0.2,0.1,0.3,0.1,0.4,0.2c0.2,0.1,0.3,0.2,0.4,0.4c0.1,0.2,0.2,0.3,0.3,0.5c0.1,0.2,0.2,0.3,0.2,0.5"/>
	</g>
	<g id="SPLINE_2422_">
		<path class="st1" d="M231.8,117.7c0,0,0,0.1,0.1,0.1c0,0.1,0.1,0.2,0.1,0.4"/>
	</g>
	<g id="LINE_6020_">
		<line class="st1" x1="232.8" y1="116.6" x2="232.8" y2="116.5"/>
	</g>
	<g id="SPLINE_2421_">
		<path class="st1" d="M232.8,116.5c0,0,0-0.1,0-0.1c-0.1-0.1-0.2-0.3-0.3-0.3"/>
	</g>
	<g id="LINE_6019_">
		<line class="st1" x1="232.5" y1="116" x2="232.4" y2="115.9"/>
	</g>
	<g id="SPLINE_2419_">
		<path class="st1" d="M22.9,221.2c-0.1,0.1-0.2,0.2-0.2,0.2"/>
	</g>
	<g id="SPLINE_2418_">
		<path class="st1" d="M22.7,221.4c-0.1,0-0.1,0.1-0.1,0.1c-0.1,0.1-0.1,0.3-0.1,0.4"/>
	</g>
	<g id="SPLINE_2417_">
		<path class="st1" d="M142.3,299.9c0.1,0,0.2-0.1,0.2-0.1"/>
	</g>
	<g id="LINE_6018_">
		<line class="st1" x1="142.6" y1="299.8" x2="142.7" y2="299.8"/>
	</g>
	<g id="SPLINE_2416_">
		<path class="st1" d="M142.7,299.8c0.2,0,0.3,0,0.4,0.1"/>
	</g>
	<g id="SPLINE_2415_">
		<path class="st1" d="M145.9,299.3c0,0,0.1-0.1,0.1-0.1c0-0.1,0.1-0.3,0.1-0.4"/>
	</g>
	<g id="SPLINE_2414_">
		<path class="st1" d="M27.2,219.4c0.2-0.1,0.4-0.2,0.6-0.2c0.2,0,0.4,0,0.6,0.1"/>
	</g>
	<g id="SPLINE_2413_">
		<path class="st1" d="M142.8,303.9c0.1-0.1,0.2-0.1,0.2-0.2c0.2-0.2,0.5-0.4,0.7-0.6"/>
	</g>
	<g id="SPLINE_2412_">
		<path class="st1" d="M121.5,284.2c0.1,0.1,0.2,0.1,0.3,0.1c0.2,0,0.3-0.1,0.6-0.3"/>
	</g>
	<g id="SPLINE_2411_">
		<path class="st1" d="M24.5,228.6c-0.2-0.2-0.3-0.4-0.3-0.5"/>
	</g>
	<g id="SPLINE_2410_">
		<path class="st1" d="M141.8,302c-0.1,0-0.2-0.1-0.2-0.2"/>
	</g>
	<g id="SPLINE_2409_">
		<path class="st1" d="M141.5,301.6c-0.1-0.3,0-0.6,0.1-0.9c0.2-0.3,0.4-0.6,0.7-0.8"/>
	</g>
	<g id="LINE_6017_">
		<line class="st1" x1="23.8" y1="223.1" x2="23.8" y2="222.9"/>
	</g>
	<g id="SPLINE_2408_">
		<path class="st1" d="M24.2,228.1c0-0.1-0.1-0.2-0.1-0.2"/>
	</g>
	<g id="SPLINE_2407_">
		<path class="st1" d="M23.3,227.4c-0.1-0.1-0.2-0.1-0.3-0.3c-0.1-0.1-0.1-0.2-0.1-0.3"/>
	</g>
	<g id="LINE_6016_">
		<line class="st1" x1="23.8" y1="222.9" x2="23.8" y2="222.7"/>
	</g>
	<g id="SPLINE_2406_">
		<path class="st1" d="M137,278.2c-0.1,0.1-0.2,0.1-0.2,0.1c-0.3,0.1-0.6,0.2-0.9,0.2"/>
	</g>
	<g id="LINE_6015_">
		<line class="st1" x1="137.2" y1="283.2" x2="137.3" y2="283.2"/>
	</g>
	<g id="LINE_6014_">
		<line class="st1" x1="137.3" y1="283.2" x2="137.5" y2="283.1"/>
	</g>
	<g id="SPLINE_2405_">
		<path class="st1" d="M143.1,299.9c0.1,0,0.1,0.1,0.2,0.2"/>
	</g>
	<g id="SPLINE_2404_">
		<path class="st1" d="M142.2,302.1c-0.2,0-0.3,0-0.4-0.1"/>
	</g>
	<g id="SPLINE_2403_">
		<path class="st1" d="M22.5,221.9c0,0.1,0.1,0.3,0.1,0.4c0.1,0.1,0.2,0.2,0.3,0.2"/>
	</g>
	<g id="SPLINE_2402_">
		<path class="st1" d="M122.4,284c0.1,0,0.2,0,0.3,0"/>
	</g>
	<g id="SPLINE_2401_">
		<path class="st1" d="M143.3,278.7c-0.1-0.4-0.2-0.8-0.3-1.2c-0.2-0.3-0.4-0.6-0.7-0.8"/>
	</g>
	<g id="SPLINE_2400_">
		<path class="st1" d="M141.9,276.6c-0.4-0.2-0.9-0.2-1.3-0.2c-0.6,0.1-1.1,0.3-1.5,0.6"/>
	</g>
	<g id="SPLINE_2399_">
		<path class="st1" d="M144.8,296.2c0-0.1-0.1-0.1-0.1-0.2"/>
	</g>
	<g id="LINE_6013_">
		<line class="st1" x1="144.7" y1="296" x2="144.7" y2="295.9"/>
	</g>
	<g id="LINE_6012_">
		<line class="st1" x1="146" y1="298.7" x2="146" y2="298.6"/>
	</g>
	<g id="SPLINE_2398_">
		<path class="st1" d="M146,298.6c0-0.1,0-0.2-0.1-0.2"/>
	</g>
	<g id="SPLINE_2397_">
		<path class="st1" d="M124.3,274.2c0.1,0,0.1,0.1,0.2,0.1"/>
	</g>
	<g id="SPLINE_2396_">
		<path class="st1" d="M124.4,274.3c0.1,0.2,0.1,0.3,0.1,0.3"/>
	</g>
	<g id="SPLINE_2395_">
		<path class="st1" d="M124.5,274.6c-0.1,0.2-0.1,0.3-0.2,0.3"/>
	</g>
	<g id="SPLINE_2394_">
		<path class="st1" d="M23.8,222.5c0-0.1,0.1-0.3,0.1-0.4c0.2-0.4,0.4-0.8,0.7-1.1"/>
	</g>
	<g id="LINE_6011_">
		<line class="st1" x1="24.6" y1="221" x2="24.8" y2="220.8"/>
	</g>
	<g id="SPLINE_2393_">
		<path class="st1" d="M122.3,279.1c-0.1,0-0.2,0-0.3,0c-0.3,0-0.6-0.1-0.8-0.2"/>
	</g>
	<g id="SPLINE_2392_">
		<path class="st1" d="M121.8,276.4c-0.3,0.2-0.6,0.5-0.8,0.9c-0.2,0.4-0.3,0.8-0.3,1.2"/>
	</g>
	<g id="SPLINE_2391_">
		<path class="st1" d="M139.6,304.1c0,0.1,0,0.2,0.1,0.2c0,0.2,0.1,0.4,0.3,0.5"/>
	</g>
	<g id="SPLINE_2390_">
		<path class="st1" d="M140,304.9c0.1,0.1,0.2,0.1,0.4,0.2c0.1,0,0.3,0,0.4,0"/>
	</g>
	<g id="SPLINE_2389_">
		<path class="st1" d="M140.8,305c0.1,0,0.2-0.1,0.3-0.1"/>
	</g>
	<g id="SPLINE_2388_">
		<path class="st1" d="M137.5,283.1c0.1,0,0.1,0,0.2,0"/>
	</g>
	<g id="SPLINE_2387_">
		<path class="st1" d="M137.7,283.1c0.1,0,0.2,0.1,0.2,0.2c0.1,0.1,0.1,0.2,0.1,0.3"/>
	</g>
	<g id="SPLINE_2378_">
		<path class="st1" d="M334.1,159.6c0,0.1,0,0.1,0,0.2"/>
	</g>
	<g id="SPLINE_2377_">
		<path class="st1" d="M334.6,160.7c0-0.3-0.1-0.4-0.1-0.5"/>
	</g>
	<g id="SPLINE_2365_">
		<path class="st1" d="M336.8,186.6c0,0.1,0,0.1,0,0.2"/>
	</g>
	<g id="SPLINE_2360_">
		<path class="st1" d="M148,300.3c0,0.1,0,0.1,0.1,0.2c0,0,0.1,0.1,0.1,0.1"/>
	</g>
	<g id="LINE_6006_">
		<line class="st1" x1="147.8" y1="299.9" x2="147.8" y2="299.9"/>
	</g>
	<g id="SPLINE_2359_">
		<path class="st1" d="M147.8,299.9c0.1,0,0.1,0,0.1,0"/>
	</g>
	<g id="SPLINE_2357_">
		<path class="st1" d="M143.5,269.7c-0.1-0.7-0.2-0.8-0.3-1c-0.1-0.1-0.2-0.3-0.4-0.4"/>
	</g>
	<g id="SPLINE_2355_">
		<path class="st1" d="M34.3,246.1c-0.1-0.2-0.1-0.2-0.1-0.3"/>
	</g>
	<g id="SPLINE_2354_">
		<path class="st1" d="M149,301.5c-0.1,0-0.1,0-0.2,0c-0.1,0-0.1,0-0.2,0"/>
	</g>
	<g id="SPLINE_2349_">
		<path class="st1" d="M335.9,172.7c0.1,0.1,0.2,0.2,0.3,0.3c0.1,0.1,0.1,0.2,0.1,0.4"/>
	</g>
	<g id="SPLINE_2348_">
		<path class="st1" d="M337.3,185.7c0,0.2-0.1,0.3-0.1,0.4c-0.1,0.1-0.2,0.2-0.3,0.3"/>
	</g>
	<g id="LINE_6005_">
		<line class="st1" x1="232.4" y1="115.9" x2="232.5" y2="116"/>
	</g>
	<g id="SPLINE_2346_">
		<path class="st1" d="M232.5,116c0.2,0.2,0.3,0.3,0.3,0.5"/>
	</g>
	<g id="LINE_6004_">
		<line class="st1" x1="232.8" y1="116.5" x2="232.8" y2="116.6"/>
	</g>
	<g id="SPLINE_2345_">
		<path class="st1" d="M229.1,114c-0.1-0.1-0.2-0.1-0.3-0.1c-0.1,0-0.3,0-0.4,0"/>
	</g>
	<g id="SPLINE_2343_">
		<path class="st1" d="M140.2,305.2c-1.3,0.8-1.3,0.8-1.3,0.8c-0.1,0-0.2,0-0.2,0"/>
	</g>
	<g id="SPLINE_2342_">
		<path class="st1" d="M34,245.1c-0.1-0.1-0.1-0.1-0.1-0.2"/>
	</g>
	<g id="SPLINE_2339_">
		<path class="st1" d="M140.9,274.1c0,0.3,0,0.6-0.1,0.9c-0.1,0.3-0.3,0.6-0.5,0.8"/>
	</g>
	<g id="LINE_6003_">
		<line class="st1" x1="138.7" y1="276.3" x2="138.6" y2="276.2"/>
	</g>
	<g id="SPLINE_2338_">
		<path class="st1" d="M138.6,276.2c-0.2-0.3-0.2-0.4-0.2-0.6"/>
	</g>
	<g id="SPLINE_2337_">
		<path class="st1" d="M138.4,275.7c0-0.3,0-0.4,0-0.5"/>
	</g>
	<g id="SPLINE_2336_">
		<path class="st1" d="M138.5,275c0.1-0.3,0.2-0.6,0.4-0.8c0.2-0.2,0.4-0.5,0.6-0.6"/>
	</g>
	<g id="SPLINE_2335_">
		<path class="st1" d="M139.4,273.6c0.2-0.1,0.3-0.2,0.5-0.2c0.1,0,0.3,0,0.4,0c0.1,0,0.1,0.1,0.2,0.1c0.1,0.1,0.1,0.1,0.2,0.2
			c0.1,0.2,0.1,0.3,0.1,0.5"/>
	</g>
	<g id="SPLINE_2334_">
		<path class="st1" d="M83.2,236.9c0.2,0.1,0.3,0.2,0.4,0.3c0.1,0.1,0.1,0.1,0.1,0.2c0,0.1,0,0.1,0,0.2c0,0.2-0.1,0.3-0.2,0.4
			c-0.1,0.1-0.3,0.3-0.4,0.3"/>
	</g>
	<g id="SPLINE_2333_">
		<path class="st1" d="M83.1,238.4c-0.4,0.2-0.8,0.3-1.2,0.3c-0.2,0-0.4,0-0.6-0.1c-0.2,0-0.3-0.1-0.5-0.2"/>
	</g>
	<g id="SPLINE_2332_">
		<path class="st1" d="M80.8,238.4c-0.2-0.1-0.3-0.2-0.4-0.3c0,0,0-0.1-0.1-0.2c0-0.1,0-0.1,0-0.2c0-0.2,0.1-0.3,0.1-0.4
			c0.1-0.2,0.3-0.3,0.4-0.3c0.1-0.1,0.2-0.1,0.3-0.1c0.1,0,0.2-0.1,0.3-0.1c0.2-0.1,0.4-0.1,0.7-0.1c0.2,0,0.4,0,0.7,0.1
			c0.2,0,0.4,0.1,0.5,0.2"/>
	</g>
	<g id="SPLINE_2331_">
		<path class="st1" d="M94.5,243.4c0.1,0.1,0.3,0.2,0.3,0.3c0,0.1,0.1,0.1,0.1,0.2c0,0.1,0,0.1,0,0.2c0,0.1-0.1,0.3-0.2,0.4
			c-0.1,0.2-0.3,0.3-0.4,0.3"/>
	</g>
	<g id="SPLINE_2330_">
		<path class="st1" d="M94.3,244.8c-0.3,0.2-0.8,0.3-1.2,0.3c-0.2,0-0.4,0-0.6-0.1c-0.2,0-0.3-0.1-0.5-0.2"/>
	</g>
	<g id="SPLINE_2329_">
		<path class="st1" d="M92,244.9c-0.1-0.1-0.3-0.2-0.3-0.3c-0.1-0.1-0.1-0.1-0.1-0.2c0-0.1,0-0.1,0-0.2c0-0.1,0.1-0.3,0.2-0.4
			c0.1-0.1,0.2-0.3,0.4-0.3c0.1-0.1,0.2-0.1,0.3-0.1c0.1-0.1,0.2-0.1,0.3-0.1c0.2-0.1,0.4-0.1,0.7-0.1c0.2,0,0.4,0,0.6,0
			c0.2,0,0.4,0.1,0.6,0.2"/>
	</g>
	<g id="SPLINE_2317_">
		<path class="st1" d="M152.8,294.9c0,0.4-0.1,0.8-0.3,1.2c-0.1,0.2-0.2,0.4-0.4,0.5c-0.2,0.2-0.3,0.3-0.5,0.4
			c-0.1,0.1-0.3,0.2-0.5,0.2c-0.2,0-0.3,0-0.4,0c-0.1-0.1-0.2-0.2-0.3-0.3c-0.1-0.2-0.1-0.3-0.1-0.5"/>
	</g>
	<g id="SPLINE_2316_">
		<path class="st1" d="M150.3,296.4c0,0,0-0.1,0-0.1c0-0.2,0-0.3,0.1-0.5"/>
	</g>
	<g id="SPLINE_2315_">
		<path class="st1" d="M150.4,295.9c0.1-0.3,0.2-0.6,0.4-0.9c0.2-0.2,0.4-0.5,0.6-0.6"/>
	</g>
	<g id="SPLINE_2314_">
		<path class="st1" d="M151.3,294.4c0.2-0.1,0.3-0.2,0.5-0.2c0.2,0,0.3,0,0.4,0.1c0.1,0,0.1,0,0.2,0.1c0,0,0.1,0.1,0.1,0.2
			c0.1,0.2,0.1,0.3,0.2,0.5"/>
	</g>
	<g id="SPLINE_2313_">
		<path class="st1" d="M152,285.2c0,0.4-0.1,0.8-0.3,1.2c-0.1,0.2-0.3,0.4-0.4,0.6c-0.1,0.2-0.3,0.3-0.5,0.4
			c-0.2,0.1-0.3,0.2-0.5,0.2c-0.2,0-0.3,0-0.4,0c-0.1-0.1-0.2-0.2-0.3-0.3c-0.1-0.2-0.1-0.3-0.1-0.5"/>
	</g>
	<g id="SPLINE_2312_">
		<path class="st1" d="M149.5,286.7c0-0.1,0-0.1,0-0.2c0-0.1,0-0.3,0-0.4"/>
	</g>
	<g id="SPLINE_2311_">
		<path class="st1" d="M149.5,286.1c0.1-0.3,0.2-0.6,0.4-0.8c0.2-0.3,0.4-0.5,0.6-0.6"/>
	</g>
	<g id="SPLINE_2310_">
		<path class="st1" d="M150.5,284.6c0.2-0.1,0.3-0.2,0.5-0.2c0.1,0,0.3,0,0.5,0c0.1,0.1,0.1,0.1,0.2,0.1c0.1,0.1,0.1,0.1,0.2,0.2
			c0.1,0.2,0.1,0.3,0.2,0.5"/>
	</g>
	<g id="SPLINE_2309_">
		<path class="st1" d="M148.7,277.4c0,0,0-0.1,0-0.1c0-0.2,0-0.3,0-0.4"/>
	</g>
	<g id="SPLINE_2308_">
		<path class="st1" d="M148.8,276.8c0.1-0.3,0.2-0.6,0.4-0.8c0.2-0.2,0.4-0.5,0.6-0.6"/>
	</g>
	<g id="SPLINE_2307_">
		<path class="st1" d="M149.8,275.4c0.1-0.1,0.3-0.2,0.5-0.2c0.2,0,0.3,0,0.5,0c0.1,0,0.1,0,0.2,0.1c0,0,0.1,0.1,0.1,0.2
			c0.1,0.2,0.1,0.3,0.1,0.5"/>
	</g>
	<g id="SPLINE_2306_">
		<path class="st1" d="M151.2,275.9c0,0.4-0.1,0.8-0.3,1.2c-0.1,0.2-0.2,0.4-0.4,0.5c-0.1,0.1-0.3,0.3-0.5,0.4
			c-0.2,0.1-0.3,0.2-0.5,0.2c-0.2,0-0.3,0-0.4,0c-0.2-0.1-0.2-0.2-0.3-0.3c-0.1-0.1-0.1-0.3-0.1-0.5"/>
	</g>
	<g id="SPLINE_2304_">
		<path class="st1" d="M52.2,253.2"/>
	</g>
	<g id="SPLINE_2302_">
		<path class="st1" d="M149.1,301.2c0,0.1,0,0.1,0,0.2"/>
	</g>
	<g id="ELLIPSE_159_">
		<path class="st1" d="M101.5,267.1c0,0.2-0.1,0.4,0,0.5"/>
	</g>
	<g id="ELLIPSE_158_">
		<path class="st1" d="M101.9,272.8c0,0.5,0.3,0.7,0.8,0.7"/>
	</g>
	<g id="SPLINE_2277_">
		<path class="st1" d="M70.9,249c0,0.3,0,0.6-0.1,0.9c-0.1,0.5-0.2,0.9-0.3,1.4c-0.2,0.5-0.4,0.9-0.6,1.4c-0.2,0.4-0.5,0.9-0.8,1.3
			c-0.3,0.3-0.6,0.7-1,1c-0.3,0.3-0.7,0.5-1,0.7c-0.3,0.2-0.6,0.3-0.9,0.4"/>
	</g>
	
		<ellipse transform="matrix(0.9967 -8.081587e-02 8.081587e-02 0.9967 -12.7303 14.0643)" class="st1" cx="167.4" cy="164.3" rx="2.2" ry="1.3"/>
	
		<ellipse transform="matrix(0.9967 -8.081587e-02 8.081587e-02 0.9967 -12.7138 14.061)" class="st1" cx="167.3" cy="164.1" rx="1.4" ry="0.9"/>
	
		<ellipse transform="matrix(0.9967 -8.081587e-02 8.081587e-02 0.9967 -12.6859 14.0599)" class="st3" cx="167.3" cy="163.7" rx="1.4" ry="0.9"/>
	<path class="st0" d="M148.8,153.1c0,0-0.7-0.9-0.8-1.2c0-0.4,0.2-1.8-0.7-1.1s-0.6,2.4-0.6,2.4l0.5,5.4c0,0-0.1,1.7,1,0.9
		c1.1-0.8,0.6-2.3,0.6-2.3s0.6,0.3,0.6-0.6c0-0.9-0.3-3-0.3-3S149.1,153.3,148.8,153.1z"/>
	<polyline class="st1" points="222.7,123.7 225.4,125.3 226.5,124.6 	"/>
	<polyline class="st1" points="226.4,123.9 270.2,149 281.1,142.3 	"/>
	<line class="st1" x1="270.7" y1="155.1" x2="270.2" y2="149"/>
	<line class="st1" x1="256" y1="148.5" x2="261.1" y2="151.3"/>
	<line class="st1" x1="272.6" y1="155.9" x2="275" y2="154.4"/>
	<polyline class="st1" points="275.3,157.6 274.9,151.6 285.8,145 318.6,162.8 	"/>
	<line class="st1" x1="307.1" y1="170" x2="274.9" y2="151.6"/>
	<line class="st1" x1="277.8" y1="161" x2="300.6" y2="174"/>
	<polyline class="st0" points="297.8,175.8 284.4,167.9 268.4,177.7 272.5,180 268.6,182.6 277.8,187.8 	"/>
	<polyline class="st1" points="268.8,185.3 265.1,187.6 269.2,190 268.4,177.7 	"/>
	<polyline class="st1" points="264.9,187.7 264.9,188.6 271.1,192.2 	"/>
	<path class="st1" d="M259.5,193.9l1.3,0.7c0,0,0.5,0.5,0.3,1.1l-1.1,0.7l-0.9-0.5"/>
	<path class="st1" d="M261,194.7l1.7-1.6c0,0,0.4-0.5,0.4,0.3c0,0.7,0,1.6,0,1.6"/>
	<path class="st1" d="M261.1,195.9l1.5-1l2.9,0.2l0.3-0.9c0,0,0.2-0.6-0.6-0.4c-0.8,0.2-2,0.4-2,0.4"/>
	<path class="st1" d="M263,192.9l-2.2-1.3c0,0-0.2-0.2-0.6,0.2s-0.9,1-0.9,1"/>
	<path class="st1" d="M262.3,192.4l0.9-0.3c0,0,0.2-0.1,0.6,0.1c0.4,0.2,1.9,1.1,1.9,1.1s0.4,0.2,0.2,0.7"/>
	<path class="st1" d="M260.3,196.2l0.4,0.2c0,0,0.3,0.1,0.2,1.9"/>
	<path class="st0" d="M263.1,197c0,0,0.4-1.9,1.7-1.8"/>
	<path class="st0" d="M262.1,192.5l0.3-1c0,0,0.2-0.6-1.3,0.1"/>
	<path class="st1" d="M262.3,191.3L260,190c0,0-0.3-0.4-1,0.3"/>
	<polyline class="st0" points="232.5,143 230.6,141.8 234.6,139.3 219.8,131 204,140.7 208.1,143.1 204.2,145.7 218.7,153.9 
		225,150.3 	"/>
	<polyline class="st1" points="225,159 219.4,162.2 200.6,151.5 200.5,150.7 204.4,148.2 	"/>
	<polyline class="st1" points="204,140.7 204.8,152.9 200.5,150.7 	"/>
	<line class="st1" x1="218.7" y1="153.9" x2="219.4" y2="162.2"/>
	<line class="st1" x1="196" y1="222" x2="196" y2="222.7"/>
	<line class="st1" x1="191.6" y1="222.5" x2="193.8" y2="224"/>
	<line class="st1" x1="195.1" y1="224.7" x2="197.3" y2="226"/>
	<polyline class="st1" points="193.3,228.3 193.4,229.7 195.8,231.1 196.8,230.5 	"/>
	<line class="st1" x1="197" y1="230.2" x2="199" y2="231.5"/>
	<line class="st1" x1="198.6" y1="226.6" x2="200.9" y2="227.8"/>
	<path class="st1" d="M204.5,226.9L203,227c0,0-1,0-1,1s0.1,0.7,0.1,0.7l2.4,1.4l-0.1-0.9c0,0,0-0.7,0.6-0.7s1.4-0.4,1.4-0.4
		L204.5,226.9z"/>
	<path class="st1" d="M206.6,228.1v1.2l-1.3,0.7l-2.3,3.5l-2.6-1.3l-0.6-0.6c0,0-0.5-0.5,0.2-1s2.1-2,2.1-2"/>
	<path class="st1" d="M202.4,233.2c0,0-0.6-0.5-0.2-1c0.4-0.6,2.4-1.9,2.4-1.9"/>
	<polyline class="st1" points="199.4,233.2 200.4,232.5 200.5,233.9 201.8,234.5 	"/>
	<line class="st1" x1="175.7" y1="228.3" x2="173.5" y2="229.7"/>
	<line class="st1" x1="174.6" y1="227.3" x2="174.7" y2="228.9"/>
	<path class="st1" d="M173.6,226.7c0,0-0.2-1.5-0.6-1.7"/>
	<path class="st1" d="M175.9,229.4l1.1-3c0,0,0.4-0.7,0.8-0.7"/>
	<line class="st1" x1="173.8" y1="226.5" x2="174.7" y2="226"/>
	<path class="st1" d="M174.7,226.2l0-1.2c0,0,0.1-0.2,0.2-0.3s1.7-1.5,1.7-1.5l-2.3-1.3c0,0-0.3-0.2-0.6,0.2
		c-0.2,0.4-0.8,0.9-0.8,0.9"/>
	<path class="st1" d="M174.8,226.2l1.4-1l0.4,0l0.3,0.3l1.9,0.1c0,0,0.4-0.1,0.7-1.9c0,0-0.2-0.3-0.6-0.1c-0.4,0.2-2.1,0.6-2.1,0.6"
		/>
	<path class="st1" d="M176.6,225.4c0,0,0.7-1.4,0.1-2.1"/>
	<path class="st1" d="M179.4,223.7l-2.2-1.3c0,0-0.3-0.3-1.4,0.4"/>
	<path class="st1" d="M172.9,220.5c0,0,0.4-0.3,0.8-0.1c0.4,0.2,2.2,1.2,2.2,1.2s0.3,0.4-0.1,1.1"/>
	<line class="st1" x1="174.6" y1="222" x2="175.8" y2="221.6"/>
	<line class="st0" x1="64" y1="219" x2="64.5" y2="219.3"/>
	<line class="st0" x1="67.5" y1="220.9" x2="68.1" y2="221.3"/>
	<line class="st0" x1="71" y1="222.9" x2="71.5" y2="223.2"/>
	<line class="st1" x1="60.4" y1="216.9" x2="60.9" y2="217.2"/>
	<path class="st1" d="M165.8,216.4l0.2,0l0.1-0.1c0,0,0.4,0,0.6,0.1c0.2,0.1,1,0.6,1,0.6"/>
	<path class="st1" d="M169.2,218.4l0.3,0l0.1-0.2l0.3,0c0,0,0.9,0.5,1.2,0.7"/>
	<polyline class="st0" points="163.1,205.2 157,208.9 155.2,207.9 	"/>
	<polyline class="st1" points="158.7,201.1 157.8,201.7 158,203.1 156.8,203.8 157.2,208.9 	"/>
	<polyline class="st1" points="158.4,200 157.3,200.7 157.4,202.2 	"/>
	<path class="st1" d="M155.1,205.3l1.5,0.8l-0.3-3.3l0.2-0.4l0.3,0c0,0,0.5-0.1,0.8-0.9"/>
	<polyline class="st0" points="157.2,199.9 157.2,200.2 154.9,203.2 	"/>
	<path class="st0" d="M154.7,202.2l1.1-1.3c0,0,0.2-0.3,0.5,0.1"/>
	<line class="st4" x1="201.8" y1="158.4" x2="201.9" y2="159"/>
	<path class="st0" d="M258.1,189l-1.6-0.9c0,0-0.5-0.2-0.8,0.2"/>
	<path class="st0" d="M254.5,186.9l-1.7-0.9c0,0-0.4-0.2-0.8,0.2"/>
	<line class="st0" x1="234.6" y1="141.7" x2="234.6" y2="139.3"/>
	<path class="st3" d="M49.7,244.9c-0.3-3.5,1.9-2.1,1.9-2.1l9.5,5.5c0,0,2.2,1.9,2.5,4c0,0,1.1,2.6-2.1,2.8c0,0-1.2,0.3-3.7-1.5
		c0,0-1.9-1.1-2.7-2.1c-0.8-1.1-1.8-2.1-2.5-2.3c-0.7-0.2-2.6-1.5-2.9-3.8L49.7,244.9z"/>
	<path class="st5" d="M49.8,244.2c0,0-0.4,2.4,1.8,4.1l2.4,1.4l0.2,0.3l0.4,0.3l0.2,0.5l0.5,0.3l0,0.3l0.5,0.4l0.1,0.3l0.5,0.4
		c0,0,1.6,1.8,2.8,1.2c0,0,1.2-1.7-0.7-3.9c0,0-1.3-1.4-2-1.6l-0.9-0.2l0.1-0.5l-0.8-0.3l0.2-0.5l-0.7-0.3l0.2-0.4l-0.7-0.3l0.1-0.5
		l-0.1-0.3c0,0-2.1-1.5-3.5-1.6C50.5,243.4,49.8,243.7,49.8,244.2z"/>
	<line class="st6" x1="53.9" y1="245.9" x2="53.9" y2="249.4"/>
	<line class="st6" x1="54.5" y1="246.5" x2="54.5" y2="250"/>
	<line class="st6" x1="55.2" y1="247.1" x2="55.2" y2="250.7"/>
	<line class="st6" x1="55.9" y1="248" x2="56" y2="251.6"/>
	<polygon points="51.3,244.7 51.1,246.4 52.5,246.3 	"/>
	<line class="st0" x1="147.2" y1="187.7" x2="146.5" y2="187.4"/>
	<line class="st0" x1="150.8" y1="189.6" x2="150.1" y2="189.4"/>
	<line class="st0" x1="154.3" y1="191.6" x2="153.5" y2="191.3"/>
	<line class="st0" x1="157.8" y1="193.7" x2="157.1" y2="193.5"/>
	<line class="st0" x1="196.7" y1="215.9" x2="196" y2="215.6"/>
	<line class="st0" x1="200.2" y1="217.9" x2="199.5" y2="217.6"/>
	<line class="st0" x1="203.7" y1="220" x2="203" y2="219.7"/>
	<line class="st0" x1="207.3" y1="222" x2="206.7" y2="221.7"/>
</g>
<g id="Layer_3">
	<path class="st7" d="M86.8,232.5"/>
	<path class="st1" d="M131.7,183.1c0,0,0.5-2.4,1-2.9c0.5-0.5,1.8-0.4,1.6,0.8s-0.6,1.9-0.6,3.3"/>
	<polygon class="st1" points="84.9,208.3 93.1,203.2 88.9,200.5 116.2,184.2 120.4,186.4 128.6,181.3 154.1,195.9 145.9,201 
		149.8,203.4 122.9,220.2 118.7,217.6 110.3,222.8 	"/>
	<path class="st1" d="M133.1,179.7c0.4-0.5,1.3-0.4,1.8,0.3c0.5,0.8,0,1.1-0.3,2c-0.3,0.9,1.1,0.4,1.1,0.4s4.4-2.5,5.5-3.3
		c1-0.8,0.6-1.4,0.6-1.4c-0.4-0.7-1.2-0.8-1.9-1.4s0.4-0.6,0.4-0.6s1.4,0.5,2,1.4c0.6,0.9,0.7,1.2,0.8,2.4s0.4,4.3,0.4,4.3l-4.9,3.1
		"/>
	<path class="st1" d="M134.2,179.4c0,0,2.4-3.6,5.5-3.1"/>
	<path class="st1" d="M135,180.1c0,0,2.9-3.9,5.5-2.9c0,0,0.9,0.3,1,1.5"/>
	<path class="st1" d="M134.7,182.4c0,0,1-3.1,3.6-4.3s2.9,0.6,2.9,0.6"/>
	<polyline class="st0" points="136.5,185.7 141.3,182.9 141.8,181.8 142.6,181.4 141.9,183.6 140.9,184.1 139.8,185.4 	"/>
	<polyline class="st0" points="137.9,186.6 137.9,185.6 139.6,184.6 139.7,186.3 	"/>
	<polyline class="st0" points="137.7,184.8 137.7,183.3 139.4,182.3 139.5,183.8 	"/>
	<line class="st0" x1="141.8" y1="183.5" x2="141.1" y2="183"/>
	<line class="st0" x1="139.6" y1="184.6" x2="139" y2="184.2"/>
	<line class="st0" x1="137.9" y1="185.6" x2="137.3" y2="185.3"/>
</g>
<g id="More_Simple">
</g>
<g id="GRAY">
</g>
<g id="CALL_OUT">
	<g>
		<polygon class="st8" points="258.9,199.3 208.2,230.3 207.6,222.1 258.3,191.2 		"/>
		<polygon class="st8" points="172.9,232 160.1,239.9 159.5,239.6 147.4,247 147.1,247.7 127.9,259.5 121.5,255.8 121.2,251.8 
			171.9,220.9 		"/>
		<polygon class="st8" points="162.8,202.2 159.3,204.3 158.2,193.8 161.9,191.6 		"/>
		<polygon class="st8" points="86.1,226.7 78.7,231.2 72.3,227.6 71.9,223.6 85.1,215.5 		"/>
	</g>
	<g>
		<g>
			<g>
				<polyline class="st9" points="166.7,107.4 166.7,154.8 3.9,154.8 3.9,6.7 166.7,6.7 166.7,61.4 217.3,220 				"/>
				<path class="st10" d="M41.3,123.1L41.3,123.1 M41.3,123.2L41.3,123.2"/>
				<path class="st10" d="M51.4,126.4L51.4,126.4 M51.4,126.4L51.4,126.4"/>
				<path class="st10" d="M38.5,116.6L38.5,116.6 M38.4,119.6l0.1-3"/>
				<path class="st10" d="M39.9,123.4L39.9,123.4 M39.9,123.4l-0.2,7.6"/>
				<path class="st10" d="M40.3,131.4L40.3,131.4 M40.3,131.4l0,0.6"/>
				<path class="st10" d="M41.3,123.2L41.3,123.2 M41.1,128.5l0.2-5.3"/>
				<path class="st11" d="M43.9,108L43.9,108 M43.7,113.7l0.2-5.7"/>
				<path class="st11" d="M45.4,109.9L45.4,109.9 M45.2,116l0.2-6.1"/>
				<path class="st10" d="M45.7,124.5L45.7,124.5 M45.6,129.9l0.2-5.4"/>
				<path class="st10" d="M46,119L46,119 M45.9,122l0.1-3"/>
				<path class="st11" d="M46.7,110.3L46.7,110.3 M46.7,110.3l-0.2,5.7"/>
				<path class="st12" d="M46.2,133.3L46.2,133.3 M46.2,133.9l0-0.6"/>
				<path class="st10" d="M46.7,125.8L46.7,125.8 M46.5,133.4l0.2-7.6"/>
				<path class="st10" d="M47.5,125.7L47.5,125.7 M47.5,125.7l-0.2,7.6"/>
				<path class="st11" d="M48.3,109.4L48.3,109.4 M48.1,115.1l0.2-5.7"/>
				<path class="st10" d="M48.7,119.8L48.7,119.8 M48.7,119.8l-0.1,3"/>
				<path class="st10" d="M48.9,117.2L48.9,117.2 M48.9,117.5l0-0.3"/>
				<path class="st11" d="M48.9,119L48.9,119 M48.9,119l0,0.1"/>
				<path class="st10" d="M50.1,126.7L50.1,126.7 M50.1,126.7l-0.2,7.6"/>
				<path class="st11" d="M50.9,116.3L50.9,116.3 M50.9,116.7l0-0.4"/>
				<path class="st12" d="M50.4,134.7L50.4,134.7 M50.4,135.3l0-0.6"/>
				<path class="st11" d="M51.5,110.4L51.5,110.4 M51.5,110.4l-0.2,7.7"/>
				<path class="st10" d="M51.4,126.4L51.4,126.4 M51.4,126.4l-0.2,5.3"/>
				<path class="st11" d="M54,111.3L54,111.3 M53.8,116.9l0.2-5.7"/>
				<path class="st11" d="M55.6,113.2L55.6,113.2 M55.4,119.3l0.2-6.1"/>
				<path class="st10" d="M55.9,127.8L55.9,127.8 M55.9,127.8l-0.2,5.4"/>
				<path class="st10" d="M56.1,122.3L56.1,122.3 M56.1,122.3l-0.1,3"/>
				<path class="st11" d="M56.8,113.6L56.8,113.6 M56.8,113.6l-0.2,5.7"/>
				<path class="st12" d="M56.3,136.5L56.3,136.5 M56.3,136.5l0,0.6"/>
				<path class="st10" d="M56.8,129.1L56.8,129.1 M56.6,136.6l0.2-7.6"/>
				<path class="st10" d="M57.6,129L57.6,129 M57.6,129l-0.2,7.6"/>
				<path class="st11" d="M58.4,112.7L58.4,112.7 M58.3,118.4l0.2-5.7"/>
				<path class="st10" d="M59,120.5L59,120.5 M59,120.5l0,0.3"/>
				<path class="st11" d="M59.1,122.3L59.1,122.3 M59.1,122.3l-0.1,3.4"/>
				<path class="st11" d="M61,119.5L61,119.5 M61,119.5l0,0.4"/>
				<path class="st11" d="M61.6,113.7L61.6,113.7 M61.6,113.7l-0.4,14.1"/>
				<path class="st10" d="M48.6,123L48.6,123 M48.6,123l-0.5,1.3"/>
				<path class="st10" d="M48.5,123.3L48.5,123.3 M47.6,125.7l1-2.4"/>
				<path class="st11" d="M124.4,44.1L124.4,44.1 M124.4,46.5l0.1-2.4"/>
				<path class="st11" d="M125.9,47L125.9,47 M125.9,50l0.1-3"/>
				<path class="st10" d="M131,46.5L131,46.5 M131,48.6l0.1-2.1"/>
				<path class="st11" d="M134.6,47.4L134.6,47.4 M134.5,49.7l0.1-2.4"/>
				<path class="st11" d="M136.1,50.3L136.1,50.3 M135.6,64.4l0.4-14.1"/>
				<path class="st10" d="M136,60.7L136,60.7 M135.8,65.1l0.1-4.4"/>
				<path class="st10" d="M136.2,55.5L136.2,55.5 M136.1,56l0-0.4"/>
				<path class="st10" d="M138.1,54.9L138.1,54.9 M138,58.4l0.1-3.4"/>
				<path class="st10" d="M139.2,59.5L139.2,59.5 M138.9,67.1l0.2-7.6"/>
				<path class="st10" d="M139.2,59.4L139.2,59.4 M139.2,59.4L139,67"/>
				<path class="st10" d="M141.2,49.8L141.2,49.8 M141.2,49.8l-0.1,3"/>
				<path class="st10" d="M58.9,125.7L58.9,125.7 M58.9,125.7l-0.8,1.9"/>
				<path class="st10" d="M141,53.2L141,53.2 M141,53.2l-0.7,1.8"/>
				<path class="st13" d="M92.5,59.1L92.5,59.1"/>
				<path class="st14" d="M118.3,44.5L118.3,44.5 M43.9,108l74.5-63.4"/>
				<path class="st11" d="M123.2,43.7L123.2,43.7 M45.4,109.9l77.7-66.2"/>
				<path class="st10" d="M39.1,115.6L39.1,115.6 M38.8,115.8l0.3-0.3"/>
				<path class="st11" d="M124.4,44.1L124.4,44.1 M124.4,44.1l-77.7,66.2"/>
				<path class="st10" d="M43.2,113.6L43.2,113.6 M41.7,114.9l1.5-1.3"/>
				<path class="st11" d="M122.8,46L122.8,46 M48.3,109.4L122.8,46"/>
				<path class="st10" d="M45.3,115.3L45.3,115.3 M44.7,115.8l0.6-0.5"/>
				<path class="st11" d="M125.9,47L125.9,47 M125.9,47l-74.5,63.4"/>
				<path class="st11" d="M47.6,115L47.6,115 M47.6,115l-1.5,1.3"/>
				<path class="st11" d="M128.5,47.8L128.5,47.8 M54,111.3l74.5-63.4"/>
				<path class="st10" d="M40.1,123.2L40.1,123.2 M40,123.3L40,123.3"/>
				<path class="st10" d="M130.8,46.3L130.8,46.3 M130.8,46.3l-0.3,0.3"/>
				<path class="st10" d="M46.6,118L46.6,118 M46.6,118l-0.3,0.2"/>
				<path class="st10" d="M41.2,124L41.2,124 M41.2,124L41.2,124"/>
				<path class="st10" d="M50.6,116L50.6,116 M50.6,116l-1.8,1.5"/>
				<path class="st11" d="M133.3,46.9L133.3,46.9 M55.6,113.2l77.7-66.2"/>
				<path class="st11" d="M50.3,117.8L50.3,117.8 M48.9,119l1.4-1.2"/>
				<path class="st11" d="M49.3,118.8L49.3,118.8 M49.3,118.8l-0.3,0.3"/>
				<path class="st11" d="M134.6,47.4L134.6,47.4 M134.6,47.4l-77.7,66.2"/>
				<path class="st11" d="M53.3,116.9L53.3,116.9 M53.3,116.9l-1.5,1.3"/>
				<path class="st11" d="M132.9,49.2L132.9,49.2 M58.4,112.7l74.5-63.4"/>
				<path class="st10" d="M46.1,125.2L46.1,125.2 M45.7,125.5l0.4-0.3"/>
				<path class="st10" d="M48.7,123.2L48.7,123.2 M48.7,123.2l-0.1,0.1"/>
				<path class="st10" d="M48,124.3L48,124.3 M48,124.3l-0.8,0.7"/>
				<path class="st10" d="M55.4,118.6L55.4,118.6 M55.4,118.6l-0.6,0.5"/>
				<path class="st10" d="M47.6,125.7L47.6,125.7 M47.6,125.7L47.6,125.7"/>
				<path class="st11" d="M136.1,50.3L136.1,50.3 M136.1,50.3l-74.5,63.5"/>
				<path class="st11" d="M57.8,118.3L57.8,118.3 M56.3,119.6l1.5-1.3"/>
				<path class="st10" d="M50.2,126.5L50.2,126.5 M50.2,126.5L50.2,126.5"/>
				<path class="st10" d="M56.7,121.3L56.7,121.3 M56.4,121.5l0.3-0.2"/>
				<path class="st10" d="M140.9,49.5L140.9,49.5 M136.5,54.8l4.4-5.2"/>
				<path class="st10" d="M51.4,127.3L51.4,127.3 M51.4,127.3L51.4,127.3"/>
				<path class="st10" d="M60.8,119.3L60.8,119.3 M59,120.8l1.7-1.5"/>
				<path class="st10" d="M138.1,54.9L138.1,54.9 M138.1,54.9l-1.4,1.2"/>
				<path class="st11" d="M60.4,121.1L60.4,121.1 M60.4,121.1l-1.4,1.2"/>
				<path class="st12" d="M46.7,133.4L46.7,133.4 M46.2,133.9l0.6-0.5"/>
				<path class="st10" d="M49.9,131L49.9,131 M49.9,131l-2.7,2.3"/>
				<path class="st10" d="M56.2,128.4L56.2,128.4 M56.2,128.4l-0.3,0.3"/>
				<polyline class="st11" points="58.7,126.5 60.7,124.8 60.7,124.8 				"/>
				<path class="st10" d="M138.2,58.8L138.2,58.8 M136,60.7l2.3-1.9"/>
				<path class="st10" d="M58.2,127.6L58.2,127.6 M57.4,128.3l0.8-0.7"/>
				<path class="st10" d="M139.5,58.3L139.5,58.3 M138.7,59l0.8-0.7"/>
				<path class="st10" d="M57.7,128.9L57.7,128.9 M57.6,129L57.6,129"/>
				<path class="st10" d="M139.2,59.5L139.2,59.5 M139.1,59.6L139.1,59.6"/>
				<path class="st11" d="M135.6,64.4L135.6,64.4 M61.2,127.9l74.5-63.4"/>
				<path class="st10" d="M135.8,65.1L135.8,65.1 M135.8,65.1l-75,63.9"/>
				<path class="st12" d="M56.9,136.7L56.9,136.7 M56.9,136.7l-0.6,0.5"/>
				<path class="st10" d="M138.9,67.1L138.9,67.1 M57.4,136.6l81.5-69.5"/>
				<path class="st10" d="M40.8,122.9L40.8,122.9 M40.1,123.2l0.7-0.3"/>
				<path class="st10" d="M50.9,126.2L50.9,126.2 M50.9,126.2l-0.7,0.3"/>
				<line class="st10" x1="38.5" y1="119.9" x2="39.2" y2="120.5"/>
				<line class="st10" x1="46.6" y1="122.9" x2="46" y2="122.3"/>
				<line class="st10" x1="48.6" y1="123.1" x2="49.3" y2="123.7"/>
				<line class="st10" x1="56.8" y1="126.1" x2="56.1" y2="125.5"/>
				<line class="st10" x1="138.2" y1="58.8" x2="139.1" y2="59.6"/>
				<line class="st10" x1="138.7" y1="59" x2="138" y2="58.4"/>
				<line class="st12" x1="40.3" y1="132" x2="46.2" y2="133.9"/>
				<line class="st12" x1="56.3" y1="137.2" x2="50.4" y2="135.3"/>
				<line class="st10" x1="40" y1="131.3" x2="40.3" y2="131.4"/>
				<line class="st12" x1="46.2" y1="133.3" x2="46.5" y2="133.4"/>
				<line class="st12" x1="56.6" y1="136.6" x2="56.3" y2="136.5"/>
				<line class="st12" x1="50.4" y1="134.7" x2="50.1" y2="134.6"/>
				<line class="st10" x1="41.1" y1="128.5" x2="45.6" y2="129.9"/>
				<line class="st10" x1="50.4" y1="127" x2="51.4" y2="127.3"/>
				<line class="st10" x1="55.8" y1="128.7" x2="56.8" y2="129.1"/>
				<line class="st10" x1="46.7" y1="125.8" x2="45.7" y2="125.5"/>
				<line class="st10" x1="41.2" y1="124" x2="40.2" y2="123.7"/>
				<line class="st10" x1="56.2" y1="128.4" x2="57.7" y2="128.9"/>
				<line class="st10" x1="47.6" y1="125.7" x2="46.1" y2="125.2"/>
				<line class="st10" x1="57.4" y1="128.3" x2="55.9" y2="127.8"/>
				<line class="st10" x1="47.2" y1="125" x2="45.7" y2="124.5"/>
				<line class="st10" x1="51.4" y1="126.4" x2="49.9" y2="125.9"/>
				<line class="st10" x1="39.8" y1="122.6" x2="41.3" y2="123.1"/>
				<line class="st10" x1="48.5" y1="123.3" x2="48.5" y2="123.3"/>
				<line class="st11" x1="58.7" y1="126.5" x2="58.6" y2="126.5"/>
				<line class="st10" x1="56.1" y1="122.3" x2="48.7" y2="119.8"/>
				<line class="st10" x1="46" y1="119" x2="38.5" y2="116.6"/>
				<line class="st10" x1="49.3" y1="118.8" x2="56.7" y2="121.3"/>
				<line class="st10" x1="46.6" y1="118" x2="39.1" y2="115.6"/>
				<line class="st10" x1="51.5" y1="118.1" x2="59" y2="120.5"/>
				<line class="st10" x1="48.9" y1="117.2" x2="41.4" y2="114.8"/>
				<line class="st10" x1="43.3" y1="113.5" x2="45.3" y2="114.2"/>
				<line class="st11" x1="53.4" y1="116.8" x2="55.4" y2="117.4"/>
				<line class="st11" x1="56.8" y1="113.6" x2="55.6" y2="113.2"/>
				<line class="st14" x1="46.7" y1="110.3" x2="45.4" y2="109.9"/>
				<line class="st11" x1="61.6" y1="113.7" x2="58.4" y2="112.7"/>
				<line class="st11" x1="56.8" y1="112.1" x2="54" y2="111.3"/>
				<line class="st14" x1="51.5" y1="110.4" x2="48.3" y2="109.4"/>
				<line class="st14" x1="46.6" y1="108.9" x2="43.9" y2="108"/>
				<line class="st13" x1="47.1" y1="97.8" x2="45.8" y2="97.3"/>
				<line class="st10" x1="138.4" y1="58.9" x2="138.9" y2="59.1"/>
				<line class="st10" x1="138.4" y1="58.9" x2="138.7" y2="59"/>
				<line class="st10" x1="138.2" y1="58.8" x2="135.8" y2="58"/>
				<line class="st10" x1="136.4" y1="56.2" x2="135.9" y2="56.1"/>
				<line class="st11" x1="135.9" y1="55.9" x2="136.1" y2="56"/>
				<line class="st11" x1="136.2" y1="55.5" x2="135.9" y2="55.4"/>
				<line class="st10" x1="135.9" y1="54.6" x2="136.5" y2="54.8"/>
				<line class="st11" x1="118.3" y1="44.5" x2="121.1" y2="45.4"/>
				<line class="st11" x1="122.8" y1="46" x2="125.9" y2="47"/>
				<polyline class="st11" points="128.5,47.8 129,48 131.2,48.7 				"/>
				<line class="st11" x1="132.9" y1="49.2" x2="136.1" y2="50.3"/>
				<line class="st10" x1="140.9" y1="49.5" x2="134.6" y2="47.5"/>
				<line class="st10" x1="141.1" y1="49.5" x2="134.5" y2="47.4"/>
				<line class="st10" x1="130.9" y1="46.2" x2="124.4" y2="44.1"/>
				<line class="st11" x1="123.2" y1="43.7" x2="124.4" y2="44.1"/>
				<line class="st11" x1="133.3" y1="46.9" x2="134.6" y2="47.4"/>
				<path class="st10" d="M43.3,113.5C43.3,113.5,43.3,113.5,43.3,113.5c-0.1,0-0.1,0-0.2,0.1"/>
				<path class="st11" d="M50.8,116C50.8,116,50.8,116,50.8,116c0.1,0.1,0.1,0.2,0.1,0.3"/>
				<path class="st11" d="M47.8,115C47.8,115,47.8,115,47.8,115c-0.1,0-0.1,0-0.2,0.1"/>
				<path class="st10" d="M130.9,46.2C130.9,46.2,131,46.3,130.9,46.2c0.1,0.1,0.1,0.2,0.1,0.3"/>
				<path class="st10" d="M39.7,131C39.7,131.1,39.7,131.1,39.7,131c0.1,0.2,0.2,0.2,0.3,0.3"/>
				<path class="st10" d="M39.9,123.4c0,0,0-0.1,0-0.1c0,0,0,0,0,0"/>
				<path class="st12" d="M46.5,133.4c0.1,0,0.3,0.1,0.4,0c0.1,0,0.3,0,0.4-0.1"/>
				<path class="st10" d="M39.2,120.5c0.2,0.2,0.4,0.5,0.5,0.8c0.1,0.4,0.2,0.9,0.1,1.3"/>
				<path class="st10" d="M38.8,115.8c-0.1,0.1-0.2,0.2-0.2,0.3c-0.1,0.1-0.1,0.3-0.1,0.4"/>
				<path class="st10" d="M38.4,119.6C38.4,119.6,38.4,119.7,38.4,119.6c0,0.2,0,0.2,0.1,0.3"/>
				<path class="st11" d="M50.9,116.7c-0.1,0.2-0.1,0.5-0.2,0.7c-0.1,0.2-0.2,0.3-0.4,0.5"/>
				<path class="st10" d="M40.2,123.7c0,0-0.1,0-0.1-0.1c-0.1,0-0.2-0.1-0.2-0.2"/>
				<path class="st10" d="M47.5,125.7c-0.1,0.1-0.2,0.1-0.4,0.1c-0.1,0-0.3,0-0.4,0"/>
				<path class="st10" d="M130.8,46.3C130.8,46.3,130.8,46.3,130.8,46.3c0.1-0.1,0.1-0.1,0.2-0.1"/>
				<path class="st10" d="M46,119c0-0.1,0-0.3,0.1-0.4c0-0.1,0.1-0.2,0.2-0.3"/>
				<path class="st11" d="M50.6,116C50.6,116,50.7,116,50.6,116c0.1-0.1,0.1-0.1,0.2-0.1c0,0-2.7-0.9-2.7-0.9"/>
				<path class="st10" d="M47.2,125c0-0.4,0-0.9-0.1-1.3c-0.1-0.3-0.2-0.6-0.5-0.8"/>
				<path class="st10" d="M46,122.3C46,122.3,46,122.3,46,122.3c-0.1-0.1-0.1-0.2-0.1-0.3"/>
				<path class="st10" d="M138.9,67.1C138.9,67.1,138.9,67.1,138.9,67.1C139,67,139,67,139,67"/>
				<path class="st10" d="M138.9,59.1c0,0,0.1,0,0.1,0.1c0.1,0,0.2,0.1,0.2,0.2"/>
				<path class="st10" d="M140.2,55c-0.2,0.5-0.4,1.1-0.5,1.7c-0.1,0.5-0.2,1.1-0.2,1.6"/>
				<path class="st10" d="M136.7,56.1C136.7,56.1,136.7,56.2,136.7,56.1c-0.2,0.1-0.3,0.2-0.4,0.1"/>
				<path class="st10" d="M141.1,52.8c0,0,0,0.1,0,0.1c0,0.1,0,0.2-0.1,0.3"/>
				<path class="st11" d="M60.9,119.2C60.9,119.2,61,119.2,60.9,119.2c0.1,0.1,0.1,0.2,0.1,0.3"/>
				<path class="st11" d="M57.9,118.3C57.9,118.3,57.9,118.2,57.9,118.3c-0.1,0-0.1,0-0.2,0.1"/>
				<path class="st11" d="M53.4,116.8C53.4,116.8,53.4,116.8,53.4,116.8c-0.1,0-0.1,0-0.2,0.1"/>
				<path class="st10" d="M141.1,49.5C141.1,49.5,141.1,49.5,141.1,49.5c0.1,0.1,0.1,0.2,0.1,0.3"/>
				<path class="st12" d="M49.8,134.3C49.8,134.3,49.8,134.3,49.8,134.3c0.1,0.2,0.2,0.2,0.3,0.3"/>
				<path class="st10" d="M50.1,126.7c0,0,0-0.1,0-0.1c0,0,0,0,0,0"/>
				<path class="st12" d="M56.6,136.6c0.1,0,0.3,0.1,0.4,0c0.1,0,0.3,0,0.4-0.1"/>
				<path class="st11" d="M61,120c-0.1,0.2-0.1,0.5-0.2,0.7c-0.1,0.2-0.2,0.3-0.4,0.5"/>
				<path class="st10" d="M49.3,123.7c0.2,0.2,0.4,0.5,0.5,0.8c0.1,0.4,0.2,0.9,0.1,1.3"/>
				<path class="st10" d="M49,119.1c-0.1,0.1-0.2,0.2-0.2,0.3c-0.1,0.1-0.1,0.3-0.1,0.4"/>
				<path class="st10" d="M48.6,122.9C48.6,122.9,48.6,122.9,48.6,122.9c0,0.2,0,0.2,0.1,0.3"/>
				<path class="st10" d="M50.4,127c0,0-0.1,0-0.1-0.1c-0.1,0-0.2-0.1-0.2-0.2"/>
				<path class="st10" d="M57.6,129c-0.1,0.1-0.2,0.1-0.4,0.1c-0.2,0-0.3,0-0.4,0"/>
				<path class="st10" d="M136.4,56.2C136.3,56.2,136.3,56.2,136.4,56.2c-0.1-0.1-0.2-0.2-0.2-0.3"/>
				<path class="st10" d="M139.2,59.4c0,0,0,0.1,0,0.1c0,0,0,0,0,0"/>
				<path class="st10" d="M56.1,122.3c0-0.1,0-0.3,0.1-0.4c0.1-0.1,0.1-0.2,0.2-0.3"/>
				<path class="st11" d="M60.8,119.3C60.8,119.3,60.8,119.2,60.8,119.3c0.1-0.1,0.1-0.1,0.2-0.1c0,0-2.9-0.9-2.9-0.9"/>
				<path class="st10" d="M57.4,128.3c0-0.4,0-0.9-0.1-1.3c-0.1-0.3-0.2-0.6-0.5-0.8"/>
				<path class="st10" d="M56.1,125.5C56.1,125.5,56.1,125.5,56.1,125.5c-0.1-0.1-0.1-0.2-0.1-0.3"/>
				<path class="st10" d="M136.2,55.5c0-0.1,0-0.3,0.1-0.4c0-0.1,0.1-0.2,0.2-0.3"/>
				<path class="st10" d="M140.9,49.5C140.9,49.5,140.9,49.5,140.9,49.5c0.1-0.1,0.1-0.1,0.2-0.1"/>
				<line class="st10" x1="51.2" y1="131.8" x2="55.7" y2="133.2"/>
				<path class="st15" d="M59,120.5L59,120.5 M59,120.5l-2.3,0.8"/>
				<path class="st16" d="M51.5,118.1L51.5,118.1 M51.5,118.1l-2.3,0.8"/>
				<path class="st15" d="M48.9,117.2L48.9,117.2 M48.9,117.2l-2.3,0.8"/>
				<path class="st15" d="M41.4,114.8L41.4,114.8 M41.4,114.8l-2.3,0.8"/>
				<path class="st17" d="M140.1,46l9.7,4.7c-0.2-0.7-0.3-1.4-0.4-2.1l-9.7-4.7C139.8,44.6,139.9,45.3,140.1,46z"/>
				<path class="st17" d="M139.5,42.1l9.8,4.7c-0.1-0.9-0.1-1.8-0.1-2.7l-9.8-4.7C139.4,40.2,139.4,41.1,139.5,42.1z"/>
				<path class="st17" d="M139.5,37.6l9.8,4.7c0.1-1.6,0.4-3.2,0.8-4.8l-9.8-4.7C139.9,34.4,139.6,36,139.5,37.6z"/>
				<path class="st17" d="M140.7,31.4l9.8,4.7c1.3-3.8,3.4-7.3,6.1-10.2l6.3,3l-3.6-11.5l-15.8,2.2l3.2,1.6
					C144,24,142,27.5,140.7,31.4z"/>
				<path class="st17" d="M37.5,137.8l-17.3-2.9c-2.5,1.1-4.6,2.8-6.3,4.9l-7.5-1.7l6.2,13.3l23.9-6.6l-7.1-1.6
					C31.5,140.7,34.3,138.9,37.5,137.8z"/>
				<path class="st17" d="M23,134.3l16.7,2.8c4.1,0.1,8.2,0.8,12.2,2C42.7,135.4,32.8,133.8,23,134.3z"/>
				<path class="st17" d="M40.3,138.3c1.2,1.1,2.2,2.4,3,3.9l15.2,2.6c-1.1-1.5-2.4-2.9-3.9-4L40.3,138.3z"/>
				<path class="st17" d="M59.5,146.2l-15.4-2.6c0.4,0.8,0.7,1.7,0.9,2.5l15.7,2.7C60.4,147.9,60,147.1,59.5,146.2z"/>
				<line class="st10" x1="129" y1="48" x2="130.5" y2="46.5"/>
				<line class="st18" x1="60.7" y1="124.8" x2="60.8" y2="129"/>
				<polygon class="st19" points="58.4,112.7 61.6,113.7 136.1,50.3 134.5,49.7 132.9,49.2 				"/>
				<path class="st20" d="M58.4,112.7l3.2,1l74.5-63.5l-1.6-0.5l-1.6-0.5L58.4,112.7z"/>
				<polygon class="st19" points="61.6,113.7 61.2,127.9 135.6,64.4 135.8,58 135.9,56.1 135.9,55.9 135.9,55.4 135.9,54.6 
					136.1,50.3 				"/>
				<path class="st20" d="M61.6,113.7l-0.4,14.1l74.5-63.4l0.2-6.4l0.1-1.9l0-0.2l0-0.4l0-0.8l0.1-4.3L61.6,113.7z"/>
				<polygon class="st19" points="56.8,112.1 131.2,48.7 131,48.6 129,48 129,48 128.5,47.8 125.9,50 54,111.3 				"/>
				<path class="st20" d="M56.8,112.1l74.5-63.5l-0.3-0.1l-2-0.6l0,0l-0.5-0.2l-2.6,2.2L54,111.3L56.8,112.1z"/>
				<path class="st19" d="M54,111.3L125.9,50l0.1-3l-74.5,63.4l-0.2,7.7l0.3-0.1l0.2,0.1l1.5-1.3c0,0,0.1-0.1,0.1-0.1l0,0l0.4,0.1
					L54,111.3z"/>
				<path class="st20" d="M54,111.3L125.9,50l0.1-3l-74.5,63.4l-0.2,7.7l0.3-0.1l0.2,0.1l1.5-1.3c0,0,0.1-0.1,0.1-0.1l0,0l0.4,0.1
					L54,111.3z"/>
				<polygon class="st19" points="51.5,110.4 125.9,47 124.4,46.5 122.8,46 48.3,109.4 				"/>
				<path class="st20" d="M51.5,110.4L125.9,47l-1.6-0.5l-1.6-0.5l-74.5,63.4L51.5,110.4z"/>
				<polygon class="st19" points="46.7,110.3 124.4,44.1 123.2,43.7 121.1,45.4 46.6,108.9 45.4,109.9 				"/>
				<path class="st20" d="M46.7,110.3l77.7-66.2l-1.3-0.4l-2.1,1.8l-74.5,63.4l-1.2,1L46.7,110.3z"/>
				<polygon class="st19" points="46.6,108.9 121.1,45.4 118.3,44.5 43.9,108 				"/>
				<path class="st20" d="M46.6,108.9l74.5-63.4l-2.8-0.9L43.9,108L46.6,108.9z"/>
				<polygon class="st18" points="46.6,108.9 43.9,108 43.7,113.7 45.3,114.2 45.4,109.9 				"/>
				<path class="st20" d="M46.6,108.9l-2.8-0.9l-0.2,5.7l1.6,0.5l0.1-4.3L46.6,108.9z"/>
				<polygon class="st18" points="46.7,110.3 45.4,109.9 45.3,114.2 45.3,115.3 45.2,116 46.1,116.3 46.5,116 				"/>
				<path class="st20" d="M46.7,110.3l-1.3-0.4l-0.1,4.3l0,1.1l0,0.7l0.9,0.3l0.4-0.3L46.7,110.3z"/>
				<polygon class="st18" points="55.6,113.2 55.4,117.4 55.4,118.6 55.4,119.3 56.3,119.6 56.7,119.3 56.8,113.6 				"/>
				<path class="st20" d="M55.6,113.2l-0.1,4.3l0,1.1l0,0.7l0.9,0.3l0.4-0.3l0.2-5.7L55.6,113.2z"/>
				<polygon class="st18" points="55.4,117.4 55.6,113.2 56.8,112.1 54,111.3 53.8,116.9 				"/>
				<path class="st20" d="M55.4,117.4l0.1-4.3l1.2-1l-2.8-0.9l-0.2,5.7L55.4,117.4z"/>
				<path class="st19" d="M48.1,115.1l0.2-5.7L122.8,46l1.6,0.5l0.1-2.3l0,0l-77.7,66.2l-0.2,5.7l1.1-1c0,0,0.1-0.1,0.1-0.1l0,0
					L48.1,115.1z"/>
				<path class="st20" d="M48.1,115.1l0.2-5.7L122.8,46l1.6,0.5l0.1-2.3l0,0l-77.7,66.2l-0.2,5.7l1.1-1c0,0,0.1-0.1,0.1-0.1l0,0
					L48.1,115.1z"/>
				<polygon class="st19" points="56.8,112.1 55.6,113.2 56.8,113.6 134.6,47.4 133.3,46.9 131.2,48.7 				"/>
				<path class="st20" d="M56.8,112.1l-1.2,1l1.3,0.4l77.7-66.2l-1.3-0.4l-2.1,1.8L56.8,112.1z"/>
				<path class="st19" d="M134.6,47.4l-77.7,66.2l-0.2,5.7l1.1-1c0,0,0.1-0.1,0.1-0.1c0,0,0,0,0,0l0.3,0.1l0.2-5.7l74.5-63.4
					l1.6,0.5l0.1-2.2L134.6,47.4L134.6,47.4z"/>
				<path class="st20" d="M134.6,47.4l-77.7,66.2l-0.2,5.7l1.1-1c0,0,0.1-0.1,0.1-0.1c0,0,0,0,0,0l0.3,0.1l0.2-5.7l74.5-63.4
					l1.6,0.5l0.1-2.2L134.6,47.4L134.6,47.4z"/>
				<line class="st21" x1="61.2" y1="127.9" x2="60.7" y2="127.3"/>
				<path class="st18" d="M60.7,124.8L60.7,124.8L60.7,124.8z M58.7,126.5l2-1.7l0.1,2.5l0.4,0.5l0.4-14.1l-3.2-1l-0.2,5.7
					c0.7,0.2,2.7,0.9,2.7,0.9l0.1,0c0.1,0.1,0.1,0.2,0.1,0.3l0,0.4c-0.1,0.2-0.1,0.5-0.2,0.7c-0.1,0.2-0.2,0.3-0.4,0.5l-1.4,1.2
					l-0.1,3.4L58.7,126.5L58.7,126.5z"/>
				<path class="st20" d="M60.7,124.8L60.7,124.8L60.7,124.8z M58.7,126.5l2-1.7l0.1,2.5l0.4,0.5l0.4-14.1l-3.2-1l-0.2,5.7
					c0.7,0.2,2.7,0.9,2.7,0.9l0.1,0c0.1,0.1,0.1,0.2,0.1,0.3l0,0.4c-0.1,0.2-0.1,0.5-0.2,0.7c-0.1,0.2-0.2,0.3-0.4,0.5l-1.4,1.2
					l-0.1,3.4L58.7,126.5L58.7,126.5z"/>
				<path class="st18" d="M51.2,118.2l0.2-7.7l-3.2-1l-0.2,5.7c0,0,2.7,0.9,2.7,0.9l0,0c0.1,0.1,0.1,0.2,0.1,0.3l0,0.4
					c-0.1,0.2-0.1,0.5-0.2,0.7c-0.1,0.2-0.2,0.3-0.4,0.5l-1.4,1.2l0,0.1c0,0,0,0,0,0l0.3-0.3L51.2,118.2z"/>
				<path class="st20" d="M51.2,118.2l0.2-7.7l-3.2-1l-0.2,5.7c0,0,2.7,0.9,2.7,0.9l0,0c0.1,0.1,0.1,0.2,0.1,0.3l0,0.4
					c-0.1,0.2-0.1,0.5-0.2,0.7c-0.1,0.2-0.2,0.3-0.4,0.5l-1.4,1.2l0,0.1c0,0,0,0,0,0l0.3-0.3L51.2,118.2z"/>
				<path class="st18" d="M51.2,118.2l0.2-7.7l-3.2-1l-0.2,5.7c0,0,2.7,0.9,2.7,0.9l0,0c0.1,0.1,0.1,0.2,0.1,0.3l0,0.4
					c-0.1,0.2-0.1,0.5-0.2,0.7c-0.1,0.2-0.2,0.3-0.4,0.5l-1.4,1.2l0,0.1c0,0,0,0,0,0l0.3-0.3L51.2,118.2z"/>
				<path class="st20" d="M51.2,118.2l0.2-7.7l-3.2-1l-0.2,5.7c0,0,2.7,0.9,2.7,0.9l0,0c0.1,0.1,0.1,0.2,0.1,0.3l0,0.4
					c-0.1,0.2-0.1,0.5-0.2,0.7c-0.1,0.2-0.2,0.3-0.4,0.5l-1.4,1.2l0,0.1c0,0,0,0,0,0l0.3-0.3L51.2,118.2z"/>
			</g>
			<polyline class="st22" points="166.6,107.6 215.7,218.7 217.3,220 			"/>
		</g>
		<circle class="st17" cx="55.7" cy="34.2" r="12.7"/>
		<g>
			<text transform="matrix(1 0 0 1 50.4282 40.4458)" class="st23 st24 st25">2</text>
		</g>
		<circle class="st17" cx="21.7" cy="117.1" r="12.7"/>
		<g>
			<text transform="matrix(1 0 0 1 16.4473 123.29)" class="st23 st24 st25">1</text>
		</g>
	</g>
	<g>
		<path class="st20" d="M86.8,42.1v0.6l-1.7,0.8l-3,2.6l4.7-2.3v2l36.9-31.5l-1.6-0.5l-1.6-0.5L86.8,42.1z"/>
		<path class="st20" d="M86.8,40.1L119,12.8l-2.8-0.9L84,39.3l2.9-1.4V40.1z"/>
		<path class="st20" d="M48.9,91.9l40.5-34.5l0.8-0.6l0.1-0.1l31.4-26.8l1.7-1.4l0.4-14.1L86.8,45.8v0.7l-2,1l-3,2.6l5-2.4v1.9
			l-10.1,4.9L49.3,77.8L48.9,91.9z"/>
		<path class="st20" d="M48.9,91.9l0.4-14.1l-3.2-1l-0.4,14.1L48.9,91.9z"/>
		<path class="st20" d="M45.7,90.9l0.4-14.1L76.5,51v-0.5L44.5,77.7L44,96.3l45.4-38.7l0-0.1L48.9,91.9L45.7,90.9z"/>
		<path class="st20" d="M44,96.3l0.6-18.6l-1.3-0.4L42.9,90l-0.2,5.9L44,96.3z"/>
		<path class="st20" d="M44.5,76.2l32-27.3v-0.1l0.4-0.2l3-2.6l-3.4,1.6v-2L41.7,75.3L44.5,76.2z"/>
		<path class="st20" d="M76.5,51L46.2,76.8l3.2,1l27.4-23.3l-0.3,0.1v-1.9l5.4-2.6l3-2.6l-8.4,4V51z"/>
		<path class="st20" d="M42.9,90l0.4-12.7l1.2-1l-2.8-0.9l-0.4,14.1L42.9,90z"/>
		<path class="st20" d="M44.5,77.7l31.9-27.2V49l-32,27.3l-1.2,1L44.5,77.7z"/>
		<path class="st20" d="M86.8,41.6l35.4-30.2L121,11l-2.1,1.8L86.8,40.1V41.6z"/>
		<path class="st13" d="M41.7,75.3L41.7,75.3 M41.3,89.5l0.4-14.1"/>
		<path class="st13" d="M43.3,77.3L43.3,77.3 M42.7,95.9l0.6-18.6"/>
		<path class="st13" d="M44.5,77.7L44.5,77.7 M44.5,77.7L44,96.3"/>
		<path class="st13" d="M46.2,76.8L46.2,76.8 M45.7,90.9l0.4-14.1"/>
		<path class="st13" d="M49.3,77.8L49.3,77.8 M49.3,77.8l-0.4,14.1"/>
		<line class="st13" x1="41.7" y1="75.3" x2="76.5" y2="45.7"/>
		<line class="st13" x1="43.3" y1="77.3" x2="79.9" y2="46.1"/>
		<line class="st13" x1="122.3" y1="11.4" x2="86.8" y2="41.6"/>
		<line class="st13" x1="46.2" y1="76.8" x2="76.5" y2="51"/>
		<line class="st13" x1="48.9" y1="91.9" x2="123.4" y2="28.5"/>
		<line class="st13" x1="44" y1="96.3" x2="89.4" y2="57.6"/>
		<line class="st13" x1="45.7" y1="90.9" x2="48.9" y2="91.9"/>
		<line class="st13" x1="42.9" y1="90" x2="41.3" y2="89.5"/>
		<line class="st13" x1="44.5" y1="77.7" x2="43.3" y2="77.3"/>
		<line class="st13" x1="49.3" y1="77.8" x2="46.2" y2="76.8"/>
		<line class="st13" x1="44.5" y1="76.2" x2="41.7" y2="75.3"/>
		<line class="st13" x1="116.2" y1="11.9" x2="119" y2="12.8"/>
		<path class="st26" d="M116.2,11.9L116.2,11.9 M84,39.3l32.2-27.4"/>
		<line class="st26" x1="86.8" y1="40.1" x2="121" y2="11"/>
		<line class="st26" x1="86.8" y1="42.1" x2="120.6" y2="13.3"/>
		<line class="st26" x1="76.5" y1="50.5" x2="44.5" y2="77.7"/>
		<line class="st26" x1="76.7" y1="54.5" x2="49.3" y2="77.8"/>
		<polygon class="st27" points="48.9,91.9 89.4,57.4 90.1,56.8 90.3,56.7 121.7,29.9 123.4,28.5 123.8,14.3 86.8,45.8 86.8,46.6 
			84.9,47.5 81.8,50.1 86.8,47.7 86.8,49.6 76.7,54.5 49.3,77.8 		"/>
		<polygon class="st27" points="48.9,91.9 49.3,77.8 46.2,76.8 45.7,90.9 		"/>
		<polygon class="st27" points="44.5,77.7 76.5,50.5 76.5,49 44.5,76.2 43.3,77.3 		"/>
		<path class="st20" d="M44.5,77.7l31.9-27.2V49l-32,27.3l-1.2,1L44.5,77.7z"/>
		<polygon class="st27" points="45.7,90.9 46.2,76.8 76.5,51 76.5,50.5 44.5,77.7 44,96.3 89.4,57.6 89.4,57.4 48.9,91.9 		"/>
		<path class="st20" d="M45.7,90.9l0.4-14.1L76.5,51v-0.5L44.5,77.7L44,96.3l45.4-38.7l0-0.1L48.9,91.9L45.7,90.9z"/>
		<polygon class="st27" points="45.7,90.9 46.2,76.8 76.5,51 76.5,50.5 44.5,77.7 44,96.3 89.4,57.6 89.4,57.4 48.9,91.9 		"/>
		<polygon class="st27" points="44,96.3 44.5,77.7 43.3,77.3 42.9,90 42.7,95.9 		"/>
		<polygon class="st27" points="44.5,76.2 76.5,49 76.5,48.8 76.9,48.6 79.9,46.1 76.5,47.7 76.5,45.7 41.7,75.3 		"/>
		<polygon class="st27" points="76.5,51 46.2,76.8 49.3,77.8 76.7,54.5 76.5,54.6 76.5,52.7 81.8,50.1 84.9,47.5 76.5,51.6 		"/>
		<polygon class="st27" points="42.9,90 43.3,77.3 44.5,76.2 41.7,75.3 41.3,89.5 		"/>
		<polygon class="st27" points="44.5,77.7 76.5,50.5 76.5,49 44.5,76.2 43.3,77.3 		"/>
		<polygon class="st27" points="86.8,42.1 86.8,42.7 85.2,43.5 82.2,46.1 86.8,43.9 86.8,45.8 123.8,14.3 122.2,13.8 120.6,13.3 		
			"/>
		<polygon class="st27" points="120.6,13.3 122.2,13.8 122.3,11.4 86.8,41.6 86.8,42.1 		"/>
		<path class="st20" d="M120.6,13.3l1.6,0.5l0.1-2.4L86.8,41.6v0.5L120.6,13.3z"/>
		<polygon class="st27" points="86.8,41.6 122.3,11.4 121,11 119,12.8 86.8,40.1 		"/>
		<polygon class="st27" points="86.8,40.1 119,12.8 116.2,11.9 84,39.3 86.8,38 		"/>
		<path class="st17" d="M76.5,41.8l10.4-5v-8.1l5.1-2.4L81,22.7l-9.8,13.5l5.2-2.5V41.8z"/>
		<path class="st17" d="M84,39.3l-7.5,3.6v2.8v2l3.4-1.6l4-1.9l1.3-0.6l1.7-0.8v-0.6v-0.5v-1.5V38L84,39.3z"/>
		<path class="st17" d="M82.2,46.1l-1.3,0.6l-4,1.9L76.5,49v1.5V51v0.6l8.4-4l2-1.7v-2L82.2,46.1z"/>
		<polygon class="st17" points="76.5,52.7 76.5,54.5 86.9,49.6 86.8,47.8 		"/>
		<polygon class="st17" points="84.2,47.8 86.8,46.6 86.8,45.3 		"/>
		<polygon class="st20" points="77.3,48.4 81.9,46.2 84.9,43.7 80.2,45.9 		"/>
	</g>
</g>
</svg>
