<?xml version="1.0" encoding="utf-8"?>
<!-- Generator: Adobe Illustrator 19.1.0, SVG Export Plug-In . SVG Version: 6.00 Build 0)  -->
<svg version="1.1" xmlns="http://www.w3.org/2000/svg" xmlns:xlink="http://www.w3.org/1999/xlink" x="0px" y="0px" width="288px"
	 height="360px" viewBox="0 0 288 360" style="enable-background:new 0 0 288 360;" xml:space="preserve">
<style type="text/css">
	.st0{fill:none;stroke:#000000;stroke-width:0.5;stroke-miterlimit:10;}
	.st1{fill:none;stroke:#000000;stroke-width:0.5;stroke-linecap:round;stroke-linejoin:round;stroke-miterlimit:10;}
	.st2{fill:none;stroke:#000000;stroke-width:0.5155;stroke-linecap:round;stroke-linejoin:round;stroke-miterlimit:10;}
	.st3{fill:none;stroke:#000000;stroke-width:0.3992;stroke-linecap:round;stroke-linejoin:round;stroke-miterlimit:10;}
	.st4{fill:#FFFFFF;stroke:#000000;stroke-width:0.5;stroke-linecap:round;stroke-linejoin:round;stroke-miterlimit:10;}
	.st5{fill:none;stroke:#000000;stroke-width:0.3764;stroke-linecap:round;stroke-linejoin:round;stroke-miterlimit:10;}
	.st6{fill:none;stroke:#000000;stroke-width:0.288;stroke-linecap:round;stroke-linejoin:round;stroke-miterlimit:10;}
	.st7{fill:none;stroke:#000000;stroke-width:1.25;stroke-linecap:round;stroke-linejoin:round;stroke-miterlimit:10;}
	.st8{fill:none;stroke:#000000;stroke-width:1.125;stroke-linecap:round;stroke-linejoin:round;stroke-miterlimit:10;}
	.st9{fill:none;stroke:#000000;stroke-width:0.25;stroke-linecap:round;stroke-linejoin:round;stroke-miterlimit:10;}
	.st10{fill:none;stroke:#000000;stroke-width:0.4338;stroke-linecap:round;stroke-linejoin:round;stroke-miterlimit:10;}
	.st11{fill:none;stroke:#000000;stroke-width:0.3709;stroke-linecap:round;stroke-linejoin:round;stroke-miterlimit:10;}
	.st12{fill:none;stroke:#000000;stroke-width:0.3819;stroke-linecap:round;stroke-linejoin:round;stroke-miterlimit:10;}
	.st13{fill:#FFFFFF;stroke:#000000;stroke-width:0.3819;stroke-linecap:round;stroke-linejoin:round;stroke-miterlimit:10;}
	.st14{fill:none;stroke:#000000;stroke-width:0.3598;stroke-linecap:round;stroke-linejoin:round;stroke-miterlimit:10;}
	.st15{clip-path:url(#SVGID_2_);}
	.st16{fill:#FFFFFF;stroke:#000000;stroke-width:0.2773;stroke-linecap:round;stroke-linejoin:round;stroke-miterlimit:10;}
	.st17{fill:#FFFFFF;stroke:#000000;stroke-width:0.3263;stroke-linecap:round;stroke-linejoin:round;stroke-miterlimit:10;}
	.st18{fill:#FFFFFF;stroke:#000000;stroke-width:0.2743;stroke-linecap:round;stroke-linejoin:round;stroke-miterlimit:10;}
	.st19{fill:none;stroke:#000000;stroke-width:0.3263;stroke-linecap:round;stroke-linejoin:round;stroke-miterlimit:10;}
	.st20{fill:none;stroke:#000000;stroke-width:0.2832;stroke-linecap:round;stroke-linejoin:round;stroke-miterlimit:10;}
	.st21{fill:none;stroke:#000000;stroke-width:0.2743;stroke-linecap:round;stroke-linejoin:round;stroke-miterlimit:10;}
	.st22{fill:#FFFFFF;stroke:#000000;stroke-width:0.35;stroke-linecap:round;stroke-linejoin:round;stroke-miterlimit:10;}
	.st23{fill:#D1D3D4;}
	.st24{fill:none;stroke:#000000;stroke-linecap:round;stroke-linejoin:round;stroke-miterlimit:10;}
	.st25{fill:none;stroke:#000000;stroke-width:0.75;stroke-linecap:round;stroke-linejoin:round;stroke-miterlimit:10;}
	.st26{fill:none;stroke:#D2D0CD;stroke-width:0.5709;stroke-linecap:round;stroke-linejoin:round;}
	.st27{fill:#FFFFFF;}
	.st28{clip-path:url(#SVGID_4_);}
	.st29{clip-path:url(#SVGID_4_);fill:none;stroke:#000000;stroke-miterlimit:10;}
	.st30{clip-path:url(#SVGID_4_);fill:none;stroke:#000000;stroke-linecap:round;stroke-linejoin:round;stroke-miterlimit:10;}
	
		.st31{clip-path:url(#SVGID_4_);fill:none;stroke:#000000;stroke-width:0.4;stroke-linecap:round;stroke-linejoin:round;stroke-miterlimit:10;}
	.st32{clip-path:url(#SVGID_4_);fill:none;stroke:#000000;stroke-width:0.5;stroke-miterlimit:10;}
	.st33{fill:#2E2A25;stroke:#FFFFFF;stroke-width:1.5;stroke-linecap:round;stroke-linejoin:round;stroke-miterlimit:10;}
	.st34{fill:#2E2A25;stroke:#FFFFFF;stroke-width:1.8;stroke-linecap:round;stroke-linejoin:round;}
	.st35{fill:#2E2A25;}
	.st36{fill:none;stroke:#FFFFFF;stroke-width:2;stroke-linecap:round;stroke-linejoin:round;}
	.st37{fill:#FFFFFF;stroke:#000000;stroke-width:0.5;stroke-linecap:round;stroke-linejoin:round;}
	.st38{stroke:#FFFFFF;stroke-miterlimit:10;}
	.st39{font-family:'Helvetica';}
	.st40{font-size:11.5166px;}
	.st41{stroke:#FFFFFF;stroke-width:0.65;stroke-linecap:round;stroke-linejoin:round;}
</style>
<g id="Base">
	<path class="st0" d="M215.6,152.7l22.6-117.2l-5.4-0.4l2.5-14.7l-1-1.3l-12.4-1.7c-2.3,0-6.3-1-6.5-4.8C215.2,8.9,211,8,211,8
		l-26.4-3.1c-4.8-1.3-8,2.3-8,2.3c-2.5,4.8-5.9,4-5.9,4l-53.7-6.7l-26,129.2l1.2,1.3l16.5,1.7l-1.2,9l2.7,1.9l101,12.7L215.6,152.7z
		"/>
	<path class="st1" d="M211.3,160.4c0,0-48.9,97.5-51.2,104.2c-2.3,6.7-6,5.4-6,5.4l-10.4-1.3l-1.7,4.2l79.1,9.8
		c0,0,6.7-13.1,9.2-17.5c2.5-4.4,0.6-3.6-3.1-6.1c-3.6-2.5-1.5-1.9-0.4-5.6s4.2-4.6,4.2-4.6s1.7,0,4.8-0.2s4.4-4.2,4.4-4.2
		s10-19.2,13.1-26.5c3.1-7.3,3.8-5.8-0.2-8.6s-3.1-0.6-1.2-5.8s4.6-4.8,4.6-4.8c8.1-0.2,7.7-2.5,7.7-2.5l6.8-14.3l3.2,0.4l-0.5,31.9
		l-50.5,100.4c0,0,0.2-16.9,0-19.8c-0.2-2.9-0.8-4.4-0.8-4.4c0.2-2.9-0.8-4.2-0.8-4.2l-195.8-25l-2.7,4.7l-0.1,0.2l-0.8,11.1"/>
	<polyline class="st1" points="216.1,151.9 217.4,149.6 276.6,157.1 276.6,158.4 281,158.6 281.2,160 284.2,160.9 284,170.3 
		285,171.7 285,188 284.6,189.5 274.3,211.6 	"/>
	<path class="st1" d="M221.5,164.2c0,0,1-4.4,8.1-3.6s31.5,4,31.5,4s6.9-0.6,4.8,4.2c-2.1,4.8-4,6.7-4,6.7s0,1.3,2.1,3.1
		c2.1,1.7,2.5,0.6,1,3.8c-1.5,3.3-5.6,1.9-5.6,1.9l-2.1,0.4l-42.4,86.2c0,0-1.7,4.4-8.6,2.9c-6.9-1.5-31.9-3.8-31.9-3.8
		s-5.8-0.6-3.1-5.4C173.9,259.8,221.5,164.2,221.5,164.2z"/>
	<line class="st0" x1="255.2" y1="209.9" x2="260.6" y2="198"/>
	<line class="st0" x1="229.5" y1="260.2" x2="235.9" y2="248.7"/>
	<polyline class="st1" points="276.5,157.9 273.9,162.7 274.6,181.2 	"/>
	<path class="st1" d="M284,161.1l-1.5,3.3c0,0-0.1,0.8-1.8,0.5s-1.5,1.4-1.6,2.6c-0.1,1.2,0.1,11.8,0.1,11.8l1.2,4.6l1.9,0.6
		l-7.8,15.9"/>
	<polyline class="st1" points="273.1,181.6 273.6,181.1 277.4,181.7 	"/>
	
		<ellipse transform="matrix(0.9965 8.363634e-02 -8.363634e-02 0.9965 16.469 -22.5097)" class="st2" cx="276.9" cy="185.3" rx="0.8" ry="3.7"/>
	<line class="st2" x1="276.4" y1="189" x2="274.6" y2="188.6"/>
	<polyline class="st2" points="272,180.9 271.7,172.9 267.6,180.7 270.4,181.1 270.8,181.9 	"/>
	<ellipse class="st2" cx="224" cy="153.3" rx="2.2" ry="1.2"/>
	<polyline class="st1" points="23.3,266.1 26.5,266.3 26.3,269.6 215.5,293 	"/>
	<line class="st1" x1="30.7" y1="292" x2="207.8" y2="314.1"/>
	<polygon class="st1" points="63.9,293.1 37,289.6 37,283.4 63.9,286.9 	"/>
	<polygon class="st1" points="75.3,294.2 66.2,293.1 66.2,279.5 75.3,280.6 	"/>
	<polygon class="st1" points="87,295.6 77.9,294.4 77.9,280.8 87,282 	"/>
	<polygon class="st1" points="98.7,296.9 89.6,295.8 89.6,282.1 98.7,283.3 	"/>
	<polygon class="st1" points="111.9,298.3 101.5,297.1 101.5,282.7 111.9,283.9 	"/>
	<polygon class="st1" points="124,299.9 113.8,298.6 113.8,290.8 124,292.1 	"/>
	<polygon class="st1" points="136.4,301.3 125.5,300 125.5,288.2 136.4,289.5 	"/>
	<line class="st3" x1="43.8" y1="284.5" x2="43.8" y2="290.4"/>
	<line class="st3" x1="50.4" y1="285.1" x2="50.4" y2="291.5"/>
	<line class="st3" x1="57.2" y1="286.1" x2="57.2" y2="292"/>
	<line class="st3" x1="31.6" y1="270.6" x2="31.7" y2="292.1"/>
	<line class="st3" x1="154" y1="285.5" x2="153.9" y2="306.8"/>
	<path class="st4" d="M143.1,288.5c-0.2,1.7-1.9,2.8-3.8,2.5c-1.9-0.3-3.3-2-3.1-3.7c0.2-1.7,1.9-2.8,3.8-2.5
		C141.9,285.2,143.3,286.8,143.1,288.5z"/>
	<path class="st4" d="M142.4,290.3c-0.2,1.7-1.9,2.8-3.8,2.5c-1.9-0.3-3.3-2-3.1-3.7c0.2-1.7,1.9-2.8,3.8-2.5
		C141.2,286.9,142.6,288.6,142.4,290.3z"/>
	<polyline class="st5" points="156.6,286 156.7,298.3 154.1,303.8 208.1,310.4 	"/>
	<line class="st5" x1="157.1" y1="288.7" x2="215.5" y2="296"/>
	<line class="st5" x1="156.9" y1="296.4" x2="211.7" y2="303.3"/>
	<path class="st5" d="M157,307.4c0,0,0-2.4,2-2.1c2,0.3,48.8,6.2,48.8,6.2"/>
	<path class="st6" d="M209.9,302.5l-49-6.3c-0.7,0-1.2-0.6-1.2-1.2v-4c0-0.7,0.6-1.2,1.2-1.2l49,6.3c0.7,0,1.2,0.6,1.2,1.2v4
		C211.1,301.9,210.5,302.5,209.9,302.5z"/>
	<path class="st1" d="M221.1,282.6l2.4,0.4c0,0,1.8,0.2,0.4,1.2l-2.1-0.2l-0.8,1.7"/>
	<polyline class="st1" points="154,270 153.9,263.1 153.9,263.1 179.7,211.8 185.2,212.5 	"/>
	<line class="st1" x1="160.1" y1="264.2" x2="153.9" y2="263.3"/>
	<polygon class="st1" points="124.2,206.3 130.5,193.6 138.8,194.6 140.5,191.6 156.7,193.6 155.2,196.4 163.4,197.7 157.2,210.7 
		148.7,209.5 147.1,212.7 130.8,210.6 132.3,207.6 	"/>
	<polyline class="st1" points="114.5,264.9 120,254.2 123,254.6 124.5,252.1 138.5,253.9 138.8,264.3 	"/>
	<polyline class="st1" points="83.9,260.9 83.8,257.1 89.2,246.4 92.5,246.8 93.9,244.1 107.8,246 107.8,256.8 104.4,263.2 	"/>
	<polyline class="st1" points="106.2,263.5 109.1,258.5 109,256.2 108.1,256.1 	"/>
	<line class="st1" x1="138.5" y1="264.3" x2="137" y2="267.2"/>
	<polyline class="st1" points="138.6,267.7 139.7,265.4 140,263.4 139.2,263.2 	"/>
	<polyline class="st1" points="67.5,258.6 67.1,249.5 52.9,247.6 51.3,250.8 48.2,250.4 45.5,255.5 	"/>
	<line class="st1" x1="48.7" y1="250" x2="61.1" y2="225.6"/>
	<path class="st1" d="M31.7,261.5l-0.2-2.5l2.4-4.6l101.6,13.2l0.4-0.5l3.9,0.6l-1.1,2.2c0,0,3.2-0.1,3.2,2.9"/>
	<path class="st1" d="M26.8,261.2c0,0,0.1-1.5,1.2-3.6c1.1-2,24.1-48.1,24.1-48.1l1-0.2l0.4-0.7l2.1,0.4"/>
	<path class="st1" d="M34.8,254.6l20.9-41.9c0,0,0.7-1.2-0.3-2.9c0,0-1.2-2.4,0-5.3c0,0-1.4-0.7-0.7-2.3c0.8-1.6,1.7-3.7,1.7-3.7
		s0.4-0.5,2.1-0.9c1.7-0.4,0.9-1.2,0.9-1.8c0-0.6,1.2-2.7,1.2-2.7s0.5-0.6,1.2-0.3s-0.3-0.5,0.3-2.1c0.6-1.6,4-8.3,4-8.3"/>
	<path class="st1" d="M71.3,174.9c0,0-0.4-2.3,0.8-4.1c1.2-1.8,5.9-11.5,5.9-11.5l-0.3-2.9l2.6-5.3c0,0,1.7,0.4,2.9-1.9l1.7-0.9
		c0,0-0.3-2.8,0.8-4.7c1.1-1.9,3.2-7,3.2-7s0.2-1.2,2.5-0.9l1-0.3"/>
	<ellipse class="st1" cx="102.6" cy="138.9" rx="2.3" ry="1"/>
	<ellipse class="st1" cx="93.8" cy="137.2" rx="2.3" ry="1"/>
	<line class="st1" x1="108.4" y1="158" x2="206.2" y2="170.1"/>
	<polygon class="st1" points="108.8,158.8 106.3,163.8 112.1,164.7 114.7,159.5 	"/>
	<polyline class="st1" points="106.3,163.8 105.7,172.5 111.8,173.3 112.1,164.7 	"/>
	<polyline class="st1" points="106.2,172.8 106.2,174.6 111.6,175.4 114.8,169 115.8,169.4 117.1,166.9 116.9,159.2 	"/>
	<line class="st1" x1="111.6" y1="173.1" x2="111.6" y2="175.4"/>
	<line class="st1" x1="135.5" y1="283.3" x2="135.5" y2="288.7"/>
	<polyline class="st1" points="142.4,290.8 147.5,291.3 147.6,284.5 	"/>
	<polyline class="st7" points="182.9,211.4 156.7,263.8 156.7,269 	"/>
	<polyline class="st8" points="108.2,183.1 88.4,222.6 88.4,231 	"/>
	<polyline class="st8" points="114.7,183.4 94.8,222.9 94.8,231.3 	"/>
	<polyline class="st8" points="120.6,184.4 100.7,223.9 100.7,232.2 	"/>
	<polyline class="st8" points="126.7,185.2 106.9,224.8 106.9,233.1 	"/>
	<line class="st1" x1="115.8" y1="169.4" x2="139.2" y2="172.3"/>
	<path class="st1" d="M139.8,170.3l-17.9-2.3c0,0-3.2,0.2-3.4,1.4"/>
	<line class="st1" x1="124.2" y1="206.3" x2="124.6" y2="226.8"/>
	<line class="st1" x1="130.8" y1="210.6" x2="131.3" y2="230.5"/>
	<line class="st1" x1="147.1" y1="212.7" x2="147.4" y2="232.4"/>
	<line class="st1" x1="149.2" y1="209.8" x2="149.4" y2="223.9"/>
	<line class="st1" x1="157.2" y1="210.7" x2="157" y2="230.2"/>
	<line class="st1" x1="163.4" y1="197.7" x2="163.9" y2="216.1"/>
	<polyline class="st1" points="124.3,224.6 122.3,229.2 154.9,233.8 165.5,214.1 163.9,213.7 	"/>
	<polyline class="st1" points="165.5,214.1 165.9,215.5 154.7,235.4 122.2,230.9 122.3,229.2 	"/>
	<polyline class="st1" points="139.5,267.4 143.3,259.3 150.4,260.5 151.6,257.7 155.7,258.4 	"/>
	<polyline class="st1" points="190.3,201.3 178,199.4 177.2,201.2 171.4,213.5 	"/>
	<line class="st1" x1="189.7" y1="203.2" x2="177.2" y2="201.3"/>
	<polyline class="st1" points="156.3,238 161.2,228.5 170.4,229.5 	"/>
	<polyline class="st1" points="173.9,215.5 174.2,214.2 169.3,213.5 168.4,215.8 176.6,217 	"/>
	<polyline class="st1" points="174.2,222 168.7,221.3 168.4,215.8 	"/>
	<g>
		<polygon class="st1" points="89.4,231.5 85.6,231.1 84.3,234 84.2,237.3 85.6,240.2 85.8,242.9 89.7,243.3 89.4,240.4 87.9,238.1 
			88.1,234.5 		"/>
		<line class="st1" x1="84.9" y1="234.1" x2="88.1" y2="234.5"/>
		<line class="st1" x1="84.5" y1="237.7" x2="87.6" y2="238.1"/>
		<line class="st1" x1="85.6" y1="239.9" x2="88.8" y2="240.3"/>
	</g>
	<polyline class="st1" points="89.4,231.5 89.5,239.2 91.1,240.3 89.7,243.3 	"/>
	<line class="st1" x1="89.4" y1="240.4" x2="89.5" y2="239.2"/>
	<g>
		<polygon class="st1" points="95.7,232.2 92,231.8 90.7,234.7 90.5,238 92,240.9 92.1,243.6 96,244 95.7,241.2 94.3,238.9 
			94.4,235.3 		"/>
		<line class="st1" x1="91.2" y1="234.8" x2="94.4" y2="235.3"/>
		<line class="st1" x1="90.8" y1="238.4" x2="94" y2="238.9"/>
		<line class="st1" x1="92" y1="240.6" x2="95.1" y2="241"/>
	</g>
	<polyline class="st1" points="95.7,232.2 95.8,239.9 97.4,241 96,244 	"/>
	<g>
		<polygon class="st1" points="101.7,233 98,232.5 96.7,235.4 96.6,238.7 98,241.6 98.1,244.3 102,244.8 101.7,241.9 100.3,239.6 
			100.4,236 		"/>
		<line class="st1" x1="97.3" y1="235.6" x2="100.4" y2="236"/>
		<line class="st1" x1="96.8" y1="239.2" x2="100" y2="239.6"/>
		<line class="st1" x1="98" y1="241.3" x2="101.2" y2="241.7"/>
	</g>
	<polyline class="st1" points="101.7,233 101.9,240.6 103.5,241.7 102,244.8 	"/>
	<g>
		<polygon class="st1" points="108.1,233.8 104.3,233.4 103,236.3 102.9,239.6 104.3,242.5 104.5,245.2 108.4,245.6 108.1,242.8 
			106.6,240.4 106.8,236.8 		"/>
		<line class="st1" x1="103.6" y1="236.4" x2="106.8" y2="236.8"/>
		<line class="st1" x1="103.2" y1="240" x2="106.3" y2="240.4"/>
		<line class="st1" x1="104.3" y1="242.2" x2="107.5" y2="242.6"/>
	</g>
	<polyline class="st1" points="108.1,233.8 108.2,241.5 109.8,242.6 108.4,245.6 	"/>
	<line class="st1" x1="95.7" y1="240.9" x2="95.8" y2="239.6"/>
	<line class="st1" x1="86.2" y1="229.7" x2="90.7" y2="230.1"/>
	<g>
		<polyline class="st1" points="86.3,230.5 86.2,222 105.9,183 110.5,183.6 110.7,185.7 		"/>
		<polyline class="st1" points="90.9,233.3 90.7,222.6 110.2,184.3 		"/>
		<line class="st1" x1="86.2" y1="222.2" x2="90.7" y2="222.6"/>
		<line class="st1" x1="86.3" y1="229.8" x2="90.8" y2="230.2"/>
	</g>
	<g>
		<polyline class="st1" points="92.4,231.2 92.2,222.7 112,183.7 116.6,184.3 116.7,186.5 		"/>
		<polyline class="st1" points="97,234 96.7,223.3 116.3,185 		"/>
		<line class="st1" x1="92.2" y1="222.9" x2="96.7" y2="223.3"/>
		<line class="st1" x1="92.4" y1="230.5" x2="96.8" y2="230.9"/>
	</g>
	<g>
		<polyline class="st1" points="98.4,231.8 98.3,223.3 118,184.3 122.6,184.9 122.8,187 		"/>
		<polyline class="st1" points="103,234.5 102.8,223.9 122.3,185.6 		"/>
		<line class="st1" x1="98.3" y1="223.5" x2="102.8" y2="223.9"/>
		<line class="st1" x1="98.4" y1="231.1" x2="102.9" y2="231.5"/>
	</g>
	<g>
		<polyline class="st1" points="104.8,232.8 104.6,224.3 124.3,185.3 129,185.9 129.2,195.2 		"/>
		<polyline class="st1" points="128.7,186.6 109.1,224.9 109.2,239.9 124.2,210.6 		"/>
		<line class="st1" x1="104.6" y1="224.5" x2="109.1" y2="224.9"/>
		<line class="st1" x1="104.8" y1="232.1" x2="109.2" y2="232.5"/>
	</g>
	<line class="st1" x1="109.8" y1="242.6" x2="124.2" y2="214"/>
	<g>
		<g>
			<path class="st4" d="M125.4,222.4l0,1.7c0,0,0.4,1.1,2.5,1.1c0,0,1.7,0,2.1-1.2v-1.9"/>
			<ellipse class="st4" cx="127.7" cy="222.3" rx="2.3" ry="1.2"/>
			<ellipse class="st4" cx="155.2" cy="246.6" rx="3.4" ry="1.8"/>
		</g>
		<g>
			<g>
				<path class="st1" d="M126,224.8c0,0-1.2,1.1,1.4,1.3c0,0,1.3,0.1,2-0.6"/>
				<path class="st1" d="M126,225.8c0,0-1.2,1.1,1.4,1.3c0,0,1.3,0.1,2-0.6"/>
				<path class="st1" d="M126,226.9c0,0-1.2,1.1,1.4,1.3c0,0,1.3,0.1,2-0.6"/>
				<path class="st1" d="M126,228c0,0-1.2,1.1,1.4,1.3c0,0,1.3,0.1,2-0.6"/>
			</g>
			<line class="st9" x1="126.3" y1="224.9" x2="126.5" y2="229.5"/>
			<line class="st9" x1="129.3" y1="225" x2="129.5" y2="229.1"/>
		</g>
	</g>
	<g>
		<g>
			<path class="st4" d="M148.7,225.3l0,1.7c0,0,0.4,1.1,2.5,1.1c0,0,1.7,0,2.1-1.2V225"/>
			<ellipse class="st4" cx="151.1" cy="225.1" rx="2.3" ry="1.2"/>
		</g>
		<g>
			<g>
				<path class="st1" d="M149.3,227.6c0,0-1.2,1.1,1.4,1.3c0,0,1.3,0.1,2-0.6"/>
				<path class="st1" d="M149.3,228.7c0,0-1.2,1.1,1.4,1.3c0,0,1.3,0.1,2-0.6"/>
				<path class="st1" d="M149.3,229.8c0,0-1.2,1.1,1.4,1.3c0,0,1.3,0.1,2-0.6"/>
				<path class="st1" d="M149.3,230.9c0,0-1.2,1.1,1.4,1.3c0,0,1.3,0.1,2-0.6"/>
			</g>
			<line class="st9" x1="149.6" y1="227.8" x2="149.8" y2="232.4"/>
			<line class="st9" x1="152.7" y1="227.8" x2="152.8" y2="232"/>
		</g>
	</g>
	<polyline class="st1" points="107.8,246 102,257 102.3,262.9 	"/>
	<polyline class="st1" points="83.8,257.1 94.1,258.6 95,256.3 102,257 	"/>
	<line class="st1" x1="94.1" y1="258.6" x2="94.3" y2="261.9"/>
	<line class="st1" x1="67.1" y1="249.5" x2="62.9" y2="257.9"/>
	<polyline class="st1" points="138.5,253.9 133,264.3 126.1,263.3 124.8,265.8 	"/>
	<line class="st1" x1="133" y1="267.1" x2="133" y2="264.3"/>
	<path class="st1" d="M150.8,246.2l2.9-6.5c0,0,0.7-1.9,3.6-1.2l3.9,0.6c0,0,2-0.1,1.4,2l-3.3,7.2c0,0-1.9,2.2-5.5,1.6
		C153.9,249.9,149.4,249.7,150.8,246.2z"/>
	<line class="st1" x1="151.6" y1="257.7" x2="150.5" y2="248.1"/>
	<line class="st1" x1="159.8" y1="251.4" x2="159.5" y2="248.4"/>
	<path class="st10" d="M163.9,256.6l1.3,0.2l2.7,0.4c0,0,2,0.4,3-1.9c1-2.3,6.8-14.4,6.8-14.4s1.2-1.2-2.2-2.2l-2.9-0.1"/>
	<line class="st10" x1="173.9" y1="239.3" x2="165.4" y2="256.1"/>
	<path class="st10" d="M174.6,234.5l4.9,0.7c0,0,1.2,0.4,2.4-2.2c1.3-2.6,1.9-4.3,1.9-4.3s1-1-2.2-1.4s-3.9-0.3-3.9-0.3"/>
	<line class="st10" x1="177.2" y1="234.5" x2="180.5" y2="227.5"/>
	<g>
		<path class="st11" d="M22.2,283l-0.1-2c0-0.1,0.1-0.1,0.1-0.2c0.2-0.2,0.6-0.3,0.6-0.3l1.6,0.3c0.5,0.2,0.6,0.9,0.6,0.9l0.1,1.5
			c0.2,0,0.4-0.3,0.4-0.3s2.8-4.9,2.9-5.1c0.1-0.2,0.4-1.4,0.4-1.4s0-0.9,0-1.4c-0.1-0.5-0.9-0.7-0.9-0.7s-0.9-0.2-1.3-0.2
			c-0.4-0.1-0.6,0.2-0.6,0.2l-3.7,6.4"/>
		<line class="st11" x1="25.3" y1="281.5" x2="28.9" y2="275.1"/>
		<line class="st11" x1="23.4" y1="281.1" x2="10.5" y2="303.9"/>
		<line class="st11" x1="24.8" y1="281.5" x2="12.1" y2="303.9"/>
		<line class="st11" x1="17.1" y1="296.8" x2="17.3" y2="305.4"/>
		<path class="st11" d="M5,308l1.9-3.5c0,0,0.6-0.7,1.8-0.7s8-0.6,14.2,5.3s4.9,12.7,4.9,12.7s-1.2,4.1-2.6,5.9"/>
		<path class="st11" d="M4.7,314.2l-0.1-4.9c0,0-0.1-1.5,1.6-1.7s6.8-0.3,12.3,3.3s8.6,10.5,6.9,16.1c0,0-1.2,4.6-7.4,6.6l-4.4-0.2"
			/>
		<path class="st11" d="M5.7,330.4l0,1.2c0,0,0,0.9,1.2,1.1c1.2,0.1,4.8,0.7,4.8,0.7s3.2,0.4,6-0.8c2.7-1.2,4.9-2.6,6.2-6.4
			c1.3-3.8-0.3-10.8-7.3-14.9c0,0-2.5-1.5-3.9-1.6c0,0-5-0.8-5.6,3.7L7,318.1"/>
		<line class="st11" x1="9.5" y1="319.8" x2="14.9" y2="310.4"/>
		<path class="st11" d="M7,318.6c0,0,1.3-0.8,2.3,0.6l0.5,2.2l2.5-4.5c0,0-0.1-2.2-0.1-2.7c0-0.4-0.3-1-0.3-1
			c-0.8-1-1.8-0.3-1.8-0.3l-3.5,6.2"/>
		<path class="st11" d="M6.6,319.4l0.7,0.1c0,0,0.4-0.9,1.1-0.3l0.4,1.8c0,0-0.8,0.7-1.2,0.7c0,0,1.3,1,2-0.2"/>
		<line class="st11" x1="12.1" y1="317.6" x2="15.9" y2="310.9"/>
		<path class="st11" d="M6.1,316.2l0.3-1.7c0,0-0.1-1.2-1.5-0.6c0,0-1.5,1.3-1.9,5.1c0,0-0.2,1.6-0.3,2.4s0.2,7.7,0.2,7.7
			s0.4,3.5,2.4,1.7"/>
		<path class="st11" d="M6.3,314.6c0,0-0.6,0.2-1.2,2s-0.9,4.7-0.8,6.1s-0.2,7.7,0.8,7.8c0,0,1.2,0.3,2.3-5.6l0.5,3.9l0.5-0.8
			c0,0,0-3,0.9-4.4c0.1-0.2,0.2-0.3,0.3-0.4c0,0,0.7-0.3,0.7,1.4l0.5-0.7l0.1-2.8l5.7-9.9"/>
		<path class="st11" d="M10.1,324.7l-0.7,0c0,0,0-0.9-0.2-1"/>
		<line class="st11" x1="5.7" y1="331.6" x2="7.8" y2="328.6"/>
		<path class="st11" d="M8,328.6c0,0,0.6,0.4,0.9,0.4s6.1,0.7,6.1,0.7s5.5,0.2,8.7-3.4"/>
		<path class="st11" d="M18.6,306l9.4-16.6l0.5-0.1l0.6,0.1c0,0,0.4,0.4,0.2,1.9l-3.8,6.6c0,0-0.4,0.7-1.5,0.3l-4.7,8.4"/>
		<path class="st11" d="M25.5,297.5c0,0-0.2-1.9,0.4-3c0.7-1.1,3-5.3,3-5.3"/>
		<path class="st11" d="M20.5,302.4c0,0,0.2-1.6,0.1-2.5l0.3-0.6l-0.1-9"/>
		<polyline class="st11" points="21,297.4 22.5,294.7 22.3,287.4 		"/>
		<line class="st11" x1="24.8" y1="283.1" x2="12.9" y2="304.1"/>
		<line class="st11" x1="23.4" y1="285.7" x2="23.7" y2="294.4"/>
		<path class="st11" d="M22.6,294.7c0,0,0.9,0.3,1.1-0.3l0.9-1.5l-0.2-9"/>
		<line class="st11" x1="24.6" y1="290.1" x2="26" y2="290.3"/>
		<path class="st11" d="M24.5,286.8l1.9,0.2l0.1,0.2l-0.3,0.4c0,0-0.2,0.5-0.2,0.9c0,0.4,0,2.2,0,2.2s0,0.4,0.2,0.4s0.7,0.1,0.7,0.1
			"/>
		<path class="st11" d="M25.2,283.1l0,2.1v1l1.5,0.2c0,0,0.6,0.3,0.6,0.7s-0.4,0.7-0.4,0.7s-0.2,0.5-0.1,0.9s0.1,2.4,0.1,2.4"/>
		<path class="st11" d="M27.8,279.2l1.3,1.3c0,0,0.4,0.4,0.4,1.3l0.2,0.2v1.3l-0.2,0.2v0.7l-1,1.9l-1.2,0.9"/>
		<path class="st11" d="M27,280.5l1.2,1.2c0,0,0.5,0.5,0.5,1.1s0.1,2.8,0.1,2.8"/>
		<line class="st11" x1="27.8" y1="286.7" x2="27.8" y2="289.3"/>
		<path class="st11" d="M26.6,281.7c0,0,1.1,2.5,0.2,4.8"/>
		<line class="st11" x1="9.4" y1="310.2" x2="9.5" y2="314"/>
		<line class="st11" x1="7" y1="319.7" x2="7" y2="325.1"/>
		<path class="st11" d="M25.4,274.9v-1.7l2.2-3.7c0,0,0.2-0.3,1-0.1s0.4,1.2,0.4,1.2l-1.5,2.3c0,0-0.5,0.7-1.2,0.6
			c-0.4-0.1-0.2,0.8-0.2,0.8"/>
	</g>
	<g>
		<g>
			<path class="st12" d="M201.3,332.9l0.4,23.2c0,0-0.2,1.2-1.5,1.4c-1.2,0.1-3.3,0.3-5.8-0.3c-2.5-0.6-13.8-4.1-14.5-16.4
				c0,0-1.1-8.8,11.8-14c0,0,3-0.7,6-0.1c3.1,0.6,3.7,0.6,3.7,0.6s1.4,0,1.9,1.6l0.6,23.6l-2.2,3.9"/>
			<path class="st12" d="M196.6,354.9c-3.3,2-8.9-1.7-12-5.2c-3.1-3.5-4.5-11-0.8-15.1c0.1-0.2,0.3-0.3,0.4-0.4
				c3.7-3.6,9.9-3.3,9.9-3.3s4.5,0.7,5.3,0.7c0.8,0.1,1,1.2,1,1.2l0.3,17c0,0-0.4,2.8-0.9,3.9s-0.8,2-1.8,0.9
				c-1-1.1-0.4-10.9-0.4-10.9s1.1-5.7,2.5-4.9l-0.1-0.4c0,0-1-1.2-1.9-0.3c-0.9,0.9-2.1,5.7-2.1,7.2s0.2,8.1,0.2,8.1s0.4,3.7,2.6,2"
				/>
			<path class="st12" d="M196.5,351.6c0,0-5.2-0.3-9.7-5.8c-4.5-5.5-2.5-11.6-2.5-11.6"/>
			<path class="st12" d="M219.8,319.1"/>
			<path class="st12" d="M204,346.9"/>
			<polyline class="st12" points="219.8,321.1 223.4,314.7 223.7,314.1 			"/>
			<ellipse transform="matrix(0.9937 0.1122 -0.1122 0.9937 36.6125 -21.6828)" class="st12" cx="211" cy="314.5" rx="0.7" ry="2"/>
			<ellipse transform="matrix(0.9937 0.1122 -0.1122 0.9937 37.833 -21.6206)" class="st12" cx="211" cy="325.4" rx="0.7" ry="2"/>
		</g>
		<g>
			<path class="st13" d="M216.5,310.1H216c0,0-0.7,0.8-0.4,2.6l0.6,0.1"/>
			
				<ellipse transform="matrix(0.9942 0.1076 -0.1076 0.9942 34.7877 -21.5526)" class="st13" cx="217.1" cy="311.5" rx="0.7" ry="2.7"/>
			
				<ellipse transform="matrix(0.9942 0.1076 -0.1076 0.9942 34.8098 -21.6277)" class="st13" cx="217.8" cy="311.7" rx="0.7" ry="2.6"/>
		</g>
	</g>
	<path class="st12" d="M217.6,314.7l0,4.2l-7.4,14c0,0-0.4,1.4-2.2,0.8l-4.2,8.6"/>
	<path class="st12" d="M201.5,327.3l6.1-11.5l0.9-4.6c0,0,0.3-1.4,1.1-3c0.8-1.5,7.6-14.6,7.6-14.6l0.4,0.2l0.1,14.2"/>
	<path class="st12" d="M217.3,304c0,0-0.8,0.3-1.1-0.4l-2.5,4.9c0,0,0.2,4-0.4,4.7v3.8c0,0,0.5,0.4,0.4,2.4l1.2,0.1l2.5-3.8"/>
	<path class="st12" d="M199.5,331.7c0,0-3.4,5.2-3.1,11.1"/>
	<polyline class="st12" points="157.1,274.8 157.1,276.1 214.7,283.4 214.7,282 	"/>
	<ellipse class="st14" cx="164.6" cy="272.6" rx="2.4" ry="1.2"/>
	<ellipse class="st14" cx="206.6" cy="277.8" rx="2.4" ry="1.2"/>
	<polyline class="st14" points="90.8,135.8 89.2,140.3 89.7,147 	"/>
	<polyline class="st14" points="105.9,149.5 106.3,140.8 108.8,136.8 	"/>
	<g>
		<polyline class="st4" points="79.7,222.7 79.6,225.8 75.6,234.2 70.4,233.6 70.4,230.7 		"/>
		<polygon class="st4" points="75.6,231.2 70.4,230.5 74.5,221.9 79.7,222.6 		"/>
		<line class="st4" x1="75.5" y1="231.2" x2="75.6" y2="234.2"/>
	</g>
	<g>
		<g>
			<g>
			</g>
		</g>
		<g>
			<g>
			</g>
		</g>
		<g>
			<g>
			</g>
		</g>
		<g>
			<g>
			</g>
		</g>
		<g>
			<g>
			</g>
		</g>
		<g>
			<g>
			</g>
		</g>
		<g>
			<g>
			</g>
		</g>
	</g>
	<g>
		<g>
			<g>
			</g>
		</g>
	</g>
	<g>
		<defs>
			<polygon id="SVGID_1_" points="129.2,195.4 129.2,185.3 128,184.3 127.1,181.4 133,169.5 141.4,164.5 202.8,172.8 204.1,174.9 
				190.9,200.9 155.2,195.9 156.9,193.4 140,191.3 138.6,194.7 130.6,193.7 			"/>
		</defs>
		<clipPath id="SVGID_2_">
			<use xlink:href="#SVGID_1_"  style="overflow:visible;"/>
		</clipPath>
		<g class="st15">
			<g>
				<path class="st16" d="M138.4,176l-1-0.2c-0.2,0-0.2,0.5-0.2,0.5l0,6l1.3,0.2L138.4,176z"/>
				<path class="st16" d="M137.9,177.1l-1-0.2c-0.2,0-0.2,0.5-0.2,0.5l0,6l1.3,0.2L137.9,177.1z"/>
				<path class="st16" d="M137.2,178.4l-1-0.2c-0.2,0-0.2,0.5-0.2,0.5l0,6l1.3,0.2L137.2,178.4z"/>
				<path class="st16" d="M136.6,179.5l-1-0.2c-0.2,0-0.2,0.5-0.2,0.5l0,6l1.3,0.2L136.6,179.5z"/>
				<path class="st16" d="M136.1,180.8l-1-0.2c-0.2,0-0.2,0.5-0.2,0.5l0,6l1.3,0.2L136.1,180.8z"/>
			</g>
			<g>
				<path class="st16" d="M142.4,167.7l-1-0.2c-0.2,0-0.2,0.5-0.2,0.5l0,6l1.3,0.2L142.4,167.7z"/>
				<path class="st16" d="M142,168.8l-1-0.2c-0.2,0-0.2,0.5-0.2,0.5l0,6l1.3,0.2L142,168.8z"/>
				<path class="st16" d="M141.2,170.1l-1-0.2c-0.2,0-0.2,0.5-0.2,0.5l0,6l1.3,0.2L141.2,170.1z"/>
				<path class="st16" d="M140.7,171.2l-1-0.2c-0.2,0-0.2,0.5-0.2,0.5l0,6l1.3,0.2L140.7,171.2z"/>
				<path class="st16" d="M140.2,172.5l-1-0.2c-0.2,0-0.2,0.5-0.2,0.5l0,6l1.3,0.2L140.2,172.5z"/>
			</g>
			<g>
				<polyline class="st17" points="145.1,179.9 145,180.3 146.8,180.5 147.1,180 				"/>
				<g>
					<path class="st17" d="M149.6,167.5l-1.4-0.2c-0.2,0-0.3,0.5-0.3,0.5l0,6l1.8,0.2L149.6,167.5z"/>
					<path class="st17" d="M149.1,168.8l-1.4-0.2c-0.2,0-0.3,0.5-0.3,0.5l0,6l1.8,0.2L149.1,168.8z"/>
					<path class="st17" d="M148.5,169.9l-1.4-0.2c-0.2,0-0.3,0.5-0.3,0.5l0,6l1.8,0.2L148.5,169.9z"/>
					<path class="st17" d="M147.9,171l-1.4-0.2c-0.2,0-0.3,0.5-0.3,0.5l0,6l1.8,0.2L147.9,171z"/>
					<path class="st17" d="M147.4,172.2l-1.4-0.2c-0.2,0-0.3,0.5-0.3,0.5l0,6l1.8,0.2L147.4,172.2z"/>
					<path class="st17" d="M146.8,173.5l-1.4-0.2c-0.2,0-0.3,0.5-0.3,0.5l0,6l1.8,0.2L146.8,173.5z"/>
					<path class="st17" d="M174,170.5l-1.4-0.2c-0.2,0-0.3,0.5-0.3,0.5l0,6l1.8,0.2L174,170.5z"/>
					<path class="st17" d="M173.5,171.8l-1.4-0.2c-0.2,0-0.3,0.5-0.3,0.5l0,6l1.8,0.2L173.5,171.8z"/>
					<path class="st17" d="M172.9,173l-1.4-0.2c-0.2,0-0.3,0.5-0.3,0.5l0,6l1.8,0.2L172.9,173z"/>
					<path class="st17" d="M172.3,174.1l-1.4-0.2c-0.2,0-0.3,0.5-0.3,0.5l0,6l1.8,0.2L172.3,174.1z"/>
					<path class="st17" d="M171.8,175.3l-1.4-0.2c-0.2,0-0.3,0.5-0.3,0.5l0,6l1.8,0.2L171.8,175.3z"/>
					<path class="st17" d="M171.2,176.5l-1.4-0.2c-0.2,0-0.3,0.5-0.3,0.5l0,6l1.8,0.2L171.2,176.5z"/>
					<path class="st17" d="M177.5,171l-1.4-0.2c-0.2,0-0.3,0.5-0.3,0.5l0,6l1.8,0.2L177.5,171z"/>
					<path class="st17" d="M176.9,172.3l-1.4-0.2c-0.2,0-0.3,0.5-0.3,0.5l0,6l1.8,0.2L176.9,172.3z"/>
					<path class="st17" d="M176.3,173.5l-1.4-0.2c-0.2,0-0.3,0.5-0.3,0.5l0,6l1.8,0.2L176.3,173.5z"/>
					<path class="st17" d="M175.7,174.6l-1.4-0.2c-0.2,0-0.3,0.5-0.3,0.5l0,6l1.8,0.2L175.7,174.6z"/>
					<path class="st17" d="M175.2,175.8l-1.4-0.2c-0.2,0-0.3,0.5-0.3,0.5l0,6l1.8,0.2L175.2,175.8z"/>
					<path class="st17" d="M174.7,177l-1.4-0.2c-0.2,0-0.3,0.5-0.3,0.5l0,6l1.8,0.2L174.7,177z"/>
					<path class="st17" d="M180.9,171.5l-1.4-0.2c-0.2,0-0.3,0.5-0.3,0.5l0,6l1.8,0.2L180.9,171.5z"/>
					<path class="st17" d="M180.4,172.8l-1.4-0.2c-0.2,0-0.3,0.5-0.3,0.5l0,6l1.8,0.2L180.4,172.8z"/>
					<path class="st17" d="M179.8,174l-1.4-0.2c-0.2,0-0.3,0.5-0.3,0.5l0,6l1.8,0.2L179.8,174z"/>
					<path class="st17" d="M179.2,175.1l-1.4-0.2c-0.2,0-0.3,0.5-0.3,0.5l0,6l1.8,0.2L179.2,175.1z"/>
					<path class="st17" d="M178.7,176.3l-1.4-0.2c-0.2,0-0.3,0.5-0.3,0.5l0,6l1.8,0.2L178.7,176.3z"/>
					<path class="st17" d="M178.2,177.5l-1.4-0.2c-0.2,0-0.3,0.5-0.3,0.5l0,6l1.8,0.2L178.2,177.5z"/>
					<path class="st17" d="M184.4,172l-1.4-0.2c-0.2,0-0.3,0.5-0.3,0.5l0,6l1.8,0.2L184.4,172z"/>
					<path class="st17" d="M183.8,173.3l-1.4-0.2c-0.2,0-0.3,0.5-0.3,0.5l0,6l1.8,0.2L183.8,173.3z"/>
					<path class="st17" d="M183.2,174.5l-1.4-0.2c-0.2,0-0.3,0.5-0.3,0.5l0,6l1.8,0.2L183.2,174.5z"/>
					<path class="st17" d="M182.6,175.6l-1.4-0.2c-0.2,0-0.3,0.5-0.3,0.5l0,6l1.8,0.2L182.6,175.6z"/>
					<path class="st17" d="M182.1,176.8l-1.4-0.2c-0.2,0-0.3,0.5-0.3,0.5l0,6l1.8,0.2L182.1,176.8z"/>
					<path class="st17" d="M181.6,178l-1.4-0.2c-0.2,0-0.3,0.5-0.3,0.5l0,6l1.8,0.2L181.6,178z"/>
					<path class="st17" d="M187.8,172.5l-1.4-0.2c-0.2,0-0.3,0.5-0.3,0.5l0,6l1.8,0.2L187.8,172.5z"/>
					<path class="st17" d="M187.3,173.8l-1.4-0.2c-0.2,0-0.3,0.5-0.3,0.5l0,6l1.8,0.2L187.3,173.8z"/>
					<path class="st17" d="M186.7,175l-1.4-0.2c-0.2,0-0.3,0.5-0.3,0.5l0,6l1.8,0.2L186.7,175z"/>
					<path class="st17" d="M186.1,176.1l-1.4-0.2c-0.2,0-0.3,0.5-0.3,0.5l0,6l1.8,0.2L186.1,176.1z"/>
					<path class="st17" d="M185.6,177.3l-1.4-0.2c-0.2,0-0.3,0.5-0.3,0.5l0,6l1.8,0.2L185.6,177.3z"/>
					<path class="st17" d="M185.1,178.5l-1.4-0.2c-0.2,0-0.3,0.5-0.3,0.5l0,6l1.8,0.2L185.1,178.5z"/>
					<path class="st17" d="M191.3,173l-1.4-0.2c-0.2,0-0.3,0.5-0.3,0.5l0,6l1.8,0.2L191.3,173z"/>
					<path class="st17" d="M190.7,174.3l-1.4-0.2c-0.2,0-0.3,0.5-0.3,0.5l0,6l1.8,0.2L190.7,174.3z"/>
					<path class="st17" d="M190.1,175.5l-1.4-0.2c-0.2,0-0.3,0.5-0.3,0.5l0,6l1.8,0.2L190.1,175.5z"/>
					<path class="st17" d="M189.6,176.6l-1.4-0.2c-0.2,0-0.3,0.5-0.3,0.5l0,6l1.8,0.2L189.6,176.6z"/>
					<path class="st17" d="M189,177.8l-1.4-0.2c-0.2,0-0.3,0.5-0.3,0.5l0,6l1.8,0.2L189,177.8z"/>
					<path class="st17" d="M188.5,179l-1.4-0.2c-0.2,0-0.3,0.5-0.3,0.5l0,6l1.8,0.2L188.5,179z"/>
					<path class="st17" d="M194.7,173.5l-1.4-0.2c-0.2,0-0.3,0.5-0.3,0.5l0,6l1.8,0.2L194.7,173.5z"/>
					<path class="st17" d="M194.2,174.8l-1.4-0.2c-0.2,0-0.3,0.5-0.3,0.5l0,6l1.8,0.2L194.2,174.8z"/>
					<path class="st17" d="M193.6,176l-1.4-0.2c-0.2,0-0.3,0.5-0.3,0.5l0,6l1.8,0.2L193.6,176z"/>
					<path class="st17" d="M193,177.1l-1.4-0.2c-0.2,0-0.3,0.5-0.3,0.5l0,6l1.8,0.2L193,177.1z"/>
					<path class="st17" d="M192.5,178.3l-1.4-0.2c-0.2,0-0.3,0.5-0.3,0.5l0,6l1.8,0.2L192.5,178.3z"/>
					<path class="st17" d="M192,179.5l-1.4-0.2c-0.2,0-0.3,0.5-0.3,0.5l0,6l1.8,0.2L192,179.5z"/>
					<polyline class="st17" points="149.1,179.2 149,179.5 150.8,179.7 151.2,179.2 					"/>
					<path class="st17" d="M152.5,169.1l-1.4-0.2c-0.2,0-0.3,0.5-0.3,0.5l0,6l1.8,0.2L152.5,169.1z"/>
					<path class="st17" d="M151.9,170.3l-1.4-0.2c-0.2,0-0.3,0.5-0.3,0.5l0,6l1.8,0.2L151.9,170.3z"/>
					<path class="st17" d="M151.4,171.5l-1.4-0.2c-0.2,0-0.3,0.5-0.3,0.5l0,6l1.8,0.2L151.4,171.5z"/>
					<path class="st17" d="M150.9,172.7l-1.4-0.2c-0.2,0-0.3,0.5-0.3,0.5l0,6l1.8,0.2L150.9,172.7z"/>
					<polyline class="st17" points="152.5,179.7 152.4,180.1 154.2,180.3 154.6,179.7 					"/>
					<path class="st17" d="M155.9,169.7l-1.4-0.2c-0.2,0-0.3,0.5-0.3,0.5l0,6l1.8,0.2L155.9,169.7z"/>
					<path class="st17" d="M155.3,170.8l-1.4-0.2c-0.2,0-0.3,0.5-0.3,0.5l0,6l1.8,0.2L155.3,170.8z"/>
					<path class="st17" d="M154.8,172l-1.4-0.2c-0.2,0-0.3,0.5-0.3,0.5l0,6l1.8,0.2L154.8,172z"/>
					<path class="st17" d="M154.3,173.2l-1.4-0.2c-0.2,0-0.3,0.5-0.3,0.5l0,6l1.8,0.2L154.3,173.2z"/>
					<polyline class="st17" points="155.9,180.3 155.8,180.6 157.6,180.8 158,180.3 					"/>
					<path class="st17" d="M159.3,170.2l-1.4-0.2c-0.2,0-0.3,0.5-0.3,0.5l0,6l1.8,0.2L159.3,170.2z"/>
					<path class="st17" d="M158.7,171.4l-1.4-0.2c-0.2,0-0.3,0.5-0.3,0.5l0,6l1.8,0.2L158.7,171.4z"/>
					<path class="st17" d="M158.2,172.6l-1.4-0.2c-0.2,0-0.3,0.5-0.3,0.5l0,6l1.8,0.2L158.2,172.6z"/>
					<path class="st17" d="M157.7,173.8l-1.4-0.2c-0.2,0-0.3,0.5-0.3,0.5l0,6l1.8,0.2L157.7,173.8z"/>
					<polyline class="st17" points="159.3,180.8 159.2,181.1 161,181.4 161.4,180.8 					"/>
					<path class="st17" d="M162.7,170.8l-1.4-0.2c-0.2,0-0.3,0.5-0.3,0.5l0,6l1.8,0.2L162.7,170.8z"/>
					<path class="st17" d="M162.1,171.9l-1.4-0.2c-0.2,0-0.3,0.5-0.3,0.5l0,6l1.8,0.2L162.1,171.9z"/>
					<path class="st17" d="M161.6,173.1l-1.4-0.2c-0.2,0-0.3,0.5-0.3,0.5l0,6l1.8,0.2L161.6,173.1z"/>
					<path class="st17" d="M161.1,174.3l-1.4-0.2c-0.2,0-0.3,0.5-0.3,0.5l0,6l1.8,0.2L161.1,174.3z"/>
					<polyline class="st17" points="162.4,182.2 162.3,182.5 164.1,182.8 164.4,182.2 					"/>
					<path class="st17" d="M166.9,169.7l-1.4-0.2c-0.2,0-0.3,0.5-0.3,0.5l0,6l1.8,0.2L166.9,169.7z"/>
					<path class="st17" d="M166.4,171l-1.4-0.2c-0.2,0-0.3,0.5-0.3,0.5l0,6l1.8,0.2L166.4,171z"/>
					<path class="st17" d="M165.8,172.2l-1.4-0.2c-0.2,0-0.3,0.5-0.3,0.5l0,6l1.8,0.2L165.8,172.2z"/>
					<path class="st17" d="M165.2,173.3l-1.4-0.2c-0.2,0-0.3,0.5-0.3,0.5l0,6l1.8,0.2L165.2,173.3z"/>
					<path class="st17" d="M164.7,174.5l-1.4-0.2c-0.2,0-0.3,0.5-0.3,0.5l0,6l1.8,0.2L164.7,174.5z"/>
					<path class="st17" d="M164.2,175.7l-1.4-0.2c-0.2,0-0.3,0.5-0.3,0.5l0,6l1.8,0.2L164.2,175.7z"/>
				</g>
			</g>
			<g>
				<g>
					<polyline class="st17" points="198,185.4 197.9,185.8 199.7,186 200.1,185.5 					"/>
				</g>
			</g>
			<g>
				<g>
					<g>
						<polyline class="st18" points="134.7,187.2 134.7,187.6 135.7,187.7 135.8,187.2 						"/>
					</g>
				</g>
			</g>
			<path class="st17" d="M141,183.6l-1.5-0.2l1.2-6.8c0,0,0-0.2,0.3-0.1c0.3,0,2.1,0.3,2.1,0.3l0.2,0.3"/>
			<line class="st19" x1="143" y1="177.8" x2="143.2" y2="176.8"/>
			<g>
				<path class="st17" d="M141.1,176.3l0-0.3c0,0-0.1-0.5,0.2-0.5l2.2,0.3l0.3,0.5"/>
				<path class="st17" d="M143.6,176.6l0-0.4c0,0,0-0.2,0.1-0.3"/>
			</g>
			<g>
				<path class="st19" d="M145.2,175.3l-1.5-0.2l1.1-6.6c0,0,0-0.4,0.2-0.4c0.2,0,2.3,0.3,2.3,0.3l0.2,0.4"/>
				<path class="st19" d="M147.1,169.8l0.2-1c0,0,0-0.2,0.1-0.2"/>
			</g>
			<path class="st19" d="M169.5,178.5l-1.5-0.2l1.1-6.6c0,0,0-0.4,0.2-0.4c0.2,0,2.3,0.3,2.3,0.3l0.2,0.4"/>
			<path class="st19" d="M137,186.2c0,0-1.1-0.1-1.2,1.1c0,0,0.1,0.7-0.5,0.7l-0.6-0.1c0,0-0.3-0.1-0.3,0.5l0,3.5
				c0,0,0.1,0.1,0.1,0.3l2.4,0.3l-0.1-0.4l0-0.7c0,0,0.1-0.3,0.4-0.3s24.2,3.1,24.2,3.1s0.5-0.1,0.5,0.6c0,0.6-0.1,0.9,0.3,1.1
				c0.4,0.2,4.3,0.6,4.3,0.6s-0.1-0.4-0.1-0.6c0-0.2,0-0.5,0-0.5s0-0.4,0.5-0.4c0.5,0,24.2,3.2,24.2,3.2s0.4,0,0.4,0.6
				c0,0.7-0.2,0.8,0.3,0.9c0.4,0.2,3.2,0.4,3.2,0.4l0.3-0.2l0-3.3c0,0,0-0.9-1.3-1.2l-1-0.1c0,0-0.4,0-0.3-0.6s0.1-1.2-1.3-1.7"/>
			<line class="st19" x1="191.8" y1="199" x2="166.7" y2="195.7"/>
			<line class="st19" x1="191.8" y1="199.3" x2="195.4" y2="199.8"/>
			<line class="st19" x1="162" y1="195.2" x2="137" y2="191.9"/>
			<polyline class="st19" points="137,192.6 137.3,192.4 137.5,192.2 137.4,191.1 			"/>
			<g>
				<polygon class="st18" points="139.4,187.3 137,187 137,184.2 139.4,184.5 				"/>
				<polyline class="st17" points="137,184.2 137.1,183.8 139.5,184.1 139.4,184.5 				"/>
				<polyline class="st17" points="139.5,184.1 140.6,186.4 139.4,186.3 				"/>
				<polygon class="st17" points="139.8,188.9 136.7,188.4 136.7,187 139.8,187.5 				"/>
			</g>
			<line class="st20" x1="134.5" y1="191.8" x2="136.9" y2="192.1"/>
			<g>
				<path class="st17" d="M193.2,183.1l0-0.3c0,0-0.1-0.5,0.2-0.5l2.2,0.3l0.3,0.5"/>
				<path class="st19" d="M195.7,183.4l0-0.4c0,0,0-0.2,0.1-0.3"/>
			</g>
			<g>
				<path class="st19" d="M197.9,182.2l-2.2-0.3l1.1-6.6c0,0,0-0.4,0.2-0.4c0.2,0,2.3,0.3,2.3,0.3l0.2,0.4"/>
				<path class="st19" d="M199.2,176.6l0.2-1c0,0,0-0.2,0.1-0.2"/>
			</g>
			<g>
				<path class="st17" d="M193.7,190.4l-2.1-0.3l1.2-6.8c0,0,0-0.2,0.3-0.1c0.3,0,2.1,0.3,2.1,0.3l0.2,0.3"/>
				<path class="st17" d="M195.1,184.6l0-0.6c0,0,0-0.3,0.2-0.4"/>
			</g>
			<g>
				<g>
					<polyline class="st17" points="193.8,193.7 193.7,194 195.5,194.3 195.9,193.7 					"/>
				</g>
			</g>
			<g>
				<polygon class="st18" points="163.7,190.5 161.3,190.1 161.3,187.4 163.7,187.7 				"/>
				<polyline class="st17" points="161.3,187.4 161.4,186.9 163.8,187.2 163.7,187.7 				"/>
				<polyline class="st19" points="163.8,187.2 165,189.6 163.7,189.4 				"/>
				<polygon class="st19" points="164.1,192.1 161,191.6 161,190.2 164.1,190.7 				"/>
			</g>
			<g>
				<path class="st17" d="M165.3,186.7l-1.5-0.2l1.2-6.8c0,0,0-0.2,0.3-0.1c0.3,0,2.1,0.3,2.1,0.3l0.2,0.3"/>
				<path class="st17" d="M167.3,181l0-0.6c0,0,0-0.3,0.2-0.4"/>
			</g>
			<g>
				<path class="st17" d="M165.4,179.5l0-0.3c0,0-0.1-0.5,0.2-0.5l2.2,0.3l0.3,0.5"/>
				<path class="st19" d="M167.9,179.8l0-0.4c0,0,0-0.2,0.1-0.3"/>
			</g>
			<g>
				<g>
					<g>
						<polyline class="st17" points="165.4,191.2 165.3,191.6 167.2,191.8 167.5,191.3 						"/>
					</g>
				</g>
				<g>
					<g>
						<polyline class="st17" points="168.8,191.7 168.7,192.1 170.6,192.3 170.9,191.7 						"/>
					</g>
				</g>
				<g>
					<g>
						<polyline class="st17" points="172.3,192.2 172.1,192.5 174,192.8 174.3,192.2 						"/>
					</g>
				</g>
				<g>
					<g>
						<polyline class="st17" points="175.7,192.7 175.6,193 177.4,193.2 177.7,192.7 						"/>
					</g>
				</g>
				<g>
					<g>
						<polyline class="st17" points="179.1,193.1 179,193.5 180.8,193.7 181.1,193.2 						"/>
					</g>
				</g>
				<g>
					<g>
						<polyline class="st17" points="182.7,193.6 182.6,193.9 184.4,194.2 184.7,193.6 						"/>
					</g>
				</g>
				<g>
					<g>
						<polyline class="st17" points="186.1,194.1 186,194.4 187.9,194.7 188.2,194.1 						"/>
					</g>
				</g>
			</g>
			<g>
				<polygon class="st18" points="191.5,194 189.2,193.6 189.2,190.9 191.5,191.2 				"/>
				<polyline class="st17" points="189.2,190.9 189.3,190.4 191.6,190.8 191.5,191.2 				"/>
				<polyline class="st19" points="191.6,190.8 192.8,193.1 191.6,192.9 				"/>
				<polygon class="st19" points="191.9,195.6 188.8,195.1 188.8,193.7 191.9,194.2 				"/>
			</g>
			<path class="st19" d="M202.5,180.6l1.1,0.1c0,0,0.8,0,0.6,0.9l0,1.1l-2.9,5.8c0,0-0.1,0.6-0.9,0.7l-2-0.4"/>
			<line class="st19" x1="195.4" y1="179.6" x2="196.2" y2="179.7"/>
			<path class="st19" d="M198.3,187.1l2,0.3c0,0,0.7,0,0.9-0.4c0.2-0.4,3-5.9,3-5.9"/>
			<path class="st19" d="M200,189.2l0,1.8l-3,6c0,0-0.2,0.5-1.4,0.2"/>
			<path class="st19" d="M194.4,195.4l1.7,0.2c0,0,0.7,0.2,1-0.3c0.4-0.7,3-5.9,3-5.9"/>
			<line class="st19" x1="200.6" y1="187.6" x2="200.6" y2="189"/>
			<path class="st19" d="M163.7,189.6c0,0,1.5,0,1.4,1.7c0,0-0.1,0.8,0.9,1c1.1,0.1,21.6,2.8,21.6,2.8s0.5,0,0.6-0.5"/>
			<path class="st19" d="M139.3,186.5c0,0,1.5,0,1.4,1.7c0,0-0.1,0.8,0.9,1c1.1,0.1,18,2.3,18,2.3s0.5,0,0.6-0.5"/>
			<path class="st19" d="M168.7,174c0,0-0.6,0-0.8,0.6c-0.2,0.6,0.2,1.2-0.3,1.5l-0.5,0.1"/>
			<path class="st19" d="M144.3,170.8c0,0-0.6,0-0.8,0.6s0.2,1.2-0.3,1.5l-0.4-0.1"/>
			<line class="st18" x1="196.5" y1="195.7" x2="196.6" y2="197.3"/>
			<polygon class="st18" points="205.5,182.9 208.3,183.3 204.9,189.9 202.1,189.6 			"/>
			<polygon class="st18" points="201.4,191.1 204.1,191.5 200.8,198.2 198,197.8 			"/>
			<polyline class="st21" points="197.2,198.9 197.2,202.2 200.8,202.6 204.2,196 204.1,191.5 			"/>
			<line class="st21" x1="200.8" y1="198.2" x2="200.8" y2="202.6"/>
			<polyline class="st21" points="204.2,194.3 204.9,194.5 208.4,187.7 208.3,183.3 			"/>
			<line class="st21" x1="204.9" y1="189.9" x2="204.8" y2="194.3"/>
			<polyline class="st21" points="200,190.3 201,190.5 201.4,190.3 201.4,190 202.1,189.6 202.1,191.1 			"/>
			<polyline class="st21" points="198,197.8 197.2,198.2 197.2,198.6 196.8,198.7 195.6,198.5 			"/>
			<polyline class="st21" points="195.6,198.1 196.8,198.2 197.2,198.2 			"/>
			<polyline class="st21" points="200.1,189.9 200.9,190.1 201.4,190 			"/>
			<path class="st19" d="M195.5,199.9c0,0,1.1,0.4,1.6-0.4"/>
			<path class="st19" d="M195.6,199.5c0,0,1,0.5,1.6-0.4"/>
			<path class="st19" d="M204,183.3l0.4,0c0,0,0.2,0,0.2,0.4l0.4,0.1"/>
			<path class="st19" d="M199.6,189c0,0,0.1-1.5-1.4-1.6"/>
			<line class="st19" x1="139.9" y1="181.3" x2="138.5" y2="181.1"/>
			<path class="st19" d="M134.6,192.2l-1.2,2.4c0,0-2.1-0.1-2.1-0.7l0.1-4.7l0.8-1.6l0.6,0l0.3,0.5l-0.7,1.3"/>
			<path class="st19" d="M132.7,187.8l-0.8,1.5l1.5,0.3l-0.2,0.3l-1.4-0.2c0,0-0.6-0.1-0.5-0.5"/>
			<line class="st19" x1="132.1" y1="194.5" x2="132.1" y2="189.8"/>
			<polyline class="st19" points="133.3,189.9 133.4,192.8 133.7,192.8 133.7,193.6 133.3,193.9 133.3,194.5 			"/>
			<polyline class="st19" points="133.4,192.7 133.7,192.2 133.6,189.7 			"/>
			<path class="st19" d="M131.3,192.8c0,0-1.3-0.4-1.3-0.8c0,0,0,0,0,0.6c0,0.6,1.3,1,1.3,1"/>
			<polyline class="st19" points="131.3,192.2 128.5,191.8 128.5,189.7 129.2,189.8 129.3,186 132.8,186.4 133,186.8 			"/>
			<path class="st19" d="M134.6,187.6l-1.3-0.2c0,0-0.7,0.1-0.2-0.8l0.9-1.6"/>
			<line class="st19" x1="128.5" y1="189.7" x2="129.2" y2="188.2"/>
			<path class="st19" d="M134.4,188.2l-1.1-0.2l-0.2,0c0,0-0.5-0.2-0.3-0.8"/>
			<line class="st19" x1="133.4" y1="187.4" x2="133.3" y2="188"/>
			<path class="st19" d="M128.7,181.6c0,0,0.5-1,2.7-0.1l1.4,0.7c0,0,1.5,1,1.2,1.9s-2.4,0.4-2.4,0.4l-2-1
				C129.6,183.6,128.1,182.7,128.7,181.6z"/>
			<path class="st19" d="M128.6,181.7l-0.6,1c0,0-0.1,0.9,0.8,1.5c0.9,0.5,0.9,0.7,0.9,0.7"/>
			<polyline class="st19" points="130.2,183.9 128.9,186.8 129.3,187.3 			"/>
			<path class="st19" d="M130,184.6l1.3,0.6c0,0,2.2,0.8,2.7-0.9"/>
			<path class="st19" d="M134.2,176.5l1.3,0.6c0,0,0.5,0.2,1,0.2"/>
			<line class="st19" x1="133.2" y1="182.5" x2="134.7" y2="182.8"/>
			<polyline class="st19" points="132.7,182.1 132.7,181.5 133.4,180.1 			"/>
			<polyline class="st19" points="132.8,181.4 133.3,181.5 133.4,179 133.4,177.8 136,178.1 			"/>
			<polyline class="st19" points="134.3,175.8 133.1,178.5 133.4,179 			"/>
			<polygon points="130.2,181.8 130.6,181.9 130,183 129.7,182.6 			"/>
			<polygon points="131,182.1 131.3,182.2 130.7,183.3 130.5,183 			"/>
			<polygon points="131.7,182.5 132.1,182.6 131.5,183.7 131.2,183.4 			"/>
			<polygon points="132.4,182.9 132.8,183 132.2,184 132,183.7 			"/>
			<path class="st19" d="M137,176.5c-0.6,0-1.2-0.2-1.2-0.2l-2-1c0,0-1.5-0.9-0.9-2c0,0,0.5-1,2.7-0.1l1.4,0.7c0,0,1.3,0.8,1.2,1.7"
				/>
			<path class="st19" d="M132.8,173.5l-0.6,1c0,0-0.1,0.9,0.8,1.5c0.9,0.5,0.9,0.7,0.9,0.7"/>
			<polygon points="134.3,173.5 134.7,173.6 134.1,174.7 133.8,174.4 			"/>
			<polygon points="135.1,173.9 135.5,174 134.8,175.1 134.6,174.7 			"/>
			<polygon points="135.8,174.3 136.2,174.4 135.6,175.5 135.4,175.1 			"/>
			<polygon points="136.5,174.6 136.9,174.7 136.3,175.8 136.1,175.5 			"/>
			<line class="st19" x1="138.9" y1="174.5" x2="137.3" y2="174.3"/>
			<line class="st19" x1="130.8" y1="185" x2="131.1" y2="184.3"/>
			<line class="st19" x1="134.9" y1="176.8" x2="135.2" y2="176.1"/>
			<g>
				<g>
					<g>
					</g>
					<g>
					</g>
					<g>
					</g>
					<g>
					</g>
					<g>
					</g>
					<g>
						<path class="st17" d="M142.9,182.1"/>
						<polyline class="st17" points="141.1,188.1 141,188.4 142.8,188.6 143.1,188.1 						"/>
						<g>
							<path class="st17" d="M145.6,175.6l-1.4-0.2c-0.2,0-0.3,0.5-0.3,0.5l0,6l1.8,0.2L145.6,175.6z"/>
							<path class="st17" d="M145.1,176.9l-1.4-0.2c-0.2,0-0.3,0.5-0.3,0.5l0,6l1.8,0.2L145.1,176.9z"/>
							<path class="st17" d="M144.5,178l-1.4-0.2c-0.2,0-0.3,0.5-0.3,0.5l0,6l1.8,0.2L144.5,178z"/>
							<path class="st17" d="M143.9,179.2l-1.4-0.2c-0.2,0-0.3,0.5-0.3,0.5l0,6l1.8,0.2L143.9,179.2z"/>
							<path class="st17" d="M143.4,180.4l-1.4-0.2c-0.2,0-0.3,0.5-0.3,0.5l0,6l1.8,0.2L143.4,180.4z"/>
							<path class="st17" d="M142.9,181.6l-1.4-0.2c-0.2,0-0.3,0.5-0.3,0.5l0,6l1.8,0.2L142.9,181.6z"/>
							<polyline class="st17" points="145.1,187.3 145,187.6 146.8,187.9 147.2,187.3 							"/>
							<path class="st17" d="M148.5,177.3l-1.4-0.2c-0.2,0-0.3,0.5-0.3,0.5l0,6l1.8,0.2L148.5,177.3z"/>
							<path class="st17" d="M147.9,178.4l-1.4-0.2c-0.2,0-0.3,0.5-0.3,0.5l0,6l1.8,0.2L147.9,178.4z"/>
							<path class="st17" d="M147.4,179.6l-1.4-0.2c-0.2,0-0.3,0.5-0.3,0.5l0,6l1.8,0.2L147.4,179.6z"/>
							<path class="st17" d="M146.9,180.8l-1.4-0.2c-0.2,0-0.3,0.5-0.3,0.5l0,6l1.8,0.2L146.9,180.8z"/>
							<polyline class="st17" points="148.5,187.8 148.4,188.2 150.3,188.4 150.6,187.9 							"/>
							<path class="st17" d="M151.9,177.8l-1.4-0.2c-0.2,0-0.3,0.5-0.3,0.5l0,6l1.8,0.2L151.9,177.8z"/>
							<path class="st17" d="M151.3,178.9l-1.4-0.2c-0.2,0-0.3,0.5-0.3,0.5l0,6l1.8,0.2L151.3,178.9z"/>
							<path class="st17" d="M150.8,180.1l-1.4-0.2c-0.2,0-0.3,0.5-0.3,0.5l0,6l1.8,0.2L150.8,180.1z"/>
							<path class="st17" d="M150.3,181.4l-1.4-0.2c-0.2,0-0.3,0.5-0.3,0.5l0,6l1.8,0.2L150.3,181.4z"/>
							<polyline class="st17" points="151.9,188.4 151.8,188.7 153.7,189 154,188.4 							"/>
							<path class="st17" d="M155.3,178.4l-1.4-0.2c-0.2,0-0.3,0.5-0.3,0.5l0,6l1.8,0.2L155.3,178.4z"/>
							<path class="st17" d="M154.8,179.5l-1.4-0.2c-0.2,0-0.3,0.5-0.3,0.5l0,6l1.8,0.2L154.8,179.5z"/>
							<path class="st17" d="M154.2,180.7l-1.4-0.2c-0.2,0-0.3,0.5-0.3,0.5l0,6l1.8,0.2L154.2,180.7z"/>
							<path class="st17" d="M153.7,181.9l-1.4-0.2c-0.2,0-0.3,0.5-0.3,0.5l0,6l1.8,0.2L153.7,181.9z"/>
							<polyline class="st17" points="155.3,188.9 155.2,189.3 157.1,189.5 157.4,189 							"/>
							<path class="st17" d="M158.7,178.9l-1.4-0.2c-0.2,0-0.3,0.5-0.3,0.5l0,6l1.8,0.2L158.7,178.9z"/>
							<path class="st17" d="M158.2,180l-1.4-0.2c-0.2,0-0.3,0.5-0.3,0.5l0,6l1.8,0.2L158.2,180z"/>
							<path class="st17" d="M157.6,181.2l-1.4-0.2c-0.2,0-0.3,0.5-0.3,0.5l0,6l1.8,0.2L157.6,181.2z"/>
							<path class="st17" d="M157.1,182.5l-1.4-0.2c-0.2,0-0.3,0.5-0.3,0.5l0,6l1.8,0.2L157.1,182.5z"/>
							<polyline class="st17" points="158.4,190.3 158.3,190.7 160.1,190.9 160.5,190.3 							"/>
							<path class="st17" d="M162.9,177.9l-1.4-0.2c-0.2,0-0.3,0.5-0.3,0.5l0,6l1.8,0.2L162.9,177.9z"/>
							<path class="st17" d="M162.4,179.1l-1.4-0.2c-0.2,0-0.3,0.5-0.3,0.5l0,6l1.8,0.2L162.4,179.1z"/>
							<path class="st17" d="M161.8,180.3l-1.4-0.2c-0.2,0-0.3,0.5-0.3,0.5l0,6l1.8,0.2L161.8,180.3z"/>
							<path class="st17" d="M161.2,181.4l-1.4-0.2c-0.2,0-0.3,0.5-0.3,0.5l0,6l1.8,0.2L161.2,181.4z"/>
							<path class="st17" d="M160.7,182.6l-1.4-0.2c-0.2,0-0.3,0.5-0.3,0.5l0,6l1.8,0.2L160.7,182.6z"/>
							<path class="st17" d="M160.2,183.8l-1.4-0.2c-0.2,0-0.3,0.5-0.3,0.5l0,6l1.8,0.2L160.2,183.8z"/>
						</g>
					</g>
				</g>
				<g>
					<g>
					</g>
					<g>
					</g>
					<g>
					</g>
					<g>
					</g>
				</g>
				<g>
					<g>
					</g>
				</g>
				<g>
					<g>
					</g>
				</g>
			</g>
			<g>
				<path class="st17" d="M170.1,178.8l-1.4-0.2c-0.2,0-0.3,0.5-0.3,0.5l0,6l1.8,0.2L170.1,178.8z"/>
				<path class="st17" d="M169.6,180.1l-1.4-0.2c-0.2,0-0.3,0.5-0.3,0.5l0,6l1.8,0.2L169.6,180.1z"/>
				<path class="st17" d="M169,181.2l-1.4-0.2c-0.2,0-0.3,0.5-0.3,0.5l0,6l1.8,0.2L169,181.2z"/>
				<path class="st17" d="M168.4,182.3l-1.4-0.2c-0.2,0-0.3,0.5-0.3,0.5l0,6l1.8,0.2L168.4,182.3z"/>
				<path class="st17" d="M167.9,183.5l-1.4-0.2c-0.2,0-0.3,0.5-0.3,0.5l0,6l1.8,0.2L167.9,183.5z"/>
				<path class="st17" d="M167.4,184.7l-1.4-0.2c-0.2,0-0.3,0.5-0.3,0.5l0,6l1.8,0.2L167.4,184.7z"/>
				<path class="st17" d="M173.6,179.3l-1.4-0.2c-0.2,0-0.3,0.5-0.3,0.5l0,6l1.8,0.2L173.6,179.3z"/>
				<path class="st17" d="M173,180.6l-1.4-0.2c-0.2,0-0.3,0.5-0.3,0.5l0,6l1.8,0.2L173,180.6z"/>
				<path class="st17" d="M172.4,181.7l-1.4-0.2c-0.2,0-0.3,0.5-0.3,0.5l0,6l1.8,0.2L172.4,181.7z"/>
				<path class="st17" d="M171.9,182.8l-1.4-0.2c-0.2,0-0.3,0.5-0.3,0.5l0,6l1.8,0.2L171.9,182.8z"/>
				<path class="st17" d="M171.3,184l-1.4-0.2c-0.2,0-0.3,0.5-0.3,0.5l0,6l1.8,0.2L171.3,184z"/>
				<path class="st17" d="M170.8,185.2l-1.4-0.2c-0.2,0-0.3,0.5-0.3,0.5l0,6l1.8,0.2L170.8,185.2z"/>
				<path class="st17" d="M177,179.8l-1.4-0.2c-0.2,0-0.3,0.5-0.3,0.5l0,6l1.8,0.2L177,179.8z"/>
				<path class="st17" d="M176.5,181l-1.4-0.2c-0.2,0-0.3,0.5-0.3,0.5l0,6l1.8,0.2L176.5,181z"/>
				<path class="st17" d="M175.9,182.2l-1.4-0.2c-0.2,0-0.3,0.5-0.3,0.5l0,6l1.8,0.2L175.9,182.2z"/>
				<path class="st17" d="M175.3,183.3l-1.4-0.2c-0.2,0-0.3,0.5-0.3,0.5l0,6l1.8,0.2L175.3,183.3z"/>
				<path class="st17" d="M174.8,184.5l-1.4-0.2c-0.2,0-0.3,0.5-0.3,0.5l0,6l1.8,0.2L174.8,184.5z"/>
				<path class="st17" d="M174.3,185.7l-1.4-0.2c-0.2,0-0.3,0.5-0.3,0.5l0,6l1.8,0.2L174.3,185.7z"/>
				<path class="st17" d="M180.5,180.3l-1.4-0.2c-0.2,0-0.3,0.5-0.3,0.5l0,6l1.8,0.2L180.5,180.3z"/>
				<path class="st17" d="M179.9,181.5l-1.4-0.2c-0.2,0-0.3,0.5-0.3,0.5l0,6l1.8,0.2L179.9,181.5z"/>
				<path class="st17" d="M179.4,182.7l-1.4-0.2c-0.2,0-0.3,0.5-0.3,0.5l0,6l1.8,0.2L179.4,182.7z"/>
				<path class="st17" d="M178.8,183.8l-1.4-0.2c-0.2,0-0.3,0.5-0.3,0.5l0,6l1.8,0.2L178.8,183.8z"/>
				<path class="st17" d="M178.2,185l-1.4-0.2c-0.2,0-0.3,0.5-0.3,0.5l0,6l1.8,0.2L178.2,185z"/>
				<path class="st17" d="M177.7,186.2l-1.4-0.2c-0.2,0-0.3,0.5-0.3,0.5l0,6l1.8,0.2L177.7,186.2z"/>
				<path class="st17" d="M183.9,180.8l-1.4-0.2c-0.2,0-0.3,0.5-0.3,0.5l0,6l1.8,0.2L183.9,180.8z"/>
				<path class="st17" d="M183.4,182l-1.4-0.2c-0.2,0-0.3,0.5-0.3,0.5l0,6l1.8,0.2L183.4,182z"/>
				<path class="st17" d="M182.8,183.2l-1.4-0.2c-0.2,0-0.3,0.5-0.3,0.5l0,6l1.8,0.2L182.8,183.2z"/>
				<path class="st17" d="M182.2,184.3l-1.4-0.2c-0.2,0-0.3,0.5-0.3,0.5l0,6l1.8,0.2L182.2,184.3z"/>
				<path class="st17" d="M181.7,185.5l-1.4-0.2c-0.2,0-0.3,0.5-0.3,0.5l0,6l1.8,0.2L181.7,185.5z"/>
				<path class="st17" d="M181.2,186.7l-1.4-0.2c-0.2,0-0.3,0.5-0.3,0.5l0,6l1.8,0.2L181.2,186.7z"/>
				<path class="st17" d="M187.4,181.2L186,181c-0.2,0-0.3,0.5-0.3,0.5l0,6l1.8,0.2L187.4,181.2z"/>
				<path class="st17" d="M186.8,182.5l-1.4-0.2c-0.2,0-0.3,0.5-0.3,0.5l0,6l1.8,0.2L186.8,182.5z"/>
				<path class="st17" d="M186.3,183.7l-1.4-0.2c-0.2,0-0.3,0.5-0.3,0.5l0,6l1.8,0.2L186.3,183.7z"/>
				<path class="st17" d="M185.7,184.8l-1.4-0.2c-0.2,0-0.3,0.5-0.3,0.5l0,6l1.8,0.2L185.7,184.8z"/>
				<path class="st17" d="M185.1,186l-1.4-0.2c-0.2,0-0.3,0.5-0.3,0.5l0,6l1.8,0.2L185.1,186z"/>
				<path class="st17" d="M184.6,187.2l-1.4-0.2c-0.2,0-0.3,0.5-0.3,0.5l0,6l1.8,0.2L184.6,187.2z"/>
				<path class="st17" d="M190.8,181.7l-1.4-0.2c-0.2,0-0.3,0.5-0.3,0.5l0,6l1.8,0.2L190.8,181.7z"/>
				<path class="st17" d="M190.3,183l-1.4-0.2c-0.2,0-0.3,0.5-0.3,0.5l0,6l1.8,0.2L190.3,183z"/>
				<path class="st17" d="M189.7,184.2l-1.4-0.2c-0.2,0-0.3,0.5-0.3,0.5l0,6l1.8,0.2L189.7,184.2z"/>
				<path class="st17" d="M189.1,185.3l-1.4-0.2c-0.2,0-0.3,0.5-0.3,0.5l0,6l1.8,0.2L189.1,185.3z"/>
				<path class="st17" d="M188.6,186.5l-1.4-0.2c-0.2,0-0.3,0.5-0.3,0.5l0,6l1.8,0.2L188.6,186.5z"/>
				<path class="st17" d="M188.1,187.7l-1.4-0.2c-0.2,0-0.3,0.5-0.3,0.5l0,6l1.8,0.2L188.1,187.7z"/>
			</g>
			<g>
				<path class="st22" d="M202.3,174.3l-1.7-0.2c-0.3,0-0.4,0.5-0.4,0.5l0,6l2.1,0.2L202.3,174.3z"/>
				<path class="st22" d="M201.7,175.4l-1.7-0.2c-0.3,0-0.4,0.5-0.4,0.5l0,6l2.1,0.2L201.7,175.4z"/>
				<path class="st22" d="M201.2,176.5l-1.7-0.2c-0.3,0-0.4,0.5-0.4,0.5l0,6l2.1,0.2L201.2,176.5z"/>
				<path class="st22" d="M200.5,177.8l-1.7-0.2c-0.3,0-0.4,0.5-0.4,0.5l0,6l2.1,0.2L200.5,177.8z"/>
				<path class="st22" d="M200,179l-1.7-0.2c-0.3,0-0.4,0.5-0.4,0.5l0,6l2.1,0.2L200,179z"/>
			</g>
			<g>
				<path class="st22" d="M198.2,182.6l-1.7-0.2c-0.3,0-0.4,0.5-0.4,0.5l0,6l2.1,0.2L198.2,182.6z"/>
				<path class="st22" d="M197.7,183.7l-1.7-0.2c-0.3,0-0.4,0.5-0.4,0.5l0,6l2.1,0.2L197.7,183.7z"/>
				<path class="st22" d="M197,184.8l-1.7-0.2c-0.3,0-0.4,0.5-0.4,0.5l0,6l2.1,0.2L197,184.8z"/>
				<path class="st22" d="M196.4,185.9l-1.7-0.2c-0.3,0-0.4,0.5-0.4,0.5l0,6l2.1,0.2L196.4,185.9z"/>
				<path class="st22" d="M195.8,187.1l-1.7-0.2c-0.3,0-0.4,0.5-0.4,0.5l0,6l2.1,0.2L195.8,187.1z"/>
			</g>
		</g>
	</g>
</g>
<g id="CallOut">
	<g>
		<g>
			<path class="st23" d="M44.4,217.3l0.5-6.2l-2.5-0.7l0.3-5.7l1-0.5l0-3.4l-2.1,0.6c0,0-0.9-2.3,1.9-3.9l0.4-0.8l0.8-10.3l1.9-1.7
				l0.8,0.2l0.8-0.4l3,0.8l6-7.4l1.6,0.4l1.8-2.9l0.2-2.3l0.9-0.8l-1.4-0.4l0.3-3.2l4.6-6.3l2.3,1.3l8.5-10.9l0.5-6.8l1.5-3l1.4,0.4
				l0.8,0.1l2.8,0.6l2.7-3.7l4.5,1.6l7.7-10.3l8.1,7.6l-5,7.3l4.2,1.5l-1.9,25.1l-4.5,6.2l0.1,2.5l-1.7,1.6l-0.1-2.1l-15.7,21
				l-0.2,2.2l-1.3,2.5l-2.2-0.6l-2.8,2.7l-0.1,1.4l-6,7.9l-0.2,3l-1.6,1.8l-1.6-0.4l-1.4,1.6l-3.9-1.3l0-1.9l-5.6-1.9l-0.2-2.9
				l-1.8-0.8l0.1-1.4l-3.4-1.5l-0.6,6L44.4,217.3z"/>
		</g>
		<g>
			<path class="st1" d="M43.6,200.2l3,2.8l-2.1,3c0.5,1.7,2.1,1,2.1,1s0.8-2.3,1.9-1.2s1.9,0.8,1.9,0.8l10.2-9.5
				c0,0,3.8-3.6,5.4-5.7c1.6-2.2,40.1-52.2,40.1-52.2l-8.4-7.3l-42.3,54.2c0,0-2.4,2.7-3.4,3.6c-1,0.8-10.2,9.1-10.2,9.1
				s-1.6,1.3-0.1,2.6L43.6,200.2z"/>
			<line class="st24" x1="81" y1="153.8" x2="89.2" y2="160.9"/>
			<line class="st24" x1="72.5" y1="164.5" x2="80.8" y2="171.7"/>
			<polyline class="st1" points="100.8,146.3 104.2,147.6 97.8,155.8 94.5,154.5 			"/>
			<path class="st1" d="M59.9,198.5l5.9,1.8L76.7,186l-1.3-1.7l7.5-9.5l-1.8-0.7c0,0-0.7-0.3-0.2-1c0.5-0.7,1.9-2.2,1.9-2.2
				s0.3-0.4,1.1-0.3l1.8,0.7l9.4-12l-3.4-1.3"/>
			<path class="st1" d="M74.9,208.9l4.7-5.2l0,3.3l1.3-2.2l0.1-2.5l16.1-21.3l0.1,2.7l1.3-2.1l0.2-2.6l4.5-6.3l2-24.3l-18.5,24.3
				c0,0,0-0.8-1-1.3"/>
			<polyline class="st1" points="48.2,192.6 46,191.8 56.9,177.8 58.5,178.3 62.4,173.5 60.8,173 80.8,147 84.5,148.4 			"/>
			<polyline class="st1" points="60,179.6 58.1,178.9 47.8,192.4 			"/>
			<polyline class="st1" points="61,197.1 65.1,198.6 75.2,185.3 71.9,184 			"/>
			<g>
				<polyline class="st1" points="83.5,150.1 80.4,149 77.6,152.6 80.2,153.5 				"/>
				<line class="st1" x1="79.7" y1="153.3" x2="80" y2="149.3"/>
			</g>
			<g>
				<polyline class="st1" points="67.7,170.3 64.6,169.2 61.8,172.8 64.4,173.7 				"/>
				<line class="st1" x1="63.9" y1="173.5" x2="64.3" y2="169.5"/>
			</g>
			<polyline class="st1" points="89.9,141.9 85.5,140.3 82.8,144.3 80,143.2 79.6,143.9 78.1,143.2 76.5,145.6 75.8,152.9 			"/>
			<polyline class="st1" points="67.7,163.8 64.9,162.7 60.3,168.8 60,171.6 61.3,171.9 			"/>
			<line class="st1" x1="49.1" y1="212.7" x2="60.3" y2="216.9"/>
			<polyline class="st1" points="43.7,200.4 43.5,203.9 42.8,204.6 42.5,210.2 44.8,211 			"/>
			<polyline class="st1" points="50.8,185.2 48.2,184.1 47.6,184.9 46.5,184.5 44.6,186.4 43.9,196.8 			"/>
			<polyline class="st1" points="65.8,200.4 63.7,224.5 66.7,220.5 74.6,210.3 76.7,186 			"/>
			<polyline class="st1" points="66.7,220.5 66.6,223.3 65.1,222.8 			"/>
			<polyline class="st1" points="68.6,218.3 68.3,221.4 66.6,223.3 			"/>
			<path class="st1" d="M44.9,207l-0.7,10.2l4.1,1.6l1.1-9.9c0,0,0.4-3.2,6.1-1.2c5.6,1.9,5.1,7,5.1,7l-0.7,8.4l3.8,1.5"/>
			<line class="st1" x1="45.2" y1="201.9" x2="45" y2="204.7"/>
			<line class="st1" x1="49.2" y1="211.7" x2="60.5" y2="216"/>
			<path class="st1" d="M52.3,213.9l0,1.5c0,0,0.6,0.6,1.9,1l-0.1,2.6l5.8,2"/>
			<path class="st1" d="M52.6,202.2c-0.1,1.1-1.3,1.7-2.7,1.3c-1.4-0.4-2.5-1.6-2.4-2.7c0.1-1.1,1.3-1.7,2.7-1.3
				C51.6,199.9,52.7,201.1,52.6,202.2z"/>
			<line class="st25" x1="50.2" y1="200.3" x2="50" y2="202.8"/>
			<line class="st25" x1="51.5" y1="202.2" x2="48.5" y2="201"/>
			<path class="st1" d="M79.1,179.7c0,0,1.4,0.2,1.3,1.6c-0.1,1.4-1.7,23.5-1.7,23.5"/>
			<polyline class="st1" points="79.6,207 77.8,206.5 77.9,205.7 			"/>
			<polyline class="st1" points="79,180 78,191.7 76,194.1 			"/>
			<polyline class="st1" points="75.8,197 79.5,192.3 78,191.7 			"/>
			<path class="st1" d="M82.1,186.3c0,0,3.5,1.3,4.5,1.7c0.6,0.2,1,0.2,1.2,0.1C87.9,188,88,188,88,188s5.2-6.7,5.5-7.2
				c0.3-0.5-0.2-0.7-0.2-0.7L88,178l-6.3,8.1l-0.4,3.7l1.4,0.5l4.4-0.6c0,0,0.6-0.5,0.6-1.6"/>
			<polyline class="st1" points="92.8,182.2 93.4,182 93.6,180.5 			"/>
			<path class="st1" d="M81.2,174.2l1.6-1.9c0,0,0.2-0.6,1.1-0.3c0.9,0.3,1.2,0.5,1.2,0.5l-0.2,2.9l-0.5,0.6"/>
			<path class="st1" d="M80.5,181.2l3.8-4.8l0.1-0.1c0,0-0.3-1.4-1.5-1.5"/>
			<line class="st1" x1="83.9" y1="183.1" x2="84.4" y2="176.3"/>
			<line class="st1" x1="86.6" y1="172.9" x2="86.3" y2="179.8"/>
			<path class="st1" d="M54.2,203.5l10.9,4c0,0-1.2,1.1-1.2,4.4l-1.3-0.3l-0.1-2.1l-9.3-3.7l-0.9,0.6l-1.1-0.8"/>
			<polyline class="st1" points="95.7,158.4 93.8,157.7 93.8,155.6 95.9,156.4 95.9,158.8 95.3,159.4 			"/>
			<line class="st1" x1="93.1" y1="158.5" x2="93.8" y2="157.7"/>
			<polyline class="st1" points="104.2,159.5 105.3,158 105.6,154.7 104.8,154.3 			"/>
			<line class="st1" x1="104.7" y1="156" x2="105.5" y2="155"/>
			<polyline class="st1" points="80.3,147.4 78.5,146.6 80.6,144.2 82.8,145 83.3,144.6 83.9,145 86.6,141.6 89.3,142.5 			"/>
			<polyline class="st1" points="76.5,145.6 77.6,146 77.2,146.9 80.1,148.1 			"/>
			<line class="st1" x1="77.2" y1="147.3" x2="76.7" y2="151.8"/>
			<line class="st1" x1="83.9" y1="145" x2="83.8" y2="147.8"/>
			<line class="st1" x1="86.6" y1="141.8" x2="86.2" y2="146.5"/>
			<line class="st1" x1="80.6" y1="144.2" x2="80.5" y2="147.2"/>
			<polyline class="st1" points="95.8,152.7 97.7,153.4 98,153.1 99.2,153.5 			"/>
			<line class="st1" x1="63.1" y1="169.8" x2="60.3" y2="168.8"/>
			<polyline class="st1" points="48.1,188.9 45.5,188 46.2,187.1 44.6,186.4 			"/>
			<line class="st1" x1="45.6" y1="188.4" x2="44.9" y2="195.8"/>
			<polyline class="st1" points="50.5,185.8 49,185.2 47,187.7 48.5,188.3 			"/>
			<line class="st1" x1="60.5" y1="175.5" x2="60.8" y2="173"/>
			<line class="st1" x1="78.9" y1="174.7" x2="81.9" y2="175.8"/>
			<line class="st1" x1="76.3" y1="178.2" x2="79.1" y2="179.3"/>
		</g>
	</g>
	<g id="LINE_118_">
		<line class="st26" x1="144.9" y1="45.5" x2="144.8" y2="45.6"/>
	</g>
	<g>
		<g>
			<circle class="st27" cx="166.8" cy="96.6" r="37.4"/>
			<g>
				<defs>
					<circle id="SVGID_3_" cx="166.9" cy="96.8" r="36.8"/>
				</defs>
				<clipPath id="SVGID_4_">
					<use xlink:href="#SVGID_3_"  style="overflow:visible;"/>
				</clipPath>
				<g id="LINE_117_" class="st28">
					<line class="st26" x1="184.6" y1="108.8" x2="184.6" y2="108.5"/>
				</g>
				<g id="ELLIPSE_10_" class="st28">
					<path class="st26" d="M184.6,108.8c0,0.6,0.1,1,0.2,1"/>
				</g>
				<g id="ELLIPSE_9_" class="st28">
					<path class="st26" d="M187.9,108.8c0,0.9,0.2,1.2,0.4,0.7"/>
				</g>
				<g id="LINE_116_" class="st28">
					<line class="st26" x1="139.1" y1="129.7" x2="139.3" y2="131.2"/>
				</g>
				<g id="LINE_115_" class="st28">
					<line class="st26" x1="155.5" y1="96.8" x2="155.6" y2="98.7"/>
				</g>
				<g id="LINE_114_" class="st28">
					<line class="st26" x1="147.5" y1="115" x2="147.4" y2="113"/>
				</g>
				<g id="LINE_113_" class="st28">
					<line class="st26" x1="155.6" y1="98.7" x2="155.6" y2="99.3"/>
				</g>
				<g id="LINE_112_" class="st28">
					<line class="st26" x1="147.5" y1="115" x2="147.5" y2="115.2"/>
				</g>
				<g id="LINE_111_" class="st28">
					<line class="st26" x1="163.6" y1="111" x2="163.6" y2="132"/>
				</g>
				<g id="LINE_110_" class="st28">
					<line class="st26" x1="166.6" y1="131.9" x2="166.6" y2="130.1"/>
				</g>
				<g id="LINE_109_" class="st28">
					<line class="st26" x1="157.6" y1="87.2" x2="157.6" y2="93.5"/>
				</g>
				<g id="LINE_108_" class="st28">
					<line class="st26" x1="161.1" y1="87.7" x2="161.1" y2="88.4"/>
				</g>
				<g id="LINE_107_" class="st28">
					<line class="st26" x1="135.3" y1="129.6" x2="135.3" y2="129.8"/>
				</g>
				<g id="LINE_106_" class="st28">
					<line class="st26" x1="179" y1="103.4" x2="179" y2="106.9"/>
				</g>
				<g id="LINE_105_" class="st28">
					<line class="st26" x1="191.4" y1="101.9" x2="191.4" y2="94.9"/>
				</g>
				<g id="LINE_104_" class="st28">
					<line class="st26" x1="200.8" y1="63.4" x2="200.8" y2="75.4"/>
				</g>
				<g id="LINE_103_" class="st28">
					<line class="st26" x1="187.9" y1="108.8" x2="187.9" y2="101.8"/>
				</g>
				<g id="LINE_102_" class="st28">
					<line class="st26" x1="163.6" y1="132" x2="163.6" y2="132.1"/>
				</g>
				<g id="LINE_101_" class="st28">
					<line class="st26" x1="178.9" y1="103.4" x2="179" y2="103.1"/>
				</g>
				<g id="LINE_100_" class="st28">
					<line class="st26" x1="179" y1="106.9" x2="178.9" y2="107.1"/>
				</g>
				<g id="LINE_96_" class="st28">
					<line class="st26" x1="143.8" y1="111.2" x2="135.4" y2="128"/>
				</g>
				<g id="LINE_88_" class="st28">
					<line class="st26" x1="134.3" y1="131.8" x2="131.9" y2="136.6"/>
					<line class="st26" x1="135.3" y1="129.8" x2="134.3" y2="131.8"/>
				</g>
				<g id="LINE_86_" class="st28">
					<line class="st26" x1="151.7" y1="99.2" x2="146.1" y2="110.3"/>
				</g>
				<g id="LINE_85_" class="st28">
					<line class="st26" x1="145.9" y1="111.5" x2="154" y2="95.3"/>
				</g>
				<g id="LINE_84_" class="st28">
					<line class="st26" x1="141.8" y1="126.1" x2="138.2" y2="133.5"/>
				</g>
				<g id="LINE_82_" class="st28">
					<line class="st26" x1="197.8" y1="63.4" x2="182" y2="95.2"/>
				</g>
				<g id="LINE_78_" class="st28">
					<line class="st26" x1="182" y1="95.2" x2="163.6" y2="132.1"/>
				</g>
				<g id="LINE_73_" class="st28">
					<line class="st26" x1="163.6" y1="132.1" x2="162.9" y2="133.5"/>
				</g>
				<g id="LINE_68_" class="st28">
					<line class="st26" x1="166.6" y1="130.1" x2="177.6" y2="107.9"/>
				</g>
				<g id="LINE_66_" class="st28">
					<line class="st26" x1="166.5" y1="132.1" x2="166.6" y2="131.9"/>
				</g>
				<g id="LINE_65_" class="st28">
					<line class="st26" x1="178.8" y1="107.4" x2="178.9" y2="107.1"/>
				</g>
				<g id="LINE_64_" class="st28">
					<line class="st26" x1="171.9" y1="133.9" x2="187.9" y2="101.8"/>
				</g>
				<g id="LINE_63_" class="st28">
					<line class="st26" x1="191.4" y1="94.9" x2="200.7" y2="76.2"/>
				</g>
				<g id="LINE_62_" class="st28">
					<line class="st26" x1="188.3" y1="109.5" x2="190.9" y2="104.4"/>
				</g>
				<g id="LINE_61_" class="st28">
					<line class="st26" x1="137.6" y1="128.2" x2="139.1" y2="129.7"/>
				</g>
				<g id="LINE_51_" class="st28">
					<line class="st26" x1="154" y1="95.3" x2="155.5" y2="96.8"/>
				</g>
				<g id="LINE_49_" class="st28">
					<line class="st26" x1="147.4" y1="113" x2="145.9" y2="111.5"/>
				</g>
				<g id="LINE_47_" class="st28">
					<line class="st26" x1="177.6" y1="107.9" x2="178.8" y2="107.4"/>
				</g>
				<g id="LINE_44_" class="st28">
					<line class="st26" x1="162.2" y1="134.8" x2="164.3" y2="133.8"/>
				</g>
				<g id="LINE_43_" class="st28">
					<line class="st26" x1="137.6" y1="128.2" x2="135.4" y2="128"/>
				</g>
				<g id="LINE_42_" class="st28">
					<line class="st26" x1="184.8" y1="109.7" x2="188.1" y2="109.8"/>
				</g>
				<g id="LINE_41_" class="st28">
					<line class="st26" x1="145.9" y1="111.5" x2="143.8" y2="111.2"/>
				</g>
				<g id="LINE_40_" class="st28">
					<line class="st26" x1="146.1" y1="110.3" x2="134.3" y2="108.8"/>
				</g>
				<g id="LINE_39_" class="st28">
					<line class="st26" x1="198.3" y1="80.9" x2="203" y2="81.5"/>
				</g>
				<g id="LINE_38_" class="st28">
					<line class="st26" x1="157.8" y1="95" x2="157.9" y2="94.9"/>
				</g>
				<g id="LINE_37_" class="st28">
					<line class="st26" x1="157.9" y1="94.9" x2="157.9" y2="94.9"/>
				</g>
				<g id="LINE_36_" class="st28">
					<line class="st26" x1="157.9" y1="94.9" x2="158.1" y2="94.4"/>
				</g>
				<g id="LINE_35_" class="st28">
					<line class="st26" x1="158.1" y1="94.4" x2="158.5" y2="93.8"/>
				</g>
				<g id="LINE_32_" class="st28">
					<line class="st26" x1="158.5" y1="93.8" x2="159.1" y2="92.5"/>
				</g>
				<g id="LINE_28_" class="st28">
					<line class="st26" x1="159.1" y1="92.5" x2="159.2" y2="92.2"/>
				</g>
				<g id="ELLIPSE_8_" class="st28">
					<path class="st26" d="M203,81.5c0.6,0.1,1.2-0.1,1.3-0.4"/>
				</g>
				<g id="ELLIPSE_7_" class="st28">
					<path class="st26" d="M179,103.1c0-0.2-0.3-0.6-0.6-0.7"/>
				</g>
				<g id="ELLIPSE_6_" class="st28">
					<path class="st26" d="M200.7,76.2c0.1-0.1,0.1-0.5,0.1-0.8"/>
				</g>
				<g id="ELLIPSE_5_" class="st28">
					<path class="st26" d="M190.9,104.4c0.3-0.5,0.4-1.6,0.4-2.5"/>
				</g>
				<g id="ELLIPSE_4_" class="st28">
					<path class="st26" d="M165.3,133.2c0.6-0.4,1-0.8,1.2-1.2"/>
				</g>
				<g id="ELLIPSE_3_" class="st28">
					<path class="st26" d="M135.3,129.6c0-0.2-0.3-0.4-0.7-0.4"/>
				</g>
				<g id="LINE_27_" class="st28">
					<line class="st26" x1="162.7" y1="110.1" x2="162.7" y2="110.1"/>
				</g>
				<g id="LINE_26_" class="st28">
					<line class="st26" x1="150.9" y1="108.7" x2="162.7" y2="110.1"/>
				</g>
				<g id="ELLIPSE_1_" class="st28">
					<path class="st26" d="M163.6,111c0-0.5-0.4-0.9-0.9-0.9"/>
				</g>
				<g id="LINE_25_" class="st28">
					<line class="st26" x1="151.4" y1="108.2" x2="151.4" y2="107.7"/>
				</g>
				<g id="ARC_6_" class="st28">
					<path class="st26" d="M141.8,126.1c1.4-2.8,4.3-8.3,5.8-11"/>
				</g>
				<g id="ARC_2_" class="st28">
					<path class="st26" d="M151.4,107.7c0.8-1.5,2.3-4.5,3-6"/>
				</g>
				<g id="ARC_1_" class="st28">
					<path class="st26" d="M155.9,98.8c0.5-0.9,1.4-2.8,1.9-3.8"/>
				</g>
				<g id="LINE_23_" class="st28">
					<line class="st26" x1="154.4" y1="101.7" x2="155.9" y2="98.8"/>
				</g>
				<g id="LINE_16_" class="st28">
					<line class="st26" x1="147.6" y1="115.1" x2="147.6" y2="115"/>
				</g>
				<g id="LINE_13_" class="st28">
					<line class="st26" x1="147.6" y1="115" x2="147.9" y2="114.5"/>
				</g>
				<g id="LINE_12_" class="st28">
					<line class="st26" x1="147.9" y1="114.5" x2="150.7" y2="109"/>
				</g>
				<g id="LINE_9_" class="st28">
					<line class="st26" x1="150.7" y1="109" x2="150.9" y2="108.7"/>
				</g>
				<g id="LINE_2_" class="st28">
					<line class="st26" x1="151.1" y1="108.7" x2="151.2" y2="108.5"/>
				</g>
				<g id="LINE_1_" class="st28">
					<line class="st26" x1="151.2" y1="108.5" x2="151.4" y2="108.2"/>
				</g>
				<line class="st29" x1="174.2" y1="61.1" x2="138.1" y2="133.6"/>
				<line class="st29" x1="197.8" y1="63.2" x2="163" y2="133.7"/>
				<path class="st29" d="M150.9,108.7l10.6,1.4c0,0,2.5-0.5,1.9,4.5l0.2,17.1"/>
				<path class="st29" d="M169.5,71.8l10.7,1.2c0,0,2.2-0.2,1.8,3.3l0.1,17.9"/>
				<path class="st29" d="M161.1,87.4v-1.5l-1.4-1.7l-5.9-0.8c0,0-2.2-0.5-3,1.7c-0.7,2.1-3.9,7.9-3.9,7.9s-0.9,1.2,1.4,1.8
					c2.4,0.6,5.4,0.8,5.4,0.8l1.3,1.2l0.7,1.5"/>
				<polyline class="st29" points="147.5,114.2 147.5,113.3 146,111.5 144,111.3 135.4,127.8 137.8,128 139.4,130.2 				"/>
				<line class="st29" x1="146" y1="111.4" x2="153.8" y2="95.6"/>
				<polyline class="st29" points="132.4,108.2 137.7,97.5 151.9,99.1 				"/>
				<line class="st29" x1="146.3" y1="110.3" x2="132.6" y2="108.9"/>
				<path class="st29" d="M157.8,94.3l-0.4-7.1l-3.9-0.5c0,0-1.4-0.8-3,2.2c-1.5,3.1-2.7,5.4-2.7,5.4"/>
				<path class="st30" d="M200.7,63.3l0.2,12.5l-9.7,18.7l0.1,6.7c0,0,0,1.9-1.1,4.3c-1.1,2.4-2,4.5-2,4.5l-0.4-7.9L172,133.9"/>
				<path class="st29" d="M178.9,101.9v5.5l-1.3,0.6l-10.9,22.1v1.9c0,0-3,2.2-4.8,3"/>
				<line class="st29" x1="188.3" y1="110" x2="184.2" y2="109.7"/>
				<path class="st29" d="M198.7,81l3.4,0.4c0,0,1.9,0.5,3-1.3s2-4.3,2-4.3l0.2-12.9"/>
				<polyline class="st31" points="168.4,102.8 169.3,103.4 178,86.1 176.9,85.2 				"/>
				<polyline class="st31" points="168.4,105.3 169.3,105.8 178,88.6 176.9,87.7 				"/>
				<polyline class="st31" points="168.4,107.7 169.3,108.3 178,91.1 176.9,90.1 				"/>
				<polyline class="st31" points="168.4,110.2 169.3,110.8 178,93.6 176.9,92.6 				"/>
				<polyline class="st31" points="168.4,112.7 169.3,113.3 178,96 176.9,95.1 				"/>
				<polygon class="st28" points="163,90.5 169.5,93.6 171.7,88.8 				"/>
				<path class="st32" d="M134.7,129c0,0,0.7,0,0.7,0.7c0,0.7-3.5,7.1-3.5,7.1"/>
				<use xlink:href="#SVGID_3_"  style="overflow:visible;fill:none;stroke:#000000;stroke-width:1.5;stroke-miterlimit:10;"/>
			</g>
			<g>
				<polygon class="st33" points="174.4,100.9 177.1,114 179.5,107.9 194.1,112.4 198.6,103 184,98.5 187.1,92.6 				"/>
			</g>
		</g>
	</g>
	<g>
		<g>
			<g>
				<polygon class="st34" points="54.1,126.9 59.2,132.3 56.7,131.9 56.8,140.4 51.8,139.5 51.7,131 49.2,130.5 				"/>
			</g>
			<g>
				<polygon class="st35" points="54.1,126.9 59.2,132.3 56.7,131.9 56.8,140.4 51.8,139.5 51.7,131 49.2,130.5 				"/>
			</g>
		</g>
		<g>
			<g>
				<polygon class="st34" points="54.2,154.2 49.2,148.8 51.7,149.2 51.6,140.7 56.6,141.6 56.7,150.1 59.2,150.6 				"/>
			</g>
			<g>
				<polygon class="st35" points="54.2,154.2 49.2,148.8 51.7,149.2 51.6,140.7 56.6,141.6 56.7,150.1 59.2,150.6 				"/>
			</g>
		</g>
	</g>
	<g>
		<g>
			<g>
				<polygon class="st34" points="75.9,225.8 72,221.7 73.9,222.1 73.9,215.6 77.6,216.3 77.7,222.7 79.6,223.1 				"/>
			</g>
			<g>
				<polygon class="st35" points="75.9,225.8 72,221.7 73.9,222.1 73.9,215.6 77.6,216.3 77.7,222.7 79.6,223.1 				"/>
			</g>
		</g>
	</g>
	<g>
		<line class="st36" x1="136.7" y1="122.2" x2="79.8" y2="163.5"/>
		<line class="st37" x1="136.7" y1="122.2" x2="79.8" y2="163.5"/>
	</g>
	<g>
		<circle class="st38" cx="63.7" cy="173.4" r="8.2"/>
		<text transform="matrix(1 0 0 1 60.4715 177.1958)" class="st27 st39 st40">2</text>
	</g>
	<g>
		<path class="st1" d="M7.7,143.1l2.9,2.1l-1.7,3.7c0.6,1.7,2,0.5,2,0.5s0.6-2.6,1.6-1.8c1.1,0.8,1.8,0.3,1.8,0.3l8.6-12.7
			c0,0,3.3-4.8,4.5-7.5c1.3-2.7,32.8-65.8,32.8-65.8l-8.2-5.4l-34.7,68.5c0,0-2,3.5-2.8,4.7S6,141.9,6,141.9s-1.3,1.8,0.1,2.8
			L7.7,143.1z"/>
		<line class="st24" x1="38.5" y1="84" x2="46.5" y2="89.2"/>
		<line class="st24" x1="31.5" y1="97.6" x2="39.6" y2="102.8"/>
		<polyline class="st1" points="56,70.7 59.3,71.1 54,81.5 50.9,81 		"/>
		<path class="st1" d="M22.5,136.8l5.5,0.3l8.9-18.1l-1.3-1.4l6.1-12l-1.7-0.2c0,0-0.7-0.1-0.2-1c0.4-0.9,1.6-2.9,1.6-2.9
			s0.3-0.5,1-0.6l1.7,0.2l7.8-15.2l-3.3-0.4"/>
		<path class="st1" d="M37,143.6l3.9-6.8l0.2,3.4l1.1-2.7l-0.1-2.7l13.2-26.8l0.3,2.8l1.1-2.5v-2.8l3.6-7.9V71.7L45,102.3
			c0,0-0.1-0.8-1.1-1.1"/>
		<polyline class="st1" points="11.4,133.8 9.3,133.6 18.2,115.8 19.7,116 22.9,109.9 21.4,109.7 37.8,76.9 41.3,77.3 		"/>
		<polyline class="st1" points="21.2,116.9 19.3,116.7 11,133.7 		"/>
		<polyline class="st1" points="23.4,135 27.2,135.4 35.5,118.7 32.4,118.2 		"/>
		<g>
			<polyline class="st1" points="40.5,79.4 37.6,79.1 35.3,83.7 37.7,83.9 			"/>
			<line class="st1" x1="37.3" y1="83.8" x2="37.3" y2="79.5"/>
		</g>
		<g>
			<polyline class="st1" points="27.5,105 24.7,104.7 22.3,109.3 24.8,109.5 			"/>
			<line class="st1" x1="24.3" y1="109.4" x2="24.3" y2="105.1"/>
		</g>
		<polyline class="st1" points="45.7,69 41.6,68.6 39.4,73.5 36.8,73.2 36.4,74 35.1,73.7 33.8,76.6 33.7,84.4 		"/>
		<polyline class="st1" points="27.1,98.1 24.4,97.8 20.6,105.5 20.6,108.4 21.8,108.4 		"/>
		<line class="st1" x1="13.6" y1="154.6" x2="24.2" y2="156"/>
		<polyline class="st1" points="7.8,143.3 7.9,146.9 7.3,147.9 7.5,153.8 9.6,154.1 		"/>
		<polyline class="st1" points="13.2,125.3 10.7,124.9 10.2,125.8 9.2,125.7 7.6,128.3 7.8,139.4 		"/>
		<polyline class="st1" points="28,137.1 27.8,163 30.4,158 36.8,145.2 36.9,119 		"/>
		<polyline class="st1" points="30.4,158 30.5,161 29,160.9 		"/>
		<polyline class="st1" points="31.9,155.1 31.9,158.5 30.5,161 		"/>
		<path class="st1" d="M9.4,149.8l0.1,10.9l3.9,0.6l0.3-10.8c0,0,0.1-3.5,5.5-3c5.3,0.5,5.2,5.9,5.2,5.9l-0.1,9l3.6,0.6"/>
		<line class="st1" x1="9.3" y1="144.4" x2="9.3" y2="147.4"/>
		<line class="st1" x1="13.7" y1="153.6" x2="24.3" y2="155"/>
		<path class="st1" d="M16.7,155.1l0.1,1.6c0,0,0.6,0.4,1.8,0.5l0.1,2.8l5.5,0.5"/>
		<ellipse class="st1" cx="13.7" cy="142.7" rx="2.4" ry="2.2"/>
		<line class="st25" x1="13.8" y1="141.3" x2="13.8" y2="144"/>
		<line class="st25" x1="15.1" y1="143" x2="12.3" y2="142.5"/>
		<path class="st1" d="M38.7,111.8c0,0,1.3-0.1,1.3,1.3s0.1,25.1,0.1,25.1"/>
		<polyline class="st1" points="41.1,140.3 39.5,140.3 39.5,139.4 		"/>
		<polyline class="st1" points="38.6,112.1 38.5,124.6 36.9,127.7 		"/>
		<polyline class="st1" points="36.9,130.8 39.9,124.9 38.5,124.6 		"/>
		<path class="st1" d="M41.9,117.8c0,0,3.3,0.5,4.2,0.6c0.6,0.1,0.9-0.1,1.1-0.2c0.1-0.1,0.2-0.2,0.2-0.2s4.3-8.5,4.5-9.1
			c0.2-0.6-0.2-0.6-0.2-0.6l-5-0.8l-5.1,10.3l-0.1,4l1.3,0.1l4-1.9c0,0,0.5-0.7,0.5-1.9"/>
		<polyline class="st1" points="51.4,110.6 51.9,110.2 52,108.6 		"/>
		<path class="st1" d="M40.2,105.3l1.3-2.4c0,0,0.2-0.7,1-0.6c0.8,0.1,1.1,0.2,1.1,0.2l0.1,3.1l-0.4,0.7"/>
		<path class="st1" d="M40.1,112.9l3.1-6.1l0-0.1c0,0-0.4-1.3-1.5-1.2"/>
		<line class="st1" x1="43.3" y1="114" x2="43.2" y2="106.7"/>
		<line class="st1" x1="45" y1="102.5" x2="45.3" y2="109.9"/>
		<path class="st1" d="M17.7,143.6l10.3,1.2c0,0-1.1,1.5-0.7,5H26l-0.2-2.2l-8.8-1.3l-0.7,0.8l-1.1-0.5"/>
		<polyline class="st1" points="52.3,84.7 50.5,84.5 50.4,82.4 52.3,82.7 52.5,85.1 51.9,85.9 		"/>
		<line class="st1" x1="49.9" y1="85.6" x2="50.5" y2="84.5"/>
		<polyline class="st1" points="60.1,83.6 61,81.7 61,78.2 60.3,78 		"/>
		<line class="st1" x1="60.3" y1="79.8" x2="61" y2="78.5"/>
		<polyline class="st1" points="37.4,77.4 35.6,77.2 37.4,74 39.5,74.3 39.9,73.7 40.5,73.9 42.7,69.6 45.3,69.9 		"/>
		<polyline class="st1" points="33.8,76.6 34.8,76.8 34.5,77.8 37.2,78.2 		"/>
		<line class="st1" x1="34.5" y1="78.2" x2="34.4" y2="83.1"/>
		<line class="st1" x1="40.5" y1="73.9" x2="40.6" y2="76.9"/>
		<line class="st1" x1="42.8" y1="69.9" x2="42.7" y2="74.9"/>
		<line class="st1" x1="37.4" y1="74" x2="37.6" y2="77.2"/>
		<polyline class="st1" points="52,78.8 53.7,79 54,78.6 55.1,78.7 		"/>
		<line class="st1" x1="23.3" y1="105.8" x2="20.6" y2="105.5"/>
		<polyline class="st1" points="11,129.9 8.6,129.7 9.1,128.6 7.6,128.3 		"/>
		<line class="st1" x1="8.6" y1="130.1" x2="8.5" y2="138.1"/>
		<polyline class="st1" points="12.9,126.1 11.5,125.8 9.9,128.9 11.3,129.1 		"/>
		<line class="st1" x1="21.3" y1="112.5" x2="21.4" y2="109.7"/>
		<line class="st1" x1="38.1" y1="106.5" x2="41" y2="106.9"/>
		<line class="st1" x1="36" y1="110.9" x2="38.7" y2="111.3"/>
	</g>
	<g>
		<g>
			<path class="st27" d="M53.5,180.9l2.6-1.6l-11.9,0.1l2.4,6l2.4-1.7c7.3,2.4,8.4,8.7,8.4,8.7l5.2-1.9c0,0-0.8-5.1-6.2-8.2
				L53.5,180.9z"/>
		</g>
		<g>
			<path class="st41" d="M53.9,180.4l2.6-1.6l-11.9,0.1l2.4,6l2.4-1.7c7.3,2.4,8.4,8.7,8.4,8.7L63,190c0,0-0.8-5.1-6.2-8.2
				L53.9,180.4z"/>
		</g>
	</g>
	<g>
		<circle class="st38" cx="130.4" cy="103.4" r="8.2"/>
		<text transform="matrix(1 0 0 1 127.2391 107.1924)" class="st27 st39 st40">1</text>
	</g>
</g>
</svg>
