<?xml version="1.0" encoding="utf-8"?>
<!-- Generator: Adobe Illustrator 19.1.0, SVG Export Plug-In . SVG Version: 6.00 Build 0)  -->
<svg version="1.1" xmlns="http://www.w3.org/2000/svg" xmlns:xlink="http://www.w3.org/1999/xlink" x="0px" y="0px" width="288px"
	 height="288px" viewBox="0 0 288 288" style="enable-background:new 0 0 288 288;" xml:space="preserve">
<style type="text/css">
	.st0{fill:#BCBEC0;}
	.st1{fill:none;stroke:#000000;stroke-width:0.4;stroke-linecap:round;stroke-linejoin:round;stroke-miterlimit:10;}
	.st2{fill:#FFFFFF;stroke:#000000;stroke-width:0.4;stroke-linecap:round;stroke-linejoin:round;stroke-miterlimit:10;}
	.st3{fill:none;stroke:#000000;stroke-width:0.4;stroke-linecap:round;stroke-linejoin:round;}
	.st4{fill:#FFFFFF;stroke:#000000;stroke-width:0.4;stroke-linecap:round;stroke-linejoin:round;}
	.st5{stroke:#000000;stroke-width:0.25;stroke-linecap:round;stroke-linejoin:round;}
	.st6{fill:none;stroke:#000000;stroke-width:0.3137;stroke-linecap:round;stroke-linejoin:round;stroke-miterlimit:10;}
	.st7{fill:#EC008C;stroke:#000000;stroke-width:0.25;stroke-linecap:round;stroke-linejoin:round;}
	.st8{fill:none;stroke:#000000;stroke-width:0.4614;stroke-linecap:round;stroke-linejoin:round;stroke-miterlimit:10;}
	.st9{fill:none;stroke:#000000;stroke-width:0.4427;stroke-linecap:round;stroke-linejoin:round;stroke-miterlimit:10;}
	.st10{fill:none;stroke:#000000;stroke-width:1.5282;stroke-linecap:round;stroke-linejoin:round;stroke-miterlimit:10;}
	.st11{fill:none;stroke:#000000;stroke-width:0.382;stroke-linecap:round;stroke-linejoin:round;stroke-miterlimit:10;}
	.st12{fill:#2E2A25;}
	.st13{fill:none;stroke:#FFFFFF;stroke-width:0.5;stroke-miterlimit:10;}
	.st14{fill:none;stroke:#FFFFFF;stroke-width:2;stroke-linecap:round;stroke-linejoin:round;stroke-miterlimit:10;}
	.st15{fill:none;stroke:#000000;stroke-width:0.5;stroke-linecap:round;stroke-linejoin:round;stroke-miterlimit:10;}
</style>
<g id="GRAY">
	<path class="st0" d="M106,75c-1,1.2-2.1,6.3-2.1,6.3l-2.2-0.1l-0.4,0.4l0.2,2.8c0,0-0.6,12.6,0.2,15.1l5.1,0.8l0.8-1.3l-0.1-0.9
		l4.6-8.2l0.2,0.4l0.6-1v-0.4l-0.2-8.7l-0.4-8.4l-4.7-1.1c0,0-1.2,0.4-0.8,3.5L106,75z"/>
</g>
<g id="More_Simple">
	<g>
		<g>
			<path class="st1" d="M29.1,191.1l-0.1-2.8c0-0.1,0.1-0.2,0.2-0.3c0.3-0.3,0.8-0.4,0.8-0.4l2.3,0.4c0.7,0.2,0.9,1.2,0.9,1.2l0.2,2
				c0.2,0,0.6-0.4,0.6-0.4s3.9-6.9,4.1-7.2c0.2-0.3,0.5-2,0.5-2s0.1-1.2,0-1.9c-0.1-0.7-1.2-1-1.2-1s-1.3-0.2-1.8-0.3
				c-0.5-0.1-0.9,0.2-0.9,0.2l-5.2,8.9"/>
			<line class="st1" x1="33.3" y1="188.9" x2="38.3" y2="180.1"/>
			<polyline class="st1" points="38.1,179.2 74.1,184.3 74.1,183.5 			"/>
			<line class="st1" x1="30.6" y1="188.4" x2="12.7" y2="220.1"/>
			<line class="st1" x1="32.6" y1="189" x2="14.9" y2="220.3"/>
			<line class="st1" x1="22" y1="210.4" x2="22.2" y2="222.4"/>
			<path class="st1" d="M5,226l2.6-4.8c0,0,0.8-1,2.5-1c1.7,0,11.2-0.8,19.8,7.4c8.6,8.2,6.9,17.6,6.9,17.6s-1.6,5.7-3.6,8.3"/>
			<path class="st1" d="M4.6,234.5l-0.2-6.9c0,0-0.2-2.1,2.2-2.4s9.5-0.5,17.2,4.7c7.7,5.1,12,14.6,9.6,22.5c0,0-1.7,6.4-10.4,9.2
				l-6.2-0.3"/>
			<path class="st1" d="M6,257.1l0,1.7c0,0,0,1.3,1.7,1.5c1.6,0.2,6.7,1,6.7,1s4.5,0.5,8.3-1.1s6.9-3.6,8.7-8.9
				c1.8-5.3-0.4-15-10.2-20.8c0,0-3.5-2.1-5.4-2.3c0,0-6.9-1.2-7.7,5.2L7.9,240"/>
			<line class="st1" x1="11.4" y1="242.3" x2="18.9" y2="229.3"/>
			<path class="st1" d="M7.8,240.7c0,0,1.8-1.2,3.2,0.9l0.7,3l3.5-6.2c0,0-0.1-3.1-0.1-3.7c0-0.6-0.5-1.3-0.5-1.3
				c-1.2-1.5-2.5-0.5-2.5-0.5l-4.9,8.6"/>
			<path class="st1" d="M7.3,241.8l1,0.2c0,0,0.6-1.2,1.6-0.4l0.6,2.5c0,0-1.1,0.9-1.6,0.9c0,0,1.8,1.4,2.8-0.2"/>
			<line class="st1" x1="14.9" y1="239.2" x2="20.2" y2="230"/>
			<path class="st1" d="M6.6,237.3L7,235c0,0-0.2-1.6-2-0.8c0,0-2.1,1.8-2.7,7.1c0,0-0.3,2.2-0.4,3.4c-0.1,1.2,0.2,10.8,0.2,10.8
				s0.6,4.9,3.4,2.3"/>
			<path class="st1" d="M6.9,235.1c0,0-0.8,0.2-1.7,2.7c-0.9,2.5-1.2,6.6-1.2,8.6c0,2-0.2,10.7,1.1,10.9c0,0,1.7,0.4,3.2-7.9
				l0.7,5.4l0.7-1.1c0,0,0-4.1,1.2-6.1c0.1-0.2,0.3-0.4,0.4-0.6c0,0,1-0.5,1,2l0.7-1l0.2-3.9l7.9-13.8"/>
			<path class="st1" d="M12.1,249.2l-0.9,0c0,0-0.1-1.2-0.3-1.5"/>
			<line class="st1" x1="6" y1="258.7" x2="9" y2="254.7"/>
			<path class="st1" d="M9.3,254.6c0,0,0.8,0.6,1.3,0.6s8.4,1,8.4,1s7.6,0.3,12.1-4.7"/>
			<path class="st1" d="M24,223.2L37.1,200l0.7-0.2l0.8,0.1c0,0,0.6,0.5,0.3,2.6l-5.2,9.2c0,0-0.5,1-2.1,0.5L25,223.8"/>
			<path class="st1" d="M33.6,211.3c0,0-0.3-2.6,0.6-4.1s4.2-7.4,4.2-7.4"/>
			<line class="st1" x1="195.1" y1="225.3" x2="39.1" y2="203"/>
			<path class="st1" d="M26.6,218.2c0,0,0.2-2.2,0.2-3.5l0.5-0.8L27,201.3"/>
			<polyline class="st1" points="27.3,211.1 29.4,207.4 29.2,197.2 			"/>
			<line class="st1" x1="32.6" y1="191.2" x2="16.1" y2="220.4"/>
			<line class="st1" x1="30.7" y1="194.8" x2="31.1" y2="207"/>
			<path class="st1" d="M29.6,207.3c0,0,1.2,0.4,1.5-0.4l1.2-2.1L32,192.3"/>
			<line class="st1" x1="32.4" y1="201" x2="34.3" y2="201.3"/>
			<path class="st1" d="M32.2,196.4l2.6,0.3l0.2,0.2l-0.4,0.6c0,0-0.3,0.7-0.2,1.3c0.1,0.6,0.1,3.1,0.1,3.1s0,0.5,0.2,0.5
				s0.9,0.1,0.9,0.1"/>
			<path class="st1" d="M33.2,191.2l0,3v1.3l2.1,0.2c0,0,0.8,0.4,0.8,1c0,0.5-0.5,1-0.5,1s-0.2,0.7-0.2,1.2s0.2,3.3,0.2,3.3"/>
			<path class="st1" d="M36.8,185.8l1.8,1.8c0,0,0.6,0.6,0.5,1.8l0.2,0.2v1.9l-0.2,0.3v1l-1.3,2.6l-1.7,1.3"/>
			<path class="st1" d="M35.7,187.6l1.6,1.7c0,0,0.7,0.7,0.7,1.5s0.1,3.8,0.1,3.8"/>
			<line class="st1" x1="36.8" y1="196.2" x2="36.8" y2="199.9"/>
			<polygon class="st1" points="41.1,186.5 55.2,188.5 55.9,199.4 41.6,197.3 			"/>
			<polygon class="st1" points="72.7,185.6 73.5,202.1 57.9,199.9 57.2,183.4 			"/>
			<polygon class="st1" points="86.4,197.4 111.3,200.8 110.9,193.6 86.1,189.9 			"/>
			<line class="st1" x1="98.6" y1="192" x2="98.8" y2="199.1"/>
			<path class="st1" d="M122.7,195.3c0,0-0.9-0.3-0.9,0.7l0.4,6.3L147,206l-0.2-6.8c0,0-0.2-0.6-0.7-0.6
				C145.4,198.6,122.7,195.3,122.7,195.3z"/>
			<line class="st1" x1="134.6" y1="204.1" x2="134.3" y2="197"/>
			<path class="st1" d="M151.7,195.2l0,17.6c0,0-23.1-3.5-24-3.3c-0.8,0.2-2.2-0.6-2.2-0.6l-1.7-1.2l-0.9-1.2c0-1.7-1-1.9-1-1.9
				s-8-1.1-8.7-1.3s-1.7,0-1.7,1s-0.7,1.3-0.7,1.3l-2.3,0.8L84.4,203c-2-0.1-1.7-1.9-1.7-1.9l-0.5-14.8c0,0,0.2-2.2-2-2.2"/>
			<line class="st1" x1="192.9" y1="212.1" x2="193.1" y2="220.5"/>
			<path class="st1" d="M200.8,213l-16.8-2.4c0,0-0.8-0.3-0.7,0.8c0.1,1.2,0.3,6.8,0.3,6.8s-0.1,1.1,0.8,1c0.9-0.1,13.2,2,13.2,2"/>
			<path class="st1" d="M113.4,210.4l1-1l5.1,0.8l1.1,1c0,0,1.2,1.2-0.4,1.7l-6-0.9C114.1,212,113.4,211.1,113.4,210.4z"/>
			<path class="st1" d="M202.4,213l-22,39.5l0.5,31.4c0,0-0.3,1.7-2,1.8c-1.7,0.2-4.4,0.4-7.8-0.4c-3.4-0.8-18.6-5.5-19.6-22.2
				c0,0-1.5-11.9,16-18.9c0,0,4-1,8.2-0.2s5.1,0.8,5.1,0.8s1.9,0,2.6,2.2l0.7,31.9l-3,5.2"/>
			<path class="st1" d="M174,282.3c-4.5,2.7-12.1-2.2-16.2-7c-4.2-4.7-6.1-14.9-1.1-20.4c0.2-0.2,0.4-0.4,0.6-0.6
				c5.1-4.9,13.4-4.5,13.4-4.5s6.2,0.9,7.2,1c1.1,0.1,1.4,1.6,1.4,1.6l0.4,23c0,0-0.6,3.8-1.2,5.3c-0.6,1.5-1.1,2.7-2.4,1.2
				s-0.5-14.7-0.5-14.7s1.5-7.7,3.3-6.6l-0.2-0.6c0,0-1.3-1.7-2.6-0.4c-1.2,1.2-2.8,7.7-2.8,9.7s0.2,10.9,0.2,10.9s0.5,5,3.6,2.7"/>
			<path class="st1" d="M173.8,277.9c0,0-7-0.4-13.1-7.9c-6.2-7.5-3.3-15.6-3.3-15.6"/>
			<path class="st1" d="M200.7,215.9c0,0-0.4-2.9,1.1-2.9c1.5,0,2.8,0.6,2.8,0.6l-21.1,37.6"/>
			<line class="st1" x1="206.4" y1="203.8" x2="201.6" y2="212.6"/>
			<path class="st1" d="M203.3,237.2c0,0,1.5,0.7,2-0.7l-0.4-22.3l5.2-8.8"/>
			<line class="st1" x1="183.9" y1="271.5" x2="205.3" y2="233.9"/>
			<polyline class="st1" points="205.3,236.6 210.3,227.9 210.7,227.2 			"/>
			<path class="st1" d="M210.2,227.9l1.8,0.2c0,0,0.9,0,1.1-1l-0.7-23.3"/>
			<polyline class="st1" points="213.2,227.7 286.8,98.7 286.4,91.2 285.7,90.4 282.3,87.9 282.3,85.7 			"/>
			<path class="st1" d="M274.1,102.3c-0.5,0.3-0.6,2.2-0.6,3.4c0,1.2,0.8,0.8,0.8,0.8s3.6-6,3.9-7.2c0.3-1.2,0.8-0.3,0.8-0.3l0,2.7
				l0,2.7c0.7-0.2,0.8-1.8,0.8-1.8l6.4-11.5"/>
			<path class="st1" d="M285.9,90"/>
			<path class="st1" d="M279.1,101.7"/>
			<path class="st1" d="M199.1,227.6l0.2,12.1l4-6.9c0,0,0.2-0.8,0.2-1.3s-0.2-10.6-0.2-10.6s0-0.8-0.5,0.1S199.1,227.6,199.1,227.6
				z"/>
			<path class="st1" d="M192.3,239.1l-6.9,12.2c0,0-0.6,1.1-0.5,4.5c0.1,3.4,0.1,8,0.1,8s0,1.6,0.8,0.7c0.9-0.9,6.7-11.9,6.7-11.9
				s0.7-2.2,0.7-3.3s-0.2-9.7-0.2-9.7S193.2,238,192.3,239.1z"/>
			
				<ellipse transform="matrix(0.9937 0.1122 -0.1122 0.9937 27.6204 -20.4777)" class="st1" cx="195.8" cy="235.2" rx="0.9" ry="2.8"/>
			
				<ellipse transform="matrix(0.9937 0.1122 -0.1122 0.9937 28.6392 -20.4485)" class="st1" cx="196" cy="244.3" rx="0.9" ry="2.8"/>
		</g>
		<polygon class="st1" points="157,214.9 156.8,208 181.2,211.8 181.3,218.6 		"/>
		<line class="st1" x1="169.2" y1="216.5" x2="169" y2="209.9"/>
		<path class="st1" d="M211,226.2l-0.5-20.1c0,0-0.3-2-2.3-2.1c-2-0.1-53.3-7.9-53.3-7.9s0-1.1-1.5-1.1l-1.1-0.2l-1.3,0.9l-0.8-0.5
			L82,185.5"/>
		<path class="st1" d="M35.2,189.3c0,0,1.5,3.5,0.3,6.7"/>
		<line class="st1" x1="11.2" y1="228.9" x2="11.4" y2="234.3"/>
		<line class="st1" x1="7.8" y1="242.2" x2="7.9" y2="249.7"/>
		<ellipse class="st1" cx="85.2" cy="179.6" rx="3.9" ry="1.9"/>
		<path class="st1" d="M212.4,203.9l4.8-8l1,3.1c0,0,1.2-0.1,1-3.1c-0.2-3.1,0.4-6.4,1-6.8c0.6-0.5,0.7-3.1,0.7-3.1l2.7-4.6l0.3,3.5
			l21.8-38.2l-0.1-5l9.4-16.7l0.5,6.6c1.1,0.5,1.1,1.1,1.1,1.1s-28.7,52.1-30.4,53.9c-2,2.1-2.6,7.7-2.5,7.6c0,0-1.4,15.9-3.6,19"/>
		<line class="st1" x1="213.1" y1="225.1" x2="220.2" y2="213"/>
		<path class="st1" d="M256.2,220.1"/>
		<line class="st1" x1="164.6" y1="188.4" x2="77.4" y2="175.7"/>
		<path class="st1" d="M173.6,184.4"/>
		<line class="st1" x1="211.3" y1="199.2" x2="163.6" y2="191.9"/>
		<polyline class="st1" points="155.4,195.7 155.7,194.7 210.4,202.7 		"/>
		<path class="st1" d="M164.9,188.4l-2.3,4.5c0,0-0.4,1.4-2.5,1c-2.1-0.3-4.2-0.6-4.2-0.6l-0.8,1.1l-4.6-0.7L150,194L36.5,177.6v0.8
			"/>
		<polyline class="st1" points="128.6,183.1 134.4,173.1 158.7,176.5 159.2,177 159.1,177.3 153.7,186.6 		"/>
		<polyline class="st1" points="92.9,177.6 98.6,167.8 122.7,171.3 117.1,181.5 		"/>
		<polyline class="st1" points="61.5,176.8 64.4,171.5 78.7,173.6 75.3,179.1 38.6,173.6 36.5,177.6 		"/>
		<polygon class="st1" points="75.1,166.9 76.7,167.2 78.4,163.8 52.5,159.9 50.7,163.3 52.3,163.6 52.7,163 75.3,166.4 		"/>
		<polyline class="st1" points="77.6,173.3 79.5,170.1 79.3,164.6 79,164.3 79,162.3 64.5,160.1 64.8,159.6 61.2,159.1 60.8,159.6 
			53.1,158.5 53.1,159.6 		"/>
		<line class="st1" x1="60.8" y1="159.6" x2="60.9" y2="161"/>
		<line class="st1" x1="64.5" y1="161.7" x2="64.5" y2="160.1"/>
		<polyline class="st1" points="53.1,158.5 65.3,137.4 72.7,138.6 		"/>
		<polyline class="st1" points="79.2,162 89,144.2 84.2,143.5 85.1,141.8 69.3,139.6 68.2,141.4 63.6,140.9 		"/>
		<line class="st1" x1="79.6" y1="165.1" x2="83.8" y2="157.8"/>
		<polyline class="st1" points="83.9,162.9 83.9,165.3 98.2,167.4 		"/>
		<g>
			<polyline class="st1" points="117.7,170.4 117.8,161.4 128.8,142.7 			"/>
			<path class="st1" d="M83.9,163l-0.1-6.8l8.3-14.7l6.7,1.2l0.2,0.1l2.2-4l27.5,3.8c0,2.2,0.2,9.1,0.2,9.1l-10.5,18.6"/>
		</g>
		<g>
			<path class="st1" d="M168.1,159.4"/>
			<path class="st1" d="M158,170.6"/>
			<path class="st1" d="M155.6,170.2"/>
			<path class="st1" d="M153.2,169.8"/>
			<path class="st1" d="M150.8,169.4"/>
			<path class="st1" d="M148.4,169.1"/>
			<path class="st1" d="M146,168.7"/>
			<path class="st1" d="M143.6,168.3"/>
			<path class="st1" d="M141.2,168"/>
			<path class="st1" d="M138.8,167.8"/>
			<path class="st1" d="M136.2,167.3"/>
			<path class="st1" d="M133.8,167"/>
		</g>
		<g>
			<path class="st1" d="M178.6,81.2"/>
			<path class="st1" d="M176.2,80.9"/>
		</g>
		<g>
		</g>
		<polyline class="st1" points="217.8,192.8 169.5,185.8 165.6,192.3 		"/>
		<line class="st1" x1="190.3" y1="196" x2="194.3" y2="189.4"/>
		<polyline class="st1" points="191.6,196.2 193.5,193.3 194.1,193.4 211.9,196 210.1,199 		"/>
		<line class="st1" x1="194" y1="189.8" x2="194.1" y2="193.4"/>
		<line class="st1" x1="194.3" y1="191.6" x2="217.7" y2="195.1"/>
		<line class="st1" x1="47.6" y1="171.7" x2="50.9" y2="165.7"/>
		<polyline class="st1" points="50.7,163.3 50.9,170.7 52.7,171.1 53.1,170.5 63.8,172.2 		"/>
		<line class="st1" x1="52.4" y1="163.3" x2="52.7" y2="171"/>
		<line class="st1" x1="53.7" y1="163.2" x2="53.9" y2="170.8"/>
		<line class="st1" x1="55.1" y1="163.4" x2="55.3" y2="171"/>
		<line class="st1" x1="56.5" y1="163.8" x2="56.7" y2="171.1"/>
		<line class="st1" x1="57.7" y1="164" x2="57.9" y2="171.2"/>
		<line class="st1" x1="59.9" y1="164" x2="60.1" y2="171.6"/>
		<line class="st1" x1="62" y1="164.5" x2="62.2" y2="171.8"/>
		<line class="st1" x1="63.4" y1="164.7" x2="63.6" y2="172"/>
		<line class="st1" x1="64.7" y1="164.9" x2="64.9" y2="171.2"/>
		<line class="st1" x1="66" y1="165.2" x2="66.2" y2="171.5"/>
		<line class="st1" x1="67.4" y1="165.4" x2="67.6" y2="171.7"/>
		<line class="st1" x1="68.7" y1="165.5" x2="68.9" y2="171.9"/>
		<line class="st1" x1="70.2" y1="165.7" x2="70.3" y2="172"/>
		<line class="st1" x1="71.6" y1="166.1" x2="71.8" y2="172.4"/>
		<line class="st1" x1="72.9" y1="166.3" x2="73.1" y2="172.6"/>
		<line class="st1" x1="75.1" y1="166.5" x2="75.3" y2="172.8"/>
		<line class="st1" x1="76.8" y1="167" x2="77" y2="173.3"/>
		<path class="st1" d="M33.5,179.7v-2.4l3.1-5.2c0,0,0.2-0.4,1.4-0.1c1.1,0.3,0.6,1.6,0.6,1.6l-2,3.2c0,0-0.7,1-1.7,0.8
			c-0.6-0.1-0.3,1.1-0.3,1.1"/>
		<path class="st1" d="M37.6,171.8l2.7-4.9l1.1,0.1L42,171c0,0,1.1,1.5,1-2.7c-0.1-4.2,1.2-7.8,1.2-7.8l0.6-2.9c0,0,0.2-1.2,0.7-1.5
			c0.6-0.4,1.3-2.3,1.3-2.3s0.8-1.4,1,1.4c0.2,2.8-0.6,16.8-0.6,16.8"/>
		<path class="st1" d="M122.7,171.3c0,0,0.3,0.1,0.6,0.5l0.4,4.4c0,0-1,1.5,0,1.8c0,0,1-0.5,1.1,0.6l-2,3.5"/>
		<ellipse class="st2" cx="153.9" cy="189.7" rx="4.1" ry="1.8"/>
		<path class="st1" d="M227.5,155l-0.2-7.5c0,0,0.1-1.8,0.4-1.8"/>
		<path class="st1" d="M238,148.9l-10.7-1.4l-10.2-1.9l0,0.9c0,0-3.4,0.3-4.6,3.6l13.9,2.5c0,0,0.8,0.2,0.8,1"/>
		<polyline class="st1" points="219.4,144.2 227.3,145.7 238.2,147.2 		"/>
		<path class="st1" d="M218.8,146.1c0,0-0.1-1,1.3-3.2c1.4-2.2,28.3-50.6,28.3-50.6l15.6,2.5l1-1.8l0.8,0.2l-1.2,1.7l3.1,0.5
			l-9,15.7l-3-0.4l-7.3,12.8l2.7,0.4l-12.5,22.8c0,0-0.6,0.7-0.6,2.8c0,2.1,0.3,9.1,0.3,9.1"/>
		<polyline class="st1" points="239.1,157.6 238.9,148.4 242,142.9 242.4,152 		"/>
		<line class="st1" x1="263.6" y1="120.8" x2="273.6" y2="103.1"/>
		<polygon class="st1" points="262.4,119.4 278.2,91.7 278.9,91.3 285.5,79.4 285.1,72.7 279.7,82.6 279.3,82.3 262.6,111.6 		"/>
		<polyline class="st1" points="244.5,148.3 244.1,139.8 242.9,139.4 		"/>
		<polyline class="st1" points="249.5,123.7 255.9,112.4 255.8,111.1 		"/>
		<polyline class="st1" points="251.1,124 256.9,113.6 255.5,113.5 		"/>
		<line class="st1" x1="257" y1="116" x2="256.9" y2="113.6"/>
		<polyline class="st1" points="256.3,112.4 258,113.1 258,114.8 		"/>
		<line class="st1" x1="257.8" y1="114.9" x2="252.1" y2="124.9"/>
		<path class="st1" d="M254.1,124.6l4.8-8.7c0,0,0.7-1.3,0.8,1.1c0.1,2.4,0,2.9,0,2.9l0.4,0.8l-4.6,7.8"/>
		<path class="st1" d="M255.8,129.9l4.8-8.3c0,0,1-2.2-0.7-2.2"/>
		<path class="st1" d="M216,144l20.5-35.4c0,0,1.4-0.1,1.7-1.9l1.8-2.6c0,0,0.3-2.8,1.2-4.1"/>
		<path class="st1" d="M242.1,103.6c0,0-2.5-6.3,3.2-9"/>
		<polyline class="st1" points="247.2,91.9 251.3,84.3 263.5,86.2 264.7,86.6 267.1,86.9 268,87.4 268.8,86.1 251.5,83.5 253,81.2 
			264.5,82.6 274.1,84.5 272.7,86.9 269,86.1 		"/>
		<line class="st1" x1="259.1" y1="93.8" x2="263.6" y2="85.8"/>
		<line class="st1" x1="264.7" y1="87" x2="260.5" y2="94"/>
		<line class="st1" x1="262.7" y1="94.7" x2="267.1" y2="86.9"/>
		<path class="st1" d="M273.5,84.2l0.4-0.8l-23.8-3.6l-0.9,1.6c0,0-0.9,1.7,2.7,1.9"/>
		<path class="st1" d="M268.3,82.2c0,0-6.5-9-21.6-10.4C227.9,70.2,228.5,83,228.5,83s0.6,1.4,3.5,1.5c2.5,0.1,3.1-1.9,3.1-1.9
			s0.5-4.7,10-4.1c0,0,4.4,0.2,6.9,1.6"/>
		<ellipse class="st2" cx="196.8" cy="103.5" rx="3.8" ry="1.9"/>
		<polygon class="st1" points="131.7,57.1 127.8,64.6 126.7,64.5 123.7,69.6 113.5,68.1 116.4,62.8 115.5,62.6 119.5,55.2 120.7,55 
			130.7,56.3 		"/>
		<polygon class="st1" points="131.7,57.1 132.8,56.6 143.3,58.1 144,58.6 139.5,66.3 138.6,66.2 135.7,71.2 125.6,69.8 128.4,64.6 
			127.8,64.6 		"/>
		<polyline class="st1" points="144,58.6 145.3,58.6 155.3,60 155.9,60.6 151.6,68.1 150.7,67.8 147.8,72.9 137.8,71.5 140.6,66.5 
			139.9,66.1 		"/>
		<polygon class="st1" points="158.3,59.3 150.1,73.5 159.1,74.9 167.4,60.5 		"/>
		<polyline class="st1" points="182.5,64.1 171.5,62.5 170.5,62.8 166.5,70.2 167.3,70.4 164.2,75.4 174.6,77.1 177.4,71.8 
			178,72.1 		"/>
		<polyline class="st1" points="187.2,75.3 194.1,63.4 184,62 176,76 183.9,77.2 		"/>
		<polyline class="st1" points="194.2,76.2 195.1,74.6 194.2,74.4 198.2,66.8 199.1,66.4 209.9,68 210.5,68.7 206.2,76.1 
			205.1,75.9 203.9,77.9 		"/>
		<polyline class="st1" points="211.2,68.2 221.8,69.8 222.4,70.3 218.4,78 217.4,77.7 214.4,82.7 214.4,83.7 		"/>
		<polyline class="st1" points="178.1,87.3 176.2,87 176,76 		"/>
		<path class="st1" d="M164.2,75.4c0,0-0.5,1.9-0.4,4.2c0.1,2.2,0.3,5.6,0.3,5.6l9.8,1.1l2-3.1"/>
		<path class="st1" d="M113.5,68.1c0,0-0.3,0.8-0.4,3.1c-0.1,2.3,0,6.2,0,6.2l10.3,1.4l1.9-2.7"/>
		<path class="st1" d="M125.6,69.8c0,0-0.4,1.4-0.4,3.1s0.1,6.6,0.1,6.6l2.8,0.3"/>
		<path class="st1" d="M135.7,71.2c0,0,0,3.2-0.1,4.3"/>
		<polyline class="st1" points="137.8,71.5 137.2,73.6 137.4,75.9 		"/>
		<polyline class="st1" points="148,72.6 147.5,74.8 147.5,77.3 		"/>
		<polyline class="st1" points="123.7,69.6 123.3,71.2 123.5,78.5 		"/>
		<line class="st1" x1="150.1" y1="73.5" x2="150.2" y2="77.6"/>
		<polyline class="st1" points="174.6,77.1 174.1,78.8 174.4,86.1 		"/>
		<polyline class="st1" points="167.7,60.9 167.3,64.3 167.2,67.9 		"/>
		<line class="st1" x1="194.1" y1="63.4" x2="194.2" y2="74.4"/>
		<polyline class="st1" points="222.4,70.3 223.6,70.2 234.1,71.6 234.7,72.1 234.6,73.2 		"/>
		<polyline class="st1" points="218.4,78 219.3,78 216.3,83 226.9,84.6 		"/>
		<g>
			<path class="st1" d="M128.9,92.7l-0.9,1.5V99c0,0,0.2,0.9-0.9,0.6s-6.9-1-6.9-1l0.1,2.3l7.4,1"/>
			<path class="st1" d="M129.7,98.4"/>
		</g>
		<g>
			<line class="st1" x1="155.6" y1="94.7" x2="161.6" y2="84.7"/>
		</g>
		<line class="st1" x1="127" y1="86.6" x2="120.3" y2="98.4"/>
		<ellipse class="st2" cx="140.5" cy="95.9" rx="4.1" ry="2.1"/>
		<ellipse class="st1" cx="140.5" cy="95.5" rx="3.6" ry="1.9"/>
		<line class="st2" x1="132.5" y1="98.8" x2="132.8" y2="98.1"/>
		<path class="st2" d="M202.2,108.4c0,0-12.4,22.3-12.8,23.6c-0.5,1.3-2,1-2,1l-11.6-1.9c0,0-2.2,4.4-3,5.5s-2,0.6-2,0.6l-39.9-5.7
			l-5.3-0.8l3.5-6.4l-12.9-1.9l14.1-25l12.6,1.9l3.6-6l46.5,7.4l-3.2,5.6L202.2,108.4z"/>
		<g>
			<path class="st1" d="M218.4,100.5v-5c0,0-0.1-0.6-0.8-0.6l-0.9,1.5v0.8"/>
		</g>
		<g>
			<path class="st1" d="M221.8,100.9v-5c0,0-0.1-0.6-0.8-0.6l-0.9,1.5v0.8"/>
		</g>
		<g>
			<path class="st1" d="M225.1,101.4v-5c0,0-0.1-0.6-0.8-0.6l-0.9,1.5v0.8"/>
		</g>
		<g>
			<path class="st1" d="M228.4,101.9v-5c0,0-0.1-0.6-0.8-0.6l-0.9,1.5v0.8"/>
		</g>
		<g>
			<path class="st1" d="M231.6,102.4v-5c0,0-0.1-0.6-0.8-0.6l-0.9,1.5v0.8"/>
		</g>
		<g>
			<path class="st1" d="M230.1,105v-5c0,0-0.1-0.6-0.8-0.6l-0.9,1.5v0.8"/>
		</g>
		<g>
			<path class="st1" d="M228.7,107.6v-5c0,0-0.1-0.6-0.8-0.6l-0.9,1.5v0.8"/>
		</g>
		<g>
			<path class="st1" d="M227.2,110.3v-5c0,0-0.1-0.6-0.8-0.6l-0.9,1.5v0.8"/>
		</g>
		<g>
			<path class="st1" d="M225.7,112.9v-5c0,0-0.1-0.6-0.8-0.6l-0.9,1.5v0.8"/>
		</g>
		<g>
			<path class="st1" d="M224.2,115.5v-5c0,0-0.1-0.6-0.8-0.6l-0.9,1.5v0.8"/>
		</g>
		<g>
			<path class="st1" d="M222.8,118.1v-5c0,0-0.1-0.6-0.8-0.6l-0.9,1.5v9.1"/>
			<path class="st1" d="M219.4,117.7v-5c0,0-0.1-0.6-0.8-0.6l-0.9,1.5v6.8"/>
			<path class="st1" d="M216.1,117.2v-5c0,0-0.1-0.6-0.8-0.6l-0.9,1.5v6.9"/>
			<path class="st1" d="M212.9,116.7v-5c0,0-0.1-0.6-0.8-0.6l-0.9,1.5v6.7"/>
			<path class="st1" d="M209.6,116.2v-5c0,0-0.1-0.6-0.8-0.6l-0.9,1.5v6.8"/>
			<g>
				<path class="st1" d="M226.9,104.5v-5c0,0-0.1-0.6-0.8-0.6l-0.9,1.5v0.8"/>
			</g>
			<g>
				<path class="st1" d="M225.4,107.1v-5c0,0-0.1-0.6-0.8-0.6l-0.9,1.5v0.8"/>
			</g>
			<g>
				<path class="st1" d="M223.9,109.8v-5c0,0-0.1-0.6-0.8-0.6l-0.9,1.5v0.8"/>
			</g>
			<g>
				<path class="st1" d="M222.5,112.4v-5c0,0-0.1-0.6-0.8-0.6l-0.9,1.5v0.8"/>
			</g>
			<g>
				<path class="st1" d="M221,115v-5c0,0-0.1-0.6-0.8-0.6l-0.9,1.5v0.8"/>
			</g>
			<g>
				<path class="st1" d="M223.6,104v-5c0,0-0.1-0.6-0.8-0.6l-0.9,1.5v0.8"/>
			</g>
			<g>
				<path class="st1" d="M222.2,106.6v-5c0,0-0.1-0.6-0.8-0.6l-0.9,1.5v0.8"/>
			</g>
			<g>
				<path class="st1" d="M220.7,109.3v-5c0,0-0.1-0.6-0.8-0.6l-0.9,1.5v0.8"/>
			</g>
			<g>
				<path class="st1" d="M219.2,111.9v-5c0,0-0.1-0.6-0.8-0.6l-0.9,1.5v0.8"/>
			</g>
			<g>
				<path class="st1" d="M217.7,114.5v-5c0,0-0.1-0.6-0.8-0.6l-0.9,1.5v0.8"/>
			</g>
			<g>
				<path class="st1" d="M220.3,103.6v-5c0,0-0.1-0.6-0.8-0.6l-0.9,1.5v0.8"/>
			</g>
			<g>
				<path class="st1" d="M218.9,106.2v-5c0,0-0.1-0.6-0.8-0.6l-0.9,1.5v0.8"/>
			</g>
			<g>
				<path class="st1" d="M217.4,108.9v-5c0,0-0.1-0.6-0.8-0.6l-0.9,1.5v0.8"/>
			</g>
			<g>
				<path class="st1" d="M215.9,111.5v-5c0,0-0.1-0.6-0.8-0.6l-0.9,1.5v0.8"/>
			</g>
			<g>
				<path class="st1" d="M214.4,114.1v-5c0,0-0.1-0.6-0.8-0.6l-0.9,1.5v0.8"/>
			</g>
			<g>
				<path class="st1" d="M217,103.1v-5c0,0-0.1-0.6-0.8-0.6l-0.9,1.5v0.8"/>
			</g>
			<g>
				<path class="st1" d="M215.6,105.7v-5c0,0-0.1-0.6-0.8-0.6l-0.9,1.5v0.8"/>
			</g>
			<g>
				<path class="st1" d="M214.1,108.4v-5c0,0-0.1-0.6-0.8-0.6l-0.9,1.5v0.8"/>
			</g>
			<g>
				<path class="st1" d="M212.6,111v-5c0,0-0.1-0.6-0.8-0.6l-0.9,1.5v0.8"/>
			</g>
			<g>
				<path class="st1" d="M211.1,113.6v-5c0,0-0.1-0.6-0.8-0.6l-0.9,1.5v0.8"/>
			</g>
		</g>
		<g>
			<path class="st1" d="M235,106.2l-0.1-8.4c0,0-0.1-0.6-0.8-0.6l-0.9,1.5v0.8"/>
		</g>
		<g>
			<path class="st1" d="M231.7,102.2v-0.8l0.9-1.5c0.7-0.1,0.8,0.6,0.8,0.6l0.1,8.4l0.3,0.5l1.2-3.1"/>
		</g>
		<g>
			<path class="st1" d="M232,111.5l-0.1-8.4c0,0-0.1-0.6-0.8-0.6l-0.9,1.5v0.8"/>
		</g>
		<g>
			<path class="st1" d="M228.8,107.5v-0.8l0.9-1.5c0.7-0.1,0.8,0.6,0.8,0.6l0.1,8.4l0.4,0.5l1.2-2.6l-0.1-0.5"/>
		</g>
		<g>
			<path class="st1" d="M229.1,116.8l-0.1-8.4c0,0-0.1-0.6-0.8-0.6l-0.9,1.5v0.8"/>
		</g>
		<g>
			<path class="st1" d="M225.8,112.7v-0.8l0.9-1.5c0.7-0.1,0.8,0.6,0.8,0.6l0.1,8.4c0,0,0.3,0.5,0.5,0.5l1.2-2.7l-0.3-0.4"/>
		</g>
		<g>
			<path class="st1" d="M224.4,122.6l-0.1-8.1l0.9-1.5c0.7-0.1,0.8,0.6,0.8,0.6l0.1,8.4l-0.4,0.6"/>
		</g>
		<g>
			<path class="st1" d="M223.1,127.3l-0.1-8.4c0,0-0.1-0.6-0.8-0.6l-0.9,1.5l0.2,9.1l1.2,0.2l0.9-1.4
				C223.6,127.8,223.1,127.5,223.1,127.3z"/>
		</g>
		<g>
			<path class="st1" d="M218,120.5l0-1.2l0.9-1.5c0.7-0.1,0.8,0.6,0.8,0.6l0.1,8.1c0,0-0.1,0.6,0.5,0.8l-0.8,1.4l-1.1-0.2"/>
		</g>
		<g>
			<path class="st1" d="M216.5,123.1l0-1.2l0.9-1.5c0.7-0.1,0.8,0.6,0.8,0.6l0.1,8.1c0,0-0.1,0.6,0.5,0.8l-0.8,1.4L217,131"/>
		</g>
		<g>
			<path class="st1" d="M215,125.7l0-1.2l0.9-1.5c0.7-0.1,0.8,0.6,0.8,0.6l0.1,8.1c0,0-0.1,0.6,0.5,0.8l-0.8,1.4l-1.1-0.2"/>
		</g>
		<g>
			<path class="st1" d="M216.4,122l0-4.1c0,0-0.1-0.6-0.8-0.6l-0.9,1.5l0,1.1"/>
		</g>
		<g>
			<path class="st1" d="M214.9,124.7l0-4.1c0,0-0.1-0.6-0.8-0.6l-0.9,1.5l0,1.1"/>
		</g>
		<g>
			<path class="st1" d="M211.7,124.1l0-4.1c0,0-0.1-0.6-0.8-0.6L210,121l0,1.1"/>
		</g>
		<g>
			<path class="st1" d="M208.4,123.7l0-4.1c0,0-0.1-0.6-0.8-0.6l-0.9,1.5l0,1.1"/>
		</g>
		<g>
			<path class="st1" d="M213.5,127.2l0-4.1c0,0-0.1-0.6-0.8-0.6l-0.9,1.5l0,1.1"/>
		</g>
		<g>
			<path class="st1" d="M210.2,126.8l0-4.1c0,0-0.1-0.6-0.8-0.6l-0.9,1.5l0,1.1"/>
		</g>
		<g>
			<path class="st1" d="M206.9,126.3l0-4.1c0,0-0.1-0.6-0.8-0.6l-0.9,1.5l0,1.1"/>
		</g>
		<g>
			<path class="st1" d="M212,129.9l0-4.1c0,0-0.1-0.6-0.8-0.6l-0.9,1.5l0,1.1"/>
		</g>
		<g>
			<path class="st1" d="M208.6,129.4l0-4.1c0,0-0.1-0.6-0.8-0.6l-0.9,1.5l0,1.1"/>
		</g>
		<g>
			<path class="st1" d="M205.4,128.9l0-4.1c0,0-0.1-0.6-0.8-0.6l-0.9,1.5l0,1.1"/>
		</g>
		<g>
			<path class="st1" d="M215.3,131.4l0-5.1c0,0-0.1-0.6-0.8-0.6l-0.9,1.5l0,1.1"/>
		</g>
		<g>
			<path class="st1" d="M213.8,134.1l0-5.1c0,0-0.1-0.6-0.8-0.6l-0.9,1.5l0,1.1"/>
		</g>
		<g>
			<path class="st1" d="M210.6,133.6l0-5.1c0,0-0.1-0.6-0.8-0.6l-0.9,1.5l0,1.1"/>
		</g>
		<g>
			<path class="st1" d="M207.3,133.1l0-5.1c0,0-0.1-0.6-0.8-0.6l-0.9,1.5l0,1.1"/>
		</g>
		<g>
			<path class="st1" d="M205.7,135.6l0-5.1c0,0-0.1-0.6-0.8-0.6l-0.9,1.5l0.1,8.9"/>
		</g>
		<g>
			<path class="st1" d="M209,136.3l0-5.1c0,0-0.1-0.6-0.8-0.6l-0.9,1.5l0.2,8.9"/>
		</g>
		<g>
			<path class="st1" d="M212.3,136.7l0-5.1c0,0-0.1-0.6-0.8-0.6l-0.9,1.5l0,9"/>
		</g>
		<g>
			<path class="st1" d="M214.1,141.2l-0.2-8.3l0.9-1.5c0.7-0.1,0.8,0.6,0.8,0.6l0.1,8.3l-0.3,0.7"/>
		</g>
		<g>
			<path class="st1" d="M203.9,132.6l0-5.1c0,0-0.1-0.6-0.8-0.6l-0.9,1.5l0,1.1"/>
		</g>
		<g>
			<path class="st1" d="M202.4,135.3l0-5.1c0,0-0.1-0.6-0.8-0.6l-0.9,1.5l0.2,8.8"/>
		</g>
		<g>
			<path class="st1" d="M199.4,135.4c0,0-0.1-0.6-0.8-0.6l-0.9,1.5l0.2,8.8l1.5,0.2l0.6-1.1c0,0-0.6,0-0.5-0.9L199.4,135.4z"/>
		</g>
		<g>
			<path class="st1" d="M202.7,135.8c0,0-0.1-0.6-0.8-0.6l-0.9,1.5l0.2,8.8l1.5,0.2l0.6-1.1c0,0-0.6,0-0.5-0.9L202.7,135.8z"/>
		</g>
		<g>
			<path class="st1" d="M206.1,136.2c0,0-0.1-0.6-0.8-0.6l-0.9,1.5l0.2,8.8l1.5,0.2l0.6-1.1c0,0-0.6,0-0.5-0.9L206.1,136.2z"/>
		</g>
		<g>
			<path class="st1" d="M209.3,136.7c0,0-0.1-0.6-0.8-0.6l-0.9,1.5l0.2,8.8l1.5,0.2l0.6-1.1c0,0-0.6,0-0.5-0.9L209.3,136.7z"/>
		</g>
		<g>
			<path class="st1" d="M212.7,137.3c0,0-0.1-0.6-0.8-0.6l-0.9,1.5l0.2,8.8l1.5,0.2l0.6-1.1c0,0-0.6,0-0.5-0.9L212.7,137.3z"/>
		</g>
		<g>
			<path class="st1" d="M199.2,134.8l0-5.1c0,0-0.1-0.6-0.8-0.6l-0.9,1.5l0.2,8.8"/>
		</g>
		<g>
			<path class="st1" d="M213.2,121.5l0-4.1c0,0-0.1-0.6-0.8-0.6l-0.9,1.5l0,1.1"/>
		</g>
		<g>
			<path class="st1" d="M209.9,121.1l0-4.1c0,0-0.1-0.6-0.8-0.6l-0.9,1.5l0,1.1"/>
		</g>
		<g>
			<path class="st1" d="M206.6,120.6l0-4.1c0,0-0.1-0.6-0.8-0.6l-0.9,1.5l0.1,6.7"/>
		</g>
		<g>
			<path class="st1" d="M221.5,95.2v-5c0,0-0.1-0.6-0.8-0.6l-0.9,1.5l0.2,6.8"/>
		</g>
		<g>
			<path class="st1" d="M224.8,95.7v-5c0,0-0.1-0.6-0.8-0.6l-0.9,1.5l0.2,6.8"/>
		</g>
		<g>
			<path class="st1" d="M228.1,96.2v-5c0,0-0.1-0.6-0.8-0.6l-0.9,1.5l0.2,6.8"/>
		</g>
		<g>
			<path class="st1" d="M231.3,96.6v-5c0,0-0.1-0.6-0.8-0.6l-0.9,1.5l0.2,6.8"/>
		</g>
		<g>
			<path class="st1" d="M234.6,97.2v-5c0,0-0.1-0.6-0.8-0.6l-0.9,1.5l0.2,6.8"/>
		</g>
		<path class="st1" d="M204.2,147.4c3.4,0.5,6.4,0.9,6.4,0.9s1.3,0.5,1.9-1"/>
		<path class="st1" d="M196.5,140.9l-2.3,4c0,0-0.9,1,0.3,1.1c0.5,0.1,3.5,0.5,6.7,0.9"/>
		<path class="st1" d="M199.3,130.2l1.4-2.3l0.9,0.1c0,0,0.4,0.4,0.2,1.4"/>
		<line class="st1" x1="188.5" y1="147.7" x2="182" y2="146.7"/>
		<polyline class="st1" points="202.4,108.6 202.5,120.8 204.8,121.1 		"/>
		<path class="st1" d="M187.1,147.4l-0.2-11.8c0,0,0.1-2.3,0.7-2.7"/>
		<path class="st1" d="M169.8,137c0,0-0.6,0.6-0.7,2.5l0.1,5.8"/>
		<path class="st1" d="M128,131.3c0,0-0.6,0.6-0.7,2.5l0.1,8.6"/>
		<polyline class="st1" points="228.4,82.9 226.4,82.6 225.5,84.4 225.4,85.1 226.2,85.8 		"/>
		<polyline class="st1" points="228.4,83.3 228.1,84 227.4,83.9 225.6,87 232.9,88.2 237.9,79.4 		"/>
		<line class="st1" x1="217.6" y1="92.7" x2="219.7" y2="93"/>
		<line class="st1" x1="221.5" y1="93.3" x2="223.1" y2="93.5"/>
		<line class="st1" x1="224.9" y1="93.8" x2="226.3" y2="94"/>
		<path class="st1" d="M225.6,87.1c0,0-0.1,0.6,0.6,0.6l0.1,4.3"/>
		<path class="st1" d="M232.9,88.2c0,0-0.1,0.5-0.7,0.4l0.2,5.2l-0.9-0.1"/>
		<path class="st1" d="M235,84.5l0.2,4.6c0,0,0.3,1.2-1,1.5l-0.8,1.4"/>
		<line class="st1" x1="229.6" y1="93.4" x2="228.1" y2="93.2"/>
		<line class="st1" x1="220" y1="124" x2="221.4" y2="123.6"/>
		<path class="st1" d="M223.1,123.2l2.2-0.6c0,0,0.7-0.1,0.7,0.5c0,0.6,0.2,3.1,0.2,3.1"/>
		<line class="st1" x1="220" y1="125.7" x2="221.3" y2="125.4"/>
		<path class="st1" d="M223.1,124.9l1.2-0.3c0,0,0.5-0.2,0.5,0.6c0,0.9,0,3.3,0,3.3"/>
		<line class="st1" x1="223.6" y1="127.7" x2="224.8" y2="125.6"/>
		<line class="st1" x1="224.9" y1="124.9" x2="226" y2="123.1"/>
		<polyline class="st1" points="202.9,137.6 203.7,137.8 204,137.2 		"/>
		<polyline class="st1" points="206.3,138.2 206.9,138.3 207.2,137.6 		"/>
		<polyline class="st1" points="209.5,138.6 210.2,138.7 210.5,138.1 		"/>
		<polyline class="st1" points="212.8,139.1 213.6,139.2 214,138.4 		"/>
		<path class="st1" d="M213.4,133.5"/>
		<line class="st1" x1="197.8" y1="141.5" x2="195.1" y2="140"/>
		<line class="st1" x1="201.1" y1="143.4" x2="199.5" y2="142.5"/>
		<path class="st1" d="M197.8,139.1l-1.2-0.7c0,0-0.6-0.6-1.1,0.2c-0.5,0.9-0.8,1.5-0.8,1.5l0.1,3.5"/>
		<line class="st1" x1="201.2" y1="141" x2="199.6" y2="140.1"/>
		<path class="st1" d="M211.1,143.6c-0.9,0.3-1.7,0.5-1.7,0.5"/>
		<path class="st1" d="M212.7,141.6l2-0.6c0,0,0.9-0.3,0.9,0.7c0,1,0.1,2.5,0.1,2.5l-1,1.6l-0.2-2.4c0,0,0-0.9-0.7-0.7
			c-0.2,0-0.6,0.2-1.1,0.3"/>
		<line class="st1" x1="209.5" y1="142.5" x2="211" y2="142.1"/>
		<polyline class="st1" points="69.2,136.2 102.5,77.7 103,78.2 103.7,80.9 		"/>
		<polyline class="st1" points="83.6,132.1 99.9,103.4 106.8,104.4 106.9,105 121.1,107.1 104.5,136.4 89.8,134.2 89.4,134.7 
			83.7,133.7 		"/>
		<polyline class="st1" points="97.4,106.5 89.4,105.2 72.5,135.1 74,135.2 		"/>
		<path class="st3" d="M65.3,123.5"/>
		<path class="st3" d="M82,139.2l1.7,0.2c0,0-0.2,0.8,0,2"/>
		<path class="st3" d="M73.1,139.9c0,0-0.2-1.6,0-2l1.7,0.2"/>
		<polyline class="st3" points="75,140.2 75,137.8 81.9,138.9 81.9,141.4 		"/>
		<line class="st3" x1="83.7" y1="140.2" x2="91.4" y2="141.4"/>
		<path class="st4" d="M76.7,131.6c0,0,1.1-2.5,4.3-2c3.1,0.5,2.5,3.5,2.5,3.5l-1,2.4c0,0-0.8,2.3-4.3,2c0,0-2.8-0.3-2.5-3
			L76.7,131.6z"/>
		<path class="st3" d="M77.6,131.7c0,0,1.1-1.9,3.2-1.4c2.1,0.5,1.9,2.1,1.9,2.1l-0.9,2.8c0,0-1,1.6-3.1,1.5c-2.2-0.1-2-2.2-2-2.2
			L77.6,131.7z"/>
		<g>
			<g id="LINE_5_">
				<polygon class="st5" points="80.7,135.3 77.6,134.7 77.8,134.4 80.9,134.9 				"/>
			</g>
			<g id="LINE_4_">
				<polygon class="st5" points="81.1,133.9 78,133.4 78.2,133 81.3,133.5 				"/>
			</g>
			<g id="LINE_3_">
				<polygon class="st5" points="81.5,132.6 78.4,132 78.6,131.7 81.7,132.2 				"/>
			</g>
		</g>
		<path class="st3" d="M116.2,122.5c0,0-0.6,1.3-0.6,3.4s0.4,11.2,0.4,11.2l3.5,0.5"/>
		<line class="st2" x1="129" y1="145.9" x2="140.3" y2="147.6"/>
		<g>
			<path class="st2" d="M174.4,136.3l0.1,2.8c0,0,0.7,1.9,4.3,1.9c0,0,2.8,0,3.6-2v-3.3"/>
			<ellipse class="st2" cx="178.3" cy="136" rx="3.9" ry="2.1"/>
		</g>
		<g>
			<path class="st2" d="M118.2,128.1l0.1,2.8c0,0,0.7,1.9,4.3,1.9c0,0,2.8,0,3.6-2v-3.3"/>
			<ellipse class="st2" cx="122.2" cy="127.8" rx="3.9" ry="2.1"/>
		</g>
		<g>
			<g>
				<path class="st1" d="M119.2,132c0,0-2,1.9,2.5,2.3c0,0,2.2,0.2,3.5-1"/>
				<path class="st1" d="M119.2,133.9c0,0-2,1.9,2.5,2.3c0,0,2.2,0.2,3.5-1"/>
				<path class="st1" d="M119.2,135.7c0,0-2,1.9,2.5,2.3c0,0,2.2,0.2,3.5-1"/>
				<path class="st1" d="M119.2,137.6c0,0-2,1.9,2.5,2.3c0,0,2.2,0.2,3.5-1"/>
				<path class="st1" d="M119.2,139.4c0,0-2,1.9,2.5,2.3c0,0,2.2,0.2,3.5-1"/>
			</g>
			<line class="st1" x1="119.8" y1="132.2" x2="120.1" y2="141.5"/>
		</g>
		<g>
			<g>
				<path class="st1" d="M175.5,140.3c0,0-2,1.8,2.4,2.2c0,0,2.2,0.2,3.5-1"/>
				<path class="st1" d="M175.5,142c0,0-2,1.9,2.5,2.3c0,0,2.2,0.2,3.5-1"/>
				<path class="st1" d="M175.5,143.8c0,0-2,1.9,2.5,2.3c0,0,2.2,0.2,3.5-1"/>
				<path class="st1" d="M178.8,148c0.7-0.1,1.8-0.3,2.6-1"/>
				<path class="st1" d="M175.5,145.7"/>
				<path class="st1" d="M178.9,149.8c0.7-0.1,1.8-0.3,2.5-1c0,0,1.2-0.9,0.4-1.9"/>
			</g>
			<line class="st1" x1="176" y1="140.6" x2="176.2" y2="146"/>
			<line class="st1" x1="181.1" y1="140.3" x2="181.3" y2="150.1"/>
			<line class="st1" x1="124.7" y1="132.1" x2="124.9" y2="141.7"/>
		</g>
		<path class="st1" d="M182.3,147.8c0,0,1.5,2.3-0.9,3.4c-1.9,0.8-2.4,0.4-2.4,0.4"/>
		<polygon class="st1" points="101.4,81.5 101.8,81 105,81.4 105.5,82.1 105.5,90.6 106.5,91.8 106.8,100.1 101.8,99.4 		"/>
		<path class="st1" d="M106.8,74.2c0,0-0.2-3.1,0.9-3.5l4.7,0.8c0,0-0.9,2.1-0.6,3.9l-1.3-0.3"/>
		<path class="st1" d="M111.9,75.8c0,0,0.7,4-0.4,8.7l-1-0.1"/>
		<polyline class="st1" points="111.6,84.8 111.6,87.6 110.3,87.2 110.2,85.4 		"/>
		<polyline class="st1" points="106.6,91.6 107.3,90.8 107.6,91.5 107.7,94.1 111.5,87.8 		"/>
		<polyline class="st1" points="105.7,90.6 106.1,89.5 107.3,90.8 		"/>
		<path class="st1" d="M104.1,80.8c0,0,0.9-7,3.8-7.1l1.5,0.3c0,0-2.2-0.3-3.7,9.9"/>
		<path class="st1" d="M109.6,87.3c0,0,2.9-11.1,0-13.2"/>
		<path class="st1" d="M179.1,153.4l4.5,0.7c0,0,1.4,0.3,1.9,0.8c0.5,0.5,3.3,3.1,3.3,3.1"/>
		<line class="st1" x1="197.5" y1="132.7" x2="185" y2="154.5"/>
		<path class="st1" d="M245.1,135.1c0,0,1.6-0.4,1.5,0.9l0.1,1.9"/>
		<line class="st1" x1="244.1" y1="139.8" x2="246.5" y2="135.7"/>
		<path class="st1" d="M244.9,141.4l9.1-16.1c0,0,0.3-0.9,1.3-0.5"/>
		<path class="st1" d="M246.9,136.5c0,0,0.2-1.9,0.6-2.4c0.4-0.6,4.8-8.5,4.8-8.5s0.6-1,0.6,0.3s0.1,1,0.1,1"/>
		<path class="st1" d="M246,135.1l0.2-0.7l5.2-9c0,0,0.9-0.6,1.2-0.1"/>
		<path class="st1" d="M262.4,119.4c0,0,1.9,0.3,0.7,2.6c-1.2,2.3-6.1,10.7-6.1,10.7"/>
		<path class="st1" d="M259.9,116.1l0.1-2.7c0,0,0.1-1.7,0.9-3s5.3-8.9,5.3-8.9"/>
		<path class="st1" d="M264.7,100.7c0,0,0.6-0.2,1.5,0.3l2.4-4.2c0,0-0.4-0.8-1.5-0.4"/>
		<line class="st1" x1="266.2" y1="105.1" x2="266.2" y2="101"/>
		<line class="st1" x1="268.7" y1="100.6" x2="268.6" y2="96.8"/>
		<path class="st1" d="M285.1,72.7c0,0,0.3-1.3-1.4-1l-5.8,10c0,0,1.1-1.2,1.8,0.2"/>
		<path class="st1" d="M253.4,80.2c0,0,0.4-1,0.7-0.9s5.6,0.4,5.6,0.4s0.6,0.3,0.4,1.2c0,0-0.1-1.4-0.9-0.1"/>
		<polygon class="st1" points="253.3,87.2 256.3,87.6 254.9,90.2 251.8,89.7 		"/>
		<path class="st1" d="M250.2,86.5c0,0-1.3,0.2-3.2,2.4c-1.9,2.2-4.8,8.5-4.8,8.5"/>
		<line class="st1" x1="237.4" y1="85.2" x2="248.4" y2="87"/>
		<polyline class="st1" points="237,81.1 237.4,93 234.8,96.8 		"/>
		<line class="st1" x1="217.3" y1="78" x2="217.4" y2="80.9"/>
		<line class="st1" x1="216.3" y1="83" x2="216.4" y2="84.2"/>
		<polyline class="st1" points="206.1,78.3 207.1,76.4 206.2,76.1 		"/>
		<polyline class="st1" points="235,99.5 238.6,100 239,100.2 236.9,103.5 236.6,103.3 235.1,103.7 		"/>
		<line class="st1" x1="231.6" y1="98.9" x2="233.1" y2="99.2"/>
		<line class="st1" x1="228.4" y1="98.5" x2="229.8" y2="98.7"/>
		<line class="st1" x1="225.1" y1="98" x2="226.5" y2="98.2"/>
		<line class="st1" x1="223.2" y1="97.7" x2="222.1" y2="97.5"/>
		<path class="st1" d="M235.1,102.2c0,0,1.1-0.3,2-0.6c0.9-0.3,0.9,0.4,0.9,0.4l0.1,4.9"/>
		<line class="st1" x1="236.8" y1="103.8" x2="236.8" y2="108.5"/>
		<polyline class="st1" points="238.2,104.3 239.1,102.8 239.1,100.4 		"/>
		<polyline class="st1" points="248.2,92.3 246.7,92.1 242,100.4 243.6,100.6 		"/>
		<polyline class="st1" points="275.2,89.3 275.1,84.8 274.3,84.6 		"/>
		<polyline class="st1" points="269.6,86.4 268.7,87.9 271.6,88.5 272.1,88.8 272,90 272.9,88.4 272.8,86.9 		"/>
		<polyline class="st1" points="268,87.5 267.6,88.4 271.5,88.9 271.9,89.8 		"/>
		<polyline class="st1" points="267.5,88.6 267.5,89.6 271.6,90.1 272.1,90.4 268.5,96.5 		"/>
		<line class="st1" x1="265.3" y1="92.9" x2="267.4" y2="89.1"/>
		<path class="st1" d="M265.7,93l3.1,0.6c0,0,0.6,0.2,0.6,1.3"/>
		<line class="st1" x1="271.4" y1="90.1" x2="269.2" y2="93.9"/>
		<path class="st1" d="M215.4,199c0,0-0.1-1.5-2.6-1.2l-2.6,4.5c0,0,0.2,0.6,1,0.6s1.2,0.8,1.2,0.8"/>
		<path class="st1" d="M212.1,196c0,0,0.6-0.1,0.3,2"/>
		<path class="st1" d="M157.2,187.3c0,0,2-3.5,2.4-4l-0.4-6.2"/>
		<polyline class="st1" points="182.3,169.8 182.6,182.1 179.8,187.3 		"/>
		<line class="st1" x1="78.9" y1="173.6" x2="78.9" y2="176"/>
		<path class="st1" d="M44.8,157.6"/>
		<path class="st1" d="M63.7,140c0,0-0.9-1.2-0.3-1.9c0.6-0.7,1-1.9,1-1.9s0.3-0.5,1.3-0.4c1,0.1,9.3,1.4,9.3,1.4"/>
		<line class="st2" x1="82" y1="138.6" x2="82.6" y2="137.3"/>
		<path class="st1" d="M82.3,138.3l9.3,1.3c0,0,1.3,0.1,1.2,1.3"/>
		<line class="st1" x1="85.3" y1="137.6" x2="100.1" y2="139.8"/>
		<polyline class="st1" points="106.8,100.1 107.6,98.9 107.4,98 112,89.9 112.1,90.4 112.8,89.3 112.6,71.8 		"/>
		<polygon class="st1" points="108,92.3 107.7,87.9 109,85.9 109.6,87.5 109.9,88.9 		"/>
		<polyline class="st1" points="103.1,78.6 106.7,72.5 106.6,53.9 		"/>
		<polyline class="st1" points="88.9,83.5 107.8,51.9 107.8,48.3 		"/>
		<path class="st1" d="M104,55.1l4.9-8.6l0-2.8c0,0-0.5-1.2-1.9-0.5l-4.9,9.2c0,0,1.3-0.6,1.7,0.7C104.2,54.4,104,55.1,104,55.1z"/>
		<path class="st1" d="M102.4,52.6l-0.8-0.1L91.1,71c0,0-0.8,1.4-1.2,3.3c-0.3,1.9-2.7,20.1-2.7,20.1s-1.2,9.8-2.7,12
			c-1.5,2.2-16.1,29.7-16.1,29.7"/>
		<path class="st1" d="M106.5,59.2L107,59l7.5,1.1c0,0,1.4,0,1.1,1.7l-0.2,2.7"/>
		<path class="st1" d="M103.9,55.3c-1.4,0-1.2-0.9-1.2-0.9l-0.2-1.3l1.4,0.2"/>
		<line class="st1" x1="104" y1="54.7" x2="102.7" y2="54.4"/>
		<line class="st1" x1="126.4" y1="65.3" x2="126.4" y2="67.4"/>
		<line class="st1" x1="127.5" y1="64.7" x2="127.5" y2="66.1"/>
		<line class="st1" x1="138.6" y1="66.2" x2="138.7" y2="69.6"/>
		<line class="st1" x1="139.5" y1="66.3" x2="139.7" y2="67.8"/>
		<line class="st1" x1="150.8" y1="68.2" x2="150.9" y2="72.1"/>
		<line class="st1" x1="151.6" y1="68.1" x2="151.8" y2="70.5"/>
		<line class="st1" x1="155.9" y1="60.6" x2="156.1" y2="63.1"/>
		<polyline class="st1" points="259.5,126.5 259.3,125.4 256,131.3 		"/>
		<path class="st1" d="M214.5,144.4l-2.3,4.1c0,0-0.2,0.7-1.4,0.6c-1.2-0.2-16.2-2.4-16.2-2.4s-0.9,0-0.7-0.9"/>
		<path class="st1" d="M207.5,152.6l0.1-1.1l0.3-0.9l4.6,0.7l0.8-0.9l0.2,1.2c0,0,0,0.8-1.5,0.6s-4.1-0.6-4.1-0.6"/>
		<line class="st6" x1="213.4" y1="153.4" x2="213.4" y2="152.2"/>
		<path class="st1" d="M191.7,153l-0.1-4.5l0.5-1l0.8,0.2l0,0.4c0,0-0.2,0.4,0.3,0.5c0.5,0.1,3.3,0.5,3.3,0.5l-0.7,0.9l-3.3-0.5
			c0,0-0.8-0.2-0.8-0.5"/>
		<path class="st1" d="M197.1,151.1"/>
		<line class="st1" x1="197.2" y1="147.7" x2="195.6" y2="150.3"/>
		<line class="st1" x1="194.6" y1="146.8" x2="194.6" y2="148.6"/>
		<path class="st1" d="M200.4,149.2"/>
		<path class="st1" d="M197.2,148.6c0.2-0.4,1.6-0.8,1.6-0.8c1.1-0.2,2.1-0.1,4.3,0.2c1.4,0.2,1.9,0.6,2,0.9c0.1,0.1,0,0.2,0,0.2
			s-0.1,0-0.2,0.1c-0.2,0.1-0.5,0.3-0.7,0.4c-0.4,0.2-2.3,0.3-4.7,0C197.1,149.3,197.2,148.7,197.2,148.6l-0.2,1.5
			c0,0,0.3,0.9,2.5,1.1c2.3,0.2,3.6,0.5,4.4,0l1.1-0.9l0.1-0.8"/>
		<g>
			<g id="LINE_2_">
				<polygon class="st7" points="198.8,148.7 202.6,149.3 202.4,149.4 198.6,148.9 				"/>
			</g>
		</g>
		<g>
			<g id="LINE_1_">
				<polygon class="st7" points="199.7,148.2 203.5,148.8 203.3,148.9 199.6,148.4 				"/>
			</g>
		</g>
		<path class="st1" d="M204.2,148.2c0,0,0,0,0-0.6c0-0.6-0.4-0.9-1.2-1.1s-1.7,0.3-1.7,0.3l-0.1,0.9"/>
		<polyline class="st1" points="207.7,151.1 207.7,149.3 207.5,148.7 		"/>
		<path class="st1" d="M204.7,151.7"/>
		<polyline class="st1" points="204.6,151.7 204.8,151.2 205.6,151.3 206.3,149.9 205.7,149.8 206.1,149 207.7,149.3 206.1,152.3 		
			"/>
		<line class="st1" x1="196.4" y1="138.2" x2="197.4" y2="136.4"/>
		<line class="st1" x1="199.5" y1="137.9" x2="200.7" y2="135.9"/>
		<g>
			<path class="st2" d="M209.1,218.7h-0.8c0,0-1,1.1-0.6,3.6l0.8,0.2"/>
			<ellipse transform="matrix(0.9942 0.1076 -0.1076 0.9942 24.9668 -21.304)" class="st2" cx="209.9" cy="220.7" rx="1" ry="3.7"/>
			
				<ellipse transform="matrix(0.9942 0.1076 -0.1076 0.9942 24.9967 -21.4056)" class="st2" cx="210.8" cy="220.9" rx="0.9" ry="3.5"/>
		</g>
		<polyline class="st1" points="75.3,136.7 75.5,136.3 75.1,137.2 		"/>
		<path class="st1" d="M73.6,136.9l1-2c0,0,0.4-0.4,1-0.1"/>
		<polyline class="st1" points="83.6,136 85,136.3 85.2,138.4 		"/>
		<line class="st1" x1="83.7" y1="138.4" x2="85" y2="136.3"/>
		<polyline class="st1" points="72.5,135.1 72.5,136.2 72,136.8 		"/>
		<path class="st1" d="M82.9,136.8c0,0,1.3-1.6,0.8-4.3"/>
		<polyline class="st1" points="121.2,107.3 122.1,107.4 122.1,108 105.4,137.6 98.8,136.5 90.5,135.3 89.9,135.1 89.6,135.7 
			83.7,134.7 		"/>
		<line class="st1" x1="136.5" y1="98.5" x2="136.5" y2="96.3"/>
		<line class="st1" x1="214.6" y1="143.2" x2="215.5" y2="141.8"/>
		<line class="st1" x1="192.7" y1="103.6" x2="192.8" y2="106.8"/>
		<path class="st1" d="M199.5,107.9c0,0,1-0.2,1.4-1.3l0-3"/>
		<line class="st1" x1="105.8" y1="137" x2="104.6" y2="136.7"/>
	</g>
	<g>
		<g>
			<path class="st8" d="M50.6,46.1c0,0-2.9,0.3-4.6,5c0,0-1.9,4.5-1.5,8.9l-0.2,16.7l6.9,4l1.1-0.2l0.3-0.7l6.1-2.6l0.5,0.5l2.8-1.3
				v-0.6l3.2-1.3l0.5,0.5l4.2-1.7l0.4-0.5l2.6-1.5l0.5,0.2l3.2-1.4l0.1-0.5l5.9-2.3l0.6,0.3l0.7-0.5l0.1-16.8c0,0-0.2-6.1-3.2-9.4
				c0,0-0.3,3.3-0.5,4c0,0,1.7,2.5,1.7,6.2c0,0-0.8,6.5-3.4,10.5l0.1,3.2l-1.6,0.6l-0.2-2.1l-0.9-0.9l-17,7.3c0,0-0.7,0.2-1.6,1.7"
				/>
			<path class="st8" d="M51.8,56.1c0,0-0.3,1.1-0.4,7.9c-0.1,6.8-0.1,16.8-0.1,16.8"/>
			<polyline class="st8" points="84.3,50.3 82.2,51.1 78.9,49.2 			"/>
			<path class="st8" d="M52.7,57.5c0,0,0.6,1.7,0.7,5.6l-2,0.9l-6.8-3.9"/>
			<path class="st8" d="M53.5,63.5c0,0-0.2,3,3.3,7.3l0,0.4l0.1,2.7l1.2-0.4v-1.6l-0.9-0.5"/>
			<polygon class="st8" points="64.5,69.7 64.5,73.2 65.9,72.7 66.1,72.8 69.7,71.3 69.6,71.1 71,70.5 71,67 			"/>
			<line class="st8" x1="54.5" y1="66.7" x2="63.9" y2="62.8"/>
			<path class="st8" d="M66.5,64.5l2.5-2.6l3.2-1.3l2.6-4.9l0.9-0.2l3.4,2.2c0,0-1.4,3.1-1.7,3.2l1.2,0.7"/>
			<path class="st8" d="M73.1,58.5c0,0-9.2,7.6-16.1,2.8c0,0-5.6-3-6.7-9.6c-1.1-6.6,4.5-19.6,14.1-23.5s15,5.1,15,5.1
				s-3-4.2-6.6-4.7S62.3,30.1,57,38s-6.3,17.5-0.1,23"/>
			
				<ellipse transform="matrix(-0.86 -0.5102 0.5102 -0.86 101.7069 119.3652)" class="st9" cx="67.2" cy="45.7" rx="11.9" ry="17.8"/>
			<line class="st10" x1="66.8" y1="38.8" x2="67" y2="52"/>
			<line class="st10" x1="60.8" y1="47.9" x2="72.6" y2="43.1"/>
			<line class="st11" x1="69.1" y1="62" x2="72.3" y2="63.9"/>
			<line class="st11" x1="72.3" y1="60.6" x2="75.5" y2="62.6"/>
			<path class="st11" d="M75.4,62.2c0,0,0.9-1.7-1.2-3.7l0-0.4l0.1-0.2l0.8-1.4l1-0.1l2.5,1.6l-0.2,0.5c0,0-1-0.1-1.6,1l-0.4,3.1"/>
			<line class="st11" x1="74.3" y1="58" x2="77" y2="59.5"/>
			<polyline class="st11" points="78.7,65 78,64.7 77.9,61.9 78.9,61.6 			"/>
			<polyline class="st11" points="77,63.1 77,61.4 77.4,60.9 			"/>
			<polyline class="st11" points="55.7,69.3 57.7,69.1 58.7,69.8 			"/>
			<path class="st11" d="M57.7,68.8l0.1-3.4l1.9,1.4l0.2,0l0.2,0l0.6,0.1v0.5l4.8-2c0,0-0.1-0.9,0.2-1.1"/>
			<line class="st11" x1="59.9" y1="69.3" x2="59.8" y2="66.7"/>
			<line class="st11" x1="61.3" y1="68.7" x2="61.2" y2="67.1"/>
			<polyline class="st11" points="66.4,66.5 66.3,64.1 64.3,62.9 			"/>
			<line class="st11" x1="65" y1="65.6" x2="65" y2="67.2"/>
		</g>
		<g>
			<g>
				<polygon class="st12" points="52.2,32.2 57.4,24.6 54.9,25.9 55.2,16.6 50.2,19.3 49.9,28.6 47.4,30 				"/>
			</g>
		</g>
		<g>
			<g>
				<polygon class="st12" points="53,1.7 47.8,9.3 50.4,8 50.1,17.3 55.1,14.6 55.4,5.3 57.9,3.9 				"/>
			</g>
		</g>
	</g>
	<g>
		<g>
			<path class="st11" d="M21.4,107.7c0,0-2.6-0.4-4.5,3.7c-1.9,4-2.4,10.3-2.4,10.3l0.1,17.6l7.1,4.1l0.2-17.5c0,0-0.9-5.7,1.6-12.2
				C25.3,108.2,21.4,107.7,21.4,107.7z"/>
			<path class="st11" d="M19.7,108.1l3.1-1.1c0,0,4.1,1.4,3.5,3.9c0,0-3,5.9-2.3,14.4l-2.2,0.9l-7.3-4.4"/>
			<path class="st11" d="M24,125.3c0.7,5.8,3.8,7.8,3.8,7.8l-0.6,0.1v3.3l1.7-0.6l-0.1-1.5l0.7-1.8l0.4-0.4l18-7.3
				c0,0,0.7,0.2,0.8,1.1s0,1.5,0,1.5l1.5-0.5l-0.1-3.3l-0.5,0.3c0,0,3.7-5.6,3.9-11.3s-5.2-13-10.2-14.5l2.2-0.2l1.4,0.4
				c0,0,7.3,2,8.8,13.5l0.1,17.4l-1.3,0.5v-0.6l-6.8,2.9l0.1,0.5l-3.3,1.5l-0.1-0.6l-3.3,1.5v0.5l-4.7,1.9v-0.6l-3.3,1.5v0.5
				l-3.3,1.5v-0.5l-6.7,2.7v0.7l-1.4,0.2"/>
			<line class="st11" x1="49.6" y1="102.7" x2="51.7" y2="101.9"/>
			<polyline class="st11" points="55.8,111.9 53.6,112.9 52.2,112 			"/>
			<polyline class="st11" points="48.7,123.4 49.5,123.8 49.4,127.1 			"/>
			<line class="st11" x1="23.5" y1="113.7" x2="25.4" y2="112.9"/>
			<line class="st11" x1="27.5" y1="133.4" x2="28.7" y2="134.4"/>
			<polygon class="st11" points="35.4,131.9 42,129.2 42,132.8 40.6,133.4 40.6,133.6 36.9,135.3 36.7,135 35.4,135.6 			"/>
			<path class="st11" d="M24.9,108c0,0,3.6-6,9.8-8.8c3.9-1.7,8.1-1.2,8.8-0.9"/>
			<path class="st11" d="M47.5,100.8c0,0-3.3-2.9-9.9-0.5c-6.7,2.4-12.3,11.3-12.6,14.1"/>
			<path class="st11" d="M29.1,132.8c-0.1-0.1-0.3-0.2-0.4-0.2c-5.6-3.6-6.3-13.1-1.5-21.7c4.9-8.7,13.8-13.1,19.7-9.7
				c6,3.4,6.8,13.2,1.9,21.9c-0.3,0.5-0.6,1-0.9,1.5"/>
			<line class="st10" x1="39" y1="108.9" x2="39.1" y2="122.1"/>
			<line class="st10" x1="33" y1="118" x2="44.8" y2="113.2"/>
		</g>
		<g>
			<g>
				<g>
					<path class="st12" d="M41.9,94.5l-7.3,1.3c0,0-0.2-4.7,6.6-5.9c1.4-0.2,3,0.1,3.9,0.5C42.8,92.2,42.1,93.3,41.9,94.5"/>
					<path class="st12" d="M41,89.9l6.1-1.1c5-0.7,7.2,2.9,7.2,2.9l3.8-0.7l-4,6.9l-11.6-4.1l4.3-0.8c0,0-1-1.1-2.6-1.7
						c-1.6-0.6-3.8-0.9-6.4,0.4L41,89.9z"/>
				</g>
			</g>
			<g>
				<path class="st13" d="M46.6,92.8c0,0-4-4-9.9-1.1"/>
			</g>
		</g>
	</g>
	<g>
		<line class="st14" x1="87.2" y1="53.7" x2="101.1" y2="77"/>
		<line class="st15" x1="87.2" y1="53.7" x2="101.1" y2="77"/>
	</g>
	<line class="st2" x1="83.8" y1="156.2" x2="117.7" y2="161.3"/>
	<g>
		<polyline class="st1" points="133.9,166.8 133.9,169.2 167.6,174.3 167.7,165.3 178.7,146.5 		"/>
		<path class="st1" d="M133.8,166.9l-0.1-6.8l8.3-14.7l6.7,1.2l0.2,0.1l2.2-4l27.5,3.8c0,2.2,0.2,9.1,0.2,9.1L168,174.5"/>
	</g>
	<line class="st2" x1="133.7" y1="160.1" x2="167.7" y2="165.1"/>
	<polyline class="st1" points="233.4,168.1 233.6,160.4 225.2,159.2 227.2,155.6 193.4,150.5 182.3,169.8 189.5,171 187.1,175 
		187.3,188 	"/>
	<polyline class="st1" points="187.6,175.3 221.2,179.9 221.2,183.2 	"/>
	<line class="st1" x1="233.6" y1="160.4" x2="221.2" y2="179.9"/>
	<polyline class="st1" points="176.8,97.9 176.6,90.6 185.3,75.1 211.7,79.2 209.4,83.1 217.2,84.2 217.3,94.5 	"/>
	<polyline class="st1" points="176.6,90.6 183.7,91.6 181.9,95.1 208.6,98.9 208.8,110.6 	"/>
	<line class="st1" x1="208.9" y1="98.5" x2="217.2" y2="84.2"/>
	<line class="st1" x1="182.1" y1="95.5" x2="182.2" y2="98.8"/>
	<polyline class="st1" points="159.1,74.9 159.5,83.8 163.7,77 	"/>
	<polyline class="st1" points="127.5,99.7 128,99 128,94.2 130.7,89.5 128.1,89 129.5,86.7 124.3,85.9 130.7,74.8 156.6,78.7 
		153.9,83.4 162,84.6 162.1,90 165.1,86.2 165.3,88.6 160.8,95.6 	"/>
	<line class="st1" x1="128" y1="94.2" x2="136.4" y2="95.6"/>
	<line class="st1" x1="165" y1="86.2" x2="162.2" y2="85.9"/>
</g>
</svg>
