<?xml version="1.0" encoding="utf-8"?>
<!-- Generator: Adobe Illustrator 19.1.0, SVG Export Plug-In . SVG Version: 6.00 Build 0)  -->
<svg version="1.1" id="Layer_1" xmlns="http://www.w3.org/2000/svg" xmlns:xlink="http://www.w3.org/1999/xlink" x="0px" y="0px"
	 width="341.704px" height="393.71px" viewBox="0 0 341.704 393.71" enable-background="new 0 0 341.704 393.71"
	 xml:space="preserve">
<g>
	<rect x="178.395" y="52.453" fill="none" width="92.04" height="17.373"/>
	<text transform="matrix(1 0 0 1 178.395 62.983)" fill="#231F20" font-family="'Helvetica'" font-size="12.2636px">Front:</text>
	<path fill="none" stroke="#010101" stroke-width="0.75" stroke-miterlimit="10" d="M158.383,99.092
		c8.867,43.498,50.723,71.45,93.487,62.424c42.759-9.019,70.231-51.595,61.368-95.093C304.366,22.927,262.514-5.02,219.751,4
		C176.989,13.022,149.512,55.596,158.383,99.092z"/>
	<g>
		<g>
			
				<line fill="none" stroke="#000000" stroke-width="0.495" stroke-linecap="round" stroke-linejoin="round" stroke-miterlimit="10" x1="289.383" y1="37.832" x2="289.383" y2="38.567"/>
			
				<line fill="none" stroke="#000000" stroke-width="0.495" stroke-linecap="round" stroke-linejoin="round" stroke-miterlimit="10" x1="288.315" y1="37.861" x2="288.315" y2="38.964"/>
			
				<line fill="none" stroke="#000000" stroke-width="0.495" stroke-linecap="round" stroke-linejoin="round" stroke-miterlimit="10" x1="237.181" y1="99.082" x2="237.181" y2="85.558"/>
			
				<line fill="none" stroke="#000000" stroke-width="0.495" stroke-linecap="round" stroke-linejoin="round" stroke-miterlimit="10" x1="236.292" y1="99.527" x2="236.292" y2="86.004"/>
			
				<polyline fill="none" stroke="#000000" stroke-width="0.495" stroke-linecap="round" stroke-linejoin="round" stroke-miterlimit="10" points="
				291.504,58.2 291.51,58.205 291.475,58.314 291.386,58.409 291.262,58.489 			"/>
			
				<polyline fill="none" stroke="#000000" stroke-width="0.495" stroke-linecap="round" stroke-linejoin="round" stroke-miterlimit="10" points="
				266.942,56.306 267.165,56.115 267.621,55.838 268.069,55.666 268.528,55.595 268.974,55.657 269.371,55.852 269.694,56.178 
				269.924,56.608 270.057,57.103 270.095,57.638 			"/>
			
				<line fill="none" stroke="#000000" stroke-width="0.495" stroke-linecap="round" stroke-linejoin="round" stroke-miterlimit="10" x1="265.14" y1="60.12" x2="265.152" y2="59.881"/>
			
				<polyline fill="none" stroke="#000000" stroke-width="0.495" stroke-linecap="round" stroke-linejoin="round" stroke-miterlimit="10" points="
				268.563,61.206 268.528,61.245 268.069,61.635 267.621,61.914 267.165,62.09 266.705,62.16 266.261,62.096 265.866,61.902 
				265.544,61.579 265.31,61.147 265.178,60.647 265.14,60.12 			"/>
			
				<polyline fill="none" stroke="#000000" stroke-width="0.495" stroke-linecap="round" stroke-linejoin="round" stroke-miterlimit="10" points="
				270.095,57.638 270.057,58.21 270.051,58.234 			"/>
			
				<polyline fill="none" stroke="#000000" stroke-width="0.495" stroke-linecap="round" stroke-linejoin="round" stroke-miterlimit="10" points="
				268.051,54.942 268.332,54.83 268.806,54.697 269.267,54.662 269.694,54.716 270.092,54.863 270.437,55.101 270.734,55.421 
				270.971,55.825 271.144,56.289 271.252,56.816 271.287,57.389 			"/>
			
				<polyline fill="none" stroke="#000000" stroke-width="0.495" stroke-linecap="round" stroke-linejoin="round" stroke-miterlimit="10" points="
				269.324,62.08 269.267,62.146 268.806,62.566 268.332,62.911 267.846,63.178 267.361,63.353 266.891,63.433 266.448,63.426 
				266.032,63.326 265.664,63.132 265.336,62.853 265.07,62.49 264.865,62.056 264.742,61.647 			"/>
			
				<polyline fill="none" stroke="#000000" stroke-width="0.495" stroke-linecap="round" stroke-linejoin="round" stroke-miterlimit="10" points="
				271.287,57.389 271.252,58.003 271.208,58.325 			"/>
			
				<polyline fill="none" stroke="#000000" stroke-width="0.495" stroke-linecap="round" stroke-linejoin="round" stroke-miterlimit="10" points="
				264.648,63.039 264.665,63.445 264.742,64.159 264.897,64.82 265.115,65.42 265.395,65.959 265.734,66.425 266.132,66.811 
				266.581,67.113 267.075,67.332 267.606,67.455 268.174,67.488 268.762,67.429 269.371,67.275 269.99,67.039 270.611,66.714 
				271.229,66.301 271.827,65.817 272.408,65.259 272.964,64.638 273.481,63.959 273.961,63.231 274.391,62.47 274.769,61.675 
				275.089,60.865 275.345,60.043 275.538,59.222 275.661,58.417 275.723,57.633 275.708,56.875 275.622,56.165 275.474,55.501 
				275.256,54.898 274.977,54.359 274.634,53.895 274.233,53.509 273.789,53.207 273.294,52.991 272.76,52.868 272.197,52.833 
				271.603,52.892 270.995,53.044 270.377,53.281 269.76,53.609 269.222,53.964 			"/>
			
				<polyline fill="none" stroke="#000000" stroke-width="0.495" stroke-linecap="round" stroke-linejoin="round" stroke-miterlimit="10" points="
				209.497,85.03 209.725,84.837 210.173,84.56 210.629,84.387 211.089,84.318 211.533,84.378 211.93,84.576 212.252,84.901 
				212.481,85.326 212.619,85.826 212.657,86.361 			"/>
			
				<line fill="none" stroke="#000000" stroke-width="0.495" stroke-linecap="round" stroke-linejoin="round" stroke-miterlimit="10" x1="207.698" y1="88.841" x2="207.712" y2="88.606"/>
			
				<polyline fill="none" stroke="#000000" stroke-width="0.495" stroke-linecap="round" stroke-linejoin="round" stroke-miterlimit="10" points="
				211.122,89.928 211.089,89.969 210.629,90.358 210.173,90.635 209.725,90.812 209.267,90.877 208.818,90.818 208.423,90.624 
				208.103,90.301 207.87,89.87 207.736,89.37 207.698,88.841 			"/>
			
				<polyline fill="none" stroke="#000000" stroke-width="0.495" stroke-linecap="round" stroke-linejoin="round" stroke-miterlimit="10" points="
				212.657,86.361 212.619,86.932 212.61,86.958 			"/>
			
				<polyline fill="none" stroke="#000000" stroke-width="0.495" stroke-linecap="round" stroke-linejoin="round" stroke-miterlimit="10" points="
				210.605,83.666 210.887,83.549 211.365,83.418 211.826,83.38 212.256,83.439 212.651,83.587 212.996,83.824 213.293,84.145 
				213.53,84.546 213.704,85.012 213.808,85.54 213.848,86.112 			"/>
			
				<polyline fill="none" stroke="#000000" stroke-width="0.495" stroke-linecap="round" stroke-linejoin="round" stroke-miterlimit="10" points="
				211.885,90.803 211.826,90.867 211.365,91.287 210.887,91.633 210.403,91.895 209.924,92.074 209.453,92.158 209.009,92.148 
				208.593,92.048 208.222,91.853 207.897,91.576 207.629,91.214 207.421,90.777 207.301,90.369 			"/>
			
				<polyline fill="none" stroke="#000000" stroke-width="0.495" stroke-linecap="round" stroke-linejoin="round" stroke-miterlimit="10" points="
				213.848,86.112 213.808,86.72 213.764,87.042 			"/>
			
				<polyline fill="none" stroke="#000000" stroke-width="0.495" stroke-linecap="round" stroke-linejoin="round" stroke-miterlimit="10" points="
				207.205,91.763 207.218,92.161 207.301,92.88 207.455,93.542 207.674,94.145 207.955,94.683 208.298,95.146 208.691,95.533 
				209.142,95.834 209.632,96.047 210.164,96.178 210.733,96.206 211.323,96.146 211.93,95.998 212.546,95.754 213.169,95.43 
				213.782,95.023 214.386,94.536 214.968,93.98 215.523,93.359 216.042,92.682 216.518,91.954 216.946,91.194 217.327,90.397 
				217.643,89.587 217.9,88.765 218.093,87.947 218.222,87.142 218.275,86.354 218.266,85.597 218.181,84.886 218.029,84.224 
				217.817,83.621 217.534,83.083 217.195,82.619 216.791,82.233 216.349,81.931 215.853,81.713 215.319,81.588 214.758,81.554 
				214.164,81.616 213.557,81.768 212.938,82.006 212.315,82.331 211.779,82.682 			"/>
			
				<polyline fill="none" stroke="#000000" stroke-width="0.495" stroke-linecap="round" stroke-linejoin="round" stroke-miterlimit="10" points="
				291.237,58.532 291.248,58.526 291.257,58.511 291.262,58.489 			"/>
			
				<polyline fill="none" stroke="#000000" stroke-width="0.495" stroke-linecap="round" stroke-linejoin="round" stroke-miterlimit="10" points="
				192.481,107.88 192.475,107.907 192.463,107.918 192.453,107.918 			"/>
			
				<polyline fill="none" stroke="#000000" stroke-width="0.495" stroke-linecap="round" stroke-linejoin="round" stroke-miterlimit="10" points="
				289.728,68.62 289.745,68.683 289.79,68.739 289.848,68.778 289.942,68.807 			"/>
			
				<line fill="none" stroke="#000000" stroke-width="0.495" stroke-linecap="round" stroke-linejoin="round" stroke-miterlimit="10" x1="289.728" y1="67.893" x2="289.728" y2="68.62"/>
			
				<polyline fill="none" stroke="#000000" stroke-width="0.495" stroke-linecap="round" stroke-linejoin="round" stroke-miterlimit="10" points="
				289.942,67.646 289.848,67.695 289.79,67.756 289.745,67.826 289.728,67.893 			"/>
			
				<polyline fill="none" stroke="#000000" stroke-width="0.495" stroke-linecap="round" stroke-linejoin="round" stroke-miterlimit="10" points="
				289.728,61.096 289.745,61.162 289.79,61.216 289.848,61.255 289.942,61.286 			"/>
			
				<line fill="none" stroke="#000000" stroke-width="0.495" stroke-linecap="round" stroke-linejoin="round" stroke-miterlimit="10" x1="289.728" y1="60.37" x2="289.728" y2="61.096"/>
			
				<polyline fill="none" stroke="#000000" stroke-width="0.495" stroke-linecap="round" stroke-linejoin="round" stroke-miterlimit="10" points="
				289.942,60.124 289.848,60.174 289.79,60.232 289.745,60.301 289.728,60.37 			"/>
			
				<line fill="none" stroke="#000000" stroke-width="0.495" stroke-linecap="round" stroke-linejoin="round" stroke-miterlimit="10" x1="289.383" y1="75.931" x2="290.159" y2="76.158"/>
			
				<line fill="none" stroke="#000000" stroke-width="0.495" stroke-linecap="round" stroke-linejoin="round" stroke-miterlimit="10" x1="289.901" y1="59.946" x2="290.159" y2="60.019"/>
			
				<line fill="none" stroke="#000000" stroke-width="0.495" stroke-linecap="round" stroke-linejoin="round" stroke-miterlimit="10" x1="289.901" y1="67.468" x2="290.159" y2="67.543"/>
			
				<polyline fill="none" stroke="#000000" stroke-width="0.495" stroke-linecap="round" stroke-linejoin="round" stroke-miterlimit="10" points="
				290.159,76.158 290.223,76.134 290.284,76.108 290.349,76.089 290.412,76.063 290.472,76.045 290.536,76.021 290.6,76.001 
				290.659,75.976 			"/>
			
				<line fill="none" stroke="#000000" stroke-width="0.495" stroke-linecap="round" stroke-linejoin="round" stroke-miterlimit="10" x1="290.159" y1="38.054" x2="290.159" y2="38.247"/>
			
				<line fill="none" stroke="#000000" stroke-width="0.495" stroke-linecap="round" stroke-linejoin="round" stroke-miterlimit="10" x1="290.659" y1="38.07" x2="290.659" y2="37.877"/>
			
				<line fill="none" stroke="#000000" stroke-width="0.495" stroke-linecap="round" stroke-linejoin="round" stroke-miterlimit="10" x1="290.659" y1="75.976" x2="290.659" y2="58.818"/>
			
				<polyline fill="none" stroke="#000000" stroke-width="0.495" stroke-linecap="round" stroke-linejoin="round" stroke-miterlimit="10" points="
				290.05,68.794 290.066,68.789 290.081,68.783 290.09,68.778 290.106,68.772 290.119,68.768 290.138,68.763 290.144,68.758 
				290.159,68.754 			"/>
			
				<polyline fill="none" stroke="#000000" stroke-width="0.495" stroke-linecap="round" stroke-linejoin="round" stroke-miterlimit="10" points="
				290.05,68.794 289.992,68.807 289.942,68.807 			"/>
			
				<polyline fill="none" stroke="#000000" stroke-width="0.495" stroke-linecap="round" stroke-linejoin="round" stroke-miterlimit="10" points="
				289.942,67.646 289.992,67.605 290.05,67.582 			"/>
			
				<polyline fill="none" stroke="#000000" stroke-width="0.495" stroke-linecap="round" stroke-linejoin="round" stroke-miterlimit="10" points="
				290.159,67.543 290.144,67.546 290.138,67.553 290.119,67.558 290.106,67.563 290.09,67.567 290.081,67.572 290.066,67.577 
				290.05,67.582 			"/>
			
				<polyline fill="none" stroke="#000000" stroke-width="0.495" stroke-linecap="round" stroke-linejoin="round" stroke-miterlimit="10" points="
				290.05,61.268 290.066,61.264 290.081,61.262 290.09,61.255 290.106,61.25 290.119,61.245 290.138,61.24 290.144,61.235 
				290.159,61.231 			"/>
			
				<polyline fill="none" stroke="#000000" stroke-width="0.495" stroke-linecap="round" stroke-linejoin="round" stroke-miterlimit="10" points="
				290.05,61.268 289.992,61.286 289.942,61.286 			"/>
			
				<polyline fill="none" stroke="#000000" stroke-width="0.495" stroke-linecap="round" stroke-linejoin="round" stroke-miterlimit="10" points="
				289.942,60.124 289.992,60.084 290.05,60.053 			"/>
			
				<polyline fill="none" stroke="#000000" stroke-width="0.495" stroke-linecap="round" stroke-linejoin="round" stroke-miterlimit="10" points="
				290.159,60.015 290.144,60.019 290.138,60.025 290.119,60.03 290.106,60.034 290.09,60.04 290.081,60.043 290.066,60.05 
				290.05,60.053 			"/>
			
				<line fill="none" stroke="#000000" stroke-width="0.495" stroke-linecap="round" stroke-linejoin="round" stroke-miterlimit="10" x1="290.159" y1="59.071" x2="290.159" y2="60.019"/>
			
				<line fill="none" stroke="#000000" stroke-width="0.495" stroke-linecap="round" stroke-linejoin="round" stroke-miterlimit="10" x1="189.491" y1="118.76" x2="189.491" y2="118.028"/>
			
				<polyline fill="none" stroke="#000000" stroke-width="0.495" stroke-linecap="round" stroke-linejoin="round" stroke-miterlimit="10" points="
				189.491,118.76 189.485,118.835 189.474,118.917 189.453,119.001 189.429,119.085 			"/>
			
				<polyline fill="none" stroke="#000000" stroke-width="0.495" stroke-linecap="round" stroke-linejoin="round" stroke-miterlimit="10" points="
				189.429,117.918 189.453,117.91 189.474,117.928 189.485,117.968 189.491,118.028 			"/>
			
				<line fill="none" stroke="#000000" stroke-width="0.495" stroke-linecap="round" stroke-linejoin="round" stroke-miterlimit="10" x1="189.491" y1="111.236" x2="189.491" y2="110.504"/>
			
				<polyline fill="none" stroke="#000000" stroke-width="0.495" stroke-linecap="round" stroke-linejoin="round" stroke-miterlimit="10" points="
				189.491,111.236 189.485,111.312 189.474,111.393 189.453,111.481 189.429,111.562 			"/>
			
				<polyline fill="none" stroke="#000000" stroke-width="0.495" stroke-linecap="round" stroke-linejoin="round" stroke-miterlimit="10" points="
				189.414,110.353 189.453,110.387 189.474,110.406 189.485,110.445 189.491,110.504 			"/>
			
				<line fill="none" stroke="#000000" stroke-width="0.495" stroke-linecap="round" stroke-linejoin="round" stroke-miterlimit="10" x1="217.986" y1="70.802" x2="221.692" y2="68.763"/>
			
				<line fill="none" stroke="#000000" stroke-width="0.495" stroke-linecap="round" stroke-linejoin="round" stroke-miterlimit="10" x1="217.986" y1="70.809" x2="217.986" y2="70.802"/>
			
				<polyline fill="none" stroke="#000000" stroke-width="0.495" stroke-linecap="round" stroke-linejoin="round" stroke-miterlimit="10" points="
				188.298,125.922 188.338,126.134 188.528,126.374 			"/>
			
				<line fill="none" stroke="#000000" stroke-width="0.495" stroke-linecap="round" stroke-linejoin="round" stroke-miterlimit="10" x1="188.528" y1="126.374" x2="189.015" y2="126.798"/>
			
				<polyline fill="none" stroke="#000000" stroke-width="0.495" stroke-linecap="round" stroke-linejoin="round" stroke-miterlimit="10" points="
				288.315,37.861 288.434,37.821 288.563,37.791 288.702,37.777 288.839,37.766 288.979,37.766 289.121,37.777 289.257,37.802 
				289.383,37.832 			"/>
			
				<line fill="none" stroke="#000000" stroke-width="0.495" stroke-linecap="round" stroke-linejoin="round" stroke-miterlimit="10" x1="188.528" y1="88.277" x2="189.015" y2="88.699"/>
			
				<polyline fill="none" stroke="#000000" stroke-width="0.495" stroke-linecap="round" stroke-linejoin="round" stroke-miterlimit="10" points="
				188.633,87.29 188.496,87.397 188.39,87.517 188.322,87.644 188.288,87.774 188.294,87.907 188.338,88.035 188.417,88.16 
				188.528,88.277 			"/>
			
				<polyline fill="none" stroke="#000000" stroke-width="0.495" stroke-linecap="round" stroke-linejoin="round" stroke-miterlimit="10" points="
				287.841,37.683 282.443,39.68 277.109,41.712 271.836,43.783 266.626,45.897 261.477,48.048 256.395,50.233 251.377,52.463 
				246.424,54.727 241.54,57.023 236.733,59.363 231.988,61.729 227.315,64.137 222.713,66.578 218.187,69.056 213.74,71.565 
				209.36,74.106 205.059,76.681 200.834,79.287 196.692,81.923 192.624,84.591 188.633,87.29 			"/>
			
				<polyline fill="none" stroke="#000000" stroke-width="0.495" stroke-linecap="round" stroke-linejoin="round" stroke-miterlimit="10" points="
				289.822,37.634 289.588,37.576 289.339,37.534 289.076,37.516 288.816,37.511 288.56,37.529 288.301,37.564 288.067,37.615 
				287.841,37.683 			"/>
			
				<line fill="none" stroke="#000000" stroke-width="0.495" stroke-linecap="round" stroke-linejoin="round" stroke-miterlimit="10" x1="290.659" y1="37.877" x2="289.822" y2="37.634"/>
			
				<polyline fill="none" stroke="#000000" stroke-width="0.495" stroke-linecap="round" stroke-linejoin="round" stroke-miterlimit="10" points="
				290.159,38.054 290.223,38.035 290.284,38.01 290.349,37.989 290.412,37.965 290.472,37.941 290.536,37.921 290.6,37.897 
				290.659,37.877 			"/>
			
				<line fill="none" stroke="#000000" stroke-width="0.495" stroke-linecap="round" stroke-linejoin="round" stroke-miterlimit="10" x1="189.373" y1="107.831" x2="189.373" y2="110.315"/>
			
				<line fill="none" stroke="#000000" stroke-width="0.495" stroke-linecap="round" stroke-linejoin="round" stroke-miterlimit="10" x1="189.373" y1="111.624" x2="189.429" y2="111.562"/>
			
				<line fill="none" stroke="#000000" stroke-width="0.495" stroke-linecap="round" stroke-linejoin="round" stroke-miterlimit="10" x1="189.373" y1="111.624" x2="189.373" y2="117.935"/>
			
				<line fill="none" stroke="#000000" stroke-width="0.495" stroke-linecap="round" stroke-linejoin="round" stroke-miterlimit="10" x1="189.429" y1="117.918" x2="189.373" y2="117.935"/>
			
				<line fill="none" stroke="#000000" stroke-width="0.495" stroke-linecap="round" stroke-linejoin="round" stroke-miterlimit="10" x1="189.373" y1="119.145" x2="189.429" y2="119.085"/>
			
				<line fill="none" stroke="#000000" stroke-width="0.495" stroke-linecap="round" stroke-linejoin="round" stroke-miterlimit="10" x1="189.373" y1="119.145" x2="189.373" y2="126.545"/>
			
				<line fill="none" stroke="#000000" stroke-width="0.495" stroke-linecap="round" stroke-linejoin="round" stroke-miterlimit="10" x1="189.015" y1="126.798" x2="189.373" y2="126.545"/>
			
				<polyline fill="none" stroke="#000000" stroke-width="0.495" stroke-linecap="round" stroke-linejoin="round" stroke-miterlimit="10" points="
				189.015,88.699 189.06,88.668 189.104,88.634 189.148,88.606 189.198,88.57 189.242,88.539 189.286,88.51 189.331,88.475 
				189.373,88.446 			"/>
			
				<line fill="none" stroke="#000000" stroke-width="0.495" stroke-linecap="round" stroke-linejoin="round" stroke-miterlimit="10" x1="189.373" y1="88.446" x2="189.373" y2="88.703"/>
			
				<line fill="none" stroke="#000000" stroke-width="0.495" stroke-linecap="round" stroke-linejoin="round" stroke-miterlimit="10" x1="289.764" y1="68.834" x2="290.037" y2="68.972"/>
			
				<line fill="none" stroke="#000000" stroke-width="0.495" stroke-linecap="round" stroke-linejoin="round" stroke-miterlimit="10" x1="289.764" y1="68.758" x2="289.764" y2="68.834"/>
			
				<line fill="none" stroke="#000000" stroke-width="0.495" stroke-linecap="round" stroke-linejoin="round" stroke-miterlimit="10" x1="289.764" y1="68.834" x2="289.676" y2="68.882"/>
			
				<line fill="none" stroke="#000000" stroke-width="0.495" stroke-linecap="round" stroke-linejoin="round" stroke-miterlimit="10" x1="289.764" y1="61.31" x2="290.037" y2="61.448"/>
			
				<line fill="none" stroke="#000000" stroke-width="0.495" stroke-linecap="round" stroke-linejoin="round" stroke-miterlimit="10" x1="289.764" y1="61.235" x2="289.764" y2="61.31"/>
			
				<line fill="none" stroke="#000000" stroke-width="0.495" stroke-linecap="round" stroke-linejoin="round" stroke-miterlimit="10" x1="289.764" y1="61.31" x2="289.676" y2="61.359"/>
			
				<polyline fill="none" stroke="#000000" stroke-width="0.495" stroke-linecap="round" stroke-linejoin="round" stroke-miterlimit="10" points="
				237.181,99.082 237.131,99.157 237.058,99.231 236.965,99.301 236.855,99.366 236.733,99.418 236.593,99.462 236.444,99.498 
				236.292,99.527 			"/>
			
				<line fill="none" stroke="#000000" stroke-width="0.495" stroke-linecap="round" stroke-linejoin="round" stroke-miterlimit="10" x1="237.907" y1="97.729" x2="237.181" y2="99.082"/>
			
				<polyline fill="none" stroke="#000000" stroke-width="0.495" stroke-linecap="round" stroke-linejoin="round" stroke-miterlimit="10" points="
				290.037,75.667 284.531,77.688 279.081,79.755 273.698,81.867 268.379,84.014 263.133,86.204 257.945,88.43 252.831,90.693 
				247.781,93.003 242.813,95.346 237.907,97.729 			"/>
			
				<line fill="none" stroke="#000000" stroke-width="0.495" stroke-linecap="round" stroke-linejoin="round" stroke-miterlimit="10" x1="290.037" y1="38.587" x2="290.037" y2="38.786"/>
			
				<line fill="none" stroke="#000000" stroke-width="0.495" stroke-linecap="round" stroke-linejoin="round" stroke-miterlimit="10" x1="290.037" y1="59.13" x2="290.037" y2="59.698"/>
			
				<polyline fill="none" stroke="#000000" stroke-width="0.495" stroke-linecap="round" stroke-linejoin="round" stroke-miterlimit="10" points="
				289.676,60.025 289.72,60.01 289.764,59.995 289.809,59.975 289.857,59.959 289.901,59.946 289.948,59.926 289.992,59.912 
				290.037,59.896 			"/>
			
				<line fill="none" stroke="#000000" stroke-width="0.495" stroke-linecap="round" stroke-linejoin="round" stroke-miterlimit="10" x1="289.676" y1="61.579" x2="289.676" y2="60.025"/>
			
				<polyline fill="none" stroke="#000000" stroke-width="0.495" stroke-linecap="round" stroke-linejoin="round" stroke-miterlimit="10" points="
				290.037,61.448 289.992,61.461 289.948,61.483 289.901,61.499 289.857,61.514 289.809,61.533 289.764,61.548 289.72,61.561 
				289.676,61.579 			"/>
			
				<line fill="none" stroke="#000000" stroke-width="0.495" stroke-linecap="round" stroke-linejoin="round" stroke-miterlimit="10" x1="290.037" y1="61.641" x2="290.037" y2="61.448"/>
			
				<line fill="none" stroke="#000000" stroke-width="0.495" stroke-linecap="round" stroke-linejoin="round" stroke-miterlimit="10" x1="290.037" y1="61.641" x2="290.037" y2="67.219"/>
			
				<line fill="none" stroke="#000000" stroke-width="0.495" stroke-linecap="round" stroke-linejoin="round" stroke-miterlimit="10" x1="290.037" y1="67.419" x2="290.037" y2="67.219"/>
			
				<polyline fill="none" stroke="#000000" stroke-width="0.495" stroke-linecap="round" stroke-linejoin="round" stroke-miterlimit="10" points="
				289.676,67.546 289.72,67.533 289.764,67.519 289.809,67.498 289.857,67.484 289.901,67.468 289.948,67.448 289.992,67.433 
				290.037,67.419 			"/>
			
				<line fill="none" stroke="#000000" stroke-width="0.495" stroke-linecap="round" stroke-linejoin="round" stroke-miterlimit="10" x1="289.676" y1="69.106" x2="289.676" y2="67.546"/>
			
				<polyline fill="none" stroke="#000000" stroke-width="0.495" stroke-linecap="round" stroke-linejoin="round" stroke-miterlimit="10" points="
				290.037,68.972 289.992,68.987 289.948,69.006 289.901,69.021 289.857,69.036 289.809,69.056 289.764,69.069 289.72,69.086 
				289.676,69.106 			"/>
			
				<line fill="none" stroke="#000000" stroke-width="0.495" stroke-linecap="round" stroke-linejoin="round" stroke-miterlimit="10" x1="290.037" y1="69.162" x2="290.037" y2="68.972"/>
			
				<line fill="none" stroke="#000000" stroke-width="0.495" stroke-linecap="round" stroke-linejoin="round" stroke-miterlimit="10" x1="290.037" y1="69.162" x2="290.037" y2="75.667"/>
			
				<line fill="none" stroke="#000000" stroke-width="0.495" stroke-linecap="round" stroke-linejoin="round" stroke-miterlimit="10" x1="237.907" y1="97.729" x2="237.907" y2="85.199"/>
			
				<line fill="none" stroke="#000000" stroke-width="0.495" stroke-linecap="round" stroke-linejoin="round" stroke-miterlimit="10" x1="236.292" y1="99.527" x2="233.582" y2="99.886"/>
			
				<polyline fill="none" stroke="#000000" stroke-width="0.495" stroke-linecap="round" stroke-linejoin="round" stroke-miterlimit="10" points="
				190.617,120.08 190.731,119.995 190.825,119.871 190.889,119.719 190.914,119.57 190.889,119.443 190.825,119.353 
				190.731,119.323 190.617,119.353 			"/>
			
				<polyline fill="none" stroke="#000000" stroke-width="0.495" stroke-linecap="round" stroke-linejoin="round" stroke-miterlimit="10" points="
				190.33,119.956 190.339,119.995 190.403,120.08 190.504,120.109 190.617,120.08 			"/>
			
				<polyline fill="none" stroke="#000000" stroke-width="0.495" stroke-linecap="round" stroke-linejoin="round" stroke-miterlimit="10" points="
				191.261,119.398 191.217,119.145 191.106,118.96 191.1,118.959 			"/>
			
				<polyline fill="none" stroke="#000000" stroke-width="0.495" stroke-linecap="round" stroke-linejoin="round" stroke-miterlimit="10" points="
				190.399,120.568 190.504,120.548 190.724,120.441 190.937,120.237 191.106,119.975 191.217,119.684 191.261,119.398 			"/>
			
				<line fill="none" stroke="#000000" stroke-width="0.495" stroke-linecap="round" stroke-linejoin="round" stroke-miterlimit="10" x1="189.453" y1="119.25" x2="189.464" y2="119.259"/>
			
				<line fill="none" stroke="#000000" stroke-width="0.495" stroke-linecap="round" stroke-linejoin="round" stroke-miterlimit="10" x1="189.373" y1="125.88" x2="189.464" y2="125.957"/>
			
				<line fill="none" stroke="#000000" stroke-width="0.495" stroke-linecap="round" stroke-linejoin="round" stroke-miterlimit="10" x1="189.73" y1="119.072" x2="189.511" y2="118.96"/>
			
				<line fill="none" stroke="#000000" stroke-width="0.495" stroke-linecap="round" stroke-linejoin="round" stroke-miterlimit="10" x1="189.511" y1="117.673" x2="189.511" y2="118.96"/>
			
				<line fill="none" stroke="#000000" stroke-width="0.495" stroke-linecap="round" stroke-linejoin="round" stroke-miterlimit="10" x1="189.511" y1="118.96" x2="189.461" y2="118.987"/>
			
				<line fill="none" stroke="#000000" stroke-width="0.495" stroke-linecap="round" stroke-linejoin="round" stroke-miterlimit="10" x1="189.453" y1="119.25" x2="189.373" y2="119.208"/>
			
				<line fill="none" stroke="#000000" stroke-width="0.495" stroke-linecap="round" stroke-linejoin="round" stroke-miterlimit="10" x1="189.453" y1="111.725" x2="189.464" y2="111.737"/>
			
				<line fill="none" stroke="#000000" stroke-width="0.495" stroke-linecap="round" stroke-linejoin="round" stroke-miterlimit="10" x1="189.464" y1="117.707" x2="189.453" y2="117.697"/>
			
				<line fill="none" stroke="#000000" stroke-width="0.495" stroke-linecap="round" stroke-linejoin="round" stroke-miterlimit="10" x1="189.73" y1="111.547" x2="189.511" y2="111.439"/>
			
				<line fill="none" stroke="#000000" stroke-width="0.495" stroke-linecap="round" stroke-linejoin="round" stroke-miterlimit="10" x1="189.511" y1="110.149" x2="189.511" y2="111.439"/>
			
				<line fill="none" stroke="#000000" stroke-width="0.495" stroke-linecap="round" stroke-linejoin="round" stroke-miterlimit="10" x1="189.511" y1="111.439" x2="189.461" y2="111.464"/>
			
				<line fill="none" stroke="#000000" stroke-width="0.495" stroke-linecap="round" stroke-linejoin="round" stroke-miterlimit="10" x1="189.373" y1="110.134" x2="189.453" y2="110.176"/>
			
				<line fill="none" stroke="#000000" stroke-width="0.495" stroke-linecap="round" stroke-linejoin="round" stroke-miterlimit="10" x1="189.453" y1="111.725" x2="189.373" y2="111.686"/>
			
				<line fill="none" stroke="#000000" stroke-width="0.495" stroke-linecap="round" stroke-linejoin="round" stroke-miterlimit="10" x1="189.453" y1="110.176" x2="189.453" y2="109.977"/>
			
				<line fill="none" stroke="#000000" stroke-width="0.495" stroke-linecap="round" stroke-linejoin="round" stroke-miterlimit="10" x1="189.464" y1="110.178" x2="189.453" y2="110.176"/>
			
				<polyline fill="none" stroke="#000000" stroke-width="0.495" stroke-linecap="round" stroke-linejoin="round" stroke-miterlimit="10" points="
				189.373,88.579 193.256,85.94 197.364,83.238 201.549,80.563 205.816,77.922 210.161,75.313 214.584,72.738 219.088,70.197 
				223.667,67.691 228.319,65.214 233.05,62.776 237.85,60.381 242.723,58.017 247.664,55.69 252.682,53.401 257.763,51.148 
				262.916,48.939 268.133,46.765 273.413,44.628 278.763,42.538 284.169,40.481 289.641,38.474 			"/>
			
				<polyline fill="none" stroke="#000000" stroke-width="0.495" stroke-linecap="round" stroke-linejoin="round" stroke-miterlimit="10" points="
				236.292,62.446 236.444,62.418 236.593,62.383 236.733,62.34 236.855,62.283 236.965,62.217 237.058,62.151 237.131,62.075 
				237.181,61.996 			"/>
			
				<line fill="none" stroke="#000000" stroke-width="0.495" stroke-linecap="round" stroke-linejoin="round" stroke-miterlimit="10" x1="233.582" y1="62.808" x2="236.292" y2="62.446"/>
			
				<line fill="none" stroke="#000000" stroke-width="0.495" stroke-linecap="round" stroke-linejoin="round" stroke-miterlimit="10" x1="289.641" y1="38.474" x2="290.037" y2="38.587"/>
			
				<line fill="none" stroke="#000000" stroke-width="0.495" stroke-linecap="round" stroke-linejoin="round" stroke-miterlimit="10" x1="237.181" y1="61.996" x2="237.907" y2="60.647"/>
			
				<polyline fill="none" stroke="#000000" stroke-width="0.495" stroke-linecap="round" stroke-linejoin="round" stroke-miterlimit="10" points="
				191.392,119.463 191.363,119.742 191.278,120.03 191.141,120.295 190.971,120.514 190.79,120.658 190.61,120.707 
				190.462,120.654 190.359,120.51 190.31,120.288 190.304,120.208 			"/>
			
				<polyline fill="none" stroke="#000000" stroke-width="0.495" stroke-linecap="round" stroke-linejoin="round" stroke-miterlimit="10" points="
				190.304,120.208 190.336,119.927 190.424,119.641 190.558,119.374 190.724,119.154 190.907,119.01 191.087,118.96 
				191.234,119.017 191.343,119.158 191.392,119.382 191.392,119.463 			"/>
			
				<polyline fill="none" stroke="#000000" stroke-width="0.495" stroke-linecap="round" stroke-linejoin="round" stroke-miterlimit="10" points="
				189.73,119.072 189.695,119.095 189.669,119.119 189.634,119.139 189.599,119.163 189.564,119.19 189.528,119.208 
				189.499,119.232 189.464,119.259 			"/>
			
				<line fill="none" stroke="#000000" stroke-width="0.495" stroke-linecap="round" stroke-linejoin="round" stroke-miterlimit="10" x1="189.73" y1="117.52" x2="189.73" y2="119.072"/>
			
				<polyline fill="none" stroke="#000000" stroke-width="0.495" stroke-linecap="round" stroke-linejoin="round" stroke-miterlimit="10" points="
				189.464,117.707 189.499,117.683 189.528,117.658 189.564,117.633 189.599,117.613 189.634,117.588 189.669,117.564 
				189.695,117.543 189.73,117.52 			"/>
			
				<line fill="none" stroke="#000000" stroke-width="0.495" stroke-linecap="round" stroke-linejoin="round" stroke-miterlimit="10" x1="189.464" y1="117.707" x2="189.464" y2="111.737"/>
			
				<polyline fill="none" stroke="#000000" stroke-width="0.495" stroke-linecap="round" stroke-linejoin="round" stroke-miterlimit="10" points="
				189.73,111.547 189.695,111.573 189.669,111.598 189.634,111.618 189.599,111.642 189.564,111.666 189.528,111.686 
				189.499,111.71 189.464,111.737 			"/>
			
				<line fill="none" stroke="#000000" stroke-width="0.495" stroke-linecap="round" stroke-linejoin="round" stroke-miterlimit="10" x1="189.73" y1="109.996" x2="189.73" y2="111.547"/>
			
				<polyline fill="none" stroke="#000000" stroke-width="0.495" stroke-linecap="round" stroke-linejoin="round" stroke-miterlimit="10" points="
				189.464,110.178 189.499,110.159 189.528,110.134 189.564,110.11 189.599,110.089 189.634,110.065 189.669,110.04 
				189.695,110.02 189.73,109.996 			"/>
			
				<line fill="none" stroke="#000000" stroke-width="0.495" stroke-linecap="round" stroke-linejoin="round" stroke-miterlimit="10" x1="189.464" y1="110.178" x2="189.464" y2="107.839"/>
			
				<line fill="none" stroke="#000000" stroke-width="0.495" stroke-linecap="round" stroke-linejoin="round" stroke-miterlimit="10" x1="233.582" y1="99.886" x2="233.582" y2="87.359"/>
			
				<polyline fill="none" stroke="#000000" stroke-width="0.495" stroke-linecap="round" stroke-linejoin="round" stroke-miterlimit="10" points="
				233.582,99.886 228.819,102.34 224.132,104.827 219.521,107.352 214.986,109.905 210.53,112.502 206.156,115.127 
				201.855,117.786 197.645,120.479 193.513,123.205 189.464,125.957 			"/>
			
				<line fill="none" stroke="#000000" stroke-width="0.495" stroke-linecap="round" stroke-linejoin="round" stroke-miterlimit="10" x1="189.464" y1="125.957" x2="189.464" y2="119.259"/>
			
				<polyline fill="none" stroke="#000000" stroke-width="0.495" stroke-linecap="round" stroke-linejoin="round" stroke-miterlimit="10" points="
				290.817,38.054 290.814,38.045 290.794,38.035 290.771,38.028 290.754,38.035 			"/>
			
				<line fill="none" stroke="#000000" stroke-width="0.495" stroke-linecap="round" stroke-linejoin="round" stroke-miterlimit="10" x1="290.094" y1="38.265" x2="290.094" y2="38.764"/>
			
				<line fill="none" stroke="#000000" stroke-width="0.495" stroke-linecap="round" stroke-linejoin="round" stroke-miterlimit="10" x1="291.51" y1="39.528" x2="291.478" y2="39.398"/>
			
				<polyline fill="none" stroke="#000000" stroke-width="0.495" stroke-linecap="round" stroke-linejoin="round" stroke-miterlimit="10" points="
				269.222,53.964 269.142,54.019 269.075,54.068 			"/>
			
				<line fill="none" stroke="#000000" stroke-width="0.495" stroke-linecap="round" stroke-linejoin="round" stroke-miterlimit="10" x1="264.648" y1="62.691" x2="264.648" y2="63.039"/>
			
				<line fill="none" stroke="#000000" stroke-width="0.495" stroke-linecap="round" stroke-linejoin="round" stroke-miterlimit="10" x1="256.673" y1="70.468" x2="256.731" y2="70.497"/>
			
				<line fill="none" stroke="#000000" stroke-width="0.495" stroke-linecap="round" stroke-linejoin="round" stroke-miterlimit="10" x1="256.731" y1="64.309" x2="256.673" y2="64.28"/>
			
				<line fill="none" stroke="#000000" stroke-width="0.495" stroke-linecap="round" stroke-linejoin="round" stroke-miterlimit="10" x1="255.88" y1="71.833" x2="255.941" y2="71.862"/>
			
				<line fill="none" stroke="#000000" stroke-width="0.495" stroke-linecap="round" stroke-linejoin="round" stroke-miterlimit="10" x1="227.741" y1="85.906" x2="227.801" y2="85.935"/>
			
				<line fill="none" stroke="#000000" stroke-width="0.495" stroke-linecap="round" stroke-linejoin="round" stroke-miterlimit="10" x1="255.88" y1="71.833" x2="227.741" y2="85.906"/>
			
				<polyline fill="none" stroke="#000000" stroke-width="0.495" stroke-linecap="round" stroke-linejoin="round" stroke-miterlimit="10" points="
				227.741,85.906 227.587,85.959 227.441,85.979 227.301,85.959 227.271,85.948 			"/>
			
				<polyline fill="none" stroke="#000000" stroke-width="0.495" stroke-linecap="round" stroke-linejoin="round" stroke-miterlimit="10" points="
				256.409,63.688 256.439,63.706 256.537,63.805 256.613,63.94 256.658,64.096 256.673,64.28 			"/>
			
				<line fill="none" stroke="#000000" stroke-width="0.495" stroke-linecap="round" stroke-linejoin="round" stroke-miterlimit="10" x1="256.673" y1="64.28" x2="256.673" y2="70.468"/>
			
				<polyline fill="none" stroke="#000000" stroke-width="0.495" stroke-linecap="round" stroke-linejoin="round" stroke-miterlimit="10" points="
				256.673,70.468 256.658,70.666 256.613,70.868 256.537,71.071 256.439,71.27 256.319,71.453 256.181,71.61 256.034,71.738 
				255.88,71.833 			"/>
			
				<polyline fill="none" stroke="#000000" stroke-width="0.495" stroke-linecap="round" stroke-linejoin="round" stroke-miterlimit="10" points="
				211.779,82.682 211.703,82.741 211.639,82.79 			"/>
			
				<line fill="none" stroke="#000000" stroke-width="0.495" stroke-linecap="round" stroke-linejoin="round" stroke-miterlimit="10" x1="207.209" y1="91.411" x2="207.205" y2="91.763"/>
			
				<polyline fill="none" stroke="#000000" stroke-width="0.495" stroke-linecap="round" stroke-linejoin="round" stroke-miterlimit="10" points="
				291.203,58.532 291.228,58.536 291.237,58.532 			"/>
			
				<polyline fill="none" stroke="#000000" stroke-width="0.495" stroke-linecap="round" stroke-linejoin="round" stroke-miterlimit="10" points="
				192.425,107.924 192.288,107.98 192.109,108.018 191.901,108.042 191.694,108.038 			"/>
			
				<polyline fill="none" stroke="#000000" stroke-width="0.495" stroke-linecap="round" stroke-linejoin="round" stroke-miterlimit="10" points="
				192.453,107.918 192.447,107.924 192.425,107.924 			"/>
			
				<polyline fill="none" stroke="#000000" stroke-width="0.495" stroke-linecap="round" stroke-linejoin="round" stroke-miterlimit="10" points="
				189.227,107.777 189.233,107.795 189.236,107.811 189.246,107.822 189.254,107.822 			"/>
			
				<polyline fill="none" stroke="#000000" stroke-width="0.495" stroke-linecap="round" stroke-linejoin="round" stroke-miterlimit="10" points="
				191.694,108.038 191.682,108.048 191.675,108.042 191.67,108.029 191.67,108.005 			"/>
			
				<polyline fill="none" stroke="#000000" stroke-width="0.495" stroke-linecap="round" stroke-linejoin="round" stroke-miterlimit="10" points="
				219.67,85.826 219.622,84.877 219.465,83.966 219.211,83.117 218.936,82.52 218.607,81.989 218.206,81.519 217.757,81.135 
				217.256,80.834 216.715,80.622 216.145,80.496 215.548,80.463 214.746,80.547 213.939,80.766 213.152,81.1 212.354,81.554 
				211.548,82.144 210.748,82.858 210.15,83.497 209.581,84.184 209.038,84.941 208.537,85.746 208.09,86.583 207.692,87.444 
				207.361,88.306 207.091,89.178 206.829,90.29 206.68,91.35 206.63,92.345 			"/>
			
				<polyline fill="none" stroke="#000000" stroke-width="0.495" stroke-linecap="round" stroke-linejoin="round" stroke-miterlimit="10" points="
				206.63,92.345 206.68,93.289 206.829,94.204 207.091,95.056 207.361,95.653 207.692,96.18 208.09,96.651 208.537,97.035 
				209.038,97.336 209.581,97.549 210.15,97.672 210.748,97.708 211.548,97.624 212.354,97.407 213.152,97.069 213.939,96.617 
				214.746,96.027 215.548,95.313 216.145,94.674 216.715,93.986 217.256,93.224 217.757,92.425 218.206,91.589 218.607,90.726 
				218.936,89.865 219.211,88.996 219.465,87.881 219.622,86.82 219.67,85.826 			"/>
			
				<polyline fill="none" stroke="#000000" stroke-width="0.495" stroke-linecap="round" stroke-linejoin="round" stroke-miterlimit="10" points="
				255.941,71.862 256.09,71.769 256.243,71.64 256.38,71.483 256.5,71.299 256.597,71.102 256.673,70.897 256.717,70.695 
				256.731,70.497 			"/>
			
				<line fill="none" stroke="#000000" stroke-width="0.495" stroke-linecap="round" stroke-linejoin="round" stroke-miterlimit="10" x1="256.731" y1="70.497" x2="256.731" y2="64.309"/>
			
				<polyline fill="none" stroke="#000000" stroke-width="0.495" stroke-linecap="round" stroke-linejoin="round" stroke-miterlimit="10" points="
				256.731,64.309 256.717,64.126 256.673,63.97 256.597,63.837 256.5,63.737 256.38,63.677 256.243,63.657 256.09,63.677 
				255.941,63.737 			"/>
			
				<line fill="none" stroke="#000000" stroke-width="0.495" stroke-linecap="round" stroke-linejoin="round" stroke-miterlimit="10" x1="255.941" y1="63.737" x2="227.801" y2="77.801"/>
			
				<polyline fill="none" stroke="#000000" stroke-width="0.495" stroke-linecap="round" stroke-linejoin="round" stroke-miterlimit="10" points="
				227.801,77.801 227.646,77.897 227.498,78.026 227.361,78.183 227.242,78.367 227.143,78.564 227.07,78.767 227.026,78.975 
				227.01,79.169 			"/>
			
				<line fill="none" stroke="#000000" stroke-width="0.495" stroke-linecap="round" stroke-linejoin="round" stroke-miterlimit="10" x1="227.01" y1="79.169" x2="227.01" y2="85.356"/>
			
				<polyline fill="none" stroke="#000000" stroke-width="0.495" stroke-linecap="round" stroke-linejoin="round" stroke-miterlimit="10" points="
				227.01,85.356 227.026,85.54 227.07,85.697 227.143,85.831 227.242,85.931 227.361,85.99 227.498,86.009 227.646,85.99 
				227.801,85.935 			"/>
			
				<line fill="none" stroke="#000000" stroke-width="0.495" stroke-linecap="round" stroke-linejoin="round" stroke-miterlimit="10" x1="227.801" y1="85.935" x2="255.941" y2="71.862"/>
			
				<polyline fill="none" stroke="#000000" stroke-width="0.495" stroke-linecap="round" stroke-linejoin="round" stroke-miterlimit="10" points="
				277.109,57.103 277.06,56.16 276.913,55.245 276.65,54.396 276.378,53.795 276.047,53.268 275.652,52.797 275.202,52.411 
				274.703,52.111 274.157,51.897 273.59,51.774 272.993,51.739 272.188,51.823 271.382,52.043 270.591,52.378 269.799,52.833 
				268.993,53.422 268.192,54.138 267.589,54.776 267.021,55.462 266.48,56.222 265.977,57.023 265.529,57.86 265.134,58.725 
				264.803,59.585 264.531,60.456 264.268,61.568 264.12,62.628 264.072,63.625 			"/>
			
				<polyline fill="none" stroke="#000000" stroke-width="0.495" stroke-linecap="round" stroke-linejoin="round" stroke-miterlimit="10" points="
				264.072,63.625 264.12,64.571 264.268,65.48 264.531,66.332 264.803,66.929 265.134,67.458 265.529,67.927 265.977,68.313 
				266.48,68.615 267.021,68.827 267.589,68.952 268.192,68.987 268.993,68.903 269.799,68.683 270.591,68.348 271.382,67.893 
				272.188,67.306 272.993,66.589 273.59,65.951 274.157,65.265 274.703,64.509 275.202,63.701 275.652,62.867 276.047,62.007 
				276.378,61.142 276.65,60.27 276.913,59.159 277.06,58.103 277.109,57.103 			"/>
			
				<line fill="none" stroke="#000000" stroke-width="0.495" stroke-linecap="round" stroke-linejoin="round" stroke-miterlimit="10" x1="291.262" y1="58.489" x2="192.481" y2="107.88"/>
			
				<line fill="none" stroke="#000000" stroke-width="0.495" stroke-linecap="round" stroke-linejoin="round" stroke-miterlimit="10" x1="290.094" y1="38.764" x2="290.496" y2="39.503"/>
			
				<polyline fill="none" stroke="#000000" stroke-width="0.495" stroke-linecap="round" stroke-linejoin="round" stroke-miterlimit="10" points="
				291.203,39.724 291.218,39.73 291.228,39.74 291.237,39.754 291.248,39.764 291.25,39.777 291.257,39.795 291.262,39.809 
				291.262,39.823 			"/>
			
				<line fill="none" stroke="#000000" stroke-width="0.495" stroke-linecap="round" stroke-linejoin="round" stroke-miterlimit="10" x1="192.481" y1="107.88" x2="192.481" y2="89.216"/>
			
				<polyline fill="none" stroke="#000000" stroke-width="0.495" stroke-linecap="round" stroke-linejoin="round" stroke-miterlimit="10" points="
				192.481,107.88 192.321,107.937 192.124,107.989 191.901,108.01 191.67,108.005 			"/>
			
				<polyline fill="none" stroke="#000000" stroke-width="0.495" stroke-linecap="round" stroke-linejoin="round" stroke-miterlimit="10" points="
				192.425,89.113 192.447,89.133 192.463,89.158 192.475,89.189 192.481,89.216 			"/>
			
				<line fill="none" stroke="#000000" stroke-width="0.495" stroke-linecap="round" stroke-linejoin="round" stroke-miterlimit="10" x1="191.67" y1="108.005" x2="191.67" y2="89.304"/>
			
				<line fill="none" stroke="#000000" stroke-width="0.495" stroke-linecap="round" stroke-linejoin="round" stroke-miterlimit="10" x1="191.67" y1="108.005" x2="189.227" y2="107.777"/>
			
				<line fill="none" stroke="#000000" stroke-width="0.495" stroke-linecap="round" stroke-linejoin="round" stroke-miterlimit="10" x1="189.227" y1="107.777" x2="189.227" y2="88.878"/>
			
				<polyline fill="none" stroke="#000000" stroke-width="0.495" stroke-linecap="round" stroke-linejoin="round" stroke-miterlimit="10" points="
				189.277,88.77 189.259,88.792 189.242,88.817 189.233,88.845 189.227,88.871 189.227,88.878 			"/>
			
				<polyline fill="none" stroke="#000000" stroke-width="0.495" stroke-linecap="round" stroke-linejoin="round" stroke-miterlimit="10" points="
				191.67,89.304 191.67,89.291 191.67,89.275 191.675,89.26 191.675,89.247 191.679,89.231 191.682,89.216 191.688,89.207 
				191.694,89.197 			"/>
			
				<polyline fill="none" stroke="#000000" stroke-width="0.495" stroke-linecap="round" stroke-linejoin="round" stroke-miterlimit="10" points="
				192.425,89.113 192.247,89.178 192.054,89.211 191.868,89.216 191.694,89.197 			"/>
			
				<line fill="none" stroke="#000000" stroke-width="0.495" stroke-linecap="round" stroke-linejoin="round" stroke-miterlimit="10" x1="191.694" y1="89.197" x2="189.277" y2="88.77"/>
			
				<line fill="none" stroke="#000000" stroke-width="0.495" stroke-linecap="round" stroke-linejoin="round" stroke-miterlimit="10" x1="189.277" y1="88.77" x2="189.758" y2="88.439"/>
			
				<line fill="none" stroke="#000000" stroke-width="0.495" stroke-linecap="round" stroke-linejoin="round" stroke-miterlimit="10" x1="191.887" y1="88.81" x2="290.668" y2="39.416"/>
			
				<line fill="none" stroke="#000000" stroke-width="0.495" stroke-linecap="round" stroke-linejoin="round" stroke-miterlimit="10" x1="290.094" y1="38.265" x2="290.754" y2="38.035"/>
			
				<polyline fill="none" stroke="#000000" stroke-width="0.495" stroke-linecap="round" stroke-linejoin="round" stroke-miterlimit="10" points="
				291.203,39.724 291.311,39.654 291.39,39.567 291.425,39.458 291.446,39.319 			"/>
			
				<line fill="none" stroke="#000000" stroke-width="0.495" stroke-linecap="round" stroke-linejoin="round" stroke-miterlimit="10" x1="289.901" y1="68.798" x2="289.676" y2="68.735"/>
			
				<line fill="none" stroke="#000000" stroke-width="0.495" stroke-linecap="round" stroke-linejoin="round" stroke-miterlimit="10" x1="289.901" y1="61.275" x2="289.676" y2="61.21"/>
			
				<line fill="none" stroke="#000000" stroke-width="0.495" stroke-linecap="round" stroke-linejoin="round" stroke-miterlimit="10" x1="189.373" y1="117.841" x2="189.464" y2="117.918"/>
			
				<line fill="none" stroke="#000000" stroke-width="0.495" stroke-linecap="round" stroke-linejoin="round" stroke-miterlimit="10" x1="189.373" y1="110.315" x2="189.464" y2="110.396"/>
			
				<line fill="none" stroke="#000000" stroke-width="0.495" stroke-linecap="round" stroke-linejoin="round" stroke-miterlimit="10" x1="188.288" y1="125.922" x2="188.288" y2="87.823"/>
			
				<polyline fill="none" stroke="#000000" stroke-width="0.495" stroke-linecap="round" stroke-linejoin="round" stroke-miterlimit="10" points="
				291.504,58.2 291.49,58.287 291.442,58.379 291.355,58.458 291.241,58.532 			"/>
			
				<line fill="none" stroke="#000000" stroke-width="0.495" stroke-linecap="round" stroke-linejoin="round" stroke-miterlimit="10" x1="290.817" y1="38.054" x2="291.475" y2="39.379"/>
			
				<line fill="none" stroke="#000000" stroke-width="0.495" stroke-linecap="round" stroke-linejoin="round" stroke-miterlimit="10" x1="291.51" y1="39.507" x2="291.51" y2="58.205"/>
			
				<polyline fill="none" stroke="#000000" stroke-width="0.495" stroke-linecap="round" stroke-linejoin="round" stroke-miterlimit="10" points="
				269.213,53.971 268.78,54.299 268.317,54.71 267.861,55.17 267.428,55.67 267.03,56.184 266.676,56.688 266.439,57.064 
				266.19,57.489 265.907,58.023 			"/>
			
				<polyline fill="none" stroke="#000000" stroke-width="0.495" stroke-linecap="round" stroke-linejoin="round" stroke-miterlimit="10" points="
				265.907,58.023 265.569,58.76 265.444,59.066 265.256,59.574 265.082,60.098 264.935,60.661 264.811,61.231 264.725,61.809 
				264.665,62.373 264.654,62.655 			"/>
			
				<polyline fill="none" stroke="#000000" stroke-width="0.495" stroke-linecap="round" stroke-linejoin="round" stroke-miterlimit="10" points="
				211.77,82.692 211.34,83.024 210.877,83.435 210.422,83.894 209.989,84.387 209.588,84.905 209.237,85.409 208.997,85.788 
				208.751,86.205 208.47,86.744 			"/>
			
				<polyline fill="none" stroke="#000000" stroke-width="0.495" stroke-linecap="round" stroke-linejoin="round" stroke-miterlimit="10" points="
				208.47,86.744 208.128,87.483 207.999,87.787 207.815,88.297 207.645,88.82 207.496,89.382 207.372,89.954 207.279,90.532 
				207.224,91.094 207.212,91.377 			"/>
			
				<line fill="none" stroke="#000000" stroke-width="0.495" stroke-linecap="round" stroke-linejoin="round" stroke-miterlimit="10" x1="291.241" y1="58.532" x2="192.453" y2="107.924"/>
			
				<line fill="none" stroke="#000000" stroke-width="0.495" stroke-linecap="round" stroke-linejoin="round" stroke-miterlimit="10" x1="191.702" y1="108.048" x2="189.254" y2="107.822"/>
			<g>
				<path fill="#939598" stroke="#000000" stroke-width="0.495" stroke-miterlimit="10" d="M209.57,87.45
					c0.328-0.67,0.924-1.05,1.343-0.852l1.267,0.641l0.003,0.009c0.252-0.165,0.515-0.247,0.755-0.225l0,0
					c0.148-0.007,0.287,0.015,0.415,0.078c0.034,0.015,0.066,0.034,0.094,0.056c0.288-0.121,0.576-0.151,0.831-0.075l0,0l0,0
					l1.039,0.528c0.009,0.002,0.019,0.006,0.025,0.01c0.021,0.01,0.041,0.018,0.06,0.03l0.001,0.001l0,0
					c0.701,0.405,0.812,1.648,0.244,2.83c-0.588,1.215-1.676,1.904-2.431,1.54c-0.012-0.004-0.02-0.009-0.025-0.015l0,0
					l-1.011-0.532l0,0c-0.249-0.166-0.418-0.447-0.5-0.796l0,0c-0.015-0.005-0.031-0.012-0.047-0.021
					c-0.023-0.01-0.041-0.023-0.064-0.036l0,0c-0.016-0.007-0.035-0.015-0.05-0.021c-0.313-0.15-0.493-0.503-0.525-0.939
					l-0.006,0.002l-1.251-0.636C209.322,88.826,209.247,88.119,209.57,87.45z"/>
				
					<ellipse transform="matrix(-0.9167 -0.3997 0.3997 -0.9167 375.2057 257.9567)" fill="#939598" stroke="#000000" stroke-width="0.495" stroke-linecap="round" stroke-linejoin="round" stroke-miterlimit="10" cx="214.497" cy="89.86" rx="0.747" ry="1.204"/>
				
					<path fill="#939598" stroke="#000000" stroke-width="0.495" stroke-linecap="round" stroke-linejoin="round" stroke-miterlimit="10" d="
					M213.21,89.242c-0.532,1.102-0.407,2.262,0.275,2.594c0.682,0.329,1.669-0.294,2.199-1.396c0.534-1.102,0.411-2.261-0.274-2.593
					C214.728,87.517,213.742,88.142,213.21,89.242z"/>
				
					<path fill="#939598" stroke="#000000" stroke-width="0.495" stroke-linecap="round" stroke-linejoin="round" stroke-miterlimit="10" d="
					M213.46,87.15c-0.035-0.024-0.07-0.045-0.11-0.064c-0.61-0.295-1.486,0.263-1.963,1.247c-0.474,0.981-0.366,2.018,0.246,2.31
					c0.015,0.007,0.032,0.016,0.047,0.023"/>
				
					<path fill="#939598" stroke="#000000" stroke-width="0.495" stroke-linecap="round" stroke-linejoin="round" stroke-miterlimit="10" d="
					M212.938,87.011c-0.568-0.053-1.261,0.47-1.659,1.299c-0.471,0.967-0.363,1.986,0.237,2.278
					c0.018,0.007,0.035,0.012,0.053,0.019"/>
				
					<path fill="#939598" stroke="#000000" stroke-width="0.495" stroke-linecap="round" stroke-linejoin="round" stroke-miterlimit="10" d="
					M210.912,86.586c-0.417-0.199-1.017,0.179-1.341,0.849c-0.325,0.671-0.249,1.376,0.167,1.578"/>
				
					<path fill="#939598" stroke="#000000" stroke-width="0.495" stroke-linecap="round" stroke-linejoin="round" stroke-miterlimit="10" d="
					M212.91,89.148c-0.587,1.212-0.452,2.496,0.306,2.858c0.754,0.366,1.839-0.322,2.428-1.54c0.585-1.216,0.451-2.496-0.304-2.861
					C214.585,87.239,213.497,87.929,212.91,89.148z"/>
				
					<path fill="#939598" stroke="#000000" stroke-width="0.495" stroke-linecap="round" stroke-linejoin="round" stroke-miterlimit="10" d="
					M214.278,87.068c-0.743-0.222-1.735,0.454-2.288,1.596c-0.556,1.155-0.465,2.363,0.19,2.796"/>
				<g>
					
						<polyline fill="#939598" stroke="#000000" stroke-width="0.495" stroke-linecap="round" stroke-linejoin="round" stroke-miterlimit="10" points="
						214.328,90.985 214.328,90.178 213.984,90.36 213.984,90.012 214.328,89.825 214.328,88.887 					"/>
					
						<polyline fill="#939598" stroke="#000000" stroke-width="0.495" stroke-linecap="round" stroke-linejoin="round" stroke-miterlimit="10" points="
						214.65,88.743 214.65,89.652 215.001,89.465 215.001,89.816 214.65,90.003 214.65,90.838 					"/>
				</g>
				
					<line fill="#939598" stroke="#000000" stroke-width="0.495" stroke-linecap="round" stroke-linejoin="round" stroke-miterlimit="10" x1="215.403" y1="87.638" x2="214.278" y2="87.068"/>
				
					<line fill="#939598" stroke="#000000" stroke-width="0.495" stroke-linecap="round" stroke-linejoin="round" stroke-miterlimit="10" x1="212.177" y1="87.225" x2="210.912" y2="86.585"/>
				
					<line fill="#939598" stroke="#000000" stroke-width="0.495" stroke-linecap="round" stroke-linejoin="round" stroke-miterlimit="10" x1="210.986" y1="89.652" x2="209.731" y2="89.013"/>
				
					<line fill="#939598" stroke="#000000" stroke-width="0.495" stroke-linecap="round" stroke-linejoin="round" stroke-miterlimit="10" x1="213.187" y1="91.993" x2="212.18" y2="91.46"/>
			</g>
			<g>
				<path fill="#939598" stroke="#000000" stroke-width="0.495" stroke-miterlimit="10" d="M266.953,58.564
					c0.323-0.671,0.923-1.051,1.341-0.851l1.267,0.639l0.003,0.008c0.251-0.162,0.513-0.246,0.758-0.224l0,0
					c0.143-0.008,0.284,0.014,0.413,0.077c0.035,0.015,0.066,0.036,0.094,0.055c0.29-0.119,0.576-0.15,0.831-0.073l0,0l0,0
					l1.042,0.526c0.009,0.003,0.015,0.006,0.023,0.009c0.02,0.012,0.038,0.022,0.058,0.033l0.006,0.001l0,0
					c0.699,0.404,0.81,1.649,0.238,2.829c-0.587,1.216-1.674,1.904-2.43,1.54c-0.01-0.003-0.018-0.01-0.029-0.015l0,0l-1.004-0.532
					l0,0c-0.252-0.166-0.42-0.448-0.502-0.797l0,0c-0.014-0.004-0.031-0.013-0.047-0.02c-0.024-0.011-0.043-0.023-0.066-0.038l0,0
					c-0.016-0.007-0.034-0.013-0.048-0.02c-0.315-0.151-0.493-0.501-0.527-0.939l-0.006,0.002l-1.248-0.637
					C266.705,59.94,266.628,59.234,266.953,58.564z"/>
				
					<path fill="#939598" stroke="#000000" stroke-width="0.495" stroke-linecap="round" stroke-linejoin="round" stroke-miterlimit="10" d="
					M271.194,60.676c-0.266,0.608-0.173,1.238,0.206,1.399c0.376,0.166,0.9-0.195,1.163-0.805c0.266-0.607,0.176-1.237-0.206-1.4
					C271.981,59.703,271.457,60.066,271.194,60.676z"/>
				
					<path fill="#939598" stroke="#000000" stroke-width="0.495" stroke-linecap="round" stroke-linejoin="round" stroke-miterlimit="10" d="
					M270.591,60.356c-0.532,1.1-0.408,2.262,0.275,2.593c0.682,0.328,1.668-0.295,2.2-1.396c0.532-1.102,0.41-2.263-0.275-2.594
					C272.109,58.631,271.122,59.254,270.591,60.356z"/>
				
					<path fill="#939598" stroke="#000000" stroke-width="0.495" stroke-linecap="round" stroke-linejoin="round" stroke-miterlimit="10" d="
					M270.839,58.263c-0.032-0.023-0.066-0.045-0.105-0.064c-0.611-0.293-1.492,0.263-1.966,1.246
					c-0.474,0.982-0.363,2.02,0.246,2.311c0.018,0.009,0.032,0.017,0.047,0.022"/>
				
					<path fill="#939598" stroke="#000000" stroke-width="0.495" stroke-linecap="round" stroke-linejoin="round" stroke-miterlimit="10" d="
					M270.319,58.126c-0.568-0.053-1.261,0.469-1.659,1.298c-0.471,0.967-0.36,1.985,0.241,2.278
					c0.013,0.007,0.032,0.012,0.048,0.019"/>
				
					<path fill="#939598" stroke="#000000" stroke-width="0.495" stroke-linecap="round" stroke-linejoin="round" stroke-miterlimit="10" d="
					M268.294,57.7c-0.418-0.199-1.018,0.179-1.343,0.849c-0.323,0.672-0.246,1.377,0.17,1.577"/>
				
					<ellipse transform="matrix(-0.9008 -0.4343 0.4343 -0.9008 489.9121 233.7643)" fill="#939598" stroke="#000000" stroke-width="0.495" stroke-linecap="round" stroke-linejoin="round" stroke-miterlimit="10" cx="271.659" cy="60.92" rx="1.517" ry="2.443"/>
				
					<path fill="#939598" stroke="#000000" stroke-width="0.495" stroke-linecap="round" stroke-linejoin="round" stroke-miterlimit="10" d="
					M271.659,58.182c-0.745-0.222-1.735,0.454-2.286,1.594c-0.557,1.155-0.464,2.363,0.189,2.797"/>
				<g>
					
						<polyline fill="#939598" stroke="#000000" stroke-width="0.495" stroke-linecap="round" stroke-linejoin="round" stroke-miterlimit="10" points="
						271.708,62.099 271.708,61.291 271.363,61.474 271.363,61.124 271.708,60.94 271.708,60.002 					"/>
					
						<polyline fill="#939598" stroke="#000000" stroke-width="0.495" stroke-linecap="round" stroke-linejoin="round" stroke-miterlimit="10" points="
						272.03,59.856 272.03,60.767 272.381,60.579 272.381,60.929 272.03,61.117 272.03,61.951 					"/>
				</g>
				
					<line fill="#939598" stroke="#000000" stroke-width="0.495" stroke-linecap="round" stroke-linejoin="round" stroke-miterlimit="10" x1="272.784" y1="58.753" x2="271.659" y2="58.182"/>
				
					<line fill="#939598" stroke="#000000" stroke-width="0.495" stroke-linecap="round" stroke-linejoin="round" stroke-miterlimit="10" x1="269.558" y1="58.339" x2="268.294" y2="57.698"/>
				
					<line fill="#939598" stroke="#000000" stroke-width="0.495" stroke-linecap="round" stroke-linejoin="round" stroke-miterlimit="10" x1="268.369" y1="60.765" x2="267.109" y2="60.126"/>
				
					<line fill="#939598" stroke="#000000" stroke-width="0.495" stroke-linecap="round" stroke-linejoin="round" stroke-miterlimit="10" x1="270.567" y1="63.107" x2="269.561" y2="62.574"/>
			</g>
			<path fill="#D2D0CD" stroke="#000000" stroke-width="0.495" stroke-miterlimit="10" d="M192.706,107.88
				c0,4.046-2.222,9.243-6.029,9.243c-3.808,0-5.122-7.329-7.342-10.504c-1.691-2.42-4.825-3.353-7.2-3.662l-0.023-0.969
				c1.963,0,6.118,1.385,8.078,4.3c1.96,2.916,3.125,9.65,6.489,9.65c3.363,0,5.331-4.214,5.331-7.929L192.706,107.88z"/>
			
				<path fill="none" stroke="#000000" stroke-width="0.495" stroke-linecap="round" stroke-linejoin="round" stroke-miterlimit="10" d="
				M192.01,108.01c0,3.715-1.968,7.929-5.331,7.929c-3.365,0-4.529-6.734-6.489-9.65c-1.96-2.916-6.115-4.3-8.078-4.3"/>
			
				<path fill="none" stroke="#000000" stroke-width="0.495" stroke-linecap="round" stroke-linejoin="round" stroke-miterlimit="10" d="
				M172.135,102.958c2.376,0.309,5.509,1.242,7.2,3.662c2.221,3.175,3.534,10.504,7.342,10.504c3.806,0,6.029-5.198,6.029-9.243"/>
			
				<polyline fill="none" stroke="#000000" stroke-width="0.495" stroke-linecap="round" stroke-linejoin="round" stroke-miterlimit="10" stroke-dasharray="2.247" points="
				273.461,62.568 284.958,68.55 255.33,83.378 			"/>
			
				<polyline fill="none" stroke="#000000" stroke-width="0.495" stroke-linecap="round" stroke-linejoin="round" stroke-miterlimit="10" stroke-dasharray="2.247" points="
				277.109,95.424 255.33,83.378 242.617,89.751 227.475,97.334 215.978,91.351 			"/>
		</g>
		<polygon fill="#939598" stroke="#000000" stroke-width="0.495" stroke-miterlimit="10" points="234.405,69.057 234.405,72.946 
			250.42,64.997 250.42,60.733 		"/>
	</g>
	<g>
		<circle fill="#010101" cx="285.279" cy="108.7" r="10.616"/>
		<text transform="matrix(1 0 0 1 281.1094 113.6865)" fill="#FFFFFF" font-family="'Helvetica'" font-size="14.9801px">2</text>
	</g>
	<g>
		<line x1="79.55" y1="367.695" x2="80.14" y2="366.115"/>
		<polyline points="80.633,364.774 76.932,365.671 72.87,366.657 75.019,369.613 77.447,372.968 78.534,369.964 		"/>
		<g>
			<g>
				<polygon fill="none" stroke="#231F20" stroke-width="0.495" stroke-miterlimit="10" points="130.571,81.629 79.068,49.092 
					5.785,56.742 56.904,89.91 				"/>
				
					<line fill="none" stroke="#231F20" stroke-width="0.495" stroke-miterlimit="10" x1="123.3" y1="82.272" x2="72.582" y2="49.61"/>
				
					<line fill="none" stroke="#231F20" stroke-width="0.495" stroke-miterlimit="10" x1="59.242" y1="89.471" x2="6.787" y2="56.482"/>
				<path fill="none" stroke="#231F20" stroke-width="0.495" stroke-miterlimit="10" d="M131.6,342.037"/>
				<path fill="none" stroke="#231F20" stroke-width="0.495" stroke-miterlimit="10" d="M131.624,340.597l-1.053-258.968
					L59.01,89.471v29.084v230.26c-0.555-0.031-2.37,0.181-3.836-0.239"/>
				<polygon fill="none" stroke="#231F20" stroke-width="0.495" stroke-miterlimit="10" points="55.245,91.286 55.173,348.577 
					2.083,315.466 2.083,56.565 				"/>
				<polyline fill="none" stroke="#231F20" stroke-width="0.495" stroke-miterlimit="10" points="55.24,97.363 53.779,95.128 
					3.931,63.764 2.432,64.043 				"/>
				<path fill="none" stroke="#231F20" stroke-width="0.495" stroke-miterlimit="10" d="M54.032,95.096
					c-0.013-0.187-0.395-2.139-1.173-2.65C52.08,91.942,5.908,62.802,5.908,62.802s-1.031-0.678-1.451-0.751
					c-0.418-0.072-0.946-0.348-0.946,1.086"/>
				
					<line fill="none" stroke="#231F20" stroke-width="0.495" stroke-miterlimit="10" x1="39.985" y1="81.322" x2="39.985" y2="84.315"/>
				
					<line fill="none" stroke="#231F20" stroke-width="0.495" stroke-miterlimit="10" x1="28.492" y1="73.811" x2="28.492" y2="77.056"/>
				
					<line fill="none" stroke="#231F20" stroke-width="0.495" stroke-miterlimit="10" x1="17.155" y1="66.408" x2="17.155" y2="69.532"/>
				<g>
					<path fill="none" stroke="#231F20" stroke-width="0.495" stroke-miterlimit="10" d="M44.203,84.076c0,0,0,7.039,0,7.211
						c0,0.177-0.207,0.728-0.549,0.623c-0.339-0.105-0.65-0.549-0.628-0.867c0.028-0.317,0-7.731,0-7.731"/>
				</g>
				<g>
					<path fill="none" stroke="#231F20" stroke-width="0.495" stroke-miterlimit="10" d="M14.015,64.495c0,0,0,7.606,0,7.794
						c0,0.19-0.207,0.783-0.546,0.672c-0.344-0.113-0.65-0.595-0.628-0.936c0.026-0.336-0.005-8.361-0.005-8.361"/>
				</g>
				<g>
					<path fill="none" stroke="#231F20" stroke-width="0.495" stroke-miterlimit="10" d="M55.226,142.861
						c0,0-1.799-1.02-2.088-1.282c-0.287-0.261,0,3.037,0,3.037s1.791,1.6,2.088,1.178"/>
				</g>
				<g>
					<path fill="none" stroke="#231F20" stroke-width="0.495" stroke-miterlimit="10" d="M54.897,224.154
						c0,0-1.803-1.021-2.091-1.284c-0.286-0.263,0,3.039,0,3.039s1.794,1.599,2.087,1.181"/>
				</g>
				<g>
					<path fill="none" stroke="#231F20" stroke-width="0.495" stroke-miterlimit="10" d="M54.65,305.622
						c0,0-1.805-1.023-2.091-1.282c-0.288-0.263,0,3.037,0,3.037s1.79,1.598,2.087,1.18"/>
				</g>
				<g>
					<path fill="none" stroke="#231F20" stroke-width="0.495" stroke-miterlimit="10" d="M2.368,272.616c0,0,1.651,1.49,1.941,1.518
						c0.29,0.024,0.181,2.672,0,2.672c-0.191,0-1.153-0.184-1.941-1.311"/>
				</g>
				<g>
					<path fill="none" stroke="#231F20" stroke-width="0.495" stroke-miterlimit="10" d="M2.373,191.348
						c0,0,1.649,1.495,1.941,1.518c0.285,0.025,0.181,2.672,0,2.672c-0.186,0-1.157-0.183-1.941-1.308"/>
				</g>
				<g>
					<path fill="none" stroke="#231F20" stroke-width="0.495" stroke-miterlimit="10" d="M2.446,109.915c0,0,1.65,1.491,1.938,1.517
						c0.289,0.026,0.181,2.673,0,2.673c-0.181,0-1.148-0.186-1.938-1.308"/>
				</g>
				<g>
					<polygon fill="none" stroke="#231F20" stroke-width="0.495" stroke-miterlimit="10" points="52.378,237.309 52.378,242.34 
						46.475,237.976 46.475,233.417 					"/>
					
						<line fill="none" stroke="#231F20" stroke-width="0.495" stroke-miterlimit="10" x1="46.475" y1="237.976" x2="49.427" y2="235.492"/>
				</g>
				<path fill="none" stroke="#231F20" stroke-width="0.495" stroke-miterlimit="10" d="M55.178,341.801
					c0,0-1.001,1.255-1.636,0.895c-0.639-0.371-50.883-31.008-51.226-33.09"/>
				<path fill="none" stroke="#231F20" stroke-width="0.495" stroke-miterlimit="10" d="M131.088,340.376
					c-0.638-0.372-50.883-31.007-51.226-33.089"/>
				<path fill="none" stroke="#231F20" stroke-width="0.495" stroke-miterlimit="10" d="M58.982,348.493
					c4.237,1.946,69.431-4.621,72.618-7.81"/>
				<path fill="none" stroke="#231F20" stroke-width="0.495" stroke-miterlimit="10" d="M116.595,343.96
					c-0.033,0.336-3.114,2.681-8.133,1.091"/>
				<path fill="none" stroke="#231F20" stroke-width="0.495" stroke-miterlimit="10" d="M70.991,348.577
					c-1.69,1.057-6.798,3.362-9.733,0.265"/>
				
					<line fill="none" stroke="#231F20" stroke-width="0.495" stroke-miterlimit="10" x1="57.898" y1="336.021" x2="57.898" y2="348.841"/>
				
					<line fill="none" stroke="#231F20" stroke-width="0.495" stroke-miterlimit="10" x1="56.605" y1="336.021" x2="56.605" y2="348.841"/>
				
					<line fill="none" stroke="#231F20" stroke-width="0.495" stroke-miterlimit="10" x1="56.605" y1="336.021" x2="56.605" y2="91.541"/>
				
					<line fill="none" stroke="#231F20" stroke-width="0.495" stroke-miterlimit="10" x1="79.862" y1="308.627" x2="79.862" y2="87.156"/>
				<path fill="none" stroke="#231F20" stroke-width="0.495" stroke-miterlimit="10" d="M73.84,51.332c0,0,6.909,4.583,7.118,4.947
					c0.211,0.367,0.186,0.761,0,0.841c-0.184,0.074-57.711,6.519-58.755,6.519c-1.053,0-0.946,0.054-2.041-0.262
					c-1.106-0.314-9.452-5.414-9.452-5.414s-0.665-0.625,0.492-0.769c1.15-0.137,60.489-6.258,61.115-6.309
					C72.945,50.83,72.991,50.765,73.84,51.332z"/>
				<path fill="none" stroke="#231F20" stroke-width="0.495" stroke-miterlimit="10" d="M50.702,321.926
					c0,0.309,0.156,0.562,0.347,0.562c0.195,0,0.353-0.254,0.353-0.562c0-0.309-0.159-0.556-0.353-0.556
					C50.858,321.37,50.702,321.617,50.702,321.926z"/>
				<path fill="none" stroke="#231F20" stroke-width="0.495" stroke-miterlimit="10" d="M4.946,293.46
					c0,0.346,0.187,0.625,0.418,0.625c0.228,0,0.419-0.279,0.419-0.625c0-0.352-0.191-0.628-0.419-0.628
					C5.132,292.833,4.946,293.109,4.946,293.46z"/>
				<path fill="none" stroke="#231F20" stroke-width="0.495" stroke-miterlimit="10" d="M83.504,58.821
					c0,0.2,0.233,0.367,0.523,0.367c0.285,0,0.522-0.167,0.522-0.367c0-0.204-0.237-0.368-0.522-0.368
					C83.737,58.454,83.504,58.617,83.504,58.821z"/>
				<path fill="none" stroke="#231F20" stroke-width="0.495" stroke-miterlimit="10" d="M23.35,65.293
					c0,0.186,0.265,0.339,0.581,0.339c0.32,0,0.576-0.153,0.576-0.339c0-0.189-0.255-0.345-0.576-0.345
					C23.615,64.949,23.35,65.105,23.35,65.293z"/>
				
					<line fill="none" stroke="#231F20" stroke-width="0.495" stroke-miterlimit="10" x1="79.862" y1="307.286" x2="59.01" y2="309.184"/>
			</g>
			
				<rect x="46.638" y="116.476" fill="#FFFFFF" stroke="#231F20" stroke-width="0.495" stroke-miterlimit="10" width="8.829" height="259.738"/>
			<polygon fill="#FFFFFF" stroke="#231F20" stroke-width="0.495" stroke-miterlimit="10" points="46.638,116.476 56.681,90.033 
				59.01,90.401 55.466,116.476 			"/>
			<polygon fill="#FFFFFF" stroke="#231F20" stroke-width="0.495" stroke-miterlimit="10" points="55.466,376.214 55.466,116.476 
				59.01,90.401 58.982,348.493 			"/>
			
				<rect x="45.506" y="236.734" fill="#FFFFFF" stroke="#231F20" stroke-width="0.495" stroke-miterlimit="10" width="4.89" height="22.542"/>
			<polygon fill="#FFFFFF" stroke="#231F20" stroke-width="0.495" stroke-miterlimit="10" points="59.005,119.797 55.466,151.128 
				55.466,186.027 59.005,138.338 			"/>
		</g>
	</g>
	<path fill="#FFFFFF" stroke="#010101" stroke-width="0.75" stroke-miterlimit="10" d="M158.006,85.898l-98.051,55.589
		c0,0,107.56-23.238,107.616-21.792"/>
	<g>
		<g>
			
				<rect x="141.488" y="206.944" fill="none" stroke="#231F20" stroke-width="0.495" stroke-miterlimit="10" width="198.134" height="29.657"/>
			
				<rect x="141.913" y="207.304" fill="none" stroke="#231F20" stroke-width="0.495" stroke-miterlimit="10" width="197.344" height="28.933"/>
			<g>
				
					<rect x="155.344" y="208.828" fill="none" stroke="#231F20" stroke-width="0.495" stroke-miterlimit="10" width="12.034" height="10.577"/>
				
					<rect x="155.344" y="208.828" fill="none" stroke="#231F20" stroke-width="0.495" stroke-miterlimit="10" width="2.583" height="2.459"/>
				
					<rect x="164.765" y="208.828" fill="none" stroke="#231F20" stroke-width="0.495" stroke-miterlimit="10" width="2.613" height="2.459"/>
				
					<rect x="164.552" y="216.762" fill="none" stroke="#231F20" stroke-width="0.495" stroke-miterlimit="10" width="2.826" height="2.643"/>
				
					<rect x="155.344" y="216.762" fill="none" stroke="#231F20" stroke-width="0.495" stroke-miterlimit="10" width="2.796" height="2.643"/>
				
					<rect x="151.394" y="230.919" fill="none" stroke="#231F20" stroke-width="0.495" stroke-miterlimit="10" width="4.254" height="2.404"/>
				
					<rect x="166.892" y="230.919" fill="none" stroke="#231F20" stroke-width="0.495" stroke-miterlimit="10" width="4.256" height="2.404"/>
				<path fill="none" stroke="#231F20" stroke-width="0.495" stroke-miterlimit="10" d="M161.263,218.082
					c-2.418,0-4.377-1.96-4.377-4.378v-0.196c0-2.417,1.959-4.376,4.377-4.376h0.199c2.414,0,4.374,1.96,4.374,4.376v0.196
					c0,2.417-1.96,4.378-4.374,4.378H161.263z"/>
				
					<line fill="none" stroke="#231F20" stroke-width="0.495" stroke-miterlimit="10" x1="147.717" y1="216.762" x2="147.717" y2="221.105"/>
				
					<line fill="none" stroke="#231F20" stroke-width="0.495" stroke-miterlimit="10" x1="145.59" y1="216.762" x2="145.59" y2="221.105"/>
				
					<line fill="none" stroke="#231F20" stroke-width="0.495" stroke-miterlimit="10" x1="163.534" y1="234.095" x2="159.186" y2="234.095"/>
				
					<line fill="none" stroke="#231F20" stroke-width="0.495" stroke-miterlimit="10" x1="163.534" y1="231.97" x2="159.186" y2="231.97"/>
				
					<rect x="205.273" y="230.919" fill="none" stroke="#231F20" stroke-width="0.495" stroke-miterlimit="10" width="4.254" height="2.404"/>
				
					<line fill="none" stroke="#231F20" stroke-width="0.495" stroke-miterlimit="10" x1="201.914" y1="234.095" x2="197.569" y2="234.095"/>
				
					<line fill="none" stroke="#231F20" stroke-width="0.495" stroke-miterlimit="10" x1="201.914" y1="231.97" x2="197.569" y2="231.97"/>
				
					<rect x="227.862" y="213.026" transform="matrix(0.6591 0.7521 -0.7521 0.6591 239.895 -98.9212)" fill="none" stroke="#231F20" stroke-width="0.495" stroke-miterlimit="10" width="2.399" height="4.253"/>
				
					<rect x="217.478" y="223.624" transform="matrix(0.6591 0.752 -0.752 0.6591 244.3088 -87.5013)" fill="none" stroke="#231F20" stroke-width="0.495" stroke-miterlimit="10" width="2.401" height="4.252"/>
				
					<line fill="none" stroke="#231F20" stroke-width="0.495" stroke-miterlimit="10" x1="225.956" y1="220.011" x2="222.687" y2="222.879"/>
				
					<line fill="none" stroke="#231F20" stroke-width="0.495" stroke-miterlimit="10" x1="224.551" y1="218.415" x2="221.283" y2="221.28"/>
				
					<line fill="none" stroke="#231F20" stroke-width="0.495" stroke-miterlimit="10" x1="215.47" y1="228.055" x2="212.203" y2="230.919"/>
				
					<line fill="none" stroke="#231F20" stroke-width="0.495" stroke-miterlimit="10" x1="214.068" y1="226.455" x2="210.801" y2="229.322"/>
				
					<line fill="none" stroke="#231F20" stroke-width="0.495" stroke-miterlimit="10" x1="165.836" y1="213.509" x2="156.886" y2="213.509"/>
				
					<line fill="none" stroke="#231F20" stroke-width="0.495" stroke-miterlimit="10" x1="161.263" y1="209.132" x2="161.263" y2="213.509"/>
				
					<line fill="none" stroke="#231F20" stroke-width="0.495" stroke-miterlimit="10" x1="161.263" y1="213.509" x2="165.242" y2="215.905"/>
				
					<line fill="none" stroke="#231F20" stroke-width="0.495" stroke-miterlimit="10" x1="161.263" y1="213.509" x2="157.48" y2="215.905"/>
				<path fill="none" stroke="#231F20" stroke-width="0.495" stroke-miterlimit="10" d="M184.494,221.596
					c-0.641,0-1.161-0.521-1.161-1.166l0,0c0-0.639,0.521-1.162,1.161-1.162l0,0c0.644,0,1.165,0.522,1.165,1.162l0,0
					C185.659,221.075,185.138,221.596,184.494,221.596L184.494,221.596z"/>
				<path fill="none" stroke="#231F20" stroke-width="0.495" stroke-miterlimit="10" d="M184.599,222.985
					c-1.346,0-2.44-1.094-2.44-2.439l0,0c0-1.345,1.094-2.439,2.44-2.439l0,0c1.346,0,2.439,1.094,2.439,2.439l0,0
					C187.038,221.891,185.945,222.985,184.599,222.985L184.599,222.985z"/>
				<path fill="none" stroke="#231F20" stroke-width="0.495" stroke-miterlimit="10" d="M184.494,225.34
					c-2.646,0-4.794-2.144-4.794-4.794l0,0c0-2.646,2.148-4.793,4.794-4.793l0,0c2.648,0,4.794,2.147,4.794,4.793l0,0
					C189.288,223.196,187.142,225.34,184.494,225.34L184.494,225.34z"/>
				<path fill="none" stroke="#231F20" stroke-width="0.495" stroke-miterlimit="10" d="M184.509,227.754
					c-4.043,0-7.322-3.278-7.322-7.323l0,0c0-4.045,3.278-7.321,7.322-7.321l0,0c4.043,0,7.32,3.276,7.32,7.321l0,0
					C191.829,224.475,188.552,227.754,184.509,227.754L184.509,227.754z"/>
				<path fill="none" stroke="#231F20" stroke-width="0.495" stroke-miterlimit="10" d="M184.397,231.954
					c-6.361,0-11.519-5.158-11.519-11.524l0,0c0-6.361,5.158-11.522,11.519-11.522l0,0c6.364,0,11.523,5.16,11.523,11.522l0,0
					C195.921,226.797,190.761,231.954,184.397,231.954L184.397,231.954z"/>
				<path fill="none" stroke="#231F20" stroke-width="0.495" stroke-miterlimit="10" d="M184.406,233.212
					c-7.057,0-12.777-5.723-12.777-12.782l0,0c0-7.058,5.72-12.781,12.777-12.781l0,0c7.06,0,12.784,5.723,12.784,12.781l0,0
					C197.19,227.49,191.466,233.212,184.406,233.212L184.406,233.212z"/>
				
					<line fill="none" stroke="#231F20" stroke-width="0.495" stroke-miterlimit="10" x1="197.19" y1="220.43" x2="172.879" y2="220.43"/>
				
					<line fill="none" stroke="#231F20" stroke-width="0.495" stroke-miterlimit="10" x1="184.494" y1="215.603" x2="184.494" y2="225.34"/>
				
					<line fill="none" stroke="#231F20" stroke-width="0.495" stroke-miterlimit="10" x1="202.748" y1="207.65" x2="202.748" y2="210.499"/>
				
					<line fill="none" stroke="#231F20" stroke-width="0.495" stroke-miterlimit="10" x1="215.036" y1="207.65" x2="215.036" y2="210.499"/>
				
					<line fill="none" stroke="#231F20" stroke-width="0.495" stroke-miterlimit="10" x1="216.289" y1="233.212" x2="216.289" y2="236.064"/>
				
					<line fill="none" stroke="#231F20" stroke-width="0.495" stroke-miterlimit="10" x1="228.571" y1="233.212" x2="228.571" y2="236.064"/>
			</g>
			<g>
				
					<rect x="313.425" y="208.746" fill="none" stroke="#231F20" stroke-width="0.495" stroke-miterlimit="10" width="12.035" height="10.575"/>
				
					<rect x="322.879" y="208.746" fill="none" stroke="#231F20" stroke-width="0.495" stroke-miterlimit="10" width="2.582" height="2.457"/>
				
					<rect x="313.425" y="208.746" fill="none" stroke="#231F20" stroke-width="0.495" stroke-miterlimit="10" width="2.614" height="2.457"/>
				
					<rect x="313.425" y="216.674" fill="none" stroke="#231F20" stroke-width="0.495" stroke-miterlimit="10" width="2.826" height="2.647"/>
				
					<rect x="322.662" y="216.674" fill="none" stroke="#231F20" stroke-width="0.495" stroke-miterlimit="10" width="2.799" height="2.647"/>
				
					<rect x="325.156" y="230.839" fill="none" stroke="#231F20" stroke-width="0.495" stroke-miterlimit="10" width="4.256" height="2.398"/>
				
					<rect x="309.657" y="230.839" fill="none" stroke="#231F20" stroke-width="0.495" stroke-miterlimit="10" width="4.254" height="2.398"/>
				<path fill="none" stroke="#231F20" stroke-width="0.495" stroke-miterlimit="10" d="M319.543,217.995
					c2.417,0,4.374-1.957,4.374-4.371v-0.2c0-2.416-1.957-4.376-4.374-4.376h-0.199c-2.417,0-4.377,1.96-4.377,4.376v0.2
					c0,2.414,1.96,4.371,4.377,4.371H319.543z"/>
				
					<line fill="none" stroke="#231F20" stroke-width="0.495" stroke-miterlimit="10" x1="333.087" y1="216.674" x2="333.087" y2="221.021"/>
				
					<line fill="none" stroke="#231F20" stroke-width="0.495" stroke-miterlimit="10" x1="335.214" y1="216.674" x2="335.214" y2="221.021"/>
				
					<line fill="none" stroke="#231F20" stroke-width="0.495" stroke-miterlimit="10" x1="317.27" y1="234.014" x2="321.616" y2="234.014"/>
				
					<line fill="none" stroke="#231F20" stroke-width="0.495" stroke-miterlimit="10" x1="317.27" y1="231.886" x2="321.616" y2="231.886"/>
				
					<rect x="271.278" y="230.839" fill="none" stroke="#231F20" stroke-width="0.495" stroke-miterlimit="10" width="4.256" height="2.398"/>
				
					<line fill="none" stroke="#231F20" stroke-width="0.495" stroke-miterlimit="10" x1="278.889" y1="234.014" x2="283.237" y2="234.014"/>
				
					<line fill="none" stroke="#231F20" stroke-width="0.495" stroke-miterlimit="10" x1="278.889" y1="231.886" x2="283.237" y2="231.886"/>
				
					<rect x="257.749" y="211.855" transform="matrix(-0.7485 0.6631 -0.6631 -0.7485 594.6707 202.4392)" fill="none" stroke="#231F20" stroke-width="0.495" stroke-miterlimit="10" width="2.398" height="4.255"/>
				
					<rect x="267.171" y="224.725" transform="matrix(-0.7473 0.6645 -0.6645 -0.7473 619.6646 218.0552)" fill="none" stroke="#231F20" stroke-width="0.495" stroke-miterlimit="10" width="2.4" height="4.253"/>
				
					<line fill="none" stroke="#231F20" stroke-width="0.495" stroke-miterlimit="10" x1="261.428" y1="219.655" x2="264.31" y2="222.905"/>
				
					<line fill="none" stroke="#231F20" stroke-width="0.495" stroke-miterlimit="10" x1="263.017" y1="218.244" x2="265.902" y2="221.49"/>
				
					<line fill="none" stroke="#231F20" stroke-width="0.495" stroke-miterlimit="10" x1="314.967" y1="213.424" x2="323.917" y2="213.424"/>
				
					<line fill="none" stroke="#231F20" stroke-width="0.495" stroke-miterlimit="10" x1="319.543" y1="209.048" x2="319.543" y2="213.424"/>
				
					<line fill="none" stroke="#231F20" stroke-width="0.495" stroke-miterlimit="10" x1="319.543" y1="213.424" x2="315.561" y2="215.821"/>
				
					<line fill="none" stroke="#231F20" stroke-width="0.495" stroke-miterlimit="10" x1="319.543" y1="213.424" x2="323.325" y2="215.821"/>
				<path fill="none" stroke="#231F20" stroke-width="0.495" stroke-miterlimit="10" d="M296.309,221.513
					c0.642,0,1.162-0.523,1.162-1.166l0,0c0-0.64-0.519-1.159-1.162-1.159l0,0c-0.641,0-1.163,0.519-1.163,1.159l0,0
					C295.146,220.99,295.669,221.513,296.309,221.513L296.309,221.513z"/>
				<path fill="none" stroke="#231F20" stroke-width="0.495" stroke-miterlimit="10" d="M296.207,222.901
					c1.346,0,2.437-1.091,2.437-2.439l0,0c0-1.346-1.091-2.439-2.437-2.439l0,0c-1.349,0-2.44,1.093-2.44,2.439l0,0
					C293.767,221.811,294.858,222.901,296.207,222.901L296.207,222.901z"/>
				<path fill="none" stroke="#231F20" stroke-width="0.495" stroke-miterlimit="10" d="M296.311,225.259
					c2.646,0,4.791-2.15,4.791-4.796l0,0c0-2.647-2.145-4.794-4.791-4.794l0,0c-2.649,0-4.797,2.147-4.797,4.794l0,0
					C291.514,223.109,293.661,225.259,296.311,225.259L296.311,225.259z"/>
				<path fill="none" stroke="#231F20" stroke-width="0.495" stroke-miterlimit="10" d="M296.296,227.669
					c4.045,0,7.322-3.274,7.322-7.323l0,0c0-4.042-3.277-7.323-7.322-7.323l0,0c-4.045,0-7.322,3.281-7.322,7.323l0,0
					C288.974,224.396,292.251,227.669,296.296,227.669L296.296,227.669z"/>
				<path fill="none" stroke="#231F20" stroke-width="0.495" stroke-miterlimit="10" d="M296.406,231.87
					c6.361,0,11.519-5.155,11.519-11.523l0,0c0-6.362-5.158-11.523-11.519-11.523l0,0c-6.364,0-11.522,5.16-11.522,11.523l0,0
					C284.884,226.716,290.042,231.87,296.406,231.87L296.406,231.87z"/>
				<path fill="none" stroke="#231F20" stroke-width="0.495" stroke-miterlimit="10" d="M296.397,233.131
					c7.057,0,12.777-5.722,12.777-12.784l0,0c0-7.058-5.72-12.781-12.777-12.781l0,0c-7.06,0-12.783,5.722-12.783,12.781l0,0
					C283.614,227.409,289.337,233.131,296.397,233.131L296.397,233.131z"/>
				
					<line fill="none" stroke="#231F20" stroke-width="0.495" stroke-miterlimit="10" x1="283.614" y1="220.347" x2="307.925" y2="220.347"/>
				
					<line fill="none" stroke="#231F20" stroke-width="0.495" stroke-miterlimit="10" x1="296.309" y1="215.522" x2="296.309" y2="225.259"/>
				
					<line fill="none" stroke="#231F20" stroke-width="0.495" stroke-miterlimit="10" x1="278.054" y1="207.566" x2="278.054" y2="210.414"/>
				
					<line fill="none" stroke="#231F20" stroke-width="0.495" stroke-miterlimit="10" x1="265.77" y1="207.566" x2="265.77" y2="210.414"/>
				
					<line fill="none" stroke="#231F20" stroke-width="0.495" stroke-miterlimit="10" x1="264.515" y1="233.131" x2="264.515" y2="235.979"/>
				
					<line fill="none" stroke="#231F20" stroke-width="0.495" stroke-miterlimit="10" x1="252.229" y1="233.131" x2="252.229" y2="235.979"/>
			</g>
			
				<line fill="none" stroke="#231F20" stroke-width="0.495" stroke-miterlimit="10" x1="240.403" y1="231.618" x2="240.403" y2="235.979"/>
			
				<rect x="235.601" y="218.461" fill="none" stroke="#231F20" stroke-width="0.495" stroke-miterlimit="10" width="16.257" height="10.849"/>
			
				<rect x="238.943" y="228.825" fill="none" stroke="#231F20" stroke-width="0.495" stroke-miterlimit="10" width="2.948" height="0.969"/>
			
				<rect x="239.552" y="229.794" fill="none" stroke="#231F20" stroke-width="0.495" stroke-miterlimit="10" width="1.457" height="1.824"/>
			
				<rect x="239.309" y="215.845" fill="none" stroke="#231F20" stroke-width="0.495" stroke-miterlimit="10" width="1.852" height="2.069"/>
			
				<rect x="238.791" y="217.914" fill="none" stroke="#231F20" stroke-width="0.495" stroke-miterlimit="10" width="2.826" height="1.183"/>
			
				<rect x="237.849" y="220.043" fill="none" stroke="#231F20" stroke-width="0.495" stroke-miterlimit="10" width="4.499" height="5.498"/>
			<path fill="none" stroke="#231F20" stroke-width="0.495" stroke-miterlimit="10" d="M244.425,223.17
				c-0.569,0-1.03-0.285-1.03-0.639v-3.844c0-0.35,0.461-0.636,1.03-0.636h1.786c0.568,0,1.03,0.286,1.03,0.636v3.844
				c0,0.353-0.462,0.639-1.03,0.639H244.425z"/>
			<path fill="none" stroke="#231F20" stroke-width="0.495" stroke-miterlimit="10" d="M246.015,226.408
				c-0.164,0-0.297-0.124-0.297-0.277v-1.654c0-0.152,0.133-0.273,0.297-0.273h0.506c0.161,0,0.293,0.121,0.293,0.273v1.654
				c0,0.152-0.132,0.277-0.293,0.277H246.015z"/>
			<path fill="none" stroke="#231F20" stroke-width="0.495" stroke-miterlimit="10" d="M243.197,227.076
				c-0.216,0-0.394-0.189-0.394-0.423v-2.541c0-0.235,0.177-0.426,0.394-0.426h0.685c0.219,0,0.395,0.19,0.395,0.426v2.541
				c0,0.234-0.175,0.423-0.395,0.423H243.197z"/>
			<path fill="none" stroke="#231F20" stroke-width="0.495" stroke-miterlimit="10" d="M244.703,221.021
				c-0.326,0-0.594-0.267-0.594-0.596v-3.585c0-0.33,0.268-0.596,0.594-0.596h1.031c0.331,0,0.594,0.266,0.594,0.596v3.585
				c0,0.329-0.263,0.596-0.594,0.596H244.703z"/>
			<path fill="none" stroke="#231F20" stroke-width="0.495" stroke-miterlimit="10" d="M239.262,227.424
				c-0.537,0-0.971-0.434-0.971-0.972c0-0.534,0.434-0.972,0.971-0.972c0.538,0,0.974,0.438,0.974,0.972
				C240.236,226.989,239.8,227.424,239.262,227.424z"/>
			<path fill="none" stroke="#231F20" stroke-width="0.495" stroke-miterlimit="10" d="M240.371,222.723
				c-0.689,0-1.245-0.559-1.245-1.246c0-0.692,0.556-1.246,1.245-1.246c0.688,0,1.246,0.554,1.246,1.246
				C241.617,222.165,241.059,222.723,240.371,222.723z"/>
			<path fill="none" stroke="#231F20" stroke-width="0.495" stroke-miterlimit="10" d="M249.178,221.805
				c-0.559,0-1.012-0.454-1.012-1.017c0-0.559,0.453-1.012,1.012-1.012c0.562,0,1.015,0.453,1.015,1.012
				C250.193,221.351,249.739,221.805,249.178,221.805z"/>
			<circle fill="none" stroke="#231F20" stroke-width="0.495" stroke-miterlimit="10" cx="240.371" cy="224.037" r="1.246"/>
			<g>
				
					<rect x="245.614" y="214.607" transform="matrix(-0.3742 0.9273 -0.9273 -0.3742 538.5138 68.1391)" fill="none" stroke="#231F20" stroke-width="0.495" stroke-miterlimit="10" stroke-dasharray="0.749" width="1.305" height="2.318"/>
				<path fill="none" stroke="#231F20" stroke-width="0.495" stroke-miterlimit="10" stroke-dasharray="0.749" d="M245.718,214.839
					c0,0,0.932-3.198,2.447-3.43c1.514-0.227,2.194,0.205,3.131,1.165c0.933,0.956,10.783,10.096,10.783,10.096
					s6.704,6.306,7.436,6.822c0.728,0.516,2.674,1.488,4.225,1.641c1.549,0.152,10.148,1.215,10.148,1.215s7.69,1.247,8.358,1.339
					c0.667,0.089,10.27-0.761,12.095-2.008c1.823-1.245,9.224-1.277,11.22-1.218c1.998,0.062,16.698,0.035,16.911,0.035
					c0.214,0,1.755,0.121,1.755-1.212c0-1.327,0.015-14.214,0-14.81c-0.018-0.59-2.124-4.673-2.148-5.904
					c-0.023-1.23-0.023-6.459-0.023-6.459l-0.056-5.381h1.87c0,0,0.16,11.8,0.203,12.315c0.047,0.517,0.982,2.224,1.23,3.001
					c0.251,0.776,0.389,1.799,0.389,2.392c0,0.592-0.023,14.383,0,15.247c0.024,0.867-0.502,2.303-2.417,2.349
					c-1.916,0.046-16.265-0.037-18.438,0c-2.174,0.037-4.392-0.146-8.371,0.737c-3.982,0.882-7.963,1.761-8.693,1.882
					c-0.728,0.121-1.609,1.034-9.48,0c-7.872-1.031-7.323-0.909-8.571-1.061c-1.245-0.153-1.886-0.293-3.403-0.464
					c-1.52-0.175-5.015-0.63-6.23-1.423c-1.216-0.789-2.856-1.639-3.496-2.277c-0.635-0.639-13.734-13.035-14.886-14.129
					c-1.156-1.093-1.428-1.734-2.039-2.039c-0.609-0.3-1.157-0.335-1.504,0.368c-0.348,0.696-0.925,1.823-0.925,1.823"/>
			</g>
		</g>
		<g>
			<polygon fill="#939598" stroke="#231F20" stroke-width="0.749" stroke-miterlimit="10" points="248.686,184.111 249.157,182.991 
				247.08,182.191 246.603,183.312 			"/>
			<path fill="#939598" stroke="#231F20" stroke-width="0.749" stroke-miterlimit="10" d="M247.352,182.295
				c0,0,0.901-2.955,2.364-3.167c1.463-0.209,2.124,0.189,3.028,1.073c0.904,0.887,10.425,9.33,10.425,9.33s6.487,5.823,7.19,6.299
				c0.707,0.477,2.588,1.377,4.086,1.515c1.496,0.141,9.813,1.126,9.813,1.126s7.431,1.148,8.081,1.234
				c0.647,0.083,9.93-0.701,11.693-1.855c1.763-1.15,8.919-1.176,10.85-1.121c1.931,0.056,16.145,0.028,16.349,0.028
				c0.206,0,1.697,0.112,1.697-1.115c0-1.229,0.015-13.136,0-13.682c-0.015-0.548-2.051-4.316-2.074-5.456
				c-0.021-1.133-0.021-5.966-0.021-5.966l-0.057-4.97h1.807c0,0,0.155,10.899,0.199,11.378c0.042,0.476,0.945,2.055,1.191,2.772
				c0.241,0.715,0.374,1.663,0.374,2.21c0,0.548-0.021,13.285,0,14.085c0.021,0.797-0.486,2.127-2.338,2.166
				c-1.851,0.044-15.725-0.034-17.827,0c-2.101,0.035-4.245-0.135-8.096,0.683c-3.848,0.812-7.696,1.627-8.403,1.736
				c-0.705,0.115-1.557,0.956-9.166,0c-7.61-0.949-7.08-0.841-8.283-0.981c-1.208-0.139-1.826-0.267-3.295-0.425
				c-1.469-0.161-4.848-0.586-6.024-1.314c-1.173-0.73-2.761-1.516-3.378-2.106c-0.616-0.59-13.279-12.043-14.396-13.053
				c-1.118-1.01-1.381-1.597-1.969-1.879c-0.588-0.282-1.121-0.31-1.457,0.336c-0.336,0.645-0.892,1.685-0.892,1.685"/>
		</g>
		<g>
			<polyline points="250.246,194.185 248.908,191.901 247.573,189.615 246.259,191.914 244.948,194.216 246.296,194.21 
				246.307,196.73 248.939,196.73 248.897,194.191 250.246,194.185 			"/>
			<polyline points="245.049,200.8 246.388,203.083 247.723,205.37 249.037,203.068 250.345,200.768 248.999,200.778 
				248.983,198.252 246.356,198.252 246.398,200.793 245.049,200.8 			"/>
		</g>
	</g>
	<rect x="141.089" y="188.502" fill="none" width="107.64" height="20.318"/>
	<text transform="matrix(1 0 0 1 141.0887 200.8164)" fill="#231F20" font-family="'Helvetica'" font-size="14.342px">Back:</text>
	<g>
		<path fill="#FFFFFF" stroke="#010101" stroke-width="0.75" stroke-miterlimit="10" d="M245.574,322.655
			c0.307,37.91-29.695,68.68-67.017,68.73c-37.323,0.05-67.824-30.644-68.132-68.549c-0.307-37.908,29.697-68.68,67.019-68.729
			C214.762,254.057,245.267,284.748,245.574,322.655z"/>
		<rect x="190.53" y="296.447" fill="none" width="33.043" height="18.747"/>
		<text transform="matrix(1 0 0 1 190.5296 307.809)" fill="#231F20" font-family="'Helvetica'" font-size="13.2332px">press</text>
		<g>
			<g>
				
					<rect x="129.043" y="326.928" fill="#FFFFFF" stroke="#231F20" stroke-width="0.495" stroke-miterlimit="10" width="59.097" height="39.951"/>
				
					<rect x="145.703" y="340.024" fill="#FFFFFF" stroke="#231F20" stroke-width="0.495" stroke-miterlimit="10" width="33.818" height="20.139"/>
				
					<rect x="135.178" y="332.478" fill="#FFFFFF" stroke="#231F20" stroke-width="0.495" stroke-miterlimit="10" width="18.73" height="21.468"/>
				<circle fill="#FFFFFF" stroke="#231F20" stroke-width="0.495" stroke-miterlimit="10" cx="144.957" cy="338.53" r="4.476"/>
				<circle fill="#FFFFFF" stroke="#231F20" stroke-width="0.495" stroke-miterlimit="10" cx="144.957" cy="347.48" r="4.476"/>
				<circle fill="#FFFFFF" stroke="#231F20" stroke-width="0.495" stroke-miterlimit="10" cx="141.88" cy="358.423" r="4.476"/>
				<path fill="#FFFFFF" stroke="#231F20" stroke-width="0.495" stroke-miterlimit="10" d="M184.062,335.714
					c0,1.784-1.448,3.229-3.232,3.229c-1.786,0-3.234-1.446-3.234-3.229c0-1.787,1.448-3.236,3.234-3.236
					C182.615,332.478,184.062,333.927,184.062,335.714z"/>
				<path fill="#FFFFFF" stroke="#231F20" stroke-width="0.495" stroke-miterlimit="10" d="M179.305,342.59
					c0,1.194-0.964,2.157-2.155,2.157c-1.191,0-2.155-0.962-2.155-2.157c0-1.19,0.964-2.153,2.155-2.153
					C178.341,340.437,179.305,341.4,179.305,342.59z"/>
				<circle fill="#FFFFFF" stroke="#231F20" stroke-width="0.495" stroke-miterlimit="10" cx="177.149" cy="358.009" r="2.155"/>
				<circle fill="#FFFFFF" stroke="#231F20" stroke-width="0.495" stroke-miterlimit="10" cx="147.515" cy="321.763" r="3.315"/>
				<circle fill="#FFFFFF" stroke="#231F20" stroke-width="0.495" stroke-miterlimit="10" cx="147.515" cy="373.148" r="3.315"/>
				<path fill="none" stroke="#231F20" stroke-width="0.495" stroke-miterlimit="10" d="M134.513,366.879
					c6.631,0,8.631,0.675,9.743,6.885"/>
				<path fill="none" stroke="#231F20" stroke-width="0.495" stroke-miterlimit="10" d="M150.773,373.764
					c0.233-3.403,1.229-6.885,7.032-6.885"/>
				<path fill="none" stroke="#231F20" stroke-width="0.495" stroke-miterlimit="10" d="M135.922,326.928
					c3.15,0,7.138,0.789,8.335-5.781"/>
				<path fill="none" stroke="#231F20" stroke-width="0.495" stroke-miterlimit="10" d="M157.805,326.928
					c-6.465,0-6.736-2.371-6.975-5.165"/>
				
					<line fill="#FFFFFF" stroke="#231F20" stroke-width="0.495" stroke-miterlimit="10" x1="178.547" y1="333.422" x2="183.162" y2="337.946"/>
				
					<line fill="#FFFFFF" stroke="#231F20" stroke-width="0.495" stroke-miterlimit="10" x1="178.498" y1="337.946" x2="183.162" y2="333.479"/>
				
					<rect x="162.613" y="349.183" fill="#FFFFFF" stroke="#231F20" stroke-width="0.495" stroke-miterlimit="10" width="2.466" height="7.832"/>
				
					<rect x="161.659" y="350.092" fill="#FFFFFF" stroke="#231F20" stroke-width="0.495" stroke-miterlimit="10" width="4.35" height="6.488"/>
				
					<rect x="167.813" y="349.183" fill="#FFFFFF" stroke="#231F20" stroke-width="0.495" stroke-miterlimit="10" width="2.737" height="6.671"/>
				
					<rect x="157.245" y="347.48" fill="#FFFFFF" stroke="#231F20" stroke-width="0.495" stroke-miterlimit="10" width="3.047" height="1.702"/>
				
					<rect x="156.313" y="353.338" fill="#FFFFFF" stroke="#231F20" stroke-width="0.495" stroke-miterlimit="10" width="3.98" height="1.938"/>
				
					<rect x="157.245" y="351.957" fill="#FFFFFF" stroke="#231F20" stroke-width="0.495" stroke-miterlimit="10" width="1.99" height="4.622"/>
			</g>
			<g>
				<polygon fill="#FFFFFF" stroke="#231F20" stroke-width="0.6281" stroke-miterlimit="10" points="160.928,326.189 
					159.777,326.189 159.777,328.563 157.541,330.739 157.541,343.36 158.814,343.36 158.814,342.366 159.591,342.366 
					159.591,343.484 162.047,343.484 162.047,344.664 163.477,344.664 163.477,343.92 164.409,343.857 164.937,344.891 
					165.747,344.759 165.747,343.765 166.43,343.793 166.554,344.891 167.02,345.349 167.859,345.349 168.357,344.891 
					168.357,343.701 169.913,343.639 169.913,342.366 170.874,342.366 170.595,343.048 171.154,343.67 172.086,343.639 
					172.086,331.174 170.003,328.658 169.991,326.189 168.791,326.189 				"/>
				
					<rect x="161.224" y="336.803" fill="#FFFFFF" stroke="#231F20" stroke-width="0.6281" stroke-miterlimit="10" width="7.273" height="4.01"/>
				
					<rect x="160.928" y="325.052" fill="#FFFFFF" stroke="#231F20" stroke-width="0.6281" stroke-miterlimit="10" width="7.864" height="11.751"/>
			</g>
		</g>
		<g>
			<polygon fill="#939598" stroke="#231F20" stroke-width="0.6281" stroke-miterlimit="10" points="169.957,302.293 
				169.896,292.228 170.982,291.912 170.982,290.573 158.59,290.573 158.59,291.849 159.731,292.376 159.731,302.198 			"/>
			
				<rect x="161.129" y="294.211" fill="#939598" stroke="#231F20" stroke-width="0.6281" stroke-miterlimit="10" width="7.368" height="4.476"/>
			
				<rect x="160.881" y="292.626" fill="#939598" stroke="#231F20" stroke-width="0.6281" stroke-miterlimit="10" width="7.864" height="1.585"/>
			<path fill="#939598" stroke="#231F20" stroke-width="0.6281" stroke-miterlimit="10" d="M161.701,290.573
				c0.331-6.36,3.255-24.573,21.052-27.377c13.925-2.191,18.648-0.701,30.503,9.579c13.364,11.586,12.763,13.095,12.763,13.095
				l-1.16,1.658c-17.812-17.077-17.321-17.936-24.452-21.301c-4.172-1.97-8.802-2.82-15.498-1.494
				c-6.697,1.326-7.941,1.989-12.101,5.222c-1.617,1.256-6.298,7.21-7.212,11.604c-0.911,4.393,2.641,7.874,2.855,8.704l0.169,0.31
				h-2.11c0,0-2.716-3.75-2.343-5.988c0.372-2.238-0.623,4.497-0.623,4.497l-0.206,1.49H161.701z"/>
			
				<rect x="161.129" y="302.293" fill="#939598" stroke="#231F20" stroke-width="0.6281" stroke-miterlimit="10" width="3.141" height="1.604"/>
			
				<rect x="165.357" y="302.293" fill="#939598" stroke="#231F20" stroke-width="0.6281" stroke-miterlimit="10" width="3.141" height="1.604"/>
		</g>
		<g>
			<polyline points="167.718,311.818 166.36,309.497 165.003,307.175 163.666,309.512 162.335,311.85 163.705,311.843 
				163.718,314.404 166.389,314.404 166.348,311.826 167.718,311.818 			"/>
			<polyline points="162.439,318.542 163.799,320.863 165.153,323.187 166.49,320.847 167.82,318.511 166.451,318.517 
				166.436,315.952 163.765,315.952 163.808,318.536 162.439,318.542 			"/>
		</g>
		
			<line fill="none" stroke="#000000" stroke-width="0.6281" stroke-miterlimit="10" x1="173.799" y1="297.787" x2="187.859" y2="304.991"/>
		<g>
			<circle fill="#010101" cx="212.137" cy="344.747" r="8.903"/>
			<text transform="matrix(1 0 0 1 208.642 348.9282)" fill="#FFFFFF" font-family="'Helvetica'" font-size="12.562px">1</text>
		</g>
	</g>
	<path fill="#FFFFFF" stroke="#010101" stroke-width="0.75" stroke-miterlimit="10" d="M144.441,264.215l-84.689-119.16
		c0,0,62.488,137.791,63.836,138.311"/>
	<polyline fill="#FFFFFF" stroke="#000000" stroke-width="0.75" stroke-miterlimit="10" points="200.191,259.534 246.275,228.35 
		221.469,271.45 	"/>
	
		<path fill="none" stroke="#000000" stroke-width="2.247" stroke-linecap="round" stroke-linejoin="round" stroke-miterlimit="10" d="
		M79.711,368.894c0,0,25.538,6.978,27.765-16.778"/>
</g>
</svg>
