<?xml version="1.0" encoding="utf-8"?>
<!-- Generator: Adobe Illustrator 21.1.0, SVG Export Plug-In . SVG Version: 6.00 Build 0)  -->
<svg version="1.1" id="Layer_1" xmlns="http://www.w3.org/2000/svg" xmlns:xlink="http://www.w3.org/1999/xlink" x="0px" y="0px"
	 width="246.7px" height="86.5px" viewBox="0 0 246.7 86.5" style="enable-background:new 0 0 246.7 86.5;" xml:space="preserve">
<style type="text/css">
	.st0{fill:#58595B;}
	.st1{font-family:'Gotham-Medium';}
	.st2{font-size:10.8px;}
	.st3{fill:#FFFFFF;}
	.st4{fill:none;stroke:#939598;stroke-width:2.6264;}
	.st5{fill:#939598;stroke:#808080;stroke-width:2.2618;}
	.st6{fill-rule:evenodd;clip-rule:evenodd;fill:#F79320;}
	.st7{fill-rule:evenodd;clip-rule:evenodd;fill:#FFFFFF;}
	.st8{font-family:'Gotham-Book';}
	.st9{font-size:4.9556px;}
	.st10{fill:none;stroke:#000000;stroke-width:0.5561;stroke-linejoin:round;}
	.st11{fill:none;stroke:#000000;stroke-width:0.855;}
</style>
<g>
	<g>
		<text transform="matrix(1 0 0 1 3.6271 11.5781)" class="st0 st1 st2">24 SSDs</text>
	</g>
	<g>
		<g>
			<g>
				<rect x="2.8" y="17.4" class="st3" width="111.6" height="65.2"/>
				<rect x="5.9" y="17.4" class="st4" width="111.6" height="65.2"/>
				<rect x="61.5" y="17.4" class="st5" width="56" height="14"/>
				<rect x="61.5" y="17.4" class="st4" width="56" height="14"/>
				<rect x="5.9" y="17.4" class="st3" width="55.6" height="14"/>
				<rect x="5.9" y="17.4" class="st4" width="55.6" height="14"/>
				<g>
					<path class="st3" d="M66.6,22.4v3.4h2v0.8h-3v-4.2H66.6z"/>
					<path class="st3" d="M70,22.4v4.2h-0.9v-4.2H70z"/>
					<path class="st3" d="M73.8,22.4v0.8h-2v1h1.7v0.7h-1.7v1.7h-0.9v-4.2H73.8z"/>
					<path class="st3" d="M74,23.2v-0.8h3.4v0.8h-1.3v3.4h-0.9v-3.4H74z"/>
					<path class="st3" d="M78.8,22.4v4.2h-0.9v-4.2H78.8z"/>
					<path class="st3" d="M80.5,22.4l1.7,2.8h0v-2.8h0.9v4.2h-0.9l-1.7-2.8h0v2.8h-0.9v-4.2H80.5z"/>
					<path class="st3" d="M86.4,26.5c-0.2,0.1-0.4,0.1-0.6,0.1c-0.3,0-0.6-0.1-0.9-0.2c-0.3-0.1-0.5-0.3-0.6-0.5
						c-0.2-0.2-0.3-0.4-0.4-0.7c-0.1-0.3-0.1-0.5-0.1-0.9c0-0.3,0-0.6,0.1-0.9c0.1-0.3,0.2-0.5,0.4-0.7c0.2-0.2,0.4-0.4,0.6-0.5
						c0.3-0.1,0.5-0.2,0.9-0.2c0.2,0,0.4,0,0.6,0.1c0.2,0.1,0.4,0.2,0.5,0.3c0.2,0.1,0.3,0.3,0.4,0.5c0.1,0.2,0.2,0.4,0.2,0.6h-0.9
						c-0.1-0.2-0.2-0.4-0.3-0.5s-0.3-0.2-0.6-0.2c-0.2,0-0.4,0-0.5,0.1c-0.1,0.1-0.3,0.2-0.4,0.3c-0.1,0.1-0.2,0.3-0.2,0.5
						c0,0.2-0.1,0.3-0.1,0.5c0,0.2,0,0.3,0.1,0.5c0,0.2,0.1,0.3,0.2,0.4c0.1,0.1,0.2,0.2,0.4,0.3c0.1,0.1,0.3,0.1,0.5,0.1
						c0.3,0,0.5-0.1,0.7-0.2c0.2-0.2,0.3-0.4,0.3-0.7h-0.9v-0.7h1.8v2.3h-0.6L87,26.1C86.8,26.3,86.6,26.4,86.4,26.5z"/>
					<path class="st3" d="M90.9,22.4V24h1.7v-1.6h0.9v4.2h-0.9v-1.8h-1.7v1.8H90v-4.2H90.9z"/>
					<path class="st3" d="M96.4,22.4l1.6,4.2h-1l-0.3-0.9h-1.6l-0.3,0.9h-0.9l1.6-4.2H96.4z M96.5,24.9L96,23.4h0l-0.5,1.5H96.5z"/>
					<path class="st3" d="M100.3,23.2h-2.1v-0.8h3.3v0.7l-2.2,2.7h2.3v0.8h-3.5v-0.7L100.3,23.2z"/>
					<path class="st3" d="M104.2,22.4l1.6,4.2h-1l-0.3-0.9H103l-0.3,0.9h-0.9l1.6-4.2H104.2z M104.3,24.9l-0.5-1.5h0l-0.5,1.5H104.3
						z"/>
					<path class="st3" d="M108.4,22.4c0.2,0,0.4,0,0.5,0.1c0.2,0.1,0.3,0.1,0.4,0.2c0.1,0.1,0.2,0.2,0.2,0.4
						c0.1,0.1,0.1,0.3,0.1,0.4c0,0.2-0.1,0.5-0.2,0.6c-0.1,0.2-0.3,0.3-0.5,0.4v0c0.1,0,0.2,0.1,0.3,0.1c0.1,0.1,0.1,0.1,0.2,0.2
						c0,0.1,0.1,0.2,0.1,0.3c0,0.1,0,0.2,0,0.3c0,0.1,0,0.1,0,0.2c0,0.1,0,0.2,0,0.3c0,0.1,0,0.2,0,0.3c0,0.1,0.1,0.2,0.1,0.2h-0.9
						c-0.1-0.1-0.1-0.3-0.1-0.5c0-0.2,0-0.4-0.1-0.5c0-0.2-0.1-0.4-0.2-0.5c-0.1-0.1-0.3-0.2-0.5-0.2h-0.9v1.6h-0.9v-4.2H108.4z
						 M108.1,24.3c0.2,0,0.4,0,0.5-0.1c0.1-0.1,0.2-0.2,0.2-0.5c0-0.2-0.1-0.3-0.2-0.4c-0.1-0.1-0.3-0.1-0.5-0.1h-1v1.2H108.1z"/>
					<path class="st3" d="M112.2,22.4c0.3,0,0.5,0,0.8,0.1c0.2,0.1,0.4,0.2,0.6,0.4c0.2,0.2,0.3,0.4,0.4,0.6
						c0.1,0.3,0.1,0.6,0.1,0.9c0,0.3,0,0.6-0.1,0.8c-0.1,0.3-0.2,0.5-0.4,0.7c-0.2,0.2-0.4,0.3-0.6,0.4c-0.2,0.1-0.5,0.2-0.8,0.2
						h-1.8v-4.2H112.2z M112.1,25.8c0.1,0,0.3,0,0.4-0.1c0.1,0,0.2-0.1,0.3-0.2c0.1-0.1,0.2-0.2,0.2-0.4c0.1-0.2,0.1-0.4,0.1-0.6
						c0-0.2,0-0.4-0.1-0.6c0-0.2-0.1-0.3-0.2-0.4c-0.1-0.1-0.2-0.2-0.4-0.3c-0.2-0.1-0.3-0.1-0.6-0.1h-0.7v2.6H112.1z"/>
				</g>
				<path class="st6" d="M12.8,28.9h8.6c0.2,0,0.2-0.2,0.1-0.3c0,0-4.2-8.4-4.3-8.6c0,0-0.1-0.1-0.1-0.1c-0.1,0-0.1,0-0.1,0.1
					c-0.1,0.2-4.3,8.6-4.3,8.6C12.6,28.7,12.6,28.9,12.8,28.9"/>
				<g>
					<path d="M28.8,23.2c-0.2-0.2-0.5-0.2-0.8-0.2c-0.3,0-0.5,0.1-0.7,0.2c-0.2,0.1-0.4,0.2-0.5,0.4c-0.1,0.2-0.2,0.4-0.3,0.6
						c-0.1,0.2-0.1,0.5-0.1,0.7c0,0.3,0,0.5,0.1,0.8c0.1,0.2,0.2,0.4,0.3,0.6c0.1,0.2,0.3,0.3,0.5,0.4c0.2,0.1,0.4,0.2,0.7,0.2
						c0.2,0,0.4,0,0.5-0.1c0.2-0.1,0.3-0.2,0.4-0.3c0.1-0.1,0.2-0.3,0.3-0.4c0.1-0.2,0.1-0.3,0.1-0.5h0.6c-0.1,0.6-0.3,1-0.6,1.4
						c-0.3,0.3-0.8,0.5-1.4,0.5c-0.4,0-0.7-0.1-0.9-0.2c-0.3-0.1-0.5-0.3-0.7-0.5c-0.2-0.2-0.3-0.5-0.4-0.8c-0.1-0.3-0.1-0.6-0.1-1
						c0-0.3,0-0.7,0.1-1c0.1-0.3,0.2-0.6,0.4-0.8c0.2-0.2,0.4-0.4,0.7-0.5c0.3-0.1,0.6-0.2,0.9-0.2c0.2,0,0.5,0,0.7,0.1
						c0.2,0.1,0.4,0.2,0.6,0.3c0.2,0.1,0.3,0.3,0.4,0.5s0.2,0.4,0.2,0.7h-0.6C29.1,23.6,29,23.3,28.8,23.2z"/>
					<path d="M32.5,22.5l1.8,4.7h-0.7l-0.5-1.4h-2l-0.5,1.4H30l1.8-4.7H32.5z M33,25.2l-0.8-2.2h0l-0.8,2.2H33z"/>
					<path d="M38,26.8c-0.3,0.3-0.8,0.4-1.4,0.4c-0.6,0-1.1-0.1-1.4-0.4c-0.3-0.3-0.5-0.7-0.5-1.4v-3h0.6v3c0,0.4,0.1,0.7,0.3,0.9
						c0.2,0.2,0.5,0.3,1,0.3c0.4,0,0.7-0.1,0.9-0.3c0.2-0.2,0.3-0.5,0.3-0.9v-3h0.6v3C38.5,26.1,38.3,26.5,38,26.8z"/>
					<path d="M38.9,23v-0.5h3.7V23h-1.6v4.1h-0.6V23H38.9z"/>
					<path d="M43.7,22.5v4.7h-0.6v-4.7H43.7z"/>
					<path d="M44.6,23.9c0.1-0.3,0.2-0.6,0.4-0.8c0.2-0.2,0.4-0.4,0.7-0.5c0.3-0.1,0.6-0.2,1-0.2s0.7,0.1,1,0.2
						c0.3,0.1,0.5,0.3,0.7,0.5c0.2,0.2,0.3,0.5,0.4,0.8c0.1,0.3,0.1,0.6,0.1,0.9c0,0.3,0,0.6-0.1,0.9c-0.1,0.3-0.2,0.6-0.4,0.8
						c-0.2,0.2-0.4,0.4-0.7,0.5c-0.3,0.1-0.6,0.2-1,0.2s-0.7-0.1-1-0.2c-0.3-0.1-0.5-0.3-0.7-0.5c-0.2-0.2-0.3-0.5-0.4-0.8
						c-0.1-0.3-0.1-0.6-0.1-0.9C44.5,24.5,44.5,24.2,44.6,23.9z M45.2,25.5c0.1,0.2,0.2,0.4,0.3,0.6c0.1,0.2,0.3,0.3,0.5,0.4
						c0.2,0.1,0.4,0.2,0.7,0.2c0.3,0,0.5-0.1,0.7-0.2c0.2-0.1,0.4-0.3,0.5-0.4c0.1-0.2,0.2-0.4,0.3-0.6c0.1-0.2,0.1-0.5,0.1-0.7
						c0-0.2,0-0.5-0.1-0.7c-0.1-0.2-0.2-0.4-0.3-0.6c-0.1-0.2-0.3-0.3-0.5-0.4c-0.2-0.1-0.4-0.2-0.7-0.2c-0.3,0-0.5,0.1-0.7,0.2
						c-0.2,0.1-0.4,0.3-0.5,0.4c-0.1,0.2-0.2,0.4-0.3,0.6c-0.1,0.2-0.1,0.5-0.1,0.7C45.1,25.1,45.1,25.3,45.2,25.5z"/>
				</g>
				<g>
					<path d="M50.2,22.5l2.4,3.8h0v-3.8h0.6v4.7h-0.7l-2.4-3.7h0v3.7h-0.6v-4.7H50.2z"/>
				</g>
				<path class="st6" d="M13.1,29.3c-0.5,0-0.9-0.4-0.9-0.9c0-0.2,0.1-0.4,0.2-0.5l4-8.1c0.2-0.2,0.4-0.3,0.7-0.3
					c0.3,0,0.5,0.1,0.7,0.3l4,8.1c0.1,0.2,0.2,0.3,0.2,0.5c0,0.5-0.4,0.9-0.9,0.9H13.1z M13.1,29.4h8.1c0.2,0,0.2-0.2,0.1-0.3
					c0,0-3.9-7.9-4-8.1c0,0-0.1-0.1-0.1-0.1S17,21,17,21c-0.1,0.2-4,8.1-4,8.1C12.9,29.2,12.9,29.4,13.1,29.4"/>
				<path class="st7" d="M17.7,27.4c0,0.3-0.3,0.6-0.6,0.6c-0.3,0-0.6-0.3-0.6-0.6c0-0.3,0.3-0.6,0.6-0.6
					C17.4,26.8,17.7,27.1,17.7,27.4"/>
				<path class="st7" d="M17.1,22.3c-0.3,0-0.6,0.3-0.6,0.6l0.2,3c0,0.2,0.2,0.4,0.4,0.4c0.2,0,0.4-0.2,0.4-0.4l0.2-3
					C17.7,22.6,17.4,22.3,17.1,22.3"/>
				<text transform="matrix(1 0 0 1.0001 13.5403 75.7216)" class="st8 st9">119.2 lbs (54.2 kg)</text>
				<polyline class="st3" points="35.6,67.5 52.7,57.7 52.7,46.7 35.6,55.3 				"/>
				<polyline class="st10" points="35.6,67.5 52.7,57.7 52.7,46.7 35.6,55.3 				"/>
				<polyline class="st3" points="20.5,47 37.5,39.7 52.7,46.7 35.6,55.7 				"/>
				<polyline class="st10" points="20.5,47 37.5,40 52.7,46.7 35.6,55.7 				"/>
				<polygon class="st3" points="20.5,47 35.6,55.7 35.6,67.5 20.5,58.8 				"/>
				<polygon class="st10" points="20.5,47 35.6,55.7 35.6,67.5 20.5,58.8 				"/>
				<line class="st3" x1="25.3" y1="55.8" x2="21" y2="53.3"/>
				<line class="st10" x1="25.3" y1="55.8" x2="21" y2="53.3"/>
				<polyline class="st10" points="21,53.2 25.3,55.6 30.7,58.8 35,61.2 				"/>
				<line class="st3" x1="35" y1="67.2" x2="35" y2="55.4"/>
				<line class="st10" x1="35" y1="67.2" x2="35" y2="55.4"/>
				<line class="st3" x1="21" y1="47.3" x2="21" y2="59.1"/>
				<line class="st10" x1="21" y1="47.3" x2="21" y2="59.1"/>
				<line class="st3" x1="25.9" y1="50.1" x2="25.9" y2="61.9"/>
				<path class="st10" d="M25.9,61.9"/>
				<path class="st10" d="M25.9,50.1"/>
				<line class="st3" x1="30.2" y1="64.4" x2="30.2" y2="52.6"/>
				<line class="st3" x1="30.2" y1="58.6" x2="25.9" y2="56.1"/>
				<line class="st3" x1="35" y1="61.4" x2="30.7" y2="58.9"/>
				<line class="st3" x1="35" y1="61.2" x2="30.7" y2="58.8"/>
			</g>
		</g>
	</g>
</g>
<g>
	<g>
		<text transform="matrix(1 0 0 1 129.0535 11.5783)" class="st0 st1 st2">48 SSDs</text>
	</g>
	<g>
		<g>
			<g>
				<rect x="131.3" y="17.7" class="st3" width="111.6" height="65.2"/>
				<rect x="131.3" y="17.7" class="st4" width="111.6" height="65.2"/>
				<rect x="187" y="17.7" class="st5" width="56" height="14"/>
				<rect x="187" y="17.7" class="st4" width="56" height="14"/>
				<rect x="131.3" y="17.7" class="st3" width="55.6" height="14"/>
				<rect x="131.3" y="17.7" class="st4" width="55.6" height="14"/>
				<g>
					<path class="st3" d="M192,22.7v3.4h2v0.8h-3v-4.2H192z"/>
					<path class="st3" d="M195.5,22.7v4.2h-0.9v-4.2H195.5z"/>
					<path class="st3" d="M199.2,22.7v0.8h-2v1h1.7v0.7h-1.7v1.7h-0.9v-4.2H199.2z"/>
					<path class="st3" d="M199.4,23.5v-0.8h3.4v0.8h-1.3v3.4h-0.9v-3.4H199.4z"/>
					<path class="st3" d="M204.2,22.7v4.2h-0.9v-4.2H204.2z"/>
					<path class="st3" d="M206,22.7l1.7,2.8h0v-2.8h0.9v4.2h-0.9l-1.7-2.8h0v2.8H205v-4.2H206z"/>
					<path class="st3" d="M211.9,26.9c-0.2,0.1-0.4,0.1-0.6,0.1c-0.3,0-0.6-0.1-0.9-0.2c-0.3-0.1-0.5-0.3-0.6-0.5
						c-0.2-0.2-0.3-0.4-0.4-0.7c-0.1-0.3-0.1-0.5-0.1-0.9c0-0.3,0-0.6,0.1-0.9c0.1-0.3,0.2-0.5,0.4-0.7c0.2-0.2,0.4-0.4,0.6-0.5
						c0.3-0.1,0.5-0.2,0.9-0.2c0.2,0,0.4,0,0.6,0.1c0.2,0.1,0.4,0.2,0.5,0.3c0.2,0.1,0.3,0.3,0.4,0.5c0.1,0.2,0.2,0.4,0.2,0.6h-0.9
						c-0.1-0.2-0.2-0.4-0.3-0.5c-0.2-0.1-0.3-0.2-0.6-0.2c-0.2,0-0.4,0-0.5,0.1c-0.1,0.1-0.3,0.2-0.4,0.3c-0.1,0.1-0.2,0.3-0.2,0.5
						c0,0.2-0.1,0.3-0.1,0.5c0,0.2,0,0.3,0.1,0.5c0,0.2,0.1,0.3,0.2,0.4c0.1,0.1,0.2,0.2,0.4,0.3c0.1,0.1,0.3,0.1,0.5,0.1
						c0.3,0,0.5-0.1,0.7-0.2c0.2-0.2,0.3-0.4,0.3-0.7h-0.9v-0.7h1.8v2.3h-0.6l-0.1-0.5C212.2,26.6,212.1,26.8,211.9,26.9z"/>
					<path class="st3" d="M216.4,22.7v1.6h1.7v-1.6h0.9v4.2h-0.9v-1.8h-1.7v1.8h-0.9v-4.2H216.4z"/>
					<path class="st3" d="M221.9,22.7l1.6,4.2h-1l-0.3-0.9h-1.6l-0.3,0.9h-0.9l1.6-4.2H221.9z M221.9,25.3l-0.5-1.5h0l-0.5,1.5
						H221.9z"/>
					<path class="st3" d="M225.8,23.5h-2.1v-0.8h3.3v0.7l-2.2,2.7h2.3v0.8h-3.5v-0.7L225.8,23.5z"/>
					<path class="st3" d="M229.7,22.7l1.6,4.2h-1L230,26h-1.6l-0.3,0.9h-0.9l1.6-4.2H229.7z M229.7,25.3l-0.5-1.5h0l-0.5,1.5H229.7z
						"/>
					<path class="st3" d="M233.8,22.7c0.2,0,0.4,0,0.5,0.1c0.2,0.1,0.3,0.1,0.4,0.2c0.1,0.1,0.2,0.2,0.2,0.4
						c0.1,0.1,0.1,0.3,0.1,0.4c0,0.2-0.1,0.5-0.2,0.6c-0.1,0.2-0.3,0.3-0.5,0.4v0c0.1,0,0.2,0.1,0.3,0.1s0.1,0.1,0.2,0.2
						c0,0.1,0.1,0.2,0.1,0.3c0,0.1,0,0.2,0,0.3c0,0.1,0,0.1,0,0.2s0,0.2,0,0.3c0,0.1,0,0.2,0,0.3c0,0.1,0.1,0.2,0.1,0.2h-0.9
						c-0.1-0.1-0.1-0.3-0.1-0.5c0-0.2,0-0.4-0.1-0.5c0-0.2-0.1-0.4-0.2-0.5c-0.1-0.1-0.3-0.2-0.5-0.2h-0.9v1.6h-0.9v-4.2H233.8z
						 M233.5,24.6c0.2,0,0.4,0,0.5-0.1c0.1-0.1,0.2-0.2,0.2-0.5c0-0.2-0.1-0.3-0.2-0.4c-0.1-0.1-0.3-0.1-0.5-0.1h-1v1.2H233.5z"/>
					<path class="st3" d="M237.6,22.7c0.3,0,0.5,0,0.8,0.1c0.2,0.1,0.4,0.2,0.6,0.4c0.2,0.2,0.3,0.4,0.4,0.6
						c0.1,0.3,0.1,0.6,0.1,0.9c0,0.3,0,0.6-0.1,0.8c-0.1,0.3-0.2,0.5-0.4,0.7c-0.2,0.2-0.4,0.3-0.6,0.4c-0.2,0.1-0.5,0.2-0.8,0.2
						h-1.8v-4.2H237.6z M237.6,26.1c0.1,0,0.3,0,0.4-0.1c0.1,0,0.2-0.1,0.3-0.2c0.1-0.1,0.2-0.2,0.2-0.4c0.1-0.2,0.1-0.4,0.1-0.6
						c0-0.2,0-0.4-0.1-0.6c0-0.2-0.1-0.3-0.2-0.4c-0.1-0.1-0.2-0.2-0.4-0.3c-0.2-0.1-0.3-0.1-0.6-0.1h-0.7v2.6H237.6z"/>
				</g>
				<path class="st6" d="M138.2,29.2h8.6c0.2,0,0.2-0.2,0.1-0.3c0,0-4.2-8.4-4.3-8.6c0,0-0.1-0.1-0.1-0.1c-0.1,0-0.1,0-0.1,0.1
					c-0.1,0.2-4.3,8.6-4.3,8.6C138,29,138,29.2,138.2,29.2"/>
				<g>
					<path d="M154.2,23.5c-0.2-0.2-0.5-0.2-0.8-0.2c-0.3,0-0.5,0.1-0.7,0.2c-0.2,0.1-0.4,0.2-0.5,0.4c-0.1,0.2-0.2,0.4-0.3,0.6
						c-0.1,0.2-0.1,0.5-0.1,0.7c0,0.3,0,0.5,0.1,0.8c0.1,0.2,0.2,0.4,0.3,0.6c0.1,0.2,0.3,0.3,0.5,0.4c0.2,0.1,0.4,0.2,0.7,0.2
						c0.2,0,0.4,0,0.5-0.1c0.2-0.1,0.3-0.2,0.4-0.3c0.1-0.1,0.2-0.3,0.3-0.4c0.1-0.2,0.1-0.3,0.1-0.5h0.6c-0.1,0.6-0.3,1-0.6,1.4
						c-0.3,0.3-0.8,0.5-1.4,0.5c-0.4,0-0.7-0.1-0.9-0.2c-0.3-0.1-0.5-0.3-0.7-0.5c-0.2-0.2-0.3-0.5-0.4-0.8c-0.1-0.3-0.1-0.6-0.1-1
						c0-0.3,0-0.7,0.1-1c0.1-0.3,0.2-0.6,0.4-0.8c0.2-0.2,0.4-0.4,0.7-0.5c0.3-0.1,0.6-0.2,0.9-0.2c0.2,0,0.5,0,0.7,0.1
						c0.2,0.1,0.4,0.2,0.6,0.3c0.2,0.1,0.3,0.3,0.4,0.5s0.2,0.4,0.2,0.7h-0.6C154.6,23.9,154.4,23.6,154.2,23.5z"/>
					<path d="M158,22.8l1.8,4.7h-0.7l-0.5-1.4h-2l-0.5,1.4h-0.6l1.8-4.7H158z M158.4,25.6l-0.8-2.2h0l-0.8,2.2H158.4z"/>
					<path d="M163.4,27.1c-0.3,0.3-0.8,0.4-1.4,0.4c-0.6,0-1.1-0.1-1.4-0.4c-0.3-0.3-0.5-0.7-0.5-1.4v-3h0.6v3
						c0,0.4,0.1,0.7,0.3,0.9c0.2,0.2,0.5,0.3,1,0.3c0.4,0,0.7-0.1,0.9-0.3c0.2-0.2,0.3-0.5,0.3-0.9v-3h0.6v3
						C163.9,26.4,163.7,26.8,163.4,27.1z"/>
					<path d="M164.3,23.3v-0.5h3.7v0.5h-1.6v4.1h-0.6v-4.1H164.3z"/>
					<path d="M169.2,22.8v4.7h-0.6v-4.7H169.2z"/>
					<path d="M170,24.2c0.1-0.3,0.2-0.6,0.4-0.8c0.2-0.2,0.4-0.4,0.7-0.5c0.3-0.1,0.6-0.2,1-0.2s0.7,0.1,1,0.2
						c0.3,0.1,0.5,0.3,0.7,0.5c0.2,0.2,0.3,0.5,0.4,0.8c0.1,0.3,0.1,0.6,0.1,0.9c0,0.3,0,0.6-0.1,0.9c-0.1,0.3-0.2,0.6-0.4,0.8
						c-0.2,0.2-0.4,0.4-0.7,0.5c-0.3,0.1-0.6,0.2-1,0.2s-0.7-0.1-1-0.2c-0.3-0.1-0.5-0.3-0.7-0.5c-0.2-0.2-0.3-0.5-0.4-0.8
						c-0.1-0.3-0.1-0.6-0.1-0.9C169.9,24.8,169.9,24.5,170,24.2z M170.6,25.8c0.1,0.2,0.2,0.4,0.3,0.6c0.1,0.2,0.3,0.3,0.5,0.4
						c0.2,0.1,0.4,0.2,0.7,0.2c0.3,0,0.5-0.1,0.7-0.2c0.2-0.1,0.4-0.3,0.5-0.4c0.1-0.2,0.2-0.4,0.3-0.6c0.1-0.2,0.1-0.5,0.1-0.7
						c0-0.2,0-0.5-0.1-0.7c-0.1-0.2-0.2-0.4-0.3-0.6c-0.1-0.2-0.3-0.3-0.5-0.4c-0.2-0.1-0.4-0.2-0.7-0.2c-0.3,0-0.5,0.1-0.7,0.2
						c-0.2,0.1-0.4,0.3-0.5,0.4c-0.1,0.2-0.2,0.4-0.3,0.6c-0.1,0.2-0.1,0.5-0.1,0.7C170.5,25.4,170.6,25.6,170.6,25.8z"/>
				</g>
				<g>
					<path d="M175.7,22.8l2.4,3.8h0v-3.8h0.6v4.7H178l-2.4-3.7h0v3.7H175v-4.7H175.7z"/>
				</g>
				<path class="st6" d="M138.5,29.6c-0.5,0-0.9-0.4-0.9-0.9c0-0.2,0.1-0.4,0.2-0.5l4-8.1c0.2-0.2,0.4-0.3,0.7-0.3
					c0.3,0,0.5,0.1,0.7,0.3l4,8.1c0.1,0.2,0.2,0.3,0.2,0.5c0,0.5-0.4,0.9-0.9,0.9H138.5z M138.5,29.7h8.1c0.2,0,0.2-0.2,0.1-0.3
					c0,0-3.9-7.9-4-8.1c0,0-0.1-0.1-0.1-0.1c-0.1,0-0.1,0-0.1,0.1c-0.1,0.2-4,8.1-4,8.1C138.3,29.6,138.3,29.7,138.5,29.7"/>
				<path class="st7" d="M143.1,27.8c0,0.3-0.3,0.6-0.6,0.6c-0.3,0-0.6-0.3-0.6-0.6c0-0.3,0.3-0.6,0.6-0.6
					C142.9,27.2,143.1,27.4,143.1,27.8"/>
				<path class="st7" d="M142.5,22.7c-0.3,0-0.6,0.3-0.6,0.6l0.2,3c0,0.2,0.2,0.4,0.4,0.4c0.2,0,0.4-0.2,0.4-0.4l0.2-3
					C143.1,22.9,142.8,22.7,142.5,22.7"/>
				<text transform="matrix(1 0 0 1.0001 138.9667 76.0437)" class="st8 st9">132.4 lbs (60.2 kg)</text>
				<polyline class="st3" points="161,67.8 178.1,58 178.1,47 161,55.6 				"/>
				<polyline class="st10" points="161,67.8 178.1,58 178.1,47 161,55.6 				"/>
				<polyline class="st3" points="145.9,47.3 163,40 178.1,47 161,56 				"/>
				<polyline class="st10" points="145.9,47.3 163,40.3 178.1,47 161,56 				"/>
				<polygon class="st3" points="145.9,47.3 161,56 161,67.8 145.9,59.1 				"/>
				<polygon class="st10" points="145.9,47.3 161,56 161,67.8 145.9,59.1 				"/>
				<line class="st3" x1="150.8" y1="56.1" x2="146.5" y2="53.6"/>
				<line class="st10" x1="150.8" y1="56.1" x2="146.5" y2="53.6"/>
				<line class="st3" x1="150.8" y1="55.9" x2="146.5" y2="53.5"/>
				<line class="st3" x1="160.5" y1="67.5" x2="160.5" y2="55.7"/>
				<line class="st10" x1="160.5" y1="67.5" x2="160.5" y2="55.7"/>
				<line class="st3" x1="146.5" y1="47.6" x2="146.5" y2="59.4"/>
				<line class="st10" x1="146.5" y1="47.6" x2="146.5" y2="59.4"/>
				<line class="st3" x1="150.8" y1="61.9" x2="150.8" y2="50.1"/>
				<line class="st3" x1="151.3" y1="50.4" x2="151.3" y2="62.2"/>
				<line class="st3" x1="155.6" y1="64.7" x2="155.6" y2="52.9"/>
				<line class="st3" x1="156.2" y1="53.2" x2="156.2" y2="65"/>
				<line class="st3" x1="155.6" y1="58.9" x2="151.3" y2="56.4"/>
				<line class="st3" x1="160.5" y1="61.7" x2="156.2" y2="59.2"/>
				<polyline class="st3" points="150.8,56.1 156.2,59.1 160.5,61.6 				"/>
				<polyline class="st10" points="150.8,56.1 156.2,59.1 160.5,61.6 				"/>
			</g>
		</g>
	</g>
</g>
<g>
	<g>
		<circle cx="201.8" cy="43.7" r="2.6"/>
		<path d="M202.4,47.8l-2.7-1.9c0,0-1.3-0.5-1.7,0.9l-3.6,7.3c0,0-0.2,1.4,1.2,2.6l5,5.8c0,0,0.7,0.7,0.1,2.2l-2,4.4
			c0,0-0.8,1.5,0.1,2.4l1,0.6c0,0,1,0,1.5-1l2.7-6.8c0,0,0.5-2.3-0.5-3.6l-3.6-4.1c0,0-0.6-1-0.2-1.9l1.5-2.4l0.6-0.1
			c0,0-0.2,1.7,0.8,2.4l4.9,4c0,0,0.8,0.1,1.1-0.4l0.4-0.5c0,0,0.3-0.9-0.4-1.6l-4.2-3.8L202.4,47.8z"/>
	</g>
	<g>
		<circle cx="220.9" cy="43.7" r="2.6"/>
		<path d="M218.7,46.9h3.7c0,0,1.5,0.3,1.5,1.6c0.1,1.3,0,4,0,4l0,5.8c0,0-0.5,0.5-0.9,0.7c0,0-0.4,0.2-0.5,0.7l-0.4,6l0.1,5.5
			c0,0-0.3,1.3-1.3,1.4h-0.6c0,0-1-0.4-1.2-1.8v-8c0,0-1.5-1.7-2-3c-0.5-1.3-0.5-7.7-0.5-7.7s-0.1-0.7-0.7-0.2l-3.4,4.7
			c0,0-0.6,0.3-1,0.2c0,0-0.8-0.6-0.5-1.6l5.8-7.4C216.9,47.7,217.8,46.7,218.7,46.9z"/>
	</g>
	<g>
		<polygon class="st3" points="213.2,65.2 224.8,63.3 224.8,54 213.2,52.1 201.6,54 201.6,63.3 		"/>
		<line class="st11" x1="213.2" y1="55.9" x2="213.2" y2="65.2"/>
		<line class="st11" x1="201.6" y1="54" x2="201.6" y2="63.3"/>
		<line class="st11" x1="224.8" y1="54" x2="224.8" y2="63.3"/>
		<line class="st11" x1="201.6" y1="54" x2="213.2" y2="55.9"/>
		<line class="st11" x1="224.8" y1="54" x2="213.2" y2="55.9"/>
		<line class="st11" x1="201.6" y1="54" x2="213.2" y2="52.1"/>
		<line class="st11" x1="224.8" y1="54" x2="213.2" y2="52.1"/>
		<line class="st11" x1="201.6" y1="63.3" x2="213.2" y2="65.2"/>
		<line class="st11" x1="224.8" y1="63.3" x2="213.2" y2="65.2"/>
	</g>
	<g>
		<circle cx="226.3" cy="43.7" r="2.6"/>
		<path d="M225.7,47.8l2.7-1.9c0,0,1.3-0.5,1.7,0.9l3.6,7.3c0,0,0.2,1.4-1.2,2.6l-5,5.8c0,0-0.7,0.7-0.1,2.2l2,4.4
			c0,0,0.8,1.5-0.1,2.4l-1,0.6c0,0-1,0-1.5-1l-2.7-6.8c0,0-0.5-2.3,0.5-3.6l3.6-4.1c0,0,0.6-1,0.2-1.9l-1.5-2.4l-0.6-0.1
			c0,0,0.2,1.7-0.8,2.4l-4.9,4c0,0-0.8,0.1-1.1-0.4l-0.4-0.5c0,0-0.3-0.9,0.4-1.6l4.2-3.8L225.7,47.8z"/>
	</g>
	<g>
		<circle cx="207.9" cy="43.7" r="2.6"/>
		<path d="M210.1,46.9h-3.7c0,0-1.5,0.3-1.5,1.6c-0.1,1.3,0,4,0,4l0,5.8c0,0,0.5,0.5,0.9,0.7c0,0,0.4,0.2,0.5,0.7l0.4,6l-0.1,5.5
			c0,0,0.3,1.3,1.3,1.4h0.6c0,0,1-0.4,1.2-1.8v-8c0,0,1.5-1.7,2-3c0.5-1.3,0.5-7.7,0.5-7.7s0.1-0.7,0.7-0.2l3.4,4.7
			c0,0,0.6,0.3,1,0.2c0,0,0.8-0.6,0.5-1.6l-5.8-7.4C211.9,47.7,211,46.7,210.1,46.9z"/>
	</g>
</g>
<g>
	<g>
		<circle cx="76.4" cy="43.7" r="2.6"/>
		<path d="M77,47.8L74.3,46c0,0-1.3-0.5-1.7,0.9L69,54.2c0,0-0.2,1.4,1.2,2.6l5,5.8c0,0,0.7,0.7,0.1,2.2l-2,4.4c0,0-0.8,1.5,0.1,2.4
			l1,0.6c0,0,1,0,1.5-1l2.7-6.8c0,0,0.5-2.3-0.5-3.6l-3.6-4.1c0,0-0.6-1-0.2-1.9l1.5-2.4l0.6-0.1c0,0-0.2,1.7,0.8,2.4l4.9,4
			c0,0,0.8,0.1,1.1-0.4l0.4-0.5c0,0,0.3-0.9-0.4-1.6L79,52.4L77,47.8z"/>
	</g>
	<g>
		<circle cx="95.5" cy="43.7" r="2.6"/>
		<path d="M93.3,46.9H97c0,0,1.5,0.3,1.5,1.6c0.1,1.3,0,4,0,4l0,5.8c0,0-0.5,0.5-0.9,0.7c0,0-0.4,0.2-0.5,0.7l-0.4,6l0.1,5.5
			c0,0-0.3,1.3-1.3,1.4h-0.6c0,0-1-0.4-1.2-1.8v-8c0,0-1.5-1.7-2-3c-0.5-1.3-0.5-7.7-0.5-7.7s-0.1-0.7-0.7-0.2l-3.4,4.7
			c0,0-0.6,0.3-1,0.2c0,0-0.8-0.6-0.5-1.6l5.8-7.4C91.5,47.7,92.4,46.7,93.3,46.9z"/>
	</g>
	<g>
		<polygon class="st3" points="87.8,65.2 99.5,63.3 99.5,54 87.8,52.1 76.2,54 76.2,63.3 		"/>
		<line class="st11" x1="87.8" y1="55.9" x2="87.8" y2="65.2"/>
		<line class="st11" x1="76.2" y1="54" x2="76.2" y2="63.3"/>
		<line class="st11" x1="99.5" y1="54" x2="99.5" y2="63.3"/>
		<line class="st11" x1="76.2" y1="54" x2="87.8" y2="55.9"/>
		<line class="st11" x1="99.5" y1="54" x2="87.8" y2="55.9"/>
		<line class="st11" x1="76.2" y1="54" x2="87.8" y2="52.1"/>
		<line class="st11" x1="99.5" y1="54" x2="87.8" y2="52.1"/>
		<line class="st11" x1="76.2" y1="63.3" x2="87.8" y2="65.2"/>
		<line class="st11" x1="99.5" y1="63.3" x2="87.8" y2="65.2"/>
	</g>
	<g>
		<circle cx="100.9" cy="43.7" r="2.6"/>
		<path d="M100.4,47.8L103,46c0,0,1.3-0.5,1.7,0.9l3.6,7.3c0,0,0.2,1.4-1.2,2.6l-5,5.8c0,0-0.7,0.7-0.1,2.2l2,4.4
			c0,0,0.8,1.5-0.1,2.4l-1,0.6c0,0-1,0-1.5-1l-2.7-6.8c0,0-0.5-2.3,0.5-3.6l3.6-4.1c0,0,0.6-1,0.2-1.9l-1.5-2.4l-0.6-0.1
			c0,0,0.2,1.7-0.8,2.4l-4.9,4c0,0-0.8,0.1-1.1-0.4l-0.4-0.5c0,0-0.3-0.9,0.4-1.6l4.2-3.8L100.4,47.8z"/>
	</g>
	<g>
		<circle cx="82.5" cy="43.7" r="2.6"/>
		<path d="M84.7,46.9H81c0,0-1.5,0.3-1.5,1.6c-0.1,1.3,0,4,0,4l0,5.8c0,0,0.5,0.5,0.9,0.7c0,0,0.4,0.2,0.5,0.7l0.4,6l-0.1,5.5
			c0,0,0.3,1.3,1.3,1.4h0.6c0,0,1-0.4,1.2-1.8v-8c0,0,1.5-1.7,2-3c0.5-1.3,0.5-7.7,0.5-7.7s0.1-0.7,0.7-0.2l3.4,4.7
			c0,0,0.6,0.3,1,0.2c0,0,0.8-0.6,0.5-1.6l-5.8-7.4C86.5,47.7,85.6,46.7,84.7,46.9z"/>
	</g>
</g>
</svg>
