<?xml version="1.0" encoding="UTF-8"?>
<!DOCTYPE svg PUBLIC "-//W3C//DTD SVG 1.1//EN" "http://www.w3.org/Graphics/SVG/1.1/DTD/svg11.dtd">
<svg width="3.638888888888889in" height="3.0277777777777777in" viewBox="-5px 579px 262px 218px">
<title>generated by pstoedit version:3.45 from c:/image_conversion/images/drw_32xx_fan.eps</title>
<g xml:space="preserve">
<clipPath id="clippath1"> 	<path d="  M 0 583.352   L 0 792   L 252.57 792   L 252.57 583.352   Z   " style="clip-rule:nonzero"/>
</clipPath>
<g style="clip-path:url(#clippath1)"> 
<g stroke="#060808" fill="none" stroke-width="0.4" stroke-linejoin="round" stroke-linecap="round" stroke-miterlimit="4">
	<path d="  M 226.789 786.301   L 252.289 771.551   "/>
</g>
<g stroke="#060808" fill="none" stroke-width="0.4" stroke-linejoin="round" stroke-linecap="round" stroke-miterlimit="4">
	<path d="  M 119.039 583.551   L 48.5 625.18   L 218.984 722.984   L 252.352 703.344   "/>
</g>
<g stroke="#060808" fill="none" stroke-width="0.4" stroke-linejoin="round" stroke-linecap="round" stroke-miterlimit="4">
	<path d="  M 252.371 760.719   L 251.801 760.922   C 251.801 760.922 250.953 761.5 250.953 760.336   C 250.953 759.172 250.957 757.883 250.957 757.883   L 235.164 766.887   C 235.164 766.887 233.773 767.719 233.773 766.016   L 233.773 739.883   C 233.773 739.883 233.621 737.633 234.621 736.969   C 235.621 736.301 238.621 734.719 238.621 734.719   C 238.621 734.719 239.789 735.301 239.789 733.219   C 239.789 731.133 239.871 730.719 239.871 730.719   C 239.871 730.719 240.039 728.133 241.289 727.551   C 242.539 726.969 248.371 723.883 248.371 723.883   C 248.371 723.883 250.539 723.801 250.621 726.301   C 250.707 728.801 250.707 735.719 250.707 735.719   C 250.707 735.719 250.871 737.719 252.121 737.469   "/>
</g>
<g stroke="#060808" fill="none" stroke-width="0.4" stroke-linejoin="round" stroke-linecap="round" stroke-miterlimit="4">
	<path d="  M 234.781 739.887   C 234.781 738.348 236.051 737.859 236.051 737.859   L 242.773 733.977   C 242.773 733.977 243.781 733.25 243.781 734.91   C 243.781 736.57 243.781 740.59 243.781 740.59   L 234.781 745.789   C 234.781 745.789 234.781 741.43 234.781 739.887   Z   "/>
</g>
<g stroke="#060808" fill="none" stroke-width="0.4" stroke-linejoin="round" stroke-linecap="round" stroke-miterlimit="4">
	<path d="  M 252.289 750.133   L 243.844 754.719   L 243.844 742.25   L 234.82 747.457   L 234.82 765.684   L 252.371 755.969   "/>
</g>
<g stroke="#060808" fill="none" stroke-width="0.4" stroke-linejoin="round" stroke-linecap="round" stroke-miterlimit="4">
	<path d="  M 252.121 752.883   L 246.328 756.188   L 243.844 754.719   "/>
</g>
<g stroke="#060808" fill="none" stroke-width="0.4" stroke-linejoin="round" stroke-linecap="round" stroke-miterlimit="4">
	<path d="  M 252.371 739.301   C 252.371 739.301 248.977 740.656 248.977 735.004   C 248.977 728.5 248.977 731.484 248.977 727.75   C 248.977 724.02 246.051 726.055 246.051 726.055   L 242.059 728.313   C 242.059 728.313 240.797 728.926 240.797 730.633   C 240.797 732.34 240.797 734.195 240.797 734.195   "/>
</g>
<g stroke="#060808" fill="none" stroke-width="0.4" stroke-linejoin="round" stroke-linecap="round" stroke-miterlimit="4">
	<path d="  M 240.797 734.195   L 244.492 732.063   L 244.492 753.457   L 252.289 748.883   "/>
</g>
<g fill="#ffffff" fill-rule="nonzero" stroke-width="0" stroke-linejoin="round" stroke-linecap="round" stroke-miterlimit="4">
	<path d="  M 234.914 745.32   L 243.66 740.266   C 243.746 740.219 243.863 740.223 243.988 740.297   C 244.246 740.445 244.449 740.801 244.449 741.094   C 244.449 741.238 244.402 741.344 244.32 741.391   L 235.57 746.441   C 235.652 746.395 235.703 746.289 235.703 746.145   C 235.703 745.852 235.496 745.496 235.242 745.348   C 235.113 745.273 234.996 745.27 234.914 745.32   Z   "/>
</g>
<g stroke="#060808" fill="none" stroke-width="0.4" stroke-linejoin="round" stroke-linecap="round" stroke-miterlimit="4">
	<path d="  M 234.914 745.32   L 243.66 740.266   C 243.746 740.219 243.863 740.223 243.988 740.297   C 244.246 740.445 244.449 740.801 244.449 741.094   C 244.449 741.238 244.402 741.344 244.32 741.391   L 235.57 746.441   C 235.652 746.395 235.703 746.289 235.703 746.145   C 235.703 745.852 235.496 745.496 235.242 745.348   C 235.113 745.273 234.996 745.27 234.914 745.32   Z   "/>
</g>
<g fill="#ffffff" fill-rule="nonzero" stroke-width="0" stroke-linejoin="round" stroke-linecap="round" stroke-miterlimit="4">
	<path d="  M 235.703 746.145   C 235.703 746.441 235.496 746.559 235.242 746.414   C 234.988 746.266 234.781 745.91 234.781 745.613   C 234.781 745.32 234.988 745.203 235.242 745.348   C 235.496 745.496 235.703 745.852 235.703 746.145   Z   "/>
</g>
<g stroke="#060808" fill="none" stroke-width="0.4" stroke-linejoin="round" stroke-linecap="round" stroke-miterlimit="4">
	<path d="  M 235.703 746.145   C 235.703 746.441 235.496 746.559 235.242 746.414   C 234.988 746.266 234.781 745.91 234.781 745.613   C 234.781 745.32 234.988 745.203 235.242 745.348   C 235.496 745.496 235.703 745.852 235.703 746.145   Z   "/>
</g>
<g stroke="#060808" fill="none" stroke-width="0.4" stroke-linejoin="round" stroke-linecap="round" stroke-miterlimit="4">
	<path d="  M 237.719 743.613   L 237.719 741.242   L 240.879 739.508   L 240.879 741.883   "/>
</g>
<g stroke="#060808" fill="none" stroke-width="0.4" stroke-linejoin="round" stroke-linecap="round" stroke-miterlimit="4">
	<path d="  M 237.719 743.559   L 239.063 744.332   L 239.063 744.91   "/>
</g>
<g stroke="#060808" fill="none" stroke-width="0.4" stroke-linejoin="round" stroke-linecap="round" stroke-miterlimit="4">
	<path d="  M 240.934 741.797   L 242.277 742.57   L 242.277 743.066   "/>
</g>
<g stroke="#060808" fill="none" stroke-width="0.4" stroke-linejoin="round" stroke-linecap="round" stroke-miterlimit="4">
	<path d="  M 246.203 751.324   L 244.492 752.313   L 244.492 753.457   L 246.203 752.469   Z   "/>
</g>
<g stroke="#060808" fill="none" stroke-width="0.4" stroke-linejoin="round" stroke-linecap="round" stroke-miterlimit="4">
	<path d="  M 55.7031 698.113   L 105.129 726.648   L 111.512 730.336   L 161.117 758.973   L 167.551 762.688   L 216.992 791.234   "/>
</g>
<g stroke="#060808" fill="none" stroke-width="0.4" stroke-linejoin="round" stroke-linecap="round" stroke-miterlimit="4">
	<path d="  M 105.125 725.207   L 55.6836 696.66   "/>
</g>
<g stroke="#060808" fill="none" stroke-width="0.4" stroke-linejoin="round" stroke-linecap="round" stroke-miterlimit="4">
	<path d="  M 111.52 661.156   L 111.52 727.02   "/>
</g>
<g stroke="#060808" fill="none" stroke-width="0.4" stroke-linejoin="round" stroke-linecap="round" stroke-miterlimit="4">
	<path d="  M 167.559 693.813   L 167.559 759.875   "/>
</g>
<g stroke="#060808" fill="none" stroke-width="0.4" stroke-linejoin="round" stroke-linecap="round" stroke-miterlimit="4">
	<path d="  M 165.289 759.883   L 161.117 757.535   L 111.5 728.891   L 110.945 728.656   "/>
</g>
<g stroke="#060808" fill="none" stroke-width="0.4" stroke-linejoin="round" stroke-linecap="round" stroke-miterlimit="4">
	<path d="  M 216.992 789.797   L 167.742 761.266   "/>
</g>
<g stroke="#060808" fill="none" stroke-width="0.4" stroke-linejoin="round" stroke-linecap="round" stroke-miterlimit="4">
	<path d="  M 161.113 698.727   L 159.949 699.402   L 159.949 690.789   L 161.113 690.117   Z   "/>
</g>
<g stroke="#060808" fill="none" stroke-width="0.4" stroke-linejoin="round" stroke-linecap="round" stroke-miterlimit="4">
	<path d="  M 113.664 671.27   L 112.5 671.941   L 112.5 663.332   L 113.664 662.656   Z   "/>
</g>
<g stroke="#060808" fill="none" stroke-width="0.4" stroke-linejoin="round" stroke-linecap="round" stroke-miterlimit="4">
	<path d="  M 111.672 729.016   L 120.516 723.91   "/>
</g>
<g fill="#ffffff" fill-rule="nonzero" stroke-width="0" stroke-linejoin="round" stroke-linecap="round" stroke-miterlimit="4">
	<path d="  M 120.457 723.016   L 119.156 723.766   L 160.137 747.426   "/>
</g>
<g stroke="#060808" fill="none" stroke-width="0.4" stroke-linejoin="round" stroke-linecap="round" stroke-miterlimit="4">
	<path d="  M 120.457 723.016   L 119.156 723.766   L 160.137 747.426   "/>
</g>
<g stroke="#060808" fill="none" stroke-width="0.4" stroke-linejoin="round" stroke-linecap="round" stroke-miterlimit="4">
	<path d="  M 120.516 723.91   L 120.516 666.375   "/>
</g>
<g fill="#ffffff" fill-rule="nonzero" stroke-width="0" stroke-linejoin="round" stroke-linecap="round" stroke-miterlimit="4">
	<path d="  M 110.859 728.738   L 110.164 728.754   L 109.539 727.902   C 109.539 727.902 109.141 727.305 109.824 726.281   L 111.613 723.242   C 111.613 723.242 112.492 721.445 112.703 720.352   C 112.703 720.352 113.09 718.699 113.031 715.203   L 113.031 672.656   L 116.699 673.766   L 116.699 703.141   "/>
</g>
<g stroke="#060808" fill="none" stroke-width="0.4" stroke-linejoin="round" stroke-linecap="round" stroke-miterlimit="4">
	<path d="  M 110.859 728.738   L 110.164 728.754   L 109.539 727.902   C 109.539 727.902 109.141 727.305 109.824 726.281   L 111.613 723.242   C 111.613 723.242 112.492 721.445 112.703 720.352   C 112.703 720.352 113.09 718.699 113.031 715.203   L 113.031 672.656   L 116.699 673.766   L 116.699 703.141   "/>
</g>
<g fill="#ffffff" fill-rule="nonzero" stroke-width="0" stroke-linejoin="round" stroke-linecap="round" stroke-miterlimit="4">
	<path d="  M 113.664 673.012   L 113.664 712.246   L 113.664 715.91   C 113.664 715.91 113.887 720.613 112.363 723.07   L 110.246 726.641   C 110.246 726.641 109.824 727.316 110.207 727.895   L 110.945 728.656   L 113.305 726.375   C 113.305 726.375 115.184 724.848 115.652 726.492   L 115.773 727.762   C 115.773 727.762 115.758 728.406 116.375 728.191   C 116.781 728.051 117.598 727.551 117.875 727.383   C 118.23 727.164 118.242 726.434 118.242 726.434   L 118.242 724.496   L 119.418 720.379   L 121.77 719.32   C 121.77 719.32 122.59 718.852 122.59 717.203   C 122.59 715.559 122.59 714.383 121.297 714.148   C 121.297 714.148 119.793 713.77 119.535 712.148   C 119.387 711.223 119.461 676.395 119.461 676.395   "/>
</g>
<g stroke="#060808" fill="none" stroke-width="0.4" stroke-linejoin="round" stroke-linecap="round" stroke-miterlimit="4">
	<path d="  M 113.664 673.012   L 113.664 712.246   L 113.664 715.91   C 113.664 715.91 113.887 720.613 112.363 723.07   L 110.246 726.641   C 110.246 726.641 109.824 727.316 110.207 727.895   L 110.945 728.656   L 113.305 726.375   C 113.305 726.375 115.184 724.848 115.652 726.492   L 115.773 727.762   C 115.773 727.762 115.758 728.406 116.375 728.191   C 116.781 728.051 117.598 727.551 117.875 727.383   C 118.23 727.164 118.242 726.434 118.242 726.434   L 118.242 724.496   L 119.418 720.379   L 121.77 719.32   C 121.77 719.32 122.59 718.852 122.59 717.203   C 122.59 715.559 122.59 714.383 121.297 714.148   C 121.297 714.148 119.793 713.77 119.535 712.148   C 119.387 711.223 119.461 676.395 119.461 676.395   "/>
</g>
<g stroke="#060808" fill="none" stroke-width="0.4" stroke-linejoin="round" stroke-linecap="round" stroke-miterlimit="4">
	<path d="  M 117.078 722.848   C 117.078 723.602 116.551 724.52 115.895 724.898   C 115.242 725.273 114.715 724.969 114.715 724.215   C 114.715 723.461 115.242 722.543 115.895 722.164   C 116.551 721.789 117.078 722.094 117.078 722.848   Z   "/>
</g>
<g fill="#ffffff" fill-rule="nonzero" stroke-width="0" stroke-linejoin="round" stroke-linecap="round" stroke-miterlimit="4">
	<path d="  M 161.152 751.039   L 158.684 752.465   L 115.93 727.781   L 121.004 724.852   L 161.133 748.02   "/>
</g>
<g stroke="#060808" fill="none" stroke-width="0.4" stroke-linejoin="round" stroke-linecap="round" stroke-miterlimit="4">
	<path d="  M 161.152 751.039   L 158.684 752.465   L 115.93 727.781   L 121.004 724.852   L 161.133 748.02   "/>
</g>
<g fill="#ffffff" fill-rule="nonzero" stroke-width="0" stroke-linejoin="round" stroke-linecap="round" stroke-miterlimit="4">
	<path d="  M 161.145 751.855   L 158.684 753.277   L 158.684 752.465   L 161.152 751.039   "/>
</g>
<g stroke="#060808" fill="none" stroke-width="0.4" stroke-linejoin="round" stroke-linecap="round" stroke-miterlimit="4">
	<path d="  M 161.145 751.855   L 158.684 753.277   L 158.684 752.465   L 161.152 751.039   "/>
</g>
<g fill="#ffffff" fill-rule="nonzero" stroke-width="0" stroke-linejoin="round" stroke-linecap="round" stroke-miterlimit="4">
	<path d="  M 158.684 753.277   L 115.93 728.594   L 115.93 727.781   L 158.684 752.465   Z   "/>
</g>
<g stroke="#060808" fill="none" stroke-width="0.4" stroke-linejoin="round" stroke-linecap="round" stroke-miterlimit="4">
	<path d="  M 158.684 753.277   L 115.93 728.594   L 115.93 727.781   L 158.684 752.465   Z   "/>
</g>
<g fill="#ffffff" fill-rule="nonzero" stroke-width="0" stroke-linejoin="round" stroke-linecap="round" stroke-miterlimit="4">
	<path d="  M 160.195 699.879   L 112.43 672.297   L 112.43 662.504   L 160.195 690.082   Z   "/>
</g>
<g stroke="#060808" fill="none" stroke-width="0.4" stroke-linejoin="round" stroke-linecap="round" stroke-miterlimit="4">
	<path d="  M 160.195 699.879   L 112.43 672.297   L 112.43 662.504   L 160.195 690.082   Z   "/>
</g>
<g fill="#ffffff" fill-rule="nonzero" stroke-width="0" stroke-linejoin="round" stroke-linecap="round" stroke-miterlimit="4">
	<path d="  M 160.547 698.922   L 160.547 742.109   C 160.547 742.109 160.77 746.391 159.652 749.152   L 156.898 754.066   C 156.898 754.066 156.188 755.223 156.473 755.855   C 156.473 755.855 156.898 756.824 157.668 757.164   C 157.668 757.164 159.094 757.766 159.836 756.871   C 160.574 755.973 161.156 753.129 161.156 753.129   "/>
</g>
<g stroke="#060808" fill="none" stroke-width="0.4" stroke-linejoin="round" stroke-linecap="round" stroke-miterlimit="4">
	<path d="  M 160.547 698.922   L 160.547 742.109   C 160.547 742.109 160.77 746.391 159.652 749.152   L 156.898 754.066   C 156.898 754.066 156.188 755.223 156.473 755.855   C 156.473 755.855 156.898 756.824 157.668 757.164   C 157.668 757.164 159.094 757.766 159.836 756.871   C 160.574 755.973 161.156 753.129 161.156 753.129   "/>
</g>
<g fill="#ffffff" fill-rule="nonzero" stroke-width="0" stroke-linejoin="round" stroke-linecap="round" stroke-miterlimit="4">
	<path d="  M 161.172 746.953   C 160.973 748.629 157.723 754.066 157.723 754.066   C 157.723 754.066 157.016 754.977 157.297 755.855   C 157.297 755.855 157.727 756.824 158.488 757.164   C 158.488 757.164 158.859 757.34 159.25 757.262   C 159.641 757.184 161.117 755.313 161.117 755.313   "/>
</g>
<g stroke="#060808" fill="none" stroke-width="0.4" stroke-linejoin="round" stroke-linecap="round" stroke-miterlimit="4">
	<path d="  M 161.172 746.953   C 160.973 748.629 157.723 754.066 157.723 754.066   C 157.723 754.066 157.016 754.977 157.297 755.855   C 157.297 755.855 157.727 756.824 158.488 757.164   C 158.488 757.164 158.859 757.34 159.25 757.262   C 159.641 757.184 161.117 755.313 161.117 755.313   "/>
</g>
<g stroke="#060808" fill="none" stroke-width="0.4" stroke-linejoin="round" stroke-linecap="round" stroke-miterlimit="4">
	<path d="  M 120.516 723.91   L 160.285 746.871   "/>
</g>
<g stroke="#060808" fill="none" stroke-width="0.4" stroke-linejoin="round" stroke-linecap="round" stroke-miterlimit="4">
	<path d="  M 217.074 731.152   L 215.91 731.824   L 215.91 723.219   L 217.074 722.543   Z   "/>
</g>
<g stroke="#060808" fill="none" stroke-width="0.4" stroke-linejoin="round" stroke-linecap="round" stroke-miterlimit="4">
	<path d="  M 169.629 703.691   L 168.461 704.367   L 168.461 695.758   L 169.629 695.082   Z   "/>
</g>
<g stroke="#060808" fill="none" stroke-width="0.4" stroke-linejoin="round" stroke-linecap="round" stroke-miterlimit="4">
	<path d="  M 176.477 756.332   L 167.633 761.273   L 166.906 761.078   "/>
</g>
<g fill="#ffffff" fill-rule="nonzero" stroke-width="0" stroke-linejoin="round" stroke-linecap="round" stroke-miterlimit="4">
	<path d="  M 176.422 755.441   L 175.117 756.191   L 216.098 779.848   "/>
</g>
<g stroke="#060808" fill="none" stroke-width="0.4" stroke-linejoin="round" stroke-linecap="round" stroke-miterlimit="4">
	<path d="  M 176.422 755.441   L 175.117 756.191   L 216.098 779.848   "/>
</g>
<g stroke="#060808" fill="none" stroke-width="0.4" stroke-linejoin="round" stroke-linecap="round" stroke-miterlimit="4">
	<path d="  M 176.477 756.332   L 176.477 698.801   "/>
</g>
<g fill="#ffffff" fill-rule="nonzero" stroke-width="0" stroke-linejoin="round" stroke-linecap="round" stroke-miterlimit="4">
	<path d="  M 166.82 761.164   L 166.125 761.18   L 165.5 760.328   C 165.5 760.328 165.105 759.727 165.785 758.707   L 167.574 755.668   C 167.574 755.668 168.449 753.871 168.664 752.777   C 168.664 752.777 169.051 751.125 168.992 747.633   L 168.992 705.082   L 172.66 706.191   L 172.66 735.566   "/>
</g>
<g stroke="#060808" fill="none" stroke-width="0.4" stroke-linejoin="round" stroke-linecap="round" stroke-miterlimit="4">
	<path d="  M 166.82 761.164   L 166.125 761.18   L 165.5 760.328   C 165.5 760.328 165.105 759.727 165.785 758.707   L 167.574 755.668   C 167.574 755.668 168.449 753.871 168.664 752.777   C 168.664 752.777 169.051 751.125 168.992 747.633   L 168.992 705.082   L 172.66 706.191   L 172.66 735.566   "/>
</g>
<g fill="#ffffff" fill-rule="nonzero" stroke-width="0" stroke-linejoin="round" stroke-linecap="round" stroke-miterlimit="4">
	<path d="  M 169.621 705.438   L 169.621 744.676   L 169.621 748.336   C 169.621 748.336 169.848 753.039 168.324 755.496   L 166.207 759.066   C 166.207 759.066 165.785 759.742 166.168 760.32   L 166.906 761.078   L 169.266 758.801   C 169.266 758.801 171.145 757.273 171.613 758.918   L 171.73 760.188   C 171.73 760.188 171.719 760.832 172.336 760.617   C 172.742 760.473 173.559 759.977 173.836 759.809   C 174.191 759.594 174.199 758.859 174.199 758.859   L 174.199 756.922   L 175.379 752.805   L 177.73 751.746   C 177.73 751.746 178.555 751.277 178.555 749.629   C 178.555 747.984 178.555 746.809 177.258 746.574   C 177.258 746.574 175.758 746.191 175.492 744.574   C 175.348 743.645 175.422 708.82 175.422 708.82   "/>
</g>
<g stroke="#060808" fill="none" stroke-width="0.4" stroke-linejoin="round" stroke-linecap="round" stroke-miterlimit="4">
	<path d="  M 169.621 705.438   L 169.621 744.676   L 169.621 748.336   C 169.621 748.336 169.848 753.039 168.324 755.496   L 166.207 759.066   C 166.207 759.066 165.785 759.742 166.168 760.32   L 166.906 761.078   L 169.266 758.801   C 169.266 758.801 171.145 757.273 171.613 758.918   L 171.73 760.188   C 171.73 760.188 171.719 760.832 172.336 760.617   C 172.742 760.473 173.559 759.977 173.836 759.809   C 174.191 759.594 174.199 758.859 174.199 758.859   L 174.199 756.922   L 175.379 752.805   L 177.73 751.746   C 177.73 751.746 178.555 751.277 178.555 749.629   C 178.555 747.984 178.555 746.809 177.258 746.574   C 177.258 746.574 175.758 746.191 175.492 744.574   C 175.348 743.645 175.422 708.82 175.422 708.82   "/>
</g>
<g stroke="#060808" fill="none" stroke-width="0.4" stroke-linejoin="round" stroke-linecap="round" stroke-miterlimit="4">
	<path d="  M 173.039 755.273   C 173.039 756.027 172.512 756.945 171.855 757.324   C 171.203 757.699 170.676 757.395 170.676 756.641   C 170.676 755.887 171.203 754.969 171.855 754.59   C 172.512 754.215 173.039 754.52 173.039 755.273   Z   "/>
</g>
<g fill="#ffffff" fill-rule="nonzero" stroke-width="0" stroke-linejoin="round" stroke-linecap="round" stroke-miterlimit="4">
	<path d="  M 217.113 783.465   L 214.645 784.891   L 171.891 760.203   L 176.965 757.277   L 217.094 780.445   "/>
</g>
<g stroke="#060808" fill="none" stroke-width="0.4" stroke-linejoin="round" stroke-linecap="round" stroke-miterlimit="4">
	<path d="  M 217.113 783.465   L 214.645 784.891   L 171.891 760.203   L 176.965 757.277   L 217.094 780.445   "/>
</g>
<g fill="#ffffff" fill-rule="nonzero" stroke-width="0" stroke-linejoin="round" stroke-linecap="round" stroke-miterlimit="4">
	<path d="  M 217.105 784.281   L 214.645 785.703   L 214.645 784.891   L 217.113 783.465   "/>
</g>
<g stroke="#060808" fill="none" stroke-width="0.4" stroke-linejoin="round" stroke-linecap="round" stroke-miterlimit="4">
	<path d="  M 217.105 784.281   L 214.645 785.703   L 214.645 784.891   L 217.113 783.465   "/>
</g>
<g fill="#ffffff" fill-rule="nonzero" stroke-width="0" stroke-linejoin="round" stroke-linecap="round" stroke-miterlimit="4">
	<path d="  M 214.645 785.703   L 171.891 761.016   L 171.891 760.203   L 214.645 784.891   Z   "/>
</g>
<g stroke="#060808" fill="none" stroke-width="0.4" stroke-linejoin="round" stroke-linecap="round" stroke-miterlimit="4">
	<path d="  M 214.645 785.703   L 171.891 761.016   L 171.891 760.203   L 214.645 784.891   Z   "/>
</g>
<g fill="#ffffff" fill-rule="nonzero" stroke-width="0" stroke-linejoin="round" stroke-linecap="round" stroke-miterlimit="4">
	<path d="  M 216.156 732.305   L 168.391 704.723   L 168.391 694.93   L 216.156 722.508   Z   "/>
</g>
<g stroke="#060808" fill="none" stroke-width="0.4" stroke-linejoin="round" stroke-linecap="round" stroke-miterlimit="4">
	<path d="  M 216.156 732.305   L 168.391 704.723   L 168.391 694.93   L 216.156 722.508   Z   "/>
</g>
<g fill="#ffffff" fill-rule="nonzero" stroke-width="0" stroke-linejoin="round" stroke-linecap="round" stroke-miterlimit="4">
	<path d="  M 216.508 731.348   L 216.508 774.535   C 216.508 774.535 216.73 778.816 215.613 781.578   L 212.859 786.492   C 212.859 786.492 212.145 787.648 212.434 788.281   C 212.434 788.281 212.859 789.246 213.629 789.59   C 213.629 789.59 215.055 790.191 215.797 789.297   C 216.535 788.398 217.117 785.555 217.117 785.555   "/>
</g>
<g stroke="#060808" fill="none" stroke-width="0.4" stroke-linejoin="round" stroke-linecap="round" stroke-miterlimit="4">
	<path d="  M 216.508 731.348   L 216.508 774.535   C 216.508 774.535 216.73 778.816 215.613 781.578   L 212.859 786.492   C 212.859 786.492 212.145 787.648 212.434 788.281   C 212.434 788.281 212.859 789.246 213.629 789.59   C 213.629 789.59 215.055 790.191 215.797 789.297   C 216.535 788.398 217.117 785.555 217.117 785.555   "/>
</g>
<g fill="#ffffff" fill-rule="nonzero" stroke-width="0" stroke-linejoin="round" stroke-linecap="round" stroke-miterlimit="4">
	<path d="  M 217.133 779.379   C 216.934 781.055 213.684 786.492 213.684 786.492   C 213.684 786.492 212.977 787.402 213.258 788.281   C 213.258 788.281 213.688 789.246 214.449 789.59   C 214.449 789.59 214.82 789.766 215.211 789.688   C 215.602 789.609 217.078 787.738 217.078 787.738   "/>
</g>
<g stroke="#060808" fill="none" stroke-width="0.4" stroke-linejoin="round" stroke-linecap="round" stroke-miterlimit="4">
	<path d="  M 217.133 779.379   C 216.934 781.055 213.684 786.492 213.684 786.492   C 213.684 786.492 212.977 787.402 213.258 788.281   C 213.258 788.281 213.688 789.246 214.449 789.59   C 214.449 789.59 214.82 789.766 215.211 789.688   C 215.602 789.609 217.078 787.738 217.078 787.738   "/>
</g>
<g stroke="#060808" fill="none" stroke-width="0.4" stroke-linejoin="round" stroke-linecap="round" stroke-miterlimit="4">
	<path d="  M 176.477 756.332   L 216.246 779.293   "/>
</g>
<g stroke="#060808" fill="none" stroke-width="0.4" stroke-linejoin="round" stroke-linecap="round" stroke-miterlimit="4">
	<path d="  M 211.402 724.637   C 211.402 725.414 211.949 726.359 212.625 726.75   C 213.301 727.141 213.848 726.824 213.848 726.047   C 213.848 725.266 213.301 724.32 212.625 723.934   C 211.949 723.539 211.402 723.855 211.402 724.637   Z   "/>
</g>
<g stroke="#060808" fill="none" stroke-width="0.4" stroke-linejoin="round" stroke-linecap="round" stroke-miterlimit="4">
	<path d="  M 201.098 720.941   C 201.098 720.941 200.984 722.211 201.297 722.523   C 201.43 722.652 203.84 724.016 203.961 724.059   C 204.684 724.34 205.543 723.926 205.543 723.926   L 208.418 722.215   "/>
</g>
<g stroke="#060808" fill="none" stroke-width="0.4" stroke-linejoin="round" stroke-linecap="round" stroke-miterlimit="4">
	<path d="  M 204.512 717.641   L 203.141 719.363   L 201.523 720.297   C 201.523 720.297 200.762 720.773 201.297 721.277   C 201.434 721.406 203.84 722.77 203.961 722.813   C 204.684 723.098 205.543 722.68 205.543 722.68   L 207.113 721.773   L 208.406 719.887   L 208.414 722.211   "/>
</g>
<g stroke="#060808" fill="none" stroke-width="0.4" stroke-linejoin="round" stroke-linecap="round" stroke-miterlimit="4">
	<path d="  M 203.098 719.43   L 207.094 721.738   "/>
</g>
<g stroke="#060808" fill="none" stroke-width="0.4" stroke-linejoin="round" stroke-linecap="round" stroke-miterlimit="4">
	<path d="  M 203.961 722.813   L 203.961 724.059   "/>
</g>
<g stroke="#060808" fill="none" stroke-width="0.4" stroke-linejoin="round" stroke-linecap="round" stroke-miterlimit="4">
	<path d="  M 205.52 722.699   L 205.52 723.879   "/>
</g>
<g stroke="#060808" fill="none" stroke-width="0.4" stroke-linejoin="round" stroke-linecap="round" stroke-miterlimit="4">
	<path d="  M 204.523 717.637   L 208.391 719.867   "/>
</g>
<g stroke="#060808" fill="none" stroke-width="0.4" stroke-linejoin="round" stroke-linecap="round" stroke-miterlimit="4">
	<path d="  M 145.348 688.941   C 145.348 688.941 145.234 690.211 145.547 690.523   C 145.68 690.652 148.09 692.016 148.211 692.059   C 148.934 692.34 149.793 691.926 149.793 691.926   L 152.668 690.215   "/>
</g>
<g stroke="#060808" fill="none" stroke-width="0.4" stroke-linejoin="round" stroke-linecap="round" stroke-miterlimit="4">
	<path d="  M 148.762 685.641   L 147.391 687.363   L 145.773 688.297   C 145.773 688.297 145.012 688.773 145.547 689.277   C 145.684 689.406 148.09 690.77 148.211 690.812   C 148.934 691.098 149.793 690.68 149.793 690.68   L 151.363 689.773   L 152.656 687.887   L 152.664 690.211   "/>
</g>
<g stroke="#060808" fill="none" stroke-width="0.4" stroke-linejoin="round" stroke-linecap="round" stroke-miterlimit="4">
	<path d="  M 147.348 687.43   L 151.344 689.738   "/>
</g>
<g stroke="#060808" fill="none" stroke-width="0.4" stroke-linejoin="round" stroke-linecap="round" stroke-miterlimit="4">
	<path d="  M 148.211 690.812   L 148.211 692.059   "/>
</g>
<g stroke="#060808" fill="none" stroke-width="0.4" stroke-linejoin="round" stroke-linecap="round" stroke-miterlimit="4">
	<path d="  M 149.77 690.699   L 149.77 691.879   "/>
</g>
<g stroke="#060808" fill="none" stroke-width="0.4" stroke-linejoin="round" stroke-linecap="round" stroke-miterlimit="4">
	<path d="  M 148.773 685.637   L 152.641 687.867   "/>
</g>
<g stroke="#060808" fill="none" stroke-width="0.4" stroke-linejoin="round" stroke-linecap="round" stroke-miterlimit="4">
	<path d="  M 105.164 657.633   L 105.164 723.234   L 109.957 726.051   "/>
</g>
<g stroke="#060808" fill="none" stroke-width="0.4" stroke-linejoin="round" stroke-linecap="round" stroke-miterlimit="4">
	<path d="  M 161.199 690.289   L 161.199 755.281   L 166.207 757.969   "/>
</g>
<g stroke="#060808" fill="none" stroke-width="0.4" stroke-linejoin="round" stroke-linecap="round" stroke-miterlimit="4">
	<path d="  M 217.16 722.41   L 217.16 791.184   L 217.871 791.801   L 217.871 774.801   "/>
</g>
<g fill="#ffffff" fill-rule="nonzero" stroke-width="0" stroke-linejoin="round" stroke-linecap="round" stroke-miterlimit="4">
	<path d="  M 55.1367 628.797   L 19.2383 649.523   C 19.2383 649.523 16.5156 650.734 16.5156 654.637   C 16.5156 658.539 16.5156 711.41 16.5156 714.012   C 16.5156 717.789 19.3945 716.242 19.3945 716.242   L 83.4219 679.277   "/>
</g>
<g stroke="#060808" fill="none" stroke-width="0.4" stroke-linejoin="round" stroke-linecap="round" stroke-miterlimit="4">
	<path d="  M 55.1367 628.797   L 19.2383 649.523   C 19.2383 649.523 16.5156 650.734 16.5156 654.637   C 16.5156 658.539 16.5156 711.41 16.5156 714.012   C 16.5156 717.789 19.3945 716.242 19.3945 716.242   L 83.4219 679.277   "/>
</g>
<g fill="#ffffff" fill-rule="nonzero" stroke-width="0" stroke-linejoin="round" stroke-linecap="round" stroke-miterlimit="4">
	<path d="  M 25.168 711.863   L 23.8711 712.609   L 64.7148 736.191   "/>
</g>
<g stroke="#060808" fill="none" stroke-width="0.4" stroke-linejoin="round" stroke-linecap="round" stroke-miterlimit="4">
	<path d="  M 25.168 711.863   L 23.8711 712.609   L 64.7148 736.191   "/>
</g>
<g fill="#ffffff" fill-rule="nonzero" stroke-width="0" stroke-linejoin="round" stroke-linecap="round" stroke-miterlimit="4">
	<path d="  M 75.0859 741.543   L 25.1719 712.723   L 25.1719 646.062   L 75.0859 674.883   Z   "/>
</g>
<g stroke="#060808" fill="none" stroke-width="0.4" stroke-linejoin="round" stroke-linecap="round" stroke-miterlimit="4">
	<path d="  M 75.0859 741.543   L 25.1719 712.723   L 25.1719 646.062   L 75.0859 674.883   Z   "/>
</g>
<g fill="#ffffff" fill-rule="nonzero" stroke-width="0" stroke-linejoin="round" stroke-linecap="round" stroke-miterlimit="4">
	<path d="  M 24.5508 713.758   L 23.5859 712.078   L 22.5547 707.941   L 24.0625 705.859   C 24.0625 705.859 24.5391 705.043 23.7188 703.621   C 22.9023 702.199 22.3164 701.184 21.082 701.621   C 21.082 701.621 19.5938 702.039 18.5664 700.773   C 18 700.078 7.58594 683.793 6.68359 682.379   L 6.87109 682.27   C 6.87109 682.27 7.86719 681.809 7.86719 680.527   C 7.86719 679.242 7.86719 675.227 7.86719 674.801   C 7.86719 674.035 5.10938 673.773 5.10938 673.773   L 0.199219 676.637   L 0.199219 686.137   L 1.17969 685.543   L 13.543 703.777   L 15.3633 706.941   C 15.3633 706.941 17.8945 710.891 17.7969 713.773   L 17.7461 717.91   C 17.7461 717.91 17.7188 718.703 18.3359 719.016   L 19.3516 719.301   L 20.2539 716.16   C 20.2539 716.16 21.1211 713.906 22.3438 715.094   L 23.0781 716.129   C 23.0781 716.129 23.3867 716.691 23.8086 716.203   C 24.0898 715.875 24.5508 715.039 24.707 714.758   C 24.9063 714.395 24.5508 713.758 24.5508 713.758   Z   "/>
</g>
<g stroke="#060808" fill="none" stroke-width="0.4" stroke-linejoin="round" stroke-linecap="round" stroke-miterlimit="4">
	<path d="  M 24.5508 713.758   L 23.5859 712.078   L 22.5547 707.941   L 24.0625 705.859   C 24.0625 705.859 24.5391 705.043 23.7188 703.621   C 22.9023 702.199 22.3164 701.184 21.082 701.621   C 21.082 701.621 19.5938 702.039 18.5664 700.773   C 18 700.078 7.58594 683.793 6.68359 682.379   L 6.87109 682.27   C 6.87109 682.27 7.86719 681.809 7.86719 680.527   C 7.86719 679.242 7.86719 675.227 7.86719 674.801   C 7.86719 674.035 5.10938 673.773 5.10938 673.773   L 0.199219 676.637   L 0.199219 686.137   L 1.17969 685.543   L 13.543 703.777   L 15.3633 706.941   C 15.3633 706.941 17.8945 710.891 17.7969 713.773   L 17.7461 717.91   C 17.7461 717.91 17.7188 718.703 18.3359 719.016   L 19.3516 719.301   L 20.2539 716.16   C 20.2539 716.16 21.1211 713.906 22.3438 715.094   L 23.0781 716.129   C 23.0781 716.129 23.3867 716.691 23.8086 716.203   C 24.0898 715.875 24.5508 715.039 24.707 714.758   C 24.9063 714.395 24.5508 713.758 24.5508 713.758   Z   "/>
</g>
<g stroke="#060808" fill="none" stroke-width="0.4" stroke-linejoin="round" stroke-linecap="round" stroke-miterlimit="4">
	<path d="  M 21.7188 711.207   C 22.0938 711.859 22.0938 712.914 21.7188 713.566   C 21.3398 714.215 20.7305 714.215 20.3555 713.563   C 19.9805 712.91 19.9805 711.855 20.3594 711.203   C 20.7344 710.555 21.3438 710.555 21.7188 711.207   Z   "/>
</g>
<g fill="#ffffff" fill-rule="nonzero" stroke-width="0" stroke-linejoin="round" stroke-linecap="round" stroke-miterlimit="4">
	<path d="  M 66.3516 740.156   L 63.8594 741.598   L 20.6523 716.652   L 25.7813 713.691   L 66.332 737.105   "/>
</g>
<g stroke="#060808" fill="none" stroke-width="0.4" stroke-linejoin="round" stroke-linecap="round" stroke-miterlimit="4">
	<path d="  M 66.3516 740.156   L 63.8594 741.598   L 20.6523 716.652   L 25.7813 713.691   L 66.332 737.105   "/>
</g>
<g fill="#ffffff" fill-rule="nonzero" stroke-width="0" stroke-linejoin="round" stroke-linecap="round" stroke-miterlimit="4">
	<path d="  M 66.3438 740.984   L 63.8594 742.418   L 63.8594 741.598   L 66.3516 740.156   "/>
</g>
<g stroke="#060808" fill="none" stroke-width="0.4" stroke-linejoin="round" stroke-linecap="round" stroke-miterlimit="4">
	<path d="  M 66.3438 740.984   L 63.8594 742.418   L 63.8594 741.598   L 66.3516 740.156   "/>
</g>
<g fill="#ffffff" fill-rule="nonzero" stroke-width="0" stroke-linejoin="round" stroke-linecap="round" stroke-miterlimit="4">
	<path d="  M 63.8594 742.418   L 20.6523 717.473   L 20.6523 716.652   L 63.8594 741.598   Z   "/>
</g>
<g stroke="#060808" fill="none" stroke-width="0.4" stroke-linejoin="round" stroke-linecap="round" stroke-miterlimit="4">
	<path d="  M 63.8594 742.418   L 20.6523 717.473   L 20.6523 716.652   L 63.8594 741.598   Z   "/>
</g>
<g fill="#ffffff" fill-rule="nonzero" stroke-width="0" stroke-linejoin="round" stroke-linecap="round" stroke-miterlimit="4">
	<path d="  M 69.7383 740.172   L 68.7734 738.496   L 67.7422 734.355   L 69.2461 732.273   C 69.2461 732.273 69.7266 731.457 68.9063 730.035   C 68.0898 728.613 67.5039 727.598 66.2695 728.035   C 66.2695 728.035 64.7813 728.453 63.75 727.188   C 63.1875 726.492 52.7734 710.207 51.8711 708.793   L 52.0586 708.684   C 52.0586 708.684 53.0547 708.227 53.0547 706.941   C 53.0547 705.656 53.0547 701.281 53.0547 700.855   C 53.0547 700.09 50.2969 699.828 50.2969 699.828   L 45.3867 702.691   L 45.3867 712.551   L 46.3672 711.957   L 58.7266 730.191   L 60.5508 733.355   C 60.5508 733.355 63.082 737.309 62.9844 740.188   L 62.9336 744.324   C 62.9336 744.324 62.9063 745.117 63.5234 745.43   L 64.5391 745.715   L 65.4414 742.574   C 65.4414 742.574 66.3086 740.32 67.5313 741.508   L 68.2656 742.547   C 68.2656 742.547 68.5742 743.105 68.9961 742.617   C 69.2773 742.289 69.7383 741.453 69.8945 741.172   C 70.0938 740.809 69.7383 740.172 69.7383 740.172   Z   "/>
</g>
<g stroke="#060808" fill="none" stroke-width="0.4" stroke-linejoin="round" stroke-linecap="round" stroke-miterlimit="4">
	<path d="  M 69.7383 740.172   L 68.7734 738.496   L 67.7422 734.355   L 69.2461 732.273   C 69.2461 732.273 69.7266 731.457 68.9063 730.035   C 68.0898 728.613 67.5039 727.598 66.2695 728.035   C 66.2695 728.035 64.7813 728.453 63.75 727.188   C 63.1875 726.492 52.7734 710.207 51.8711 708.793   L 52.0586 708.684   C 52.0586 708.684 53.0547 708.227 53.0547 706.941   C 53.0547 705.656 53.0547 701.281 53.0547 700.855   C 53.0547 700.09 50.2969 699.828 50.2969 699.828   L 45.3867 702.691   L 45.3867 712.551   L 46.3672 711.957   L 58.7266 730.191   L 60.5508 733.355   C 60.5508 733.355 63.082 737.309 62.9844 740.188   L 62.9336 744.324   C 62.9336 744.324 62.9063 745.117 63.5234 745.43   L 64.5391 745.715   L 65.4414 742.574   C 65.4414 742.574 66.3086 740.32 67.5313 741.508   L 68.2656 742.547   C 68.2656 742.547 68.5742 743.105 68.9961 742.617   C 69.2773 742.289 69.7383 741.453 69.8945 741.172   C 70.0938 740.809 69.7383 740.172 69.7383 740.172   Z   "/>
</g>
<g fill="#ffffff" fill-rule="nonzero" stroke-width="0" stroke-linejoin="round" stroke-linecap="round" stroke-miterlimit="4">
	<path d="  M 104.762 657.723   L 69.1133 678.301   C 69.1133 678.301 66.3906 679.516 66.3906 683.414   C 66.3906 687.316 66.3906 740.188 66.3906 742.793   C 66.3906 746.57 69.2734 745.023 69.2734 745.023   L 104.68 724.582   "/>
</g>
<g stroke="#060808" fill="none" stroke-width="0.4" stroke-linejoin="round" stroke-linecap="round" stroke-miterlimit="4">
	<path d="  M 104.762 657.723   L 69.1133 678.301   C 69.1133 678.301 66.3906 679.516 66.3906 683.414   C 66.3906 687.316 66.3906 740.188 66.3906 742.793   C 66.3906 746.57 69.2734 745.023 69.2734 745.023   L 104.68 724.582   "/>
</g>
<g fill="#ffffff" fill-rule="nonzero" stroke-width="0" stroke-linejoin="round" stroke-linecap="round" stroke-miterlimit="4">
	<path d="  M 45.418 712.547   L 0.203125 686.406   L 0.203125 676.645   L 45.418 702.781   Z   "/>
</g>
<g stroke="#060808" fill="none" stroke-width="0.4" stroke-linejoin="round" stroke-linecap="round" stroke-miterlimit="4">
	<path d="  M 45.418 712.547   L 0.203125 686.406   L 0.203125 676.645   L 45.418 702.781   Z   "/>
</g>
<g stroke="#060808" fill="none" stroke-width="0.4" stroke-linejoin="round" stroke-linecap="round" stroke-miterlimit="4">
	<path d="  M 36.207 704.238   L 31.0781 701.238   L 31.2656 698.094   L 36.3945 701.09   Z   "/>
</g>
<g stroke="#060808" fill="none" stroke-width="0.4" stroke-linejoin="round" stroke-linecap="round" stroke-miterlimit="4">
	<path d="  M 80.6484 684.531   L 76.7109 686.863   L 76.7109 680.586   L 80.6484 678.25   Z   "/>
</g>
<g stroke="#060808" fill="none" stroke-width="0.4" stroke-linejoin="round" stroke-linecap="round" stroke-miterlimit="4">
	<path d="  M 103.543 671.473   L 99.6094 673.805   L 99.6094 667.527   L 103.543 665.191   Z   "/>
</g>
<g stroke="#060808" fill="none" stroke-width="0.25" stroke-linejoin="round" stroke-linecap="round" stroke-miterlimit="4">
	<path d="  M 75.2578 724.527   L 68.918 728.191   C 68.918 728.191 67.5938 728.754 67.5938 729.977   C 67.5938 731.184 67.5938 729.922 67.5938 730.879   C 67.5938 732.203 68.8672 731.457 68.8672 731.457   L 75.2578 727.77   L 75.2617 727.094   L 68.9141 730.797   C 68.9141 730.797 68.2188 731.156 68.2188 730.637   C 68.2188 730.117 68.2188 730.648 68.2188 729.988   C 68.2188 729.324 68.9414 728.871 68.9414 728.871   L 75.2617 725.289   Z   "/>
</g>
<g fill="#060808" fill-rule="nonzero" stroke-width="0" stroke-linejoin="round" stroke-linecap="round" stroke-miterlimit="4">
	<path d="  M 25.4063 734.164   L 36.1914 733.887   L 33.4766 732.824   L 39.5781 730.172   L 34.6914 728.266   L 28.4727 730.941   L 25.7656 729.887   L 25.4063 734.164   "/>
</g>
<g fill="#060808" fill-rule="nonzero" stroke-width="0" stroke-linejoin="round" stroke-linecap="round" stroke-miterlimit="4">
	<path d="  M 47.2695 676.223   C 36.4336 675.887 29.7578 684.617 29.7578 684.617   L 27.4492 683.277   L 28.957 688.648   L 36.1211 688.238   L 33.4883 686.719   C 33.4883 686.719 39.2031 678.801 50.7617 678.883   C 51.1328 678.887 51.5078 678.895 51.8906 678.914   "/>
</g>
<g stroke="#060808" fill="none" stroke-width="0.4" stroke-linejoin="round" stroke-linecap="round" stroke-miterlimit="4">
	<path d="  M 105.227 725.281   L 109.414 727.738   "/>
</g>
<g stroke="#060808" fill="none" stroke-width="0.4" stroke-linejoin="round" stroke-linecap="round" stroke-miterlimit="4">
	<path d="  M 106.082 723.758   L 104.621 724.676   "/>
</g>
<g fill="#ffffff" fill-rule="nonzero" stroke-width="0" stroke-linejoin="round" stroke-linecap="round" stroke-miterlimit="4">
	<path d="  M 217.754 761.254   L 217.211 761.98   L 216.277 766.809   L 216.656 772.68   "/>
</g>
<g stroke="#060808" fill="none" stroke-width="0.4" stroke-linejoin="miter" stroke-linecap="butt" stroke-miterlimit="4">
	<path d="  M 217.754 761.254   L 217.211 761.98   L 216.277 766.809   L 216.656 772.68   "/>
</g>
<g stroke="#060808" fill="none" stroke-width="0.4" stroke-linejoin="miter" stroke-linecap="butt" stroke-miterlimit="4">
	<path d="  M 218.789 775.434   L 218.789 785.648   L 224.707 788.883   C 225.871 788.883 226.621 788.258 226.621 788.258   C 226.621 788.258 226.371 781.289 226.371 780.574   C 226.371 779.859 225.789 779.055 225.789 779.055   L 223.707 778.16   C 223.707 778.16 223.707 773.246 223.707 772.801   C 223.707 772.355 223.707 771.73 223.707 771.73   L 225.207 766.992   C 225.871 766.367 225.789 766.012 225.789 766.012   C 225.789 766.012 225.789 730.094 225.789 727.949   C 225.789 725.805 225.457 726.16 225.457 726.16   L 219.207 722.051   L 219.621 762.66   "/>
</g>
<g fill="#ffffff" fill-rule="nonzero" stroke-width="0" stroke-linejoin="miter" stroke-linecap="butt" stroke-miterlimit="4">
	<path d="  M 217.375 761.301   L 225.539 766.133   "/>
</g>
<g stroke="#060808" fill="none" stroke-width="0.4" stroke-linejoin="miter" stroke-linecap="butt" stroke-miterlimit="4">
	<path d="  M 217.375 761.301   L 225.539 766.133   "/>
</g>
<g fill="#ffffff" fill-rule="nonzero" stroke-width="0" stroke-linejoin="miter" stroke-linecap="butt" stroke-miterlimit="4">
	<path d="  M 216.457 767.383   L 223.371 771.469   "/>
</g>
<g stroke="#060808" fill="none" stroke-width="0.4" stroke-linejoin="miter" stroke-linecap="butt" stroke-miterlimit="4">
	<path d="  M 216.457 767.383   L 223.371 771.469   "/>
</g>
<g fill="#ffffff" fill-rule="nonzero" stroke-width="0" stroke-linejoin="miter" stroke-linecap="butt" stroke-miterlimit="4">
	<path d="  M 216.77 773.883   L 223.371 777.969   "/>
</g>
<g stroke="#060808" fill="none" stroke-width="0.4" stroke-linejoin="miter" stroke-linecap="butt" stroke-miterlimit="4">
	<path d="  M 216.77 773.883   L 223.371 777.969   "/>
</g>
<g stroke="#060808" fill="none" stroke-width="0.4" stroke-linejoin="miter" stroke-linecap="butt" stroke-miterlimit="4">
	<path d="  M 217.871 722.633   L 217.871 761.469   "/>
</g>
<g fill="#ffffff" fill-rule="nonzero" stroke-width="0" stroke-linejoin="miter" stroke-linecap="butt" stroke-miterlimit="4">
	<path d="  M 218.621 767.469   L 217.207 767.469   L 217.207 765.633   L 218.621 765.633   Z   "/>
</g>
<g stroke="#060808" fill="none" stroke-width="0.4" stroke-linejoin="miter" stroke-linecap="butt" stroke-miterlimit="4">
	<path d="  M 220.621 722.801   L 223.371 721.133   C 223.371 721.133 224.289 721.219 224.539 722.633   C 224.789 724.051 224.621 725.551 224.621 725.551   "/>
</g>
<g stroke="#060808" fill="none" stroke-width="0.4" stroke-linejoin="miter" stroke-linecap="butt" stroke-miterlimit="4">
	<path d="  M 229.539 779.383   C 229.539 780.027 229.016 780.551 228.371 780.551   L 228.371 780.551   C 227.73 780.551 227.207 780.027 227.207 779.383   L 227.207 734.051   C 227.207 733.406 227.73 732.883 228.371 732.883   L 228.371 732.883   C 229.016 732.883 229.539 733.406 229.539 734.051   Z   "/>
</g>
<g stroke="#060808" fill="none" stroke-width="0.4" stroke-linejoin="miter" stroke-linecap="butt" stroke-miterlimit="4">
	<path d="  M 224.707 734.051   C 224.707 734.895 224.055 735.262 223.246 734.871   L 221.328 733.945   C 220.523 733.555 219.871 732.559 219.871 731.715   L 219.871 731.715   C 219.871 730.871 220.523 730.508 221.328 730.895   L 223.246 731.824   C 224.055 732.215 224.707 733.211 224.707 734.051   Z   "/>
</g>
<g stroke="#060808" fill="none" stroke-width="0.4" stroke-linejoin="miter" stroke-linecap="butt" stroke-miterlimit="4">
	<path d="  M 224.707 785.469   C 224.707 786.309 224.055 786.676 223.246 786.289   L 221.328 785.359   C 220.523 784.973 219.871 783.973 219.871 783.133   L 219.871 783.133   C 219.871 782.289 220.523 781.922 221.328 782.313   L 223.246 783.238   C 224.055 783.629 224.707 784.625 224.707 785.469   Z   "/>
</g>
<g fill="#ffffff" fill-rule="nonzero" stroke-width="0" stroke-linejoin="miter" stroke-linecap="butt" stroke-miterlimit="4">
	<path d="  M 220.457 735.715   L 213.93 739.109   L 212.621 740.613   L 211.188 741.395   C 211.188 741.395 210.273 743.355 212.43 742.57   L 213.277 741.918   L 215.563 741.137   L 222.09 737.676   C 222.09 737.676 223.07 735.586 220.457 735.715   Z   "/>
</g>
<g stroke="#060808" fill="none" stroke-width="0.4" stroke-linejoin="miter" stroke-linecap="butt" stroke-miterlimit="4">
	<path d="  M 220.457 735.715   L 213.93 739.109   L 212.621 740.613   L 211.188 741.395   C 211.188 741.395 210.273 743.355 212.43 742.57   L 213.277 741.918   L 215.563 741.137   L 222.09 737.676   C 222.09 737.676 223.07 735.586 220.457 735.715   Z   "/>
</g>
<g fill="#ffffff" fill-rule="nonzero" stroke-width="0" stroke-linejoin="miter" stroke-linecap="butt" stroke-miterlimit="4">
	<path d="  M 215.691 741.07   C 215.691 741.07 216.215 739.109 213.93 739.109   "/>
</g>
<g stroke="#060808" fill="none" stroke-width="0.4" stroke-linejoin="miter" stroke-linecap="butt" stroke-miterlimit="4">
	<path d="  M 215.691 741.07   C 215.691 741.07 216.215 739.109 213.93 739.109   "/>
</g>
<g fill="#ffffff" fill-rule="nonzero" stroke-width="0" stroke-linejoin="miter" stroke-linecap="butt" stroke-miterlimit="4">
	<path d="  M 212.621 740.613   C 212.621 740.613 213.668 741.004 213.406 741.723   "/>
</g>
<g stroke="#060808" fill="none" stroke-width="0.4" stroke-linejoin="miter" stroke-linecap="butt" stroke-miterlimit="4">
	<path d="  M 212.621 740.613   C 212.621 740.613 213.668 741.004 213.406 741.723   "/>
</g>
<g fill="#ffffff" fill-rule="nonzero" stroke-width="0" stroke-linejoin="miter" stroke-linecap="butt" stroke-miterlimit="4">
	<path d="  M 211.188 741.395   C 211.188 741.395 212.23 741.133 212.43 742.57   "/>
</g>
<g stroke="#060808" fill="none" stroke-width="0.4" stroke-linejoin="miter" stroke-linecap="butt" stroke-miterlimit="4">
	<path d="  M 211.188 741.395   C 211.188 741.395 212.23 741.133 212.43 742.57   "/>
</g>
<g fill="#ffffff" fill-rule="nonzero" stroke-width="0" stroke-linejoin="miter" stroke-linecap="butt" stroke-miterlimit="4">
	<path d="  M 220.457 778.715   L 213.93 782.109   L 212.621 783.613   L 211.188 784.395   C 211.188 784.395 210.273 786.355 212.43 785.57   L 213.277 784.918   L 215.563 784.133   L 222.09 780.676   C 222.09 780.676 223.07 778.586 220.457 778.715   Z   "/>
</g>
<g stroke="#060808" fill="none" stroke-width="0.4" stroke-linejoin="miter" stroke-linecap="butt" stroke-miterlimit="4">
	<path d="  M 220.457 778.715   L 213.93 782.109   L 212.621 783.613   L 211.188 784.395   C 211.188 784.395 210.273 786.355 212.43 785.57   L 213.277 784.918   L 215.563 784.133   L 222.09 780.676   C 222.09 780.676 223.07 778.586 220.457 778.715   Z   "/>
</g>
<g fill="#ffffff" fill-rule="nonzero" stroke-width="0" stroke-linejoin="miter" stroke-linecap="butt" stroke-miterlimit="4">
	<path d="  M 215.691 784.07   C 215.691 784.07 216.215 782.109 213.93 782.109   "/>
</g>
<g stroke="#060808" fill="none" stroke-width="0.4" stroke-linejoin="miter" stroke-linecap="butt" stroke-miterlimit="4">
	<path d="  M 215.691 784.07   C 215.691 784.07 216.215 782.109 213.93 782.109   "/>
</g>
<g fill="#ffffff" fill-rule="nonzero" stroke-width="0" stroke-linejoin="miter" stroke-linecap="butt" stroke-miterlimit="4">
	<path d="  M 212.621 783.613   C 212.621 783.613 213.668 784.004 213.406 784.723   "/>
</g>
<g stroke="#060808" fill="none" stroke-width="0.4" stroke-linejoin="miter" stroke-linecap="butt" stroke-miterlimit="4">
	<path d="  M 212.621 783.613   C 212.621 783.613 213.668 784.004 213.406 784.723   "/>
</g>
<g fill="#ffffff" fill-rule="nonzero" stroke-width="0" stroke-linejoin="miter" stroke-linecap="butt" stroke-miterlimit="4">
	<path d="  M 211.188 784.395   C 211.188 784.395 212.23 784.133 212.43 785.57   "/>
</g>
<g stroke="#060808" fill="none" stroke-width="0.4" stroke-linejoin="miter" stroke-linecap="butt" stroke-miterlimit="4">
	<path d="  M 211.188 784.395   C 211.188 784.395 212.23 784.133 212.43 785.57   "/>
</g>
<g stroke="#060808" fill="none" stroke-width="0.4" stroke-linejoin="round" stroke-linecap="round" stroke-miterlimit="4">
	<path d="  M 223.664 788.426   L 217.871 791.801   "/>
</g>
<g stroke="#ffffff" fill="none" stroke-width="3" stroke-linejoin="miter" stroke-linecap="round" stroke-miterlimit="4">
	<path d="  M 11.8984 655.508   L 11.8984 689.418   "/>
</g>
<g stroke="#000000" fill="none" stroke-width="0.5" stroke-linejoin="round" stroke-linecap="round" stroke-miterlimit="4">
	<path d="  M 11.8984 655.508   L 11.8984 689.418   "/>
</g>
<g fill="#000000" fill-rule="nonzero" stroke-width="0" stroke-linejoin="round" stroke-linecap="round" stroke-miterlimit="4">
	<path d="  M 18.9844 647   C 18.9844 650.914 15.8125 654.086 11.8984 654.086   C 7.98438 654.086 4.80859 650.914 4.80859 647   C 4.80859 643.086 7.98438 639.914 11.8984 639.914   C 15.8125 639.914 18.9844 643.086 18.9844 647   Z   "/>
</g>
<g style="stroke:none;fill:#ffffff;text-rendering:optimizeGeometricPrecision;font-size:10;font-family:Helvetica,Arial;">
	<text transform="matrix(1 0 0 1 9.11328 650.329)">1</text>
</g>
<g stroke="#ffffff" fill="none" stroke-width="3" stroke-linejoin="miter" stroke-linecap="round" stroke-miterlimit="4">
	<path d="  M 156.563 677.73   L 156.563 689.309   "/>
</g>
<g stroke="#000000" fill="none" stroke-width="0.5" stroke-linejoin="round" stroke-linecap="round" stroke-miterlimit="4">
	<path d="  M 156.563 677.73   L 156.563 689.309   "/>
</g>
<g fill="#000000" fill-rule="nonzero" stroke-width="0" stroke-linejoin="round" stroke-linecap="round" stroke-miterlimit="4">
	<path d="  M 163.648 668.227   C 163.648 672.141 160.48 675.312 156.563 675.312   C 152.648 675.312 149.477 672.141 149.477 668.227   C 149.477 664.312 152.648 661.141 156.563 661.141   C 160.48 661.141 163.648 664.312 163.648 668.227   Z   "/>
</g>
<g style="stroke:none;fill:#ffffff;text-rendering:optimizeGeometricPrecision;font-size:10;font-family:Helvetica,Arial;">
	<text transform="matrix(1 0 0 1 153.78 671.556)">4</text>
</g>
<g stroke="#ffffff" fill="none" stroke-width="3" stroke-linejoin="miter" stroke-linecap="round" stroke-miterlimit="4">
	<path d="  M 44.543 610.84   L 44.543 644.75   "/>
</g>
<g stroke="#000000" fill="none" stroke-width="0.5" stroke-linejoin="round" stroke-linecap="round" stroke-miterlimit="4">
	<path d="  M 44.543 610.84   L 44.543 644.75   "/>
</g>
<g stroke="#ffffff" fill="none" stroke-width="3" stroke-linejoin="miter" stroke-linecap="round" stroke-miterlimit="4">
	<path d="  M 63.7109 632.672   L 63.7109 671.582   "/>
</g>
<g stroke="#000000" fill="none" stroke-width="0.5" stroke-linejoin="round" stroke-linecap="round" stroke-miterlimit="4">
	<path d="  M 63.7109 632.672   L 63.7109 671.582   "/>
</g>
<g fill="#000000" fill-rule="nonzero" stroke-width="0" stroke-linejoin="round" stroke-linecap="round" stroke-miterlimit="4">
	<path d="  M 51.6875 602.332   C 51.6875 606.246 48.5156 609.418 44.6016 609.418   C 40.6875 609.418 37.5117 606.246 37.5117 602.332   C 37.5117 598.418 40.6875 595.246 44.6016 595.246   C 48.5156 595.246 51.6875 598.418 51.6875 602.332   Z   "/>
</g>
<g style="stroke:none;fill:#ffffff;text-rendering:optimizeGeometricPrecision;font-size:10;font-family:Helvetica,Arial;">
	<text transform="matrix(1 0 0 1 41.8164 605.662)">2</text>
</g>
<g fill="#000000" fill-rule="nonzero" stroke-width="0" stroke-linejoin="round" stroke-linecap="round" stroke-miterlimit="4">
	<path d="  M 71.0195 622.945   C 71.0195 626.859 67.8477 630.031 63.9336 630.031   C 60.0195 630.031 56.8477 626.859 56.8477 622.945   C 56.8477 619.031 60.0195 615.859 63.9336 615.859   C 67.8477 615.859 71.0195 619.031 71.0195 622.945   Z   "/>
</g>
<g style="stroke:none;fill:#ffffff;text-rendering:optimizeGeometricPrecision;font-size:10;font-family:Helvetica,Arial;">
	<text transform="matrix(1 0 0 1 61.1504 626.276)">3</text>
</g>
<g stroke="#060808" fill="none" stroke-width="0.4" stroke-linejoin="round" stroke-linecap="round" stroke-miterlimit="4">
	<path d="  M 58.0156 675.609   C 58.0156 675.609 57.9023 676.875 58.2148 677.187   C 58.3438 677.32 60.7578 678.68 60.875 678.727   C 61.5977 679.008 62.457 678.594 62.457 678.594   L 65.3359 676.879   "/>
</g>
<g stroke="#060808" fill="none" stroke-width="0.4" stroke-linejoin="round" stroke-linecap="round" stroke-miterlimit="4">
	<path d="  M 61.4297 672.305   L 60.0547 674.031   L 58.4414 674.961   C 58.4414 674.961 57.6758 675.437 58.2148 675.945   C 58.3477 676.07 60.7578 677.437 60.875 677.48   C 61.5977 677.762 62.457 677.348 62.457 677.348   L 64.0313 676.441   L 65.3242 674.551   L 65.332 676.879   "/>
</g>
<g stroke="#060808" fill="none" stroke-width="0.4" stroke-linejoin="round" stroke-linecap="round" stroke-miterlimit="4">
	<path d="  M 60.0117 674.098   L 64.0078 676.402   "/>
</g>
<g stroke="#060808" fill="none" stroke-width="0.4" stroke-linejoin="round" stroke-linecap="round" stroke-miterlimit="4">
	<path d="  M 60.875 677.48   L 60.875 678.727   "/>
</g>
<g stroke="#060808" fill="none" stroke-width="0.4" stroke-linejoin="round" stroke-linecap="round" stroke-miterlimit="4">
	<path d="  M 62.4375 677.367   L 62.4375 678.547   "/>
</g>
<g stroke="#060808" fill="none" stroke-width="0.4" stroke-linejoin="round" stroke-linecap="round" stroke-miterlimit="4">
	<path d="  M 61.4414 672.301   L 65.3047 674.531   "/>
</g>
<g stroke="#060808" fill="none" stroke-width="0.4" stroke-linejoin="round" stroke-linecap="round" stroke-miterlimit="4">
	<path d="  M 40.8203 705.461   C 40.8203 706.195 41.3086 707.082 41.9141 707.453   C 42.5234 707.82 43.0117 707.52 43.0117 706.789   C 43.0117 706.055 42.5234 705.164 41.9141 704.797   C 41.3086 704.426 40.8203 704.727 40.8203 705.461   Z   "/>
</g>
<g stroke="#060808" fill="none" stroke-width="0.4" stroke-linejoin="round" stroke-linecap="round" stroke-miterlimit="4">
	<path d="  M 155.652 692.625   C 155.652 693.359 156.141 694.25 156.746 694.617   C 157.355 694.988 157.844 694.688 157.844 693.953   C 157.844 693.219 157.355 692.328 156.746 691.961   C 156.141 691.594 155.652 691.895 155.652 692.625   Z   "/>
</g>
<g fill="#131517" fill-rule="evenodd" stroke-width="0" stroke-linejoin="round" stroke-linecap="round" stroke-miterlimit="4">
	<path d="  M 39.4297 706.656   C 39.5977 706.656 39.7344 706.52 39.7344 706.352   C 39.7344 706.184 39.5977 706.047 39.4297 706.047   C 39.2617 706.047 39.125 706.184 39.125 706.352   C 39.125 706.52 39.2617 706.656 39.4297 706.656   "/>
</g>
<g fill="#131517" fill-rule="evenodd" stroke-width="0" stroke-linejoin="round" stroke-linecap="round" stroke-miterlimit="4">
	<path d="  M 39.4219 705.77   L 39.7188 703.766   L 39.7188 703.762   C 39.7188 703.602 39.5898 703.473 39.4297 703.473   C 39.2734 703.473 39.1406 703.602 39.1406 703.762   L 39.1406 703.766   M 39.4219 705.77   L 39.1406 703.766   L 39.4219 705.77   L 39.7188 703.766   Z   "/>
</g>
<g fill="#131517" fill-rule="evenodd" stroke-width="0" stroke-linejoin="round" stroke-linecap="round" stroke-miterlimit="4">
	<path d="  M 154.098 693.656   C 154.266 693.656 154.398 693.52 154.398 693.352   C 154.398 693.184 154.266 693.047 154.098 693.047   C 153.93 693.047 153.789 693.184 153.789 693.352   C 153.789 693.52 153.93 693.656 154.098 693.656   "/>
</g>
<g fill="#131517" fill-rule="evenodd" stroke-width="0" stroke-linejoin="round" stroke-linecap="round" stroke-miterlimit="4">
	<path d="  M 154.09 692.77   L 154.387 690.766   L 154.387 690.762   C 154.387 690.602 154.258 690.473 154.098 690.473   C 153.938 690.473 153.809 690.602 153.809 690.762   L 153.809 690.766   M 154.09 692.77   L 153.809 690.766   L 154.09 692.77   L 154.387 690.766   Z   "/>
</g>
<g fill="#131517" fill-rule="evenodd" stroke-width="0" stroke-linejoin="round" stroke-linecap="round" stroke-miterlimit="4">
	<path d="  M 209.93 725.82   C 210.098 725.82 210.234 725.684 210.234 725.516   C 210.234 725.348 210.098 725.215 209.93 725.215   C 209.762 725.215 209.625 725.348 209.625 725.516   C 209.625 725.684 209.762 725.82 209.93 725.82   "/>
</g>
<g fill="#131517" fill-rule="evenodd" stroke-width="0" stroke-linejoin="round" stroke-linecap="round" stroke-miterlimit="4">
	<path d="  M 209.922 724.938   L 210.219 722.93   L 210.219 722.93   C 210.219 722.77 210.09 722.641 209.93 722.641   C 209.77 722.641 209.641 722.77 209.641 722.93   L 209.641 722.934   M 209.922 724.938   L 209.641 722.934   L 209.922 724.938   L 210.219 722.93   Z   "/>
</g>
</g>
</g>
</svg>