<?xml version="1.0" encoding="utf-8"?>
<!-- Generator: Adobe Illustrator 19.1.0, SVG Export Plug-In . SVG Version: 6.00 Build 0)  -->
<svg version="1.1" xmlns="http://www.w3.org/2000/svg" xmlns:xlink="http://www.w3.org/1999/xlink" x="0px" y="0px" width="288px"
	 height="298.5px" viewBox="0 0 288 298.5" style="enable-background:new 0 0 288 298.5;" xml:space="preserve">
<style type="text/css">
	.st0{clip-path:url(#SVGID_2_);fill:none;stroke:#000000;stroke-width:0.5;stroke-miterlimit:10;}
	
		.st1{clip-path:url(#SVGID_2_);fill:none;stroke:#000000;stroke-width:0.5;stroke-linecap:round;stroke-linejoin:round;stroke-miterlimit:10;}
	
		.st2{clip-path:url(#SVGID_2_);fill:none;stroke:#000000;stroke-width:0.5155;stroke-linecap:round;stroke-linejoin:round;stroke-miterlimit:10;}
	
		.st3{clip-path:url(#SVGID_2_);fill:none;stroke:#000000;stroke-width:0.3992;stroke-linecap:round;stroke-linejoin:round;stroke-miterlimit:10;}
	
		.st4{clip-path:url(#SVGID_2_);fill:#FFFFFF;stroke:#000000;stroke-width:0.5;stroke-linecap:round;stroke-linejoin:round;stroke-miterlimit:10;}
	
		.st5{clip-path:url(#SVGID_2_);fill:none;stroke:#000000;stroke-width:0.3764;stroke-linecap:round;stroke-linejoin:round;stroke-miterlimit:10;}
	
		.st6{clip-path:url(#SVGID_2_);fill:none;stroke:#000000;stroke-width:0.288;stroke-linecap:round;stroke-linejoin:round;stroke-miterlimit:10;}
	
		.st7{clip-path:url(#SVGID_2_);fill:none;stroke:#000000;stroke-width:1.25;stroke-linecap:round;stroke-linejoin:round;stroke-miterlimit:10;}
	
		.st8{clip-path:url(#SVGID_2_);fill:none;stroke:#000000;stroke-width:1.125;stroke-linecap:round;stroke-linejoin:round;stroke-miterlimit:10;}
	.st9{clip-path:url(#SVGID_2_);}
	.st10{fill:none;stroke:#000000;stroke-width:0.5;stroke-linecap:round;stroke-linejoin:round;stroke-miterlimit:10;}
	.st11{fill:#FFFFFF;stroke:#000000;stroke-width:0.5;stroke-linecap:round;stroke-linejoin:round;stroke-miterlimit:10;}
	.st12{fill:none;stroke:#000000;stroke-width:0.25;stroke-linecap:round;stroke-linejoin:round;stroke-miterlimit:10;}
	
		.st13{clip-path:url(#SVGID_2_);fill:none;stroke:#000000;stroke-width:0.4338;stroke-linecap:round;stroke-linejoin:round;stroke-miterlimit:10;}
	.st14{fill:none;stroke:#000000;stroke-width:0.3709;stroke-linecap:round;stroke-linejoin:round;stroke-miterlimit:10;}
	.st15{fill:none;stroke:#000000;stroke-width:0.3819;stroke-linecap:round;stroke-linejoin:round;stroke-miterlimit:10;}
	.st16{fill:#FFFFFF;stroke:#000000;stroke-width:0.3819;stroke-linecap:round;stroke-linejoin:round;stroke-miterlimit:10;}
	
		.st17{clip-path:url(#SVGID_2_);fill:none;stroke:#000000;stroke-width:0.3819;stroke-linecap:round;stroke-linejoin:round;stroke-miterlimit:10;}
	
		.st18{clip-path:url(#SVGID_2_);fill:none;stroke:#000000;stroke-width:0.3598;stroke-linecap:round;stroke-linejoin:round;stroke-miterlimit:10;}
	.st19{clip-path:url(#SVGID_4_);}
	.st20{fill:#FFFFFF;stroke:#000000;stroke-width:0.2773;stroke-linecap:round;stroke-linejoin:round;stroke-miterlimit:10;}
	.st21{fill:#FFFFFF;stroke:#000000;stroke-width:0.3263;stroke-linecap:round;stroke-linejoin:round;stroke-miterlimit:10;}
	.st22{fill:#FFFFFF;stroke:#000000;stroke-width:0.2743;stroke-linecap:round;stroke-linejoin:round;stroke-miterlimit:10;}
	.st23{fill:none;stroke:#000000;stroke-width:0.3263;stroke-linecap:round;stroke-linejoin:round;stroke-miterlimit:10;}
	.st24{fill:none;stroke:#000000;stroke-width:0.2832;stroke-linecap:round;stroke-linejoin:round;stroke-miterlimit:10;}
	.st25{fill:none;stroke:#000000;stroke-width:0.2743;stroke-linecap:round;stroke-linejoin:round;stroke-miterlimit:10;}
	.st26{fill:#FFFFFF;stroke:#000000;stroke-width:0.35;stroke-linecap:round;stroke-linejoin:round;stroke-miterlimit:10;}
	.st27{fill:none;stroke:#000000;stroke-width:0.5;stroke-linecap:round;stroke-linejoin:round;}
	.st28{fill-rule:evenodd;clip-rule:evenodd;fill:none;stroke:#000000;stroke-width:0.5;}
	.st29{fill:#939598;}
	.st30{fill:#FFFFFF;stroke:#FFFFFF;}
	.st31{fill:#010101;}
	.st32{fill:none;stroke:#FFFFFF;stroke-width:2.6305;stroke-linecap:round;stroke-linejoin:round;}
	.st33{fill:#FFFFFF;stroke:#000000;stroke-width:0.5;stroke-linecap:round;stroke-linejoin:round;}
	.st34{fill:#FFFFFF;}
	.st35{font-family:'Helvetica';}
	.st36{font-size:10.6737px;}
</style>
<g id="Layer_1">
</g>
<g id="PCI">
	<g>
		<defs>
			<polygon id="SVGID_1_" points="-12.9,274.3 108.7,4.6 300.8,73.1 303.2,201 224.6,316 43.6,321.7 			"/>
		</defs>
		<clipPath id="SVGID_2_">
			<use xlink:href="#SVGID_1_"  style="overflow:visible;"/>
		</clipPath>
		<path class="st0" d="M94.9,78.1L119-46.6l-5.8-0.4l2.7-15.6l-1.1-1.3l-13.2-1.8c-2.5,0-6.7-1.1-6.9-5.1c-0.2-4-4.7-4.9-4.7-4.9
			l-28.1-3.3c-5.1-1.3-8.5,2.5-8.5,2.5c-2.7,5.1-6.2,4.2-6.2,4.2l-57.1-7.1L-37.6,57.9l1.2,1.4l17.6,1.8l-1.2,9.6l2.9,2L90.3,86.3
			L94.9,78.1z"/>
		<path class="st1" d="M90.3,86.3c0,0-52.1,103.8-54.6,111c-2.5,7.2-6.3,5.7-6.3,5.7l-11-1.4l-1.8,4.5l84.2,10.4
			c0,0,7.2-13.9,9.8-18.6c2.7-4.7,0.6-3.9-3.3-6.5c-3.9-2.7-1.6-2-0.4-5.9c1.2-3.9,4.5-4.9,4.5-4.9s1.8,0,5.1-0.2
			c3.3-0.2,4.7-4.5,4.7-4.5s10.6-20.4,13.9-28.2c3.3-7.8,4.1-6.1-0.2-9.2s-3.3-0.6-1.2-6.1c2-5.5,4.9-5.1,4.9-5.1
			c8.6-0.2,8.2-2.7,8.2-2.7l7.3-15.3l3.4,0.5l-0.5,34l-53.8,106.9c0,0,0.2-18,0-21.1c-0.2-3.1-0.8-4.7-0.8-4.7
			c0.2-3.1-0.8-4.5-0.8-4.5l-208.5-26.6l-2.9,5l-0.2,0.3l-0.8,11.9"/>
		<polyline class="st1" points="95.5,77.3 96.9,74.9 159.8,82.9 159.8,84.3 164.5,84.5 164.7,85.9 168,86.9 167.8,97 168.8,98.4 
			168.8,115.8 168.4,117.4 157.4,140.9 		"/>
		<path class="st1" d="M101.2,90.4c0,0,1-4.7,8.6-3.9c7.6,0.8,33.5,4.3,33.5,4.3s7.4-0.6,5.1,4.5c-2.2,5.1-4.3,7.2-4.3,7.2
			s0,1.4,2.2,3.3c2.2,1.8,2.7,0.6,1,4.1c-1.6,3.5-5.9,2-5.9,2l-2.2,0.4L94,204.1c0,0-1.8,4.7-9.2,3.1c-7.4-1.6-33.9-4.1-33.9-4.1
			s-6.1-0.6-3.3-5.7C50.5,192.2,101.2,90.4,101.2,90.4z"/>
		<line class="st0" x1="137.2" y1="139.1" x2="142.9" y2="126.4"/>
		<line class="st0" x1="109.8" y1="192.6" x2="116.5" y2="180.3"/>
		<polyline class="st1" points="159.8,83.7 157,88.8 157.7,108.5 		"/>
		<path class="st1" d="M167.8,87.2l-1.6,3.5c0,0-0.2,0.8-1.9,0.5c-1.8-0.3-1.6,1.5-1.7,2.8c-0.1,1.3,0.1,12.6,0.1,12.6l1.3,4.9
			l2,0.7l-8.4,16.9"/>
		<polyline class="st2" points="155,108.2 154.7,99.7 150.3,108 153.3,108.5 153.7,109.3 		"/>
		<ellipse class="st2" cx="103.8" cy="78.8" rx="2.4" ry="1.3"/>
		<polyline class="st1" points="-109.8,198.9 -106.5,199.2 -106.7,202.6 94.8,227.6 		"/>
		<line class="st1" x1="-102" y1="226.5" x2="86.7" y2="250"/>
		<polygon class="st1" points="-66.6,227.7 -95.2,224 -95.2,217.3 -66.6,221 		"/>
		<polygon class="st1" points="-54.5,228.9 -64.2,227.7 -64.2,213.2 -54.5,214.4 		"/>
		<polygon class="st1" points="-42,230.3 -51.7,229.1 -51.7,214.6 -42,215.8 		"/>
		<polygon class="st1" points="-29.5,231.7 -39.2,230.5 -39.2,216 -29.5,217.2 		"/>
		<polygon class="st1" points="-15.5,233.2 -26.6,231.9 -26.6,216.6 -15.5,217.9 		"/>
		<polygon class="st1" points="-2.6,234.9 -13.5,233.5 -13.5,225.2 -2.6,226.6 		"/>
		<polygon class="st1" points="10.6,236.5 -1,235 -1,222.5 10.6,223.9 		"/>
		<line class="st3" x1="-88" y1="218.5" x2="-88" y2="224.8"/>
		<line class="st3" x1="-80.9" y1="219.2" x2="-80.9" y2="225.9"/>
		<line class="st3" x1="-73.8" y1="220.2" x2="-73.8" y2="226.5"/>
		<line class="st3" x1="-101" y1="203.7" x2="-100.8" y2="226.6"/>
		<line class="st3" x1="29.3" y1="219.6" x2="29.2" y2="242.3"/>
		<path class="st4" d="M17.8,222.8c-0.2,1.8-2,3-4,2.6s-3.5-2.1-3.3-4s2-3,4-2.6S18,221,17.8,222.8z"/>
		<path class="st4" d="M17,224.7c-0.2,1.8-2,3-4,2.6s-3.5-2.1-3.3-4s2-3,4-2.6S17.2,222.8,17,224.7z"/>
		<polyline class="st5" points="32.1,220.1 32.2,233.2 29.4,239.1 87,246.1 		"/>
		<line class="st5" x1="32.6" y1="223" x2="94.8" y2="230.7"/>
		<line class="st5" x1="32.4" y1="231.2" x2="90.8" y2="238.5"/>
		<path class="st5" d="M32.5,242.9c0,0,0-2.6,2.1-2.2c2.1,0.3,52,6.6,52,6.6"/>
		<path class="st6" d="M88.8,237.7L36.6,231c-0.7,0-1.3-0.6-1.3-1.3v-4.2c0-0.7,0.6-1.3,1.3-1.3l52.2,6.7c0.7,0,1.3,0.6,1.3,1.3v4.2
			C90.1,237.1,89.5,237.7,88.8,237.7z"/>
		<path class="st1" d="M100.8,216.5l2.6,0.4c0,0,1.9,0.2,0.4,1.3l-2.2-0.2l-0.8,1.8"/>
		<polyline class="st1" points="29.3,203 29.2,195.7 29.2,195.7 56.7,141.1 62.6,141.8 		"/>
		<line class="st1" x1="35.9" y1="196.9" x2="29.2" y2="196"/>
		<polygon class="st1" points="-2.3,135.3 4.3,121.7 13.2,122.8 14.9,119.6 32.2,121.7 30.6,124.8 39.4,126.1 32.7,140 23.7,138.7 
			22,142 4.6,139.9 6.2,136.6 		"/>
		<polyline class="st1" points="-12.8,197.6 -6.8,186.3 -3.7,186.7 -2,184 12.9,186 13.2,197 		"/>
		<polyline class="st1" points="-45.3,193.4 -45.4,189.3 -39.6,178 -36.2,178.4 -34.6,175.5 -19.8,177.5 -19.8,189 -23.5,195.9 		
			"/>
		<polyline class="st1" points="-21.5,196.2 -18.5,190.9 -18.6,188.4 -19.5,188.3 		"/>
		<line class="st1" x1="12.9" y1="197" x2="11.3" y2="200.1"/>
		<polyline class="st1" points="13,200.6 14.1,198.1 14.4,196.1 13.6,195.9 		"/>
		<polyline class="st1" points="-62.7,191 -63.1,181.3 -78.3,179.2 -80,182.6 -83.3,182.2 -86.2,187.6 		"/>
		<line class="st1" x1="-82.8" y1="181.8" x2="-73" y2="162.5"/>
		<path class="st1" d="M-100.8,194l-0.2-2.7l2.6-4.9L9.7,200.6l0.4-0.5l4.2,0.6l-1.1,2.4c0,0,3.4-0.1,3.4,3.1"/>
		<path class="st1" d="M-106.1,193.7c0,0,0.1-1.6,1.2-3.8s25.6-51.2,25.6-51.2l1-0.2l0.4-0.7l2.2,0.4"/>
		<path class="st1" d="M-97.6,186.7l22.3-44.7c0,0,0.7-1.2-0.3-3.1c0,0-1.3-2.6,0-5.6c0,0-1.5-0.7-0.7-2.5c0.8-1.7,1.8-4,1.8-4
			s0.4-0.5,2.2-0.9s0.9-1.3,0.9-1.9s1.3-2.9,1.3-2.9s0.5-0.6,1.2-0.3c0.7,0.3-0.3-0.5,0.3-2.2c0.6-1.7,4.3-8.8,4.3-8.8"/>
		<path class="st1" d="M-58.7,101.8c0,0-0.4-2.5,0.8-4.4s6.2-12.3,6.2-12.3L-52,82l2.8-5.6c0,0,1.8,0.4,3.1-2"/>
		<path class="st1" d="M-44.3,73.5c0,0-0.3-3,0.8-5c1.1-2,3.4-7.5,3.4-7.5s0.2-1.2,2.7-0.9l1-0.3"/>
		<ellipse class="st1" cx="-25.4" cy="63.5" rx="2.4" ry="1.1"/>
		<ellipse class="st1" cx="-34.8" cy="61.7" rx="2.4" ry="1.1"/>
		<line class="st1" x1="-19.2" y1="83.8" x2="84.9" y2="96.8"/>
		<polygon class="st1" points="-18.8,84.7 -21.4,90 -15.3,90.9 -12.5,85.4 		"/>
		<polyline class="st1" points="-21.4,90 -22.1,99.2 -15.6,100.1 -15.3,90.9 		"/>
		<polyline class="st1" points="-21.5,99.6 -21.5,101.5 -15.8,102.4 -12.4,95.5 -11.3,95.9 -10,93.3 -10.2,85.1 		"/>
		<line class="st1" x1="-15.8" y1="99.9" x2="-15.8" y2="102.4"/>
		<line class="st1" x1="9.6" y1="217.2" x2="9.6" y2="223"/>
		<polyline class="st1" points="17,225.2 22.4,225.7 22.5,218.5 		"/>
		<polyline class="st7" points="60.1,140.7 32.2,196.5 32.2,202 		"/>
		<polyline class="st8" points="-19.4,110.6 -40.6,152.7 -40.6,161.5 		"/>
		<polyline class="st8" points="-12.6,110.9 -33.7,153 -33.7,161.9 		"/>
		<polyline class="st8" points="-6.2,111.9 -27.4,154 -27.4,162.9 		"/>
		<polyline class="st8" points="0.3,112.8 -20.8,154.9 -20.8,163.8 		"/>
		<line class="st1" x1="-11.3" y1="95.9" x2="13.6" y2="99"/>
		<path class="st1" d="M14.2,97l-19.1-2.5c0,0-3.4,0.2-3.6,1.5"/>
		<line class="st1" x1="-2.3" y1="135.3" x2="-1.9" y2="157"/>
		<line class="st1" x1="4.6" y1="139.9" x2="5.1" y2="161"/>
		<line class="st1" x1="22" y1="142" x2="22.3" y2="163"/>
		<line class="st1" x1="24.3" y1="139" x2="24.4" y2="154"/>
		<line class="st1" x1="32.7" y1="140" x2="32.6" y2="160.7"/>
		<line class="st1" x1="39.4" y1="126.1" x2="39.9" y2="145.7"/>
		<polyline class="st1" points="-2.2,154.7 -4.4,159.7 30.3,164.6 41.6,143.6 39.9,143.1 		"/>
		<polyline class="st1" points="41.6,143.6 42.1,145.1 30.1,166.2 -4.5,161.5 -4.4,159.7 		"/>
		<polyline class="st1" points="13.9,200.3 18,191.7 25.5,192.9 26.7,190 31.2,190.8 		"/>
		<polyline class="st1" points="68,129.9 54.9,127.9 54,129.9 47.9,142.9 		"/>
		<line class="st1" x1="67.4" y1="131.9" x2="54" y2="129.9"/>
		<polyline class="st1" points="31.8,169 37,158.9 46.8,160 		"/>
		<polyline class="st1" points="50.5,145.1 50.8,143.7 45.6,142.9 44.7,145.4 53.4,146.6 		"/>
		<polyline class="st1" points="50.8,152 45,151.2 44.7,145.4 		"/>
		<g class="st9">
			<polygon class="st10" points="-39.5,162.1 -43.5,161.6 -44.8,164.7 -45,168.2 -43.5,171.3 -43.3,174.2 -39.2,174.7 -39.5,171.6 
				-41,169.2 -40.9,165.3 			"/>
			<line class="st10" x1="-44.2" y1="164.9" x2="-40.9" y2="165.3"/>
			<line class="st10" x1="-44.7" y1="168.7" x2="-41.3" y2="169.2"/>
			<line class="st10" x1="-43.5" y1="171" x2="-40.1" y2="171.5"/>
		</g>
		<polyline class="st1" points="-39.5,162.1 -39.3,170.2 -37.6,171.5 -39.2,174.7 		"/>
		<line class="st1" x1="-39.5" y1="171.6" x2="-39.3" y2="170.2"/>
		<g class="st9">
			<polygon class="st10" points="-32.7,162.9 -36.7,162.4 -38.1,165.5 -38.3,169 -36.7,172.1 -36.6,175 -32.4,175.4 -32.7,172.4 
				-34.3,169.9 -34.1,166.1 			"/>
			<line class="st10" x1="-37.5" y1="165.6" x2="-34.1" y2="166.1"/>
			<line class="st10" x1="-38" y1="169.5" x2="-34.6" y2="169.9"/>
			<line class="st10" x1="-36.7" y1="171.8" x2="-33.4" y2="172.2"/>
		</g>
		<polyline class="st1" points="-32.7,162.9 -32.6,171 -30.9,172.2 -32.4,175.4 		"/>
		<g class="st9">
			<polygon class="st10" points="-26.3,163.6 -30.3,163.2 -31.7,166.2 -31.8,169.8 -30.3,172.8 -30.1,175.7 -26,176.2 -26.3,173.1 
				-27.8,170.7 -27.7,166.9 			"/>
			<line class="st10" x1="-31.1" y1="166.4" x2="-27.7" y2="166.9"/>
			<line class="st10" x1="-31.5" y1="170.2" x2="-28.1" y2="170.7"/>
			<line class="st10" x1="-30.3" y1="172.5" x2="-26.9" y2="173"/>
		</g>
		<polyline class="st1" points="-26.3,163.6 -26.1,171.8 -24.5,173 -26,176.2 		"/>
		<g class="st9">
			<polygon class="st10" points="-19.6,164.6 -23.5,164.1 -24.9,167.2 -25.1,170.7 -23.5,173.8 -23.4,176.7 -19.2,177.1 
				-19.6,174.1 -21.1,171.6 -20.9,167.8 			"/>
			<line class="st10" x1="-24.3" y1="167.3" x2="-20.9" y2="167.8"/>
			<line class="st10" x1="-24.8" y1="171.2" x2="-21.4" y2="171.6"/>
			<line class="st10" x1="-23.5" y1="173.5" x2="-20.2" y2="173.9"/>
		</g>
		<polyline class="st1" points="-19.6,164.6 -19.4,172.7 -17.7,173.9 -19.2,177.1 		"/>
		<line class="st1" x1="-32.7" y1="172.1" x2="-32.6" y2="170.7"/>
		<line class="st1" x1="-42.9" y1="160.1" x2="-38.1" y2="160.6"/>
		<g class="st9">
			<polyline class="st10" points="-42.7,161 -42.9,152 -21.9,110.5 -17,111.1 -16.8,113.4 			"/>
			<polyline class="st10" points="-37.8,163.9 -38.1,152.6 -17.3,111.8 			"/>
			<line class="st10" x1="-42.9" y1="152.1" x2="-38.1" y2="152.6"/>
			<line class="st10" x1="-42.7" y1="160.3" x2="-38" y2="160.7"/>
		</g>
		<g class="st9">
			<polyline class="st10" points="-36.3,161.8 -36.4,152.8 -15.4,111.2 -10.5,111.8 -10.4,114.1 			"/>
			<polyline class="st10" points="-31.4,164.7 -31.7,153.4 -10.8,112.6 			"/>
			<line class="st10" x1="-36.4" y1="152.9" x2="-31.7" y2="153.4"/>
			<line class="st10" x1="-36.3" y1="161" x2="-31.5" y2="161.5"/>
		</g>
		<g class="st9">
			<polyline class="st10" points="-29.8,162.4 -30,153.4 -9,111.8 -4.1,112.4 -3.9,114.7 			"/>
			<polyline class="st10" points="-24.9,165.3 -25.2,154 -4.4,113.2 			"/>
			<line class="st10" x1="-30" y1="153.5" x2="-25.2" y2="154"/>
			<line class="st10" x1="-29.8" y1="161.6" x2="-25.1" y2="162.1"/>
		</g>
		<g class="st9">
			<polyline class="st10" points="-23.1,163.5 -23.2,154.4 -2.2,112.9 2.7,113.5 3,123.5 			"/>
			<polyline class="st10" points="2.4,114.3 -18.5,155.1 -18.3,171 -2.4,139.9 			"/>
			<line class="st10" x1="-23.2" y1="154.6" x2="-18.5" y2="155.1"/>
			<line class="st10" x1="-23.1" y1="162.7" x2="-18.3" y2="163.2"/>
		</g>
		<line class="st1" x1="-17.7" y1="173.9" x2="-2.4" y2="143.4"/>
		<g class="st9">
			<g>
				<path class="st11" d="M-1.1,152.4l0,1.8c0,0,0.4,1.2,2.7,1.2c0,0,1.8,0,2.3-1.3v-2"/>
				<ellipse class="st11" cx="1.4" cy="152.3" rx="2.4" ry="1.3"/>
				<ellipse class="st11" cx="30.6" cy="178.1" rx="3.6" ry="1.9"/>
			</g>
			<g>
				<g>
					<path class="st10" d="M-0.5,154.9c0,0-1.2,1.2,1.5,1.4c0,0,1.3,0.1,2.2-0.6"/>
					<path class="st10" d="M-0.5,156.1c0,0-1.2,1.2,1.5,1.4c0,0,1.3,0.1,2.2-0.6"/>
					<path class="st10" d="M-0.5,157.2c0,0-1.2,1.2,1.5,1.4c0,0,1.3,0.1,2.2-0.6"/>
					<path class="st10" d="M-0.5,158.4c0,0-1.2,1.2,1.5,1.4c0,0,1.3,0.1,2.2-0.6"/>
				</g>
				<line class="st12" x1="-0.1" y1="155.1" x2="0.1" y2="160"/>
				<line class="st12" x1="3.1" y1="155.1" x2="3.3" y2="159.5"/>
			</g>
		</g>
		<g class="st9">
			<g>
				<path class="st11" d="M23.7,155.5l0,1.8c0,0,0.4,1.2,2.7,1.2c0,0,1.8,0,2.3-1.3v-2"/>
				<ellipse class="st11" cx="26.2" cy="155.3" rx="2.4" ry="1.3"/>
			</g>
			<g>
				<g>
					<path class="st10" d="M24.4,158c0,0-1.2,1.2,1.5,1.4c0,0,1.3,0.1,2.2-0.6"/>
					<path class="st10" d="M24.4,159.1c0,0-1.2,1.2,1.5,1.4c0,0,1.3,0.1,2.2-0.6"/>
					<path class="st10" d="M24.4,160.3c0,0-1.2,1.2,1.5,1.4c0,0,1.3,0.1,2.2-0.6"/>
					<path class="st10" d="M24.4,161.4c0,0-1.2,1.2,1.5,1.4c0,0,1.3,0.1,2.2-0.6"/>
				</g>
				<line class="st12" x1="24.7" y1="158.1" x2="24.9" y2="163"/>
				<line class="st12" x1="27.9" y1="158.2" x2="28.1" y2="162.6"/>
			</g>
		</g>
		<polyline class="st1" points="-19.8,177.5 -26,189.2 -25.7,195.5 		"/>
		<polyline class="st1" points="-45.4,189.3 -34.4,190.9 -33.5,188.5 -26,189.2 		"/>
		<line class="st1" x1="-34.4" y1="190.9" x2="-34.3" y2="194.5"/>
		<line class="st1" x1="-63.1" y1="181.3" x2="-67.7" y2="190.2"/>
		<polyline class="st1" points="12.9,186 7,197.1 -0.4,196 -1.8,198.6 		"/>
		<line class="st1" x1="7" y1="200" x2="7" y2="197.1"/>
		<path class="st1" d="M26,177.7l3.1-6.9c0,0,0.8-2,3.8-1.2l4.1,0.6c0,0,2.1-0.2,1.5,2.1L35,180c0,0-2,2.3-5.8,1.7
			C29.2,181.7,24.4,181.4,26,177.7z"/>
		<line class="st1" x1="26.7" y1="190" x2="25.7" y2="179.7"/>
		<line class="st1" x1="35.5" y1="183.3" x2="35.2" y2="180"/>
		<path class="st1" d="M-75,140h0.8l0.5,21.8l3.8,0.5v-9c0,0-0.5-4.3,5.1-3.8c0,0,5.2,1.2,4.8,5.4l0.3,9.2l3.5,0.3l0-0.5l-0.1-14.3"
			/>
		<polyline class="st1" points="-56.3,163.8 -54.2,159.8 -53.9,162 -52.7,159.8 -52.7,156.9 -47.8,146.9 -48.1,141.3 		"/>
		<polyline class="st1" points="-45.2,135.7 -45,142.5 -44.2,140 -44.1,142.5 -42.9,140.2 -42.9,137 -30.3,112.3 -30.3,114.6 
			-29.1,112.3 -29.2,109.4 -25.7,102.8 -25.8,96.8 		"/>
		<path class="st1" d="M-27.2,76.9l-3.2,7.2l-0.9-0.3l-0.6,0.6l-14.9-1.8l-14.6,30.2l0.3,0.8l-2.9,6.1l-1.1,0.2l-4.8,9.2h1.7
			l-1.7,3.4l-1.7-0.3l-2.8,4.9l18.1,2.1l30-59.9C-24.6,76.6-27.2,76.9-27.2,76.9L-43.8,75l1.5-2.6l20.4,2.3c0,0,2.3-0.2,2.3,2.3
			s0,7.2,0,7.2l-32,63.8c0,0-0.3,1.7-4,1.5l-18.2-2.1"/>
		<line class="st1" x1="-65.1" y1="119.8" x2="-48.1" y2="121.9"/>
		<polyline class="st1" points="-46.4,115 -57,137.4 -73.2,135.4 		"/>
		<polyline class="st1" points="-56.8,102.6 -59.7,102.2 -63.4,109.4 -60.3,109.8 		"/>
		<polyline class="st1" points="-43.8,74.3 -45.2,74 -45.9,76 -45.9,77.3 -45.3,77.2 		"/>
		<polyline class="st1" points="-43.2,75.5 -45.2,79.3 -48.1,79 -50.1,82.9 -47.5,83 		"/>
		<polyline class="st1" points="-47.6,84.5 -42.4,85.3 -44.4,89.1 -49.4,88.4 		"/>
		<polyline class="st1" points="-59.3,108.9 -54,109.7 -56,113.5 -61.1,112.7 		"/>
		<polygon class="st1" points="-33.5,90.5 -31.7,86.8 -36.7,86.2 -38.4,89.8 		"/>
		<polygon class="st1" points="-45.6,114.9 -43.8,111.2 -48.8,110.6 -50.5,114.1 		"/>
		<polyline class="st1" points="-43.5,114.6 -39.3,115 -39.2,122.9 		"/>
		<polyline class="st1" points="-37,100.9 -32.7,101.4 -32.4,108.9 		"/>
		<polyline class="st1" points="-26.5,104.8 -24.9,104.8 -23.5,103.1 -23.4,97.6 -22.2,95.4 		"/>
		<polyline class="st1" points="-39.6,105.5 -43.3,104.9 -45.2,109.1 -43,109.2 -42.2,110.1 		"/>
		<line class="st1" x1="-42.4" y1="75.5" x2="-42.4" y2="82.9"/>
		<line class="st1" x1="-45.2" y1="79.3" x2="-45" y2="82.4"/>
		<ellipse class="st13" cx="-69.8" cy="144.6" rx="2.3" ry="2"/>
		<line class="st13" x1="-50.1" y1="82.9" x2="-50.2" y2="89.1"/>
		<polyline class="st13" points="-63.4,109.4 -63.4,112.1 -61.7,114.4 		"/>
		<polyline class="st13" points="-70.4,128.8 -72.6,128.4 -74.7,132.5 -72.1,133 		"/>
		<line class="st13" x1="-74.7" y1="132.5" x2="-74.3" y2="137"/>
		<path class="st13" d="M39.9,188.8l1.4,0.2l2.9,0.4c0,0,2.1,0.5,3.2-2c1.1-2.5,7.2-15.3,7.2-15.3s1.2-1.2-2.3-2.3l-3.1-0.2"/>
		<line class="st13" x1="50.5" y1="170.4" x2="41.5" y2="188.3"/>
		<path class="st13" d="M51.3,165.3l5.2,0.8c0,0,1.2,0.5,2.6-2.3c1.4-2.8,2-4.6,2-4.6s1.1-1.1-2.3-1.5c-3.4-0.5-4.1-0.3-4.1-0.3"/>
		<line class="st13" x1="54" y1="165.3" x2="57.5" y2="157.8"/>
		<g class="st9">
			<path class="st14" d="M-111,216.9l-0.1-2.1c0-0.1,0.1-0.1,0.1-0.2c0.2-0.2,0.6-0.3,0.6-0.3l1.7,0.3c0.5,0.2,0.7,1,0.7,1l0.1,1.5
				c0.2,0,0.4-0.3,0.4-0.3s3-5.3,3.1-5.5s0.4-1.5,0.4-1.5s0-1,0-1.5c-0.1-0.5-0.9-0.8-0.9-0.8s-1-0.2-1.4-0.2
				c-0.4-0.1-0.7,0.2-0.7,0.2l-4,6.8"/>
			<line class="st14" x1="-107.7" y1="215.3" x2="-103.9" y2="208.5"/>
			<line class="st14" x1="-109.8" y1="214.9" x2="-123.4" y2="239.1"/>
			<line class="st14" x1="-108.3" y1="215.4" x2="-121.8" y2="239.2"/>
			<line class="st14" x1="-116.4" y1="231.7" x2="-116.2" y2="240.8"/>
			<path class="st14" d="M-129.3,243.6l2-3.7c0,0,0.6-0.8,1.9-0.8c1.3,0,8.5-0.6,15.1,5.7s5.2,13.5,5.2,13.5s-1.2,4.3-2.8,6.3"/>
			<path class="st14" d="M-129.6,250.1l-0.1-5.2c0,0-0.2-1.6,1.7-1.8c1.9-0.2,7.2-0.3,13.1,3.6c5.9,3.9,9.2,11.2,7.3,17.2
				c0,0-1.3,4.9-7.9,7l-4.7-0.2"/>
			<path class="st14" d="M-128.6,267.3l0,1.3c0,0,0,1,1.3,1.1s5.1,0.7,5.1,0.7s3.4,0.4,6.4-0.8c2.9-1.2,5.2-2.7,6.6-6.8
				s-0.3-11.5-7.8-15.9c0,0-2.7-1.6-4.2-1.7c0,0-5.3-0.9-5.9,4l-0.1,5.1"/>
			<line class="st14" x1="-124.5" y1="256.1" x2="-118.8" y2="246.1"/>
			<path class="st14" d="M-127.2,254.8c0,0,1.4-0.9,2.4,0.7l0.6,2.3l2.7-4.8c0,0-0.1-2.4-0.1-2.8c0-0.5-0.3-1-0.3-1
				c-0.9-1.1-1.9-0.3-1.9-0.3l-3.7,6.6"/>
			<path class="st14" d="M-127.6,255.7l0.8,0.2c0,0,0.5-1,1.2-0.3l0.5,1.9c0,0-0.8,0.7-1.2,0.7c0,0,1.4,1.1,2.1-0.2"/>
			<line class="st14" x1="-121.8" y1="253.7" x2="-117.7" y2="246.6"/>
			<path class="st14" d="M-128.1,252.2l0.3-1.8c0,0-0.2-1.2-1.6-0.6c0,0-1.6,1.4-2.1,5.4c0,0-0.3,1.7-0.3,2.6
				c-0.1,0.9,0.2,8.2,0.2,8.2s0.5,3.7,2.6,1.8"/>
			<path class="st14" d="M-127.9,250.6c0,0-0.6,0.2-1.3,2.1s-0.9,5.1-0.9,6.5c0,1.5-0.2,8.2,0.9,8.4c0,0,1.3,0.3,2.4-6l0.5,4.1
				l0.5-0.8c0,0,0-3.1,0.9-4.7c0.1-0.2,0.2-0.3,0.3-0.4c0,0,0.8-0.3,0.8,1.5l0.5-0.7l0.2-3l6-10.6"/>
			<path class="st14" d="M-123.9,261.3l-0.7,0c0,0-0.1-0.9-0.2-1.1"/>
			<line class="st14" x1="-128.6" y1="268.6" x2="-126.3" y2="265.5"/>
			<path class="st14" d="M-126.1,265.5c0,0,0.6,0.5,1,0.5s6.5,0.7,6.5,0.7s5.8,0.2,9.3-3.6"/>
			<path class="st14" d="M-114.8,241.4l10-17.7l0.5-0.2l0.6,0.1c0,0,0.4,0.4,0.2,2l-4,7c0,0-0.4,0.8-1.6,0.3l-5,8.9"/>
			<path class="st14" d="M-107.5,232.4c0,0-0.2-2,0.5-3.1c0.7-1.2,3.2-5.6,3.2-5.6"/>
			<path class="st14" d="M-112.8,237.6c0,0,0.2-1.7,0.1-2.7l0.4-0.6l-0.1-9.5"/>
			<polyline class="st14" points="-112.3,232.2 -110.7,229.4 -110.9,221.6 			"/>
			<line class="st14" x1="-108.3" y1="217" x2="-120.9" y2="239.3"/>
			<line class="st14" x1="-109.7" y1="219.8" x2="-109.4" y2="229.1"/>
			<path class="st14" d="M-110.6,229.3c0,0,1,0.3,1.2-0.3l0.9-1.6l-0.2-9.6"/>
			<line class="st14" x1="-108.4" y1="224.5" x2="-106.9" y2="224.7"/>
			<path class="st14" d="M-108.6,220.9l2,0.3l0.1,0.2l-0.3,0.4c0,0-0.2,0.5-0.2,1c0,0.5,0,2.4,0,2.4s0,0.4,0.2,0.4
				c0.2,0,0.7,0.1,0.7,0.1"/>
			<path class="st14" d="M-107.8,217l0,2.3v1l1.6,0.2c0,0,0.6,0.3,0.6,0.7c0,0.4-0.4,0.8-0.4,0.8s-0.2,0.6-0.1,0.9
				c0,0.3,0.1,2.5,0.1,2.5"/>
			<path class="st14" d="M-105,212.9l1.4,1.4c0,0,0.4,0.5,0.4,1.4l0.2,0.2v1.4l-0.2,0.3v0.8l-1,2l-1.3,1"/>
			<path class="st14" d="M-105.9,214.2l1.2,1.3c0,0,0.5,0.5,0.5,1.1c0,0.6,0.1,2.9,0.1,2.9"/>
			<line class="st14" x1="-105.1" y1="220.8" x2="-105" y2="223.6"/>
			<path class="st14" d="M-106.3,215.6c0,0,1.1,2.7,0.2,5.1"/>
			<line class="st14" x1="-124.6" y1="245.8" x2="-124.5" y2="249.9"/>
			<line class="st14" x1="-127.2" y1="256" x2="-127.1" y2="261.7"/>
			<path class="st14" d="M-107.6,208.3v-1.8l2.4-4c0,0,0.2-0.3,1-0.1c0.8,0.2,0.5,1.2,0.5,1.2l-1.6,2.5c0,0-0.5,0.8-1.3,0.6
				c-0.4-0.1-0.2,0.8-0.2,0.8"/>
		</g>
		<g class="st9">
			<g>
				<path class="st15" d="M79.7,270l0.4,24.7c0,0-0.3,1.3-1.6,1.4s-3.5,0.3-6.2-0.3s-14.7-4.3-15.4-17.5c0,0-1.2-9.4,12.6-14.9
					c0,0,3.1-0.8,6.4-0.1c3.3,0.7,4,0.7,4,0.7s1.5,0,2,1.7l0.6,25.1l-2.4,4.1"/>
				<path class="st15" d="M74.7,293.5c-3.5,2.1-9.5-1.8-12.8-5.5c-3.3-3.7-4.8-11.7-0.9-16c0.1-0.2,0.3-0.3,0.5-0.5
					c4-3.8,10.5-3.5,10.5-3.5s4.8,0.7,5.7,0.8c0.9,0.1,1.1,1.2,1.1,1.2l0.3,18.1c0,0-0.5,3-0.9,4.2c-0.5,1.2-0.9,2.1-1.9,0.9
					c-1-1.2-0.4-11.6-0.4-11.6s1.2-6.1,2.6-5.2l-0.1-0.5c0,0-1-1.3-2-0.3c-1,1-2.2,6-2.2,7.7c0,1.6,0.2,8.6,0.2,8.6s0.4,3.9,2.8,2.2
					"/>
				<path class="st15" d="M74.5,290c0,0-5.5-0.3-10.3-6.2c-4.8-5.9-2.6-12.3-2.6-12.3"/>
				<path class="st15" d="M99.4,255.4"/>
				<path class="st15" d="M82.5,285"/>
				<polyline class="st15" points="99.4,257.5 103.3,250.7 103.6,250.1 				"/>
				
					<ellipse transform="matrix(0.9937 0.1122 -0.1122 0.9937 28.6643 -8.5163)" class="st15" cx="90" cy="250.4" rx="0.7" ry="2.2"/>
				
					<ellipse transform="matrix(0.9937 0.1122 -0.1122 0.9937 29.9639 -8.4501)" class="st15" cx="90.1" cy="262" rx="0.7" ry="2.2"/>
			</g>
			<g>
				<path class="st16" d="M95.8,245.2h-0.6c0,0-0.8,0.9-0.4,2.8l0.6,0.1"/>
				
					<ellipse transform="matrix(0.9942 0.1076 -0.1076 0.9942 27.1159 -8.9371)" class="st16" cx="96.4" cy="246.8" rx="0.8" ry="2.9"/>
				
					<ellipse transform="matrix(0.9942 0.1076 -0.1076 0.9942 27.1394 -9.017)" class="st16" cx="97.1" cy="246.9" rx="0.7" ry="2.7"/>
			</g>
		</g>
		<path class="st17" d="M97.1,250.5l0,4.6l-7.9,14.9c0,0-0.4,1.5-2.4,0.8l-4.5,9.2"/>
		<path class="st17" d="M79.9,264.1l6.4-12.3l0.9-4.9c0,0,0.3-1.5,1.1-3.2c0.8-1.6,8.1-15.5,8.1-15.5l0.4,0.2l0.1,14.4"/>
		<path class="st17" d="M96.8,239.3c0,0-0.8,0.3-1.1-0.4l-2.7,5.2c0,0,0.2,4.3-0.4,5v4.1c0,0,0.5,0.4,0.4,2.6l1.3,0.1l2.7-4.1"/>
		<path class="st17" d="M77.8,268.7c0,0-3.6,5.5-3.3,11.8"/>
		<polyline class="st17" points="32.6,208.1 32.6,209.6 93.9,217.3 93.9,215.8 		"/>
		<ellipse class="st18" cx="40.6" cy="205.8" rx="2.6" ry="1.2"/>
		<ellipse class="st18" cx="85.3" cy="211.4" rx="2.6" ry="1.2"/>
		<polyline class="st18" points="-38,60.2 -39.6,64.9 -39.2,72.1 		"/>
		<polyline class="st18" points="-21.9,74.7 -21.4,65.5 -18.8,61.2 		"/>
		<g class="st9">
			<defs>
				<polygon id="SVGID_3_" points="3,123.6 3,112.9 1.6,111.8 0.7,108.7 7,96 16,90.7 81.3,99.6 82.7,101.8 68.7,129.5 30.6,124.1 
					32.4,121.5 14.4,119.2 13,122.9 4.4,121.8 				"/>
			</defs>
			<clipPath id="SVGID_4_">
				<use xlink:href="#SVGID_3_"  style="overflow:visible;"/>
			</clipPath>
			<g class="st19">
				<g>
					<path class="st20" d="M12.7,103l-1.1-0.2c-0.2,0-0.3,0.5-0.3,0.5l0,6.4l1.4,0.2L12.7,103z"/>
					<path class="st20" d="M12.2,104.2l-1.1-0.2c-0.2,0-0.3,0.5-0.3,0.5l0,6.4l1.4,0.2L12.2,104.2z"/>
					<path class="st20" d="M11.4,105.5l-1.1-0.2c-0.2,0-0.3,0.5-0.3,0.5l0,6.4l1.4,0.2L11.4,105.5z"/>
					<path class="st20" d="M10.8,106.7l-1.1-0.2c-0.2,0-0.3,0.5-0.3,0.5l0,6.4l1.4,0.2L10.8,106.7z"/>
					<path class="st20" d="M10.3,108.1l-1.1-0.2c-0.2,0-0.3,0.5-0.3,0.5l0,6.4l1.4,0.2L10.3,108.1z"/>
				</g>
				<g>
					<path class="st20" d="M17,94.2L15.9,94c-0.2,0-0.3,0.5-0.3,0.5l0,6.4l1.4,0.2L17,94.2z"/>
					<path class="st20" d="M16.5,95.3l-1.1-0.2c-0.2,0-0.3,0.5-0.3,0.5l0,6.4l1.4,0.2L16.5,95.3z"/>
					<path class="st20" d="M15.7,96.7l-1.1-0.2c-0.2,0-0.3,0.5-0.3,0.5l0,6.4l1.4,0.2L15.7,96.7z"/>
					<path class="st20" d="M15.2,97.9l-1.1-0.2c-0.2,0-0.3,0.5-0.3,0.5l0,6.4l1.4,0.2L15.2,97.9z"/>
					<path class="st20" d="M14.6,99.3l-1.1-0.2c-0.2,0-0.3,0.5-0.3,0.5l0,6.4l1.4,0.2L14.6,99.3z"/>
				</g>
				<g>
					<polyline class="st21" points="19.8,107.2 19.7,107.5 21.7,107.8 22,107.2 					"/>
					<g>
						<path class="st21" d="M24.7,93.9l-1.5-0.2c-0.3,0-0.4,0.5-0.4,0.5l0,6.4l1.9,0.2L24.7,93.9z"/>
						<path class="st21" d="M24.1,95.3l-1.5-0.2c-0.3,0-0.4,0.5-0.4,0.5l0,6.4l1.9,0.2L24.1,95.3z"/>
						<path class="st21" d="M23.5,96.5l-1.5-0.2c-0.3,0-0.4,0.5-0.4,0.5l0,6.4l1.9,0.2L23.5,96.5z"/>
						<path class="st21" d="M22.8,97.7l-1.5-0.2c-0.3,0-0.4,0.5-0.4,0.5l0,6.4l1.9,0.2L22.8,97.7z"/>
						<path class="st21" d="M22.3,99l-1.5-0.2c-0.3,0-0.4,0.5-0.4,0.5l0,6.4l1.9,0.2L22.3,99z"/>
						<path class="st21" d="M21.7,100.3l-1.5-0.2c-0.3,0-0.4,0.5-0.4,0.5l0,6.4l1.9,0.2L21.7,100.3z"/>
						<path class="st21" d="M50.7,97.2l-1.5-0.2c-0.3,0-0.4,0.5-0.4,0.5l0,6.4l1.9,0.2L50.7,97.2z"/>
						<path class="st21" d="M50.1,98.5l-1.5-0.2c-0.3,0-0.4,0.5-0.4,0.5l0,6.4l1.9,0.2L50.1,98.5z"/>
						<path class="st21" d="M49.4,99.8l-1.5-0.2c-0.3,0-0.4,0.5-0.4,0.5l0,6.4l1.9,0.2L49.4,99.8z"/>
						<path class="st21" d="M48.8,101l-1.5-0.2c-0.3,0-0.4,0.5-0.4,0.5l0,6.4l1.9,0.2L48.8,101z"/>
						<path class="st21" d="M48.3,102.2l-1.5-0.2c-0.3,0-0.4,0.5-0.4,0.5l0,6.4l1.9,0.2L48.3,102.2z"/>
						<path class="st21" d="M47.7,103.5l-1.5-0.2c-0.3,0-0.4,0.5-0.4,0.5l0,6.4l1.9,0.2L47.7,103.5z"/>
						<path class="st21" d="M54.3,97.7l-1.5-0.2c-0.3,0-0.4,0.5-0.4,0.5l0,6.4l1.9,0.2L54.3,97.7z"/>
						<path class="st21" d="M53.7,99.1l-1.5-0.2c-0.3,0-0.4,0.5-0.4,0.5l0,6.4l1.9,0.2L53.7,99.1z"/>
						<path class="st21" d="M53.1,100.3l-1.5-0.2c-0.3,0-0.4,0.5-0.4,0.5l0,6.4l1.9,0.2L53.1,100.3z"/>
						<path class="st21" d="M52.5,101.5l-1.5-0.2c-0.3,0-0.4,0.5-0.4,0.5l0,6.4l1.9,0.2L52.5,101.5z"/>
						<path class="st21" d="M51.9,102.8l-1.5-0.2c-0.3,0-0.4,0.5-0.4,0.5l0,6.4l1.9,0.2L51.9,102.8z"/>
						<path class="st21" d="M51.4,104.1l-1.5-0.2c-0.3,0-0.4,0.5-0.4,0.5l0,6.4l1.9,0.2L51.4,104.1z"/>
						<path class="st21" d="M58,98.2L56.5,98c-0.3,0-0.4,0.5-0.4,0.5l0,6.4l1.9,0.2L58,98.2z"/>
						<path class="st21" d="M57.4,99.6l-1.5-0.2c-0.3,0-0.4,0.5-0.4,0.5l0,6.4l1.9,0.2L57.4,99.6z"/>
						<path class="st21" d="M56.8,100.8l-1.5-0.2c-0.3,0-0.4,0.5-0.4,0.5l0,6.4l1.9,0.2L56.8,100.8z"/>
						<path class="st21" d="M56.2,102l-1.5-0.2c-0.3,0-0.4,0.5-0.4,0.5l0,6.4l1.9,0.2L56.2,102z"/>
						<path class="st21" d="M55.6,103.3l-1.5-0.2c-0.3,0-0.4,0.5-0.4,0.5l0,6.4l1.9,0.2L55.6,103.3z"/>
						<path class="st21" d="M55.1,104.6l-1.5-0.2c-0.3,0-0.4,0.5-0.4,0.5l0,6.4l1.9,0.2L55.1,104.6z"/>
						<path class="st21" d="M61.7,98.7l-1.5-0.2c-0.3,0-0.4,0.5-0.4,0.5l0,6.4l1.9,0.2L61.7,98.7z"/>
						<path class="st21" d="M61.1,100.1l-1.5-0.2c-0.3,0-0.4,0.5-0.4,0.5l0,6.4l1.9,0.2L61.1,100.1z"/>
						<path class="st21" d="M60.5,101.3l-1.5-0.2c-0.3,0-0.4,0.5-0.4,0.5l0,6.4l1.9,0.2L60.5,101.3z"/>
						<path class="st21" d="M59.8,102.5l-1.5-0.2c-0.3,0-0.4,0.5-0.4,0.5l0,6.4l1.9,0.2L59.8,102.5z"/>
						<path class="st21" d="M59.3,103.8l-1.5-0.2c-0.3,0-0.4,0.5-0.4,0.5l0,6.4l1.9,0.2L59.3,103.8z"/>
						<path class="st21" d="M58.7,105.1l-1.5-0.2c-0.3,0-0.4,0.5-0.4,0.5l0,6.4l1.9,0.2L58.7,105.1z"/>
						<path class="st21" d="M65.4,99.3l-1.5-0.2c-0.3,0-0.4,0.5-0.4,0.5l0,6.4l1.9,0.2L65.4,99.3z"/>
						<path class="st21" d="M64.8,100.7l-1.5-0.2c-0.3,0-0.4,0.5-0.4,0.5l0,6.4l1.9,0.2L64.8,100.7z"/>
						<path class="st21" d="M64.1,101.9l-1.5-0.2c-0.3,0-0.4,0.5-0.4,0.5l0,6.4l1.9,0.2L64.1,101.9z"/>
						<path class="st21" d="M63.5,103.1l-1.5-0.2c-0.3,0-0.4,0.5-0.4,0.5l0,6.4l1.9,0.2L63.5,103.1z"/>
						<path class="st21" d="M63,104.3l-1.5-0.2c-0.3,0-0.4,0.5-0.4,0.5l0,6.4l1.9,0.2L63,104.3z"/>
						<path class="st21" d="M62.4,105.6l-1.5-0.2c-0.3,0-0.4,0.5-0.4,0.5l0,6.4l1.9,0.2L62.4,105.6z"/>
						<path class="st21" d="M69,99.8l-1.5-0.2c-0.3,0-0.4,0.5-0.4,0.5l0,6.4l1.9,0.2L69,99.8z"/>
						<path class="st21" d="M68.4,101.2l-1.5-0.2c-0.3,0-0.4,0.5-0.4,0.5l0,6.4l1.9,0.2L68.4,101.2z"/>
						<path class="st21" d="M67.8,102.4l-1.5-0.2c-0.3,0-0.4,0.5-0.4,0.5l0,6.4l1.9,0.2L67.8,102.4z"/>
						<path class="st21" d="M67.2,103.6l-1.5-0.2c-0.3,0-0.4,0.5-0.4,0.5l0,6.4l1.9,0.2L67.2,103.6z"/>
						<path class="st21" d="M66.6,104.9l-1.5-0.2c-0.3,0-0.4,0.5-0.4,0.5l0,6.4l1.9,0.2L66.6,104.9z"/>
						<path class="st21" d="M66.1,106.2l-1.5-0.2c-0.3,0-0.4,0.5-0.4,0.5l0,6.4l1.9,0.2L66.1,106.2z"/>
						<path class="st21" d="M72.7,100.3l-1.5-0.2c-0.3,0-0.4,0.5-0.4,0.5l0,6.4l1.9,0.2L72.7,100.3z"/>
						<path class="st21" d="M72.1,101.7l-1.5-0.2c-0.3,0-0.4,0.5-0.4,0.5l0,6.4l1.9,0.2L72.1,101.7z"/>
						<path class="st21" d="M71.5,102.9l-1.5-0.2c-0.3,0-0.4,0.5-0.4,0.5l0,6.4l1.9,0.2L71.5,102.9z"/>
						<path class="st21" d="M70.9,104.1l-1.5-0.2c-0.3,0-0.4,0.5-0.4,0.5l0,6.4l1.9,0.2L70.9,104.1z"/>
						<path class="st21" d="M70.3,105.4l-1.5-0.2c-0.3,0-0.4,0.5-0.4,0.5l0,6.4l1.9,0.2L70.3,105.4z"/>
						<path class="st21" d="M69.8,106.7l-1.5-0.2c-0.3,0-0.4,0.5-0.4,0.5l0,6.4l1.9,0.2L69.8,106.7z"/>
						<polyline class="st21" points="24.1,106.4 24,106.7 26,107 26.3,106.4 						"/>
						<path class="st21" d="M27.7,95.7l-1.5-0.2c-0.3,0-0.4,0.5-0.4,0.5l0,6.4l1.9,0.2L27.7,95.7z"/>
						<path class="st21" d="M27.1,96.9l-1.5-0.2c-0.3,0-0.4,0.5-0.4,0.5l0,6.4l1.9,0.2L27.1,96.9z"/>
						<path class="st21" d="M26.6,98.2L25,97.9c-0.3,0-0.4,0.5-0.4,0.5l0,6.4l1.9,0.2L26.6,98.2z"/>
						<path class="st21" d="M26,99.5l-1.5-0.2c-0.3,0-0.4,0.5-0.4,0.5l0,6.4l1.9,0.2L26,99.5z"/>
						<polyline class="st21" points="27.7,106.9 27.6,107.3 29.6,107.6 29.9,107 						"/>
						<path class="st21" d="M31.4,96.3l-1.5-0.2c-0.3,0-0.4,0.5-0.4,0.5l0,6.4l1.9,0.2L31.4,96.3z"/>
						<path class="st21" d="M30.8,97.5l-1.5-0.2c-0.3,0-0.4,0.5-0.4,0.5l0,6.4l1.9,0.2L30.8,97.5z"/>
						<path class="st21" d="M30.2,98.7l-1.5-0.2c-0.3,0-0.4,0.5-0.4,0.5l0,6.4l1.9,0.2L30.2,98.7z"/>
						<path class="st21" d="M29.6,100l-1.5-0.2c-0.3,0-0.4,0.5-0.4,0.5l0,6.4l1.9,0.2L29.6,100z"/>
						<polyline class="st21" points="31.4,107.5 31.3,107.9 33.2,108.1 33.6,107.5 						"/>
						<path class="st21" d="M35,96.8l-1.5-0.2c-0.3,0-0.4,0.5-0.4,0.5l0,6.4l1.9,0.2L35,96.8z"/>
						<path class="st21" d="M34.4,98l-1.5-0.2c-0.3,0-0.4,0.5-0.4,0.5l0,6.4l1.9,0.2L34.4,98z"/>
						<path class="st21" d="M33.8,99.3l-1.5-0.2c-0.3,0-0.4,0.5-0.4,0.5l0,6.4l1.9,0.2L33.8,99.3z"/>
						<path class="st21" d="M33.3,100.6l-1.5-0.2c-0.3,0-0.4,0.5-0.4,0.5l0,6.4l1.9,0.2L33.3,100.6z"/>
						<polyline class="st21" points="35,108.1 34.9,108.5 36.8,108.7 37.2,108.1 						"/>
						<path class="st21" d="M38.6,97.4l-1.5-0.2c-0.3,0-0.4,0.5-0.4,0.5l0,6.4l1.9,0.2L38.6,97.4z"/>
						<path class="st21" d="M38,98.6l-1.5-0.2c-0.3,0-0.4,0.5-0.4,0.5l0,6.4l1.9,0.2L38,98.6z"/>
						<path class="st21" d="M37.4,99.9l-1.5-0.2c-0.3,0-0.4,0.5-0.4,0.5l0,6.4l1.9,0.2L37.4,99.9z"/>
						<path class="st21" d="M36.9,101.2l-1.5-0.2c-0.3,0-0.4,0.5-0.4,0.5l0,6.4l1.9,0.2L36.9,101.2z"/>
						<polyline class="st21" points="38.3,109.6 38.1,109.9 40.1,110.2 40.4,109.6 						"/>
						<path class="st21" d="M43.1,96.3l-1.5-0.2c-0.3,0-0.4,0.5-0.4,0.5l0,6.4l1.9,0.2L43.1,96.3z"/>
						<path class="st21" d="M42.5,97.7L41,97.5c-0.3,0-0.4,0.5-0.4,0.5l0,6.4l1.9,0.2L42.5,97.7z"/>
						<path class="st21" d="M41.9,98.9l-1.5-0.2c-0.3,0-0.4,0.5-0.4,0.5l0,6.4l1.9,0.2L41.9,98.9z"/>
						<path class="st21" d="M41.3,100.1l-1.5-0.2c-0.3,0-0.4,0.5-0.4,0.5l0,6.4l1.9,0.2L41.3,100.1z"/>
						<path class="st21" d="M40.7,101.4l-1.5-0.2c-0.3,0-0.4,0.5-0.4,0.5l0,6.4l1.9,0.2L40.7,101.4z"/>
						<path class="st21" d="M40.2,102.7l-1.5-0.2c-0.3,0-0.4,0.5-0.4,0.5l0,6.4l1.9,0.2L40.2,102.7z"/>
					</g>
				</g>
				<g>
					<g>
						<polyline class="st21" points="76.2,113 76.1,113.4 78,113.7 78.4,113.1 						"/>
					</g>
				</g>
				<g>
					<g>
						<g>
							<polyline class="st22" points="8.8,114.9 8.8,115.3 9.8,115.5 9.9,114.9 							"/>
						</g>
					</g>
				</g>
				<path class="st21" d="M15.5,111l-1.6-0.2l1.3-7.2c0,0,0-0.2,0.3-0.1c0.3,0,2.3,0.3,2.3,0.3l0.2,0.3"/>
				<line class="st23" x1="17.6" y1="104.9" x2="17.8" y2="103.9"/>
				<g>
					<path class="st21" d="M15.6,103.3l0-0.3c0,0-0.1-0.5,0.2-0.5l2.4,0.3l0.4,0.5"/>
					<path class="st21" d="M18.2,103.7l0-0.5c0,0,0-0.2,0.1-0.3"/>
				</g>
				<g>
					<path class="st23" d="M19.9,102.2l-1.6-0.2l1.2-7c0,0,0-0.4,0.2-0.4s2.4,0.3,2.4,0.3l0.2,0.4"/>
					<path class="st23" d="M22,96.4l0.2-1.1c0,0,0-0.2,0.1-0.3"/>
				</g>
				<path class="st23" d="M45.9,105.7l-1.6-0.2l1.2-7c0,0,0-0.4,0.2-0.4s2.4,0.3,2.4,0.3l0.2,0.4"/>
				<path class="st23" d="M11.2,113.8c0,0-1.2-0.2-1.3,1.2c0,0,0.1,0.8-0.5,0.8l-0.6-0.1c0,0-0.3-0.1-0.3,0.5l0.1,3.7
					c0,0,0.1,0.1,0.1,0.3l2.5,0.3l-0.1-0.4l0-0.8c0,0,0.1-0.3,0.5-0.3c0.4,0,25.8,3.3,25.8,3.3s0.5-0.1,0.5,0.6c0,0.7-0.1,1,0.3,1.1
					s4.6,0.6,4.6,0.6s-0.1-0.4-0.1-0.6c0-0.2,0-0.5,0-0.5s0-0.4,0.6-0.4c0.5,0,25.8,3.4,25.8,3.4s0.4,0,0.5,0.7c0,0.7-0.2,0.8,0.3,1
					c0.5,0.2,3.4,0.5,3.4,0.5l0.3-0.3l0-3.5c0,0,0-0.9-1.4-1.3l-1.1-0.1c0,0-0.4,0-0.3-0.6c0-0.6,0.1-1.3-1.4-1.8"/>
				<line class="st23" x1="69.6" y1="127.5" x2="42.9" y2="124"/>
				<line class="st23" x1="69.6" y1="127.8" x2="73.5" y2="128.3"/>
				<line class="st23" x1="37.9" y1="123.4" x2="11.3" y2="119.9"/>
				<polyline class="st23" points="11.3,120.6 11.6,120.4 11.7,120.3 11.7,119.1 				"/>
				<g>
					<polygon class="st22" points="13.7,115 11.3,114.7 11.3,111.7 13.8,112.1 					"/>
					<polyline class="st21" points="11.3,111.7 11.4,111.3 13.9,111.6 13.8,112.1 					"/>
					<polyline class="st21" points="13.9,111.6 15.1,114.1 13.8,113.9 					"/>
					<polygon class="st21" points="14.2,116.7 10.9,116.2 10.9,114.8 14.2,115.3 					"/>
				</g>
				<line class="st24" x1="8.6" y1="119.8" x2="11.1" y2="120.2"/>
				<g>
					<path class="st21" d="M71.1,110.5l0-0.3c0,0-0.1-0.5,0.2-0.5l2.4,0.3l0.4,0.5"/>
					<path class="st23" d="M73.7,110.9l0-0.5c0,0,0-0.2,0.1-0.3"/>
				</g>
				<g>
					<path class="st23" d="M76.1,109.6l-2.3-0.3l1.2-7c0,0,0-0.4,0.2-0.4c0.2,0,2.4,0.3,2.4,0.3l0.2,0.4"/>
					<path class="st23" d="M77.5,103.6l0.2-1.1c0,0,0-0.2,0.1-0.3"/>
				</g>
				<g>
					<path class="st21" d="M71.6,118.3l-2.2-0.3l1.3-7.2c0,0,0-0.2,0.3-0.1c0.3,0,2.3,0.3,2.3,0.3l0.2,0.3"/>
					<path class="st21" d="M73.1,112.2l0-0.7c0,0,0-0.4,0.2-0.5"/>
				</g>
				<g>
					<g>
						<polyline class="st21" points="71.7,121.8 71.6,122.2 73.6,122.4 73.9,121.8 						"/>
					</g>
				</g>
				<g>
					<polygon class="st22" points="39.6,118.4 37.2,118 37.2,115.1 39.6,115.4 					"/>
					<polyline class="st21" points="37.2,115.1 37.3,114.6 39.7,115 39.6,115.4 					"/>
					<polyline class="st23" points="39.7,115 41,117.4 39.7,117.3 					"/>
					<polygon class="st23" points="40.1,120.1 36.8,119.6 36.8,118.1 40.1,118.6 					"/>
				</g>
				<g>
					<path class="st21" d="M41.4,114.4l-1.6-0.2l1.3-7.2c0,0,0-0.2,0.3-0.1s2.3,0.3,2.3,0.3l0.2,0.3"/>
					<path class="st21" d="M43.5,108.3l0-0.7c0,0,0-0.4,0.2-0.5"/>
				</g>
				<g>
					<path class="st21" d="M41.5,106.7l0-0.3c0,0-0.1-0.5,0.2-0.5l2.4,0.3l0.4,0.5"/>
					<path class="st23" d="M44.1,107l0-0.5c0,0,0-0.2,0.1-0.3"/>
				</g>
				<g>
					<g>
						<g>
							<polyline class="st21" points="41.5,119.2 41.4,119.6 43.3,119.8 43.7,119.2 							"/>
						</g>
					</g>
					<g>
						<g>
							<polyline class="st21" points="45.1,119.7 45,120.1 47,120.3 47.3,119.8 							"/>
						</g>
					</g>
					<g>
						<g>
							<polyline class="st21" points="48.8,120.2 48.7,120.6 50.6,120.8 51,120.3 							"/>
						</g>
					</g>
					<g>
						<g>
							<polyline class="st21" points="52.4,120.7 52.3,121.1 54.3,121.3 54.6,120.8 							"/>
						</g>
					</g>
					<g>
						<g>
							<polyline class="st21" points="56.1,121.2 55.9,121.6 57.9,121.8 58.2,121.3 							"/>
						</g>
					</g>
					<g>
						<g>
							<polyline class="st21" points="59.9,121.7 59.8,122.1 61.7,122.3 62.1,121.7 							"/>
						</g>
					</g>
					<g>
						<g>
							<polyline class="st21" points="63.6,122.2 63.5,122.6 65.4,122.9 65.8,122.3 							"/>
						</g>
					</g>
				</g>
				<g>
					<polygon class="st22" points="69.3,122.1 66.8,121.8 66.8,118.8 69.3,119.2 					"/>
					<polyline class="st21" points="66.8,118.8 66.9,118.4 69.4,118.7 69.3,119.2 					"/>
					<polyline class="st23" points="69.4,118.7 70.6,121.2 69.4,121 					"/>
					<polygon class="st23" points="69.7,123.8 66.4,123.3 66.4,121.9 69.7,122.4 					"/>
				</g>
				<path class="st23" d="M81,107.9l1.2,0.2c0,0,0.8,0,0.7,1l0,1.2l-3.1,6.1c0,0-0.1,0.6-1,0.7l-2.1-0.4"/>
				<line class="st23" x1="73.4" y1="106.9" x2="74.2" y2="107"/>
				<path class="st23" d="M76.5,114.8l2.1,0.4c0,0,0.8,0,1-0.5c0.2-0.4,3.2-6.3,3.2-6.3"/>
				<path class="st23" d="M78.4,117l0,2l-3.2,6.4c0,0-0.2,0.5-1.4,0.2"/>
				<path class="st23" d="M72.4,123.7l1.8,0.2c0,0,0.7,0.2,1-0.4c0.4-0.7,3.2-6.2,3.2-6.2"/>
				<line class="st23" x1="79" y1="115.3" x2="79" y2="116.8"/>
				<path class="st23" d="M39.7,117.5c0,0,1.6,0,1.4,1.8c0,0-0.1,0.9,0.9,1c1.2,0.2,23,3,23,3s0.5,0,0.6-0.5"/>
				<path class="st23" d="M13.7,114.1c0,0,1.6,0,1.4,1.8c0,0-0.1,0.9,0.9,1c1.2,0.2,19.2,2.4,19.2,2.4s0.5,0,0.6-0.5"/>
				<path class="st23" d="M45,100.8c0,0-0.6,0-0.8,0.6c-0.2,0.6,0.2,1.3-0.3,1.6l-0.5,0.1"/>
				<path class="st23" d="M19.1,97.5c0,0-0.6,0-0.8,0.6c-0.2,0.6,0.2,1.3-0.3,1.6l-0.5-0.1"/>
				<line class="st22" x1="74.6" y1="124" x2="74.7" y2="125.7"/>
				<polygon class="st22" points="84.1,110.3 87.2,110.7 83.6,117.8 80.6,117.5 				"/>
				<polygon class="st22" points="79.8,119.1 82.7,119.4 79.1,126.6 76.1,126.2 				"/>
				<polyline class="st25" points="75.3,127.3 75.3,130.9 79.2,131.4 82.8,124.3 82.7,119.4 				"/>
				<line class="st25" x1="79.1" y1="126.6" x2="79.2" y2="131.4"/>
				<polyline class="st25" points="82.8,122.5 83.6,122.6 87.2,115.4 87.2,110.7 				"/>
				<line class="st25" x1="83.6" y1="117.8" x2="83.5" y2="122.5"/>
				<polyline class="st25" points="78.4,118.2 79.4,118.4 79.8,118.3 79.8,117.8 80.6,117.5 80.5,119.1 				"/>
				<polyline class="st25" points="76.1,126.2 75.4,126.6 75.4,127.1 75,127.1 73.7,127 				"/>
				<polyline class="st25" points="73.7,126.5 74.9,126.7 75.4,126.6 				"/>
				<polyline class="st25" points="78.4,117.8 79.3,118 79.8,117.8 				"/>
				<path class="st23" d="M73.6,128.5c0,0,1.1,0.4,1.7-0.4"/>
				<path class="st23" d="M73.6,128c0,0,1.1,0.5,1.7-0.4"/>
				<path class="st23" d="M82.5,110.7l0.5,0c0,0,0.2,0,0.2,0.4l0.5,0.1"/>
				<path class="st23" d="M77.9,116.8c0,0,0.1-1.6-1.5-1.7"/>
				<line class="st23" x1="14.3" y1="108.6" x2="12.8" y2="108.4"/>
				<path class="st23" d="M8.6,120.3l-1.3,2.5c0,0-2.2-0.1-2.2-0.7l0.1-5l0.8-1.7l0.6,0l0.3,0.5l-0.7,1.4"/>
				<path class="st23" d="M6.7,115.5l-0.9,1.6l1.6,0.3l-0.2,0.3l-1.5-0.2c0,0-0.6-0.1-0.5-0.6"/>
				<line class="st23" x1="6" y1="122.6" x2="6" y2="117.7"/>
				<polyline class="st23" points="7.3,117.8 7.4,120.9 7.7,120.9 7.7,121.7 7.3,122 7.3,122.7 				"/>
				<polyline class="st23" points="7.4,120.7 7.7,120.2 7.6,117.5 				"/>
				<path class="st23" d="M5.2,120.9c0,0-1.4-0.4-1.4-0.9c0,0,0,0,0,0.7c0,0.7,1.4,1.1,1.4,1.1"/>
				<polyline class="st23" points="5.2,120.2 2.2,119.8 2.2,117.5 2.9,117.6 3.1,113.6 6.8,114.1 7,114.5 				"/>
				<path class="st23" d="M8.7,115.4l-1.4-0.2c0,0-0.7,0.1-0.2-0.9l1-1.7"/>
				<line class="st23" x1="2.2" y1="117.5" x2="3" y2="116"/>
				<path class="st23" d="M8.5,116l-1.1-0.2l-0.2,0c0,0-0.6-0.2-0.3-0.9"/>
				<line class="st23" x1="7.4" y1="115.2" x2="7.3" y2="115.8"/>
				<path class="st23" d="M2.4,109c0,0,0.5-1,2.9-0.1l1.5,0.8c0,0,1.6,1,1.2,2c-0.4,1-2.5,0.4-2.5,0.4L3.4,111
					C3.4,111,1.8,110.1,2.4,109z"/>
				<path class="st23" d="M2.3,109.1l-0.7,1.1c0,0-0.1,1,0.9,1.5c1,0.6,1,0.7,1,0.7"/>
				<polyline class="st23" points="4,111.4 2.6,114.5 3,115 				"/>
				<path class="st23" d="M3.8,112.2l1.4,0.6c0,0,2.3,0.8,2.9-1"/>
				<path class="st23" d="M8.3,103.5l1.4,0.6c0,0,0.5,0.2,1.1,0.2"/>
				<line class="st23" x1="7.2" y1="109.9" x2="8.8" y2="110.2"/>
				<polyline class="st23" points="6.6,109.5 6.6,108.8 7.4,107.3 				"/>
				<polyline class="st23" points="6.7,108.8 7.3,108.8 7.4,106.2 7.5,104.9 10.2,105.2 				"/>
				<polyline class="st23" points="8.4,102.8 7,105.7 7.4,106.2 				"/>
				<polygon points="4,109.1 4.4,109.2 3.7,110.4 3.5,110 				"/>
				<polygon points="4.8,109.5 5.2,109.6 4.6,110.8 4.3,110.4 				"/>
				<polygon points="5.6,109.9 6,110.1 5.4,111.2 5.1,110.9 				"/>
				<polygon points="6.4,110.3 6.8,110.4 6.1,111.6 5.9,111.2 				"/>
				<path class="st23" d="M11.2,103.5c-0.7,0-1.3-0.2-1.3-0.2l-2.1-1.1c0,0-1.6-0.9-1-2.1c0,0,0.5-1,2.9-0.1l1.5,0.8
					c0,0,1.4,0.9,1.3,1.9"/>
				<path class="st23" d="M6.7,100.3L6,101.4c0,0-0.1,1,0.9,1.5c1,0.6,1,0.7,1,0.7"/>
				<polygon points="8.4,100.3 8.8,100.5 8.1,101.6 7.9,101.3 				"/>
				<polygon points="9.2,100.7 9.6,100.8 9,102 8.7,101.6 				"/>
				<polygon points="10,101.2 10.4,101.3 9.8,102.4 9.5,102.1 				"/>
				<polygon points="10.8,101.5 11.2,101.6 10.5,102.8 10.3,102.4 				"/>
				<line class="st23" x1="13.2" y1="101.4" x2="11.6" y2="101.2"/>
				<line class="st23" x1="4.6" y1="112.5" x2="4.9" y2="111.8"/>
				<line class="st23" x1="9" y1="103.8" x2="9.4" y2="103.1"/>
				<g>
					<g>
						<g>
						</g>
						<g>
						</g>
						<g>
						</g>
						<g>
						</g>
						<g>
						</g>
						<g>
							<path class="st21" d="M17.5,109.5"/>
							<polyline class="st21" points="15.6,115.8 15.5,116.2 17.4,116.5 17.8,115.9 							"/>
							<g>
								<path class="st21" d="M20.4,102.6l-1.5-0.2c-0.3,0-0.4,0.5-0.4,0.5l0,6.4l1.9,0.2L20.4,102.6z"/>
								<path class="st21" d="M19.8,103.9l-1.5-0.2c-0.3,0-0.4,0.5-0.4,0.5l0,6.4l1.9,0.2L19.8,103.9z"/>
								<path class="st21" d="M19.2,105.2l-1.5-0.2c-0.3,0-0.4,0.5-0.4,0.5l0,6.4l1.9,0.2L19.2,105.2z"/>
								<path class="st21" d="M18.6,106.4l-1.5-0.2c-0.3,0-0.4,0.5-0.4,0.5l0,6.4l1.9,0.2L18.6,106.4z"/>
								<path class="st21" d="M18,107.6l-1.5-0.2c-0.3,0-0.4,0.5-0.4,0.5l0,6.4l1.9,0.2L18,107.6z"/>
								<path class="st21" d="M17.5,108.9l-1.5-0.2c-0.3,0-0.4,0.5-0.4,0.5l0,6.4l1.9,0.2L17.5,108.9z"/>
								<polyline class="st21" points="19.9,115 19.8,115.4 21.7,115.6 22.1,115.1 								"/>
								<path class="st21" d="M23.5,104.3l-1.5-0.2c-0.3,0-0.4,0.5-0.4,0.5l0,6.4l1.9,0.2L23.5,104.3z"/>
								<path class="st21" d="M22.9,105.5l-1.5-0.2c-0.3,0-0.4,0.5-0.4,0.5l0,6.4l1.9,0.2L22.9,105.5z"/>
								<path class="st21" d="M22.3,106.8l-1.5-0.2c-0.3,0-0.4,0.5-0.4,0.5l0,6.4l1.9,0.2L22.3,106.8z"/>
								<path class="st21" d="M21.8,108.1l-1.5-0.2c-0.3,0-0.4,0.5-0.4,0.5l0,6.4l1.9,0.2L21.8,108.1z"/>
								<polyline class="st21" points="23.5,115.6 23.4,116 25.3,116.2 25.7,115.6 								"/>
								<path class="st21" d="M27.1,104.9l-1.5-0.2c-0.3,0-0.4,0.5-0.4,0.5l0,6.4l1.9,0.2L27.1,104.9z"/>
								<path class="st21" d="M26.5,106.1l-1.5-0.2c-0.3,0-0.4,0.5-0.4,0.5l0,6.4l1.9,0.2L26.5,106.1z"/>
								<path class="st21" d="M26,107.4l-1.5-0.2c-0.3,0-0.4,0.5-0.4,0.5l0,6.4l1.9,0.2L26,107.4z"/>
								<path class="st21" d="M25.4,108.7l-1.5-0.2c-0.3,0-0.4,0.5-0.4,0.5l0,6.4l1.9,0.2L25.4,108.7z"/>
								<polyline class="st21" points="27.1,116.2 27,116.5 29,116.8 29.3,116.2 								"/>
								<path class="st21" d="M30.8,105.5l-1.5-0.2c-0.3,0-0.4,0.5-0.4,0.5l0,6.4l1.9,0.2L30.8,105.5z"/>
								<path class="st21" d="M30.1,106.7l-1.5-0.2c-0.3,0-0.4,0.5-0.4,0.5l0,6.4l1.9,0.2L30.1,106.7z"/>
								<path class="st21" d="M29.6,108l-1.5-0.2c-0.3,0-0.4,0.5-0.4,0.5l0,6.4l1.9,0.2L29.6,108z"/>
								<path class="st21" d="M29,109.3l-1.5-0.2c-0.3,0-0.4,0.5-0.4,0.5l0,6.4l1.9,0.2L29,109.3z"/>
								<polyline class="st21" points="30.8,116.8 30.6,117.1 32.6,117.4 32.9,116.8 								"/>
								<path class="st21" d="M34.4,106.1l-1.5-0.2c-0.3,0-0.4,0.5-0.4,0.5l0,6.4l1.9,0.2L34.4,106.1z"/>
								<path class="st21" d="M33.8,107.3l-1.5-0.2c-0.3,0-0.4,0.5-0.4,0.5l0,6.4l1.9,0.2L33.8,107.3z"/>
								<path class="st21" d="M33.2,108.6l-1.5-0.2c-0.3,0-0.4,0.5-0.4,0.5l0,6.4l1.9,0.2L33.2,108.6z"/>
								<path class="st21" d="M32.7,109.9l-1.5-0.2c-0.3,0-0.4,0.5-0.4,0.5l0,6.4l1.9,0.2L32.7,109.9z"/>
								<polyline class="st21" points="34,118.2 33.9,118.6 35.9,118.9 36.2,118.3 								"/>
								<path class="st21" d="M38.9,105l-1.5-0.2c-0.3,0-0.4,0.5-0.4,0.5l0,6.4l1.9,0.2L38.9,105z"/>
								<path class="st21" d="M38.3,106.3l-1.5-0.2c-0.3,0-0.4,0.5-0.4,0.5l0,6.4l1.9,0.2L38.3,106.3z"/>
								<path class="st21" d="M37.7,107.6l-1.5-0.2c-0.3,0-0.4,0.5-0.4,0.5l0,6.4l1.9,0.2L37.7,107.6z"/>
								<path class="st21" d="M37,108.8l-1.5-0.2c-0.3,0-0.4,0.5-0.4,0.5l0,6.4l1.9,0.2L37,108.8z"/>
								<path class="st21" d="M36.5,110l-1.5-0.2c-0.3,0-0.4,0.5-0.4,0.5l0,6.4l1.9,0.2L36.5,110z"/>
								<path class="st21" d="M35.9,111.3l-1.5-0.2c-0.3,0-0.4,0.5-0.4,0.5l0,6.4l1.9,0.2L35.9,111.3z"/>
							</g>
						</g>
					</g>
					<g>
						<g>
						</g>
						<g>
						</g>
						<g>
						</g>
						<g>
						</g>
					</g>
					<g>
						<g>
						</g>
					</g>
					<g>
						<g>
						</g>
					</g>
				</g>
				<g>
					<path class="st21" d="M46.5,105.9l-1.5-0.2c-0.3,0-0.4,0.5-0.4,0.5l0,6.4l1.9,0.2L46.5,105.9z"/>
					<path class="st21" d="M45.9,107.3l-1.5-0.2c-0.3,0-0.4,0.5-0.4,0.5l0,6.4l1.9,0.2L45.9,107.3z"/>
					<path class="st21" d="M45.3,108.5l-1.5-0.2c-0.3,0-0.4,0.5-0.4,0.5l0,6.4l1.9,0.2L45.3,108.5z"/>
					<path class="st21" d="M44.7,109.7l-1.5-0.2c-0.3,0-0.4,0.5-0.4,0.5l0,6.4l1.9,0.2L44.7,109.7z"/>
					<path class="st21" d="M44.1,111l-1.5-0.2c-0.3,0-0.4,0.5-0.4,0.5l0,6.4l1.9,0.2L44.1,111z"/>
					<path class="st21" d="M43.6,112.3l-1.5-0.2c-0.3,0-0.4,0.5-0.4,0.5l0,6.4l1.9,0.2L43.6,112.3z"/>
					<path class="st21" d="M50.2,106.5l-1.5-0.2c-0.3,0-0.4,0.5-0.4,0.5l0,6.4l1.9,0.2L50.2,106.5z"/>
					<path class="st21" d="M49.6,107.8l-1.5-0.2c-0.3,0-0.4,0.5-0.4,0.5l0,6.4l1.9,0.2L49.6,107.8z"/>
					<path class="st21" d="M49,109.1l-1.5-0.2c-0.3,0-0.4,0.5-0.4,0.5l0,6.4L49,116L49,109.1z"/>
					<path class="st21" d="M48.4,110.3l-1.5-0.2c-0.3,0-0.4,0.5-0.4,0.5l0,6.4l1.9,0.2L48.4,110.3z"/>
					<path class="st21" d="M47.8,111.5l-1.5-0.2c-0.3,0-0.4,0.5-0.4,0.5l0,6.4l1.9,0.2L47.8,111.5z"/>
					<path class="st21" d="M47.3,112.8l-1.5-0.2c-0.3,0-0.4,0.5-0.4,0.5l0,6.4l1.9,0.2L47.3,112.8z"/>
					<path class="st21" d="M53.9,107l-1.5-0.2c-0.3,0-0.4,0.5-0.4,0.5l0,6.4l1.9,0.2L53.9,107z"/>
					<path class="st21" d="M53.3,108.4l-1.5-0.2c-0.3,0-0.4,0.5-0.4,0.5l0,6.4l1.9,0.2L53.3,108.4z"/>
					<path class="st21" d="M52.7,109.6l-1.5-0.2c-0.3,0-0.4,0.5-0.4,0.5l0,6.4l1.9,0.2L52.7,109.6z"/>
					<path class="st21" d="M52,110.8l-1.5-0.2c-0.3,0-0.4,0.5-0.4,0.5l0,6.4l1.9,0.2L52,110.8z"/>
					<path class="st21" d="M51.5,112.1l-1.5-0.2c-0.3,0-0.4,0.5-0.4,0.5l0,6.4l1.9,0.2L51.5,112.1z"/>
					<path class="st21" d="M50.9,113.4l-1.5-0.2c-0.3,0-0.4,0.5-0.4,0.5l0,6.4l1.9,0.2L50.9,113.4z"/>
					<path class="st21" d="M57.5,107.5l-1.5-0.2c-0.3,0-0.4,0.5-0.4,0.5l0,6.4l1.9,0.2L57.5,107.5z"/>
					<path class="st21" d="M57,108.9l-1.5-0.2c-0.3,0-0.4,0.5-0.4,0.5l0,6.4l1.9,0.2L57,108.9z"/>
					<path class="st21" d="M56.3,110.1l-1.5-0.2c-0.3,0-0.4,0.5-0.4,0.5l0,6.4l1.9,0.2L56.3,110.1z"/>
					<path class="st21" d="M55.7,111.3l-1.5-0.2c-0.3,0-0.4,0.5-0.4,0.5l0,6.4l1.9,0.2L55.7,111.3z"/>
					<path class="st21" d="M55.1,112.6l-1.5-0.2c-0.3,0-0.4,0.5-0.4,0.5l0,6.4l1.9,0.2L55.1,112.6z"/>
					<path class="st21" d="M54.6,113.9l-1.5-0.2c-0.3,0-0.4,0.5-0.4,0.5l0,6.4l1.9,0.2L54.6,113.9z"/>
					<path class="st21" d="M61.2,108l-1.5-0.2c-0.3,0-0.4,0.5-0.4,0.5l0,6.4l1.9,0.2L61.2,108z"/>
					<path class="st21" d="M60.6,109.4l-1.5-0.2c-0.3,0-0.4,0.5-0.4,0.5l0,6.4l1.9,0.2L60.6,109.4z"/>
					<path class="st21" d="M60,110.6l-1.5-0.2c-0.3,0-0.4,0.5-0.4,0.5l0,6.4l1.9,0.2L60,110.6z"/>
					<path class="st21" d="M59.4,111.8l-1.5-0.2c-0.3,0-0.4,0.5-0.4,0.5l0,6.4l1.9,0.2L59.4,111.8z"/>
					<path class="st21" d="M58.8,113.1l-1.5-0.2c-0.3,0-0.4,0.5-0.4,0.5l0,6.4l1.9,0.2L58.8,113.1z"/>
					<path class="st21" d="M58.3,114.4l-1.5-0.2c-0.3,0-0.4,0.5-0.4,0.5l0,6.4l1.9,0.2L58.3,114.4z"/>
					<path class="st21" d="M64.9,108.6l-1.5-0.2c-0.3,0-0.4,0.5-0.4,0.5l0,6.4l1.9,0.2L64.9,108.6z"/>
					<path class="st21" d="M64.3,110l-1.5-0.2c-0.3,0-0.4,0.5-0.4,0.5l0,6.4l1.9,0.2L64.3,110z"/>
					<path class="st21" d="M63.7,111.2l-1.5-0.2c-0.3,0-0.4,0.5-0.4,0.5l0,6.4l1.9,0.2L63.7,111.2z"/>
					<path class="st21" d="M63.1,112.4l-1.5-0.2c-0.3,0-0.4,0.5-0.4,0.5l0,6.4l1.9,0.2L63.1,112.4z"/>
					<path class="st21" d="M62.5,113.6l-1.5-0.2c-0.3,0-0.4,0.5-0.4,0.5l0,6.4l1.9,0.2L62.5,113.6z"/>
					<path class="st21" d="M62,114.9l-1.5-0.2c-0.3,0-0.4,0.5-0.4,0.5l0,6.4l1.9,0.2L62,114.9z"/>
					<path class="st21" d="M68.6,109.1l-1.5-0.2c-0.3,0-0.4,0.5-0.4,0.5l0,6.4l1.9,0.2L68.6,109.1z"/>
					<path class="st21" d="M68,110.5l-1.5-0.2c-0.3,0-0.4,0.5-0.4,0.5l0,6.4l1.9,0.2L68,110.5z"/>
					<path class="st21" d="M67.4,111.7l-1.5-0.2c-0.3,0-0.4,0.5-0.4,0.5l0,6.4l1.9,0.2L67.4,111.7z"/>
					<path class="st21" d="M66.7,112.9l-1.5-0.2c-0.3,0-0.4,0.5-0.4,0.5l0,6.4l1.9,0.2L66.7,112.9z"/>
					<path class="st21" d="M66.2,114.2l-1.5-0.2c-0.3,0-0.4,0.5-0.4,0.5l0,6.4l1.9,0.2L66.2,114.2z"/>
					<path class="st21" d="M65.6,115.5l-1.5-0.2c-0.3,0-0.4,0.5-0.4,0.5l0,6.4l1.9,0.2L65.6,115.5z"/>
				</g>
				<g>
					<path class="st26" d="M80.8,101.2L79,101c-0.3,0-0.4,0.5-0.4,0.5l0,6.4l2.2,0.2L80.8,101.2z"/>
					<path class="st26" d="M80.1,102.4l-1.8-0.2c-0.3,0-0.4,0.5-0.4,0.5l0,6.4l2.2,0.2L80.1,102.4z"/>
					<path class="st26" d="M79.6,103.5l-1.8-0.2c-0.3,0-0.4,0.5-0.4,0.5l0,6.4l2.2,0.2L79.6,103.5z"/>
					<path class="st26" d="M78.9,104.9l-1.8-0.2c-0.3,0-0.4,0.5-0.4,0.5l0,6.4l2.2,0.2L78.9,104.9z"/>
					<path class="st26" d="M78.3,106.1l-1.8-0.2c-0.3,0-0.4,0.5-0.4,0.5l0,6.4l2.2,0.2L78.3,106.1z"/>
				</g>
				<g>
					<path class="st26" d="M76.4,110.1l-1.8-0.2c-0.3,0-0.4,0.5-0.4,0.5l0,6.4l2.2,0.2L76.4,110.1z"/>
					<path class="st26" d="M75.9,111.2l-1.8-0.2c-0.3,0-0.4,0.5-0.4,0.5l0,6.4l2.2,0.2L75.9,111.2z"/>
					<path class="st26" d="M75.1,112.4l-1.8-0.2c-0.3,0-0.4,0.5-0.4,0.5l0,6.4l2.2,0.2L75.1,112.4z"/>
					<path class="st26" d="M74.5,113.5l-1.8-0.2c-0.3,0-0.4,0.5-0.4,0.5l0,6.4l2.2,0.2L74.5,113.5z"/>
					<path class="st26" d="M73.8,114.8l-1.8-0.2c-0.3,0-0.4,0.5-0.4,0.5l0,6.4l2.2,0.2L73.8,114.8z"/>
				</g>
			</g>
		</g>
		<g class="st9">
			<g id="LINE_4916_">
				<line class="st27" x1="218.8" y1="274.1" x2="217.6" y2="273.9"/>
			</g>
			<g id="LINE_4915_">
				<line class="st27" x1="214.9" y1="273.2" x2="213.9" y2="273"/>
			</g>
			<g id="LINE_4914_">
				<line class="st27" x1="216.3" y1="271.8" x2="214.1" y2="271.4"/>
			</g>
			<g id="LINE_4913_">
				<line class="st27" x1="216.3" y1="271.8" x2="217.1" y2="271.9"/>
			</g>
			<g id="LINE_4912_">
				<line class="st27" x1="214.6" y1="270" x2="214.8" y2="270"/>
			</g>
			<g id="LINE_4911_">
				<line class="st27" x1="214.6" y1="269.3" x2="214.7" y2="269.3"/>
			</g>
			<g id="LINE_4910_">
				<line class="st27" x1="212.4" y1="251.8" x2="213.4" y2="251.9"/>
			</g>
			<g id="LINE_4909_">
				<line class="st27" x1="214.8" y1="250.5" x2="215.6" y2="250.7"/>
			</g>
			<g id="LINE_4908_">
				<line class="st27" x1="212.7" y1="249.6" x2="214.9" y2="249.9"/>
			</g>
			<g id="LINE_4907_">
				<line class="st27" x1="217.3" y1="249.6" x2="215.8" y2="249.4"/>
			</g>
			<g id="LINE_4906_">
				<line class="st27" x1="217.4" y1="248.5" x2="213.9" y2="247.9"/>
			</g>
			<g id="LINE_4905_">
				<line class="st27" x1="213.6" y1="272.6" x2="213.8" y2="272.9"/>
			</g>
			<g id="LINE_4904_">
				<line class="st27" x1="212.3" y1="251.6" x2="212.1" y2="251.3"/>
			</g>
			<g id="LINE_4903_">
				<line class="st27" x1="284.9" y1="130.8" x2="281.9" y2="130.3"/>
			</g>
			<g id="LINE_4902_">
				<line class="st27" x1="285.2" y1="130.6" x2="285.2" y2="130.6"/>
			</g>
			<g id="HATCH_1_">
				<path class="st28" d="M145.7,220.4c0,0,0-0.1,0-0.1l0,0c0,0-0.1-0.1-0.1-0.1l0,0c0,0-0.1,0-0.1-0.1l0,0c0,0-0.1,0-0.2,0
					L145.7,220.4z M184.6,155.9c-0.1,0-0.2,0-0.3-0.1l0,0c-0.1,0-0.1-0.1-0.2-0.1l0,0c-0.1,0-0.1-0.1-0.1-0.1l0,0
					c0-0.1-0.1-0.1-0.1-0.2L184.6,155.9z M236.1,163.7c0,0,0-0.1,0-0.1l0,0c0-0.1,0-0.1,0.1-0.1l0,0c0,0,0.1-0.1,0.1-0.1l0,0
					c0.1,0,0.1-0.1,0.2-0.1l0,0c0.1-0.1,0.3-0.1,0.4-0.1l0,0c0.2,0,0.3,0,0.5,0L236.1,163.7z M185.4,246.9c0,0,0-0.1,0-0.1l0,0
					c0-0.1,0-0.1,0.1-0.1l0,0c0-0.1,0.1-0.1,0.1-0.1l0,0c0.1,0,0.1-0.1,0.2-0.1l0,0c0.1-0.1,0.3-0.1,0.4-0.1l0,0c0.2,0,0.3,0,0.5,0
					L185.4,246.9z M135.7,239c0,0,0-0.1,0-0.1l0,0c0-0.1,0-0.1,0.1-0.1l0,0c0,0,0.1-0.1,0.1-0.1l0,0c0.1,0,0.1-0.1,0.2-0.1l0,0
					c0.1-0.1,0.3-0.1,0.4-0.1l0,0c0.2,0,0.3,0,0.5,0L135.7,239z"/>
			</g>
			<g id="LINE_4901_">
				<line class="st27" x1="280.3" y1="123.1" x2="282.2" y2="123.4"/>
			</g>
			<g id="LINE_4900_">
				<line class="st27" x1="281.1" y1="126.8" x2="277.5" y2="126.2"/>
			</g>
			<g id="LINE_4899_">
				<line class="st27" x1="282.7" y1="123.3" x2="282.5" y2="123.3"/>
			</g>
			<g id="LINE_4898_">
				<line class="st27" x1="280.7" y1="115" x2="280.1" y2="115"/>
			</g>
			<g id="LINE_4897_">
				<line class="st27" x1="286.2" y1="124.1" x2="286.2" y2="124.1"/>
			</g>
			<g id="LINE_4896_">
				<line class="st27" x1="286.1" y1="123.9" x2="286.1" y2="124"/>
			</g>
			<g id="LINE_4895_">
				<line class="st27" x1="282.7" y1="123.3" x2="286" y2="123.9"/>
			</g>
			<g id="LINE_4894_">
				<line class="st27" x1="282.7" y1="123.3" x2="282.7" y2="123.3"/>
			</g>
			<g id="LINE_4893_">
				<line class="st27" x1="212" y1="251.3" x2="212" y2="250.8"/>
			</g>
			<g id="LINE_4892_">
				<line class="st27" x1="214" y1="270.4" x2="214.1" y2="271.4"/>
			</g>
			<g id="LINE_4891_">
				<line class="st27" x1="212.9" y1="252.2" x2="213" y2="253.7"/>
			</g>
			<g id="LINE_4890_">
				<line class="st27" x1="213.1" y1="255.1" x2="213.2" y2="255.9"/>
			</g>
			<g id="LINE_4889_">
				<line class="st27" x1="213.3" y1="257.4" x2="213.4" y2="258.2"/>
			</g>
			<g id="LINE_4888_">
				<line class="st27" x1="213.5" y1="259.7" x2="213.5" y2="260.8"/>
			</g>
			<g id="LINE_4887_">
				<line class="st27" x1="213.8" y1="264.6" x2="213.9" y2="265.7"/>
			</g>
			<g id="LINE_4886_">
				<line class="st27" x1="214" y1="267.2" x2="214.1" y2="268.9"/>
			</g>
			<g id="LINE_4885_">
				<line class="st27" x1="214.1" y1="267" x2="214" y2="265.9"/>
			</g>
			<g id="LINE_4884_">
				<line class="st27" x1="213.5" y1="259.5" x2="213.4" y2="258.4"/>
			</g>
			<g id="LINE_4883_">
				<line class="st27" x1="213.4" y1="257.2" x2="213.3" y2="256.1"/>
			</g>
			<g id="LINE_4882_">
				<line class="st27" x1="213.2" y1="254.9" x2="213.1" y2="253.8"/>
			</g>
			<g id="LINE_4881_">
				<line class="st27" x1="214" y1="264.2" x2="213.8" y2="261"/>
			</g>
			<g id="LINE_4880_">
				<line class="st27" x1="214.7" y1="269.3" x2="214.8" y2="270"/>
			</g>
			<g id="LINE_4879_">
				<line class="st27" x1="217.3" y1="273.6" x2="217.1" y2="271.9"/>
			</g>
			<g id="LINE_4878_">
				<line class="st27" x1="215.6" y1="249.6" x2="215.6" y2="250.7"/>
			</g>
			<g id="LINE_4877_">
				<line class="st27" x1="285.1" y1="130.7" x2="285.1" y2="130.7"/>
			</g>
			<g id="LINE_4876_">
				<line class="st27" x1="218.8" y1="275.5" x2="218.8" y2="274.9"/>
			</g>
			<g id="LINE_4875_">
				<line class="st27" x1="218.1" y1="249.1" x2="220" y2="275.7"/>
			</g>
			<g id="LINE_4874_">
				<line class="st27" x1="282.4" y1="140.2" x2="282.2" y2="140"/>
			</g>
			<g id="LINE_4873_">
				<line class="st27" x1="281.8" y1="131.5" x2="281.6" y2="131.4"/>
			</g>
			<g id="LINE_4872_">
				<line class="st27" x1="282.4" y1="140.2" x2="282.4" y2="140.2"/>
			</g>
			<g id="LINE_4871_">
				<line class="st27" x1="281.8" y1="131.5" x2="281.8" y2="131.5"/>
			</g>
			<g id="LINE_4870_">
				<line class="st27" x1="212.9" y1="252.2" x2="213" y2="252.1"/>
			</g>
			<g id="LINE_4869_">
				<line class="st27" x1="214.1" y1="270.2" x2="214" y2="270.4"/>
			</g>
			<g id="LINE_4868_">
				<line class="st27" x1="215.6" y1="249.5" x2="215.6" y2="249.6"/>
			</g>
			<g id="LINE_4867_">
				<line class="st27" x1="220" y1="275.7" x2="220" y2="275.9"/>
			</g>
			<g id="LINE_4866_">
				<line class="st27" x1="213.1" y1="247" x2="213" y2="247.3"/>
			</g>
			<g id="LINE_4865_">
				<line class="st27" x1="213.1" y1="255.1" x2="213.2" y2="255"/>
			</g>
			<g id="LINE_4864_">
				<line class="st27" x1="213.3" y1="257.4" x2="213.3" y2="257.2"/>
			</g>
			<g id="LINE_4863_">
				<line class="st27" x1="213.5" y1="259.7" x2="213.5" y2="259.5"/>
			</g>
			<g id="LINE_4862_">
				<line class="st27" x1="213.8" y1="264.6" x2="213.9" y2="264.5"/>
			</g>
			<g id="LINE_4861_">
				<line class="st27" x1="214" y1="267.2" x2="214" y2="267"/>
			</g>
			<g id="LINE_4860_">
				<line class="st27" x1="286.1" y1="124" x2="286.2" y2="124"/>
			</g>
			<g id="LINE_4859_">
				<line class="st27" x1="274.1" y1="126.1" x2="274.1" y2="126"/>
			</g>
			<g id="LINE_4858_">
				<line class="st27" x1="274.1" y1="126" x2="279.7" y2="115.3"/>
			</g>
			<g id="LINE_4857_">
				<line class="st27" x1="276" y1="126.7" x2="213.1" y2="247"/>
			</g>
			<g id="LINE_4856_">
				<line class="st27" x1="212.6" y1="249.7" x2="212" y2="250.7"/>
			</g>
			<g id="LINE_4855_">
				<line class="st27" x1="213" y1="252" x2="213.1" y2="251.9"/>
			</g>
			<g id="LINE_4854_">
				<line class="st27" x1="215" y1="250.2" x2="214.8" y2="250.5"/>
			</g>
			<g id="LINE_4853_">
				<line class="st27" x1="214.8" y1="250.5" x2="214.2" y2="251.6"/>
			</g>
			<g id="LINE_4852_">
				<line class="st27" x1="213.2" y1="255" x2="213.2" y2="254.9"/>
			</g>
			<g id="LINE_4851_">
				<line class="st27" x1="213.3" y1="257.2" x2="213.4" y2="257.2"/>
			</g>
			<g id="LINE_4850_">
				<line class="st27" x1="213.5" y1="259.5" x2="213.5" y2="259.5"/>
			</g>
			<g id="LINE_4849_">
				<line class="st27" x1="213.9" y1="264.5" x2="214" y2="264.2"/>
			</g>
			<g id="LINE_4848_">
				<line class="st27" x1="214" y1="267" x2="214.1" y2="267"/>
			</g>
			<g id="LINE_4847_">
				<line class="st27" x1="214.1" y1="271.4" x2="213.6" y2="272.5"/>
			</g>
			<g id="LINE_4846_">
				<line class="st27" x1="285.7" y1="130.1" x2="285.7" y2="130"/>
			</g>
			<g id="LINE_4845_">
				<line class="st27" x1="274.1" y1="126.1" x2="274.3" y2="129.9"/>
			</g>
			<g id="LINE_4844_">
				<line class="st27" x1="281.8" y1="127.4" x2="281.8" y2="127.6"/>
			</g>
			<g id="LINE_4843_">
				<line class="st27" x1="283.3" y1="148.7" x2="282.9" y2="143.2"/>
			</g>
			<g id="LINE_4842_">
				<line class="st27" x1="282.9" y1="143.2" x2="282.7" y2="140.7"/>
			</g>
			<g id="LINE_4841_">
				<line class="st27" x1="282.5" y1="138.5" x2="282.1" y2="132"/>
			</g>
			<g id="LINE_4840_">
				<line class="st27" x1="281.9" y1="129.8" x2="281.8" y2="127.6"/>
			</g>
			<g id="LINE_4839_">
				<line class="st27" x1="280.9" y1="115.8" x2="281.1" y2="118.2"/>
			</g>
			<g id="LINE_4838_">
				<line class="st27" x1="281.5" y1="123.3" x2="281.1" y2="118.2"/>
			</g>
			<g id="LINE_4837_">
				<line class="st27" x1="281.6" y1="131.4" x2="281.6" y2="131.3"/>
			</g>
			<g id="LINE_4836_">
				<line class="st27" x1="282.2" y1="140" x2="282.2" y2="140"/>
			</g>
			<g id="LINE_4835_">
				<line class="st27" x1="281.9" y1="130.1" x2="281.6" y2="131.3"/>
			</g>
			<g id="LINE_4834_">
				<line class="st27" x1="282.5" y1="138.8" x2="282.2" y2="140"/>
			</g>
			<g id="LINE_4833_">
				<line class="st27" x1="216.3" y1="271.8" x2="215.7" y2="272.8"/>
			</g>
			<g id="LINE_4832_">
				<line class="st27" x1="220" y1="275.7" x2="281.5" y2="158"/>
			</g>
			<g id="LINE_4831_">
				<line class="st27" x1="214.1" y1="251.7" x2="213.6" y2="251.9"/>
			</g>
			<g id="LINE_4830_">
				<line class="st27" x1="286.5" y1="124.8" x2="286.5" y2="124.8"/>
			</g>
			<g id="LINE_4829_">
				<line class="st27" x1="215.2" y1="273.1" x2="215.6" y2="272.9"/>
			</g>
			<g id="ARC_738_">
				<path class="st27" d="M219.9,275.9C219.9,275.9,219.9,275.9,219.9,275.9"/>
			</g>
			<g id="ARC_737_">
				<path class="st27" d="M213,252C213,252.1,213,252.1,213,252"/>
			</g>
			<g id="ARC_736_">
				<line class="st27" x1="213" y1="252.1" x2="213" y2="252.1"/>
			</g>
			<g id="ARC_735_">
				<path class="st27" d="M282.5,138.7c0,0,0-0.1,0-0.2"/>
			</g>
			<g id="ARC_734_">
				<path class="st27" d="M282.5,138.8C282.5,138.8,282.5,138.7,282.5,138.8"/>
			</g>
			<g id="ARC_503_">
				<path class="st27" d="M285.8,129.8C285.8,129.7,285.8,129.7,285.8,129.8"/>
			</g>
			<g id="ARC_502_">
				<path class="st27" d="M285.8,129.9c0,0,0-0.1,0.1-0.1"/>
			</g>
			<g id="ARC_501_">
				<path class="st27" d="M285.7,130C285.7,129.9,285.7,129.9,285.7,130"/>
			</g>
			<g id="ARC_500_">
				<path class="st27" d="M285.7,130C285.7,130,285.7,130,285.7,130"/>
			</g>
			<g id="ARC_499_">
				<line class="st27" x1="286.5" y1="124.9" x2="286.5" y2="124.9"/>
			</g>
			<g id="ARC_498_">
				<line class="st27" x1="286.5" y1="124.8" x2="286.5" y2="124.8"/>
			</g>
			<g id="ARC_497_">
				<line class="st27" x1="285.7" y1="130" x2="285.7" y2="130"/>
			</g>
			<g id="ARC_496_">
				<line class="st27" x1="285.7" y1="130" x2="285.7" y2="130"/>
			</g>
			<g id="ARC_495_">
				<path class="st27" d="M281.6,127C281.5,127,281.5,127,281.6,127"/>
			</g>
			<g id="ARC_494_">
				<path class="st27" d="M281.9,130c0,0,0-0.1,0-0.2"/>
			</g>
			<g id="ARC_493_">
				<path class="st27" d="M281.9,130.1C281.9,130.1,281.9,130,281.9,130.1"/>
			</g>
			<g id="ARC_492_">
				<path class="st27" d="M281.8,127.4C281.8,127.4,281.8,127.4,281.8,127.4"/>
			</g>
			<g id="ARC_491_">
				<line class="st27" x1="279.1" y1="124.3" x2="279" y2="124.3"/>
			</g>
			<g id="ARC_490_">
				<line class="st27" x1="279" y1="124.3" x2="279" y2="124.3"/>
			</g>
			<g id="ARC_489_">
				<path class="st27" d="M284.9,130.8C284.9,130.8,284.9,130.8,284.9,130.8"/>
			</g>
			<g id="ARC_488_">
				<line class="st27" x1="285.4" y1="130.5" x2="285.4" y2="130.5"/>
			</g>
			<g id="ARC_487_">
				<line class="st27" x1="285.4" y1="130.5" x2="285.4" y2="130.5"/>
			</g>
			<g id="ARC_486_">
				<path class="st27" d="M285.4,130.5C285.4,130.5,285.4,130.4,285.4,130.5"/>
			</g>
			<g id="ARC_485_">
				<path class="st27" d="M285.3,130.6C285.3,130.6,285.3,130.6,285.3,130.6"/>
			</g>
			<g id="ARC_484_">
				<line class="st27" x1="285.3" y1="130.6" x2="285.3" y2="130.6"/>
			</g>
			<g id="ARC_483_">
				<path class="st27" d="M285.2,130.6C285.2,130.6,285.2,130.6,285.2,130.6"/>
			</g>
			<g id="ARC_482_">
				<path class="st27" d="M285.6,130.2C285.5,130.3,285.5,130.3,285.6,130.2"/>
			</g>
			<g id="ARC_481_">
				<line class="st27" x1="285.5" y1="130.3" x2="285.5" y2="130.3"/>
			</g>
			<g id="ARC_480_">
				<path class="st27" d="M285.5,130.3C285.5,130.3,285.5,130.3,285.5,130.3"/>
			</g>
			<g id="ARC_479_">
				<path class="st27" d="M286.5,124.9C286.5,124.8,286.5,124.8,286.5,124.9"/>
			</g>
			<g id="ARC_478_">
				<line class="st27" x1="286.4" y1="124.6" x2="286.4" y2="124.6"/>
			</g>
			<g id="ARC_477_">
				<path class="st27" d="M286.5,124.6C286.5,124.6,286.5,124.6,286.5,124.6"/>
			</g>
			<g id="ARC_476_">
				<path class="st27" d="M286.4,124.4C286.4,124.4,286.4,124.3,286.4,124.4"/>
			</g>
			<g id="ARC_475_">
				<path class="st27" d="M286.3,124.2C286.3,124.2,286.3,124.2,286.3,124.2"/>
			</g>
			<g id="ARC_474_">
				<path class="st27" d="M286.3,124.2C286.3,124.2,286.3,124.2,286.3,124.2"/>
			</g>
			<g id="ARC_473_">
				<path class="st27" d="M286.3,124.2C286.3,124.2,286.3,124.1,286.3,124.2"/>
			</g>
			<g id="ARC_472_">
				<path class="st27" d="M286.4,124.6C286.4,124.5,286.4,124.5,286.4,124.6"/>
			</g>
			<g id="ARC_471_">
				<line class="st27" x1="286.1" y1="124" x2="286.1" y2="124"/>
			</g>
			<g id="ARC_470_">
				<path class="st27" d="M286,123.9C286,123.9,286,123.9,286,123.9"/>
			</g>
			<g id="ARC_469_">
				<line class="st27" x1="286.4" y1="124.3" x2="286.4" y2="124.3"/>
			</g>
			<g id="ARC_468_">
				<path class="st27" d="M281.6,124.7c0,0.1-0.1,0.2-0.1,0.3"/>
			</g>
			<g id="ARC_467_">
				<path class="st27" d="M281.8,124.3c0,0.1-0.1,0.2-0.1,0.3"/>
			</g>
			<g id="ARC_466_">
				<path class="st27" d="M281.1,126.5c0,0.1,0,0.2-0.1,0.3"/>
			</g>
			<g id="ARC_465_">
				<path class="st27" d="M281.2,126c0,0.1-0.1,0.2-0.1,0.3"/>
			</g>
			<g id="ARC_464_">
				<path class="st27" d="M281.4,125.5c0,0.1-0.1,0.2-0.1,0.3"/>
			</g>
			<g id="ARC_463_">
				<path class="st27" d="M281.5,125.1c0,0.1-0.1,0.2-0.1,0.3"/>
			</g>
			<g id="SPLINE_2136_">
				<path class="st27" d="M286.5,124.9c0,0.2,0,0.3,0.1,0.5l0,0c0,0.2,0,0.4,0,0.6l0,0c0,0.2,0,0.4,0,0.6l0,0c0,0.2,0,0.4-0.1,0.7
					l0,0c0,0.2-0.1,0.5-0.1,0.7l0,0c0,0.2-0.1,0.4-0.2,0.6l0,0c-0.1,0.2-0.1,0.4-0.2,0.6l0,0c-0.1,0.2-0.1,0.4-0.2,0.5"/>
			</g>
			<g id="SPLINE_2135_">
				<path class="st27" d="M286.5,124.6C286.5,124.6,286.5,124.6,286.5,124.6L286.5,124.6c0,0.1,0,0.2,0.1,0.2"/>
			</g>
			<g id="LINE_4828_">
				<line class="st27" x1="286.4" y1="124.4" x2="286.4" y2="124.5"/>
			</g>
			<g id="SPLINE_2134_">
				<line class="st27" x1="286.3" y1="124.2" x2="286.3" y2="124.2"/>
			</g>
			<g id="SPLINE_2133_">
				<path class="st27" d="M285.1,130.7C285.1,130.7,285.1,130.7,285.1,130.7L285.1,130.7C285.1,130.7,285.1,130.7,285.1,130.7"/>
			</g>
			<g id="SPLINE_2132_">
				<path class="st27" d="M285.2,130.6C285.2,130.6,285.2,130.6,285.2,130.6L285.2,130.6C285.2,130.6,285.2,130.6,285.2,130.6"/>
			</g>
			<g id="SPLINE_2131_">
				<path class="st27" d="M285.3,130.5C285.3,130.5,285.3,130.5,285.3,130.5L285.3,130.5C285.3,130.5,285.3,130.5,285.3,130.5"/>
			</g>
			<g id="LINE_4827_">
				<line class="st27" x1="285.4" y1="130.5" x2="285.4" y2="130.5"/>
			</g>
			<g id="LINE_4826_">
				<line class="st27" x1="285.5" y1="130.3" x2="285.4" y2="130.4"/>
			</g>
			<g id="SPLINE_2130_">
				<path class="st27" d="M285.7,130.1C285.7,130.1,285.6,130.1,285.7,130.1L285.7,130.1c-0.1,0.1-0.1,0.1-0.1,0.2"/>
			</g>
			<g id="SPLINE_2129_">
				<path class="st27" d="M282.2,123.4C282.2,123.4,282.2,123.3,282.2,123.4L282.2,123.4c0.1-0.1,0.1-0.1,0.2-0.1l0,0
					c0,0,0.1,0,0.1,0l0,0c0,0,0.1,0,0.1,0"/>
			</g>
			<g id="LINE_4825_">
				<line class="st27" x1="286.1" y1="123.9" x2="286" y2="123.9"/>
			</g>
			<g id="SPLINE_2128_">
				<path class="st27" d="M286.2,124.1C286.2,124.1,286.2,124.1,286.2,124.1L286.2,124.1C286.2,124,286.2,124,286.2,124.1"/>
			</g>
			<g id="LINE_4824_">
				<line class="st27" x1="284.9" y1="130.8" x2="285.1" y2="130.7"/>
			</g>
			<g id="SPLINE_2127_">
				<path class="st27" d="M286.2,124.1C286.2,124.1,286.2,124.1,286.2,124.1L286.2,124.1C286.2,124.1,286.2,124.1,286.2,124.1"/>
			</g>
			<g id="SPLINE_2126_">
				<path class="st27" d="M286.4,124.3C286.4,124.3,286.3,124.3,286.4,124.3L286.4,124.3C286.3,124.3,286.3,124.2,286.4,124.3"/>
			</g>
			<g id="LINE_4823_">
				<line class="st27" x1="286.4" y1="124.3" x2="286.4" y2="124.3"/>
			</g>
			<g id="LINE_4822_">
				<line class="st27" x1="285.7" y1="130" x2="285.7" y2="130"/>
			</g>
			<g id="LINE_4821_">
				<line class="st27" x1="285.7" y1="130" x2="285.7" y2="130"/>
			</g>
			<g id="LINE_4820_">
				<line class="st27" x1="286.5" y1="124.9" x2="286.5" y2="124.9"/>
			</g>
			<g id="SPLINE_2125_">
				<path class="st27" d="M279.5,123.8c0.1-0.1,0.1-0.2,0.2-0.3l0,0c0,0,0.1-0.1,0.1-0.1l0,0c0,0,0.1-0.1,0.1-0.1l0,0
					c0,0,0.1-0.1,0.1-0.1l0,0c0,0,0.1,0,0.1,0l0,0c0,0,0.1,0,0.1,0l0,0c0,0,0.1,0,0.1,0"/>
			</g>
			<g id="SPLINE_2124_">
				<path class="st27" d="M279.5,123.8c0,0.1-0.1,0.2-0.1,0.3l0,0c0,0.1-0.1,0.2-0.1,0.3l0,0c-0.1,0.2-0.2,0.4-0.2,0.6l0,0
					c-0.1,0.2-0.1,0.5-0.2,0.7l0,0c-0.1,0.2-0.1,0.5-0.1,0.8"/>
			</g>
			<g id="SPLINE_2123_">
				<path class="st27" d="M282.4,123.3C282.4,123.3,282.5,123.3,282.4,123.3L282.4,123.3C282.5,123.3,282.5,123.3,282.4,123.3"/>
			</g>
			<g id="SPLINE_2122_">
				<path class="st27" d="M281.8,124.2C281.8,124.2,281.8,124.2,281.8,124.2L281.8,124.2c0.1-0.1,0.1-0.2,0.1-0.2"/>
			</g>
			<g id="LINE_4819_">
				<line class="st27" x1="281.8" y1="124.3" x2="281.8" y2="124.2"/>
			</g>
			<g id="LINE_4818_">
				<line class="st27" x1="281.6" y1="124.7" x2="281.7" y2="124.5"/>
			</g>
			<g id="LINE_4817_">
				<line class="st27" x1="281.5" y1="125.1" x2="281.5" y2="124.9"/>
			</g>
			<g id="LINE_4816_">
				<line class="st27" x1="281.4" y1="125.5" x2="281.4" y2="125.4"/>
			</g>
			<g id="LINE_4815_">
				<line class="st27" x1="281.2" y1="126" x2="281.3" y2="125.8"/>
			</g>
			<g id="LINE_4814_">
				<line class="st27" x1="281.1" y1="126.5" x2="281.2" y2="126.3"/>
			</g>
			<g id="LINE_4813_">
				<line class="st27" x1="281.9" y1="124" x2="282" y2="123.9"/>
			</g>
			<g id="SPLINE_2121_">
				<path class="st27" d="M282,123.9C282,123.9,282,123.9,282,123.9L282,123.9c0.1-0.1,0.1-0.1,0.1-0.2"/>
			</g>
			<g id="LINE_4812_">
				<line class="st27" x1="282.1" y1="123.7" x2="282.1" y2="123.6"/>
			</g>
			<g id="SPLINE_2120_">
				<path class="st27" d="M282.1,123.6C282.1,123.6,282.1,123.6,282.1,123.6L282.1,123.6c0.1-0.1,0.1-0.1,0.1-0.1"/>
			</g>
			<g id="LINE_4811_">
				<line class="st27" x1="282.2" y1="123.5" x2="282.3" y2="123.5"/>
			</g>
			<g id="SPLINE_2119_">
				<path class="st27" d="M282.3,123.5C282.3,123.5,282.3,123.4,282.3,123.5L282.3,123.5c0.1,0,0.1-0.1,0.1-0.1"/>
			</g>
			<g id="LINE_4810_">
				<line class="st27" x1="282.4" y1="123.4" x2="282.4" y2="123.3"/>
			</g>
			<g id="SPLINE_2118_">
				<path class="st27" d="M282.4,123.3C282.4,123.3,282.4,123.3,282.4,123.3L282.4,123.3c0,0,0.1,0,0.1,0"/>
			</g>
			<g id="LINE_4809_">
				<line class="st27" x1="282.5" y1="123.3" x2="282.6" y2="123.3"/>
			</g>
			<g id="SPLINE_2117_">
				<path class="st27" d="M282.6,123.3C282.6,123.3,282.6,123.3,282.6,123.3L282.6,123.3C282.6,123.3,282.6,123.3,282.6,123.3"/>
			</g>
			<g id="SPLINE_2116_">
				<path class="st27" d="M279.7,115.3C279.7,115.3,279.7,115.3,279.7,115.3L279.7,115.3c0.1-0.1,0.1-0.2,0.1-0.2"/>
			</g>
			<g id="SPLINE_2115_">
				<path class="st27" d="M279.8,115.1C279.8,115.1,279.9,115.1,279.8,115.1L279.8,115.1c0.1-0.1,0.2-0.2,0.3-0.1"/>
			</g>
			<g id="SPLINE_2114_">
				<path class="st27" d="M212,250.7C212,250.8,212,250.8,212,250.7"/>
			</g>
			<g id="SPLINE_2113_">
				<path class="st27" d="M215,250.2C215,250.1,214.9,250.1,215,250.2L215,250.2c0-0.1,0-0.1,0-0.2l0,0c0,0,0-0.1-0.1-0.1"/>
			</g>
			<g id="SPLINE_2112_">
				<path class="st27" d="M212.7,249.6C212.7,249.6,212.7,249.6,212.7,249.6L212.7,249.6c-0.1,0.1-0.1,0.1-0.1,0.1"/>
			</g>
			<g id="SPLINE_2111_">
				<path class="st27" d="M277.5,126.2c-0.2,0-0.3,0-0.5,0l0,0c-0.2,0-0.3,0-0.5,0.1l0,0c-0.2,0.1-0.5,0.2-0.6,0.5"/>
			</g>
			<g id="SPLINE_2110_">
				<path class="st27" d="M217.3,273.6c0,0.1,0,0.1,0.1,0.2l0,0c0.1,0.1,0.1,0.1,0.2,0.1"/>
			</g>
			<g id="SPLINE_2109_">
				<path class="st27" d="M213.1,253.8C213.1,253.8,213.1,253.8,213.1,253.8L213.1,253.8c-0.1-0.1-0.1-0.1-0.1-0.2"/>
			</g>
			<g id="SPLINE_2108_">
				<path class="st27" d="M213.3,256.1C213.3,256.1,213.3,256.1,213.3,256.1L213.3,256.1c-0.1-0.1-0.1-0.1-0.1-0.2"/>
			</g>
			<g id="SPLINE_2107_">
				<path class="st27" d="M213.4,258.4C213.4,258.4,213.4,258.4,213.4,258.4L213.4,258.4c-0.1-0.1-0.1-0.1-0.1-0.2"/>
			</g>
			<g id="SPLINE_2106_">
				<path class="st27" d="M213.8,261C213.7,261,213.7,261,213.8,261L213.8,261c-0.1-0.1-0.2-0.1-0.2-0.2l0,0c0,0,0-0.1,0-0.1"/>
			</g>
			<g id="SPLINE_2105_">
				<path class="st27" d="M214,265.9C214,265.9,214,265.9,214,265.9L214,265.9c-0.1-0.1-0.1-0.1-0.1-0.2"/>
			</g>
			<g id="SPLINE_2104_">
				<path class="st27" d="M214.6,269.3C214.6,269.3,214.5,269.3,214.6,269.3L214.6,269.3c-0.1,0-0.2,0-0.2-0.1"/>
			</g>
			<g id="SPLINE_2103_">
				<path class="st27" d="M214.4,269.2c-0.1,0-0.1-0.1-0.2-0.1l0,0c0,0-0.1-0.1-0.1-0.2"/>
			</g>
			<g id="SPLINE_2102_">
				<path class="st27" d="M282.7,140.7c0-0.1,0-0.2-0.1-0.2"/>
			</g>
			<g id="SPLINE_2101_">
				<path class="st27" d="M282.6,140.5c-0.1-0.1-0.1-0.2-0.2-0.3"/>
			</g>
			<g id="SPLINE_2100_">
				<path class="st27" d="M218.8,274.9c0-0.1,0-0.1,0-0.2l0,0c0-0.2,0-0.4,0.1-0.6"/>
			</g>
			<g id="SPLINE_2099_">
				<path class="st27" d="M282.1,132c0-0.1,0-0.2-0.1-0.2"/>
			</g>
			<g id="SPLINE_2098_">
				<path class="st27" d="M282,131.8c-0.1-0.1-0.1-0.2-0.2-0.3"/>
			</g>
			<g id="SPLINE_2097_">
				<path class="st27" d="M281.7,127.4C281.7,127.4,281.7,127.3,281.7,127.4L281.7,127.4c0-0.1-0.1-0.2-0.1-0.3"/>
			</g>
			<g id="SPLINE_2096_">
				<path class="st27" d="M281.6,127.1c0,0-0.1-0.1-0.1-0.1"/>
			</g>
			<g id="SPLINE_2095_">
				<path class="st27" d="M281.5,126.9c-0.1-0.1-0.2-0.1-0.3-0.1l0,0c0,0-0.1,0-0.1,0"/>
			</g>
			<g id="SPLINE_2094_">
				<path class="st27" d="M214.2,251.6C214.2,251.6,214.2,251.6,214.2,251.6L214.2,251.6c0,0.1-0.1,0.1-0.1,0.1"/>
			</g>
			<g id="SPLINE_2093_">
				<path class="st27" d="M212.1,251.3C212.1,251.3,212,251.3,212.1,251.3"/>
			</g>
			<g id="SPLINE_2092_">
				<path class="st27" d="M212.4,251.8C212.4,251.7,212.4,251.7,212.4,251.8L212.4,251.8c-0.1,0-0.2-0.1-0.2-0.1"/>
			</g>
			<g id="SPLINE_1423_">
				<path class="st27" d="M213.6,251.9C213.6,251.9,213.6,251.9,213.6,251.9L213.6,251.9c-0.1,0-0.2,0-0.3,0"/>
			</g>
			<g id="SPLINE_1422_">
				<path class="st27" d="M213.6,272.5C213.6,272.5,213.6,272.5,213.6,272.5"/>
			</g>
			<g id="LINE_4808_">
				<line class="st27" x1="279" y1="124.3" x2="279" y2="124.3"/>
			</g>
			<g id="SPLINE_1421_">
				<path class="st27" d="M279,124.3C279,124.3,279,124.3,279,124.3L279,124.3c-0.1,0-0.1,0-0.1,0"/>
			</g>
			<g id="LINE_4807_">
				<line class="st27" x1="278.9" y1="124.4" x2="278.8" y2="124.4"/>
			</g>
			<g id="SPLINE_1420_">
				<path class="st27" d="M278.8,124.4C278.8,124.4,278.8,124.4,278.8,124.4L278.8,124.4c-0.1,0.1-0.2,0.2-0.2,0.3"/>
			</g>
			<g id="SPLINE_1419_">
				<path class="st27" d="M219.9,275.9c0,0-0.1,0.1-0.1,0.1l0,0c0,0-0.1,0-0.2,0.1l0,0c-0.1,0-0.3,0-0.4,0l0,0
					c-0.1,0-0.2-0.1-0.3-0.2l0,0c-0.1-0.1-0.1-0.2-0.1-0.3"/>
			</g>
			<g id="SPLINE_1418_">
				<path class="st27" d="M278.6,124.7c-0.1,0.2-0.2,0.5-0.3,0.7l0,0c-0.1,0.3-0.1,0.6-0.2,0.9"/>
			</g>
			<g id="SPLINE_1417_">
				<path class="st27" d="M280.9,115.8c0-0.1,0-0.2,0-0.3l0,0c0-0.1,0-0.1-0.1-0.2l0,0c0-0.1-0.1-0.2-0.2-0.2"/>
			</g>
			<g id="SPLINE_1416_">
				<path class="st27" d="M281.5,158c0.2-0.3,0.3-0.6,0.4-0.9l0,0c0.1-0.3,0.3-0.7,0.4-1.1l0,0c0.3-0.8,0.5-1.6,0.6-2.5l0,0
					c0.2-0.9,0.3-1.7,0.3-2.6l0,0c0.1-0.8,0.1-1.6,0-2.3"/>
			</g>
			<g id="SPLINE_1415_">
				<path class="st27" d="M218.1,249.3c-0.1,0.1-0.2,0.2-0.3,0.2l0,0c-0.2,0.1-0.3,0.1-0.5,0"/>
			</g>
			<g id="SPLINE_1414_">
				<path class="st27" d="M218.1,249.1c0-0.1-0.1-0.2-0.1-0.3l0,0c-0.1-0.1-0.2-0.2-0.3-0.2"/>
			</g>
			<g id="SPLINE_1413_">
				<path class="st27" d="M217.6,248.6c-0.1,0-0.1,0-0.2-0.1"/>
			</g>
			<g id="SPLINE_1412_">
				<path class="st27" d="M213,247.3c0,0.1,0.1,0.2,0.1,0.3l0,0c0.1,0.1,0.2,0.2,0.3,0.2"/>
			</g>
			<g id="SPLINE_1411_">
				<path class="st27" d="M213.5,247.8C213.5,247.8,213.5,247.8,213.5,247.8L213.5,247.8c0.2,0.1,0.3,0.1,0.4,0.1"/>
			</g>
			<g id="SPLINE_1410_">
				<path class="st27" d="M213.8,272.9C213.8,272.9,213.8,272.9,213.8,272.9L213.8,272.9c0,0.1,0.1,0.1,0.1,0.1"/>
			</g>
			<g id="SPLINE_1409_">
				<path class="st27" d="M213.9,273C213.9,273,213.9,273,213.9,273"/>
			</g>
			<g id="SPLINE_1408_">
				<path class="st27" d="M215.6,272.9C215.6,272.9,215.6,272.9,215.6,272.9L215.6,272.9c0.1,0,0.1-0.1,0.1-0.1"/>
			</g>
			<g id="SPLINE_1407_">
				<path class="st27" d="M214.9,273.2c0.1,0,0.1,0,0.2,0l0,0c0,0,0,0,0.1,0"/>
			</g>
			<g id="LINE_4806_">
				<line class="st27" x1="279.3" y1="124.4" x2="279.1" y2="124.3"/>
			</g>
			<g id="SPLINE_1406_">
				<path class="st27" d="M215.8,249.4c0,0-0.1,0-0.2,0l0,0c0,0-0.1,0-0.1,0.1"/>
			</g>
			<g id="SPLINE_1405_">
				<path class="st27" d="M214.6,270C214.6,270,214.5,270,214.6,270L214.6,270c-0.1,0-0.2,0-0.2,0"/>
			</g>
			<g id="SPLINE_1404_">
				<path class="st27" d="M214.3,270c-0.1,0-0.1,0-0.2,0.1l0,0c0,0-0.1,0.1-0.1,0.1"/>
			</g>
			<g id="SPLINE_1403_">
				<path class="st27" d="M213.6,272.6C213.6,272.6,213.6,272.6,213.6,272.6"/>
			</g>
			<g>
				<g id="LWPOLYLINE_203_">
					<g id="XMLID_50_">
						<g>
							<path class="st29" d="M241,162.3l-46.5,88.9l-62.2-10l2.9-5.5l4.7,0.7l3.5-6.7l-4.7-0.8l1.5-2.9l3.8,0.6c0.1,0,0.2,0,0.4,0
								c0.1,0,0.2,0,0.3,0c0.2,0,0.4-0.1,0.5-0.2l0.3-0.6c0-0.1-0.1-0.1-0.1-0.2c0-0.1-0.1-0.1-0.2-0.2s-0.1-0.1-0.2-0.1
								c-0.1,0-0.2-0.1-0.3-0.1l-6.2-1l2-3.7l0.4-0.2l0.5-0.1l3.5,0.6c0,0,0.1,0,0.2,0c0,0,0.1,0,0.1,0c0.1,0,0.2,0,0.3-0.1
								c0,0,0.1,0,0.1-0.1c0,0,0,0,0.1-0.1c0-0.1,0.1-0.1,0.1-0.2c0,0,0-0.1,0-0.1c0,0,0-0.1-0.1-0.1c0,0-0.1-0.1-0.1-0.1
								c0,0-0.1,0-0.2,0l-4.2-0.6l7.2-13.7l0.4-0.2l0.5-0.1l6.5,1l13.4-25.6l14.5-27.8L241,162.3z M238.1,163.6c0-0.1,0-0.1,0-0.2
								c0-0.1-0.1-0.1-0.2-0.1s-0.1-0.1-0.2-0.1c-0.1,0-0.2-0.1-0.3-0.1c-0.1,0-0.2,0-0.3,0c-0.1,0-0.1,0-0.2,0
								c-0.2,0-0.3,0.1-0.4,0.1c-0.1,0-0.1,0.1-0.2,0.1s-0.1,0.1-0.1,0.1c0,0-0.1,0.1-0.1,0.1c0,0,0,0.1,0,0.2c0,0.1,0,0.1,0,0.2
								c0,0.1,0.1,0.1,0.1,0.1c0.1,0.1,0.1,0.1,0.2,0.1c0.1,0,0.2,0.1,0.3,0.1c0.1,0,0.2,0,0.3,0c0.1,0,0.1,0,0.2,0
								c0.2,0,0.3-0.1,0.4-0.1c0,0,0.1-0.1,0.1-0.1c0.1,0,0.1-0.1,0.1-0.1c0,0,0.1-0.1,0.1-0.1C238.1,163.7,238.1,163.6,238.1,163.6
								z M185.9,155.2c0-0.1,0-0.1-0.1-0.2c0-0.1-0.1-0.1-0.1-0.1c-0.1-0.1-0.1-0.1-0.2-0.1c-0.1,0-0.2-0.1-0.3-0.1
								c-0.1,0-0.2,0-0.3,0c-0.1,0-0.1,0-0.2,0c-0.2,0-0.3,0.1-0.4,0.1c-0.1,0-0.1,0.1-0.2,0.1c0,0-0.1,0.1-0.1,0.1
								c0,0-0.1,0.1-0.1,0.1c0,0,0,0.1,0,0.2c0,0.1,0,0.1,0.1,0.2c0,0.1,0.1,0.1,0.1,0.1c0.1,0,0.1,0.1,0.2,0.1c0.1,0,0.2,0,0.2,0.1
								s0.2,0,0.3,0c0.1,0,0.1,0,0.2,0c0.2,0,0.3-0.1,0.4-0.1c0,0,0.1,0,0.2-0.1c0.1,0,0.1-0.1,0.1-0.1c0,0,0.1-0.1,0.1-0.1
								C185.9,155.3,185.9,155.3,185.9,155.2z M187.4,246.8c0-0.1,0-0.1-0.1-0.2c0,0-0.1-0.1-0.1-0.1c-0.1,0-0.1-0.1-0.2-0.1
								c-0.1,0-0.2-0.1-0.3-0.1c-0.2,0-0.3,0-0.5,0c-0.2,0-0.3,0.1-0.4,0.1c-0.1,0-0.1,0.1-0.2,0.1c0,0-0.1,0.1-0.1,0.1
								c0,0-0.1,0.1-0.1,0.2c0,0,0,0.1,0,0.1c0,0.1,0,0.1,0,0.2c0,0.1,0.1,0.1,0.1,0.2c0.1,0,0.1,0.1,0.2,0.1c0.1,0,0.2,0.1,0.2,0.1
								c0.2,0,0.3,0,0.5,0c0.2,0,0.3-0.1,0.4-0.1c0.1,0,0.1-0.1,0.2-0.1c0.1,0,0.1-0.1,0.1-0.1c0,0,0.1-0.1,0.1-0.2
								C187.4,246.9,187.4,246.9,187.4,246.8z M137.6,238.8c0-0.1,0-0.1,0-0.2c0-0.1-0.1-0.1-0.1-0.1c-0.1-0.1-0.1-0.1-0.2-0.1
								c-0.1,0-0.2-0.1-0.3-0.1c-0.1,0-0.2,0-0.3,0c-0.1,0-0.1,0-0.2,0c-0.2,0-0.3,0.1-0.4,0.1c-0.1,0-0.1,0.1-0.2,0.1
								c0,0-0.1,0.1-0.1,0.1c0,0,0,0.1-0.1,0.1c0,0,0,0.1,0,0.2c0,0.1,0,0.1,0,0.2c0,0.1,0.1,0.1,0.2,0.1c0,0,0.1,0.1,0.2,0.1
								c0.1,0,0.2,0.1,0.3,0.1c0.1,0,0.2,0,0.3,0c0.1,0,0.1,0,0.2,0c0.2,0,0.3-0.1,0.4-0.1c0.1,0,0.1-0.1,0.2-0.1
								c0,0,0.1-0.1,0.1-0.1c0,0,0-0.1,0.1-0.1C137.6,238.9,137.6,238.9,137.6,238.8z"/>
						</g>
						<g>
							<polyline class="st27" points="144.9,220.8 141.4,220.2 140.9,220.3 140.5,220.5 138.6,224.2 144.8,225.2 							"/>
							<path class="st27" d="M184.6,155.9c-0.1,0-0.2,0-0.2-0.1c-0.1,0-0.2-0.1-0.2-0.1c0,0-0.1-0.1-0.1-0.1c0-0.1,0-0.1-0.1-0.2"/>
							<path class="st27" d="M236.8,164.2c-0.1,0-0.2,0-0.3-0.1c-0.1,0-0.2-0.1-0.2-0.1c0,0-0.1-0.1-0.1-0.1c0,0,0-0.1,0-0.2"/>
							<path class="st27" d="M238.1,163.6c0,0,0,0.1,0,0.2c0,0,0,0.1-0.1,0.1c0,0-0.1,0.1-0.1,0.1c0,0-0.1,0.1-0.1,0.1
								c-0.2,0.1-0.3,0.1-0.4,0.1c-0.1,0-0.1,0-0.2,0c-0.1,0-0.2,0-0.3,0"/>
							<path class="st27" d="M185.9,155.2c0,0,0,0.1,0,0.2c0,0,0,0.1-0.1,0.1c0,0-0.1,0.1-0.1,0.1c0,0-0.1,0.1-0.2,0.1
								c-0.2,0.1-0.3,0.1-0.4,0.1c-0.1,0-0.1,0-0.2,0c-0.1,0-0.2,0-0.3,0"/>
							<path class="st27" d="M145.7,220.4c0,0.1,0,0.1-0.1,0.2c0,0,0,0-0.1,0.1c0,0-0.1,0-0.1,0.1c-0.1,0-0.2,0.1-0.3,0.1
								c0,0-0.1,0-0.1,0c-0.1,0-0.1,0-0.2,0"/>
							<path class="st27" d="M145.2,226.3c-0.1,0.1-0.3,0.2-0.5,0.2c-0.1,0-0.2,0-0.3,0c-0.1,0-0.2,0-0.4,0"/>
							<path class="st27" d="M144.8,225.2c0.1,0,0.2,0,0.3,0.1c0.1,0,0.2,0.1,0.2,0.1s0.1,0.1,0.2,0.2c0,0,0.1,0.1,0.1,0.2"/>
							<path class="st27" d="M145.3,220.1c0,0,0.1,0,0.2,0c0,0,0.1,0,0.1,0.1c0,0,0,0,0.1,0.1c0,0,0,0.1,0,0.1"/>
							<path class="st27" d="M236.1,163.7c0,0,0-0.1,0-0.2c0,0,0-0.1,0.1-0.1c0,0,0.1-0.1,0.1-0.1s0.1-0.1,0.2-0.1
								c0.1,0,0.3-0.1,0.4-0.1c0.1,0,0.1,0,0.2,0c0.1,0,0.2,0,0.3,0"/>
							<path class="st27" d="M185.2,154.7c0.1,0,0.2,0,0.3,0.1c0.1,0,0.1,0.1,0.2,0.1c0.1,0,0.1,0.1,0.1,0.1c0,0,0.1,0.1,0.1,0.2"/>
							<path class="st27" d="M237.4,163.1c0.1,0,0.2,0,0.3,0.1c0.1,0,0.1,0.1,0.2,0.1s0.1,0.1,0.2,0.1c0,0.1,0,0.1,0,0.2"/>
							<path class="st27" d="M183.9,155.4c0,0,0-0.1,0-0.2c0,0,0-0.1,0.1-0.1c0,0,0.1-0.1,0.1-0.1c0,0,0.1-0.1,0.2-0.1
								c0.1-0.1,0.3-0.1,0.4-0.1c0.1,0,0.1,0,0.2,0c0.1,0,0.2,0,0.3,0"/>
							<path class="st27" d="M136.4,239.5c-0.1,0-0.2,0-0.3-0.1c-0.1,0-0.2-0.1-0.2-0.1c-0.1,0-0.1-0.1-0.2-0.1c0-0.1,0-0.1,0-0.2"
								/>
							<path class="st27" d="M137.6,238.8c0,0,0,0.1,0,0.2c0,0,0,0.1-0.1,0.1c0,0-0.1,0.1-0.1,0.1c-0.1,0-0.1,0.1-0.2,0.1
								c-0.1,0-0.3,0.1-0.4,0.1c-0.1,0-0.1,0-0.2,0c-0.1,0-0.2,0-0.3,0"/>
							<path class="st27" d="M135.7,239c0,0,0-0.1,0-0.2c0,0,0-0.1,0.1-0.1c0,0,0.1-0.1,0.1-0.1c0.1,0,0.1-0.1,0.2-0.1
								c0.1-0.1,0.3-0.1,0.4-0.1c0.1,0,0.1,0,0.2,0c0.1,0,0.2,0,0.3,0"/>
							<path class="st27" d="M137,238.3c0.1,0,0.2,0,0.3,0.1c0.1,0,0.2,0.1,0.2,0.1c0,0,0.1,0.1,0.1,0.1c0,0,0,0.1,0,0.2"/>
							<path class="st27" d="M186.1,247.5c-0.1,0-0.2,0-0.2-0.1c-0.1,0-0.2-0.1-0.2-0.1c0,0-0.1-0.1-0.1-0.2c0,0,0-0.1,0-0.2"/>
							<path class="st27" d="M187.4,246.8c0,0,0,0.1,0,0.1c0,0,0,0.1-0.1,0.2c0,0-0.1,0.1-0.1,0.1c0,0-0.1,0.1-0.2,0.1
								c-0.1,0.1-0.3,0.1-0.4,0.1c-0.2,0-0.3,0-0.5,0"/>
							<path class="st27" d="M185.4,246.9c0,0,0-0.1,0-0.1c0-0.1,0.1-0.1,0.1-0.2c0,0,0.1-0.1,0.1-0.1c0,0,0.1-0.1,0.2-0.1
								c0.1-0.1,0.3-0.1,0.4-0.1c0.2,0,0.3,0,0.5,0"/>
							<path class="st27" d="M186.7,246.3c0.1,0,0.2,0,0.3,0.1c0.1,0,0.1,0.1,0.2,0.1c0.1,0,0.1,0.1,0.1,0.1c0,0.1,0.1,0.1,0.1,0.2"
								/>
							<polyline class="st27" points="145.3,220.1 141.1,219.4 148.2,205.7 148.6,205.5 149.1,205.4 155.6,206.5 169,180.9 
								183.5,153 241,162.3 194.5,251.2 132.4,241.2 135.3,235.7 139.9,236.4 143.5,229.7 138.8,228.9 140.3,226 144.1,226.6 
															"/>
							<line class="st27" x1="145.6" y1="225.7" x2="145.2" y2="226.3"/>
						</g>
					</g>
				</g>
			</g>
			<g id="SPLINE_699_">
				<path class="st27" d="M285.7,130.1C285.6,130.1,285.6,130.1,285.7,130.1L285.7,130.1c-0.1,0.1-0.1,0.1-0.2,0.2"/>
			</g>
			<g id="SPLINE_698_">
				<path class="st27" d="M285.5,130.3c0,0-0.1,0.1-0.1,0.1l0,0c0,0-0.1,0.1-0.1,0.1"/>
			</g>
			<g id="SPLINE_697_">
				<path class="st27" d="M285.2,130.5C285.2,130.5,285.2,130.5,285.2,130.5L285.2,130.5c-0.1,0-0.1,0-0.2,0l0,0c0,0,0,0-0.1,0l0,0
					c0,0,0,0-0.1,0l0,0c0,0,0,0-0.1-0.1l0,0c0,0,0-0.1-0.1-0.1l0,0c0,0,0-0.1-0.1-0.1l0,0c0,0,0-0.1-0.1-0.1l0,0c0,0,0-0.1,0-0.1
					l0,0c0-0.1,0-0.1,0-0.2l0,0c0-0.1,0-0.2-0.1-0.4l0,0c0-0.1,0-0.3,0-0.4l0,0c0-0.2,0-0.3,0-0.5l0,0c0-0.2,0-0.3,0-0.5l0,0
					c0-0.2,0-0.3,0.1-0.5l0,0c0-0.2,0.1-0.3,0.1-0.5l0,0c0-0.2,0.1-0.3,0.1-0.5l0,0c0-0.2,0.1-0.3,0.1-0.5l0,0
					c0-0.2,0.1-0.3,0.1-0.4l0,0c0-0.1,0.1-0.3,0.1-0.4l0,0c0.1-0.1,0.1-0.2,0.2-0.3"/>
			</g>
			<g id="SPLINE_696_">
				<path class="st27" d="M285.4,124.8c0-0.1,0.1-0.1,0.1-0.2l0,0c0-0.1,0.1-0.1,0.1-0.2l0,0c0,0,0.1-0.1,0.1-0.1l0,0c0,0,0,0,0.1,0
					l0,0c0,0,0,0,0.1,0l0,0c0,0,0.1,0,0.1,0l0,0c0,0,0.1,0,0.1,0l0,0c0,0,0,0,0,0l0,0c0,0,0,0,0,0l0,0c0,0,0.1,0,0.1,0.1"/>
			</g>
			<g id="SPLINE_695_">
				<path class="st27" d="M286.2,124.3c0,0,0.1,0.1,0.1,0.1l0,0c0,0,0.1,0.1,0.2,0.3"/>
			</g>
		</g>
		<g class="st9">
			<g>
				<polygon class="st30" points="152.4,183.2 160.2,177.9 152.3,172.3 152.2,174.9 146.2,175 146.3,181 152.4,180.8 				"/>
				<polygon class="st31" points="152.5,182.5 159,178.1 152.4,173.5 152.3,175.6 146.9,175.7 147,180.5 152.5,180.3 				"/>
			</g>
			<g>
				<polygon class="st30" points="139.4,173 131.6,178.3 139.6,183.9 139.6,181.3 145.6,181.2 145.5,175.2 139.5,175.4 				"/>
				<polygon class="st31" points="139.3,173.6 132.8,178.1 139.5,182.8 139.5,180.6 144.9,180.5 144.9,176 139.4,175.9 				"/>
			</g>
		</g>
	</g>
	<g>
		<line class="st32" x1="117.8" y1="188.9" x2="162.5" y2="188.9"/>
		<line class="st33" x1="117.8" y1="188.9" x2="162.5" y2="188.9"/>
	</g>
	<g>
		<circle cx="257.6" cy="205.5" r="7.6"/>
		<text transform="matrix(1 0 0 1 254.5928 209.042)" class="st34 st35 st36">1</text>
	</g>
	<g>
		<circle cx="201.3" cy="172.7" r="7.6"/>
		<text transform="matrix(1 0 0 1 198.3047 176.2334)" class="st34 st35 st36">2</text>
	</g>
</g>
</svg>
