<?xml version="1.0" encoding="utf-8"?>
<!-- Generator: Adobe Illustrator 19.1.0, SVG Export Plug-In . SVG Version: 6.00 Build 0)  -->
<svg version="1.1" id="Layer_1" xmlns="http://www.w3.org/2000/svg" xmlns:xlink="http://www.w3.org/1999/xlink" x="0px" y="0px"
	 width="324px" height="310px" viewBox="0 0 324 310" style="enable-background:new 0 0 324 310;" xml:space="preserve">
<style type="text/css">
	.st0{fill:none;stroke:#000000;stroke-width:0.5;}
	.st1{fill:none;stroke:#231F20;stroke-width:0.5;stroke-miterlimit:10;}
	.st2{fill:none;stroke:#231F20;stroke-width:0.5;stroke-miterlimit:10;stroke-dasharray:0.5;}
	.st3{fill:#231F20;stroke:#231F20;stroke-width:0.5;stroke-miterlimit:10;}
	.st4{fill:#FFFFFF;stroke:#231F20;stroke-width:0.5;stroke-miterlimit:10;}
	.st5{fill:#A7A9AC;stroke:#000000;stroke-width:0.5;stroke-miterlimit:10;}
	.st6{fill:#010101;}
	.st7{font-family:'Helvetica';}
	.st8{font-size:9px;}
	.st9{fill:#FFFFFF;stroke:#000000;stroke-width:0.5;stroke-miterlimit:10;}
	.st10{stroke:#000000;stroke-width:0.5;stroke-miterlimit:10;}
	.st11{fill:#010101;stroke:#FFFFFF;stroke-width:3;stroke-linecap:round;stroke-linejoin:round;}
	.st12{font-size:5.169px;}
	.st13{fill:none;stroke:#000000;stroke-width:0.5;stroke-miterlimit:10;}
	.st14{fill:#FFFFFF;stroke:#FFFFFF;stroke-width:2;stroke-miterlimit:10;}
	.st15{fill:#FFFFFF;}
	.st16{font-size:10px;}
</style>
<line class="st0" x1="278.7" y1="186.8" x2="278.7" y2="259.9"/>
<g>
	<line class="st1" x1="68.9" y1="292.7" x2="118.6" y2="260.2"/>
	<path class="st1" d="M121.4,259.2c-0.2,0.4-0.2,0.8,0,0.8c0.1,0,6.4,0.8,14.8,1.7"/>
	<line class="st1" x1="119.9" y1="50.9" x2="120.6" y2="258.6"/>
	<g>
		<polygon class="st1" points="67.9,36.9 118.5,4.5 190.4,12.1 140.2,45.2 		"/>
		<line class="st1" x1="73.2" y1="37.6" x2="123" y2="4.9"/>
		<line class="st1" x1="136.1" y1="44.7" x2="187.6" y2="11.8"/>
		<path class="st1" d="M65.5,38.5c17,4.2,62.9,8.1,72.3,8.1c2.8,0,2.1-1,2.1-1l-72.7-8L65.5,38.5z"/>
		<line class="st1" x1="67.3" y1="39.9" x2="65.5" y2="40.8"/>
		<path class="st1" d="M65.5,40.8c17,4.2,62.9,8.1,72.3,8.1c2.8,0,2.1-1,2.1-1"/>
		<path class="st1" d="M65.1,297"/>
		<polygon class="st1" points="140.1,46.6 140.1,303.5 192.2,270.4 192.2,11.9 		"/>
		<polyline class="st1" points="140.1,52.6 141.5,50.4 190.4,19.1 191.9,19.3 		"/>
		<path class="st1" d="M141.2,50.4c0-0.2,0.4-2.1,1.1-2.6c0.8-0.5,46.1-29.6,46.1-29.6s1-0.7,1.4-0.8c0.4-0.1,0.9-0.4,0.9,1.1"/>
		<line class="st1" x1="155" y1="36.6" x2="155" y2="39.6"/>
		<line class="st1" x1="166.3" y1="29.1" x2="166.3" y2="32.3"/>
		<line class="st1" x1="177.4" y1="21.7" x2="177.4" y2="24.8"/>
		<g>
			<path class="st1" d="M150.9,39.4c0,0,0,7,0,7.2c0,0.2,0.2,0.7,0.5,0.6c0.3-0.1,0.6-0.6,0.6-0.9c0-0.3,0-7.7,0-7.7"/>
		</g>
		<g>
			<path class="st1" d="M180.5,19.8c0,0,0,7.6,0,7.8c0,0.2,0.2,0.8,0.5,0.7c0.3-0.1,0.6-0.6,0.6-0.9c0-0.3,0-8.4,0-8.4"/>
		</g>
		<g>
			<path class="st1" d="M140.1,98.1c0,0,1.8-1,2-1.3c0.3-0.3,0,3,0,3s-1.8,1.6-2,1.2"/>
		</g>
		<g>
			<path class="st1" d="M140.4,179.2c0,0,1.8-1,2-1.3c0.3-0.3,0,3,0,3s-1.8,1.6-2,1.2"/>
		</g>
		<g>
			<path class="st1" d="M140.6,260.6c0,0,1.8-1,2-1.3c0.3-0.3,0,3,0,3s-1.8,1.6-2,1.2"/>
		</g>
		<g>
			<path class="st1" d="M192,227.6c0,0-1.6,1.5-1.9,1.5c-0.3,0-0.2,2.7,0,2.7c0.2,0,1.1-0.2,1.9-1.3"/>
		</g>
		<g>
			<path class="st1" d="M192,146.5c0,0-1.6,1.5-1.9,1.5c-0.3,0-0.2,2.7,0,2.7c0.2,0,1.1-0.2,1.9-1.3"/>
		</g>
		<g>
			<path class="st1" d="M191.9,65.2c0,0-1.6,1.5-1.9,1.5c-0.3,0-0.2,2.7,0,2.7c0.2,0,1.1-0.2,1.9-1.3"/>
		</g>
		<path class="st1" d="M140.1,296.7c0,0,1,1.3,1.6,0.9c0.6-0.4,50-31,50.3-33"/>
		<path class="st1" d="M65.1,295.6c3.3,3.2,70.6,9.7,75,7.8"/>
		<path class="st1" d="M65.1,292.6c3.3,3.2,70.6,9.7,75,7.8"/>
		<path class="st1" d="M79.8,298.9c0,0.3,3.1,2.7,8,1.1"/>
		<path class="st1" d="M124.6,303.5c1.7,1.1,6.7,3.4,9.6,0.3"/>
		<line class="st1" x1="138.7" y1="291" x2="138.7" y2="303.8"/>
		<line class="st1" x1="138.7" y1="291" x2="138.7" y2="48.9"/>
		<path class="st1" d="M121.8,6.6c0,0-6.8,4.6-7,4.9c-0.2,0.4-0.2,0.8,0,0.8c0.2,0.1,56.7,6.5,57.7,6.5c1,0,0.9,0.1,2-0.3
			c1.1-0.3,9.3-5.4,9.3-5.4s0.6-0.6-0.5-0.8c-1.1-0.1-59.4-6.3-60-6.3C122.7,6.2,122.6,6.1,121.8,6.6z"/>
		<path class="st1" d="M144.5,276.9c0,0.3-0.2,0.6-0.3,0.6c-0.2,0-0.3-0.3-0.3-0.6c0-0.3,0.2-0.6,0.3-0.6
			C144.3,276.3,144.5,276.6,144.5,276.9z"/>
		<path class="st1" d="M189.4,248.5c0,0.3-0.2,0.6-0.4,0.6c-0.2,0-0.4-0.3-0.4-0.6c0-0.3,0.2-0.6,0.4-0.6
			C189.2,247.8,189.4,248.1,189.4,248.5z"/>
		<path class="st1" d="M112.3,14.1c0,0.2-0.2,0.4-0.5,0.4c-0.3,0-0.5-0.2-0.5-0.4c0-0.2,0.2-0.4,0.5-0.4
			C112.1,13.8,112.3,13.9,112.3,14.1z"/>
		<path class="st1" d="M171.4,20.6c0,0.2-0.3,0.3-0.6,0.3c-0.3,0-0.6-0.2-0.6-0.3c0-0.2,0.3-0.3,0.6-0.3
			C171.1,20.3,171.4,20.4,171.4,20.6z"/>
		<line class="st1" x1="7.1" y1="40.4" x2="64.2" y2="37.7"/>
		<line class="st1" x1="7.1" y1="40.4" x2="7.1" y2="53.3"/>
		<line class="st1" x1="6.5" y1="53.3" x2="6.5" y2="285.3"/>
		<line class="st1" x1="6.5" y1="285.3" x2="7.9" y2="285.5"/>
		<line class="st1" x1="7.9" y1="285.5" x2="62.3" y2="282.9"/>
		<line class="st1" x1="7.9" y1="285.5" x2="7.9" y2="298.2"/>
		<line class="st1" x1="7.9" y1="298.2" x2="10.1" y2="298.2"/>
		<line class="st1" x1="10.1" y1="298.2" x2="10.1" y2="285.5"/>
		<line class="st1" x1="10.1" y1="298.2" x2="65.1" y2="295.8"/>
		<line class="st1" x1="11.1" y1="285.5" x2="11.1" y2="298.2"/>
		<line class="st1" x1="11.1" y1="288.7" x2="62.3" y2="286.3"/>
		<line class="st1" x1="62.3" y1="286.3" x2="62.3" y2="282.6"/>
		<line class="st1" x1="65.1" y1="295.8" x2="65.1" y2="38"/>
		<line class="st1" x1="10.5" y1="50.1" x2="61.9" y2="47.5"/>
		<line class="st1" x1="61.9" y1="47.5" x2="61.9" y2="51.2"/>
		<line class="st1" x1="61.9" y1="51.2" x2="10.5" y2="53.8"/>
		<line class="st1" x1="10.5" y1="53.8" x2="10.5" y2="50.1"/>
		<line class="st1" x1="9" y1="40.3" x2="9" y2="285.5"/>
		<line class="st1" x1="11.2" y1="40.1" x2="11.2" y2="285.3"/>
		<line class="st1" x1="30.9" y1="52.8" x2="30.9" y2="284.2"/>
		<line class="st1" x1="32.5" y1="52.8" x2="32.5" y2="284.2"/>
		<path class="st1" d="M13.1,51.7c0,0.6-0.4,1.1-0.9,1.1c-0.5,0-0.9-0.5-0.9-1.1c0-0.6,0.4-1.1,0.9-1.1
			C12.7,50.6,13.1,51.1,13.1,51.7z"/>
		<ellipse class="st1" cx="59.9" cy="49.3" rx="0.5" ry="0.8"/>
		<path class="st1" d="M17.5,51.5c0-0.3-0.3-0.5-0.6-0.5l-1.7,0.1c-0.3,0-0.5,0.3-0.5,0.6l0,0c0,0.3,0.3,0.5,0.6,0.5l1.7-0.1
			C17.3,52.1,17.5,51.9,17.5,51.5L17.5,51.5z"/>
		<path class="st1" d="M37.1,50.7c0-0.3-0.3-0.6-0.6-0.6l-1.7,0c-0.3,0-0.5,0.3-0.5,0.6l0,0c0,0.3,0.3,0.6,0.6,0.6l1.7,0
			C36.9,51.2,37.1,51,37.1,50.7L37.1,50.7z"/>
		<path class="st1" d="M56.7,49.7c0-0.3-0.3-0.5-0.6-0.5l-1.7,0.1c-0.3,0-0.5,0.3-0.5,0.6l0,0c0,0.3,0.3,0.5,0.6,0.5l1.7-0.1
			C56.5,50.3,56.8,50,56.7,49.7L56.7,49.7z"/>
		<ellipse class="st1" cx="10.3" cy="42.1" rx="0.4" ry="0.5"/>
		<path class="st1" d="M10.3,54.7c0,0.1-0.1,0.2-0.2,0.2c-0.1,0-0.2-0.1-0.2-0.2c0-0.1,0.1-0.2,0.2-0.2
			C10.2,54.5,10.3,54.6,10.3,54.7z"/>
		<path class="st1" d="M10.5,83.4c0,0.2-0.1,0.3-0.3,0.3c-0.2,0-0.3-0.2-0.3-0.3c0-0.2,0.1-0.3,0.3-0.3C10.3,83,10.5,83.2,10.5,83.4
			z"/>
		<path class="st1" d="M13.2,94.2c0,0.2-0.1,0.3-0.3,0.3c-0.2,0-0.3-0.2-0.3-0.3c0-0.2,0.1-0.3,0.3-0.3C13.1,93.8,13.2,94,13.2,94.2
			z"/>
		<ellipse class="st1" cx="10.3" cy="111.9" rx="0.2" ry="0.3"/>
		<ellipse class="st1" cx="10.3" cy="140.7" rx="0.2" ry="0.2"/>
		<path class="st1" d="M10.6,169.3c0,0.2-0.1,0.3-0.2,0.3c-0.1,0-0.2-0.2-0.2-0.3c0-0.2,0.1-0.3,0.2-0.3
			C10.5,169,10.6,169.1,10.6,169.3z"/>
		<path class="st1" d="M10.8,198.1c0,0.2-0.1,0.3-0.2,0.3c-0.1,0-0.2-0.1-0.2-0.3c0-0.2,0.1-0.3,0.2-0.3
			C10.7,197.8,10.8,198,10.8,198.1z"/>
		<path class="st1" d="M10.8,226.7c0,0.1-0.1,0.2-0.2,0.2c-0.1,0-0.2-0.1-0.2-0.2c0-0.1,0.1-0.2,0.2-0.2
			C10.7,226.5,10.8,226.6,10.8,226.7z"/>
		<path class="st1" d="M10.9,255.3c0,0.2-0.1,0.3-0.2,0.3c-0.1,0-0.2-0.1-0.2-0.3c0-0.2,0.1-0.3,0.2-0.3
			C10.8,255,10.9,255.2,10.9,255.3z"/>
		<path class="st1" d="M10.9,284.1c0,0.2-0.1,0.3-0.2,0.3c-0.1,0-0.2-0.1-0.2-0.3c0-0.1,0.1-0.3,0.2-0.3
			C10.8,283.8,10.9,284,10.9,284.1z"/>
		<path class="st1" d="M11.1,296.7c0,0.2-0.1,0.4-0.3,0.4c-0.2,0-0.3-0.2-0.3-0.4c0-0.2,0.1-0.4,0.3-0.4
			C10.9,296.3,11.1,296.4,11.1,296.7z"/>
		<path class="st1" d="M13.5,287c0,0.6-0.4,1.1-0.9,1.1c-0.5,0-0.9-0.5-0.9-1.1c0-0.6,0.4-1.1,0.9-1.1
			C13.1,285.9,13.5,286.4,13.5,287z"/>
		<path class="st1" d="M61.1,284.6c0,0.4-0.2,0.8-0.5,0.8c-0.3,0-0.5-0.4-0.5-0.8c0-0.4,0.2-0.8,0.5-0.8
			C60.9,283.8,61.1,284.2,61.1,284.6z"/>
		<path class="st1" d="M18.2,286.3c0-0.3-0.3-0.5-0.6-0.5l-1.7,0.1c-0.3,0-0.5,0.3-0.5,0.6l0,0c0,0.3,0.3,0.6,0.6,0.5l1.7-0.1
			C17.9,286.9,18.2,286.6,18.2,286.3L18.2,286.3z"/>
		<path class="st1" d="M37.7,285.5c0-0.3-0.3-0.6-0.6-0.6l-1.7,0c-0.3,0-0.5,0.3-0.5,0.6l0,0c0,0.3,0.3,0.6,0.6,0.5l1.7,0
			C37.5,286.1,37.7,285.8,37.7,285.5L37.7,285.5z"/>
		<path class="st1" d="M57.3,284.6c0-0.3-0.3-0.6-0.6-0.6l-1.7,0c-0.3,0-0.5,0.3-0.5,0.6l0,0c0,0.3,0.3,0.6,0.6,0.5l1.7,0
			C57.1,285.2,57.3,284.9,57.3,284.6L57.3,284.6z"/>
		<path class="st1" d="M6.5,160.3c0.4-0.2,0.5-0.1,0.9,0c0.4,0.1,0.6,0.3,0.6,0.4c0.1,0.1,0.2,0.9,0.1,1c0,0.1,0,15.9,0,15.9
			s0,0.6-0.2,0.7c-0.2,0.1-0.1,0.1-0.8,0.2c-0.7,0-1-0.5-0.7-0.8c0.4-0.3,0.8-0.1,0.8-0.1l0.2,0v-15.8c0,0-0.1-0.4-0.2-0.5
			c-0.2,0-0.8-0.2-0.8-0.1C6.5,161,6.5,160.4,6.5,160.3L6.5,160.3z"/>
		<path class="st1" d="M11.1,160.5c0.1-0.1,0.6-0.1,0.7,0c0.1,0.1,0.6,0.1,0.6,0.5c0,0.4,0,16.3,0,16.3s0,0.7-1.2,0.6"/>
		<path class="st1" d="M11.2,161.9c0.2,0.1,0.5,0.2,0.5,0.5c0,0.3,0.1,0.6-0.5,0.8"/>
		<path class="st1" d="M11.2,175.2c0.2,0.1,0.5,0.2,0.5,0.5c0,0.3,0.1,0.6-0.5,0.8"/>
		<path class="st1" d="M11.1,167.7c0.2,0.1,0.5,0.2,0.5,0.5c0,0.3,0.1,0.6-0.5,0.8"/>
		<line class="st1" x1="11.2" y1="174.4" x2="12.4" y2="174.4"/>
		<line class="st1" x1="11.2" y1="163.8" x2="12.3" y2="163.8"/>
		<line class="st1" x1="11.2" y1="161.6" x2="12.4" y2="161.6"/>
		<line class="st1" x1="11.4" y1="177.1" x2="12.4" y2="177.1"/>
		<line class="st1" x1="61.4" y1="37.8" x2="61.4" y2="47.5"/>
		<line class="st1" x1="61.4" y1="51.3" x2="61.4" y2="56"/>
		<line class="st1" x1="61.4" y1="56" x2="64" y2="56"/>
		<line class="st1" x1="62.5" y1="56" x2="62.5" y2="38"/>
		<line class="st1" x1="62.9" y1="56" x2="62.9" y2="37.8"/>
		<line class="st1" x1="62.5" y1="51" x2="64" y2="51"/>
		<path class="st1" d="M63.8,39.9c0,0.3-0.1,0.5-0.3,0.5c-0.2,0-0.3-0.2-0.3-0.5c0-0.3,0.1-0.5,0.3-0.5
			C63.7,39.4,63.8,39.6,63.8,39.9z"/>
		<ellipse class="st1" cx="63.4" cy="52.2" rx="0.2" ry="0.4"/>
		<line class="st1" x1="62.2" y1="295.8" x2="62.2" y2="278"/>
		<line class="st1" x1="61.9" y1="277.8" x2="65.1" y2="277.7"/>
		<line class="st1" x1="63.5" y1="277.8" x2="63.5" y2="295.9"/>
		<line class="st1" x1="63.5" y1="293.5" x2="65.1" y2="293.5"/>
		<line class="st1" x1="63.5" y1="282.9" x2="65.1" y2="282.9"/>
		<path class="st1" d="M64.3,281.6c0,0.1-0.1,0.3-0.2,0.3c-0.1,0-0.2-0.1-0.2-0.3c0-0.1,0.1-0.3,0.2-0.3
			C64.2,281.3,64.3,281.5,64.3,281.6z"/>
		<path class="st1" d="M64.8,294.2c0,0.3-0.2,0.5-0.3,0.5c-0.2,0-0.4-0.2-0.4-0.5c0-0.3,0.2-0.5,0.4-0.5
			C64.6,293.7,64.8,294,64.8,294.2z"/>
		<rect x="61.4" y="269.2" class="st1" width="3.7" height="0.6"/>
		<rect x="61" y="63.8" class="st1" width="4" height="0.8"/>
		<line class="st1" x1="62.5" y1="64.2" x2="62.5" y2="269.2"/>
		<line class="st1" x1="60.4" y1="51.3" x2="61.1" y2="282.9"/>
		<line class="st1" x1="67" y1="39.1" x2="67.7" y2="296.3"/>
		<line class="st1" x1="69.4" y1="45.5" x2="70" y2="293.1"/>
		<line class="st1" x1="135.8" y1="51.4" x2="136.4" y2="299"/>
		<line class="st1" x1="63.4" y1="64.1" x2="63.4" y2="269.1"/>
	</g>
	<line class="st2" x1="11.7" y1="96.1" x2="57.4" y2="93.8"/>
	<line class="st2" x1="11.7" y1="78.5" x2="57.4" y2="76.2"/>
	<line class="st2" x1="57.4" y1="93.8" x2="57.4" y2="76.2"/>
	<path class="st1" d="M32,89.4c0,0.2-0.1,0.3-0.3,0.3c-0.2,0-0.3-0.2-0.3-0.3c0-0.2,0.1-0.3,0.3-0.3C31.9,89,32,89.2,32,89.4z"/>
	<ellipse class="st1" cx="31.7" cy="92.8" rx="0.3" ry="0.3"/>
	<path class="st1" d="M56.2,92.4c0,0.2-0.1,0.3-0.3,0.3c-0.2,0-0.3-0.2-0.3-0.3c0-0.2,0.1-0.3,0.3-0.3
		C56.1,92.1,56.2,92.2,56.2,92.4z"/>
	<g>
		<path class="st3" d="M48.5,103.9c2.9-0.8,6.8-3.2,9-3.6c3.9-0.7,5.8-4.1,8.2-6c2.4-1.9,2.4-17.5,3.3-20.5l0.3,3.2L69,85.5
			c0,0-0.1,7.9-2.5,9.9c-2.4,1.9-4.3,5.3-8.2,6c-2.3,0.4-6.4,2.8-9.3,3.6"/>
		<polygon class="st4" points="49.6,105.1 47.8,105.7 48,104.9 47.8,104.4 47.3,103.8 49.4,103.2 49.2,103.8 49.4,104.6 49.9,105 		
			"/>
	</g>
</g>
<path class="st5" d="M258.3,201.6l-5.4,0l0-1.9c-4.6-1.5-6.8-6.2-4.7-11.5c0,0-1.3-0.5-1.1-2c0.1-1.1,1.1-2,1.9-2
	c1.1,0,1.8,0.8,1.8,0.8c3.2-1.9,6.5-1.8,10.2,0.5c0,0,2.8-2.6,4.2,0.1c0.9,1.9-1.6,2.9-1.6,2.9c0.7,1.9,0.8,9-5,10.8L258.3,201.6z"
	/>
<g>
	<g>
		<g>
			<path class="st6" d="M274,99.6c-7.4-7.1-19.4-6.5-26.9,1.2c-7.5,7.8-7.6,19.8-0.2,26.9l3-3.1c-5.7-5.5-5.6-14.9,0.2-20.9
				c5.8-6,15.2-6.5,20.9-1c1.4,1.4,2.5,3,3.2,4.7l4.3-0.8C277.6,104.1,276.1,101.6,274,99.6z"/>
		</g>
	</g>
	<polygon class="st6" points="283.3,102.5 278.7,116.1 268,107.7 	"/>
</g>
<text transform="matrix(1 0 0 1 241.4214 92.0894)" class="st7 st8">180</text>
<g>
	<g>
		<path class="st5" d="M278.6,233.2c-0.5,0.4-1,0.7-1.5,0.8c-1.7,0.6-4.5,1.9-10.6,1.7l-2.4,0.8l-2.3-0.8l-1.1-3.5
			c0,0,0-0.5,1.2-0.9c0.1,0-0.7-2.8-0.7-2.8s-0.2-0.8,0.7-1.2c0.7-0.3-0.3-1.5,0.2-2c0.6-0.7,0-1.6,0-1.7c0,0-0.2-0.1-0.7,0.3
			c-0.5,0.4-1.7,1-2.3,0.8c-0.7-0.3-1-1.4-1.1-1.6c-0.1-0.7-0.2-1.2-0.2-1.2s-0.1-0.4,1.1-0.8c1.2-0.4,2-0.7,2.2-0.8
			c0.7-0.6-0.5-2.3-0.4-2.9c0.1-0.6,1.9-3.7,4.7-4.7c2.9-1,3.6-1.1,4.7-1.2c1.1-0.1,3.2,0.1,4.1,0.6c0.9,0.5,0.7,0.5,0.7,0.5
			l2.3,4.7l0.5,0.3l1.3,2.9c0,0,1.4,0.5,2,1.2c0.6,0.7,2.2,5.8,1.3,7.5c0,0,0,0.1-0.1,0.1"/>
		<path class="st5" d="M278.6,233.2c0,0,0.3,0.1,0.7,0.3c0.4,0.2,3.6-3.2,3.6-3.6c0-0.4-0.6-0.7-0.6-0.7c0.2-0.3,0.4-3.6-1.1-5.1
			c-1.5-1.5-4.5-1.4-5.3-1.5c-0.9-0.1-4.2,0.2-7.8,1.8c-3.6,1.6-5.3,3.6-5.9,5.7c-0.6,2.1,1.1,4.9,1.1,4.9l-1.5,0.7"/>
		<line class="st5" x1="282.6" y1="228.6" x2="282.9" y2="229.9"/>
	</g>
	<path class="st9" d="M278.6,233.2"/>
	<path class="st10" d="M268.3,233.5c0.1-0.2-0.1-1.5-0.2-2.4c-0.1-1.1,0.1-1.9,1.6-2.3c1.2-0.3,1.8-0.4,2.8-0.7
		c0.9-0.2,1.8-0.4,2.1-0.4c0.5-0.1,1.2,0.4,1.5,1c0.2,0.6,0.4,1.2,0.5,2.2c0.1,0.5,0,1,0,1.2c0,0-0.4,0-0.9,0.1
		c-0.8,0.2-1.7,0.4-3.1,0.6C270.4,233.2,268.3,233.5,268.3,233.5z"/>
	<path class="st5" d="M262.1,226.1c0.2-0.5,0.7-1,1.4-1.8c0.7-0.7,2.8-2.9,7.2-3.9c3.8-0.9,5.8-1,8.8,0"/>
	<path d="M273.1,214.1c0,0.3,0.7,1.8,0.7,2c0.1,0.2,0.5,0.5,0.5,0.5l0,0.5l0.1,0.4c0,0,0.6,1.7,0.6,1.8c0,0.1,0.1,0.3,0.5,0.3
		c0.4,0,1.3,0.1,1.5,0.1c0.1,0,0.2,0.1,0.1-0.1c-0.1-0.2-0.7-1.6-0.7-1.7c-0.1,0,0.1-0.1,0.1-0.3c0-0.2-0.6-0.8-0.6-0.8
		c0,0-0.1-0.3,0-0.5c0.1-0.2-0.3-0.3-0.4-0.5c0-0.2-0.1-0.7-0.2-0.8C275.3,215,273.1,214.1,273.1,214.1z"/>
	<path d="M265.8,216c0,0.3,0.2,0.8,0.2,0.9c0,0.1,0.2,0.7,0.4,0.9c0.2,0.1,0.4,1.2,0.5,1.5c0.1,0.2,0.6,2,0.6,2s0.2,0.2,0.3,0.1
		c0.1,0,0.8-0.3,0.8-0.4c0-0.1-1.9-4.7-1.9-4.9c-0.1-0.3,0-0.4-0.1-0.4c-0.1-0.1-0.2-0.2-0.5,0.1C265.7,215.9,265.8,216,265.8,216z"
		/>
	<path d="M273.1,219.8c0.1,0,0.5,0,0.6,0c0.1,0-0.1-0.3-0.1-0.3l-1.8-5c0,0-0.3-0.1-0.5-0.1c-0.3,0-0.3,0.3-0.2,0.4
		c0.1,0.1,0.9,1.1,1,1.1c0.1,0.1,0.2,0.2,0.1,0.3c0,0.1-0.1,0.2-0.1,0.3c0,0.1,0.4,0.3,0.4,0.6c0.1,0.3,0.1,0.2,0,0.4
		c-0.1,0.2-0.1,0.1,0,0.2c0,0.1,0.3,0.3,0.3,0.4c0,0.1,0.2,0.2,0.1,0.2c-0.1,0.1-0.3,0.2-0.3,0.3c0,0,0.3,0.2,0.4,0.3
		c0.1,0.1,0.1,0.4,0.1,0.4c0,0-0.3,0.1-0.4,0.2C272.7,219.4,273.1,219.8,273.1,219.8z"/>
	<path d="M262.8,219.1c0,0.1,0,0.4,0.2,0.7c0.1,0.3,0.2,0.4,0.4,0.6c0.2,0.3,0.2,0.6,0.3,0.8c0.1,0.2,0.2,0.6,0.3,1
		c0.1,0.4,0,0.4,0.1,0.5c0.1,0.1,0.2,0.2,0.3,0.2c0.1-0.1,1.4-1.2,1.6-1.3c0.2-0.1,0.1-0.2,0.1-0.2c0-0.1-0.2-0.2-0.2-0.4
		c0-0.1-0.5-1.6-0.7-1.9c-0.2-0.3-0.3-0.5-0.3-0.6c0-0.1-0.2-0.7-0.2-0.7s0-0.3-0.1-0.3C264.5,217.4,262.8,219.1,262.8,219.1z"/>
	<path class="st9" d="M266.6,216.1c0.2-0.1,0.4-0.5,1.8-0.8c1.5-0.3,1.7-0.4,1.7-0.4"/>
	<path class="st9" d="M271.9,216.4c-2,0-4.3,1.1-4.3,1.1s0,0.1-0.1,0.5c0,0,2.3-0.9,4.5-1.2"/>
	<path class="st9" d="M272.2,217.6c-1.6,0.1-3.7,0.8-3.9,1c-0.2,0.2-0.3,0.3-0.4,0.6c0,0,3.3-1.1,3.9-1.2"/>
	<path class="st9" d="M272.6,218.5c-4.2,0.6-4.2,1.1-4.4,1.4c0,0,0.6-0.7,4.3-1.3"/>
	<path class="st9" d="M272.7,219.4c-3.6,0.4-4.2,1-4.2,1.3c0,0,0.7-0.7,4-1.1"/>
	<path class="st9" d="M249.6,191.3c2.4,0.8,6.8,2.8,10.9,9.1c1.9,2.9,3.6,9.5,4.2,12.6c0,0,2.2-1,4.8-1.5c0.1,0-2.8-10.3-7.2-15.8
		c-3.7-4.6-9.8-7.4-12.5-7.8"/>
	<path class="st9" d="M279,261.4c-1.7-4.7-3.5-10.3-4.3-13.4c-1.4-5.7-4.9-19.2-4.9-19.2s4.9-1.3,5.3-1.1c0.3,0.3,1.5,4.6,1.5,4.6
		s1.8,7.2,1.9,7.6c0.1,0.4,3.5,13.2,4.5,15.9c0.2,0.7,0.7,2,1.4,3.6"/>
	<g>
		<polyline class="st11" points="288.4,210.1 276.1,209.8 279.2,208.6 272.2,205.6 277.8,203.4 284.9,206.4 288,205.2 288.4,210.1 
					"/>
		<polyline points="288.4,210.1 276.1,209.8 279.2,208.6 272.2,205.6 277.8,203.4 284.9,206.4 288,205.2 288.4,210.1 		"/>
	</g>
</g>
<text transform="matrix(1 0 0 1 256.4844 87.2026)" class="st7 st12">o</text>
<path class="st13" d="M316.5,218.8c0,0,0.2-2.6,0.2-3.9c0.1-11.6,0.6-70.6,0.6-85.4c0-30.8-25-55.8-55.8-55.8
	c-30.8,0-55.8,25-55.8,55.8c0,16.1-0.4,66-0.4,82.5c0,30.8,25,55.8,55.8,55.8C289.7,267.9,313.2,246.5,316.5,218.8"/>
<line class="st0" x1="236.6" y1="188.9" x2="236.6" y2="253.6"/>
<line class="st0" x1="279.2" y1="87.5" x2="279.2" y2="157"/>
<path class="st5" d="M255.1,104.4l5.4-0.4l0.1,1.9c4.7,1.2,7.2,5.7,5.5,11.1c0,0,1.3,0.4,1.3,1.9c0,1.1-0.9,2-1.7,2.1
	c-1.1,0.1-1.8-0.6-1.8-0.6c-3.1,2.1-6.4,2.3-10.2,0.3c0,0-2.6,2.8-4.2,0.2c-1.1-1.9,1.4-3,1.4-3c-0.8-1.9-1.4-8.9,4.2-11.1
	L255.1,104.4z"/>
<path class="st9" d="M277.5,136.8"/>
<line class="st0" x1="237.1" y1="92.2" x2="237.1" y2="156.9"/>
<polyline class="st14" points="205.6,157.7 69,73.8 216.6,131.3 "/>
<polyline class="st9" points="205.7,157.7 69.1,73.8 205.8,127.1 "/>
<circle class="st5" cx="258.3" cy="114.1" r="9.8"/>
<circle class="st5" cx="259.6" cy="115" r="9.8"/>
<path class="st10" d="M264.3,112.2c-0.1,0.2,0.1,1.5,0.2,2.4c0.1,1.1-0.1,1.9-1.6,2.3c-1.2,0.3-1.8,0.4-2.8,0.7
	c-0.9,0.2-1.8,0.4-2.1,0.4c-0.5,0.1-1.2-0.4-1.5-1c-0.2-0.6-0.4-1.2-0.5-2.2c-0.1-0.5,0-1,0-1.2c0,0,0.4,0,0.9-0.1
	c0.8-0.2,1.7-0.4,3.1-0.6C262.2,112.5,264.3,112.2,264.3,112.2z"/>
<path class="st9" d="M271.4,138.4"/>
<path class="st9" d="M281.6,152.5c-0.6-3-12.7-23.6-14.5-26.6c-1.8-3-6.1-8.3-8.6-9.1c0,0-1.6-4.2,2-3.6c2.6,0.5,7.3,6.2,8.5,7.9
	c4,5.8,18.3,31.3,18.3,31.3"/>
<g>
	<circle cx="215" cy="82.2" r="7.1"/>
	<text transform="matrix(1 0 0 1 212.2065 85.5674)" class="st15 st7 st16">1</text>
</g>
</svg>
