<?xml version="1.0" encoding="utf-8"?>
<!-- Generator: Adobe Illustrator 19.1.0, SVG Export Plug-In . SVG Version: 6.00 Build 0)  -->
<svg version="1.1" xmlns="http://www.w3.org/2000/svg" xmlns:xlink="http://www.w3.org/1999/xlink" x="0px" y="0px" width="342px"
	 height="378px" viewBox="0 0 342 378" style="enable-background:new 0 0 342 378;" xml:space="preserve">
<style type="text/css">
	.st0{fill:#FFFFFF;stroke:#000000;stroke-width:0.5;stroke-miterlimit:10;}
	.st1{fill:none;stroke:#000000;stroke-width:0.5;stroke-miterlimit:10;}
	.st2{fill:none;stroke:#000000;stroke-miterlimit:10;}
	.st3{fill:none;stroke:#000000;stroke-width:0.75;stroke-miterlimit:10;}
	.st4{fill:none;stroke:#E70095;stroke-width:0.569;stroke-miterlimit:10;}
	.st5{fill-rule:evenodd;clip-rule:evenodd;fill:none;stroke:#000000;stroke-width:0.5;stroke-miterlimit:10;}
	.st6{fill-rule:evenodd;clip-rule:evenodd;}
	.st7{fill:#FFFFFF;}
	.st8{fill-rule:evenodd;clip-rule:evenodd;stroke:#000000;stroke-width:0.1423;stroke-miterlimit:10;}
	.st9{fill-rule:evenodd;clip-rule:evenodd;fill:#FFFFFF;}
	.st10{fill-rule:evenodd;clip-rule:evenodd;fill:none;stroke:#000000;stroke-width:0.569;stroke-miterlimit:10;}
	.st11{font-family:'HelveticaNeue-Medium';}
	.st12{font-size:3.6756px;}
	.st13{fill:#FFFFFF;stroke:#000000;stroke-width:0.569;stroke-miterlimit:10;}
	.st14{font-size:3.1639px;}
	.st15{font-size:3.6755px;}
	.st16{font-size:3.4726px;}
	.st17{font-size:3.1253px;}
	.st18{font-size:3.0086px;}
	.st19{font-size:2.6613px;}
	.st20{font-size:2.5025px;}
	.st21{fill:none;stroke:#000000;stroke-width:0.569;stroke-miterlimit:10;}
	.st22{fill:#939598;stroke:#000000;stroke-width:0.5;stroke-miterlimit:10;}
	.st23{font-size:5.4011px;}
	.st24{fill:none;}
	.st25{fill:none;stroke:#000000;stroke-width:0.8535;stroke-miterlimit:10;}
	.st26{fill:#FFFFFF;stroke:#000000;stroke-miterlimit:10;}
	.st27{fill-rule:evenodd;clip-rule:evenodd;fill:#FFFFFF;stroke:#000000;stroke-width:0.2845;stroke-miterlimit:10;}
	.st28{fill-rule:evenodd;clip-rule:evenodd;fill:none;stroke:#FFFFFF;stroke-width:2.2761;stroke-miterlimit:10;}
	.st29{stroke:#FFFFFF;stroke-width:1.8113;stroke-miterlimit:10;}
	.st30{fill:#FFFFFF;stroke:#FFFFFF;stroke-width:0.569;}
	.st31{fill:#010101;}
	.st32{font-family:'Helvetica';}
	.st33{font-size:11.5095px;}
	.st34{fill:#231F20;stroke:#FFFFFF;stroke-width:1.707;}
</style>
<g id="Layer_2">
	<path class="st0" d="M112.7,168.8c0.2,2.1-0.9,2-0.9,2s-3.2,0.7-4.7,0.9c-1.5,0.2-1.4-2-1.4-2s-1.1-10.2-1.3-12.5
		c-0.2-2.3,0.2-2.4,0.2-2.4l6.4-0.9l0.9,1.9"/>
	<polyline class="st1" points="104.6,41.4 114.5,41.1 114.4,37.3 119.4,37.3 119.5,40.9 178.7,39.1 178.7,35 183,34.9 183.4,38.9 
		223.8,37.6 	"/>
	<line class="st1" x1="165.1" y1="59.3" x2="104.5" y2="42.9"/>
	<line class="st1" x1="249.2" y1="54.3" x2="164.6" y2="40.6"/>
	<path class="st2" d="M235.5,330.7l-2.1,36.8c0,0,0,6.8,11.6,5.6c0,0,5.5-0.8,6.1-5.6c0.7-4.8,4.1-40.4,4.1-40.4
		s6.1-64.5,11.8-137.7c3-39,6-80.6,7.8-116.1l-2-1.8l-2.7-0.5v-3.3c0,0,0.8-1.3-1.5-3.3s-3.3-3.3-3.3-3.3s-5.6-1.8-11.6-2.2
		c-6-0.3-13.1-0.3-13.1-0.3L188,58.8c0,0-8.8,0.3-9.6,0.7c0,0-6.1,1-2,3.5c0,0,1.5,1.2,7.8,1.3c6.3,0.2,65,0.5,65,0.5l2.5,3v4.5
		c0,0-3.1,0.7-3,3.6s-3.8,92.5-3.8,92.5"/>
	<path class="st3" d="M252,69.4c0,0,1.2-1.7,0.5-3.8l-2.7-3.1c0,0-1.5-0.8-4.3-0.7S185,61.1,185,61.1s-7.8,0.3-8.5-1.3"/>
	<path class="st3" d="M269.9,71.7c0,0,0,3,4,2.5"/>
	<path class="st1" d="M233.9,352.5l-50.2,17.9c0,0-2,0.2-2.7-0.4"/>
	<path class="st4" d="M183.7,370.4"/>
	<path class="st1" d="M174.7,61.8l-7,0.6l-2.9,2.1c-1-7.7,4.5-7,4.5-7l77.9-2.4c4.2-0.6,2.6,3.1,2.6,3.1"/>
	<path class="st1" d="M165.9,65.5c0,0-5.6,1.4-5.3-1.2l-1.1,0.4l8.5,283.6"/>
	<path class="st5" d="M147.7,75.2c0,0,1.3-4.6-4.1-6.3s-32.6-10.8-32.6-10.8s-1.7-0.2-1.5,3.8s1.8,22.9,1.8,22.9l35.1,20.2
		c0,0,2.5,0.5,2.7-3.1S147.7,75.2,147.7,75.2z"/>
	<path class="st5" d="M119.1,174.6c0,0-2-2.3-2.2,1.5s1.2,16.9,1.2,16.9s0.2,2.5,1.8,4.6s32.5,42.1,32.5,42.1s1.8,0.7,1.8-3.8
		s-0.7-17.9-0.7-17.9s-0.8-3.8-3-6.1S119.1,174.6,119.1,174.6z"/>
	<path class="st6" d="M197.2,208.7c0-1.3-1.1-2.4-2.5-2.3c-1.4,0-2.5,1.2-2.5,2.5s1.1,2.4,2.5,2.3
		C196.1,211.1,197.2,210,197.2,208.7z"/>
	<path class="st7" d="M196.6,208.7c0,1-0.8,1.9-1.9,1.9c-1,0-1.9-0.8-1.9-1.8c0-1,0.8-1.9,1.9-1.9
		C195.7,206.9,196.6,207.7,196.6,208.7z"/>
	<path class="st6" d="M193.9,208.7l0.7,1.3c0,0.1,0.1,0.1,0.2,0c0,0,0,0,0,0l0.7-1.4c0.2-0.5,0.1-1-0.4-1.2c-0.5-0.2-1,0-1.3,0.4
		C193.7,208.2,193.7,208.5,193.9,208.7z"/>
	<polygon class="st8" points="195.1,195.3 195.7,193.1 196.9,193.1 196.9,192.8 195.5,192.8 195.1,194.3 194.7,190.7 194.5,190.8 
		193.9,192.9 192.8,192.9 192.8,193.2 194.1,193.2 194.6,191.7 194.9,195.3 	"/>
	<g>
		<path class="st6" d="M195.1,202.7c0-0.2-0.2-0.4-0.5-0.4s-0.5,0.2-0.5,0.5c0,0.2,0.2,0.4,0.5,0.4
			C194.9,203.1,195.1,202.9,195.1,202.7z"/>
		<path class="st6" d="M195.1,198.9c0-0.3-0.2-0.4-0.5-0.4c-0.3,0-0.5,0.2-0.5,0.5c0,0,0,0,0,0l0.3,2.9c0,0.1,0.1,0.2,0.2,0.1
			c0.1,0,0.1-0.1,0.2-0.2L195.1,198.9L195.1,198.9z"/>
	</g>
	<path class="st9" d="M195.1,208.3c0,0.2-0.2,0.4-0.4,0.4c-0.2,0-0.4-0.2-0.4-0.4c0-0.2,0.2-0.4,0.4-0.4
		C194.9,207.9,195.1,208.1,195.1,208.3z"/>
	
		<ellipse transform="matrix(0.9826 0.1857 -0.1857 0.9826 39.3437 -31.7579)" class="st6" cx="189.2" cy="194.1" rx="1.6" ry="1.7"/>
	
		<ellipse transform="matrix(0.9826 0.1857 -0.1857 0.9826 40.7864 -31.6227)" class="st6" cx="189.2" cy="201.9" rx="1.6" ry="1.7"/>
	
		<ellipse transform="matrix(0.9826 0.1857 -0.1857 0.9826 42.2291 -31.4876)" class="st6" cx="189.2" cy="209.7" rx="1.6" ry="1.7"/>
	<polygon class="st5" points="182,190.6 182.3,218.4 209.4,212.8 210.1,185.2 	"/>
	<polygon class="st5" points="181.8,144.2 210.6,140.3 211.5,100.4 181.2,103.4 	"/>
	<line class="st5" x1="210.1" y1="185.2" x2="210.6" y2="140.3"/>
	<line class="st5" x1="182" y1="190.6" x2="181.8" y2="144.2"/>
	<polyline class="st5" points="211.5,100.4 212.2,65.5 180.9,67.2 181.2,103.4 	"/>
	<path d="M193,170.5c0,0.8-0.7,1.5-1.6,1.6c-0.9,0.1-1.6-0.4-1.7-1.1c0-0.8,0.7-1.5,1.6-1.6C192.3,169.2,193,169.7,193,170.5z
		 M193.4,170.4c0-1-1-1.6-2.1-1.4c-1.1,0.2-2,1.1-2,2c0,1,1,1.6,2.1,1.4C192.6,172.3,193.5,171.4,193.4,170.4z M199.5,171.1l0.4-0.1
		l-0.1-3.1l-0.4,0.1L199.5,171.1z M194,171.9l0.4-0.1l-0.1-3.1l-0.4,0.1L194,171.9z M188.5,172.7l0.4-0.1l-0.1-3.1l-0.4,0.1
		L188.5,172.7z M198.5,169.6c0,0.8-0.7,1.5-1.6,1.6c-0.9,0.1-1.6-0.4-1.7-1.1c0-0.8,0.7-1.5,1.6-1.6
		C197.7,168.4,198.5,168.9,198.5,169.6z M198.9,169.6c0-1-1-1.6-2.1-1.4c-1.1,0.2-2,1.1-2,2c0,1,1,1.6,2.1,1.4
		C198.1,171.5,198.9,170.5,198.9,169.6z"/>
	<path class="st6" d="M194.3,108.1l5.6-0.6c0.4,0.8,1.4,1.1,2.3,0.6c0.1-0.1,0.2-0.2,0.4-0.2c0.1-0.1,0.1-0.1,0-0.2c0,0-0.1,0-0.1,0
		l-0.5,0.1c0,0-0.1,0-0.1,0l-0.8-0.8c0,0-0.1-0.1,0-0.2l0.7-1c0,0,0.1-0.1,0.1-0.1l0.6-0.1c0.1,0,0.1-0.1,0.1-0.1c0,0,0-0.1,0-0.1
		c-0.7-0.5-1.8-0.4-2.4,0.3c-0.1,0.2-0.2,0.3-0.3,0.5l-5.6,0.6c-0.4-0.8-1.4-1.1-2.3-0.6c-0.1,0.1-0.2,0.2-0.4,0.2
		c-0.1,0.1-0.1,0.1,0,0.2c0,0,0.1,0,0.1,0l0.5-0.1c0,0,0.1,0,0.1,0l0.8,0.8c0,0,0.1,0.1,0,0.2l-0.7,1c0,0-0.1,0.1-0.1,0.1l-0.6,0.1
		c-0.1,0-0.1,0.1-0.1,0.1c0,0,0,0.1,0,0.1c0.7,0.5,1.8,0.4,2.4-0.3C194.1,108.5,194.2,108.3,194.3,108.1z"/>
	<polygon class="st6" points="196.8,136.6 196.9,137.4 194,137.6 194.1,137.9 195.2,137.9 195.2,138.6 194.5,138.6 194.6,140 
		196.6,139.8 196.5,138.5 195.8,138.6 195.7,137.8 198.6,137.7 198.7,138.4 198,138.4 198.1,139.8 200.1,139.7 200,138.3 
		199.3,138.4 199.2,137.7 200.2,137.6 200.1,137.2 197.5,137.4 197.4,136.6 198.2,136.5 198.1,135.1 196,135.2 196.1,136.6 	"/>
	<path d="M193.1,73c0.1,0,0.3,0,0.4,0.1l0.9,0.8c0.3,0.2,0.6,0.3,1,0.3l0.6,0l0,0.3l1-0.1l0-0.9l-1,0.1l0,0.3l-0.6,0
		c-0.3,0-0.6-0.1-0.7-0.2l-0.8-0.7l4-0.3l0,0.3l0.9-0.5l-0.9-0.4l0,0.3l-5.5,0.4l0.9-0.8c0.2-0.2,0.5-0.3,0.8-0.3l0.8-0.1
		c0.1,0.2,0.4,0.3,0.6,0.2c0.3-0.1,0.4-0.4,0.3-0.6c-0.1-0.2-0.4-0.3-0.6-0.2c-0.1,0.1-0.3,0.2-0.3,0.3l-0.8,0.1
		c-0.4,0-0.7,0.2-1,0.4l-0.9,0.9c-0.1,0.1-0.2,0.2-0.4,0.2l-0.4,0c-0.1-0.4-0.5-0.6-1-0.5c-0.5,0.1-0.8,0.5-0.7,0.9
		c0.1,0.4,0.5,0.6,1,0.5c0.3-0.1,0.6-0.3,0.7-0.6L193.1,73z"/>
	<polygon class="st6" points="202.4,147 202.5,162.8 193.5,164.2 193.2,161.1 191.4,161.3 191.1,159.7 189.2,159.7 189,153.9 
		191.1,153.6 191.1,152.6 193,152.2 193.5,148.4 	"/>
	<polygon class="st6" points="202.4,130.7 202.4,113.8 194.6,114.7 191.7,114.3 191.5,120.2 189.2,120.4 189.2,126.9 191.5,126.9 
		191.7,132.1 194.6,131.4 	"/>
	<polygon class="st10" points="205.9,109.9 188.3,112 188.3,134.5 205.4,132.5 	"/>
	<polygon class="st10" points="188.4,145.9 205,143.5 204.8,164.2 188.6,167 	"/>
	<polygon class="st10" points="189.7,79.4 197.9,78.9 197.9,98.3 189.7,98.9 	"/>
	<polygon class="st6" points="189.9,81.4 193.3,81.3 193.3,96.4 189.9,96.9 	"/>
	<polygon class="st6" points="188.5,176.6 191.6,176.1 191.9,185.4 188.8,185.9 	"/>
	<g>
		<polygon class="st5" points="214,147 212.5,146.1 212.7,144.1 214.3,143 215.8,143.8 215.6,145.8 		"/>
		<polygon class="st5" points="218.9,146.3 217.5,145.5 217.6,143.5 219.3,142.4 220.7,143.2 220.6,145.2 		"/>
		<polygon class="st5" points="223.9,145.7 222.4,144.9 222.6,142.9 224.2,141.7 225.7,142.6 225.5,144.6 		"/>
		<polygon class="st5" points="228.8,145.1 227.3,144.2 227.5,142.2 229.2,141.1 230.6,141.9 230.5,143.9 		"/>
		<polygon class="st5" points="233.8,144.4 232.3,143.6 232.5,141.6 234.1,140.5 235.6,141.3 235.4,143.3 		"/>
		<polygon class="st5" points="238.7,143.8 237.2,143 237.4,141 239,139.8 240.5,140.7 240.3,142.7 		"/>
	</g>
	<g>
		<polygon class="st5" points="216.6,151.3 215.2,150.5 215.3,148.5 217,147.4 218.4,148.2 218.3,150.2 		"/>
		<polygon class="st5" points="221.6,150.7 220.1,149.9 220.3,147.9 221.9,146.7 223.4,147.6 223.2,149.6 		"/>
		<polygon class="st5" points="226.5,150.1 225,149.2 225.2,147.2 226.9,146.1 228.3,146.9 228.2,148.9 		"/>
		<polygon class="st5" points="231.5,149.4 230,148.6 230.2,146.6 231.8,145.5 233.3,146.3 233.1,148.3 		"/>
		<polygon class="st5" points="236.4,148.8 234.9,148 235.1,146 236.7,144.8 238.2,145.7 238,147.7 		"/>
		<polygon class="st5" points="241.3,148.2 239.9,147.3 240,145.3 241.7,144.2 243.1,145 243,147 		"/>
	</g>
	<g>
		<polygon class="st5" points="214,137 212.5,136.1 212.7,134.1 214.3,133 215.8,133.8 215.6,135.8 		"/>
		<polygon class="st5" points="219.1,136.3 217.7,135.5 217.8,133.5 219.5,132.4 220.9,133.2 220.8,135.2 		"/>
		<polygon class="st5" points="224.3,135.7 222.8,134.9 223,132.9 224.6,131.7 226.1,132.6 225.9,134.6 		"/>
		<polygon class="st5" points="229.4,135.1 228,134.2 228.1,132.2 229.8,131.1 231.2,131.9 231.1,133.9 		"/>
		<polygon class="st5" points="234.6,134.4 233.1,133.6 233.3,131.6 234.9,130.5 236.4,131.3 236.2,133.3 		"/>
		<polygon class="st5" points="239.7,133.8 238.3,133 238.4,131 240.1,129.8 241.5,130.7 241.4,132.7 		"/>
	</g>
	<g>
		<polygon class="st5" points="216.6,141.3 215.2,140.5 215.3,138.5 217,137.4 218.4,138.2 218.3,140.2 		"/>
		<polygon class="st5" points="221.6,140.7 220.1,139.9 220.3,137.9 221.9,136.7 223.4,137.6 223.2,139.6 		"/>
		<polygon class="st5" points="226.5,140.1 225,139.2 225.2,137.2 226.9,136.1 228.3,136.9 228.2,138.9 		"/>
		<polygon class="st5" points="231.5,139.4 230,138.6 230.2,136.6 231.8,135.5 233.3,136.3 233.1,138.3 		"/>
		<polygon class="st5" points="236.4,138.8 234.9,138 235.1,136 236.7,134.8 238.2,135.7 238,137.7 		"/>
		<polygon class="st5" points="241.3,138.2 239.9,137.3 240,135.3 241.7,134.2 243.1,135 243,137 		"/>
	</g>
	<g>
		<polygon class="st5" points="215.4,126.6 213.9,125.8 214.1,123.8 215.7,122.7 217.2,123.5 217,125.5 		"/>
		<polygon class="st5" points="220.3,126 218.8,125.2 219,123.2 220.6,122 222.1,122.9 221.9,124.9 		"/>
		<polygon class="st5" points="225.2,125.4 223.8,124.5 223.9,122.5 225.6,121.4 227.1,122.2 226.9,124.2 		"/>
		<polygon class="st5" points="230.2,124.7 228.7,123.9 228.9,121.9 230.5,120.8 232,121.6 231.8,123.6 		"/>
		<polygon class="st5" points="235.1,124.1 233.7,123.3 233.8,121.3 235.5,120.1 236.9,121 236.8,123 		"/>
		<polygon class="st5" points="240.1,123.5 238.6,122.6 238.8,120.6 240.4,119.5 241.9,120.3 241.7,122.3 		"/>
	</g>
	<g>
		<polygon class="st5" points="218,131 216.5,130.1 216.7,128.2 218.3,127 219.8,127.9 219.6,129.9 		"/>
		<polygon class="st5" points="222.9,130.4 221.5,129.5 221.6,127.5 223.3,126.4 224.8,127.2 224.6,129.2 		"/>
		<polygon class="st5" points="227.9,129.7 226.4,128.9 226.6,126.9 228.2,125.7 229.7,126.6 229.5,128.6 		"/>
		<polygon class="st5" points="232.8,129.1 231.4,128.2 231.5,126.3 233.2,125.1 234.6,126 234.5,128 		"/>
		<polygon class="st5" points="237.8,128.5 236.3,127.6 236.5,125.6 238.1,124.5 239.6,125.3 239.4,127.3 		"/>
		<polygon class="st5" points="242.7,127.8 241.2,127 241.4,125 243,123.8 244.5,124.7 244.3,126.7 		"/>
	</g>
	<g>
		<polygon class="st5" points="215.4,116.6 213.9,115.8 214.1,113.8 215.7,112.7 217.2,113.5 217,115.5 		"/>
		<polygon class="st5" points="220.3,116 218.8,115.2 219,113.2 220.6,112 222.1,112.9 221.9,114.9 		"/>
		<polygon class="st5" points="225.2,115.4 223.8,114.5 223.9,112.5 225.6,111.4 227.1,112.2 226.9,114.2 		"/>
		<polygon class="st5" points="230.2,114.7 228.7,113.9 228.9,111.9 230.5,110.8 232,111.6 231.8,113.6 		"/>
		<polygon class="st5" points="235.1,114.1 233.7,113.3 233.8,111.3 235.5,110.1 236.9,111 236.8,113 		"/>
		<polygon class="st5" points="240.1,113.5 238.6,112.6 238.8,110.6 240.4,109.5 241.9,110.3 241.7,112.3 		"/>
	</g>
	<g>
		<polygon class="st5" points="218,121 216.5,120.1 216.7,118.2 218.3,117 219.8,117.9 219.6,119.9 		"/>
		<polygon class="st5" points="222.9,120.4 221.5,119.5 221.6,117.5 223.3,116.4 224.8,117.2 224.6,119.2 		"/>
		<polygon class="st5" points="227.9,119.7 226.4,118.9 226.6,116.9 228.2,115.7 229.7,116.6 229.5,118.6 		"/>
		<polygon class="st5" points="232.8,119.1 231.4,118.2 231.5,116.3 233.2,115.1 234.6,116 234.5,118 		"/>
		<polygon class="st5" points="237.8,118.5 236.3,117.6 236.5,115.6 238.1,114.5 239.6,115.3 239.4,117.3 		"/>
		<polygon class="st5" points="242.7,117.8 241.2,117 241.4,115 243,113.8 244.5,114.7 244.3,116.7 		"/>
	</g>
	<g>
		<polygon class="st5" points="215.4,106.6 213.9,105.8 214.1,103.8 215.7,102.7 217.2,103.5 217,105.5 		"/>
		<polygon class="st5" points="220.3,106 218.8,105.2 219,103.2 220.6,102 222.1,102.9 221.9,104.9 		"/>
		<polygon class="st5" points="225.2,105.4 223.8,104.5 223.9,102.5 225.6,101.4 227.1,102.2 226.9,104.2 		"/>
		<polygon class="st5" points="230.2,104.7 228.7,103.9 228.9,101.9 230.5,100.8 232,101.6 231.8,103.6 		"/>
		<polygon class="st5" points="235.1,104.1 233.7,103.3 233.8,101.3 235.5,100.1 236.9,101 236.8,103 		"/>
		<polygon class="st5" points="240.1,103.5 238.6,102.6 238.8,100.6 240.4,99.5 241.9,100.3 241.7,102.3 		"/>
	</g>
	<g>
		<polygon class="st5" points="218,111 216.5,110.1 216.7,108.2 218.3,107 219.8,107.9 219.6,109.9 		"/>
		<polygon class="st5" points="222.9,110.4 221.5,109.5 221.6,107.5 223.3,106.4 224.8,107.2 224.6,109.2 		"/>
		<polygon class="st5" points="227.9,109.7 226.4,108.9 226.6,106.9 228.2,105.7 229.7,106.6 229.5,108.6 		"/>
		<polygon class="st5" points="232.8,109.1 231.4,108.2 231.5,106.3 233.2,105.1 234.6,106 234.5,108 		"/>
		<polygon class="st5" points="237.8,108.5 236.3,107.6 236.5,105.6 238.1,104.5 239.6,105.3 239.4,107.3 		"/>
		<polygon class="st5" points="242.7,107.8 241.2,107 241.4,105 243,103.8 244.5,104.7 244.3,106.7 		"/>
	</g>
	<g>
		<polygon class="st5" points="215.4,96.6 213.9,95.8 214.1,93.8 215.7,92.7 217.2,93.5 217,95.5 		"/>
		<polygon class="st5" points="220.3,96 218.8,95.2 219,93.2 220.6,92 222.1,92.9 221.9,94.9 		"/>
		<polygon class="st5" points="225.2,95.4 223.8,94.5 223.9,92.5 225.6,91.4 227.1,92.2 226.9,94.2 		"/>
		<polygon class="st5" points="230.2,94.7 228.7,93.9 228.9,91.9 230.5,90.8 232,91.6 231.8,93.6 		"/>
		<polygon class="st5" points="235.1,94.1 233.7,93.3 233.8,91.3 235.5,90.1 236.9,91 236.8,93 		"/>
		<polygon class="st5" points="240.1,93.5 238.6,92.6 238.8,90.6 240.4,89.5 241.9,90.3 241.7,92.3 		"/>
	</g>
	<g>
		<polygon class="st5" points="218,101 216.5,100.1 216.7,98.2 218.3,97 219.8,97.9 219.6,99.9 		"/>
		<polygon class="st5" points="222.9,100.4 221.5,99.5 221.6,97.5 223.3,96.4 224.8,97.2 224.6,99.2 		"/>
		<polygon class="st5" points="227.9,99.7 226.4,98.9 226.6,96.9 228.2,95.7 229.7,96.6 229.5,98.6 		"/>
		<polygon class="st5" points="232.8,99.1 231.4,98.2 231.5,96.3 233.2,95.1 234.6,96 234.5,98 		"/>
		<polygon class="st5" points="237.8,98.5 236.3,97.6 236.5,95.6 238.1,94.5 239.6,95.3 239.4,97.3 		"/>
		<polygon class="st5" points="242.7,97.8 241.2,97 241.4,95 243,93.8 244.5,94.7 244.3,96.7 		"/>
	</g>
	<g>
		<polygon class="st5" points="216.2,86.8 214.7,85.9 214.9,83.9 216.5,82.8 218,83.6 217.8,85.6 		"/>
		<polygon class="st5" points="221.1,86.1 219.7,85.3 219.8,83.3 221.5,82.2 222.9,83 222.8,85 		"/>
		<polygon class="st5" points="226.1,85.5 224.6,84.7 224.8,82.7 226.4,81.5 227.9,82.4 227.7,84.4 		"/>
		<polygon class="st5" points="231,84.9 229.5,84 229.7,82 231.3,80.9 232.8,81.7 232.6,83.7 		"/>
		<polygon class="st5" points="235.9,84.2 234.5,83.4 234.6,81.4 236.3,80.3 237.8,81.1 237.6,83.1 		"/>
		<polygon class="st5" points="240.9,83.6 239.4,82.8 239.6,80.8 241.2,79.6 242.7,80.5 242.5,82.5 		"/>
	</g>
	<g>
		<polygon class="st5" points="218.8,91.1 217.4,90.3 217.5,88.3 219.2,87.2 220.6,88 220.5,90 		"/>
		<polygon class="st5" points="223.8,90.5 222.3,89.7 222.5,87.7 224.1,86.5 225.6,87.4 225.4,89.4 		"/>
		<polygon class="st5" points="228.7,89.9 227.2,89 227.4,87 229,85.9 230.5,86.7 230.3,88.7 		"/>
		<polygon class="st5" points="233.6,89.2 232.2,88.4 232.3,86.4 234,85.3 235.5,86.1 235.3,88.1 		"/>
		<polygon class="st5" points="238.6,88.6 237.1,87.8 237.3,85.8 238.9,84.6 240.4,85.5 240.2,87.5 		"/>
		<polygon class="st5" points="243.5,88 242.1,87.1 242.2,85.1 243.9,84 245.3,84.8 245.2,86.8 		"/>
	</g>
	<g>
		<polygon class="st5" points="216.2,76.8 214.7,75.9 214.9,73.9 216.5,72.8 218,73.6 217.8,75.6 		"/>
		<polygon class="st5" points="221.1,76.1 219.7,75.3 219.8,73.3 221.5,72.2 222.9,73 222.8,75 		"/>
		<polygon class="st5" points="226.1,75.5 224.6,74.7 224.8,72.7 226.4,71.5 227.9,72.4 227.7,74.4 		"/>
		<polygon class="st5" points="231,74.9 229.5,74 229.7,72 231.3,70.9 232.8,71.7 232.6,73.7 		"/>
		<polygon class="st5" points="235.9,74.2 234.5,73.4 234.6,71.4 236.3,70.3 237.8,71.1 237.6,73.1 		"/>
		<polygon class="st5" points="240.9,73.6 239.4,72.8 239.6,70.8 241.2,69.6 242.7,70.5 242.5,72.5 		"/>
	</g>
	<g>
		<polygon class="st5" points="218.8,81.1 217.4,80.3 217.5,78.3 219.2,77.2 220.6,78 220.5,80 		"/>
		<polygon class="st5" points="223.8,80.5 222.3,79.7 222.5,77.7 224.1,76.5 225.6,77.4 225.4,79.4 		"/>
		<polygon class="st5" points="228.7,79.9 227.2,79 227.4,77 229,75.9 230.5,76.7 230.3,78.7 		"/>
		<polygon class="st5" points="233.6,79.2 232.2,78.4 232.3,76.4 234,75.3 235.5,76.1 235.3,78.1 		"/>
		<polygon class="st5" points="238.6,78.6 237.1,77.8 237.3,75.8 238.9,74.6 240.4,75.5 240.2,77.5 		"/>
		<polygon class="st5" points="243.5,78 242.1,77.1 242.2,75.1 243.9,74 245.3,74.8 245.2,76.8 		"/>
	</g>
	<g>
		<polygon class="st5" points="214,156.3 212.5,155.5 212.7,153.5 214.3,152.3 215.8,153.2 215.6,155.2 		"/>
		<polygon class="st5" points="218.9,155.7 217.5,154.8 217.6,152.8 219.3,151.7 220.7,152.5 220.6,154.5 		"/>
		<polygon class="st5" points="223.9,155 222.4,154.2 222.6,152.2 224.2,151.1 225.7,151.9 225.5,153.9 		"/>
		<polygon class="st5" points="228.8,154.4 227.3,153.6 227.5,151.6 229.2,150.4 230.6,151.3 230.5,153.3 		"/>
		<polygon class="st5" points="233.8,153.8 232.3,152.9 232.5,150.9 234.1,149.8 235.6,150.6 235.4,152.6 		"/>
		<polygon class="st5" points="238.7,153.1 237.2,152.3 237.4,150.3 239,149.2 240.5,150 240.3,152 		"/>
	</g>
	<g>
		<polygon class="st5" points="216.6,160.7 215.2,159.8 215.3,157.8 217,156.7 218.4,157.5 218.3,159.5 		"/>
		<polygon class="st5" points="221.6,160 220.1,159.2 220.3,157.2 221.9,156.1 223.4,156.9 223.2,158.9 		"/>
		<polygon class="st5" points="226.5,159.4 225,158.6 225.2,156.6 226.9,155.4 228.3,156.3 228.2,158.3 		"/>
		<polygon class="st5" points="231.5,158.8 230,157.9 230.2,155.9 231.8,154.8 233.3,155.6 233.1,157.6 		"/>
		<polygon class="st5" points="236.4,158.1 234.9,157.3 235.1,155.3 236.7,154.2 238.2,155 238,157 		"/>
		<polygon class="st5" points="241.3,157.5 239.9,156.7 240,154.7 241.7,153.5 243.1,154.4 243,156.4 		"/>
	</g>
	<g>
		<polygon class="st5" points="214,165.6 212.5,164.8 212.7,162.8 214.3,161.7 215.8,162.5 215.6,164.5 		"/>
		<polygon class="st5" points="218.9,165 217.5,164.2 217.6,162.2 219.3,161 220.7,161.9 220.6,163.9 		"/>
		<polygon class="st5" points="223.9,164.4 222.4,163.5 222.6,161.5 224.2,160.4 225.7,161.2 225.5,163.2 		"/>
		<polygon class="st5" points="228.8,163.7 227.3,162.9 227.5,160.9 229.2,159.8 230.6,160.6 230.5,162.6 		"/>
		<polygon class="st5" points="233.8,163.1 232.3,162.3 232.5,160.3 234.1,159.1 235.6,160 235.4,162 		"/>
		<polygon class="st5" points="238.7,162.5 237.2,161.6 237.4,159.6 239,158.5 240.5,159.3 240.3,161.3 		"/>
	</g>
	<g>
		<polygon class="st5" points="216.6,170 215.2,169.2 215.3,167.2 217,166 218.4,166.9 218.3,168.9 		"/>
		<polygon class="st5" points="221.6,169.4 220.1,168.5 220.3,166.5 221.9,165.4 223.4,166.2 223.2,168.2 		"/>
		<polygon class="st5" points="226.5,168.7 225,167.9 225.2,165.9 226.9,164.8 228.3,165.6 228.2,167.6 		"/>
		<polygon class="st5" points="231.5,168.1 230,167.3 230.2,165.3 231.8,164.1 233.3,165 233.1,167 		"/>
		<polygon class="st5" points="236.4,167.5 234.9,166.6 235.1,164.6 236.7,163.5 238.2,164.3 238,166.3 		"/>
		<polygon class="st5" points="241.3,166.8 239.9,166 240,164 241.7,162.9 243.1,163.7 243,165.7 		"/>
	</g>
	<g>
		<polygon class="st5" points="214,175 212.5,174.1 212.7,172.1 214.3,171 215.8,171.8 215.6,173.8 		"/>
		<polygon class="st5" points="218.9,174.3 217.5,173.5 217.6,171.5 219.3,170.4 220.7,171.2 220.6,173.2 		"/>
		<polygon class="st5" points="223.9,173.7 222.4,172.9 222.6,170.9 224.2,169.7 225.7,170.6 225.5,172.6 		"/>
		<polygon class="st5" points="228.8,173.1 227.3,172.2 227.5,170.2 229.2,169.1 230.6,169.9 230.5,171.9 		"/>
		<polygon class="st5" points="233.8,172.4 232.3,171.6 232.5,169.6 234.1,168.5 235.6,169.3 235.4,171.3 		"/>
		<polygon class="st5" points="238.7,171.8 237.2,171 237.4,169 239,167.8 240.5,168.7 240.3,170.7 		"/>
	</g>
	<g>
		<polygon class="st5" points="216.6,179.3 215.2,178.5 215.3,176.5 217,175.4 218.4,176.2 218.3,178.2 		"/>
		<polygon class="st5" points="221.6,178.7 220.1,177.9 220.3,175.9 221.9,174.7 223.4,175.6 223.2,177.6 		"/>
		<polygon class="st5" points="226.5,178.1 225,177.2 225.2,175.2 226.9,174.1 228.3,174.9 228.2,176.9 		"/>
		<polygon class="st5" points="231.5,177.4 230,176.6 230.2,174.6 231.8,173.5 233.3,174.3 233.1,176.3 		"/>
		<polygon class="st5" points="236.4,176.8 234.9,176 235.1,174 236.7,172.8 238.2,173.7 238,175.7 		"/>
		<polygon class="st5" points="241.3,176.2 239.9,175.3 240,173.3 241.7,172.2 243.1,173 243,175 		"/>
	</g>
	<g>
		<polygon class="st5" points="214,184.3 212.5,183.5 212.7,181.5 214.3,180.3 215.8,181.2 215.6,183.2 		"/>
		<polygon class="st5" points="218.9,183.7 217.5,182.8 217.6,180.8 219.3,179.7 220.7,180.5 220.6,182.5 		"/>
		<polygon class="st5" points="223.9,183 222.4,182.2 222.6,180.2 224.2,179.1 225.7,179.9 225.5,181.9 		"/>
		<polygon class="st5" points="228.8,182.4 227.3,181.6 227.5,179.6 229.2,178.4 230.6,179.3 230.5,181.3 		"/>
		<polygon class="st5" points="233.8,181.8 232.3,180.9 232.5,178.9 234.1,177.8 235.6,178.6 235.4,180.6 		"/>
		<polygon class="st5" points="238.7,181.1 237.2,180.3 237.4,178.3 239,177.2 240.5,178 240.3,180 		"/>
	</g>
	<g>
		<polygon class="st5" points="216.6,188.7 215.2,187.8 215.3,185.8 217,184.7 218.4,185.5 218.3,187.5 		"/>
		<polygon class="st5" points="221.6,188 220.1,187.2 220.3,185.2 221.9,184.1 223.4,184.9 223.2,186.9 		"/>
		<polygon class="st5" points="226.5,187.4 225,186.6 225.2,184.6 226.9,183.4 228.3,184.3 228.2,186.3 		"/>
		<polygon class="st5" points="231.5,186.8 230,185.9 230.2,183.9 231.8,182.8 233.3,183.6 233.1,185.6 		"/>
		<polygon class="st5" points="236.4,186.1 234.9,185.3 235.1,183.3 236.7,182.2 238.2,183 238,185 		"/>
		<polygon class="st5" points="241.3,185.5 239.9,184.7 240,182.7 241.7,181.5 243.1,182.4 243,184.4 		"/>
	</g>
	<g>
		<polygon class="st5" points="213.7,194.2 212.2,193.3 212.4,191.3 214,190.2 215.5,191 215.3,193 		"/>
		<polygon class="st5" points="218.7,193.4 217.2,192.6 217.4,190.6 219,189.4 220.5,190.3 220.3,192.3 		"/>
		<polygon class="st5" points="223.7,192.7 222.2,191.8 222.4,189.9 224,188.7 225.5,189.6 225.3,191.5 		"/>
		<polygon class="st5" points="228.7,192 227.2,191.1 227.4,189.1 229,188 230.5,188.8 230.3,190.8 		"/>
		<polygon class="st5" points="233.7,191.2 232.2,190.4 232.4,188.4 234,187.2 235.5,188.1 235.3,190.1 		"/>
		<polygon class="st5" points="238.7,190.5 237.2,189.6 237.4,187.6 239,186.5 240.5,187.3 240.3,189.3 		"/>
	</g>
	<g>
		<polygon class="st5" points="215.7,199.5 214.2,198.7 214.4,196.7 216,195.5 217.5,196.4 217.3,198.4 		"/>
		<polygon class="st5" points="220.8,198.6 219.3,197.7 219.5,195.7 221.1,194.6 222.6,195.4 222.4,197.4 		"/>
		<polygon class="st5" points="225.9,197.6 224.5,196.8 224.6,194.8 226.3,193.7 227.7,194.5 227.6,196.5 		"/>
		<polygon class="st5" points="231.1,196.7 229.6,195.9 229.8,193.9 231.4,192.7 232.9,193.6 232.7,195.6 		"/>
		<polygon class="st5" points="236.2,195.8 234.7,194.9 234.9,192.9 236.5,191.8 238,192.6 237.8,194.6 		"/>
		<polygon class="st5" points="241.3,194.8 239.9,194 240,192 241.7,190.9 243.1,191.7 243,193.7 		"/>
	</g>
	<g>
		<polygon class="st5" points="213.3,205.8 211.9,205 212,203 213.7,201.9 215.1,202.7 215,204.7 		"/>
		<polygon class="st5" points="218.4,204.6 216.9,203.8 217.1,201.8 218.7,200.6 220.2,201.5 220,203.5 		"/>
		<polygon class="st5" points="223.5,203.4 222,202.6 222.2,200.6 223.8,199.4 225.3,200.3 225.1,202.3 		"/>
		<polygon class="st5" points="228.5,202.2 227.1,201.4 227.3,199.4 228.9,198.2 230.4,199.1 230.2,201.1 		"/>
		<polygon class="st5" points="233.6,201 232.2,200.2 232.3,198.2 234,197 235.4,197.9 235.3,199.9 		"/>
		<polygon class="st5" points="238.7,199.8 237.2,199 237.4,197 239,195.8 240.5,196.7 240.3,198.7 		"/>
	</g>
	<g>
		<polygon class="st5" points="216.6,210.2 215.2,209.3 215.3,207.3 217,206.2 218.4,207 218.3,209 		"/>
		<polygon class="st5" points="221.6,209 220.1,208.1 220.3,206.1 221.9,205 223.4,205.8 223.2,207.8 		"/>
		<polygon class="st5" points="226.5,207.8 225,206.9 225.2,204.9 226.9,203.8 228.3,204.6 228.2,206.6 		"/>
		<polygon class="st5" points="231.5,206.6 230,205.7 230.2,203.7 231.8,202.6 233.3,203.4 233.1,205.4 		"/>
		<polygon class="st5" points="236.4,205.4 234.9,204.5 235.1,202.5 236.7,201.4 238.2,202.2 238,204.2 		"/>
		<polygon class="st5" points="241.3,204.2 239.9,203.3 240,201.3 241.7,200.2 243.1,201 243,203 		"/>
	</g>
	<g>
		<polygon class="st5" points="184,224.2 182.5,223.3 182.6,221.2 184.4,220 185.9,220.9 185.7,223 		"/>
		<polygon class="st5" points="189.1,222.9 187.5,222 187.7,219.9 189.4,218.7 191,219.6 190.8,221.7 		"/>
		<polygon class="st5" points="194.1,221.6 192.6,220.8 192.8,218.7 194.5,217.5 196.1,218.3 195.9,220.4 		"/>
		<polygon class="st5" points="199.2,220.4 197.7,219.5 197.9,217.4 199.6,216.2 201.1,217.1 200.9,219.2 		"/>
		<polygon class="st5" points="204.3,219.1 202.8,218.2 202.9,216.1 204.7,214.9 206.2,215.8 206,217.9 		"/>
		<polygon class="st5" points="209.4,217.9 207.8,217 208,214.9 209.7,213.7 211.3,214.6 211.1,216.7 		"/>
		<polygon class="st5" points="214.4,216.6 212.9,215.7 213.1,213.6 214.8,212.4 216.4,213.3 216.2,215.4 		"/>
		<polygon class="st5" points="219.5,215.4 218,214.5 218.2,212.4 219.9,211.2 221.4,212 221.2,214.1 		"/>
		<polygon class="st5" points="224.6,214.1 223,213.2 223.2,211.1 225,209.9 226.5,210.8 226.3,212.9 		"/>
		<polygon class="st5" points="229.7,212.8 228.1,211.9 228.3,209.8 230,208.6 231.6,209.5 231.4,211.6 		"/>
	</g>
	<g>
		<polygon class="st5" points="187,228.2 185.5,227.3 185.6,225.2 187.4,224 188.9,224.9 188.7,227 		"/>
		<polygon class="st5" points="192.1,226.9 190.5,226 190.7,223.9 192.4,222.7 194,223.6 193.8,225.7 		"/>
		<polygon class="st5" points="197.1,225.6 195.6,224.8 195.8,222.7 197.5,221.5 199.1,222.3 198.9,224.4 		"/>
		<polygon class="st5" points="202.2,224.4 200.7,223.5 200.9,221.4 202.6,220.2 204.1,221.1 203.9,223.2 		"/>
		<polygon class="st5" points="207.3,223.1 205.8,222.2 205.9,220.1 207.7,218.9 209.2,219.8 209,221.9 		"/>
		<polygon class="st5" points="212.4,221.9 210.8,221 211,218.9 212.7,217.7 214.3,218.6 214.1,220.7 		"/>
		<polygon class="st5" points="217.4,220.6 215.9,219.7 216.1,217.6 217.8,216.4 219.4,217.3 219.2,219.4 		"/>
		<polygon class="st5" points="222.5,219.4 221,218.5 221.2,216.4 222.9,215.2 224.4,216 224.2,218.1 		"/>
		<polygon class="st5" points="227.6,218.1 226,217.2 226.2,215.1 228,213.9 229.5,214.8 229.3,216.9 		"/>
		<polygon class="st5" points="232.7,216.8 231.1,215.9 231.3,213.8 233,212.6 234.6,213.5 234.4,215.6 		"/>
	</g>
	<g>
		<polygon class="st5" points="184,233.5 182.5,232.6 182.6,230.5 184.4,229.3 185.9,230.2 185.7,232.3 		"/>
		<polygon class="st5" points="189.1,232.2 187.5,231.3 187.7,229.3 189.4,228 191,228.9 190.8,231 		"/>
		<polygon class="st5" points="194.1,231 192.6,230.1 192.8,228 194.5,226.8 196.1,227.7 195.9,229.8 		"/>
		<polygon class="st5" points="199.2,229.7 197.7,228.8 197.9,226.7 199.6,225.5 201.1,226.4 200.9,228.5 		"/>
		<polygon class="st5" points="204.3,228.5 202.8,227.6 202.9,225.5 204.7,224.3 206.2,225.2 206,227.3 		"/>
		<polygon class="st5" points="209.4,227.2 207.8,226.3 208,224.2 209.7,223 211.3,223.9 211.1,226 		"/>
		<polygon class="st5" points="214.4,225.9 212.9,225.1 213.1,223 214.8,221.8 216.4,222.6 216.2,224.7 		"/>
		<polygon class="st5" points="219.5,224.7 218,223.8 218.2,221.7 219.9,220.5 221.4,221.4 221.2,223.5 		"/>
		<polygon class="st5" points="224.6,223.4 223,222.5 223.2,220.4 225,219.2 226.5,220.1 226.3,222.2 		"/>
		<polygon class="st5" points="229.7,222.2 228.1,221.3 228.3,219.2 230,218 231.6,218.9 231.4,221 		"/>
	</g>
	<g>
		<polygon class="st5" points="187,237.5 185.5,236.6 185.6,234.5 187.4,233.3 188.9,234.2 188.7,236.3 		"/>
		<polygon class="st5" points="192.1,236.2 190.5,235.3 190.7,233.3 192.4,232 194,232.9 193.8,235 		"/>
		<polygon class="st5" points="197.1,235 195.6,234.1 195.8,232 197.5,230.8 199.1,231.7 198.9,233.8 		"/>
		<polygon class="st5" points="202.2,233.7 200.7,232.8 200.9,230.7 202.6,229.5 204.1,230.4 203.9,232.5 		"/>
		<polygon class="st5" points="207.3,232.5 205.8,231.6 205.9,229.5 207.7,228.3 209.2,229.2 209,231.3 		"/>
		<polygon class="st5" points="212.4,231.2 210.8,230.3 211,228.2 212.7,227 214.3,227.9 214.1,230 		"/>
		<polygon class="st5" points="217.4,229.9 215.9,229.1 216.1,227 217.8,225.8 219.4,226.6 219.2,228.7 		"/>
		<polygon class="st5" points="222.5,228.7 221,227.8 221.2,225.7 222.9,224.5 224.4,225.4 224.2,227.5 		"/>
		<polygon class="st5" points="227.6,227.4 226,226.5 226.2,224.4 228,223.2 229.5,224.1 229.3,226.2 		"/>
		<polygon class="st5" points="232.7,226.2 231.1,225.3 231.3,223.2 233,222 234.6,222.9 234.4,225 		"/>
	</g>
	<g>
		<polygon class="st5" points="184,242.8 182.5,241.9 182.6,239.8 184.4,238.6 185.9,239.5 185.7,241.6 		"/>
		<polygon class="st5" points="189.1,241.6 187.5,240.7 187.7,238.6 189.4,237.4 191,238.3 190.8,240.4 		"/>
		<polygon class="st5" points="194.1,240.3 192.6,239.4 192.8,237.3 194.5,236.1 196.1,237 195.9,239.1 		"/>
		<polygon class="st5" points="199.2,239.1 197.7,238.2 197.9,236.1 199.6,234.9 201.1,235.8 200.9,237.8 		"/>
		<polygon class="st5" points="204.3,237.8 202.8,236.9 202.9,234.8 204.7,233.6 206.2,234.5 206,236.6 		"/>
		<polygon class="st5" points="209.4,236.5 207.8,235.6 208,233.5 209.7,232.3 211.3,233.2 211.1,235.3 		"/>
		<polygon class="st5" points="214.4,235.3 212.9,234.4 213.1,232.3 214.8,231.1 216.4,232 216.2,234.1 		"/>
		<polygon class="st5" points="219.5,234 218,233.1 218.2,231 219.9,229.8 221.4,230.7 221.2,232.8 		"/>
		<polygon class="st5" points="224.6,232.8 223,231.9 223.2,229.8 225,228.6 226.5,229.5 226.3,231.6 		"/>
		<polygon class="st5" points="229.7,231.5 228.1,230.6 228.3,228.5 230,227.3 231.6,228.2 231.4,230.3 		"/>
	</g>
	<g>
		<polygon class="st5" points="187,246.8 185.5,245.9 185.6,243.8 187.4,242.6 188.9,243.5 188.7,245.6 		"/>
		<polygon class="st5" points="192.1,245.6 190.5,244.7 190.7,242.6 192.4,241.4 194,242.3 193.8,244.4 		"/>
		<polygon class="st5" points="197.1,244.3 195.6,243.4 195.8,241.3 197.5,240.1 199.1,241 198.9,243.1 		"/>
		<polygon class="st5" points="202.2,243.1 200.7,242.2 200.9,240.1 202.6,238.9 204.1,239.8 203.9,241.8 		"/>
		<polygon class="st5" points="207.3,241.8 205.8,240.9 205.9,238.8 207.7,237.6 209.2,238.5 209,240.6 		"/>
		<polygon class="st5" points="212.4,240.5 210.8,239.6 211,237.5 212.7,236.3 214.3,237.2 214.1,239.3 		"/>
		<polygon class="st5" points="217.4,239.3 215.9,238.4 216.1,236.3 217.8,235.1 219.4,236 219.2,238.1 		"/>
		<polygon class="st5" points="222.5,238 221,237.1 221.2,235 222.9,233.8 224.4,234.7 224.2,236.8 		"/>
		<polygon class="st5" points="227.6,236.8 226,235.9 226.2,233.8 228,232.6 229.5,233.5 229.3,235.6 		"/>
		<polygon class="st5" points="232.7,235.5 231.1,234.6 231.3,232.5 233,231.3 234.6,232.2 234.4,234.3 		"/>
	</g>
	<g>
		<polygon class="st5" points="184,252.2 182.5,251.3 182.6,249.2 184.4,248 185.9,248.9 185.7,251 		"/>
		<polygon class="st5" points="189.1,250.9 187.5,250 187.7,247.9 189.4,246.7 191,247.6 190.8,249.7 		"/>
		<polygon class="st5" points="194.1,249.6 192.6,248.8 192.8,246.7 194.5,245.5 196.1,246.3 195.9,248.4 		"/>
		<polygon class="st5" points="199.2,248.4 197.7,247.5 197.9,245.4 199.6,244.2 201.1,245.1 200.9,247.2 		"/>
		<polygon class="st5" points="204.3,247.1 202.8,246.2 202.9,244.1 204.7,242.9 206.2,243.8 206,245.9 		"/>
		<polygon class="st5" points="209.4,245.9 207.8,245 208,242.9 209.7,241.7 211.3,242.6 211.1,244.7 		"/>
		<polygon class="st5" points="214.4,244.6 212.9,243.7 213.1,241.6 214.8,240.4 216.4,241.3 216.2,243.4 		"/>
		<polygon class="st5" points="219.5,243.4 218,242.5 218.2,240.4 219.9,239.2 221.4,240 221.2,242.1 		"/>
		<polygon class="st5" points="224.6,242.1 223,241.2 223.2,239.1 225,237.9 226.5,238.8 226.3,240.9 		"/>
		<polygon class="st5" points="229.7,240.8 228.1,239.9 228.3,237.8 230,236.6 231.6,237.5 231.4,239.6 		"/>
	</g>
	<g>
		<polygon class="st5" points="187,256.2 185.5,255.3 185.6,253.2 187.4,252 188.9,252.9 188.7,255 		"/>
		<polygon class="st5" points="192.1,254.9 190.5,254 190.7,251.9 192.4,250.7 194,251.6 193.8,253.7 		"/>
		<polygon class="st5" points="197.1,253.6 195.6,252.8 195.8,250.7 197.5,249.5 199.1,250.3 198.9,252.4 		"/>
		<polygon class="st5" points="202.2,252.4 200.7,251.5 200.9,249.4 202.6,248.2 204.1,249.1 203.9,251.2 		"/>
		<polygon class="st5" points="207.3,251.1 205.8,250.2 205.9,248.1 207.7,246.9 209.2,247.8 209,249.9 		"/>
		<polygon class="st5" points="212.4,249.9 210.8,249 211,246.9 212.7,245.7 214.3,246.6 214.1,248.7 		"/>
		<polygon class="st5" points="217.4,248.6 215.9,247.7 216.1,245.6 217.8,244.4 219.4,245.3 219.2,247.4 		"/>
		<polygon class="st5" points="222.5,247.4 221,246.5 221.2,244.4 222.9,243.2 224.4,244 224.2,246.1 		"/>
		<polygon class="st5" points="227.6,246.1 226,245.2 226.2,243.1 228,241.9 229.5,242.8 229.3,244.9 		"/>
		<polygon class="st5" points="232.7,244.8 231.1,243.9 231.3,241.8 233,240.6 234.6,241.5 234.4,243.6 		"/>
	</g>
	<g>
		<polygon class="st5" points="184,261.5 182.5,260.6 182.6,258.5 184.4,257.3 185.9,258.2 185.7,260.3 		"/>
		<polygon class="st5" points="189.1,260.2 187.5,259.3 187.7,257.3 189.4,256 191,256.9 190.8,259 		"/>
		<polygon class="st5" points="194.1,259 192.6,258.1 192.8,256 194.5,254.8 196.1,255.7 195.9,257.8 		"/>
		<polygon class="st5" points="199.2,257.7 197.7,256.8 197.9,254.7 199.6,253.5 201.1,254.4 200.9,256.5 		"/>
		<polygon class="st5" points="204.3,256.5 202.8,255.6 202.9,253.5 204.7,252.3 206.2,253.2 206,255.3 		"/>
		<polygon class="st5" points="209.4,255.2 207.8,254.3 208,252.2 209.7,251 211.3,251.9 211.1,254 		"/>
		<polygon class="st5" points="214.4,253.9 212.9,253.1 213.1,251 214.8,249.8 216.4,250.6 216.2,252.7 		"/>
		<polygon class="st5" points="219.5,252.7 218,251.8 218.2,249.7 219.9,248.5 221.4,249.4 221.2,251.5 		"/>
		<polygon class="st5" points="224.6,251.4 223,250.5 223.2,248.4 225,247.2 226.5,248.1 226.3,250.2 		"/>
		<polygon class="st5" points="229.7,250.2 228.1,249.3 228.3,247.2 230,246 231.6,246.9 231.4,249 		"/>
	</g>
	<g>
		<polygon class="st5" points="187,265.5 185.5,264.6 185.6,262.5 187.4,261.3 188.9,262.2 188.7,264.3 		"/>
		<polygon class="st5" points="192.1,264.2 190.5,263.3 190.7,261.3 192.4,260 194,260.9 193.8,263 		"/>
		<polygon class="st5" points="197.1,263 195.6,262.1 195.8,260 197.5,258.8 199.1,259.7 198.9,261.8 		"/>
		<polygon class="st5" points="202.2,261.7 200.7,260.8 200.9,258.7 202.6,257.5 204.1,258.4 203.9,260.5 		"/>
		<polygon class="st5" points="207.3,260.5 205.8,259.6 205.9,257.5 207.7,256.3 209.2,257.2 209,259.3 		"/>
		<polygon class="st5" points="212.4,259.2 210.8,258.3 211,256.2 212.7,255 214.3,255.9 214.1,258 		"/>
		<polygon class="st5" points="217.4,257.9 215.9,257.1 216.1,255 217.8,253.8 219.4,254.6 219.2,256.7 		"/>
		<polygon class="st5" points="222.5,256.7 221,255.8 221.2,253.7 222.9,252.5 224.4,253.4 224.2,255.5 		"/>
		<polygon class="st5" points="227.6,255.4 226,254.5 226.2,252.4 228,251.2 229.5,252.1 229.3,254.2 		"/>
		<polygon class="st5" points="232.7,254.2 231.1,253.3 231.3,251.2 233,250 234.6,250.9 234.4,253 		"/>
	</g>
	<g>
		<polygon class="st5" points="184,270.8 182.5,269.9 182.6,267.8 184.4,266.6 185.9,267.5 185.7,269.6 		"/>
		<polygon class="st5" points="189.1,269.6 187.5,268.7 187.7,266.6 189.4,265.4 191,266.3 190.8,268.4 		"/>
		<polygon class="st5" points="194.1,268.3 192.6,267.4 192.8,265.3 194.5,264.1 196.1,265 195.9,267.1 		"/>
		<polygon class="st5" points="199.2,267.1 197.7,266.2 197.9,264.1 199.6,262.9 201.1,263.8 200.9,265.8 		"/>
		<polygon class="st5" points="204.3,265.8 202.8,264.9 202.9,262.8 204.7,261.6 206.2,262.5 206,264.6 		"/>
		<polygon class="st5" points="209.4,264.5 207.8,263.6 208,261.5 209.7,260.3 211.3,261.2 211.1,263.3 		"/>
		<polygon class="st5" points="214.4,263.3 212.9,262.4 213.1,260.3 214.8,259.1 216.4,260 216.2,262.1 		"/>
		<polygon class="st5" points="219.5,262 218,261.1 218.2,259 219.9,257.8 221.4,258.7 221.2,260.8 		"/>
		<polygon class="st5" points="224.6,260.8 223,259.9 223.2,257.8 225,256.6 226.5,257.5 226.3,259.6 		"/>
		<polygon class="st5" points="229.7,259.5 228.1,258.6 228.3,256.5 230,255.3 231.6,256.2 231.4,258.3 		"/>
	</g>
	<g>
		<polygon class="st5" points="187,274.8 185.5,273.9 185.6,271.8 187.4,270.6 188.9,271.5 188.7,273.6 		"/>
		<polygon class="st5" points="192.1,273.6 190.5,272.7 190.7,270.6 192.4,269.4 194,270.3 193.8,272.4 		"/>
		<polygon class="st5" points="197.1,272.3 195.6,271.4 195.8,269.3 197.5,268.1 199.1,269 198.9,271.1 		"/>
		<polygon class="st5" points="202.2,271.1 200.7,270.2 200.9,268.1 202.6,266.9 204.1,267.8 203.9,269.8 		"/>
		<polygon class="st5" points="207.3,269.8 205.8,268.9 205.9,266.8 207.7,265.6 209.2,266.5 209,268.6 		"/>
		<polygon class="st5" points="212.4,268.5 210.8,267.6 211,265.5 212.7,264.3 214.3,265.2 214.1,267.3 		"/>
		<polygon class="st5" points="217.4,267.3 215.9,266.4 216.1,264.3 217.8,263.1 219.4,264 219.2,266.1 		"/>
		<polygon class="st5" points="222.5,266 221,265.1 221.2,263 222.9,261.8 224.4,262.7 224.2,264.8 		"/>
		<polygon class="st5" points="227.6,264.8 226,263.9 226.2,261.8 228,260.6 229.5,261.5 229.3,263.6 		"/>
		<polygon class="st5" points="232.7,263.5 231.1,262.6 231.3,260.5 233,259.3 234.6,260.2 234.4,262.3 		"/>
	</g>
	<g>
		<polygon class="st5" points="184,280.2 182.5,279.3 182.6,277.2 184.4,276 185.9,276.9 185.7,279 		"/>
		<polygon class="st5" points="189.1,278.9 187.5,278 187.7,275.9 189.4,274.7 191,275.6 190.8,277.7 		"/>
		<polygon class="st5" points="194.1,277.6 192.6,276.8 192.8,274.7 194.5,273.5 196.1,274.3 195.9,276.4 		"/>
		<polygon class="st5" points="199.2,276.4 197.7,275.5 197.9,273.4 199.6,272.2 201.1,273.1 200.9,275.2 		"/>
		<polygon class="st5" points="204.3,275.1 202.8,274.2 202.9,272.1 204.7,270.9 206.2,271.8 206,273.9 		"/>
		<polygon class="st5" points="209.4,273.9 207.8,273 208,270.9 209.7,269.7 211.3,270.6 211.1,272.7 		"/>
		<polygon class="st5" points="214.4,272.6 212.9,271.7 213.1,269.6 214.8,268.4 216.4,269.3 216.2,271.4 		"/>
		<polygon class="st5" points="219.5,271.4 218,270.5 218.2,268.4 219.9,267.2 221.4,268 221.2,270.1 		"/>
		<polygon class="st5" points="224.6,270.1 223,269.2 223.2,267.1 225,265.9 226.5,266.8 226.3,268.9 		"/>
		<polygon class="st5" points="229.7,268.8 228.1,267.9 228.3,265.8 230,264.6 231.6,265.5 231.4,267.6 		"/>
	</g>
	<g>
		<polygon class="st5" points="187,284.2 185.5,283.3 185.6,281.2 187.4,280 188.9,280.9 188.7,283 		"/>
		<polygon class="st5" points="192.1,282.9 190.5,282 190.7,279.9 192.4,278.7 194,279.6 193.8,281.7 		"/>
		<polygon class="st5" points="197.1,281.6 195.6,280.8 195.8,278.7 197.5,277.5 199.1,278.3 198.9,280.4 		"/>
		<polygon class="st5" points="202.2,280.4 200.7,279.5 200.9,277.4 202.6,276.2 204.1,277.1 203.9,279.2 		"/>
		<polygon class="st5" points="207.3,279.1 205.8,278.2 205.9,276.1 207.7,274.9 209.2,275.8 209,277.9 		"/>
		<polygon class="st5" points="212.4,277.9 210.8,277 211,274.9 212.7,273.7 214.3,274.6 214.1,276.7 		"/>
		<polygon class="st5" points="217.4,276.6 215.9,275.7 216.1,273.6 217.8,272.4 219.4,273.3 219.2,275.4 		"/>
		<polygon class="st5" points="222.5,275.4 221,274.5 221.2,272.4 222.9,271.2 224.4,272 224.2,274.1 		"/>
		<polygon class="st5" points="227.6,274.1 226,273.2 226.2,271.1 228,269.9 229.5,270.8 229.3,272.9 		"/>
		<polygon class="st5" points="232.7,272.8 231.1,271.9 231.3,269.8 233,268.6 234.6,269.5 234.4,271.6 		"/>
	</g>
	<g>
		<polygon class="st5" points="184,289.5 182.5,288.6 182.6,286.5 184.4,285.3 185.9,286.2 185.7,288.3 		"/>
		<polygon class="st5" points="189.1,288.2 187.5,287.3 187.7,285.3 189.4,284 191,284.9 190.8,287 		"/>
		<polygon class="st5" points="194.1,287 192.6,286.1 192.8,284 194.5,282.8 196.1,283.7 195.9,285.8 		"/>
		<polygon class="st5" points="199.2,285.7 197.7,284.8 197.9,282.7 199.6,281.5 201.1,282.4 200.9,284.5 		"/>
		<polygon class="st5" points="204.3,284.5 202.8,283.6 202.9,281.5 204.7,280.3 206.2,281.2 206,283.3 		"/>
		<polygon class="st5" points="209.4,283.2 207.8,282.3 208,280.2 209.7,279 211.3,279.9 211.1,282 		"/>
		<polygon class="st5" points="214.4,281.9 212.9,281.1 213.1,279 214.8,277.8 216.4,278.6 216.2,280.7 		"/>
		<polygon class="st5" points="219.5,280.7 218,279.8 218.2,277.7 219.9,276.5 221.4,277.4 221.2,279.5 		"/>
		<polygon class="st5" points="224.6,279.4 223,278.5 223.2,276.4 225,275.2 226.5,276.1 226.3,278.2 		"/>
		<polygon class="st5" points="229.7,278.2 228.1,277.3 228.3,275.2 230,274 231.6,274.9 231.4,277 		"/>
	</g>
	<g>
		<polygon class="st5" points="187,293.5 185.5,292.6 185.6,290.5 187.4,289.3 188.9,290.2 188.7,292.3 		"/>
		<polygon class="st5" points="192.1,292.2 190.5,291.3 190.7,289.3 192.4,288 194,288.9 193.8,291 		"/>
		<polygon class="st5" points="197.1,291 195.6,290.1 195.8,288 197.5,286.8 199.1,287.7 198.9,289.8 		"/>
		<polygon class="st5" points="202.2,289.7 200.7,288.8 200.9,286.7 202.6,285.5 204.1,286.4 203.9,288.5 		"/>
		<polygon class="st5" points="207.3,288.5 205.8,287.6 205.9,285.5 207.7,284.3 209.2,285.2 209,287.3 		"/>
		<polygon class="st5" points="212.4,287.2 210.8,286.3 211,284.2 212.7,283 214.3,283.9 214.1,286 		"/>
		<polygon class="st5" points="217.4,285.9 215.9,285.1 216.1,283 217.8,281.8 219.4,282.6 219.2,284.7 		"/>
		<polygon class="st5" points="222.5,284.7 221,283.8 221.2,281.7 222.9,280.5 224.4,281.4 224.2,283.5 		"/>
		<polygon class="st5" points="227.6,283.4 226,282.5 226.2,280.4 228,279.2 229.5,280.1 229.3,282.2 		"/>
		<polygon class="st5" points="232.7,282.2 231.1,281.3 231.3,279.2 233,278 234.6,278.9 234.4,281 		"/>
	</g>
	<g>
		<polygon class="st5" points="184,298.8 182.5,297.9 182.6,295.8 184.4,294.6 185.9,295.5 185.7,297.6 		"/>
		<polygon class="st5" points="189.1,297.6 187.5,296.7 187.7,294.6 189.4,293.4 191,294.3 190.8,296.4 		"/>
		<polygon class="st5" points="194.1,296.3 192.6,295.4 192.8,293.3 194.5,292.1 196.1,293 195.9,295.1 		"/>
		<polygon class="st5" points="199.2,295.1 197.7,294.2 197.9,292.1 199.6,290.9 201.1,291.8 200.9,293.8 		"/>
		<polygon class="st5" points="204.3,293.8 202.8,292.9 202.9,290.8 204.7,289.6 206.2,290.5 206,292.6 		"/>
		<polygon class="st5" points="209.4,292.5 207.8,291.6 208,289.5 209.7,288.3 211.3,289.2 211.1,291.3 		"/>
		<polygon class="st5" points="214.4,291.3 212.9,290.4 213.1,288.3 214.8,287.1 216.4,288 216.2,290.1 		"/>
		<polygon class="st5" points="219.5,290 218,289.1 218.2,287 219.9,285.8 221.4,286.7 221.2,288.8 		"/>
		<polygon class="st5" points="224.6,288.8 223,287.9 223.2,285.8 225,284.6 226.5,285.5 226.3,287.6 		"/>
		<polygon class="st5" points="229.7,287.5 228.1,286.6 228.3,284.5 230,283.3 231.6,284.2 231.4,286.3 		"/>
	</g>
	<g>
		<polygon class="st5" points="187,302.8 185.5,301.9 185.6,299.8 187.4,298.6 188.9,299.5 188.7,301.6 		"/>
		<polygon class="st5" points="192.1,301.6 190.5,300.7 190.7,298.6 192.4,297.4 194,298.3 193.8,300.4 		"/>
		<polygon class="st5" points="197.1,300.3 195.6,299.4 195.8,297.3 197.5,296.1 199.1,297 198.9,299.1 		"/>
		<polygon class="st5" points="202.2,299.1 200.7,298.2 200.9,296.1 202.6,294.9 204.1,295.8 203.9,297.8 		"/>
		<polygon class="st5" points="207.3,297.8 205.8,296.9 205.9,294.8 207.7,293.6 209.2,294.5 209,296.6 		"/>
		<polygon class="st5" points="212.4,296.5 210.8,295.6 211,293.5 212.7,292.3 214.3,293.2 214.1,295.3 		"/>
		<polygon class="st5" points="217.4,295.3 215.9,294.4 216.1,292.3 217.8,291.1 219.4,292 219.2,294.1 		"/>
		<polygon class="st5" points="222.5,294 221,293.1 221.2,291 222.9,289.8 224.4,290.7 224.2,292.8 		"/>
		<polygon class="st5" points="227.6,292.8 226,291.9 226.2,289.8 228,288.6 229.5,289.5 229.3,291.6 		"/>
		<polygon class="st5" points="232.7,291.5 231.1,290.6 231.3,288.5 233,287.3 234.6,288.2 234.4,290.3 		"/>
	</g>
	<g>
		<polygon class="st5" points="184,308.2 182.5,307.3 182.6,305.2 184.4,304 185.9,304.9 185.7,307 		"/>
		<polygon class="st5" points="189.1,306.9 187.5,306 187.7,303.9 189.4,302.7 191,303.6 190.8,305.7 		"/>
		<polygon class="st5" points="194.1,305.6 192.6,304.8 192.8,302.7 194.5,301.5 196.1,302.3 195.9,304.4 		"/>
		<polygon class="st5" points="199.2,304.4 197.7,303.5 197.9,301.4 199.6,300.2 201.1,301.1 200.9,303.2 		"/>
		<polygon class="st5" points="204.3,303.1 202.8,302.2 202.9,300.1 204.7,298.9 206.2,299.8 206,301.9 		"/>
		<polygon class="st5" points="209.4,301.9 207.8,301 208,298.9 209.7,297.7 211.3,298.6 211.1,300.7 		"/>
		<polygon class="st5" points="214.4,300.6 212.9,299.7 213.1,297.6 214.8,296.4 216.4,297.3 216.2,299.4 		"/>
		<polygon class="st5" points="219.5,299.4 218,298.5 218.2,296.4 219.9,295.2 221.4,296 221.2,298.1 		"/>
		<polygon class="st5" points="224.6,298.1 223,297.2 223.2,295.1 225,293.9 226.5,294.8 226.3,296.9 		"/>
		<polygon class="st5" points="229.7,296.8 228.1,295.9 228.3,293.8 230,292.6 231.6,293.5 231.4,295.6 		"/>
	</g>
	<g>
		<polygon class="st5" points="187,312.2 185.5,311.3 185.6,309.2 187.4,308 188.9,308.9 188.7,311 		"/>
		<polygon class="st5" points="192.1,310.9 190.5,310 190.7,307.9 192.4,306.7 194,307.6 193.8,309.7 		"/>
		<polygon class="st5" points="197.1,309.6 195.6,308.8 195.8,306.7 197.5,305.5 199.1,306.3 198.9,308.4 		"/>
		<polygon class="st5" points="202.2,308.4 200.7,307.5 200.9,305.4 202.6,304.2 204.1,305.1 203.9,307.2 		"/>
		<polygon class="st5" points="207.3,307.1 205.8,306.2 205.9,304.1 207.7,302.9 209.2,303.8 209,305.9 		"/>
		<polygon class="st5" points="212.4,305.9 210.8,305 211,302.9 212.7,301.7 214.3,302.6 214.1,304.7 		"/>
		<polygon class="st5" points="217.4,304.6 215.9,303.7 216.1,301.6 217.8,300.4 219.4,301.3 219.2,303.4 		"/>
		<polygon class="st5" points="222.5,303.4 221,302.5 221.2,300.4 222.9,299.2 224.4,300 224.2,302.1 		"/>
		<polygon class="st5" points="227.6,302.1 226,301.2 226.2,299.1 228,297.9 229.5,298.8 229.3,300.9 		"/>
		<polygon class="st5" points="232.7,300.8 231.1,299.9 231.3,297.8 233,296.6 234.6,297.5 234.4,299.6 		"/>
	</g>
	<g>
		<polygon class="st5" points="184,317.5 182.5,316.6 182.6,314.5 184.4,313.3 185.9,314.2 185.7,316.3 		"/>
		<polygon class="st5" points="189.1,316.2 187.5,315.3 187.7,313.3 189.4,312 191,312.9 190.8,315 		"/>
		<polygon class="st5" points="194.1,315 192.6,314.1 192.8,312 194.5,310.8 196.1,311.7 195.9,313.8 		"/>
		<polygon class="st5" points="199.2,313.7 197.7,312.8 197.9,310.7 199.6,309.5 201.1,310.4 200.9,312.5 		"/>
		<polygon class="st5" points="204.3,312.5 202.8,311.6 202.9,309.5 204.7,308.3 206.2,309.2 206,311.3 		"/>
		<polygon class="st5" points="209.4,311.2 207.8,310.3 208,308.2 209.7,307 211.3,307.9 211.1,310 		"/>
		<polygon class="st5" points="214.4,309.9 212.9,309.1 213.1,307 214.8,305.8 216.4,306.6 216.2,308.7 		"/>
		<polygon class="st5" points="219.5,308.7 218,307.8 218.2,305.7 219.9,304.5 221.4,305.4 221.2,307.5 		"/>
		<polygon class="st5" points="224.6,307.4 223,306.5 223.2,304.4 225,303.2 226.5,304.1 226.3,306.2 		"/>
		<polygon class="st5" points="229.7,306.2 228.1,305.3 228.3,303.2 230,302 231.6,302.9 231.4,305 		"/>
	</g>
	<g>
		<polygon class="st5" points="187,321.5 185.5,320.6 185.6,318.5 187.4,317.3 188.9,318.2 188.7,320.3 		"/>
		<polygon class="st5" points="192.1,320.2 190.5,319.3 190.7,317.3 192.4,316 194,316.9 193.8,319 		"/>
		<polygon class="st5" points="197.1,319 195.6,318.1 195.8,316 197.5,314.8 199.1,315.7 198.9,317.8 		"/>
		<polygon class="st5" points="202.2,317.7 200.7,316.8 200.9,314.7 202.6,313.5 204.1,314.4 203.9,316.5 		"/>
		<polygon class="st5" points="207.3,316.5 205.8,315.6 205.9,313.5 207.7,312.3 209.2,313.2 209,315.3 		"/>
		<polygon class="st5" points="212.4,315.2 210.8,314.3 211,312.2 212.7,311 214.3,311.9 214.1,314 		"/>
		<polygon class="st5" points="217.4,313.9 215.9,313.1 216.1,311 217.8,309.8 219.4,310.6 219.2,312.7 		"/>
		<polygon class="st5" points="222.5,312.7 221,311.8 221.2,309.7 222.9,308.5 224.4,309.4 224.2,311.5 		"/>
		<polygon class="st5" points="227.6,311.4 226,310.5 226.2,308.4 228,307.2 229.5,308.1 229.3,310.2 		"/>
		<polygon class="st5" points="232.7,310.2 231.1,309.3 231.3,307.2 233,306 234.6,306.9 234.4,309 		"/>
	</g>
	<g>
		<polygon class="st5" points="184,326.8 182.5,325.9 182.6,323.8 184.4,322.6 185.9,323.5 185.7,325.6 		"/>
		<polygon class="st5" points="189.1,325.6 187.5,324.7 187.7,322.6 189.4,321.4 191,322.3 190.8,324.4 		"/>
		<polygon class="st5" points="194.1,324.3 192.6,323.4 192.8,321.3 194.5,320.1 196.1,321 195.9,323.1 		"/>
		<polygon class="st5" points="199.2,323.1 197.7,322.2 197.9,320.1 199.6,318.9 201.1,319.8 200.9,321.8 		"/>
		<polygon class="st5" points="204.3,321.8 202.8,320.9 202.9,318.8 204.7,317.6 206.2,318.5 206,320.6 		"/>
		<polygon class="st5" points="209.4,320.5 207.8,319.6 208,317.5 209.7,316.3 211.3,317.2 211.1,319.3 		"/>
		<polygon class="st5" points="214.4,319.3 212.9,318.4 213.1,316.3 214.8,315.1 216.4,316 216.2,318.1 		"/>
		<polygon class="st5" points="219.5,318 218,317.1 218.2,315 219.9,313.8 221.4,314.7 221.2,316.8 		"/>
		<polygon class="st5" points="224.6,316.8 223,315.9 223.2,313.8 225,312.6 226.5,313.5 226.3,315.6 		"/>
		<polygon class="st5" points="229.7,315.5 228.1,314.6 228.3,312.5 230,311.3 231.6,312.2 231.4,314.3 		"/>
	</g>
	<g>
		<polygon class="st5" points="186.7,331.2 185.1,330.3 185.3,328.2 187,327 188.6,327.9 188.4,330 		"/>
		<polygon class="st5" points="191.8,329.9 190.2,329 190.4,326.9 192.1,325.7 193.7,326.6 193.5,328.7 		"/>
		<polygon class="st5" points="196.9,328.6 195.3,327.7 195.5,325.6 197.3,324.4 198.8,325.3 198.6,327.4 		"/>
		<polygon class="st5" points="202,327.3 200.5,326.4 200.6,324.3 202.4,323.1 203.9,324 203.7,326.1 		"/>
		<polygon class="st5" points="207.1,326 205.6,325.1 205.7,323 207.5,321.8 209,322.7 208.8,324.8 		"/>
		<polygon class="st5" points="212.2,324.7 210.7,323.8 210.9,321.7 212.6,320.5 214.1,321.4 213.9,323.5 		"/>
		<polygon class="st5" points="217.3,323.4 215.8,322.5 216,320.4 217.7,319.2 219.2,320.1 219.1,322.2 		"/>
		<polygon class="st5" points="222.4,322.1 220.9,321.2 221.1,319.1 222.8,317.9 224.4,318.8 224.2,320.9 		"/>
		<polygon class="st5" points="227.6,320.8 226,319.9 226.2,317.8 227.9,316.6 229.5,317.5 229.3,319.6 		"/>
		<polygon class="st5" points="232.7,319.5 231.1,318.6 231.3,316.5 233,315.3 234.6,316.2 234.4,318.3 		"/>
	</g>
	<g>
		<polygon class="st5" points="184.5,336.7 183,335.8 183.1,333.7 184.9,332.5 186.4,333.4 186.2,335.5 		"/>
		<polygon class="st5" points="189.5,335.4 188,334.5 188.2,332.4 189.9,331.2 191.4,332.1 191.2,334.1 		"/>
		<polygon class="st5" points="194.5,334 193,333.1 193.2,331 194.9,329.8 196.4,330.7 196.3,332.8 		"/>
		<polygon class="st5" points="199.6,332.7 198,331.8 198.2,329.7 199.9,328.5 201.5,329.4 201.3,331.5 		"/>
		<polygon class="st5" points="204.6,331.4 203,330.5 203.2,328.4 204.9,327.2 206.5,328.1 206.3,330.2 		"/>
		<polygon class="st5" points="209.6,330.1 208,329.2 208.2,327.1 210,325.9 211.5,326.8 211.3,328.9 		"/>
		<polygon class="st5" points="214.6,328.8 213.1,327.9 213.2,325.8 215,324.6 216.5,325.5 216.3,327.6 		"/>
		<polygon class="st5" points="219.6,327.5 218.1,326.6 218.3,324.5 220,323.3 221.5,324.2 221.4,326.3 		"/>
		<polygon class="st5" points="224.6,326.1 223.1,325.3 223.3,323.2 225,322 226.6,322.8 226.4,324.9 		"/>
		<polygon class="st5" points="229.7,324.8 228.1,323.9 228.3,321.8 230,320.6 231.6,321.5 231.4,323.6 		"/>
	</g>
	<g>
		<polygon class="st5" points="187,341 185.5,340.1 185.6,338.1 187.4,336.8 188.9,337.7 188.7,339.8 		"/>
		<polygon class="st5" points="192.1,339.7 190.5,338.8 190.7,336.7 192.4,335.5 194,336.4 193.8,338.5 		"/>
		<polygon class="st5" points="197.1,338.3 195.6,337.4 195.8,335.3 197.5,334.1 199.1,335 198.9,337.1 		"/>
		<polygon class="st5" points="202.2,337 200.7,336.1 200.9,334 202.6,332.8 204.1,333.7 203.9,335.8 		"/>
		<polygon class="st5" points="207.3,335.6 205.8,334.7 205.9,332.6 207.7,331.4 209.2,332.3 209,334.4 		"/>
		<polygon class="st5" points="212.4,334.3 210.8,333.4 211,331.3 212.7,330.1 214.3,331 214.1,333.1 		"/>
		<polygon class="st5" points="217.4,332.9 215.9,332 216.1,329.9 217.8,328.7 219.4,329.6 219.2,331.7 		"/>
		<polygon class="st5" points="222.5,331.5 221,330.7 221.2,328.6 222.9,327.4 224.4,328.2 224.2,330.3 		"/>
		<polygon class="st5" points="227.6,330.2 226,329.3 226.2,327.2 228,326 229.5,326.9 229.3,329 		"/>
		<polygon class="st5" points="232.7,328.8 231.1,327.9 231.3,325.8 233,324.6 234.6,325.5 234.4,327.6 		"/>
	</g>
	<g>
		<polygon class="st5" points="184,346.8 182.5,345.9 182.6,343.8 184.4,342.6 185.9,343.5 185.7,345.6 		"/>
		<polygon class="st5" points="189.1,345.4 187.5,344.5 187.7,342.4 189.4,341.2 191,342.1 190.8,344.2 		"/>
		<polygon class="st5" points="194.1,344 192.6,343.1 192.8,341 194.5,339.8 196.1,340.7 195.9,342.8 		"/>
		<polygon class="st5" points="199.2,342.6 197.7,341.7 197.9,339.6 199.6,338.4 201.1,339.3 200.9,341.4 		"/>
		<polygon class="st5" points="204.3,341.2 202.8,340.3 202.9,338.2 204.7,337 206.2,337.9 206,340 		"/>
		<polygon class="st5" points="209.4,339.8 207.8,338.9 208,336.8 209.7,335.6 211.3,336.5 211.1,338.6 		"/>
		<polygon class="st5" points="214.4,338.4 212.9,337.5 213.1,335.4 214.8,334.2 216.4,335.1 216.2,337.2 		"/>
		<polygon class="st5" points="219.5,337 218,336.1 218.2,334 219.9,332.8 221.4,333.7 221.2,335.8 		"/>
		<polygon class="st5" points="224.6,335.6 223,334.7 223.2,332.6 225,331.4 226.5,332.3 226.3,334.4 		"/>
		<polygon class="st5" points="229.7,334.2 228.1,333.3 228.3,331.2 230,330 231.6,330.9 231.4,333 		"/>
	</g>
	<g>
		<polygon class="st5" points="187,350.5 185.5,349.6 185.6,347.5 187.4,346.3 188.9,347.2 188.7,349.3 		"/>
		<polygon class="st5" points="192.1,349.1 190.5,348.2 190.7,346.1 192.4,344.9 194,345.8 193.8,347.9 		"/>
		<polygon class="st5" points="197.1,347.8 195.6,346.9 195.8,344.8 197.5,343.6 199.1,344.5 198.9,346.6 		"/>
		<polygon class="st5" points="202.2,346.4 200.7,345.5 200.9,343.4 202.6,342.2 204.1,343.1 203.9,345.2 		"/>
		<polygon class="st5" points="207.3,345 205.8,344.1 205.9,342 207.7,340.8 209.2,341.7 209,343.8 		"/>
		<polygon class="st5" points="212.4,343.6 210.8,342.8 211,340.7 212.7,339.5 214.3,340.3 214.1,342.4 		"/>
		<polygon class="st5" points="217.4,342.3 215.9,341.4 216.1,339.3 217.8,338.1 219.4,339 219.2,341.1 		"/>
		<polygon class="st5" points="222.5,340.9 221,340 221.2,337.9 222.9,336.7 224.4,337.6 224.2,339.7 		"/>
		<polygon class="st5" points="227.6,339.5 226,338.6 226.2,336.5 228,335.3 229.5,336.2 229.3,338.3 		"/>
		<polygon class="st5" points="232.7,338.2 231.1,337.3 231.3,335.2 233,334 234.6,334.9 234.4,337 		"/>
	</g>
	<g>
		<polygon class="st5" points="184,356.5 182.5,355.6 182.6,353.5 184.4,352.3 185.9,353.2 185.7,355.3 		"/>
		<polygon class="st5" points="189.1,355.1 187.5,354.2 187.7,352.1 189.4,350.9 191,351.8 190.8,353.9 		"/>
		<polygon class="st5" points="194.1,353.6 192.6,352.7 192.8,350.6 194.5,349.4 196.1,350.3 195.9,352.4 		"/>
		<polygon class="st5" points="199.2,352.2 197.7,351.3 197.9,349.2 199.6,348 201.1,348.9 200.9,351 		"/>
		<polygon class="st5" points="204.3,350.7 202.8,349.8 202.9,347.7 204.7,346.5 206.2,347.4 206,349.5 		"/>
		<polygon class="st5" points="209.4,349.3 207.8,348.4 208,346.3 209.7,345.1 211.3,346 211.1,348.1 		"/>
		<polygon class="st5" points="214.4,347.8 212.9,346.9 213.1,344.8 214.8,343.6 216.4,344.5 216.2,346.6 		"/>
		<polygon class="st5" points="219.5,346.4 218,345.5 218.2,343.4 219.9,342.2 221.4,343.1 221.2,345.2 		"/>
		<polygon class="st5" points="224.6,344.9 223,344.1 223.2,342 225,340.8 226.5,341.6 226.3,343.7 		"/>
		<polygon class="st5" points="229.7,343.5 228.1,342.6 228.3,340.5 230,339.3 231.6,340.2 231.4,342.3 		"/>
	</g>
	<g>
		<polygon class="st5" points="187,361.1 185.5,360.2 185.6,358.1 187.4,356.9 188.9,357.8 188.7,359.9 		"/>
		<polygon class="st5" points="192.1,359.6 190.5,358.7 190.7,356.6 192.4,355.4 194,356.3 193.8,358.3 		"/>
		<polygon class="st5" points="197.1,358 195.6,357.2 195.8,355.1 197.5,353.9 199.1,354.7 198.9,356.8 		"/>
		<polygon class="st5" points="202.2,356.5 200.7,355.6 200.9,353.6 202.6,352.3 204.1,353.2 203.9,355.3 		"/>
		<polygon class="st5" points="207.3,355 205.8,354.1 205.9,352 207.7,350.8 209.2,351.7 209,353.8 		"/>
		<polygon class="st5" points="212.4,353.5 210.8,352.6 211,350.5 212.7,349.3 214.3,350.2 214.1,352.3 		"/>
		<polygon class="st5" points="217.4,352 215.9,351.1 216.1,349 217.8,347.8 219.4,348.7 219.2,350.8 		"/>
		<polygon class="st5" points="222.5,350.5 221,349.6 221.2,347.5 222.9,346.3 224.4,347.2 224.2,349.3 		"/>
		<polygon class="st5" points="227.6,349 226,348.1 226.2,346 228,344.8 229.5,345.7 229.3,347.8 		"/>
		<polygon class="st5" points="232.7,347.5 231.1,346.6 231.3,344.5 233,343.3 234.6,344.2 234.4,346.3 		"/>
	</g>
	<g>
		<polygon class="st5" points="183.9,368.4 182.4,367.5 182.6,365.4 184.3,364.2 185.8,365.1 185.7,367.2 		"/>
		<polygon class="st5" points="189,366.7 187.5,365.8 187.6,363.7 189.4,362.5 190.9,363.4 190.7,365.5 		"/>
		<polygon class="st5" points="194.1,365 192.5,364.1 192.7,362 194.5,360.8 196,361.7 195.8,363.8 		"/>
		<polygon class="st5" points="199.2,363.2 197.6,362.3 197.8,360.2 199.5,359 201.1,359.9 200.9,362 		"/>
		<polygon class="st5" points="204.3,361.5 202.7,360.6 202.9,358.5 204.6,357.3 206.2,358.2 206,360.3 		"/>
		<polygon class="st5" points="209.3,359.8 207.8,358.9 208,356.8 209.7,355.6 211.2,356.5 211.1,358.6 		"/>
		<polygon class="st5" points="214.4,358 212.9,357.1 213.1,355 214.8,353.8 216.3,354.7 216.1,356.8 		"/>
		<polygon class="st5" points="219.5,356.3 218,355.4 218.1,353.3 219.9,352.1 221.4,353 221.2,355.1 		"/>
		<polygon class="st5" points="224.6,354.6 223,353.7 223.2,351.6 224.9,350.4 226.5,351.3 226.3,353.4 		"/>
		<polygon class="st5" points="229.7,352.8 228.1,351.9 228.3,349.8 230,348.6 231.6,349.5 231.4,351.6 		"/>
	</g>
	<polyline class="st1" points="3.9,35.7 182.9,30.5 320.2,29.7 212.4,19.1 3.9,21.7 	"/>
	<line class="st1" x1="2.4" y1="337.1" x2="139" y2="300.9"/>
	<path class="st1" d="M261.6,267.3l39.5-12.4l8.5,5.8c0,0,5.1,4.4,7.2-1.7c2.1-6.1,2.1-14.8,2.1-14.8s0.1-4.6-1.9-7.1
		s-5.1-8.2-5.1-10.6s17.2-164,17.2-164s-1.7-6.7-0.4-9.3s6.7-7.6,6.7-7.6s4.6-6.3,2.1-13.5l-18.4-2.6"/>
	<line class="st1" x1="92.7" y1="34.3" x2="113.4" y2="268.2"/>
	<g>
		<path class="st0" d="M102.1,49.7l-4.5,0.2c-1,0-1.8-0.7-1.9-1.7l-0.3-7.5c0-1,0.7-1.8,1.7-1.9l4.5-0.2c1,0,1.8,0.7,1.9,1.7
			l0.3,7.5C103.9,48.8,103.1,49.6,102.1,49.7z"/>
		<path class="st0" d="M102.1,47.5l-4.5,0.2c-1,0-1.8-0.7-1.9-1.7l-0.3-7.5c0-1,0.7-1.8,1.7-1.9l4.5-0.2c1,0,1.8,0.7,1.9,1.7
			l0.3,7.5C103.9,46.6,103.1,47.4,102.1,47.5z"/>
		<g>
			<path d="M101.4,45.7l-2.8,0.1c-1,0-1.8-0.7-1.9-1.7l-0.1-4.2c0-1,0.7-1.8,1.7-1.9l2.8-0.1c1,0,1.8,0.7,1.9,1.7l0.1,4.2
				C103.2,44.8,102.4,45.7,101.4,45.7z"/>
			<text transform="matrix(0.9992 -3.969000e-02 3.969000e-02 0.9992 97.8651 44.7351)" class="st7 st11 st12">A1</text>
			<polygon class="st9" points="98.4,39.1 101.3,39 99.9,41.1 			"/>
		</g>
		<path class="st1" d="M95.8,36.6c0,0-1.4-0.5-1.2,2.3c0.2,2.8,0.6,12.1,0.6,12.1S95,53.2,97,53.2l5.4-0.3c0,0,2,0.1,1.5-3.4"/>
	</g>
	<g>
		<path class="st13" d="M232.2,44.5l-3.4-0.1c-1,0-1.8-0.8-1.8-1.8l0.1-5.9c0-1,0.8-1.8,1.8-1.8l3.4,0.1c1,0,1.8,0.8,1.8,1.8
			l-0.1,5.9C234,43.7,233.2,44.5,232.2,44.5z"/>
		<path class="st13" d="M232.3,42.6l-3.4-0.1c-1,0-1.8-0.8-1.8-1.8l0.1-5.9c0-1,0.8-1.8,1.8-1.8l3.4,0.1c1,0,1.8,0.8,1.8,1.8
			l-0.1,5.9C234.1,41.8,233.3,42.6,232.3,42.6z"/>
		<g>
			<path d="M231.8,41l-1.9,0c-1,0-1.8-0.8-1.8-1.8l0.1-3.1c0-1,0.8-1.8,1.8-1.8l1.9,0c1,0,1.8,0.8,1.8,1.8l-0.1,3.1
				C233.6,40.3,232.8,41,231.8,41z"/>
			<text transform="matrix(0.9999 1.610000e-02 -1.610000e-02 0.9999 228.9995 40.0797)" class="st7 st11 st14">B1</text>
			<polygon class="st9" points="229.7,35.2 232.3,35.3 231,37 			"/>
		</g>
		<path class="st1" d="M227.6,32.9c0,0-1.2-0.5-1.2,1.9c0,2.4-0.1,10.4-0.1,10.4s-0.2,1.9,1.5,2l4.7,0c0,0,1.7,0.1,1.4-2.8"/>
	</g>
	<g>
		<path class="st0" d="M103.7,71.8L99.2,72c-1,0-1.8-0.7-1.9-1.7L97,62.9c0-1,0.7-1.8,1.7-1.9l4.5-0.2c1,0,1.8,0.7,1.9,1.7l0.4,7.5
			C105.5,70.9,104.7,71.8,103.7,71.8z"/>
		<path class="st0" d="M103.7,69.6l-4.5,0.2c-1,0-1.8-0.7-1.9-1.7L97,60.7c0-1,0.7-1.8,1.7-1.9l4.5-0.2c1,0,1.8,0.7,1.9,1.7l0.4,7.5
			C105.5,68.7,104.7,69.6,103.7,69.6z"/>
		<g>
			<path d="M103,67.9l-2.8,0.1c-1,0-1.8-0.7-1.9-1.7l-0.2-4.2c0-1,0.7-1.8,1.7-1.9l2.8-0.1c1,0,1.8,0.7,1.9,1.7l0.2,4.2
				C104.7,67,104,67.8,103,67.9z"/>
			<text transform="matrix(0.9987 -5.166000e-02 5.166000e-02 0.9987 99.3921 66.9004)" class="st7 st11 st15">A2</text>
			<polygon class="st9" points="99.9,61.3 102.8,61.2 101.5,63.2 			"/>
		</g>
		<path class="st1" d="M97.2,58.8c0,0-1.4-0.5-1.2,2.3c0.2,2.8,0.7,12,0.7,12s0,2.2,2,2.2l5.4-0.4c0,0,2,0,1.5-3.4"/>
	</g>
	<g>
		<path class="st0" d="M105.4,94.4l-4.5,0.2c-1,0-1.8-0.7-1.9-1.7l-0.4-7.5c0-1,0.7-1.8,1.7-1.9l4.5-0.2c1,0,1.8,0.7,1.9,1.7
			l0.4,7.5C107.2,93.5,106.4,94.3,105.4,94.4z"/>
		<path class="st0" d="M105.4,92.2l-4.5,0.2c-1,0-1.8-0.7-1.9-1.7l-0.4-7.5c0-1,0.7-1.8,1.7-1.9l4.5-0.2c1,0,1.8,0.7,1.9,1.7
			l0.4,7.5C107.1,91.3,106.4,92.1,105.4,92.2z"/>
		<g>
			<path d="M104.7,90.4l-2.8,0.1c-1,0-1.8-0.7-1.9-1.7l-0.2-4.2c0-1,0.7-1.8,1.7-1.9l2.8-0.1c1,0,1.8,0.7,1.9,1.7l0.2,4.2
				C106.4,89.5,105.6,90.4,104.7,90.4z"/>
			<text transform="matrix(0.9987 -5.166000e-02 5.166000e-02 0.9987 101.0706 89.4609)" class="st7 st11 st15">A3</text>
			<polygon class="st9" points="101.5,83.9 104.5,83.7 103.1,85.8 			"/>
		</g>
		<path class="st1" d="M98.9,81.4c0,0-1.4-0.5-1.2,2.3c0.2,2.8,0.7,12,0.7,12s0,2.2,2,2.2l5.4-0.4c0,0,2,0,1.5-3.4"/>
	</g>
	<g>
		<path class="st0" d="M107.5,118.3l-4.5,0.3c-1,0.1-1.9-0.7-1.9-1.7l-0.6-7.5c-0.1-1,0.7-1.9,1.7-1.9l4.5-0.3
			c1-0.1,1.9,0.7,1.9,1.7l0.6,7.5C109.3,117.4,108.5,118.3,107.5,118.3z"/>
		<path class="st0" d="M107.4,116.1l-4.5,0.3c-1,0.1-1.9-0.7-1.9-1.7l-0.6-7.5c-0.1-1,0.7-1.9,1.7-1.9l4.5-0.3
			c1-0.1,1.9,0.7,1.9,1.7l0.6,7.5C109.2,115.2,108.4,116.1,107.4,116.1z"/>
		<g>
			<path d="M106.7,114.4l-2.8,0.2c-1,0.1-1.9-0.7-1.9-1.7l-0.3-4.2c-0.1-1,0.7-1.9,1.7-1.9l2.8-0.2c1-0.1,1.9,0.7,1.9,1.7l0.3,4.2
				C108.4,113.4,107.7,114.3,106.7,114.4z"/>
			<text transform="matrix(0.9969 -7.875000e-02 7.875000e-02 0.9969 103.065 113.5262)" class="st7 st11 st15">A4</text>
			<polygon class="st9" points="103.4,107.9 106.3,107.7 105,109.8 			"/>
		</g>
		<path class="st1" d="M100.7,105.5c0,0-1.4-0.4-1.2,2.3c0.3,2.7,1,12,1,12s0,2.2,2,2.2l5.4-0.5c0,0,2,0,1.4-3.4"/>
	</g>
	<g>
		<path class="st0" d="M108.5,138.1l-4,0.3c-1,0.1-1.9-0.7-1.9-1.6L102,130c-0.1-1,0.7-1.9,1.6-1.9l4-0.3c1-0.1,1.9,0.7,1.9,1.6
			l0.6,6.8C110.2,137.2,109.5,138,108.5,138.1z"/>
		<path class="st0" d="M108.4,136.1l-4,0.3c-1,0.1-1.9-0.7-1.9-1.6l-0.6-6.8c-0.1-1,0.7-1.9,1.6-1.9l4-0.3c1-0.1,1.9,0.7,1.9,1.6
			l0.6,6.8C110.1,135.1,109.4,136,108.4,136.1z"/>
		<g>
			<path d="M107.7,134.4l-2.4,0.2c-1,0.1-1.9-0.7-1.9-1.6l-0.3-3.7c-0.1-1,0.7-1.9,1.6-1.9l2.4-0.2c1-0.1,1.9,0.7,1.9,1.6l0.3,3.7
				C109.4,133.4,108.7,134.3,107.7,134.4z"/>
			<text transform="matrix(0.9962 -8.651999e-02 8.651999e-02 0.9962 104.3795 133.6893)" class="st7 st11 st16">A5</text>
			<polygon class="st9" points="104.6,128.3 107.4,128.1 106.2,130.1 			"/>
		</g>
		<path class="st1" d="M102.1,126c0,0-1.4-0.4-1.1,2.2c0.3,2.6,1.1,11.4,1.1,11.4s0,2.1,1.9,2l5.1-0.5c0,0,1.9,0,1.3-3.2"/>
	</g>
	<path class="st0" d="M112.2,168.7l-5.1,0.9c-0.5,0-0.9-0.3-0.9-0.8l-1-11.3c0-0.5,0.3-0.9,0.8-0.9l5.2-0.8c0.5,0,0.9,0.3,0.9,0.8
		l0.9,11.3C113.1,168.3,112.7,168.7,112.2,168.7z"/>
	<path d="M111.6,167.6l-4.1,0.7c-0.4,0-0.7-0.3-0.8-0.7l-0.9-9.2c0-0.4,0.3-0.7,0.7-0.8l4.2-0.7c0.4,0,0.7,0.3,0.8,0.7l0.7,9.1
		C112.3,167.2,112,167.5,111.6,167.6z"/>
	<g>
		<text transform="matrix(0.9895 -0.1444 0.1444 0.9895 108.042 167.2627)" class="st7 st11 st17">A1</text>
		<polygon class="st9" points="107.5,158.7 110,158.3 109,160.2 		"/>
	</g>
	<g>
		<path class="st1" d="M113.4,193.9l-5,0.6c-0.5,0.1-0.9-0.3-1-0.8l-0.6-7.5c0-0.5,0.3-0.9,0.8-1l5-0.6c0.5-0.1,0.9,0.3,1,0.8
			l0.6,7.5C114.3,193.4,113.9,193.8,113.4,193.9z"/>
		<path class="st1" d="M114.2,193c0.6,2.8-1.1,2.9-1.1,2.9l-4.4,0.6c-1.7,0.1-1.7-1.6-1.7-1.6s-0.5-7.8-0.9-10.1
			c-0.4-1.8,1-1.8,1-1.8l4.7-0.6c0,0,1.7-0.2,1.7,1.2"/>
		<path class="st0" d="M113.3,192.5l-5,0.6c-0.5,0.1-0.9-0.3-1-0.8l-0.6-7.5c0-0.5,0.3-0.9,0.8-1l5-0.6c0.5-0.1,0.9,0.3,1,0.8
			l0.6,7.5C114.1,192,113.7,192.5,113.3,192.5z"/>
		<g>
			<path d="M112.8,191.6l-3.7,0.5c-0.5,0.1-1-0.3-1-0.7l-0.4-4.6c0-0.5,0.3-0.9,0.9-1l3.7-0.5c0.5-0.1,1,0.3,1,0.7l0.4,4.6
				C113.7,191.1,113.3,191.6,112.8,191.6z"/>
			<text transform="matrix(1.0564 -0.1501 8.205999e-02 0.9966 109.1015 191.3155)" class="st7 st11 st18">A7</text>
			<polygon class="st9" points="109.3,186.6 111.9,186.3 110.7,188.1 			"/>
		</g>
	</g>
	<g>
		<path class="st1" d="M114.9,213.8l-5,0.6c-0.5,0.1-0.9-0.3-1-0.8l-0.6-7.5c0-0.5,0.3-0.9,0.8-1l5-0.6c0.5-0.1,0.9,0.3,1,0.8
			l0.6,7.5C115.8,213.3,115.4,213.7,114.9,213.8z"/>
		<path class="st1" d="M115.7,212.9c0.6,2.8-1.1,2.9-1.1,2.9l-4.4,0.6c-1.7,0.1-1.7-1.6-1.7-1.6s-0.5-7.8-0.9-10.1
			c-0.4-1.8,1-1.8,1-1.8l4.7-0.6c0,0,1.7-0.2,1.7,1.2"/>
		<path class="st1" d="M114.8,212.4l-5,0.6c-0.5,0.1-0.9-0.3-1-0.8l-0.6-7.5c0-0.5,0.3-0.9,0.8-1l5-0.6c0.5-0.1,0.9,0.3,1,0.8
			l0.6,7.5C115.6,211.9,115.2,212.3,114.8,212.4z"/>
		<g>
			<path d="M114.3,211.5l-3.7,0.5c-0.5,0.1-1-0.3-1-0.7l-0.4-4.6c0-0.5,0.3-0.9,0.9-1l3.7-0.5c0.5-0.1,1,0.3,1,0.7l0.4,4.6
				C115.2,211,114.8,211.5,114.3,211.5z"/>
			<text transform="matrix(1.0564 -0.1501 8.205999e-02 0.9966 110.5932 211.2024)" class="st7 st11 st18">A8</text>
			<polygon class="st9" points="110.8,206.5 113.4,206.1 112.2,207.9 			"/>
		</g>
	</g>
	<g>
		<path class="st1" d="M116.6,231.5l-5,0.6c-0.5,0.1-0.9-0.3-1-0.8L110,224c0-0.5,0.3-0.9,0.8-1l5-0.6c0.5-0.1,0.9,0.3,1,0.8
			l0.6,7.5C117.5,231,117.1,231.5,116.6,231.5z"/>
		<path class="st1" d="M117.4,230.7c0.6,2.8-1.1,2.9-1.1,2.9l-4.4,0.6c-1.7,0.1-1.7-1.6-1.7-1.6s-0.5-7.8-0.9-10.1
			c-0.4-1.8,1-1.8,1-1.8l4.7-0.6c0,0,1.7-0.2,1.7,1.2"/>
		<path class="st1" d="M116.4,230.2l-5,0.6c-0.5,0.1-0.9-0.3-1-0.8l-0.6-7.5c0-0.5,0.3-0.9,0.8-1l5-0.6c0.5-0.1,0.9,0.3,1,0.8
			l0.6,7.5C117.3,229.7,116.9,230.1,116.4,230.2z"/>
		<g>
			<path d="M116,229.3l-3.7,0.5c-0.5,0.1-1-0.3-1-0.7l-0.4-4.6c0-0.5,0.3-0.9,0.9-1l3.7-0.5c0.5-0.1,1,0.3,1,0.7l0.4,4.6
				C116.9,228.8,116.5,229.2,116,229.3z"/>
			<text transform="matrix(1.0564 -0.1501 8.205999e-02 0.9966 112.2699 228.9765)" class="st7 st11 st18">A9</text>
			<polygon class="st9" points="112.5,224.3 115,223.9 113.9,225.7 			"/>
		</g>
	</g>
	<g>
		<path class="st1" d="M117.7,247.6l-5,0.6c-0.5,0.1-0.9-0.3-1-0.8l-0.6-7.5c0-0.5,0.3-0.9,0.8-1l5-0.6c0.5-0.1,0.9,0.3,1,0.8
			l0.6,7.5C118.6,247.1,118.2,247.6,117.7,247.6z"/>
		<path class="st1" d="M118.5,246.7c0.6,2.8-1.1,2.9-1.1,2.9l-4.4,0.6c-1.7,0.1-1.7-1.6-1.7-1.6s-0.5-7.8-0.9-10.1
			c-0.4-1.8,1-1.8,1-1.8l4.7-0.6c0,0,1.7-0.2,1.7,1.2"/>
		<path class="st1" d="M117.5,246.3l-5,0.6c-0.5,0.1-0.9-0.3-1-0.8l-0.6-7.5c0-0.5,0.3-0.9,0.8-1l5-0.6c0.5-0.1,0.9,0.3,1,0.8
			l0.6,7.5C118.4,245.8,118,246.2,117.5,246.3z"/>
		<g>
			<path d="M117.1,245.4l-3.7,0.5c-0.5,0.1-1-0.3-1-0.7l-0.4-4.6c0-0.5,0.3-0.9,0.9-1l3.7-0.5c0.5-0.1,1,0.3,1,0.7l0.4,4.6
				C118,244.9,117.6,245.3,117.1,245.4z"/>
			<text transform="matrix(0.8624 -0.1354 8.085000e-02 0.9967 113.3511 245.2219)" class="st7 st11 st19">A10</text>
			<polygon class="st9" points="113.6,240.4 116.2,240 115,241.8 			"/>
		</g>
	</g>
	<g>
		<path class="st1" d="M119.3,263.5l-4.7,0.6c-0.5,0.1-0.9-0.3-0.9-0.7l-0.6-7c0-0.5,0.3-0.9,0.8-0.9l4.7-0.6
			c0.5-0.1,0.9,0.3,0.9,0.7l0.6,7C120.1,263.1,119.8,263.5,119.3,263.5z"/>
		<path class="st1" d="M120.1,262.7c0.5,2.7-1.1,2.7-1.1,2.7l-4.1,0.6c-1.6,0.1-1.6-1.5-1.6-1.5s-0.5-7.3-0.9-9.5
			c-0.3-1.7,0.9-1.7,0.9-1.7l4.4-0.6c0,0,1.6-0.2,1.6,1.1"/>
		<path class="st1" d="M119.2,262.3l-4.7,0.6c-0.5,0.1-0.9-0.3-0.9-0.7l-0.6-7c0-0.5,0.3-0.9,0.8-0.9l4.7-0.6
			c0.5-0.1,0.9,0.3,0.9,0.7l0.6,7C120,261.8,119.6,262.2,119.2,262.3z"/>
		<g>
			<path d="M118.7,261.4l-3.5,0.5c-0.5,0.1-0.9-0.2-0.9-0.7l-0.3-4.3c0-0.4,0.3-0.9,0.8-0.9l3.5-0.5c0.5-0.1,0.9,0.2,0.9,0.7
				l0.3,4.3C119.6,261,119.2,261.4,118.7,261.4z"/>
			<text transform="matrix(0.8624 -0.1354 8.085000e-02 0.9967 115.2205 261.2763)" class="st7 st11 st20">A11</text>
			<polygon class="st9" points="115.5,256.7 117.9,256.4 116.8,258.1 			"/>
		</g>
	</g>
	<line class="st1" x1="94.5" y1="58.5" x2="-8.8" y2="63.4"/>
	<line class="st1" x1="296.1" y1="49" x2="236.2" y2="51.9"/>
	<line class="st1" x1="96" y1="81.1" x2="-3.8" y2="87.4"/>
	<line class="st1" x1="299.4" y1="68.2" x2="270.4" y2="70"/>
	<line class="st1" x1="98.3" y1="102.9" x2="-1.7" y2="111"/>
	<line class="st1" x1="300.7" y1="86.6" x2="274.5" y2="88.7"/>
	<line class="st1" x1="99.8" y1="123.7" x2="2.5" y2="132.9"/>
	<line class="st1" x1="301.6" y1="104.5" x2="273.2" y2="107.2"/>
	<line class="st1" x1="102.2" y1="143.9" x2="2.5" y2="154.6"/>
	<line class="st1" x1="298.6" y1="122.8" x2="271.9" y2="125.7"/>
	<line class="st1" x1="105.3" y1="179.8" x2="2.5" y2="193.6"/>
	<line class="st1" x1="297.4" y1="154" x2="270.2" y2="157.6"/>
	<line class="st1" x1="107" y1="199" x2="2.5" y2="216.1"/>
	<line class="st1" x1="299.7" y1="167.3" x2="269.2" y2="172.4"/>
	<line class="st1" x1="92.6" y1="222.4" x2="2.5" y2="239.3"/>
	<line class="st1" x1="291.1" y1="185.1" x2="268.4" y2="189.4"/>
	<path class="st1" d="M103.7,33.5l16.4,233l60.3,103.6l0.6-0.1c0,0-4.7-295.1-4.8-298.9c-0.1-3.9,2.7-4.7,2.7-4.7l-10.4-2.6
		c0,0-2.6,0.2-2.6,5s6.5,287.1,6.5,287.1"/>
	<line class="st1" x1="94.5" y1="239.3" x2="2.5" y2="258.2"/>
	<line class="st1" x1="297.3" y1="197.5" x2="266.2" y2="203.9"/>
	<line class="st1" x1="95.9" y1="255.7" x2="2.5" y2="276.3"/>
	<line class="st1" x1="286.4" y1="213" x2="265.4" y2="217.7"/>
	<line class="st1" x1="98" y1="271.5" x2="2.5" y2="294"/>
	<line class="st21" x1="120.2" y1="266.3" x2="112.1" y2="268.2"/>
	<line class="st1" x1="285.7" y1="227.3" x2="264.1" y2="232.4"/>
	<line class="st1" x1="34.7" y1="316.6" x2="2.5" y2="324.8"/>
	<line class="st1" x1="118.6" y1="295.4" x2="48.4" y2="313.1"/>
	<line class="st1" x1="316" y1="31.4" x2="299.2" y2="226.9"/>
	<line class="st1" x1="224.2" y1="30.6" x2="223.8" y2="49.9"/>
	<path class="st22" d="M300.1,226.8c2.2-2.5-0.5-3.6-0.5-3.6l-4.6-1l-9.8,2.1l-0.2,2.2c0,0,1.4,1,3.1,1.6c2.8,1,6.1,0.7,6.1,0.7
		C294.8,228.7,299.3,227.7,300.1,226.8z"/>
	<line class="st1" x1="295.7" y1="214.7" x2="295" y2="222.1"/>
	<line class="st1" x1="298.2" y1="186.4" x2="296.2" y2="208.4"/>
	<line class="st1" x1="301.1" y1="154.7" x2="298.8" y2="180"/>
	<line class="st1" x1="303.8" y1="123.7" x2="301.6" y2="148.2"/>
	<line class="st1" x1="305.5" y1="104.8" x2="304.4" y2="116.9"/>
	<line class="st1" x1="307" y1="87.9" x2="306.2" y2="97.8"/>
	<line class="st1" x1="308.7" y1="69.7" x2="307.7" y2="81"/>
	<line class="st1" x1="310.2" y1="52.4" x2="309.2" y2="63.9"/>
	<line class="st1" x1="312.1" y1="32" x2="310.7" y2="47.2"/>
	<g>
		<path class="st22" d="M303.9,185.1c2.1-2.2-0.6-3.6-0.6-3.6l-4.7-1.4l-9.9,1.2l-0.1,2.6c0,0,1.4,0.7,3.2,1.5
			c2.9,1.2,6.2,1.2,6.2,1.2C298.5,186.5,303.1,185.9,303.9,185.1z"/>
		<path class="st0" d="M301.8,181.7c0,0,2.1,0.6,1.3,1.3c-1.5,1.3-5.9,1.2-5.9,1.2s-3.8-0.3-4.7-1.4c0,0-0.2-0.4,0.7-0.5
			c1-0.2,6.8-1,6.8-1S301.5,181.5,301.8,181.7z"/>
	</g>
	<g>
		<path class="st22" d="M308.4,153.2c2.1-2.2-0.6-3.6-0.6-3.6l-4.7-1.4l-9.9,1.2l-0.1,2.6c0,0,1.4,0.7,3.2,1.5
			c2.9,1.2,6.2,1.2,6.2,1.2C303,154.6,307.6,154,308.4,153.2z"/>
		<path class="st0" d="M306.3,149.9c0,0,2.1,0.6,1.3,1.3c-1.5,1.3-5.9,1.2-5.9,1.2s-3.8-0.3-4.7-1.4c0,0-0.2-0.4,0.7-0.5
			c1-0.2,6.8-1,6.8-1S306,149.6,306.3,149.9z"/>
	</g>
	<g>
		<path class="st22" d="M305.9,168.6c2.1-2.2-0.6-3.6-0.6-3.6l-4.7-1.4l-9.9,1.2l-0.1,2.6c0,0,1.4,0.7,3.2,1.5
			c2.9,1.2,6.2,1.2,6.2,1.2C300.5,170,305.1,169.4,305.9,168.6z"/>
		<path class="st0" d="M303.8,165.2c0,0,2.1,0.6,1.3,1.3c-1.5,1.3-5.9,1.2-5.9,1.2s-3.8-0.3-4.7-1.4c0,0-0.2-0.4,0.7-0.5
			c1-0.2,6.8-1,6.8-1S303.5,165,303.8,165.2z"/>
	</g>
	<g>
		<path class="st22" d="M302.4,199.1c2.1-2.2-0.6-3.6-0.6-3.6l-4.7-1.4l-9.9,1.2l-0.1,2.6c0,0,1.4,0.7,3.2,1.5
			c2.9,1.2,6.2,1.2,6.2,1.2C297,200.5,301.6,199.9,302.4,199.1z"/>
		<path class="st0" d="M300.3,195.7c0,0,2.1,0.6,1.3,1.3c-1.5,1.3-5.9,1.2-5.9,1.2s-3.8-0.3-4.7-1.4c0,0-0.2-0.4,0.7-0.5
			c1-0.2,6.8-1,6.8-1S300,195.5,300.3,195.7z"/>
	</g>
	<g>
		<path class="st22" d="M310,121.9c2.1-2.2-0.6-3.6-0.6-3.6l-4.7-1.4l-9.9,1.2l-0.1,2.6c0,0,1.4,0.7,3.2,1.5
			c2.9,1.2,6.2,1.2,6.2,1.2C304.7,123.4,309.3,122.7,310,121.9z"/>
		<path class="st0" d="M308,118.6c0,0,2.1,0.6,1.3,1.3c-1.5,1.3-5.9,1.2-5.9,1.2s-3.8-0.3-4.7-1.4c0,0-0.2-0.4,0.7-0.5
			c1-0.2,6.8-1,6.8-1S307.7,118.4,308,118.6z"/>
	</g>
	<g>
		<path class="st22" d="M311,103c2.1-2.2-0.6-3.6-0.6-3.6l-4.7-1.4l-9.9,1.2l-0.1,2.6c0,0,1.4,0.7,3.2,1.5c2.9,1.2,6.2,1.2,6.2,1.2
			C305.6,104.4,310.2,103.8,311,103z"/>
		<path class="st0" d="M308.9,99.6c0,0,2.1,0.6,1.3,1.3c-1.5,1.3-5.9,1.2-5.9,1.2s-3.8-0.3-4.7-1.4c0,0-0.2-0.4,0.7-0.5
			c1-0.2,6.8-1,6.8-1S308.6,99.4,308.9,99.6z"/>
	</g>
	<g>
		<path class="st22" d="M312.3,68.4c2.2-2.2-0.5-3.6-0.5-3.6l-4.6-1.6l-9.9,0.8l-0.2,2.5c0,0,1.4,0.8,3.2,1.6
			c2.8,1.3,6.1,1.5,6.1,1.5C306.9,69.7,311.5,69.2,312.3,68.4z"/>
		<path class="st0" d="M310.3,65c0,0,2,0.7,1.2,1.4c-1.5,1.3-5.9,1-5.9,1s-3.8-0.4-4.7-1.6c0,0-0.2-0.4,0.8-0.5s6.8-0.7,6.8-0.7
			S310,64.8,310.3,65z"/>
	</g>
	<g>
		<path class="st22" d="M312.3,51.3c2.2-2.2-0.5-3.6-0.5-3.6l-4.6-1.6l-9.9,0.8l-0.2,2.5c0,0,1.4,0.8,3.2,1.6
			c2.8,1.3,6.1,1.5,6.1,1.5C306.9,52.6,311.5,52.1,312.3,51.3z"/>
		<path class="st0" d="M310.3,47.9c0,0,2,0.7,1.2,1.4c-1.5,1.3-5.9,1-5.9,1s-3.8-0.4-4.7-1.6c0,0-0.2-0.4,0.8-0.5
			c1-0.1,6.8-0.7,6.8-0.7S310,47.7,310.3,47.9z"/>
	</g>
	<g>
		<path class="st22" d="M312.3,86.4c2.2-2.2-0.5-3.6-0.5-3.6l-4.7-1.6l-9.9,0.9l-0.2,2.5c0,0,1.4,0.7,3.2,1.6
			c2.8,1.3,6.2,1.4,6.2,1.4C306.9,87.8,311.5,87.2,312.3,86.4z"/>
		<path class="st0" d="M310.3,83.1c0,0,2,0.7,1.3,1.4c-1.5,1.3-5.9,1.1-5.9,1.1s-3.8-0.4-4.7-1.5c0,0-0.2-0.4,0.7-0.5
			c1-0.1,6.8-0.8,6.8-0.8S310,82.8,310.3,83.1z"/>
	</g>
	<g>
		<path class="st22" d="M300.9,213.5c2.1-2.2-0.6-3.6-0.6-3.6l-4.7-1.4l-9.9,1.2l-0.1,2.6c0,0,1.4,0.7,3.2,1.5
			c2.9,1.2,6.2,1.2,6.2,1.2C295.6,214.9,300.1,214.3,300.9,213.5z"/>
		<path class="st0" d="M298.8,210.1c0,0,2.1,0.6,1.3,1.3c-1.5,1.3-5.9,1.2-5.9,1.2s-3.8-0.3-4.7-1.4c0,0-0.2-0.4,0.7-0.5
			c1-0.2,6.8-1,6.8-1S298.5,209.9,298.8,210.1z"/>
		<path class="st0" d="M298.3,223.6c0,0,2.1,0.6,1.3,1.4c-1.5,1.5-5.9,1.5-5.9,1.5s-3.8-0.2-4.8-1.4c0,0-0.2-0.4,0.7-0.6
			c1-0.2,6.8-1.2,6.8-1.2S298,223.4,298.3,223.6z"/>
	</g>
	<path class="st1" d="M263.4,238.7l5.5,4.8c0,0,2.2,2.3,7.8,0.7s25.5-7.3,25.5-7.3l-9.6-7.6"/>
	<path class="st1" d="M296.2,229.1l8.5,6.6c0,0,5,3.8,3,6.6l-1,1.2l-29.7,8.1c0,0-3.1,2.3-4.3,5.3c-1.2,3-8,3.8-8,3.8
		s-2.5-0.5-2.8-1.3"/>
	<path class="st1" d="M265.7,257.5c2.7-6.5-3-10.1-3-10.1l0.2-4.8l5,4c0,0,5,6.3,0.7,10.3c0,0-3.5,2-6.5,0.3"/>
	<line class="st1" x1="293.7" y1="256.1" x2="294.2" y2="247.2"/>
	<path class="st13" d="M185.7,61.1h-0.5c-1.4,0-2.5-1.1-2.5-2.5v-4.4c0-1.4,1.1-2.5,2.5-2.5h0.5c1.4,0,2.5,1.1,2.5,2.5v4.4
		C188.2,60,187.1,61.1,185.7,61.1z"/>
	<path class="st1" d="M40.6,288.9l-4.7,1.1l2.3,13.1l2.8,13.8l6.3-1.7c-1.2-2.8,3-4.5,3-4.5l45.4-11.9c3.3-2.2,0-8.3,0-8.3
		l-5.3-12.9l-4,0.9l4,10.4c0,0,1.7,2-1.5,3s-42.1,10.8-42.1,10.8s-3.5,0-4-2.3S40.6,288.9,40.6,288.9z"/>
	<path class="st1" d="M33.1,292.3l-3.5,0.5c0,0-1.8,0-0.7,3.8l4.6,16.7c0,0,1.8,5.6,3.3,4.6l0.7-1.3L33.1,292.3z"/>
	<line class="st21" x1="36.5" y1="293.8" x2="33.7" y2="294.1"/>
	<line class="st1" x1="40.7" y1="316.1" x2="37.5" y2="316.6"/>
	<path class="st1" d="M111.6,275.5l0.5,9.3l5,7.8c0,0,5.3,7.6,4.5-1c0,0-1.8-6.3-5.5-10.8S111.6,275.5,111.6,275.5z"/>
	<path class="st1" d="M121.4,296.1c4.6-0.2,0.3-11.4,0.3-11.4l-5.1-10.1l-1.2-2.3l-3.8,3.3"/>
	<path class="st1" d="M117.1,275l2.2-0.8c0,0,9.8,13.9,7.3,20.7l-3.6,1.2"/>
	<path class="st1" d="M126.5,294.9l4.8-1c0,0,0.5-3.3,2.5-3.8"/>
	<polyline class="st1" points="121.9,270.1 117.1,271.4 119.2,274.2 	"/>
	<path class="st1" d="M115.1,280c0,0-3.1-0.5,1,10.9"/>
	<g>
		<polygon class="st5" points="42.8,290.4 42.5,289.5 43.4,288.6 44.6,288.8 45,289.7 44,290.6 		"/>
		<polygon class="st5" points="47,287.8 48.2,287.9 48.6,288.9 47.6,289.7 46.4,289.6 46,288.6 		"/>
		<polygon class="st5" points="50.6,286.9 51.8,287.1 52.1,288 51.2,288.9 50,288.7 49.6,287.8 		"/>
		<polygon class="st5" points="54.2,286.1 55.4,286.2 55.7,287.2 54.8,288 53.6,287.9 53.2,286.9 		"/>
		<polygon class="st5" points="57.8,285.2 59,285.4 59.3,286.3 58.4,287.2 57.2,287 56.8,286.1 		"/>
		<polygon class="st5" points="61.4,284.4 62.6,284.5 62.9,285.5 62,286.3 60.7,286.2 60.4,285.2 		"/>
		<polygon class="st5" points="65,283.5 66.2,283.7 66.5,284.6 65.6,285.5 64.3,285.3 64,284.4 		"/>
		<polygon class="st5" points="68.6,282.7 69.8,282.8 70.1,283.8 69.2,284.6 67.9,284.5 67.6,283.5 		"/>
		<polygon class="st5" points="72.1,281.8 73.4,282 73.7,282.9 72.8,283.8 71.5,283.6 71.2,282.7 		"/>
		<polygon class="st5" points="75.7,281 77,281.1 77.3,282.1 76.4,282.9 75.1,282.8 74.8,281.8 		"/>
		<polygon class="st5" points="79.3,280.1 80.6,280.2 80.9,281.2 80,282.1 78.7,281.9 78.4,281 		"/>
		<polygon class="st5" points="82.3,281.1 82,280.1 82.9,279.3 84.2,279.4 84.5,280.4 83.6,281.2 		"/>
	</g>
	<g>
		<polygon class="st5" points="45,292.8 44.7,291.8 45.7,291 46.9,291.1 47.2,292.1 46.3,292.9 		"/>
		<polygon class="st5" points="49.3,290.1 50.5,290.3 50.8,291.2 49.9,292.1 48.6,292 48.3,291 		"/>
		<polygon class="st5" points="52.8,289.3 54.1,289.4 54.4,290.4 53.5,291.2 52.2,291.1 51.9,290.1 		"/>
		<polygon class="st5" points="56.4,288.4 57.7,288.6 58,289.5 57.1,290.4 55.8,290.2 55.5,289.3 		"/>
		<polygon class="st5" points="60,287.6 61.3,287.7 61.6,288.7 60.7,289.5 59.4,289.4 59.1,288.4 		"/>
		<polygon class="st5" points="63.6,286.7 64.9,286.9 65.2,287.8 64.3,288.7 63,288.5 62.7,287.6 		"/>
		<polygon class="st5" points="67.2,285.9 68.5,286 68.8,287 67.9,287.8 66.6,287.7 66.3,286.7 		"/>
		<polygon class="st5" points="70.8,285 72.1,285.2 72.4,286.1 71.5,287 70.2,286.8 69.9,285.9 		"/>
		<polygon class="st5" points="74.4,284.2 75.7,284.3 76,285.3 75.1,286.1 73.8,286 73.5,285 		"/>
		<polygon class="st5" points="78,283.3 79.3,283.5 79.6,284.4 78.7,285.3 77.4,285.1 77.1,284.2 		"/>
		<polygon class="st5" points="81.6,282.5 82.9,282.6 83.2,283.6 82.2,284.4 81,284.3 80.7,283.3 		"/>
		<polygon class="st5" points="84.6,283.4 84.3,282.5 85.2,281.6 86.5,281.8 86.8,282.7 85.8,283.6 		"/>
	</g>
	<g>
		<polygon class="st5" points="43.5,296.1 43.1,295.1 44.1,294.3 45.3,294.4 45.6,295.3 44.7,296.2 		"/>
		<polygon class="st5" points="47.7,293.4 48.9,293.5 49.2,294.5 48.3,295.3 47,295.2 46.7,294.3 		"/>
		<polygon class="st5" points="51.3,292.6 52.5,292.7 52.8,293.6 51.9,294.5 50.6,294.4 50.3,293.4 		"/>
		<polygon class="st5" points="54.8,291.7 56.1,291.8 56.4,292.8 55.5,293.6 54.2,293.5 53.9,292.6 		"/>
		<polygon class="st5" points="58.4,290.9 59.7,291 60,291.9 59.1,292.8 57.8,292.7 57.5,291.7 		"/>
		<polygon class="st5" points="62,290 63.3,290.1 63.6,291.1 62.7,291.9 61.4,291.8 61.1,290.9 		"/>
		<polygon class="st5" points="65.6,289.2 66.9,289.3 67.2,290.2 66.3,291.1 65,291 64.7,290 		"/>
		<polygon class="st5" points="69.2,288.3 70.5,288.4 70.8,289.4 69.9,290.2 68.6,290.1 68.3,289.1 		"/>
		<polygon class="st5" points="72.8,287.5 74.1,287.6 74.4,288.5 73.5,289.4 72.2,289.3 71.9,288.3 		"/>
		<polygon class="st5" points="76.4,286.6 77.7,286.7 78,287.7 77.1,288.5 75.8,288.4 75.5,287.4 		"/>
		<polygon class="st5" points="80,285.8 81.3,285.9 81.6,286.8 80.7,287.7 79.4,287.6 79.1,286.6 		"/>
		<polygon class="st5" points="83,286.7 82.7,285.7 83.6,284.9 84.9,285 85.2,286 84.2,286.8 		"/>
	</g>
	<g>
		<polygon class="st5" points="45.8,298.2 45.5,297.2 46.4,296.4 47.7,296.5 48,297.5 47.1,298.3 		"/>
		<polygon class="st5" points="50.1,295.5 51.3,295.6 51.6,296.6 50.7,297.4 49.4,297.3 49.1,296.4 		"/>
		<polygon class="st5" points="53.7,294.7 54.9,294.8 55.3,295.7 54.3,296.6 53.1,296.5 52.7,295.5 		"/>
		<polygon class="st5" points="56.7,295.6 56.4,294.6 57.3,293.8 58.6,293.9 58.9,294.9 57.9,295.7 		"/>
	</g>
	<g>
		<polygon class="st5" points="48.5,300.2 48.1,299.2 49.1,298.4 50.3,298.5 50.6,299.5 49.7,300.3 		"/>
		<polygon class="st5" points="52.7,297.5 53.9,297.6 54.3,298.6 53.3,299.4 52.1,299.3 51.8,298.4 		"/>
		<polygon class="st5" points="56.3,296.7 57.6,296.8 57.9,297.7 56.9,298.6 55.7,298.5 55.4,297.5 		"/>
		<polygon class="st5" points="59.3,297.6 59,296.6 59.9,295.8 61.2,295.9 61.5,296.9 60.6,297.7 		"/>
	</g>
	<g>
		<polygon class="st5" points="100.6,298.1 100.3,297.1 101.2,296.3 102.4,296.4 102.8,297.3 101.8,298.2 		"/>
		<polygon class="st5" points="104.8,295.4 106.1,295.5 106.4,296.5 105.5,297.3 104.2,297.2 103.9,296.2 		"/>
		<polygon class="st5" points="108.4,294.5 109.7,294.6 110,295.6 109.1,296.4 107.8,296.3 107.5,295.4 		"/>
		<polygon class="st5" points="111.4,295.5 111.1,294.5 112.1,293.7 113.3,293.8 113.6,294.7 112.7,295.6 		"/>
	</g>
	<g>
		<polygon class="st5" points="279.5,257 279.2,256 280.1,255.2 281.4,255.3 281.7,256.3 280.8,257.1 		"/>
		<polygon class="st5" points="283.8,254 285.1,254.1 285.4,255.1 284.5,255.9 283.2,255.8 282.9,254.9 		"/>
		<polygon class="st5" points="287.5,252.9 288.8,253 289.1,253.9 288.2,254.8 286.9,254.7 286.6,253.7 		"/>
		<polygon class="st5" points="290.6,253.5 290.3,252.5 291.2,251.7 292.5,251.8 292.8,252.8 291.9,253.6 		"/>
	</g>
	<g>
		<polygon class="st5" points="265.9,236.3 265.7,235.5 266.5,234.7 267.7,234.9 267.9,235.7 267.1,236.5 		"/>
		<polygon class="st5" points="270.1,233.9 271.2,234 271.5,234.9 270.6,235.6 269.5,235.5 269.2,234.6 		"/>
		<polygon class="st5" points="273.6,233 274.7,233.1 275,234 274.2,234.7 273,234.6 272.8,233.7 		"/>
		<polygon class="st5" points="277.2,232.1 278.3,232.3 278.6,233.2 277.7,233.9 276.6,233.8 276.3,232.9 		"/>
		<polygon class="st5" points="280.7,231.3 281.8,231.4 282.1,232.3 281.2,233 280.1,232.9 279.9,232 		"/>
		<polygon class="st5" points="284.3,230.4 285.4,230.6 285.7,231.4 284.8,232.2 283.7,232 283.4,231.2 		"/>
		<polygon class="st5" points="287.2,231.2 286.9,230.3 287.8,229.6 288.9,229.7 289.2,230.6 288.3,231.3 		"/>
	</g>
	<g>
		<polygon class="st5" points="268.7,238.3 268.4,237.5 269.3,236.7 270.4,236.9 270.7,237.7 269.8,238.5 		"/>
		<polygon class="st5" points="272.8,235.9 274,236 274.2,236.9 273.4,237.6 272.2,237.5 272,236.6 		"/>
		<polygon class="st5" points="276.4,235 277.5,235.1 277.8,236 276.9,236.7 275.8,236.6 275.5,235.7 		"/>
		<polygon class="st5" points="279.9,234.1 281,234.3 281.3,235.2 280.5,235.9 279.3,235.8 279.1,234.9 		"/>
		<polygon class="st5" points="283.5,233.3 284.6,233.4 284.9,234.3 284,235 282.9,234.9 282.6,234 		"/>
		<polygon class="st5" points="287,232.4 288.1,232.6 288.4,233.4 287.5,234.2 286.4,234 286.2,233.2 		"/>
		<polygon class="st5" points="290,233.2 289.7,232.3 290.6,231.6 291.7,231.7 291.9,232.6 291.1,233.3 		"/>
	</g>
	<g>
		<polygon class="st5" points="267.2,241.1 266.9,240.2 267.8,239.5 268.9,239.6 269.2,240.5 268.3,241.2 		"/>
		<polygon class="st5" points="271.3,238.6 272.5,238.8 272.7,239.6 271.9,240.4 270.7,240.2 270.5,239.4 		"/>
		<polygon class="st5" points="274.9,237.8 276,237.9 276.3,238.8 275.4,239.5 274.3,239.4 274,238.5 		"/>
		<polygon class="st5" points="278.4,236.9 279.5,237 279.8,237.9 279,238.6 277.8,238.5 277.6,237.6 		"/>
		<polygon class="st5" points="282,236 283.1,236.2 283.4,237 282.5,237.8 281.4,237.6 281.1,236.8 		"/>
		<polygon class="st5" points="285.5,235.2 286.6,235.3 286.9,236.2 286,236.9 284.9,236.8 284.7,235.9 		"/>
		<polygon class="st5" points="288.5,235.9 288.2,235.1 289.1,234.3 290.2,234.4 290.4,235.3 289.6,236.1 		"/>
	</g>
	<g>
		<polygon class="st5" points="267.6,263.7 267.3,262.8 268.2,262.1 269.3,262.2 269.5,263.1 268.7,263.8 		"/>
		<polygon class="st5" points="271.8,260.9 272.9,261.1 273.2,261.9 272.3,262.7 271.2,262.5 271,261.7 		"/>
		<polygon class="st5" points="275.5,259.8 276.6,259.9 276.8,260.8 276,261.5 274.9,261.4 274.6,260.5 		"/>
		<polygon class="st5" points="279.1,258.6 280.2,258.7 280.5,259.6 279.6,260.3 278.5,260.2 278.3,259.3 		"/>
		<polygon class="st5" points="282.8,257.4 283.9,257.5 284.1,258.4 283.3,259.2 282.2,259 281.9,258.1 		"/>
		<polygon class="st5" points="286.4,256.2 287.5,256.4 287.8,257.2 286.9,258 285.8,257.8 285.5,257 		"/>
		<polygon class="st5" points="289.5,256.7 289.2,255.8 290.1,255.1 291.2,255.2 291.4,256.1 290.6,256.8 		"/>
	</g>
	<g>
		<polygon class="st5" points="101.8,294.9 101.5,294 102.4,293.1 103.7,293.2 104,294.2 103.1,295 		"/>
		<polygon class="st5" points="106.1,292.3 107.3,292.4 107.6,293.3 106.7,294.2 105.4,294.1 105.1,293.1 		"/>
		<polygon class="st5" points="109.7,291.4 110.9,291.5 111.3,292.5 110.3,293.3 109.1,293.2 108.8,292.2 		"/>
		<polygon class="st5" points="112.7,292.3 112.4,291.4 113.3,290.5 114.6,290.7 114.9,291.6 113.9,292.5 		"/>
	</g>
	<g>
		<polygon class="st5" points="99.1,292.7 98.8,291.7 99.7,290.9 100.9,291 101.3,292 100.3,292.8 		"/>
		<polygon class="st5" points="103.3,290 104.6,290.1 104.9,291.1 104,291.9 102.7,291.8 102.4,290.9 		"/>
		<polygon class="st5" points="106.9,289.2 108.2,289.3 108.5,290.2 107.6,291.1 106.3,291 106,290 		"/>
		<polygon class="st5" points="109.9,290.1 109.6,289.1 110.6,288.3 111.8,288.4 112.1,289.4 111.2,290.2 		"/>
	</g>
	<g>
		<polygon class="st5" points="19.6,318.9 19.3,318 20.2,317.1 21.4,317.2 21.8,318.2 20.8,319 		"/>
		<polygon class="st5" points="23.8,316.3 25.1,316.4 25.4,317.3 24.5,318.2 23.2,318.1 22.9,317.1 		"/>
		<polygon class="st5" points="27.4,315.4 28.7,315.5 29,316.5 28.1,317.3 26.8,317.2 26.5,316.2 		"/>
		<polygon class="st5" points="30.4,316.3 30.1,315.4 31.1,314.5 32.3,314.7 32.6,315.6 31.7,316.5 		"/>
	</g>
	<g>
		<polygon class="st5" points="16.6,316.8 16.3,315.8 17.2,315 18.4,315.1 18.8,316.1 17.8,316.9 		"/>
		<polygon class="st5" points="20.8,314.1 22.1,314.3 22.4,315.2 21.5,316.1 20.2,315.9 19.9,315 		"/>
		<polygon class="st5" points="24.4,313.3 25.7,313.4 26,314.4 25.1,315.2 23.8,315.1 23.5,314.1 		"/>
		<polygon class="st5" points="27.4,314.2 27.1,313.3 28.1,312.4 29.3,312.5 29.6,313.5 28.7,314.3 		"/>
	</g>
	<g>
		<polygon class="st5" points="17.9,313.8 17.6,312.8 18.5,312 19.8,312.1 20.1,313 19.1,313.9 		"/>
		<polygon class="st5" points="22.1,311.1 23.4,311.2 23.7,312.2 22.8,313 21.5,312.9 21.2,312 		"/>
		<polygon class="st5" points="25.8,310.2 27,310.4 27.3,311.3 26.4,312.2 25.1,312.1 24.8,311.1 		"/>
		<polygon class="st5" points="28.8,311.2 28.4,310.2 29.4,309.4 30.6,309.5 30.9,310.5 30,311.3 		"/>
	</g>
	<g>
		<polygon class="st5" points="14.9,311.7 14.6,310.7 15.5,309.8 16.8,310 17.1,310.9 16.1,311.8 		"/>
		<polygon class="st5" points="19.1,309 20.4,309.1 20.7,310.1 19.8,310.9 18.5,310.8 18.2,309.8 		"/>
		<polygon class="st5" points="22.8,308.1 24,308.2 24.3,309.2 23.4,310 22.1,309.9 21.8,309 		"/>
		<polygon class="st5" points="25.8,309.1 25.4,308.1 26.4,307.3 27.6,307.4 27.9,308.3 27,309.2 		"/>
	</g>
	<g>
		<polygon class="st5" points="16.5,308.4 16.2,307.4 17.1,306.6 18.4,306.7 18.7,307.7 17.8,308.5 		"/>
		<polygon class="st5" points="20.8,305.7 22,305.9 22.3,306.8 21.4,307.7 20.1,307.5 19.8,306.6 		"/>
		<polygon class="st5" points="24.4,304.9 25.6,305 25.9,305.9 25,306.8 23.8,306.7 23.4,305.7 		"/>
		<polygon class="st5" points="27.4,305.8 27.1,304.9 28,304 29.2,304.1 29.6,305.1 28.6,305.9 		"/>
	</g>
	<g>
		<polygon class="st5" points="13.5,306.3 13.2,305.3 14.1,304.5 15.4,304.6 15.7,305.5 14.8,306.4 		"/>
		<polygon class="st5" points="17.8,303.6 19,303.7 19.3,304.7 18.4,305.5 17.1,305.4 16.8,304.5 		"/>
		<polygon class="st5" points="21.4,302.7 22.6,302.9 22.9,303.8 22,304.7 20.8,304.6 20.4,303.6 		"/>
		<polygon class="st5" points="24.4,303.7 24.1,302.7 25,301.9 26.2,302 26.6,303 25.6,303.8 		"/>
	</g>
	<line class="st5" x1="95.8" y1="274.6" x2="98.4" y2="300.4"/>
	<line class="st10" x1="29.4" y1="290" x2="98.8" y2="274.1"/>
	<g>
		<path class="st22" d="M80.7,99.2l-1,1l0.4,2.5l2.4,1.9c0,0,1.7,1.5,4.8,1c3.1-0.5,9.6-1.1,9.6-1.1s1.7-0.6,1.7-2.2
			c0-1.6-0.2-3-0.2-3l-2.5-1.6L80.7,99.2z"/>
		<path class="st0" d="M82.5,101.9c0,0,3.9-1.5,6.5-1.5c2.6,0,5.7-0.8,5.7-0.8s3.1-0.2,2,1.3c-1.1,1.5-8.2,1.9-8.2,1.9
			S82.7,103.4,82.5,101.9z"/>
	</g>
	<g>
		<path class="st22" d="M83.5,121.3l-1,1l0.4,2.5l2.4,1.9c0,0,1.7,1.5,4.8,1c3.1-0.5,9.6-1.1,9.6-1.1s1.7-0.6,1.7-2.2
			c0-1.6-0.2-3-0.2-3l-2.5-1.6L83.5,121.3z"/>
		<path class="st0" d="M85.7,123.8c0,0,3.9-1.5,6.5-1.5c2.6,0,5.7-0.8,5.7-0.8s3.1-0.2,2,1.3c-1.1,1.5-8.2,1.9-8.2,1.9
			S86,125.3,85.7,123.8z"/>
	</g>
	<g>
		<path class="st22" d="M85.3,141.3l-1,1l0.4,2.5l2.4,1.9c0,0,1.7,1.5,4.8,1c3.1-0.5,9.6-1.1,9.6-1.1s1.7-0.6,1.7-2.2
			c0-1.6-0.2-3-0.2-3l-2.5-1.6L85.3,141.3z"/>
		<path class="st0" d="M87.5,143.9c0,0,3.9-1.5,6.5-1.5s5.7-0.7,5.7-0.7s3.1-0.1,1.9,1.5c-1.2,1.6-8.3,1.8-8.3,1.8
			S87.7,145.6,87.5,143.9z"/>
	</g>
	<g>
		<path class="st22" d="M90.1,175.6l-0.8,1l0.3,2.5l2,1.9c0,0,1.5,1.5,4.1,1c2.6-0.5,8.1-1.1,8.1-1.1s1.5-0.6,1.5-2.2
			c0-1.6-0.2-3-0.2-3l-2.1-1.6L90.1,175.6z"/>
		<path class="st0" d="M92,178.4c0,0,3.2-1.7,5.4-1.7c2.2,0,4.8-0.8,4.8-0.8s2.6-0.2,1.7,1.5c-0.9,1.7-6.9,2.1-6.9,2.1
			S92.2,180.1,92,178.4z"/>
	</g>
	<g>
		<path class="st22" d="M93,218.6l-0.8,1l0.3,2.5l2,1.9c0,0,1.5,1.5,4.1,1c2.6-0.5,8.1-1.1,8.1-1.1s1.5-0.6,1.5-2.2
			c0-1.6-0.2-3-0.2-3l-2.1-1.6L93,218.6z"/>
		<path class="st0" d="M94.9,221.4c0,0,3.2-1.7,5.4-1.7c2.2,0,4.8-0.8,4.8-0.8s2.6-0.2,1.7,1.5c-0.9,1.7-6.9,2.1-6.9,2.1
			S95.1,223.1,94.9,221.4z"/>
	</g>
	<g>
		<path class="st22" d="M94.7,235.5l-0.8,1l0.3,2.5l2,1.9c0,0,1.5,1.5,4.1,1c2.6-0.5,8.1-1.1,8.1-1.1s1.5-0.6,1.5-2.2s-0.2-3-0.2-3
			l-2.1-1.6L94.7,235.5z"/>
		<path class="st0" d="M96.6,238.2c0,0,3.2-1.7,5.4-1.7c2.2,0,4.8-0.8,4.8-0.8s2.6-0.2,1.7,1.5s-6.9,2.1-6.9,2.1
			S96.8,239.9,96.6,238.2z"/>
	</g>
	<g>
		<path class="st22" d="M96.7,251.9l-0.8,1l0.3,2.5l2,1.9c0,0,1.5,1.5,4.1,1c2.6-0.5,8.1-1.1,8.1-1.1s1.5-0.6,1.5-2.2
			c0-1.6-0.2-3-0.2-3l-2.1-1.6L96.7,251.9z"/>
		<path class="st0" d="M98.6,254.6c0,0,3.2-1.7,5.4-1.7c2.2,0,4.8-0.8,4.8-0.8s2.6-0.2,1.7,1.5c-0.9,1.7-6.9,2.1-6.9,2.1
			S98.8,256.3,98.6,254.6z"/>
	</g>
	<g>
		<path class="st22" d="M98.4,267.3l-0.8,1l0.3,2.5l2,1.9c0,0,1.5,1.5,4.1,1c2.6-0.5,8.1-1.1,8.1-1.1s1.5-0.6,1.5-2.2
			c0-1.6-0.2-3-0.2-3l-2.1-1.6L98.4,267.3z"/>
		<path class="st0" d="M100.2,270.1c0,0,3.2-1.7,5.4-1.7c2.2,0,4.8-0.8,4.8-0.8s2.6-0.2,1.7,1.5s-6.9,2.1-6.9,2.1
			S100.5,271.7,100.2,270.1z"/>
	</g>
	<g>
		<path class="st22" d="M91.7,199.4l-0.8,1l0.3,2.5l2,1.9c0,0,1.5,1.5,4.1,1s8.1-1.1,8.1-1.1s1.5-0.6,1.5-2.2s-0.2-3-0.2-3l-2.1-1.6
			L91.7,199.4z"/>
		<path class="st0" d="M93.6,202.1c0,0,3.2-1.7,5.4-1.7c2.2,0,4.8-0.8,4.8-0.8s2.6-0.2,1.7,1.5s-6.9,2.1-6.9,2.1
			S93.8,203.8,93.6,202.1z"/>
	</g>
	<g>
		<path class="st22" d="M79.2,77.1l-1,1l0.3,2.5l2.3,1.9c0,0,1.7,1.5,4.8,1.1c3.1-0.4,9.6-0.9,9.6-0.9s1.8-0.6,1.8-2.2
			c0-1.6-0.2-3-0.2-3l-2.5-1.7L79.2,77.1z"/>
		<path class="st0" d="M81.4,80c0,0,3.9-1.3,6.5-1.3s5.7-0.6,5.7-0.6s3.1-0.1,2,1.3c-1.1,1.4-8.2,1.6-8.2,1.6S81.6,81.4,81.4,80z"/>
	</g>
	<g>
		<path class="st22" d="M77.4,54.7l-1,1l0.3,2.5l2.3,2c0,0,1.7,1.6,4.8,1.2s9.6-0.7,9.6-0.7s1.8-0.6,1.8-2.2c0.1-1.6-0.1-3-0.1-3
			l-2.4-1.7L77.4,54.7z"/>
		<path class="st0" d="M79.3,57.2c0,0,3.9-1,6.5-0.8s5.7-0.3,5.7-0.3s3.1,0,1.9,1s-8.3,1.1-8.3,1.1S79.5,58.3,79.3,57.2z"/>
	</g>
	<text transform="matrix(0.9992 -3.969000e-02 3.969000e-02 0.9992 131.2287 38.6688)" class="st11 st23">A</text>
	<text transform="matrix(0.9992 -3.969000e-02 3.969000e-02 0.9992 194.535 36.68)" class="st11 st23">B</text>
	<line class="st1" x1="233.2" y1="47.5" x2="233.2" y2="51.4"/>
	<line class="st1" x1="233.4" y1="30.7" x2="233.4" y2="32.9"/>
	<polyline class="st1" points="319.8,30.2 319.4,31.5 233.6,32.6 	"/>
	<line class="st1" x1="92.5" y1="35.3" x2="3.9" y2="38.6"/>
	<rect x="4.5" y="10.7" class="st24" width="337.5" height="375.6"/>
	<line class="st25" x1="188.9" y1="368.9" x2="233.5" y2="369.5"/>
	<line class="st25" x1="234.1" y1="357.4" x2="220.9" y2="357.2"/>
	<path class="st26" d="M266.7,170.3h-18.1c0,0-4.8-0.5-4.3-3.8c0,0-13.8,0.8-13.1,12.4l-0.2,42.9c0,0-0.5,3.1,4.5,8.5l1.8,1.7
		l-5.6,90.2c0,0-0.5,3.3,1.5,5.1c2,1.8,4.3,3.5,4.3,3.5l12.9-0.2l4-3.1l13.8-155.8L266.7,170.3z"/>
	<path d="M257.8,186.9c-0.1-1-0.8-7.5-8.9-7.3c0,0-8.5-1-10.6,7.5l-0.2,27.8c0,0,0.3,8.9,9.6,8.3c0,0,8.5,0.3,8.9-8.6
		C257,206.9,257.8,186.9,257.8,186.9z"/>
	<path class="st1" d="M266.4,171.3l-4.5,2.7l-16.6,0.2c0,0-6.8-1.7-8.8,6.8l-0.5,38.6c0,0-0.5,9.3,9.4,10.1c0,0,11.4,1.5,11.3-14.9"
		/>
	<path class="st27" d="M254.1,192.5v-4.2c0,0,0-4-5.8-4.8c0,0-5.3-0.1-6.3,4.7v5.1c0,0-0.1,3.1,6,2.7
		C247.9,196,254.3,196.7,254.1,192.5z"/>
	<line class="st28" x1="241.2" y1="199.6" x2="254.3" y2="199.6"/>
	<line class="st28" x1="241.2" y1="203.2" x2="254.3" y2="203.2"/>
	<line class="st28" x1="241.2" y1="206.8" x2="254.3" y2="206.8"/>
	<line class="st28" x1="241.2" y1="210.4" x2="254.3" y2="210.4"/>
	<polygon class="st6" points="244.8,188.4 251.4,188.4 248.2,192.9 	"/>
	<path class="st29" d="M263.1,275.6c0.1-0.1,3.1,8.8-0.5,14.3c-3.6,5.4-9,11-9,11l-4.2-5.1L247,313l15.1-1.7l-3.7-4.3
		c0,0,10.4-10.6,10.8-16.1C269.8,281.9,263.1,275.7,263.1,275.6"/>
</g>
<g id="Layer_3">
	<g>
		<g>
			<polygon class="st30" points="147.8,43.5 132.4,28.3 144.7,20.2 145.6,25.8 156.2,28.8 157.9,41.7 147.1,38.4 			"/>
			<polygon class="st31" points="147.4,42 134.6,29.4 144.8,22.7 145.6,27.3 155.2,30 156.6,40.2 146.8,37.1 			"/>
		</g>
		<g>
			<polygon class="st30" points="167.6,27.8 183,43 170.7,51.1 169.8,45.5 159.2,42.5 157.5,29.6 168.2,32.9 			"/>
			<polygon class="st31" points="168,29.3 180.8,41.9 170.5,48.7 169.8,44 160.2,41.3 158.9,31.6 168.6,34.2 			"/>
		</g>
	</g>
	<g>
		<circle cx="259.7" cy="138.5" r="8.2"/>
		<text transform="matrix(1 0 0 1 256.5057 142.4651)" class="st7 st32 st33">1</text>
	</g>
	<polygon class="st34" points="246.9,177 256.6,162.2 251.6,161.6 251.9,144.1 242.9,143 242.6,160.4 237.7,159.8 	"/>
	<g>
		<circle cx="271.8" cy="308.6" r="8.2"/>
		<text transform="matrix(1 0 0 1 268.6109 312.5394)" class="st7 st32 st33">2</text>
	</g>
</g>
</svg>
