<?xml version="1.0" encoding="utf-8"?>
<!-- Generator: Adobe Illustrator 23.0.1, SVG Export Plug-In . SVG Version: 6.00 Build 0)  -->
<svg version="1.1" xmlns="http://www.w3.org/2000/svg" xmlns:xlink="http://www.w3.org/1999/xlink" x="0px" y="0px" width="288px"
	 height="129.292px" viewBox="0 0 288 129.292" enable-background="new 0 0 288 129.292" xml:space="preserve">
<g id="Layer_3">
</g>
<g id="Layer_4">
</g>
<g id="Layer_5">
	<g>
		<defs>
			<rect id="SVGID_1_" x="11.983" y="2.355" width="274.272" height="120.688"/>
		</defs>
		<clipPath id="SVGID_2_">
			<use xlink:href="#SVGID_1_"  overflow="visible"/>
		</clipPath>
		<path clip-path="url(#SVGID_2_)" fill="none" stroke="#000000" stroke-width="0.5" stroke-miterlimit="10" d="M53.475,29.505
			v-2.429c0,0-0.03-1.288,1.315-1.68s143.55-52.1,143.55-52.1l127.955,9.51l-52.522,81.053L54.31,25.939"/>
		
			<polyline clip-path="url(#SVGID_2_)" fill="none" stroke="#000000" stroke-width="0.5" stroke-linecap="round" stroke-linejoin="round" stroke-miterlimit="10" points="
			321.934,8.377 268.679,113.152 269.776,102.764 268.194,102.413 268.721,96.612 270.654,96.7 271.621,87.999 269.649,87.642 
			270.356,81.322 272.236,81.495 273.772,63.859 		"/>
		
			<line clip-path="url(#SVGID_2_)" fill="none" stroke="#000000" stroke-width="0.5" stroke-linecap="round" stroke-linejoin="round" stroke-miterlimit="10" x1="269.859" y1="64.137" x2="264.785" y2="112.164"/>
		
			<line clip-path="url(#SVGID_2_)" fill="none" stroke="#000000" stroke-width="0.5" stroke-linecap="round" stroke-linejoin="round" stroke-miterlimit="10" x1="272.077" y1="78.45" x2="268.557" y2="78.038"/>
		
			<line clip-path="url(#SVGID_2_)" fill="none" stroke="#000000" stroke-width="0.5" stroke-linecap="round" stroke-linejoin="round" stroke-miterlimit="10" x1="269.233" y1="105.373" x2="265.713" y2="104.961"/>
		
			<line clip-path="url(#SVGID_2_)" fill="none" stroke="#000000" stroke-width="0.5" stroke-linecap="round" stroke-linejoin="round" stroke-miterlimit="10" x1="246.568" y1="108.195" x2="86.717" y2="71.464"/>
		
			<line clip-path="url(#SVGID_2_)" fill="none" stroke="#000000" stroke-width="0.5" stroke-linecap="round" stroke-linejoin="round" stroke-miterlimit="10" x1="254.948" y1="110.006" x2="251.657" y2="109.252"/>
		
			<line clip-path="url(#SVGID_2_)" fill="none" stroke="#000000" stroke-width="0.5" stroke-linecap="round" stroke-linejoin="round" stroke-miterlimit="10" x1="268.679" y1="113.152" x2="261.773" y2="111.57"/>
		
			<polyline clip-path="url(#SVGID_2_)" fill="none" stroke="#000000" stroke-width="0.5" stroke-linecap="round" stroke-linejoin="round" stroke-miterlimit="10" points="
			59.682,27.688 39.816,34.935 58.105,38.263 		"/>
		
			<path clip-path="url(#SVGID_2_)" fill="none" stroke="#000000" stroke-width="0.5" stroke-linecap="round" stroke-linejoin="round" stroke-miterlimit="10" d="
			M264.588,66.543"/>
		
			<path clip-path="url(#SVGID_2_)" fill="none" stroke="#000000" stroke-width="0.5" stroke-linecap="round" stroke-linejoin="round" stroke-miterlimit="10" d="
			M264.458,66.543l-10.209,13.875c0,0,2.805-1.772,4.571,0.913l9.694-13.937"/>
		
			<polyline clip-path="url(#SVGID_2_)" fill="none" stroke="#000000" stroke-width="0.5" stroke-linecap="round" stroke-linejoin="round" stroke-miterlimit="10" points="
			53.552,30.257 70.2,33.052 58.105,38.263 253.51,75.674 263.167,62.2 262.928,67.667 		"/>
		
			<polyline clip-path="url(#SVGID_2_)" fill="none" stroke="#000000" stroke-width="0.5" stroke-linecap="round" stroke-linejoin="round" stroke-miterlimit="10" points="
			258.999,80.923 256.989,100.852 258.403,101.152 260.566,97.83 261.492,97.444 266.977,88.098 		"/>
		
			<line clip-path="url(#SVGID_2_)" fill="none" stroke="#000000" stroke-width="0.5" stroke-linecap="round" stroke-linejoin="round" stroke-miterlimit="10" x1="253.51" y1="75.674" x2="252.968" y2="85.92"/>
		
			<polyline clip-path="url(#SVGID_2_)" fill="none" stroke="#000000" stroke-width="0.5" stroke-linecap="round" stroke-linejoin="round" stroke-miterlimit="10" points="
			70.589,40.679 72.296,61.791 246.91,99.776 		"/>
		
			<path clip-path="url(#SVGID_2_)" fill="none" stroke="#000000" stroke-width="0.5" stroke-linecap="round" stroke-linejoin="round" stroke-miterlimit="10" d="
			M247.786,91.103l-0.37,5.234c0,0,1.322,1.851,4.177,0.529l2.379-3.913l0.264-4.177l-3.49-0.582L247.786,91.103z"/>
		
			<path clip-path="url(#SVGID_2_)" fill="none" stroke="#000000" stroke-width="0.5" stroke-linecap="round" stroke-linejoin="round" stroke-miterlimit="10" d="
			M253.549,89.146l-2.221,2.802c0,0-2.855,0.899-3.542-0.846"/>
		
			<line clip-path="url(#SVGID_2_)" fill="none" stroke="#000000" stroke-width="0.5" stroke-linecap="round" stroke-linejoin="round" stroke-miterlimit="10" x1="251.117" y1="96.919" x2="251.329" y2="91.949"/>
		
			<path clip-path="url(#SVGID_2_)" fill="none" stroke="#000000" stroke-width="0.5" stroke-linecap="round" stroke-linejoin="round" stroke-miterlimit="10" d="
			M246.879,99.794l1.382-2.392c0,0,1.42-0.14,2.179,0.425l0.904,2.764l-0.585,8.96l-4.146-0.904L246.879,99.794z"/>
		
			<line clip-path="url(#SVGID_2_)" fill="none" stroke="#000000" stroke-width="0.5" stroke-linecap="round" stroke-linejoin="round" stroke-miterlimit="10" x1="252.153" y1="100.175" x2="252.446" y2="95.899"/>
		
			<polyline clip-path="url(#SVGID_2_)" fill="none" stroke="#000000" stroke-width="0.5" stroke-linecap="round" stroke-linejoin="round" stroke-miterlimit="10" points="
			251.04,97.413 252.058,99.948 251.542,106.695 251.624,106.811 255.107,101.341 255.729,95.821 253.786,93.566 		"/>
		
			<polyline clip-path="url(#SVGID_2_)" fill="none" stroke="#000000" stroke-width="0.5" stroke-linecap="round" stroke-linejoin="round" stroke-miterlimit="10" points="
			250.76,109.551 256.196,101.497 257.44,85.635 256.429,85.402 255.185,86.646 253.863,86.335 252.775,86.257 250.747,88.195 		"/>
		
			<line clip-path="url(#SVGID_2_)" fill="none" stroke="#000000" stroke-width="0.5" stroke-linecap="round" stroke-linejoin="round" stroke-miterlimit="10" x1="255.107" y1="101.341" x2="252.23" y2="100.875"/>
		
			<line clip-path="url(#SVGID_2_)" fill="none" stroke="#000000" stroke-width="0.5" stroke-linecap="round" stroke-linejoin="round" stroke-miterlimit="10" x1="255.596" y1="96.214" x2="252.458" y2="95.744"/>
		
			<polyline clip-path="url(#SVGID_2_)" fill="none" stroke="#000000" stroke-width="0.5" stroke-linecap="round" stroke-linejoin="round" stroke-miterlimit="10" points="
			253.899,85.939 255.184,82.442 256.83,82.648 255.544,86.144 		"/>
		
			<line clip-path="url(#SVGID_2_)" fill="none" stroke="#000000" stroke-width="0.5" stroke-linecap="round" stroke-linejoin="round" stroke-miterlimit="10" x1="254.237" y1="88.776" x2="257.44" y2="85.635"/>
		
			<polygon clip-path="url(#SVGID_2_)" fill="none" stroke="#000000" stroke-width="0.5" stroke-linecap="round" stroke-linejoin="round" stroke-miterlimit="10" points="
			109.763,54.429 101.23,52.837 101.23,48.507 109.763,50.099 		"/>
		
			<polygon clip-path="url(#SVGID_2_)" fill="none" stroke="#000000" stroke-width="0.5" stroke-linecap="round" stroke-linejoin="round" stroke-miterlimit="10" points="
			119.76,56.212 111.228,54.62 111.228,50.29 119.76,51.882 		"/>
		
			<polygon clip-path="url(#SVGID_2_)" fill="none" stroke="#000000" stroke-width="0.5" stroke-linecap="round" stroke-linejoin="round" stroke-miterlimit="10" points="
			187.981,70.205 177.419,68.234 177.419,62.874 187.981,64.845 		"/>
		
			<polygon clip-path="url(#SVGID_2_)" fill="none" stroke="#000000" stroke-width="0.5" stroke-linecap="round" stroke-linejoin="round" stroke-miterlimit="10" points="
			200.356,72.412 189.794,70.441 189.794,65.081 200.356,67.052 		"/>
		
			<path clip-path="url(#SVGID_2_)" fill="none" stroke="#000000" stroke-width="0.5" stroke-linecap="round" stroke-linejoin="round" stroke-miterlimit="10" d="
			M148.398,65.904l-1.07-0.201v-7.606c0.042-1.379-2.006-1.421-2.006-1.421L73.983,43.064l-1.689,0.696v4.471l1.093,0.795
			l0.199,5.763l-0.397,0.994l0.497,4.869l173.778,37.955"/>
		<g clip-path="url(#SVGID_2_)">
			
				<polygon fill="none" stroke="#000000" stroke-width="0.5" stroke-linecap="round" stroke-linejoin="round" stroke-miterlimit="10" points="
				97.629,62.373 81.047,59.052 81.047,54.343 97.629,57.664 			"/>
			
				<line fill="none" stroke="#000000" stroke-width="0.5" stroke-linecap="round" stroke-linejoin="round" stroke-miterlimit="10" x1="89.258" y1="60.582" x2="89.258" y2="55.913"/>
		</g>
		
			<polygon clip-path="url(#SVGID_2_)" fill="none" stroke="#000000" stroke-width="0.5" stroke-linecap="round" stroke-linejoin="round" stroke-miterlimit="10" points="
			149.868,73.205 131.119,69.318 131.119,64.311 149.868,68.198 		"/>
		
			<line clip-path="url(#SVGID_2_)" fill="none" stroke="#000000" stroke-width="0.5" stroke-linecap="round" stroke-linejoin="round" stroke-miterlimit="10" x1="140.126" y1="71.129" x2="140.126" y2="66.013"/>
		
			<polygon clip-path="url(#SVGID_2_)" fill="none" stroke="#000000" stroke-width="0.5" stroke-linecap="round" stroke-linejoin="round" stroke-miterlimit="10" points="
			171.801,77.714 151.609,73.633 151.609,68.68 171.801,72.762 		"/>
		
			<line clip-path="url(#SVGID_2_)" fill="none" stroke="#000000" stroke-width="0.5" stroke-linecap="round" stroke-linejoin="round" stroke-miterlimit="10" x1="161.678" y1="75.755" x2="161.678" y2="70.694"/>
		
			<path clip-path="url(#SVGID_2_)" fill="none" stroke="#000000" stroke-width="0.5" stroke-linecap="round" stroke-linejoin="round" stroke-miterlimit="10" d="
			M251.473,87.167l0.283-9.741l-0.175-0.321c0,0-86.03-16.715-88.451-17.127c-2.421-0.412-2.266,1.494-2.266,1.494v7.212
			l-5.457-1.069l0.032-1.912"/>
		
			<ellipse transform="matrix(0.5418 -0.8405 0.8405 0.5418 15.6202 156.3002)" clip-path="url(#SVGID_2_)" fill="none" stroke="#000000" stroke-width="0.5" stroke-linecap="round" stroke-linejoin="round" stroke-miterlimit="10" cx="151.169" cy="63.823" rx="3.145" ry="3.545"/>
		
			<path clip-path="url(#SVGID_2_)" fill="none" stroke="#000000" stroke-width="0.5" stroke-linecap="round" stroke-linejoin="round" stroke-miterlimit="10" d="
			M153.31,66.524l2.902-2.614c1.014-1.481,0.57-3.55-0.993-4.62c-1.172-0.803-2.64-0.816-3.729-0.147l-2.516,1.882"/>
		
			<line clip-path="url(#SVGID_2_)" fill="none" stroke="#000000" stroke-width="0.5" stroke-linecap="round" stroke-linejoin="round" stroke-miterlimit="10" x1="151.006" y1="62.463" x2="151.006" y2="64.835"/>
		
			<line clip-path="url(#SVGID_2_)" fill="none" stroke="#000000" stroke-width="0.5" stroke-linecap="round" stroke-linejoin="round" stroke-miterlimit="10" x1="149.849" y1="63.331" x2="152.221" y2="63.852"/>
		
			<polygon clip-path="url(#SVGID_2_)" fill="none" stroke="#000000" stroke-width="0.5" stroke-linecap="round" stroke-linejoin="round" stroke-miterlimit="10" points="
			236.882,91.544 212.978,86.474 212.978,81.331 236.882,86.401 		"/>
		
			<line clip-path="url(#SVGID_2_)" fill="none" stroke="#000000" stroke-width="0.5" stroke-linecap="round" stroke-linejoin="round" stroke-miterlimit="10" x1="224.496" y1="88.937" x2="224.568" y2="84.011"/>
		
			<polygon clip-path="url(#SVGID_2_)" fill="none" stroke="#000000" stroke-width="0.5" stroke-linecap="round" stroke-linejoin="round" stroke-miterlimit="10" points="
			247.988,79.449 249.884,79.836 249.884,84.055 241.685,82.383 241.685,78.164 243.75,78.585 243.675,77.686 244.811,77.909 
			244.87,76.572 247.178,76.89 247.178,78.244 247.974,78.482 		"/>
		
			<polyline clip-path="url(#SVGID_2_)" fill="none" stroke="#000000" stroke-width="0.5" stroke-linecap="round" stroke-linejoin="round" stroke-miterlimit="10" points="
			249.315,88.918 249.315,87.07 241.262,85.514 241.262,89.754 242.71,90.034 242.695,91.2 243.465,91.332 243.385,92.234 
			246.197,92.765 246.277,91.969 247.02,92.075 247.13,90.888 247.842,90.881 		"/>
		
			<polyline clip-path="url(#SVGID_2_)" fill="none" stroke="#000000" stroke-width="0.5" stroke-linecap="round" stroke-linejoin="round" stroke-miterlimit="10" points="
			99.554,66.058 99.194,56.311 79.88,52.376 80.149,61.609 		"/>
		
			<polyline clip-path="url(#SVGID_2_)" fill="none" stroke="#000000" stroke-width="0.5" stroke-linecap="round" stroke-linejoin="round" stroke-miterlimit="10" points="
			146.635,65.977 129.973,62.582 130.271,72.596 		"/>
		
			<polygon clip-path="url(#SVGID_2_)" fill="none" stroke="#000000" stroke-width="0.5" stroke-linecap="round" stroke-linejoin="round" stroke-miterlimit="10" points="
			210.221,84.696 202.607,83.232 202.607,79.717 210.221,81.182 		"/>
		
			<line clip-path="url(#SVGID_2_)" fill="none" stroke="#000000" stroke-width="0.5" stroke-linecap="round" stroke-linejoin="round" stroke-miterlimit="10" x1="85.917" y1="45.447" x2="86.581" y2="53.322"/>
		
			<line clip-path="url(#SVGID_2_)" fill="none" stroke="#000000" stroke-width="0.5" stroke-linecap="round" stroke-linejoin="round" stroke-miterlimit="10" x1="99.194" y1="56.311" x2="129.973" y2="62.582"/>
		
			<polyline clip-path="url(#SVGID_2_)" fill="none" stroke="#000000" stroke-width="0.5" stroke-linecap="round" stroke-linejoin="round" stroke-miterlimit="10" points="
			136.767,61.616 90.798,52.479 90.377,46.293 		"/>
		
			<path clip-path="url(#SVGID_2_)" fill="none" stroke="#000000" stroke-width="0.5" stroke-linecap="round" stroke-linejoin="round" stroke-miterlimit="10" d="
			M65.213,58.945"/>
		
			<polyline clip-path="url(#SVGID_2_)" fill="none" stroke="#000000" stroke-width="0.5" stroke-linecap="round" stroke-linejoin="round" stroke-miterlimit="10" points="
			163.337,60.07 163.477,67.239 221.536,78.626 		"/>
		
			<polyline clip-path="url(#SVGID_2_)" fill="none" stroke="#000000" stroke-width="0.5" stroke-linecap="round" stroke-linejoin="round" stroke-miterlimit="10" points="
			88.127,53.744 93.75,51.635 93.75,47.137 		"/>
		
			<path clip-path="url(#SVGID_2_)" fill="none" stroke="#000000" stroke-width="0.5" stroke-linecap="round" stroke-linejoin="round" stroke-miterlimit="10" d="
			M247.113,93.513l-8.027-1.917l0.359-6.077l-0.299-0.25l-38.667-8.321c0,0-0.019,0.47-0.019,1.321c0,0.852-1.231,0.473-1.231,0.473
			s-4.26-0.852-5.585-1.041c-1.325-0.189-1.42,0.473-1.42,0.473l0.095,3.502l-17.701-3.786l-0.189-6.25l-13.115-2.672l5.456-2.896
			V60.77"/>
		
			<line clip-path="url(#SVGID_2_)" fill="none" stroke="#000000" stroke-width="0.5" stroke-linecap="round" stroke-linejoin="round" stroke-miterlimit="10" x1="200.479" y1="76.948" x2="174.43" y2="71.64"/>
		
			<path clip-path="url(#SVGID_2_)" fill="none" stroke="#000000" stroke-width="0.5" stroke-linecap="round" stroke-linejoin="round" stroke-miterlimit="10" d="
			M21.795,35.855"/>
		
			<polyline clip-path="url(#SVGID_2_)" fill="none" stroke="#000000" stroke-width="0.5" stroke-linecap="round" stroke-linejoin="round" stroke-miterlimit="10" points="
			57.428,55.288 56.31,39.786 66.968,41.575 67.86,53.904 		"/>
		
			<polyline clip-path="url(#SVGID_2_)" fill="none" stroke="#000000" stroke-width="0.5" stroke-linecap="round" stroke-linejoin="round" stroke-miterlimit="10" points="
			65.328,52.68 64.658,43.438 59.962,42.544 58.323,44.258 58.844,51.413 60.484,53.052 62.496,53.499 		"/>
		
			<polyline clip-path="url(#SVGID_2_)" fill="none" stroke="#000000" stroke-width="0.5" stroke-linecap="round" stroke-linejoin="round" stroke-miterlimit="10" points="
			70.993,49.698 69.726,49.847 68.608,53.872 69.204,61.176 72.296,61.791 		"/>
		
			<line clip-path="url(#SVGID_2_)" fill="none" stroke="#000000" stroke-width="0.5" stroke-linecap="round" stroke-linejoin="round" stroke-miterlimit="10" x1="66.67" y1="60.654" x2="69.204" y2="61.176"/>
		
			<line clip-path="url(#SVGID_2_)" fill="none" stroke="#000000" stroke-width="0.5" stroke-linecap="round" stroke-linejoin="round" stroke-miterlimit="10" x1="68.551" y1="54.049" x2="65.776" y2="53.574"/>
		
			<path clip-path="url(#SVGID_2_)" fill="none" stroke="#000000" stroke-width="0.5" stroke-linecap="round" stroke-linejoin="round" stroke-miterlimit="10" d="
			M66.441,61.591l-0.44-7.43c0,0-0.293-1.809-2.346-1.32l-6.452,3.128l0.538,8.114c0,0,0.635,1.417,2.444,0.635
			C61.993,63.938,66.441,61.591,66.441,61.591z"/>
		
			<polyline clip-path="url(#SVGID_2_)" fill="none" stroke="#000000" stroke-width="0.5" stroke-linecap="round" stroke-linejoin="round" stroke-miterlimit="10" points="
			65.268,54.26 58.816,57.095 59.354,64.573 		"/>
		
			<path clip-path="url(#SVGID_2_)" fill="none" stroke="#000000" stroke-width="0.5" stroke-linecap="round" stroke-linejoin="round" stroke-miterlimit="10" d="
			M60.771,57.583c0,0-0.733,2.346,0.489,5.328"/>
		
			<path clip-path="url(#SVGID_2_)" fill="none" stroke="#000000" stroke-width="0.5" stroke-linecap="round" stroke-linejoin="round" stroke-miterlimit="10" d="
			M62.678,56.655c0,0-0.733,2.346,0.489,5.328"/>
		
			<path clip-path="url(#SVGID_2_)" fill="none" stroke="#000000" stroke-width="0.5" stroke-linecap="round" stroke-linejoin="round" stroke-miterlimit="10" d="
			M64.584,55.726c0,0-0.733,2.346,0.489,5.328"/>
		
			<ellipse transform="matrix(0.966 -0.2587 0.2587 0.966 -14.1131 13.8923)" clip-path="url(#SVGID_2_)" fill="none" stroke="#000000" stroke-width="0.5" stroke-linecap="round" stroke-linejoin="round" stroke-miterlimit="10" cx="45.738" cy="60.579" rx="4.622" ry="5.398"/>
		
			<line clip-path="url(#SVGID_2_)" fill="none" stroke="#000000" stroke-width="0.5" stroke-linecap="round" stroke-linejoin="round" stroke-miterlimit="10" x1="49.896" y1="57.822" x2="53.34" y2="56.256"/>
		
			<line clip-path="url(#SVGID_2_)" fill="none" stroke="#000000" stroke-width="0.5" stroke-linecap="round" stroke-linejoin="round" stroke-miterlimit="10" x1="50.287" y1="59.152" x2="54.201" y2="57.352"/>
		
			<line clip-path="url(#SVGID_2_)" fill="none" stroke="#000000" stroke-width="0.5" stroke-linecap="round" stroke-linejoin="round" stroke-miterlimit="10" x1="50.522" y1="60.875" x2="54.635" y2="59.197"/>
		
			<line clip-path="url(#SVGID_2_)" fill="none" stroke="#000000" stroke-width="0.5" stroke-linecap="round" stroke-linejoin="round" stroke-miterlimit="10" x1="39.816" y1="34.935" x2="40.346" y2="50.463"/>
		
			<path clip-path="url(#SVGID_2_)" fill="none" stroke="#000000" stroke-width="0.5" stroke-linecap="round" stroke-linejoin="round" stroke-miterlimit="10" d="
			M31.265,43.809l3.679-1.096c0,0,2.114,0.078,2.348,0.391s-4.384,1.879-4.384,1.879l-2.088-0.949l-1.297-0.53l-4.522,1.244
			c0,0,0.548,0.861,2.348,0.861l4.169-1.23"/>
		
			<path clip-path="url(#SVGID_2_)" fill="none" stroke="#000000" stroke-width="0.5" stroke-linecap="round" stroke-linejoin="round" stroke-miterlimit="10" d="
			M25.002,44.749l0.157,4.462c0,0,0.939,0.705,2.192,0.391c1.253-0.313,6.028-1.879,6.028-1.879l2.27-2.583l1.71-0.569v-1.409
			l2.741-1.731"/>
		
			<line clip-path="url(#SVGID_2_)" fill="none" stroke="#000000" stroke-width="0.5" stroke-linecap="round" stroke-linejoin="round" stroke-miterlimit="10" x1="27.393" y1="45.636" x2="27.351" y2="49.602"/>
		
			<path clip-path="url(#SVGID_2_)" fill="none" stroke="#000000" stroke-width="0.5" stroke-linecap="round" stroke-linejoin="round" stroke-miterlimit="10" d="
			M26.255,50.228v0.939l-0.435,1.04l0.211,5.643c0,0-0.093,0.66,0.293,0.773c0.387,0.114,1.226,0.614,1.226,0.614l1.412,0.542
			l1.129-0.315l9.237-3.679"/>
		
			<path clip-path="url(#SVGID_2_)" fill="none" stroke="#000000" stroke-width="0.5" stroke-linecap="round" stroke-linejoin="round" stroke-miterlimit="10" d="
			M29.194,57.36c0,0,5.593-2.121,7.394-2.904c1.8-0.783,1.096-2.114,1.096-2.114l-0.235-2.27l-3.053-1.566l-5.245,1.879
			c0,0-1.153-0.087-1.038,1.529l0.577,0.808l0.115,4.386"/>
		
			<path clip-path="url(#SVGID_2_)" fill="none" stroke="#000000" stroke-width="0.5" stroke-linecap="round" stroke-linejoin="round" stroke-miterlimit="10" d="
			M38.858,54.847c0,0-6.419,2.74-7.672,3.21c-1.253,0.47-2.323-0.775-2.323-0.775"/>
		
			<line clip-path="url(#SVGID_2_)" fill="none" stroke="#000000" stroke-width="0.5" stroke-linecap="round" stroke-linejoin="round" stroke-miterlimit="10" x1="136.924" y1="55.182" x2="137.021" y2="63.856"/>
		
			<line clip-path="url(#SVGID_2_)" fill="none" stroke="#000000" stroke-width="0.5" stroke-linecap="round" stroke-linejoin="round" stroke-miterlimit="10" x1="142.321" y1="56.146" x2="142.418" y2="64.819"/>
		
			<line clip-path="url(#SVGID_2_)" fill="none" stroke="#000000" stroke-width="0.5" stroke-linecap="round" stroke-linejoin="round" stroke-miterlimit="10" x1="222.702" y1="71.826" x2="221.952" y2="81.642"/>
		
			<line clip-path="url(#SVGID_2_)" fill="none" stroke="#000000" stroke-width="0.5" stroke-linecap="round" stroke-linejoin="round" stroke-miterlimit="10" x1="229.268" y1="73.077" x2="228.517" y2="82.893"/>
		
			<path clip-path="url(#SVGID_2_)" fill="none" stroke="#000000" stroke-width="0.5" stroke-linecap="round" stroke-linejoin="round" stroke-miterlimit="10" d="
			M195.412,80.405l3.84,0.76c0,0,1.331,0.532,0.76,2.053l-0.874,0.532l-3.726-0.684l-0.798-1.026
			C194.614,82.039,194.462,80.253,195.412,80.405z"/>
		
			<path clip-path="url(#SVGID_2_)" fill="none" stroke="#000000" stroke-width="0.5" stroke-linecap="round" stroke-linejoin="round" stroke-miterlimit="10" d="
			M49.388,63.497c0,0-3.129-0.153-3.815-1.221c-0.687-1.068-1.908-4.502-0.839-5.647c1.068-1.145,1.908-0.992,1.908-0.992"/>
		
			<polyline clip-path="url(#SVGID_2_)" fill="none" stroke="#000000" stroke-width="0.5" stroke-linecap="round" stroke-linejoin="round" stroke-miterlimit="10" points="
			47.862,66.245 50.304,66.779 55.798,64.032 54.043,63.269 		"/>
		
			<path clip-path="url(#SVGID_2_)" fill="none" stroke="#000000" stroke-width="0.5" stroke-linecap="round" stroke-linejoin="round" stroke-miterlimit="10" d="
			M41.3,62.887c0,0-0.763,0.382-1.831,0.763c-1.068,0.382,0.305,1.145,0.305,1.145l4.374,0.86l-15.042,7.188
			c0,0-2.862,1.664-0.466,1.93c2.396,0.266,2.329-0.399,2.729-0.532c0.399-0.133,13.062-6.351,13.062-6.351"/>
		
			<path clip-path="url(#SVGID_2_)" fill="none" stroke="#000000" stroke-width="0.5" stroke-linecap="round" stroke-linejoin="round" stroke-miterlimit="10" d="
			M40.842,59.072l-2.366-0.382c0,0-0.916-0.153,0.305-0.839s2.28-1.154,2.28-1.154l1.001,0.238"/>
		
			<path clip-path="url(#SVGID_2_)" fill="none" stroke="#000000" stroke-width="0.5" stroke-linecap="round" stroke-linejoin="round" stroke-miterlimit="10" d="
			M52.357,66.042l0.038,1.347l-4.117,2.001c0,0-0.924-1.154-2.232-1.116l-1.616-0.385l3.317-1.787l4.352-2.074
			c1.597-0.793,2.646-2.646,2.535-4.832c-0.15-2.954-2.362-5.395-4.941-5.454c-0.623-0.014-1.21,0.112-1.74,0.353l-4.32,1.376"/>
		
			<polyline clip-path="url(#SVGID_2_)" fill="none" stroke="#000000" stroke-width="0.5" stroke-linecap="round" stroke-linejoin="round" stroke-miterlimit="10" points="
			44.614,58.733 46.011,58.333 47.01,59.066 48.341,62.061 46.677,62.793 		"/>
		
			<line clip-path="url(#SVGID_2_)" fill="none" stroke="#000000" stroke-width="0.5" stroke-linecap="round" stroke-linejoin="round" stroke-miterlimit="10" x1="54.472" y1="63.268" x2="56.917" y2="61.99"/>
		
			<line clip-path="url(#SVGID_2_)" fill="none" stroke="#000000" stroke-width="0.5" stroke-linecap="round" stroke-linejoin="round" stroke-miterlimit="10" x1="54.749" y1="60.712" x2="57.25" y2="59.545"/>
		
			<path clip-path="url(#SVGID_2_)" fill="none" stroke="#000000" stroke-width="0.5" stroke-linecap="round" stroke-linejoin="round" stroke-miterlimit="10" d="
			M42.097,56.46l-1.679-0.299c0,0-1.373,0-1.307-1.7c0.065-1.7,0-3.53,0-3.53l3.464-0.261"/>
		
			<line clip-path="url(#SVGID_2_)" fill="none" stroke="#000000" stroke-width="0.5" stroke-linecap="round" stroke-linejoin="round" stroke-miterlimit="10" x1="49.464" y1="57.772" x2="44.429" y2="56.875"/>
		
			<path clip-path="url(#SVGID_2_)" fill="none" stroke="#000000" stroke-width="0.5" stroke-linecap="round" stroke-linejoin="round" stroke-miterlimit="10" d="
			M53.19,55.309l0.171-1.501c0,0,1.569-0.458,1.634,0.588l-0.261,4.314"/>
		
			<polyline clip-path="url(#SVGID_2_)" fill="none" stroke="#000000" stroke-width="0.5" stroke-linecap="round" stroke-linejoin="round" stroke-miterlimit="10" points="
			40.352,51.258 40.352,54.2 44.693,55.05 		"/>
		
			<polyline clip-path="url(#SVGID_2_)" fill="none" stroke="#000000" stroke-width="0.5" stroke-linecap="round" stroke-linejoin="round" stroke-miterlimit="10" points="
			42.86,51.328 42.829,53.641 46.198,54.283 		"/>
		
			<polyline clip-path="url(#SVGID_2_)" fill="none" stroke="#000000" stroke-width="0.5" stroke-linecap="round" stroke-linejoin="round" stroke-miterlimit="10" points="
			39.802,50.225 39.802,49.425 34.452,47.088 		"/>
		<g clip-path="url(#SVGID_2_)">
			
				<path fill="none" stroke="#000000" stroke-width="0.5" stroke-linecap="round" stroke-linejoin="round" stroke-miterlimit="10" d="
				M83.68,64.64l-4.381,2.124l0.459,6.927c0,0,0.542,1.21,2.086,0.542c1.544-0.668,5.341-2.67,5.341-2.67l-0.376-6.342"/>
			
				<polyline fill="none" stroke="#000000" stroke-width="0.5" stroke-linecap="round" stroke-linejoin="round" stroke-miterlimit="10" points="
				86.184,65.304 80.676,67.724 81.135,74.108 			"/>
			
				<path fill="none" stroke="#000000" stroke-width="0.5" stroke-linecap="round" stroke-linejoin="round" stroke-miterlimit="10" d="
				M82.345,68.142c0,0-0.626,2.003,0.417,4.548"/>
			
				<path fill="none" stroke="#000000" stroke-width="0.5" stroke-linecap="round" stroke-linejoin="round" stroke-miterlimit="10" d="
				M83.972,67.349c0,0-0.626,2.003,0.417,4.548"/>
			
				<path fill="none" stroke="#000000" stroke-width="0.5" stroke-linecap="round" stroke-linejoin="round" stroke-miterlimit="10" d="
				M85.6,66.556c0,0-0.626,2.003,0.417,4.548"/>
		</g>
		<g clip-path="url(#SVGID_2_)">
			
				<ellipse transform="matrix(0.966 -0.2587 0.2587 0.966 -15.8765 20.3991)" fill="none" stroke="#000000" stroke-width="0.5" stroke-linecap="round" stroke-linejoin="round" stroke-miterlimit="10" cx="69.583" cy="70.534" rx="4.004" ry="4.677"/>
			
				<line fill="none" stroke="#000000" stroke-width="0.5" stroke-linecap="round" stroke-linejoin="round" stroke-miterlimit="10" x1="73.186" y1="68.145" x2="76.17" y2="66.789"/>
			
				<line fill="none" stroke="#000000" stroke-width="0.5" stroke-linecap="round" stroke-linejoin="round" stroke-miterlimit="10" x1="73.525" y1="69.298" x2="76.916" y2="67.738"/>
			
				<line fill="none" stroke="#000000" stroke-width="0.5" stroke-linecap="round" stroke-linejoin="round" stroke-miterlimit="10" x1="73.728" y1="70.79" x2="77.291" y2="69.337"/>
			
				<path fill="none" stroke="#000000" stroke-width="0.5" stroke-linecap="round" stroke-linejoin="round" stroke-miterlimit="10" d="
				M72.746,73.062c0,0-2.71-0.132-3.305-1.058c-0.595-0.926-1.653-3.9-0.727-4.892s1.653-0.859,1.653-0.859"/>
			
				<polyline fill="none" stroke="#000000" stroke-width="0.5" stroke-linecap="round" stroke-linejoin="round" stroke-miterlimit="10" points="
				71.424,75.442 73.539,75.905 78.299,73.525 76.779,72.864 			"/>
			
				<path fill="none" stroke="#000000" stroke-width="0.5" stroke-linecap="round" stroke-linejoin="round" stroke-miterlimit="10" d="
				M65.738,72.533c0,0-0.661,0.331-1.587,0.661c-0.926,0.331,0.264,0.992,0.264,0.992l3.79,0.745l-13.032,6.227
				c0,0-2.479,1.442-0.404,1.672c2.076,0.231,2.018-0.346,2.364-0.461c0.346-0.115,11.316-5.502,11.316-5.502"/>
			
				<path fill="none" stroke="#000000" stroke-width="0.5" stroke-linecap="round" stroke-linejoin="round" stroke-miterlimit="10" d="
				M65.342,69.228l-2.049-0.331c0,0-0.793-0.132,0.264-0.727s1.976-1,1.976-1l0.867,0.206"/>
			
				<path fill="none" stroke="#000000" stroke-width="0.5" stroke-linecap="round" stroke-linejoin="round" stroke-miterlimit="10" d="
				M75.318,75.267l0.033,1.167l-3.567,1.734c0,0-0.8-1-1.934-0.967l-1.4-0.333l2.874-1.548l3.77-1.797
				c1.384-0.687,2.292-2.293,2.196-4.186c-0.13-2.559-2.047-4.674-4.281-4.725c-0.539-0.012-1.048,0.097-1.507,0.306l-3.924,1.354"
				/>
			
				<polyline fill="none" stroke="#000000" stroke-width="0.5" stroke-linecap="round" stroke-linejoin="round" stroke-miterlimit="10" points="
				68.609,68.934 69.82,68.588 70.685,69.223 71.838,71.817 70.397,72.452 			"/>
			
				<line fill="none" stroke="#000000" stroke-width="0.5" stroke-linecap="round" stroke-linejoin="round" stroke-miterlimit="10" x1="77.15" y1="72.864" x2="79.268" y2="71.757"/>
			
				<line fill="none" stroke="#000000" stroke-width="0.5" stroke-linecap="round" stroke-linejoin="round" stroke-miterlimit="10" x1="77.391" y1="70.649" x2="79.557" y2="69.638"/>
			
				<line fill="none" stroke="#000000" stroke-width="0.5" stroke-linecap="round" stroke-linejoin="round" stroke-miterlimit="10" x1="72.811" y1="68.102" x2="68.449" y2="67.325"/>
		</g>
		
			<line clip-path="url(#SVGID_2_)" fill="none" stroke="#000000" stroke-width="0.5" stroke-miterlimit="10" x1="263.018" y1="66.085" x2="269.43" y2="67.197"/>
		
			<polyline clip-path="url(#SVGID_2_)" fill="none" stroke="#000000" stroke-width="0.5" stroke-linecap="round" stroke-linejoin="round" stroke-miterlimit="10" points="
			253.268,106.1 255.268,106.588 255.609,102.49 		"/>
		
			<polyline clip-path="url(#SVGID_2_)" fill="none" stroke="#000000" stroke-width="0.5" stroke-linecap="round" stroke-linejoin="round" stroke-miterlimit="10" points="
			246.438,104.579 94.324,70.646 94.31,68.993 93.572,68.829 93.572,66.41 		"/>
		
			<polygon clip-path="url(#SVGID_2_)" fill="none" stroke="#000000" stroke-width="0.5" stroke-linecap="round" stroke-linejoin="round" stroke-miterlimit="10" points="
			254.618,116.629 255.046,109.715 256.186,108.076 256.543,106.721 258.325,106.935 258.467,108.361 259.251,110.285 
			258.396,117.484 		"/>
		
			<path clip-path="url(#SVGID_2_)" fill="none" stroke="#000000" stroke-width="0.5" stroke-linecap="round" stroke-linejoin="round" stroke-miterlimit="10" d="
			M256.186,101.946c2.138,0.927,3.35-0.285,3.35-0.285l1.568-2.709l0.784,0.356l1.283-1.426v-1.354l1.14-1.426l0.642,1.069
			l-0.642,1.925l-0.998,6.914l-0.356,4.491l-4.562,7.983"/>
		
			<polyline clip-path="url(#SVGID_2_)" fill="none" stroke="#000000" stroke-width="0.5" stroke-linecap="round" stroke-linejoin="round" stroke-miterlimit="10" points="
			259.18,109.287 259.536,108.717 259.679,105.795 		"/>
		
			<path clip-path="url(#SVGID_2_)" fill="none" stroke="#000000" stroke-width="0.5" stroke-linecap="round" stroke-linejoin="round" stroke-miterlimit="10" d="
			M259.893,101.162l-0.214,4.633c0,0-0.855,1.426-2.495,0.855c0,0-1.711-0.143-1.782-1.212"/>
		
			<line clip-path="url(#SVGID_2_)" fill="none" stroke="#000000" stroke-width="0.5" stroke-linecap="round" stroke-linejoin="round" stroke-miterlimit="10" x1="262.792" y1="105.017" x2="259.954" y2="104.496"/>
		
			<line clip-path="url(#SVGID_2_)" fill="none" stroke="#000000" stroke-width="0.5" stroke-linecap="round" stroke-linejoin="round" stroke-miterlimit="10" x1="262.56" y1="109.824" x2="259.665" y2="109.245"/>
		
			<line clip-path="url(#SVGID_2_)" fill="none" stroke="#000000" stroke-width="0.5" stroke-linecap="round" stroke-linejoin="round" stroke-miterlimit="10" x1="255.184" y1="82.442" x2="256.817" y2="80.089"/>
		
			<line clip-path="url(#SVGID_2_)" fill="none" stroke="#000000" stroke-width="0.5" stroke-linecap="round" stroke-linejoin="round" stroke-miterlimit="10" x1="256.715" y1="82.706" x2="258.189" y2="80.564"/>
		
			<line clip-path="url(#SVGID_2_)" fill="none" stroke="#000000" stroke-width="0.5" stroke-linecap="round" stroke-linejoin="round" stroke-miterlimit="10" x1="254.249" y1="80.418" x2="253.808" y2="85.209"/>
		
			<polyline clip-path="url(#SVGID_2_)" fill="none" stroke="#000000" stroke-width="0.5" stroke-linecap="round" stroke-linejoin="round" stroke-miterlimit="10" points="
			53.366,65.411 53.285,67.67 54.576,68.193 61.757,64.723 		"/>
		
			<polyline clip-path="url(#SVGID_2_)" fill="none" stroke="#000000" stroke-width="0.5" stroke-linecap="round" stroke-linejoin="round" stroke-miterlimit="10" points="
			62.08,65.572 54.092,69.606 51.51,69.122 51.349,68.073 		"/>
		
			<line clip-path="url(#SVGID_2_)" fill="none" stroke="#000000" stroke-width="0.5" stroke-linecap="round" stroke-linejoin="round" stroke-miterlimit="10" x1="53.285" y1="67.67" x2="58.368" y2="65.169"/>
		
			<line clip-path="url(#SVGID_2_)" fill="none" stroke="#000000" stroke-width="0.5" stroke-linecap="round" stroke-linejoin="round" stroke-miterlimit="10" x1="35.555" y1="42.296" x2="39.667" y2="39.699"/>
		<g clip-path="url(#SVGID_2_)">
			<g>
				
					<polyline fill="none" stroke="#000000" stroke-width="0.5" stroke-linecap="round" stroke-linejoin="round" stroke-miterlimit="10" points="
					116.61,71.487 116.648,73.375 101.282,70.079 101.241,68.108 				"/>
				
					<line fill="none" stroke="#000000" stroke-width="0.5" stroke-linecap="round" stroke-linejoin="round" stroke-miterlimit="10" x1="108.797" y1="71.695" x2="108.797" y2="69.757"/>
			</g>
			
				<polyline fill="none" stroke="#000000" stroke-width="0.5" stroke-linecap="round" stroke-linejoin="round" stroke-miterlimit="10" points="
				166.345,83.018 166.345,84.585 148.761,80.671 148.761,79.153 			"/>
			
				<line fill="none" stroke="#000000" stroke-width="0.5" stroke-linecap="round" stroke-linejoin="round" stroke-miterlimit="10" x1="157.208" y1="82.37" x2="157.222" y2="80.904"/>
			
				<polyline fill="none" stroke="#000000" stroke-width="0.5" stroke-linecap="round" stroke-linejoin="round" stroke-miterlimit="10" points="
				186.916,86.913 186.917,89.175 168.039,84.976 168.009,82.728 			"/>
			
				<line fill="none" stroke="#000000" stroke-width="0.5" stroke-linecap="round" stroke-linejoin="round" stroke-miterlimit="10" x1="177.421" y1="87.021" x2="177.418" y2="84.708"/>
			
				<polyline fill="none" stroke="#000000" stroke-width="0.5" stroke-linecap="round" stroke-linejoin="round" stroke-miterlimit="10" points="
				246.805,101.212 224.829,96.562 224.829,95.034 			"/>
			
				<line fill="none" stroke="#000000" stroke-width="0.5" stroke-linecap="round" stroke-linejoin="round" stroke-miterlimit="10" x1="100.002" y1="67.874" x2="100.316" y2="72.02"/>
			
				<line fill="none" stroke="#000000" stroke-width="0.5" stroke-linecap="round" stroke-linejoin="round" stroke-miterlimit="10" x1="118.453" y1="76.068" x2="118.116" y2="71.841"/>
			
				<line fill="none" stroke="#000000" stroke-width="0.5" stroke-linecap="round" stroke-linejoin="round" stroke-miterlimit="10" x1="147.216" y1="78.129" x2="147.398" y2="82.357"/>
			
				<path fill="none" stroke="#000000" stroke-width="0.5" stroke-linecap="round" stroke-linejoin="round" stroke-miterlimit="10" d="
				M212.792,92.432c-0.017,0.15-0.056,0.314-0.123,0.492l-0.82,0.499l-3.494-0.642l-0.749-0.963c0,0-0.02-0.239,0.002-0.529"/>
		</g>
		
			<line clip-path="url(#SVGID_2_)" fill="none" stroke="#000000" stroke-width="0.5" stroke-linecap="round" stroke-linejoin="round" stroke-miterlimit="10" x1="235.952" y1="99.041" x2="235.869" y2="97.622"/>
		<g clip-path="url(#SVGID_2_)">
			<defs>
				<polygon id="SVGID_3_" points="56.616,56.246 50.102,53.799 47.544,54.266 40.487,52.949 39.968,35.777 56.027,37.74 				"/>
			</defs>
			<clipPath id="SVGID_4_">
				<use xlink:href="#SVGID_3_"  overflow="visible"/>
			</clipPath>
			
				<path clip-path="url(#SVGID_4_)" fill-rule="evenodd" clip-rule="evenodd" fill="none" stroke="#000000" stroke-width="0.5" stroke-linecap="round" stroke-linejoin="round" stroke-miterlimit="10" d="
				M54.808,40.046c-1.002-1.473-2.31-2.685-3.79-3.471L47.87,36.19c-0.09-0.011-0.155,0.057-0.152,0.16
				c0.002,0.051,0.026,0.105,0.049,0.133c1.046,1.248,1.896,2.702,2.48,4.25c0.797,0.527,1.455,1.256,1.935,2.09 M50.62,50.384
				c-1.034,0.479-2.275,0.485-3.488-0.075c0.698,1.613,1.683,3.083,2.885,4.299l1.551,0.19c1.442-0.444,2.687-1.341,3.607-2.58
				 M42.896,51.897c0.81,0.887,1.745,1.628,2.76,2.178l3.147,0.385c0.09,0.011,0.155-0.057,0.152-0.16
				c-0.002-0.051-0.026-0.105-0.049-0.133c-1.046-1.248-1.896-2.702-2.48-4.25c-0.797-0.527-1.455-1.256-1.935-2.09 M46.138,40.228
				c1.016-0.441,2.223-0.432,3.403,0.113c-0.698-1.613-1.683-3.083-2.885-4.299l-1.551-0.19c-1.443,0.428-2.688,1.329-3.607,2.567"
				/>
			
				<path clip-path="url(#SVGID_4_)" fill="none" stroke="#000000" stroke-width="0.5" stroke-linecap="round" stroke-linejoin="round" stroke-miterlimit="10" d="
				M43.154,50.586c-0.348-0.399-0.826-0.636-1.275-0.691c-0.612-0.992-1.071-2.092-1.351-3.195l-0.141-4.677
				c0.214-1.069,0.61-2.039,1.167-2.887l1.911,0.234c0.18,0.022,0.361,0.095,0.543,0.194l2.053,1.244
				c-1.74,0.959-2.476,3.288-1.757,5.591l-1.037,2.751c-0.081,0.27-0.14,0.569-0.13,0.875L43.154,50.586z"/>
			
				<path clip-path="url(#SVGID_4_)" fill="none" stroke="#000000" stroke-width="0.5" stroke-linecap="round" stroke-linejoin="round" stroke-miterlimit="10" d="
				M53.52,40.064c0.37,0.376,0.826,0.636,1.298,0.693c0.59,0.989,1.048,2.063,1.328,3.192l0.141,4.677
				c-0.215,1.043-0.61,2.039-1.144,2.89l-1.933-0.236c-0.18-0.022-0.361-0.095-0.521-0.191l-2.077-1.272
				c1.764-0.93,2.476-3.288,1.758-5.565l1.037-2.751c0.104-0.267,0.14-0.569,0.13-0.875L53.52,40.064z"/>
		</g>
		<g clip-path="url(#SVGID_2_)">
			<defs>
				<polygon id="SVGID_5_" points="78.582,67.859 75.096,65.211 73.096,64.581 70.985,65.063 69.541,65.211 62.726,64.248 
					65.098,60.504 78.808,63.421 				"/>
			</defs>
			<clipPath id="SVGID_6_">
				<use xlink:href="#SVGID_5_"  overflow="visible"/>
			</clipPath>
			
				<path clip-path="url(#SVGID_6_)" fill-rule="evenodd" clip-rule="evenodd" fill="none" stroke="#000000" stroke-width="0.5" stroke-linecap="round" stroke-linejoin="round" stroke-miterlimit="10" d="
				M76.773,51.659c-1.002-1.473-2.31-2.685-3.79-3.471l-3.147-0.385c-0.09-0.011-0.155,0.057-0.152,0.16
				c0.002,0.051,0.026,0.105,0.049,0.133c1.046,1.248,1.896,2.702,2.48,4.25c0.797,0.527,1.455,1.256,1.935,2.09 M72.586,61.997
				c-1.034,0.479-2.275,0.485-3.488-0.075c0.698,1.613,1.683,3.083,2.885,4.299l1.551,0.19c1.442-0.444,2.687-1.341,3.607-2.58
				 M64.862,63.509c0.81,0.887,1.745,1.628,2.76,2.178l3.147,0.385c0.09,0.011,0.155-0.057,0.152-0.16
				c-0.002-0.051-0.026-0.105-0.049-0.133c-1.046-1.248-1.896-2.702-2.48-4.25c-0.797-0.527-1.455-1.256-1.935-2.09 M68.104,51.841
				c1.016-0.441,2.223-0.432,3.403,0.113c-0.698-1.613-1.683-3.083-2.885-4.299l-1.551-0.19c-1.443,0.428-2.688,1.329-3.607,2.567"
				/>
			
				<path clip-path="url(#SVGID_6_)" fill="none" stroke="#000000" stroke-width="0.5" stroke-linecap="round" stroke-linejoin="round" stroke-miterlimit="10" d="
				M65.12,62.199c-0.348-0.399-0.826-0.636-1.275-0.691c-0.612-0.992-1.071-2.092-1.351-3.195l-0.141-4.677
				c0.214-1.069,0.61-2.039,1.167-2.887l1.911,0.234c0.18,0.022,0.361,0.095,0.543,0.194l2.053,1.244
				c-1.74,0.959-2.476,3.288-1.757,5.591l-1.037,2.751c-0.081,0.27-0.14,0.569-0.13,0.875L65.12,62.199z"/>
			
				<path clip-path="url(#SVGID_6_)" fill="none" stroke="#000000" stroke-width="0.5" stroke-linecap="round" stroke-linejoin="round" stroke-miterlimit="10" d="
				M75.485,51.677c0.37,0.376,0.826,0.636,1.298,0.693c0.59,0.989,1.048,2.063,1.328,3.192l0.141,4.677
				c-0.215,1.043-0.61,2.039-1.144,2.89l-1.933-0.236c-0.18-0.022-0.361-0.095-0.521-0.191l-2.077-1.272
				c1.764-0.93,2.476-3.288,1.758-5.565l1.037-2.751c0.104-0.267,0.14-0.569,0.13-0.875L75.485,51.677z"/>
		</g>
		<polygon clip-path="url(#SVGID_2_)" points="27.092,52.201 26.566,52.902 26.742,57.226 27.852,57.576 27.852,53.428 		"/>
		<path clip-path="url(#SVGID_2_)" d="M27.313,45.059l2.842-0.765l-0.701-0.291l-3.007,0.805
			C26.448,44.808,26.34,45.107,27.313,45.059z"/>
		<path clip-path="url(#SVGID_2_)" fill="#F05668" stroke="#000000" stroke-miterlimit="10" d="M246.879,99.794"/>
		<polygon clip-path="url(#SVGID_2_)" points="248.15,100.747 248.859,99.329 249.568,99.431 250.024,101.001 249.72,107.484 
			247.947,107.129 		"/>
		<polygon clip-path="url(#SVGID_2_)" points="256.185,110.197 256.97,108.727 257.679,108.828 258.135,110.398 257.57,115.867 
			255.798,115.512 		"/>
		<path clip-path="url(#SVGID_2_)" d="M251.015,88.88l1.778,0.243l-1.781,2.144c0,0-1.568,0.695-1.965-0.384L251.015,88.88z"/>
		
			<path clip-path="url(#SVGID_2_)" fill-rule="evenodd" clip-rule="evenodd" fill="none" stroke="#000000" stroke-width="0.5" stroke-linecap="round" stroke-linejoin="round" stroke-miterlimit="10" d="
			M61.796,63.954c0,0-0.478,1.482,0.812,1.768l4.97,0.669"/>
		
			<polyline clip-path="url(#SVGID_2_)" fill-rule="evenodd" clip-rule="evenodd" fill="none" stroke="#000000" stroke-width="0.5" stroke-linecap="round" stroke-linejoin="round" stroke-miterlimit="10" points="
			62.752,63.476 62.752,64.192 70.064,65.339 		"/>
		
			<path clip-path="url(#SVGID_2_)" fill-rule="evenodd" clip-rule="evenodd" fill="none" stroke="#000000" stroke-width="0.5" stroke-linecap="round" stroke-linejoin="round" stroke-miterlimit="10" d="
			M78.666,63.476l0.191,2.867c0,0,0.096,1.912-1.482,1.864"/>
		
			<line clip-path="url(#SVGID_2_)" fill-rule="evenodd" clip-rule="evenodd" fill="none" stroke="#000000" stroke-width="0.5" stroke-linecap="round" stroke-linejoin="round" stroke-miterlimit="10" x1="252.278" y1="107.833" x2="255.554" y2="108.576"/>
		
			<line clip-path="url(#SVGID_2_)" fill-rule="evenodd" clip-rule="evenodd" fill="none" stroke="#000000" stroke-width="0.5" stroke-linecap="round" stroke-linejoin="round" stroke-miterlimit="10" x1="87.114" y1="70.545" x2="246.391" y2="106.498"/>
	</g>
	<g>
		<path d="M132.284,94.281c0,5.164-4.247,9.346-9.486,9.346c-5.242,0-9.488-4.183-9.488-9.346c0-5.164,4.247-9.352,9.488-9.352
			C128.037,84.929,132.284,89.117,132.284,94.281z"/>
		<text transform="matrix(1.0164 0 0 1 118.9908 98.7001)" fill="#FFFFFF" font-family="'ArialMT'" font-size="12.5712px">1</text>
	</g>
	<g>
		<path stroke="#FFFFFF" stroke-width="3" stroke-miterlimit="10" d="M235.071,107.874c0,5.164-4.247,9.346-9.486,9.346
			c-5.242,0-9.488-4.183-9.488-9.346c0-5.164,4.247-9.352,9.488-9.352C230.825,98.522,235.071,102.711,235.071,107.874z"/>
		<g>
			<path d="M235.071,107.874c0,5.164-4.247,9.346-9.486,9.346c-5.242,0-9.488-4.183-9.488-9.346c0-5.164,4.247-9.352,9.488-9.352
				C230.825,98.522,235.071,102.711,235.071,107.874z"/>
			<text transform="matrix(1.0164 0 0 1 221.7775 112.2928)" fill="#FFFFFF" font-family="'ArialMT'" font-size="12.5712px">2</text>
		</g>
	</g>
	<g>
		<path d="M21.545,46.058c0,5.164-4.247,9.346-9.486,9.346c-5.242,0-9.488-4.183-9.488-9.346c0-5.164,4.247-9.352,9.488-9.352
			C17.298,36.706,21.545,40.894,21.545,46.058z"/>
		<text transform="matrix(1.0164 0 0 1 8.2512 50.4767)" fill="#FFFFFF" font-family="'ArialMT'" font-size="12.5712px">2</text>
	</g>
	<g>
		<g>
			<g>
				<g>
					<g id="XMLID_7_">
						<g>
							<polygon points="113.54,73.9 108.4,73.003 129.726,65.5 130.74,76.401 125.533,75.552 124.876,75.791 108.262,88.713 
								107.582,88.8 97.216,87.095 96.878,86.827 							"/>
						</g>
						<g>
							
								<line fill="none" stroke="#FFFFFF" stroke-width="4" stroke-linecap="round" stroke-linejoin="round" stroke-miterlimit="10" x1="96.878" y1="86.827" x2="113.54" y2="73.9"/>
							
								<line fill="none" stroke="#FFFFFF" stroke-width="4" stroke-linecap="round" stroke-linejoin="round" stroke-miterlimit="10" x1="107.582" y1="88.8" x2="97.216" y2="87.095"/>
							
								<line fill="none" stroke="#FFFFFF" stroke-width="4" stroke-linecap="round" stroke-linejoin="round" stroke-miterlimit="10" x1="108.262" y1="88.713" x2="124.876" y2="75.791"/>
							
								<line fill="none" stroke="#FFFFFF" stroke-width="4" stroke-linecap="round" stroke-linejoin="round" stroke-miterlimit="10" x1="130.74" y1="76.401" x2="125.533" y2="75.552"/>
							
								<line fill="none" stroke="#FFFFFF" stroke-width="4" stroke-linecap="round" stroke-linejoin="round" stroke-miterlimit="10" x1="113.54" y1="73.9" x2="108.4" y2="73.003"/>
							
								<line fill="none" stroke="#FFFFFF" stroke-width="4" stroke-linecap="round" stroke-linejoin="round" stroke-miterlimit="10" x1="108.4" y1="73.003" x2="129.726" y2="65.5"/>
							
								<line fill="none" stroke="#FFFFFF" stroke-width="4" stroke-linecap="round" stroke-linejoin="round" stroke-miterlimit="10" x1="130.74" y1="76.401" x2="129.726" y2="65.5"/>
						</g>
					</g>
				</g>
			</g>
		</g>
		<g>
			<g>
				<g>
					<g id="XMLID_1_">
						<g>
							<polygon points="96.878,86.827 113.54,73.9 108.4,73.003 129.726,65.5 130.74,76.401 125.533,75.552 124.876,75.791 
								108.262,88.713 107.582,88.8 97.216,87.095 							"/>
						</g>
						<g>
						</g>
					</g>
				</g>
			</g>
		</g>
	</g>
	<g>
		<g>
			<g>
				<g>
					<g id="XMLID_5_">
						<g>
							<polygon points="232.529,120.592 239.77,114.974 237.536,114.584 246.804,111.323 247.244,116.061 244.981,115.692 
								244.696,115.796 237.476,121.411 237.18,121.449 232.676,120.708 							"/>
						</g>
						<g>
							
								<line fill="none" stroke="#FFFFFF" stroke-width="4" stroke-linecap="round" stroke-linejoin="round" stroke-miterlimit="10" x1="232.529" y1="120.592" x2="239.77" y2="114.974"/>
							
								<line fill="none" stroke="#FFFFFF" stroke-width="4" stroke-linecap="round" stroke-linejoin="round" stroke-miterlimit="10" x1="237.18" y1="121.449" x2="232.676" y2="120.708"/>
							
								<line fill="none" stroke="#FFFFFF" stroke-width="4" stroke-linecap="round" stroke-linejoin="round" stroke-miterlimit="10" x1="237.476" y1="121.411" x2="244.696" y2="115.796"/>
							
								<line fill="none" stroke="#FFFFFF" stroke-width="4" stroke-linecap="round" stroke-linejoin="round" stroke-miterlimit="10" x1="247.244" y1="116.061" x2="244.981" y2="115.692"/>
							
								<line fill="none" stroke="#FFFFFF" stroke-width="4" stroke-linecap="round" stroke-linejoin="round" stroke-miterlimit="10" x1="239.77" y1="114.974" x2="237.536" y2="114.584"/>
							
								<line fill="none" stroke="#FFFFFF" stroke-width="4" stroke-linecap="round" stroke-linejoin="round" stroke-miterlimit="10" x1="237.536" y1="114.584" x2="246.804" y2="111.323"/>
							
								<line fill="none" stroke="#FFFFFF" stroke-width="4" stroke-linecap="round" stroke-linejoin="round" stroke-miterlimit="10" x1="247.244" y1="116.061" x2="246.804" y2="111.323"/>
						</g>
					</g>
				</g>
			</g>
		</g>
		<g>
			<g>
				<g>
					<g id="XMLID_4_">
						<g>
							<polygon points="232.529,120.592 239.77,114.974 237.536,114.584 246.804,111.323 247.244,116.061 244.981,115.692 
								244.696,115.796 237.476,121.411 237.18,121.449 232.676,120.708 							"/>
						</g>
						<g>
						</g>
					</g>
				</g>
			</g>
		</g>
	</g>
	<g>
		<g>
			<g>
				<g>
					<g id="XMLID_3_">
						<g>
							<polygon points="24.702,60.035 24.479,64.285 21.919,63.691 21.573,63.749 15.01,66.685 14.566,66.278 10.52,65.333 
								10.19,65.032 16.003,62.438 16.931,61.753 15.744,61.464 							"/>
						</g>
						<g>
							
								<polyline fill="none" stroke="#FFFFFF" stroke-width="2" stroke-linecap="round" stroke-linejoin="round" stroke-miterlimit="10" points="
								6.761,66.559 10.19,65.032 16.003,62.438 							"/>
							
								<line fill="none" stroke="#FFFFFF" stroke-width="2" stroke-linecap="round" stroke-linejoin="round" stroke-miterlimit="10" x1="14.566" y1="66.278" x2="10.52" y2="65.333"/>
							
								<polyline fill="none" stroke="#FFFFFF" stroke-width="2" stroke-linecap="round" stroke-linejoin="round" stroke-miterlimit="10" points="
								12.355,67.871 15.01,66.685 21.573,63.749 							"/>
							
								<line fill="none" stroke="#FFFFFF" stroke-width="2" stroke-linecap="round" stroke-linejoin="round" stroke-miterlimit="10" x1="24.479" y1="64.285" x2="21.919" y2="63.691"/>
							
								<polyline fill="none" stroke="#FFFFFF" stroke-width="2" stroke-linecap="round" stroke-linejoin="round" stroke-miterlimit="10" points="
								17.767,61.951 16.931,61.753 15.744,61.464 							"/>
							
								<line fill="none" stroke="#FFFFFF" stroke-width="2" stroke-linecap="round" stroke-linejoin="round" stroke-miterlimit="10" x1="15.744" y1="61.464" x2="24.702" y2="60.035"/>
							
								<line fill="none" stroke="#FFFFFF" stroke-width="2" stroke-linecap="round" stroke-linejoin="round" stroke-miterlimit="10" x1="24.479" y1="64.285" x2="24.702" y2="60.035"/>
						</g>
					</g>
				</g>
			</g>
		</g>
		<g>
			<g>
				<g>
					<g id="XMLID_2_">
						<g>
							<polygon points="12.008,67.869 6.913,66.68 6.761,66.559 16.003,62.438 13.48,61.828 24.702,60.035 24.479,64.285 
								21.919,63.691 21.573,63.749 12.355,67.871 							"/>
						</g>
						<g>
						</g>
					</g>
				</g>
			</g>
		</g>
	</g>
</g>
</svg>
