<?xml version="1.0" encoding="UTF-8"?><!-- Generator: Adobe Illustrator 16.0.3, SVG Export Plug-In . SVG Version: 6.00 Build 0)  --><!DOCTYPE svg PUBLIC "-//W3C//DTD SVG 1.1//EN" "http://www.w3.org/Graphics/SVG/1.1/DTD/svg11.dtd">
<svg xmlns="http://www.w3.org/2000/svg" xmlns:xlink="http://www.w3.org/1999/xlink" version="1.1" id="Layer_1" x="0px" y="0px" width="48.167px" height="48.167px" viewBox="0 0 48.167 48.167" enable-background="new 0 0 48.167 48.167" xml:space="preserve" preserveAspectRatio="xMidYMid meet" zoomAndPan="magnify" contentScriptType="application/ecmascript" contentStyleType="text/css">
<rect x="10.041" y="0.625" width="4.054" height="46.565"/>
<rect x="18.477" y="0.625" width="4.054" height="46.565"/>
<rect x="26.75" y="0.625" width="4.054" height="46.565"/>
<rect x="34.913" y="0.625" width="4.054" height="46.565"/>
<rect x="0.692" y="9.445" width="46.566" height="4.054"/>
<rect x="0.692" y="17.882" width="46.566" height="4.055"/>
<rect x="0.692" y="26.155" width="46.566" height="4.054"/>
<rect x="0.692" y="34.318" width="46.566" height="4.053"/>
<path d="M42.637,40.473c0,0.927-0.751,1.678-1.677,1.678H7.829c-0.926,0-1.677-0.751-1.677-1.678V7.344  c0-0.927,0.751-1.678,1.677-1.678h33.131c0.926,0,1.677,0.751,1.677,1.678V40.473z"/>
<text transform="matrix(1 0 0 1 5.9521 34.3184)" fill="#FFFFFF" font-family="'Helvetica'" font-size="25.9524">NV</text>
</svg>