<?xml version="1.0" encoding="utf-8"?>
<!-- Generator: Adobe Illustrator 26.0.3, SVG Export Plug-In . SVG Version: 6.00 Build 0)  -->
<svg version="1.1" xmlns="http://www.w3.org/2000/svg" xmlns:xlink="http://www.w3.org/1999/xlink" x="0px" y="0px"
	 viewBox="0 0 360 239.8" style="enable-background:new 0 0 360 239.8;" xml:space="preserve">
<style type="text/css">
	
		.st0{clip-path:url(#SVGID_00000047776036318685029600000004531819496989237636_);fill:none;stroke:#000000;stroke-width:0.5386;stroke-miterlimit:10;}
	
		.st1{clip-path:url(#SVGID_00000047776036318685029600000004531819496989237636_);fill:none;stroke:#000000;stroke-width:0.5386;stroke-linecap:round;stroke-linejoin:round;stroke-miterlimit:10;}
	.st2{clip-path:url(#SVGID_00000047776036318685029600000004531819496989237636_);}
	.st3{clip-path:url(#SVGID_00000107573254506422836880000016702557645574560163_);}
	.st4{fill:none;stroke:#000000;stroke-width:0.5386;stroke-miterlimit:10;}
	.st5{clip-path:url(#SVGID_00000158015590182983002960000016511337784086925480_);}
	.st6{clip-path:url(#SVGID_00000005952990876349935740000013374708330002303892_);}
	.st7{fill:none;stroke:#000000;stroke-width:0.5386;stroke-linecap:round;stroke-linejoin:round;stroke-miterlimit:10;}
	.st8{fill:#FFFFFF;stroke:#FFFFFF;}
	.st9{fill:#010101;}
	.st10{fill:none;stroke:#FFFFFF;stroke-width:3;stroke-miterlimit:10;}
	.st11{fill:none;stroke:#000000;stroke-width:0.5;stroke-linecap:round;stroke-linejoin:round;stroke-miterlimit:10;}
	.st12{fill:#231F20;stroke:#FFFFFF;stroke-width:1.5;stroke-miterlimit:10;}
	.st13{fill:none;}
	.st14{fill:#FFFFFF;}
	.st15{font-family:'ArialMT';}
	.st16{font-size:21px;}
	.st17{letter-spacing:-1;}
</style>
<g id="Layer_2">
	<g>
		<defs>
			<rect id="SVGID_1_" x="-4.6" y="3.6" width="367.9" height="238"/>
		</defs>
		<clipPath id="SVGID_00000140014175221216742430000010435173871287612065_">
			<use xlink:href="#SVGID_1_"  style="overflow:visible;"/>
		</clipPath>
		
			<path style="clip-path:url(#SVGID_00000140014175221216742430000010435173871287612065_);fill:none;stroke:#000000;stroke-width:0.5386;stroke-miterlimit:10;" d="
			M101.9-40.7L107.8,79c0,0,0,7.3,10.9,6.4s14.6-0.5,20.5-2.3c5.9-1.8,20-6.4,20-6.4"/>
		
			<path style="clip-path:url(#SVGID_00000140014175221216742430000010435173871287612065_);fill:none;stroke:#000000;stroke-width:0.5386;stroke-miterlimit:10;" d="
			M132.8-41.2l4.1,109.2c0,0-0.9,4.6,6.4,3.6c7.3-0.9,14.6-4.1,14.6-4.1"/>
		
			<line style="clip-path:url(#SVGID_00000140014175221216742430000010435173871287612065_);fill:none;stroke:#000000;stroke-width:0.5386;stroke-miterlimit:10;" x1="146.9" y1="80.9" x2="354.9" y2="96.3"/>
		
			<line style="clip-path:url(#SVGID_00000140014175221216742430000010435173871287612065_);fill:none;stroke:#000000;stroke-width:0.5386;stroke-miterlimit:10;" x1="268" y1="194.3" x2="353.9" y2="204"/>
		
			<line style="clip-path:url(#SVGID_00000140014175221216742430000010435173871287612065_);fill:none;stroke:#000000;stroke-width:0.5386;stroke-miterlimit:10;" x1="-1.6" y1="163.8" x2="77.1" y2="172.7"/>
		
			<line style="clip-path:url(#SVGID_00000140014175221216742430000010435173871287612065_);fill:none;stroke:#000000;stroke-width:0.5386;stroke-miterlimit:10;" x1="4.1" y1="70.3" x2="107.4" y2="78"/>
		
			<line style="clip-path:url(#SVGID_00000140014175221216742430000010435173871287612065_);fill:none;stroke:#000000;stroke-width:0.5386;stroke-miterlimit:10;" x1="127.9" y1="85.4" x2="354.9" y2="102.2"/>
		
			<line style="clip-path:url(#SVGID_00000140014175221216742430000010435173871287612065_);fill:none;stroke:#000000;stroke-width:0.5386;stroke-miterlimit:10;" x1="4.1" y1="76.2" x2="110.9" y2="84.1"/>
		
			<line style="clip-path:url(#SVGID_00000140014175221216742430000010435173871287612065_);fill:none;stroke:#000000;stroke-width:0.5386;stroke-miterlimit:10;" x1="4.1" y1="82.2" x2="354.9" y2="108.1"/>
		
			<path style="clip-path:url(#SVGID_00000140014175221216742430000010435173871287612065_);fill:none;stroke:#000000;stroke-width:0.5386;stroke-miterlimit:10;" d="
			M94.6-40.8l4,71.6c0,0-2,7.2,6.8,6.4"/>
		
			<path style="clip-path:url(#SVGID_00000140014175221216742430000010435173871287612065_);fill:none;stroke:#000000;stroke-width:0.5386;stroke-miterlimit:10;" d="
			M135.9,38.7l48.1,1.2c0,0,4,0.8,4-4.4s-0.8-76.4-0.8-76.4"/>
		
			<path style="clip-path:url(#SVGID_00000140014175221216742430000010435173871287612065_);fill:none;stroke:#000000;stroke-width:0.5386;stroke-miterlimit:10;" d="
			M136.5,59.3c26.9,1.2,55.1,2.5,55.1,2.5s11.5,1.2,11.5-14.7s-0.4-87.9-0.4-87.9"/>
		
			<path style="clip-path:url(#SVGID_00000140014175221216742430000010435173871287612065_);fill:none;stroke:#000000;stroke-width:0.5386;stroke-miterlimit:10;" d="
			M69.9-40.8l6,87.5c0,0,0.4,10.3,15.5,10.7c2.8,0.1,8.2,0.3,14.9,0.6"/>
		
			<line style="clip-path:url(#SVGID_00000140014175221216742430000010435173871287612065_);fill:none;stroke:#000000;stroke-width:0.5386;stroke-miterlimit:10;" x1="81.9" y1="51.9" x2="99.4" y2="37.1"/>
		
			<line style="clip-path:url(#SVGID_00000140014175221216742430000010435173871287612065_);fill:none;stroke:#000000;stroke-width:0.5386;stroke-miterlimit:10;" x1="199.8" y1="57.2" x2="187.8" y2="40.5"/>
		
			<polyline style="clip-path:url(#SVGID_00000140014175221216742430000010435173871287612065_);fill:none;stroke:#000000;stroke-width:0.5386;stroke-miterlimit:10;" points="
			352.8,164.2 10.3,131 10.3,88.3 355.3,114.2 		"/>
		
			<path style="clip-path:url(#SVGID_00000140014175221216742430000010435173871287612065_);fill:none;stroke:#000000;stroke-width:0.5386;stroke-miterlimit:10;" d="
			M47.6,91.6l-23,2.3c0,0-11.3,4.1-8.7,20.9c0,0,2.1,11.2,7.2,14l27.5,3.1c0,0-8.9-8.4-7.4-16.3l153.4,16.5c0,0,8.5,2.5,13.6-12.5
			c0,0,1-4.1,5.4-6.1c4.4-2,19.4-8.8,19.4-8.8"/>
		
			<path style="clip-path:url(#SVGID_00000140014175221216742430000010435173871287612065_);fill:none;stroke:#000000;stroke-width:0.5386;stroke-miterlimit:10;" d="
			M221.8,104.1l-12.6,6.8c0,0-0.3,2.4-11.2,2c-10.9-0.3-138.2-11.6-138.2-11.6s-11.2-1.7-4.8-3.7c6.5-2,18.7-4.4,18.7-4.4
			s8.2,0.7,7.1,8.5"/>
		
			<path style="clip-path:url(#SVGID_00000140014175221216742430000010435173871287612065_);fill:none;stroke:#000000;stroke-width:0.5386;stroke-miterlimit:10;" d="
			M50.6,132c0,0,23.2,2,27.3-12"/>
		
			<path style="clip-path:url(#SVGID_00000140014175221216742430000010435173871287612065_);fill:none;stroke:#000000;stroke-width:0.5386;stroke-miterlimit:10;" d="
			M28.7,129c0,0-6.9-7.2-6.7-19.6c0,0,0.5-11.3,8.6-12.9l27.3-4.3"/>
		
			<line style="clip-path:url(#SVGID_00000140014175221216742430000010435173871287612065_);fill:none;stroke:#000000;stroke-width:0.5386;stroke-linecap:round;stroke-linejoin:round;stroke-miterlimit:10;" x1="322.1" y1="197.5" x2="353.9" y2="201.1"/>
		
			<line style="clip-path:url(#SVGID_00000140014175221216742430000010435173871287612065_);fill:none;stroke:#000000;stroke-width:0.5386;stroke-linecap:round;stroke-linejoin:round;stroke-miterlimit:10;" x1="271.4" y1="191.5" x2="320.8" y2="197.4"/>
		
			<line style="clip-path:url(#SVGID_00000140014175221216742430000010435173871287612065_);fill:none;stroke:#000000;stroke-width:0.5386;stroke-linecap:round;stroke-linejoin:round;stroke-miterlimit:10;" x1="2.2" y1="161" x2="76.8" y2="169.5"/>
		
			<polyline style="clip-path:url(#SVGID_00000140014175221216742430000010435173871287612065_);fill:none;stroke:#000000;stroke-width:0.5386;stroke-miterlimit:10;" points="
			96,146.3 96,142.9 275.3,160.6 275.3,191 		"/>
		
			<polyline style="clip-path:url(#SVGID_00000140014175221216742430000010435173871287612065_);fill:none;stroke:#000000;stroke-width:0.5386;stroke-miterlimit:10;" points="
			100.5,144 76.6,158.1 77.7,185.4 252.1,207.3 275.3,188.5 		"/>
		
			<polyline style="clip-path:url(#SVGID_00000140014175221216742430000010435173871287612065_);fill:none;stroke:#000000;stroke-width:0.5386;stroke-miterlimit:10;" points="
			274.7,160.9 251,177.4 76.6,158.1 		"/>
		
			<line style="clip-path:url(#SVGID_00000140014175221216742430000010435173871287612065_);fill:none;stroke:#000000;stroke-width:0.5386;stroke-miterlimit:10;" x1="251.5" y1="207.1" x2="251" y2="177.4"/>
		<g style="clip-path:url(#SVGID_00000140014175221216742430000010435173871287612065_);">
			<defs>
				<polygon id="SVGID_00000103969992790625041340000002132238154326902438_" points="354.7,90.5 214.7,81.9 214.7,-40.4 
					354.7,-40.4 				"/>
			</defs>
			<clipPath id="SVGID_00000070083542239240992450000010412441780253713326_">
				<use xlink:href="#SVGID_00000103969992790625041340000002132238154326902438_"  style="overflow:visible;"/>
			</clipPath>
			<g style="clip-path:url(#SVGID_00000070083542239240992450000010412441780253713326_);">
				<g>
					<polygon class="st4" points="214.8,-38.7 214.8,-33.2 219.2,-30.4 223.5,-33.2 223.5,-38.7 219.2,-41.5 					"/>
					<polygon class="st4" points="238.5,-38.6 234.1,-41.4 229.7,-38.6 229.7,-33 234.1,-30.3 238.5,-33 					"/>
					<polygon class="st4" points="253.5,-38.5 249,-41.4 244.6,-38.5 244.6,-32.9 249,-30.1 253.5,-32.9 					"/>
					<polygon class="st4" points="268.5,-38.5 264,-41.3 259.5,-38.5 259.5,-32.8 264,-29.9 268.5,-32.8 					"/>
					<polygon class="st4" points="283.5,-38.4 278.9,-41.3 274.3,-38.4 274.3,-32.6 278.9,-29.7 283.5,-32.6 					"/>
					<polygon class="st4" points="298.5,-38.3 293.8,-41.2 289.2,-38.3 289.2,-32.5 293.8,-29.5 298.5,-32.5 					"/>
					<polygon class="st4" points="313.4,-38.2 308.8,-41.2 304.1,-38.2 304.1,-32.3 308.8,-29.4 313.4,-32.3 					"/>
					<polygon class="st4" points="328.4,-38.2 323.7,-41.1 319,-38.2 319,-32.2 323.7,-29.2 328.4,-32.2 					"/>
					<polygon class="st4" points="343.4,-38.1 338.6,-41.1 333.8,-38.1 333.8,-32 338.6,-29 343.4,-32 					"/>
					<polygon class="st4" points="348.7,-38 348.7,-31.9 353.5,-28.8 358.4,-31.9 358.4,-38 353.5,-41.1 					"/>
				</g>
				<g>
					<polygon class="st4" points="207.1,-26.4 207.1,-20.9 211.5,-18.2 215.8,-20.9 215.8,-26.4 211.5,-29.2 					"/>
					<polygon class="st4" points="230.8,-26.4 226.4,-29.1 222,-26.4 222,-20.8 226.4,-18 230.8,-20.8 					"/>
					<polygon class="st4" points="245.8,-26.3 241.3,-29.1 236.9,-26.3 236.9,-20.6 241.3,-17.8 245.8,-20.6 					"/>
					<polygon class="st4" points="260.8,-26.2 256.3,-29.1 251.7,-26.2 251.7,-20.5 256.3,-17.6 260.8,-20.5 					"/>
					<polygon class="st4" points="275.7,-26.1 271.2,-29 266.6,-26.1 266.6,-20.3 271.2,-17.4 275.7,-20.3 					"/>
					<polygon class="st4" points="290.7,-26 286.1,-29 281.5,-26 281.5,-20.2 286.1,-17.3 290.7,-20.2 					"/>
					<polygon class="st4" points="305.7,-26 301,-28.9 296.4,-26 296.4,-20 301,-17.1 305.7,-20 					"/>
					<polygon class="st4" points="320.7,-25.9 316,-28.9 311.2,-25.9 311.2,-19.9 316,-16.9 320.7,-19.9 					"/>
					<polygon class="st4" points="335.7,-25.8 330.9,-28.8 326.1,-25.8 326.1,-19.8 330.9,-16.7 335.7,-19.8 					"/>
					<polygon class="st4" points="341,-25.7 341,-19.6 345.8,-16.6 350.7,-19.6 350.7,-25.7 345.8,-28.8 					"/>
				</g>
				<g>
					<polygon class="st4" points="214.8,-14.2 214.8,-8.6 219.2,-5.9 223.5,-8.6 223.5,-14.2 219.2,-16.9 					"/>
					<polygon class="st4" points="238.5,-14.1 234.1,-16.9 229.7,-14.1 229.7,-8.5 234.1,-5.7 238.5,-8.5 					"/>
					<polygon class="st4" points="253.5,-14 249,-16.8 244.6,-14 244.6,-8.4 249,-5.5 253.5,-8.4 					"/>
					<polygon class="st4" points="268.5,-13.9 264,-16.8 259.5,-13.9 259.5,-8.2 264,-5.4 268.5,-8.2 					"/>
					<polygon class="st4" points="283.5,-13.8 278.9,-16.7 274.3,-13.8 274.3,-8.1 278.9,-5.2 283.5,-8.1 					"/>
					<polygon class="st4" points="298.5,-13.8 293.8,-16.7 289.2,-13.8 289.2,-7.9 293.8,-5 298.5,-7.9 					"/>
					<polygon class="st4" points="313.4,-13.7 308.8,-16.6 304.1,-13.7 304.1,-7.8 308.8,-4.8 313.4,-7.8 					"/>
					<polygon class="st4" points="328.4,-13.6 323.7,-16.6 319,-13.6 319,-7.6 323.7,-4.6 328.4,-7.6 					"/>
					<polygon class="st4" points="343.4,-13.5 338.6,-16.6 333.8,-13.5 333.8,-7.5 338.6,-4.5 343.4,-7.5 					"/>
					<polygon class="st4" points="348.7,-13.5 348.7,-7.3 353.5,-4.3 358.4,-7.3 358.4,-13.5 353.5,-16.5 					"/>
				</g>
				<g>
					<polygon class="st4" points="207.1,-1.9 207.1,3.6 211.5,6.4 215.8,3.6 215.8,-1.9 211.5,-4.6 					"/>
					<polygon class="st4" points="230.8,-1.8 226.4,-4.6 222,-1.8 222,3.8 226.4,6.6 230.8,3.8 					"/>
					<polygon class="st4" points="245.9,-1.7 241.4,-4.5 237,-1.7 237,3.9 241.4,6.7 245.9,3.9 					"/>
					<polygon class="st4" points="260.9,-1.6 256.4,-4.5 251.9,-1.6 251.9,4.1 256.4,6.9 260.9,4.1 					"/>
					<polygon class="st4" points="275.9,-1.6 271.4,-4.5 266.8,-1.6 266.8,4.2 271.4,7.1 275.9,4.2 					"/>
					<polygon class="st4" points="291,-1.5 286.3,-4.4 281.7,-1.5 281.7,4.4 286.3,7.3 291,4.4 					"/>
					<polygon class="st4" points="306,-1.4 301.3,-4.4 296.7,-1.4 296.7,4.5 301.3,7.5 306,4.5 					"/>
					<polygon class="st4" points="321,-1.3 316.3,-4.3 311.6,-1.3 311.6,4.6 316.3,7.6 321,4.6 					"/>
					<polygon class="st4" points="336.1,-1.3 331.3,-4.3 326.5,-1.3 326.5,4.8 331.3,7.8 336.1,4.8 					"/>
					<polygon class="st4" points="341.4,-1.2 341.4,4.9 346.3,8 351.1,4.9 351.1,-1.2 346.3,-4.2 					"/>
				</g>
				<g>
					<polygon class="st4" points="214.8,10.4 214.8,15.9 219.2,18.7 223.5,15.9 223.5,10.4 219.2,7.6 					"/>
					<polygon class="st4" points="238.5,10.6 234.1,7.8 229.7,10.6 229.7,16.2 234.1,19 238.5,16.2 					"/>
					<polygon class="st4" points="253.5,10.9 249,8 244.6,10.9 244.6,16.5 249,19.3 253.5,16.5 					"/>
					<polygon class="st4" points="268.5,11.1 264,8.2 259.5,11.1 259.5,16.8 264,19.6 268.5,16.8 					"/>
					<polygon class="st4" points="283.5,11.3 278.9,8.4 274.3,11.3 274.3,17.1 278.9,20 283.5,17.1 					"/>
					<polygon class="st4" points="298.5,11.5 293.8,8.6 289.2,11.5 289.2,17.4 293.8,20.3 298.5,17.4 					"/>
					<polygon class="st4" points="313.4,11.8 308.8,8.8 304.1,11.8 304.1,17.7 308.8,20.6 313.4,17.7 					"/>
					<polygon class="st4" points="328.4,12 323.7,9 319,12 319,18 323.7,21 328.4,18 					"/>
					<polygon class="st4" points="343.4,12.2 338.6,9.2 333.8,12.2 333.8,18.3 338.6,21.3 343.4,18.3 					"/>
					<polygon class="st4" points="348.7,12.5 348.7,18.6 353.5,21.6 358.4,18.6 358.4,12.5 353.5,9.4 					"/>
				</g>
				<g>
					<polygon class="st4" points="207.1,22.7 207.1,28.2 211.5,30.9 215.8,28.2 215.8,22.7 211.5,19.9 					"/>
					<polygon class="st4" points="231,23 226.6,20.2 222.2,23 222.2,28.6 226.6,31.3 231,28.6 					"/>
					<polygon class="st4" points="246.2,23.3 241.8,20.5 237.3,23.3 237.3,28.9 241.8,31.8 246.2,28.9 					"/>
					<polygon class="st4" points="261.5,23.6 256.9,20.7 252.4,23.6 252.4,29.3 256.9,32.2 261.5,29.3 					"/>
					<polygon class="st4" points="276.7,23.9 272.1,21 267.5,23.9 267.5,29.7 272.1,32.6 276.7,29.7 					"/>
					<polygon class="st4" points="291.9,24.2 287.3,21.3 282.6,24.2 282.6,30.1 287.3,33 291.9,30.1 					"/>
					<polygon class="st4" points="307.1,24.5 302.4,21.6 297.8,24.5 297.8,30.4 302.4,33.4 307.1,30.4 					"/>
					<polygon class="st4" points="322.3,24.8 317.6,21.8 312.9,24.8 312.9,30.8 317.6,33.8 322.3,30.8 					"/>
					<polygon class="st4" points="337.5,25.1 332.7,22.1 328,25.1 328,31.2 332.7,34.2 337.5,31.2 					"/>
					<polygon class="st4" points="343.1,25.4 343.1,31.6 347.9,34.6 352.7,31.6 352.7,25.4 347.9,22.4 					"/>
				</g>
				<g>
					<polygon class="st4" points="214.8,34.9 214.8,40.5 219.2,43.2 223.5,40.5 223.5,34.9 219.2,32.2 					"/>
					<polygon class="st4" points="238.5,35.4 234.1,32.6 229.7,35.4 229.7,41 234.1,43.8 238.5,41 					"/>
					<polygon class="st4" points="253.5,35.9 249,33.1 244.6,35.9 244.6,41.5 249,44.4 253.5,41.5 					"/>
					<polygon class="st4" points="268.5,36.4 264,33.5 259.5,36.4 259.5,42.1 264,45 268.5,42.1 					"/>
					<polygon class="st4" points="283.5,36.9 278.9,34 274.3,36.9 274.3,42.6 278.9,45.5 283.5,42.6 					"/>
					<polygon class="st4" points="298.5,37.3 293.8,34.4 289.2,37.3 289.2,43.2 293.8,46.1 298.5,43.2 					"/>
					<polygon class="st4" points="313.4,37.8 308.8,34.9 304.1,37.8 304.1,43.7 308.8,46.7 313.4,43.7 					"/>
					<polygon class="st4" points="328.4,38.3 323.7,35.3 319,38.3 319,44.3 323.7,47.3 328.4,44.3 					"/>
					<polygon class="st4" points="343.4,38.8 338.6,35.8 333.8,38.8 333.8,44.8 338.6,47.9 343.4,44.8 					"/>
					<polygon class="st4" points="348.7,39.3 348.7,45.4 353.5,48.4 358.4,45.4 358.4,39.3 353.5,36.2 					"/>
				</g>
				<g>
					<polygon class="st4" points="207.1,47.2 207.1,52.7 211.5,55.5 215.8,52.7 215.8,47.2 211.5,44.5 					"/>
					<polygon class="st4" points="230.8,47.8 226.4,45 222,47.8 222,53.4 226.4,56.2 230.8,53.4 					"/>
					<polygon class="st4" points="245.8,48.4 241.3,45.6 236.9,48.4 236.9,54 241.3,56.8 245.8,54 					"/>
					<polygon class="st4" points="260.8,49 256.3,46.1 251.7,49 251.7,54.7 256.3,57.5 260.8,54.7 					"/>
					<polygon class="st4" points="275.7,49.5 271.2,46.7 266.6,49.5 266.6,55.3 271.2,58.2 275.7,55.3 					"/>
					<polygon class="st4" points="290.7,50.1 286.1,47.2 281.5,50.1 281.5,56 286.1,58.9 290.7,56 					"/>
					<polygon class="st4" points="305.7,50.7 301,47.8 296.4,50.7 296.4,56.6 301,59.6 305.7,56.6 					"/>
					<polygon class="st4" points="320.7,51.3 316,48.3 311.2,51.3 311.2,57.3 316,60.3 320.7,57.3 					"/>
					<polygon class="st4" points="335.7,51.9 330.9,48.9 326.1,51.9 326.1,57.9 330.9,60.9 335.7,57.9 					"/>
					<polygon class="st4" points="341,52.5 341,58.6 345.8,61.6 350.7,58.6 350.7,52.5 345.8,49.4 					"/>
				</g>
				<g>
					<polygon class="st4" points="214.8,59.5 214.8,65 219.2,67.8 223.5,65 223.5,59.5 219.2,56.7 					"/>
					<polygon class="st4" points="238.5,60.2 234.1,57.4 229.7,60.2 229.7,65.8 234.1,68.5 238.5,65.8 					"/>
					<polygon class="st4" points="253.5,60.9 249,58.1 244.6,60.9 244.6,66.5 249,69.3 253.5,66.5 					"/>
					<polygon class="st4" points="268.5,61.6 264,58.7 259.5,61.6 259.5,67.3 264,70.1 268.5,67.3 					"/>
					<polygon class="st4" points="283.5,62.3 278.9,59.4 274.3,62.3 274.3,68 278.9,70.9 283.5,68 					"/>
					<polygon class="st4" points="298.5,63 293.8,60 289.2,63 289.2,68.8 293.8,71.7 298.5,68.8 					"/>
					<polygon class="st4" points="313.4,63.7 308.8,60.7 304.1,63.7 304.1,69.6 308.8,72.5 313.4,69.6 					"/>
					<polygon class="st4" points="328.4,64.3 323.7,61.4 319,64.3 319,70.3 323.7,73.3 328.4,70.3 					"/>
					<polygon class="st4" points="343.4,65 338.6,62 333.8,65 333.8,71.1 338.6,74.1 343.4,71.1 					"/>
					<polygon class="st4" points="348.7,65.7 348.7,71.9 353.5,74.9 358.4,71.9 358.4,65.7 353.5,62.7 					"/>
				</g>
				<g>
					<polygon class="st4" points="207.1,71.8 207.1,77.3 211.5,80 215.8,77.3 215.8,71.8 211.5,69 					"/>
					<polygon class="st4" points="230.8,72.5 226.4,69.8 222,72.5 222,78.1 226.4,80.9 230.8,78.1 					"/>
					<polygon class="st4" points="245.8,73.3 241.3,70.5 236.9,73.3 236.9,79 241.3,81.8 245.8,79 					"/>
					<polygon class="st4" points="260.8,74.1 256.3,71.3 251.7,74.1 251.7,79.8 256.3,82.7 260.8,79.8 					"/>
					<polygon class="st4" points="275.7,74.9 271.2,72 266.6,74.9 266.6,80.7 271.2,83.6 275.7,80.7 					"/>
					<polygon class="st4" points="290.7,75.7 286.1,72.8 281.5,75.7 281.5,81.5 286.1,84.5 290.7,81.5 					"/>
					<polygon class="st4" points="305.7,76.5 301,73.5 296.4,76.5 296.4,82.4 301,85.3 305.7,82.4 					"/>
					<polygon class="st4" points="320.7,77.3 316,74.3 311.2,77.3 311.2,83.2 316,86.2 320.7,83.2 					"/>
					<polygon class="st4" points="335.7,78 330.9,75 326.1,78 326.1,84.1 330.9,87.1 335.7,84.1 					"/>
					<polygon class="st4" points="341,78.8 341,84.9 345.8,88 350.7,84.9 350.7,78.8 345.8,75.8 					"/>
				</g>
			</g>
		</g>
		<g style="clip-path:url(#SVGID_00000140014175221216742430000010435173871287612065_);">
			<defs>
				<polygon id="SVGID_00000173119868877478338920000000253505768637491128_" points="3.2,-42.2 57.5,-41.4 62.5,67.8 1.9,66.9 				
					"/>
			</defs>
			<clipPath id="SVGID_00000181770372517216652600000003256761674343613101_">
				<use xlink:href="#SVGID_00000173119868877478338920000000253505768637491128_"  style="overflow:visible;"/>
			</clipPath>
			<g style="clip-path:url(#SVGID_00000181770372517216652600000003256761674343613101_);">
				<g>
					<polygon class="st4" points="-54.2,-44.1 -54.2,-39.2 -50.3,-36.6 -46.4,-39.1 -46.4,-44 -50.2,-46.5 					"/>
					<polygon class="st4" points="-32.9,-43.8 -36.9,-46.3 -40.8,-43.9 -40.9,-38.9 -37,-36.3 -33,-38.8 					"/>
					<polygon class="st4" points="-19.5,-43.5 -23.5,-46.1 -27.5,-43.6 -27.6,-38.6 -23.6,-36 -19.6,-38.5 					"/>
					<polygon class="st4" points="-6.1,-43.3 -10.1,-45.9 -14.2,-43.4 -14.3,-38.3 -10.2,-35.7 -6.2,-38.2 					"/>
					<polygon class="st4" points="7.3,-43 3.3,-45.7 -0.9,-43.1 -0.9,-38 3.1,-35.3 7.2,-37.9 					"/>
					<polygon class="st4" points="20.7,-42.8 16.6,-45.5 12.4,-42.9 12.4,-37.7 16.5,-35 20.7,-37.6 					"/>
					<polygon class="st4" points="34.1,-42.6 30,-45.3 25.8,-42.7 25.7,-37.4 29.9,-34.7 34.1,-37.3 					"/>
					<polygon class="st4" points="47.6,-42.3 43.4,-45.1 39.1,-42.4 39,-37.1 43.2,-34.4 47.5,-37 					"/>
					<polygon class="st4" points="61,-42.1 56.7,-44.9 52.4,-42.2 52.3,-36.8 56.6,-34 60.9,-36.7 					"/>
					<polygon class="st4" points="65.7,-42 65.7,-36.5 70,-33.7 74.3,-36.4 74.4,-41.9 70.1,-44.7 					"/>
				</g>
				<g>
					<polygon class="st4" points="-61.2,-33.2 -61.3,-28.2 -57.4,-25.7 -53.5,-28.1 -53.4,-33.1 -57.3,-35.6 					"/>
					<polygon class="st4" points="-40,-32.8 -43.9,-35.4 -47.9,-32.9 -48,-27.9 -44,-25.4 -40.1,-27.9 					"/>
					<polygon class="st4" points="-26.6,-32.6 -30.5,-35.2 -34.6,-32.7 -34.6,-27.7 -30.7,-25.1 -26.6,-27.6 					"/>
					<polygon class="st4" points="-13.2,-32.4 -17.2,-35 -21.2,-32.5 -21.3,-27.4 -17.3,-24.8 -13.2,-27.3 					"/>
					<polygon class="st4" points="0.3,-32.1 -3.8,-34.8 -7.9,-32.2 -8,-27.1 -3.9,-24.4 0.2,-27 					"/>
					<polygon class="st4" points="13.7,-31.9 9.6,-34.6 5.4,-32 5.3,-26.8 9.4,-24.1 13.6,-26.7 					"/>
					<polygon class="st4" points="27.1,-31.7 22.9,-34.4 18.7,-31.8 18.6,-26.5 22.8,-23.8 27,-26.4 					"/>
					<polygon class="st4" points="40.5,-31.4 36.3,-34.2 32,-31.5 32,-26.2 36.2,-23.5 40.4,-26.1 					"/>
					<polygon class="st4" points="53.9,-31.2 49.7,-34 45.4,-31.3 45.3,-25.9 49.5,-23.1 53.8,-25.8 					"/>
					<polygon class="st4" points="58.7,-31.1 58.6,-25.6 62.9,-22.8 67.3,-25.5 67.3,-31 63,-33.8 					"/>
				</g>
				<g>
					<polygon class="st4" points="-54.4,-22.1 -54.5,-17.2 -50.6,-14.7 -46.7,-17.1 -46.6,-22 -50.5,-24.5 					"/>
					<polygon class="st4" points="-33.2,-21.8 -37.1,-24.3 -41.1,-21.9 -41.2,-16.9 -37.3,-14.3 -33.3,-16.8 					"/>
					<polygon class="st4" points="-19.8,-21.5 -23.8,-24.1 -27.8,-21.6 -27.8,-16.6 -23.9,-14 -19.9,-16.5 					"/>
					<polygon class="st4" points="-6.4,-21.3 -10.4,-23.9 -14.5,-21.4 -14.5,-16.3 -10.5,-13.7 -6.4,-16.2 					"/>
					<polygon class="st4" points="7,-21.1 3,-23.7 -1.1,-21.2 -1.2,-16 2.8,-13.3 7,-15.9 					"/>
					<polygon class="st4" points="20.5,-20.8 16.3,-23.5 12.2,-20.9 12.1,-15.7 16.2,-13 20.4,-15.6 					"/>
					<polygon class="st4" points="33.9,-20.6 29.7,-23.3 25.5,-20.7 25.4,-15.4 29.6,-12.7 33.8,-15.3 					"/>
					<polygon class="st4" points="47.3,-20.4 43.1,-23.1 38.8,-20.5 38.8,-15.1 43,-12.4 47.2,-15 					"/>
					<polygon class="st4" points="60.7,-20.1 56.5,-22.9 52.1,-20.2 52.1,-14.8 56.3,-12 60.6,-14.7 					"/>
					<polygon class="st4" points="65.5,-20 65.4,-14.5 69.7,-11.7 74,-14.4 74.1,-19.9 69.8,-22.7 					"/>
				</g>
				<g>
					<polygon class="st4" points="-61.5,-11.2 -61.5,-6.3 -57.7,-3.7 -53.7,-6.2 -53.7,-11.1 -57.6,-13.6 					"/>
					<polygon class="st4" points="-40.3,-10.9 -44.2,-13.4 -48.2,-11 -48.2,-6 -44.3,-3.4 -40.3,-5.9 					"/>
					<polygon class="st4" points="-26.9,-10.6 -30.8,-13.2 -34.8,-10.7 -34.9,-5.7 -30.9,-3.1 -26.9,-5.6 					"/>
					<polygon class="st4" points="-13.4,-10.4 -17.4,-13 -21.5,-10.5 -21.6,-5.4 -17.6,-2.8 -13.5,-5.3 					"/>
					<polygon class="st4" points="0,-10.2 -4.1,-12.8 -8.2,-10.3 -8.3,-5.1 -4.2,-2.4 -0.1,-5 					"/>
					<polygon class="st4" points="13.4,-9.9 9.3,-12.6 5.1,-10 5.1,-4.8 9.2,-2.1 13.3,-4.7 					"/>
					<polygon class="st4" points="26.8,-9.7 22.7,-12.4 18.4,-9.8 18.4,-4.5 22.5,-1.8 26.7,-4.4 					"/>
					<polygon class="st4" points="40.2,-9.4 36,-12.2 31.8,-9.6 31.7,-4.2 35.9,-1.5 40.2,-4.1 					"/>
					<polygon class="st4" points="53.6,-9.2 49.4,-12 45.1,-9.3 45,-3.9 49.3,-1.1 53.6,-3.8 					"/>
					<polygon class="st4" points="58.4,-9.1 58.3,-3.6 62.6,-0.8 67,-3.5 67.1,-9 62.8,-11.8 					"/>
				</g>
				<g>
					<polygon class="st4" points="-54.7,-0.1 -54.8,4.8 -50.9,7.3 -47,4.9 -46.9,0 -50.8,-2.5 					"/>
					<polygon class="st4" points="-33.5,0.2 -37.4,-2.3 -41.4,0.1 -41.4,5.1 -37.5,7.7 -33.5,5.2 					"/>
					<polygon class="st4" points="-20.1,0.5 -24,-2.1 -28.1,0.4 -28.1,5.4 -24.2,8 -20.1,5.5 					"/>
					<polygon class="st4" points="-6.7,0.7 -10.7,-1.9 -14.7,0.6 -14.8,5.7 -10.8,8.3 -6.7,5.8 					"/>
					<polygon class="st4" points="6.8,0.9 2.7,-1.7 -1.4,0.8 -1.5,6 2.6,8.6 6.7,6.1 					"/>
					<polygon class="st4" points="20.2,1.2 16.1,-1.5 11.9,1.1 11.8,6.3 15.9,9 20.1,6.4 					"/>
					<polygon class="st4" points="33.6,1.4 29.4,-1.3 25.2,1.3 25.2,6.6 29.3,9.3 33.5,6.7 					"/>
					<polygon class="st4" points="47,1.6 42.8,-1.1 38.5,1.5 38.5,6.9 42.7,9.6 46.9,7 					"/>
					<polygon class="st4" points="60.4,1.9 56.2,-0.9 51.9,1.8 51.8,7.2 56,9.9 60.4,7.3 					"/>
					<polygon class="st4" points="65.2,2 65.1,7.5 69.4,10.3 73.8,7.6 73.8,2.1 69.5,-0.7 					"/>
				</g>
				<g>
					<polygon class="st4" points="-61.8,10.8 -61.8,15.7 -57.9,18.2 -54,15.8 -54,10.9 -57.8,8.4 					"/>
					<polygon class="st4" points="-40.5,11.1 -44.5,8.6 -48.4,11 -48.5,16 -44.6,18.6 -40.6,16.1 					"/>
					<polygon class="st4" points="-27.1,11.4 -31.1,8.8 -35.1,11.3 -35.2,16.3 -31.2,18.9 -27.2,16.4 					"/>
					<polygon class="st4" points="-13.7,11.6 -17.7,9 -21.8,11.5 -21.9,16.6 -17.8,19.2 -13.8,16.7 					"/>
					<polygon class="st4" points="-0.3,11.8 -4.4,9.2 -8.5,11.7 -8.5,16.9 -4.5,19.5 -0.4,17 					"/>
					<polygon class="st4" points="13.1,12.1 9,9.4 4.8,12 4.8,17.2 8.9,19.9 13.1,17.3 					"/>
					<polygon class="st4" points="26.5,12.3 22.4,9.6 18.2,12.2 18.1,17.5 22.3,20.2 26.5,17.6 					"/>
					<polygon class="st4" points="40,12.5 35.8,9.8 31.5,12.4 31.4,17.8 35.6,20.5 39.9,17.9 					"/>
					<polygon class="st4" points="53.4,12.8 49.1,10 44.8,12.7 44.7,18.1 49,20.8 53.3,18.2 					"/>
					<polygon class="st4" points="58.1,12.9 58.1,18.4 62.4,21.2 66.7,18.5 66.8,13 62.5,10.2 					"/>
				</g>
				<g>
					<polygon class="st4" points="-55,21.9 -55,26.8 -51.2,29.3 -47.2,26.9 -47.2,22 -51,19.4 					"/>
					<polygon class="st4" points="-33.8,22.2 -37.7,19.7 -41.7,22.1 -41.7,27.1 -37.8,29.6 -33.8,27.2 					"/>
					<polygon class="st4" points="-20.3,22.4 -24.3,19.9 -28.3,22.3 -28.4,27.4 -24.4,30 -20.4,27.5 					"/>
					<polygon class="st4" points="-6.9,22.7 -10.9,20.1 -15,22.6 -15.1,27.7 -11.1,30.3 -7,27.8 					"/>
					<polygon class="st4" points="6.5,22.9 2.4,20.3 -1.7,22.8 -1.8,28 2.3,30.6 6.4,28.1 					"/>
					<polygon class="st4" points="19.9,23.1 15.8,20.5 11.6,23 11.6,28.3 15.7,30.9 19.8,28.4 					"/>
					<polygon class="st4" points="33.3,23.4 29.2,20.7 25,23.3 24.9,28.6 29,31.3 33.3,28.7 					"/>
					<polygon class="st4" points="46.7,23.6 42.5,20.9 38.3,23.5 38.2,28.9 42.4,31.6 46.7,29 					"/>
					<polygon class="st4" points="60.2,23.8 55.9,21.1 51.6,23.7 51.5,29.2 55.8,31.9 60.1,29.3 					"/>
					<polygon class="st4" points="64.9,24 64.8,29.5 69.1,32.2 73.5,29.6 73.6,24.1 69.3,21.3 					"/>
				</g>
				<g>
					<polygon class="st4" points="-62,32.8 -62.1,37.7 -58.2,40.2 -54.3,37.8 -54.2,32.9 -58.1,30.4 					"/>
					<polygon class="st4" points="-40.8,33.2 -44.7,30.7 -48.7,33.1 -48.8,38.1 -44.9,40.7 -40.9,38.2 					"/>
					<polygon class="st4" points="-27.4,33.5 -31.4,31 -35.4,33.4 -35.5,38.5 -31.5,41.1 -27.5,38.6 					"/>
					<polygon class="st4" points="-14,33.9 -18,31.3 -22.1,33.8 -22.1,38.9 -18.1,41.5 -14,39 					"/>
					<polygon class="st4" points="-0.6,34.2 -4.6,31.6 -8.7,34.1 -8.8,39.3 -4.8,41.9 -0.6,39.4 					"/>
					<polygon class="st4" points="12.8,34.6 8.7,31.9 4.6,34.5 4.5,39.7 8.6,42.4 12.8,39.8 					"/>
					<polygon class="st4" points="26.3,34.9 22.1,32.2 17.9,34.8 17.8,40.1 22,42.8 26.2,40.2 					"/>
					<polygon class="st4" points="39.7,35.2 35.5,32.5 31.2,35.1 31.2,40.5 35.3,43.2 39.6,40.6 					"/>
					<polygon class="st4" points="53.1,35.6 48.9,32.8 44.5,35.5 44.5,40.9 48.7,43.7 53,41 					"/>
					<polygon class="st4" points="57.9,35.8 57.8,41.3 62.1,44.1 66.4,41.4 66.5,35.9 62.2,33.1 					"/>
				</g>
				<g>
					<polygon class="st4" points="-55.2,43.8 -55.3,48.8 -51.4,51.3 -47.5,48.9 -47.4,43.9 -51.3,41.4 					"/>
					<polygon class="st4" points="-34,44.4 -37.9,41.8 -41.9,44.3 -42,49.3 -38.1,51.8 -34.1,49.4 					"/>
					<polygon class="st4" points="-20.6,44.8 -24.6,42.2 -28.6,44.7 -28.7,49.8 -24.7,52.3 -20.7,49.9 					"/>
					<polygon class="st4" points="-7.2,45.3 -11.2,42.6 -15.3,45.2 -15.3,50.3 -11.3,52.9 -7.3,50.4 					"/>
					<polygon class="st4" points="6.2,45.7 2.2,43.1 -2,45.6 -2,50.8 2,53.4 6.2,50.9 					"/>
					<polygon class="st4" points="19.6,46.1 15.5,43.5 11.4,46 11.3,51.3 15.4,53.9 19.6,51.4 					"/>
					<polygon class="st4" points="33,46.6 28.9,43.9 24.7,46.5 24.6,51.8 28.8,54.5 33,51.9 					"/>
					<polygon class="st4" points="46.5,47 42.3,44.3 38,46.9 37.9,52.2 42.1,55 46.4,52.4 					"/>
					<polygon class="st4" points="59.9,47.4 55.6,44.7 51.3,47.3 51.3,52.7 55.5,55.5 59.8,52.8 					"/>
					<polygon class="st4" points="64.6,47.8 64.6,53.2 68.9,56 73.2,53.3 73.3,47.9 69,45.1 					"/>
				</g>
				<g>
					<polygon class="st4" points="-62.3,54.8 -62.4,59.7 -58.5,62.2 -54.6,59.8 -54.5,54.9 -58.4,52.3 					"/>
					<polygon class="st4" points="-41.1,55.3 -45,52.8 -49,55.2 -49,60.2 -45.1,62.8 -41.1,60.3 					"/>
					<polygon class="st4" points="-27.7,55.8 -31.6,53.3 -35.7,55.7 -35.7,60.8 -31.8,63.4 -27.7,60.9 					"/>
					<polygon class="st4" points="-14.3,56.3 -18.3,53.7 -22.3,56.2 -22.4,61.3 -18.4,63.9 -14.3,61.4 					"/>
					<polygon class="st4" points="-0.8,56.8 -4.9,54.2 -9,56.7 -9.1,61.9 -5,64.5 -0.9,62 					"/>
					<polygon class="st4" points="12.6,57.3 8.5,54.6 4.3,57.2 4.2,62.4 8.3,65.1 12.5,62.5 					"/>
					<polygon class="st4" points="26,57.8 21.8,55.1 17.6,57.7 17.6,63 21.7,65.7 25.9,63.1 					"/>
					<polygon class="st4" points="39.4,58.3 35.2,55.5 30.9,58.2 30.9,63.5 35.1,66.3 39.3,63.6 					"/>
					<polygon class="st4" points="52.8,58.8 48.6,56 44.3,58.7 44.2,64.1 48.4,66.8 52.8,64.2 					"/>
					<polygon class="st4" points="57.6,59.1 57.5,64.6 61.8,67.4 66.2,64.7 66.2,59.2 61.9,56.5 					"/>
				</g>
			</g>
		</g>
		<g style="clip-path:url(#SVGID_00000140014175221216742430000010435173871287612065_);">
			<polygon class="st4" points="347.1,132.6 347.1,135.7 349.8,137.2 352.5,135.7 352.5,132.6 349.8,131.1 			"/>
			<polygon class="st4" points="341.5,130.4 338.8,132 338.8,135 341.5,136.5 344.2,135 344.2,132 			"/>
			<polygon class="st4" points="333.2,129.7 330.6,131.3 330.6,134.3 333.2,135.8 335.9,134.3 335.9,131.3 			"/>
			<polygon class="st4" points="325,129.1 322.3,130.6 322.3,133.6 325,135.2 327.6,133.6 327.6,130.6 			"/>
			<polygon class="st4" points="316.7,128.4 314,129.9 314,132.9 316.7,134.5 319.4,132.9 319.4,129.9 			"/>
			<polygon class="st4" points="308.4,127.7 305.7,129.2 305.7,132.3 308.4,133.8 311.1,132.3 311.1,129.2 			"/>
			<polygon class="st4" points="300.1,127 297.4,128.5 297.4,131.6 300.1,133.1 302.8,131.6 302.8,128.5 			"/>
			<polygon class="st4" points="291.8,126.3 289.1,127.8 289.1,130.9 291.8,132.4 294.5,130.9 294.5,127.8 			"/>
			<polygon class="st4" points="283.5,125.6 280.8,127.2 280.8,130.2 283.5,131.7 286.2,130.2 286.2,127.2 			"/>
			<polygon class="st4" points="275.2,124.9 272.6,126.5 272.6,129.5 275.2,131.1 277.9,129.5 277.9,126.5 			"/>
			<polygon class="st4" points="267,124.3 264.3,125.8 264.3,128.8 267,130.4 269.6,128.8 269.6,125.8 			"/>
			<polygon class="st4" points="258.7,123.6 256,125.1 256,128.2 258.7,129.7 261.4,128.2 261.4,125.1 			"/>
			<polygon class="st4" points="250.4,122.9 247.7,124.4 247.7,127.5 250.4,129 253.1,127.5 253.1,124.4 			"/>
			<polygon class="st4" points="242.1,122.2 239.4,123.7 239.4,126.8 242.1,128.3 244.8,126.8 244.8,123.7 			"/>
			<polygon class="st4" points="233.8,121.5 231.1,123 231.1,126.1 233.8,127.6 236.5,126.1 236.5,123 			"/>
			<polygon class="st4" points="222.8,122.4 222.8,125.4 225.5,126.9 228.2,125.4 228.2,122.4 225.5,120.8 			"/>
		</g>
		<g style="clip-path:url(#SVGID_00000140014175221216742430000010435173871287612065_);">
			<polygon class="st4" points="341.7,139.3 341.7,142.3 344.4,143.9 347.1,142.3 347.1,139.3 344.4,137.8 			"/>
			<polygon class="st4" points="336.1,137.1 333.4,138.6 333.4,141.6 336.1,143.2 338.8,141.6 338.8,138.6 			"/>
			<polygon class="st4" points="327.8,136.4 325.1,137.9 325.1,140.9 327.8,142.5 330.5,140.9 330.5,137.9 			"/>
			<polygon class="st4" points="319.5,135.7 316.8,137.2 316.8,140.3 319.5,141.8 322.2,140.3 322.2,137.2 			"/>
			<polygon class="st4" points="311.3,135 308.6,136.5 308.6,139.6 311.3,141.1 313.9,139.6 313.9,136.5 			"/>
			<polygon class="st4" points="303,134.3 300.3,135.8 300.3,138.9 303,140.4 305.7,138.9 305.7,135.8 			"/>
			<polygon class="st4" points="294.7,133.6 292,135.1 292,138.2 294.7,139.7 297.4,138.2 297.4,135.1 			"/>
			<polygon class="st4" points="286.4,132.9 283.7,134.4 283.7,137.5 286.4,139 289.1,137.5 289.1,134.4 			"/>
			<polygon class="st4" points="278.1,132.2 275.4,133.7 275.4,136.8 278.1,138.3 280.8,136.8 280.8,133.7 			"/>
			<polygon class="st4" points="269.8,131.5 267.1,133 267.1,136.1 269.8,137.6 272.5,136.1 272.5,133 			"/>
			<polygon class="st4" points="261.5,130.8 258.9,132.3 258.9,135.4 261.5,136.9 264.2,135.4 264.2,132.3 			"/>
			<polygon class="st4" points="253.3,130.1 250.6,131.6 250.6,134.7 253.3,136.2 255.9,134.7 255.9,131.6 			"/>
			<polygon class="st4" points="245,129.4 242.3,130.9 242.3,134 245,135.5 247.7,134 247.7,130.9 			"/>
			<polygon class="st4" points="236.7,128.7 234,130.2 234,133.3 236.7,134.8 239.4,133.3 239.4,130.2 			"/>
			<polygon class="st4" points="228.4,128 225.7,129.5 225.7,132.6 228.4,134.1 231.1,132.6 231.1,129.5 			"/>
			<polygon class="st4" points="217.4,128.8 217.4,131.9 220.1,133.4 222.8,131.9 222.8,128.8 220.1,127.3 			"/>
		</g>
		<g style="clip-path:url(#SVGID_00000140014175221216742430000010435173871287612065_);">
			<polygon class="st4" points="336.4,145.6 336.4,148.6 339.1,150.2 341.8,148.6 341.8,145.6 339.1,144.1 			"/>
			<polygon class="st4" points="330.8,143.4 328.1,144.9 328.1,148 330.8,149.5 333.5,148 333.5,144.9 			"/>
			<polygon class="st4" points="322.5,142.7 319.8,144.2 319.8,147.3 322.5,148.8 325.2,147.3 325.2,144.2 			"/>
			<polygon class="st4" points="314.2,142 311.5,143.5 311.5,146.6 314.2,148.1 316.9,146.6 316.9,143.5 			"/>
			<polygon class="st4" points="305.9,141.3 303.2,142.8 303.2,145.9 305.9,147.4 308.6,145.9 308.6,142.8 			"/>
			<polygon class="st4" points="297.6,140.6 294.9,142.2 294.9,145.2 297.6,146.7 300.3,145.2 300.3,142.2 			"/>
			<polygon class="st4" points="289.3,139.9 286.6,141.5 286.6,144.5 289.3,146 292,144.5 292,141.5 			"/>
			<polygon class="st4" points="281,139.3 278.4,140.8 278.4,143.8 281,145.4 283.7,143.8 283.7,140.8 			"/>
			<polygon class="st4" points="272.8,138.6 270.1,140.1 270.1,143.1 272.8,144.7 275.4,143.1 275.4,140.1 			"/>
			<polygon class="st4" points="264.5,137.9 261.8,139.4 261.8,142.5 264.5,144 267.2,142.5 267.2,139.4 			"/>
			<polygon class="st4" points="256.2,137.2 253.5,138.7 253.5,141.8 256.2,143.3 258.9,141.8 258.9,138.7 			"/>
			<polygon class="st4" points="247.9,136.5 245.2,138 245.2,141.1 247.9,142.6 250.6,141.1 250.6,138 			"/>
			<polygon class="st4" points="239.6,135.8 236.9,137.3 236.9,140.4 239.6,141.9 242.3,140.4 242.3,137.3 			"/>
			<polygon class="st4" points="231.3,135.1 228.6,136.6 228.6,139.7 231.3,141.2 234,139.7 234,136.6 			"/>
			<polygon class="st4" points="223,134.4 220.3,136 220.3,139 223,140.5 225.7,139 225.7,136 			"/>
			<polygon class="st4" points="212,135.3 212,138.3 214.7,139.9 217.4,138.3 217.4,135.3 214.7,133.7 			"/>
		</g>
		<g style="clip-path:url(#SVGID_00000140014175221216742430000010435173871287612065_);">
			<polygon class="st4" points="342,154 342,157 344.7,158.5 347.4,157 347.4,154 344.7,152.4 			"/>
			<polygon class="st4" points="336.3,151.7 333.7,153.2 333.7,156.3 336.3,157.8 339,156.3 339,153.2 			"/>
			<polygon class="st4" points="328,151 325.3,152.5 325.3,155.5 328,157.1 330.7,155.5 330.7,152.5 			"/>
			<polygon class="st4" points="319.6,150.2 317,151.7 317,154.8 319.6,156.3 322.3,154.8 322.3,151.7 			"/>
			<polygon class="st4" points="311.3,149.5 308.6,151 308.6,154 311.3,155.6 314,154 314,151 			"/>
			<polygon class="st4" points="303,148.7 300.3,150.2 300.3,153.3 303,154.8 305.6,153.3 305.6,150.2 			"/>
			<polygon class="st4" points="294.6,148 291.9,149.5 291.9,152.5 294.6,154.1 297.3,152.5 297.3,149.5 			"/>
			<polygon class="st4" points="286.3,147.2 283.6,148.7 283.6,151.8 286.3,153.3 288.9,151.8 288.9,148.7 			"/>
			<polygon class="st4" points="277.9,146.5 275.2,148 275.2,151 277.9,152.6 280.6,151 280.6,148 			"/>
			<polygon class="st4" points="269.6,145.7 266.9,147.2 266.9,150.3 269.6,151.8 272.2,150.3 272.2,147.2 			"/>
			<polygon class="st4" points="261.2,145 258.5,146.5 258.5,149.5 261.2,151.1 263.9,149.5 263.9,146.5 			"/>
			<polygon class="st4" points="252.9,144.2 250.2,145.7 250.2,148.8 252.9,150.3 255.6,148.8 255.6,145.7 			"/>
			<polygon class="st4" points="244.5,143.5 241.8,145 241.8,148.1 244.5,149.6 247.2,148.1 247.2,145 			"/>
			<polygon class="st4" points="236.2,142.7 233.5,144.3 233.5,147.3 236.2,148.8 238.9,147.3 238.9,144.3 			"/>
			<polygon class="st4" points="227.8,142 225.1,143.5 225.1,146.6 227.8,148.1 230.5,146.6 230.5,143.5 			"/>
			<polygon class="st4" points="216.8,142.8 216.8,145.8 219.5,147.3 222.2,145.8 222.2,142.8 219.5,141.2 			"/>
		</g>
		<g style="clip-path:url(#SVGID_00000140014175221216742430000010435173871287612065_);">
			<polygon class="st4" points="208.6,142.4 208.6,145.4 211.3,147 214,145.4 214,142.4 211.3,140.9 			"/>
			<polygon class="st4" points="203,140.1 200.3,141.6 200.3,144.7 203,146.2 205.7,144.7 205.7,141.6 			"/>
			<polygon class="st4" points="194.6,139.4 191.9,140.9 191.9,143.9 194.6,145.5 197.3,143.9 197.3,140.9 			"/>
			<polygon class="st4" points="186.3,138.6 183.6,140.1 183.6,143.2 186.3,144.7 189,143.2 189,140.1 			"/>
			<polygon class="st4" points="177.9,137.9 175.2,139.4 175.2,142.4 177.9,144 180.6,142.4 180.6,139.4 			"/>
			<polygon class="st4" points="169.6,137.1 166.9,138.6 166.9,141.7 169.6,143.2 172.3,141.7 172.3,138.6 			"/>
			<polygon class="st4" points="161.2,136.4 158.5,137.9 158.5,141 161.2,142.5 163.9,141 163.9,137.9 			"/>
			<polygon class="st4" points="152.9,135.6 150.2,137.2 150.2,140.2 152.9,141.7 155.6,140.2 155.6,137.2 			"/>
			<polygon class="st4" points="144.5,134.9 141.9,136.4 141.9,139.5 144.5,141 147.2,139.5 147.2,136.4 			"/>
			<polygon class="st4" points="136.2,134.1 133.5,135.7 133.5,138.7 136.2,140.2 138.9,138.7 138.9,135.7 			"/>
			<polygon class="st4" points="127.8,133.4 125.2,134.9 125.2,138 127.8,139.5 130.5,138 130.5,134.9 			"/>
			<polygon class="st4" points="119.5,132.6 116.8,134.2 116.8,137.2 119.5,138.7 122.2,137.2 122.2,134.2 			"/>
			<polygon class="st4" points="111.1,131.9 108.5,133.4 108.5,136.5 111.1,138 113.8,136.5 113.8,133.4 			"/>
			<polygon class="st4" points="102.8,131.1 100.1,132.7 100.1,135.7 102.8,137.2 105.5,135.7 105.5,132.7 			"/>
			<polygon class="st4" points="94.5,130.4 91.8,131.9 91.8,135 94.5,136.5 97.1,135 97.1,131.9 			"/>
			<polygon class="st4" points="83.4,131.2 83.4,134.2 86.1,135.8 88.8,134.2 88.8,131.2 86.1,129.6 			"/>
		</g>
		
			<path style="clip-path:url(#SVGID_00000140014175221216742430000010435173871287612065_);fill:none;stroke:#000000;stroke-width:0.5386;stroke-miterlimit:10;" d="
			M241.8,106.4l-23.1,12.3c0,0-2.4,1.6-3.5,5.1c-1.1,3.5-5.9,9.4-16.4,8.6"/>
		<g style="clip-path:url(#SVGID_00000140014175221216742430000010435173871287612065_);">
			<defs>
				<rect id="SVGID_00000125594839900582453730000005305428035743176845_" x="3.9" y="132.9" width="76.9" height="29.8"/>
			</defs>
			<clipPath id="SVGID_00000081623917280717959240000012468831095792554174_">
				<use xlink:href="#SVGID_00000125594839900582453730000005305428035743176845_"  style="overflow:visible;"/>
			</clipPath>
			<g style="clip-path:url(#SVGID_00000081623917280717959240000012468831095792554174_);">
				<polygon class="st4" points="-38.5,143.7 -38.5,148 -35.2,150.1 -31.9,148 -31.8,143.8 -35.1,141.6 				"/>
				<polygon class="st4" points="-20.3,145 -23.7,142.8 -27.1,144.9 -27.1,149.2 -23.8,151.4 -20.4,149.3 				"/>
				<polygon class="st4" points="-8.8,146.2 -12.2,144 -15.7,146.2 -15.7,150.5 -12.3,152.7 -8.9,150.6 				"/>
				<polygon class="st4" points="2.6,147.5 -0.8,145.2 -4.3,147.4 -4.3,151.8 -0.9,154 2.6,151.8 				"/>
				<polygon class="st4" points="14.1,148.7 10.6,146.4 7.1,148.6 7.1,153 10.5,155.3 14.1,153.1 				"/>
				<polygon class="st4" points="25.6,149.9 22.1,147.6 18.5,149.8 18.5,154.3 22,156.6 25.5,154.4 				"/>
				<polygon class="st4" points="37.1,151.1 33.5,148.8 29.9,151 29.9,155.6 33.4,157.9 37,155.7 				"/>
				<polygon class="st4" points="48.6,152.3 45,150 41.3,152.3 41.3,156.8 44.9,159.2 48.5,156.9 				"/>
				<polygon class="st4" points="60,153.6 56.4,151.2 52.7,153.5 52.7,158.1 56.3,160.5 60,158.2 				"/>
				<polygon class="st4" points="64.1,154.7 64.1,159.4 67.7,161.8 71.5,159.5 71.5,154.8 67.9,152.4 				"/>
			</g>
			<g style="clip-path:url(#SVGID_00000081623917280717959240000012468831095792554174_);">
				<polygon class="st4" points="-32.2,134.5 -32.2,138.7 -28.9,140.9 -25.6,138.8 -25.5,134.6 -28.8,132.4 				"/>
				<polygon class="st4" points="-14,135.7 -17.4,133.5 -20.8,135.6 -20.8,139.9 -17.5,142.1 -14.1,140 				"/>
				<polygon class="st4" points="-2.5,136.9 -5.9,134.7 -9.3,136.8 -9.4,141.1 -6,143.3 -2.6,141.2 				"/>
				<polygon class="st4" points="9,138 5.6,135.8 2.1,138 2,142.3 5.5,144.6 9,142.4 				"/>
				<polygon class="st4" points="20.5,139.2 17,136.9 13.5,139.1 13.4,143.6 16.9,145.8 20.5,143.6 				"/>
				<polygon class="st4" points="32,140.4 28.5,138.1 24.9,140.3 24.9,144.8 28.4,147.1 32,144.9 				"/>
				<polygon class="st4" points="43.5,141.5 40,139.2 36.3,141.4 36.3,146 39.8,148.3 43.5,146.1 				"/>
				<polygon class="st4" points="55,142.7 51.4,140.3 47.8,142.6 47.7,147.2 51.3,149.5 55,147.3 				"/>
				<polygon class="st4" points="66.5,143.8 62.9,141.5 59.2,143.8 59.1,148.4 62.8,150.8 66.5,148.5 				"/>
				<polygon class="st4" points="70.6,144.9 70.5,149.6 74.2,152 78,149.7 78,145 74.3,142.6 				"/>
			</g>
		</g>
		<g style="clip-path:url(#SVGID_00000140014175221216742430000010435173871287612065_);">
			<polygon class="st7" points="314.7,167.8 282,165 278.9,167.7 278.9,185.7 282.8,190.4 313.8,194 			"/>
			<polyline class="st7" points="314.8,167.9 322,171.7 321.6,197.6 313.8,194 			"/>
			<polyline class="st7" points="315,167.6 316.8,165.9 284.1,163.1 281,165.9 			"/>
			<polyline class="st7" points="316.7,165.8 324.1,169.9 323.7,196.2 321.9,197.5 			"/>
			<line class="st7" x1="321.9" y1="171.9" x2="324.1" y2="169.9"/>
			<polyline class="st7" points="282,163.6 282.2,160.7 335.8,165.7 335.5,195.9 324.1,194.6 			"/>
		</g>
		
			<ellipse transform="matrix(0.9381 -0.3463 0.3463 0.9381 -49.3601 88.6802)" style="clip-path:url(#SVGID_00000140014175221216742430000010435173871287612065_);" cx="223.5" cy="182.5" rx="2.3" ry="3.2"/>
		
			<ellipse transform="matrix(0.9381 -0.3463 0.3463 0.9381 -46.8746 110.0835)" style="clip-path:url(#SVGID_00000140014175221216742430000010435173871287612065_);" cx="284.6" cy="186.2" rx="1.6" ry="2.3"/>
		
			<ellipse transform="matrix(0.9381 -0.3463 0.3463 0.9381 -49.7377 81.7257)" style="clip-path:url(#SVGID_00000140014175221216742430000010435173871287612065_);" cx="203.8" cy="180.1" rx="2.3" ry="3.2"/>
		
			<ellipse transform="matrix(0.9381 -0.3463 0.3463 0.9381 -50.0963 74.8462)" style="clip-path:url(#SVGID_00000140014175221216742430000010435173871287612065_);" cx="184.4" cy="177.6" rx="2.3" ry="3.2"/>
		
			<ellipse transform="matrix(0.9381 -0.3463 0.3463 0.9381 -50.5119 59.7914)" style="clip-path:url(#SVGID_00000140014175221216742430000010435173871287612065_);fill:none;stroke:#000000;stroke-width:0.5386;stroke-linecap:round;stroke-linejoin:round;stroke-miterlimit:10;" cx="142.1" cy="171.3" rx="1.8" ry="2.5"/>
		
			<ellipse transform="matrix(0.9381 -0.3463 0.3463 0.9381 -51.365 46.8847)" style="clip-path:url(#SVGID_00000140014175221216742430000010435173871287612065_);" cx="105.5" cy="167.2" rx="1.8" ry="2.5"/>
	</g>
</g>
<g id="Layer_3">
	<g>
		<g>
			<polygon class="st8" points="154.4,177.9 123.4,183.5 119.2,174.2 127.8,175 138.3,169.4 157.8,171.4 146.7,177.1 			"/>
			<polygon class="st9" points="152,177.8 126.2,182.4 122.7,174.7 129.9,175.3 139.5,170.3 154.9,171.9 144.6,177 			"/>
		</g>
		<g>
			<polygon class="st8" points="143.7,162.3 174.7,156.7 178.9,166.1 170.3,165.3 159.7,170.9 140.3,168.8 151.3,163.1 			"/>
			<polygon class="st9" points="146,162.4 171.9,157.8 175.4,165.6 168.2,164.9 158.6,170 143.9,168.4 153.4,163.2 			"/>
		</g>
	</g>
	<polygon points="284.2,181.4 284.4,172 302.3,173.8 302.4,169.1 311.1,178.9 302.1,187.9 302.2,183.3 	"/>
	<g>
		<line class="st10" x1="318.3" y1="208.2" x2="306.8" y2="189.4"/>
		<line class="st11" x1="318.3" y1="208.2" x2="306.8" y2="189.4"/>
	</g>
	<g>
		<g>
			<path class="st12" d="M342.9,220.8c0,7.6-6.2,13.7-13.9,13.7c-7.7,0-14-6.2-14-13.7c0-7.6,6.2-13.8,14-13.8
				C336.7,207.1,342.9,213.2,342.9,220.8"/>
		</g>
		<rect x="314.8" y="212.8" class="st13" width="27.2" height="24.8"/>
		<text transform="matrix(1 0 0 1 322.5509 227.7916)" class="st14 st15 st16 st17">1</text>
	</g>
	<g>
		<g>
			<path class="st12" d="M151.5,147.4c0,7.6-6.2,13.7-13.9,13.7c-7.7,0-14-6.2-14-13.7c0-7.6,6.2-13.8,14-13.8
				C145.3,133.6,151.5,139.8,151.5,147.4"/>
		</g>
		<rect x="123.4" y="139.3" class="st13" width="27.2" height="24.8"/>
		<text transform="matrix(1 0 0 1 131.162 154.3627)" class="st14 st15 st16 st17">2</text>
	</g>
</g>
</svg>
