<?xml version="1.0" encoding="utf-8"?>
<!-- Generator: Adobe Illustrator 19.1.0, SVG Export Plug-In . SVG Version: 6.00 Build 0)  -->
<svg version="1.1" xmlns="http://www.w3.org/2000/svg" xmlns:xlink="http://www.w3.org/1999/xlink" x="0px" y="0px" width="402.7px"
	 height="429.2px" viewBox="0 0 402.7 429.2" style="enable-background:new 0 0 402.7 429.2;" xml:space="preserve">
<style type="text/css">
	.st0{fill:none;stroke:#000000;stroke-width:0.5;stroke-linecap:round;stroke-linejoin:round;stroke-miterlimit:10;}
	.st1{stroke:#000000;stroke-miterlimit:10;}
	.st2{opacity:0.6;fill:#FFFFFF;stroke:#FFFFFF;stroke-width:5;stroke-miterlimit:10;}
	.st3{fill:none;stroke:#000000;stroke-linecap:round;stroke-linejoin:round;stroke-miterlimit:10;stroke-dasharray:3;}
	
		.st4{fill:none;stroke:#FFFFFF;stroke-width:4;stroke-linecap:round;stroke-linejoin:round;stroke-miterlimit:10;stroke-dasharray:3;}
	.st5{fill:#FFFFFF;}
	.st6{clip-path:url(#SVGID_2_);fill:none;stroke:#000000;stroke-width:1.2365;stroke-miterlimit:10;}
	.st7{clip-path:url(#SVGID_2_);fill:none;stroke:#000000;stroke-width:0.8243;stroke-miterlimit:10;}
	.st8{clip-path:url(#SVGID_2_);fill:none;stroke:#000000;stroke-width:0.5;stroke-miterlimit:10;}
	.st9{fill:none;stroke:#000000;stroke-width:1.5;stroke-miterlimit:10;}
	.st10{fill:#FFFFFF;stroke:#000000;stroke-width:0.75;stroke-miterlimit:10;}
	.st11{fill:none;stroke:#FFFFFF;stroke-width:2;stroke-linecap:round;stroke-linejoin:round;stroke-miterlimit:10;}
	
		.st12{fill:none;stroke:#000000;stroke-width:0.75;stroke-linecap:round;stroke-linejoin:round;stroke-miterlimit:10;stroke-dasharray:0.75,1.5;}
	.st13{fill:none;stroke:#000000;stroke-linecap:round;stroke-linejoin:round;stroke-miterlimit:10;stroke-dasharray:0.75,2;}
	.st14{fill:#E6E7E8;}
	.st15{fill:#FFFFFF;stroke:#000000;stroke-width:0.5;stroke-linecap:round;stroke-linejoin:round;stroke-miterlimit:10;}
	.st16{fill:#FFFFFF;stroke:#000000;stroke-width:0.5;stroke-miterlimit:10;}
	.st17{clip-path:url(#SVGID_4_);}
	.st18{fill:none;stroke:#000000;stroke-width:0.4396;stroke-miterlimit:10;}
</style>
<g id="Layer_2">
</g>
<g id="Layer_7">
</g>
<g id="New_Zoom">
	<g>
		<polygon class="st0" points="255.5,428.9 106,374.5 106,51.8 255.5,106.3 		"/>
		<polygon class="st0" points="398.9,374.5 257.3,428.9 257.3,106.3 399.5,53.8 		"/>
		<polyline class="st0" points="179.4,400.8 179.4,75.8 320.5,25.1 		"/>
		<polyline class="st0" points="402.2,50.8 402.5,372.9 398.9,374.5 		"/>
		<line class="st0" x1="205.3" y1="390.1" x2="205.3" y2="93.3"/>
		<line class="st0" x1="301.4" y1="244.7" x2="301.4" y2="103.3"/>
		<line class="st0" x1="301.4" y1="355.4" x2="301.4" y2="257.7"/>
		<line class="st0" x1="289.9" y1="249" x2="289.9" y2="107.6"/>
		<line class="st0" x1="289.9" y1="359.8" x2="289.9" y2="261.2"/>
		<line class="st0" x1="320.2" y1="237.8" x2="320.2" y2="96.4"/>
		<line class="st0" x1="320.2" y1="348.6" x2="320.2" y2="250"/>
		<line class="st0" x1="334" y1="232.4" x2="334" y2="91"/>
		<line class="st0" x1="334" y1="343.3" x2="334" y2="244.7"/>
		<polyline class="st0" points="371,69.1 371,381 397.8,371.1 		"/>
		<polyline class="st0" points="355.1,224.7 355.1,84.9 359.1,82.9 		"/>
		<line class="st0" x1="355.1" y1="386.6" x2="355.1" y2="237.9"/>
		<line class="st0" x1="193.3" y1="395.6" x2="193.3" y2="88.8"/>
		<polyline class="st0" points="359.9,73.3 359.9,384.7 258.5,422.8 		"/>
		<polyline class="st0" points="340.8,230.3 341.4,88.8 275.3,113.3 275.3,253.7 		"/>
		<polyline class="st0" points="275.3,267.1 275.3,404.2 340.2,380.4 340.8,242.7 		"/>
		<polygon class="st0" points="402,50.8 256.1,104.7 105.1,49.6 248.8,0.2 		"/>
		<line class="st0" x1="128.9" y1="66.5" x2="128.9" y2="363.9"/>
		<line class="st0" x1="118.7" y1="63.2" x2="118.7" y2="365.8"/>
		<line class="st0" x1="224.9" y1="233" x2="224.9" y2="327.2"/>
		<line class="st0" x1="224.9" y1="99.4" x2="224.9" y2="216.9"/>
		<polyline class="st0" points="172.4,397.8 172.4,82.2 106.1,57.5 		"/>
		<polygon class="st0" points="184.9,398.9 184.9,85.3 246.5,107 249.3,422.3 		"/>
		<line class="st0" x1="205.3" y1="335.6" x2="247.7" y2="319.9"/>
		<line class="st0" x1="107.2" y1="372" x2="172.3" y2="347.9"/>
		<polyline class="st0" points="205.4,342.6 234.4,332.1 247.1,336.7 		"/>
		<line class="st0" x1="140.1" y1="366.8" x2="172.3" y2="354.8"/>
		<polyline class="st0" points="275.4,372.7 310,360 339.1,370.2 		"/>
		<line class="st0" x1="216.8" y1="394.6" x2="248.4" y2="382.7"/>
		<line class="st0" x1="128.9" y1="350.8" x2="172.4" y2="334.7"/>
		<line class="st0" x1="205.3" y1="373.2" x2="248" y2="357.5"/>
		<line class="st0" x1="275.2" y1="365.9" x2="333.3" y2="344.6"/>
		<line class="st0" x1="185" y1="398.9" x2="248.2" y2="375.8"/>
		<line class="st0" x1="248.1" y1="405.5" x2="206.7" y2="391.1"/>
		<line class="st0" x1="170.7" y1="378.2" x2="129.2" y2="363.8"/>
		<line class="st0" x1="258.3" y1="109.9" x2="399.2" y2="57.5"/>
		<line class="st0" x1="258.6" y1="260.7" x2="359.1" y2="223.5"/>
		<line class="st0" x1="204.8" y1="240.1" x2="247.4" y2="224.4"/>
		<line class="st0" x1="204.8" y1="224.7" x2="247.4" y2="209"/>
		<line class="st0" x1="129.9" y1="211.3" x2="172.6" y2="195.6"/>
		<line class="st0" x1="129.9" y1="197.6" x2="172.6" y2="181.9"/>
		<polyline class="st0" points="258.6,272.6 274.3,266.8 340.5,242.4 359.1,235.5 		"/>
		<line class="st0" x1="225.4" y1="324.6" x2="247.7" y2="316.1"/>
		<line class="st0" x1="319.2" y1="338.7" x2="301.1" y2="332.2"/>
		<line class="st0" x1="339.8" y1="346.2" x2="333.2" y2="343.8"/>
		<line class="st0" x1="358.3" y1="352.9" x2="356.2" y2="352.2"/>
		<line class="st0" x1="398" y1="367.4" x2="371.8" y2="357.7"/>
		<polyline class="st0" points="310,360 310,353.4 339.6,363.4 		"/>
		<polyline class="st0" points="248.3,330.9 233.7,326 233.5,332.6 		"/>
		<g>
			<ellipse class="st0" cx="393" cy="167" rx="3.9" ry="1.9"/>
			<path class="st0" d="M389.1,167v4c0,1,1.7,1.9,3.9,1.9s3.9-0.8,3.9-1.9v-4"/>
			<rect x="396.8" y="166.8" class="st1" width="2.2" height="4.5"/>
		</g>
		<g>
			<ellipse class="st0" cx="393" cy="196.4" rx="3.9" ry="1.9"/>
			<path class="st0" d="M389.1,196.4v4c0,1,1.7,1.9,3.9,1.9s3.9-0.8,3.9-1.9v-4"/>
			<rect x="396.8" y="196.2" class="st1" width="2.2" height="4.5"/>
		</g>
		<g>
			<ellipse class="st0" cx="393" cy="225.7" rx="3.9" ry="1.9"/>
			<path class="st0" d="M389.1,225.7v4c0,1,1.7,1.9,3.9,1.9s3.9-0.8,3.9-1.9v-4"/>
			<rect x="396.8" y="225.5" class="st1" width="2.2" height="4.5"/>
		</g>
		<g>
			<ellipse class="st0" cx="393" cy="255.1" rx="3.9" ry="1.9"/>
			<path class="st0" d="M389.1,255.1v4c0,1,1.7,1.9,3.9,1.9s3.9-0.8,3.9-1.9v-4"/>
			<rect x="396.8" y="254.9" class="st1" width="2.2" height="4.5"/>
		</g>
		<g>
			<ellipse class="st0" cx="393" cy="284.4" rx="3.9" ry="1.9"/>
			<path class="st0" d="M389.1,284.4v4c0,1,1.7,1.9,3.9,1.9s3.9-0.8,3.9-1.9v-4"/>
			<rect x="396.8" y="284.2" class="st1" width="2.2" height="4.5"/>
		</g>
		<g>
			<ellipse class="st0" cx="393" cy="313.8" rx="3.9" ry="1.9"/>
			<path class="st0" d="M389.1,313.8v4c0,1,1.7,1.9,3.9,1.9s3.9-0.8,3.9-1.9v-4"/>
			<rect x="396.8" y="313.6" class="st1" width="2.2" height="4.5"/>
		</g>
		<g>
			<ellipse class="st0" cx="315.1" cy="315.4" rx="3.9" ry="1.9"/>
			<path class="st0" d="M311.2,315.4v4c0,1,1.7,1.9,3.9,1.9c2.2,0,3.9-0.8,3.9-1.9v-4"/>
			<rect x="318.9" y="315.2" class="st1" width="2.2" height="4.5"/>
		</g>
		<g>
			<ellipse class="st0" cx="315.1" cy="285.8" rx="3.9" ry="1.9"/>
			<path class="st0" d="M311.2,285.8v4c0,1,1.7,1.9,3.9,1.9c2.2,0,3.9-0.8,3.9-1.9v-4"/>
			<rect x="318.9" y="285.6" class="st1" width="2.2" height="4.5"/>
		</g>
		<g>
			<ellipse class="st0" cx="315.1" cy="256.2" rx="3.9" ry="1.9"/>
			<path class="st0" d="M311.2,256.2v4c0,1,1.7,1.9,3.9,1.9c2.2,0,3.9-0.8,3.9-1.9v-4"/>
			<rect x="318.9" y="256" class="st1" width="2.2" height="4.5"/>
		</g>
		<g>
			<ellipse class="st0" cx="315.1" cy="226.6" rx="3.9" ry="1.9"/>
			<path class="st0" d="M311.2,226.6v4c0,1,1.7,1.9,3.9,1.9c2.2,0,3.9-0.8,3.9-1.9v-4"/>
			<rect x="318.9" y="226.4" class="st1" width="2.2" height="4.5"/>
		</g>
		<g>
			<ellipse class="st0" cx="315.1" cy="197.6" rx="3.9" ry="1.9"/>
			<path class="st0" d="M311.2,197.6v4c0,1,1.7,1.9,3.9,1.9c2.2,0,3.9-0.8,3.9-1.9v-4"/>
			<rect x="318.9" y="197.4" class="st1" width="2.2" height="4.5"/>
		</g>
		<g>
			<ellipse class="st0" cx="315.1" cy="168.8" rx="3.9" ry="1.9"/>
			<path class="st0" d="M311.2,168.8v4c0,1,1.7,1.9,3.9,1.9c2.2,0,3.9-0.8,3.9-1.9v-4"/>
			<rect x="318.9" y="168.6" class="st1" width="2.2" height="4.5"/>
		</g>
		<g>
			<ellipse class="st0" cx="315.1" cy="138.9" rx="3.9" ry="1.9"/>
			<path class="st0" d="M311.2,138.9v4c0,1,1.7,1.9,3.9,1.9c2.2,0,3.9-0.8,3.9-1.9v-4"/>
			<rect x="318.9" y="138.7" class="st1" width="2.2" height="4.5"/>
		</g>
		<g>
			<ellipse class="st0" cx="315.1" cy="110.1" rx="3.9" ry="1.9"/>
			<path class="st0" d="M311.2,110.1v4c0,1,1.7,1.9,3.9,1.9c2.2,0,3.9-0.8,3.9-1.9v-4"/>
			<rect x="318.9" y="109.9" class="st1" width="2.2" height="4.5"/>
		</g>
		<g>
			<ellipse class="st0" cx="393" cy="343.1" rx="3.9" ry="1.9"/>
			<path class="st0" d="M389.1,343.1v4c0,1,1.7,1.9,3.9,1.9s3.9-0.8,3.9-1.9v-4"/>
			<rect x="396.8" y="342.9" class="st1" width="2.2" height="4.5"/>
		</g>
		<g>
			<ellipse class="st0" cx="393" cy="137.7" rx="3.9" ry="1.9"/>
			<path class="st0" d="M389.1,137.7v4c0,1,1.7,1.9,3.9,1.9s3.9-0.8,3.9-1.9v-4"/>
			<rect x="396.8" y="137.5" class="st1" width="2.2" height="4.5"/>
		</g>
		<g>
			<ellipse class="st0" cx="393" cy="108.4" rx="3.9" ry="1.9"/>
			<path class="st0" d="M389.1,108.4v4c0,1,1.7,1.9,3.9,1.9s3.9-0.8,3.9-1.9v-4"/>
			<rect x="396.8" y="108.2" class="st1" width="2.2" height="4.5"/>
		</g>
		<g>
			<ellipse class="st0" cx="393" cy="79" rx="3.9" ry="1.9"/>
			<path class="st0" d="M389.1,79v4c0,1,1.7,1.9,3.9,1.9s3.9-0.8,3.9-1.9v-4"/>
			<rect x="396.8" y="78.8" class="st1" width="2.2" height="4.5"/>
		</g>
		<g>
			<circle class="st2" cx="185.6" cy="129.7" r="22.7"/>
			<circle class="st3" cx="185.6" cy="129.7" r="22.7"/>
		</g>
		<g>
			<circle class="st2" cx="185.6" cy="340.2" r="22.7"/>
			<circle class="st3" cx="185.6" cy="340.2" r="22.7"/>
		</g>
		<g>
			<circle class="st2" cx="327.3" cy="118.7" r="20.5"/>
			<circle class="st3" cx="327.3" cy="118.7" r="20.5"/>
		</g>
		<g>
			<circle class="st2" cx="327.3" cy="287.5" r="20.5"/>
			<circle class="st3" cx="327.3" cy="287.5" r="20.5"/>
		</g>
		<g>
			<line class="st4" x1="95" y1="181.2" x2="159.1" y2="143.5"/>
			<line class="st3" x1="95" y1="181.2" x2="159.1" y2="143.5"/>
		</g>
		<g>
			<line class="st4" x1="59.9" y1="220.2" x2="307.1" y2="132.5"/>
			<line class="st3" x1="59.9" y1="220.2" x2="307.1" y2="132.5"/>
		</g>
		<g>
			<line class="st4" x1="121.1" y1="257.2" x2="303.3" y2="287.3"/>
			<line class="st3" x1="121.1" y1="257.2" x2="303.3" y2="287.3"/>
		</g>
		<g>
			<line class="st4" x1="109" y1="290.7" x2="160.9" y2="334.3"/>
			<line class="st3" x1="109" y1="290.7" x2="160.9" y2="334.3"/>
		</g>
		<g>
			<g>
				<circle class="st5" cx="84.2" cy="211.5" r="84.2"/>
				<g>
					<g>
						<defs>
							<circle id="SVGID_1_" cx="84.9" cy="211.6" r="84.2"/>
						</defs>
						<clipPath id="SVGID_2_">
							<use xlink:href="#SVGID_1_"  style="overflow:visible;"/>
						</clipPath>
						<line class="st6" x1="140.8" y1="73.6" x2="140.8" y2="338.2"/>
						<line class="st6" x1="16" y1="73.6" x2="16" y2="338.2"/>
						<line class="st7" x1="38" y1="80.5" x2="38" y2="283"/>
						<line class="st6" x1="56" y1="80.5" x2="56" y2="291"/>
						<line class="st8" x1="77.1" y1="80.5" x2="77.1" y2="294.6"/>
						<line class="st7" x1="108.7" y1="131.5" x2="108.7" y2="292.8"/>
						<line class="st6" x1="93.5" y1="82.8" x2="93.5" y2="295.4"/>
						<use xlink:href="#SVGID_1_"  style="overflow:visible;fill:none;stroke:#000000;stroke-miterlimit:10;"/>
					</g>
					<circle class="st9" cx="84.9" cy="211.6" r="84.2"/>
				</g>
			</g>
			<ellipse transform="matrix(0.9915 0.13 -0.13 0.9915 27.6855 -1.7123)" class="st10" cx="27" cy="211.2" rx="6.8" ry="12.8"/>
			<g>
				<line class="st11" x1="23.2" y1="210.2" x2="58.8" y2="218.6"/>
				<line class="st12" x1="23.2" y1="210.2" x2="58.8" y2="218.6"/>
			</g>
			<g>
				<line class="st11" x1="20.4" y1="241.1" x2="34" y2="245.7"/>
				<line class="st13" x1="20.4" y1="241.1" x2="34" y2="245.7"/>
			</g>
			<g>
				<line class="st11" x1="20.4" y1="187.3" x2="34" y2="191.9"/>
				<line class="st13" x1="20.4" y1="187.3" x2="34" y2="191.9"/>
			</g>
			<g>
				<line class="st11" x1="105.9" y1="169.3" x2="119.5" y2="174"/>
				<line class="st13" x1="105.9" y1="169.3" x2="119.5" y2="174"/>
			</g>
			<g>
				<line class="st11" x1="138.1" y1="174.9" x2="151.7" y2="179.6"/>
				<line class="st13" x1="138.1" y1="174.9" x2="151.7" y2="179.6"/>
			</g>
			<g>
				<polyline class="st14" points="148.4,239.1 124.3,232.2 120.3,232.1 61.1,237 57.7,237.9 40.3,247.9 40,247.7 35,246.2 
					35,191.8 35.1,191.6 53.5,181 58.9,179.6 120.7,174.7 126.4,175.3 152.8,181.7 153.2,181.7 153.2,235.7 148.4,239.1 				"/>
				<g>
					<g>
						<g>
							<polygon class="st0" points="35.1,191.7 53.5,181.1 58.9,179.7 120.7,174.8 126.4,175.4 152.8,181.8 148.3,184.9 124,178 
								120.2,177.8 60.6,182.8 56.9,183.9 40,193.4 							"/>
							<polygon class="st0" points="40,193.4 35,191.9 35,246.3 40,247.8 							"/>
							<polygon class="st0" points="153.2,235.8 148.4,239.2 148.4,184.9 153.2,181.8 							"/>
							<polyline class="st0" points="148.4,239.2 124.3,232.3 120.3,232.2 61.1,237.1 57.7,238 40.3,248 							"/>
							
								<ellipse transform="matrix(0.6086 0.7935 -0.7935 0.6086 218.3412 -25.365)" class="st15" cx="134.9" cy="208.6" rx="14.1" ry="11.1"/>
							
								<ellipse transform="matrix(0.6086 0.7935 -0.7935 0.6086 218.286 -26.1452)" class="st0" cx="135.6" cy="208.2" rx="10.1" ry="7.9"/>
							<line class="st0" x1="119.6" y1="178.4" x2="120.2" y2="231.9"/>
							<line class="st0" x1="124.2" y1="212.3" x2="124.3" y2="232.3"/>
							<line class="st0" x1="123.9" y1="178.4" x2="124.1" y2="199.5"/>
							<line class="st0" x1="57.2" y1="184.3" x2="57.7" y2="238"/>
							<line class="st0" x1="61.3" y1="236.6" x2="60.6" y2="183.3"/>
							
								<ellipse transform="matrix(0.9796 0.2009 -0.2009 0.9796 44.2221 -5.4772)" class="st16" cx="49.1" cy="215.2" rx="6.3" ry="13"/>
						</g>
					</g>
				</g>
				<g>
					<path class="st0" d="M141.5,214.2c0.2,0.3,0.7,0.2,0.7,0.2c3.6-0.9,1.1-8,1.1-8c-3.8-8.7-10.9-7.1-10.9-7.1s-0.4,0.2-0.2,0.7"
						/>
					<path class="st0" d="M140,215.3c0.2,0.3,0.7,0.2,0.7,0.2c3.6-0.9,1.1-8,1.1-8c-3.8-8.7-10.9-7.1-10.9-7.1s-0.4,0.2-0.2,0.7"/>
					<path class="st0" d="M138.4,216.4c0.2,0.3,0.7,0.2,0.7,0.2c3.6-0.9,1.1-8,1.1-8c-3.8-8.7-10.9-7.1-10.9-7.1s-0.4,0.2-0.2,0.7"
						/>
					<path class="st0" d="M136.9,217.5c0.2,0.3,0.7,0.2,0.7,0.2c3.6-0.9,1.1-8,1.1-8c-3.8-8.7-10.9-7.1-10.9-7.1s-0.4,0.2-0.2,0.7"
						/>
					<path class="st0" d="M135.4,218.5c0.2,0.3,0.7,0.2,0.7,0.2c3.6-0.9,1.1-8,1.1-8c-3.8-8.7-10.9-7.1-10.9-7.1s-0.4,0.2-0.2,0.7"
						/>
					<g>
						
							<ellipse transform="matrix(0.556 0.8312 -0.8312 0.556 234.1661 -9.0049)" class="st16" cx="125.5" cy="214.7" rx="14.1" ry="11.6"/>
					</g>
					<g>
						
							<ellipse transform="matrix(0.556 0.8312 -0.8312 0.556 234.1129 -7.0332)" class="st16" cx="123.6" cy="215.6" rx="14.1" ry="11.6"/>
					</g>
					<g>
						<line class="st0" x1="126.2" y1="215.4" x2="119.6" y2="216.8"/>
						<line class="st0" x1="125.1" y1="218.4" x2="120.5" y2="213.6"/>
						<line class="st0" x1="124.1" y1="212.4" x2="121.7" y2="219.5"/>
					</g>
				</g>
			</g>
			<g>
				<defs>
					<path id="SVGID_3_" d="M67.2,220.1c-1.4,7-17.4,8.5-20.8,7.9s-5-6.9-3.5-14c1.4-7,5.3-12.1,8.7-11.4S68.6,213.1,67.2,220.1z"/>
				</defs>
				<clipPath id="SVGID_4_">
					<use xlink:href="#SVGID_3_"  style="overflow:visible;"/>
				</clipPath>
				<g class="st17">
					<line class="st11" x1="23.1" y1="210.2" x2="58.8" y2="218.6"/>
					<line class="st13" x1="23.1" y1="210.2" x2="58.8" y2="218.6"/>
				</g>
			</g>
			<g>
				
					<ellipse transform="matrix(-0.215 0.9766 -0.9766 -0.215 337.0548 182.4497)" class="st5" cx="95.2" cy="226.7" rx="15" ry="6.3"/>
				<g>
					<path class="st5" d="M99.6,218.4l-29.4-6.1c0-0.4-0.4-0.6-0.4-0.6c-3.3-1.8-5.3,7.7-5.3,7.7c-1.3,9.5,2.1,10.2,2.1,10.2
						s0.4,0.1,0.6-0.3l27.1,6.8C94.3,236,92.9,222.3,99.6,218.4z"/>
					<g>
						
							<ellipse transform="matrix(-0.215 0.9766 -0.9766 -0.215 337.0548 182.4497)" class="st0" cx="95.2" cy="226.7" rx="15" ry="6.3"/>
						<path class="st0" d="M93,241.3c-3.4-0.7-4.7-7.6-2.9-15.7c1.8-8.1,5.9-13.6,9.3-12.9"/>
						<path class="st0" d="M91.9,217.4c0-0.4-0.4-0.6-0.4-0.6c-3.3-1.8-5.3,7.7-5.3,7.7c-1.3,9.5,2.1,10.2,2.1,10.2"/>
						<path class="st0" d="M89.7,216.9c0-0.4-0.4-0.6-0.4-0.6c-3.3-1.8-5.3,7.7-5.3,7.7c-1.3,9.5,2.1,10.2,2.1,10.2s0.4,0.1,0.6-0.3
							"/>
						<path class="st0" d="M87.6,216.4c0-0.4-0.4-0.6-0.4-0.6c-3.3-1.8-5.3,7.7-5.3,7.7c-1.3,9.5,2.1,10.2,2.1,10.2s0.4,0.1,0.6-0.3
							"/>
						<path class="st0" d="M85.4,215.9c0-0.4-0.4-0.6-0.4-0.6c-3.3-1.8-5.3,7.7-5.3,7.7c-1.3,9.5,2.1,10.2,2.1,10.2s0.4,0.1,0.6-0.3
							"/>
						<path class="st0" d="M83.3,215.4c0-0.4-0.4-0.6-0.4-0.6c-3.3-1.8-5.3,7.7-5.3,7.7c-1.3,9.5,2.1,10.2,2.1,10.2s0.4,0.1,0.6-0.3
							"/>
						<path class="st0" d="M81.1,215c0-0.4-0.4-0.6-0.4-0.6c-3.3-1.8-5.3,7.7-5.3,7.7c-1.3,9.5,2.1,10.2,2.1,10.2s0.4,0.1,0.6-0.3"
							/>
						<path class="st0" d="M78.9,214.5c0-0.4-0.4-0.6-0.4-0.6c-3.3-1.8-5.3,7.7-5.3,7.7c-1.3,9.5,2.1,10.2,2.1,10.2s0.4,0.1,0.6-0.3
							"/>
						<path class="st0" d="M76.8,214c0-0.4-0.4-0.6-0.4-0.6c-3.3-1.8-5.3,7.7-5.3,7.7c-1.3,9.5,2.1,10.2,2.1,10.2s0.4,0.1,0.6-0.3"
							/>
						<path class="st0" d="M74.6,213.5c0-0.4-0.4-0.6-0.4-0.6c-3.3-1.8-5.3,7.7-5.3,7.7c-1.3,9.5,2.1,10.2,2.1,10.2s0.4,0.1,0.6-0.3
							"/>
						<path class="st0" d="M72.5,213.1c0-0.4-0.4-0.6-0.4-0.6c-3.3-1.8-5.3,7.7-5.3,7.7c-1.3,9.5,2.1,10.2,2.1,10.2s0.4,0.1,0.6-0.3
							"/>
						<path class="st0" d="M70.3,212.6c0-0.4-0.4-0.6-0.4-0.6c-3.3-1.8-5.3,7.7-5.3,7.7c-1.3,9.5,2.1,10.2,2.1,10.2s0.4,0.1,0.6-0.3
							"/>
						<g>
							<line class="st0" x1="99.3" y1="224.3" x2="98" y2="230.8"/>
							<line class="st0" x1="100.2" y1="226" x2="97" y2="229.2"/>
							<line class="st0" x1="97.5" y1="225.6" x2="99.6" y2="229.5"/>
						</g>
					</g>
				</g>
			</g>
			<path class="st18" d="M46.4,228c-3.4-0.7-5-6.9-3.5-14s5.3-12.1,8.7-11.4c2,0.4,3.4,2.8,3.9,6.1"/>
		</g>
	</g>
</g>
</svg>
