<?xml version="1.0" encoding="utf-8"?>
<!-- Generator: Adobe Illustrator 21.1.0, SVG Export Plug-In . SVG Version: 6.00 Build 0)  -->
<svg version="1.1" id="Layer_1" xmlns="http://www.w3.org/2000/svg" xmlns:xlink="http://www.w3.org/1999/xlink" x="0px" y="0px"
	 width="123.8px" height="73.1px" viewBox="0 0 123.8 73.1" style="enable-background:new 0 0 123.8 73.1;" xml:space="preserve">
<style type="text/css">
	.st0{fill:#FFFFFF;}
	.st1{fill:none;stroke:#939598;stroke-width:1.9291;}
	.st2{fill:#939598;stroke:#808080;stroke-width:1.9291;}
	.st3{font-family:'Gotham-Bold';}
	.st4{font-size:6.3913px;}
	.st5{fill-rule:evenodd;clip-rule:evenodd;fill:#F79320;}
	.st6{fill:#221F1F;}
	.st7{font-size:7.1168px;}
	.st8{fill-rule:evenodd;clip-rule:evenodd;fill:#FFFFFF;}
	.st9{fill-rule:evenodd;clip-rule:evenodd;fill:#221F1F;}
	.st10{font-family:'MyriadPro-Regular';}
	.st11{font-size:5.4132px;}
	.st12{font-family:'Gotham-Book';}
	.st13{fill:#FFFFFF;stroke:#221F1F;stroke-width:0.576;stroke-linejoin:round;}
	.st14{fill:#FFFFFF;stroke:#221F1F;stroke-width:0.576;stroke-linecap:round;stroke-linejoin:round;}
</style>
<g>
	<g>
		<g>
			<rect x="1.3" y="0.2" class="st0" width="120.4" height="71.5"/>
			<g>
				<rect x="1" y="1" class="st1" width="121.9" height="71.2"/>
				<polygon class="st2" points="122.9,1 60.5,1 60.5,17.8 103.3,17.8 122.9,17.8 				"/>
				<rect x="1" y="1" class="st1" width="58.3" height="16.9"/>
				<text transform="matrix(1 0 0 1 62.5344 12.5478)" class="st0 st3 st4">LIFTING HAZARD</text>
				<g>
					<path class="st5" d="M6.9,14h9.4c0.2,0,0.2-0.2,0.1-0.4c0,0-4.6-9.2-4.7-9.4c0,0-0.1-0.1-0.1-0.1c-0.1,0-0.1,0-0.1,0.1
						c-0.1,0.2-4.7,9.4-4.7,9.4C6.7,13.7,6.7,14,6.9,14z"/>
					<text transform="matrix(1 0 0 1 19.3493 12.8232)"><tspan x="0" y="0" class="st6 st3 st7">CAUTIO</tspan><tspan x="28.9" y="0" class="st6 st3 st7">N</tspan></text>
					<g>
						<path class="st5" d="M7.1,14.4c-0.5,0-0.9-0.4-0.9-0.9c0-0.2,0.1-0.4,0.2-0.6L10.8,4c0.2-0.2,0.4-0.4,0.7-0.4
							c0.3,0,0.6,0.1,0.7,0.4l4.4,8.9c0.1,0.2,0.2,0.4,0.2,0.6c0,0.5-0.4,0.9-0.9,0.9H7.1z M7.1,13.7H16c0.2,0,0.2-0.2,0.1-0.3
							c0,0-4.3-8.6-4.4-8.8c0,0-0.1-0.1-0.1-0.1c-0.1,0-0.1,0-0.1,0.1c-0.1,0.2-4.4,8.8-4.4,8.8C7,13.5,7,13.7,7.1,13.7z"/>
						<circle class="st8" cx="11.6" cy="12.4" r="0.7"/>
						<path class="st8" d="M11.6,6.8c-0.3,0-0.6,0.3-0.6,0.6l0.2,3.3c0,0.2,0.2,0.4,0.4,0.4c0.2,0,0.4-0.2,0.4-0.4l0.2-3.3
							C12.2,7.1,11.9,6.8,11.6,6.8z"/>
					</g>
				</g>
				<rect x="84.5" y="40.5" class="st8" width="16.6" height="7.1"/>
				<path class="st9" d="M101.1,47.6H84.5v-7.1h16.6V47.6z M102,48.5H83.7v-8.8H102V48.5"/>
				<g>
					<circle class="st9" cx="81" cy="30.5" r="2.6"/>
					<path class="st9" d="M76.7,33.7c0.6-1,2-1.6,2.9-0.9l2.2,1.5l2,4.8l3.8,3.6c0.5,0.5,0.5,1.3,0,1.8c-0.5,0.5-1.3,0.5-1.8,0
						l-4.8-4l-0.6-2l-1.7,3.7l4.2,5.4c0.6,0.8,0.4,1.9,0.3,2.3l-2.9,7.3c-0.3,0.8-1.2,1.1-2,0.8c-0.8-0.3-1.2-1.2-0.8-2l2.3-6
						c0.2-0.4-0.1-1.1-0.4-1.4l-5.2-6.1c-0.8-0.8-0.9-2-0.3-3.1L76.7,33.7"/>
				</g>
				<g>
					<circle class="st9" cx="104.7" cy="30.5" r="2.6"/>
					<path class="st9" d="M109,33.7c-0.6-1-2-1.6-2.9-0.9l-2.2,1.5l-2,4.8l-3.8,3.6c-0.5,0.5-0.5,1.3,0,1.8c0.5,0.5,1.3,0.5,1.8,0
						l4.8-4l0.6-2l1.7,3.7l-4.2,5.4c-0.6,0.8-0.4,1.9-0.3,2.3l2.9,7.3c0.3,0.8,1.2,1.1,2,0.8c0.8-0.3,1.1-1.2,0.8-2l-2.3-6
						c-0.2-0.4,0.1-1.1,0.4-1.4l5.2-6.1c0.8-0.8,0.9-2,0.3-3.1L109,33.7"/>
				</g>
				<text transform="matrix(1 0 0 1.0001 10.2565 62.1318)"><tspan x="0" y="0" class="st6 st10 st11">≥</tspan><tspan x="3.3" y="0" class="st6 st12 st11"> 25kg (</tspan><tspan x="22.3" y="0" class="st6 st10 st11">≥</tspan><tspan x="25.5" y="0" class="st6 st12 st11"> 56 lbs.)</tspan></text>
				<line class="st13" x1="16.5" y1="38.4" x2="16.5" y2="45.1"/>
				<line class="st13" x1="32.4" y1="54.1" x2="51.1" y2="43.4"/>
				<polyline class="st13" points="15.9,38 34.5,27.3 51,36.8 32.4,47.6 				"/>
				<polyline class="st13" points="15.9,44.7 15.9,38 32.4,47.6 32.4,54.1 				"/>
				<line class="st13" x1="21.2" y1="47.6" x2="16.5" y2="44.9"/>
				<line class="st13" x1="16.3" y1="45" x2="16.3" y2="38.5"/>
				<line class="st13" x1="31.4" y1="50.3" x2="15.9" y2="41.3"/>
				<line class="st13" x1="26.5" y1="50.7" x2="21.8" y2="48"/>
				<line class="st13" x1="31.8" y1="53.8" x2="27.1" y2="51.1"/>
				<line class="st13" x1="31.8" y1="53.8" x2="31.8" y2="47.2"/>
				<line class="st13" x1="32.4" y1="54.2" x2="15.9" y2="44.6"/>
				<polyline class="st14" points="32.4,54.1 32.4,47.6 51,36.8 51,43.4 				"/>
			</g>
		</g>
	</g>
</g>
</svg>
