<?xml version="1.0" encoding="utf-8"?>
<!-- Generator: Adobe Illustrator 19.1.0, SVG Export Plug-In . SVG Version: 6.00 Build 0)  -->
<svg version="1.1" xmlns="http://www.w3.org/2000/svg" xmlns:xlink="http://www.w3.org/1999/xlink" x="0px" y="0px" width="284.7px"
	 height="227.1px" viewBox="0 0 284.7 227.1" style="enable-background:new 0 0 284.7 227.1;" xml:space="preserve">
<style type="text/css">
	.st0{fill:none;stroke:#000000;stroke-width:0.4507;stroke-linecap:round;stroke-linejoin:round;stroke-miterlimit:10;}
	.st1{fill:#FFFFFF;}
	.st2{fill:#D1D3D4;}
	.st3{fill:none;stroke:#000000;stroke-width:0.5261;stroke-linecap:round;stroke-linejoin:round;stroke-miterlimit:10;}
	.st4{fill:#FFFFFF;stroke:#000000;stroke-width:0.5261;stroke-linecap:round;stroke-linejoin:round;stroke-miterlimit:10;}
	.st5{fill:none;stroke:#000000;stroke-width:0.5261;stroke-linecap:round;stroke-linejoin:round;}
	.st6{stroke:#000000;stroke-width:0.3288;stroke-linecap:round;stroke-linejoin:round;}
	.st7{fill:none;stroke:#000000;stroke-width:0.4126;stroke-linecap:round;stroke-linejoin:round;stroke-miterlimit:10;}
	.st8{fill:#EC008C;stroke:#000000;stroke-width:0.3288;stroke-linecap:round;stroke-linejoin:round;}
	.st9{clip-path:url(#SVGID_2_);}
	.st10{fill:none;stroke:#000000;stroke-width:0.6576;stroke-linecap:round;stroke-linejoin:round;stroke-miterlimit:10;}
	.st11{fill:none;stroke:#000000;stroke-width:0.6576;stroke-miterlimit:10;}
	.st12{fill:none;stroke:#000000;stroke-width:0.6332;stroke-linecap:round;stroke-linejoin:round;stroke-miterlimit:10;}
	.st13{fill:#2E2A25;}
	.st14{fill:none;stroke:#FFFFFF;stroke-width:2.6305;stroke-linecap:round;stroke-linejoin:round;}
	.st15{fill:#FFFFFF;stroke:#000000;stroke-width:0.6576;stroke-linecap:round;stroke-linejoin:round;}
	.st16{clip-path:url(#SVGID_4_);}
	.st17{fill:#E6E6E6;}
	.st18{fill:none;stroke:#000000;stroke-width:0.4763;stroke-linecap:round;stroke-linejoin:round;stroke-miterlimit:10;}
	.st19{fill:none;stroke:#000000;stroke-width:0.4763;stroke-linecap:round;stroke-linejoin:round;}
	.st20{fill:none;stroke:#000000;stroke-width:1.1908;stroke-linecap:round;stroke-linejoin:round;}
	.st21{fill:#FFFFFF;stroke:#FFFFFF;stroke-width:0.2961;}
	.st22{fill:#FFFFFF;stroke:#FFFFFF;}
	.st23{fill:none;stroke:#000000;stroke-width:0.4;stroke-linecap:round;stroke-linejoin:round;stroke-miterlimit:10;}
	.st24{fill:none;stroke:#000000;stroke-width:0.5;stroke-linecap:round;stroke-linejoin:round;stroke-miterlimit:10;}
</style>
<g id="SIMPLE_BASE">
	<g>
		<g>
			<polyline class="st0" points="107.7,57.6 100.9,57 87.5,80.4 92.4,80.7 93,80.4 94.6,80.5 			"/>
			<polygon class="st0" points="95.3,78.7 108.8,55.4 124.7,56.9 111.7,79.5 100.6,78.7 100.1,79.1 			"/>
			<polygon class="st0" points="113.4,81.6 110.1,81.4 109.9,86.5 113.2,86.7 			"/>
			<polygon class="st0" points="117.3,81.6 114.8,81.3 114.6,86.4 117.1,86.6 			"/>
			<line class="st0" x1="114.6" y1="86.4" x2="113.6" y2="86.7"/>
			<polyline class="st0" points="117.3,84.8 130.9,61.8 131.3,56 116.5,81.3 			"/>
			<line class="st0" x1="125.2" y1="60.3" x2="128.4" y2="60.5"/>
			<line class="st0" x1="115.8" y1="76.4" x2="119.1" y2="76.6"/>
			<line class="st0" x1="109" y1="80.9" x2="110.1" y2="81.4"/>
			<polyline class="st0" points="103,79.9 114.9,80.7 113.4,81.6 			"/>
			<polyline class="st0" points="95,80.2 95,79.5 99.9,79.8 100.2,79.8 			"/>
			<line class="st0" x1="127.4" y1="56.2" x2="113.3" y2="80.6"/>
			<path class="st0" d="M115.6,55.9"/>
			<path d="M100.6,80.1l1.8,0.1c0,0,0.5-0.8-0.4-0.9C101.1,79.2,100.7,79.7,100.6,80.1z"/>
			<path d="M117,54.9l-1.8-0.2c0,0-0.5,0.8,0.4,0.9S116.9,55.3,117,54.9z"/>
			<path d="M92.7,81.8l1.8,0.1c0,0,0.5-0.8-0.4-0.9C93.3,80.9,92.8,81.5,92.7,81.8z"/>
			<polygon class="st0" points="101,82.7 105.2,83 105.2,85.9 100.9,85.6 			"/>
			<polyline class="st0" points="105.2,83 106.6,83.2 106.6,86 105.1,85.9 			"/>
			<polyline class="st0" points="101,82.7 92.7,82.1 92.7,82.6 92.7,83.2 94.1,83.2 94.3,83.5 96.5,83.7 96.9,84.1 97.5,84 
				97.5,84.6 100.8,84.8 			"/>
			<polyline class="st0" points="106.6,83.2 107.8,82.9 107.7,85.7 106.7,86.1 			"/>
			<line class="st0" x1="107.8" y1="82.9" x2="109.8" y2="83"/>
			<line class="st0" x1="107.7" y1="85.8" x2="109.7" y2="86"/>
			<polyline class="st0" points="112.2,80.3 125.7,57.3 124.9,56.8 			"/>
			<polyline class="st0" points="87.5,80.4 87.4,81.1 86.9,81.7 86.9,82.5 92.5,82.9 			"/>
			<line class="st0" x1="108.6" y1="82.2" x2="94.7" y2="81.2"/>
			<polyline class="st0" points="131.1,61.3 132.1,61.3 132.1,55.9 115.3,54.7 			"/>
		</g>
		<path class="st1" d="M87.7,84c0,0,0.3-2.9,3.8-3.6c0,0,4.4-0.7,4,4.6l-8,0.2L87.7,84z"/>
	</g>
	<path class="st2" d="M64,119.6l-0.1-7.1l2.2-3.2v-1L76.6,91l-0.5-1.6l1.1-2.3l0.5-0.3l7.2,1.2l1.6-1.9l1-0.2c0,0,0-4.8,4.4-4.9
		c0,0,4.7-0.4,2.6,6.4l1.5-0.1l0.2,2.2l6.7,1.2l0.8,0.9l-0.8,0.8l-7.8,13.4l-0.3,2.1l-4,6.5v4.9l-1.9,2.9l-12.4-1.7l-0.4,1l-9.5-1.8
		l-1.1,0.1l-0.9,0.1L64,119.6z"/>
	<g>
		<g>
			<g>
				<path class="st3" d="M44.2,138.4l-0.1-2.6c0-0.1,0.1-0.2,0.2-0.2c0.3-0.3,0.8-0.4,0.8-0.4l2.1,0.3c0.7,0.2,0.8,1.2,0.8,1.2
					l0.1,1.9c0.2,0,0.5-0.3,0.5-0.3s3.6-6.4,3.8-6.7s0.5-1.8,0.5-1.8s0.1-1.2,0-1.8c-0.1-0.6-1.1-1-1.1-1s-1.2-0.2-1.7-0.3
					c-0.5-0.1-0.8,0.2-0.8,0.2l-4.9,8.3"/>
				<line class="st3" x1="48.2" y1="136.4" x2="52.9" y2="128.1"/>
				<polyline class="st3" points="52.6,127.3 86.2,132 86.2,131.3 				"/>
				<line class="st3" x1="45.7" y1="135.9" x2="29" y2="165.4"/>
				<line class="st3" x1="47.5" y1="136.5" x2="31" y2="165.6"/>
				<line class="st3" x1="37.6" y1="156.3" x2="37.9" y2="167.5"/>
				<path class="st3" d="M21.8,170.9l2.4-4.5c0,0,0.7-1,2.3-0.9c1.6,0,10.4-0.7,18.5,6.9c8,7.6,6.4,16.4,6.4,16.4s-1.5,5.3-3.4,7.7"
					/>
				<path class="st3" d="M21.5,178.9l-0.2-6.4c0,0-0.2-1.9,2.1-2.2s8.8-0.4,16,4.3c7.2,4.8,11.2,13.6,8.9,21c0,0-1.6,6-9.7,8.6
					l-5.7-0.3"/>
				<path class="st3" d="M22.8,199.9l0,1.6c0,0,0,1.2,1.6,1.4c1.5,0.2,6.3,0.9,6.3,0.9s4.2,0.5,7.8-1c3.6-1.5,6.4-3.3,8.1-8.3
					c1.7-4.9-0.3-14-9.5-19.4c0,0-3.3-1.9-5.1-2.1c0,0-6.5-1.1-7.2,4.8l-0.1,6.2"/>
				<line class="st3" x1="27.8" y1="186.1" x2="34.7" y2="173.9"/>
				<path class="st3" d="M24.5,184.6c0,0,1.7-1.1,2.9,0.8l0.7,2.8l3.3-5.8c0,0-0.1-2.9-0.1-3.5c0-0.6-0.4-1.2-0.4-1.2
					c-1.1-1.4-2.3-0.4-2.3-0.4l-4.5,8"/>
				<path class="st3" d="M23.9,185.6l1,0.2c0,0,0.6-1.2,1.5-0.3l0.6,2.3c0,0-1,0.9-1.5,0.9c0,0,1.7,1.3,2.6-0.2"/>
				<line class="st3" x1="31" y1="183.2" x2="36" y2="174.6"/>
				<path class="st3" d="M23.3,181.4l0.4-2.2c0,0-0.2-1.5-1.9-0.7c0,0-1.9,1.7-2.5,6.6c0,0-0.3,2.1-0.4,3.2s0.2,10,0.2,10
					s0.6,4.5,3.2,2.2"/>
				<path class="st3" d="M23.6,179.4c0,0-0.8,0.2-1.6,2.6c-0.8,2.3-1.1,6.2-1.1,8c0,1.8-0.2,10,1,10.2c0,0,1.6,0.4,2.9-7.3l0.7,5
					l0.6-1c0,0,0-3.8,1.1-5.7c0.1-0.2,0.3-0.4,0.4-0.5c0,0,1-0.4,0.9,1.9l0.7-0.9l0.2-3.6l7.4-12.9"/>
				<path class="st3" d="M28.4,192.5l-0.9,0c0,0-0.1-1.1-0.3-1.4"/>
				<line class="st3" x1="22.7" y1="201.4" x2="25.5" y2="197.6"/>
				<path class="st3" d="M25.8,197.6c0,0,0.8,0.6,1.2,0.6s7.9,0.9,7.9,0.9s7.1,0.3,11.3-4.4"/>
				<path class="st3" d="M39.5,168.3l12.2-21.6l0.7-0.2l0.7,0.1c0,0,0.5,0.5,0.3,2.4l-4.9,8.5c0,0-0.5,1-1.9,0.4l-6.1,10.9"/>
				<path class="st3" d="M48.5,157.2c0,0-0.3-2.4,0.6-3.8c0.9-1.4,3.9-6.9,3.9-6.9"/>
				<line class="st3" x1="199" y1="170.3" x2="53.6" y2="149.4"/>
				<path class="st3" d="M41.9,163.6c0,0,0.2-2.1,0.2-3.3l0.4-0.8l-0.2-11.6"/>
				<polyline class="st3" points="42.6,157 44.6,153.5 44.4,144.1 				"/>
				<line class="st3" x1="47.5" y1="138.5" x2="32.1" y2="165.7"/>
				<line class="st3" x1="45.8" y1="141.8" x2="46.1" y2="153.2"/>
				<path class="st3" d="M44.7,153.5c0,0,1.2,0.4,1.4-0.3l1.1-1.9L47,139.5"/>
				<line class="st3" x1="47.3" y1="147.6" x2="49.2" y2="147.9"/>
				<path class="st3" d="M47.1,143.3l2.4,0.3l0.2,0.2l-0.4,0.5c0,0-0.3,0.6-0.2,1.2c0.1,0.6,0.1,2.9,0.1,2.9s0,0.5,0.2,0.5
					c0.2,0,0.9,0.1,0.9,0.1"/>
				<path class="st3" d="M48.1,138.5l0,2.8v1.3l2,0.2c0,0,0.7,0.4,0.7,0.9s-0.5,1-0.5,1s-0.2,0.7-0.2,1.1c0.1,0.4,0.1,3.1,0.1,3.1"
					/>
				<path class="st3" d="M51.4,133.4l1.7,1.7c0,0,0.5,0.6,0.5,1.7l0.2,0.2v1.7l-0.2,0.3v0.9l-1.3,2.4l-1.6,1.2"/>
				<path class="st3" d="M50.4,135.1l1.5,1.6c0,0,0.6,0.6,0.6,1.4s0.1,3.6,0.1,3.6"/>
				<line class="st3" x1="51.4" y1="143.1" x2="51.4" y2="146.5"/>
				<polygon class="st3" points="55.5,134.1 68.6,135.9 69.3,146.1 55.9,144.2 				"/>
				<polygon class="st3" points="84.9,133.2 85.6,148.7 71.1,146.6 70.4,131.2 				"/>
				<polygon class="st3" points="97.6,144.2 120.9,147.4 120.5,140.7 97.4,137.3 				"/>
				<line class="st3" x1="109" y1="139.2" x2="109.2" y2="145.8"/>
				<path class="st3" d="M131.5,142.3c0,0-0.9-0.3-0.9,0.7l0.4,5.9l23.1,3.4l-0.2-6.4c0,0-0.2-0.5-0.7-0.5
					C152.7,145.4,131.5,142.3,131.5,142.3z"/>
				<line class="st3" x1="142.6" y1="150.4" x2="142.3" y2="143.9"/>
				<path class="st3" d="M158.6,142.2l0,16.4c0,0-21.6-3.3-22.3-3.1s-2.1-0.5-2.1-0.5l-1.6-1.1l-0.9-1.1c0-1.6-0.9-1.8-0.9-1.8
					s-7.5-1.1-8.1-1.2s-1.6,0-1.6,0.9c0,0.9-0.6,1.2-0.6,1.2l-2.1,0.8l-22.5-3.3c-1.9-0.1-1.6-1.8-1.6-1.8l-0.4-13.7
					c0,0,0.2-2.1-1.9-2.1"/>
				<line class="st3" x1="196.9" y1="157.9" x2="197.1" y2="165.8"/>
				<path class="st3" d="M204.3,158.8l-15.7-2.2c0,0-0.8-0.3-0.7,0.8c0.1,1.1,0.3,6.4,0.3,6.4s-0.1,1,0.8,0.9
					c0.9-0.1,12.3,1.9,12.3,1.9"/>
				<path class="st3" d="M122.8,156.3l0.9-0.9l4.7,0.8l1,0.9c0,0,1.1,1.2-0.4,1.6l-5.6-0.9C123.5,157.9,122.8,157,122.8,156.3z"/>
				<path class="st3" d="M205.8,158.8l-20.5,36.8l0.5,29.3c0,0-0.3,1.6-1.9,1.7c-1.6,0.2-4.1,0.4-7.3-0.4
					c-3.2-0.8-17.4-5.1-18.3-20.7c0,0-1.4-11.1,14.9-17.6c0,0,3.7-0.9,7.6-0.2c3.9,0.8,4.7,0.8,4.7,0.8s1.8,0,2.4,2l0.7,29.8
					l-2.8,4.9"/>
				<path class="st3" d="M179.3,223.4c-4.2,2.5-11.2-2.1-15.1-6.5c-3.9-4.4-5.7-13.9-1-19c0.2-0.2,0.4-0.4,0.5-0.6
					c4.7-4.5,12.5-4.2,12.5-4.2s5.7,0.9,6.7,0.9c1,0.1,1.3,1.5,1.3,1.5l0.4,21.4c0,0-0.5,3.6-1.1,5c-0.5,1.4-1,2.5-2.2,1.1
					c-1.2-1.4-0.5-13.7-0.5-13.7s1.4-7.2,3.1-6.1l-0.2-0.5c0,0-1.2-1.6-2.4-0.4c-1.2,1.2-2.6,7.1-2.6,9.1c0,1.9,0.2,10.2,0.2,10.2
					s0.5,4.7,3.3,2.6"/>
				<path class="st3" d="M179.1,219.3c0,0-6.5-0.4-12.2-7.4s-3.1-14.6-3.1-14.6"/>
				<path class="st3" d="M204.2,161.5c0,0-0.4-2.7,1-2.7s2.6,0.5,2.6,0.5l-19.7,35"/>
				<line class="st3" x1="209.5" y1="150.2" x2="205.1" y2="158.4"/>
				<path class="st3" d="M206.6,181.4c0,0,1.4,0.6,1.9-0.6l-0.4-20.8l4.9-8.2"/>
				<line class="st3" x1="188.6" y1="213.3" x2="208.5" y2="178.3"/>
				<polyline class="st3" points="208.5,180.8 213.1,172.7 213.5,172 				"/>
				<path class="st3" d="M213.1,172.7l1.7,0.2c0,0,0.9,0,1-0.9l-0.6-21.7"/>
				<polyline class="st3" points="215.9,172.4 284.4,52.3 284.1,45.2 283.4,44.5 280.3,42.2 280.3,40.1 				"/>
				<path class="st3" d="M272.6,55.6c-0.5,0.3-0.5,2-0.5,3.2s0.8,0.8,0.8,0.8s3.3-5.6,3.6-6.7c0.3-1.2,0.8-0.3,0.8-0.3l0,2.6l0,2.6
					c0.6-0.2,0.8-1.7,0.8-1.7l6-10.7"/>
				<path class="st3" d="M283.6,44.2"/>
				<path class="st3" d="M277.3,55.1"/>
				<path class="st3" d="M202.7,172.4l0.2,11.2l3.7-6.4c0,0,0.2-0.7,0.2-1.2c0-0.5-0.2-9.8-0.2-9.8s0-0.7-0.5,0.1
					C205.6,167.1,202.7,172.4,202.7,172.4z"/>
				<path class="st3" d="M196.3,183.1l-6.4,11.4c0,0-0.6,1-0.5,4.2s0.1,7.5,0.1,7.5s0,1.5,0.8,0.7c0.8-0.8,6.3-11.1,6.3-11.1
					s0.7-2.1,0.7-3.1c0-1-0.2-9-0.2-9S197.2,182,196.3,183.1z"/>
				
					<ellipse transform="matrix(0.9937 0.1122 -0.1122 0.9937 21.3928 -21.2592)" class="st3" cx="199.6" cy="179.5" rx="0.8" ry="2.6"/>
				
					<ellipse transform="matrix(0.9937 0.1122 -0.1122 0.9937 22.3423 -21.232)" class="st3" cx="199.8" cy="187.9" rx="0.8" ry="2.6"/>
			</g>
			<polygon class="st3" points="163.5,160.5 163.3,154.2 186,157.7 186.1,164 			"/>
			<line class="st3" x1="174.9" y1="162.1" x2="174.7" y2="155.9"/>
			<path class="st3" d="M213.8,171.1l-0.4-18.7c0,0-0.3-1.9-2.2-2c-1.9-0.1-49.7-7.3-49.7-7.3s0-1-1.4-1l-1-0.2l-1.2,0.9l-0.8-0.4
				l-63.6-9.1"/>
			<path class="st3" d="M49.9,136.7c0,0,1.4,3.3,0.3,6.2"/>
			<line class="st3" x1="27.6" y1="173.6" x2="27.8" y2="178.6"/>
			<line class="st3" x1="24.4" y1="186" x2="24.5" y2="193"/>
			<ellipse class="st3" cx="96.6" cy="127.7" rx="3.6" ry="1.8"/>
			<path class="st3" d="M215.1,150.3l4.5-7.4l0.9,2.8c0,0,1.1-0.1,0.9-2.9c-0.2-2.8,0.3-6,0.9-6.4c0.6-0.4,0.7-2.9,0.7-2.9l2.5-4.3
				l0.3,3.3l20.4-35.6l-0.1-4.7l8.8-15.6l0.4,6.1c1,0.4,1,1,1,1s-26.8,48.6-28.3,50.2c-1.9,2-2.5,7.2-2.3,7.1c0,0-1.3,14.9-3.4,17.7
				"/>
			<line class="st3" x1="215.8" y1="170" x2="222.4" y2="158.8"/>
			<path class="st3" d="M255.9,165.4"/>
			<line class="st3" x1="170.6" y1="135.9" x2="89.3" y2="124.1"/>
			<path class="st3" d="M178.9,132.2"/>
			<line class="st3" x1="214.1" y1="146" x2="169.6" y2="139.1"/>
			<polyline class="st3" points="162,142.7 162.3,141.7 213.2,149.2 			"/>
			<path class="st3" d="M170.8,135.8l-2.2,4.2c0,0-0.4,1.3-2.4,1c-2-0.3-3.9-0.5-3.9-0.5l-0.7,1l-4.3-0.6l-0.4,0.2L51.2,125.8v0.8"
				/>
			<polyline class="st3" points="137,130.9 142.4,121.6 165,124.8 165.6,125.3 165.4,125.5 160.4,134.2 			"/>
			<polyline class="st3" points="103.7,125.8 109,116.7 131.5,119.9 126.3,129.5 			"/>
			<polyline class="st3" points="74.4,125 77.2,120.1 90.5,122.1 87.4,127.2 53.1,122.1 51.2,125.8 			"/>
			<polygon class="st3" points="87.1,115.8 88.6,116.1 90.2,113 66.1,109.3 64.4,112.4 65.9,112.7 66.3,112.2 87.3,115.4 			"/>
			<polyline class="st3" points="89.5,121.8 91.2,118.8 91.1,113.7 90.8,113.4 90.8,111.5 77.3,109.5 77.5,109.1 74.2,108.6 
				73.8,109 66.7,108 66.6,109.1 			"/>
			<line class="st3" x1="73.8" y1="109" x2="73.9" y2="110.3"/>
			<line class="st3" x1="77.3" y1="111" x2="77.3" y2="109.5"/>
			<polyline class="st3" points="66.7,108 78,88.4 84.9,89.4 			"/>
			<line class="st3" x1="91.3" y1="114.1" x2="95.2" y2="107.4"/>
			<polyline class="st3" points="95.4,112.1 95.4,114.3 108.7,116.3 			"/>
			<g>
				<polyline class="st3" points="126.8,119.1 126.9,110.7 137.2,93.2 				"/>
				<path class="st3" d="M95.3,112.2l-0.1-6.3l7.7-13.7l6.3,1.1l0.2,0.1l2.1-3.7l25.6,3.6c0,2.1,0.2,8.5,0.2,8.5l-9.8,17.3"/>
			</g>
			<g>
				<path class="st3" d="M173.8,108.8"/>
				<path class="st3" d="M164.4,119.2"/>
				<path class="st3" d="M162.2,118.9"/>
				<path class="st3" d="M159.9,118.5"/>
				<path class="st3" d="M157.7,118.2"/>
				<path class="st3" d="M155.4,117.8"/>
				<path class="st3" d="M153.2,117.5"/>
				<path class="st3" d="M151,117.2"/>
				<path class="st3" d="M148.7,116.8"/>
				<path class="st3" d="M146.5,116.6"/>
				<path class="st3" d="M144.1,116.2"/>
				<path class="st3" d="M141.9,116"/>
			</g>
			<g>
				<path class="st3" d="M183.6,36"/>
				<path class="st3" d="M181.4,35.7"/>
			</g>
			<g>
			</g>
			<polyline class="st3" points="220.2,139.9 175.1,133.4 171.5,139.5 			"/>
			<line class="st3" x1="194.5" y1="143" x2="198.3" y2="136.8"/>
			<polyline class="st3" points="195.7,143.1 197.5,140.4 198.1,140.5 214.7,142.9 212.9,145.7 			"/>
			<line class="st3" x1="197.9" y1="137.2" x2="198.1" y2="140.5"/>
			<line class="st3" x1="198.2" y1="138.8" x2="220.1" y2="142.1"/>
			<line class="st3" x1="61.5" y1="120.3" x2="64.6" y2="114.7"/>
			<polyline class="st3" points="64.4,112.4 64.5,119.3 66.3,119.7 66.7,119.2 76.6,120.7 			"/>
			<line class="st3" x1="66" y1="112.5" x2="66.3" y2="119.6"/>
			<line class="st3" x1="87.1" y1="115.5" x2="87.3" y2="121.4"/>
			<line class="st3" x1="88.8" y1="115.9" x2="88.9" y2="121.8"/>
			<path class="st3" d="M48.4,127.8v-2.2l2.9-4.8c0,0,0.2-0.4,1.3-0.1s0.6,1.5,0.6,1.5l-1.9,3c0,0-0.6,1-1.6,0.7
				c-0.5-0.1-0.3,1-0.3,1"/>
			<path class="st3" d="M52.2,120.4l2.5-4.5l1,0.1l0.6,3.7c0,0,1,1.4,0.9-2.5c-0.1-3.9,1.1-7.3,1.1-7.3l0.6-2.7c0,0,0.2-1.1,0.7-1.4
				s1.2-2.1,1.2-2.1s0.7-1.3,1,1.3s-0.5,15.6-0.5,15.6"/>
			<path class="st3" d="M131.5,119.9c0,0,0.3,0.1,0.6,0.5l0.3,4.1c0,0-0.9,1.4,0,1.7c0,0,0.9-0.5,1,0.6l-1.9,3.3"/>
			<ellipse class="st4" cx="160.6" cy="137.1" rx="3.9" ry="1.7"/>
			<path class="st3" d="M229.1,104.7l-0.2-7c0,0,0.1-1.7,0.3-1.7"/>
			<path class="st3" d="M239,99l-10-1.3l-9.5-1.8l0,0.8c0,0-3.1,0.3-4.3,3.4l13,2.3c0,0,0.7,0.2,0.7,0.9"/>
			<polyline class="st3" points="221.6,94.7 229,96.1 239.1,97.4 			"/>
			<path class="st3" d="M221,96.5c0,0-0.1-1,1.2-3c1.3-2,26.3-47.2,26.3-47.2l14.5,2.3l1-1.7l0.7,0.2l-1.1,1.6l2.9,0.5l-8.4,14.6
				l-2.8-0.3l-6.8,12l2.5,0.4L239.5,97c0,0-0.6,0.7-0.6,2.6c0,2,0.3,8.5,0.3,8.5"/>
			<polyline class="st3" points="239.9,107.2 239.8,98.6 242.7,93.4 243.1,101.9 			"/>
			<line class="st3" x1="262.8" y1="72.9" x2="272.1" y2="56.3"/>
			<polygon class="st3" points="261.7,71.6 276.4,45.7 277,45.4 283.2,34.3 282.9,28 277.8,37.3 277.4,37 261.9,64.3 			"/>
			<polyline class="st3" points="245,98.5 244.6,90.5 243.5,90.2 			"/>
			<polyline class="st3" points="249.6,75.6 255.7,65.1 255.5,63.8 			"/>
			<polyline class="st3" points="251.2,75.8 256.5,66.2 255.2,66 			"/>
			<line class="st3" x1="256.7" y1="68.3" x2="256.5" y2="66.2"/>
			<polyline class="st3" points="256,65.1 257.6,65.7 257.6,67.2 			"/>
			<line class="st3" x1="257.4" y1="67.3" x2="252.1" y2="76.7"/>
			<path class="st3" d="M253.9,76.4l4.5-8.1c0,0,0.7-1.2,0.8,1c0.1,2.2,0,2.7,0,2.7l0.3,0.8l-4.3,7.2"/>
			<path class="st3" d="M255.6,81.4l4.5-7.8c0,0,0.9-2.1-0.7-2.1"/>
			<path class="st3" d="M218.5,94.5l19.1-33c0,0,1.3-0.1,1.6-1.7l1.6-2.4c0,0,0.3-2.6,1.1-3.8"/>
			<path class="st3" d="M242.7,56.8c0,0-2.3-5.8,3-8.4"/>
			<polyline class="st3" points="247.6,45.9 251.4,38.8 262.7,40.6 263.9,41 266.1,41.3 266.9,41.7 267.7,40.5 251.5,38.1 
				252.9,35.9 263.7,37.3 272.6,39 271.3,41.3 267.9,40.5 			"/>
			<line class="st3" x1="258.6" y1="47.7" x2="262.8" y2="40.2"/>
			<line class="st3" x1="263.9" y1="41.4" x2="259.9" y2="47.9"/>
			<line class="st3" x1="262" y1="48.5" x2="266.1" y2="41.3"/>
			<path class="st3" d="M272.1,38.8l0.3-0.8l-22.2-3.4l-0.9,1.5c0,0-0.9,1.6,2.5,1.7"/>
			<path class="st3" d="M267.2,36.9c0,0-6.1-8.4-20.1-9.7c-17.6-1.6-17.1,10.4-17.1,10.4s0.6,1.3,3.3,1.4c2.3,0.1,2.8-1.8,2.8-1.8
				s0.4-4.4,9.3-3.8c0,0,4.1,0.2,6.5,1.5"/>
			<ellipse class="st4" cx="200.6" cy="56.7" rx="3.5" ry="1.7"/>
			<polygon class="st3" points="139.9,13.5 136.2,20.5 135.2,20.4 132.4,25.1 123,23.8 125.6,18.8 124.8,18.6 128.5,11.7 
				129.7,11.5 139,12.7 			"/>
			<polygon class="st3" points="139.9,13.5 140.9,13.1 150.7,14.5 151.3,14.9 147.2,22 146.3,22 143.7,26.6 134.2,25.3 136.8,20.5 
				136.2,20.5 			"/>
			<polyline class="st3" points="151.3,14.9 152.5,14.9 161.8,16.2 162.5,16.8 158.4,23.8 157.6,23.5 154.9,28.2 145.6,26.9 
				148.2,22.2 147.5,21.9 			"/>
			<polygon class="st3" points="164.7,15.6 157,28.8 165.4,30.1 173.1,16.7 			"/>
			<polyline class="st3" points="187.2,20.1 176.9,18.5 176.1,18.8 172.3,25.7 173.1,25.9 170.2,30.6 179.9,32.1 182.5,27.2 
				183.1,27.5 			"/>
			<polyline class="st3" points="191.6,30.5 198.1,19.4 188.7,18.1 181.2,31.1 188.5,32.2 			"/>
			<polyline class="st3" points="198.2,31.3 199,29.8 198.2,29.6 201.9,22.6 202.7,22.1 212.8,23.7 213.3,24.3 209.3,31.2 208.3,31 
				207.2,32.8 			"/>
			<polyline class="st3" points="213.9,23.9 223.9,25.3 224.5,25.8 220.7,33 219.7,32.7 217,37.4 217,38.3 			"/>
			<polyline class="st3" points="183.1,41.6 181.3,41.4 181.2,31.1 			"/>
			<path class="st3" d="M170.2,30.6c0,0-0.4,1.8-0.3,3.9c0.1,2.1,0.3,5.3,0.3,5.3l9.1,1l1.9-2.8"/>
			<path class="st3" d="M123,23.8c0,0-0.3,0.8-0.3,2.9s0,5.8,0,5.8l9.6,1.3l1.7-2.5"/>
			<path class="st3" d="M134.2,25.3c0,0-0.3,1.3-0.3,2.8c0,1.6,0.1,6.1,0.1,6.1l2.6,0.3"/>
			<path class="st3" d="M143.7,26.6c0,0,0,3-0.1,4"/>
			<polyline class="st3" points="145.6,26.9 145,28.9 145.2,31 			"/>
			<polyline class="st3" points="155.1,27.9 154.6,30 154.6,32.4 			"/>
			<polyline class="st3" points="132.4,25.1 132.1,26.6 132.3,33.4 			"/>
			<line class="st3" x1="157" y1="28.8" x2="157.1" y2="32.6"/>
			<polyline class="st3" points="179.9,32.1 179.4,33.7 179.7,40.5 			"/>
			<polyline class="st3" points="173.4,17 173.1,20.2 173,23.6 			"/>
			<line class="st3" x1="198.1" y1="19.4" x2="198.2" y2="29.6"/>
			<polyline class="st3" points="224.5,25.8 225.5,25.7 235.3,27 235.9,27.5 235.8,28.5 			"/>
			<polyline class="st3" points="220.7,33 221.5,33 218.8,37.6 228.6,39.1 			"/>
			<g>
				<path class="st3" d="M137.3,46.7l-0.9,1.4v4.4c0,0,0.2,0.8-0.9,0.6c-1.1-0.2-6.4-0.9-6.4-0.9l0.1,2.2l6.9,0.9"/>
				<path class="st3" d="M138,52"/>
			</g>
			<g>
				<line class="st3" x1="162.2" y1="48.5" x2="167.7" y2="39.2"/>
			</g>
			<line class="st3" x1="135.6" y1="40.9" x2="129.2" y2="52"/>
			<ellipse class="st4" cx="148.1" cy="49.7" rx="3.9" ry="2"/>
			<ellipse class="st3" cx="148.1" cy="49.3" rx="3.4" ry="1.7"/>
			<line class="st4" x1="140.6" y1="52.4" x2="140.9" y2="51.7"/>
			<path class="st4" d="M205.6,61.3c0,0-11.5,20.8-12,22c-0.4,1.2-1.9,0.9-1.9,0.9L181,82.5c0,0-2.1,4.1-2.8,5.1s-1.9,0.6-1.9,0.6
				l-37.2-5.3l-5-0.7l3.3-6l-12-1.7l13.1-23.3l11.8,1.8l3.4-5.6l43.4,6.9l-3,5.2L205.6,61.3z"/>
			<g>
				<path class="st3" d="M220.7,53.9v-4.7c0,0-0.1-0.6-0.7-0.5l-0.9,1.4v0.7"/>
			</g>
			<g>
				<path class="st3" d="M223.8,54.4v-4.7c0,0-0.1-0.6-0.7-0.5l-0.9,1.4v0.7"/>
			</g>
			<g>
				<path class="st3" d="M226.9,54.8v-4.7c0,0-0.1-0.6-0.7-0.5l-0.9,1.4v0.7"/>
			</g>
			<g>
				<path class="st3" d="M230,55.3v-4.7c0,0-0.1-0.6-0.7-0.5l-0.9,1.4v0.7"/>
			</g>
			<g>
				<path class="st3" d="M233,55.7V51c0,0-0.1-0.6-0.7-0.5l-0.9,1.4v0.7"/>
			</g>
			<g>
				<path class="st3" d="M231.6,58.2v-4.7c0,0-0.1-0.6-0.7-0.5l-0.9,1.4v0.7"/>
			</g>
			<g>
				<path class="st3" d="M230.3,60.5v-4.7c0,0-0.1-0.6-0.7-0.5l-0.9,1.4v0.7"/>
			</g>
			<g>
				<path class="st3" d="M228.9,63.1v-4.7c0,0-0.1-0.6-0.7-0.5l-0.9,1.4V60"/>
			</g>
			<g>
				<path class="st3" d="M227.5,65.5v-4.7c0,0-0.1-0.6-0.7-0.5l-0.9,1.4v0.7"/>
			</g>
			<g>
				<path class="st3" d="M226.1,67.9v-4.7c0,0-0.1-0.6-0.7-0.5l-0.9,1.4v0.7"/>
			</g>
			<g>
				<path class="st3" d="M224.8,70.4v-4.7c0,0-0.1-0.6-0.7-0.5l-0.9,1.4v8.5"/>
				<path class="st3" d="M221.6,69.9v-4.7c0,0-0.1-0.6-0.7-0.5l-0.9,1.4v6.4"/>
				<path class="st3" d="M218.6,69.5v-4.7c0,0-0.1-0.6-0.7-0.5l-0.9,1.4v6.4"/>
				<path class="st3" d="M215.5,69v-4.7c0,0-0.1-0.6-0.7-0.5l-0.9,1.4v6.3"/>
				<path class="st3" d="M212.5,68.6v-4.7c0,0-0.1-0.6-0.7-0.5l-0.9,1.4v6.4"/>
				<g>
					<path class="st3" d="M228.6,57.7V53c0,0-0.1-0.6-0.7-0.5l-0.9,1.4v0.7"/>
				</g>
				<g>
					<path class="st3" d="M227.2,60.1v-4.7c0,0-0.1-0.6-0.7-0.5l-0.9,1.4v0.7"/>
				</g>
				<g>
					<path class="st3" d="M225.8,62.6v-4.7c0,0-0.1-0.6-0.7-0.5l-0.9,1.4v0.7"/>
				</g>
				<g>
					<path class="st3" d="M224.5,65v-4.7c0,0-0.1-0.6-0.7-0.5l-0.9,1.4V62"/>
				</g>
				<g>
					<path class="st3" d="M223.1,67.4v-4.7c0,0-0.1-0.6-0.7-0.5l-0.9,1.4v0.7"/>
				</g>
				<g>
					<path class="st3" d="M225.5,57.2v-4.7c0,0-0.1-0.6-0.7-0.5l-0.9,1.4v0.7"/>
				</g>
				<g>
					<path class="st3" d="M224.2,59.6V55c0,0-0.1-0.6-0.7-0.5l-0.9,1.4v0.7"/>
				</g>
				<g>
					<path class="st3" d="M222.8,62.2v-4.7c0,0-0.1-0.6-0.7-0.5l-0.9,1.4v0.7"/>
				</g>
				<g>
					<path class="st3" d="M221.5,64.6v-4.7c0,0-0.1-0.6-0.7-0.5l-0.9,1.4v0.7"/>
				</g>
				<g>
					<path class="st3" d="M220.1,67v-4.7c0,0-0.1-0.6-0.7-0.5l-0.9,1.4V64"/>
				</g>
				<g>
					<path class="st3" d="M222.5,56.9v-4.7c0,0-0.1-0.6-0.7-0.5l-0.9,1.4v0.7"/>
				</g>
				<g>
					<path class="st3" d="M221.1,59.3v-4.7c0,0-0.1-0.6-0.7-0.5l-0.9,1.4v0.7"/>
				</g>
				<g>
					<path class="st3" d="M219.7,61.8v-4.7c0,0-0.1-0.6-0.7-0.5l-0.9,1.4v0.7"/>
				</g>
				<g>
					<path class="st3" d="M218.4,64.2v-4.7c0,0-0.1-0.6-0.7-0.5l-0.9,1.4v0.7"/>
				</g>
				<g>
					<path class="st3" d="M217,66.6v-4.7c0,0-0.1-0.6-0.7-0.5l-0.9,1.4v0.7"/>
				</g>
				<g>
					<path class="st3" d="M219.4,56.4v-4.7c0,0-0.1-0.6-0.7-0.5l-0.9,1.4v0.7"/>
				</g>
				<g>
					<path class="st3" d="M218,58.8v-4.7c0,0-0.1-0.6-0.7-0.5l-0.9,1.4v0.7"/>
				</g>
				<g>
					<path class="st3" d="M216.6,61.3v-4.7c0,0-0.1-0.6-0.7-0.5l-0.9,1.4v0.7"/>
				</g>
				<g>
					<path class="st3" d="M215.3,63.7V59c0,0-0.1-0.6-0.7-0.5l-0.9,1.4v0.7"/>
				</g>
				<g>
					<path class="st3" d="M213.9,66.1v-4.7c0,0-0.1-0.6-0.7-0.5l-0.9,1.4v0.7"/>
				</g>
			</g>
			<g>
				<path class="st3" d="M236.2,59.3l-0.1-7.8c0,0-0.1-0.6-0.7-0.5l-0.9,1.4v0.7"/>
			</g>
			<g>
				<path class="st3" d="M233.1,55.5v-0.7l0.9-1.4c0.7-0.1,0.7,0.5,0.7,0.5l0.1,7.8l0.3,0.5l1.1-2.9"/>
			</g>
			<g>
				<path class="st3" d="M233.4,64.2l-0.1-7.8c0,0-0.1-0.6-0.7-0.5l-0.9,1.4V58"/>
			</g>
			<g>
				<path class="st3" d="M230.3,60.5v-0.7l0.9-1.4c0.7-0.1,0.7,0.5,0.7,0.5l0.1,7.8l0.3,0.5l1.1-2.4l-0.1-0.5"/>
			</g>
			<g>
				<path class="st3" d="M230.6,69.1l-0.1-7.8c0,0-0.1-0.6-0.7-0.5l-0.9,1.4V63"/>
			</g>
			<g>
				<path class="st3" d="M227.6,65.3v-0.7l0.9-1.4c0.7-0.1,0.7,0.5,0.7,0.5l0.1,7.8c0,0,0.3,0.5,0.5,0.5l1.1-2.5l-0.3-0.4"/>
			</g>
			<g>
				<path class="st3" d="M226.3,74.6l-0.1-7.5l0.9-1.4c0.7-0.1,0.7,0.5,0.7,0.5l0.1,7.8l-0.4,0.6"/>
			</g>
			<g>
				<path class="st3" d="M225.1,78.9l-0.1-7.8c0,0-0.1-0.6-0.7-0.5l-0.9,1.4l0.1,8.5l1.1,0.2l0.8-1.3
					C225.5,79.4,225.1,79.1,225.1,78.9z"/>
			</g>
			<g>
				<path class="st3" d="M220.4,72.6l0-1.1l0.9-1.4c0.7-0.1,0.7,0.5,0.7,0.5l0.1,7.5c0,0-0.1,0.5,0.5,0.7l-0.7,1.3l-1-0.2"/>
			</g>
			<g>
				<path class="st3" d="M218.9,75l0-1.1l0.9-1.4c0.7-0.1,0.7,0.5,0.7,0.5l0.1,7.5c0,0-0.1,0.5,0.5,0.7l-0.7,1.3l-1-0.2"/>
			</g>
			<g>
				<path class="st3" d="M217.5,77.4l0-1.1l0.9-1.4c0.7-0.1,0.7,0.5,0.7,0.5l0.1,7.5c0,0-0.1,0.5,0.5,0.7L219,85l-1-0.2"/>
			</g>
			<g>
				<path class="st3" d="M218.9,74l0-3.8c0,0-0.1-0.6-0.7-0.5l-0.9,1.4l0,1.1"/>
			</g>
			<g>
				<path class="st3" d="M217.5,76.5l0-3.8c0,0-0.1-0.6-0.7-0.5l-0.9,1.4l0,1.1"/>
			</g>
			<g>
				<path class="st3" d="M214.4,75.9l0-3.8c0,0-0.1-0.6-0.7-0.5l-0.9,1.4l0,1.1"/>
			</g>
			<g>
				<path class="st3" d="M211.3,75.6l0-3.8c0,0-0.1-0.6-0.7-0.5l-0.9,1.4l0,1.1"/>
			</g>
			<g>
				<path class="st3" d="M216.1,78.8l0-3.8c0,0-0.1-0.6-0.7-0.5l-0.9,1.4l0,1.1"/>
			</g>
			<g>
				<path class="st3" d="M213,78.4l0-3.8c0,0-0.1-0.6-0.7-0.5l-0.9,1.4l0,1.1"/>
			</g>
			<g>
				<path class="st3" d="M210,78l0-3.8c0,0-0.1-0.6-0.7-0.5l-0.9,1.4l0,1.1"/>
			</g>
			<g>
				<path class="st3" d="M214.7,81.3l0-3.8c0,0-0.1-0.6-0.7-0.5l-0.9,1.4l0,1.1"/>
			</g>
			<g>
				<path class="st3" d="M211.6,80.8l0-3.8c0,0-0.1-0.6-0.7-0.5l-0.9,1.4l0,1.1"/>
			</g>
			<g>
				<path class="st3" d="M208.6,80.4l0-3.8c0,0-0.1-0.6-0.7-0.5l-0.9,1.4l0,1.1"/>
			</g>
			<g>
				<path class="st3" d="M217.8,82.7l0-4.8c0,0-0.1-0.6-0.7-0.5l-0.9,1.4l0,1.1"/>
			</g>
			<g>
				<path class="st3" d="M216.4,85.2l0-4.8c0,0-0.1-0.6-0.7-0.5l-0.9,1.4l0,1.1"/>
			</g>
			<g>
				<path class="st3" d="M213.4,84.8l0-4.8c0,0-0.1-0.6-0.7-0.5l-0.9,1.4l0,1.1"/>
			</g>
			<g>
				<path class="st3" d="M210.3,84.3l0-4.8c0,0-0.1-0.6-0.7-0.5l-0.9,1.4l0,1.1"/>
			</g>
			<g>
				<path class="st3" d="M208.9,86.7l0-4.8c0,0-0.1-0.6-0.7-0.5l-0.9,1.4l0.1,8.3"/>
			</g>
			<g>
				<path class="st3" d="M211.9,87.3l0-4.8c0,0-0.1-0.6-0.7-0.5l-0.9,1.4l0.2,8.3"/>
			</g>
			<g>
				<path class="st3" d="M215,87.7l0-4.8c0,0-0.1-0.6-0.7-0.5l-0.9,1.4l0,8.4"/>
			</g>
			<g>
				<path class="st3" d="M216.6,91.9l-0.2-7.7l0.9-1.4c0.7-0.1,0.7,0.5,0.7,0.5l0.1,7.8l-0.3,0.6"/>
			</g>
			<g>
				<path class="st3" d="M207.2,83.8l0-4.8c0,0-0.1-0.6-0.7-0.5l-0.9,1.4l0,1.1"/>
			</g>
			<g>
				<path class="st3" d="M205.8,86.3l0-4.8c0,0-0.1-0.6-0.7-0.5l-0.9,1.4l0.2,8.2"/>
			</g>
			<g>
				<path class="st3" d="M203,86.4c0,0-0.1-0.6-0.7-0.5l-0.9,1.4l0.2,8.2l1.4,0.2l0.6-1c0,0-0.5,0-0.5-0.9L203,86.4z"/>
			</g>
			<g>
				<path class="st3" d="M206.1,86.8c0,0-0.1-0.6-0.7-0.5l-0.9,1.4l0.2,8.2l1.4,0.2l0.6-1c0,0-0.5,0-0.5-0.9L206.1,86.8z"/>
			</g>
			<g>
				<path class="st3" d="M209.3,87.2c0,0-0.1-0.6-0.7-0.5l-0.9,1.4l0.2,8.2l1.4,0.2l0.6-1c0,0-0.5,0-0.5-0.9L209.3,87.2z"/>
			</g>
			<g>
				<path class="st3" d="M212.2,87.7c0,0-0.1-0.6-0.7-0.5l-0.9,1.4l0.2,8.2l1.4,0.2l0.6-1c0,0-0.5,0-0.5-0.9L212.2,87.7z"/>
			</g>
			<g>
				<path class="st3" d="M215.4,88.2c0,0-0.1-0.6-0.7-0.5l-0.9,1.4l0.2,8.2l1.4,0.2l0.6-1c0,0-0.5,0-0.5-0.9L215.4,88.2z"/>
			</g>
			<g>
				<path class="st3" d="M202.8,85.9l0-4.8c0,0-0.1-0.6-0.7-0.5l-0.9,1.4l0.2,8.2"/>
			</g>
			<g>
				<path class="st3" d="M215.8,73.5l0-3.8c0,0-0.1-0.6-0.7-0.5l-0.9,1.4l0,1.1"/>
			</g>
			<g>
				<path class="st3" d="M212.8,73.2l0-3.8c0,0-0.1-0.6-0.7-0.5l-0.9,1.4l0,1.1"/>
			</g>
			<g>
				<path class="st3" d="M209.7,72.6l0-3.8c0,0-0.1-0.6-0.7-0.5l-0.9,1.4l0.1,6.3"/>
			</g>
			<g>
				<path class="st3" d="M223.5,49v-4.7c0,0-0.1-0.6-0.7-0.5l-0.9,1.4l0.1,6.3"/>
			</g>
			<g>
				<path class="st3" d="M226.6,49.5v-4.7c0,0-0.1-0.6-0.7-0.5l-0.9,1.4l0.1,6.3"/>
			</g>
			<g>
				<path class="st3" d="M229.7,49.9v-4.7c0,0-0.1-0.6-0.7-0.5l-0.9,1.4l0.1,6.3"/>
			</g>
			<g>
				<path class="st3" d="M232.7,50.3v-4.7c0,0-0.1-0.6-0.7-0.5l-0.9,1.4l0.1,6.3"/>
			</g>
			<g>
				<path class="st3" d="M235.8,50.8v-4.7c0,0-0.1-0.6-0.7-0.5l-0.9,1.4l0.1,6.3"/>
			</g>
			<path class="st3" d="M207.5,97.7c3.2,0.5,5.9,0.8,5.9,0.8s1.2,0.5,1.7-0.9"/>
			<path class="st3" d="M200.3,91.5l-2.2,3.8c0,0-0.8,0.9,0.3,1.1c0.5,0.1,3.2,0.5,6.3,0.9"/>
			<path class="st3" d="M202.9,81.6l1.3-2.2l0.8,0.1c0,0,0.3,0.4,0.2,1.4"/>
			<line class="st3" x1="192.8" y1="98" x2="186.7" y2="97"/>
			<polyline class="st3" points="205.8,61.5 205.9,72.9 208,73.2 			"/>
			<path class="st3" d="M191.5,97.6l-0.2-11c0,0,0.1-2.2,0.7-2.5"/>
			<path class="st3" d="M175.4,88c0,0-0.5,0.6-0.6,2.3l0.1,5.4"/>
			<path class="st3" d="M136.4,82.7c0,0-0.5,0.6-0.6,2.3l0.1,8"/>
			<polyline class="st3" points="230,37.5 228.1,37.2 227.3,38.9 227.2,39.6 228,40.2 			"/>
			<polyline class="st3" points="230,37.9 229.7,38.6 229.1,38.5 227.4,41.4 234.2,42.4 238.9,34.3 			"/>
			<line class="st3" x1="219.9" y1="46.7" x2="221.9" y2="47"/>
			<line class="st3" x1="223.6" y1="47.2" x2="225" y2="47.4"/>
			<line class="st3" x1="226.7" y1="47.7" x2="228" y2="47.9"/>
			<path class="st3" d="M227.4,41.5c0,0-0.1,0.6,0.6,0.6l0.1,4"/>
			<path class="st3" d="M234.2,42.4c0,0-0.1,0.4-0.7,0.4l0.1,4.9l-0.8-0.1"/>
			<path class="st3" d="M236.2,39l0.1,4.3c0,0,0.3,1.1-0.9,1.4l-0.7,1.3"/>
			<line class="st3" x1="231.2" y1="47.3" x2="229.7" y2="47.1"/>
			<line class="st3" x1="222.2" y1="75.9" x2="223.5" y2="75.5"/>
			<path class="st3" d="M225.1,75.1l2.1-0.6c0,0,0.7-0.1,0.7,0.5c0,0.6,0.2,2.9,0.2,2.9"/>
			<line class="st3" x1="222.2" y1="77.4" x2="223.4" y2="77.1"/>
			<path class="st3" d="M225.1,76.7l1.1-0.3c0,0,0.5-0.2,0.5,0.6c0,0.8,0,3,0,3"/>
			<line class="st3" x1="225.5" y1="79.2" x2="226.6" y2="77.3"/>
			<line class="st3" x1="226.7" y1="76.7" x2="227.8" y2="75"/>
			<polyline class="st3" points="206.2,88.6 207,88.7 207.2,88.1 			"/>
			<polyline class="st3" points="209.4,89.1 210,89.2 210.3,88.5 			"/>
			<polyline class="st3" points="212.4,89.4 213,89.5 213.3,89 			"/>
			<polyline class="st3" points="215.4,89.9 216.2,90 216.6,89.3 			"/>
			<path class="st3" d="M216.1,84.7"/>
			<line class="st3" x1="201.5" y1="92.2" x2="199" y2="90.7"/>
			<line class="st3" x1="204.5" y1="93.9" x2="203.1" y2="93.1"/>
			<path class="st3" d="M201.4,89.9l-1.1-0.6c0,0-0.5-0.6-1,0.2c-0.5,0.8-0.7,1.4-0.7,1.4l0.1,3.2"/>
			<line class="st3" x1="204.7" y1="91.7" x2="203.1" y2="90.8"/>
			<path class="st3" d="M213.9,94.1c-0.8,0.2-1.5,0.5-1.5,0.5"/>
			<path class="st3" d="M215.4,92.3l1.8-0.5c0,0,0.8-0.3,0.9,0.6c0,0.9,0.1,2.4,0.1,2.4l-0.9,1.5l-0.1-2.2c0,0,0-0.8-0.7-0.7
				c-0.2,0-0.6,0.1-1,0.3"/>
			<line class="st3" x1="212.4" y1="93.1" x2="213.8" y2="92.7"/>
			<polyline class="st3" points="81.6,87.2 112.7,32.7 113.1,33.2 113.8,35.7 			"/>
			<path class="st5" d="M78,75.4"/>
			<path class="st5" d="M93.6,90l1.6,0.2c0,0-0.2,0.7,0,1.9"/>
			<path class="st5" d="M85.3,90.7c0,0-0.2-1.5,0-1.9l1.6,0.2"/>
			<polyline class="st5" points="87,90.9 87,88.7 93.5,89.7 93.5,92.1 			"/>
			<line class="st5" x1="95.1" y1="90.9" x2="102.3" y2="92"/>
			<path class="st5" d="M88.7,82.9c0,0,1-2.3,4-1.9c2.9,0.4,2.3,3.3,2.3,3.3L94,86.5c0,0-0.7,2.1-4,1.9c0,0-2.6-0.3-2.3-2.8
				L88.7,82.9z"/>
			<path class="st5" d="M89.5,83c0,0,1-1.7,3-1.3s1.8,2,1.8,2l-0.9,2.6c0,0-0.9,1.5-2.9,1.4c-2-0.1-1.9-2.1-1.9-2.1L89.5,83z"/>
			<g>
				<g id="LINE_113_">
					<polygon class="st6" points="92.4,86.4 89.5,85.9 89.6,85.5 92.5,86 					"/>
				</g>
				<g id="LINE_112_">
					<polygon class="st6" points="92.8,85.1 89.9,84.6 90,84.3 92.9,84.7 					"/>
				</g>
				<g id="LINE_111_">
					<polygon class="st6" points="93.1,83.8 90.3,83.3 90.4,83 93.3,83.4 					"/>
				</g>
			</g>
			<path class="st5" d="M125.5,74.5c0,0-0.6,1.2-0.6,3.1c0,2,0.3,10.5,0.3,10.5l3.2,0.5"/>
			<line class="st4" x1="137.3" y1="96.3" x2="147.9" y2="97.8"/>
			<g>
				<path class="st4" d="M179.6,87.3l0.1,2.6c0,0,0.6,1.8,4,1.7c0,0,2.6,0,3.4-1.9v-3"/>
				<ellipse class="st4" cx="183.4" cy="87" rx="3.7" ry="1.9"/>
			</g>
			<g>
				<path class="st4" d="M127.3,79.6l0.1,2.6c0,0,0.6,1.8,4,1.7c0,0,2.6,0,3.4-1.9v-3"/>
				<ellipse class="st4" cx="131" cy="79.3" rx="3.7" ry="1.9"/>
			</g>
			<g>
				<g>
					<path class="st3" d="M128.2,83.3c0,0-1.8,1.8,2.3,2.1c0,0,2,0.2,3.2-0.9"/>
					<path class="st3" d="M128.2,85c0,0-1.8,1.8,2.3,2.1c0,0,2,0.2,3.2-0.9"/>
					<path class="st3" d="M128.2,86.7c0,0-1.8,1.8,2.3,2.1c0,0,2,0.2,3.2-0.9"/>
					<path class="st3" d="M128.2,88.5c0,0-1.8,1.8,2.3,2.1c0,0,2,0.2,3.2-0.9"/>
					<path class="st3" d="M128.2,90.2c0,0-1.8,1.8,2.3,2.1c0,0,2,0.2,3.2-0.9"/>
				</g>
				<line class="st3" x1="128.8" y1="83.5" x2="129.1" y2="92.1"/>
			</g>
			<g>
				<g>
					<path class="st3" d="M180.7,91c0,0-1.9,1.7,2.2,2c0,0,2,0.2,3.2-0.9"/>
					<path class="st3" d="M180.7,92.6c0,0-1.8,1.8,2.3,2.1c0,0,2,0.2,3.2-0.9"/>
					<path class="st3" d="M180.7,94.3c0,0-1.8,1.8,2.3,2.1c0,0,2,0.2,3.2-0.9"/>
					<path class="st3" d="M183.8,98.2c0.7-0.1,1.7-0.3,2.4-0.9"/>
					<path class="st3" d="M180.7,96.1"/>
					<path class="st3" d="M183.8,99.9c0.7-0.1,1.7-0.3,2.4-0.9c0,0,1.1-0.8,0.3-1.8"/>
				</g>
				<line class="st3" x1="181.2" y1="91.3" x2="181.4" y2="96.3"/>
				<line class="st3" x1="185.9" y1="91.1" x2="186.1" y2="100.2"/>
				<line class="st3" x1="133.4" y1="83.4" x2="133.5" y2="92.4"/>
			</g>
			<path class="st3" d="M187,98c0,0,1.4,2.2-0.9,3.2c-1.8,0.8-2.2,0.3-2.2,0.3"/>
			<polygon class="st3" points="111.7,36.3 112,35.8 115,36.1 115.5,36.8 115.5,44.7 116.4,45.8 116.7,53.6 112,52.9 			"/>
			<path class="st3" d="M116.7,29.4c0,0-0.2-2.9,0.8-3.2l4.4,0.8c0,0-0.8,2-0.5,3.6l-1.2-0.3"/>
			<path class="st3" d="M121.4,30.9c0,0,0.7,3.8-0.3,8.1l-0.9-0.1"/>
			<polyline class="st3" points="121.1,39.3 121.2,41.9 120,41.5 119.9,39.8 			"/>
			<polyline class="st3" points="116.5,45.6 117.1,44.9 117.4,45.6 117.6,48 121.1,42.1 			"/>
			<polyline class="st3" points="115.7,44.7 116.1,43.7 117.1,44.9 			"/>
			<path class="st3" d="M114.2,35.6c0,0,0.8-6.6,3.6-6.6l1.4,0.3c0,0-2.1-0.3-3.5,9.3"/>
			<path class="st3" d="M119.3,41.6c0,0,2.7-10.3,0-12.3"/>
			<path class="st3" d="M184.1,103.3l4.2,0.6c0,0,1.3,0.3,1.8,0.7c0.4,0.4,3.1,2.9,3.1,2.9"/>
			<line class="st3" x1="201.2" y1="84" x2="189.6" y2="104.2"/>
			<path class="st3" d="M245.6,86.2c0,0,1.5-0.4,1.4,0.9l0.1,1.7"/>
			<line class="st3" x1="244.6" y1="90.5" x2="246.9" y2="86.7"/>
			<path class="st3" d="M245.4,92l8.5-15c0,0,0.3-0.9,1.2-0.5"/>
			<path class="st3" d="M247.3,87.5c0,0,0.2-1.7,0.5-2.2s4.5-7.9,4.5-7.9s0.5-0.9,0.5,0.3c0,1.2,0.1,1,0.1,1"/>
			<path class="st3" d="M246.4,86.2l0.2-0.7l4.8-8.4c0,0,0.9-0.6,1.1-0.1"/>
			<path class="st3" d="M261.7,71.6c0,0,1.7,0.3,0.6,2.4c-1.1,2.1-5.7,10-5.7,10"/>
			<path class="st3" d="M259.3,68.5l0.1-2.5c0,0,0.1-1.6,0.8-2.8c0.7-1.1,5-8.3,5-8.3"/>
			<path class="st3" d="M263.8,54.1c0,0,0.6-0.2,1.4,0.3l2.2-3.9c0,0-0.3-0.7-1.4-0.4"/>
			<line class="st3" x1="265.2" y1="58.2" x2="265.2" y2="54.4"/>
			<line class="st3" x1="267.5" y1="54.1" x2="267.5" y2="50.5"/>
			<path class="st3" d="M282.9,28c0,0,0.3-1.2-1.3-0.9l-5.4,9.3c0,0,1-1.1,1.7,0.2"/>
			<path class="st3" d="M253.3,35.1c0,0,0.3-1,0.7-0.9s5.2,0.4,5.2,0.4s0.6,0.3,0.4,1.1c0,0-0.1-1.3-0.8-0.1"/>
			<polygon class="st3" points="253.2,41.6 256,42 254.7,44.3 251.8,43.9 			"/>
			<path class="st3" d="M250.3,40.9c0,0-1.2,0.2-3,2.2s-4.5,7.9-4.5,7.9"/>
			<line class="st3" x1="238.4" y1="39.7" x2="248.6" y2="41.4"/>
			<polyline class="st3" points="238,35.9 238.4,47 236,50.5 			"/>
			<line class="st3" x1="219.6" y1="32.9" x2="219.7" y2="35.7"/>
			<line class="st3" x1="218.8" y1="37.6" x2="218.8" y2="38.7"/>
			<polyline class="st3" points="209.2,33.3 210.2,31.4 209.3,31.2 			"/>
			<polyline class="st3" points="236.2,53 239.5,53.5 239.9,53.6 237.9,56.7 237.6,56.5 236.3,56.9 			"/>
			<line class="st3" x1="233" y1="52.5" x2="234.4" y2="52.7"/>
			<line class="st3" x1="230" y1="52" x2="231.3" y2="52.2"/>
			<line class="st3" x1="226.9" y1="51.6" x2="228.3" y2="51.8"/>
			<line class="st3" x1="225.2" y1="51.3" x2="224.2" y2="51.2"/>
			<path class="st3" d="M236.2,55.5c0,0,1-0.3,1.9-0.6c0.8-0.3,0.9,0.3,0.9,0.3l0.1,4.6"/>
			<line class="st3" x1="237.8" y1="57" x2="237.9" y2="61.4"/>
			<polyline class="st3" points="239.1,57.5 239.9,56 239.9,53.8 			"/>
			<polyline class="st3" points="248.5,46.3 247,46.1 242.7,53.8 244.2,54.1 			"/>
			<polyline class="st3" points="272.8,39.1 273.6,39.3 273.6,43.5 			"/>
			<polyline class="st3" points="268.4,40.8 267.6,42.2 270.3,42.8 270.7,43.1 270.6,44.1 271.5,42.7 271.4,41.3 			"/>
			<polyline class="st3" points="266.9,41.8 266.5,42.6 270.2,43.1 270.6,44 			"/>
			<polyline class="st3" points="266.5,42.8 266.5,43.8 270.3,44.2 270.7,44.5 267.3,50.2 			"/>
			<line class="st3" x1="264.4" y1="46.8" x2="266.4" y2="43.3"/>
			<path class="st3" d="M264.7,47l2.9,0.6c0,0,0.6,0.2,0.5,1.2"/>
			<line class="st3" x1="270" y1="44.3" x2="268" y2="47.8"/>
			<path class="st3" d="M217.9,145.7c0,0-0.1-1.4-2.4-1.1l-2.4,4.2c0,0,0.2,0.5,0.9,0.5c0.8,0,1.1,0.7,1.1,0.7"/>
			<path class="st3" d="M214.8,142.9c0,0,0.6-0.1,0.3,1.9"/>
			<path class="st3" d="M163.7,134.8c0,0,1.9-3.2,2.2-3.8l-0.3-5.8"/>
			<polyline class="st3" points="187.1,118.5 187.3,130 184.7,134.8 			"/>
			<line class="st3" x1="90.7" y1="122" x2="90.7" y2="124.3"/>
			<path class="st3" d="M58.9,107.2"/>
			<path class="st3" d="M76.5,90.8c0,0-0.8-1.1-0.3-1.8c0.6-0.7,0.9-1.7,0.9-1.7s0.3-0.5,1.3-0.3c0.9,0.1,8.7,1.3,8.7,1.3"/>
			<line class="st4" x1="93.6" y1="89.5" x2="94.1" y2="88.2"/>
			<path class="st3" d="M93.9,89.2l8.7,1.2c0,0,1.2,0.1,1.2,1.3"/>
			<line class="st3" x1="96.6" y1="88.5" x2="110.5" y2="90.6"/>
			<polyline class="st3" points="116.7,53.6 117.4,52.5 117.3,51.6 121.5,44 121.6,44.5 122.3,43.5 122.1,27.2 			"/>
			<polygon class="st3" points="117.8,46.3 117.6,42.2 118.8,40.4 119.3,41.8 119.6,43.2 			"/>
			<polyline class="st3" points="113.2,33.6 116.6,27.8 116.5,10.5 			"/>
			<polyline class="st3" points="100,38.1 117.6,8.6 117.7,5.3 			"/>
			<path class="st3" d="M114.1,11.6l4.6-8l0-2.6c0,0-0.4-1.2-1.8-0.5L112.3,9c0,0,1.2-0.6,1.6,0.7C114.3,11,114.1,11.6,114.1,11.6z"
				/>
			<path class="st3" d="M112.6,9.3l-0.7-0.1L102,26.5c0,0-0.8,1.3-1.1,3.1c-0.3,1.8-2.5,18.7-2.5,18.7s-1.1,9.1-2.5,11.2
				c-1.4,2.1-15,27.6-15,27.6"/>
			<path class="st3" d="M116.4,15.4l0.5-0.2l7,1c0,0,1.3,0,1,1.6l-0.2,2.5"/>
			<path class="st3" d="M114,11.8c-1.3,0-1.1-0.8-1.1-0.8l-0.2-1.2L114,10"/>
			<line class="st3" x1="114.1" y1="11.2" x2="112.9" y2="11"/>
			<line class="st3" x1="135" y1="21.1" x2="135" y2="23.1"/>
			<line class="st3" x1="136" y1="20.6" x2="135.9" y2="21.9"/>
			<line class="st3" x1="146.3" y1="22" x2="146.5" y2="25.2"/>
			<line class="st3" x1="147.2" y1="22" x2="147.4" y2="23.5"/>
			<line class="st3" x1="157.7" y1="23.9" x2="157.8" y2="27.5"/>
			<line class="st3" x1="158.4" y1="23.8" x2="158.6" y2="26"/>
			<line class="st3" x1="162.5" y1="16.8" x2="162.7" y2="19.1"/>
			<polyline class="st3" points="258.9,78.1 258.8,77.1 255.7,82.6 			"/>
			<path class="st3" d="M217,94.9l-2.1,3.9c0,0-0.2,0.7-1.3,0.5S198.5,97,198.5,97s-0.8,0-0.7-0.9"/>
			<path class="st3" d="M210.5,102.5l0-1l0.3-0.9l4.3,0.6l0.7-0.8l0.2,1.1c0,0,0,0.7-1.4,0.6s-3.8-0.5-3.8-0.5"/>
			<line class="st7" x1="216" y1="103.2" x2="216" y2="102.1"/>
			<path class="st3" d="M195.8,102.8l0-4.2l0.5-0.9l0.8,0.1l0,0.4c0,0-0.2,0.4,0.3,0.4s3.1,0.5,3.1,0.5l-0.6,0.8l-3.1-0.5
				c0,0-0.7-0.2-0.7-0.5"/>
			<path class="st3" d="M200.8,101.1"/>
			<line class="st3" x1="200.9" y1="98" x2="199.5" y2="100.4"/>
			<line class="st3" x1="198.5" y1="97.1" x2="198.5" y2="98.8"/>
			<path class="st3" d="M203.9,99.3"/>
			<path class="st3" d="M200.9,98.7c0.2-0.4,1.4-0.8,1.4-0.8c1-0.2,2-0.1,4,0.2c1.3,0.2,1.7,0.6,1.8,0.8c0.1,0.1,0,0.2,0,0.2
				s-0.1,0-0.1,0.1c-0.2,0.1-0.4,0.3-0.7,0.4c-0.4,0.2-2.2,0.3-4.4,0C200.9,99.4,200.9,98.8,200.9,98.7l-0.2,1.4c0,0,0.2,0.8,2.4,1
				c2.1,0.2,3.3,0.5,4.1,0l1-0.8l0.1-0.7"/>
			<g>
				<g id="LINE_110_">
					<polygon class="st8" points="202.4,98.9 205.9,99.4 205.8,99.5 202.3,99 					"/>
				</g>
			</g>
			<g>
				<g id="LINE_108_">
					<polygon class="st8" points="203.3,98.4 206.8,98.9 206.6,99.1 203.1,98.6 					"/>
				</g>
			</g>
			<path class="st3" d="M207.4,98.4c0,0,0,0,0-0.5c0-0.5-0.3-0.9-1.1-1s-1.5,0.3-1.5,0.3l-0.1,0.8"/>
			<polyline class="st3" points="210.8,101.1 210.7,99.4 210.5,98.9 			"/>
			<path class="st3" d="M207.9,101.7"/>
			<polyline class="st3" points="207.9,101.7 208,101.2 208.8,101.3 209.4,100 208.8,99.9 209.2,99.2 210.7,99.4 209.2,102.2 			"/>
			<line class="st3" x1="200.2" y1="89.1" x2="201.2" y2="87.4"/>
			<line class="st3" x1="203.1" y1="88.8" x2="204.2" y2="86.9"/>
			<g>
				<path class="st4" d="M212.1,164.1h-0.7c0,0-0.9,1-0.5,3.3l0.7,0.2"/>
				
					<ellipse transform="matrix(0.9942 0.1076 -0.1076 0.9942 19.0925 -21.931)" class="st4" cx="212.7" cy="165.9" rx="0.9" ry="3.4"/>
				
					<ellipse transform="matrix(0.9942 0.1076 -0.1076 0.9942 19.1203 -22.0256)" class="st4" cx="213.6" cy="166.1" rx="0.9" ry="3.2"/>
			</g>
			<polyline class="st3" points="87.3,87.7 87.5,87.3 87.1,88.1 			"/>
			<path class="st3" d="M85.7,87.9l0.9-1.9c0,0,0.4-0.4,0.9-0.1"/>
			<polyline class="st3" points="95.1,87.1 96.4,87.3 96.6,89.3 			"/>
			<line class="st3" x1="95.2" y1="89.3" x2="96.4" y2="87.3"/>
			<path class="st3" d="M94.4,87.8c0,0,1.2-1.5,0.7-4"/>
			<line class="st3" x1="144.4" y1="52.1" x2="144.3" y2="50"/>
			<line class="st3" x1="217.1" y1="93.7" x2="217.9" y2="92.4"/>
			<line class="st3" x1="196.8" y1="56.8" x2="196.8" y2="59.8"/>
			<path class="st3" d="M203.1,60.8c0,0,0.9-0.2,1.3-1.2l0-2.8"/>
		</g>
		<line class="st4" x1="95.2" y1="105.9" x2="126.9" y2="110.6"/>
		<g>
			<polyline class="st3" points="141.9,115.7 141.9,117.9 173.4,122.7 173.5,114.3 183.7,96.8 			"/>
			<path class="st3" d="M141.9,115.8l-0.1-6.3l7.7-13.7l6.3,1.1L156,97l2.1-3.7l25.6,3.6c0,2.1,0.2,8.5,0.2,8.5l-10.2,17.6"/>
		</g>
		<line class="st4" x1="141.8" y1="109.5" x2="173.4" y2="114.2"/>
		<polyline class="st3" points="234.6,116.9 234.8,109.8 227,108.6 228.9,105.3 197.4,100.5 187.1,118.5 193.8,119.7 191.5,123.4 
			191.7,135.5 		"/>
		<polyline class="st3" points="192,123.6 223.3,127.9 223.3,131 		"/>
		<line class="st3" x1="234.8" y1="109.8" x2="223.3" y2="127.9"/>
		<polyline class="st3" points="181.9,51.5 181.7,44.7 189.8,30.2 214.5,34.1 212.3,37.8 219.6,38.7 219.7,48.4 		"/>
		<polyline class="st3" points="181.7,44.7 188.4,45.6 186.7,48.9 211.6,52.5 211.8,63.3 		"/>
		<line class="st3" x1="211.8" y1="52.1" x2="219.6" y2="38.7"/>
		<line class="st3" x1="186.8" y1="49.3" x2="187" y2="52.3"/>
		<polyline class="st3" points="165.4,30.1 165.8,38.4 169.7,32 		"/>
		<polyline class="st3" points="136,53.2 136.4,52.5 136.4,48.1 139,43.7 136.6,43.3 137.8,41 133,40.3 138.9,30 163.1,33.6 
			160.6,38 168.1,39.1 168.3,44.1 171,40.6 171.2,42.8 167,49.4 		"/>
		<line class="st3" x1="136.4" y1="48.1" x2="144.3" y2="49.4"/>
		<line class="st3" x1="171" y1="40.6" x2="168.3" y2="40.3"/>
	</g>
</g>
<g id="PULL_OUT">
	<g>
		<g>
			<g>
				<g>
					<defs>
						<circle id="SVGID_1_" cx="25.8" cy="88.4" r="25.5"/>
					</defs>
					<clipPath id="SVGID_2_">
						<use xlink:href="#SVGID_1_"  style="overflow:visible;"/>
					</clipPath>
					<g class="st9">
						<polyline class="st10" points="37.8,89.5 38.1,73.4 37.1,68.8 36.7,84.7 31.8,84.6 						"/>
						<polyline class="st10" points="17.1,96.5 11.9,107.4 15,111 						"/>
						<polyline class="st10" points="32.3,111.2 32.3,103.4 15.6,103.8 15.6,100.3 18.5,100.2 18.5,101.9 29.1,102 29.1,100.1 
							36.4,100.1 35.7,111.6 						"/>
						<polyline class="st10" points="36.8,111.7 37.6,108.9 36.4,100.1 						"/>
						<path class="st10" d="M29,100.6l-14.6-5.7c0,0-13.9-6-7.5-14.4"/>
						<line class="st10" x1="30.8" y1="100" x2="24.7" y2="98.2"/>
						<line class="st10" x1="36.7" y1="84.7" x2="37.3" y2="89.9"/>
						<polygon points="13.9,80.2 15.5,80.8 15.2,87.4 13.5,86.6 						"/>
						<polygon points="17,81.3 18.6,81.9 18.3,88.5 16.5,87.7 						"/>
						<polygon points="20.1,82.4 21.7,82.9 21.3,89.6 19.6,88.8 						"/>
						<polygon points="23.2,83.5 24.8,84 24.4,90.6 22.7,89.8 						"/>
						<polygon points="26.3,84.5 27.9,85.1 27.5,91.7 25.8,90.9 						"/>
						<path class="st11" d="M13.4,90.9c0,0-6.1-3.5-6.6-9c0,0,0.1-6.2,12.3-3.4l6.6,2.3c0,0,6,2.3,8.4,8c0,0,2.5,4.7-4.2,6.5
							c0,0-1.8,0.8-6.9-0.8l-7.9-2.5L13.4,90.9z"/>
						<path class="st11" d="M9.8,82.3c0,0,1-5.4,11.1-1.8l4.9,1.8c0,0,5.9,2.2,6.2,7c0.3,4.9-6.5,3.6-6.5,3.6L16,89.8
							C16,89.8,10.1,88.2,9.8,82.3z"/>
						<path class="st11" d="M23.5,98h5.1c0,0,5.1-0.5,5.8-6.1"/>
						<path class="st10" d="M35.2,90.2c0,0,2.5-0.7,4.4,0.9c0,0,4,2.4,4.9,6.1c0,0,0,3-4,2.8c-4-0.2-5.4,0-5.4,0l0.2-12.4L33,86.7"
							/>
						<path class="st10" d="M37.3,105.9c0,0,5.8-0.6,7.3-4.5l-0.1-4.2"/>
						<path class="st10" d="M35.4,91.7h1.8c0,0,4.2,1.5,4.6,4.7c0,0,0.2,2.1-3.1,2s-3.4-0.1-3.4-0.1"/>
						<path class="st10" d="M35.4,95.3c0,0,2.8-1.3,6.1,1.6"/>
						<path class="st10" d="M18.5,100.2c0,0,0.3-2.2,3.2-2s2.2,3.4,2.2,3.4"/>
						<path class="st10" d="M18.5,101.4c0,0,0.3-2.4,3-2c2.7,0.5,2,2.3,2,2.3"/>
					</g>
				</g>
				<circle class="st12" cx="25.8" cy="88.4" r="25.5"/>
			</g>
			<g>
				<polygon class="st13" points="16.6,75.2 22.4,65.9 19.5,67.6 19.4,56.5 13.6,59.9 13.7,71 10.7,72.7 				"/>
			</g>
		</g>
	</g>
	<g>
		<line class="st14" x1="40.6" y1="62.6" x2="86.2" y2="83.2"/>
		<line class="st15" x1="40.6" y1="62.6" x2="86.2" y2="83.2"/>
	</g>
	<g>
		<defs>
			<polygon id="SVGID_3_" points="64.9,109.2 91.1,112.7 91.3,115 102.4,91.4 100.7,88.8 75.1,84 			"/>
		</defs>
		<clipPath id="SVGID_4_">
			<use xlink:href="#SVGID_3_"  style="overflow:visible;"/>
		</clipPath>
		<g class="st16">
			<polygon class="st17" points="65.6,112.7 89.9,117.1 100.5,92.8 100.3,90.8 75.6,86.5 65.4,110.7 			"/>
			<g>
				<path class="st18" d="M90.7,115"/>
				<polygon class="st19" points="89.6,115 100.1,90.5 75.7,86.5 65.5,110.7 				"/>
				<polyline class="st19" points="89.7,114.9 89.8,116.8 65.7,112.5 65.5,110.7 				"/>
				<path class="st18" d="M78.8,88.6c0,0.4-0.4,0.7-1,0.7c-0.6,0-1.1-0.3-1.1-0.7c0-0.4,0.4-0.7,1-0.7
					C78.3,87.9,78.8,88.2,78.8,88.6z"/>
				<path class="st18" d="M97.3,91.7c0,0.4-0.4,0.7-1,0.7c-0.6,0-1.1-0.3-1.1-0.7s0.4-0.7,1-0.7C96.8,91,97.3,91.3,97.3,91.7z"/>
				<line class="st19" x1="92.7" y1="92.9" x2="98.7" y2="93.9"/>
				<line class="st19" x1="74.2" y1="89.9" x2="79.8" y2="90.9"/>
				<line class="st18" x1="81.4" y1="87.5" x2="80" y2="90.9"/>
				<line class="st18" x1="92.8" y1="92.8" x2="94.1" y2="89.5"/>
				<polyline class="st19" points="66.2,109.3 90.5,112.8 90.7,115.6 				"/>
				<polyline class="st19" points="90.1,117 100.4,92.9 100.4,90.6 				"/>
				<polyline class="st20" points="74,109.2 72.9,111.7 73.1,113.4 				"/>
			</g>
		</g>
	</g>
	<g>
		<g>
			<polygon class="st21" points="79.7,102.1 81,107.8 86,104.5 84.5,103.9 85.9,100.4 82.4,99.1 81.1,102.6 			"/>
			<polygon points="80.1,102.3 81.2,107.1 85.3,104.3 84.1,103.8 85.3,100.6 82.5,99.6 81.4,102.8 			"/>
		</g>
		<g>
			<polygon class="st21" points="88.5,96.9 87.2,91.2 82.2,94.6 83.7,95.2 82.4,98.6 85.9,100 87.1,96.4 			"/>
			<polygon points="88.2,96.7 87.1,92 82.9,94.8 84.1,95.3 82.9,98.4 85.6,99.4 86.8,96.2 			"/>
		</g>
	</g>
	<g>
		<g>
			<polygon class="st22" points="84,56.6 79.5,49.8 74.7,56.6 76.9,56.6 76.9,61.8 82,61.8 82,56.6 			"/>
			<polygon points="83.4,56.5 79.7,50.9 75.7,56.5 77.5,56.5 77.5,61.2 81.6,61.2 81.5,56.5 			"/>
		</g>
		<g>
			<polygon class="st22" points="75.1,67.6 79.6,74.3 84.4,67.6 82.2,67.5 82.2,62.3 77.1,62.3 77.1,67.6 			"/>
			<polygon points="75.7,67.7 79.4,73.3 83.5,67.6 81.6,67.6 81.6,62.9 77.7,62.9 77.6,67.7 			"/>
		</g>
	</g>
	<g>
		<g>
			<line class="st23" x1="74.7" y1="46.5" x2="39.7" y2="40.4"/>
			<line class="st23" x1="40.8" y1="42.3" x2="74.7" y2="48"/>
			<polyline class="st23" points="74.8,48 94,27.5 94.7,27.6 94.6,28.2 75.2,49.3 39.8,43.2 39.6,42.3 			"/>
			<path id="SVGID_x5F_5_x5F_" class="st24" d="M84.7,25.8l8,1.4L74.9,46.5l0.1,2.7"/>
			<text>			<textPath  xlink:href="#SVGID_x5F_5_x5F_" startOffset="48.698%">
			</textPath>
</text>
			<line class="st23" x1="41" y1="38.7" x2="59.9" y2="21.5"/>
			<polyline class="st23" points="41,38.7 39.4,40.2 39.6,42.1 40.9,42.3 			"/>
			<path class="st23" d="M92.8,25.5c-0.1,0.3-1,0.6-2,0.5c-1.1-0.1-1.9-0.4-1.8-0.7c0.1-0.3,1-0.6,2-0.5
				C92,24.8,92.8,25.1,92.8,25.5z"/>
			<path class="st23" d="M65.6,20.9c0,0.3-0.9,0.5-1.8,0.5c-0.9,0-1.7-0.3-1.6-0.6c0-0.3,0.9-0.5,1.8-0.5
				C64.9,20.3,65.6,20.6,65.6,20.9z"/>
			<polyline class="st23" points="88.9,22.6 69.5,19.6 68.4,20.4 62.4,19.4 59.8,21.4 			"/>
		</g>
		<polyline class="st23" points="69.5,19.5 65.9,22.5 59.9,21.4 		"/>
		<path class="st23" d="M84.7,25.8"/>
		<polyline class="st23" points="84.7,25.8 88.8,22.6 88.8,23.8 95,24.8 92.5,27.2 		"/>
		<line class="st23" x1="88.8" y1="23.8" x2="86.2" y2="25.9"/>
		<polyline class="st23" points="95.1,24.8 95.1,26.4 93.6,27.9 		"/>
		<path class="st23" d="M75,44.5"/>
		<path class="st23" d="M75,44.5"/>
		<polyline class="st24" points="40.9,38.7 76.2,44.7 76.2,48.1 		"/>
		<path d="M52.3,42.6l1.6-1.7c0,0,0.2-1.2-2.1-0.6L50,42.3l0,2.7l2.3,0.4l0-2.5"/>
	</g>
</g>
</svg>
