<?xml version="1.0" encoding="utf-8"?>
<!-- Generator: Adobe Illustrator 21.1.0, SVG Export Plug-In . SVG Version: 6.00 Build 0)  -->
<svg version="1.1" id="Layer_1" xmlns="http://www.w3.org/2000/svg" xmlns:xlink="http://www.w3.org/1999/xlink" x="0px" y="0px"
	 width="330.1px" height="152.2px" viewBox="0 0 330.1 152.2" style="enable-background:new 0 0 330.1 152.2;" xml:space="preserve"
	>
<style type="text/css">
	.st0{opacity:0.5;fill:url(#SVGID_1_);}
	.st1{fill:#58595B;}
	.st2{font-family:'Gotham-Medium';}
	.st3{font-size:10.8px;}
	.st4{opacity:0.5;fill:url(#SVGID_2_);}
	.st5{opacity:0.5;fill:url(#SVGID_3_);}
	.st6{fill:none;stroke:#000000;stroke-width:0.5;stroke-linecap:round;stroke-linejoin:round;stroke-miterlimit:10;}
	.st7{fill:none;stroke:#000000;stroke-width:0.5;stroke-miterlimit:10;}
	.st8{fill:#FFFFFF;stroke:#000000;stroke-width:0.5;stroke-miterlimit:10;}
	.st9{stroke:#FFFFFF;stroke-width:0.5;stroke-miterlimit:10;}
	.st10{fill:#FFFFFF;stroke:#000000;stroke-width:0.5;stroke-linecap:round;stroke-linejoin:round;stroke-miterlimit:10;}
	.st11{stroke:#FFFFFF;stroke-width:6.750000e-02;stroke-miterlimit:10;}
	.st12{fill:none;stroke:#000000;stroke-width:0.81;stroke-linecap:round;stroke-linejoin:round;stroke-miterlimit:10;}
	.st13{fill:none;stroke:#000000;stroke-width:0.54;stroke-miterlimit:10;}
	.st14{fill:#FFFFFF;stroke:#000000;stroke-width:0.27;stroke-linecap:round;stroke-linejoin:round;stroke-miterlimit:10;}
	.st15{opacity:0.5;fill:url(#SVGID_4_);}
	.st16{fill:none;stroke:#FFFFFF;stroke-width:0.5;stroke-linecap:round;stroke-linejoin:round;stroke-miterlimit:10;}
	.st17{fill:none;stroke:#000000;stroke-width:0.5;stroke-linecap:round;stroke-linejoin:round;}
	.st18{fill:none;stroke:#000000;stroke-width:0.5;stroke-linecap:round;stroke-linejoin:round;stroke-dasharray:1.7312,1.7312;}
	.st19{fill:none;stroke:#000000;stroke-width:0.5;stroke-linecap:round;stroke-linejoin:round;stroke-dasharray:1.8264,1.8264;}
</style>
<linearGradient id="SVGID_1_" gradientUnits="userSpaceOnUse" x1="251.5127" y1="121.9414" x2="8.0943" y2="85.5801">
	<stop  offset="0" style="stop-color:#000000"/>
	<stop  offset="6.285286e-02" style="stop-color:#4C4C4E"/>
	<stop  offset="0.1601" style="stop-color:#75777A"/>
	<stop  offset="0.2621" style="stop-color:#97999C"/>
	<stop  offset="0.3668" style="stop-color:#B5B7B9"/>
	<stop  offset="0.475" style="stop-color:#CFD0D2"/>
	<stop  offset="0.5878" style="stop-color:#E2E3E4"/>
	<stop  offset="0.7072" style="stop-color:#F1F1F2"/>
	<stop  offset="0.8376" style="stop-color:#FAFAFA"/>
	<stop  offset="1" style="stop-color:#FFFFFF"/>
</linearGradient>
<polyline class="st0" points="171.6,120.4 171.3,120.6 163.2,124.5 162.8,128.7 164.7,129.9 165.5,129.9 165.5,128.7 171.3,125.2 
	171.5,127.4 160.5,133.8 151.8,129 86.9,90 87.2,71.9 171.3,119.7 "/>
<g>
	<text transform="matrix(1 0 0 1 2.383 32.9234)"><tspan x="0" y="0" class="st1 st2 st3">Cable </tspan><tspan x="0" y="11.7" class="st1 st2 st3">management </tspan><tspan x="0" y="23.4" class="st1 st2 st3">device</tspan></text>
</g>
<linearGradient id="SVGID_2_" gradientUnits="userSpaceOnUse" x1="292.3457" y1="-8.9094" x2="198.4796" y2="179.4382">
	<stop  offset="0" style="stop-color:#000000"/>
	<stop  offset="6.285286e-02" style="stop-color:#4C4C4E"/>
	<stop  offset="0.1601" style="stop-color:#75777A"/>
	<stop  offset="0.2621" style="stop-color:#97999C"/>
	<stop  offset="0.3668" style="stop-color:#B5B7B9"/>
	<stop  offset="0.475" style="stop-color:#CFD0D2"/>
	<stop  offset="0.5878" style="stop-color:#E2E3E4"/>
	<stop  offset="0.7072" style="stop-color:#F1F1F2"/>
	<stop  offset="0.8376" style="stop-color:#FAFAFA"/>
	<stop  offset="1" style="stop-color:#FFFFFF"/>
</linearGradient>
<polygon class="st4" points="172,140.2 328.4,50.9 327.4,11.9 171.5,101.3 "/>
<linearGradient id="SVGID_3_" gradientUnits="userSpaceOnUse" x1="238.9244" y1="-35.2515" x2="162.5658" y2="117.9663">
	<stop  offset="0" style="stop-color:#000000"/>
	<stop  offset="6.285286e-02" style="stop-color:#4C4C4E"/>
	<stop  offset="0.1601" style="stop-color:#75777A"/>
	<stop  offset="0.2621" style="stop-color:#97999C"/>
	<stop  offset="0.3668" style="stop-color:#B5B7B9"/>
	<stop  offset="0.475" style="stop-color:#CFD0D2"/>
	<stop  offset="0.5878" style="stop-color:#E2E3E4"/>
	<stop  offset="0.7072" style="stop-color:#F1F1F2"/>
	<stop  offset="0.8376" style="stop-color:#FAFAFA"/>
	<stop  offset="1" style="stop-color:#FFFFFF"/>
</linearGradient>
<polygon class="st5" points="305.6,0.7 327.4,11.9 171.5,101.3 84,50.9 175.7,0.5 "/>
<g>
	<line class="st6" x1="171.6" y1="119.7" x2="86.8" y2="71.2"/>
</g>
<g>
	<path class="st6" d="M86.4,81.3l-15.9,8.4c0,0-2.7,0.7-2.5,5.7s0.4,5.8,0.4,5.8l18.2-10.5"/>
	<path class="st7" d="M76.3,96.6c0,0,0.4-2.9-1.3-2.2l-3.8,2.1c0,0-1.7,0.8-1.1,3.7"/>
	<path class="st7" d="M75.7,97.3c0,0,1.5-1,2.7-0.3c0.1,0.1,0.9,0.5,2.1,1.2l71.6,41.2"/>
	<path class="st7" d="M151.3,140.9l-27-15.6L79.9,99.4c0,0-1.1-0.8-2.5-0.1s-3.4,2.2-3.4,2.2s-1,1.3,1.6,2.4s72.4,41.6,72.4,41.6
		s2.2,0.9,3.2-0.1"/>
	<path class="st7" d="M76.9,100.7l-1.1,0.7c0,0-1,1.1,0.9,2.1s44.3,25.3,44.3,25.3s1.1,0.7,2.3-0.3c1.2-1,1.1-0.7,1.1-0.7
		s1.2-1.1-0.4-1.5l-44.8-26.2c0,0-0.4-0.4-1.2,0.1C77.4,100.6,76.9,100.7,76.9,100.7z"/>
	<path class="st8" d="M81.3,99.2c0,0-3.1,1.3-2.2,4.8l1.9-1.2C81,102.8,80.4,101.7,81.3,99.2z"/>
	<path class="st8" d="M90.3,110.7l1.9-1c0,0-0.7-2.5,0.6-3.4c0,0-2.2-0.1-2.6,1.9C90.2,108.1,89.9,109.6,90.3,110.7z"/>
	<path class="st8" d="M104.4,112.4c0,0-3.3,0.1-2.8,4.8l2.3-1.3C103.8,115.8,103.7,112.9,104.4,112.4z"/>
	<path class="st8" d="M112.6,123.7l2.2-1.4c0,0-0.7-1.9,0.2-3C115,119.3,112.3,118.9,112.6,123.7z"/>
	<path class="st8" d="M91.5,106.3c0,0,2.8-2.6,6-0.3c3.2,2.3,4.1,5.2,3.9,7.8l-2.2,1.5C99.2,115.3,99.2,106.4,91.5,106.3z"/>
	<path class="st8" d="M108.7,112.6c1.8,0.9,3.5,3.1,3.9,7.9l-2.3,1.1c0,0,0.6-8.2-7.5-8.8C102.8,112.8,105,110.9,108.7,112.6z"/>
	<path class="st8" d="M114.1,119.4c0,0,3.8-3.3,7.3,0.6c3.7,4,2.7,7.2,2.7,7.2l-2,1.6C122.1,128.8,121.2,118.6,114.1,119.4z"/>
	<path class="st8" d="M80.2,99.8c0,0,3.2-2.9,7.1,0.5c4.1,3.6,2.7,8,2.7,8l-2,1.3C88,109.6,88.4,99.6,80.2,99.8z"/>
	<line class="st6" x1="82.9" y1="105.5" x2="84.8" y2="104.3"/>
	<line class="st6" x1="83.2" y1="106.3" x2="86" y2="104.7"/>
	<line class="st6" x1="94.3" y1="112" x2="96.3" y2="110.9"/>
	<line class="st6" x1="94.7" y1="112.8" x2="97.4" y2="111.2"/>
	<line class="st6" x1="105.7" y1="118.7" x2="107.7" y2="117.5"/>
	<line class="st6" x1="106.1" y1="119.5" x2="108.8" y2="117.9"/>
	<line class="st6" x1="116.9" y1="125.2" x2="118.8" y2="124"/>
	<line class="st6" x1="117.3" y1="126" x2="120" y2="124.4"/>
	<path class="st6" d="M151.2,149.2l7.1-3.5l1.4-2.4l11.3-6.1l-0.1-9l-16.4,9.4c0,0-3.3,1.2-3,7L151.2,149.2l-82-47.7"/>
	<path class="st7" d="M155.1,145.2c0,0.4,0.3,0.5,0.8,0.3c0.4-0.2,0.8-0.7,0.8-1c0-0.4-0.3-0.5-0.8-0.3S155.1,144.9,155.1,145.2z"/>
	<polyline class="st6" points="170.7,131.4 165.7,134.1 164.8,134.1 162.3,135.5 162.5,140.5 165.3,138.9 165.9,137.7 170.6,135.2 	
		"/>
	<line class="st6" x1="165.8" y1="137.6" x2="165.7" y2="134.3"/>
	<line class="st6" x1="168.6" y1="135.9" x2="168.5" y2="132.6"/>
	<path class="st6" d="M79.4,91.2c0,0.3,0.3,0.5,0.7,0.4c0.4-0.1,0.7-0.4,0.6-0.7c0-0.3-0.3-0.5-0.7-0.4
		C79.7,90.5,79.4,90.9,79.4,91.2z"/>
	<path class="st6" d="M72.5,97.2c0,0.3,0.3,0.5,0.7,0.4c0.4-0.1,0.7-0.4,0.6-0.7c0-0.3-0.3-0.5-0.7-0.4
		C72.8,96.5,72.5,96.8,72.5,97.2z"/>
</g>
<line class="st6" x1="160.3" y1="134.1" x2="86.7" y2="90.6"/>
<polyline class="st6" points="84,52.7 84,51 171.4,101.1 171.7,140.6 168.4,138.7 "/>
<line class="st6" x1="84" y1="72.8" x2="84" y2="58.1"/>
<path class="st6" d="M85.5,52.5l-6.6,3.7c0,0-0.6,1.7-0.4,3.4c0,0-0.7,0.7,1.6,1.9l1.6-0.8l-0.1-1.2l5-2.9"/>
<path class="st6" d="M85.5,72.3L78.9,76c0,0-0.6,1.7-0.4,3.4c0,0-0.7,0.7,1.6,1.9l1.6-0.8l-0.1-1.2l5-2.9"/>
<path class="st6" d="M170,120.8l-6.6,3.7c0,0-0.6,1.7-0.4,3.4c0,0-0.7,0.7,1.6,1.9l1.6-0.8l-0.1-1.2l5.2-3"/>
<line class="st6" x1="86.7" y1="52.7" x2="87.1" y2="90.6"/>
<polyline class="st6" points="306.6,0.8 327.7,12.1 171.4,101.1 "/>
<line class="st6" x1="84" y1="51" x2="175.9" y2="0.3"/>
<polyline class="st6" points="171.7,140.6 327.3,51.6 327.7,12.1 "/>
<g>
	<ellipse transform="matrix(0.4547 -0.8907 0.8907 0.4547 14.1973 226.8098)" cx="192.3" cy="101.8" rx="1" ry="0.7"/>
	
		<ellipse transform="matrix(0.4547 -0.8907 0.8907 0.4547 14.1973 226.8098)" class="st9" cx="192.3" cy="101.8" rx="0.6" ry="0.4"/>
	<ellipse transform="matrix(0.4547 -0.8907 0.8907 0.4547 20.0637 225.1185)" cx="193.9" cy="96.2" rx="0.7" ry="0.5"/>
	<ellipse transform="matrix(0.4547 -0.8907 0.8907 0.4547 20.0637 225.1185)" class="st9" cx="193.9" cy="96.2" rx="0.4" ry="0.3"/>
	<ellipse transform="matrix(0.4547 -0.8907 0.8907 0.4547 25.7351 228.2548)" cx="199.3" cy="93.1" rx="0.7" ry="0.5"/>
	<ellipse transform="matrix(0.4547 -0.8907 0.8907 0.4547 25.7351 228.2548)" class="st9" cx="199.3" cy="93.1" rx="0.4" ry="0.3"/>
	<ellipse transform="matrix(0.4868 -0.8735 0.8735 0.4868 18.8326 225.3518)" cx="201.2" cy="96.6" rx="1" ry="0.7"/>
	<ellipse transform="matrix(0.4868 -0.8735 0.8735 0.4868 18.8326 225.3518)" class="st9" cx="201.2" cy="96.6" rx="0.6" ry="0.4"/>
	<path class="st6" d="M201.2,94.1c2.6-0.8,3.1,2.7,3.1,2.7c0.5,2.3-1.9,3.7-1.9,3.7s-8.6,5.4-10.6,6c-1.6,0.4-1.9-1.2-1.9-1.8
		c0,0,0.1-4,2.2-5.3"/>
	<path class="st7" d="M188.9,109.5c-1.4-0.3-0.8-2.8-0.5-3.4c0.3-0.7,0.2-2,0.2-2c0-1.1-0.1-4.5-0.1-4.5s-0.1-1.8,0.9-2.3
		c0.9-0.5,14.8-8.7,14.8-8.7s1.4-0.9,1.5,0.5c0.1,1.4,0,4.7,0,4.7c-0.1,1.3,0.2,2.1,0.2,2.1s1.8,3.2-0.8,5c-2.8,1.9-14,8.3-14,8.3
		S189.9,109.7,188.9,109.5z"/>
	<path class="st10" d="M201.1,93.5l-9.3,5.4c0,0,0.7,0.3,0.5,0.9l9.3-5.4C201.7,93.5,201.1,93.5,201.1,93.5"/>
	<path class="st10" d="M204.3,90.8l-3.7,2.1c0,0,0.5,0.3,0.4,0.7l3.7-2.1C204.8,90.8,204.3,90.8,204.3,90.8"/>
	<path class="st10" d="M192.5,97.6l-3.2,1.8c0,0,0.4,0.4,0.3,0.8l3.3-1.9C193.1,97.7,192.5,97.6,192.5,97.6"/>
	<line class="st10" x1="200.7" y1="93.8" x2="200.7" y2="92.9"/>
</g>
<g>
	<ellipse transform="matrix(0.4547 -0.8907 0.8907 0.4547 95.5792 271.0741)" cx="269.2" cy="57.5" rx="1" ry="0.7"/>
	
		<ellipse transform="matrix(0.4547 -0.8907 0.8907 0.4547 95.5792 271.0741)" class="st11" cx="269.2" cy="57.5" rx="0.6" ry="0.4"/>
	<ellipse transform="matrix(0.4547 -0.8907 0.8907 0.4547 101.4457 269.3827)" cx="270.7" cy="51.9" rx="0.7" ry="0.5"/>
	
		<ellipse transform="matrix(0.4547 -0.8907 0.8907 0.4547 101.4457 269.3827)" class="st11" cx="270.7" cy="51.9" rx="0.4" ry="0.3"/>
	<ellipse transform="matrix(0.4547 -0.8907 0.8907 0.4547 107.117 272.519)" cx="276.1" cy="48.8" rx="0.7" ry="0.5"/>
	<ellipse transform="matrix(0.4547 -0.8907 0.8907 0.4547 107.117 272.519)" class="st11" cx="276.1" cy="48.8" rx="0.4" ry="0.3"/>
	<ellipse transform="matrix(0.4868 -0.8735 0.8735 0.4868 96.9806 269.7229)" cx="278" cy="52.3" rx="1" ry="0.7"/>
	<ellipse transform="matrix(0.4868 -0.8735 0.8735 0.4868 96.9806 269.7229)" class="st11" cx="278" cy="52.3" rx="0.6" ry="0.4"/>
	<path class="st12" d="M278,49.8c2.6-0.8,3.1,2.7,3.1,2.7c0.5,2.3-1.9,3.7-1.9,3.7s-8.6,5.4-10.6,6c-1.6,0.4-1.9-1.2-1.9-1.8
		c0,0,0.1-4,2.2-5.3"/>
	<path class="st13" d="M265.7,65.1c-1.4-0.3-0.8-2.8-0.5-3.4c0.3-0.7,0.2-2,0.2-2c0-1.1-0.1-4.5-0.1-4.5s-0.1-1.8,0.9-2.3
		c0.9-0.5,14.8-8.7,14.8-8.7s1.4-0.9,1.5,0.5s0,4.7,0,4.7c-0.1,1.3,0.2,2.1,0.2,2.1s1.8,3.2-0.8,5c-2.8,1.9-14,8.3-14,8.3
		S266.8,65.3,265.7,65.1z"/>
	<path class="st14" d="M278,49.2l-9.3,5.4c0,0,0.7,0.3,0.5,0.9l9.3-5.4C278.6,49.2,278,49.2,278,49.2"/>
	<path class="st14" d="M281.1,46.5l-3.7,2.1c0,0,0.5,0.3,0.4,0.7l3.7-2.1C281.6,46.5,281.1,46.5,281.1,46.5"/>
	<path class="st14" d="M269.3,53.3l-3.2,1.8c0,0,0.4,0.4,0.3,0.8l3.3-1.9C269.9,53.4,269.3,53.3,269.3,53.3"/>
	<line class="st14" x1="277.5" y1="49.5" x2="277.5" y2="48.6"/>
</g>
<linearGradient id="SVGID_4_" gradientUnits="userSpaceOnUse" x1="254.6851" y1="105.1836" x2="5.9261" y2="68.0246">
	<stop  offset="0" style="stop-color:#000000"/>
	<stop  offset="6.285286e-02" style="stop-color:#4C4C4E"/>
	<stop  offset="0.1601" style="stop-color:#75777A"/>
	<stop  offset="0.2621" style="stop-color:#97999C"/>
	<stop  offset="0.3668" style="stop-color:#B5B7B9"/>
	<stop  offset="0.475" style="stop-color:#CFD0D2"/>
	<stop  offset="0.5878" style="stop-color:#E2E3E4"/>
	<stop  offset="0.7072" style="stop-color:#F1F1F2"/>
	<stop  offset="0.8376" style="stop-color:#FAFAFA"/>
	<stop  offset="1" style="stop-color:#FFFFFF"/>
</linearGradient>
<polygon class="st15" points="87.8,71 86.9,53.1 170.3,101.1 163.5,105 162.7,108.6 164.6,110.4 166.4,109.6 166.4,108.4 171,105.7 
	171.2,107.9 171.6,119.7 "/>
<path class="st6" d="M170,101.2l-6.6,3.7c0,0-0.6,1.7-0.4,3.4c0,0-0.7,0.7,1.6,1.9l1.6-0.8l-0.1-1.2l5.2-3"/>
<line class="st6" x1="84" y1="82" x2="84" y2="78.2"/>
<g>
	<g>
		<g>
			<g>
				<path class="st7" d="M24.2,85.6c0,0,0.6-3.7-1.4-2.9l-4.3,2.2c0,0-1.9,0.8-1.4,4.1"/>
				<path class="st6" d="M23.6,85.9c0,0,1.7-1.1,3-0.2c0.1,0.1,1,0.6,2.4,1.5l79,49"/>
				<path class="st7" d="M107.1,137.8l-29.9-18.6l-49-30.8c0,0-1.2-1-2.8-0.3s-3.9,2.3-3.9,2.3s-1.1,1.5,1.7,2.8
					c2.8,1.3,79.9,49.6,79.9,49.6s2.4,1.1,3.6,0"/>
				<path class="st7" d="M24.8,89.7l-1.3,0.8c0,0-1.2,1.2,0.9,2.4S73.4,123,73.4,123s1.2,0.9,2.6-0.2c1.4-1.1,1.3-0.8,1.3-0.8
					s1.4-1.2-0.4-1.7L27.5,89.1c0,0-0.5-0.4-1.3,0C25.3,89.7,24.8,89.7,24.8,89.7z"/>
				<path class="st8" d="M29.8,88.3c0,0-3.6,1.3-2.6,5.3l2.2-1.3C29.4,92.3,28.7,91,29.8,88.3z"/>
				<path class="st8" d="M39.5,101.5l2.2-1.1c0,0-0.7-2.9,0.8-3.8c0,0-2.4-0.2-3,2.1C39.5,98.6,39.1,100.3,39.5,101.5z"/>
				<path class="st8" d="M55.3,104c0,0-3.7,0-3.4,5.3l2.7-1.4C54.5,107.8,54.5,104.5,55.3,104z"/>
				<path class="st8" d="M64.2,117l2.5-1.5c0,0-0.7-2.1,0.4-3.4C67,112.1,64,111.6,64.2,117z"/>
				<path class="st8" d="M41,96.6c0,0,3.3-2.8,6.8-0.1c3.5,2.7,4.4,6,4.1,8.9l-2.5,1.6C49.3,107,49.7,97,41,96.6z"/>
				<path class="st8" d="M60.1,104.4c2,1,3.8,3.6,4.1,9.1l-2.6,1.1c0,0,1-9.2-8.1-10.2C53.5,104.4,56.1,102.3,60.1,104.4z"/>
				<path class="st8" d="M65.9,112.2c0,0,4.4-3.5,8.2,1c4,4.6,2.8,8.2,2.8,8.2l-2.3,1.7C74.6,123.1,74,111.6,65.9,112.2z"/>
				<path class="st8" d="M28.6,88.8c0,0,3.7-3.2,8,0.9c4.5,4.2,2.7,9.1,2.7,9.1l-2.3,1.4C37,100.2,37.8,89,28.6,88.8z"/>
				<line class="st6" x1="31.3" y1="95.4" x2="33.6" y2="94.1"/>
				<line class="st6" x1="31.7" y1="96.3" x2="34.9" y2="94.6"/>
				<line class="st6" x1="44" y1="103.2" x2="46.2" y2="101.9"/>
				<line class="st6" x1="44.4" y1="104.1" x2="47.5" y2="102.4"/>
				<line class="st6" x1="56.6" y1="111.1" x2="58.8" y2="109.9"/>
				<line class="st6" x1="57" y1="112" x2="60.1" y2="110.3"/>
				<line class="st6" x1="68.9" y1="118.8" x2="71.1" y2="117.6"/>
				<line class="st6" x1="69.3" y1="119.8" x2="72.4" y2="118.1"/>
				<line class="st6" x1="106.6" y1="147.2" x2="16.1" y2="90.4"/>
				<polyline class="st6" points="36.1,71.9 35.2,72.3 34.7,72.1 31.8,73.6 31.8,78 32.4,78.1 35,76.8 35.1,76.3 36.1,75.8 				"/>
				<line class="st6" x1="35.1" y1="72.4" x2="35.2" y2="76.2"/>
				<path class="st6" d="M28.8,75.4c0,0.4,0.3,0.6,0.7,0.5c0.4-0.1,0.8-0.4,0.8-0.8s-0.3-0.6-0.7-0.5C29.2,74.7,28.8,75,28.8,75.4z"
					/>
				<path class="st6" d="M28.7,78.6c0,0.4,0.3,0.6,0.7,0.5c0.4-0.1,0.8-0.4,0.8-0.8c0-0.4-0.3-0.6-0.7-0.5
					C29.1,77.9,28.7,78.3,28.7,78.6z"/>
				<path class="st6" d="M20,85.6c0,0.4,0.3,0.6,0.7,0.5c0.4-0.1,0.8-0.4,0.8-0.8c0-0.4-0.3-0.6-0.7-0.5C20.3,84.9,20,85.3,20,85.6z
					"/>
			</g>
		</g>
		<path class="st6" d="M39.2,74.4l-3,1.5l-0.1-4.1l2.9-1.4c0,0,0.2-0.1,0.2,0.4s-0.2,1.1-0.1,2S39.6,74.2,39.2,74.4z"/>
		<path class="st6" d="M38.4,75.9l0,0.8l1.1-0.5c1.2,0,0.5,1.6,0.5,1.6L15.2,90.1c0,0-0.3-1-0.3-6.6c0-5.6,3.1-6.3,3.1-6.3l21.4-11
			c0,0,1.2-0.2,0.7,1.5l-1.3,0.8l0,1l0.2,0c0,0,0.9-0.7,1.1-0.2c0.2,0.5-0.4,2.6-0.3,3.4s0.6,2.1,0,2.7c-0.5,0.4-1.2,0.5-1.2,0.5
			L38.4,75.9z"/>
		<g>
			<path class="st10" d="M130,133.5l0,0.8l1.1-0.5c1.2,0,0.5,1.6,0.5,1.6l-24.8,12.2c0,0-0.3-1-0.3-6.6c0-5.6,3.1-6.3,3.1-6.3
				l21.4-11c0,0,1.2-0.2,0.7,1.5l-1.3,0.8l0,1l0.2,0c0,0,0.9-0.7,1.1-0.2c0.2,0.5-0.4,2.6-0.3,3.4c0.2,0.8,0.6,2.1,0,2.7
				c-0.5,0.4-1.2,0.5-1.2,0.5L130,133.5z"/>
			<polyline class="st6" points="127.7,129.5 126.9,129.9 126.4,129.6 123.4,131.1 123.4,135.6 124,135.7 126.6,134.4 126.7,133.8 
				127.8,133.3 			"/>
			<line class="st6" x1="126.7" y1="129.9" x2="126.8" y2="133.8"/>
			<path class="st6" d="M120.5,132.9c0,0.4,0.3,0.6,0.7,0.5c0.4-0.1,0.8-0.4,0.8-0.8c0-0.4-0.3-0.6-0.7-0.5
				C120.8,132.2,120.5,132.6,120.5,132.9z"/>
			<path class="st6" d="M120.4,136.2c0,0.4,0.3,0.6,0.7,0.5c0.4-0.1,0.8-0.4,0.8-0.8s-0.3-0.6-0.7-0.5
				C120.7,135.5,120.4,135.8,120.4,136.2z"/>
			<path class="st6" d="M130.8,132l-3,1.5l-0.1-4.1l2.9-1.4c0,0,0.2-0.1,0.2,0.4c0,0.4-0.2,1.1-0.1,2
				C130.9,131.2,131.2,131.8,130.8,132z"/>
		</g>
	</g>
	<path class="st7" d="M113.2,142.1c0,0.4,0.4,0.6,0.9,0.4s0.9-0.7,0.9-1.1c0-0.4-0.4-0.6-0.9-0.4
		C113.6,141.2,113.2,141.7,113.2,142.1z"/>
</g>
<path class="st7" d="M20.3,85.4"/>
<line class="st16" x1="40.9" y1="73.7" x2="84.5" y2="62.5"/>
<g>
	<g>
		<line class="st17" x1="40.9" y1="73.7" x2="41.7" y2="73.5"/>
		<line class="st18" x1="43.4" y1="73.1" x2="82.8" y2="62.9"/>
		<line class="st17" x1="83.6" y1="62.7" x2="84.5" y2="62.5"/>
	</g>
</g>
<g>
	<line class="st16" x1="133.7" y1="128.4" x2="170.8" y2="113.1"/>
	<g>
		<g>
			<line class="st17" x1="133.7" y1="128.4" x2="134.5" y2="128.1"/>
			<line class="st19" x1="136.2" y1="127.4" x2="169.1" y2="113.8"/>
			<line class="st17" x1="169.9" y1="113.5" x2="170.8" y2="113.1"/>
		</g>
	</g>
</g>
</svg>
