<?xml version="1.0" encoding="utf-8"?>
<!-- Generator: Adobe Illustrator 19.1.0, SVG Export Plug-In . SVG Version: 6.00 Build 0)  -->
<svg version="1.1" xmlns="http://www.w3.org/2000/svg" xmlns:xlink="http://www.w3.org/1999/xlink" x="0px" y="0px" width="396px"
	 height="348.4px" viewBox="0 0 396 348.4" style="enable-background:new 0 0 396 348.4;" xml:space="preserve">
<style type="text/css">
	.st0{clip-path:url(#SVGID_2_);}
	.st1{fill:none;stroke:#000000;stroke-width:0.5;stroke-linecap:round;stroke-linejoin:round;stroke-miterlimit:10;}
	.st2{fill:#FFFFFF;}
	.st3{font-family:'MyriadPro-Regular';}
	.st4{font-size:14.3148px;}
	
		.st5{clip-path:url(#SVGID_2_);fill:#FFFFFF;stroke:#FFFFFF;stroke-width:1.2905;stroke-linecap:round;stroke-linejoin:round;stroke-miterlimit:10;}
	.st6{clip-path:url(#SVGID_4_);}
	.st7{fill:#FFFFFF;stroke:#FFFFFF;stroke-width:2.5809;stroke-linecap:round;stroke-linejoin:round;stroke-miterlimit:10;}
	.st8{fill:none;stroke:#231F20;stroke-width:1.2905;stroke-linecap:round;stroke-linejoin:round;}
	.st9{fill:none;stroke:#231F20;stroke-width:1.2905;stroke-linecap:round;stroke-linejoin:round;stroke-dasharray:3.074,3.074;}
	.st10{clip-path:url(#SVGID_6_);}
	.st11{fill:none;stroke:#FFFFFF;stroke-width:2.5809;stroke-linecap:round;stroke-linejoin:round;stroke-miterlimit:10;}
	.st12{fill:none;stroke:#231F20;stroke-width:1.2905;stroke-linecap:round;stroke-linejoin:round;stroke-dasharray:2.9835,2.9835;}
	.st13{fill:none;stroke:#231F20;stroke-width:1.2905;stroke-linecap:round;stroke-linejoin:round;stroke-dasharray:2.9305,2.9305;}
	.st14{fill:none;}
	.st15{fill:none;stroke:#000000;stroke-width:0.6452;stroke-linecap:round;stroke-linejoin:round;stroke-miterlimit:10;}
	.st16{fill:none;stroke:#000000;stroke-width:0.8603;stroke-linecap:round;stroke-linejoin:round;stroke-miterlimit:10;}
	.st17{fill:#FFFFFF;stroke:#FFFFFF;stroke-width:3.4412;stroke-miterlimit:10;}
	.st18{clip-path:url(#SVGID_8_);}
	.st19{clip-path:url(#SVGID_10_);}
	.st20{fill:none;stroke:#000000;stroke-width:0.8126;stroke-linecap:round;stroke-linejoin:round;stroke-miterlimit:10;}
	.st21{fill:none;stroke:#000000;stroke-width:0.5709;stroke-linecap:round;stroke-linejoin:round;stroke-miterlimit:10;}
	.st22{clip-path:url(#SVGID_12_);}
	.st23{fill:none;stroke:#000000;stroke-width:0.7612;stroke-linecap:round;stroke-linejoin:round;stroke-miterlimit:10;}
	
		.st24{clip-path:url(#SVGID_8_);fill:none;stroke:#000000;stroke-width:0.3806;stroke-linecap:round;stroke-linejoin:round;stroke-miterlimit:10;}
	
		.st25{clip-path:url(#SVGID_8_);fill:#FFFFFF;stroke:#000000;stroke-width:0.5219;stroke-linecap:round;stroke-linejoin:round;stroke-miterlimit:10;}
	.st26{font-size:12.6652px;}
	.st27{fill:#BBBDBF;stroke:#231F20;stroke-width:0.3438;stroke-linecap:round;stroke-linejoin:round;stroke-miterlimit:10;}
	.st28{fill:none;stroke:#231F20;stroke-width:0.3438;stroke-linecap:round;stroke-linejoin:round;stroke-miterlimit:10;}
	.st29{fill:none;stroke:#231F20;stroke-width:0.6875;stroke-linecap:round;stroke-linejoin:round;stroke-miterlimit:10;}
	.st30{font-size:9.134px;}
	.st31{font-size:7.6117px;}
	.st32{fill:#FFFFFF;stroke:#FFFFFF;stroke-width:2.2835;stroke-linecap:round;stroke-linejoin:round;stroke-miterlimit:10;}
	.st33{fill:none;stroke:#231F20;stroke-width:1.1418;stroke-linecap:round;stroke-linejoin:round;}
	.st34{fill:none;stroke:#231F20;stroke-width:1.1418;stroke-linecap:round;stroke-linejoin:round;stroke-dasharray:2.4824,2.4824;}
	.st35{font-size:10.3237px;}
	.st36{fill:#FFFFFF;stroke:#FFFFFF;stroke-width:2.3159;stroke-miterlimit:10;}
	.st37{clip-path:url(#SVGID_14_);}
	.st38{clip-path:url(#SVGID_16_);}
	.st39{fill:#FFFFFF;stroke:#000000;stroke-width:0.5219;stroke-linecap:round;stroke-linejoin:round;stroke-miterlimit:10;}
	.st40{fill:none;stroke:#231F20;stroke-width:1.1418;stroke-linecap:round;stroke-linejoin:round;stroke-dasharray:3.0788,3.0788;}
	.st41{clip-path:url(#SVGID_14_);fill:#FFFFFF;stroke:#000000;stroke-width:0.4302;stroke-miterlimit:10;}
	
		.st42{clip-path:url(#SVGID_14_);fill:#FFFFFF;stroke:#000000;stroke-width:0.4302;stroke-linecap:round;stroke-linejoin:round;stroke-miterlimit:10;}
	
		.st43{clip-path:url(#SVGID_14_);fill:#FFFFFF;stroke:#000000;stroke-width:0.5418;stroke-linecap:round;stroke-linejoin:round;stroke-miterlimit:10;}
	
		.st44{clip-path:url(#SVGID_14_);fill:#FFFFFF;stroke:#000000;stroke-width:0.1899;stroke-linecap:round;stroke-linejoin:round;stroke-miterlimit:10;}
	.st45{font-size:12.6651px;}
	.st46{font-size:8.8713px;}
	.st47{font-size:9.4634px;}
	.st48{clip-path:url(#SVGID_2_);fill:#FFFFFF;stroke:#000000;stroke-width:1.2905;stroke-miterlimit:10;}
	.st49{clip-path:url(#SVGID_2_);fill:none;stroke:#FFFFFF;stroke-width:2.5809;stroke-miterlimit:10;}
</style>
<g id="Rack">
</g>
<g id="Rail">
</g>
<g id="ThroughTheRack_copy">
</g>
<g id="ThroughTheRack_copy_2">
	<g>
		<defs>
			<rect id="SVGID_1_" x="2.4" width="393.6" height="347.6"/>
		</defs>
		<clipPath id="SVGID_2_">
			<use xlink:href="#SVGID_1_"  style="overflow:visible;"/>
		</clipPath>
		<g class="st0">
			<line class="st1" x1="154.2" y1="-40.9" x2="152.2" y2="457.3"/>
			<line class="st1" x1="137.6" y1="-46.1" x2="135.6" y2="452.1"/>
			<line class="st1" x1="134.3" y1="-47.1" x2="132.3" y2="451"/>
			<polygon class="st1" points="150.1,-18.3 141.4,-21 141.5,-30.2 150.1,-27.6 			"/>
			<polygon class="st1" points="150,-5.2 141.4,-7.9 141.4,-17.2 150,-14.5 			"/>
			<polygon class="st1" points="150,7.8 141.3,5.1 141.4,-4.1 150,-1.4 			"/>
			<polygon class="st1" points="149.9,20.9 141.3,18.2 141.3,8.9 149.9,11.6 			"/>
			<polygon class="st1" points="149.9,33.9 141.2,31.3 141.3,22 149.9,24.7 			"/>
			<polygon class="st1" points="149.8,47 141.2,44.3 141.2,35 149.8,37.7 			"/>
			<polygon class="st1" points="149.7,60 141.1,57.4 141.2,48.1 149.8,50.8 			"/>
			<polygon class="st1" points="149.7,73.1 141.1,70.4 141.1,61.1 149.7,63.8 			"/>
			<polygon class="st1" points="149.6,86.2 141,83.5 141.1,74.2 149.7,76.9 			"/>
			<polygon class="st1" points="149.6,99.2 141,96.5 141,87.2 149.6,89.9 			"/>
			<polygon class="st1" points="149.5,112.3 140.9,109.6 141,100.3 149.6,103 			"/>
			<polygon class="st1" points="149.5,125.3 140.9,122.6 140.9,113.3 149.5,116 			"/>
			<polygon class="st1" points="149.4,138.4 140.8,135.7 140.9,126.4 149.5,129.1 			"/>
			<polygon class="st1" points="149.4,151.4 140.8,148.7 140.8,139.5 149.4,142.1 			"/>
			<polygon class="st1" points="149.3,164.5 140.7,161.8 140.7,152.5 149.4,155.2 			"/>
			<polygon class="st1" points="149.3,177.5 140.7,174.8 140.7,165.6 149.3,168.2 			"/>
			<polygon class="st1" points="149.2,190.6 140.6,187.9 140.6,178.6 149.3,181.3 			"/>
			<polygon class="st1" points="149.2,203.6 140.6,200.9 140.6,191.7 149.2,194.3 			"/>
			<polygon class="st1" points="149.1,216.7 140.5,214 140.5,204.7 149.2,207.4 			"/>
			<polygon class="st1" points="149.1,229.7 140.5,227 140.5,217.8 149.1,220.5 			"/>
			<polygon class="st1" points="149,243.2 140.4,240.5 140.4,231.2 149,233.9 			"/>
			<polygon class="st1" points="148.9,256.2 140.3,253.5 140.4,244.2 149,246.9 			"/>
			<polygon class="st1" points="148.9,269.3 140.3,266.6 140.3,257.3 148.9,260 			"/>
			<polygon class="st1" points="148.8,282.3 140.2,279.6 140.3,270.3 148.9,273 			"/>
			<polygon class="st1" points="148.8,295.4 140.2,292.7 140.2,283.4 148.8,286.1 			"/>
			<polygon class="st1" points="148.7,308.4 140.1,305.7 140.2,296.5 148.8,299.1 			"/>
			<polygon class="st1" points="148.7,321.5 140.1,318.8 140.1,309.5 148.7,312.2 			"/>
			<polygon class="st1" points="148.6,334.5 140,331.8 140,322.6 148.7,325.2 			"/>
			<polygon class="st1" points="148.6,347.6 140,344.9 140,335.6 148.6,338.3 			"/>
			<polygon class="st1" points="148.5,360.6 139.9,357.9 139.9,348.7 148.6,351.4 			"/>
			<polygon class="st1" points="148.5,373.7 139.9,371 139.9,361.7 148.5,364.4 			"/>
			<polygon class="st1" points="148.4,386.6 139.8,383.9 139.8,374.6 148.4,377.3 			"/>
			<polygon class="st1" points="148.3,399.6 139.7,396.9 139.8,387.6 148.4,390.3 			"/>
			<polygon class="st1" points="148.3,412.7 139.7,410 139.7,400.7 148.3,403.4 			"/>
			<polygon class="st1" points="148.2,425.7 139.6,423 139.7,413.7 148.3,416.4 			"/>
			<polygon class="st1" points="148.2,438.8 139.6,436.1 139.6,426.8 148.2,429.5 			"/>
			<polygon class="st1" points="148.1,451.8 139.5,449.1 139.6,439.9 148.2,442.5 			"/>
		</g>
		<g class="st0">
			<line class="st1" x1="296.1" y1="-13.5" x2="294.4" y2="391"/>
			<line class="st1" x1="282.6" y1="-17.8" x2="281" y2="386.8"/>
			<line class="st1" x1="279.9" y1="-18.6" x2="278.3" y2="386"/>
			<polygon class="st1" points="292.7,4.9 285.7,2.7 285.7,-4.9 292.7,-2.7 			"/>
			<polygon class="st1" points="292.7,15.5 285.7,13.3 285.7,5.7 292.7,7.9 			"/>
			<polygon class="st1" points="292.6,26.1 285.6,23.9 285.7,16.3 292.7,18.5 			"/>
			<polygon class="st1" points="292.6,36.7 285.6,34.5 285.6,26.9 292.6,29.1 			"/>
			<polygon class="st1" points="292.5,47.3 285.5,45.1 285.6,37.5 292.6,39.7 			"/>
			<polygon class="st1" points="292.5,57.9 285.5,55.7 285.5,48.1 292.5,50.3 			"/>
			<polygon class="st1" points="292.5,68.5 285.5,66.3 285.5,58.7 292.5,60.9 			"/>
			<polygon class="st1" points="292.4,79.1 285.4,76.9 285.4,69.3 292.4,71.5 			"/>
			<polygon class="st1" points="292.4,89.7 285.4,87.5 285.4,79.9 292.4,82.1 			"/>
			<polygon class="st1" points="292.3,100.3 285.3,98.1 285.4,90.5 292.4,92.7 			"/>
			<polygon class="st1" points="292.3,110.9 285.3,108.7 285.3,101.1 292.3,103.3 			"/>
			<polygon class="st1" points="292.2,121.5 285.2,119.3 285.3,111.7 292.3,113.9 			"/>
			<polygon class="st1" points="292.2,132.1 285.2,129.9 285.2,122.3 292.2,124.5 			"/>
			<polygon class="st1" points="292.2,142.7 285.2,140.5 285.2,132.9 292.2,135.1 			"/>
			<polygon class="st1" points="292.1,153.3 285.1,151.1 285.1,143.5 292.1,145.7 			"/>
			<polygon class="st1" points="292.1,163.9 285.1,161.7 285.1,154.1 292.1,156.3 			"/>
			<polygon class="st1" points="292,174.5 285,172.3 285.1,164.7 292.1,166.9 			"/>
			<polygon class="st1" points="292,185.1 285,182.9 285,175.3 292,177.5 			"/>
			<polygon class="st1" points="291.9,195.7 284.9,193.5 285,185.9 292,188.1 			"/>
			<polygon class="st1" points="291.9,206.3 284.9,204.1 284.9,196.5 291.9,198.7 			"/>
			<polygon class="st1" points="291.8,217.2 284.8,215 284.9,207.4 291.9,209.6 			"/>
			<polygon class="st1" points="291.8,227.8 284.8,225.6 284.8,218 291.8,220.2 			"/>
			<polygon class="st1" points="291.8,238.4 284.8,236.2 284.8,228.6 291.8,230.8 			"/>
			<polygon class="st1" points="291.7,249 284.7,246.8 284.7,239.2 291.7,241.4 			"/>
			<polygon class="st1" points="291.7,259.6 284.7,257.4 284.7,249.8 291.7,252 			"/>
			<polygon class="st1" points="291.6,270.2 284.6,268 284.7,260.4 291.7,262.6 			"/>
			<polygon class="st1" points="291.6,280.8 284.6,278.6 284.6,271 291.6,273.2 			"/>
			<polygon class="st1" points="291.5,291.4 284.5,289.2 284.6,281.6 291.6,283.8 			"/>
			<polygon class="st1" points="291.5,302 284.5,299.8 284.5,292.2 291.5,294.4 			"/>
			<polygon class="st1" points="291.5,312.6 284.5,310.4 284.5,302.8 291.5,305 			"/>
			<polygon class="st1" points="291.4,323.2 284.4,321 284.5,313.4 291.5,315.6 			"/>
			<polygon class="st1" points="291.4,333.6 284.4,331.4 284.4,323.9 291.4,326.1 			"/>
			<polygon class="st1" points="291.3,344.2 284.3,342 284.3,334.5 291.3,336.7 			"/>
			<polygon class="st1" points="291.3,354.8 284.3,352.6 284.3,345.1 291.3,347.3 			"/>
			<polygon class="st1" points="291.2,365.4 284.2,363.2 284.3,355.7 291.3,357.9 			"/>
			<polygon class="st1" points="291.2,376 284.2,373.8 284.2,366.3 291.2,368.5 			"/>
			<polygon class="st1" points="291.1,386.6 284.1,384.4 284.2,376.9 291.2,379.1 			"/>
		</g>
		<circle class="st0" cx="156.5" cy="311.4" r="8.6"/>
		<g class="st0">
			<text transform="matrix(0.9986 5.312987e-02 -5.312987e-02 0.9986 152.5804 315.7287)" class="st2 st3 st4">1</text>
		</g>
		<polyline class="st5" points="284.8,173.3 277.3,178 273.8,175.8 281.3,171.2 280.1,170.4 286.1,170.9 286,174.1 284.8,173.3 		
			"/>
		<polyline class="st0" points="284.8,173.3 277.3,178 273.8,175.8 281.3,171.2 280.1,170.4 286.1,170.9 286,174.1 284.8,173.3 		
			"/>
		<polyline class="st5" points="284.8,150.9 277.3,155.5 273.8,153.3 281.3,148.7 280.1,147.9 286.1,148.4 286,151.6 284.8,150.9 		
			"/>
		<polyline class="st0" points="284.8,150.9 277.3,155.5 273.8,153.3 281.3,148.7 280.1,147.9 286.1,148.4 286,151.6 284.8,150.9 		
			"/>
		<circle class="st0" cx="355.8" cy="136.3" r="8.6"/>
		<g class="st0">
			<text transform="matrix(0.9986 5.312987e-02 -5.312987e-02 0.9986 351.8724 140.5633)" class="st2 st3 st4">2</text>
		</g>
		<g class="st0">
			<defs>
				<rect id="SVGID_3_" x="153.4" y="267.5" width="13.3" height="36.7"/>
			</defs>
			<clipPath id="SVGID_4_">
				<use xlink:href="#SVGID_3_"  style="overflow:visible;"/>
			</clipPath>
			<g class="st6">
				<line class="st7" x1="122.5" y1="288.4" x2="161.9" y2="269"/>
				<g>
					<line class="st2" x1="122.5" y1="288.4" x2="161.1" y2="269.7"/>
					<g>
						<line class="st8" x1="122.5" y1="288.4" x2="123.8" y2="287.7"/>
						<line class="st9" x1="126.6" y1="286.4" x2="158.4" y2="271"/>
						<line class="st8" x1="159.8" y1="270.3" x2="161.1" y2="269.7"/>
					</g>
				</g>
			</g>
			<g class="st6">
				<line class="st7" x1="122.5" y1="300.4" x2="161.9" y2="281"/>
				<g>
					<line class="st2" x1="122.5" y1="300.4" x2="161.1" y2="281.7"/>
					<g>
						<line class="st8" x1="122.5" y1="300.4" x2="123.8" y2="299.7"/>
						<line class="st9" x1="126.6" y1="298.4" x2="158.4" y2="283"/>
						<line class="st8" x1="159.8" y1="282.3" x2="161.1" y2="281.7"/>
					</g>
				</g>
			</g>
			<g class="st6">
				<line class="st7" x1="122.5" y1="311.7" x2="161.9" y2="292.3"/>
				<g>
					<line class="st2" x1="122.5" y1="311.7" x2="161.1" y2="293"/>
					<g>
						<line class="st8" x1="122.5" y1="311.7" x2="123.8" y2="311"/>
						<line class="st9" x1="126.6" y1="309.7" x2="158.4" y2="294.3"/>
						<line class="st8" x1="159.8" y1="293.6" x2="161.1" y2="293"/>
					</g>
				</g>
			</g>
		</g>
		<g class="st0">
			<defs>
				<rect id="SVGID_5_" x="126" y="267.5" width="22.4" height="58.7"/>
			</defs>
			<clipPath id="SVGID_6_">
				<use xlink:href="#SVGID_5_"  style="overflow:visible;"/>
			</clipPath>
			<g class="st10">
				<line class="st7" x1="122.5" y1="288.4" x2="161.9" y2="269"/>
				<g>
					<line class="st2" x1="122.5" y1="288.4" x2="161.1" y2="269.7"/>
					<g>
						<line class="st8" x1="122.5" y1="288.4" x2="123.8" y2="287.7"/>
						<line class="st9" x1="126.6" y1="286.4" x2="158.4" y2="271"/>
						<line class="st8" x1="159.8" y1="270.3" x2="161.1" y2="269.7"/>
					</g>
				</g>
			</g>
			<g class="st10">
				<line class="st7" x1="122.5" y1="300.4" x2="161.9" y2="281"/>
				<g>
					<line class="st2" x1="122.5" y1="300.4" x2="161.1" y2="281.7"/>
					<g>
						<line class="st8" x1="122.5" y1="300.4" x2="123.8" y2="299.7"/>
						<line class="st9" x1="126.6" y1="298.4" x2="158.4" y2="283"/>
						<line class="st8" x1="159.8" y1="282.3" x2="161.1" y2="281.7"/>
					</g>
				</g>
			</g>
			<g class="st10">
				<line class="st7" x1="122.5" y1="311.7" x2="161.9" y2="292.3"/>
				<g>
					<line class="st2" x1="122.5" y1="311.7" x2="161.1" y2="293"/>
					<g>
						<line class="st8" x1="122.5" y1="311.7" x2="123.8" y2="311"/>
						<line class="st9" x1="126.6" y1="309.7" x2="158.4" y2="294.3"/>
						<line class="st8" x1="159.8" y1="293.6" x2="161.1" y2="293"/>
					</g>
				</g>
			</g>
		</g>
		<polyline class="st0" points="118.8,288 128.1,283.3 132,286.2 122.7,290.9 124,292 117,290.8 117.5,286.9 118.8,288 		"/>
		<polyline class="st0" points="118.8,300 128.1,295.3 132,298.3 122.7,303 124,304 117,302.8 117.5,299 118.8,300 		"/>
		<polyline class="st0" points="118.8,311.3 128.1,306.6 132,309.5 122.7,314.2 124,315.3 117,314.1 117.5,310.2 118.8,311.3 		"/>
		<path class="st0" d="M364.1,160.5c0.1,0-2.7-6.6-7.9-7.2c-5.1-0.6-11.5-0.1-11.5-0.1l0,5.3l-10.5-7.6l10.4-8.6l0,4.6
			c0,0,12.1-1,15.3,1.7C364.9,153,364,160.5,364.1,160.5"/>
		<g class="st0">
			<path class="st11" d="M273.8,155.5c0,0-32.4,19.8,75.3,7.4"/>
			<path class="st11" d="M273.8,178.5c0,0-26.4,15.9,83.6,10.7"/>
			<path class="st11" d="M355.3,169.3"/>
		</g>
		<g class="st0">
			<g>
				<g>
					<path class="st8" d="M273.8,155.5c0,0-0.5,0.3-1.3,0.8"/>
					<path class="st12" d="M270.4,158.3c-4.1,4.7-2.4,13,75.8,4.9"/>
					<path class="st8" d="M347.6,163.1c0.5-0.1,1-0.1,1.5-0.2"/>
				</g>
			</g>
			<g>
				<g>
					<path class="st8" d="M273.8,178.5c0,0-0.6,0.3-1.2,0.9"/>
					<path class="st13" d="M270.9,181.7c-1.2,4.2,8.2,10.8,83.6,7.6"/>
					<path class="st8" d="M355.9,189.2c0.5,0,1,0,1.5-0.1"/>
				</g>
			</g>
			<g>
				<path class="st14" d="M355.3,169.3"/>
			</g>
		</g>
		<g class="st0">
			<polyline class="st15" points="358.5,188.7 360.5,187.6 360.5,189.8 362.3,188.9 362.2,186.4 358.8,185.5 355.1,187.4 			"/>
			<g>
				<path class="st2" d="M358.1,166.7c-0.9-1.5-3.7-1.8-3.7-1.8c-0.7-0.1-5.3,0.4-5.3,0.4l-178.8,88.6c-0.8,0.9,0.2,1.3,0.2,1.3
					c0.9,0.2,2.4,0.6,4.5,1c3.8,0.7,3.9,3.3,3.9,3.3c-0.2,2.6-1.9-0.3-1.9-0.3l-0.3-0.2c-1.3-0.8-2.2,0.6-2.2,0.6s-2,2.1-3.4,3.5
					c-1.3,1.4-3.2,1.1-3.2,1.1s-1.8,0.2-2.1-1.2c-0.3-1.4,1.6-2.2,1.6-2.2s2.3-0.2,4-0.2c1.7,0,1.6-0.7,1.6-0.7
					c0.2-0.4-0.7-0.6-0.7-0.6l-5.1,0.3c0,0-2.6,0.6-3,2.7l-0.1,0c0,0-0.7,4.7-0.7,6.7c0,1.9,1.3,2.6,1.3,2.6l1,0.6
					c-0.8,0.3-2.1,1-2.4,2.5l-0.2,0.8c0,0-0.1,4.1-0.1,6c0,1.9,1.3,2.6,1.3,2.6l0.6,0.4c-0.8,0.4-1.9,1.1-2.1,2.4l-0.3,1.3
					c0,0-0.1,4.1-0.1,6c0,1.9,1.3,2.6,1.3,2.6c0.4,0.5,2.1,0.8,2.1,0.8s0.6,0.2,1.5,0.2l1.5-0.2c1.7-0.7,3.3-3.4,3.6-4.5
					c0.2-1,1.1-1.8,1.1-1.8l-0.3,0.9c0,0-0.2,1.5,1.6,2c1.8,0.6,11.4,3.5,11.4,3.5s4.1,1.1,6-0.9c1.9-2,174.2-103.6,174.2-103.6
					s0.4-0.6,0.3-1.2l-0.4-1.4l-1.2-0.7c-2-0.4-7.7-0.9-7.7-0.9L358.1,166.7z"/>
				<path class="st16" d="M195.6,298.5"/>
			</g>
			<g>
				<polyline class="st1" points="357.7,170.2 358.6,169.8 358.6,172 360.3,171.1 360.3,168.6 356.8,167.7 353.2,169.6 				"/>
				<path class="st1" d="M161.7,284.7c0,0,0.2,4.2,0.1,6.1c-0.1,2.6,1,3,1,3l4.2,2.2c0,0,1.8,1,4.1-0.8l2.2-1.2l184.3-105.7
					l0.2-15.1"/>
				<path class="st1" d="M357.7,170.2L357.7,170.2c0.2,2.3-4.4,5-4.6,0.7l0-2.7l-0.8-0.9l1.6-0.9l1.7,0.8l4.4-2l-0.2-0.4l-0.5-0.8
					l-3.8-0.9l-2.1,0.2l-183,90.7c-0.8,0.9,0.2,1.3,0.2,1.3c0.9,0.2,2.4,0.6,4.5,1c3.8,0.7,3,2.8,3,2.8c0.3,0.8-0.7,3-0.7,3l-4.9,3
					c-2.9,2.1-4.8,0.6-4.8,0.6l-5.7-3c0,0-0.2-0.8-0.1-1.1c0,0,1.3-1.5,6.1-3.6c0,0,1.5-0.6,2.3,0.7c0,0-5.5,2.9-5.6,3.2
					c-0.1,0.3,3.3,2.1,3.3,2.1s1.4,1,3-0.2l5.2-2.9c0,0,1-2,0.3-2.4c-0.6-0.4-6.1-1.7-6.1-1.7s-0.4-0.7-0.4-2.2"/>
				<line class="st1" x1="180.6" y1="256.4" x2="351" y2="169.1"/>
				<path class="st1" d="M358.4,166.6"/>
				<path class="st1" d="M358.1,171.5"/>
				<path class="st1" d="M175,264.1"/>
				<path class="st1" d="M175.5,272.5L171,275c-1.6,1.2-3,0.2-3,0.2s-3.4-1.8-3.3-2.1c0-0.1,0.2-0.2,0.4-0.2"/>
				
					<ellipse transform="matrix(0.9975 -7.116362e-02 7.116362e-02 0.9975 -18.6631 12.4388)" class="st1" cx="165.2" cy="268.1" rx="1" ry="1.6"/>
				<path class="st1" d="M358.1,177.6"/>
				<path class="st1" d="M358.1,190"/>
				<path class="st1" d="M164.1,282.8c-1,0.3-1.9,0.8-2.3,1.5c-0.2,0.3,0.1,1.1,0.1,1.1l5.7,3c0,0,1.7,1.2,4.8-0.6l2.9-1.6
					c0,0,0.5-0.3,0.5-1.4s-0.2-2.7-0.2-2.7c0-1.4-1-0.7-1-0.7l-3.6,2c-2.2,1.8-4.1,0.8-4.1,0.8l-4.2-2.2c0,0-1.1-0.3-1-3
					c0.1-1.9-0.1-6.1-0.1-6.1"/>
				<path class="st1" d="M164.1,271.6c-1,0.3-1.9,0.8-2.3,1.5c-0.2,0.3,0.1,1.1,0.1,1.1l5.7,3c0,0,1.7,1.2,4.8-0.6l2.9-1.6
					c0,0,0.5-0.3,0.5-1.4s-0.2-2.7-0.2-2.7c0-1.4-1-0.7-1-0.7l-3.6,2c-2.2,1.8-4.1,0.8-4.1,0.8l-4.2-2.2c0,0-1.1-0.3-1-3
					c0.1-1.9-0.1-6.1-0.1-6.1"/>
				<path class="st1" d="M175,284.3l-4,2.3c-1.6,1.2-3,0.2-3,0.2s-3.4-1.8-3.3-2.1c0.1-0.3,1.6-0.6,1.6-0.6"/>
				
					<ellipse transform="matrix(0.9975 -7.116362e-02 7.116362e-02 0.9975 -19.4744 12.4677)" class="st1" cx="165.2" cy="279.5" rx="1" ry="1.6"/>
				
					<ellipse transform="matrix(0.9975 -7.116362e-02 7.116362e-02 0.9975 -20.2993 12.4971)" class="st1" cx="165.2" cy="291.1" rx="1" ry="1.6"/>
				<path class="st1" d="M171.9,294.8c1.8,0.6,13.3,4.6,13.3,4.6s3,1.1,6-0.9c2.3-1.5,174.8-106.8,174.8-106.8s1.2-1.7-0.8-2
					c-2-0.4-7.7-0.9-7.7-0.9"/>
				<path class="st1" d="M366.3,190.3l0.4,1.4c0.1,0.6-0.3,1.2-0.3,1.2S194.1,297.8,191.9,299.4c-3.2,2.4-6.6,1.1-6.6,1.1l-14.4-5"
					/>
			</g>
			<line class="st15" x1="358.4" y1="172.1" x2="357.5" y2="171.8"/>
		</g>
		<g class="st0">
			<rect x="4.3" y="126.1" class="st17" width="153" height="118.3"/>
			<g>
				<defs>
					<rect id="SVGID_7_" x="4" y="126.4" width="153.4" height="117.8"/>
				</defs>
				<clipPath id="SVGID_8_">
					<use xlink:href="#SVGID_7_"  style="overflow:visible;"/>
				</clipPath>
				<g class="st18">
					<polygon class="st2" points="112.3,162.3 126.8,166.5 126.6,169.8 112.1,165.5 					"/>
					<polygon class="st2" points="112.3,173.8 126.8,178 126.6,181.2 112.1,177 					"/>
					<rect x="112.1" y="153.5" class="st2" width="3.4" height="36.5"/>
					<g>
						<line class="st1" x1="113.3" y1="-125" x2="111.5" y2="315.8"/>
						<line class="st1" x1="110.4" y1="-125.9" x2="108.6" y2="314.9"/>
						<polygon class="st1" points="124.3,-100.4 116.7,-102.8 116.7,-111 124.4,-108.6 						"/>
						<polygon class="st1" points="124.3,-88.8 116.7,-91.2 116.7,-99.4 124.3,-97 						"/>
						<polygon class="st1" points="124.2,-77.3 116.6,-79.7 116.6,-87.9 124.3,-85.5 						"/>
						<polygon class="st1" points="124.2,-65.7 116.6,-68.1 116.6,-76.3 124.2,-73.9 						"/>
						<polygon class="st1" points="124.1,-54.2 116.5,-56.6 116.6,-64.8 124.2,-62.4 						"/>
						<polygon class="st1" points="124.1,-42.6 116.5,-45 116.5,-53.2 124.1,-50.8 						"/>
						<polygon class="st1" points="124.1,-31.1 116.4,-33.5 116.5,-41.7 124.1,-39.3 						"/>
						<polygon class="st1" points="124,-19.5 116.4,-21.9 116.4,-30.1 124,-27.8 						"/>
						<polygon class="st1" points="124,-8 116.3,-10.4 116.4,-18.6 124,-16.2 						"/>
						<polygon class="st1" points="123.9,3.6 116.3,1.2 116.3,-7 123.9,-4.7 						"/>
						<polygon class="st1" points="123.9,15.1 116.2,12.7 116.3,4.5 123.9,6.9 						"/>
						<polygon class="st1" points="123.8,26.7 116.2,24.3 116.2,16.1 123.9,18.4 						"/>
						<polygon class="st1" points="123.8,38.2 116.2,35.8 116.2,27.6 123.8,30 						"/>
						<polygon class="st1" points="123.7,49.8 116.1,47.4 116.1,39.2 123.8,41.5 						"/>
						<polygon class="st1" points="123.7,61.3 116.1,58.9 116.1,50.7 123.7,53.1 						"/>
						<polygon class="st1" points="123.6,72.8 116,70.5 116,62.3 123.7,64.6 						"/>
						<polygon class="st1" points="123.6,84.4 116,82 116,73.8 123.6,76.2 						"/>
						<polygon class="st1" points="123.5,95.9 115.9,93.6 116,85.4 123.6,87.7 						"/>
						<polygon class="st1" points="123.5,107.5 115.9,105.1 115.9,96.9 123.5,99.3 						"/>
						<polygon class="st1" points="123.5,119 115.8,116.7 115.9,108.5 123.5,110.8 						"/>
						<polygon class="st1" points="123.4,130.9 115.8,128.5 115.8,120.3 123.4,122.7 						"/>
						<polygon class="st1" points="123.3,142.5 115.7,140.1 115.8,131.9 123.4,134.3 						"/>
						<polygon class="st1" points="123.3,154 115.7,151.6 115.7,143.4 123.3,145.8 						"/>
						<polyline class="st1" points="115.7,155 123.5,157.5 123.2,166 						"/>
						<line class="st1" x1="123.2" y1="168.9" x2="123.2" y2="177.1"/>
						<polyline class="st1" points="123.2,188.7 123.2,180.5 120,178.9 						"/>
						<polygon class="st1" points="123.1,200.2 115.5,197.8 115.5,189.6 123.1,192 						"/>
						<polygon class="st1" points="123.1,211.8 115.4,209.4 115.5,201.2 123.1,203.5 						"/>
						<polygon class="st1" points="123,223.3 115.4,220.9 115.4,212.7 123.1,215.1 						"/>
						<polygon class="st1" points="123,234.9 115.3,232.5 115.4,224.3 123,226.6 						"/>
						<polygon class="st1" points="122.9,246.4 115.3,244 115.3,235.8 123,238.2 						"/>
						<polygon class="st1" points="122.9,257.8 115.2,255.4 115.3,247.2 122.9,249.6 						"/>
						<polygon class="st1" points="122.8,269.3 115.2,267 115.2,258.8 122.8,261.1 						"/>
						<polygon class="st1" points="122.8,280.9 115.1,278.5 115.2,270.3 122.8,272.7 						"/>
						<polygon class="st1" points="122.7,292.4 115.1,290.1 115.1,281.9 122.8,284.2 						"/>
						<polygon class="st1" points="122.7,304 115,301.6 115.1,293.4 122.7,295.8 						"/>
						<polygon class="st1" points="122.6,315.5 115,313.2 115,304.9 122.7,307.3 						"/>
					</g>
				</g>
				<g class="st18">
					<defs>
						<polygon id="SVGID_9_" points="122.9,221.2 105.1,221.2 111.5,151.7 116.5,155.7 123,158 123,178.2 119.6,178.9 123,180.5 
													"/>
					</defs>
					<clipPath id="SVGID_10_">
						<use xlink:href="#SVGID_9_"  style="overflow:visible;"/>
					</clipPath>
					<g class="st19">
						<path class="st2" d="M300,86.6c0,0,5.4,0.6,7.3,0.9l1.1,0.6l0.4,1.3c0.1,0.5-0.3,1.1-0.3,1.1s-162.7,96-164.5,97.9
							s-5.7,0.9-5.7,0.9s-9-2.7-10.7-3.3c-1.7-0.5-1.6-1.9-1.6-1.9l0.3-0.8c0,0-0.8,0.7-1,1.7s-1.8,3.5-3.4,4.2l-1.5,0.2
							c-0.8,0-1.4-0.2-1.4-0.2s-1.6-0.3-1.9-0.7c0,0-1.2-0.6-1.2-2.4c0-1.8,0.1-5.7,0.1-5.7l0.3-1.2c0.2-1.2,1.3-1.9,2-2.2l-0.6-0.4
							c0,0-1.2-0.6-1.2-2.4c0-1.8,0.1-5.7,0.1-5.7l0.2-0.8c0.2-1.4,1.5-2,2.2-2.3l-0.9-0.6c0,0-1.2-0.6-1.2-2.4
							c0-1.8-2.9-6.2-2.9-6.2l1.2-0.6c0.4-2,5.2-2,5.2-2l4.8-0.2c0,0,0.9,0.2,0.7,0.6c0,0,0.1,0.7-1.5,0.7c-1.6,0-3.8,0.2-3.8,0.2
							s-1.8,0.8-1.5,2.1c0.3,1.3,2,1.1,2,1.1s1.8,0.2,3-1.1s3.2-3.3,3.2-3.3s0.9-1.3,2.1-0.5l0.3,0.2c0,0,1.5,2.7,1.8,0.3
							c0,0-0.1-2.4-3.7-3.1c-2-0.4-3.4-0.7-4.3-1c0,0-0.9-0.4-0.2-1.2l170-82.7c0,0,3.2-1.4,3.9-1.4c0,0,2.6,0.3,3.5,1.7"/>
						<path class="st20" d="M147.1,190.3"/>
					</g>
					<g class="st19">
						<path class="st21" d="M122.6,155.8c1.6,0,1.5-0.7,1.5-0.7c0.2-0.4-0.7-0.6-0.7-0.6l-4.8,0.1c0,0-4.2,0.2-5.1,2
							c-0.1,0.3,0,1.1,0,1.1l5.4,2.5c0,0,1.9,1.1,4.6-0.9l175.3-91.8"/>
						<path class="st21" d="M298.9,67.1c-0.9-1.4-3.5-1.7-3.5-1.7c-0.7,0-3.9,1.4-3.9,1.4l-170,82.7c-0.8,0.8,0.2,1.2,0.2,1.2
							c0.9,0.2,2.3,0.6,4.3,1c3.6,0.7,2.8,2.6,2.8,2.6c-0.2,1.3-1.7,1.6-1.7,1.6l-4.9,2.6c-1.2,0.8-2.8,0.1-2.8,0.1
							s-3.9-1.5-3.8-1.8c0,0-0.1-0.6,1.5-0.8"/>
						<path class="st21" d="M125.9,159.1"/>
						<path class="st21" d="M126.3,167l-4.2,2.4c-1.7,0.9-2.8,0.2-2.8,0.2s-3.8-1.4-3.7-1.7c0-0.1,0.8-0.4,1-0.5"/>
						
							<ellipse transform="matrix(0.9975 -7.116362e-02 7.116362e-02 0.9975 -11.2985 8.7168)" class="st21" cx="116.7" cy="162.9" rx="1" ry="1.5"/>
						<path class="st21" d="M298.8,77.4"/>
						<path class="st21" d="M298.8,89.1"/>
						<path class="st21" d="M115.4,176.9c-0.6,0.2-1.6,0.6-1.9,1.3c-0.1,0.3,0,1.1,0,1.1l5.4,2.8c0,0,1.6,1.1,4.6-0.5l2.7-1.5
							c0,0,0.5-0.3,0.5-1.3s-0.2-2.5-0.2-2.5c0-1.3-1-0.6-1-0.6l-3.4,1.9c-2.1,1.7-3.9,0.7-3.9,0.7l-4-2c0,0-1-0.3-0.9-2.8
							c0.1-1.8,0-5.3,0-5.3"/>
						<path class="st21" d="M115.6,166.2c-0.9,0.3-1.8,0.7-2.2,1.5c-0.1,0.3,0,1.1,0,1.1l6.2,2.6c0,0,0.8,0.4,3.8-1.3l2.7-0.6
							c0,0,0.5-0.3,0.5-1.3s-0.2-2.5-0.2-2.5c0-1.3-1-0.6-1-0.6l-3.2,1.7c-2.1,1.7-3.9,0.7-3.9,0.7l-4.2-1.8c0,0-1-0.3-0.9-2.8
							c0.1-1.8-0.1-5.8-0.1-5.8"/>
						<path class="st21" d="M125.9,178.2l-3.8,2.1c-1.5,1.1-2.8,0.2-2.8,0.2s-3.9-1.7-3.8-1.9c0.1-0.3,1.6-0.9,1.6-0.9"/>
						
							<ellipse transform="matrix(0.9975 -7.116362e-02 7.116362e-02 0.9975 -12.0648 8.7441)" class="st21" cx="116.7" cy="173.7" rx="1" ry="1.5"/>
						<path class="st21" d="M113.3,178.6c0,0,0.2,3.9,0.1,5.8c-0.1,2.5,0.9,2.8,0.9,2.8l4,2c0,0,1.7,1,3.9-0.7l2-1.1l174.1-99.9
							l0.6-20.1"/>
						
							<ellipse transform="matrix(0.9975 -7.116362e-02 7.116362e-02 0.9975 -12.8439 8.7718)" class="st21" cx="116.7" cy="184.6" rx="1" ry="1.5"/>
						<path class="st21" d="M124,187.7c0,0-0.1,1,1.6,1.6c1.7,0.5,10,3.1,10,3.1s3.8,1,5.7-0.9c1.8-1.9,165.1-100.9,165.1-100.9
							s1.1-1.6-0.8-1.9s-7.3-0.9-7.3-0.9"/>
						<path class="st21" d="M123.9,188.2c0,0-0.2,1.4,1.6,1.9s10.7,3.3,10.7,3.3s3.8,1,5.7-0.9S306.8,91.8,306.8,91.8
							s0.4-0.6,0.3-1.1l-0.4-1.3"/>
					</g>
				</g>
				<g class="st18">
					<defs>
						<rect id="SVGID_11_" x="126.9" y="62.2" width="175.6" height="154.3"/>
					</defs>
					<clipPath id="SVGID_12_">
						<use xlink:href="#SVGID_11_"  style="overflow:visible;"/>
					</clipPath>
					<g class="st22">
						<path class="st2" d="M289.2,90.3c0,0,5.1,0.5,6.8,0.8l1,0.6l0.4,1.2c0.1,0.5-0.3,1.1-0.3,1.1s-152.4,89.9-154.1,91.7
							s-5.3,0.8-5.3,0.8s-8.4-2.6-10-3.1c-1.6-0.5-1.5-1.8-1.5-1.8l0.3-0.8c0,0-0.8,0.7-1,1.6c-0.2,0.9-1.7,3.3-3.2,3.9l-1.4,0.2
							c-0.8,0-1.4-0.2-1.4-0.2s-1.5-0.3-1.8-0.7c0,0-1.1-0.6-1.1-2.3c0-1.7,0-5.3,0-5.3l0.3-1.2c0.2-1.2,1.2-1.8,1.9-2.1l-0.5-0.4
							c0,0-1.1-0.6-1.1-2.3c0-1.7,0-5.3,0-5.3l0.2-0.7c0.2-1.3,1.4-1.9,2.1-2.2l-0.9-0.5c0,0-1.1-0.6-1.1-2.3c0-1.7,0.6-5.9,0.6-5.9
							l0.1,0c0.3-1.9,2.6-2.4,2.6-2.4l4.5-0.2c0,0,0.8,0.2,0.6,0.6c0,0,0.1,0.6-1.4,0.7s-3.5,0.2-3.5,0.2s-1.7,0.7-1.4,2
							s1.8,1.1,1.8,1.1s1.7,0.2,2.8-1c1.2-1.2,3-3.1,3-3.1s0.8-1.2,1.9-0.5l0.3,0.2c0,0,1.4,2.5,1.6,0.2c0,0-0.1-2.3-3.5-2.9
							c-1.9-0.4-3.2-0.7-4-0.9c0,0-0.9-0.3-0.1-1.1l159.2-77.4c0,0,3-1.3,3.6-1.3c0,0,2.5,0.3,3.3,1.6"/>
						<path class="st23" d="M145.9,187.5"/>
					</g>
					<g class="st22">
						<path class="st1" d="M288.1,72.1c-0.8-1.3-3.3-1.6-3.3-1.6c-0.6,0-3.6,1.3-3.6,1.3l-159.2,77.4c-0.7,0.8,0.1,1.1,0.1,1.1
							c0.8,0.2,2.1,0.5,4,0.9c3.4,0.7,2.6,2.5,2.6,2.5c-0.2,1.2-1.6,1.5-1.6,1.5l-4.6,2.6c-1.4,1.1-2.6,0.2-2.6,0.2s-3-1.6-2.9-1.8
							c0.1-0.3,2.5-0.8,2.5-0.8s2.1-0.1,3.5-0.2c1.5,0,1.4-0.7,1.4-0.7c0.2-0.4-0.6-0.6-0.6-0.6l-4.5,0.1c0,0-4,0.1-4.8,1.8
							c-0.1,0.3,0,1,0,1l5,2.6c0,0,1.8,1.4,4.3-0.5L288,72.3"/>
						<path class="st1" d="M126,158.2"/>
						<path class="st1" d="M126.5,165.6l-4,2.2c-1.4,1.1-2.6,0.2-2.6,0.2s-3-1.6-2.9-1.8c0-0.1,0.2-0.1,0.4-0.2"/>
						
							<ellipse transform="matrix(0.9975 -7.116362e-02 7.116362e-02 0.9975 -11.2178 8.7661)" class="st1" cx="117.4" cy="161.8" rx="0.9" ry="1.4"/>
						<path class="st1" d="M288,81.7"/>
						<path class="st1" d="M288,92.7"/>
						<path class="st1" d="M116.4,174.8c-0.9,0.3-1.7,0.7-2,1.4c-0.1,0.3,0,1,0,1l5,2.6c0,0,1.5,1.1,4.3-0.5l2.5-1.4
							c0,0,0.4-0.3,0.4-1.2c0-1-0.2-2.3-0.2-2.3c0-1.2-0.9-0.6-0.9-0.6l-3.2,1.8c-2,1.6-3.6,0.7-3.6,0.7l-3.7-1.9c0,0-1-0.3-0.9-2.6
							c0.1-1.7-0.1-5.4-0.1-5.4"/>
						<path class="st1" d="M116.4,164.8c-0.9,0.3-1.7,0.7-2,1.4c-0.1,0.3,0,1,0,1l5,2.6c0,0,1.5,1.1,4.3-0.5l2.5-1.4
							c0,0,0.4-0.3,0.4-1.2s-0.2-2.3-0.2-2.3c0-1.2-0.9-0.6-0.9-0.6l-3.2,1.8c-2,1.6-3.6,0.7-3.6,0.7l-3.7-1.9c0,0-1-0.3-0.9-2.6
							c0.1-1.7-0.1-5.4-0.1-5.4"/>
						<path class="st1" d="M126,176.1l-3.5,2c-1.4,1.1-2.6,0.2-2.6,0.2s-3-1.6-2.9-1.8c0.1-0.3,1.4-0.6,1.4-0.6"/>
						
							<ellipse transform="matrix(0.9975 -7.116362e-02 7.116362e-02 0.9975 -11.9356 8.7916)" class="st1" cx="117.4" cy="171.9" rx="0.9" ry="1.4"/>
						<path class="st1" d="M114.3,176.5c0,0,0.1,3.7,0.1,5.4c-0.1,2.3,0.9,2.6,0.9,2.6l3.7,1.9c0,0,1.6,0.9,3.6-0.7l1.9-1
							l163.1-93.5l0.5-18.8"/>
						
							<ellipse transform="matrix(0.9975 -7.116362e-02 7.116362e-02 0.9975 -12.6654 8.8176)" class="st1" cx="117.4" cy="182.2" rx="0.9" ry="1.4"/>
						<path class="st1" d="M124.3,185.1c0,0-0.1,1,1.5,1.5c1.6,0.5,9.4,2.9,9.4,2.9s3.6,1,5.3-0.8c1.7-1.8,154.6-94.5,154.6-94.5
							s1-1.5-0.7-1.8c-1.8-0.3-6.8-0.8-6.8-0.8"/>
						<path class="st1" d="M124.2,185.5c0,0-0.2,1.3,1.5,1.8c1.6,0.5,10,3.1,10,3.1s3.6,1,5.3-0.8c1.7-1.8,154.5-94.3,154.5-94.3
							s0.4-0.6,0.3-1.1l-0.4-1.2"/>
					</g>
				</g>
				<line class="st24" x1="123.1" y1="168.7" x2="121.1" y2="167.9"/>
				<rect x="127" y="-85.8" class="st25" width="3.1" height="342.1"/>
				<g class="st18">
					<circle cx="83.2" cy="178.6" r="7.6"/>
					<text transform="matrix(0.9993 -3.746992e-02 3.746992e-02 0.9993 80.1699 182.6921)" class="st2 st3 st26">5</text>
				</g>
				<g class="st18">
					<g>
						<path class="st27" d="M87,193.2l8-5.9c0,0,0.3,0,0.7,0.2c0.9,0.4,2.2,1.3,1.9,3.6l-7.8,6"/>
						
							<ellipse transform="matrix(0.8728 -0.4881 0.4881 0.8728 -84.6466 67.4587)" class="st27" cx="87.1" cy="196.1" rx="3.1" ry="4.7"/>
						
							<ellipse transform="matrix(0.8927 -0.4507 0.4507 0.8927 -79.1613 60.1708)" class="st27" cx="86.8" cy="196.3" rx="2.8" ry="4.2"/>
						<path class="st28" d="M94.6,187.7c0.9,0.1,1.8,0.7,2.3,1.7c0.3,0.7,0.4,1.3,0.3,2"/>
						<path class="st28" d="M94.2,187.9c0.9,0.1,1.7,0.7,2.2,1.7c0.3,0.7,0.4,1.4,0.4,2"/>
						<path class="st28" d="M93.7,188.2c0.9,0.1,1.7,0.7,2.2,1.8c0.3,0.7,0.4,1.4,0.4,2"/>
						<path class="st28" d="M93.2,188.6c0.9,0.1,1.8,0.7,2.3,1.7c0.3,0.7,0.4,1.4,0.4,2"/>
						<path class="st28" d="M92.8,189c0.9,0.1,1.8,0.7,2.3,1.8c0.3,0.7,0.4,1.4,0.4,2"/>
						<path class="st28" d="M92.3,189.3c0.9,0.1,1.8,0.7,2.3,1.8c0.3,0.7,0.4,1.4,0.4,2"/>
						<path class="st28" d="M91.8,189.7c0.9,0.1,1.8,0.7,2.3,1.8c0.3,0.7,0.4,1.4,0.4,2"/>
						<path class="st28" d="M91.3,190c0.9,0.1,1.8,0.7,2.3,1.8c0.3,0.7,0.4,1.4,0.4,2"/>
						<path class="st28" d="M90.8,190.5c0.9,0.1,1.8,0.7,2.3,1.8c0.3,0.7,0.4,1.4,0.4,2"/>
						<path class="st28" d="M90.4,190.8c0.9,0.1,1.8,0.7,2.3,1.8c0.3,0.7,0.4,1.4,0.4,2"/>
						<path class="st28" d="M89.9,191.2c0.9,0.1,1.8,0.7,2.3,1.8c0.3,0.7,0.4,1.4,0.4,2"/>
						<path class="st28" d="M89.4,191.5c0.9,0.1,1.8,0.7,2.3,1.8c0.3,0.7,0.4,1.4,0.4,2"/>
						<path class="st28" d="M88.9,191.9c0.9,0.1,1.8,0.7,2.3,1.8c0.3,0.7,0.4,1.4,0.4,2"/>
						<path class="st28" d="M88.4,192.2c0.9,0.1,1.8,0.7,2.3,1.8c0.3,0.7,0.4,1.4,0.4,2"/>
						<path class="st29" d="M85.3,197.5c0,0-0.2-0.6,1.7-1.9"/>
						<path class="st29" d="M84.8,195c0,0,0.6,2.1,2.7,3"/>
					</g>
				</g>
				<g class="st18">
					<g>
						<path class="st27" d="M87,206.8l8-5.9c0,0,0.3,0,0.7,0.2c0.9,0.4,2.2,1.3,1.9,3.6l-7.8,6"/>
						
							<ellipse transform="matrix(0.8728 -0.4881 0.4881 0.8728 -91.2919 69.1909)" class="st27" cx="87.1" cy="209.7" rx="3.1" ry="4.7"/>
						
							<ellipse transform="matrix(0.8927 -0.4507 0.4507 0.8927 -85.2963 61.6315)" class="st27" cx="86.8" cy="209.9" rx="2.8" ry="4.2"/>
						<path class="st28" d="M94.6,201.3c0.9,0.1,1.8,0.7,2.3,1.7c0.3,0.7,0.4,1.3,0.3,2"/>
						<path class="st28" d="M94.2,201.5c0.9,0.1,1.7,0.7,2.2,1.7c0.3,0.7,0.4,1.4,0.4,2"/>
						<path class="st28" d="M93.7,201.9c0.9,0.1,1.7,0.7,2.2,1.8c0.3,0.7,0.4,1.4,0.4,2"/>
						<path class="st28" d="M93.2,202.2c0.9,0.1,1.8,0.7,2.3,1.7c0.3,0.7,0.4,1.4,0.4,2"/>
						<path class="st28" d="M92.8,202.6c0.9,0.1,1.8,0.7,2.3,1.8c0.3,0.7,0.4,1.4,0.4,2"/>
						<path class="st28" d="M92.3,203c0.9,0.1,1.8,0.7,2.3,1.8c0.3,0.7,0.4,1.4,0.4,2"/>
						<path class="st28" d="M91.8,203.3c0.9,0.1,1.8,0.7,2.3,1.8c0.3,0.7,0.4,1.4,0.4,2"/>
						<path class="st28" d="M91.3,203.6c0.9,0.1,1.8,0.7,2.3,1.8c0.3,0.7,0.4,1.4,0.4,2"/>
						<path class="st28" d="M90.8,204.1c0.9,0.1,1.8,0.7,2.3,1.8c0.3,0.7,0.4,1.4,0.4,2"/>
						<path class="st28" d="M90.4,204.5c0.9,0.1,1.8,0.7,2.3,1.8c0.3,0.7,0.4,1.4,0.4,2"/>
						<path class="st28" d="M89.9,204.8c0.9,0.1,1.8,0.7,2.3,1.8c0.3,0.7,0.4,1.4,0.4,2"/>
						<path class="st28" d="M89.4,205.1c0.9,0.1,1.8,0.7,2.3,1.8c0.3,0.7,0.4,1.4,0.4,2"/>
						<path class="st28" d="M88.9,205.5c0.9,0.1,1.8,0.7,2.3,1.8c0.3,0.7,0.4,1.4,0.4,2"/>
						<path class="st28" d="M88.4,205.8c0.9,0.1,1.8,0.7,2.3,1.8c0.3,0.7,0.4,1.4,0.4,2"/>
						<path class="st29" d="M85.3,211.1c0,0-0.2-0.6,1.7-1.9"/>
						<path class="st29" d="M84.8,208.6c0,0,0.6,2.1,2.7,3"/>
					</g>
				</g>
				<g class="st18">
					<text transform="matrix(1 0 0 1 71.8335 158.9867)"><tspan x="0" y="0" class="st3 st30">10x32</tspan><tspan x="0.5" y="7.6" class="st3 st30">screw</tspan></text>
				</g>
				<g class="st18">
					<text transform="matrix(1 0 0 1 10.9419 198.806)" class="st3 st31">Use with DS460C only</text>
				</g>
				<g class="st18">
					<text transform="matrix(1 0 0 1 46.9087 222.5209)"><tspan x="0" y="0" class="st3 st31">Use with all other</tspan><tspan x="9.2" y="7.6" class="st3 st31">system chassis</tspan></text>
				</g>
				<g class="st18">
					<g>
						<line class="st32" x1="99" y1="187.4" x2="115.2" y2="174.1"/>
						<g>
							<line class="st2" x1="99" y1="187.4" x2="114.5" y2="174.7"/>
							<g>
								<line class="st33" x1="99" y1="187.4" x2="100.1" y2="186.6"/>
								<line class="st34" x1="102" y1="185" x2="112.5" y2="176.3"/>
								<line class="st33" x1="113.5" y1="175.6" x2="114.5" y2="174.7"/>
							</g>
						</g>
					</g>
					<g>
						<line class="st32" x1="99" y1="199.5" x2="115.2" y2="186.2"/>
						<g>
							<line class="st2" x1="99" y1="199.5" x2="114.5" y2="186.8"/>
							<g>
								<line class="st33" x1="99" y1="199.5" x2="100.1" y2="198.7"/>
								<line class="st34" x1="102" y1="197.1" x2="112.5" y2="188.4"/>
								<line class="st33" x1="113.5" y1="187.6" x2="114.5" y2="186.8"/>
							</g>
						</g>
					</g>
				</g>
				<use xlink:href="#SVGID_7_"  style="overflow:visible;fill:none;stroke:#231F20;stroke-width:1.2905;stroke-miterlimit:10;"/>
			</g>
		</g>
		<g class="st0">
			<rect x="303" y="308.7" class="st14" width="109.2" height="39.8"/>
			<text transform="matrix(1 0 0 1 302.99 315.9945)"><tspan x="0" y="0" class="st3 st35">Repeat the steps for  </tspan><tspan x="0" y="12.4" class="st3 st35">the opposite rail</tspan></text>
		</g>
		<g class="st0">
			<rect x="273" y="27.7" class="st36" width="112" height="83.9"/>
			<g>
				<defs>
					<rect id="SVGID_13_" x="273" y="27.7" width="112" height="83.9"/>
				</defs>
				<clipPath id="SVGID_14_">
					<use xlink:href="#SVGID_13_"  style="overflow:visible;"/>
				</clipPath>
				<g class="st37">
					<g>
						<polygon class="st2" points="324,78.3 338.5,82.5 338.3,85.7 323.9,81.5 						"/>
						<rect x="323.9" y="58" class="st2" width="3.4" height="36.5"/>
						<g>
							<line class="st1" x1="325" y1="-220.5" x2="323.2" y2="220.2"/>
							<line class="st1" x1="322.1" y1="-221.5" x2="320.3" y2="219.3"/>
							<polygon class="st1" points="336.1,-195.9 328.4,-198.3 328.5,-206.5 336.1,-204.1 							"/>
							<polygon class="st1" points="336,-184.4 328.4,-186.7 328.4,-194.9 336,-192.6 							"/>
							<polygon class="st1" points="336,-172.8 328.3,-175.2 328.4,-183.4 336,-181 							"/>
							<polygon class="st1" points="335.9,-161.3 328.3,-163.6 328.3,-171.9 335.9,-169.5 							"/>
							<polygon class="st1" points="335.9,-149.7 328.2,-152.1 328.3,-160.3 335.9,-157.9 							"/>
							<polygon class="st1" points="335.8,-138.2 328.2,-140.5 328.2,-148.8 335.9,-146.4 							"/>
							<polygon class="st1" points="335.8,-126.6 328.2,-129 328.2,-137.2 335.8,-134.8 							"/>
							<polygon class="st1" points="335.7,-115.1 328.1,-117.4 328.1,-125.7 335.8,-123.3 							"/>
							<polygon class="st1" points="335.7,-103.5 328.1,-105.9 328.1,-114.1 335.7,-111.7 							"/>
							<polygon class="st1" points="335.6,-92 328,-94.4 328,-102.6 335.7,-100.2 							"/>
							<polygon class="st1" points="335.6,-80.4 328,-82.8 328,-91 335.6,-88.6 							"/>
							<polygon class="st1" points="335.5,-68.9 327.9,-71.3 328,-79.5 335.6,-77.1 							"/>
							<polygon class="st1" points="335.5,-57.3 327.9,-59.7 327.9,-67.9 335.5,-65.5 							"/>
							<polygon class="st1" points="335.5,-45.8 327.8,-48.2 327.9,-56.4 335.5,-54 							"/>
							<polygon class="st1" points="335.4,-34.2 327.8,-36.6 327.8,-44.8 335.4,-42.4 							"/>
							<polygon class="st1" points="335.4,-22.7 327.7,-25.1 327.8,-33.3 335.4,-30.9 							"/>
							<polygon class="st1" points="335.3,-11.1 327.7,-13.5 327.7,-21.7 335.3,-19.3 							"/>
							<polygon class="st1" points="335.3,0.4 327.6,-2 327.7,-10.2 335.3,-7.8 							"/>
							<polygon class="st1" points="335.2,12 327.6,9.6 327.6,1.4 335.3,3.8 							"/>
							<polygon class="st1" points="335.2,23.5 327.6,21.1 327.6,12.9 335.2,15.3 							"/>
							<polygon class="st1" points="335.1,35.4 327.5,33 327.5,24.8 335.1,27.2 							"/>
							<polygon class="st1" points="335.1,46.9 327.4,44.6 327.5,36.3 335.1,38.7 							"/>
							<polygon class="st1" points="335,58.5 327.4,56.1 327.4,47.9 335.1,50.3 							"/>
							<line class="st1" x1="335" y1="73.4" x2="334.9" y2="81.6"/>
							<polygon class="st1" points="334.8,104.7 327.2,102.3 327.2,94.1 334.9,96.5 							"/>
							<polyline class="st1" points="327.2,90.6 327.2,82.4 334.9,84.8 334.8,93 							"/>
							<polygon class="st1" points="334.8,81.4 327.2,79 327.2,70.8 334.9,73.2 							"/>
							<polyline class="st1" points="327.2,67.7 327.2,59.5 334.9,61.9 334.8,70.1 333.7,69.8 							"/>
							<polygon class="st1" points="334.8,116.2 327.2,113.9 327.2,105.6 334.8,108 							"/>
							<polygon class="st1" points="334.7,127.8 327.1,125.4 327.2,117.2 334.8,119.6 							"/>
							<polygon class="st1" points="334.7,139.3 327.1,136.9 327.1,128.7 334.7,131.1 							"/>
							<polygon class="st1" points="334.7,150.9 327,148.5 327.1,140.3 334.7,142.7 							"/>
							<polygon class="st1" points="334.6,162.3 327,159.9 327,151.7 334.6,154.1 							"/>
							<polygon class="st1" points="334.5,173.8 326.9,171.4 326.9,163.2 334.6,165.6 							"/>
							<polygon class="st1" points="334.5,185.4 326.9,183 326.9,174.8 334.5,177.1 							"/>
							<polygon class="st1" points="334.4,196.9 326.8,194.5 326.9,186.3 334.5,188.7 							"/>
							<polygon class="st1" points="334.4,208.5 326.8,206.1 326.8,197.9 334.4,200.2 							"/>
							<polygon class="st1" points="334.3,220 326.7,217.6 326.8,209.4 334.4,211.8 							"/>
						</g>
					</g>
					<g>
						<defs>
							<rect id="SVGID_15_" x="338.6" y="-33.4" width="175.6" height="154.3"/>
						</defs>
						<clipPath id="SVGID_16_">
							<use xlink:href="#SVGID_15_"  style="overflow:visible;"/>
						</clipPath>
						<g class="st38">
							<path class="st2" d="M500.9-5.2c0,0,5.1,0.5,6.8,0.8l1,0.6l0.4,1.2c0.1,0.5-0.3,1.1-0.3,1.1S356.5,88.4,354.8,90.2
								c-1.7,1.8-5.3,0.8-5.3,0.8s-8.4-2.6-10-3.1c-1.6-0.5-1.5-1.8-1.5-1.8l0.3-0.8c0,0-0.8,0.7-1,1.6c-0.2,0.9-1.7,3.3-3.2,3.9
								l-1.4,0.2c-0.8,0-1.4-0.2-1.4-0.2s-1.5-0.3-1.8-0.7c0,0-1.1-0.6-1.1-2.3c0-1.7,0-5.3,0-5.3l0.3-1.2c0.2-1.2,1.2-1.8,1.9-2.1
								l-0.5-0.4c0,0-1.1-0.6-1.1-2.3c0-1.7,0-5.3,0-5.3l0.2-0.7c0.2-1.3,1.4-1.9,2.1-2.2l-0.9-0.5c0,0-1.1-0.6-1.1-2.3
								c0-1.7,0.6-5.9,0.6-5.9l0.1,0c0.3-1.9,2.6-2.4,2.6-2.4l4.5-0.2c0,0,0.8,0.2,0.6,0.6c0,0,0.1,0.6-1.4,0.7
								c-1.5,0-3.5,0.2-3.5,0.2s-1.7,0.7-1.4,2c0.3,1.3,1.9,1.1,1.9,1.1s1.7,0.2,2.8-1s3-3.1,3-3.1s0.8-1.2,1.9-0.5l0.3,0.2
								c0,0,1.4,2.5,1.6,0.2c0,0-0.1-2.3-3.5-2.9c-1.9-0.4-3.2-0.7-4-0.9c0,0-0.9-0.3-0.1-1.1l159.2-77.4c0,0,3-1.3,3.6-1.3
								c0,0,2.5,0.3,3.3,1.6"/>
							<path class="st23" d="M357.6,91.9"/>
						</g>
						<g class="st38">
							<path class="st1" d="M499.8-23.4c-0.8-1.3-3.3-1.6-3.3-1.6c-0.6,0-3.6,1.3-3.6,1.3L333.6,53.7c-0.7,0.8,0.1,1.1,0.1,1.1
								c0.8,0.2,2.1,0.5,4,0.9c3.4,0.7,2.6,2.5,2.6,2.5c-0.2,1.2-1.6,1.5-1.6,1.5l-4.6,2.6c-1.4,1.1-2.6,0.2-2.6,0.2s-3-1.6-2.9-1.8
								c0.1-0.3,2.5-0.8,2.5-0.8s2.1-0.1,3.5-0.2c1.5,0,1.4-0.7,1.4-0.7c0.2-0.4-0.6-0.6-0.6-0.6l-4.5,0.1c0,0-4,0.1-4.8,1.8
								c-0.1,0.3,0,1,0,1l5,2.6c0,0,1.8,1.4,4.3-0.5l164.2-86.6"/>
							<path class="st1" d="M337.8,62.7"/>
							<path class="st1" d="M338.2,70.1l-4,2.2c-1.4,1.1-2.6,0.2-2.6,0.2s-3-1.6-2.9-1.8c0-0.1,0.2-0.1,0.4-0.2"/>
							
								<ellipse transform="matrix(0.9975 -7.116362e-02 7.116362e-02 0.9975 -3.8827 23.5909)" class="st1" cx="329.1" cy="66.3" rx="0.9" ry="1.4"/>
							<path class="st1" d="M499.7-13.8"/>
							<path class="st1" d="M499.7-2.9"/>
							<path class="st1" d="M328.1,79.3c-0.9,0.3-1.7,0.7-2,1.4c-0.1,0.3,0,1,0,1l5,2.6c0,0,1.5,1.1,4.3-0.5l2.5-1.4
								c0,0,0.4-0.3,0.4-1.2s-0.2-2.3-0.2-2.3c0-1.2-0.9-0.6-0.9-0.6l-3.2,1.8c-2,1.6-3.6,0.7-3.6,0.7l-3.7-1.9c0,0-1-0.3-0.9-2.6
								c0.1-1.7-0.1-5.4-0.1-5.4"/>
							<path class="st1" d="M328.1,69.3c-0.9,0.3-1.7,0.7-2,1.4c-0.1,0.3,0,1,0,1l5,2.6c0,0,1.5,1.1,4.3-0.5l2.5-1.4
								c0,0,0.4-0.3,0.4-1.2s-0.2-2.3-0.2-2.3c0-1.2-0.9-0.6-0.9-0.6l-3.2,1.8c-2,1.6-3.6,0.7-3.6,0.7l-3.7-1.9c0,0-1-0.3-0.9-2.6
								c0.1-1.7-0.1-5.4-0.1-5.4"/>
							<path class="st1" d="M337.8,80.6l-3.5,2c-1.4,1.1-2.6,0.2-2.6,0.2s-3-1.6-2.9-1.8c0.1-0.3,1.4-0.6,1.4-0.6"/>
							
								<ellipse transform="matrix(0.9975 -7.116362e-02 7.116362e-02 0.9975 -4.6005 23.6165)" class="st1" cx="329.1" cy="76.4" rx="0.9" ry="1.4"/>
							<path class="st1" d="M326,80.9c0,0,0.1,3.7,0.1,5.4c-0.1,2.3,0.9,2.6,0.9,2.6l3.7,1.9c0,0,1.6,0.9,3.6-0.7l1.9-1L499.2-4.4
								l0.5-18.8"/>
							
								<ellipse transform="matrix(0.9975 -7.116362e-02 7.116362e-02 0.9975 -5.3303 23.6425)" class="st1" cx="329.1" cy="86.6" rx="0.9" ry="1.4"/>
							<path class="st1" d="M336,89.5c0,0-0.1,1,1.5,1.5c1.6,0.5,9.4,2.9,9.4,2.9s3.6,1,5.3-0.8c1.7-1.8,154.6-94.5,154.6-94.5
								s1-1.5-0.7-1.8c-1.8-0.3-6.8-0.8-6.8-0.8"/>
							<path class="st1" d="M335.9,89.9c0,0-0.2,1.3,1.5,1.8c1.6,0.5,10,3.1,10,3.1s3.6,1,5.3-0.8c1.7-1.8,154.5-94.3,154.5-94.3
								s0.4-0.6,0.3-1.1l-0.4-1.2"/>
						</g>
					</g>
					<rect x="338.7" y="-181.3" class="st39" width="3.1" height="342.1"/>
					<g>
						<g>
							<path class="st27" d="M298.4,93.3l8.5-5.1c0,0,0.3,0.1,0.6,0.3c0.8,0.4,2.1,1.5,1.5,3.8l-8.3,5.3"/>
							
								<ellipse transform="matrix(0.9147 -0.4042 0.4042 0.9147 -13.4333 128.7514)" class="st27" cx="298.2" cy="96.2" rx="3.1" ry="4.7"/>
							
								<ellipse transform="matrix(0.931 -0.3651 0.3651 0.931 -14.6252 115.3883)" class="st27" cx="297.9" cy="96.4" rx="2.8" ry="4.2"/>
							<path class="st28" d="M306.4,88.5c0.9,0.2,1.7,0.9,2.1,1.9c0.3,0.7,0.3,1.4,0.2,2"/>
							<path class="st28" d="M306.1,88.7c0.9,0.2,1.6,0.9,2,1.9c0.3,0.7,0.3,1.4,0.2,2"/>
							<path class="st28" d="M305.6,89c0.9,0.2,1.6,0.9,2,2c0.3,0.7,0.3,1.4,0.2,2"/>
							<path class="st28" d="M305,89.3c0.9,0.2,1.7,0.8,2.1,1.9c0.3,0.7,0.3,1.4,0.2,2"/>
							<path class="st28" d="M304.5,89.7c0.9,0.2,1.7,0.9,2.1,2c0.3,0.7,0.3,1.4,0.2,2"/>
							<path class="st28" d="M304,90c0.9,0.2,1.7,0.9,2.1,2c0.3,0.7,0.3,1.4,0.2,2"/>
							<path class="st28" d="M303.5,90.2c0.9,0.2,1.7,0.9,2.1,2c0.3,0.7,0.3,1.4,0.2,2"/>
							<path class="st28" d="M303,90.5c0.9,0.2,1.7,0.9,2.1,2c0.3,0.7,0.3,1.4,0.2,2"/>
							<path class="st28" d="M302.5,90.9c0.9,0.2,1.7,0.9,2.1,2c0.3,0.7,0.3,1.4,0.2,2"/>
							<path class="st28" d="M301.9,91.3c0.9,0.2,1.7,0.9,2.1,2c0.3,0.7,0.3,1.4,0.2,2"/>
							<path class="st28" d="M301.4,91.6c0.9,0.2,1.7,0.9,2.1,2c0.3,0.7,0.3,1.4,0.2,2"/>
							<path class="st28" d="M300.9,91.8c0.9,0.2,1.7,0.9,2.1,2c0.3,0.7,0.3,1.4,0.2,2"/>
							<path class="st28" d="M300.4,92.1c0.9,0.2,1.7,0.9,2.1,2c0.3,0.7,0.3,1.4,0.2,2"/>
							<path class="st28" d="M299.9,92.4c0.9,0.2,1.7,0.9,2.1,2c0.3,0.7,0.3,1.4,0.2,2"/>
							<path class="st29" d="M296.3,97.4c0,0-0.2-0.7,1.9-1.8"/>
							<path class="st29" d="M296,94.9c0,0,0.4,2.2,2.4,3.3"/>
						</g>
					</g>
					<g>
						<g>
							<line class="st32" x1="310.7" y1="88.4" x2="326.9" y2="78.6"/>
							<g>
								<line class="st2" x1="310.7" y1="88.4" x2="326.3" y2="79.2"/>
								<g>
									<line class="st33" x1="310.7" y1="88.4" x2="311.9" y2="87.7"/>
									<line class="st40" x1="314.5" y1="86.2" x2="323.8" y2="80.7"/>
									<line class="st33" x1="325.1" y1="79.9" x2="326.3" y2="79.2"/>
								</g>
							</g>
						</g>
					</g>
				</g>
				<path class="st41" d="M334.8,70.1"/>
				<polygon class="st42" points="334.7,67.3 327.1,65 324.6,66.5 324.6,68.6 332.1,71.1 332.2,69 				"/>
				<polyline class="st42" points="332.3,71 333.2,70.5 333.3,69.6 334.7,68.5 				"/>
				<polygon class="st42" points="334.7,91.1 327.1,88.9 324.6,90.4 324.6,92.4 332.1,94.9 332.2,92.8 				"/>
				<polyline class="st42" points="332.3,94.9 333.2,94.4 333.3,93.4 334.7,92.4 				"/>
				
					<ellipse transform="matrix(0.9718 0.2358 -0.2358 0.9718 27.3299 -75.9202)" class="st43" cx="331.2" cy="76.3" rx="2.6" ry="2.3"/>
				
					<ellipse transform="matrix(0.9718 0.2358 -0.2358 0.9718 27.3299 -75.9202)" class="st44" cx="331.2" cy="76.3" rx="2" ry="1.8"/>
				<use xlink:href="#SVGID_13_"  style="overflow:visible;fill:none;stroke:#231F20;stroke-width:1.2905;stroke-miterlimit:10;"/>
			</g>
		</g>
		<g class="st0">
			<g>
				<circle cx="303.1" cy="58" r="7.6"/>
				<text transform="matrix(0.9999 -1.082002e-02 1.082002e-02 0.9999 299.9193 62.0192)" class="st2 st3 st45">4</text>
			</g>
		</g>
		<g class="st0">
			<text transform="matrix(1 0 0 1 279.0342 40.7455)" class="st3 st46">Rear view</text>
		</g>
		<g class="st0">
			<text transform="matrix(1 0 0 1 11.9795 140.9535)" class="st3 st47">Front view</text>
		</g>
		<g class="st0">
			<text transform="matrix(1 0 0 1 291.4502 75.184)"><tspan x="0" y="0" class="st3 st30">10x32</tspan><tspan x="0.5" y="7.6" class="st3 st30">screw</tspan></text>
		</g>
		<polyline class="st48" points="74.5,243.4 138,274.4 101.6,243.1 		"/>
		<polyline class="st48" points="318.3,109.8 296.4,159.3 302.1,109.8 		"/>
		<polyline class="st49" points="364.3,95.5 364.3,77 372.1,73.3 372.1,91.7 374.7,90.4 367.3,100.6 361.6,96.8 364.3,95.5 		"/>
		<polyline class="st0" points="364.3,97.6 364.3,79.1 372.1,75.4 372.1,93.8 374.7,92.5 367.3,102.7 361.6,98.8 364.3,97.6 		"/>
		<g class="st0">
			<g>
				<circle cx="367.2" cy="66.3" r="7.6"/>
				<text transform="matrix(0.9999 -1.082002e-02 1.082002e-02 0.9999 363.9356 70.3084)" class="st2 st3 st45">3</text>
			</g>
		</g>
	</g>
</g>
</svg>
