<?xml version="1.0" encoding="utf-8"?>
<!-- Generator: Adobe Illustrator 26.0.3, SVG Export Plug-In . SVG Version: 6.00 Build 0)  -->
<svg version="1.1" id="Layer_1" xmlns="http://www.w3.org/2000/svg" xmlns:xlink="http://www.w3.org/1999/xlink" x="0px" y="0px"
	 viewBox="0 0 342 90.6" style="enable-background:new 0 0 342 90.6;" xml:space="preserve">
<style type="text/css">
	.st0{fill:none;stroke:#FFFFFF;stroke-width:6.1482;stroke-linecap:round;stroke-linejoin:round;stroke-miterlimit:10;}
	.st1{fill:none;stroke:#A25EB5;stroke-width:2.5911;stroke-miterlimit:10;}
	.st2{fill-rule:evenodd;clip-rule:evenodd;fill:#58595B;}
	.st3{fill-rule:evenodd;clip-rule:evenodd;fill:#FFFFFF;}
	.st4{fill:#FFFFFF;}
	.st5{fill:#58595B;}
</style>
<g>
	<g>
		<polyline class="st0" points="143.8,59.8 143.8,79.4 222.4,79.4 		"/>
		<polyline class="st1" points="143.8,59.8 143.8,79.4 222.4,79.4 		"/>
	</g>
	<g>
		<g>
			<g>
				<path d="M9,70.3h1.7l1.9,5.5h0l1.9-5.5h1.7v7h-1.2v-5.4h0l-1.9,5.4h-1l-1.9-5.4h0v5.4H9V70.3z"/>
				<path d="M21.8,76.2c0,0.1,0,0.2,0.1,0.3c0,0.1,0.1,0.1,0.2,0.1c0,0,0.1,0,0.1,0s0.1,0,0.2,0v0.8c0,0-0.1,0-0.2,0s-0.1,0-0.2,0
					c-0.1,0-0.1,0-0.2,0c-0.1,0-0.1,0-0.2,0c-0.2,0-0.4,0-0.6-0.1s-0.2-0.3-0.3-0.5c-0.2,0.2-0.5,0.4-0.8,0.5
					c-0.3,0.1-0.6,0.1-0.9,0.1c-0.2,0-0.4,0-0.7-0.1c-0.2-0.1-0.4-0.2-0.6-0.3c-0.2-0.1-0.3-0.3-0.4-0.5c-0.1-0.2-0.1-0.4-0.1-0.7
					c0-0.3,0.1-0.6,0.2-0.8c0.1-0.2,0.3-0.3,0.5-0.5c0.2-0.1,0.4-0.2,0.6-0.2s0.5-0.1,0.7-0.1c0.2,0,0.4-0.1,0.6-0.1
					c0.2,0,0.3,0,0.5-0.1s0.3-0.1,0.3-0.2c0.1-0.1,0.1-0.2,0.1-0.4c0-0.1,0-0.3-0.1-0.4c-0.1-0.1-0.2-0.2-0.3-0.2
					c-0.1,0-0.2-0.1-0.3-0.1c-0.1,0-0.2,0-0.4,0c-0.3,0-0.6,0.1-0.8,0.2c-0.2,0.1-0.3,0.3-0.3,0.6h-1.1c0-0.3,0.1-0.6,0.2-0.8
					s0.3-0.4,0.5-0.5s0.5-0.2,0.7-0.3c0.3-0.1,0.5-0.1,0.8-0.1c0.2,0,0.5,0,0.7,0.1c0.2,0.1,0.5,0.1,0.7,0.3
					c0.2,0.1,0.3,0.3,0.5,0.5c0.1,0.2,0.2,0.4,0.2,0.7V76.2z M20.7,74.8c-0.2,0.1-0.4,0.2-0.6,0.2c-0.2,0-0.5,0.1-0.7,0.1
					c-0.1,0-0.2,0-0.3,0.1c-0.1,0-0.2,0.1-0.3,0.1c-0.1,0.1-0.2,0.1-0.2,0.2s-0.1,0.2-0.1,0.4c0,0.1,0,0.2,0.1,0.3s0.2,0.2,0.3,0.2
					c0.1,0,0.2,0.1,0.3,0.1c0.1,0,0.2,0,0.3,0c0.1,0,0.3,0,0.4,0c0.1,0,0.3-0.1,0.4-0.2c0.1-0.1,0.2-0.2,0.3-0.3s0.1-0.3,0.1-0.4
					V74.8z"/>
				<path d="M23,72.2h1.1V73l0,0c0.2-0.3,0.4-0.5,0.7-0.7c0.3-0.2,0.6-0.2,0.9-0.2c0.6,0,1,0.1,1.3,0.4c0.3,0.3,0.5,0.7,0.5,1.3v3.5
					h-1.1v-3.2c0-0.4-0.1-0.7-0.3-0.9S25.7,73,25.4,73c-0.2,0-0.4,0-0.5,0.1c-0.2,0.1-0.3,0.2-0.4,0.3c-0.1,0.1-0.2,0.3-0.2,0.4
					c-0.1,0.2-0.1,0.3-0.1,0.5v3H23V72.2z"/>
				<path d="M32.9,76.2c0,0.1,0,0.2,0.1,0.3c0,0.1,0.1,0.1,0.2,0.1c0,0,0.1,0,0.1,0s0.1,0,0.2,0v0.8c0,0-0.1,0-0.2,0s-0.1,0-0.2,0
					c-0.1,0-0.1,0-0.2,0c-0.1,0-0.1,0-0.2,0c-0.2,0-0.4,0-0.6-0.1s-0.2-0.3-0.3-0.5c-0.2,0.2-0.5,0.4-0.8,0.5
					c-0.3,0.1-0.6,0.1-0.9,0.1c-0.2,0-0.4,0-0.7-0.1c-0.2-0.1-0.4-0.2-0.6-0.3c-0.2-0.1-0.3-0.3-0.4-0.5c-0.1-0.2-0.1-0.4-0.1-0.7
					c0-0.3,0.1-0.6,0.2-0.8c0.1-0.2,0.3-0.3,0.5-0.5c0.2-0.1,0.4-0.2,0.6-0.2s0.5-0.1,0.7-0.1c0.2,0,0.4-0.1,0.6-0.1
					c0.2,0,0.3,0,0.5-0.1s0.3-0.1,0.3-0.2c0.1-0.1,0.1-0.2,0.1-0.4c0-0.1,0-0.3-0.1-0.4c-0.1-0.1-0.2-0.2-0.3-0.2
					c-0.1,0-0.2-0.1-0.3-0.1c-0.1,0-0.2,0-0.4,0c-0.3,0-0.6,0.1-0.8,0.2c-0.2,0.1-0.3,0.3-0.3,0.6h-1.1c0-0.3,0.1-0.6,0.2-0.8
					s0.3-0.4,0.5-0.5s0.5-0.2,0.7-0.3c0.3-0.1,0.5-0.1,0.8-0.1c0.2,0,0.5,0,0.7,0.1c0.2,0.1,0.5,0.1,0.7,0.3
					c0.2,0.1,0.3,0.3,0.5,0.5c0.1,0.2,0.2,0.4,0.2,0.7V76.2z M31.8,74.8c-0.2,0.1-0.4,0.2-0.6,0.2c-0.2,0-0.5,0.1-0.7,0.1
					c-0.1,0-0.2,0-0.3,0.1c-0.1,0-0.2,0.1-0.3,0.1c-0.1,0.1-0.2,0.1-0.2,0.2s-0.1,0.2-0.1,0.4c0,0.1,0,0.2,0.1,0.3s0.2,0.2,0.3,0.2
					c0.1,0,0.2,0.1,0.3,0.1c0.1,0,0.2,0,0.3,0c0.1,0,0.3,0,0.4,0c0.1,0,0.3-0.1,0.4-0.2c0.1-0.1,0.2-0.2,0.3-0.3s0.1-0.3,0.1-0.4
					V74.8z"/>
				<path d="M38.8,77.1c0,0.8-0.2,1.3-0.6,1.7c-0.4,0.4-1,0.6-1.8,0.6c-0.3,0-0.5,0-0.8-0.1c-0.3-0.1-0.5-0.1-0.7-0.3
					c-0.2-0.1-0.4-0.3-0.5-0.5C34.1,78.3,34,78,34,77.7h1.1c0,0.2,0.1,0.3,0.2,0.4c0.1,0.1,0.2,0.2,0.3,0.2c0.1,0.1,0.2,0.1,0.4,0.1
					c0.1,0,0.3,0,0.4,0c0.5,0,0.8-0.1,1-0.3c0.2-0.2,0.3-0.5,0.3-1v-0.8h0c-0.2,0.3-0.4,0.5-0.6,0.7c-0.3,0.2-0.6,0.2-0.9,0.2
					c-0.4,0-0.8-0.1-1-0.2c-0.3-0.1-0.5-0.3-0.7-0.6c-0.2-0.2-0.3-0.5-0.4-0.8s-0.1-0.7-0.1-1c0-0.3,0.1-0.7,0.2-1
					c0.1-0.3,0.3-0.6,0.5-0.8c0.2-0.2,0.4-0.4,0.7-0.6c0.3-0.1,0.6-0.2,1-0.2c0.3,0,0.6,0.1,0.9,0.2s0.5,0.3,0.6,0.6h0v-0.7h1.1
					V77.1z M36.3,76.4c0.2,0,0.5-0.1,0.6-0.2s0.3-0.2,0.4-0.4c0.1-0.2,0.2-0.4,0.2-0.6c0-0.2,0.1-0.4,0.1-0.6c0-0.2,0-0.4-0.1-0.6
					c-0.1-0.2-0.1-0.4-0.2-0.5c-0.1-0.2-0.2-0.3-0.4-0.4C36.7,73,36.5,73,36.3,73c-0.2,0-0.5,0.1-0.6,0.2s-0.3,0.2-0.4,0.4
					s-0.2,0.4-0.2,0.6c0,0.2-0.1,0.4-0.1,0.6s0,0.4,0.1,0.6c0.1,0.2,0.1,0.4,0.2,0.5c0.1,0.2,0.2,0.3,0.4,0.4
					C35.9,76.4,36.1,76.4,36.3,76.4z"/>
				<path d="M40.8,75.1c0,0.2,0,0.4,0.1,0.6c0.1,0.2,0.1,0.3,0.2,0.5c0.1,0.1,0.3,0.2,0.4,0.3c0.2,0.1,0.4,0.1,0.6,0.1
					c0.3,0,0.6-0.1,0.8-0.2c0.2-0.1,0.3-0.4,0.4-0.6h1.1c-0.1,0.3-0.2,0.5-0.3,0.7c-0.1,0.2-0.3,0.4-0.5,0.5
					c-0.2,0.1-0.4,0.3-0.7,0.3c-0.3,0.1-0.5,0.1-0.8,0.1c-0.4,0-0.8-0.1-1.1-0.2s-0.6-0.3-0.8-0.5s-0.4-0.5-0.5-0.8
					c-0.1-0.3-0.2-0.7-0.2-1.1c0-0.4,0.1-0.7,0.2-1s0.3-0.6,0.5-0.9s0.5-0.4,0.8-0.6c0.3-0.1,0.6-0.2,1-0.2c0.4,0,0.8,0.1,1.1,0.2
					c0.3,0.2,0.6,0.4,0.8,0.7c0.2,0.3,0.4,0.6,0.5,0.9s0.1,0.7,0.1,1.1H40.8z M43.4,74.3c0-0.2-0.1-0.3-0.1-0.5
					c-0.1-0.2-0.1-0.3-0.3-0.4c-0.1-0.1-0.2-0.2-0.4-0.3C42.5,73,42.3,73,42.1,73c-0.2,0-0.4,0-0.5,0.1c-0.2,0.1-0.3,0.2-0.4,0.3
					c-0.1,0.1-0.2,0.3-0.3,0.4c-0.1,0.2-0.1,0.3-0.1,0.5H43.4z"/>
				<path d="M45.4,72.2h1.1V73h0c0.1-0.1,0.2-0.2,0.3-0.3c0.1-0.1,0.2-0.2,0.3-0.3c0.1-0.1,0.3-0.1,0.4-0.2c0.2,0,0.3-0.1,0.5-0.1
					c0.3,0,0.6,0.1,0.9,0.2c0.3,0.1,0.5,0.3,0.6,0.6c0.2-0.3,0.4-0.5,0.7-0.6s0.6-0.2,0.9-0.2c0.5,0,1,0.1,1.2,0.4s0.4,0.7,0.4,1.3
					v3.5h-1.1v-3c0-0.2,0-0.4,0-0.6c0-0.2-0.1-0.3-0.1-0.4c-0.1-0.1-0.2-0.2-0.3-0.3C51.1,73,50.9,73,50.7,73
					c-0.4,0-0.7,0.1-0.8,0.4s-0.3,0.6-0.3,1v3h-1.1v-3.3c0-0.4-0.1-0.6-0.2-0.8S47.9,73,47.6,73c-0.1,0-0.3,0-0.4,0.1
					c-0.1,0.1-0.3,0.1-0.4,0.3c-0.1,0.1-0.2,0.2-0.2,0.4s-0.1,0.3-0.1,0.6v3h-1.1V72.2z"/>
				<path d="M54.8,75.1c0,0.2,0,0.4,0.1,0.6c0.1,0.2,0.1,0.3,0.2,0.5c0.1,0.1,0.3,0.2,0.4,0.3c0.2,0.1,0.4,0.1,0.6,0.1
					c0.3,0,0.6-0.1,0.8-0.2c0.2-0.1,0.3-0.4,0.4-0.6h1.1c-0.1,0.3-0.2,0.5-0.3,0.7c-0.1,0.2-0.3,0.4-0.5,0.5
					c-0.2,0.1-0.4,0.3-0.7,0.3c-0.3,0.1-0.5,0.1-0.8,0.1c-0.4,0-0.8-0.1-1.1-0.2s-0.6-0.3-0.8-0.5s-0.4-0.5-0.5-0.8
					c-0.1-0.3-0.2-0.7-0.2-1.1c0-0.4,0.1-0.7,0.2-1s0.3-0.6,0.5-0.9s0.5-0.4,0.8-0.6c0.3-0.1,0.6-0.2,1-0.2c0.4,0,0.8,0.1,1.1,0.2
					c0.3,0.2,0.6,0.4,0.8,0.7c0.2,0.3,0.4,0.6,0.5,0.9s0.1,0.7,0.1,1.1H54.8z M57.4,74.3c0-0.2-0.1-0.3-0.1-0.5
					c-0.1-0.2-0.1-0.3-0.3-0.4c-0.1-0.1-0.2-0.2-0.4-0.3C56.4,73,56.3,73,56.1,73c-0.2,0-0.4,0-0.5,0.1c-0.2,0.1-0.3,0.2-0.4,0.3
					c-0.1,0.1-0.2,0.3-0.3,0.4c-0.1,0.2-0.1,0.3-0.1,0.5H57.4z"/>
				<path d="M59.3,72.2h1.1V73l0,0c0.2-0.3,0.4-0.5,0.7-0.7c0.3-0.2,0.6-0.2,0.9-0.2c0.6,0,1,0.1,1.3,0.4c0.3,0.3,0.5,0.7,0.5,1.3
					v3.5h-1.1v-3.2c0-0.4-0.1-0.7-0.3-0.9S62,73,61.7,73c-0.2,0-0.4,0-0.5,0.1c-0.2,0.1-0.3,0.2-0.4,0.3c-0.1,0.1-0.2,0.3-0.2,0.4
					c-0.1,0.2-0.1,0.3-0.1,0.5v3h-1.1V72.2z"/>
				<path d="M64.4,72.2h0.8v-1.5h1.1v1.5h1v0.8h-1v2.7c0,0.1,0,0.2,0,0.3s0,0.2,0.1,0.2c0,0.1,0.1,0.1,0.2,0.1c0.1,0,0.2,0,0.3,0
					c0.1,0,0.2,0,0.2,0c0.1,0,0.2,0,0.2,0v0.9c-0.1,0-0.2,0-0.4,0s-0.2,0-0.4,0c-0.3,0-0.5,0-0.7-0.1c-0.2-0.1-0.3-0.1-0.4-0.2
					c-0.1-0.1-0.2-0.2-0.2-0.4c0-0.2-0.1-0.3-0.1-0.6v-3h-0.8V72.2z"/>
				<path d="M71.8,75.7c0,0.3,0.2,0.6,0.4,0.7c0.2,0.1,0.5,0.2,0.8,0.2c0.1,0,0.2,0,0.4,0s0.3,0,0.4-0.1c0.1,0,0.2-0.1,0.3-0.2
					c0.1-0.1,0.1-0.2,0.1-0.3c0-0.1-0.1-0.3-0.2-0.4s-0.2-0.2-0.4-0.2c-0.2-0.1-0.3-0.1-0.5-0.1c-0.2,0-0.4-0.1-0.6-0.1
					c-0.2,0-0.4-0.1-0.6-0.2c-0.2-0.1-0.4-0.2-0.5-0.3c-0.2-0.1-0.3-0.3-0.4-0.4c-0.1-0.2-0.1-0.4-0.1-0.6c0-0.3,0.1-0.5,0.2-0.7
					c0.1-0.2,0.3-0.3,0.5-0.5s0.4-0.2,0.7-0.2c0.3,0,0.5-0.1,0.7-0.1c0.3,0,0.5,0,0.8,0.1c0.2,0.1,0.5,0.1,0.6,0.3s0.4,0.3,0.5,0.5
					s0.2,0.4,0.2,0.7h-1.2c-0.1-0.3-0.2-0.4-0.4-0.5C73.3,73,73.1,73,72.8,73c-0.1,0-0.2,0-0.3,0s-0.2,0-0.3,0.1
					c-0.1,0-0.2,0.1-0.2,0.2s-0.1,0.2-0.1,0.3c0,0.1,0,0.2,0.1,0.3s0.2,0.2,0.4,0.2c0.2,0.1,0.3,0.1,0.5,0.1c0.2,0,0.4,0.1,0.6,0.1
					c0.2,0,0.4,0.1,0.6,0.2c0.2,0.1,0.4,0.2,0.5,0.3c0.2,0.1,0.3,0.3,0.4,0.4s0.1,0.4,0.1,0.6c0,0.3-0.1,0.6-0.2,0.8
					c-0.1,0.2-0.3,0.4-0.5,0.5c-0.2,0.1-0.5,0.2-0.7,0.3c-0.3,0.1-0.5,0.1-0.8,0.1c-0.3,0-0.6,0-0.9-0.1c-0.3-0.1-0.5-0.2-0.7-0.3
					c-0.2-0.1-0.4-0.3-0.5-0.5c-0.1-0.2-0.2-0.5-0.2-0.8H71.8z"/>
				<path d="M80.5,77.3h-1.1v-0.7h0c-0.1,0.3-0.3,0.5-0.6,0.6c-0.3,0.2-0.5,0.2-0.8,0.2c-0.7,0-1.1-0.2-1.4-0.5S76,76.1,76,75.5
					v-3.2h1.1v3.1c0,0.4,0.1,0.8,0.3,0.9c0.2,0.2,0.4,0.3,0.7,0.3c0.2,0,0.4,0,0.6-0.1c0.2-0.1,0.3-0.2,0.4-0.3
					c0.1-0.1,0.2-0.3,0.2-0.4c0-0.2,0.1-0.4,0.1-0.5v-2.9h1.1V77.3z"/>
				<path d="M81.7,70.3h1.1v2.6h0c0.1-0.1,0.2-0.2,0.3-0.3c0.1-0.1,0.2-0.2,0.4-0.2c0.1-0.1,0.3-0.1,0.4-0.2c0.1,0,0.3-0.1,0.4-0.1
					c0.4,0,0.7,0.1,1,0.2s0.5,0.3,0.7,0.6c0.2,0.2,0.3,0.5,0.4,0.9c0.1,0.3,0.1,0.7,0.1,1c0,0.3,0,0.7-0.1,1
					c-0.1,0.3-0.2,0.6-0.4,0.8s-0.4,0.4-0.7,0.6c-0.3,0.1-0.6,0.2-1,0.2c-0.2,0-0.3,0-0.5,0c-0.2,0-0.3-0.1-0.5-0.1
					c-0.2-0.1-0.3-0.2-0.4-0.3s-0.2-0.2-0.3-0.4h0v0.7h-1.1V70.3z M85.6,74.8c0-0.2,0-0.5-0.1-0.7c-0.1-0.2-0.1-0.4-0.3-0.6
					s-0.3-0.3-0.4-0.4C84.6,73,84.4,73,84.2,73c-0.5,0-0.8,0.2-1.1,0.5s-0.4,0.8-0.4,1.3c0,0.3,0,0.5,0.1,0.7s0.2,0.4,0.3,0.6
					s0.3,0.3,0.4,0.4c0.2,0.1,0.4,0.1,0.6,0.1c0.3,0,0.5-0.1,0.6-0.2c0.2-0.1,0.3-0.2,0.4-0.4c0.1-0.2,0.2-0.4,0.2-0.6
					C85.6,75.2,85.6,75,85.6,74.8z"/>
				<path d="M87.7,72.2h1.1V73l0,0c0.2-0.3,0.4-0.5,0.7-0.7c0.3-0.2,0.6-0.2,0.9-0.2c0.6,0,1,0.1,1.3,0.4c0.3,0.3,0.5,0.7,0.5,1.3
					v3.5H91v-3.2c0-0.4-0.1-0.7-0.3-0.9S90.3,73,90,73c-0.2,0-0.4,0-0.5,0.1c-0.2,0.1-0.3,0.2-0.4,0.3c-0.1,0.1-0.2,0.3-0.2,0.4
					c-0.1,0.2-0.1,0.3-0.1,0.5v3h-1.1V72.2z"/>
				<path d="M94.2,75.1c0,0.2,0,0.4,0.1,0.6c0.1,0.2,0.1,0.3,0.2,0.5c0.1,0.1,0.3,0.2,0.4,0.3c0.2,0.1,0.4,0.1,0.6,0.1
					c0.3,0,0.6-0.1,0.8-0.2c0.2-0.1,0.3-0.4,0.4-0.6h1.1c-0.1,0.3-0.2,0.5-0.3,0.7c-0.1,0.2-0.3,0.4-0.5,0.5
					c-0.2,0.1-0.4,0.3-0.7,0.3c-0.3,0.1-0.5,0.1-0.8,0.1c-0.4,0-0.8-0.1-1.1-0.2s-0.6-0.3-0.8-0.5s-0.4-0.5-0.5-0.8
					c-0.1-0.3-0.2-0.7-0.2-1.1c0-0.4,0.1-0.7,0.2-1s0.3-0.6,0.5-0.9s0.5-0.4,0.8-0.6c0.3-0.1,0.6-0.2,1-0.2c0.4,0,0.8,0.1,1.1,0.2
					c0.3,0.2,0.6,0.4,0.8,0.7c0.2,0.3,0.4,0.6,0.5,0.9s0.1,0.7,0.1,1.1H94.2z M96.8,74.3c0-0.2-0.1-0.3-0.1-0.5
					c-0.1-0.2-0.1-0.3-0.3-0.4c-0.1-0.1-0.2-0.2-0.4-0.3C95.8,73,95.7,73,95.5,73c-0.2,0-0.4,0-0.5,0.1c-0.2,0.1-0.3,0.2-0.4,0.3
					c-0.1,0.1-0.2,0.3-0.3,0.4c-0.1,0.2-0.1,0.3-0.1,0.5H96.8z"/>
				<path d="M98.2,72.2h0.8v-1.5h1.1v1.5h1v0.8h-1v2.7c0,0.1,0,0.2,0,0.3s0,0.2,0.1,0.2c0,0.1,0.1,0.1,0.2,0.1c0.1,0,0.2,0,0.3,0
					c0.1,0,0.2,0,0.2,0c0.1,0,0.2,0,0.2,0v0.9c-0.1,0-0.2,0-0.4,0s-0.2,0-0.4,0c-0.3,0-0.5,0-0.7-0.1c-0.2-0.1-0.3-0.1-0.4-0.2
					c-0.1-0.1-0.2-0.2-0.2-0.4c0-0.2-0.1-0.3-0.1-0.6v-3h-0.8V72.2z"/>
			</g>
		</g>
	</g>
	<g>
		<polygon class="st2" points="156.5,48.4 8.8,48.4 16.7,41.5 149.1,41.5 156.5,48.4 		"/>
		<polygon class="st2" points="8.8,50.6 156.5,50.6 156.5,64.5 8.8,64.5 		"/>
		<path class="st3" d="M114.6,61.8h-4.9v-3h4.9V61.8L114.6,61.8L114.6,61.8z M114.6,56.6h-4.9v-3h4.9V56.6L114.6,56.6L114.6,56.6z
			 M120.2,61.8h-4.9v-3h4.9V61.8L120.2,61.8L120.2,61.8z M120.2,56.6h-4.9v-3h4.9V56.6L120.2,56.6L120.2,56.6z M125.9,61.8H121v-3
			h4.9V61.8L125.9,61.8L125.9,61.8z M125.9,56.6H121v-3h4.9V56.6L125.9,56.6L125.9,56.6z M131.6,61.8h-4.9v-3h4.9V61.8L131.6,61.8
			L131.6,61.8z M131.6,56.6h-4.9v-3h4.9V56.6L131.6,56.6L131.6,56.6z M108.9,56.6H104v-3h4.9V56.6L108.9,56.6L108.9,56.6z
			 M103.2,61.8h-4.9v-3h4.9V61.8L103.2,61.8L103.2,61.8z M103.2,56.6h-4.9v-3h4.9V56.6L103.2,56.6L103.2,56.6z M108.9,61.8H104v-3
			h4.9V61.8L108.9,61.8L108.9,61.8z"/>
		<path class="st3" d="M76.8,61.8h-4.9v-3h4.9V61.8L76.8,61.8L76.8,61.8z M76.8,56.6h-4.9v-3h4.9V56.6L76.8,56.6L76.8,56.6z
			 M82.4,61.8h-4.9v-3h4.9V61.8L82.4,61.8L82.4,61.8z M82.4,56.6h-4.9v-3h4.9V56.6L82.4,56.6L82.4,56.6z M88.1,61.8h-4.9v-3h4.9
			V61.8L88.1,61.8L88.1,61.8z M88.1,56.6h-4.9v-3h4.9V56.6L88.1,56.6L88.1,56.6z M93.8,61.8h-4.9v-3h4.9V61.8L93.8,61.8L93.8,61.8z
			 M93.8,56.6h-4.9v-3h4.9V56.6L93.8,56.6L93.8,56.6z M71.1,56.6h-4.9v-3h4.9V56.6L71.1,56.6L71.1,56.6z M65.4,61.8h-4.9v-3h4.9
			V61.8L65.4,61.8L65.4,61.8z M65.4,56.6h-4.9v-3h4.9V56.6L65.4,56.6L65.4,56.6z M71.1,61.8h-4.9v-3h4.9V61.8L71.1,61.8L71.1,61.8z"
			/>
		<path class="st3" d="M26.1,61.5H13.4v-4h12.7L26.1,61.5L26.1,61.5L26.1,61.5z M42.3,61.5H29.5v-4h12.7L42.3,61.5L42.3,61.5
			L42.3,61.5z"/>
	</g>
	<g>
		<g>
			<rect x="233" y="16.4" class="st4" width="84.2" height="50.4"/>
			<g>
				<g>
					<rect x="234.4" y="18.6" class="st4" width="81.3" height="45.7"/>
				</g>
			</g>
			<g>
				<g>
					<path class="st5" d="M325,14.4c0-3.9-3.2-7.1-7.1-7.1h-85.8c-3.9,0-7.1,3.2-7.1,7.1v55.1h100V14.4z M275.1,9.8
						c1.4,0,2.5,1.1,2.5,2.5s-1.1,2.5-2.5,2.5s-2.5-1.1-2.5-2.5S273.7,9.8,275.1,9.8z M317.1,66.7H233V16.4h84.2v50.3H317.1z
						 M214.8,73.5v0.3c0,4.7,3.8,8.5,8.5,8.5h103.5c4.7,0,8.5-3.8,8.5-8.5v-0.3H214.8z"/>
				</g>
			</g>
		</g>
		<g>
			<g>
				<g>
					<g>
						<g>
							<g>
								<path d="M258.5,37.4h1.2v5.9h3.6v1.1h-4.8V37.4z"/>
								<path d="M268.2,43.3c0,0.1,0,0.2,0.1,0.3c0,0.1,0.1,0.1,0.2,0.1c0,0,0.1,0,0.1,0s0.1,0,0.2,0v0.8c0,0-0.1,0-0.2,0
									c-0.1,0-0.1,0-0.2,0c-0.1,0-0.1,0-0.2,0c-0.1,0-0.1,0-0.2,0c-0.2,0-0.4,0-0.6-0.1s-0.2-0.3-0.3-0.5
									c-0.2,0.2-0.5,0.4-0.8,0.5s-0.6,0.1-0.9,0.1c-0.2,0-0.4,0-0.7-0.1c-0.2-0.1-0.4-0.2-0.6-0.3c-0.2-0.1-0.3-0.3-0.4-0.5
									c-0.1-0.2-0.1-0.4-0.1-0.7c0-0.3,0.1-0.6,0.2-0.8c0.1-0.2,0.3-0.3,0.5-0.5s0.4-0.2,0.6-0.2c0.2,0,0.5-0.1,0.7-0.1
									c0.2,0,0.4-0.1,0.6-0.1c0.2,0,0.3,0,0.5-0.1s0.3-0.1,0.3-0.2c0.1-0.1,0.1-0.2,0.1-0.4c0-0.1,0-0.3-0.1-0.4
									c-0.1-0.1-0.2-0.2-0.3-0.2c-0.1,0-0.2-0.1-0.3-0.1c-0.1,0-0.2,0-0.4,0c-0.3,0-0.6,0.1-0.8,0.2c-0.2,0.1-0.3,0.3-0.3,0.6
									h-1.1c0-0.3,0.1-0.6,0.2-0.8c0.1-0.2,0.3-0.4,0.5-0.5c0.2-0.1,0.5-0.2,0.7-0.3c0.3-0.1,0.5-0.1,0.8-0.1c0.2,0,0.5,0,0.7,0.1
									c0.2,0.1,0.5,0.1,0.7,0.3c0.2,0.1,0.3,0.3,0.5,0.5c0.1,0.2,0.2,0.4,0.2,0.7V43.3z M267.1,41.9c-0.2,0.1-0.4,0.2-0.6,0.2
									c-0.2,0-0.5,0.1-0.7,0.1c-0.1,0-0.2,0-0.3,0.1c-0.1,0-0.2,0.1-0.3,0.1c-0.1,0.1-0.2,0.1-0.2,0.2s-0.1,0.2-0.1,0.4
									c0,0.1,0,0.2,0.1,0.3c0.1,0.1,0.2,0.2,0.3,0.2c0.1,0,0.2,0.1,0.3,0.1c0.1,0,0.2,0,0.3,0c0.1,0,0.3,0,0.4,0
									c0.1,0,0.3-0.1,0.4-0.2c0.1-0.1,0.2-0.2,0.3-0.3s0.1-0.3,0.1-0.4V41.9z"/>
								<path d="M269.5,39.3h1.1V40h0c0.2-0.3,0.4-0.5,0.7-0.6c0.3-0.1,0.6-0.2,0.9-0.2c0.4,0,0.7,0.1,1,0.2
									c0.3,0.1,0.5,0.3,0.7,0.6c0.2,0.2,0.3,0.5,0.4,0.9c0.1,0.3,0.1,0.7,0.1,1c0,0.3,0,0.7-0.1,1c-0.1,0.3-0.2,0.6-0.4,0.8
									s-0.4,0.4-0.7,0.6c-0.3,0.1-0.6,0.2-1,0.2c-0.2,0-0.3,0-0.5,0c-0.2,0-0.3-0.1-0.5-0.1c-0.2-0.1-0.3-0.1-0.4-0.2
									c-0.1-0.1-0.2-0.2-0.3-0.4h0v2.5h-1.1V39.3z M273.4,41.9c0-0.2,0-0.5-0.1-0.7c-0.1-0.2-0.1-0.4-0.3-0.6
									c-0.1-0.2-0.3-0.3-0.4-0.4c-0.2-0.1-0.4-0.2-0.6-0.2c-0.5,0-0.8,0.2-1.1,0.5c-0.2,0.3-0.4,0.8-0.4,1.3c0,0.3,0,0.5,0.1,0.7
									c0.1,0.2,0.2,0.4,0.3,0.6s0.3,0.3,0.4,0.4c0.2,0.1,0.4,0.1,0.6,0.1c0.3,0,0.5-0.1,0.6-0.2c0.2-0.1,0.3-0.2,0.4-0.4
									c0.1-0.2,0.2-0.4,0.2-0.6C273.3,42.3,273.4,42.1,273.4,41.9z"/>
								<path d="M274.9,39.3h0.8v-1.5h1.1v1.5h1v0.8h-1v2.7c0,0.1,0,0.2,0,0.3s0,0.2,0.1,0.2s0.1,0.1,0.2,0.1c0.1,0,0.2,0,0.3,0
									c0.1,0,0.2,0,0.2,0c0.1,0,0.2,0,0.2,0v0.9c-0.1,0-0.2,0-0.4,0c-0.1,0-0.2,0-0.4,0c-0.3,0-0.5,0-0.7-0.1s-0.3-0.1-0.4-0.2
									c-0.1-0.1-0.2-0.2-0.2-0.4c0-0.2-0.1-0.3-0.1-0.6v-3h-0.8V39.3z"/>
								<path d="M281,44.5c-0.4,0-0.8-0.1-1.1-0.2c-0.3-0.1-0.6-0.3-0.8-0.6c-0.2-0.2-0.4-0.5-0.5-0.8c-0.1-0.3-0.2-0.7-0.2-1.1
									c0-0.4,0.1-0.7,0.2-1.1c0.1-0.3,0.3-0.6,0.5-0.8s0.5-0.4,0.8-0.6c0.3-0.1,0.7-0.2,1.1-0.2s0.8,0.1,1.1,0.2s0.6,0.3,0.8,0.6
									s0.4,0.5,0.5,0.8c0.1,0.3,0.2,0.7,0.2,1.1c0,0.4-0.1,0.8-0.2,1.1c-0.1,0.3-0.3,0.6-0.5,0.8c-0.2,0.2-0.5,0.4-0.8,0.6
									S281.4,44.5,281,44.5z M281,43.6c0.2,0,0.5-0.1,0.6-0.2c0.2-0.1,0.3-0.2,0.5-0.4c0.1-0.2,0.2-0.4,0.3-0.6
									c0.1-0.2,0.1-0.4,0.1-0.7c0-0.2,0-0.4-0.1-0.6c-0.1-0.2-0.1-0.4-0.3-0.6c-0.1-0.2-0.3-0.3-0.5-0.4c-0.2-0.1-0.4-0.2-0.6-0.2
									c-0.2,0-0.5,0.1-0.6,0.2s-0.3,0.2-0.5,0.4c-0.1,0.2-0.2,0.4-0.3,0.6c-0.1,0.2-0.1,0.4-0.1,0.6c0,0.2,0,0.4,0.1,0.7
									c0.1,0.2,0.1,0.4,0.3,0.6c0.1,0.2,0.3,0.3,0.5,0.4C280.5,43.6,280.8,43.6,281,43.6z"/>
								<path d="M284.5,39.3h1.1V40h0c0.2-0.3,0.4-0.5,0.7-0.6c0.3-0.1,0.6-0.2,0.9-0.2c0.4,0,0.7,0.1,1,0.2
									c0.3,0.1,0.5,0.3,0.7,0.6c0.2,0.2,0.3,0.5,0.4,0.9s0.1,0.7,0.1,1c0,0.3,0,0.7-0.1,1s-0.2,0.6-0.4,0.8s-0.4,0.4-0.7,0.6
									c-0.3,0.1-0.6,0.2-1,0.2c-0.2,0-0.3,0-0.5,0s-0.3-0.1-0.5-0.1s-0.3-0.1-0.4-0.2c-0.1-0.1-0.2-0.2-0.3-0.4h0v2.5h-1.1V39.3z
									 M288.4,41.9c0-0.2,0-0.5-0.1-0.7c-0.1-0.2-0.1-0.4-0.3-0.6c-0.1-0.2-0.3-0.3-0.4-0.4c-0.2-0.1-0.4-0.2-0.6-0.2
									c-0.5,0-0.8,0.2-1.1,0.5c-0.2,0.3-0.4,0.8-0.4,1.3c0,0.3,0,0.5,0.1,0.7c0.1,0.2,0.2,0.4,0.3,0.6s0.3,0.3,0.4,0.4
									c0.2,0.1,0.4,0.1,0.6,0.1c0.3,0,0.5-0.1,0.6-0.2c0.2-0.1,0.3-0.2,0.4-0.4c0.1-0.2,0.2-0.4,0.2-0.6
									C288.4,42.3,288.4,42.1,288.4,41.9z"/>
							</g>
						</g>
					</g>
				</g>
			</g>
		</g>
	</g>
</g>
</svg>
