<?xml version="1.0" encoding="utf-8"?>
<!-- Generator: Adobe Illustrator 26.0.3, SVG Export Plug-In . SVG Version: 6.00 Build 0)  -->
<svg version="1.1" id="Layer_1" xmlns="http://www.w3.org/2000/svg" xmlns:xlink="http://www.w3.org/1999/xlink" x="0px" y="0px"
	 viewBox="0 0 14.748 14.747" enable-background="new 0 0 14.748 14.747" xml:space="preserve">
<path d="M14.461,7.374c0,3.914-3.172,7.086-7.086,7.086c-3.914,0-7.088-3.172-7.088-7.086c0-3.914,3.174-7.087,7.088-7.087
	C11.289,0.287,14.461,3.461,14.461,7.374z"/>
<g>
	<path fill="#FFFFFF" d="M5.276,9.131c0.217-0.446,0.64-0.852,1.268-1.216l0.938-0.542c0.42-0.244,0.715-0.453,0.884-0.626
		c0.267-0.271,0.4-0.58,0.4-0.929c0-0.408-0.122-0.731-0.366-0.972C8.155,4.608,7.829,4.487,7.422,4.487
		c-0.603,0-1.019,0.229-1.25,0.686C6.048,5.418,5.98,5.757,5.967,6.192H5.074c0.01-0.608,0.122-1.105,0.337-1.489
		c0.381-0.677,1.053-1.016,2.017-1.016c0.801,0,1.386,0.217,1.755,0.649c0.37,0.433,0.555,0.915,0.555,1.445
		c0,0.56-0.197,1.038-0.591,1.436C8.918,7.448,8.509,7.728,7.92,8.057L7.251,8.428C6.932,8.604,6.682,8.772,6.499,8.931
		c-0.325,0.283-0.53,0.598-0.615,0.942h3.818v0.83h-4.8C4.935,10.101,5.06,9.577,5.276,9.131z"/>
</g>
</svg>
