<?xml version="1.0" encoding="utf-8"?>
<!-- Generator: Adobe Illustrator 26.0.3, SVG Export Plug-In . SVG Version: 6.00 Build 0)  -->
<svg version="1.1" id="Layer_1" xmlns="http://www.w3.org/2000/svg" xmlns:xlink="http://www.w3.org/1999/xlink" x="0px" y="0px"
	 viewBox="0 0 14.748 14.747" enable-background="new 0 0 14.748 14.747" xml:space="preserve">
<path d="M14.461,7.374c0,3.914-3.172,7.086-7.086,7.086c-3.914,0-7.088-3.172-7.088-7.086c0-3.914,3.174-7.087,7.088-7.087
	C11.289,0.287,14.461,3.461,14.461,7.374z"/>
<g>
	<path fill="#FFFFFF" d="M5.826,8.921c0.059,0.501,0.291,0.848,0.698,1.04c0.208,0.098,0.449,0.146,0.723,0.146
		c0.521,0,0.906-0.166,1.157-0.498s0.376-0.7,0.376-1.104c0-0.488-0.148-0.866-0.447-1.133c-0.297-0.267-0.654-0.4-1.071-0.4
		c-0.303,0-0.562,0.059-0.778,0.176c-0.217,0.117-0.401,0.28-0.555,0.488L5.166,7.593l0.532-3.765h3.633v0.85H6.358L6.06,6.621
		c0.163-0.124,0.317-0.217,0.464-0.278c0.261-0.107,0.562-0.161,0.903-0.161c0.642,0,1.185,0.207,1.631,0.62
		s0.669,0.938,0.669,1.572c0,0.661-0.204,1.243-0.613,1.748c-0.408,0.505-1.06,0.757-1.955,0.757c-0.569,0-1.073-0.16-1.512-0.48
		c-0.438-0.321-0.683-0.813-0.734-1.478H5.826z"/>
</g>
</svg>
