<?xml version="1.0" encoding="utf-8"?>
<!-- Generator: Adobe Illustrator 26.0.3, SVG Export Plug-In . SVG Version: 6.00 Build 0)  -->
<svg version="1.1" id="Layer_1" xmlns="http://www.w3.org/2000/svg" xmlns:xlink="http://www.w3.org/1999/xlink" x="0px" y="0px"
	 viewBox="0 0 14.748 14.747" enable-background="new 0 0 14.748 14.747" xml:space="preserve">
<path d="M14.461,7.374c0,3.914-3.172,7.086-7.086,7.086c-3.914,0-7.088-3.172-7.088-7.086c0-3.914,3.174-7.087,7.088-7.087
	C11.289,0.287,14.461,3.461,14.461,7.374z"/>
<g>
	<path fill="#FFFFFF" d="M5.389,10.213c-0.373-0.455-0.56-1.007-0.56-1.658h0.918c0.039,0.452,0.124,0.781,0.254,0.986
		c0.228,0.368,0.64,0.552,1.235,0.552c0.462,0,0.833-0.124,1.113-0.371s0.42-0.566,0.42-0.957c0-0.481-0.147-0.818-0.441-1.011
		C8.034,7.562,7.624,7.466,7.1,7.466c-0.059,0-0.118,0.001-0.178,0.003C6.862,7.47,6.8,7.473,6.739,7.476V6.699
		c0.091,0.01,0.168,0.017,0.229,0.02s0.129,0.005,0.2,0.005c0.329,0,0.599-0.052,0.811-0.156C8.35,6.385,8.536,6.06,8.536,5.591
		c0-0.349-0.124-0.617-0.371-0.806S7.629,4.502,7.3,4.502c-0.586,0-0.991,0.195-1.216,0.586C5.96,5.303,5.891,5.609,5.874,6.006
		H5.005c0-0.521,0.104-0.964,0.312-1.328c0.358-0.651,0.988-0.977,1.89-0.977c0.713,0,1.265,0.158,1.655,0.477
		c0.391,0.316,0.586,0.776,0.586,1.379c0,0.43-0.115,0.778-0.347,1.045C8.958,6.768,8.773,6.898,8.545,6.992
		c0.368,0.101,0.655,0.295,0.861,0.584c0.207,0.287,0.311,0.64,0.311,1.057c0,0.667-0.22,1.211-0.659,1.631s-1.062,0.63-1.87,0.63
		C6.361,10.894,5.761,10.666,5.389,10.213z"/>
</g>
</svg>
