<?xml version="1.0" encoding="utf-8"?>
<!-- Generator: Adobe Illustrator 26.0.3, SVG Export Plug-In . SVG Version: 6.00 Build 0)  -->
<svg version="1.1" id="Layer_1" xmlns="http://www.w3.org/2000/svg" xmlns:xlink="http://www.w3.org/1999/xlink" x="0px" y="0px"
	 viewBox="0 0 20.8 14.4" style="enable-background:new 0 0 20.8 14.4;" xml:space="preserve">
<style type="text/css">
	.st0{fill:#EE7623;}
	.st1{fill:#FFFFFF;}
</style>
<g>
	<g>
		<path class="st0" d="M0,13.7h20.8V0.3c0-0.2-0.1-0.3-0.3-0.3H0.3C0.1,0,0,0.1,0,0.3V13.7z"/>
	</g>
	<g>
		<path class="st1" d="M10.4,6C10.6,6,10.8,6,11,5.9s0.3-0.2,0.4-0.3c0.1-0.1,0.2-0.3,0.2-0.6c0-0.4-0.1-0.6-0.4-0.8
			C11,4,10.7,3.9,10.4,3.9c-0.4,0-0.7,0.1-1,0.4C9.3,4.6,9.1,5,9.2,5.4H7.6c0-0.4,0.1-0.8,0.2-1.2c0.1-0.3,0.3-0.6,0.6-0.9
			s0.5-0.4,0.9-0.6c0.3-0.1,0.7-0.2,1.1-0.2c0.3,0,0.7,0,1,0.1c0.3,0.1,0.6,0.2,0.9,0.4s0.5,0.4,0.6,0.7s0.2,0.6,0.2,1
			c0,0.4-0.1,0.8-0.3,1.1c-0.2,0.3-0.5,0.5-0.9,0.6v0c0.5,0.1,0.8,0.3,1.1,0.7c0.3,0.3,0.4,0.7,0.4,1.2c0,0.4-0.1,0.8-0.3,1.1
			c-0.2,0.3-0.4,0.6-0.7,0.8s-0.6,0.4-1,0.5c-0.4,0.1-0.8,0.2-1.1,0.2c-0.5,0-0.9-0.1-1.3-0.2c-0.4-0.1-0.7-0.3-1-0.6
			S7.7,9.7,7.6,9.4C7.4,9,7.4,8.6,7.4,8.1H9c0,0.2,0,0.4,0.1,0.6c0.1,0.2,0.2,0.4,0.3,0.5s0.3,0.3,0.4,0.3s0.4,0.1,0.6,0.1
			c0.4,0,0.7-0.1,0.9-0.3s0.4-0.5,0.4-0.9c0-0.3-0.1-0.6-0.2-0.7s-0.3-0.3-0.5-0.4s-0.4-0.1-0.6-0.1c-0.2,0-0.4,0-0.6,0V6
			C10,6,10.2,6,10.4,6z"/>
	</g>
</g>
</svg>
