<?xml version="1.0" encoding="utf-8"?>
<!-- Generator: Adobe Illustrator 21.1.0, SVG Export Plug-In . SVG Version: 6.00 Build 0)  -->
<svg version="1.1" id="Layer_1" xmlns="http://www.w3.org/2000/svg" xmlns:xlink="http://www.w3.org/1999/xlink" x="0px" y="0px"
	 width="90.1px" height="13.6px" viewBox="0 0 90.1 13.6" style="enable-background:new 0 0 90.1 13.6;" xml:space="preserve">
<style type="text/css">
	.st0{fill-rule:evenodd;clip-rule:evenodd;fill:#2968B2;}
	.st1{fill:none;stroke:#759ED3;stroke-width:1.146103e-02;stroke-linecap:round;stroke-linejoin:round;stroke-miterlimit:10;}
	.st2{fill-rule:evenodd;clip-rule:evenodd;fill:#4174BA;}
	.st3{fill-rule:evenodd;clip-rule:evenodd;fill:#D9D9D9;stroke:#000000;stroke-width:0.104;stroke-miterlimit:10;}
	.st4{fill:none;stroke:#999999;stroke-width:1.445034e-02;stroke-linecap:round;stroke-linejoin:round;stroke-miterlimit:10;}
	.st5{fill-rule:evenodd;clip-rule:evenodd;fill:#A6A6A6;}
</style>
<g>
	<g>
		<g>
			<path class="st0" d="M0.4,8C0.1,8.4,0,8.7,0,9c0,0.5,0.3,0.8,0.9,0.8c0.7,0,0.7-0.6-0.2-1.5C0.6,8.3,0.5,8.1,0.4,8z M36.7,4.1v-1
				h-5.5l1.8,1H36.7z M23.4,11.6c-2.6,0-4.8-2.1-4.8-4.7c0-2.6,2.1-4.7,4.8-4.7c2.6,0,4.8,2.1,4.8,4.7C28.2,9.4,26,11.6,23.4,11.6z
				 M41.2,9.4V4.3h-8.2l-6.4-3.4c-3.3-1.8-7.5-0.6-9.3,2.7c-1.8,3.3-0.6,7.4,2.8,9.2c2.1,1.1,4.5,1.1,6.6,0l6.4-3.4H41.2z M19.2,7.4
				c0.1,0.9,0.6,1.8,1.3,2.4h5.9c0.7-0.6,1.1-1.5,1.3-2.4H19.2z M0,7c0,0.3,0.1,0.7,0.4,1c0.1,0.1,0.2,0.2,0.3,0.3
				c0.9,0.9,1,1.5,0.2,1.5h16.2c-0.4-0.8-0.6-1.6-0.7-2.4H0.9C0.4,7.4,0.1,7.2,0,6.8C0,6.9,0,7,0,7z M0.4,5.6C0.1,6,0,6.3,0,6.6
				c0,0.5,0.3,0.8,0.9,0.8c0.7,0,0.7-0.6-0.2-1.5C0.6,5.8,0.5,5.7,0.4,5.6z M0.9,3.8C0.3,3.8,0,4.1,0,4.6c0,0.3,0.1,0.7,0.4,1
				c0.1,0.1,0.2,0.2,0.3,0.3c0.9,0.9,1,1.5,0.2,1.5h15.5c-0.1-1.3,0.1-2.5,0.7-3.7H0.9z M19.2,7.4h8.4c0.2-1.4-0.3-2.7-1.3-3.7h-5.9
				C19.4,4.7,19,6.1,19.2,7.4z M36.7,9.5l-3.6,0l-1.9,1h5.4V9.5z"/>
			<path class="st1" d="M0.4,8C0.1,8.4,0,8.7,0,9c0,0.5,0.3,0.8,0.9,0.8c0.7,0,0.7-0.6-0.2-1.5C0.6,8.3,0.5,8.1,0.4,8z M36.7,4.1v-1
				h-5.5l1.8,1H36.7z M23.4,11.6c-2.6,0-4.8-2.1-4.8-4.7c0-2.6,2.1-4.7,4.8-4.7c2.6,0,4.8,2.1,4.8,4.7C28.2,9.4,26,11.6,23.4,11.6z
				 M41.2,9.4V4.3h-8.2l-6.4-3.4c-3.3-1.8-7.5-0.6-9.3,2.7c-1.8,3.3-0.6,7.4,2.8,9.2c2.1,1.1,4.5,1.1,6.6,0l6.4-3.4H41.2z M19.2,7.4
				c0.1,0.9,0.6,1.8,1.3,2.4h5.9c0.7-0.6,1.1-1.5,1.3-2.4H19.2z M0,7c0,0.3,0.1,0.7,0.4,1c0.1,0.1,0.2,0.2,0.3,0.3
				c0.9,0.9,1,1.5,0.2,1.5h16.2c-0.4-0.8-0.6-1.6-0.7-2.4H0.9C0.4,7.4,0.1,7.2,0,6.8C0,6.9,0,7,0,7z M0.4,5.6C0.1,6,0,6.3,0,6.6
				c0,0.5,0.3,0.8,0.9,0.8c0.7,0,0.7-0.6-0.2-1.5C0.6,5.8,0.5,5.7,0.4,5.6z M0.9,3.8C0.3,3.8,0,4.1,0,4.6c0,0.3,0.1,0.7,0.4,1
				c0.1,0.1,0.2,0.2,0.3,0.3c0.9,0.9,1,1.5,0.2,1.5h15.5c-0.1-1.3,0.1-2.5,0.7-3.7H0.9z M19.2,7.4h8.4c0.2-1.4-0.3-2.7-1.3-3.7h-5.9
				C19.4,4.7,19,6.1,19.2,7.4z M36.7,9.5l-3.6,0l-1.9,1h5.4V9.5z"/>
			<path class="st2" d="M23.4,11.9c2.8,0,5.2-2.3,5.2-5.1c0-2.8-2.3-5.1-5.2-5.1c-2.8,0-5.2,2.3-5.2,5.1
				C18.2,9.6,20.5,11.9,23.4,11.9z M23.4,11.2c-2.4,0-4.4-2-4.4-4.4s2-4.4,4.4-4.4c2.4,0,4.4,2,4.4,4.4S25.8,11.2,23.4,11.2z
				 M23.4,13.6c3.8,0,6.9-3.1,6.9-6.8c0-3.8-3.1-6.8-6.9-6.8c-3.8,0-6.9,3.1-6.9,6.8C16.5,10.6,19.6,13.6,23.4,13.6z M23.4,12.9
				c-3.4,0-6.2-2.7-6.2-6.1c0-3.4,2.8-6.1,6.2-6.1c3.4,0,6.2,2.7,6.2,6.1C29.5,10.2,26.8,12.9,23.4,12.9z"/>
			<path class="st1" d="M23.4,11.9c2.8,0,5.2-2.3,5.2-5.1c0-2.8-2.3-5.1-5.2-5.1c-2.8,0-5.2,2.3-5.2,5.1
				C18.2,9.6,20.5,11.9,23.4,11.9z M23.4,11.2c-2.4,0-4.4-2-4.4-4.4s2-4.4,4.4-4.4c2.4,0,4.4,2,4.4,4.4S25.8,11.2,23.4,11.2z
				 M23.4,13.6c3.8,0,6.9-3.1,6.9-6.8c0-3.8-3.1-6.8-6.9-6.8c-3.8,0-6.9,3.1-6.9,6.8C16.5,10.6,19.6,13.6,23.4,13.6z M23.4,12.9
				c-3.4,0-6.2-2.7-6.2-6.1c0-3.4,2.8-6.1,6.2-6.1c3.4,0,6.2,2.7,6.2,6.1C29.5,10.2,26.8,12.9,23.4,12.9z"/>
		</g>
	</g>
	<g>
		<path class="st3" d="M39.7,11.1c0-0.7,0.6-1.3,1.3-1.3c0.7,0,1.3,0.6,1.3,1.3c0,0.7-0.6,1.3-1.3,1.3
			C40.2,12.3,39.7,11.8,39.7,11.1z M39.7,2.5c0-0.7,0.6-1.3,1.3-1.3c0.7,0,1.3,0.6,1.3,1.3c0,0.7-0.6,1.3-1.3,1.3
			C40.2,3.7,39.7,3.2,39.7,2.5z M36.8,13.1h8.9V0.4h-8.9V13.1z M39.7,11.1c0,0.7,0.6,1.3,1.3,1.3c0.7,0,1.3-0.6,1.3-1.3
			c0-0.7-0.6-1.3-1.3-1.3C40.2,9.8,39.7,10.3,39.7,11.1z M39.7,2.5c0,0.7,0.6,1.3,1.3,1.3c0.7,0,1.3-0.6,1.3-1.3
			c0-0.7-0.6-1.3-1.3-1.3C40.2,1.2,39.7,1.7,39.7,2.5z M45.6,0.6v12.4h7.6v-0.6h4.5V1.2h-4.5V0.6H45.6z M60.1,2.4
			c0-0.3,0.2-0.5,0.5-0.5h23.8c0.3,0,0.5,0.2,0.5,0.5v8.7c0,0.3-0.2,0.5-0.5,0.5l0,0H60.6c-0.3,0-0.5-0.2-0.5-0.5V2.4z M89.1,12.9
			c0.3,0,0.5-0.2,0.6-0.5L90,7.2V6.3l-0.3-5.2c0-0.3-0.3-0.5-0.6-0.5H53.2v0.6h4.5v11.1h-4.5v0.6H89.1z M60.1,2.4v8.7
			c0,0.3,0.2,0.5,0.5,0.5l0,0h23.8c0.3,0,0.5-0.2,0.5-0.5l0,0V2.4c0-0.3-0.2-0.5-0.5-0.5H60.6C60.3,1.9,60.1,2.2,60.1,2.4z"/>
		<path class="st4" d="M39.7,11.1c0-0.7,0.6-1.3,1.3-1.3c0.7,0,1.3,0.6,1.3,1.3c0,0.7-0.6,1.3-1.3,1.3
			C40.2,12.3,39.7,11.8,39.7,11.1z M39.7,2.5c0-0.7,0.6-1.3,1.3-1.3c0.7,0,1.3,0.6,1.3,1.3c0,0.7-0.6,1.3-1.3,1.3
			C40.2,3.7,39.7,3.2,39.7,2.5z M36.8,13.1h8.9V0.4h-8.9V13.1z M39.7,11.1c0,0.7,0.6,1.3,1.3,1.3c0.7,0,1.3-0.6,1.3-1.3
			c0-0.7-0.6-1.3-1.3-1.3C40.2,9.8,39.7,10.3,39.7,11.1z M39.7,2.5c0,0.7,0.6,1.3,1.3,1.3c0.7,0,1.3-0.6,1.3-1.3
			c0-0.7-0.6-1.3-1.3-1.3C40.2,1.2,39.7,1.7,39.7,2.5z M45.6,0.6v12.4h7.6v-0.6h4.5V1.2h-4.5V0.6H45.6z M60.1,2.4
			c0-0.3,0.2-0.5,0.5-0.5h23.8c0.3,0,0.5,0.2,0.5,0.5v8.7c0,0.3-0.2,0.5-0.5,0.5l0,0H60.6c-0.3,0-0.5-0.2-0.5-0.5V2.4z M89.1,12.9
			c0.3,0,0.5-0.2,0.6-0.5L90,7.2V6.3l-0.3-5.2c0-0.3-0.3-0.5-0.6-0.5H53.2v0.6h4.5v11.1h-4.5v0.6H89.1z M60.1,2.4v8.7
			c0,0.3,0.2,0.5,0.5,0.5l0,0h23.8c0.3,0,0.5-0.2,0.5-0.5l0,0V2.4c0-0.3-0.2-0.5-0.5-0.5H60.6C60.3,1.9,60.1,2.2,60.1,2.4z"/>
		<path class="st5" d="M46.5,10.1h4.2c0.1,0,0.2-0.1,0.2-0.2V9.8c0-0.1-0.1-0.2-0.2-0.2h-3.3c-0.3,0-0.5-0.2-0.5-0.5l0,0V8.6
			c0-0.3,0.2-0.5,0.5-0.5h3.3C50.9,8.2,51,8.1,51,8V7.9c0-0.1-0.1-0.2-0.2-0.2h-4.2V10.1z M46.5,5.9h4.2c0.1,0,0.2-0.1,0.2-0.2V5.6
			c0-0.1-0.1-0.2-0.2-0.2h-3.3c-0.3,0-0.5-0.2-0.5-0.5l0,0V4.4c0-0.3,0.2-0.5,0.5-0.5h3.3c0.1,0,0.2-0.1,0.2-0.2V3.6
			c0-0.1-0.1-0.2-0.2-0.2h-4.2V5.9z"/>
		<path class="st4" d="M46.5,10.1h4.2c0.1,0,0.2-0.1,0.2-0.2V9.8c0-0.1-0.1-0.2-0.2-0.2h-3.3c-0.3,0-0.5-0.2-0.5-0.5l0,0V8.6
			c0-0.3,0.2-0.5,0.5-0.5h3.3C50.9,8.2,51,8.1,51,8V7.9c0-0.1-0.1-0.2-0.2-0.2h-4.2V10.1z M46.5,5.9h4.2c0.1,0,0.2-0.1,0.2-0.2V5.6
			c0-0.1-0.1-0.2-0.2-0.2h-3.3c-0.3,0-0.5-0.2-0.5-0.5l0,0V4.4c0-0.3,0.2-0.5,0.5-0.5h3.3c0.1,0,0.2-0.1,0.2-0.2V3.6
			c0-0.1-0.1-0.2-0.2-0.2h-4.2V5.9z"/>
	</g>
</g>
</svg>
