<?xml version="1.0" encoding="utf-8"?>
<!-- Generator: Adobe Illustrator 22.1.0, SVG Export Plug-In . SVG Version: 6.00 Build 0)  -->
<svg version="1.1" id="Layer_1" xmlns="http://www.w3.org/2000/svg" xmlns:xlink="http://www.w3.org/1999/xlink" x="0px" y="0px"
	 width="149.9px" height="63px" viewBox="0 0 149.9 63" style="enable-background:new 0 0 149.9 63;" xml:space="preserve">
<style type="text/css">
	.st0{fill:none;stroke:#CDDE00;stroke-width:1.0473;stroke-miterlimit:10;}
	.st1{fill:#FFFFFF;}
	.st2{fill:none;stroke:#FFFFFF;stroke-width:5.8913;stroke-miterlimit:10;}
	.st3{clip-path:url(#SVGID_2_);fill:#BCBDBF;}
	.st4{clip-path:url(#SVGID_2_);fill:none;stroke:#221F1F;stroke-width:0.2205;stroke-miterlimit:10;}
	.st5{clip-path:url(#SVGID_2_);fill:#FFFFFF;}
	.st6{clip-path:url(#SVGID_2_);fill:#E5E6E6;}
	.st7{clip-path:url(#SVGID_2_);fill:#A7A8AB;}
	.st8{clip-path:url(#SVGID_2_);fill:#59595C;}
	.st9{clip-path:url(#SVGID_2_);fill:#221F1F;}
	.st10{clip-path:url(#SVGID_2_);fill:#25A9E0;stroke:#231F20;stroke-width:0.3998;stroke-miterlimit:10;}
	.st11{clip-path:url(#SVGID_2_);}
	.st12{fill:#221F1F;}
	.st13{font-family:'Gotham-Book';}
	.st14{font-size:5.0876px;}
	.st15{fill:none;stroke:#CDDE00;stroke-width:2.0947;stroke-miterlimit:10;}
	.st16{fill:#CDDE00;}
	.st17{fill:none;stroke:#FFFFFF;stroke-width:1.1783;stroke-miterlimit:10;}
	.st18{fill:none;stroke:#FFFFFF;stroke-width:0.5237;stroke-linecap:round;stroke-linejoin:round;stroke-miterlimit:10;}
	.st19{font-size:7.0932px;}
	.st20{fill:none;stroke:#00A6CE;stroke-width:1.1434;stroke-linecap:round;stroke-linejoin:round;}
	.st21{fill:#00A6CE;}
</style>
<g>
	<g>
		<g>
			<g>
				<line class="st0" x1="38.1" y1="32.6" x2="36.6" y2="31.7"/>
				<path class="st1" d="M146.9,34.2c0,14.2-32.2,25.8-72,25.8c-39.8,0-72-11.6-72-25.8c0-14.2,32.2-25.8,72-25.8
					C114.7,8.4,146.9,20,146.9,34.2"/>
				<ellipse class="st2" cx="74.9" cy="34.2" rx="72" ry="25.8"/>
			</g>
			<g>
				<defs>
					<path id="SVGID_1_" d="M2.9,34.2c0,14.2,32.2,25.8,72,25.8c39.8,0,72-11.6,72-25.8c0-14.2-32.2-25.8-72-25.8
						C35.2,8.4,2.9,20,2.9,34.2"/>
				</defs>
				<clipPath id="SVGID_2_">
					<use xlink:href="#SVGID_1_"  style="overflow:visible;"/>
				</clipPath>
				<polygon class="st3" points="-6.5,-13 -6.5,15.9 112.2,45 112.2,16 				"/>
				<polygon class="st4" points="-6.5,-13 -6.5,15.9 112.2,45 112.2,16 				"/>
				<polyline class="st4" points="126.2,11.2 116.4,15.6 116.4,45 126.2,40.1 				"/>
				<polyline class="st4" points="126.2,9.7 115.1,14.9 -5.1,-14.1 				"/>
				<polyline class="st4" points="126.2,41.3 113.8,47 -7.9,17.2 				"/>
				<line class="st4" x1="112.2" y1="16" x2="114.3" y2="16.2"/>
				<line class="st4" x1="114.3" y1="16.2" x2="116.4" y2="15.6"/>
				<line class="st4" x1="113.3" y1="16.2" x2="113.3" y2="46.9"/>
				<line class="st4" x1="114.6" y1="16.2" x2="114.6" y2="46.6"/>
				<line class="st4" x1="115.7" y1="14.9" x2="115.5" y2="45"/>
				<line class="st4" x1="115.4" y1="45" x2="116.4" y2="45.3"/>
				<line class="st4" x1="113.1" y1="14.5" x2="112.2" y2="16"/>
				<line class="st4" x1="114" y1="14.9" x2="113.5" y2="15.9"/>
				<line class="st4" x1="114" y1="14.5" x2="114.8" y2="16.2"/>
				<line class="st4" x1="112.2" y1="45" x2="113.1" y2="45.3"/>
				<line class="st4" x1="113.1" y1="45.3" x2="114.6" y2="45.3"/>
				<line class="st4" x1="114.6" y1="45.3" x2="115.5" y2="45"/>
				<path class="st5" d="M38.8,6.7c0.2-0.1,0.6-0.3,1.1-0.5c0.6-0.3,1.3-0.6,1.7-0.7c0.3-0.1,1.5,0.2,2.5,0.4
					c1,0.2,10.6,2.7,10.9,2.8c1.2,0.4,1.5,0.1,1.4,1.5c0,1.1,0,7.4,0,7.4c-0.4,0.3-1,0.5-1.5,0.7c-0.3,0.1-0.6,0.2-0.9,0.3
					c-0.5,0.1-0.8,0-1.5-0.1"/>
				<path class="st4" d="M38.8,6.7c0.2-0.1,0.6-0.3,1.1-0.5c0.6-0.3,1.3-0.6,1.7-0.7c0.3-0.1,1.5,0.2,2.5,0.4
					c1,0.2,10.6,2.7,10.9,2.8c1.2,0.4,1.5,0.1,1.4,1.5c0,1.1,0,7.4,0,7.4c-0.4,0.3-1,0.5-1.5,0.7c-0.3,0.1-0.6,0.2-0.9,0.3
					c-0.5,0.1-0.8,0-1.5-0.1"/>
				<path class="st5" d="M38.6,7.7c0,0.5,0.2,6.6,0.1,7c-0.1,0.4,0.7,0.7,1,0.7c0.3,0,12.1,3,12.7,3.1c0.6,0.1,1.5,0.5,1.6-0.3
					c0.1-1-0.2-6.4-0.2-6.8c0-0.3,0.2-0.6-1-0.9C51.5,10.2,40.4,7.2,39.3,7C38.2,6.8,38.6,7.5,38.6,7.7"/>
				<path class="st4" d="M38.6,7.7c0,0.5,0.2,6.6,0.1,7c-0.1,0.4,0.7,0.7,1,0.7c0.3,0,12.1,3,12.7,3.1c0.6,0.1,1.5,0.5,1.6-0.3
					c0.1-1-0.2-6.4-0.2-6.8c0-0.3,0.2-0.6-1-0.9C51.5,10.2,40.4,7.2,39.3,7C38.2,6.8,38.6,7.5,38.6,7.7z"/>
				<line class="st4" x1="38.8" y1="14" x2="50" y2="9.8"/>
				<line class="st4" x1="44.7" y1="8.3" x2="44.6" y2="11.8"/>
				<line class="st4" x1="44.6" y1="11.8" x2="53.7" y2="14.2"/>
				<polyline class="st4" points="55.1,18.5 56.8,18.9 56.7,8.6 39.9,4.6 39.9,6.2 				"/>
				<polyline class="st4" points="40.3,5.9 40.3,5.1 41.9,5.4 				"/>
				<polyline class="st4" points="55.1,8.7 56.4,9 56.4,10.2 				"/>
				<polyline class="st4" points="55.7,18.1 56.4,18.3 56.4,17.5 				"/>
				<path class="st6" d="M-17.4-6.9c0.2-0.1,0.6-0.3,1.1-0.5c0.6-0.3,1.3-0.6,1.7-0.7c0.3-0.1,1.5,0.2,2.5,0.4
					c1,0.2,10.6,2.7,10.9,2.8C0-4.5,0.2-4.8,0.2-3.4c0,1.1,0,11,0,11c-0.4,0.3-1,0.5-1.5,0.7c-0.3,0.1-0.6,0.2-0.9,0.3
					c-0.5,0.1-0.8,0-1.5-0.1"/>
				<path class="st4" d="M-17.4-6.9c0.2-0.1,0.6-0.3,1.1-0.5c0.6-0.3,1.3-0.6,1.7-0.7c0.3-0.1,1.5,0.2,2.5,0.4
					c1,0.2,10.6,2.7,10.9,2.8C0-4.5,0.2-4.8,0.2-3.4c0,1.1,0,11,0,11c-0.4,0.3-1,0.5-1.5,0.7c-0.3,0.1-0.6,0.2-0.9,0.3
					c-0.5,0.1-0.8,0-1.5-0.1"/>
				<path class="st6" d="M-17.6-5.9c0,0.5,0.2,6.6,0.1,7c-0.1,0.4,0.7,4.3,1,4.3c0.3,0,12.1,3,12.7,3.1c0.6,0.1,1.5,0.5,1.6-0.3
					c0.1-1-0.2-10-0.2-10.4c0-0.3,0.2-0.6-1-0.9c-1.2-0.3-12.3-3.3-13.4-3.5C-18-6.9-17.7-6.2-17.6-5.9"/>
				<path class="st4" d="M-17.6-5.9c0,0.5,0.2,6.6,0.1,7c-0.1,0.4,0.7,4.3,1,4.3c0.3,0,12.1,3,12.7,3.1c0.6,0.1,1.5,0.5,1.6-0.3
					c0.1-1-0.2-10-0.2-10.4c0-0.3,0.2-0.6-1-0.9c-1.2-0.3-12.3-3.3-13.4-3.5C-18-6.9-17.7-6.2-17.6-5.9z"/>
				<line class="st4" x1="-17.4" y1="0.3" x2="-6.2" y2="-3.9"/>
				<line class="st4" x1="-11.5" y1="-5.4" x2="-11.6" y2="-1.9"/>
				<line class="st4" x1="-11.6" y1="-1.9" x2="-2.5" y2="0.5"/>
				<polyline class="st4" points="-1.1,8.4 0.6,8.8 0.5,-5 -16.3,-9.1 -16.3,-7.5 				"/>
				<polyline class="st4" points="-1.1,-5 0.2,-4.7 0.2,-3.4 				"/>
				<polyline class="st4" points="-0.5,8.1 0.2,8.3 0.2,7.4 				"/>
				<path class="st6" d="M71,14.7c0.2-0.1,0.6-0.3,1.1-0.5c0.6-0.3,1.3-0.6,1.7-0.7c0.3-0.1,1.5,0.2,2.5,0.4
					c1,0.2,10.6,2.7,10.9,2.8c1.2,0.4,1.5,0.1,1.4,1.5c0,1.1,0,7.4,0,7.4c-0.4,0.3-1,0.5-1.5,0.7c-0.3,0.1-0.6,0.2-0.9,0.3
					c-0.5,0.1-0.8,0-1.5-0.1"/>
				<path class="st4" d="M71,14.7c0.2-0.1,0.6-0.3,1.1-0.5c0.6-0.3,1.3-0.6,1.7-0.7c0.3-0.1,1.5,0.2,2.5,0.4
					c1,0.2,10.6,2.7,10.9,2.8c1.2,0.4,1.5,0.1,1.4,1.5c0,1.1,0,7.4,0,7.4c-0.4,0.3-1,0.5-1.5,0.7c-0.3,0.1-0.6,0.2-0.9,0.3
					c-0.5,0.1-0.8,0-1.5-0.1"/>
				<path class="st6" d="M70.7,15.7c0,0.5,0.2,6.6,0.1,7c-0.1,0.4,0.7,0.7,1,0.7c0.3,0,12.1,3,12.7,3.1c0.6,0.1,1.5,0.5,1.6-0.3
					c0.1-1-0.2-6.4-0.2-6.8c0-0.3,0.2-0.6-1-0.9c-1.2-0.3-12.3-3.3-13.4-3.5C70.4,14.7,70.7,15.5,70.7,15.7"/>
				<path class="st4" d="M70.7,15.7c0,0.5,0.2,6.6,0.1,7c-0.1,0.4,0.7,0.7,1,0.7c0.3,0,12.1,3,12.7,3.1c0.6,0.1,1.5,0.5,1.6-0.3
					c0.1-1-0.2-6.4-0.2-6.8c0-0.3,0.2-0.6-1-0.9c-1.2-0.3-12.3-3.3-13.4-3.5C70.4,14.7,70.7,15.5,70.7,15.7z"/>
				<line class="st4" x1="71" y1="22" x2="82.2" y2="17.7"/>
				<line class="st4" x1="76.8" y1="16.2" x2="76.8" y2="19.8"/>
				<line class="st4" x1="76.8" y1="19.8" x2="85.9" y2="22.2"/>
				<polyline class="st4" points="87.3,26.4 88.9,26.8 88.9,16.6 72.1,12.5 72.1,14.2 				"/>
				<polyline class="st4" points="72.5,13.8 72.5,13 74.1,13.4 				"/>
				<polyline class="st4" points="87.2,16.6 88.6,16.9 88.6,18.2 				"/>
				<polyline class="st4" points="87.9,26.1 88.6,26.3 88.6,25.5 				"/>
				<path class="st5" d="M95.3,23.1c0.1,0.6-0.2,1.2-0.8,1.3c-0.5,0.1-1-0.3-1.1-1c-0.1-0.6,0.2-1.2,0.8-1.3
					C94.7,22.1,95.2,22.5,95.3,23.1"/>
				<path class="st4" d="M95.3,23.1c0.1,0.6-0.2,1.2-0.8,1.3c-0.5,0.1-1-0.3-1.1-1c-0.1-0.6,0.2-1.2,0.8-1.3
					C94.7,22.1,95.2,22.5,95.3,23.1z"/>
				<path class="st5" d="M63,15.2c0.1,0.6-0.2,1.2-0.8,1.3c-0.5,0.1-1-0.3-1.1-1c-0.1-0.6,0.2-1.2,0.8-1.3
					C62.4,14.1,62.9,14.6,63,15.2"/>
				<path class="st4" d="M63,15.2c0.1,0.6-0.2,1.2-0.8,1.3c-0.5,0.1-1-0.3-1.1-1c-0.1-0.6,0.2-1.2,0.8-1.3
					C62.4,14.1,62.9,14.6,63,15.2z"/>
				<path class="st4" d="M114.8,3.2c0,0.4-0.9,0.7-2.1,0.7c-1.1,0-2.1-0.3-2.1-0.7c0-0.4,0.9-0.7,2.1-0.7
					C113.9,2.4,114.8,2.8,114.8,3.2z"/>
				<path class="st4" d="M120.7,24.2c-0.4,1.4-1.4,2.3-2.2,2.1c-0.8-0.2-1.2-1.5-0.8-2.9c0.4-1.4,1.4-2.3,2.2-2.1
					C120.8,21.5,121.1,22.8,120.7,24.2z"/>
				<path class="st4" d="M119.5,23.9c-0.1,0.3-0.3,0.6-0.5,0.5c-0.2-0.1-0.3-0.4-0.2-0.7c0.1-0.3,0.3-0.6,0.5-0.5
					C119.5,23.2,119.6,23.5,119.5,23.9z"/>
				<path class="st4" d="M120.6,35.8c-0.4,1.4-1.4,2.3-2.2,2.1c-0.8-0.2-1.2-1.5-0.8-2.9c0.4-1.4,1.4-2.3,2.2-2.1
					C120.6,33.1,121,34.4,120.6,35.8z"/>
				<path class="st4" d="M119.3,35.4c-0.1,0.3-0.3,0.6-0.5,0.5c-0.2-0.1-0.3-0.4-0.2-0.7c0.1-0.3,0.3-0.6,0.5-0.5
					C119.3,34.8,119.4,35.1,119.3,35.4z"/>
				<path class="st6" d="M100.2,49.3c0.9,0.2,1.7,0.5,1.9,0.5c0.2,0,0.6-0.3,0.6-0.7v-3.7c0-0.5,0.4-0.9-0.8-1.2
					C100.7,43.8,0.2,19.2,0.2,19.2S0,19.6-1.4,20.3c-1.4,0.7-4.6,1.5-5.1,2.1c-0.5,0.7-0.9,8.4-0.9,8.4s-1.7,1.1,0.9-0.5
					c2.5-1.6,2.3-1.3,2.3-1.3s0-1.2,0.2-0.3c0.2,0.9-0.2,3.7,0.4,4.2c0.6,0.5,1,1.1,4.1,1.3c3.1,0.2,17.1,3.4,18.2,3.5
					c1.1,0.1,6.3,1.2,6.9,1.4c0.7,0.2,2.8,0.6,5.3-0.5c2.5-1.1,9.9-3.7,11.4-3.4C48.6,36.7,100.2,49.3,100.2,49.3"/>
				<path class="st4" d="M100.2,49.3c0.9,0.2,1.7,0.5,1.9,0.5c0.2,0,0.6-0.3,0.6-0.7v-3.7c0-0.5,0.4-0.9-0.8-1.2
					C100.7,43.8,0.2,19.2,0.2,19.2S0,19.6-1.4,20.3c-1.4,0.7-4.6,1.5-5.1,2.1c-0.5,0.7-0.9,8.4-0.9,8.4s-1.7,1.1,0.9-0.5
					c2.5-1.6,2.3-1.3,2.3-1.3s0-1.2,0.2-0.3c0.2,0.9-0.2,3.7,0.4,4.2c0.6,0.5,1,1.1,4.1,1.3c3.1,0.2,17.1,3.4,18.2,3.5
					c1.1,0.1,6.3,1.2,6.9,1.4c0.7,0.2,2.8,0.6,5.3-0.5c2.5-1.1,9.9-3.7,11.4-3.4C48.6,36.7,100.2,49.3,100.2,49.3z"/>
				<path class="st4" d="M102.3,44.3c0.1,0.6,0,1.1-0.2,1.4c-0.2,0.3-0.2,3.7-0.1,3.9"/>
				<path class="st4" d="M102.7,45.3c0,0-57.1-14.1-58.3-14.2c-1.2-0.1-3.2-0.7-5.6,0c-2.4,0.7-8.8,3.3-9.8,3.4
					c-1,0.1-12.2-1.2-16.1-2.4c-3.9-1.2-8.2-3.2-9-3.6c-0.8-0.3-4.2-1-5.3-1.4c-1.1-0.4-2.1-0.4-2-0.9c0-0.5,2-2.4,2.9-2.8
					C0.5,23,3.6,22.2,4,21.8c0.4-0.4,1-0.5,0.1-0.8c-0.8-0.3-1.4-0.8-2.9-0.7c-1.5,0.1-6.2,2.5-6.8,2.8"/>
				<path class="st4" d="M102.7,46.6c0,0-57.5-14.5-58.6-14.7c-1.2-0.1-2.6-0.6-4.9,0.2c-2.4,0.7-8.9,3.1-9.9,3.2
					c-1,0.1-12.7-1.2-16.6-2.3c-3.9-1.2-8.9-3.6-9.7-3.9c-0.8-0.3-3.6-0.8-4.7-1.2c-1.2-0.4-2.5-0.6-2.3-1.5"/>
				<path class="st4" d="M-2,24.5C-4,25.9-4.2,25-3.9,31"/>
				<line class="st4" x1="-1.5" y1="27.1" x2="-1.9" y2="27.8"/>
				<line class="st4" x1="-1.9" y1="27.8" x2="-1.9" y2="34"/>
				<line class="st4" x1="1.3" y1="27.8" x2="1.3" y2="28.5"/>
				<line class="st4" x1="1.3" y1="27.8" x2="3.1" y2="27.1"/>
				<line class="st4" x1="3.3" y1="29.1" x2="3.4" y2="28.4"/>
				<line class="st4" x1="3.4" y1="28.4" x2="5.5" y2="27.8"/>
				<line class="st4" x1="10.6" y1="32.2" x2="10.8" y2="31.6"/>
				<line class="st4" x1="10.9" y1="31.6" x2="12.8" y2="30.8"/>
				<line class="st4" x1="13" y1="33" x2="13" y2="32.1"/>
				<line class="st4" x1="13" y1="32.1" x2="14.8" y2="31.6"/>
				<line class="st4" x1="26.3" y1="35.1" x2="27.5" y2="34.4"/>
				<line class="st4" x1="26.3" y1="35.2" x2="26.3" y2="39.3"/>
				<line class="st4" x1="29.2" y1="34.4" x2="29.5" y2="35.2"/>
				<line class="st4" x1="29.5" y1="35.2" x2="29.4" y2="39.1"/>
				<line class="st4" x1="39.6" y1="30.9" x2="39.9" y2="31.6"/>
				<line class="st4" x1="39.9" y1="31.6" x2="39.9" y2="35.5"/>
				<polygon class="st4" points="0.8,30 0.8,32.6 3.3,31.9 				"/>
				<path class="st4" d="M19.8,32.1c-0.5,0.3,7,1.9,7.7,1.7c0.7-0.1,11.3-3.5,11.8-3.9c0.4-0.3,0.5-0.4-0.7-0.7
					c-1.3-0.2-3.2-0.7-4.4-1c-1.2-0.3-1-0.1-2.6,0.3C29.9,29.1,20.4,31.7,19.8,32.1z"/>
				<line class="st4" x1="20.6" y1="32.5" x2="33.4" y2="28.7"/>
				<line class="st4" x1="33.4" y1="28.7" x2="39.1" y2="30"/>
				<path class="st4" d="M-0.5,26.4c0.6,0.1,4.3,0.8,4.9,1c0.6,0.2,4.4,1.9,5.5,2.3c1.1,0.4,4.8,1.9,5.6,1.9c0.8,0,1.2,0.1,3.4-0.5
					c2.2-0.6,9.4-2.5,10.4-2.9c1-0.4,1.2-0.5-0.4-1c-1.6-0.5-18.2-4.4-19.5-4.8c-1.3-0.5-2.4-0.5-3.1,0c-0.7,0.5-3.4,1.1-4.1,1.4
					c-0.7,0.3-2.7,1.8-3,2.2C-1.3,26.2-0.8,26.3-0.5,26.4z"/>
				<path class="st4" d="M3,26.9c-0.2,0-0.2-0.5,2.4-1.7c2.6-1.3,7.9-1,8.3-1c0.4,0,6.5,1.5,7.4,1.8c0.9,0.2,1.2,1.2,1.2,1.9
					c0,0.7-2.1,2-3.3,2.2c-1.2,0.3-4.6,0.7-5.8,0.8C13.3,30.8,3.6,27,3,26.9z"/>
				<path class="st4" d="M6.7,28.4c-0.6-0.4,3.2-0.6,5.4-0.7c2.6-0.1,7.3,1.8,7.9,2c0.6,0.2-6.9,1.2-6.9,1.2S7.4,28.9,6.7,28.4z"/>
				<line class="st4" x1="13.7" y1="24.1" x2="13.7" y2="27.8"/>
				<line class="st4" x1="21.1" y1="25.9" x2="21.4" y2="28.7"/>
				<line class="st4" x1="1.7" y1="26.7" x2="6.7" y2="22.4"/>
				<line class="st4" x1="6.7" y1="22.4" x2="7.7" y2="22.4"/>
				<line class="st4" x1="7.9" y1="22.4" x2="13.4" y2="23.8"/>
				<line class="st4" x1="21.7" y1="25.7" x2="29.8" y2="27.8"/>
				<line class="st4" x1="-4.2" y1="22.4" x2="-4.4" y2="29.1"/>
				<line class="st4" x1="0.2" y1="20.5" x2="0.4" y2="21.3"/>
				<line class="st4" x1="0.4" y1="21.3" x2="0.4" y2="22.9"/>
				<line class="st4" x1="2.1" y1="22.6" x2="2.1" y2="20.9"/>
				<line class="st4" x1="2.1" y1="20.9" x2="2.4" y2="20.3"/>
				<line class="st4" x1="-6.7" y1="24.5" x2="0.8" y2="21.3"/>
				<line class="st4" x1="0.8" y1="21.3" x2="2.2" y2="21.2"/>
				<line class="st4" x1="2.2" y1="21.2" x2="4.2" y2="21.6"/>
				<line class="st4" x1="-0.9" y1="23.6" x2="1.2" y2="24.1"/>
				<line class="st4" x1="0.4" y1="23.1" x2="1.9" y2="23.6"/>
				<line class="st4" x1="3.3" y1="22.1" x2="5.1" y2="22.6"/>
				<line class="st4" x1="4.2" y1="21.6" x2="6.2" y2="22.2"/>
				<line class="st4" x1="112.7" y1="49.3" x2="112.7" y2="50.9"/>
				<line class="st4" x1="114.6" y1="49.4" x2="114.6" y2="50.9"/>
				<line class="st4" x1="114.9" y1="48.1" x2="114.9" y2="49.1"/>
				<line class="st4" x1="116.9" y1="47.8" x2="116.9" y2="49.4"/>
				<line class="st4" x1="119.4" y1="48.5" x2="119.4" y2="49.8"/>
				<line class="st4" x1="120.2" y1="48.5" x2="120.2" y2="49.8"/>
				<line class="st4" x1="121.3" y1="47.6" x2="121.3" y2="49.3"/>
				<line class="st4" x1="120.2" y1="45.8" x2="120.2" y2="47.1"/>
				<path class="st4" d="M102.8,48.4c1,0.1,8.8,2.2,9.5,2.2c0.7,0,2.4,0.4,2.6,0c0.2-0.4,0-1.4,0-1.4s-0.1,0,0.7,0
					c0.8,0,1.7-0.1,2.4,0.1c0.7,0.2,1.3,0.7,1.9,0.7c0.5,0,1.7-0.8,1.7-0.8l-0.1-1.9l-0.8-0.3c0,0,0.3-0.1,0.5-0.7
					c0.2-0.5-0.2-2.2-0.4-2.3"/>
				<path class="st4" d="M102.9,47c0.4,0.1,9.2,2.3,9.5,2.3c0.3,0.1,1.6,0.3,1.9,0.2c0.3,0,0.9-0.2,0.2-0.4
					c-0.7-0.2-1.1-0.3-0.1-0.8c1-0.5,1-0.4,1.3-0.4c0.3,0,0.9,0,2.4,0.4c1.5,0.4,1.9,0.4,2.1,0.3c0.2-0.1,1-0.8,1-0.8l0.1-0.3
					c0,0-2.3-0.7-2.4-0.9c0-0.2-0.1-0.3,0.4-0.5c0.5-0.2,1.3-0.6,1.4-0.9c0.1-0.3,0-0.9-0.2-1"/>
				<polygon class="st7" points="71.2,14.9 46.4,25.2 46.7,34.4 61.1,40.6 64,39.2 64,38 68.3,36 68.4,37.2 72.3,35.4 72.1,33 
					86.1,26.4 85.9,18.7 				"/>
				<polygon class="st4" points="71.2,14.9 46.4,25.2 46.7,34.4 61.1,40.6 64,39.2 64,38 68.3,36 68.4,37.2 72.3,35.4 72.1,33 
					86.1,26.4 85.9,18.7 				"/>
				<line class="st7" x1="60.5" y1="30.2" x2="85.9" y2="18.9"/>
				<line class="st4" x1="60.5" y1="30.2" x2="85.9" y2="18.9"/>
				<line class="st7" x1="46.4" y1="25.2" x2="60.6" y2="30.1"/>
				<line class="st4" x1="46.4" y1="25.2" x2="60.6" y2="30.1"/>
				<polyline class="st7" points="61.1,40.6 60.8,36.5 58.8,37.2 58.8,34.8 60.7,34.2 60.5,30.2 				"/>
				<polyline class="st4" points="61.1,40.6 60.8,36.5 58.8,37.2 58.8,34.8 60.7,34.2 60.5,30.2 				"/>
				<path class="st8" d="M36.7,46.2l19.4-7.7c0,0-0.1,0.1,0,0c1.7-1.1,2.1-4.1,0.9-7c-1.3-3.1-3.9-4.9-5.9-4.2l-18.3,8.8"/>
				<path class="st4" d="M36.7,46.2l19.4-7.7c0,0-0.1,0.1,0,0c1.7-1.1,2.1-4.1,0.9-7c-1.3-3.1-3.9-4.9-5.9-4.2l-18.3,8.8"/>
				<path class="st8" d="M38.6,39.5c1.1,2.6,0.7,5.3-0.9,6.3c-0.1,0.1-0.2,0.1-0.3,0.2c-1.9,0.8-4.3-0.8-5.5-3.6
					c-1-2.4-0.7-4.9,0.6-6.1c0.2-0.2,0.4-0.3,0.6-0.4C34.9,35.1,37.4,36.8,38.6,39.5"/>
				<path class="st4" d="M38.6,39.5c1.1,2.6,0.7,5.3-0.9,6.3c-0.1,0.1-0.2,0.1-0.3,0.2c-1.9,0.8-4.3-0.8-5.5-3.6
					c-1-2.4-0.7-4.9,0.6-6.1c0.2-0.2,0.4-0.3,0.6-0.4C34.9,35.1,37.4,36.8,38.6,39.5z"/>
				<path class="st8" d="M40.7,32.3c0.1-0.1,0.2-0.1,0.3-0.1c1.9-0.8,4.4,0.9,5.6,3.8c1.2,2.8,0.8,5.7-1,6.6c0,0-0.1,0-0.1,0.1"/>
				<path class="st4" d="M40.7,32.3c0.1-0.1,0.2-0.1,0.3-0.1c1.9-0.8,4.4,0.9,5.6,3.8c1.2,2.8,0.8,5.7-1,6.6c0,0-0.1,0-0.1,0.1"/>
				<path class="st8" d="M44.6,30.5c0.1,0,0.2-0.1,0.3-0.1c1.9-0.9,4.6,0.7,6,3.7c1.3,2.7,0.9,5.6-0.7,6.7c-0.1,0.1-0.2,0.1-0.3,0.2
					"/>
				<path class="st4" d="M44.6,30.5c0.1,0,0.2-0.1,0.3-0.1c1.9-0.9,4.6,0.7,6,3.7c1.3,2.7,0.9,5.6-0.7,6.7c-0.1,0.1-0.2,0.1-0.3,0.2
					"/>
				<path class="st8" d="M17.1,54.2c0,0,19.9-8.9,19.9-8.9c1.5-0.9,1.9-3.3,0.9-5.6c-1-2.4-3.3-3.8-5-3.1c0,0-19.6,8.8-19.6,8.8"/>
				<path class="st4" d="M17.1,54.2c0,0,19.9-8.9,19.9-8.9c1.5-0.9,1.9-3.3,0.9-5.6c-1-2.4-3.3-3.8-5-3.1c0,0-19.6,8.8-19.6,8.8"/>
				<path class="st8" d="M18.3,48.4c1,2.3,0.6,4.7-0.9,5.6c-0.1,0.1-0.2,0.1-0.3,0.2c-1.7,0.7-3.9-0.7-5-3.1
					c-0.9-2.1-0.6-4.4,0.6-5.4c0.2-0.1,0.4-0.3,0.6-0.4C15.1,44.6,17.3,46,18.3,48.4"/>
				<path class="st4" d="M18.3,48.4c1,2.3,0.6,4.7-0.9,5.6c-0.1,0.1-0.2,0.1-0.3,0.2c-1.7,0.7-3.9-0.7-5-3.1
					c-0.9-2.1-0.6-4.4,0.6-5.4c0.2-0.1,0.4-0.3,0.6-0.4C15.1,44.6,17.3,46,18.3,48.4z"/>
				<path class="st9" d="M45.6,42.6c2.2-0.9,5.4-2.1,6.2-2.7c0.9-0.6,1.4-1.5,1.4-2.2c0.1-2.5-0.7-4-0.9-4.6c-1.4-3-3.8-3.8-4.7-3.7
					c-0.4,0-0.5-0.1-2,0.4c-0.8,0.3-2,1-3,1.3c0,0-0.1-2.6,0-2.6c0.2-0.1,4.1-1.9,4.2-1.9c0.1,0,11.5,3.4,11.6,3.6
					c0.1,0.1,0.3,8.9,0.3,9c0,0.1-3.7,1.6-3.7,1.6c0,0-2.8,0.3-4.1,0.6c0,0-2,0.4-3.5,1c0,0-1.3,0.8-1.6,1.1c-1.8,2-0.6,3.2-3.7,4.7
					c-2.7,1.4-7.7,1.3-9.4,0.4c-2.3-1.2-1.3-0.9,0.7-1.9c0,0,0,0.9,1.5,1c1.4,0.1,3.4,0,3.7-0.2c0.2-0.1,1.8-0.2,2.7-0.8
					c3.1-2,2.9-3.6,2.9-3.6C44.7,43,45.6,42.6,45.6,42.6"/>
				<path class="st10" d="M45.6,42.6c2.2-0.9,5.4-2.1,6.2-2.7c0.9-0.6,1.4-1.5,1.4-2.2c0.1-2.5-0.7-4-0.9-4.6
					c-1.4-3-3.8-3.8-4.7-3.7c-0.4,0-0.5-0.1-2,0.4c-0.8,0.3-2,1-3,1.3c0,0-0.1-2.6,0-2.6c0.2-0.1,4.1-1.9,4.2-1.9
					c0.1,0,11.5,3.4,11.6,3.6c0.1,0.1,0.3,8.9,0.3,9c0,0.1-3.7,1.6-3.7,1.6c0,0-2.8,0.3-4.1,0.6c0,0-2,0.4-3.5,1
					c0,0-1.3,0.8-1.6,1.1c-1.8,2-0.6,3.2-3.7,4.7c-2.7,1.4-7.7,1.3-9.4,0.4c-2.3-1.2-1.3-0.9,0.7-1.9c0,0,0,0.9,1.5,1
					c1.4,0.1,3.4,0,3.7-0.2c0.2-0.1,1.8-0.2,2.7-0.8c3.1-2,2.9-3.6,2.9-3.6C44.7,43,45.6,42.6,45.6,42.6z"/>
				<polygon class="st5" points="64.8,59.1 156.6,54.1 156.6,12.7 119.3,10.7 				"/>
				<g class="st11">
					<text transform="matrix(1 0 0 1 15.0289 23.8633)" class="st12 st13 st14"> </text>
				</g>
			</g>
			<g>
				<ellipse class="st15" cx="74.9" cy="34.2" rx="72" ry="25.8"/>
				<polygon class="st16" points="34.1,0.6 39.6,6.1 39.6,13.9 34.1,19.4 26.4,19.4 20.9,13.9 20.9,6.1 26.4,0.6 				"/>
				<polygon class="st17" points="34.1,0.6 39.6,6.1 39.6,13.9 34.1,19.4 26.4,19.4 20.9,13.9 20.9,6.1 26.4,0.6 				"/>
				<polygon class="st1" points="24.8,6 30.2,13.3 35.7,6 				"/>
				<rect x="27.9" y="3.5" class="st1" width="4.7" height="2.9"/>
				<line class="st18" x1="30.2" y1="17.2" x2="30.2" y2="14.3"/>
				<line class="st18" x1="34.1" y1="15.6" x2="32.1" y2="13.5"/>
				<line class="st18" x1="26.4" y1="15.6" x2="28.4" y2="13.5"/>
				<line class="st18" x1="28.2" y1="16.4" x2="28.8" y2="15"/>
				<line class="st18" x1="32.3" y1="16.4" x2="31.6" y2="15"/>
			</g>
		</g>
		<text transform="matrix(1 0 0 1 107.0997 37.503)" class="st12 st13 st19">Pull-tab</text>
	</g>
	<g>
		<g>
			<line class="st20" x1="55.7" y1="45.1" x2="103.5" y2="36.7"/>
			<g>
				<polygon class="st21" points="51.7,45.8 57.7,47.1 56,45 56.9,42.5 				"/>
			</g>
		</g>
	</g>
</g>
</svg>
