<?xml version="1.0" encoding="utf-8"?>
<!-- Generator: Adobe Illustrator 26.0.3, SVG Export Plug-In . SVG Version: 6.00 Build 0)  -->
<svg version="1.1" id="Layer_1" xmlns="http://www.w3.org/2000/svg" xmlns:xlink="http://www.w3.org/1999/xlink" x="0px" y="0px"
	 viewBox="0 0 20.8 14.4" style="enable-background:new 0 0 20.8 14.4;" xml:space="preserve">
<style type="text/css">
	.st0{fill:#005CB9;}
	.st1{enable-background:new    ;}
	.st2{fill:#FFFFFF;}
</style>
<g>
	<g>
		<path class="st0" d="M0,13.7h20.8V0.3c0-0.2-0.1-0.3-0.3-0.3H0.3C0.1,0,0,0.1,0,0.3V13.7z"/>
	</g>
	<g class="st1">
		<path class="st2" d="M7.4,4.6c0.1-0.4,0.3-0.8,0.6-1.1C8.2,3.2,8.5,3,8.9,2.8c0.4-0.2,0.8-0.3,1.3-0.3c0.4,0,0.7,0.1,1.1,0.2
			s0.6,0.3,0.9,0.5c0.3,0.2,0.5,0.5,0.6,0.8S13,4.7,13,5.1c0,0.4-0.1,0.8-0.2,1.1c-0.1,0.3-0.3,0.6-0.5,0.8
			c-0.2,0.2-0.5,0.4-0.7,0.6S11,8,10.7,8.2c-0.3,0.2-0.6,0.4-0.8,0.6C9.6,9,9.4,9.2,9.2,9.5H13v1.4H7c0-0.5,0.1-0.9,0.2-1.2
			C7.4,9.3,7.5,9,7.8,8.7C8,8.5,8.3,8.2,8.6,8c0.3-0.2,0.7-0.5,1-0.7C9.8,7.1,10,7,10.2,6.9c0.2-0.1,0.4-0.3,0.6-0.4
			c0.2-0.2,0.3-0.3,0.4-0.5c0.1-0.2,0.2-0.4,0.2-0.7c0-0.4-0.1-0.7-0.3-0.9S10.5,4,10.1,4C9.9,4,9.7,4,9.5,4.1
			C9.3,4.3,9.2,4.4,9.1,4.6C9,4.8,8.9,5,8.9,5.2S8.8,5.6,8.8,5.9H7.2C7.2,5.4,7.2,5,7.4,4.6z"/>
	</g>
</g>
</svg>
