<?xml version="1.0" encoding="utf-8"?>
<!-- Generator: Adobe Illustrator 26.0.3, SVG Export Plug-In . SVG Version: 6.00 Build 0)  -->
<svg version="1.1" id="Layer_1" xmlns="http://www.w3.org/2000/svg" xmlns:xlink="http://www.w3.org/1999/xlink" x="0px" y="0px"
	 viewBox="0 0 81.416 9.944" enable-background="new 0 0 81.416 9.944" xml:space="preserve">
<g>
	<g>
		<path fill-rule="evenodd" clip-rule="evenodd" fill="#2968B2" d="M63.179,9.871V0.163H45.224v9.708H63.179z M35.876,8.011V2.023
			H22.01v5.988H35.876z M12.847,2.749v4.536h6.498c0.048-0.105,0.074-0.219,0.074-0.335V3.084c0-0.116-0.025-0.229-0.074-0.335
			H12.847z M19.511,6.951c0,0.018-0.001,0.037-0.002,0.055c-0.031,0.5-0.47,0.881-0.98,0.851l-5.775-0.344v-4.99l5.775-0.344
			c0.019-0.001,0.038-0.002,0.056-0.002c0.511,0,0.926,0.406,0.926,0.907v2.088V6.951z M22.01,1.814
			c0-0.176-0.104-0.337-0.268-0.411L18.77,0.047c-0.061-0.028-0.128-0.043-0.195-0.043H15.48c-0.028,0-0.055,0.003-0.082,0.007
			L9.802,1.003C9.582,1.042,9.422,1.23,9.422,1.45v6.999c0,0.219,0.16,0.407,0.381,0.446l5.595,0.991
			c0.027,0.005,0.055,0.007,0.082,0.007h3.095c0.068,0,0.134-0.014,0.195-0.042l2.972-1.355c0.163-0.074,0.268-0.235,0.268-0.411
			V8.011V1.814z M0.005,6.274c0,0.576,0.353,1.011,1.087,1.011h8.237V2.749H1.092c0.926,0,0.877,0.737-0.268,1.86
			C0.69,4.74,0.572,4.877,0.47,5.017C0.163,5.441,0.005,5.889,0.005,6.274z"/>
		
			<path fill="none" stroke="#759ED3" stroke-width="0.0091" stroke-linecap="round" stroke-linejoin="round" stroke-miterlimit="10" d="
			M63.179,9.871V0.163H45.224v9.708H63.179z M35.876,8.011V2.023H22.01v5.988H35.876z M12.847,2.749v4.536h6.498
			c0.048-0.105,0.074-0.219,0.074-0.335V3.084c0-0.116-0.025-0.229-0.074-0.335H12.847z M19.511,6.951
			c0,0.018-0.001,0.037-0.002,0.055c-0.031,0.5-0.47,0.881-0.98,0.851l-5.775-0.344v-4.99l5.775-0.344
			c0.019-0.001,0.038-0.002,0.056-0.002c0.511,0,0.926,0.406,0.926,0.907v2.088V6.951z M22.01,1.814
			c0-0.176-0.104-0.337-0.268-0.411L18.77,0.047c-0.061-0.028-0.128-0.043-0.195-0.043H15.48c-0.028,0-0.055,0.003-0.082,0.007
			L9.802,1.003C9.582,1.042,9.422,1.23,9.422,1.45v6.999c0,0.219,0.16,0.407,0.381,0.446l5.595,0.991
			c0.027,0.005,0.055,0.007,0.082,0.007h3.095c0.068,0,0.134-0.014,0.195-0.042l2.972-1.355c0.163-0.074,0.268-0.235,0.268-0.411
			V8.011V1.814z M0.005,6.274c0,0.576,0.353,1.011,1.087,1.011h8.237V2.749H1.092c0.926,0,0.877,0.737-0.268,1.86
			C0.69,4.74,0.572,4.877,0.47,5.017C0.163,5.441,0.005,5.889,0.005,6.274z"/>
		<path fill-rule="evenodd" clip-rule="evenodd" fill="#BCBEC0" stroke="#F1F2F2" stroke-width="0.3725" stroke-miterlimit="10" d="
			M67.568,0.685h-4.389v8.664h4.389V0.685z M81.23,0.277H67.568v4.74H81.23V0.277z M67.568,5.017v4.74H81.23v-4.74H67.568z"/>
		
			<path fill="none" stroke="#999999" stroke-width="0.0091" stroke-linecap="round" stroke-linejoin="round" stroke-miterlimit="10" d="
			M67.568,0.685h-4.389v8.664h4.389V0.685z M81.23,0.277H67.568v4.74H81.23V0.277z M67.568,5.017v4.74H81.23v-4.74H67.568z"/>
		<path fill-rule="evenodd" clip-rule="evenodd" fill="#4174BA" d="M63.179,1.615V0.526H48.186v1.089H63.179z M48.186,8.419v1.089
			h14.994V8.419H48.186z M45.224,9.871V8.056h18.53v-0.59c0-0.25,0.206-0.454,0.464-0.454l0,0c0.255,0,0.46,0.203,0.46,0.454V9.19
			h1.159c0.127,0,0.232-0.102,0.232-0.227V1.071c0-0.125-0.104-0.227-0.232-0.227h-1.159v1.724c0,0.251-0.206,0.454-0.46,0.454
			c-0.258,0-0.464-0.203-0.464-0.454v-0.59h-18.53V0.163l-9.348,0.386v8.936L45.224,9.871z M45.224,3.271
			c0-0.125,0.104-0.227,0.232-0.227h17.492l0,0c0.127,0,0.232,0.102,0.232,0.227v3.357c0,0.125-0.104,0.227-0.232,0.227H45.456
			c-0.127,0-0.232-0.101-0.232-0.227V3.271z"/>
		
			<path fill="none" stroke="#759ED3" stroke-width="0.0091" stroke-linecap="round" stroke-linejoin="round" stroke-miterlimit="10" d="
			M63.179,1.615V0.526H48.186v1.089H63.179z M48.186,8.419v1.089h14.994V8.419H48.186z M45.224,9.871V8.056h18.53v-0.59
			c0-0.25,0.206-0.454,0.464-0.454l0,0c0.255,0,0.46,0.203,0.46,0.454V9.19h1.159c0.127,0,0.232-0.102,0.232-0.227V1.071
			c0-0.125-0.104-0.227-0.232-0.227h-1.159v1.724c0,0.251-0.206,0.454-0.46,0.454c-0.258,0-0.464-0.203-0.464-0.454v-0.59h-18.53
			V0.163l-9.348,0.386v8.936L45.224,9.871z M45.224,3.271c0-0.125,0.104-0.227,0.232-0.227h17.492l0,0
			c0.127,0,0.232,0.102,0.232,0.227v3.357c0,0.125-0.104,0.227-0.232,0.227H45.456c-0.127,0-0.232-0.101-0.232-0.227V3.271z"/>
	</g>
</g>
</svg>
