<?xml version="1.0" encoding="utf-8"?>
<!-- Generator: Adobe Illustrator 26.0.3, SVG Export Plug-In . SVG Version: 6.00 Build 0)  -->
<svg version="1.1" id="Layer_1" xmlns="http://www.w3.org/2000/svg" xmlns:xlink="http://www.w3.org/1999/xlink" x="0px" y="0px"
	 viewBox="0 0 20.8 20.8" style="enable-background:new 0 0 20.8 20.8;" xml:space="preserve">
<style type="text/css">
	.st0{fill:#E31837;}
	.st1{fill:#FFFFFF;}
</style>
<g>
	<g>
		<path class="st0" d="M20.4,5.7L20.4,5.7l-5.3-5.3l0,0C14.8,0.1,14.5,0,14.2,0H6.6C6.3,0,6,0.1,5.7,0.4l0,0L0.4,5.7l0,0
			C0.1,6,0,6.3,0,6.6v7.5c0,0.3,0.1,0.7,0.4,0.9l0,0l5.3,5.3l0.1,0.1c0.2,0.2,0.5,0.4,0.9,0.4h7.5c0.3,0,0.7-0.1,0.9-0.4l0,0
			l5.3-5.3l0,0c0.2-0.2,0.4-0.5,0.4-0.9V6.6C20.8,6.3,20.7,6,20.4,5.7"/>
	</g>
	<g>
		<path class="st1" d="M11.9,15.2c0,0.1,0,0.2-0.1,0.3s-0.2,0.1-0.3,0.1H9.3c-0.1,0-0.2,0-0.3-0.1s-0.1-0.2-0.1-0.3V13
			c0-0.1,0-0.2,0.1-0.3s0.2-0.1,0.3-0.1h2.2c0.1,0,0.2,0,0.3,0.1s0.1,0.2,0.1,0.3C11.9,13,11.9,15.2,11.9,15.2z M11.9,10.8
			c0,0.1,0,0.1-0.1,0.2c-0.1,0-0.2,0.1-0.3,0.1H9.3c-0.1,0-0.2,0-0.3-0.1c0,0-0.1-0.1-0.1-0.2L8.7,5.5c0-0.1,0-0.2,0.1-0.2
			C8.9,5.2,9,5.2,9.1,5.2h2.6c0.1,0,0.2,0,0.3,0.1s0.1,0.1,0.1,0.2L11.9,10.8z"/>
	</g>
</g>
</svg>
