<?xml version="1.0" encoding="utf-8"?>
<!-- Generator: Adobe Illustrator 26.0.3, SVG Export Plug-In . SVG Version: 6.00 Build 0)  -->
<svg version="1.1" id="Layer_1" xmlns="http://www.w3.org/2000/svg" xmlns:xlink="http://www.w3.org/1999/xlink" x="0px" y="0px"
	 viewBox="0 0 100.3 13.7" style="enable-background:new 0 0 100.3 13.7;" xml:space="preserve">
<style type="text/css">
	
		.st0{clip-path:url(#SVGID_00000139978239274463571490000007018751771795972738_);fill-rule:evenodd;clip-rule:evenodd;fill:#2868B1;}
	
		.st1{clip-path:url(#SVGID_00000139978239274463571490000007018751771795972738_);fill:none;stroke:#749DD2;stroke-width:9.269422e-03;stroke-linecap:round;stroke-linejoin:round;stroke-miterlimit:10;}
	
		.st2{clip-path:url(#SVGID_00000139978239274463571490000007018751771795972738_);fill-rule:evenodd;clip-rule:evenodd;fill:#4174B8;}
	
		.st3{clip-path:url(#SVGID_00000139978239274463571490000007018751771795972738_);fill-rule:evenodd;clip-rule:evenodd;fill:#D9D9D9;}
	
		.st4{clip-path:url(#SVGID_00000139978239274463571490000007018751771795972738_);fill:none;stroke:#999999;stroke-width:0.1666;stroke-linecap:round;stroke-linejoin:round;stroke-miterlimit:10;}
	
		.st5{clip-path:url(#SVGID_00000139978239274463571490000007018751771795972738_);fill-rule:evenodd;clip-rule:evenodd;fill:#A6A6A6;}
</style>
<g>
	<defs>
		<rect id="SVGID_1_" width="100.3" height="13.7"/>
	</defs>
	<clipPath id="SVGID_00000073711681109222389720000004878163657512594598_">
		<use xlink:href="#SVGID_1_"  style="overflow:visible;"/>
	</clipPath>
	
		<path style="clip-path:url(#SVGID_00000073711681109222389720000004878163657512594598_);fill-rule:evenodd;clip-rule:evenodd;fill:#2868B1;" d="
		M0.8,6.8c-0.2,0.3-0.4,0.7-0.4,1c0,0.5,0.3,0.8,0.8,0.8C2,8.5,1.9,8,1,7.1C0.9,7,0.8,6.9,0.8,6.8z M27.9,8.5V5H1.2
		C0.7,5,0.4,5.3,0.4,5.8c0,0.3,0.1,0.7,0.4,1C0.8,6.9,0.9,7,1,7.1C1.9,8,2,8.5,1.2,8.5H27.9z M32.8,8.5h3.6V5h-3.6V8.5z M37.6,9.4
		l1.8,0.1V8.6H40v0.9l1.8,0.1V8.6h0.6v1l1.8,0.1v-1h0.6v1.1l1.8,0.1V8.6h0.6v1.2L49,9.9V8.6h0.6v1.3l1.8,0.1V8.6H52V10l1.8,0.1V8.6
		h0.5V4.9h-0.5V3.5L52,3.5v1.4h-0.6V3.6l-1.8,0.1v1.3H49V3.7l-1.8,0.1v1.2h-0.6V3.8l-1.8,0.1v1.1h-0.6v-1L42.4,4v1h-0.6V4L40,4.1
		v0.9h-0.6V4.1l-1.8,0.1v0.8H37V4.2l-0.6,0v5.1l0.6,0V8.6h0.6V9.4z M54.3,1.4v10.7H34c-0.7,0-1.2-0.5-1.2-1.2l0,0V2.6
		c0-0.7,0.5-1.2,1.2-1.2H54.3z M54.3,13.3h3V0.2H32.8C30.1,0.2,28,2.4,28,5v3.6c0,2.6,2.1,4.7,4.8,4.7l0,0H54.3z"/>
	
		<path style="clip-path:url(#SVGID_00000073711681109222389720000004878163657512594598_);fill:none;stroke:#749DD2;stroke-width:9.269422e-03;stroke-linecap:round;stroke-linejoin:round;stroke-miterlimit:10;" d="
		M0.8,6.8c-0.2,0.3-0.4,0.7-0.4,1c0,0.5,0.3,0.8,0.8,0.8C2,8.5,1.9,8,1,7.1C0.9,7,0.8,6.9,0.8,6.8z M27.9,8.5V5H1.2
		C0.7,5,0.4,5.3,0.4,5.8c0,0.3,0.1,0.7,0.4,1C0.8,6.9,0.9,7,1,7.1C1.9,8,2,8.5,1.2,8.5H27.9z M32.8,8.5h3.6V5h-3.6V8.5z M37.6,9.4
		l1.8,0.1V8.6H40v0.9l1.8,0.1V8.6h0.6v1l1.8,0.1v-1h0.6v1.1l1.8,0.1V8.6h0.6v1.2L49,9.9V8.6h0.6v1.3l1.8,0.1V8.6H52V10l1.8,0.1V8.6
		h0.5V4.9h-0.5V3.5L52,3.5v1.4h-0.6V3.6l-1.8,0.1v1.3H49V3.7l-1.8,0.1v1.2h-0.6V3.8l-1.8,0.1v1.1h-0.6v-1L42.4,4v1h-0.6V4L40,4.1
		v0.9h-0.6V4.1l-1.8,0.1v0.8H37V4.2l-0.6,0v5.1l0.6,0V8.6h0.6V9.4z M54.3,1.4v10.7H34c-0.7,0-1.2-0.5-1.2-1.2l0,0V2.6
		c0-0.7,0.5-1.2,1.2-1.2H54.3z M54.3,13.3h3V0.2H32.8C30.1,0.2,28,2.4,28,5v3.6c0,2.6,2.1,4.7,4.8,4.7l0,0H54.3z"/>
	
		<path style="clip-path:url(#SVGID_00000073711681109222389720000004878163657512594598_);fill-rule:evenodd;clip-rule:evenodd;fill:#4174B8;" d="
		M43,9.6l0.6,0V3.9l-0.6,0V9.6z M45.4,9.7l0.6,0V3.8l-0.6,0V9.7z M47.8,9.8l0.6,0V3.7l-0.6,0V9.8z M50.2,9.9l0.6,0V3.6l-0.6,0V9.9z
		 M52.6,10l0.6,0V3.5l-0.6,0V10z M38.2,9.4l0.6,0V4.1l-0.6,0V9.4z M40.6,9.5l0.6,0V4l-0.6,0V9.5z"/>
	
		<path style="clip-path:url(#SVGID_00000073711681109222389720000004878163657512594598_);fill-rule:evenodd;clip-rule:evenodd;fill:#D9D9D9;" d="
		M60.8,1.3h-3.5v10.9h3.5V1.3z M60.8,1.3v10.9h7.5V1.3H60.8z M98.4,12.2h1.7v-0.6h-1.7V12.2z M98.4,12.2v-0.6h1.7V1.9h-2.5v8.9H87.4
		v1.4H98.4z M69.5,2.5c0-0.4,0.3-0.7,0.8-0.7H79c0.4,0,0.7,0.3,0.7,0.7v8.6c0,0.4-0.3,0.7-0.7,0.7l0,0h-8.7c-0.4,0-0.8-0.3-0.8-0.7
		V2.5z M87.4,12.2v-1.4h10.2V1.9h2.5V1.3H68.3v10.9H87.4z M69.5,2.5v8.6c0,0.4,0.3,0.7,0.8,0.7l0,0H79c0.4,0,0.7-0.3,0.7-0.7V2.5
		c0-0.4-0.3-0.7-0.7-0.7h-8.7C69.9,1.7,69.5,2.1,69.5,2.5z"/>
	
		<path style="clip-path:url(#SVGID_00000073711681109222389720000004878163657512594598_);fill:none;stroke:#999999;stroke-width:0.1666;stroke-linecap:round;stroke-linejoin:round;stroke-miterlimit:10;" d="
		M60.8,1.3h-3.5v10.9h3.5V1.3z M60.8,1.3v10.9h7.5V1.3H60.8z M98.4,12.2h1.7v-0.6h-1.7V12.2z M98.4,12.2v-0.6h1.7V1.9h-2.5v8.9H87.4
		v1.4H98.4z M69.5,2.5c0-0.4,0.3-0.7,0.8-0.7H79c0.4,0,0.7,0.3,0.7,0.7v8.6c0,0.4-0.3,0.7-0.7,0.7l0,0h-8.7c-0.4,0-0.8-0.3-0.8-0.7
		V2.5z M87.4,12.2v-1.4h10.2V1.9h2.5V1.3H68.3v10.9H87.4z M69.5,2.5v8.6c0,0.4,0.3,0.7,0.8,0.7l0,0H79c0.4,0,0.7-0.3,0.7-0.7V2.5
		c0-0.4-0.3-0.7-0.7-0.7h-8.7C69.9,1.7,69.5,2.1,69.5,2.5z"/>
	
		<rect x="97.6" y="2.7" style="clip-path:url(#SVGID_00000073711681109222389720000004878163657512594598_);fill-rule:evenodd;clip-rule:evenodd;fill:#A6A6A6;" width="1.1" height="1"/>
	
		<rect x="97.6" y="2.7" style="clip-path:url(#SVGID_00000073711681109222389720000004878163657512594598_);fill:none;stroke:#999999;stroke-width:0.1666;stroke-linecap:round;stroke-linejoin:round;stroke-miterlimit:10;" width="1.1" height="1"/>
	
		<rect x="97.6" y="9.8" style="clip-path:url(#SVGID_00000073711681109222389720000004878163657512594598_);fill-rule:evenodd;clip-rule:evenodd;fill:#A6A6A6;" width="1.1" height="1"/>
	
		<rect x="97.6" y="9.8" style="clip-path:url(#SVGID_00000073711681109222389720000004878163657512594598_);fill:none;stroke:#999999;stroke-width:0.1666;stroke-linecap:round;stroke-linejoin:round;stroke-miterlimit:10;" width="1.1" height="1"/>
</g>
</svg>
