<?xml version="1.0" encoding="utf-8"?>
<!-- Generator: Adobe Illustrator 21.1.0, SVG Export Plug-In . SVG Version: 6.00 Build 0)  -->
<svg version="1.1" id="Layer_1" xmlns="http://www.w3.org/2000/svg" xmlns:xlink="http://www.w3.org/1999/xlink" x="0px" y="0px"
	 width="74.7px" height="11.2px" viewBox="0 0 74.7 11.2" style="enable-background:new 0 0 74.7 11.2;" xml:space="preserve">
<style type="text/css">
	.st0{fill-rule:evenodd;clip-rule:evenodd;fill:#D9D9D9;}
	.st1{fill:none;stroke:#999999;stroke-width:1.705717e-02;stroke-linecap:round;stroke-linejoin:round;stroke-miterlimit:10;}
	.st2{fill-rule:evenodd;clip-rule:evenodd;fill:#2968B2;}
	.st3{fill-rule:evenodd;clip-rule:evenodd;fill:#4174BA;}
	.st4{fill-rule:evenodd;clip-rule:evenodd;fill:#2968B2;stroke:#FFFFFF;stroke-width:0.3069;stroke-miterlimit:10;}
	.st5{fill:none;stroke:#759ED3;stroke-width:1.707074e-02;stroke-linecap:round;stroke-linejoin:round;stroke-miterlimit:10;}
	.st6{fill-rule:evenodd;clip-rule:evenodd;fill:#A6A6A6;}
</style>
<g>
	<g>
		<path class="st0" d="M60.3,8.9c0-0.6,0.5-1,1-1c0.6,0,1,0.4,1,1c0,0.6-0.5,1-1,1C60.7,9.9,60.3,9.5,60.3,8.9z M60.3,2.3
			c0-0.6,0.5-1,1-1c0.6,0,1,0.4,1,1c0,0.6-0.5,1-1,1C60.7,3.3,60.3,2.8,60.3,2.3z M60.3,8.9c0,0.6,0.5,1,1,1c0.6,0,1-0.4,1-1
			c0-0.6-0.5-1-1-1C60.7,7.9,60.3,8.4,60.3,8.9z M60.3,2.3c0,0.6,0.5,1,1,1c0.6,0,1-0.4,1-1c0-0.6-0.5-1-1-1
			C60.7,1.3,60.3,1.7,60.3,2.3z"/>
		<path class="st1" d="M62,8.9c0-0.6,0.5-1,1-1c0.6,0,1,0.4,1,1c0,0.6-0.5,1-1,1C62.5,9.9,62,9.5,62,8.9z M62,2.3c0-0.6,0.5-1,1-1
			c0.6,0,1,0.4,1,1c0,0.6-0.5,1-1,1C62.5,3.3,62,2.8,62,2.3z M62,8.9c0,0.6,0.5,1,1,1c0.6,0,1-0.4,1-1c0-0.6-0.5-1-1-1
			C62.5,7.9,62,8.4,62,8.9z M62,2.3c0,0.6,0.5,1,1,1c0.6,0,1-0.4,1-1c0-0.6-0.5-1-1-1C62.5,1.3,62,1.7,62,2.3z"/>
	</g>
	<g>
		<path class="st2" d="M0,4.6c0,0.3,0.1,0.7,0.4,1.1C0.5,5.7,0.6,5.8,0.7,6c0.9,0.9,1,1.6,0.2,1.6h36.3C37,6.2,37,5,37.2,3.7H0.9
			C0.3,3.7,0,4.1,0,4.6z"/>
		<path class="st3" d="M36.9,7.6L41.6,8V3.2l-4.7,0.4C36.9,3.6,37.2,5.4,36.9,7.6z"/>
		<path class="st2" d="M47.1,11.2h18.6V0H47.3c-3.9,0-3.7,3.3-5.6,3.3"/>
		<path class="st2" d="M41.8,3.3v4.7c1.9,0,1.7,3.3,5.6,3.3"/>
		<rect x="56.6" y="8.5" class="st2" width="9" height="2.7"/>
		<rect x="56.6" y="2.7" class="st4" width="9" height="5.7"/>
		<polyline class="st2" points="56.6,2.7 65.7,2.7 65.7,0 56.6,0 		"/>
		<path class="st5" d="M41.3,2.4"/>
		<polyline class="st5" points="56.6,11.2 65.7,11.2 65.7,8.5 56.6,8.5 		"/>
		<rect x="56.6" y="2.7" class="st5" width="9" height="5.7"/>
	</g>
	<g>
		<polygon class="st0" points="65.9,1 65.9,10.2 68,10.2 68,9.7 71.3,9.7 71.3,1.5 68,1.5 68,1 		"/>
		<path class="st0" d="M74.7,1.4c0-0.2-0.2-0.4-0.4-0.4H68v0.5h3.3v8.2H68v0.5h6.2c0.2,0,0.4-0.2,0.4-0.4"/>
		<path class="st6" d="M73.6,7.7H71c-0.1,0-0.1,0.1-0.1,0.1v0.1C70.9,8,71,8.1,71,8.1h2c0.2,0,0.3,0.1,0.3,0.3l0,0v0.3
			c0,0.2-0.1,0.3-0.3,0.3h-2C71,8.9,70.9,9,70.9,9v0.1c0,0.1,0.1,0.1,0.1,0.1h2.5V7.7z M73.6,2H71C71,2,70.9,2,70.9,2.1v0.1
			c0,0.1,0.1,0.1,0.1,0.1h2c0.2,0,0.3,0.1,0.3,0.3l0,0v0.3c0,0.2-0.1,0.3-0.3,0.3h-2c-0.1,0-0.1,0.1-0.1,0.1v0.1
			c0,0.1,0.1,0.1,0.1,0.1h2.5V2z"/>
	</g>
</g>
</svg>
