<svg id="Layer_1" data-name="Layer 1" xmlns="http://www.w3.org/2000/svg" xmlns:xlink="http://www.w3.org/1999/xlink" viewBox="0 0 149.8913 62.959"><defs><style>.cls-1,.cls-13,.cls-15,.cls-16,.cls-17,.cls-2,.cls-4,.cls-7{fill:none;}.cls-13,.cls-2{stroke:#cdde00;}.cls-12,.cls-13,.cls-15,.cls-2,.cls-4,.cls-7{stroke-miterlimit:10;}.cls-2{stroke-width:1.0473px;}.cls-3{fill:#fff;}.cls-15,.cls-16,.cls-4{stroke:#fff;}.cls-4{stroke-width:5.8913px;}.cls-5{clip-path:url(#clip-path);}.cls-6{fill:#bcbdbf;}.cls-7{stroke:#221f1f;stroke-width:0.2205px;}.cls-8{fill:#e5e6e6;}.cls-9{fill:#a7a8ab;}.cls-10{fill:#59595c;}.cls-11{fill:#221f1f;}.cls-12{fill:#25a9e0;stroke:#231f20;stroke-width:0.3998px;}.cls-13{stroke-width:2.0947px;}.cls-14{fill:#cdde00;}.cls-15{stroke-width:1.1783px;}.cls-16,.cls-17{stroke-linecap:round;stroke-linejoin:round;}.cls-16{stroke-width:0.5237px;}.cls-17{stroke:#00a6ce;stroke-width:1.1434px;}.cls-18{fill:#00a6ce;}</style><clipPath id="clip-path"><path class="cls-1" d="M2.9456,34.2155c0,14.2475,32.2361,25.7975,72,25.7975s72-11.55,72-25.7975-32.2361-25.7968-72-25.7968-72,11.55-72,25.7968"/></clipPath></defs><line class="cls-2" x1="38.0586" y1="32.5916" x2="36.5715" y2="31.7457"/><path class="cls-3" d="M146.9456,34.2159c0,14.2474-32.2361,25.7974-72,25.7974s-72-11.55-72-25.7974,32.236-25.7974,72-25.7974,72,11.55,72,25.7974"/><ellipse class="cls-4" cx="74.9455" cy="34.2159" rx="71.9998" ry="25.7974"/><g class="cls-5"><polygon class="cls-6" points="-6.492 -13.025 -6.492 15.938 112.245 45 112.245 16.037 -6.492 -13.025"/><polygon class="cls-7" points="-6.492 -13.025 -6.492 15.938 112.245 45 112.245 16.037 -6.492 -13.025"/><polyline class="cls-7" points="126.231 11.176 116.411 15.64 116.411 45 126.231 40.139"/><polyline class="cls-7" points="126.231 9.689 115.121 14.946 -5.094 -14.116"/><polyline class="cls-7" points="126.231 41.329 113.833 46.983 -7.864 17.227"/><line class="cls-7" x1="112.245" y1="16.0369" x2="114.3274" y2="16.1864"/><line class="cls-7" x1="114.3277" y1="16.1862" x2="116.4113" y2="15.6398"/><line class="cls-7" x1="113.2866" y1="16.1862" x2="113.2866" y2="46.852"/><line class="cls-7" x1="114.6441" y1="16.1862" x2="114.6441" y2="46.6129"/><line class="cls-7" x1="115.6668" y1="14.9457" x2="115.5185" y2="45.0416"/><line class="cls-7" x1="115.3694" y1="44.9997" x2="116.4114" y2="45.2969"/><line class="cls-7" x1="113.1251" y1="14.4627" x2="112.2449" y2="16.037"/><line class="cls-7" x1="113.9974" y1="14.9457" x2="113.5348" y2="15.912"/><line class="cls-7" x1="113.9974" y1="14.4627" x2="114.8244" y2="16.186"/><line class="cls-7" x1="112.245" y1="44.9997" x2="113.1046" y2="45.2969"/><line class="cls-7" x1="113.1045" y1="45.2965" x2="114.644" y2="45.2965"/><line class="cls-7" x1="114.6441" y1="45.2965" x2="115.5185" y2="45.0416"/><path class="cls-3" d="M38.8,6.7189c.2213-.1312.62-.3268,1.0558-.53.61-.2824,1.29-.5784,1.6552-.7324a9.3476,9.3476,0,0,1,2.4995.4306c.95.2294,10.5552,2.7208,10.9152,2.8412,1.2434.4169,1.4676.1283,1.4442,1.5224-.0182,1.0769.0149,7.4408.0149,7.4408a7.05,7.05,0,0,1-1.4654.7273,9.3521,9.3521,0,0,1-.9138.2909,3.33,3.33,0,0,1-1.511-.1438"/><path class="cls-7" d="M38.8,6.7189c.2213-.1312.62-.3268,1.0558-.53.61-.2824,1.29-.5784,1.6552-.7324a9.3476,9.3476,0,0,1,2.4995.4306c.95.2294,10.5552,2.7208,10.9152,2.8412,1.2434.4169,1.4676.1283,1.4442,1.5224-.0182,1.0769.0149,7.4408.0149,7.4408a7.05,7.05,0,0,1-1.4654.7273,9.3521,9.3521,0,0,1-.9138.2909,3.33,3.33,0,0,1-1.511-.1438"/><path class="cls-3" d="M38.5533,7.7232c.0022.473.1666,6.6047.1135,6.9892s.6873.6861,1.0039.7295,12.0942,3.0123,12.6748,3.099,1.5424.47,1.596-.3263c.0684-1.0313-.1546-6.385-.2042-6.8322-.0388-.3446.22-.603-.9948-.9047S40.4191,7.1785,39.3284,6.9766c-1.0917-.2-.7757.5168-.7751.7466"/><path class="cls-7" d="M38.5533,7.7232c.0022.473.1666,6.6047.1135,6.9892s.6873.6861,1.0039.7295,12.0942,3.0123,12.6748,3.099,1.5424.47,1.596-.3263c.0684-1.0313-.1546-6.385-.2042-6.8322-.0388-.3446.22-.603-.9948-.9047S40.4191,7.1785,39.3284,6.9766C38.2367,6.7764,38.5527,7.4934,38.5533,7.7232Z"/><line class="cls-7" x1="38.8001" y1="13.9954" x2="50.0244" y2="9.7619"/><line class="cls-7" x1="44.6645" y1="8.2647" x2="44.6462" y2="11.7903"/><line class="cls-7" x1="44.6461" y1="11.7901" x2="53.7091" y2="14.1972"/><polyline class="cls-7" points="55.089 18.483 56.766 18.88 56.719 8.598 39.913 4.581 39.913 6.192"/><polyline class="cls-7" points="40.318 5.862 40.318 5.051 41.897 5.433"/><polyline class="cls-7" points="55.07 8.666 56.385 8.964 56.385 10.197"/><polyline class="cls-7" points="55.733 18.137 56.385 18.33 56.384 17.525"/><path class="cls-8" d="M-17.4036-6.9283c.2207-.1306.62-.3268,1.0563-.5293.6086-.2835,1.29-.579,1.6553-.7324a9.3806,9.3806,0,0,1,2.4995.4307c.95.2281,10.5541,2.72,10.9146,2.84C-.035-4.5006.1891-4.79.1657-3.3958.1481-2.3194.1805,7.6152.1805,7.6152a7.0239,7.0239,0,0,1-1.4641.7272,9.3837,9.3837,0,0,1-.9138.2915,3.31,3.31,0,0,1-1.511-.1454"/><path class="cls-7" d="M-17.4036-6.9283c.2207-.1306.62-.3268,1.0563-.5293.6086-.2835,1.29-.579,1.6553-.7324a9.3806,9.3806,0,0,1,2.4995.4307c.95.2281,10.5541,2.72,10.9146,2.84C-.035-4.5006.1891-4.79.1657-3.3958.1481-2.3194.1805,7.6152.1805,7.6152a7.0239,7.0239,0,0,1-1.4641.7272,9.3837,9.3837,0,0,1-.9138.2915,3.31,3.31,0,0,1-1.511-.1454"/><polyline class="cls-7" points="-1.116 8.408 0.563 8.804 0.515 -5.048 -16.291 -9.066 -16.291 -7.454"/><polyline class="cls-7" points="-0.47 8.062 0.181 8.255 0.18 7.448"/><path class="cls-8" d="M70.9674,14.6794c.2207-.1317.6194-.3268,1.0564-.53.6091-.2824,1.29-.579,1.6541-.733a9.3553,9.3553,0,0,1,2.5.4312c.9515.2294,10.5547,2.72,10.9153,2.8412,1.2434.4175,1.4676.1283,1.4442,1.5224-.0183,1.0763.0148,7.44.0148,7.44a7.0038,7.0038,0,0,1-1.4659.7278,9.15,9.15,0,0,1-.9138.2909,3.3144,3.3144,0,0,1-1.51-.1449"/><path class="cls-7" d="M70.9674,14.6794c.2207-.1317.6194-.3268,1.0564-.53.6091-.2824,1.29-.579,1.6541-.733a9.3553,9.3553,0,0,1,2.5.4312c.9515.2294,10.5547,2.72,10.9153,2.8412,1.2434.4175,1.4676.1283,1.4442,1.5224-.0183,1.0763.0148,7.44.0148,7.44a7.0038,7.0038,0,0,1-1.4659.7278,9.15,9.15,0,0,1-.9138.2909,3.3144,3.3144,0,0,1-1.51-.1449"/><path class="cls-8" d="M70.7207,15.6837c.0027.4735.1665,6.6041.114,6.9892s.6868.6862,1.0034.7284,12.0947,3.0134,12.6748,3.1,1.5435.4705,1.5959-.3252c.0685-1.0329-.154-6.3861-.2048-6.8328-.0382-.345.2214-.6029-.9941-.9046s-12.3235-3.3009-13.4141-3.5017-.7763.5168-.7751.7466"/><path class="cls-7" d="M70.7207,15.6837c.0027.4735.1665,6.6041.114,6.9892s.6868.6862,1.0034.7284,12.0947,3.0134,12.6748,3.1,1.5435.4705,1.5959-.3252c.0685-1.0329-.154-6.3861-.2048-6.8328-.0382-.345.2214-.6029-.9941-.9046s-12.3235-3.3009-13.4141-3.5017S70.72,15.4539,70.7207,15.6837Z"/><line class="cls-7" x1="70.9674" y1="21.9559" x2="82.1917" y2="17.7224"/><line class="cls-7" x1="76.8318" y1="16.2246" x2="76.8135" y2="19.7515"/><line class="cls-7" x1="76.8135" y1="19.7512" x2="85.8765" y2="22.1578"/><polyline class="cls-7" points="87.256 26.443 88.933 26.84 88.886 16.558 72.081 12.542 72.081 14.152"/><polyline class="cls-7" points="72.486 13.823 72.486 13.012 74.064 13.393"/><polyline class="cls-7" points="87.237 16.626 88.552 16.923 88.552 18.158"/><polyline class="cls-7" points="87.901 26.099 88.552 26.291 88.551 25.485"/><path class="cls-3" d="M95.3213,23.1307a.9791.9791,0,1,1-1.138-.9583,1.0595,1.0595,0,0,1,1.138.9583"/><path class="cls-7" d="M95.3213,23.1307a.9791.9791,0,1,1-1.138-.9583A1.0595,1.0595,0,0,1,95.3213,23.1307Z"/><path class="cls-3" d="M63.0337,15.1668a.9787.9787,0,1,1-1.9081.3143.9787.9787,0,1,1,1.9081-.3143"/><path class="cls-7" d="M63.0337,15.1668a.9787.9787,0,1,1-1.9081.3143.9787.9787,0,1,1,1.9081-.3143Z"/><path class="cls-7" d="M114.8246,3.1756c0,.4022-.9247.7273-2.0666.7273s-2.0671-.3251-2.0671-.7273.9258-.7272,2.0671-.7272S114.8246,2.7735,114.8246,3.1756Z"/><path class="cls-7" d="M120.7107,24.2074c-.3976,1.3821-1.3867,2.31-2.2086,2.074s-1.1666-1.5486-.7695-2.9307,1.3872-2.3107,2.21-2.0734S121.1076,22.8259,120.7107,24.2074Z"/><path class="cls-7" d="M119.4568,23.8849c-.0987.3428-.3434.5732-.5471.5139s-.29-.3833-.1911-.7255.3446-.5727.547-.5145C119.47,23.2176,119.5554,23.5427,119.4568,23.8849Z"/><path class="cls-7" d="M120.577,35.7591c-.397,1.3821-1.3878,2.3112-2.2086,2.074-.8231-.2362-1.1665-1.5487-.7695-2.9307s1.3873-2.3107,2.2086-2.0734C120.6312,33.0652,120.9745,34.3776,120.577,35.7591Z"/><path class="cls-7" d="M119.3232,35.4371c-.0988.3423-.3435.5727-.5472.5146s-.29-.3839-.191-.7267.3439-.5727.5475-.5134C119.3362,34.7692,119.4218,35.0943,119.3232,35.4371Z"/><path class="cls-8" d="M100.21,49.2977c.8595.1991,1.72.4632,1.8851.4632a.8585.8585,0,0,0,.6269-.7279V45.2964c0-.4957.39-.9343-.84-1.2355C100.6518,43.76.1807,19.1944.1807,19.1944s-.1819.413-1.5383,1.1408-4.6482,1.4876-5.1342,2.1481-.85,8.3661-.85,8.3661-1.6713,1.0575.85-.4963,2.3238-1.29,2.3238-1.29.0331-1.1909.198-.2647-.198,3.6706.3638,4.1651c.5625.4968.9914,1.1254,4.1007,1.3239,3.1075.1973,17.092,3.3722,18.1511,3.4715,1.0576.0981,6.2819,1.1567,6.9424,1.3552a8.1988,8.1988,0,0,0,5.2574-.4962C33.3243,37.56,40.76,34.8843,42.2687,35.23c6.37,1.454,57.9417,14.0677,57.9417,14.0677"/><path class="cls-7" d="M100.21,49.2977c.8595.1991,1.72.4632,1.8851.4632a.8585.8585,0,0,0,.6269-.7279V45.2964c0-.4957.39-.9343-.84-1.2355C100.6518,43.76.1807,19.1944.1807,19.1944s-.1819.413-1.5383,1.1408-4.6482,1.4876-5.1342,2.1481-.85,8.3661-.85,8.3661-1.6713,1.0575.85-.4963,2.3238-1.29,2.3238-1.29.0331-1.1909.198-.2647-.198,3.6706.3638,4.1651c.5625.4968.9914,1.1254,4.1007,1.3239,3.1075.1973,17.092,3.3722,18.1511,3.4715,1.0576.0981,6.2819,1.1567,6.9424,1.3552a8.1988,8.1988,0,0,0,5.2574-.4962C33.3243,37.56,40.76,34.8843,42.2687,35.23,48.6383,36.684,100.21,49.2977,100.21,49.2977Z"/><path class="cls-7" d="M102.26,44.2805a2.5891,2.5891,0,0,1-.1814,1.4381,28.0893,28.0893,0,0,0-.1494,3.8678"/><path class="cls-7" d="M102.7226,45.2965S45.5812,31.2123,44.4124,31.08a12.0692,12.0692,0,0,0-5.6121,0c-2.3677.7278-8.8144,3.2894-9.7732,3.3967a105.53,105.53,0,0,1-16.1343-2.3723,75.0226,75.0226,0,0,1-9.01-3.57c-.7935-.3474-4.1668-1.0422-5.2574-1.4374-1.09-.3975-2.0819-.3975-2.0329-.9434s2.0056-2.4294,2.937-2.7768,4.0555-1.1408,4.5022-1.5879c.4466-.4449.9919-.5442.1489-.8425a5.0113,5.0113,0,0,0-2.8766-.6936c-1.4882.1483-6.15,2.4789-6.7946,2.8263"/><path class="cls-7" d="M102.7226,46.6128S45.272,32.0717,44.1027,31.9393a9.7271,9.7271,0,0,0-4.9259.1649c-2.3677.7284-8.8937,3.067-9.852,3.1742S16.6609,34.0892,12.76,32.9324a83.2231,83.2231,0,0,1-9.654-3.9015C2.313,28.6824-.53,28.2-1.6387,27.857c-1.1744-.3645-2.4629-.5624-2.265-1.4551"/><line class="cls-7" x1="1.3243" y1="27.8231" x2="1.327" y2="28.547"/><line class="cls-7" x1="1.3243" y1="27.8231" x2="3.1215" y2="27.0531"/><line class="cls-7" x1="3.3413" y1="29.1366" x2="3.4023" y2="28.3665"/><line class="cls-7" x1="3.4025" y1="28.3668" x2="5.4531" y2="27.8232"/><line class="cls-7" x1="10.6322" y1="32.2242" x2="10.8426" y2="31.5757"/><line class="cls-7" x1="10.9419" y1="31.5758" x2="12.843" y2="30.7824"/><line class="cls-7" x1="12.9751" y1="32.9929" x2="13.0464" y2="32.1493"/><line class="cls-7" x1="13.0464" y1="32.1495" x2="14.8266" y2="31.5757"/><line class="cls-7" x1="26.2775" y1="35.0611" x2="27.4696" y2="34.3938"/><line class="cls-7" x1="26.2775" y1="35.2126" x2="26.2775" y2="39.2597"/><line class="cls-7" x1="29.2253" y1="34.3938" x2="29.5225" y2="35.2129"/><line class="cls-7" x1="29.5228" y1="35.2126" x2="29.3733" y2="39.1028"/><line class="cls-7" x1="39.5671" y1="30.8868" x2="39.9128" y2="31.5758"/><line class="cls-7" x1="39.913" y1="31.5758" x2="39.913" y2="35.5327"/><polygon class="cls-7" points="0.825 29.989 0.825 32.571 3.341 31.863 0.825 29.989"/><path class="cls-7" d="M19.8026,32.1044c-.4524.2847,7.0021,1.8852,7.6667,1.7364s11.3275-3.5382,11.7741-3.852.5174-.4129-.7329-.661-3.1851-.7114-4.359-.976-.9919-.1152-2.6284.2978S20.38,31.7417,19.8026,32.1044Z"/><line class="cls-7" x1="20.5529" y1="32.4693" x2="33.3583" y2="28.7327"/><line class="cls-7" x1="33.3585" y1="28.7327" x2="39.1377" y2="30.0424"/><path class="cls-7" d="M-.47,26.4021c.6325.1193,4.2694.8277,4.898,1s4.3983,1.9251,5.4559,2.3216a40.3412,40.3412,0,0,0,5.5551,1.8515,9.2681,9.2681,0,0,0,3.4047-.54c2.1823-.6166,9.3579-2.52,10.3823-2.94s1.19-.5065-.3975-1.0415S10.6437,22.6825,9.3215,22.2194a3.6532,3.6532,0,0,0-3.1406,0c-.6947.4631-3.4344,1.0581-4.0972,1.3895A18.8027,18.8027,0,0,0-.96,25.79C-1.2913,26.1871-.7854,26.3429-.47,26.4021Z"/><path class="cls-7" d="M3.0065,26.8812c-.1917-.0262-.1985-.4631,2.4464-1.72s7.9034-1.0245,8.2662-1.0245,6.5128,1.5207,7.406,1.7523a1.8472,1.8472,0,0,1,1.1905,1.8623c.033.7062-2.0837,1.9724-3.2736,2.2372s-4.6282.7272-5.7855.7939C13.2565,30.7827,3.6185,26.9639,3.0065,26.8812Z"/><path class="cls-7" d="M6.74,28.3668c-.5733-.4329,3.1508-.6343,5.35-.7027,2.5543-.0788,7.3348,1.7927,7.9035,1.9929s-6.9475,1.2395-6.9475,1.2395A65.421,65.421,0,0,1,6.74,28.3668Z"/><line class="cls-7" x1="13.7193" y1="24.1372" x2="13.7272" y2="27.8232"/><line class="cls-7" x1="21.125" y1="25.8891" x2="21.3896" y2="28.7326"/><line class="cls-7" x1="1.7008" y1="26.7252" x2="6.6804" y2="22.4341"/><line class="cls-7" x1="6.6806" y1="22.4338" x2="7.6771" y2="22.4338"/><line class="cls-7" x1="7.9251" y1="22.4338" x2="13.353" y2="23.7788"/><line class="cls-7" x1="21.7199" y1="25.7242" x2="29.8298" y2="27.8233"/><line class="cls-7" x1="0.1807" y1="20.5383" x2="0.3946" y2="21.3272"/><line class="cls-7" x1="0.3946" y1="21.327" x2="0.3946" y2="22.9139"/><line class="cls-7" x1="2.0835" y1="22.582" x2="2.0835" y2="20.9319"/><line class="cls-7" x1="2.0835" y1="20.9321" x2="2.392" y2="20.2773"/><line class="cls-7" x1="-6.6808" y1="24.4653" x2="0.825" y2="21.327"/><line class="cls-7" x1="0.8252" y1="21.327" x2="2.2374" y2="21.1616"/><line class="cls-7" x1="2.2372" y1="21.1616" x2="4.1902" y2="21.6459"/><line class="cls-7" x1="-0.9484" y1="23.6281" x2="1.2419" y2="24.1204"/><line class="cls-7" x1="0.36" y1="23.1067" x2="1.883" y2="23.6281"/><line class="cls-7" x1="3.3413" y1="22.1492" x2="5.0895" y2="22.5821"/><line class="cls-7" x1="4.1902" y1="21.6456" x2="6.1809" y2="22.2195"/><line class="cls-7" x1="112.6756" y1="49.2977" x2="112.6756" y2="50.8846"/><line class="cls-7" x1="114.6441" y1="49.4297" x2="114.6441" y2="50.8848"/><line class="cls-7" x1="114.8569" y1="48.1073" x2="114.8569" y2="49.1318"/><line class="cls-7" x1="116.9402" y1="47.8427" x2="116.9065" y2="49.4296"/><line class="cls-7" x1="119.3649" y1="48.4711" x2="119.3649" y2="49.7608"/><line class="cls-7" x1="120.2127" y1="48.4711" x2="120.1801" y2="49.7608"/><line class="cls-7" x1="121.3212" y1="47.5781" x2="121.3212" y2="49.2979"/><line class="cls-7" x1="120.1804" y1="45.76" x2="120.1804" y2="47.1153"/><path class="cls-7" d="M102.7816,48.4382c1,.1318,8.7693,2.2149,9.4635,2.2474s2.4458.3981,2.6118,0a3.7241,3.7241,0,0,0,0-1.3878s-.1323.0325.6616,0a7.0754,7.0754,0,0,1,2.3809.1318c.6936.2321,1.3215.6947,1.85.6617a6.0376,6.0376,0,0,0,1.72-.7935l-.1483-1.9177-.8112-.2646a1.1109,1.1109,0,0,0,.53-.6782,3.5412,3.5412,0,0,0-.43-2.33"/><path class="cls-7" d="M102.8969,46.9832c.4209.1238,9.2153,2.2612,9.4971,2.3148a11.51,11.51,0,0,0,1.884.2019c.2983-.05.9052-.1985.2236-.4467s-1.0786-.3388-.0736-.8082c1.0033-.4677,1.0284-.4107,1.3136-.4021a8.4558,8.4558,0,0,1,2.3724.4021c1.4715.4078,1.8509.4078,2.0664.2926s1.0245-.7774,1.0245-.7774l.1238-.2715a15.3313,15.3313,0,0,1-2.3552-.8756c-.033-.16-.061-.3075.3913-.5066a4.0744,4.0744,0,0,0,1.4431-.9365,1.23,1.23,0,0,0-.1557-1.0336"/><polygon class="cls-9" points="71.182 14.903 46.433 25.221 46.707 34.402 61.095 40.555 64.014 39.208 63.991 38.003 68.313 36.048 68.374 37.193 72.26 35.398 72.138 32.997 86.056 26.402 85.876 18.74 71.182 14.903"/><polygon class="cls-7" points="71.182 14.903 46.433 25.221 46.707 34.402 61.095 40.555 64.014 39.208 63.991 38.003 68.313 36.048 68.374 37.193 72.26 35.398 72.138 32.997 86.056 26.402 85.876 18.74 71.182 14.903"/><line class="cls-9" x1="60.4969" y1="30.2239" x2="85.8802" y2="18.9449"/><line class="cls-7" x1="60.4969" y1="30.2239" x2="85.8802" y2="18.9449"/><line class="cls-9" x1="46.4331" y1="25.2206" x2="60.608" y2="30.1107"/><line class="cls-7" x1="46.4331" y1="25.2206" x2="60.608" y2="30.1107"/><polyline class="cls-9" points="61.096 40.555 60.811 36.537 58.837 37.175 58.766 34.804 60.741 34.224 60.497 30.224"/><polyline class="cls-7" points="61.096 40.555 60.811 36.537 58.837 37.175 58.766 34.804 60.741 34.224 60.497 30.224"/><path class="cls-10" d="M36.7057,46.1833l19.3632-7.7106h0c1.7152-1.0626,2.1368-4.07.9058-6.9942-1.29-3.0653-3.914-4.8974-5.9133-4.1565l-18.3349,8.78"/><path class="cls-7" d="M36.7057,46.1833l19.3632-7.7106h0c1.7152-1.0626,2.1368-4.07.9058-6.9942-1.29-3.0653-3.914-4.8974-5.9133-4.1565l-18.3349,8.78"/><path class="cls-10" d="M38.5511,39.5241c1.1088,2.6.6924,5.3041-.8995,6.2864a2.5458,2.5458,0,0,1-.3331.1734c-1.8653.7951-4.3362-.8083-5.5181-3.581-1.0347-2.4248-.7415-4.9408.5955-6.0662a2.5416,2.5416,0,0,1,.6371-.3936c1.867-.7951,4.335.8083,5.5181,3.581"/><path class="cls-7" d="M38.5511,39.5241c1.1088,2.6.6924,5.3041-.8995,6.2864a2.5458,2.5458,0,0,1-.3331.1734c-1.8653.7951-4.3362-.8083-5.5181-3.581-1.0347-2.4248-.7415-4.9408.5955-6.0662a2.5416,2.5416,0,0,1,.6371-.3936C34.9,35.148,37.368,36.7514,38.5511,39.5241Z"/><path class="cls-10" d="M40.74,32.2687a2.0745,2.0745,0,0,1,.2686-.1362c1.8646-.7952,4.38.9178,5.62,3.825,1.2075,2.8292.7621,5.7468-.98,6.6349-.0468.0257-.097.048-.1466.07"/><path class="cls-7" d="M40.74,32.2687a2.0745,2.0745,0,0,1,.2686-.1362c1.8646-.7952,4.38.9178,5.62,3.825,1.2075,2.8292.7621,5.7468-.98,6.6349-.0468.0257-.097.048-.1466.07"/><path class="cls-10" d="M44.5587,30.464a2.8677,2.8677,0,0,1,.2549-.1346c1.945-.8978,4.6122.7375,5.9555,3.6517,1.2606,2.7327.9081,5.619-.7432,6.7073a2.5021,2.5021,0,0,1-.3114.1768"/><path class="cls-7" d="M44.5587,30.464a2.8677,2.8677,0,0,1,.2549-.1346c1.945-.8978,4.6122.7375,5.9555,3.6517,1.2606,2.7327.9081,5.619-.7432,6.7073a2.5021,2.5021,0,0,1-.3114.1768"/><path class="cls-10" d="M17.1105,54.1528s19.8852-8.9188,19.8948-8.9239c1.466-.8932,1.884-3.2969.9076-5.5853-1.0422-2.44-3.2747-3.8269-4.9865-3.0944-.0154.0051-19.5857,8.7641-19.5857,8.7641"/><path class="cls-7" d="M17.1105,54.1528s19.8852-8.9188,19.8948-8.9239c1.466-.8932,1.884-3.2969.9076-5.5853-1.0422-2.44-3.2747-3.8269-4.9865-3.0944-.0154.0051-19.5857,8.7641-19.5857,8.7641"/><path class="cls-10" d="M18.327,48.4092c.9748,2.2891.5578,4.6916-.91,5.5848a2.3309,2.3309,0,0,1-.3063.1586c-1.7129.7307-3.946-.6559-4.9875-3.0961-.91-2.1361-.6081-4.37.6291-5.3851a2.3137,2.3137,0,0,1,.5887-.3583c1.7123-.7307,3.9448.656,4.9864,3.0961"/><path class="cls-7" d="M18.327,48.4092c.9748,2.2891.5578,4.6916-.91,5.5848a2.3309,2.3309,0,0,1-.3063.1586c-1.7129.7307-3.946-.6559-4.9875-3.0961-.91-2.1361-.6081-4.37.6291-5.3851a2.3137,2.3137,0,0,1,.5887-.3583C15.0529,44.5824,17.2854,45.9691,18.327,48.4092Z"/><path class="cls-11" d="M45.6482,42.5922a66.74,66.74,0,0,0,6.2435-2.7139,3.1081,3.1081,0,0,0,1.4443-2.1972,9.4976,9.4976,0,0,0-.9035-4.56c-1.3918-2.9872-3.7635-3.7749-4.7229-3.7025a4.2965,4.2965,0,0,0-1.9656.45c-.7723.2908-2.02.9537-2.9718,1.3061,0,0-.0833-2.5856-.0085-2.6352.227-.1494,4.1256-1.9274,4.2152-1.8983.0873.0286,11.5033,3.4133,11.5922,3.5582.0907.1483.3263,8.9358.2972,9.0259-.0285.0879-3.6648,1.61-3.6648,1.5806s-2.7836.2858-4.1411.5756A26.824,26.824,0,0,0,47.5237,42.43a14.2048,14.2048,0,0,0-1.55,1.1077c-1.8259,1.97-.5989,3.1714-3.7281,4.723-2.7311,1.3546-7.6856,1.2594-9.3825.4038-2.2993-1.1556-1.2988-.9029.69-1.8875,0,0-.0234.879,1.454.9583a17.4242,17.4242,0,0,0,3.6567-.1654,8.69,8.69,0,0,0,2.7031-.7929c3.1133-2.04,2.8715-3.5975,2.8715-3.5975.4968-.1882,1.41-.5875,1.41-.5875"/><path class="cls-12" d="M45.6482,42.5922a66.74,66.74,0,0,0,6.2435-2.7139,3.1081,3.1081,0,0,0,1.4443-2.1972,9.4976,9.4976,0,0,0-.9035-4.56c-1.3918-2.9872-3.7635-3.7749-4.7229-3.7025a4.2965,4.2965,0,0,0-1.9656.45c-.7723.2908-2.02.9537-2.9718,1.3061,0,0-.0833-2.5856-.0085-2.6352.227-.1494,4.1256-1.9274,4.2152-1.8983.0873.0286,11.5033,3.4133,11.5922,3.5582.0907.1483.3263,8.9358.2972,9.0259-.0285.0879-3.6648,1.61-3.6648,1.5806s-2.7836.2858-4.1411.5756A26.824,26.824,0,0,0,47.5237,42.43a14.2048,14.2048,0,0,0-1.55,1.1077c-1.8259,1.97-.5989,3.1714-3.7281,4.723-2.7311,1.3546-7.6856,1.2594-9.3825.4038-2.2993-1.1556-1.2988-.9029.69-1.8875,0,0-.0234.879,1.454.9583a17.4242,17.4242,0,0,0,3.6567-.1654,8.69,8.69,0,0,0,2.7031-.7929c3.1133-2.04,2.8715-3.5975,2.8715-3.5975C44.735,42.9915,45.6482,42.5922,45.6482,42.5922Z"/><polygon class="cls-3" points="64.841 59.143 156.646 54.081 156.646 12.73 119.336 10.657 64.841 59.143"/></g><ellipse class="cls-13" cx="74.9455" cy="34.2159" rx="71.9998" ry="25.7974"/><polygon class="cls-14" points="34.126 0.589 39.622 6.084 39.622 13.856 34.126 19.352 26.355 19.352 20.858 13.856 20.858 6.084 26.355 0.589 34.126 0.589"/><polygon class="cls-15" points="34.126 0.589 39.622 6.084 39.622 13.856 34.126 19.352 26.355 19.352 20.858 13.856 20.858 6.084 26.355 0.589 34.126 0.589"/><polygon class="cls-3" points="24.809 6.027 30.24 13.301 35.672 6.027 24.809 6.027"/><rect class="cls-3" x="27.9142" y="3.5133" width="4.7069" height="2.8525"/><line class="cls-16" x1="30.2462" y1="17.1702" x2="30.2462" y2="14.2533"/><line class="cls-16" x1="34.1321" y1="15.6011" x2="32.0695" y2="13.5391"/><line class="cls-16" x1="26.361" y1="15.6011" x2="28.4235" y2="13.5391"/><line class="cls-16" x1="28.1691" y1="16.4177" x2="28.8489" y2="14.9592"/><line class="cls-16" x1="32.2549" y1="16.4177" x2="31.575" y2="14.9592"/><path class="cls-11" d="M107.8018,32.5362h1.8594c1.1211,0,1.8584.5957,1.8584,1.5752v.0146c0,1.0713-.8936,1.624-1.9512,1.624h-1.206v1.753h-.5606Zm1.7881,2.7031c.8232,0,1.3623-.44,1.3623-1.0928v-.0136c0-.71-.5322-1.0791-1.334-1.0791h-1.2558v2.1855Z"/><path class="cls-11" d="M112.3917,36.1123V33.835h.5459v2.1426a.9777.9777,0,0,0,1.0146,1.1064,1.0826,1.0826,0,0,0,1.1-1.1494v-2.1h.54v3.668h-.54v-.6387a1.3964,1.3964,0,0,1-1.2558.7168A1.34,1.34,0,0,1,112.3917,36.1123Z"/><path class="cls-11" d="M116.8672,32.3233h.5459v5.18h-.5459Z"/><path class="cls-11" d="M118.7325,32.3233h.5459v5.18h-.5459Z"/><path class="cls-11" d="M120.4,35.083h1.9726v.5752H120.4Z"/><path class="cls-11" d="M123.6338,36.5313V34.3174h-.5107V33.835h.5107V32.7276h.5459V33.835h1.1641v.4824H124.18V36.46a.5433.5433,0,0,0,.6182.61,1.1534,1.1534,0,0,0,.5313-.128v.4688a1.3787,1.3787,0,0,1-.6592.1552A.9334.9334,0,0,1,123.6338,36.5313Z"/><path class="cls-11" d="M126.03,36.4385v-.0137c0-.7734.6387-1.1855,1.5684-1.1855a3.9083,3.9083,0,0,1,1.1279.1562v-.1279c0-.6592-.4043-1-1.0918-1a2.5522,2.5522,0,0,0-1.1142.27l-.1631-.4472a3.0269,3.0269,0,0,1,1.334-.3047,1.61,1.61,0,0,1,1.1845.4043,1.4488,1.4488,0,0,1,.376,1.0713V37.503h-.5254v-.5537a1.6047,1.6047,0,0,1-1.3262.6318A1.2361,1.2361,0,0,1,126.03,36.4385Zm2.7041-.2832V35.8a3.8264,3.8264,0,0,0-1.0791-.1562c-.6875,0-1.0713.2988-1.0713.76v.0136c0,.4619.4258.7315.9229.7315A1.11,1.11,0,0,0,128.7344,36.1553Z"/><path class="cls-11" d="M130.961,36.8008v.7022h-.5459v-5.18h.5459v2.249a1.65,1.65,0,0,1,1.4053-.8154,1.7887,1.7887,0,0,1,1.7519,1.9013v.0137a1.796,1.796,0,0,1-1.7519,1.9092A1.656,1.656,0,0,1,130.961,36.8008Zm2.5976-1.1211v-.0146a1.3215,1.3215,0,0,0-1.2919-1.419,1.368,1.368,0,0,0-1.3262,1.4121v.0137a1.3657,1.3657,0,0,0,1.3262,1.42A1.2949,1.2949,0,0,0,133.5586,35.68Z"/><line class="cls-17" x1="55.707" y1="45.0694" x2="103.5455" y2="36.7209"/><polygon class="cls-18" points="51.731 45.763 57.733 47.075 56.004 45.018 56.934 42.496 51.731 45.763"/></svg>