<?xml version="1.0" encoding="utf-8"?>
<!-- Generator: Adobe Illustrator 26.0.3, SVG Export Plug-In . SVG Version: 6.00 Build 0)  -->
<svg version="1.1" id="Layer_1" xmlns="http://www.w3.org/2000/svg" xmlns:xlink="http://www.w3.org/1999/xlink" x="0px" y="0px"
	 viewBox="0 0 20.8 14.4" style="enable-background:new 0 0 20.8 14.4;" xml:space="preserve">
<style type="text/css">
	.st0{fill:#61A60E;}
	.st1{fill:#FFFFFF;}
</style>
<g>
	<g>
		<path class="st0" d="M0,13.7h20.8V0.3c0-0.2-0.1-0.3-0.3-0.3H0.3C0.1,0,0,0.1,0,0.3V13.7z"/>
	</g>
	<g>
		<path class="st1" d="M7.8,4.6c0.1-0.4,0.3-0.8,0.6-1.1S8.9,3,9.3,2.8c0.4-0.2,0.8-0.3,1.3-0.3c0.4,0,0.7,0.1,1.1,0.2
			C12,2.8,12.3,3,12.5,3.2S13,3.7,13.2,4s0.2,0.7,0.2,1.1s-0.1,0.8-0.2,1.1c-0.1,0.3-0.3,0.6-0.5,0.8c-0.2,0.2-0.5,0.4-0.7,0.6
			c-0.3,0.2-0.6,0.4-0.8,0.6c-0.3,0.2-0.6,0.4-0.8,0.6C10,9,9.8,9.2,9.6,9.5h3.9v1.4h-6c0-0.5,0.1-0.9,0.2-1.2c0-0.4,0.2-0.7,0.5-1
			C8.5,8.4,8.7,8.2,9,8s0.7-0.5,1-0.7c0.2-0.1,0.4-0.3,0.6-0.4c0.2-0.1,0.4-0.3,0.6-0.4s0.3-0.3,0.4-0.5s0.2-0.4,0.2-0.7
			c0-0.4-0.1-0.7-0.3-0.9c-0.4-0.3-0.6-0.4-1-0.4C10.2,4,10,4,9.9,4.1C9.7,4.3,9.6,4.4,9.5,4.6S9.3,5,9.3,5.2S9.2,5.6,9.2,5.9H7.6
			C7.6,5.4,7.6,5,7.8,4.6z"/>
	</g>
</g>
</svg>
