<?xml version="1.0" encoding="utf-8"?>
<!-- Generator: Adobe Illustrator 26.0.3, SVG Export Plug-In . SVG Version: 6.00 Build 0)  -->
<svg version="1.1" id="Layer_1" xmlns="http://www.w3.org/2000/svg" xmlns:xlink="http://www.w3.org/1999/xlink" x="0px" y="0px"
	 viewBox="0 0 49.3 36.4" style="enable-background:new 0 0 49.3 36.4;" xml:space="preserve">
<style type="text/css">
	
		.st0{clip-path:url(#SVGID_00000152256671781981615830000017552821830402480046_);fill-rule:evenodd;clip-rule:evenodd;fill:url(#SVGID_00000027579487807538687060000004538491439978187140_);}
	.st1{fill:none;stroke:#808184;stroke-width:0.3625;stroke-linecap:round;stroke-linejoin:round;stroke-miterlimit:10;}
	.st2{fill-rule:evenodd;clip-rule:evenodd;fill:#A6A8AB;}
	.st3{fill:none;stroke:#A0AFB5;stroke-width:0.3625;stroke-linecap:round;stroke-linejoin:round;stroke-miterlimit:10;}
	.st4{fill-rule:evenodd;clip-rule:evenodd;fill:#8097A5;}
	.st5{fill-rule:evenodd;clip-rule:evenodd;fill:#9AACB3;}
	.st6{fill-rule:evenodd;clip-rule:evenodd;fill:url(#SVGID_00000007416636007993318250000016822628529820509105_);}
	.st7{fill:#E6E7E8;stroke:#808184;stroke-width:0.896;stroke-miterlimit:10;}
	.st8{fill-rule:evenodd;clip-rule:evenodd;fill:#DFE2E5;}
	.st9{fill-rule:evenodd;clip-rule:evenodd;fill:#CCD2D6;}
	
		.st10{fill-rule:evenodd;clip-rule:evenodd;fill:#808184;stroke:#929497;stroke-width:0.3625;stroke-linecap:round;stroke-linejoin:round;stroke-miterlimit:10;}
	.st11{fill:none;stroke:#929497;stroke-width:0.3625;stroke-linecap:round;stroke-linejoin:round;stroke-miterlimit:10;}
	.st12{fill-rule:evenodd;clip-rule:evenodd;fill:#B4C1C6;stroke:#808184;stroke-width:0.896;stroke-miterlimit:10;}
	.st13{fill-rule:evenodd;clip-rule:evenodd;fill:#A6A8AB;stroke:#929497;stroke-width:0.896;stroke-miterlimit:10;}
	.st14{fill-rule:evenodd;clip-rule:evenodd;fill:#BBBDBF;}
	.st15{fill-rule:evenodd;clip-rule:evenodd;fill:#A0AFB5;}
	.st16{fill:#808184;stroke:#929497;stroke-width:0.3625;stroke-linecap:round;stroke-linejoin:round;stroke-miterlimit:10;}
	
		.st17{clip-path:url(#SVGID_00000041272194533220460360000015528312877772388523_);fill-rule:evenodd;clip-rule:evenodd;fill:url(#SVGID_00000043418189605162938000000012294716807117426833_);}
	.st18{fill-rule:evenodd;clip-rule:evenodd;fill:#929497;}
	.st19{fill-rule:evenodd;clip-rule:evenodd;fill:#B4C1C6;}
	
		.st20{clip-path:url(#SVGID_00000088855048556322196340000006978417653493185710_);fill-rule:evenodd;clip-rule:evenodd;fill:url(#SVGID_00000180335381534018539510000009073366804029282195_);}
	.st21{fill-rule:evenodd;clip-rule:evenodd;fill:url(#SVGID_00000003814461961464035240000016034416878217752746_);}
	
		.st22{clip-path:url(#SVGID_00000161594940317699151970000006735000544093301418_);fill-rule:evenodd;clip-rule:evenodd;fill:#A6A8AB;}
	.st23{fill:none;stroke:#6D6E70;stroke-width:0.3625;stroke-linecap:round;stroke-linejoin:round;stroke-miterlimit:10;}
	
		.st24{clip-path:url(#SVGID_00000157265903452654284610000012007265226772477576_);fill-rule:evenodd;clip-rule:evenodd;fill:#58595B;}
	.st25{fill:none;stroke:#58595B;stroke-width:0.3625;stroke-linecap:round;stroke-linejoin:round;stroke-miterlimit:10;}
	.st26{fill-rule:evenodd;clip-rule:evenodd;fill:#666666;}
	
		.st27{clip-path:url(#SVGID_00000058557994507721728770000012101000480913918639_);fill-rule:evenodd;clip-rule:evenodd;fill:#A6A8AB;}
</style>
<g>
	<g>
		<g>
			<g>
				<defs>
					<polygon id="SVGID_1_" points="49.1,5.6 39.6,0.2 6.3,19.2 15.8,24.6 					"/>
				</defs>
				<clipPath id="SVGID_00000081635019295763084260000007642731097463691439_">
					<use xlink:href="#SVGID_1_"  style="overflow:visible;"/>
				</clipPath>
				
					<linearGradient id="SVGID_00000165233264707835610200000006126134139508021899_" gradientUnits="userSpaceOnUse" x1="-345.6924" y1="410.2217" x2="-339.53" y2="410.2217" gradientTransform="matrix(13.8749 0 0 13.7344 4760.0176 -5621.7544)">
					<stop  offset="0" style="stop-color:#CCD2D6"/>
					<stop  offset="0.25" style="stop-color:#DFE2E5"/>
					<stop  offset="0.5" style="stop-color:#CCD2D6"/>
					<stop  offset="0.75" style="stop-color:#DFE2E5"/>
					<stop  offset="1" style="stop-color:#CCD2D6"/>
				</linearGradient>
				
					<rect x="6.3" y="0.2" style="clip-path:url(#SVGID_00000081635019295763084260000007642731097463691439_);fill-rule:evenodd;clip-rule:evenodd;fill:url(#SVGID_00000165233264707835610200000006126134139508021899_);" width="42.8" height="24.4"/>
			</g>
			<polyline class="st1" points="49.1,5.6 39.6,0.2 6.3,19.2 15.8,24.6 49.1,5.6 			"/>
			<path class="st2" d="M49.1,8.2V5.6l-33.3,19v6.9l30.5-17.4c0.4-0.2,0.8-0.7,0.9-1.2l1.6-4.5L49.1,8.2z"/>
			<path class="st1" d="M49.1,8.2V5.6l-33.3,19v6.9l30.5-17.4c0.4-0.2,0.8-0.7,0.9-1.2l1.6-4.5L49.1,8.2z"/>
			<path class="st2" d="M5.3,22v-0.6l-1.4,0.8c-0.1,0.2-0.2,0.5-0.3,0.8L5.3,22z"/>
			<path class="st3" d="M5.3,22v-0.6l-1.4,0.8c-0.1,0.2-0.2,0.5-0.3,0.8L5.3,22z"/>
			<path class="st2" d="M6.5,19.8l-1.9,1.1l0.7,0.4V22l-1.8,1l-0.7-0.4c-0.2,0.5-0.5,1-0.8,1.4l4.5-2.6V19.8z"/>
			<path class="st1" d="M6.5,19.8l-1.9,1.1l0.7,0.4V22l-1.8,1l-0.7-0.4c-0.2,0.5-0.5,1-0.8,1.4l4.5-2.6V19.8z"/>
			<polygon class="st4" points="7.1,30.1 7.5,30.3 7.5,29.5 7.1,29.7 			"/>
			<polygon class="st3" points="7.1,30.1 7.5,30.3 7.5,29.5 7.1,29.7 			"/>
			<polygon class="st5" points="5.5,31 7.1,30.1 7.1,29.7 5.7,30.5 5.3,30.3 			"/>
			<polygon class="st3" points="5.5,31 7.1,30.1 7.1,29.7 5.7,30.5 5.3,30.3 			"/>
			
				<linearGradient id="SVGID_00000127724817574209514800000013492502905304550327_" gradientUnits="userSpaceOnUse" x1="6.3976" y1="24.3937" x2="10.9054" y2="24.3937">
				<stop  offset="0" style="stop-color:#CCD2D6"/>
				<stop  offset="0.25" style="stop-color:#DFE2E5"/>
				<stop  offset="0.5" style="stop-color:#CCD2D6"/>
				<stop  offset="0.75" style="stop-color:#DFE2E5"/>
				<stop  offset="1" style="stop-color:#CCD2D6"/>
			</linearGradient>
			<path style="fill-rule:evenodd;clip-rule:evenodd;fill:url(#SVGID_00000127724817574209514800000013492502905304550327_);" d="
				M7.2,25.1c-0.2,0.5-0.5,1-0.8,1.4l4.5-2.6v-1.6L9,23.4l0.7,0.4v0.6l-1.8,1L7.2,25.1z"/>
			<path class="st7" d="M7.2,25.1c-0.2,0.5-0.5,1-0.8,1.4l4.5-2.6v-1.6L9,23.4l0.7,0.4v0.6l-1.8,1L7.2,25.1z"/>
			<polygon class="st8" points="1.7,24.6 6.9,21.6 6.5,21.4 2,24 1,23.4 0.3,23.8 			"/>
			<polygon class="st1" points="1.7,24.6 6.9,21.6 6.5,21.4 2,24 1,23.4 0.3,23.8 			"/>
			<polygon class="st9" points="1.7,25.3 1.7,24.6 0.3,23.8 0.3,27.4 1.3,28 1.3,25.1 			"/>
			<polygon class="st1" points="1.7,25.3 1.7,24.6 0.3,23.8 0.3,27.4 1.3,28 1.3,25.1 			"/>
			<polygon class="st10" points="6.9,22.3 6.9,21.6 1.7,24.6 1.7,25.3 			"/>
			<polygon class="st1" points="6.9,22.3 6.9,21.6 1.7,24.6 1.7,25.3 			"/>
			<polygon class="st2" points="6.9,22.3 6.5,22.6 6.5,22.7 7.1,22.4 7.8,22.8 9.8,21.7 6.5,19.8 6.5,21.4 6.9,21.6 			"/>
			<polygon class="st3" points="6.9,22.3 6.5,22.6 6.5,22.7 7.1,22.4 7.8,22.8 9.8,21.7 6.5,19.8 6.5,21.4 6.9,21.6 			"/>
			<path class="st8" d="M6.1,27.1l5.2-3l-0.4-0.2l-4.5,2.6l-1.1-0.6c0.1-0.2,0.3-0.5,0.5-0.8L4.1,26L6.1,27.1z"/>
			<path class="st11" d="M6.1,27.1l5.2-3l-0.4-0.2l-4.5,2.6l-1.1-0.6c0.1-0.2,0.3-0.5,0.5-0.8L4.1,26L6.1,27.1z"/>
			<polygon class="st12" points="11.3,24.9 11.3,24.1 6.1,27.1 6.1,27.8 			"/>
			<polygon class="st11" points="11.3,24.9 11.3,24.1 6.1,27.1 6.1,27.8 			"/>
			<polygon class="st13" points="11.3,24.9 10.9,25.1 10.9,25.3 11.5,24.9 12.2,25.3 14.2,24.2 10.9,22.3 10.9,23.9 11.3,24.1 			
				"/>
			<polygon class="st1" points="11.3,24.9 10.9,25.1 10.9,25.3 11.5,24.9 12.2,25.3 14.2,24.2 10.9,22.3 10.9,23.9 11.3,24.1 			"/>
			<polygon class="st5" points="2.7,27.6 2.7,27.2 1.3,28 0.9,27.8 1.1,28.5 			"/>
			<polygon class="st3" points="2.7,27.6 2.7,27.2 1.3,28 0.9,27.8 1.1,28.5 			"/>
			<polygon class="st4" points="3.1,27.8 3.1,27 2.7,27.2 2.7,27.6 			"/>
			<polygon class="st3" points="3.1,27.8 3.1,27 2.7,27.2 2.7,27.6 			"/>
			<polygon class="st14" points="4.6,26.9 3.1,27.8 2.7,27.6 1.1,28.5 5.1,30.8 5,30.1 4.6,29.8 			"/>
			<polygon class="st11" points="4.6,26.9 3.1,27.8 2.7,27.6 1.1,28.5 5.1,30.8 5,30.1 4.6,29.8 			"/>
			<path class="st15" d="M4.6,26.9l-0.4-0.2V26l1.6-0.9c0.1-0.2,0.2-0.4,0.3-0.6L5.4,24c0.1-0.3,0.3-0.6,0.3-0.8l0.8-0.5v-0.2
				l-4.8,2.7l-0.4-0.2V28l1.8-1v0.8L4.6,26.9z"/>
			<path class="st16" d="M4.6,26.9l-0.4-0.2V26l1.6-0.9c0.1-0.2,0.2-0.4,0.3-0.6L5.4,24c0.1-0.3,0.3-0.6,0.3-0.8l0.8-0.5v-0.2
				l-4.8,2.7l-0.4-0.2V28l1.8-1v0.8L4.6,26.9z"/>
			<polygon class="st9" points="4.6,26.9 4.6,29.8 5.7,30.5 5.7,27.6 6.1,27.8 6.1,27.1 4.1,26 4.1,26.7 			"/>
			<polygon class="st11" points="4.6,26.9 4.6,29.8 5.7,30.5 5.7,27.6 6.1,27.8 6.1,27.1 4.1,26 4.1,26.7 			"/>
			<g>
				<defs>
					<polygon id="SVGID_00000050620869551678028660000018317716859772611478_" points="15.9,24.4 6.2,18.8 2.1,21.2 3.8,22.1 
						5.3,21.3 4.6,20.9 6.5,19.8 9.8,21.7 7.8,22.8 7.1,22.4 5.7,23.2 8.2,24.7 9.7,23.8 9,23.4 10.9,22.3 14.2,24.2 12.2,25.3 
						11.5,24.9 10.1,25.7 11.8,26.7 					"/>
				</defs>
				<clipPath id="SVGID_00000130625817611843720850000011225716357494650524_">
					<use xlink:href="#SVGID_00000050620869551678028660000018317716859772611478_"  style="overflow:visible;"/>
				</clipPath>
				
					<linearGradient id="SVGID_00000065038942232751411180000001799296541769017480_" gradientUnits="userSpaceOnUse" x1="-343.9031" y1="410.9763" x2="-341.9234" y2="410.9763" gradientTransform="matrix(13.8749 0 0 13.7344 4760.0176 -5621.7544)">
					<stop  offset="0" style="stop-color:#CCD2D6"/>
					<stop  offset="0.25" style="stop-color:#DFE2E5"/>
					<stop  offset="0.5" style="stop-color:#CCD2D6"/>
					<stop  offset="0.75" style="stop-color:#DFE2E5"/>
					<stop  offset="1" style="stop-color:#CCD2D6"/>
				</linearGradient>
				
					<rect x="2.1" y="18.8" style="clip-path:url(#SVGID_00000130625817611843720850000011225716357494650524_);fill-rule:evenodd;clip-rule:evenodd;fill:url(#SVGID_00000065038942232751411180000001799296541769017480_);" width="13.7" height="7.8"/>
			</g>
			<polyline class="st1" points="15.9,24.4 6.2,18.8 2.1,21.2 3.8,22.1 5.3,21.3 4.6,20.9 6.5,19.8 9.8,21.7 7.8,22.8 7.1,22.4 
				5.7,23.2 8.2,24.7 9.7,23.8 9,23.4 10.9,22.3 14.2,24.2 12.2,25.3 11.5,24.9 10.1,25.7 11.8,26.7 15.9,24.4 			"/>
			<path class="st15" d="M9,29.5l-0.4-0.2v-0.7l1.6-0.9c0.1-0.2,0.2-0.4,0.3-0.6l-0.7-0.4c0.1-0.3,0.3-0.6,0.3-0.8l0.8-0.5v-0.2
				l-4.8,2.7l-0.4-0.2v2.9l1.8-1v0.8L9,29.5z"/>
			<path class="st16" d="M9,29.5l-0.4-0.2v-0.7l1.6-0.9c0.1-0.2,0.2-0.4,0.3-0.6l-0.7-0.4c0.1-0.3,0.3-0.6,0.3-0.8l0.8-0.5v-0.2
				l-4.8,2.7l-0.4-0.2v2.9l1.8-1v0.8L9,29.5z"/>
			<polygon class="st14" points="9.4,32.6 9,32.4 9,29.5 7.5,30.3 7.1,30.1 5.5,31 9.5,33.3 			"/>
			<polygon class="st11" points="9.4,32.6 9,32.4 9,29.5 7.5,30.3 7.1,30.1 5.5,31 9.5,33.3 			"/>
			<path class="st8" d="M10,29.3l0.7-0.4l-1-0.6c0.1-0.2,0.3-0.5,0.5-0.8l-1.6,0.9L10,29.3z"/>
			<path class="st11" d="M10,29.3l0.7-0.4l-1-0.6c0.1-0.2,0.3-0.5,0.5-0.8l-1.6,0.9L10,29.3z"/>
			<polygon class="st9" points="10,30 10,29.3 8.5,28.5 8.5,29.2 9,29.5 9,32.4 10,32.9 			"/>
			<polygon class="st11" points="10,30 10,29.3 8.5,28.5 8.5,29.2 9,29.5 9,32.4 10,32.9 			"/>
			<path class="st2" d="M10,30v2.9l0.4,1.6l4.1-2.4v1.7l1.4-0.8v-8.7l-4.1,2.3c-0.2,0.7-0.7,1.7-1.1,2.2L10,29.3V30z"/>
			<path class="st1" d="M10,30v2.9l0.4,1.6l4.1-2.4v1.7l1.4-0.8v-8.7l-4.1,2.3c-0.2,0.7-0.7,1.7-1.1,2.2L10,29.3V30z"/>
			<polygon class="st15" points="9.8,34.9 9.8,34.2 8.9,33.7 9.3,35.2 			"/>
			<polygon class="st3" points="9.8,34.9 9.8,34.2 8.9,33.7 9.3,35.2 			"/>
			<polygon class="st18" points="13.1,33 14.5,33.9 14.5,32.2 13,33 			"/>
			<polygon class="st1" points="13.1,33 14.5,33.9 14.5,32.2 13,33 			"/>
			<polygon class="st2" points="2.1,29.8 2.4,31.3 9.3,35.2 8.9,33.7 10.3,34.5 10,32.9 9.4,32.6 9.5,33.3 5.5,31 5.3,30.3 5,30.1 
				5.1,30.8 1.1,28.5 0.9,27.8 0.3,27.4 0.7,29 			"/>
			<polygon class="st1" points="2.1,29.8 2.4,31.3 9.3,35.2 8.9,33.7 10.3,34.5 10,32.9 9.4,32.6 9.5,33.3 5.5,31 5.3,30.3 5,30.1 
				5.1,30.8 1.1,28.5 0.9,27.8 0.3,27.4 0.7,29 			"/>
			<polygon class="st9" points="7.3,33.2 2.9,30.7 2.9,32.4 7.3,34.9 			"/>
			<polygon class="st1" points="7.3,33.2 2.9,30.7 2.9,32.4 7.3,34.9 			"/>
			<polygon class="st19" points="8,34.5 7.7,33 7.3,33.2 7.3,34.9 			"/>
			<polygon class="st1" points="8,34.5 7.7,33 7.3,33.2 7.3,34.9 			"/>
			<polygon class="st8" points="7.7,33 3.3,30.5 2.9,30.7 7.3,33.2 			"/>
			<polygon class="st1" points="7.7,33 3.3,30.5 2.9,30.7 7.3,33.2 			"/>
			<path class="st8" d="M11.8,26.7l-1.7-1C10,26,9.9,26.3,9.8,26.6l0.7,0.4c-0.1,0.2-0.2,0.4-0.3,0.6c-0.2,0.3-0.3,0.6-0.5,0.8
				l1,0.6C11.1,28.3,11.6,27.3,11.8,26.7z M2.8,22.6L3.5,23c0.1-0.3,0.3-0.6,0.3-0.8l-1.7-1c-0.2,0.7-0.7,1.7-1.1,2.2L2,24
				C2.2,23.6,2.5,23.1,2.8,22.6z M5.7,25.1c-0.2,0.3-0.3,0.6-0.5,0.8l1.1,0.6c0.2-0.3,0.5-0.9,0.8-1.4l0.7,0.4
				c0.1-0.3,0.3-0.6,0.3-0.8l-2.5-1.4c-0.1,0.2-0.2,0.5-0.3,0.8l0.7,0.4C6,24.7,5.9,24.9,5.7,25.1z"/>
			<path class="st1" d="M11.8,26.7l-1.7-1C10,26,9.9,26.3,9.8,26.6l0.7,0.4c-0.1,0.2-0.2,0.4-0.3,0.6c-0.2,0.3-0.3,0.6-0.5,0.8
				l1,0.6C11.1,28.3,11.6,27.3,11.8,26.7z M2.8,22.6L3.5,23c0.1-0.3,0.3-0.6,0.3-0.8l-1.7-1c-0.2,0.7-0.7,1.7-1.1,2.2L2,24
				C2.2,23.6,2.5,23.1,2.8,22.6z M5.7,25.1c-0.2,0.3-0.3,0.6-0.5,0.8l1.1,0.6c0.2-0.3,0.5-0.9,0.8-1.4l0.7,0.4
				c0.1-0.3,0.3-0.6,0.3-0.8l-2.5-1.4c-0.1,0.2-0.2,0.5-0.3,0.8l0.7,0.4C6,24.7,5.9,24.9,5.7,25.1z"/>
			<g>
				<defs>
					<path id="SVGID_00000153663207877465443230000017588272954175690139_" d="M8.5,24.3L6,22.9c-0.1,0-0.2,0-0.2,0.1
						c0,0.1-0.1,0.1-0.1,0.2l2.5,1.4c0-0.1,0.1-0.2,0.2-0.3C8.5,24.3,8.5,24.3,8.5,24.3z"/>
				</defs>
				<clipPath id="SVGID_00000165194586839851056370000003653285715025073563_">
					<use xlink:href="#SVGID_00000153663207877465443230000017588272954175690139_"  style="overflow:visible;"/>
				</clipPath>
				
					<linearGradient id="SVGID_00000057848948242526011560000001237699154056478654_" gradientUnits="userSpaceOnUse" x1="-342.625" y1="411.1685" x2="-342.4871" y2="410.9297" gradientTransform="matrix(13.8749 0 0 13.7344 4760.0176 -5621.7544)">
					<stop  offset="0" style="stop-color:#DFE2E5"/>
					<stop  offset="5.555600e-02" style="stop-color:#EEF0F1"/>
					<stop  offset="0.1111" style="stop-color:#DFE2E5"/>
					<stop  offset="0.1667" style="stop-color:#EEF0F1"/>
					<stop  offset="0.2222" style="stop-color:#DFE2E5"/>
					<stop  offset="0.2778" style="stop-color:#EEF0F1"/>
					<stop  offset="0.3333" style="stop-color:#DFE2E5"/>
					<stop  offset="0.3889" style="stop-color:#EEF0F1"/>
					<stop  offset="0.4444" style="stop-color:#DFE2E5"/>
					<stop  offset="0.5" style="stop-color:#EEF0F1"/>
					<stop  offset="0.5556" style="stop-color:#DFE2E5"/>
					<stop  offset="0.6111" style="stop-color:#EEF0F1"/>
					<stop  offset="0.6667" style="stop-color:#DFE2E5"/>
					<stop  offset="0.7222" style="stop-color:#EEF0F1"/>
					<stop  offset="0.7778" style="stop-color:#DFE2E5"/>
					<stop  offset="0.8333" style="stop-color:#EEF0F1"/>
					<stop  offset="0.8889" style="stop-color:#DFE2E5"/>
					<stop  offset="0.9444" style="stop-color:#EEF0F1"/>
					<stop  offset="1" style="stop-color:#DFE2E5"/>
				</linearGradient>
				
					<polygon style="clip-path:url(#SVGID_00000165194586839851056370000003653285715025073563_);fill-rule:evenodd;clip-rule:evenodd;fill:url(#SVGID_00000057848948242526011560000001237699154056478654_);" points="
					5.7,23.2 8.3,24.7 8.5,24.3 5.9,22.8 				"/>
			</g>
			<path class="st1" d="M8.5,24.3L6,22.9c-0.1,0-0.2,0-0.2,0.1c0,0.1-0.1,0.1-0.1,0.2l2.5,1.4c0-0.1,0.1-0.2,0.2-0.3
				C8.5,24.3,8.5,24.3,8.5,24.3"/>
			
				<linearGradient id="SVGID_00000101104966266364312130000016261637859385374896_" gradientUnits="userSpaceOnUse" x1="7.8909" y1="24.6614" x2="9.6729" y2="24.6614">
				<stop  offset="0" style="stop-color:#CCD2D6"/>
				<stop  offset="0.25" style="stop-color:#DFE2E5"/>
				<stop  offset="0.5" style="stop-color:#CCD2D6"/>
				<stop  offset="0.75" style="stop-color:#DFE2E5"/>
				<stop  offset="1" style="stop-color:#CCD2D6"/>
			</linearGradient>
			<path style="fill-rule:evenodd;clip-rule:evenodd;fill:url(#SVGID_00000101104966266364312130000016261637859385374896_);" d="
				M8.2,24.7c-0.1,0.2-0.2,0.5-0.3,0.8l1.8-1v-0.6l-1.1,0.6c0-0.1,0-0.1-0.1-0.1c-0.1,0-0.2,0-0.2,0.1C8.2,24.5,8.2,24.6,8.2,24.7z"
				/>
			<path class="st1" d="M8.2,24.7c-0.1,0.2-0.2,0.5-0.3,0.8l1.8-1v-0.6l-1.1,0.6c0-0.1,0-0.1-0.1-0.1c-0.1,0-0.2,0-0.2,0.1
				C8.2,24.5,8.2,24.6,8.2,24.7z"/>
			<g>
				<defs>
					<path id="SVGID_00000035494636327555070600000012839848774826120853_" d="M1,30v-7.6c0,0,0,0,0,0c0,0,0,0,0,0c0,0,0,0,0-0.1
						c0,0,0,0,0-0.1c0,0,0,0,0,0c0,0,0,0,0,0L4,20.6c0,0,0,0,0,0c0,0,0,0,0,0c0,0,0,0,0.1,0c0,0,0.1,0,0.1,0c0,0,0,0,0.1,0
						c0,0,0,0,0,0l0.3,0.2L5,20l-0.3-0.2c-0.1,0-0.1-0.1-0.2-0.1c-0.1,0-0.2,0-0.2,0c-0.1,0-0.2,0-0.3,0c-0.1,0-0.1,0-0.2,0
						c-0.1,0-0.1,0-0.2,0.1l-2.8,1.6c-0.1,0-0.1,0.1-0.2,0.1c-0.1,0.1-0.1,0.1-0.2,0.2c-0.1,0.1-0.1,0.2-0.1,0.3
						c0,0.1,0,0.1-0.1,0.2c0,0.1,0,0.1,0,0.2v7.9c0,0.1,0,0.1,0,0.2c0,0,0,0.1,0.1,0.2c0,0,0.1,0.1,0.1,0.1c0,0,0.1,0.1,0.1,0.1
						c0,0,0.1,0.1,0.1,0.1c0,0,0.1,0,0.1,0c0.1,0,0.1,0,0.2,0C1,31,1,31,1,31c0,0,0.1,0,0.1-0.1L2,30.4c0,0,0,0,0,0c0,0,0,0,0.1,0
						c0,0,0.1,0,0.1,0c0,0,0,0,0,0l-0.1-0.6l-0.3-0.2c0,0-0.1,0-0.1,0.1L1,30z"/>
				</defs>
				<clipPath id="SVGID_00000101819588372893140560000007625166224871000467_">
					<use xlink:href="#SVGID_00000035494636327555070600000012839848774826120853_"  style="overflow:visible;"/>
				</clipPath>
				
					<rect x="0.2" y="19.7" style="clip-path:url(#SVGID_00000101819588372893140560000007625166224871000467_);fill-rule:evenodd;clip-rule:evenodd;fill:#A6A8AB;" width="4.8" height="11.3"/>
			</g>
			<path class="st23" d="M1,30v-7.6c0,0,0,0,0,0c0,0,0,0,0,0c0,0,0,0,0-0.1c0,0,0,0,0-0.1c0,0,0,0,0,0c0,0,0,0,0,0L4,20.6
				c0,0,0,0,0,0c0,0,0,0,0,0c0,0,0,0,0.1,0c0,0,0.1,0,0.1,0c0,0,0,0,0.1,0c0,0,0,0,0,0l0.3,0.2L5,20l-0.3-0.2
				c-0.1,0-0.1-0.1-0.2-0.1c-0.1,0-0.2,0-0.2,0c-0.1,0-0.2,0-0.3,0c-0.1,0-0.1,0-0.2,0c-0.1,0-0.1,0-0.2,0.1l-2.8,1.6
				c-0.1,0-0.1,0.1-0.2,0.1c-0.1,0.1-0.1,0.1-0.2,0.2c-0.1,0.1-0.1,0.2-0.1,0.3c0,0.1,0,0.1-0.1,0.2c0,0.1,0,0.1,0,0.2v7.9
				c0,0.1,0,0.1,0,0.2c0,0,0,0.1,0.1,0.2c0,0,0.1,0.1,0.1,0.1c0,0,0.1,0.1,0.1,0.1c0,0,0.1,0.1,0.1,0.1c0,0,0.1,0,0.1,0
				c0.1,0,0.1,0,0.2,0C1,31,1,31,1,31c0,0,0.1,0,0.1-0.1L2,30.4c0,0,0,0,0,0c0,0,0,0,0.1,0c0,0,0.1,0,0.1,0c0,0,0,0,0,0l-0.1-0.6
				l-0.3-0.2c0,0-0.1,0-0.1,0.1L1,30"/>
			<line class="st23" x1="1" y1="30" x2="1" y2="30.3"/>
			<g>
				<defs>
					<path id="SVGID_00000096774911055137172820000006713305651109287857_" d="M12.9,24.2l-7.7-4.4c-0.2-0.1-0.5,0.1-0.7,0.4
						c-0.2,0.4-0.2,0.7,0,0.9l0,0l7.7,4.4c0.2,0.1,0.5-0.1,0.7-0.4C13.1,24.7,13.1,24.3,12.9,24.2z"/>
				</defs>
				<clipPath id="SVGID_00000178887684995691802200000016765021548538439812_">
					<use xlink:href="#SVGID_00000096774911055137172820000006713305651109287857_"  style="overflow:visible;"/>
				</clipPath>
				
					<polygon style="clip-path:url(#SVGID_00000178887684995691802200000016765021548538439812_);fill-rule:evenodd;clip-rule:evenodd;fill:#58595B;" points="
					4,20.8 12.5,25.7 13.3,24.4 4.8,19.6 				"/>
			</g>
			<path class="st25" d="M12.9,24.2l-7.7-4.4c-0.2-0.1-0.5,0.1-0.7,0.4c-0.2,0.4-0.2,0.7,0,0.9l0,0l7.7,4.4c0.2,0.1,0.5-0.1,0.7-0.4
				C13.1,24.7,13.1,24.3,12.9,24.2"/>
			<path class="st26" d="M12.9,24.2c-0.2-0.1-0.5,0.1-0.7,0.4c-0.2,0.4-0.2,0.7,0,0.9c0.2,0.1,0.5-0.1,0.7-0.4
				C13.1,24.7,13.1,24.3,12.9,24.2z"/>
			<path class="st25" d="M12.9,24.2c-0.2-0.1-0.5,0.1-0.7,0.4c-0.2,0.4-0.2,0.7,0,0.9c0.2,0.1,0.5-0.1,0.7-0.4
				C13.1,24.7,13.1,24.3,12.9,24.2z"/>
			<g>
				<defs>
					<path id="SVGID_00000168107461857978619380000000402136316461407628_" d="M10.8,34.3l-0.4,0.3l-0.2-0.1v0.5l0.3,0.2l-0.3,0.2
						v-7.6c0,0,0,0,0,0c0,0,0,0,0-0.1c0,0,0,0,0-0.1c0,0,0,0,0-0.1c0,0,0,0,0,0c0,0,0,0,0,0l2.8-1.6c0.1,0,0.1-0.1,0.2-0.1
						c0,0,0.1-0.1,0.1-0.1c0,0,0.1-0.1,0.1-0.1c0,0,0-0.1,0-0.2c0-0.1,0-0.1,0-0.2c0-0.1,0-0.1,0-0.1c0,0-0.1-0.1-0.1-0.1
						c0,0-0.1-0.1-0.1-0.1c0,0-0.1-0.1-0.1-0.1l-0.3-0.2c-0.1-0.1-0.3,0-0.4,0.2c-0.1,0.2-0.1,0.4,0,0.5l0,0l0,0l-2.5,1.4
						c-0.1,0-0.1,0.1-0.2,0.1c-0.1,0-0.1,0.1-0.1,0.1c-0.1,0.1-0.1,0.2-0.2,0.3c0,0.1-0.1,0.2-0.1,0.2c0,0.1,0,0.1,0,0.2v7.9
						c0,0,0,0.1,0,0.1c0,0,0,0.1,0,0.1c0,0,0,0.1,0.1,0.1c0,0,0.1,0.1,0.1,0.1c0,0,0.1,0.1,0.1,0.1c0,0,0.1,0,0.1,0
						c0.1,0,0.1,0,0.2,0c0.1,0,0.1,0,0.2,0c0.1,0,0.1,0,0.2-0.1l0.9-0.5c0,0,0.1,0,0.1-0.1c0,0,0.1-0.1,0.1-0.1c0,0,0.1-0.1,0.1-0.1
						c0,0,0-0.1,0-0.1c0-0.1,0-0.1,0-0.2c0-0.1,0-0.1,0-0.1c0-0.1,0-0.1-0.1-0.1c0,0-0.1-0.1-0.1-0.1c0,0-0.1-0.1-0.2-0.1L10.8,34.3
						z"/>
				</defs>
				<clipPath id="SVGID_00000153668172776901222050000014206394808674486180_">
					<use xlink:href="#SVGID_00000168107461857978619380000000402136316461407628_"  style="overflow:visible;"/>
				</clipPath>
				
					<rect x="9.2" y="24.5" style="clip-path:url(#SVGID_00000153668172776901222050000014206394808674486180_);fill-rule:evenodd;clip-rule:evenodd;fill:#A6A8AB;" width="4.2" height="11.7"/>
			</g>
			<path class="st23" d="M10.8,34.3l-0.4,0.3l-0.2-0.1v0.5l0.3,0.2l-0.3,0.2v-7.6c0,0,0,0,0,0c0,0,0,0,0-0.1c0,0,0,0,0-0.1
				c0,0,0,0,0-0.1c0,0,0,0,0,0c0,0,0,0,0,0l2.8-1.6c0.1,0,0.1-0.1,0.2-0.1c0,0,0.1-0.1,0.1-0.1c0,0,0.1-0.1,0.1-0.1c0,0,0-0.1,0-0.2
				c0-0.1,0-0.1,0-0.2c0-0.1,0-0.1,0-0.1c0,0-0.1-0.1-0.1-0.1c0,0-0.1-0.1-0.1-0.1c0,0-0.1-0.1-0.1-0.1l-0.3-0.2
				c-0.1-0.1-0.3,0-0.4,0.2c-0.1,0.2-0.1,0.4,0,0.5l0,0l0,0l-2.5,1.4c-0.1,0-0.1,0.1-0.2,0.1c-0.1,0-0.1,0.1-0.1,0.1
				c-0.1,0.1-0.1,0.2-0.2,0.3c0,0.1-0.1,0.2-0.1,0.2c0,0.1,0,0.1,0,0.2v7.9c0,0,0,0.1,0,0.1c0,0,0,0.1,0,0.1c0,0,0,0.1,0.1,0.1
				c0,0,0.1,0.1,0.1,0.1c0,0,0.1,0.1,0.1,0.1c0,0,0.1,0,0.1,0c0.1,0,0.1,0,0.2,0c0.1,0,0.1,0,0.2,0c0.1,0,0.1,0,0.2-0.1l0.9-0.5
				c0,0,0.1,0,0.1-0.1c0,0,0.1-0.1,0.1-0.1c0,0,0.1-0.1,0.1-0.1c0,0,0-0.1,0-0.1c0-0.1,0-0.1,0-0.2c0-0.1,0-0.1,0-0.1
				c0-0.1,0-0.1-0.1-0.1c0,0-0.1-0.1-0.1-0.1c0,0-0.1-0.1-0.2-0.1L10.8,34.3"/>
			<line class="st23" x1="10.4" y1="35" x2="10.7" y2="34.9"/>
			<line class="st23" x1="10.1" y1="35.2" x2="10.1" y2="35.5"/>
			<line class="st23" x1="12.3" y1="25.2" x2="12.6" y2="25"/>
		</g>
	</g>
</g>
</svg>
