<?xml version="1.0" encoding="utf-8"?>
<!-- Generator: Adobe Illustrator 26.0.3, SVG Export Plug-In . SVG Version: 6.00 Build 0)  -->
<svg version="1.1" id="Layer_1" xmlns="http://www.w3.org/2000/svg" xmlns:xlink="http://www.w3.org/1999/xlink" x="0px" y="0px"
	 viewBox="0 0 109 18.4" style="enable-background:new 0 0 109 18.4;" xml:space="preserve">
<style type="text/css">
	.st0{fill-rule:evenodd;clip-rule:evenodd;fill:#D8D8D7;}
	.st1{fill:#2769B0;stroke:#749CD1;stroke-width:0.2902;stroke-miterlimit:10;}
	.st2{fill-rule:evenodd;clip-rule:evenodd;fill:#2769B0;stroke:#749CD1;stroke-width:0.2902;stroke-miterlimit:10;}
	.st3{fill-rule:evenodd;clip-rule:evenodd;fill:#2769B0;stroke:#749CD1;stroke-width:0.3651;stroke-miterlimit:10;}
	.st4{fill-rule:evenodd;clip-rule:evenodd;fill:#2769B0;stroke:#749CD1;stroke-width:0.2767;stroke-miterlimit:10;}
	.st5{fill-rule:evenodd;clip-rule:evenodd;fill:#2769B0;stroke:#749CD1;stroke-width:0.25;stroke-miterlimit:10;}
</style>
<g>
	<path class="st0" d="M75,6.6c0,0.8,0.2,1.8,0.5,2.7c0.1,0.3,0.3,0.6,0.4,0.9c1.3,2.4,1.4,3.9,0.3,3.9H109V4.4H76.3
		C75.4,4.4,75,5.4,75,6.6z"/>
	<polyline class="st1" points="77.9,3.1 106,3.1 106,15.4 77.9,15.4 	"/>
	<polyline class="st1" points="60.6,3.1 88.6,3.1 88.6,15.4 60.6,15.4 	"/>
	<g>
		<path class="st2" d="M0.9,9.1c-0.5,0.7-0.8,1.5-0.8,2.1c0,1,0.6,1.7,1.8,1.7c1.5,0,1.4-1.2-0.4-3.1C1.3,9.5,1.1,9.3,0.9,9.1z
			 M0.1,7c0,0.6,0.3,1.4,0.8,2.1c0.2,0.2,0.4,0.5,0.6,0.7c1.9,1.9,2,3.1,0.4,3.1h36.7V5.3H1.9C0.7,5.3,0.1,6,0.1,7z M38.7,3.8v10.5
			l18.7,1V2.8L38.7,3.8z"/>
		<path class="st1" d="M0.9,9.1c-0.5,0.7-0.8,1.5-0.8,2.1c0,1,0.6,1.7,1.8,1.7c1.5,0,1.4-1.2-0.4-3.1C1.3,9.5,1.1,9.3,0.9,9.1z
			 M0.1,7c0,0.6,0.3,1.4,0.8,2.1c0.2,0.2,0.4,0.5,0.6,0.7c1.9,1.9,2,3.1,0.4,3.1h36.7V5.3H1.9C0.7,5.3,0.1,6,0.1,7z M38.7,3.8v10.5
			l18.7,1V2.8L38.7,3.8z"/>
	</g>
	<path class="st3" d="M58.2,6.8c0,0.7,0.2,1.5,0.5,2.3c0.1,0.3,0.3,0.5,0.4,0.8c1.3,2.1,1.4,3.4,0.3,3.4h32.7V4.9H59.5
		C58.7,4.9,58.2,5.7,58.2,6.8z"/>
	<g>
		<path class="st4" d="M95.6,18.3H79.9c-1.1,0-2-0.9-2-2V2.1c0-1.1,0.9-2,2-2h15.7c1.1,0,2,0.9,2,2v14.1
			C97.6,17.4,96.7,18.3,95.6,18.3z"/>
		<line class="st3" x1="97.5" y1="16.7" x2="77.8" y2="16.7"/>
		<line class="st3" x1="78.1" y1="1.6" x2="97.5" y2="1.6"/>
		<line class="st5" x1="97.6" y1="7.8" x2="105.9" y2="7.8"/>
		<line class="st5" x1="97.6" y1="10.2" x2="105.9" y2="10.2"/>
	</g>
	<g>
		<path class="st4" d="M69.8,18.3H58.1c-1.1,0-2-0.9-2-2V2.1c0-1.1,0.9-2,2-2h11.7c1.1,0,2,0.9,2,2v14.1
			C71.8,17.4,70.9,18.3,69.8,18.3z"/>
		<line class="st3" x1="71.7" y1="16.7" x2="56" y2="16.7"/>
		<line class="st3" x1="56.3" y1="1.6" x2="71.7" y2="1.6"/>
	</g>
</g>
</svg>
