<?xml version="1.0" encoding="utf-8"?>
<!-- Generator: Adobe Illustrator 21.1.0, SVG Export Plug-In . SVG Version: 6.00 Build 0)  -->
<svg version="1.1" id="Layer_1" xmlns="http://www.w3.org/2000/svg" xmlns:xlink="http://www.w3.org/1999/xlink" x="0px" y="0px"
	 width="79.4px" height="14.4px" viewBox="0 0 79.4 14.4" style="enable-background:new 0 0 79.4 14.4;" xml:space="preserve">
<style type="text/css">
	.st0{clip-path:url(#SVGID_2_);fill-rule:evenodd;clip-rule:evenodd;fill:#BFBFBF;}
	
		.st1{clip-path:url(#SVGID_2_);fill:none;stroke:#999999;stroke-width:9.179601e-03;stroke-linecap:round;stroke-linejoin:round;stroke-miterlimit:10;}
	.st2{clip-path:url(#SVGID_2_);fill-rule:evenodd;clip-rule:evenodd;fill:#2968B2;}
	
		.st3{clip-path:url(#SVGID_2_);fill:none;stroke:#759ED3;stroke-width:9.179601e-03;stroke-linecap:round;stroke-linejoin:round;stroke-miterlimit:10;}
</style>
<g>
	<defs>
		<rect id="SVGID_1_" width="79.4" height="14.4"/>
	</defs>
	<clipPath id="SVGID_2_">
		<use xlink:href="#SVGID_1_"  style="overflow:visible;"/>
	</clipPath>
	<path class="st0" d="M79,4.5v-1l-0.2-0.2h-1.9v1.5h1.9L79,4.5z M79,10.6v-1l-0.2-0.2h-1.9v1.5h1.9L79,10.6z"/>
	<path class="st1" d="M79,4.5v-1l-0.2-0.2h-1.9v1.5h1.9L79,4.5z M79,10.6v-1l-0.2-0.2h-1.9v1.5h1.9L79,10.6z"/>
	<path class="st2" d="M0.8,10.8c0,0.3,0.2,0.6,0.6,0.6c0.5,0,0.5-0.4-0.2-1.1c-0.1-0.1-0.1-0.2-0.2-0.2C0.9,10.4,0.8,10.6,0.8,10.8z
		 M1.3,10.3C1.9,11,2,11.4,1.4,11.4h18.1V8.8H1.4C1,8.8,0.8,9,0.8,9.4c0,0.2,0.1,0.5,0.3,0.7C1.1,10.2,1.2,10.3,1.3,10.3z M0.8,4.7
		c0,0.3,0.2,0.6,0.6,0.6c0.5,0,0.5-0.4-0.2-1.1C1.2,4.2,1.1,4.1,1.1,4C0.9,4.2,0.8,4.5,0.8,4.7z M1.3,4.2C1.9,4.9,2,5.3,1.4,5.3
		h18.1V2.6H1.4C1,2.6,0.8,2.9,0.8,3.2c0,0.2,0.1,0.5,0.3,0.7C1.1,4.1,1.2,4.2,1.3,4.2z M53.3,1.1L19.5,1.8v4.4l33.8,0.7V1.1z
		 M53.3,7.2L19.5,7.9v4.4L53.3,13V7.2z M62.5,12.7h14.4V7.5H62.5V12.7z M60.2,11.3v1.4h2.3V7.5h-0.8v3.8H60.2z M61.6,2.8h-8.3v8.6
		h8.3V2.8z M62.5,6.6h14.4V1.4H62.5V6.6z M61.6,6.6h0.8V1.4h-2.3v1.4h1.4V6.6z M60.2,2.8V0.5h-6.9v2.3H60.2z M60.2,13.6v-2.3h-6.9
		v2.3H60.2z"/>
	<path class="st3" d="M0.8,10.8c0,0.3,0.2,0.6,0.6,0.6c0.5,0,0.5-0.4-0.2-1.1c-0.1-0.1-0.1-0.2-0.2-0.2C0.9,10.4,0.8,10.6,0.8,10.8z
		 M1.3,10.3C1.9,11,2,11.4,1.4,11.4h18.1V8.8H1.4C1,8.8,0.8,9,0.8,9.4c0,0.2,0.1,0.5,0.3,0.7C1.1,10.2,1.2,10.3,1.3,10.3z M0.8,4.7
		c0,0.3,0.2,0.6,0.6,0.6c0.5,0,0.5-0.4-0.2-1.1C1.2,4.2,1.1,4.1,1.1,4C0.9,4.2,0.8,4.5,0.8,4.7z M1.3,4.2C1.9,4.9,2,5.3,1.4,5.3
		h18.1V2.6H1.4C1,2.6,0.8,2.9,0.8,3.2c0,0.2,0.1,0.5,0.3,0.7C1.1,4.1,1.2,4.2,1.3,4.2z M53.3,1.1L19.5,1.8v4.4l33.8,0.7V1.1z
		 M53.3,7.2L19.5,7.9v4.4L53.3,13V7.2z M62.5,12.7h14.4V7.5H62.5V12.7z M60.2,11.3v1.4h2.3V7.5h-0.8v3.8H60.2z M61.6,2.8h-8.3v8.6
		h8.3V2.8z M62.5,6.6h14.4V1.4H62.5V6.6z M61.6,6.6h0.8V1.4h-2.3v1.4h1.4V6.6z M60.2,2.8V0.5h-6.9v2.3H60.2z M60.2,13.6v-2.3h-6.9
		v2.3H60.2z"/>
	<path class="st2" d="M75.2,2.1H67v0.6h-5.3v2.4H67v0.6h8.2V2.1z M75.2,8.2H67v0.6h-5.3v2.4H67V12h8.2V8.2z"/>
	<path class="st3" d="M75.2,2.1H67v0.6h-5.3v2.4H67v0.6h8.2V2.1z M75.2,8.2H67v0.6h-5.3v2.4H67V12h8.2V8.2z"/>
	<path class="st3" d="M67,11.3h2.3 M67,8.9h2.3 M67,5.2h2.3 M67,2.8h2.3"/>
</g>
</svg>
