<?xml version="1.0" encoding="utf-8"?>
<!-- Generator: Adobe Illustrator 26.0.3, SVG Export Plug-In . SVG Version: 6.00 Build 0)  -->
<svg version="1.1" id="Layer_1" xmlns="http://www.w3.org/2000/svg" xmlns:xlink="http://www.w3.org/1999/xlink" x="0px" y="0px"
	 viewBox="0 0 60.8 14.6" style="enable-background:new 0 0 60.8 14.6;" xml:space="preserve">
<style type="text/css">
	.st0{fill-rule:evenodd;clip-rule:evenodd;fill:#2968B2;stroke:#E6E7E8;stroke-width:0.1955;stroke-miterlimit:10;}
	.st1{fill:none;stroke:#759ED3;stroke-width:8.808097e-03;stroke-linecap:round;stroke-linejoin:round;stroke-miterlimit:10;}
	.st2{fill-rule:evenodd;clip-rule:evenodd;fill:#4174BA;}
</style>
<g>
	<g>
		<path class="st0" d="M0.6,7.3C0.3,7.7,0.1,8.2,0.1,8.6c0,0.6,0.4,1.1,1.1,1.1c1,0,0.9-0.8-0.3-2C0.8,7.6,0.7,7.4,0.6,7.3z M0.1,6
			c0,0.4,0.2,0.9,0.5,1.3C0.7,7.4,0.8,7.6,1,7.7c1.2,1.2,1.2,2,0.3,2h23.6V4.9H1.2C0.5,4.9,0.1,5.4,0.1,6z M24.8,4v6.7l11.8,0.6V3.3
			L24.8,4z M37.8,1.4v11.9h1V1.4H37.8z M36.7,3.3v7.9l1.1,2V1.4L36.7,3.3z M40.2,2.2c-0.8,0-1.4-0.6-1.5-0.8v11.9
			c0.1-0.3,0.7-0.8,1.5-0.8c2.4,0,5,2.1,10,2.1V0.1C45.2,0.1,42.7,2.2,40.2,2.2z M50.2,10.6v3.2h10.5v-3.2H50.2z M50.2,10.6h10.5V4
			H50.2V10.6z M50.2,4h10.5V0.8H50.2V4z"/>
		<path class="st1" d="M0.6,7.3C0.3,7.7,0.1,8.2,0.1,8.6c0,0.6,0.4,1.1,1.1,1.1c1,0,0.9-0.8-0.3-2C0.8,7.6,0.7,7.4,0.6,7.3z M0.1,6
			c0,0.4,0.2,0.9,0.5,1.3C0.7,7.4,0.8,7.6,1,7.7c1.2,1.2,1.2,2,0.3,2h23.6V4.9H1.2C0.5,4.9,0.1,5.4,0.1,6z M24.8,4v6.7l11.8,0.6V3.3
			L24.8,4z M37.8,1.4v11.9h1V1.4H37.8z M36.7,3.3v7.9l1.1,2V1.4L36.7,3.3z M40.2,2.2c-0.8,0-1.4-0.6-1.5-0.8v11.9
			c0.1-0.3,0.7-0.8,1.5-0.8c2.4,0,5,2.1,10,2.1V0.1C45.2,0.1,42.7,2.2,40.2,2.2z M50.2,10.6v3.2h10.5v-3.2H50.2z M50.2,10.6h10.5V4
			H50.2V10.6z M50.2,4h10.5V0.8H50.2V4z"/>
		<path class="st2" d="M26.4,3.9v4c0,0.3,0.2,0.5,0.5,0.5l0,0c0.3,0,0.5-0.2,0.5-0.5l0,0V3.8L26.4,3.9z M30.5,3.7v4.3
			c0,0.3,0.2,0.5,0.5,0.5l0,0c0.3,0,0.5-0.2,0.5-0.5V3.6L30.5,3.7z M34.6,3.5v4.5c0,0.3,0.2,0.5,0.5,0.5l0,0c0.3,0,0.5-0.2,0.5-0.5
			l0,0V3.4L34.6,3.5z M33.6,11.1V6.7c0-0.3-0.2-0.5-0.5-0.5s-0.5,0.2-0.5,0.5V11L33.6,11.1z M29.5,10.9V6.7c0-0.3-0.2-0.5-0.5-0.5
			c-0.3,0-0.5,0.2-0.5,0.5v4.1L29.5,10.9z"/>
	</g>
</g>
</svg>
