<?xml version="1.0" encoding="utf-8"?>
<!-- Generator: Adobe Illustrator 22.1.0, SVG Export Plug-In . SVG Version: 6.00 Build 0)  -->
<svg version="1.1" id="Layer_1" xmlns="http://www.w3.org/2000/svg" xmlns:xlink="http://www.w3.org/1999/xlink" x="0px" y="0px"
	 width="149.9px" height="63px" viewBox="0 0 149.9 63" style="enable-background:new 0 0 149.9 63;" xml:space="preserve">
<style type="text/css">
	.st0{fill:#221F1F;}
	.st1{font-family:'Gotham-Book';}
	.st2{font-size:7.0932px;}
	.st3{fill:none;stroke:#00A6CE;stroke-width:1.1434;stroke-linecap:round;stroke-linejoin:round;}
	.st4{fill:#00A6CE;}
	.st5{clip-path:url(#SVGID_2_);}
	.st6{fill:none;stroke:#231F20;stroke-width:0.2311;stroke-miterlimit:10;}
	.st7{fill:#E6E7E8;stroke:#231F20;stroke-width:0.2311;stroke-miterlimit:10;}
	.st8{fill:#BBBDBF;stroke:#231F20;stroke-width:0.2311;stroke-miterlimit:10;}
	.st9{fill:#F1F1F2;stroke:#231F20;stroke-width:0.2311;stroke-miterlimit:10;}
	.st10{fill:#FFFFFF;stroke:#231F20;stroke-width:0.2311;stroke-miterlimit:10;}
	.st11{fill:#A6A8AB;stroke:#231F20;stroke-width:0.2311;stroke-miterlimit:10;}
	.st12{fill:#58595B;stroke:#231F20;stroke-width:0.2311;stroke-miterlimit:10;}
	.st13{fill:#25A9E0;stroke:#231F20;stroke-width:0.3998;stroke-miterlimit:10;}
	.st14{fill:#6BCDB2;stroke:#FFFFFF;stroke-width:1.2359;stroke-miterlimit:10;}
	.st15{fill:#FFFFFF;}
	.st16{fill:none;stroke:#FFFFFF;stroke-width:0.5493;stroke-linecap:round;stroke-linejoin:round;stroke-miterlimit:10;}
</style>
<g>
	<g>
		<text transform="matrix(1 0 0 1 17.0997 31.503)" class="st0 st1 st2">Pull-tab</text>
	</g>
	<g>
		<g>
			<line class="st3" x1="43.2" y1="40.7" x2="30.5" y2="34.7"/>
			<g>
				<polygon class="st4" points="46.8,42.4 42.7,37.9 42.9,40.5 40.7,42.1 				"/>
			</g>
		</g>
	</g>
</g>
<g>
	<g>
		<g>
			<defs>
				<path id="SVGID_1_" d="M147.2,35.2c0,14.2-32.2,25.8-72,25.8c-39.8,0-72-11.6-72-25.8c0-14.2,32.2-25.8,72-25.8
					C115,9.4,147.2,21,147.2,35.2z"/>
			</defs>
			<clipPath id="SVGID_2_">
				<use xlink:href="#SVGID_1_"  style="overflow:visible;"/>
			</clipPath>
			<g class="st5">
				<g>
					<polyline class="st6" points="144,55.2 74.2,36 73.6,-7.7 					"/>
					<line class="st6" x1="144" y1="52.2" x2="74.3" y2="32.5"/>
					<polygon class="st7" points="66.9,39.6 143.7,61 144,55.2 72.6,35.5 					"/>
					<line class="st6" x1="144.2" y1="64.3" x2="64.2" y2="41.9"/>
					<polyline class="st6" points="144,46.8 136.2,44.6 136.2,37 144,39.3 					"/>
					<line class="st6" x1="138.3" y1="36.2" x2="136.2" y2="37"/>
					<path class="st8" d="M144.2,46.9l-7.5-2.1v-9.1l7.3,2.1 M144,31.9L81.6,14.3l0.3,19.3L144,51.2 M135,44.5L83.6,30.1v-8.9
						l51.2,14.6L135,44.5z"/>
					<polygon class="st6" points="134.2,36.2 84.1,21.9 84.1,29.7 122.1,40.2 134.5,43.7 					"/>
					<line class="st6" x1="121.8" y1="32.7" x2="121.8" y2="40.2"/>
					<line class="st6" x1="109.3" y1="36.7" x2="109.3" y2="29.2"/>
					<line class="st6" x1="96.7" y1="25.5" x2="96.7" y2="33.2"/>
					<line class="st6" x1="84.1" y1="29.5" x2="94.6" y2="24.9"/>
					<line class="st6" x1="87" y1="28.2" x2="87" y2="22.8"/>
					<line class="st6" x1="87" y1="28.2" x2="96.7" y2="30.9"/>
					<line class="st6" x1="109.2" y1="36.4" x2="119.5" y2="32"/>
					<line class="st6" x1="121.8" y1="40.2" x2="131.9" y2="35.5"/>
					<line class="st6" x1="112.1" y1="29.9" x2="112.2" y2="35.1"/>
					<line class="st6" x1="112.2" y1="35.1" x2="121.8" y2="37.8"/>
					<line class="st6" x1="124.6" y1="33.4" x2="124.6" y2="38.9"/>
					<line class="st6" x1="124.6" y1="38.9" x2="134.4" y2="41.5"/>
					<line class="st6" x1="136.2" y1="44.6" x2="144" y2="41.1"/>
					<path class="st9" d="M140.2,32.9c0.1,0.4-0.1,0.9-0.5,0.9c-0.4,0.1-0.7-0.2-0.8-0.6c-0.1-0.4,0.1-0.8,0.5-0.9
						C139.8,32.2,140.1,32.4,140.2,32.9z"/>
					<path class="st9" d="M128.6,29.6c0.1,0.4-0.1,0.8-0.5,0.9c-0.4,0.1-0.7-0.2-0.8-0.6c-0.1-0.4,0.1-0.8,0.5-0.9
						C128.1,28.9,128.5,29.2,128.6,29.6z"/>
					<path class="st9" d="M116,26.1c0.1,0.4-0.1,0.8-0.5,0.9c-0.4,0.1-0.7-0.2-0.8-0.6c-0.1-0.4,0.1-0.8,0.5-0.9
						C115.5,25.4,115.9,25.7,116,26.1z"/>
					<path class="st9" d="M103.5,22.6c0.1,0.4-0.1,0.9-0.5,0.9c-0.4,0.1-0.7-0.2-0.8-0.6c-0.1-0.4,0.1-0.8,0.5-0.9
						C103,21.9,103.4,22.1,103.5,22.6z"/>
					<path class="st9" d="M90.9,19c0.1,0.4-0.1,0.9-0.5,0.9c-0.4,0.1-0.7-0.2-0.8-0.6c-0.1-0.4,0.1-0.8,0.5-0.9
						C90.5,18.3,90.8,18.6,90.9,19z"/>
					<path class="st6" d="M103.6,11.4c0.6,1.2,0.4,2.5-0.4,2.9c-0.8,0.4-2-0.3-2.5-1.5c-0.6-1.2-0.4-2.5,0.4-2.9
						C101.9,9.5,103,10.2,103.6,11.4z"/>
					<path class="st6" d="M135.5,20.3c0.6,1.2,0.3,2.6-0.6,3c-0.9,0.4-2.1-0.2-2.7-1.4c-0.6-1.2-0.3-2.6,0.6-3
						C133.7,18.4,134.9,19.1,135.5,20.3z"/>
					<path class="st9" d="M144.9,34.2c0.1,0.4-0.1,0.9-0.5,0.9c-0.4,0.1-0.7-0.2-0.8-0.6c-0.1-0.4,0.1-0.9,0.5-0.9
						C144.4,33.5,144.8,33.8,144.9,34.2z"/>
					<path class="st10" d="M121.4,51c0,0.5-1,1-2.3,1.1c-1.3,0.1-2.4-0.2-2.4-0.7c0-0.5,1-1,2.3-1.1C120.3,50.2,121.4,50.5,121.4,51
						z"/>
					<path class="st7" d="M65.8,38.9l-2.3,1.3l-1.4-1.5c0.3-0.6,3.2-17.5,3.2-18.2c0-0.7-0.8-28.2-0.8-28.2l5.3,0.3"/>
					<path class="st6" d="M63-7.7c0,0-0.7-0.2-0.9,0.9c-0.2,1.1,0.4,1.4,0.4,1.4L63,11.8c0,0-0.3,0.6-0.3,1.1c0,0.5,0.3,0.8,0.3,1
						c0,0.2,0.5,17.4,0.5,17.4"/>
					<path class="st6" d="M62.2-7.7c0,0-0.7-0.2-0.9,0.9c-0.2,1.1,0.4,1.4,0.4,1.4l0.4,17.2c0,0-0.3,0.6-0.3,1.1
						c0,0.5,0.3,0.8,0.3,1c0,0.2,0.6,20.9,0.6,20.9"/>
					<line class="st6" x1="63" y1="12" x2="65.2" y2="11.1"/>
					<line class="st6" x1="62.4" y1="-5.3" x2="64.6" y2="-6.2"/>
					<line class="st6" x1="63" y1="13.9" x2="65.1" y2="13"/>
					<path class="st6" d="M65.2,19.5c0,0-0.7-0.2-1.2-0.4c-0.5-0.1-0.9,0.2-0.9,0.7c0,0.4,0.2,10.3,0.2,10.3"/>
					<path class="st6" d="M65.2,20.4c0,0-0.4-0.2-0.8-0.3c-0.3-0.1-0.6,0.2-0.6,0.5c0,0.3,0.2,7.6,0.2,7.6"/>
					<line class="st6" x1="63.5" y1="19.1" x2="65.2" y2="18.5"/>
					<polygon class="st6" points="124.1,21.6 123.2,22 123.2,23.6 124.2,24.5 125.3,24.1 125.3,22.7 					"/>
					<polygon class="st6" points="126.9,22.4 126,22.9 126,24.4 127,25.3 128.1,24.9 128.1,23.5 					"/>
					<polygon class="st6" points="129.7,23.2 128.8,23.6 128.8,25.2 129.8,26.1 130.8,25.7 130.8,24.3 					"/>
					<polygon class="st6" points="138.2,25.5 137.3,25.9 137.3,27.5 138.3,28.4 139.3,28 139.3,26.6 					"/>
					<polygon class="st6" points="141,26.3 140.1,26.8 140.1,28.4 141.1,29.2 142.1,28.9 142.1,27.4 					"/>
					<polygon class="st6" points="139.4,23.1 138.5,23.5 138.5,25.1 139.5,26 140.6,25.6 140.6,24.2 					"/>
					<polygon class="st6" points="142.2,23.9 141.3,24.3 141.3,25.9 142.4,26.8 143.4,26.4 143.4,25 					"/>
					<polygon class="st6" points="143.8,27.1 142.9,27.5 142.9,29.1 143.9,30 144.9,29.6 144.9,28.2 					"/>
					<polygon class="st6" points="115.7,19.3 114.8,19.7 114.8,21.3 115.8,22.2 116.9,21.8 116.9,20.4 					"/>
					<polygon class="st6" points="118.5,20.1 117.7,20.5 117.7,22.1 118.7,23 119.7,22.6 119.7,21.2 					"/>
					<polygon class="st6" points="121.3,20.8 120.4,21.3 120.4,22.9 121.4,23.8 122.4,23.4 122.4,22 					"/>
					<polygon class="st6" points="107.5,16.7 106.6,17.2 106.6,18.8 107.6,19.6 108.6,19.3 108.6,17.8 					"/>
					<polygon class="st6" points="104.7,16.1 103.8,16.5 103.8,18.1 104.8,19 105.8,18.6 105.8,17.2 					"/>
					<polygon class="st6" points="110.3,17.6 109.4,18 109.4,19.6 110.4,20.5 111.5,20.1 111.5,18.7 					"/>
					<polygon class="st6" points="113.1,18.3 112.2,18.8 112.2,20.4 113.2,21.2 114.2,20.8 114.2,19.4 					"/>
					<polygon class="st6" points="122.7,18.4 121.8,18.8 121.8,20.4 122.8,21.3 123.8,20.9 123.8,19.5 					"/>
					<polygon class="st6" points="125.5,19.2 124.6,19.7 124.6,21.3 125.6,22.1 126.6,21.8 126.6,20.3 					"/>
					<polygon class="st6" points="128.2,20 127.3,20.4 127.3,22 128.4,22.9 129.4,22.5 129.4,21.1 					"/>
					<polygon class="st6" points="114.3,16.1 113.4,16.5 113.4,18.1 114.4,19 115.4,18.6 115.4,17.2 					"/>
					<polygon class="st6" points="117.1,16.9 116.2,17.4 116.2,18.9 117.2,19.8 118.2,19.4 118.2,18 					"/>
					<polygon class="st6" points="119.9,17.7 119,18.1 119,19.7 120,20.6 121,20.2 121,18.8 					"/>
					<polygon class="st6" points="111.6,15.1 110.7,15.6 110.7,17.2 111.7,18 112.8,17.7 112.8,16.2 					"/>
					<polygon class="st6" points="108.8,14.3 107.9,14.8 107.9,16.4 108.9,17.2 109.9,16.8 109.9,15.4 					"/>
					<polygon class="st6" points="99.1,14.6 98.3,15 98.3,16.6 99.3,17.5 100.3,17.1 100.3,15.7 					"/>
					<polygon class="st6" points="90.9,12 90,12.5 90,14.1 91,14.9 92.1,14.6 92.1,13.1 					"/>
					<polygon class="st6" points="88.1,11.4 87.2,11.8 87.2,13.4 88.2,14.3 89.3,13.9 89.3,12.5 					"/>
					<polygon class="st6" points="93.7,12.8 92.8,13.3 92.8,14.9 93.9,15.8 94.9,15.4 94.9,14 					"/>
					<polygon class="st6" points="94.9,10.4 94,10.9 94,12.5 95,13.3 96,13 96,11.5 					"/>
					<polygon class="st6" points="92.1,9.8 91.2,10.2 91.2,11.8 92.2,12.7 93.2,12.3 93.2,10.9 					"/>
					<polygon class="st6" points="97.7,11.2 96.8,11.7 96.8,13.3 97.8,14.1 98.8,13.8 98.8,12.4 					"/>
					<polygon class="st6" points="96.5,13.6 95.6,14 95.6,15.6 96.6,16.5 97.6,16.1 97.6,14.7 					"/>
					<path class="st7" d="M65.8-7.7c0,0,0.8,27.5,0.8,28.2c0,0.7-3.3,17.8-3.6,18.4l11.3-0.6L73.6-9.3"/>
				</g>
				<g>
					<polygon class="st11" points="97.7,25.7 76.2,35 72.4,33.9 70,35 70,35.3 67.6,36.4 66.9,36.2 63.2,38 63.2,47.1 75.4,50.7 
						109.4,36.3 109.4,28.9 					"/>
					<line class="st11" x1="76.2" y1="35" x2="84.7" y2="37.4"/>
					<line class="st11" x1="84.8" y1="40.2" x2="109.4" y2="29.2"/>
					<line class="st11" x1="63.2" y1="38" x2="74.9" y2="41.3"/>
					<polyline class="st11" points="75.2,50.6 75.1,47.1 73.5,47.8 73.5,45.8 75.1,45.3 74.9,41.4 78.9,39.8 78.9,40.2 82,38.8 
						82,38.3 84.7,37.4 84.8,40.2 					"/>
					<path class="st11" d="M70.2,35.1c0,0,1.7,0.5,1.9,0.7c0.4,0.3,0.3,0.7-0.7,1.1c-0.5,0.2-1.7,0.2-2.4,0
						c-0.6-0.2-1.3-0.4-1.3-0.4"/>
					<path class="st11" d="M78.9,39.8c0,0-0.6-0.2-0.9-0.3c-0.1,0-1.1-0.3-1.3-0.6c-0.2-0.3,0-0.6,0.5-0.8c0.3-0.1,1-0.3,1.7-0.3
						c0.6,0,0.9,0.1,1.6,0.2c0.6,0.1,1.5,0.3,1.5,0.3"/>
					<path class="st11" d="M71.6,36.5c0,0.3-0.7,0.5-1.5,0.4c-0.8,0-1.4-0.3-1.4-0.6c0-0.3,0.7-0.5,1.5-0.4
						C71,36,71.6,36.2,71.6,36.5z"/>
					<path class="st11" d="M70,35.3c0,0,1.3,0.4,1.4,0.5c0.2,0.1,0.7,0.2,0.8,0.6"/>
					<path class="st11" d="M82,38.8c0,0-3.5-1.4-4.7-0.3"/>
					<path class="st11" d="M80.1,38.9c0,0.3-0.7,0.5-1.5,0.4c-0.8,0-1.4-0.3-1.4-0.6c0-0.3,0.7-0.5,1.5-0.4
						C79.4,38.3,80.1,38.6,80.1,38.9z"/>
				</g>
				<g>
					<path class="st12" d="M54.9,55.7l16.7-6.4c0,0-0.1,0,0,0c1.5-0.9,1.9-3.5,0.8-6c-1.1-2.6-3.3-4.2-5-3.6L51.6,47"/>
					<path class="st12" d="M56.5,50c0.9,2.2,0.5,4.6-0.8,5.4c-0.1,0.1-0.2,0.1-0.3,0.1c-1.6,0.7-3.7-0.7-4.7-3.1
						c-0.9-2.1-0.6-4.2,0.6-5.2c0.2-0.1,0.4-0.2,0.6-0.3C53.4,46.2,55.6,47.6,56.5,50z"/>
					<path class="st12" d="M58.5,43.8c0.1,0,0.2-0.1,0.2-0.1c1.6-0.7,3.8,0.8,4.8,3.3c1,2.4,0.6,4.9-0.9,5.7c0,0-0.1,0-0.1,0.1"/>
					<path class="st12" d="M61.8,42.3c0.1,0,0.1-0.1,0.2-0.1c1.7-0.8,4,0.7,5.1,3.2c1.1,2.4,0.7,4.8-0.7,5.7
						c-0.1,0.1-0.2,0.1-0.3,0.1"/>
					<path class="st12" d="M38,62.3c0,0,17.1-7.5,17.2-7.5c1.3-0.8,1.6-2.8,0.8-4.8c-0.9-2.1-2.8-3.3-4.2-2.7c0,0-16.9,7.3-16.9,7.3
						"/>
					<path class="st12" d="M39.1,57.4c0.8,2,0.4,4-0.8,4.8c-0.1,0.1-0.2,0.1-0.3,0.1c-1.5,0.6-3.4-0.6-4.2-2.7
						c-0.8-1.8-0.5-3.8,0.6-4.6c0.2-0.1,0.3-0.2,0.5-0.3C36.3,54.1,38.2,55.3,39.1,57.4z"/>
				</g>
				<path class="st13" d="M57.5,40.3c0.2-0.1,4.1-1.8,4.1-1.8c0.1,0,12,3.4,12,3.6c0.1,0.1,0.2,6.5,0.2,6.6c0,0.1-3.1,1.5-3.1,1.5
					c0,0-1.3-0.3-1.6-0.5c-0.3-0.2,0.2-5.4,0.1-5.3c-0.2,0.1-6.1,0.3-6.3,0.3s-1.4,0.5-1.5,0.6c-0.1,0.1,0.5,0.8,0.5,1.5
					c0.1,0.7,0.3,2.8-1.4,4.4c-1.7,1.6-2.5,1.6-4.2,1c-1.7-0.6-2.6-1.2-3.7-1.5c-1-0.3-1.4-0.4-2.5-0.5c-1-0.1-1.8-0.4-2.2-0.5
					c-0.4-0.1-1.6-0.4-1.9-0.5c-0.3-0.1-1.2-0.7-1.2-1.1c0-0.4,0.4-0.9,0.8-0.9c0.4,0,1,0.2,1.4,0.5c0.4,0.2,0.6,0.5,1.5-0.2
					c0.8-0.7,3.1-3,4.8-3.6c1.7-0.5,2.9-0.4,3.4-0.3c0.5,0.1,1.3-0.4,1.3-0.5c0.1-0.2-0.1-0.9-0.3-1.3
					C57.4,41.1,57.3,40.4,57.5,40.3z M50.3,48.6c1,0.1,1.5-0.3,5,1.5c3.5,1.8,4.2-0.1,4.7-1c0.4-0.7,0.5-1.6,0.4-2.4
					c-0.2-0.8-1.7-2-3.2-2.1c-0.6,0-0.9,0.2-2.3,0.2c-1.2,0-2.7,1.3-3.1,1.6c-0.4,0.4-1.1,1.1-1.8,1.5
					C50.1,47.8,49.1,48.5,50.3,48.6z"/>
			</g>
			<use xlink:href="#SVGID_1_"  style="overflow:visible;fill:none;stroke:#6BCDB2;stroke-width:2.1971;stroke-miterlimit:10;"/>
		</g>
	</g>
	<g>
		<g>
			<g>
				<g>
					<polygon class="st14" points="33,18.4 27.7,13.1 27.7,5.7 33,0.4 40.5,0.4 45.8,5.7 45.8,13.1 40.5,18.4 					"/>
				</g>
				<polygon class="st15" points="41.9,13.2 36.7,6.2 31.5,13.2 				"/>
			</g>
			<rect x="34.4" y="12.9" class="st15" width="4.5" height="2.7"/>
		</g>
		<line class="st16" x1="36.7" y1="2.5" x2="36.7" y2="5.3"/>
		<line class="st16" x1="33" y1="4" x2="35" y2="6"/>
		<line class="st16" x1="40.5" y1="4" x2="38.5" y2="6"/>
		<line class="st16" x1="38.7" y1="3.2" x2="38.1" y2="4.6"/>
		<line class="st16" x1="34.8" y1="3.2" x2="35.4" y2="4.6"/>
	</g>
</g>
</svg>
