<?xml version="1.0" encoding="utf-8"?>
<!-- Generator: Adobe Illustrator 26.0.3, SVG Export Plug-In . SVG Version: 6.00 Build 0)  -->
<svg version="1.1" id="Layer_1" xmlns="http://www.w3.org/2000/svg" xmlns:xlink="http://www.w3.org/1999/xlink" x="0px" y="0px"
	 viewBox="0 0 100.1 12.8" style="enable-background:new 0 0 100.1 12.8;" xml:space="preserve">
<style type="text/css">
	.st0{clip-path:url(#SVGID_00000029028341504598957810000004496966618496347573_);fill:none;stroke:#000000;stroke-miterlimit:10;}
	.st1{fill:#D9D9D9;}
	.st2{fill-rule:evenodd;clip-rule:evenodd;fill:#4174BA;}
	.st3{fill-rule:evenodd;clip-rule:evenodd;fill:#A6A6A6;}
	.st4{fill-rule:evenodd;clip-rule:evenodd;fill:#2968B2;}
	.st5{fill:none;stroke:#759ED3;stroke-width:1.231521e-02;stroke-linecap:round;stroke-linejoin:round;stroke-miterlimit:10;}
	.st6{fill:none;stroke:#999999;stroke-width:0.1166;stroke-linecap:round;stroke-linejoin:round;stroke-miterlimit:10;}
	.st7{opacity:0.5;fill:#D9D9D9;}
</style>
<g>
	<g>
		<g>
			<g>
				<defs>
					<polygon id="SVGID_1_" points="98.2,9.6 99.3,9.6 99.3,3.2 98.2,3.2 98.2,0.3 75.9,0.3 75.9,12.5 98.2,12.5 					"/>
				</defs>
				<clipPath id="SVGID_00000177465169593285109800000015627717927159370154_">
					<use xlink:href="#SVGID_1_"  style="overflow:visible;"/>
				</clipPath>
				
					<rect x="75.6" style="clip-path:url(#SVGID_00000177465169593285109800000015627717927159370154_);fill:none;stroke:#000000;stroke-miterlimit:10;" width="24" height="12.8"/>
			</g>
		</g>
	</g>
	<polygon class="st1" points="98.2,9.6 99.3,9.6 99.3,3.2 98.2,3.2 98.2,0.3 75.9,0.3 75.9,12.5 98.2,12.5 	"/>
	<path class="st2" d="M93.4,9.9V9.3h3.7V8.8h-3.7V8.3h3.7V7.7h-3.7V7.2h3.7V6.7h-3.7V6.1h3.7V5.6h-3.7V5.1h3.7V4.5h-3.7V4h3.7V3.5
		h-3.7V2.9h3.7V2.4h-3.7l-7.1,1.2c-0.6,0.1-1.2,0.2-1.9,0.2h-8.7V9h8.8c0.6,0,1.2,0.1,1.9,0.2l7.1,1.2h3.7V9.9H93.4z"/>
	<rect x="97.1" y="2.4" class="st3" width="1.1" height="0.5"/>
	<rect x="97.1" y="3.5" class="st3" width="1.1" height="0.5"/>
	<rect x="97.1" y="4.5" class="st3" width="1.1" height="0.5"/>
	<rect x="97.1" y="5.6" class="st3" width="1.1" height="0.5"/>
	<rect x="97.1" y="6.7" class="st3" width="1.1" height="0.5"/>
	<rect x="97.1" y="7.7" class="st3" width="1.1" height="0.5"/>
	<rect x="97.1" y="8.8" class="st3" width="1.1" height="0.5"/>
	<rect x="97.1" y="9.9" class="st3" width="1.1" height="0.5"/>
	<path class="st4" d="M1.9,6.4c-0.3,0.5-0.5,1-0.5,1.4C1.4,8.5,1.8,9,2.7,9c1.1,0,1-0.9-0.3-2.1C2.2,6.7,2.1,6.6,1.9,6.4z"/>
	<path class="st5" d="M1.9,6.4c-0.3,0.5-0.5,1-0.5,1.4C1.4,8.5,1.8,9,2.7,9c1.1,0,1-0.9-0.3-2.1C2.2,6.7,2.1,6.6,1.9,6.4z"/>
	<path class="st4" d="M1.4,4.9c0,0.4,0.2,1,0.5,1.5C2,6.6,2.2,6.7,2.3,6.9C3.7,8.2,3.7,9,2.7,9h73.2V3.8H2.7
		C1.8,3.8,1.4,4.3,1.4,4.9z"/>
	<path class="st5" d="M1.4,4.9c0,0.4,0.2,1,0.5,1.5C2,6.6,2.2,6.7,2.3,6.9C3.7,8.2,3.7,9,2.7,9h73.2V3.8H2.7
		C1.8,3.8,1.4,4.3,1.4,4.9z"/>
	<path class="st6" d="M97.1,0.3v12.2 M90.9,4.7V3.2h7.3 M90.9,8.1h1.8 M98.2,9.6h-7.3V8.1H81V4.7h11.7"/>
</g>
<polyline class="st7" points="98.2,9.6 90.9,9.6 90.9,8.1 81,8.1 81,4.7 90.9,4.7 90.9,4.7 90.9,3.2 98.2,3.2 "/>
<polyline class="st6" points="98.2,9.6 90.9,9.6 90.9,8.1 81,8.1 81,4.7 92.7,4.7 "/>
<polyline class="st6" points="90.9,4.7 90.9,3.2 98.2,3.2 "/>
<line class="st6" x1="90.8" y1="8" x2="92.6" y2="8"/>
</svg>
