<?xml version="1.0" encoding="utf-8"?>
<!-- Generator: Adobe Illustrator 26.0.3, SVG Export Plug-In . SVG Version: 6.00 Build 0)  -->
<svg version="1.1" id="Layer_1" xmlns="http://www.w3.org/2000/svg" xmlns:xlink="http://www.w3.org/1999/xlink" x="0px" y="0px"
	 viewBox="0 0 79.4 14.4" style="enable-background:new 0 0 79.4 14.4;" xml:space="preserve">
<style type="text/css">
	.st0{fill-rule:evenodd;clip-rule:evenodd;fill:#BFBFBF;}
	.st1{fill-rule:evenodd;clip-rule:evenodd;fill:#2968B2;}
</style>
<polygon class="st0" points="79,4.5 79,3.5 78.7,3.3 76.8,3.3 76.8,4.7 78.7,4.7 "/>
<polygon class="st0" points="79,10.6 79,9.6 78.7,9.4 76.8,9.4 76.8,10.8 78.7,10.8 "/>
<path class="st1" d="M76.8,6.6V1.4H60.2V0.5h-6.9v0.6L19.5,1.8v0.9H1.4c-0.3,0-0.6,0.2-0.6,0.5c0,0,0,0.1,0,0.1
	c0,0.3,0.1,0.5,0.3,0.7c0.1,0.1,0.1,0.2,0.2,0.2C1.9,4.9,2,5.3,1.4,5.3h18.1v0.9l33.8,0.7v0.3L19.5,7.9v0.9H1.4
	c-0.3,0-0.6,0.2-0.6,0.5c0,0,0,0.1,0,0.1c0,0.3,0.1,0.5,0.3,0.7c0.1,0.1,0.1,0.2,0.2,0.2C1.9,11,2,11.4,1.4,11.4h18.1v0.9L53.3,13
	v0.6h6.9v-0.9h16.6V7.5H61.6V6.6H76.8z"/>
</svg>
