<svg id="Layer_1" data-name="Layer 1" xmlns="http://www.w3.org/2000/svg" xmlns:xlink="http://www.w3.org/1999/xlink" viewBox="0 0 149.8913 62.959"><defs><style>.cls-1,.cls-16,.cls-3,.cls-6{fill:none;}.cls-1{stroke:#6bcdb2;stroke-width:2.1971px;}.cls-1,.cls-10,.cls-11,.cls-12,.cls-13,.cls-14,.cls-6,.cls-7,.cls-8,.cls-9{stroke-miterlimit:10;}.cls-2{fill:#221f1f;}.cls-3{stroke:#00a6ce;stroke-width:1.1434px;}.cls-16,.cls-3{stroke-linecap:round;stroke-linejoin:round;}.cls-4{fill:#00a6ce;}.cls-5{clip-path:url(#clip-path);}.cls-10,.cls-11,.cls-12,.cls-13,.cls-6,.cls-7,.cls-8,.cls-9{stroke:#231f20;}.cls-10,.cls-11,.cls-12,.cls-6,.cls-7,.cls-8,.cls-9{stroke-width:0.2311px;}.cls-7{fill:#e6e7e8;}.cls-8{fill:#bbbdbf;}.cls-9{fill:#f1f1f2;}.cls-10,.cls-15{fill:#fff;}.cls-11{fill:#a6a8ab;}.cls-12{fill:#58595b;}.cls-13{fill:#25a9e0;stroke-width:0.3998px;}.cls-14{fill:#6bcdb2;stroke-width:1.2359px;}.cls-14,.cls-16{stroke:#fff;}.cls-16{stroke-width:0.5493px;}</style><clipPath id="clip-path"><path class="cls-1" d="M147.2344,35.2146c0,14.2479-32.235,25.7987-71.9989,25.7987S3.2344,49.4625,3.2344,35.2146,35.4705,9.418,75.2355,9.418,147.2344,20.9678,147.2344,35.2146Z"/></clipPath></defs><path class="cls-2" d="M17.8018,26.5362h1.8594c1.1211,0,1.8584.5957,1.8584,1.5752v.0146c0,1.0713-.8936,1.624-1.9512,1.624h-1.206v1.753h-.5606ZM19.59,29.2393c.8232,0,1.3623-.4395,1.3623-1.0928v-.0136c0-.71-.5322-1.0791-1.334-1.0791H18.3624v2.1855Z"/><path class="cls-2" d="M22.3917,30.1123V27.835h.5459v2.1426a.9777.9777,0,0,0,1.0146,1.1064,1.0826,1.0826,0,0,0,1.1-1.1494v-2.1h.54v3.668h-.54v-.6387a1.3964,1.3964,0,0,1-1.2558.7168A1.34,1.34,0,0,1,22.3917,30.1123Z"/><path class="cls-2" d="M26.8672,26.3233h.5459v5.18h-.5459Z"/><path class="cls-2" d="M28.7325,26.3233h.5459v5.18h-.5459Z"/><path class="cls-2" d="M30.4,29.083h1.9726v.5752H30.4Z"/><path class="cls-2" d="M33.6338,30.5313V28.3174h-.5107V27.835h.5107V26.7276H34.18V27.835h1.1641v.4824H34.18V30.46a.5433.5433,0,0,0,.6182.61,1.1534,1.1534,0,0,0,.5313-.128v.4688a1.3787,1.3787,0,0,1-.6592.1552A.9334.9334,0,0,1,33.6338,30.5313Z"/><path class="cls-2" d="M36.03,30.4385v-.0137c0-.7734.6387-1.1855,1.5684-1.1855a3.9083,3.9083,0,0,1,1.1279.1562v-.1279c0-.6592-.4043-1-1.0918-1a2.5522,2.5522,0,0,0-1.1142.2695l-.1631-.4472a3.0269,3.0269,0,0,1,1.334-.3047,1.61,1.61,0,0,1,1.1845.4043,1.4488,1.4488,0,0,1,.376,1.0713V31.503h-.5254v-.5537a1.6047,1.6047,0,0,1-1.3262.6318A1.2361,1.2361,0,0,1,36.03,30.4385Zm2.7041-.2832V29.8a3.8264,3.8264,0,0,0-1.0791-.1562c-.6875,0-1.0713.2988-1.0713.76v.0136c0,.4619.4258.7315.9229.7315A1.11,1.11,0,0,0,38.7344,30.1553Z"/><path class="cls-2" d="M40.961,30.8008v.7022h-.5459v-5.18h.5459v2.249a1.65,1.65,0,0,1,1.4053-.8154,1.7887,1.7887,0,0,1,1.7519,1.9013v.0137a1.796,1.796,0,0,1-1.7519,1.9092A1.656,1.656,0,0,1,40.961,30.8008ZM43.5586,29.68v-.0146a1.3215,1.3215,0,0,0-1.2919-1.419,1.368,1.368,0,0,0-1.3262,1.4121v.0137a1.3657,1.3657,0,0,0,1.3262,1.42A1.2949,1.2949,0,0,0,43.5586,29.68Z"/><line class="cls-3" x1="43.174" y1="40.6632" x2="30.5455" y2="34.7209"/><polygon class="cls-4" points="46.826 42.382 42.669 37.857 42.901 40.535 40.69 42.063 46.826 42.382"/><g class="cls-5"><polyline class="cls-6" points="144.048 55.175 74.167 35.954 73.576 -7.673"/><line class="cls-6" x1="144.0477" y1="52.1863" x2="74.2587" y2="32.4607"/><polygon class="cls-7" points="66.944 39.577 143.707 61.029 144.048 55.175 72.551 35.513 66.944 39.577"/><line class="cls-6" x1="144.2102" y1="64.339" x2="64.2108" y2="41.911"/><polyline class="cls-6" points="144.048 46.806 136.224 44.643 136.224 37.016 144.048 39.349"/><line class="cls-6" x1="138.3436" y1="36.1683" x2="136.2242" y2="37.0158"/><path class="cls-8" d="M144.21,46.9339l-7.4742-2.0823V35.7059l7.3117,2.106m0-5.8629L81.6449,14.3154l.2988,19.2986,62.104,17.5521m-9.0186-6.6932L83.6232,30.0705V21.1319l51.1774,14.574Z"/><polygon class="cls-6" points="134.175 36.168 84.079 21.929 84.079 29.671 122.099 40.228 134.516 43.676 134.175 36.168"/><line class="cls-6" x1="121.8219" y1="32.7407" x2="121.8498" y2="40.1591"/><line class="cls-6" x1="109.2975" y1="36.6747" x2="109.2975" y2="29.2166"/><line class="cls-6" x1="96.6712" y1="25.509" x2="96.6786" y2="33.1698"/><line class="cls-6" x1="84.0786" y1="29.4934" x2="94.6382" y2="24.9307"/><line class="cls-6" x1="87.0374" y1="28.2145" x2="86.9773" y2="22.754"/><line class="cls-6" x1="87.0374" y1="28.2145" x2="96.6712" y2="30.8805"/><line class="cls-6" x1="109.1526" y1="36.4494" x2="119.4676" y2="31.9887"/><line class="cls-6" x1="121.8498" y1="40.1591" x2="131.8676" y2="35.5129"/><line class="cls-6" x1="112.1399" y1="29.9053" x2="112.1699" y2="35.1449"/><line class="cls-6" x1="112.1699" y1="35.1449" x2="121.8219" y2="37.8355"/><line class="cls-6" x1="124.5956" y1="33.4466" x2="124.6037" y2="38.8815"/><line class="cls-6" x1="124.6037" y1="38.8815" x2="134.4182" y2="41.5119"/><line class="cls-6" x1="136.2242" y1="44.6435" x2="144.0477" y2="41.1279"/><path class="cls-9" d="M140.2462,32.862a.683.683,0,1,1-.8481-.6115A.7462.7462,0,0,1,140.2462,32.862Z"/><path class="cls-9" d="M128.6353,29.5792a.6827.6827,0,1,1-.8481-.6126A.7448.7448,0,0,1,128.6353,29.5792Z"/><path class="cls-9" d="M116.0164,26.1054a.6831.6831,0,1,1-.848-.6125A.7458.7458,0,0,1,116.0164,26.1054Z"/><path class="cls-9" d="M103.5279,22.5588a.6825.6825,0,1,1-.8475-.6126A.7442.7442,0,0,1,103.5279,22.5588Z"/><path class="cls-9" d="M90.9472,19.04a.6831.6831,0,1,1-.8475-.6126A.7453.7453,0,0,1,90.9472,19.04Z"/><path class="cls-6" d="M103.5875,11.4113c.5739,1.22.376,2.5243-.4436,2.9094-.8207.3873-1.953-.29-2.5281-1.5105s-.3755-2.5243.4442-2.9095C101.88,9.5135,103.0125,10.1893,103.5875,11.4113Z"/><path class="cls-6" d="M135.506,20.2726c.574,1.2209.3,2.56-.6131,2.99s-2.1225-.21-2.6965-1.4311-.3-2.56.6126-2.9888A2.2041,2.2041,0,0,1,135.506,20.2726Z"/><path class="cls-9" d="M144.8625,34.1869a.6825.6825,0,1,1-.8476-.6115A.7446.7446,0,0,1,144.8625,34.1869Z"/><path class="cls-10" d="M121.3981,50.988c.0392.5064-.9789.9977-2.2716,1.0975-1.2933.0976-2.3725-.2328-2.4122-.74-.0381-.5075.98-.9977,2.2722-1.0975C120.2792,50.15,121.36,50.4806,121.3981,50.988Z"/><path class="cls-7" d="M65.805,38.8815l-2.2985,1.2776-1.3737-1.4643c.2564-.5815,3.1621-17.506,3.1621-18.1894s-.7692-28.1782-.7692-28.1782l5.32.2843"/><path class="cls-6" d="M62.9868-7.6728s-.6539-.2275-.854.9108.427,1.3668.427,1.3668l.427,17.2345a3.2208,3.2208,0,0,0-.2564,1.0814c0,.4978.2848.8111.2564,1.0245s.52,17.4352.52,17.4352"/><path class="cls-6" d="M62.1672-7.6728s-.655-.2275-.854.9108.427,1.3668.427,1.3668l.427,17.2345a3.2258,3.2258,0,0,0-.2559,1.0814c0,.4978.2837.8111.2559,1.0245s.6334,20.9358.6334,20.9358"/><line class="cls-6" x1="62.9868" y1="11.996" x2="65.1748" y2="11.1238"/><line class="cls-6" x1="62.9868" y1="13.9388" x2="65.1029" y2="13.0269"/><path class="cls-6" d="M65.1748,19.4809s-.7076-.2135-1.2085-.3626a.6756.6756,0,0,0-.8782.6833c0,.4485.2441,10.3107.2441,10.3107"/><path class="cls-6" d="M65.1748,20.38s-.4442-.1555-.758-.2661-.5514.1728-.5514.501.1534,7.5579.1534,7.5579"/><line class="cls-6" x1="63.5065" y1="19.0861" x2="65.1748" y2="18.5422"/><polygon class="cls-6" points="124.113 21.587 123.216 22.03 123.216 23.623 124.227 24.491 125.252 24.121 125.252 22.697 124.113 21.587"/><polygon class="cls-6" points="126.93 22.413 126.033 22.855 126.033 24.449 127.044 25.316 128.069 24.947 128.069 23.523 126.93 22.413"/><polygon class="cls-6" points="129.686 23.168 128.79 23.608 128.79 25.202 129.8 26.07 130.825 25.701 130.825 24.277 129.686 23.168"/><polygon class="cls-6" points="138.18 25.509 137.284 25.95 137.284 27.544 138.294 28.412 139.319 28.043 139.319 26.619 138.18 25.509"/><polygon class="cls-6" points="140.998 26.335 140.101 26.776 140.101 28.37 141.111 29.238 142.136 28.868 142.136 27.444 140.998 26.335"/><polygon class="cls-6" points="139.424 23.066 138.528 23.507 138.528 25.1 139.538 25.97 140.563 25.6 140.563 24.177 139.424 23.066"/><polygon class="cls-6" points="142.241 23.892 141.345 24.333 141.345 25.927 142.355 26.795 143.38 26.426 143.38 25.003 142.241 23.892"/><polygon class="cls-6" points="143.754 27.088 142.857 27.53 142.857 29.124 143.868 29.991 144.893 29.622 144.893 28.198 143.754 27.088"/><polygon class="cls-6" points="115.731 19.267 114.835 19.708 114.835 21.303 115.845 22.171 116.87 21.801 116.87 20.378 115.731 19.267"/><polygon class="cls-6" points="118.549 20.095 117.651 20.534 117.651 22.129 118.662 22.998 119.687 22.627 119.687 21.204 118.549 20.095"/><polygon class="cls-6" points="121.305 20.848 120.407 21.289 120.407 22.883 121.418 23.751 122.444 23.381 122.444 21.957 121.305 20.848"/><polygon class="cls-6" points="107.506 16.736 106.61 17.176 106.61 18.771 107.621 19.639 108.646 19.268 108.646 17.846 107.506 16.736"/><polygon class="cls-6" points="104.696 16.11 103.799 16.55 103.799 18.144 104.809 19.013 105.834 18.643 105.834 17.22 104.696 16.11"/><polygon class="cls-6" points="110.324 17.562 109.427 18.003 109.427 19.597 110.438 20.465 111.463 20.095 111.463 18.672 110.324 17.562"/><polygon class="cls-6" points="113.08 18.315 112.183 18.757 112.183 20.351 113.194 21.219 114.219 20.849 114.219 19.425 113.08 18.315"/><polygon class="cls-6" points="122.663 18.408 121.767 18.848 121.767 20.443 122.777 21.31 123.802 20.941 123.802 19.517 122.663 18.408"/><polygon class="cls-6" points="125.48 19.233 124.584 19.675 124.584 21.268 125.594 22.136 126.619 21.767 126.619 20.343 125.48 19.233"/><polygon class="cls-6" points="128.237 19.987 127.34 20.429 127.34 22.022 128.351 22.89 129.376 22.521 129.376 21.098 128.237 19.987"/><polygon class="cls-6" points="114.281 16.088 113.385 16.529 113.385 18.123 114.396 18.992 115.42 18.62 115.42 17.197 114.281 16.088"/><polygon class="cls-6" points="117.099 16.914 116.203 17.355 116.203 18.949 117.213 19.817 118.238 19.447 118.238 18.023 117.099 16.914"/><polygon class="cls-6" points="119.855 17.668 118.959 18.109 118.959 19.703 119.969 20.571 120.994 20.201 120.994 18.777 119.855 17.668"/><polygon class="cls-6" points="111.631 15.135 110.734 15.576 110.734 17.17 111.745 18.038 112.77 17.669 112.77 16.245 111.631 15.135"/><polygon class="cls-6" points="108.79 14.315 107.893 14.756 107.893 16.35 108.903 17.218 109.928 16.849 109.928 15.426 108.79 14.315"/><polygon class="cls-6" points="99.149 14.557 98.252 14.999 98.252 16.592 99.263 17.46 100.288 17.091 100.288 15.667 99.149 14.557"/><polygon class="cls-6" points="90.925 12.025 90.028 12.466 90.028 14.06 91.039 14.928 92.064 14.558 92.064 13.134 90.925 12.025"/><polygon class="cls-6" points="88.114 11.398 87.217 11.84 87.217 13.435 88.227 14.302 89.252 13.932 89.252 12.509 88.114 11.398"/><polygon class="cls-6" points="93.742 12.85 92.846 13.292 92.846 14.886 93.856 15.754 94.881 15.384 94.881 13.961 93.742 12.85"/><polygon class="cls-6" points="94.886 10.418 93.989 10.86 93.989 12.453 95 13.321 96.024 12.951 96.024 11.528 94.886 10.418"/><polygon class="cls-6" points="92.074 9.792 91.177 10.233 91.177 11.828 92.187 12.695 93.212 12.325 93.212 10.902 92.074 9.792"/><polygon class="cls-6" points="97.703 11.244 96.806 11.685 96.806 13.279 97.817 14.147 98.841 13.777 98.841 12.354 97.703 11.244"/><polygon class="cls-6" points="96.498 13.605 95.602 14.045 95.602 15.639 96.613 16.508 97.637 16.138 97.637 14.714 96.498 13.605"/><path class="cls-7" d="M65.805-7.6728s.7682,27.4959.7682,28.1782S63.2432,38.3,62.9868,38.8815l11.2719-.5568L73.5759-9.2659"/><polygon class="cls-11" points="97.741 25.686 76.166 35.024 72.352 33.884 70.018 35.024 70.018 35.307 67.627 36.389 66.944 36.161 63.243 37.984 63.243 47.092 75.368 50.735 109.411 36.276 109.411 28.931 97.741 25.686"/><line class="cls-11" x1="76.1656" y1="35.0236" x2="84.7051" y2="37.4139"/><line class="cls-11" x1="84.8473" y1="40.1742" x2="109.4112" y2="29.2166"/><line class="cls-11" x1="63.2432" y1="37.9835" x2="74.8992" y2="41.3414"/><polyline class="cls-11" points="75.241 50.592 75.07 47.148 73.519 47.788 73.519 45.754 75.07 45.327 74.899 41.412 78.913 39.761 78.913 40.174 82.008 38.793 82.008 38.32 84.705 37.414 84.847 40.174"/><path class="cls-11" d="M70.2351,35.1491s1.7461.5493,1.8887.6555c.3557.2661.3374.6759-.7472,1.075a5.3406,5.3406,0,0,1-2.4455-.0214c-.6367-.17-1.3254-.441-1.3254-.441"/><path class="cls-11" d="M78.9125,39.7611s-.642-.2134-.9274-.3132c-.1084-.0375-1.1114-.3154-1.25-.5718-.1856-.3422-.0177-.5869.47-.795a4.82,4.82,0,0,1,1.7133-.2886,7.5309,7.5309,0,0,1,1.5566.18c.5568.0966,1.5336.3476,1.5336.3476"/><path class="cls-11" d="M71.611,36.5267c-.0166.2864-.6775.4816-1.4767.4376-.8-.0461-1.4343-.3154-1.4183-.6018s.6775-.4817,1.4778-.4366S71.6276,36.24,71.611,36.5267Z"/><path class="cls-11" d="M69.9675,35.3305s1.334.4334,1.4182.4677c.2237.0891.7167.206.788.6459"/><path class="cls-11" d="M82.0081,38.7935s-3.5386-1.38-4.6678-.3122"/><path class="cls-11" d="M80.0551,38.8782c-.0156.2865-.677.4817-1.4762.4377-.8-.0461-1.4338-.3154-1.4183-.6029.0161-.2854.677-.4806,1.4773-.4355C79.4366,38.3225,80.0722,38.5918,80.0551,38.8782Z"/><path class="cls-12" d="M54.8946,55.6751,71.5794,49.24h0c1.481-.8947,1.87-3.4726.8421-5.9926-1.0782-2.6413-3.3128-4.2387-5.0352-3.6208l-15.812,7.3616"/><path class="cls-12" d="M56.54,49.9785c.9269,2.24.5449,4.5573-.83,5.3855a2.0466,2.0466,0,0,1-.288.1448c-1.6076.6662-3.7108-.7327-4.7-3.1218-.8652-2.091-.5906-4.2473.5669-5.2a2.1863,2.1863,0,0,1,.5515-.3326C53.4469,46.19,55.5511,47.5894,56.54,49.9785Z"/><path class="cls-12" d="M58.4848,43.7745a1.9652,1.9652,0,0,1,.2322-.1137c1.6065-.6663,3.7505.8271,4.7874,3.3343,1.009,2.4384.5992,4.9381-.9039,5.6826-.0418.02-.0842.0408-.1276.0579"/><path class="cls-12" d="M61.7793,42.2619a2.0363,2.0363,0,0,1,.2189-.1127c1.6773-.7521,3.95.6759,5.0754,3.1884,1.0557,2.3558.7274,4.8286-.7005,5.747a2.2268,2.2268,0,0,1-.2688.1491"/><path class="cls-12" d="M38.0092,62.3286s17.1439-7.4656,17.15-7.47c1.2675-.7521,1.6478-2.8107.832-4.7826-.8706-2.1027-2.7732-3.3128-4.25-2.7024-.0134.0054-16.8844,7.338-16.8844,7.338"/><path class="cls-12" d="M39.1067,57.4141c.8153,1.9718.4351,4.0294-.8319,4.7825a2.0717,2.0717,0,0,1-.2656.132c-1.4756.6115-3.3787-.5986-4.2493-2.7024-.7611-1.84-.4812-3.7537.589-4.6141a2.0179,2.0179,0,0,1,.5084-.3C36.333,54.1,38.2356,55.31,39.1067,57.4141Z"/><path class="cls-13" d="M57.5005,40.2879c.2209-.1416,4.0637-1.8495,4.149-1.8205s11.9548,3.4147,12.04,3.5573.2,6.4894.1706,6.5752-3.131,1.5084-3.131,1.48a9.9471,9.9471,0,0,1-1.6226-.5128c-.3128-.2274.2279-5.3511.0573-5.2942s-6.0913.2564-6.3477.2564a5.05,5.05,0,0,0-1.48.6254c-.0847.1148.4844.7982.5412,1.48a5.11,5.11,0,0,1-1.4225,4.3834c-1.7084,1.6221-2.5479,1.6371-4.2134.9967s-2.6466-1.2241-3.6717-1.5234a10.7,10.7,0,0,0-2.4766-.4689,9.282,9.282,0,0,1-2.234-.5128c-.4131-.1416-1.5518-.384-1.8506-.4838s-1.2236-.6834-1.1957-1.0824.413-.8819.7687-.8819a3.3912,3.3912,0,0,1,1.41.456c.398.2413.6115.4548,1.4515-.2146s3.1159-3.0457,4.7814-3.5863a7.4137,7.4137,0,0,1,3.4158-.3262,2.1781,2.1781,0,0,0,1.3308-.52c.1417-.1845-.1088-.8722-.3224-1.3C57.4345,41.1451,57.3106,40.41,57.5005,40.2879ZM50.2778,48.557c.99.0687,1.48-.2982,4.981,1.4516s4.2237-.0848,4.7257-1.0107a3.8282,3.8282,0,0,0,.4007-2.3537,3.6357,3.6357,0,0,0-3.168-2.07c-.55-.015-.9017.1942-2.2566.1942-1.1533,0-2.7008,1.2563-3.1283,1.6114a15.1752,15.1752,0,0,1-1.76,1.4675S49.1219,48.4777,50.2778,48.557Z"/></g><path class="cls-1" d="M147.2344,35.2146c0,14.2479-32.235,25.7987-71.9989,25.7987S3.2344,49.4625,3.2344,35.2146,35.4705,9.418,75.2355,9.418,147.2344,20.9678,147.2344,35.2146Z"/><polygon class="cls-14" points="32.976 18.426 27.684 13.134 27.684 5.651 32.976 0.358 40.46 0.358 45.753 5.651 45.753 13.134 40.46 18.426 32.976 18.426"/><polygon class="cls-15" points="41.949 13.19 36.719 6.186 31.488 13.19 41.949 13.19"/><rect class="cls-15" x="34.4261" y="12.8639" width="4.5321" height="2.7464"/><line class="cls-16" x1="36.7122" y1="2.4598" x2="36.7122" y2="5.2684"/><line class="cls-16" x1="32.9709" y1="3.9703" x2="34.9566" y2="5.9561"/><line class="cls-16" x1="40.4536" y1="3.9703" x2="38.4679" y2="5.9561"/><line class="cls-16" x1="38.7125" y1="3.1839" x2="38.0581" y2="4.5883"/><line class="cls-16" x1="34.7785" y1="3.1839" x2="35.4335" y2="4.5883"/></svg>