<svg id="Layer_1" data-name="Layer 1" xmlns="http://www.w3.org/2000/svg" viewBox="0 0 74.6685 11.1946"><defs><style>.cls-1{fill:#d9d9d9;}.cls-1,.cls-2,.cls-6{fill-rule:evenodd;}.cls-2,.cls-3,.cls-5{fill:#2968b2;}.cls-4{fill:#4174ba;}.cls-5{stroke:#fff;stroke-miterlimit:10;stroke-width:0.3069px;}.cls-6{fill:#a6a6a6;}</style></defs><polygon class="cls-1" points="64.994 1.043 64.994 10.152 68.016 10.152 68.016 9.676 71.312 9.676 71.312 1.519 68.016 1.519 68.016 1.043 64.994 1.043"/><path class="cls-2" d="M47.34,0c-3.8633,0-3.67,3.2618-5.5684,3.2618v4.671c1.8982,0,1.7051,3.2618,5.5684,3.2618H66.221V0Z"/><path class="cls-3" d="M36.9175,3.7144H.9a.8043.8043,0,0,0-.9.845A1.8628,1.8628,0,0,0,.3855,5.61a2.6763,2.6763,0,0,0,.2928.3415c.9482.9386.9883,1.5544.2219,1.5544H36.9139A16.1706,16.1706,0,0,0,36.9175,3.7144Z"/><path class="cls-4" d="M36.9036,3.6143s.0057.0383.0139.1a16.1706,16.1706,0,0,1-.0036,3.7919c-.0042.0354-.0058.0682-.01.1038l4.8679.3078V3.2617Z"/><rect class="cls-5" x="56.6309" y="2.7295" width="9.0293" height="5.7206"/><path class="cls-1" d="M74.6685,1.4257a.4094.4094,0,0,0-.41-.383H68.0162v.476h3.2956V9.6759H68.0162v.476h6.2427a.4094.4094,0,0,0,.41-.383"/><path class="cls-6" d="M73.5743,7.7462h-2.53a.1376.1376,0,0,0-.1394.1377v.055a.1376.1376,0,0,0,.1394.1377h1.9746a.2775.2775,0,0,1,.2787.2752h0v.2755a.2776.2776,0,0,1-.2787.2753H71.0442a.1375.1375,0,0,0-.1394.1376v.055a.1377.1377,0,0,0,.1394.1378h2.53Z"/><path class="cls-6" d="M73.5743,1.97h-2.53a.1377.1377,0,0,0-.1394.1377v.0552a.1375.1375,0,0,0,.1394.1375h1.9746a.2777.2777,0,0,1,.2787.2755h0v.2752a.2774.2774,0,0,1-.2787.2752H71.0442a.1376.1376,0,0,0-.1394.1378v.055a.1376.1376,0,0,0,.1394.1377h2.53Z"/></svg>