<?xml version="1.0" encoding="utf-8"?>
<!-- Generator: Adobe Illustrator 21.1.0, SVG Export Plug-In . SVG Version: 6.00 Build 0)  -->
<svg version="1.1" id="Layer_1" xmlns="http://www.w3.org/2000/svg" xmlns:xlink="http://www.w3.org/1999/xlink" x="0px" y="0px"
	 width="90.1px" height="14.2px" viewBox="0 0 90.1 14.2" style="enable-background:new 0 0 90.1 14.2;" xml:space="preserve">
<style type="text/css">
	.st0{fill-rule:evenodd;clip-rule:evenodd;fill:#2968B2;stroke:#999999;stroke-width:0.125;stroke-miterlimit:10;}
	.st1{fill-rule:evenodd;clip-rule:evenodd;fill:#D9D9D9;}
	.st2{fill:none;stroke:#999999;stroke-width:0.1166;stroke-linecap:round;stroke-linejoin:round;stroke-miterlimit:10;}
	.st3{fill-rule:evenodd;clip-rule:evenodd;fill:#A6A6A6;}
	.st4{fill-rule:evenodd;clip-rule:evenodd;fill:#2968B2;}
	.st5{fill:none;stroke:#759ED3;stroke-width:0.1166;stroke-linecap:round;stroke-linejoin:round;stroke-miterlimit:10;}
</style>
<g>
	<path class="st0" d="M0.6,7.2C0.2,7.8,0.1,8.4,0.1,8.9c0,0.7,0.4,1.3,1.2,1.3c1,0,1-1-0.3-2.4C0.8,7.6,0.7,7.4,0.6,7.2z"/>
	<path class="st0" d="M0.1,5.6c0,0.5,0.2,1.1,0.5,1.6C0.7,7.4,0.8,7.6,1,7.8c1.3,1.5,1.3,2.4,0.3,2.4H30V4.3H1.3
		C0.5,4.3,0.1,4.8,0.1,5.6z"/>
	<g>
		<polygon class="st1" points="31.9,5.7 31.9,8.6 32.9,8.6 32.9,14.2 40.4,14.2 40.4,0.1 32.9,0.1 32.9,5.7 		"/>
		<polygon class="st2" points="31.9,5.7 31.9,8.6 32.9,8.6 32.9,14.2 40.4,14.2 40.4,0.1 32.9,0.1 32.9,5.7 		"/>
		<polygon class="st1" points="40.4,0.2 40.4,14 48.9,14 48.9,13.3 53.9,13.3 53.9,0.9 48.9,0.9 48.9,0.2 		"/>
		<polygon class="st2" points="40.4,0.2 40.4,14 48.9,14 48.9,13.3 53.9,13.3 53.9,0.9 48.9,0.9 48.9,0.2 		"/>
		<path class="st1" d="M89.1,14c0.3,0,0.6-0.3,0.6-0.6l0.4-5.8v-1l-0.4-5.8c0-0.3-0.3-0.6-0.6-0.6H48.9v0.7h5v12.4h-5V14H89.1z"/>
		<path class="st2" d="M89.1,14c0.3,0,0.6-0.3,0.6-0.6l0.4-5.8v-1l-0.4-5.8c0-0.3-0.3-0.6-0.6-0.6H48.9v0.7h5v12.4h-5V14H89.1z"/>
		<path class="st2" d="M56.6,2.3V12c0,0.3,0.2,0.5,0.5,0.5l0,0h26.6c0.3,0,0.5-0.2,0.5-0.5l0,0V2.3c0-0.3-0.2-0.5-0.5-0.5H57.2
			C56.9,1.8,56.6,2,56.6,2.3z"/>
		<path class="st3" d="M41.4,10.9h4.8c0.1,0,0.3-0.1,0.3-0.3v-0.1c0-0.1-0.1-0.3-0.3-0.3h-3.7c-0.3,0-0.5-0.2-0.5-0.5l0,0V9.2
			c0-0.3,0.2-0.5,0.5-0.5h3.7c0.1,0,0.3-0.1,0.3-0.3V8.4c0-0.1-0.1-0.3-0.3-0.3h-4.8V10.9z M41.4,6.1h4.8c0.1,0,0.3-0.1,0.3-0.3V5.8
			c0-0.1-0.1-0.3-0.3-0.3h-3.7c-0.3,0-0.5-0.2-0.5-0.5l0,0V4.5c0-0.3,0.2-0.5,0.5-0.5h3.7c0.1,0,0.3-0.1,0.3-0.3V3.6
			c0-0.1-0.1-0.3-0.3-0.3h-4.8V6.1z"/>
		<path class="st2" d="M41.4,10.9h4.8c0.1,0,0.3-0.1,0.3-0.3v-0.1c0-0.1-0.1-0.3-0.3-0.3h-3.7c-0.3,0-0.5-0.2-0.5-0.5l0,0V9.2
			c0-0.3,0.2-0.5,0.5-0.5h3.7c0.1,0,0.3-0.1,0.3-0.3V8.4c0-0.1-0.1-0.3-0.3-0.3h-4.8V10.9z M41.4,6.1h4.8c0.1,0,0.3-0.1,0.3-0.3V5.8
			c0-0.1-0.1-0.3-0.3-0.3h-3.7c-0.3,0-0.5-0.2-0.5-0.5l0,0V4.5c0-0.3,0.2-0.5,0.5-0.5h3.7c0.1,0,0.3-0.1,0.3-0.3V3.6
			c0-0.1-0.1-0.3-0.3-0.3h-4.8V6.1z"/>
		<path class="st4" d="M37.7,1.2c-0.3-0.7-1-1.1-1.8-1.1h-5c-0.2,0-0.4,0.2-0.4,0.4v1.7h0.8V0.9h4.6c0.3,0,0.6,0.1,0.8,0.3H37.7z"/>
		<path class="st5" d="M37.7,1.2c-0.3-0.7-1-1.1-1.8-1.1h-5c-0.2,0-0.4,0.2-0.4,0.4v1.7h0.8V0.9h4.6c0.3,0,0.6,0.1,0.8,0.3H37.7z"/>
		<polygon class="st4" points="36.7,13 38.2,13 38.2,1.2 36.7,1.2 36.7,13 		"/>
		<polygon class="st5" points="36.7,13 38.2,13 38.2,1.2 36.7,1.2 36.7,13 		"/>
		<path class="st4" d="M36.7,13c-0.2,0.2-0.5,0.3-0.8,0.3h-4.6V12h-0.8v1.7c0,0.2,0.2,0.4,0.4,0.4h5c0.8,0,1.5-0.4,1.8-1.1H36.7z"/>
		<path class="st5" d="M36.7,13c-0.2,0.2-0.5,0.3-0.8,0.3h-4.6V12h-0.8v1.7c0,0.2,0.2,0.4,0.4,0.4h5c0.8,0,1.5-0.4,1.8-1.1H36.7z"/>
		<rect x="29.9" y="2.2" class="st4" width="1.9" height="9.8"/>
		<rect x="29.9" y="2.2" class="st5" width="1.9" height="9.8"/>
		<path class="st3" d="M32.9,13.3v-1.2h1.3v-0.4h2.5V9h-2.5V8.6h-2.3v3.8l0.9,0.9H32.9z M38.2,12.1h1.3V8.6h-1.3V12.1z M38.2,5.7
			h1.3V2.1h-1.3V5.7z M32.8,0.9l-0.9,0.9v3.8h2.3V5.3h2.5V2.5h-2.5V2.1h-1.3V0.9H32.8z"/>
		<path class="st2" d="M32.9,13.3v-1.2h1.3v-0.4h2.5V9h-2.5V8.6h-2.3v3.8l0.9,0.9H32.9z M38.2,12.1h1.3V8.6h-1.3V12.1z M38.2,5.7
			h1.3V2.1h-1.3V5.7z M32.8,0.9l-0.9,0.9v3.8h2.3V5.3h2.5V2.5h-2.5V2.1h-1.3V0.9H32.8z"/>
		<polyline class="st2" points="32.9,1.6 34.2,1.6 34.2,2.1 		"/>
		<polyline class="st2" points="39.6,2.1 39.6,1.6 38.2,1.6 		"/>
		<polyline class="st2" points="32.9,12.7 34.2,12.7 34.2,12.1 		"/>
		<path class="st2" d="M34.2,8V6.2 M34.2,5.7v0.6h-1.3V8h1.3v0.6"/>
		<polyline class="st2" points="39.6,5.7 39.6,6.2 38.2,6.2 		"/>
		<polyline class="st2" points="39.6,8.6 39.6,8 38.2,8 		"/>
		<polyline class="st2" points="39.6,12.1 39.6,12.7 38.2,12.7 		"/>
	</g>
</g>
</svg>
