<?xml version="1.0" encoding="utf-8"?>
<!-- Generator: Adobe Illustrator 12.0.1, SVG Export Plug-In . SVG Version: 6.00 Build 51448)  -->
<!DOCTYPE svg PUBLIC "-//W3C//DTD SVG 1.1//EN" "http://www.w3.org/Graphics/SVG/1.1/DTD/svg11.dtd" [
	<!ENTITY ns_svg "http://www.w3.org/2000/svg">
	<!ENTITY ns_xlink "http://www.w3.org/1999/xlink">
]>
<svg  version="1.1" id="Layer_1" xmlns="&ns_svg;" xmlns:xlink="&ns_xlink;" width="98.735" height="83.963"
	 viewBox="0 0 98.735 83.963" overflow="visible" enable-background="new 0 0 98.735 83.963" xml:space="preserve">
<g>
	<rect x="0.25" y="0.25" fill="none" stroke="#000000" stroke-width="0.5" width="96" height="61.5"/>
	<g>
		<polygon fill="none" stroke="#000000" stroke-width="0.5" points="39.884,56.569 30.145,56.569 30.145,24.113 30.145,13.534 
			39.884,13.534 		"/>
		<line fill="none" stroke="#000000" stroke-width="0.5" stroke-linecap="round" x1="30.145" y1="24.113" x2="39.75" y2="24.113"/>
		<line fill="none" stroke="#000000" stroke-width="0.5" stroke-linecap="round" x1="30.212" y1="34.618" x2="39.884" y2="34.618"/>
		<line fill="none" stroke="#000000" stroke-width="0.5" stroke-linecap="round" x1="30.08" y1="44.977" x2="39.75" y2="44.977"/>
		<rect x="32.563" y="26.586" fill="none" width="5.354" height="6.479"/>
		<text transform="matrix(0.9206 0 0 1 32.5625 31.2749)" font-family="'Helvetica'" font-size="6.5306">B</text>
		<rect x="32.891" y="15.608" fill="none" width="5.546" height="7.28"/>
		<text transform="matrix(0.9206 0 0 1 32.8906 20.2974)" font-family="'Helvetica'" font-size="6.5306">A</text>
		<rect x="32.761" y="37.265" fill="none" width="5.921" height="5.519"/>
		<text transform="matrix(0.9206 0 0 1 32.7607 41.9541)" font-family="'Helvetica'" font-size="6.5306">C</text>
		<rect x="32.847" y="47.728" fill="none" width="7.277" height="6.237"/>
		<text transform="matrix(0.9206 0 0 1 32.8472 52.4165)" font-family="'Helvetica'" font-size="6.5306">D         </text>
		<rect x="27.849" y="5.128" fill="none" width="20.149" height="5.422"/>
		<text transform="matrix(0.9206 0 0 1 27.8486 9.8174)" font-family="'Helvetica'" font-size="6.5306">Slot 1</text>
		<path fill="none" stroke="#000000" stroke-width="2" stroke-linecap="round" d="M32.4,46.32"/>
	</g>
	<g>
		<polygon fill="none" stroke="#000000" stroke-width="0.5" points="86.381,56.569 76.645,56.569 76.645,24.113 76.645,13.534 
			86.381,13.534 		"/>
		<line fill="none" stroke="#000000" stroke-width="0.5" stroke-linecap="round" x1="76.645" y1="24.113" x2="86.249" y2="24.113"/>
		<line fill="none" stroke="#000000" stroke-width="0.5" stroke-linecap="round" x1="76.709" y1="34.618" x2="86.381" y2="34.618"/>
		<line fill="none" stroke="#000000" stroke-width="0.5" stroke-linecap="round" x1="76.578" y1="44.977" x2="86.249" y2="44.977"/>
		<rect x="79.06" y="26.586" fill="none" width="5.354" height="6.479"/>
		<text transform="matrix(0.9206 0 0 1 79.0601 31.2749)" font-family="'Helvetica'" font-size="6.5306">B</text>
		<rect x="79.389" y="15.608" fill="none" width="5.546" height="7.28"/>
		<text transform="matrix(0.9206 0 0 1 79.3892 20.2974)" font-family="'Helvetica'" font-size="6.5306">A</text>
		<rect x="79.258" y="37.265" fill="none" width="5.924" height="5.519"/>
		<text transform="matrix(0.9206 0 0 1 79.2583 41.9541)" font-family="'Helvetica'" font-size="6.5306">C</text>
		<rect x="79.347" y="47.728" fill="none" width="7.277" height="6.237"/>
		<text transform="matrix(0.9206 0 0 1 79.3472 52.4165)" font-family="'Helvetica'" font-size="6.5306">D         </text>
		<rect x="74.348" y="5.128" fill="none" width="20.147" height="5.422"/>
		<text transform="matrix(0.9206 0 0 1 74.3481 9.8174)" font-family="'Helvetica'" font-size="6.5306">Slot 3</text>
		<path fill="none" stroke="#000000" stroke-width="2" stroke-linecap="round" d="M78.9,46.32"/>
	</g>
	<g>
		<polygon fill="none" stroke="#000000" stroke-width="0.5" points="62.88,56.069 53.145,56.069 53.145,23.613 53.145,13.034 
			62.88,13.034 		"/>
		<line fill="none" stroke="#000000" stroke-width="0.5" stroke-linecap="round" x1="53.145" y1="23.613" x2="62.748" y2="23.613"/>
		<line fill="none" stroke="#000000" stroke-width="0.5" stroke-linecap="round" x1="53.208" y1="34.118" x2="62.88" y2="34.118"/>
		<line fill="none" stroke="#000000" stroke-width="0.5" stroke-linecap="round" x1="53.077" y1="44.477" x2="62.748" y2="44.477"/>
		<rect x="55.559" y="26.087" fill="none" width="5.354" height="6.478"/>
		<text transform="matrix(0.9206 0 0 1 55.5591 30.7759)" font-family="'Helvetica'" font-size="6.5306">B</text>
		<rect x="55.888" y="15.108" fill="none" width="5.546" height="7.281"/>
		<text transform="matrix(0.9206 0 0 1 55.8882 19.7974)" font-family="'Helvetica'" font-size="6.5306">A</text>
		<rect x="55.758" y="36.766" fill="none" width="5.923" height="5.519"/>
		<text transform="matrix(0.9206 0 0 1 55.7583 41.4546)" font-family="'Helvetica'" font-size="6.5306">C</text>
		<rect x="55.846" y="47.228" fill="none" width="7.277" height="6.238"/>
		<text transform="matrix(0.9206 0 0 1 55.8462 51.9165)" font-family="'Helvetica'" font-size="6.5306">D         </text>
		<rect x="50.848" y="4.629" fill="none" width="20.147" height="5.421"/>
		<text transform="matrix(0.9206 0 0 1 50.8481 9.3184)" font-family="'Helvetica'" font-size="6.5306">Slot 2</text>
		<path fill="none" stroke="#000000" stroke-width="2" stroke-linecap="round" d="M55.399,45.82"/>
	</g>
	<g>
		<polygon fill="none" stroke="#000000" stroke-width="0.5" points="18.743,35.93 9.004,35.93 9.004,19.311 9.004,13.895 
			18.743,13.895 		"/>
		<line fill="none" stroke="#000000" stroke-width="0.5" stroke-linecap="round" x1="9.004" y1="24.474" x2="18.609" y2="24.474"/>
		<rect x="11.422" y="26.947" fill="none" width="5.354" height="6.479"/>
		<text transform="matrix(0.9206 0 0 1 11.4219 31.6357)" font-family="'Helvetica'" font-size="6.5306">B</text>
		<rect x="11.75" y="15.969" fill="none" width="5.545" height="7.281"/>
		<text transform="matrix(0.9206 0 0 1 11.75 20.6582)" font-family="'Helvetica'" font-size="6.5306">A</text>
		<rect x="6.708" y="5.49" fill="none" width="20.149" height="5.422"/>
		<text transform="matrix(0.9206 0 0 1 6.708 10.1787)" font-family="'Helvetica'" font-size="6.5306">Slot 0</text>
	</g>
</g>
<path fill="none" stroke="#000000" stroke-width="2" stroke-linecap="round" d="M72.684,83.963"/>
</svg>
