<?xml version="1.0" encoding="utf-8"?>
<!-- Generator: Adobe Illustrator 26.0.3, SVG Export Plug-In . SVG Version: 6.00 Build 0)  -->
<svg version="1.1" id="Layer_1" xmlns="http://www.w3.org/2000/svg" xmlns:xlink="http://www.w3.org/1999/xlink" x="0px" y="0px"
	 viewBox="0 0 252.2 148.7" style="enable-background:new 0 0 252.2 148.7;" xml:space="preserve">
<style type="text/css">
	.st0{fill:#58595B;}
	.st1{font-family:'Gotham-Medium';}
	.st2{font-size:8.0973px;}
	.st3{fill:#D1D3D4;}
	.st4{fill:url(#SVGID_1_);}
	.st5{fill:url(#SVGID_00000142174447390319641840000009739500377490830725_);}
	.st6{fill:none;stroke:#000000;stroke-width:0.1599;stroke-linecap:round;stroke-linejoin:round;}
	.st7{fill:#FFFFFF;}
	.st8{fill:#D1D3D4;stroke:#000000;stroke-width:0.1687;stroke-miterlimit:10;}
	.st9{fill:#FFFFFF;stroke:#000000;stroke-width:0.1687;stroke-miterlimit:10;}
	
		.st10{fill:none;stroke:#58595B;stroke-width:0.2999;stroke-linecap:round;stroke-linejoin:round;stroke-miterlimit:10;stroke-dasharray:1.1995,1.1995;}
	.st11{fill:#E6E7E8;}
	.st12{fill:#F1F2F2;}
	.st13{opacity:0.5;fill:#FFFFFF;stroke:#000000;stroke-width:0.1999;stroke-miterlimit:10;}
	.st14{clip-path:url(#SVGID_00000041991194946986940200000005981766662244943750_);fill:#D1D3D4;}
	
		.st15{clip-path:url(#SVGID_00000041991194946986940200000005981766662244943750_);fill:url(#SVGID_00000091711096342357738480000004207669465065122701_);}
	.st16{clip-path:url(#SVGID_00000041991194946986940200000005981766662244943750_);fill:#FFFFFF;}
	
		.st17{clip-path:url(#SVGID_00000041991194946986940200000005981766662244943750_);fill:none;stroke:#000000;stroke-width:0.3352;stroke-linecap:round;stroke-linejoin:round;}
	.st18{clip-path:url(#SVGID_00000041991194946986940200000005981766662244943750_);fill:#F1F2F2;}
	.st19{fill:none;stroke:#000000;stroke-width:0.1999;stroke-linecap:round;stroke-linejoin:round;}
	.st20{fill:none;stroke:#F1F2F2;stroke-width:0.1999;stroke-linecap:round;stroke-linejoin:round;stroke-dasharray:0.7997,0.3998;}
	.st21{fill:none;stroke:#CDCCCC;stroke-width:0.1999;stroke-linecap:round;stroke-linejoin:round;stroke-dasharray:0.7997,0.3998;}
	.st22{fill:none;stroke:#F1F2F2;stroke-width:0.3998;}
</style>
<g>
	<g>
		<text transform="matrix(1 0 0 1 115.0765 136.8007)"><tspan x="0" y="0" class="st0 st1 st2">Handles and cable  </tspan><tspan x="0" y="9.7" class="st0 st1 st2">management device</tspan></text>
	</g>
	<g>
		<polygon class="st3" points="33.6,35.9 101.9,75.5 101.9,129.1 33.4,89.4 		"/>
		<linearGradient id="SVGID_1_" gradientUnits="userSpaceOnUse" x1="192.5031" y1="64.7049" x2="98.7314" y2="91.9662">
			<stop  offset="0" style="stop-color:#000000"/>
			<stop  offset="6.285286e-02" style="stop-color:#4C4C4E"/>
			<stop  offset="0.1601" style="stop-color:#75777A"/>
			<stop  offset="0.2621" style="stop-color:#97999C"/>
			<stop  offset="0.3668" style="stop-color:#B5B7B9"/>
			<stop  offset="0.475" style="stop-color:#CFD0D2"/>
			<stop  offset="0.5878" style="stop-color:#E2E3E4"/>
			<stop  offset="0.7072" style="stop-color:#F1F1F2"/>
			<stop  offset="0.8376" style="stop-color:#FAFAFA"/>
			<stop  offset="1" style="stop-color:#FFFFFF"/>
		</linearGradient>
		<polygon class="st4" points="178.6,31.5 178.8,80.7 104.2,127.7 102,75.3 		"/>
		
			<linearGradient id="SVGID_00000116219087742944372750000006098392917246574268_" gradientUnits="userSpaceOnUse" x1="180.195" y1="15.989" x2="46.5241" y2="54.8498">
			<stop  offset="0" style="stop-color:#000000"/>
			<stop  offset="6.285286e-02" style="stop-color:#4C4C4E"/>
			<stop  offset="0.1601" style="stop-color:#75777A"/>
			<stop  offset="0.2621" style="stop-color:#97999C"/>
			<stop  offset="0.3668" style="stop-color:#B5B7B9"/>
			<stop  offset="0.475" style="stop-color:#CFD0D2"/>
			<stop  offset="0.5878" style="stop-color:#E2E3E4"/>
			<stop  offset="0.7072" style="stop-color:#F1F1F2"/>
			<stop  offset="0.8376" style="stop-color:#FAFAFA"/>
			<stop  offset="1" style="stop-color:#FFFFFF"/>
		</linearGradient>
		<polygon style="fill:url(#SVGID_00000116219087742944372750000006098392917246574268_);" points="34,36 109.7,0.1 178.6,31.3 
			101.2,75.3 		"/>
		<polyline class="st6" points="109.5,0.1 178.5,31.1 178.5,80.6 		"/>
		<line class="st6" x1="178.5" y1="31.1" x2="101.6" y2="75.4"/>
		<line class="st6" x1="178.5" y1="80.7" x2="101.6" y2="128.7"/>
		<line class="st6" x1="33.5" y1="36" x2="109.5" y2="0.1"/>
		<path class="st7" d="M103.3,84.6c0,0.2-0.3,0.2-0.6,0c-0.3-0.2-0.6-0.5-0.6-0.7c0-0.2,0.3-0.2,0.6,0
			C103.1,84,103.3,84.4,103.3,84.6"/>
		<path class="st7" d="M103.3,98.2c0,0.2-0.3,0.2-0.6,0c-0.3-0.2-0.6-0.5-0.6-0.7c0-0.2,0.3-0.2,0.6,0
			C103.1,97.7,103.3,98,103.3,98.2"/>
		<path class="st7" d="M103.3,111.9c0,0.2-0.3,0.2-0.6,0c-0.3-0.2-0.6-0.5-0.6-0.7c0-0.2,0.3-0.2,0.6,0
			C103.1,111.3,103.3,111.6,103.3,111.9"/>
		<path class="st7" d="M103.3,125.5c0,0.2-0.3,0.2-0.6,0c-0.3-0.2-0.6-0.5-0.6-0.7c0-0.2,0.3-0.2,0.6,0
			C103.1,125,103.3,125.3,103.3,125.5"/>
		<line class="st6" x1="99.1" y1="127.2" x2="99.1" y2="74"/>
		<polygon class="st6" points="33.5,36.1 101.6,75.4 101.6,128.7 33.5,89.3 		"/>
		<line class="st6" x1="35.9" y1="40.7" x2="45.5" y2="46.2"/>
		<line class="st6" x1="46.8" y1="47.2" x2="77.1" y2="64.4"/>
		<line class="st6" x1="79.8" y1="66" x2="98.9" y2="77"/>
		<line class="st6" x1="46.8" y1="94.2" x2="77.2" y2="111.5"/>
		<line class="st6" x1="79.8" y1="112.9" x2="99" y2="124"/>
		<line class="st6" x1="36" y1="37.6" x2="36" y2="90.7"/>
		<line class="st6" x1="45.5" y1="96.3" x2="45.5" y2="43.1"/>
		<line class="st6" x1="46.8" y1="96.9" x2="46.8" y2="43.7"/>
		<line class="st6" x1="77.2" y1="114.5" x2="77.2" y2="61.5"/>
		<line class="st6" x1="79.7" y1="62.9" x2="79.7" y2="116"/>
		<path class="st7" d="M100.7,92.3c0.1,0.1,0.2,0.3,0.2,0.4"/>
		<path class="st7" d="M100.7,119.8c0.1,0.1,0.2,0.3,0.2,0.4"/>
		<line class="st6" x1="35.9" y1="88.1" x2="45.5" y2="93.7"/>
		<g>
			<path class="st8" d="M0.1,51.9l0-2.1c0.1-1.2,2.2-1.9,2.2-1.9l9-2.7c0.8,0,1.6,1.8,1.6,1.8l0.1,3.9c0.8,0.8,1.5,0.2,1.5,0.2
				l6.3-1.9c2,0,2.6,2.6,2.6,2.6s0.6,34.1,0.7,38.1s-2.3,5.3-2.3,5.3l-6.6,2.1c-2.2,0.8-1.3,2.8-1.2,4.7c0.2,1.9-1.5,2.9-1.5,2.9
				L2,108.1l-1.2-1.2l0-1.4c0,0,1-0.4,1.2,0.6l0.4,0.1l7.9-2.6c0,0,0.7-0.2,0.7-1.6c0-1.4-1-1.4-1-1.4L2,103.2l-0.2,1
				c0,0-0.2,0.7-1,0.5l-0.1-4.1c0,0,0.8-0.4,1,0.1s-0.1,0.7,0.7,0.6s8.7-2.6,8.7-2.6s0.6-0.2,0.6-1s0-1.2,0-1.2s0.1-0.7-1-0.5
				s-8.3,2.4-8.3,2.4S1.7,98.5,1.7,99s0,1.1-0.4,1.1c-0.4,0-0.5-0.1-0.5-0.1l0-4.2c0,0,0-0.2,0.6-0.2c0,0,0.4-0.1,0.5,0.3l0.1,0.7
				c0,0-0.3,0.1,0.6-0.1c0.8-0.2,9.6-3,9.6-3s0.8-0.5,0.8-1.3c0-0.8,0-0.9,0-0.9s-0.2-0.8-1.2-0.5c-1,0.2-9.8,3-9.8,3
				s-0.4,0.2-0.4,0.6s0,0.9-0.2,1c-0.3,0.1-0.4-0.1-0.4-0.1l0-4c0,0,0-0.2,0.4-0.2s0.4,0.2,0.4,0.5c0,0.3,0.2,0.4,0.8,0.3
				c0.6-0.1,9.5-3.2,9.5-3.2s0.8-0.3,0.8-1.1c0-0.7,0-1,0-1s-0.4-0.8-1-0.7c-0.7,0.1-9.7,3.2-9.7,3.2S1.4,89,1.5,89.4
				c0.1,0.4,0,1-0.3,0.9c0,0-0.5,0.2-0.5-0.3l0-4c0,0,0.4-0.4,0.9,0c0,0,0.1,0,0.2,0.6c0,0.6,1.3,0,1.3,0l8.9-2.9c0,0,0.7-0.2,0.7-1
				c0-0.8,0-1.3,0-1.3s-0.1-0.8-1-0.5C10.5,81.2,2,83.8,2,83.8s-0.5,0.1-0.5,0.4s0,1-0.1,1.1c-0.1,0.1-0.8,0.3-0.9-0.1L0.4,72.2
				c0,0,0-0.6,0.5-0.6S1.4,72,1.4,72s0.1,0.6,0.6,0.5c0.5-0.1,9.7-3.3,9.7-3.3s0.7-0.2,0.7-0.9s-0.1-1.5-0.1-1.5s-0.3-0.6-1-0.3
				c-0.6,0.2-9,2.8-9,2.8s-1,0.2-1.1,0.5c-0.1,0.3,0,1-0.2,1.1s-0.6,0.1-0.6-0.4l0-3c0,0,0-0.5,0.4-0.5s0.7,0,0.7,0.6
				c0.1,0.5,0.9,0,0.9,0l9.2-2.9c0,0,0.6-0.2,0.6-0.7c0-0.5,0-1.7,0-1.7s0-0.9-0.8-0.6s-9.7,3-9.7,3S1.1,64.7,1,65
				c0,0.4,0.1,0.9-0.3,1C0.3,66.2,0.3,66,0.3,66l0-3.6c0,0,0-0.6,0.5-0.6c0.5,0,0.5,0.5,0.5,0.5s-0.1,0.4,0.6,0.3s9.4-2.9,9.4-2.9
				s0.9-0.2,0.9-0.9c0-0.7,0-1.5,0-1.5S11.9,56.8,11,57c-0.9,0.2-9.6,2.9-9.6,2.9S1,60.1,1,60.4c0,0.3,0,0.7-0.2,0.8
				c-0.5,0.2-0.6-0.4-0.6-0.4l0-3.2c0,0,0.1-0.3,0.5-0.2c0,0,0.3-0.1,0.4,0.5s1.2,0.1,1.2,0.1l8.4-2.8c0,0,0.8-0.1,0.8-0.8
				c0-0.7-0.2-1.6-0.2-1.6S11,52,10.2,52.2c-0.8,0.2-8.6,2.5-8.6,2.5S1,54.9,1,55.1c0,0.2,0,0.8,0,0.8s0,0.4-0.4,0.5
				s-0.4-0.3-0.4-0.3l0-3.4c0,0,0.1-0.4,0.5-0.3C1.1,52.5,1,53,1,53s-0.1,0.3,0.5,0.2C2.2,53,10,50.7,10,50.7s0.6-0.1,0.6-0.8
				c0-0.7-0.2-1.5-0.2-1.5s-0.2-0.7-1-0.5C8.5,48.1,1.6,50,1.6,50S1,50.2,1,50.4c0,0.2,0.1,0.7,0,0.9C1,51.4,1.1,51.9,0.1,51.9z"/>
			<path class="st9" d="M2.9,75.3c0,0,0-0.9,1.2-1.4S6,73.5,6,73.5s0.7,0.3,0.7,1.3c0,1.1,0,4.9,0,4.9s-0.1,1.1-1.5,1.4
				c-1.3,0.3-2.1,0.1-2.2-0.3C3,80.4,2.9,75.3,2.9,75.3z"/>
			<path class="st9" d="M17.6,89.6l0.9,0c0.1,0,0.2-0.1,0.2-0.3l-0.1-2.6c0-0.1-0.1-0.2-0.3-0.2l-0.9,0c-0.1,0-0.2,0.1-0.2,0.3
				l0.1,2.6C17.3,89.5,17.4,89.6,17.6,89.6z"/>
			<path class="st9" d="M17.3,79.7l0.9,0c0.1,0,0.2-0.1,0.2-0.3l-0.1-2.6c0-0.1-0.1-0.2-0.3-0.2l-0.9,0c-0.1,0-0.2,0.1-0.2,0.3
				l0.1,2.6C17,79.6,17.1,79.7,17.3,79.7z"/>
			<path class="st9" d="M16.9,69.9l0.9,0c0.1,0,0.2-0.1,0.2-0.3L18,67c0-0.1-0.1-0.2-0.3-0.2l-0.9,0c-0.1,0-0.2,0.1-0.2,0.3l0.1,2.6
				C16.7,69.8,16.8,69.9,16.9,69.9z"/>
			<path class="st9" d="M16.6,59.4l0.9,0c0.1,0,0.2-0.1,0.2-0.3l-0.1-2.6c0-0.1-0.1-0.2-0.3-0.2l-0.9,0c-0.1,0-0.2,0.1-0.2,0.3
				l0.1,2.6C16.3,59.3,16.5,59.4,16.6,59.4z"/>
		</g>
		<g>
			<path class="st8" d="M63.1,91.6l0-2.1c0.1-1.2,2.2-1.9,2.2-1.9l9-2.6c0.8,0,1.5,1.8,1.5,1.8l0.1,3.9c0.8,0.8,1.5,0.2,1.5,0.2
				l6.3-1.9c2,0,2.6,2.6,2.6,2.6s0.3,34.1,0.4,38.1c0.1,4-2.3,5.3-2.3,5.3l-6.6,2c-2.2,0.8-1.3,2.8-1.2,4.7c0.1,1.9-1.5,2.9-1.5,2.9
				l-10.6,3.1l-1.1-1.2l0-1.4c0,0,1-0.4,1.2,0.6l0.4,0.1l7.9-2.5c0,0,0.7-0.2,0.7-1.6c0-1.4-1-1.4-1-1.4l-8,2.4l-0.2,1
				c0,0-0.2,0.7-1,0.5l0-4.1c0,0,0.8-0.4,1,0.1c0.2,0.5-0.1,0.7,0.7,0.6c0.8-0.1,8.7-2.6,8.7-2.6s0.6-0.2,0.6-1c0-0.8,0-1.2,0-1.2
				s0.1-0.7-1-0.5c-1.1,0.2-8.3,2.3-8.3,2.3s-0.7,0.2-0.7,0.7c-0.1,0.5,0,1.1-0.4,1.1c-0.4,0-0.5-0.1-0.5-0.1l0-4.2
				c0,0,0-0.2,0.6-0.2c0,0,0.4-0.1,0.5,0.3l0.1,0.7c0,0-0.3,0.1,0.6-0.1c0.8-0.2,9.6-3,9.6-3s0.8-0.5,0.8-1.3c0-0.8,0-0.9,0-0.9
				s-0.2-0.8-1.2-0.6s-9.8,2.9-9.8,2.9s-0.4,0.1-0.4,0.6s0,0.9-0.3,1s-0.4-0.1-0.4-0.1l0-4c0,0,0-0.2,0.4-0.2
				c0.4,0.1,0.4,0.2,0.4,0.5c0,0.3,0.2,0.4,0.8,0.3s9.5-3.1,9.5-3.1s0.8-0.3,0.8-1.1s0-1,0-1s-0.4-0.8-1-0.7
				c-0.7,0.1-9.7,3.1-9.7,3.1s-0.4,0.1-0.3,0.5c0.1,0.4,0,1-0.4,0.9c0,0-0.5,0.2-0.5-0.3l0-4c0,0,0.4-0.4,0.9,0c0,0,0.1,0,0.2,0.6
				c0,0.6,1.3,0,1.3,0l8.9-2.8c0,0,0.7-0.2,0.7-1c0-0.8,0-1.3,0-1.3s-0.1-0.8-1-0.6s-9.4,2.7-9.4,2.7s-0.5,0.1-0.5,0.4
				c0,0.3,0,1-0.1,1.1c-0.1,0.1-0.8,0.3-0.9-0.1l0-12.9c0,0,0-0.6,0.5-0.6c0.5,0,0.5,0.4,0.5,0.4s0.1,0.6,0.6,0.5
				c0.5-0.1,9.7-3.2,9.7-3.2s0.7-0.2,0.7-0.9c0-0.7-0.1-1.5-0.1-1.5s-0.3-0.6-1-0.3c-0.6,0.2-9.1,2.7-9.1,2.7s-1,0.2-1.1,0.5
				c-0.1,0.3,0,1-0.3,1.1c-0.3,0.1-0.6,0.1-0.6-0.4l0-3c0,0,0-0.5,0.4-0.5c0.4-0.1,0.7,0,0.7,0.6c0.1,0.5,0.9,0,0.9,0l9.2-2.8
				c0,0,0.6-0.2,0.6-0.7c0-0.5,0-1.7,0-1.7s0-0.9-0.8-0.7c-0.8,0.2-9.8,2.9-9.8,2.9s-0.4,0.1-0.5,0.4s0.1,0.9-0.3,1
				c-0.4,0.1-0.4-0.1-0.4-0.1l0-3.6c0,0,0-0.6,0.5-0.5c0.5,0,0.5,0.5,0.5,0.5s-0.1,0.4,0.6,0.3c0.7-0.1,9.4-2.8,9.4-2.8
				s0.9-0.2,0.9-0.9s0-1.5,0-1.5s-0.2-0.5-1.1-0.3c-0.9,0.2-9.6,2.8-9.6,2.8S64,99.8,64,100c0,0.3,0,0.7-0.2,0.8
				c-0.5,0.2-0.6-0.4-0.6-0.4l0-3.2c0,0,0.1-0.3,0.5-0.2c0,0,0.3-0.1,0.4,0.5c0.1,0.5,1.2,0.1,1.2,0.1l8.4-2.7c0,0,0.8-0.1,0.8-0.8
				s-0.2-1.6-0.2-1.6S74,91.8,73.2,92s-8.6,2.4-8.6,2.4S64,94.6,64,94.8s0,0.8,0,0.8s0,0.4-0.4,0.5c-0.4,0.1-0.4-0.3-0.4-0.3l0-3.4
				c0,0,0.1-0.4,0.5-0.3c0.4,0.1,0.4,0.6,0.4,0.6s-0.1,0.3,0.5,0.2c0.7-0.1,8.5-2.4,8.5-2.4s0.6-0.1,0.6-0.8c0-0.7-0.2-1.5-0.2-1.5
				s-0.2-0.7-1-0.5s-7.8,2-7.8,2S64,89.9,64,90.1c0,0.2,0.1,0.7,0,0.9C64,91,64.1,91.5,63.1,91.6z"/>
			<path class="st9" d="M65.7,115c0,0,0-0.9,1.2-1.4c1.2-0.4,1.9-0.5,1.9-0.5s0.7,0.3,0.7,1.3c0,1.1-0.1,4.9-0.1,4.9
				s-0.1,1.1-1.5,1.4c-1.3,0.3-2.1,0.1-2.2-0.3C65.7,120.1,65.7,115,65.7,115z"/>
			<path class="st9" d="M80.3,129.4l0.9,0c0.1,0,0.2-0.1,0.2-0.2l-0.1-2.6c0-0.1-0.1-0.2-0.2-0.2l-0.9,0c-0.1,0-0.2,0.1-0.2,0.2
				l0.1,2.6C80,129.3,80.1,129.4,80.3,129.4z"/>
			<path class="st9" d="M80,119.5l0.9,0c0.1,0,0.2-0.1,0.2-0.2l-0.1-2.6c0-0.1-0.1-0.2-0.2-0.2l-0.9,0c-0.1,0-0.2,0.1-0.2,0.2
				l0.1,2.6C79.8,119.4,79.9,119.5,80,119.5z"/>
			<path class="st9" d="M79.8,109.7l0.9,0c0.1,0,0.2-0.1,0.2-0.2l-0.1-2.6c0-0.1-0.1-0.2-0.2-0.2l-0.9,0c-0.1,0-0.2,0.1-0.2,0.2
				l0.1,2.6C79.5,109.6,79.6,109.7,79.8,109.7z"/>
			<path class="st9" d="M79.5,99.2l0.9,0c0.1,0,0.2-0.1,0.2-0.2l-0.1-2.6c0-0.1-0.1-0.2-0.2-0.2l-0.9,0c-0.1,0-0.2,0.1-0.2,0.2
				l0.1,2.6C79.3,99,79.4,99.2,79.5,99.2z"/>
		</g>
		<g>
			<path class="st7" d="M33.4,41l-1.2-0.7c0,0-0.9-0.3-0.9,0.8v45.7c0,1.2,0.7,1.6,0.7,1.6l1.4,0.8"/>
			<path class="st6" d="M33.4,41l-1.2-0.7c0,0-0.9-0.3-0.9,0.8v45.7c0,1.2,0.7,1.6,0.7,1.6l1.4,0.8"/>
			<path class="st7" d="M31.8,84.5c0-0.2,0.3-0.2,0.6,0c0.3,0.2,0.6,0.5,0.6,0.7c0,0.2-0.3,0.2-0.6,0C32.1,85.1,31.8,84.8,31.8,84.5
				"/>
			<path class="st6" d="M31.8,84.5c0-0.2,0.3-0.2,0.6,0c0.3,0.2,0.6,0.5,0.6,0.7c0,0.2-0.3,0.2-0.6,0C32.1,85.1,31.8,84.8,31.8,84.5
				z"/>
			<path class="st7" d="M31.8,70.9c0-0.2,0.3-0.2,0.6,0c0.3,0.2,0.6,0.5,0.6,0.7c0,0.2-0.3,0.2-0.6,0C32.1,71.4,31.8,71.1,31.8,70.9
				"/>
			<path class="st6" d="M31.8,70.9c0-0.2,0.3-0.2,0.6,0c0.3,0.2,0.6,0.5,0.6,0.7c0,0.2-0.3,0.2-0.6,0C32.1,71.4,31.8,71.1,31.8,70.9
				z"/>
			<path class="st7" d="M31.8,57.2c0-0.2,0.3-0.2,0.6,0c0.3,0.2,0.6,0.5,0.6,0.7c0,0.2-0.3,0.2-0.6,0C32.1,57.7,31.8,57.4,31.8,57.2
				"/>
			<path class="st6" d="M31.8,57.2c0-0.2,0.3-0.2,0.6,0c0.3,0.2,0.6,0.5,0.6,0.7c0,0.2-0.3,0.2-0.6,0C32.1,57.7,31.8,57.4,31.8,57.2
				z"/>
			<path class="st7" d="M31.8,43.5c0-0.2,0.3-0.2,0.6,0c0.3,0.2,0.6,0.5,0.6,0.7s-0.3,0.2-0.6,0C32.1,44,31.8,43.7,31.8,43.5"/>
			<path class="st6" d="M31.8,43.5c0-0.2,0.3-0.2,0.6,0c0.3,0.2,0.6,0.5,0.6,0.7s-0.3,0.2-0.6,0C32.1,44,31.8,43.7,31.8,43.5z"/>
			<path class="st7" d="M31.1,52.4l1.5-0.9c0.1,0,0.1-0.1,0.1-0.3c0-0.3-0.2-0.6-0.4-0.7c-0.1-0.1-0.2-0.1-0.3,0l-1.5,0.9
				c0.1,0,0.2,0,0.3,0c0.2,0.1,0.4,0.4,0.4,0.7C31.2,52.3,31.1,52.4,31.1,52.4"/>
			<path class="st6" d="M31.1,52.4l1.5-0.9c0.1,0,0.1-0.1,0.1-0.3c0-0.3-0.2-0.6-0.4-0.7c-0.1-0.1-0.2-0.1-0.3,0l-1.5,0.9
				c0.1,0,0.2,0,0.3,0c0.2,0.1,0.4,0.4,0.4,0.7C31.2,52.3,31.1,52.4,31.1,52.4z"/>
			<path class="st7" d="M30.3,51.9c0.1,0.1,0.2,0.3,0.2,0.4"/>
			<path class="st6" d="M30.3,51.9c0.1,0.1,0.2,0.3,0.2,0.4"/>
			<polyline class="st6" points="30.4,51.5 30.2,51.9 29.8,52 			"/>
			<path class="st7" d="M30.3,52.5c0,0.2-0.1,0.2-0.2,0.1c-0.1-0.1-0.2-0.3-0.2-0.4c0-0.2,0.1-0.2,0.2-0.1
				C30.2,52.1,30.3,52.3,30.3,52.5"/>
			<path class="st6" d="M30.3,52.5c0,0.2-0.1,0.2-0.2,0.1c-0.1-0.1-0.2-0.3-0.2-0.4c0-0.2,0.1-0.2,0.2-0.1
				C30.2,52.1,30.3,52.3,30.3,52.5z"/>
			<polyline class="st6" points="30.3,52.6 30.5,52.4 31,52.4 			"/>
			<path class="st7" d="M31.1,80.1l1.5-0.9c0.1,0,0.1-0.1,0.1-0.3c0-0.3-0.2-0.6-0.4-0.7c-0.1-0.1-0.2-0.1-0.3,0l-1.5,0.9
				c0.1,0,0.2,0,0.3,0c0.2,0.1,0.4,0.4,0.4,0.7C31.2,79.9,31.1,80,31.1,80.1"/>
			<path class="st6" d="M31.1,80.1l1.5-0.9c0.1,0,0.1-0.1,0.1-0.3c0-0.3-0.2-0.6-0.4-0.7c-0.1-0.1-0.2-0.1-0.3,0l-1.5,0.9
				c0.1,0,0.2,0,0.3,0c0.2,0.1,0.4,0.4,0.4,0.7C31.2,79.9,31.1,80,31.1,80.1z"/>
			<path class="st7" d="M30.3,79.6c0.1,0.1,0.2,0.3,0.2,0.4"/>
			<path class="st6" d="M30.3,79.6c0.1,0.1,0.2,0.3,0.2,0.4"/>
			<polyline class="st6" points="30.4,79.1 30.2,79.6 29.8,79.7 			"/>
			<path class="st7" d="M30.3,80.1c0,0.2-0.1,0.2-0.2,0.1c-0.1-0.1-0.2-0.3-0.2-0.4c0-0.2,0.1-0.2,0.2-0.1
				C30.2,79.8,30.3,80,30.3,80.1"/>
			<path class="st6" d="M30.3,80.1c0,0.2-0.1,0.2-0.2,0.1c-0.1-0.1-0.2-0.3-0.2-0.4c0-0.2,0.1-0.2,0.2-0.1
				C30.2,79.8,30.3,80,30.3,80.1z"/>
			<polyline class="st6" points="30.3,80.2 30.5,80 31,80.1 			"/>
			<path class="st6" d="M101.8,128l2.9-1.6c0,0,0.5-0.2,0.5-1.4v-19.6c0-0.8,1-1.3,1-1.3l0.3-0.2c0,0,0.5-0.3,0.5-1.1V92.7
				c0-0.8-0.6-0.7-0.6-0.7l-0.3,0.1c0,0-0.9,0.3-0.9-0.4V79.5c0-0.9-0.7-0.4-0.7-0.4l-2.7,1.5"/>
			<path class="st6" d="M101.8,128.7l1.2,0.7c0,0,0.9,0.3,0.9-0.8V82.9c0-1.2-0.7-1.6-0.7-1.6l-1.4-0.8"/>
			<path class="st6" d="M103.5,84.5c0,0.2-0.3,0.2-0.6,0c-0.3-0.2-0.6-0.5-0.6-0.7c0-0.2,0.3-0.2,0.6,0
				C103.2,83.9,103.5,84.2,103.5,84.5z"/>
			<path class="st6" d="M103.5,98.1c0,0.2-0.3,0.2-0.6,0c-0.3-0.2-0.6-0.5-0.6-0.7c0-0.2,0.3-0.2,0.6,0
				C103.2,97.6,103.5,97.9,103.5,98.1z"/>
			<path class="st6" d="M103.5,111.8c0,0.2-0.3,0.2-0.6,0.1c-0.3-0.2-0.6-0.5-0.6-0.7c0-0.2,0.3-0.2,0.6,0
				C103.2,111.3,103.5,111.6,103.5,111.8z"/>
			<path class="st6" d="M103.5,125.5c0,0.2-0.3,0.2-0.6,0c-0.3-0.2-0.6-0.5-0.6-0.7c0-0.2,0.3-0.2,0.6,0
				C103.2,125,103.5,125.3,103.5,125.5z"/>
			<path class="st6" d="M101.6,92.7l1.5-0.9c0.1,0,0.1-0.1,0.1-0.3c0-0.3-0.2-0.6-0.4-0.7c-0.1-0.1-0.2-0.1-0.3,0l-1.5,0.9
				c0.1,0,0.2,0,0.3,0c0.2,0.1,0.4,0.4,0.4,0.7C101.7,92.5,101.7,92.6,101.6,92.7z"/>
			<path class="st6" d="M100.8,92.2c0.1,0.1,0.2,0.3,0.2,0.4"/>
			<polyline class="st6" points="101,91.7 100.8,92.1 100.4,92.3 			"/>
			<path class="st6" d="M100.8,92.7c0,0.2-0.1,0.2-0.2,0.1c-0.1-0.1-0.2-0.3-0.2-0.4c0-0.2,0.1-0.2,0.2-0.1
				C100.7,92.4,100.8,92.6,100.8,92.7z"/>
			<polyline class="st6" points="100.8,92.8 101.1,92.6 101.6,92.7 			"/>
			<path class="st6" d="M101.6,120.3l1.5-0.9c0.1,0,0.1-0.1,0.1-0.3c0-0.3-0.2-0.6-0.4-0.7c-0.1-0.1-0.2-0.1-0.3,0l-1.5,0.9
				c0.1,0,0.2,0,0.3,0c0.2,0.1,0.4,0.4,0.4,0.7C101.7,120.2,101.7,120.3,101.6,120.3z"/>
			<path class="st6" d="M100.8,119.8c0.1,0.1,0.2,0.3,0.2,0.4"/>
			<polyline class="st6" points="101,119.4 100.8,119.8 100.4,119.9 			"/>
			<path class="st6" d="M100.8,120.4c0,0.2-0.1,0.2-0.2,0.1c-0.1-0.1-0.2-0.3-0.2-0.4c0-0.1,0.1-0.2,0.2-0.1
				C100.7,120,100.8,120.2,100.8,120.4z"/>
			<polyline class="st6" points="100.8,120.5 101.1,120.3 101.6,120.3 			"/>
		</g>
		<line class="st10" x1="20.7" y1="49.1" x2="33.4" y2="44.5"/>
		<line class="st10" x1="20.7" y1="95.7" x2="33.4" y2="91"/>
		<line class="st10" x1="86" y1="88.9" x2="102" y2="82.5"/>
		<line class="st10" x1="86.6" y1="134.2" x2="101.2" y2="128.5"/>
		<g>
			<path class="st6" d="M165.2,74.2c0,0.3-0.4,0.6-0.4,0.6l-6.2,3.6c0,0-0.3,0.2-0.3-0.2v-1l-6.2,3.5c0,0-0.5,0.3-0.5-0.3V67.4
				c0-0.9,0.7-1.1,0.7-1.1l17.7-10.2c0,0,0.7-0.4,0.7,0.3v12.9c0,0.8-0.6,1.1-0.6,1.1l-4.9,2.9C165.2,73.2,165.2,73.7,165.2,74.2z"
				/>
			<path class="st6" d="M152,70.2c0-0.6,0.5-0.8,0.5-0.8l2.6-1.5c0,0,0.4-0.3,0.4,0.4v2.2l-3.5,2V70.2z"/>
			<path class="st6" d="M166.8,61.6c0-0.6,0.5-0.8,0.5-0.8l2.6-1.5c0,0,0.4-0.3,0.4,0.4v2.2l-3.5,2V61.6z"/>
			<path class="st7" d="M166.8,63.7l3.4-2c0,0,0.1,0,0.1,0c0.1,0.1,0.2,0.2,0.2,0.3c0,0.1,0,0.1-0.1,0.1l-3.4,2c0,0,0.1-0.1,0.1-0.1
				c0-0.1-0.1-0.3-0.2-0.3C166.9,63.7,166.9,63.7,166.8,63.7"/>
			<path class="st6" d="M166.8,63.7l3.4-2c0,0,0.1,0,0.1,0c0.1,0.1,0.2,0.2,0.2,0.3c0,0.1,0,0.1-0.1,0.1l-3.4,2c0,0,0.1-0.1,0.1-0.1
				c0-0.1-0.1-0.3-0.2-0.3C166.9,63.7,166.9,63.7,166.8,63.7z"/>
			<path class="st7" d="M167.1,64c0,0.1-0.1,0.2-0.2,0.1c-0.1-0.1-0.2-0.2-0.2-0.3c0-0.1,0.1-0.2,0.2-0.1
				C167.1,63.8,167.1,63.9,167.1,64"/>
			<path class="st6" d="M167.1,64c0,0.1-0.1,0.2-0.2,0.1c-0.1-0.1-0.2-0.2-0.2-0.3c0-0.1,0.1-0.2,0.2-0.1
				C167.1,63.8,167.1,63.9,167.1,64z"/>
			<polyline class="st6" points="168,63 168,62.1 169.2,61.4 169.2,62.3 			"/>
			<polyline class="st6" points="168,63 168.5,63.3 168.5,63.5 			"/>
			<polyline class="st6" points="169.3,62.3 169.8,62.6 169.8,62.8 			"/>
			<path class="st6" d="M164.5,62.1v1.8c0,2.5-1.3,3.2-1.3,3.2l-3.8,2.2c0,0-1.5,0.5-1.5-1.5v-1.9L164.5,62.1z"/>
			<path class="st7" d="M152,72.3l3.4-2c0,0,0.1,0,0.1,0c0.1,0.1,0.2,0.2,0.2,0.3c0,0.1,0,0.1-0.1,0.1l-3.4,2c0,0,0.1-0.1,0.1-0.1
				c0-0.1-0.1-0.3-0.2-0.3C152.1,72.3,152,72.3,152,72.3"/>
			<path class="st6" d="M152,72.3l3.4-2c0,0,0.1,0,0.1,0c0.1,0.1,0.2,0.2,0.2,0.3c0,0.1,0,0.1-0.1,0.1l-3.4,2c0,0,0.1-0.1,0.1-0.1
				c0-0.1-0.1-0.3-0.2-0.3C152.1,72.3,152,72.3,152,72.3z"/>
			<path class="st7" d="M152.3,72.6c0,0.1-0.1,0.2-0.2,0.1c-0.1-0.1-0.2-0.2-0.2-0.3c0-0.1,0.1-0.2,0.2-0.1
				C152.2,72.4,152.3,72.5,152.3,72.6"/>
			<path class="st6" d="M152.3,72.6c0,0.1-0.1,0.2-0.2,0.1c-0.1-0.1-0.2-0.2-0.2-0.3c0-0.1,0.1-0.2,0.2-0.1
				C152.2,72.4,152.3,72.5,152.3,72.6z"/>
			<polyline class="st6" points="153.1,71.6 153.1,70.7 154.3,70 154.3,70.9 			"/>
			<line class="st6" x1="153.1" y1="71.6" x2="153.6" y2="71.9"/>
			<line class="st6" x1="154.4" y1="70.9" x2="154.9" y2="71.2"/>
			<line class="st7" x1="155.9" y1="75.5" x2="156.1" y2="74.9"/>
			<line class="st6" x1="155.9" y1="75.5" x2="156.1" y2="74.9"/>
			<line class="st6" x1="155.9" y1="75.5" x2="156.4" y2="75.2"/>
			<polyline class="st11" points="171.7,66.6 167.4,64.1 170.7,62.2 176.9,65.8 158.5,76.3 152.4,72.8 155.9,70.9 160.2,73.3 			"/>
			<polyline class="st6" points="171.7,66.6 167.4,64.1 170.7,62.2 176.9,65.8 158.5,76.3 152.4,72.8 155.9,70.9 160.2,73.3 			"/>
			<path class="st6" d="M170.8,66.1l1.3-0.8c0,0,0.1-0.2-0.1-0.4c-0.3-0.2-0.6,0-0.6,0l-1.3,0.8"/>
			<path class="st11" d="M157.9,73.4l-0.3-0.2c0,0,0.6-1.3,0.9-1.8c0.4-0.4,0.8-0.6,0.8-0.6l2.3-1.3c0,0,0.6,0.1,0.6,0.6l-1.3,2.4
				l6.4-3.6l1.6-2.8c0,0,0.3-0.7,1-1.1l2.1-1.3c0,0,0.7,0,0.5,0.6l-0.6,1.1l-1.2,0.8l-0.9,1.8l-9.5,5.4l-0.6-0.4l0.1-0.3L157.9,73.4
				z"/>
			<path class="st6" d="M157.6,72.9l-0.4,0.2c0,0-0.1,0.2,0.2,0.4c0.3,0.2,0.5,0.1,0.5,0.1l1.3-0.8"/>
			<path class="st6" d="M159.6,72.6l-1.7,0.8c0,0,0.6-1.1,0.7-1.3c0.4-0.6,0.8-0.9,0.8-0.9l2.4-1.4c0,0,0.4-0.1,0.1,0.5
				c-0.1,0.1-1.1,2.1-1.2,2.3c-0.3,0.6,0,0.5,0,0.5l6.8-4c0,0,0.2-0.1,0.5-0.8c0.1-0.2,1-1.8,1.2-2.2c0.4-0.7,0.8-0.9,0.8-0.9
				l2.2-1.3c0,0,0.3-0.1,0.2,0.2c0,0.1-0.6,1.2-0.6,1.2l-1.1,0.7l-1,1.8"/>
			<path class="st6" d="M157.9,73.4l-0.3-0.3c0,0,0.6-1.1,0.7-1.3c0.4-0.6,0.8-0.9,0.8-0.9l2.4-1.3c0,0,0.4-0.2,0.5,0.3"/>
			<line class="st6" x1="159.3" y1="72.8" x2="159.6" y2="72.6"/>
			<polyline class="st12" points="171.7,66.7 171.4,67.5 161.3,73.3 160.2,73.3 			"/>
			<polyline class="st6" points="171.7,66.7 171.4,67.5 161.3,73.3 160.2,73.3 			"/>
			<line class="st6" x1="171.6" y1="66.7" x2="160.2" y2="73.3"/>
			<path class="st6" d="M160.8,72.6l6.3-3.7c0,0,0.2-0.1,0.5-0.8c0.1-0.2,1-1.8,1.2-2.2c0.4-0.7,0.8-0.9,0.8-0.9l2.2-1.3
				c0,0,0.5-0.1,0.5,0.3"/>
			<line class="st6" x1="159" y1="71" x2="159.4" y2="71.2"/>
			<line class="st6" x1="158.4" y1="71.7" x2="158.7" y2="71.9"/>
			<line class="st6" x1="169.6" y1="65" x2="169.9" y2="65.2"/>
			<line class="st6" x1="169" y1="65.7" x2="169.3" y2="65.9"/>
			<path class="st6" d="M129.9,96.3c0,0.3-0.4,0.6-0.4,0.6l-6.2,3.6c0,0-0.3,0.2-0.3-0.2c0-0.5,0-1,0-1l-6.2,3.5
				c0,0-0.6,0.3-0.6-0.3V89.5c0-0.9,0.7-1.1,0.7-1.1l17.7-10.2c0,0,0.7-0.4,0.7,0.3v12.9c0,0.8-0.6,1.1-0.6,1.1l-4.9,2.9
				C129.9,95.3,129.9,95.8,129.9,96.3z"/>
			<path class="st6" d="M116.7,92.2c0-0.6,0.5-0.8,0.5-0.8l2.6-1.5c0,0,0.4-0.3,0.4,0.4v2.2l-3.5,2V92.2z"/>
			<path class="st6" d="M131.5,83.6c0-0.6,0.5-0.8,0.5-0.8l2.6-1.5c0,0,0.4-0.3,0.4,0.4v2.2l-3.5,2V83.6z"/>
			<path class="st7" d="M131.6,85.8l3.4-2c0,0,0.1,0,0.1,0c0.1,0.1,0.2,0.2,0.2,0.3c0,0.1,0,0.1,0,0.1l-3.4,2c0,0,0.1-0.1,0.1-0.1
				c0-0.1-0.1-0.3-0.2-0.3C131.6,85.8,131.6,85.8,131.6,85.8"/>
			<path class="st6" d="M131.6,85.8l3.4-2c0,0,0.1,0,0.1,0c0.1,0.1,0.2,0.2,0.2,0.3c0,0.1,0,0.1,0,0.1l-3.4,2c0,0,0.1-0.1,0.1-0.1
				c0-0.1-0.1-0.3-0.2-0.3C131.6,85.8,131.6,85.8,131.6,85.8z"/>
			<path class="st7" d="M131.9,86.1c0,0.1-0.1,0.2-0.2,0.1c-0.1-0.1-0.2-0.2-0.2-0.3c0-0.1,0.1-0.2,0.2-0.1
				C131.8,85.9,131.9,86,131.9,86.1"/>
			<path class="st6" d="M131.9,86.1c0,0.1-0.1,0.2-0.2,0.1c-0.1-0.1-0.2-0.2-0.2-0.3c0-0.1,0.1-0.2,0.2-0.1
				C131.8,85.9,131.9,86,131.9,86.1z"/>
			<polyline class="st6" points="132.7,85.1 132.7,84.2 133.9,83.5 133.9,84.4 			"/>
			<polyline class="st6" points="132.7,85.1 133.2,85.4 133.2,85.6 			"/>
			<polyline class="st6" points="134,84.4 134.5,84.7 134.5,84.9 			"/>
			<path class="st6" d="M129.3,84.2V86c0,2.5-1.4,3.2-1.4,3.2l-3.8,2.2c0,0-1.5,0.5-1.5-1.5v-1.9L129.3,84.2z"/>
			<path class="st7" d="M116.7,94.4l3.4-2c0,0,0.1,0,0.1,0c0.1,0.1,0.2,0.2,0.2,0.3c0,0.1,0,0.1,0,0.1l-3.4,2c0,0,0-0.1,0-0.1
				c0-0.1-0.1-0.3-0.2-0.3C116.8,94.4,116.8,94.3,116.7,94.4"/>
			<path class="st6" d="M116.7,94.4l3.4-2c0,0,0.1,0,0.1,0c0.1,0.1,0.2,0.2,0.2,0.3c0,0.1,0,0.1,0,0.1l-3.4,2c0,0,0-0.1,0-0.1
				c0-0.1-0.1-0.3-0.2-0.3C116.8,94.4,116.8,94.3,116.7,94.4z"/>
			<path class="st7" d="M117,94.7c0,0.1-0.1,0.2-0.2,0.1c-0.1-0.1-0.2-0.2-0.2-0.3c0-0.1,0.1-0.2,0.2-0.1
				C117,94.4,117,94.6,117,94.7"/>
			<path class="st6" d="M117,94.7c0,0.1-0.1,0.2-0.2,0.1c-0.1-0.1-0.2-0.2-0.2-0.3c0-0.1,0.1-0.2,0.2-0.1
				C117,94.4,117,94.6,117,94.7z"/>
			<polyline class="st6" points="117.8,93.7 117.8,92.8 119.1,92.1 119.1,93 			"/>
			<line class="st6" x1="117.8" y1="93.7" x2="118.3" y2="94"/>
			<line class="st6" x1="119.1" y1="93" x2="119.6" y2="93.3"/>
			<line class="st7" x1="120.6" y1="97.6" x2="120.9" y2="97"/>
			<line class="st6" x1="120.6" y1="97.6" x2="120.9" y2="97"/>
			<line class="st6" x1="120.6" y1="97.6" x2="121.1" y2="97.2"/>
			<polyline class="st12" points="136.4,88.7 132.1,86.2 135.4,84.3 141.6,87.8 123.2,98.4 117.2,94.9 120.6,92.9 124.9,95.4 			"/>
			<polyline class="st6" points="136.4,88.7 132.1,86.2 135.4,84.3 141.6,87.8 123.2,98.4 117.2,94.9 120.6,92.9 124.9,95.4 			"/>
			<path class="st6" d="M135.6,88.2l1.3-0.8c0,0,0.1-0.2-0.1-0.4c-0.3-0.2-0.6,0-0.6,0l-1.3,0.8"/>
			<path class="st12" d="M122.6,95.5l-0.3-0.2c0,0,0.6-1.3,1-1.8c0.4-0.4,0.7-0.6,0.7-0.6l2.3-1.3c0,0,0.6,0.1,0.6,0.6l-1.3,2.4
				l6.4-3.6l1.6-2.8c0,0,0.2-0.7,1-1.1l2.1-1.3c0,0,0.7-0.1,0.5,0.5l-0.6,1.1l-1.2,0.8l-0.9,1.8l-9.5,5.4l-0.6-0.4l0.1-0.3
				L122.6,95.5z"/>
			<path class="st6" d="M122.3,95l-0.4,0.2c0,0-0.1,0.2,0.2,0.4c0.3,0.2,0.5,0.1,0.5,0.1l1.3-0.8"/>
			<path class="st6" d="M124.3,94.7l-1.7,0.8c0,0,0.6-1.1,0.7-1.3c0.4-0.6,0.8-0.9,0.8-0.9l2.4-1.3c0,0,0.4-0.2,0.2,0.5
				c-0.1,0.1-1.2,2.1-1.2,2.2c-0.3,0.6,0,0.5,0,0.5l6.7-4c0,0,0.2-0.1,0.5-0.8c0.1-0.2,1-1.8,1.2-2.2c0.4-0.7,0.8-0.9,0.8-0.9
				l2.2-1.3c0,0,0.3-0.1,0.2,0.2c0,0.1-0.6,1.2-0.6,1.2l-1.1,0.7l-1,1.8"/>
			<path class="st6" d="M122.6,95.5l-0.3-0.3c0,0,0.6-1.1,0.7-1.3c0.4-0.6,0.8-0.9,0.8-0.9l2.4-1.3c0,0,0.4-0.2,0.5,0.3"/>
			<line class="st6" x1="124" y1="94.9" x2="124.3" y2="94.7"/>
			<polyline class="st12" points="136.4,88.8 136.2,89.6 126,95.4 124.9,95.4 			"/>
			<polyline class="st6" points="136.4,88.8 136.2,89.6 126,95.4 124.9,95.4 			"/>
			<line class="st6" x1="136.3" y1="88.8" x2="125" y2="95.4"/>
			<path class="st6" d="M125.5,94.6l6.4-3.7c0,0,0.2-0.1,0.5-0.8c0.1-0.2,1-1.8,1.2-2.2c0.3-0.7,0.8-0.9,0.8-0.9l2.2-1.3
				c0,0,0.5-0.1,0.5,0.3"/>
			<line class="st6" x1="123.7" y1="93.1" x2="124.1" y2="93.3"/>
			<line class="st6" x1="123.2" y1="93.8" x2="123.5" y2="94"/>
			<line class="st6" x1="134.4" y1="87.1" x2="134.7" y2="87.3"/>
			<line class="st6" x1="133.7" y1="87.8" x2="134" y2="88"/>
			<path class="st13" d="M182.9,68c0,11-8.9,20-20,20c-11,0-20-8.9-20-20s8.9-20,20-20C174,48,182.9,56.9,182.9,68z"/>
			<line class="st10" x1="160.9" y1="48.1" x2="210.2" y2="44.6"/>
			<line class="st10" x1="151.2" y1="84.4" x2="176.9" y2="112.6"/>
			<g>
				<g>
					<defs>
						<path id="SVGID_00000020356643407315284730000010831723086686880187_" d="M252.1,86.5c0,23.1-18.7,41.8-41.8,41.8
							c-23.1,0-41.8-18.7-41.8-41.8c0-23.1,18.7-41.8,41.8-41.8C233.4,44.6,252.1,63.3,252.1,86.5z"/>
					</defs>
					<clipPath id="SVGID_00000061451566585741161240000016447820824482056346_">
						<use xlink:href="#SVGID_00000020356643407315284730000010831723086686880187_"  style="overflow:visible;"/>
					</clipPath>
					<polygon style="clip-path:url(#SVGID_00000061451566585741161240000016447820824482056346_);fill:#D1D3D4;" points="
						-25.4,31.5 117.8,114.4 117.8,226.8 -25.7,143.6 					"/>
					
						<linearGradient id="SVGID_00000120517851266737653090000004177382491857663104_" gradientUnits="userSpaceOnUse" x1="315.4536" y1="-77.1459" x2="147.8331" y2="173.9084">
						<stop  offset="0" style="stop-color:#000000"/>
						<stop  offset="6.285286e-02" style="stop-color:#4C4C4E"/>
						<stop  offset="0.1601" style="stop-color:#75777A"/>
						<stop  offset="0.2621" style="stop-color:#97999C"/>
						<stop  offset="0.3668" style="stop-color:#B5B7B9"/>
						<stop  offset="0.475" style="stop-color:#CFD0D2"/>
						<stop  offset="0.5878" style="stop-color:#E2E3E4"/>
						<stop  offset="0.7072" style="stop-color:#F1F1F2"/>
						<stop  offset="0.8376" style="stop-color:#FAFAFA"/>
						<stop  offset="1" style="stop-color:#FFFFFF"/>
					</linearGradient>
					
						<polygon style="clip-path:url(#SVGID_00000061451566585741161240000016447820824482056346_);fill:url(#SVGID_00000120517851266737653090000004177382491857663104_);" points="
						260.9,4.5 279.2,125.7 122.9,224.1 100.3,96.5 					"/>
					<path style="clip-path:url(#SVGID_00000061451566585741161240000016447820824482056346_);fill:#FFFFFF;" d="M-25.2,42.9
						l-2.4-1.4c0,0-2-0.7-2,1.7v95.4c0,2.6,1.5,3.3,1.5,3.3l2.9,1.7"/>
					
						<path style="clip-path:url(#SVGID_00000061451566585741161240000016447820824482056346_);fill:none;stroke:#000000;stroke-width:0.3352;stroke-linecap:round;stroke-linejoin:round;" d="
						M-25.2,42.9l-2.4-1.4c0,0-2-0.7-2,1.7v95.4c0,2.6,1.5,3.3,1.5,3.3l2.9,1.7"/>
					<path style="clip-path:url(#SVGID_00000061451566585741161240000016447820824482056346_);fill:#FFFFFF;" d="M-28.5,134
						c0-0.5,0.6-0.5,1.2-0.1c0.7,0.4,1.3,1.1,1.3,1.5c0,0.5-0.6,0.5-1.3,0.1C-28,135.1-28.5,134.4-28.5,134"/>
					
						<path style="clip-path:url(#SVGID_00000061451566585741161240000016447820824482056346_);fill:none;stroke:#000000;stroke-width:0.3352;stroke-linecap:round;stroke-linejoin:round;" d="
						M-28.5,134c0-0.5,0.6-0.5,1.2-0.1c0.7,0.4,1.3,1.1,1.3,1.5c0,0.5-0.6,0.5-1.3,0.1C-28,135.1-28.5,134.4-28.5,134z"/>
					<path style="clip-path:url(#SVGID_00000061451566585741161240000016447820824482056346_);fill:#FFFFFF;" d="M-28.5,105.4
						c0-0.5,0.6-0.5,1.2-0.1c0.7,0.4,1.3,1.1,1.3,1.5c0,0.4-0.6,0.5-1.3,0.1C-28,106.5-28.5,105.9-28.5,105.4"/>
					
						<path style="clip-path:url(#SVGID_00000061451566585741161240000016447820824482056346_);fill:none;stroke:#000000;stroke-width:0.3352;stroke-linecap:round;stroke-linejoin:round;" d="
						M-28.5,105.4c0-0.5,0.6-0.5,1.2-0.1c0.7,0.4,1.3,1.1,1.3,1.5c0,0.4-0.6,0.5-1.3,0.1C-28,106.5-28.5,105.9-28.5,105.4z"/>
					<path style="clip-path:url(#SVGID_00000061451566585741161240000016447820824482056346_);fill:#FFFFFF;" d="M-28.5,76.8
						c0-0.5,0.6-0.5,1.2-0.1c0.7,0.4,1.3,1.1,1.3,1.5c0,0.5-0.6,0.5-1.3,0.1C-28,78-28.5,77.3-28.5,76.8"/>
					
						<path style="clip-path:url(#SVGID_00000061451566585741161240000016447820824482056346_);fill:none;stroke:#000000;stroke-width:0.3352;stroke-linecap:round;stroke-linejoin:round;" d="
						M-28.5,76.8c0-0.5,0.6-0.5,1.2-0.1c0.7,0.4,1.3,1.1,1.3,1.5c0,0.5-0.6,0.5-1.3,0.1C-28,78-28.5,77.3-28.5,76.8z"/>
					<path style="clip-path:url(#SVGID_00000061451566585741161240000016447820824482056346_);fill:#FFFFFF;" d="M-28.5,48.2
						c0-0.5,0.6-0.5,1.2-0.1c0.7,0.4,1.3,1.1,1.3,1.5c0,0.5-0.6,0.5-1.3,0.1C-28,49.4-28.5,48.7-28.5,48.2"/>
					
						<path style="clip-path:url(#SVGID_00000061451566585741161240000016447820824482056346_);fill:none;stroke:#000000;stroke-width:0.3352;stroke-linecap:round;stroke-linejoin:round;" d="
						M-28.5,48.2c0-0.5,0.6-0.5,1.2-0.1c0.7,0.4,1.3,1.1,1.3,1.5c0,0.5-0.6,0.5-1.3,0.1C-28,49.4-28.5,48.7-28.5,48.2z"/>
					<path style="clip-path:url(#SVGID_00000061451566585741161240000016447820824482056346_);fill:#FFFFFF;" d="M-30.1,66.9
						l3.1-1.8c0.2-0.1,0.3-0.3,0.3-0.6c0-0.5-0.4-1.2-0.9-1.5c-0.2-0.1-0.4-0.1-0.6-0.1l-3.1,1.8c0.2-0.1,0.4-0.1,0.6,0.1
						c0.5,0.3,0.9,0.9,0.9,1.5C-29.9,66.6-30,66.8-30.1,66.9"/>
					
						<path style="clip-path:url(#SVGID_00000061451566585741161240000016447820824482056346_);fill:none;stroke:#000000;stroke-width:0.3352;stroke-linecap:round;stroke-linejoin:round;" d="
						M-30.1,66.9l3.1-1.8c0.2-0.1,0.3-0.3,0.3-0.6c0-0.5-0.4-1.2-0.9-1.5c-0.2-0.1-0.4-0.1-0.6-0.1l-3.1,1.8
						c0.2-0.1,0.4-0.1,0.6,0.1c0.5,0.3,0.9,0.9,0.9,1.5C-29.9,66.6-30,66.8-30.1,66.9z"/>
					<path style="clip-path:url(#SVGID_00000061451566585741161240000016447820824482056346_);fill:#FFFFFF;" d="M-31.7,65.9
						c0.3,0.2,0.5,0.5,0.5,0.8"/>
					
						<path style="clip-path:url(#SVGID_00000061451566585741161240000016447820824482056346_);fill:none;stroke:#000000;stroke-width:0.3352;stroke-linecap:round;stroke-linejoin:round;" d="
						M-31.7,65.9c0.3,0.2,0.5,0.5,0.5,0.8"/>
					
						<polyline style="clip-path:url(#SVGID_00000061451566585741161240000016447820824482056346_);fill:none;stroke:#000000;stroke-width:0.3352;stroke-linecap:round;stroke-linejoin:round;" points="
						-31.4,64.9 -31.8,65.8 -32.6,66.1 					"/>
					<path style="clip-path:url(#SVGID_00000061451566585741161240000016447820824482056346_);fill:#FFFFFF;" d="M-31.7,67
						c0,0.3-0.2,0.5-0.5,0.3c-0.3-0.2-0.5-0.5-0.5-0.9c0-0.3,0.2-0.5,0.5-0.3C-32,66.3-31.7,66.7-31.7,67"/>
					
						<path style="clip-path:url(#SVGID_00000061451566585741161240000016447820824482056346_);fill:none;stroke:#000000;stroke-width:0.3352;stroke-linecap:round;stroke-linejoin:round;" d="
						M-31.7,67c0,0.3-0.2,0.5-0.5,0.3c-0.3-0.2-0.5-0.5-0.5-0.9c0-0.3,0.2-0.5,0.5-0.3C-32,66.3-31.7,66.7-31.7,67z"/>
					
						<polyline style="clip-path:url(#SVGID_00000061451566585741161240000016447820824482056346_);fill:none;stroke:#000000;stroke-width:0.3352;stroke-linecap:round;stroke-linejoin:round;" points="
						-31.7,67.2 -31.2,66.8 -30.2,66.9 					"/>
					<path style="clip-path:url(#SVGID_00000061451566585741161240000016447820824482056346_);fill:#FFFFFF;" d="M-30.1,124.6
						l3.1-1.8c0.2-0.1,0.3-0.3,0.3-0.6c0-0.5-0.4-1.2-0.9-1.5c-0.2-0.1-0.4-0.1-0.6-0.1l-3.1,1.8c0.2-0.1,0.4-0.1,0.6,0.1
						c0.5,0.3,0.9,0.9,0.9,1.5C-29.9,124.4-30,124.6-30.1,124.6"/>
					
						<path style="clip-path:url(#SVGID_00000061451566585741161240000016447820824482056346_);fill:none;stroke:#000000;stroke-width:0.3352;stroke-linecap:round;stroke-linejoin:round;" d="
						M-30.1,124.6l3.1-1.8c0.2-0.1,0.3-0.3,0.3-0.6c0-0.5-0.4-1.2-0.9-1.5c-0.2-0.1-0.4-0.1-0.6-0.1l-3.1,1.8
						c0.2-0.1,0.4-0.1,0.6,0.1c0.5,0.3,0.9,0.9,0.9,1.5C-29.9,124.4-30,124.6-30.1,124.6z"/>
					<path style="clip-path:url(#SVGID_00000061451566585741161240000016447820824482056346_);fill:#FFFFFF;" d="M-31.7,123.6
						c0.3,0.2,0.5,0.5,0.5,0.8"/>
					
						<path style="clip-path:url(#SVGID_00000061451566585741161240000016447820824482056346_);fill:none;stroke:#000000;stroke-width:0.3352;stroke-linecap:round;stroke-linejoin:round;" d="
						M-31.7,123.6c0.3,0.2,0.5,0.5,0.5,0.8"/>
					
						<polyline style="clip-path:url(#SVGID_00000061451566585741161240000016447820824482056346_);fill:none;stroke:#000000;stroke-width:0.3352;stroke-linecap:round;stroke-linejoin:round;" points="
						-31.4,122.6 -31.8,123.6 -32.6,123.9 					"/>
					<path style="clip-path:url(#SVGID_00000061451566585741161240000016447820824482056346_);fill:#FFFFFF;" d="M-31.7,124.8
						c0,0.3-0.2,0.4-0.5,0.3c-0.3-0.2-0.5-0.6-0.5-0.9c0-0.3,0.2-0.5,0.5-0.3C-32,124.1-31.7,124.5-31.7,124.8"/>
					
						<path style="clip-path:url(#SVGID_00000061451566585741161240000016447820824482056346_);fill:none;stroke:#000000;stroke-width:0.3352;stroke-linecap:round;stroke-linejoin:round;" d="
						M-31.7,124.8c0,0.3-0.2,0.4-0.5,0.3c-0.3-0.2-0.5-0.6-0.5-0.9c0-0.3,0.2-0.5,0.5-0.3C-32,124.1-31.7,124.5-31.7,124.8z"/>
					
						<polyline style="clip-path:url(#SVGID_00000061451566585741161240000016447820824482056346_);fill:none;stroke:#000000;stroke-width:0.3352;stroke-linecap:round;stroke-linejoin:round;" points="
						-31.7,124.9 -31.2,124.6 -30.2,124.7 					"/>
					
						<polyline style="clip-path:url(#SVGID_00000061451566585741161240000016447820824482056346_);fill:none;stroke:#000000;stroke-width:0.3352;stroke-linecap:round;stroke-linejoin:round;" points="
						134,-43.3 278.7,21.7 278.7,125.5 					"/>
					
						<line style="clip-path:url(#SVGID_00000061451566585741161240000016447820824482056346_);fill:none;stroke:#000000;stroke-width:0.3352;stroke-linecap:round;stroke-linejoin:round;" x1="278.7" y1="125.5" x2="117.6" y2="226.2"/>
					
						<line style="clip-path:url(#SVGID_00000061451566585741161240000016447820824482056346_);fill:none;stroke:#000000;stroke-width:0.3352;stroke-linecap:round;stroke-linejoin:round;" x1="-25.2" y1="32.1" x2="134" y2="-43.3"/>
					
						<line style="clip-path:url(#SVGID_00000061451566585741161240000016447820824482056346_);fill:#FFFFFF;" x1="195.5" y1="102.2" x2="196" y2="101.1"/>
					
						<path style="clip-path:url(#SVGID_00000061451566585741161240000016447820824482056346_);fill:none;stroke:#000000;stroke-width:0.3352;stroke-linecap:round;stroke-linejoin:round;" d="
						M117.6,224.8l6-3.3c0,0,1.1-0.4,1.1-3v-40.8c0-1.8,2.1-2.6,2.1-2.6l0.6-0.4c0,0,1.1-0.6,1.1-2.2V151c0-1.8-1.3-1.4-1.3-1.4
						l-0.7,0.1c0,0-1.9,0.6-1.9-0.8v-25.5c0-1.9-1.5-0.9-1.5-0.9l-5.6,3.1"/>
					<path style="clip-path:url(#SVGID_00000061451566585741161240000016447820824482056346_);fill:#FFFFFF;" d="M117.7,226.2
						l2.5,1.5c0,0,2,0.7,2-1.7v-95.5c0-2.6-1.5-3.3-1.5-3.3l-2.9-1.7"/>
					
						<path style="clip-path:url(#SVGID_00000061451566585741161240000016447820824482056346_);fill:none;stroke:#000000;stroke-width:0.3352;stroke-linecap:round;stroke-linejoin:round;" d="
						M117.7,226.2l2.5,1.5c0,0,2,0.7,2-1.7v-95.5c0-2.6-1.5-3.3-1.5-3.3l-2.9-1.7"/>
					<path style="clip-path:url(#SVGID_00000061451566585741161240000016447820824482056346_);fill:#FFFFFF;" d="M121.1,133.8
						c0,0.4-0.6,0.5-1.3,0.1c-0.7-0.4-1.3-1.1-1.3-1.5c0-0.4,0.6-0.5,1.3-0.1C120.6,132.6,121.1,133.3,121.1,133.8"/>
					
						<path style="clip-path:url(#SVGID_00000061451566585741161240000016447820824482056346_);fill:none;stroke:#000000;stroke-width:0.3352;stroke-linecap:round;stroke-linejoin:round;" d="
						M121.1,133.8c0,0.4-0.6,0.5-1.3,0.1c-0.7-0.4-1.3-1.1-1.3-1.5c0-0.4,0.6-0.5,1.3-0.1C120.6,132.6,121.1,133.3,121.1,133.8z"/>
					<path style="clip-path:url(#SVGID_00000061451566585741161240000016447820824482056346_);fill:#FFFFFF;" d="M121.1,162.4
						c0,0.4-0.6,0.5-1.3,0.1c-0.7-0.4-1.3-1.1-1.3-1.5c0-0.4,0.6-0.5,1.3-0.1C120.6,161.2,121.1,161.9,121.1,162.4"/>
					
						<path style="clip-path:url(#SVGID_00000061451566585741161240000016447820824482056346_);fill:none;stroke:#000000;stroke-width:0.3352;stroke-linecap:round;stroke-linejoin:round;" d="
						M121.1,162.4c0,0.4-0.6,0.5-1.3,0.1c-0.7-0.4-1.3-1.1-1.3-1.5c0-0.4,0.6-0.5,1.3-0.1C120.6,161.2,121.1,161.9,121.1,162.4z"/>
					<path style="clip-path:url(#SVGID_00000061451566585741161240000016447820824482056346_);fill:#FFFFFF;" d="M121.1,192.3
						c0,0.5-0.6,0.5-1.3,0.1c-0.7-0.4-1.3-1.1-1.3-1.5c0-0.5,0.6-0.5,1.3-0.1C120.6,191.2,121.1,191.9,121.1,192.3"/>
					
						<path style="clip-path:url(#SVGID_00000061451566585741161240000016447820824482056346_);fill:none;stroke:#000000;stroke-width:0.3352;stroke-linecap:round;stroke-linejoin:round;" d="
						M121.1,192.3c0,0.5-0.6,0.5-1.3,0.1c-0.7-0.4-1.3-1.1-1.3-1.5c0-0.5,0.6-0.5,1.3-0.1C120.6,191.2,121.1,191.9,121.1,192.3z"/>
					<path style="clip-path:url(#SVGID_00000061451566585741161240000016447820824482056346_);fill:#FFFFFF;" d="M121.1,216.7
						c0,0.5-0.6,0.5-1.3,0.1c-0.7-0.4-1.3-1.1-1.3-1.5c0-0.5,0.6-0.5,1.3-0.1C120.6,215.5,121.1,216.2,121.1,216.7"/>
					
						<path style="clip-path:url(#SVGID_00000061451566585741161240000016447820824482056346_);fill:none;stroke:#000000;stroke-width:0.3352;stroke-linecap:round;stroke-linejoin:round;" d="
						M121.1,216.7c0,0.5-0.6,0.5-1.3,0.1c-0.7-0.4-1.3-1.1-1.3-1.5c0-0.5,0.6-0.5,1.3-0.1C120.6,215.5,121.1,216.2,121.1,216.7z"/>
					
						<line style="clip-path:url(#SVGID_00000061451566585741161240000016447820824482056346_);fill:none;stroke:#000000;stroke-width:0.3352;stroke-linecap:round;stroke-linejoin:round;" x1="20.5" y1="115.1" x2="-20" y2="91.8"/>
					
						<line style="clip-path:url(#SVGID_00000061451566585741161240000016447820824482056346_);fill:none;stroke:#000000;stroke-width:0.3352;stroke-linecap:round;stroke-linejoin:round;" x1="20.5" y1="114" x2="-20" y2="90.6"/>
					
						<line style="clip-path:url(#SVGID_00000061451566585741161240000016447820824482056346_);fill:none;stroke:#000000;stroke-width:0.3352;stroke-linecap:round;stroke-linejoin:round;" x1="112.3" y1="223" x2="112.3" y2="111.7"/>
					
						<polygon style="clip-path:url(#SVGID_00000061451566585741161240000016447820824482056346_);fill:none;stroke:#000000;stroke-width:0.3352;stroke-linecap:round;stroke-linejoin:round;" points="
						-25.2,32.1 117.6,114.6 117.6,226.2 -25.2,143.7 					"/>
					
						<line style="clip-path:url(#SVGID_00000061451566585741161240000016447820824482056346_);fill:none;stroke:#000000;stroke-width:0.3352;stroke-linecap:round;stroke-linejoin:round;" x1="-20.1" y1="41.7" x2="20.3" y2="65.1"/>
					
						<line style="clip-path:url(#SVGID_00000061451566585741161240000016447820824482056346_);fill:none;stroke:#000000;stroke-width:0.3352;stroke-linecap:round;stroke-linejoin:round;" x1="25.8" y1="68.3" x2="66.2" y2="91.6"/>
					
						<line style="clip-path:url(#SVGID_00000061451566585741161240000016447820824482056346_);fill:none;stroke:#000000;stroke-width:0.3352;stroke-linecap:round;stroke-linejoin:round;" x1="-20.1" y1="98.6" x2="20.2" y2="121.9"/>
					
						<line style="clip-path:url(#SVGID_00000061451566585741161240000016447820824482056346_);fill:none;stroke:#000000;stroke-width:0.3352;stroke-linecap:round;stroke-linejoin:round;" x1="71.7" y1="94.8" x2="111.9" y2="117.9"/>
					
						<line style="clip-path:url(#SVGID_00000061451566585741161240000016447820824482056346_);fill:none;stroke:#000000;stroke-width:0.3352;stroke-linecap:round;stroke-linejoin:round;" x1="25.6" y1="125" x2="66.2" y2="148.5"/>
					
						<line style="clip-path:url(#SVGID_00000061451566585741161240000016447820824482056346_);fill:none;stroke:#000000;stroke-width:0.3352;stroke-linecap:round;stroke-linejoin:round;" x1="71.6" y1="151.6" x2="111.9" y2="174.8"/>
					
						<line style="clip-path:url(#SVGID_00000061451566585741161240000016447820824482056346_);fill:none;stroke:#000000;stroke-width:0.3352;stroke-linecap:round;stroke-linejoin:round;" x1="-20" y1="35.3" x2="-20" y2="146.7"/>
					
						<line style="clip-path:url(#SVGID_00000061451566585741161240000016447820824482056346_);fill:none;stroke:#000000;stroke-width:0.3352;stroke-linecap:round;stroke-linejoin:round;" x1="20.5" y1="170" x2="20.5" y2="58.6"/>
					
						<line style="clip-path:url(#SVGID_00000061451566585741161240000016447820824482056346_);fill:none;stroke:#000000;stroke-width:0.3352;stroke-linecap:round;stroke-linejoin:round;" x1="25.8" y1="61.5" x2="25.8" y2="173.1"/>
					
						<line style="clip-path:url(#SVGID_00000061451566585741161240000016447820824482056346_);fill:none;stroke:#000000;stroke-width:0.3352;stroke-linecap:round;stroke-linejoin:round;" x1="66.4" y1="196.5" x2="66.4" y2="85.4"/>
					
						<line style="clip-path:url(#SVGID_00000061451566585741161240000016447820824482056346_);fill:none;stroke:#000000;stroke-width:0.3352;stroke-linecap:round;stroke-linejoin:round;" x1="71.7" y1="88.2" x2="71.7" y2="199.6"/>
					<path style="clip-path:url(#SVGID_00000061451566585741161240000016447820824482056346_);fill:#FFFFFF;" d="M117.2,150.9
						l3.1-1.8c0.2-0.1,0.2-0.3,0.2-0.6c0-0.5-0.4-1.2-0.8-1.5c-0.2-0.1-0.4-0.1-0.6-0.1l-3.1,1.8c0.2-0.1,0.4-0.1,0.6,0.1
						c0.5,0.3,0.8,0.9,0.8,1.5C117.5,150.6,117.4,150.8,117.2,150.9"/>
					
						<path style="clip-path:url(#SVGID_00000061451566585741161240000016447820824482056346_);fill:none;stroke:#000000;stroke-width:0.3352;stroke-linecap:round;stroke-linejoin:round;" d="
						M117.2,150.9l3.1-1.8c0.2-0.1,0.2-0.3,0.2-0.6c0-0.5-0.4-1.2-0.8-1.5c-0.2-0.1-0.4-0.1-0.6-0.1l-3.1,1.8
						c0.2-0.1,0.4-0.1,0.6,0.1c0.5,0.3,0.8,0.9,0.8,1.5C117.5,150.6,117.4,150.8,117.2,150.9z"/>
					<path style="clip-path:url(#SVGID_00000061451566585741161240000016447820824482056346_);fill:#FFFFFF;" d="M115.6,149.9
						c0.3,0.2,0.5,0.5,0.5,0.8"/>
					
						<path style="clip-path:url(#SVGID_00000061451566585741161240000016447820824482056346_);fill:none;stroke:#000000;stroke-width:0.3352;stroke-linecap:round;stroke-linejoin:round;" d="
						M115.6,149.9c0.3,0.2,0.5,0.5,0.5,0.8"/>
					
						<polyline style="clip-path:url(#SVGID_00000061451566585741161240000016447820824482056346_);fill:none;stroke:#000000;stroke-width:0.3352;stroke-linecap:round;stroke-linejoin:round;" points="
						116,148.9 115.6,149.8 114.7,150.1 					"/>
					<path style="clip-path:url(#SVGID_00000061451566585741161240000016447820824482056346_);fill:#FFFFFF;" d="M115.6,151
						c0,0.3-0.2,0.5-0.5,0.3c-0.3-0.2-0.5-0.6-0.5-0.9c0-0.3,0.2-0.5,0.5-0.3C115.4,150.3,115.6,150.7,115.6,151"/>
					
						<path style="clip-path:url(#SVGID_00000061451566585741161240000016447820824482056346_);fill:none;stroke:#000000;stroke-width:0.3352;stroke-linecap:round;stroke-linejoin:round;" d="
						M115.6,151c0,0.3-0.2,0.5-0.5,0.3c-0.3-0.2-0.5-0.6-0.5-0.9c0-0.3,0.2-0.5,0.5-0.3C115.4,150.3,115.6,150.7,115.6,151z"/>
					
						<polyline style="clip-path:url(#SVGID_00000061451566585741161240000016447820824482056346_);fill:none;stroke:#000000;stroke-width:0.3352;stroke-linecap:round;stroke-linejoin:round;" points="
						115.6,151.2 116.1,150.8 117.1,151 					"/>
					<path style="clip-path:url(#SVGID_00000061451566585741161240000016447820824482056346_);fill:#FFFFFF;" d="M117.2,205.8
						l3.1-1.8c0.2-0.1,0.2-0.3,0.2-0.6c0-0.5-0.4-1.2-0.8-1.5c-0.2-0.1-0.4-0.2-0.6-0.1l-3.1,1.8c0.2-0.1,0.4-0.1,0.6,0.1
						c0.5,0.3,0.8,0.9,0.8,1.5C117.5,205.5,117.4,205.7,117.2,205.8"/>
					
						<path style="clip-path:url(#SVGID_00000061451566585741161240000016447820824482056346_);fill:none;stroke:#000000;stroke-width:0.3352;stroke-linecap:round;stroke-linejoin:round;" d="
						M117.2,205.8l3.1-1.8c0.2-0.1,0.2-0.3,0.2-0.6c0-0.5-0.4-1.2-0.8-1.5c-0.2-0.1-0.4-0.2-0.6-0.1l-3.1,1.8
						c0.2-0.1,0.4-0.1,0.6,0.1c0.5,0.3,0.8,0.9,0.8,1.5C117.5,205.5,117.4,205.7,117.2,205.8z"/>
					<path style="clip-path:url(#SVGID_00000061451566585741161240000016447820824482056346_);fill:#FFFFFF;" d="M115.6,204.8
						c0.3,0.2,0.5,0.5,0.5,0.8"/>
					
						<path style="clip-path:url(#SVGID_00000061451566585741161240000016447820824482056346_);fill:none;stroke:#000000;stroke-width:0.3352;stroke-linecap:round;stroke-linejoin:round;" d="
						M115.6,204.8c0.3,0.2,0.5,0.5,0.5,0.8"/>
					
						<polyline style="clip-path:url(#SVGID_00000061451566585741161240000016447820824482056346_);fill:none;stroke:#000000;stroke-width:0.3352;stroke-linecap:round;stroke-linejoin:round;" points="
						116,203.8 115.6,204.7 114.7,205 					"/>
					<path style="clip-path:url(#SVGID_00000061451566585741161240000016447820824482056346_);fill:#FFFFFF;" d="M115.6,205.9
						c0,0.3-0.2,0.4-0.5,0.3c-0.3-0.2-0.5-0.6-0.5-0.9c0-0.3,0.2-0.4,0.5-0.3C115.4,205.2,115.6,205.6,115.6,205.9"/>
					
						<path style="clip-path:url(#SVGID_00000061451566585741161240000016447820824482056346_);fill:none;stroke:#000000;stroke-width:0.3352;stroke-linecap:round;stroke-linejoin:round;" d="
						M115.6,205.9c0,0.3-0.2,0.4-0.5,0.3c-0.3-0.2-0.5-0.6-0.5-0.9c0-0.3,0.2-0.4,0.5-0.3C115.4,205.2,115.6,205.6,115.6,205.9z"/>
					
						<polyline style="clip-path:url(#SVGID_00000061451566585741161240000016447820824482056346_);fill:none;stroke:#000000;stroke-width:0.3352;stroke-linecap:round;stroke-linejoin:round;" points="
						115.6,206.1 116.1,205.7 117.1,205.8 					"/>
					
						<line style="clip-path:url(#SVGID_00000061451566585741161240000016447820824482056346_);fill:none;stroke:#000000;stroke-width:0.3352;stroke-linecap:round;stroke-linejoin:round;" x1="66.4" y1="141.6" x2="25.8" y2="118.2"/>
					
						<line style="clip-path:url(#SVGID_00000061451566585741161240000016447820824482056346_);fill:none;stroke:#000000;stroke-width:0.3352;stroke-linecap:round;stroke-linejoin:round;" x1="66.4" y1="140.5" x2="25.7" y2="117"/>
					
						<line style="clip-path:url(#SVGID_00000061451566585741161240000016447820824482056346_);fill:none;stroke:#000000;stroke-width:0.3352;stroke-linecap:round;stroke-linejoin:round;" x1="112.2" y1="168.1" x2="71.7" y2="144.7"/>
					
						<line style="clip-path:url(#SVGID_00000061451566585741161240000016447820824482056346_);fill:none;stroke:#000000;stroke-width:0.3352;stroke-linecap:round;stroke-linejoin:round;" x1="112.2" y1="166.9" x2="71.7" y2="143.5"/>
					
						<path style="clip-path:url(#SVGID_00000061451566585741161240000016447820824482056346_);fill:none;stroke:#000000;stroke-width:0.3352;stroke-linecap:round;stroke-linejoin:round;" d="
						M154.3,134.6c0,0.7-0.8,1.3-0.8,1.3l-13,7.5c0,0-0.7,0.5-0.7-0.5s0-2,0-2l-12.9,7.4c0,0-1.1,0.7-1.1-0.7v-27.1
						c0-1.9,1.4-2.4,1.4-2.4l37-21.4c0,0,1.6-0.8,1.6,0.6v27c0,1.6-1.2,2.3-1.2,2.3l-10.2,6C154.4,132.5,154.3,133.5,154.3,134.6z"
						/>
					
						<path style="clip-path:url(#SVGID_00000061451566585741161240000016447820824482056346_);fill:none;stroke:#000000;stroke-width:0.3352;stroke-linecap:round;stroke-linejoin:round;" d="
						M126.6,126.2c0-1.3,1-1.7,1-1.7l5.5-3.2c0,0,0.8-0.6,0.8,0.8v4.7l-7.4,4.3V126.2z"/>
					
						<path style="clip-path:url(#SVGID_00000061451566585741161240000016447820824482056346_);fill:none;stroke:#000000;stroke-width:0.3352;stroke-linecap:round;stroke-linejoin:round;" d="
						M157.8,108.2c0-1.3,1-1.7,1-1.7l5.5-3.2c0,0,0.8-0.6,0.8,0.8v4.7l-7.4,4.3V108.2z"/>
					<path style="clip-path:url(#SVGID_00000061451566585741161240000016447820824482056346_);fill:#FFFFFF;" d="M157.8,112.7
						l7.2-4.1c0.1,0,0.2,0,0.3,0c0.2,0.1,0.4,0.4,0.4,0.7c0,0.1,0,0.2-0.1,0.2l-7.2,4.1c0.1,0,0.1-0.1,0.1-0.2
						c0-0.2-0.2-0.5-0.4-0.6C158,112.6,157.9,112.6,157.8,112.7"/>
					
						<path style="clip-path:url(#SVGID_00000061451566585741161240000016447820824482056346_);fill:none;stroke:#000000;stroke-width:0.3352;stroke-linecap:round;stroke-linejoin:round;" d="
						M157.8,112.7l7.2-4.1c0.1,0,0.2,0,0.3,0c0.2,0.1,0.4,0.4,0.4,0.7c0,0.1,0,0.2-0.1,0.2l-7.2,4.1c0.1,0,0.1-0.1,0.1-0.2
						c0-0.2-0.2-0.5-0.4-0.6C158,112.6,157.9,112.6,157.8,112.7z"/>
					<path style="clip-path:url(#SVGID_00000061451566585741161240000016447820824482056346_);fill:#FFFFFF;" d="M158.4,113.3
						c0,0.2-0.2,0.3-0.4,0.2c-0.2-0.1-0.4-0.4-0.4-0.7c0-0.2,0.2-0.3,0.4-0.2C158.3,112.8,158.4,113.1,158.4,113.3"/>
					
						<path style="clip-path:url(#SVGID_00000061451566585741161240000016447820824482056346_);fill:none;stroke:#000000;stroke-width:0.3352;stroke-linecap:round;stroke-linejoin:round;" d="
						M158.4,113.3c0,0.2-0.2,0.3-0.4,0.2c-0.2-0.1-0.4-0.4-0.4-0.7c0-0.2,0.2-0.3,0.4-0.2C158.3,112.8,158.4,113.1,158.4,113.3z"/>
					
						<polyline style="clip-path:url(#SVGID_00000061451566585741161240000016447820824482056346_);fill:none;stroke:#000000;stroke-width:0.3352;stroke-linecap:round;stroke-linejoin:round;" points="
						160.2,111.2 160.2,109.3 162.8,107.8 162.8,109.8 					"/>
					
						<polyline style="clip-path:url(#SVGID_00000061451566585741161240000016447820824482056346_);fill:none;stroke:#000000;stroke-width:0.3352;stroke-linecap:round;stroke-linejoin:round;" points="
						160.2,111.2 161.3,111.8 161.3,112.3 					"/>
					
						<polyline style="clip-path:url(#SVGID_00000061451566585741161240000016447820824482056346_);fill:none;stroke:#000000;stroke-width:0.3352;stroke-linecap:round;stroke-linejoin:round;" points="
						162.9,109.7 164,110.4 164,110.8 					"/>
					
						<path style="clip-path:url(#SVGID_00000061451566585741161240000016447820824482056346_);fill:none;stroke:#000000;stroke-width:0.3352;stroke-linecap:round;stroke-linejoin:round;" d="
						M153,109.3v3.7c0,5.3-2.8,6.7-2.8,6.7l-8,4.7c0,0-3.2,1.1-3.2-3.2v-4L153,109.3z"/>
					<path style="clip-path:url(#SVGID_00000061451566585741161240000016447820824482056346_);fill:#FFFFFF;" d="M126.7,130.6
						l7.2-4.1c0.1,0,0.2,0,0.3,0c0.2,0.1,0.4,0.4,0.4,0.7c0,0.1,0,0.2-0.1,0.2l-7.2,4.1c0.1,0,0.1-0.1,0.1-0.2
						c0-0.2-0.2-0.5-0.4-0.6C126.9,130.6,126.8,130.6,126.7,130.6"/>
					
						<path style="clip-path:url(#SVGID_00000061451566585741161240000016447820824482056346_);fill:none;stroke:#000000;stroke-width:0.3352;stroke-linecap:round;stroke-linejoin:round;" d="
						M126.7,130.6l7.2-4.1c0.1,0,0.2,0,0.3,0c0.2,0.1,0.4,0.4,0.4,0.7c0,0.1,0,0.2-0.1,0.2l-7.2,4.1c0.1,0,0.1-0.1,0.1-0.2
						c0-0.2-0.2-0.5-0.4-0.6C126.9,130.6,126.8,130.6,126.7,130.6z"/>
					<path style="clip-path:url(#SVGID_00000061451566585741161240000016447820824482056346_);fill:#FFFFFF;" d="M127.4,131.3
						c0,0.2-0.2,0.3-0.4,0.2c-0.2-0.1-0.4-0.4-0.4-0.6c0-0.2,0.2-0.3,0.4-0.2C127.2,130.8,127.4,131.1,127.4,131.3"/>
					
						<path style="clip-path:url(#SVGID_00000061451566585741161240000016447820824482056346_);fill:none;stroke:#000000;stroke-width:0.3352;stroke-linecap:round;stroke-linejoin:round;" d="
						M127.4,131.3c0,0.2-0.2,0.3-0.4,0.2c-0.2-0.1-0.4-0.4-0.4-0.6c0-0.2,0.2-0.3,0.4-0.2C127.2,130.8,127.4,131.1,127.4,131.3z"/>
					
						<polyline style="clip-path:url(#SVGID_00000061451566585741161240000016447820824482056346_);fill:none;stroke:#000000;stroke-width:0.3352;stroke-linecap:round;stroke-linejoin:round;" points="
						129,129.2 129,127.3 131.6,125.9 131.6,127.8 					"/>
					
						<line style="clip-path:url(#SVGID_00000061451566585741161240000016447820824482056346_);fill:none;stroke:#000000;stroke-width:0.3352;stroke-linecap:round;stroke-linejoin:round;" x1="129" y1="129.2" x2="130.1" y2="129.8"/>
					
						<line style="clip-path:url(#SVGID_00000061451566585741161240000016447820824482056346_);fill:none;stroke:#000000;stroke-width:0.3352;stroke-linecap:round;stroke-linejoin:round;" x1="131.7" y1="127.7" x2="132.8" y2="128.4"/>
					
						<line style="clip-path:url(#SVGID_00000061451566585741161240000016447820824482056346_);fill:#FFFFFF;" x1="134.8" y1="137.3" x2="135.4" y2="136.2"/>
					
						<line style="clip-path:url(#SVGID_00000061451566585741161240000016447820824482056346_);fill:none;stroke:#000000;stroke-width:0.3352;stroke-linecap:round;stroke-linejoin:round;" x1="134.8" y1="137.3" x2="135.4" y2="136.2"/>
					
						<line style="clip-path:url(#SVGID_00000061451566585741161240000016447820824482056346_);fill:none;stroke:#000000;stroke-width:0.3352;stroke-linecap:round;stroke-linejoin:round;" x1="134.8" y1="137.3" x2="135.9" y2="136.7"/>
					<polyline style="clip-path:url(#SVGID_00000061451566585741161240000016447820824482056346_);fill:#F1F2F2;" points="
						167.9,118.8 158.9,113.6 165.8,109.5 178.8,116.9 140.2,139 127.6,131.8 134.8,127.6 143.9,132.8 					"/>
					
						<polyline style="clip-path:url(#SVGID_00000061451566585741161240000016447820824482056346_);fill:none;stroke:#000000;stroke-width:0.3352;stroke-linecap:round;stroke-linejoin:round;" points="
						167.9,118.8 158.9,113.6 165.8,109.5 178.8,116.9 140.2,139 127.6,131.8 134.8,127.6 143.9,132.8 					"/>
					
						<path style="clip-path:url(#SVGID_00000061451566585741161240000016447820824482056346_);fill:none;stroke:#000000;stroke-width:0.3352;stroke-linecap:round;stroke-linejoin:round;" d="
						M166.2,117.8l2.7-1.6c0,0,0.2-0.5-0.3-0.8c-0.6-0.4-1.2-0.1-1.2-0.1l-2.7,1.6"/>
					<path style="clip-path:url(#SVGID_00000061451566585741161240000016447820824482056346_);fill:#F1F2F2;" d="M139,132.9
						l-0.6-0.5c0,0,1.2-2.8,2-3.7c0.8-0.9,1.6-1.2,1.6-1.2l4.7-2.7c0,0,1.3,0.3,1.2,1.2l-2.7,4.9l13.3-7.6l3.3-5.9
						c0,0,0.5-1.5,2.1-2.3l4.4-2.7c0,0,1.4-0.1,1.1,1.2l-1.2,2.3l-2.5,1.7l-1.9,3.7l-19.9,11.4l-1.3-0.9l0.3-0.6L139,132.9z"/>
					
						<path style="clip-path:url(#SVGID_00000061451566585741161240000016447820824482056346_);fill:none;stroke:#000000;stroke-width:0.3352;stroke-linecap:round;stroke-linejoin:round;" d="
						M138.5,132l-0.8,0.4c0,0-0.2,0.4,0.4,0.7c0.6,0.4,1.1,0.1,1.1,0.1l2.8-1.6"/>
					
						<path style="clip-path:url(#SVGID_00000061451566585741161240000016447820824482056346_);fill:none;stroke:#000000;stroke-width:0.3352;stroke-linecap:round;stroke-linejoin:round;" d="
						M142.5,131.3l-3.5,1.7c0,0,1.2-2.2,1.5-2.8c0.7-1.3,1.8-1.8,1.8-1.8l5-2.8c0,0,0.9-0.3,0.3,1c-0.1,0.3-2.4,4.5-2.5,4.7
						c-0.7,1.3-0.1,0.9-0.1,0.9l14.1-8.3c0,0,0.3-0.2,1.1-1.7c0.3-0.5,2-3.8,2.4-4.6c0.8-1.5,1.7-1.9,1.7-1.9l4.7-2.8
						c0,0,0.7-0.3,0.4,0.4c-0.1,0.2-1.3,2.5-1.3,2.5l-2.4,1.5l-2.1,3.7"/>
					
						<path style="clip-path:url(#SVGID_00000061451566585741161240000016447820824482056346_);fill:none;stroke:#000000;stroke-width:0.3352;stroke-linecap:round;stroke-linejoin:round;" d="
						M139.1,133l-0.7-0.6c0,0,1.2-2.2,1.5-2.8c0.7-1.3,1.7-1.8,1.7-1.8l5-2.8c0,0,0.8-0.3,1.1,0.7"/>
					
						<line style="clip-path:url(#SVGID_00000061451566585741161240000016447820824482056346_);fill:none;stroke:#000000;stroke-width:0.3352;stroke-linecap:round;stroke-linejoin:round;" x1="141.9" y1="131.8" x2="142.5" y2="131.3"/>
					<polyline style="clip-path:url(#SVGID_00000061451566585741161240000016447820824482056346_);fill:#F1F2F2;" points="
						167.9,118.9 167.4,120.5 146.2,132.8 143.9,132.8 					"/>
					
						<polyline style="clip-path:url(#SVGID_00000061451566585741161240000016447820824482056346_);fill:none;stroke:#000000;stroke-width:0.3352;stroke-linecap:round;stroke-linejoin:round;" points="
						167.9,118.9 167.4,120.5 146.2,132.8 143.9,132.8 					"/>
					
						<line style="clip-path:url(#SVGID_00000061451566585741161240000016447820824482056346_);fill:none;stroke:#000000;stroke-width:0.3352;stroke-linecap:round;stroke-linejoin:round;" x1="167.8" y1="119" x2="144" y2="132.7"/>
					
						<path style="clip-path:url(#SVGID_00000061451566585741161240000016447820824482056346_);fill:none;stroke:#000000;stroke-width:0.3352;stroke-linecap:round;stroke-linejoin:round;" d="
						M145.2,131.2l13.3-7.8c0,0,0.4-0.3,1.1-1.7c0.3-0.5,2-3.8,2.4-4.6c0.7-1.4,1.7-1.9,1.7-1.9l4.7-2.8c0,0,1-0.2,1.1,0.7"/>
					
						<line style="clip-path:url(#SVGID_00000061451566585741161240000016447820824482056346_);fill:none;stroke:#000000;stroke-width:0.3352;stroke-linecap:round;stroke-linejoin:round;" x1="141.4" y1="128" x2="142.2" y2="128.4"/>
					
						<line style="clip-path:url(#SVGID_00000061451566585741161240000016447820824482056346_);fill:none;stroke:#000000;stroke-width:0.3352;stroke-linecap:round;stroke-linejoin:round;" x1="140.2" y1="129.5" x2="140.8" y2="129.8"/>
					
						<line style="clip-path:url(#SVGID_00000061451566585741161240000016447820824482056346_);fill:none;stroke:#000000;stroke-width:0.3352;stroke-linecap:round;stroke-linejoin:round;" x1="163.7" y1="115.4" x2="164.3" y2="115.7"/>
					
						<line style="clip-path:url(#SVGID_00000061451566585741161240000016447820824482056346_);fill:none;stroke:#000000;stroke-width:0.3352;stroke-linecap:round;stroke-linejoin:round;" x1="162.2" y1="116.8" x2="162.9" y2="117.2"/>
					
						<use xlink:href="#SVGID_00000020356643407315284730000010831723086686880187_"  style="overflow:visible;fill:none;stroke:#6D6E71;stroke-width:0.1999;"/>
				</g>
				<g>
					<path class="st19" d="M217.6,99.7c0,0.8-0.9,1.5-0.9,1.5l-14.7,8.5c0,0-0.8,0.5-0.8-0.5c0-1.1,0-2.3,0-2.3l-14.6,8.3
						c0,0-1.3,0.8-1.3-0.8V83.7c0-2.2,1.6-2.7,1.6-2.7l41.9-24.2c0,0,1.8-0.9,1.8,0.6c0,1.5,0,28.7,0,30.6c0,1.8-1.4,2.6-1.4,2.6
						l-11.5,6.8C217.6,97.4,217.6,98.5,217.6,99.7z"/>
					<path class="st19" d="M216,71.1v4.2c0,6-3.2,7.5-3.2,7.5l-9,5.3c0,0-3.6,1.3-3.6-3.6V80L216,71.1z"/>
					<polygon class="st20" points="229.9,88.9 229.9,71.9 221.5,76.8 221.5,88.4 194.6,103.9 194.6,92.3 186.2,97.2 186.2,114.1 
											"/>
					<polyline class="st21" points="221.5,88.4 220.9,91.4 196.9,105.3 194.6,103.9 					"/>
					<path class="st20" d="M191.8,84.9l3.4-2v19.8l25.7-14.9V68l3.5-2v-3.3c0-1.2-1.3-0.4-1.3-0.4l-3.9,2.3c0,0-2.3,0.9-2.3,4.5v6.3
						c0,6.7-3.6,8.4-3.6,8.4l-10,5.9c0,0-4,1.3-4-4v-6.7c0-3.5-2.7-1.6-2.7-1.6l-3.7,2.1c0,0-1.2,0.6-1.2,2.1V84.9"/>
					<polygon class="st21" points="196.8,100.7 195.2,101.7 195.2,102.7 196.8,101.8 					"/>
					<polygon class="st21" points="220.8,86.8 219.2,87.7 219.2,88.8 220.8,87.9 					"/>
					<path class="st19" d="M186.2,90.2c0-1.4,1.2-1.9,1.2-1.9l6.2-3.6c0,0,0.9-0.7,0.9,0.9v5.3l-8.3,4.8V90.2z"/>
					<path class="st19" d="M221.4,69.8c0-1.4,1.2-1.9,1.2-1.9l6.2-3.6c0,0,0.9-0.7,0.9,0.9v5.3l-8.3,4.8V69.8z"/>
					<path class="st12" d="M221.5,74.9l8.1-4.7c0.1,0,0.2,0,0.3,0c0.2,0.1,0.4,0.5,0.4,0.7c0,0.1,0,0.2-0.1,0.3l-8.1,4.7
						c0.1,0,0.1-0.1,0.1-0.3c0-0.3-0.2-0.6-0.4-0.7C221.7,74.8,221.6,74.8,221.5,74.9"/>
					<path class="st19" d="M221.5,74.9l8.1-4.7c0.1,0,0.2,0,0.3,0c0.2,0.1,0.4,0.5,0.4,0.7c0,0.1,0,0.2-0.1,0.3l-8.1,4.7
						c0.1,0,0.1-0.1,0.1-0.3c0-0.3-0.2-0.6-0.4-0.7C221.7,74.8,221.6,74.8,221.5,74.9z"/>
					<path class="st7" d="M222.2,75.6c0,0.3-0.2,0.4-0.4,0.2c-0.2-0.1-0.4-0.5-0.4-0.7c0-0.3,0.2-0.4,0.4-0.2
						C222,75,222.2,75.4,222.2,75.6"/>
					<path class="st19" d="M222.2,75.6c0,0.3-0.2,0.4-0.4,0.2c-0.2-0.1-0.4-0.5-0.4-0.7c0-0.3,0.2-0.4,0.4-0.2
						C222,75,222.2,75.4,222.2,75.6z"/>
					<polyline class="st19" points="224.2,73.2 224.2,71 227.2,69.4 227.2,71.6 					"/>
					<polyline class="st19" points="224.2,73.2 225.5,73.9 225.5,74.4 					"/>
					<polyline class="st19" points="227.2,71.5 228.5,72.2 228.5,72.7 					"/>
					<path class="st12" d="M186.3,95.2l8.1-4.7c0.1,0,0.2,0,0.3,0c0.2,0.1,0.4,0.5,0.4,0.7c0,0.1,0,0.2-0.1,0.3l-8.1,4.7
						c0.1,0,0.1-0.1,0.1-0.3c0-0.3-0.2-0.6-0.4-0.7C186.5,95.1,186.4,95.1,186.3,95.2"/>
					<path class="st19" d="M186.3,95.2l8.1-4.7c0.1,0,0.2,0,0.3,0c0.2,0.1,0.4,0.5,0.4,0.7c0,0.1,0,0.2-0.1,0.3l-8.1,4.7
						c0.1,0,0.1-0.1,0.1-0.3c0-0.3-0.2-0.6-0.4-0.7C186.5,95.1,186.4,95.1,186.3,95.2z"/>
					<path class="st7" d="M187.1,96c0,0.3-0.2,0.4-0.4,0.2c-0.2-0.1-0.4-0.5-0.4-0.7c0-0.3,0.2-0.4,0.4-0.2
						C186.9,95.3,187.1,95.7,187.1,96"/>
					<path class="st19" d="M187.1,96c0,0.3-0.2,0.4-0.4,0.2c-0.2-0.1-0.4-0.5-0.4-0.7c0-0.3,0.2-0.4,0.4-0.2
						C186.9,95.3,187.1,95.7,187.1,96z"/>
					<polyline class="st19" points="188.9,93.6 188.9,91.4 191.9,89.8 191.9,92 					"/>
					<polyline class="st19" points="190.2,94.8 190.2,94.3 188.9,93.6 					"/>
					<polyline class="st19" points="191.9,91.9 193.2,92.6 193.2,93.1 					"/>
					<line class="st7" x1="195.3" y1="102.6" x2="196" y2="101.4"/>
					<line class="st19" x1="195.3" y1="102.6" x2="196" y2="101.4"/>
					<line class="st19" x1="195.3" y1="102.6" x2="196.6" y2="101.9"/>
					<polyline class="st7" points="245,79.6 245,80.2 201.4,105.1 187.2,97 187.2,96.4 199.9,99.3 					"/>
					<polyline class="st19" points="245,79.6 245,80.2 201.4,105.1 187.2,97 187.2,96.4 199.9,99.3 					"/>
					<polyline class="st12" points="232.8,81.7 222.6,75.8 230.4,71.2 245.1,79.6 201.5,104.5 187.2,96.4 195.4,91.7 205.6,97.5 
											"/>
					<polyline class="st19" points="232.8,81.7 222.6,75.8 230.4,71.2 245.1,79.6 201.5,104.5 187.2,96.4 195.4,91.7 205.6,97.5 
											"/>
					<path class="st19" d="M230.8,80.5l3.1-1.8c0,0,0.3-0.5-0.3-0.9c-0.7-0.5-1.4-0.1-1.4-0.1l-3.1,1.8"/>
					<path class="st3" d="M200.1,97.7l-0.7-0.5c0,0,1.4-3.1,2.3-4.2c0.9-1,1.8-1.4,1.8-1.4l5.3-3c0,0,1.5,0.3,1.4,1.3l-3.1,5.6
						l15.1-8.6l3.7-6.6c0,0,0.6-1.7,2.4-2.6l5-3.1c0,0,1.6-0.1,1.2,1.3l-1.4,2.6l-2.8,2l-2.2,4.2l-22.6,12.9l-1.4-1.1l0.3-0.7
						L200.1,97.7z"/>
					<path class="st19" d="M199.5,96.6l-0.9,0.5c0,0-0.3,0.4,0.4,0.8c0.7,0.4,1.3,0.2,1.3,0.2l3.1-1.8"/>
					<path class="st19" d="M204.1,95.8l-3.9,2c0,0,1.3-2.5,1.7-3.1c0.8-1.4,2-2,2-2l5.7-3.2c0,0,1-0.4,0.4,1.2
						c-0.1,0.3-2.7,5.1-2.9,5.3c-0.8,1.5-0.1,1.1-0.1,1.1l16-9.4c0,0,0.4-0.3,1.2-1.9c0.3-0.6,2.3-4.3,2.8-5.2
						c0.9-1.7,1.9-2.1,1.9-2.1l5.3-3.1c0,0,0.8-0.3,0.5,0.5c-0.1,0.3-1.5,2.8-1.5,2.8l-2.7,1.7l-2.3,4.2"/>
					<path class="st19" d="M200.2,97.8l-0.8-0.7c0,0,1.3-2.5,1.7-3.1c0.8-1.4,2-2,2-2l5.7-3.2c0,0,0.9-0.4,1.3,0.8"/>
					<line class="st19" x1="203.4" y1="96.4" x2="204.1" y2="95.8"/>
					<polyline class="st3" points="232.7,81.9 205.7,97.5 208.2,97.5 232.2,83.7 232.8,81.8 					"/>
					<polyline class="st19" points="232.7,81.9 205.7,97.5 208.2,97.5 232.2,83.7 232.8,81.8 					"/>
					<path class="st19" d="M207.1,95.7l15-8.8c0,0,0.4-0.3,1.2-2c0.3-0.6,2.3-4.3,2.8-5.2c0.8-1.6,1.9-2.1,1.9-2.1l5.3-3.1
						c0,0,1.1-0.3,1.3,0.7"/>
					<line class="st19" x1="202.8" y1="92.1" x2="203.7" y2="92.6"/>
					<line class="st19" x1="201.4" y1="93.8" x2="202.2" y2="94.2"/>
					<line class="st19" x1="228" y1="77.8" x2="228.7" y2="78.2"/>
					<line class="st19" x1="226.4" y1="79.5" x2="227.1" y2="79.9"/>
					<line class="st19" x1="201.4" y1="105.1" x2="201.4" y2="104.5"/>
					<path d="M229.2,94.4l-4.6-1.7l-1.7,5.9l1.2-0.7c0.4,1.6,0.7,2.7,0.7,4.3c0,2.8-0.9,2.9-2.2,4.3c3.6-0.3,6.3-1.2,6.3-6.4
						c0-1.6-0.3-3.4-0.7-5.1L229.2,94.4z"/>
					<path class="st22" d="M229.2,94.4l-4.6-1.7l-1.7,5.9l1.2-0.7c0.4,1.6,0.7,2.7,0.7,4.3c0,2.8-0.9,2.9-2.2,4.3
						c3.6-0.3,6.3-1.2,6.3-6.4c0-1.6-0.3-3.4-0.7-5.1L229.2,94.4z"/>
					<path d="M218.6,104.9c-0.6-0.4-1.3-0.8-1.9-1.3l-3.2,1.8c0.5,0.4,1.1,0.8,1.7,1.1c3.4,2,6.4,1.7,8.2-0.4
						C222,106.3,220.4,105.9,218.6,104.9"/>
					<path d="M228.6,96l-3.8-1.4l-1.5,4.5l1-0.6c0.3,1.3,0.5,2.7,0.5,3.9c0,2.3-0.6,4.1-1.6,5.3c3-0.2,5-2.8,5-7
						c0-1.3-0.2-2.7-0.6-4.2L228.6,96z"/>
				</g>
			</g>
		</g>
	</g>
</g>
</svg>
