<?xml version="1.0" encoding="utf-8"?>
<!-- Generator: Adobe Illustrator 26.0.3, SVG Export Plug-In . SVG Version: 6.00 Build 0)  -->
<svg version="1.1" id="Layer_1" xmlns="http://www.w3.org/2000/svg" xmlns:xlink="http://www.w3.org/1999/xlink" x="0px" y="0px"
	 viewBox="0 0 218.5 63.3" style="enable-background:new 0 0 218.5 63.3;" xml:space="preserve">
<style type="text/css">
	.st0{fill:#FFFFFF;}
	.st1{fill:none;stroke:#939598;stroke-width:2.4533;}
	.st2{fill:#939598;stroke:#808080;stroke-width:2.1127;}
	.st3{fill-rule:evenodd;clip-rule:evenodd;fill:#F79320;}
	.st4{fill-rule:evenodd;clip-rule:evenodd;fill:#FFFFFF;}
	.st5{font-family:'Gotham-Book';}
	.st6{font-size:4.6289px;}
	.st7{font-size:3.9932px;}
	.st8{fill:none;stroke:#000000;stroke-width:0.5195;stroke-linejoin:round;}
	.st9{fill:none;stroke:#000000;stroke-width:0.7986;}
	.st10{fill-rule:evenodd;clip-rule:evenodd;fill:#221F1F;}
</style>
<g>
	<rect x="113" y="1.2" class="st0" width="104.2" height="60.9"/>
	<rect x="113" y="1.2" class="st1" width="104.2" height="60.9"/>
	<rect x="165" y="1.2" class="st2" width="52.3" height="13.1"/>
	<rect x="165" y="1.2" class="st1" width="52.3" height="13.1"/>
	<rect x="113" y="1.2" class="st0" width="52" height="13.1"/>
	<rect x="113" y="1.2" class="st1" width="52" height="13.1"/>
	<g>
		<path class="st0" d="M169.7,5.9v3.2h1.9v0.7h-2.8V5.9H169.7z"/>
		<path class="st0" d="M172.9,5.9v3.9H172V5.9H172.9z"/>
		<path class="st0" d="M176.4,5.9v0.7h-1.9v0.9h1.6v0.7h-1.6v1.6h-0.9V5.9H176.4z"/>
		<path class="st0" d="M176.6,6.6V5.9h3.2v0.7h-1.2v3.2h-0.9V6.6H176.6z"/>
		<path class="st0" d="M181.1,5.9v3.9h-0.9V5.9H181.1z"/>
		<path class="st0" d="M182.7,5.9l1.6,2.6h0V5.9h0.8v3.9h-0.9l-1.6-2.6h0v2.6h-0.8V5.9H182.7z"/>
		<path class="st0" d="M188.2,9.8c-0.2,0.1-0.4,0.1-0.6,0.1c-0.3,0-0.6-0.1-0.8-0.2c-0.2-0.1-0.4-0.2-0.6-0.4
			c-0.2-0.2-0.3-0.4-0.4-0.6c-0.1-0.2-0.1-0.5-0.1-0.8c0-0.3,0-0.6,0.1-0.8c0.1-0.2,0.2-0.5,0.4-0.7c0.2-0.2,0.4-0.3,0.6-0.4
			c0.2-0.1,0.5-0.2,0.8-0.2c0.2,0,0.4,0,0.6,0.1c0.2,0.1,0.4,0.1,0.5,0.3c0.2,0.1,0.3,0.3,0.4,0.4c0.1,0.2,0.2,0.4,0.2,0.6h-0.8
			c-0.1-0.2-0.1-0.4-0.3-0.5c-0.1-0.1-0.3-0.2-0.5-0.2c-0.2,0-0.4,0-0.5,0.1c-0.1,0.1-0.2,0.2-0.3,0.3c-0.1,0.1-0.1,0.3-0.2,0.4
			c0,0.2-0.1,0.3-0.1,0.5c0,0.2,0,0.3,0.1,0.5s0.1,0.3,0.2,0.4s0.2,0.2,0.3,0.3c0.1,0.1,0.3,0.1,0.5,0.1c0.3,0,0.5-0.1,0.7-0.2
			c0.2-0.1,0.2-0.4,0.3-0.6h-0.9V7.7h1.6v2.1h-0.5l-0.1-0.4C188.6,9.6,188.4,9.7,188.2,9.8z"/>
		<path class="st0" d="M192.4,5.9v1.5h1.6V5.9h0.9v3.9H194V8.1h-1.6v1.7h-0.9V5.9H192.4z"/>
		<path class="st0" d="M197.6,5.9l1.5,3.9h-0.9l-0.3-0.9h-1.5l-0.3,0.9h-0.9l1.5-3.9H197.6z M197.6,8.3l-0.5-1.4h0l-0.5,1.4H197.6z"
			/>
		<path class="st0" d="M201.2,6.6h-1.9V5.9h3.1v0.7l-2.1,2.5h2.1v0.7h-3.3V9.1L201.2,6.6z"/>
		<path class="st0" d="M204.8,5.9l1.5,3.9h-0.9l-0.3-0.9h-1.5l-0.3,0.9h-0.9l1.5-3.9H204.8z M204.9,8.3l-0.5-1.4h0l-0.5,1.4H204.9z"
			/>
		<path class="st0" d="M208.7,5.9c0.2,0,0.3,0,0.5,0.1c0.1,0.1,0.3,0.1,0.4,0.2s0.2,0.2,0.2,0.3c0.1,0.1,0.1,0.3,0.1,0.4
			c0,0.2,0,0.4-0.1,0.6c-0.1,0.2-0.3,0.3-0.5,0.4v0c0.1,0,0.2,0.1,0.3,0.1s0.1,0.1,0.2,0.2c0,0.1,0.1,0.2,0.1,0.3c0,0.1,0,0.2,0,0.3
			c0,0.1,0,0.1,0,0.2s0,0.2,0,0.3c0,0.1,0,0.2,0,0.2c0,0.1,0.1,0.1,0.1,0.2h-0.9c0-0.1-0.1-0.3-0.1-0.4c0-0.2,0-0.3,0-0.5
			c0-0.2-0.1-0.4-0.2-0.4c-0.1-0.1-0.2-0.1-0.5-0.1h-0.9v1.5h-0.9V5.9H208.7z M208.4,7.7c0.2,0,0.3,0,0.4-0.1
			c0.1-0.1,0.1-0.2,0.1-0.4c0-0.2,0-0.3-0.1-0.4c-0.1-0.1-0.2-0.1-0.4-0.1h-0.9v1.1H208.4z"/>
		<path class="st0" d="M212.3,5.9c0.3,0,0.5,0,0.7,0.1c0.2,0.1,0.4,0.2,0.6,0.4c0.2,0.2,0.3,0.4,0.4,0.6c0.1,0.2,0.1,0.5,0.1,0.8
			c0,0.3,0,0.5-0.1,0.8c-0.1,0.2-0.2,0.4-0.3,0.6c-0.1,0.2-0.3,0.3-0.6,0.4c-0.2,0.1-0.5,0.2-0.8,0.2h-1.7V5.9H212.3z M212.2,9.1
			c0.1,0,0.2,0,0.4-0.1c0.1,0,0.2-0.1,0.3-0.2c0.1-0.1,0.2-0.2,0.2-0.4c0.1-0.1,0.1-0.3,0.1-0.5c0-0.2,0-0.4-0.1-0.5
			c0-0.2-0.1-0.3-0.2-0.4c-0.1-0.1-0.2-0.2-0.3-0.3c-0.1-0.1-0.3-0.1-0.5-0.1h-0.6v2.5H212.2z"/>
	</g>
	<path class="st3" d="M119.4,12h8.1c0.2,0,0.2-0.2,0.1-0.3c0,0-3.9-7.8-4-8c0,0,0-0.1-0.1-0.1c-0.1,0-0.1,0-0.1,0.1
		c-0.1,0.2-4,8-4,8C119.3,11.8,119.2,12,119.4,12"/>
	<g>
		<path d="M134.3,6.6c-0.2-0.2-0.5-0.2-0.8-0.2c-0.3,0-0.5,0-0.7,0.1c-0.2,0.1-0.3,0.2-0.5,0.4c-0.1,0.2-0.2,0.4-0.3,0.6
			c-0.1,0.2-0.1,0.4-0.1,0.7c0,0.2,0,0.5,0.1,0.7c0.1,0.2,0.1,0.4,0.3,0.6c0.1,0.2,0.3,0.3,0.5,0.4c0.2,0.1,0.4,0.1,0.7,0.1
			c0.2,0,0.4,0,0.5-0.1c0.1-0.1,0.3-0.2,0.4-0.3c0.1-0.1,0.2-0.2,0.3-0.4c0.1-0.2,0.1-0.3,0.1-0.5h0.6c-0.1,0.5-0.2,1-0.6,1.3
			c-0.3,0.3-0.8,0.5-1.3,0.5c-0.3,0-0.6-0.1-0.9-0.2s-0.5-0.3-0.6-0.5c-0.2-0.2-0.3-0.4-0.4-0.7c-0.1-0.3-0.1-0.6-0.1-0.9
			c0-0.3,0-0.6,0.1-0.9c0.1-0.3,0.2-0.5,0.4-0.7c0.2-0.2,0.4-0.4,0.6-0.5c0.3-0.1,0.6-0.2,0.9-0.2c0.2,0,0.4,0,0.6,0.1
			c0.2,0.1,0.4,0.2,0.5,0.3c0.2,0.1,0.3,0.3,0.4,0.4c0.1,0.2,0.2,0.4,0.2,0.6h-0.6C134.7,7,134.5,6.8,134.3,6.6z"/>
		<path d="M137.9,6l1.7,4.3h-0.6L138.5,9h-1.8l-0.5,1.3h-0.6l1.7-4.3H137.9z M138.3,8.6l-0.7-2h0l-0.7,2H138.3z"/>
		<path d="M143,10c-0.3,0.3-0.7,0.4-1.3,0.4c-0.6,0-1-0.1-1.3-0.4c-0.3-0.3-0.5-0.7-0.5-1.3V6h0.6v2.8c0,0.4,0.1,0.7,0.3,0.9
			c0.2,0.2,0.5,0.3,0.9,0.3c0.4,0,0.7-0.1,0.8-0.3c0.2-0.2,0.3-0.5,0.3-0.9V6h0.6v2.8C143.4,9.3,143.3,9.8,143,10z"/>
		<path d="M143.8,6.5V6h3.5v0.5h-1.4v3.9h-0.6V6.5H143.8z"/>
		<path d="M148.3,6v4.3h-0.6V6H148.3z"/>
		<path d="M149.1,7.3c0.1-0.3,0.2-0.5,0.4-0.7c0.2-0.2,0.4-0.4,0.7-0.5c0.3-0.1,0.6-0.2,0.9-0.2s0.6,0.1,0.9,0.2
			c0.3,0.1,0.5,0.3,0.7,0.5c0.2,0.2,0.3,0.5,0.4,0.7c0.1,0.3,0.1,0.6,0.1,0.9c0,0.3,0,0.6-0.1,0.9c-0.1,0.3-0.2,0.5-0.4,0.7
			c-0.2,0.2-0.4,0.4-0.7,0.5c-0.3,0.1-0.6,0.2-0.9,0.2s-0.6-0.1-0.9-0.2c-0.3-0.1-0.5-0.3-0.7-0.5c-0.2-0.2-0.3-0.5-0.4-0.7
			c-0.1-0.3-0.1-0.6-0.1-0.9C149,7.9,149.1,7.6,149.1,7.3z M149.7,8.8c0.1,0.2,0.1,0.4,0.3,0.6c0.1,0.2,0.3,0.3,0.5,0.4
			c0.2,0.1,0.4,0.2,0.7,0.2c0.3,0,0.5-0.1,0.7-0.2c0.2-0.1,0.3-0.2,0.5-0.4c0.1-0.2,0.2-0.4,0.3-0.6c0.1-0.2,0.1-0.4,0.1-0.6
			c0-0.2,0-0.4-0.1-0.6c-0.1-0.2-0.1-0.4-0.3-0.6c-0.1-0.2-0.3-0.3-0.5-0.4c-0.2-0.1-0.4-0.2-0.7-0.2c-0.3,0-0.5,0.1-0.7,0.2
			c-0.2,0.1-0.3,0.2-0.5,0.4c-0.1,0.2-0.2,0.4-0.3,0.6c-0.1,0.2-0.1,0.4-0.1,0.6C149.6,8.4,149.6,8.6,149.7,8.8z"/>
	</g>
	<g>
		<path d="M154.4,6l2.3,3.5h0V6h0.5v4.3h-0.6l-2.3-3.5h0v3.5h-0.5V6H154.4z"/>
	</g>
	<path class="st3" d="M119.7,12.4c-0.4,0-0.8-0.4-0.8-0.8c0-0.2,0.1-0.3,0.2-0.5l3.8-7.6c0.1-0.2,0.4-0.3,0.6-0.3
		c0.3,0,0.5,0.1,0.6,0.3l3.8,7.6c0.1,0.1,0.2,0.3,0.2,0.5c0,0.4-0.4,0.8-0.8,0.8H119.7z M119.7,12.5h7.6c0.2,0,0.2-0.2,0.1-0.3
		c0,0-3.7-7.3-3.8-7.5c0,0,0,0-0.1,0s-0.1,0-0.1,0c-0.1,0.2-3.8,7.5-3.8,7.5C119.5,12.3,119.5,12.5,119.7,12.5"/>
	<path class="st4" d="M124,10.6c0,0.3-0.3,0.6-0.6,0.6c-0.3,0-0.6-0.3-0.6-0.6c0-0.3,0.3-0.6,0.6-0.6C123.8,10,124,10.3,124,10.6"/>
	<path class="st4" d="M123.4,5.9c-0.3,0-0.5,0.2-0.5,0.5l0.2,2.8c0,0.2,0.2,0.4,0.4,0.4c0.2,0,0.4-0.2,0.4-0.4l0.2-2.8
		C124,6.1,123.7,5.9,123.4,5.9"/>
	<text transform="matrix(1 0 0 1.0001 119.2799 51.5116)"><tspan x="0" y="0" class="st5 st6">240 lbs. (109 kg</tspan><tspan x="37.1" y="0" class="st5 st6">)</tspan><tspan x="0" y="4.8" class="st5 st7">Fully-populated chassis</tspan></text>
	<polyline class="st0" points="143.3,45.5 159.2,36.3 159.2,26.1 143.2,34.1 	"/>
	<polyline class="st8" points="143.3,45.5 159.2,36.3 159.2,26.1 143.2,34.1 	"/>
	<polyline class="st0" points="129.1,26.3 145.1,19.5 159.2,26.1 143.3,34.5 	"/>
	<polyline class="st8" points="129.1,26.3 145.1,19.8 159.2,26.1 143.3,34.5 	"/>
	<polygon class="st0" points="129.1,26.3 143.3,34.5 143.3,45.5 129.1,37.4 	"/>
	<polygon class="st8" points="129.1,26.3 143.3,34.5 143.3,45.5 129.1,37.4 	"/>
	<line class="st0" x1="133.7" y1="34.5" x2="129.7" y2="32.2"/>
	<line class="st8" x1="133.7" y1="34.5" x2="129.7" y2="32.2"/>
	<line class="st0" x1="133.7" y1="34.4" x2="129.6" y2="32.1"/>
	<line class="st8" x1="133.7" y1="34.4" x2="129.6" y2="32.1"/>
	<line class="st0" x1="142.7" y1="45.2" x2="142.7" y2="34.2"/>
	<line class="st8" x1="142.7" y1="45.2" x2="142.7" y2="34.2"/>
	<line class="st0" x1="129.6" y1="26.6" x2="129.6" y2="37.7"/>
	<line class="st8" x1="129.6" y1="26.6" x2="129.6" y2="37.7"/>
	<line class="st0" x1="133.7" y1="40" x2="133.7" y2="28.9"/>
	<line class="st8" x1="133.7" y1="40" x2="133.7" y2="28.9"/>
	<line class="st0" x1="134.2" y1="29.2" x2="134.2" y2="40.3"/>
	<line class="st8" x1="134.2" y1="29.2" x2="134.2" y2="40.3"/>
	<line class="st0" x1="138.2" y1="42.6" x2="138.2" y2="31.6"/>
	<line class="st8" x1="138.2" y1="42.6" x2="138.2" y2="31.6"/>
	<line class="st0" x1="138.7" y1="31.9" x2="138.7" y2="42.9"/>
	<line class="st8" x1="138.7" y1="31.9" x2="138.7" y2="42.9"/>
	<line class="st0" x1="138.2" y1="37.2" x2="134.2" y2="34.8"/>
	<line class="st8" x1="138.2" y1="37.2" x2="134.2" y2="34.8"/>
	<line class="st0" x1="138.2" y1="37" x2="134.2" y2="34.7"/>
	<line class="st8" x1="138.2" y1="37" x2="134.2" y2="34.7"/>
	<line class="st0" x1="142.7" y1="39.8" x2="138.7" y2="37.5"/>
	<line class="st8" x1="142.7" y1="39.8" x2="138.7" y2="37.5"/>
	<line class="st0" x1="142.7" y1="39.7" x2="138.7" y2="37.3"/>
	<line class="st8" x1="142.7" y1="39.7" x2="138.7" y2="37.3"/>
	<g>
		<path d="M176.4,24.9c0,1.3,1.1,2.4,2.4,2.4c1.3,0,2.4-1.1,2.4-2.4s-1.1-2.4-2.4-2.4C177.5,22.5,176.4,23.6,176.4,24.9z"/>
		<path d="M179.4,28.8l-2.5-1.7c0,0-1.2-0.5-1.6,0.9l-3.4,6.8c0,0-0.2,1.3,1.1,2.4l4.7,5.4c0,0,0.7,0.7,0.1,2l-1.8,4.1
			c0,0-0.8,1.4,0.1,2.3l1,0.6c0,0,0.9,0,1.4-0.9l2.5-6.4c0,0,0.5-2.2-0.5-3.4l-3.4-3.8c0,0-0.6-1-0.2-1.8l1.4-2.2l0.5-0.1
			c0,0-0.2,1.6,0.8,2.2l4.6,3.8c0,0,0.8,0.1,1-0.4l0.4-0.5c0,0,0.3-0.9-0.4-1.5l-3.9-3.5L179.4,28.8z"/>
	</g>
	<g>
		<path d="M199.1,24.9c0,1.3-1.1,2.4-2.4,2.4c-1.3,0-2.4-1.1-2.4-2.4c0-1.3,1.1-2.4,2.4-2.4C198,22.5,199.1,23.6,199.1,24.9z"/>
		<path d="M194.6,28h3.5c0,0,1.4,0.3,1.4,1.5c0.1,1.2,0,3.7,0,3.7l0,5.4c0,0-0.5,0.5-0.9,0.7c0,0-0.4,0.2-0.5,0.6l-0.4,5.6l0.1,5.1
			c0,0-0.3,1.2-1.2,1.3h-0.5c0,0-0.9-0.4-1.1-1.7v-7.5c0,0-1.4-1.6-1.8-2.8c-0.5-1.2-0.5-7.2-0.5-7.2s-0.1-0.7-0.6-0.2l-3.2,4.4
			c0,0-0.6,0.3-0.9,0.2c0,0-0.7-0.5-0.5-1.4l5.4-6.9C192.9,28.7,193.8,27.7,194.6,28z"/>
	</g>
	<g>
		<polygon class="st0" points="189.5,45 200.4,43.2 200.4,34.6 189.5,32.8 178.7,34.6 178.7,43.2 		"/>
		<line class="st9" x1="189.5" y1="36.3" x2="189.5" y2="45"/>
		<line class="st9" x1="178.7" y1="34.6" x2="178.7" y2="43.2"/>
		<line class="st9" x1="200.4" y1="34.6" x2="200.4" y2="43.2"/>
		<line class="st9" x1="178.7" y1="34.6" x2="189.5" y2="36.3"/>
		<line class="st9" x1="200.4" y1="34.6" x2="189.5" y2="36.3"/>
		<line class="st9" x1="178.7" y1="34.6" x2="189.5" y2="32.8"/>
		<line class="st9" x1="200.4" y1="34.6" x2="189.5" y2="32.8"/>
		<line class="st9" x1="178.7" y1="43.2" x2="189.5" y2="45"/>
		<line class="st9" x1="200.4" y1="43.2" x2="189.5" y2="45"/>
	</g>
	<g>
		<path d="M204.2,24.9c0,1.3-1.1,2.4-2.4,2.4c-1.3,0-2.4-1.1-2.4-2.4s1.1-2.4,2.4-2.4C203.1,22.5,204.2,23.6,204.2,24.9z"/>
		<path d="M201.2,28.8l2.5-1.7c0,0,1.2-0.5,1.6,0.9l3.4,6.8c0,0,0.2,1.3-1.1,2.4l-4.7,5.4c0,0-0.7,0.7-0.1,2l1.8,4.1
			c0,0,0.8,1.4-0.1,2.3l-1,0.6c0,0-0.9,0-1.4-0.9l-2.5-6.4c0,0-0.5-2.2,0.5-3.4l3.4-3.8c0,0,0.6-1,0.2-1.8l-1.4-2.2l-0.5-0.1
			c0,0,0.2,1.6-0.8,2.2l-4.6,3.8c0,0-0.8,0.1-1-0.4l-0.4-0.5c0,0-0.3-0.9,0.4-1.5l3.9-3.5L201.2,28.8z"/>
	</g>
	<g>
		<path d="M182.1,24.9c0,1.3,1.1,2.4,2.4,2.4c1.3,0,2.4-1.1,2.4-2.4c0-1.3-1.1-2.4-2.4-2.4C183.2,22.5,182.1,23.6,182.1,24.9z"/>
		<path d="M186.6,28h-3.5c0,0-1.4,0.3-1.4,1.5c-0.1,1.2,0,3.7,0,3.7l0,5.4c0,0,0.5,0.5,0.9,0.7c0,0,0.4,0.2,0.5,0.6l0.4,5.6l0,5.1
			c0,0,0.3,1.2,1.2,1.3h0.5c0,0,0.9-0.4,1.1-1.7v-7.5c0,0,1.4-1.6,1.8-2.8c0.5-1.2,0.5-7.2,0.5-7.2s0.1-0.7,0.6-0.2l3.2,4.4
			c0,0,0.6,0.3,0.9,0.2c0,0,0.7-0.5,0.5-1.4l-5.4-6.9C188.3,28.7,187.4,27.7,186.6,28z"/>
	</g>
</g>
<g>
	<g>
		<rect x="1.2" y="1.2" class="st0" width="104.2" height="60.9"/>
		<rect x="1.2" y="1.2" class="st1" width="104.2" height="60.9"/>
		<rect x="53.2" y="1.2" class="st2" width="52.3" height="13.1"/>
		<rect x="53.2" y="1.2" class="st1" width="52.3" height="13.1"/>
		<rect x="1.2" y="1.2" class="st0" width="52" height="13.1"/>
		<rect x="1.2" y="1.2" class="st1" width="52" height="13.1"/>
		<g>
			<path class="st0" d="M57.9,5.9v3.2h1.9v0.7H57V5.9H57.9z"/>
			<path class="st0" d="M61.1,5.9v3.9h-0.9V5.9H61.1z"/>
			<path class="st0" d="M64.6,5.9v0.7h-1.9v0.9h1.6v0.7h-1.6v1.6h-0.9V5.9H64.6z"/>
			<path class="st0" d="M64.8,6.6V5.9H68v0.7h-1.2v3.2H66V6.6H64.8z"/>
			<path class="st0" d="M69.3,5.9v3.9h-0.9V5.9H69.3z"/>
			<path class="st0" d="M70.9,5.9l1.6,2.6h0V5.9h0.8v3.9h-0.9l-1.6-2.6h0v2.6h-0.8V5.9H70.9z"/>
			<path class="st0" d="M76.4,9.8c-0.2,0.1-0.4,0.1-0.6,0.1c-0.3,0-0.6-0.1-0.8-0.2c-0.2-0.1-0.4-0.2-0.6-0.4
				c-0.2-0.2-0.3-0.4-0.4-0.6C74,8.4,74,8.2,74,7.9c0-0.3,0-0.6,0.1-0.8c0.1-0.2,0.2-0.5,0.4-0.7c0.2-0.2,0.4-0.3,0.6-0.4
				c0.2-0.1,0.5-0.2,0.8-0.2c0.2,0,0.4,0,0.6,0.1C76.7,6,76.8,6,77,6.2c0.2,0.1,0.3,0.3,0.4,0.4c0.1,0.2,0.2,0.4,0.2,0.6h-0.8
				c-0.1-0.2-0.1-0.4-0.3-0.5s-0.3-0.2-0.5-0.2c-0.2,0-0.4,0-0.5,0.1c-0.1,0.1-0.2,0.2-0.3,0.3c-0.1,0.1-0.1,0.3-0.2,0.4
				c0,0.2-0.1,0.3-0.1,0.5c0,0.2,0,0.3,0.1,0.5c0,0.2,0.1,0.3,0.2,0.4c0.1,0.1,0.2,0.2,0.3,0.3c0.1,0.1,0.3,0.1,0.5,0.1
				c0.3,0,0.5-0.1,0.7-0.2c0.2-0.1,0.2-0.4,0.3-0.6h-0.9V7.7h1.6v2.1H77L77,9.4C76.8,9.6,76.6,9.7,76.4,9.8z"/>
			<path class="st0" d="M80.7,5.9v1.5h1.6V5.9h0.9v3.9h-0.9V8.1h-1.6v1.7h-0.9V5.9H80.7z"/>
			<path class="st0" d="M85.8,5.9l1.5,3.9h-0.9l-0.3-0.9h-1.5l-0.3,0.9h-0.9l1.5-3.9H85.8z M85.8,8.3l-0.5-1.4h0l-0.5,1.4H85.8z"/>
			<path class="st0" d="M89.4,6.6h-1.9V5.9h3.1v0.7l-2.1,2.5h2.1v0.7h-3.3V9.1L89.4,6.6z"/>
			<path class="st0" d="M93.1,5.9l1.5,3.9h-0.9l-0.3-0.9h-1.5l-0.3,0.9h-0.9l1.5-3.9H93.1z M93.1,8.3l-0.5-1.4h0l-0.5,1.4H93.1z"/>
			<path class="st0" d="M97,5.9c0.2,0,0.3,0,0.5,0.1c0.1,0.1,0.3,0.1,0.4,0.2S98,6.4,98,6.6c0.1,0.1,0.1,0.3,0.1,0.4
				c0,0.2,0,0.4-0.1,0.6c-0.1,0.2-0.3,0.3-0.5,0.4v0c0.1,0,0.2,0.1,0.3,0.1c0.1,0.1,0.1,0.1,0.2,0.2C98,8.4,98,8.5,98,8.6
				c0,0.1,0,0.2,0,0.3c0,0.1,0,0.1,0,0.2c0,0.1,0,0.2,0,0.3c0,0.1,0,0.2,0,0.2c0,0.1,0.1,0.1,0.1,0.2h-0.9c0-0.1-0.1-0.3-0.1-0.4
				c0-0.2,0-0.3,0-0.5c0-0.2-0.1-0.4-0.2-0.4c-0.1-0.1-0.2-0.1-0.5-0.1h-0.9v1.5h-0.9V5.9H97z M96.7,7.7c0.2,0,0.3,0,0.4-0.1
				c0.1-0.1,0.1-0.2,0.1-0.4c0-0.2,0-0.3-0.1-0.4c-0.1-0.1-0.2-0.1-0.4-0.1h-0.9v1.1H96.7z"/>
			<path class="st0" d="M100.5,5.9c0.3,0,0.5,0,0.7,0.1c0.2,0.1,0.4,0.2,0.6,0.4c0.2,0.2,0.3,0.4,0.4,0.6c0.1,0.2,0.1,0.5,0.1,0.8
				c0,0.3,0,0.5-0.1,0.8c-0.1,0.2-0.2,0.4-0.3,0.6c-0.1,0.2-0.3,0.3-0.6,0.4c-0.2,0.1-0.5,0.2-0.8,0.2h-1.7V5.9H100.5z M100.4,9.1
				c0.1,0,0.2,0,0.4-0.1c0.1,0,0.2-0.1,0.3-0.2c0.1-0.1,0.2-0.2,0.2-0.4c0.1-0.1,0.1-0.3,0.1-0.5c0-0.2,0-0.4-0.1-0.5
				c0-0.2-0.1-0.3-0.2-0.4c-0.1-0.1-0.2-0.2-0.3-0.3c-0.1-0.1-0.3-0.1-0.5-0.1h-0.6v2.5H100.4z"/>
		</g>
		<path class="st3" d="M7.7,12h8.1c0.2,0,0.2-0.2,0.1-0.3c0,0-3.9-7.8-4-8c0,0,0-0.1-0.1-0.1c-0.1,0-0.1,0-0.1,0.1c-0.1,0.2-4,8-4,8
			C7.5,11.8,7.5,12,7.7,12"/>
		<g>
			<path d="M22.6,6.6c-0.2-0.2-0.5-0.2-0.8-0.2c-0.3,0-0.5,0-0.7,0.1c-0.2,0.1-0.3,0.2-0.5,0.4c-0.1,0.2-0.2,0.4-0.3,0.6
				c-0.1,0.2-0.1,0.4-0.1,0.7c0,0.2,0,0.5,0.1,0.7c0.1,0.2,0.1,0.4,0.3,0.6c0.1,0.2,0.3,0.3,0.5,0.4c0.2,0.1,0.4,0.1,0.7,0.1
				c0.2,0,0.4,0,0.5-0.1c0.1-0.1,0.3-0.2,0.4-0.3c0.1-0.1,0.2-0.2,0.3-0.4C23,9.1,23,8.9,23,8.7h0.6c-0.1,0.5-0.2,1-0.6,1.3
				c-0.3,0.3-0.8,0.5-1.3,0.5c-0.3,0-0.6-0.1-0.9-0.2c-0.3-0.1-0.5-0.3-0.6-0.5c-0.2-0.2-0.3-0.4-0.4-0.7c-0.1-0.3-0.1-0.6-0.1-0.9
				c0-0.3,0-0.6,0.1-0.9C20,7,20.1,6.8,20.3,6.6c0.2-0.2,0.4-0.4,0.6-0.5c0.3-0.1,0.6-0.2,0.9-0.2c0.2,0,0.4,0,0.6,0.1
				c0.2,0.1,0.4,0.2,0.5,0.3c0.2,0.1,0.3,0.3,0.4,0.4c0.1,0.2,0.2,0.4,0.2,0.6H23C22.9,7,22.8,6.8,22.6,6.6z"/>
			<path d="M26.1,6l1.7,4.3h-0.6L26.7,9h-1.8l-0.5,1.3h-0.6L25.5,6H26.1z M26.5,8.6l-0.7-2h0l-0.7,2H26.5z"/>
			<path d="M31.2,10c-0.3,0.3-0.7,0.4-1.3,0.4c-0.6,0-1-0.1-1.3-0.4c-0.3-0.3-0.5-0.7-0.5-1.3V6h0.6v2.8c0,0.4,0.1,0.7,0.3,0.9
				c0.2,0.2,0.5,0.3,0.9,0.3c0.4,0,0.7-0.1,0.8-0.3c0.2-0.2,0.3-0.5,0.3-0.9V6h0.6v2.8C31.7,9.3,31.5,9.8,31.2,10z"/>
			<path d="M32.1,6.5V6h3.5v0.5h-1.4v3.9h-0.6V6.5H32.1z"/>
			<path d="M36.6,6v4.3H36V6H36.6z"/>
			<path d="M37.4,7.3c0.1-0.3,0.2-0.5,0.4-0.7c0.2-0.2,0.4-0.4,0.7-0.5C38.7,6,39,5.9,39.3,5.9S40,6,40.2,6.1
				c0.3,0.1,0.5,0.3,0.7,0.5c0.2,0.2,0.3,0.5,0.4,0.7c0.1,0.3,0.1,0.6,0.1,0.9c0,0.3,0,0.6-0.1,0.9c-0.1,0.3-0.2,0.5-0.4,0.7
				c-0.2,0.2-0.4,0.4-0.7,0.5c-0.3,0.1-0.6,0.2-0.9,0.2s-0.6-0.1-0.9-0.2c-0.3-0.1-0.5-0.3-0.7-0.5c-0.2-0.2-0.3-0.5-0.4-0.7
				c-0.1-0.3-0.1-0.6-0.1-0.9C37.3,7.9,37.3,7.6,37.4,7.3z M37.9,8.8C38,9,38.1,9.2,38.2,9.4c0.1,0.2,0.3,0.3,0.5,0.4
				c0.2,0.1,0.4,0.2,0.7,0.2c0.3,0,0.5-0.1,0.7-0.2c0.2-0.1,0.3-0.2,0.5-0.4c0.1-0.2,0.2-0.4,0.3-0.6c0.1-0.2,0.1-0.4,0.1-0.6
				c0-0.2,0-0.4-0.1-0.6c-0.1-0.2-0.1-0.4-0.3-0.6c-0.1-0.2-0.3-0.3-0.5-0.4c-0.2-0.1-0.4-0.2-0.7-0.2c-0.3,0-0.5,0.1-0.7,0.2
				c-0.2,0.1-0.3,0.2-0.5,0.4c-0.1,0.2-0.2,0.4-0.3,0.6c-0.1,0.2-0.1,0.4-0.1,0.6C37.8,8.4,37.9,8.6,37.9,8.8z"/>
		</g>
		<g>
			<path d="M42.7,6l2.3,3.5h0V6h0.5v4.3h-0.6l-2.3-3.5h0v3.5H42V6H42.7z"/>
		</g>
		<path class="st3" d="M7.9,12.4c-0.4,0-0.8-0.4-0.8-0.8c0-0.2,0.1-0.3,0.2-0.5l3.8-7.6c0.1-0.2,0.4-0.3,0.6-0.3
			c0.3,0,0.5,0.1,0.6,0.3l3.8,7.6c0.1,0.1,0.2,0.3,0.2,0.5c0,0.4-0.4,0.8-0.8,0.8H7.9z M7.9,12.5h7.6c0.2,0,0.2-0.2,0.1-0.3
			c0,0-3.7-7.3-3.8-7.5c0,0,0,0-0.1,0s-0.1,0-0.1,0c-0.1,0.2-3.8,7.5-3.8,7.5C7.8,12.3,7.7,12.5,7.9,12.5"/>
		<path class="st4" d="M12.3,10.6c0,0.3-0.3,0.6-0.6,0.6c-0.3,0-0.6-0.3-0.6-0.6c0-0.3,0.3-0.6,0.6-0.6C12,10,12.3,10.3,12.3,10.6"
			/>
		<path class="st4" d="M11.7,5.9c-0.3,0-0.5,0.2-0.5,0.5l0.2,2.8c0,0.2,0.2,0.4,0.4,0.4c0.2,0,0.4-0.2,0.4-0.4l0.2-2.8
			C12.2,6.1,12,5.9,11.7,5.9"/>
		<text transform="matrix(1 0 0 1.0001 7.5211 51.5112)"><tspan x="0" y="0" class="st5 st6">90 lbs. (41 kg</tspan><tspan x="31" y="0" class="st5 st6">)</tspan><tspan x="0" y="4.8" class="st5 st7">Empty chassis</tspan></text>
		<polyline class="st0" points="31.5,45.5 47.4,36.3 47.4,26.1 31.5,34.1 		"/>
		<polyline class="st8" points="31.5,45.5 47.4,36.3 47.4,26.1 31.5,34.1 		"/>
		<polyline class="st0" points="17.4,26.3 33.3,19.5 47.4,26.1 31.5,34.5 		"/>
		<polyline class="st8" points="17.4,26.3 33.3,19.8 47.4,26.1 31.5,34.5 		"/>
		<polygon class="st0" points="17.4,26.3 31.5,34.5 31.5,45.5 17.4,37.4 		"/>
		<polygon class="st8" points="17.4,26.3 31.5,34.5 31.5,45.5 17.4,37.4 		"/>
		<line class="st0" x1="21.9" y1="34.5" x2="17.9" y2="32.2"/>
		<line class="st8" x1="21.9" y1="34.5" x2="17.9" y2="32.2"/>
		<line class="st0" x1="21.9" y1="34.4" x2="17.9" y2="32.1"/>
		<line class="st8" x1="21.9" y1="34.4" x2="17.9" y2="32.1"/>
		<line class="st0" x1="31" y1="45.2" x2="31" y2="34.2"/>
		<line class="st8" x1="31" y1="45.2" x2="31" y2="34.2"/>
		<line class="st0" x1="17.9" y1="26.6" x2="17.9" y2="37.7"/>
		<line class="st8" x1="17.9" y1="26.6" x2="17.9" y2="37.7"/>
		<line class="st0" x1="21.9" y1="40" x2="21.9" y2="28.9"/>
		<line class="st8" x1="21.9" y1="40" x2="21.9" y2="28.9"/>
		<line class="st0" x1="22.4" y1="29.2" x2="22.4" y2="40.3"/>
		<line class="st8" x1="22.4" y1="29.2" x2="22.4" y2="40.3"/>
		<line class="st0" x1="26.4" y1="42.6" x2="26.4" y2="31.6"/>
		<line class="st8" x1="26.4" y1="42.6" x2="26.4" y2="31.6"/>
		<line class="st0" x1="27" y1="31.9" x2="27" y2="42.9"/>
		<line class="st8" x1="27" y1="31.9" x2="27" y2="42.9"/>
		<line class="st0" x1="26.4" y1="37.2" x2="22.4" y2="34.8"/>
		<line class="st8" x1="26.4" y1="37.2" x2="22.4" y2="34.8"/>
		<line class="st0" x1="26.4" y1="37" x2="22.4" y2="34.7"/>
		<line class="st8" x1="26.4" y1="37" x2="22.4" y2="34.7"/>
		<line class="st0" x1="31" y1="39.8" x2="27" y2="37.5"/>
		<line class="st8" x1="31" y1="39.8" x2="27" y2="37.5"/>
		<line class="st0" x1="31" y1="39.7" x2="27" y2="37.3"/>
		<line class="st8" x1="31" y1="39.7" x2="27" y2="37.3"/>
	</g>
	<g>
		<rect x="72" y="34.6" class="st4" width="14.9" height="6.4"/>
		<path class="st10" d="M86.9,41H72v-6.4h14.9V41z M87.7,41.8H71.3v-7.9h16.4V41.8"/>
		<g>
			<path class="st10" d="M71.1,25.6c0,1.3-1,2.3-2.3,2.3c-1.3,0-2.3-1-2.3-2.3c0-1.3,1-2.3,2.3-2.3C70.1,23.3,71.1,24.3,71.1,25.6z"
				/>
			<path class="st10" d="M64.9,28.5c0.5-0.9,1.8-1.4,2.6-0.8l2,1.3l1.8,4.3l3.5,3.2c0.5,0.5,0.5,1.2,0,1.6c-0.5,0.5-1.2,0.5-1.6,0
				l-4.4-3.6l-0.5-1.8l-1.5,3.3l3.8,4.8c0.5,0.7,0.4,1.7,0.3,2l-2.6,6.6c-0.3,0.7-1.1,1-1.8,0.7c-0.7-0.3-1-1.1-0.7-1.8l2.1-5.4
				c0.1-0.4-0.1-1-0.4-1.3l-4.7-5.5c-0.7-0.7-0.8-1.8-0.3-2.8L64.9,28.5"/>
		</g>
		<g>
			<path class="st10" d="M87.9,25.6c0,1.3,1,2.3,2.3,2.3c1.3,0,2.3-1,2.3-2.3c0-1.3-1-2.3-2.3-2.3C88.9,23.3,87.9,24.3,87.9,25.6z"
				/>
			<path class="st10" d="M94.1,28.5c-0.5-0.9-1.8-1.4-2.6-0.8l-2,1.3l-1.8,4.3l-3.5,3.2c-0.5,0.5-0.5,1.2,0,1.6
				c0.5,0.5,1.2,0.5,1.6,0l4.4-3.6l0.5-1.8l1.5,3.3l-3.8,4.8c-0.5,0.7-0.4,1.7-0.3,2l2.6,6.6c0.3,0.7,1.1,1,1.8,0.7
				c0.7-0.3,1-1.1,0.7-1.8l-2.1-5.4c-0.2-0.4,0.1-1,0.3-1.3l4.7-5.5c0.7-0.7,0.8-1.8,0.3-2.8L94.1,28.5"/>
		</g>
	</g>
</g>
</svg>
